<?xml version="1.0" encoding="UTF-8" standalone="no"?>
<!DOCTYPE svg PUBLIC "-//W3C//DTD SVG 1.1//EN"
 "http://www.w3.org/Graphics/SVG/1.1/DTD/svg11.dtd">
<!-- Generated by graphviz version 2.43.0 (0)
 -->
<!-- Title: G Pages: 1 -->
<svg width="2768pt" height="774pt"
 viewBox="0.00 0.00 2768.20 774.20" xmlns="http://www.w3.org/2000/svg" xmlns:xlink="http://www.w3.org/1999/xlink">
<g id="graph0" class="graph" transform="scale(1 1) rotate(0) translate(21.6 752.6)">
<title>G</title>
<polygon fill="#111111" stroke="transparent" points="-21.6,21.6 -21.6,-752.6 2746.6,-752.6 2746.6,21.6 -21.6,21.6"/>
<!-- src/app.ts -->
<g id="node1" class="node">
<title>src/app.ts</title>
<path fill="none" stroke="#c6c5fe" d="M1113.33,-613C1113.33,-613 1053.67,-613 1053.67,-613 1049.83,-613 1046,-609.17 1046,-605.33 1046,-605.33 1046,-597.67 1046,-597.67 1046,-593.83 1049.83,-590 1053.67,-590 1053.67,-590 1113.33,-590 1113.33,-590 1117.17,-590 1121,-593.83 1121,-597.67 1121,-597.67 1121,-605.33 1121,-605.33 1121,-609.17 1117.17,-613 1113.33,-613"/>
<text text-anchor="middle" x="1083.5" y="-597.8" font-family="Arial" font-size="14.00" fill="#c6c5fe">src/app.ts</text>
</g>
<!-- src/expressions/binary&#45;operation.ts -->
<g id="node2" class="node">
<title>src/expressions/binary&#45;operation.ts</title>
<path fill="none" stroke="#c6c5fe" d="M559.83,-495C559.83,-495 349.17,-495 349.17,-495 345.33,-495 341.5,-491.17 341.5,-487.33 341.5,-487.33 341.5,-479.67 341.5,-479.67 341.5,-475.83 345.33,-472 349.17,-472 349.17,-472 559.83,-472 559.83,-472 563.67,-472 567.5,-475.83 567.5,-479.67 567.5,-479.67 567.5,-487.33 567.5,-487.33 567.5,-491.17 563.67,-495 559.83,-495"/>
<text text-anchor="middle" x="454.5" y="-479.8" font-family="Arial" font-size="14.00" fill="#c6c5fe">src/expressions/binary&#45;operation.ts</text>
</g>
<!-- src/app.ts&#45;&gt;src/expressions/binary&#45;operation.ts -->
<g id="edge1" class="edge">
<title>src/app.ts&#45;&gt;src/expressions/binary&#45;operation.ts</title>
<path fill="none" stroke="#757575" d="M1045.68,-610C926.02,-610 563.5,-610 563.5,-610 563.5,-610 563.5,-505.17 563.5,-505.17"/>
<polygon fill="#757575" stroke="#757575" points="567,-505.17 563.5,-495.17 560,-505.17 567,-505.17"/>
</g>
<!-- src/expressions/grouped&#45;expressions.ts -->
<g id="node3" class="node">
<title>src/expressions/grouped&#45;expressions.ts</title>
<path fill="none" stroke="#c6c5fe" d="M915.83,-377C915.83,-377 677.17,-377 677.17,-377 673.33,-377 669.5,-373.17 669.5,-369.33 669.5,-369.33 669.5,-361.67 669.5,-361.67 669.5,-357.83 673.33,-354 677.17,-354 677.17,-354 915.83,-354 915.83,-354 919.67,-354 923.5,-357.83 923.5,-361.67 923.5,-361.67 923.5,-369.33 923.5,-369.33 923.5,-373.17 919.67,-377 915.83,-377"/>
<text text-anchor="middle" x="796.5" y="-361.8" font-family="Arial" font-size="14.00" fill="#c6c5fe">src/expressions/grouped&#45;expressions.ts</text>
</g>
<!-- src/app.ts&#45;&gt;src/expressions/grouped&#45;expressions.ts -->
<g id="edge2" class="edge">
<title>src/app.ts&#45;&gt;src/expressions/grouped&#45;expressions.ts</title>
<path fill="none" stroke="#757575" d="M1061,-589.77C1061,-567.66 1061,-522 1061,-522 1061,-522 913.25,-522 913.25,-522 913.25,-522 913.25,-387.01 913.25,-387.01"/>
<polygon fill="#757575" stroke="#757575" points="916.75,-387.01 913.25,-377.01 909.75,-387.01 916.75,-387.01"/>
</g>
<!-- src/expressions/handlers.ts -->
<g id="node4" class="node">
<title>src/expressions/handlers.ts</title>
<path fill="none" stroke="#c6c5fe" d="M1386.83,-200C1386.83,-200 1222.17,-200 1222.17,-200 1218.33,-200 1214.5,-196.17 1214.5,-192.33 1214.5,-192.33 1214.5,-184.67 1214.5,-184.67 1214.5,-180.83 1218.33,-177 1222.17,-177 1222.17,-177 1386.83,-177 1386.83,-177 1390.67,-177 1394.5,-180.83 1394.5,-184.67 1394.5,-184.67 1394.5,-192.33 1394.5,-192.33 1394.5,-196.17 1390.67,-200 1386.83,-200"/>
<text text-anchor="middle" x="1304.5" y="-184.8" font-family="Arial" font-size="14.00" fill="#c6c5fe">src/expressions/handlers.ts</text>
</g>
<!-- src/app.ts&#45;&gt;src/expressions/handlers.ts -->
<g id="edge3" class="edge">
<title>src/app.ts&#45;&gt;src/expressions/handlers.ts</title>
<path fill="none" stroke="#757575" d="M1091,-589.92C1091,-556.13 1091,-460 1091,-460 1091,-460 1308.29,-460 1308.29,-460 1308.29,-460 1308.29,-210.17 1308.29,-210.17"/>
<polygon fill="#757575" stroke="#757575" points="1311.79,-210.17 1308.29,-200.17 1304.79,-210.17 1311.79,-210.17"/>
</g>
<!-- src/handlers/dereference&#45;assignment.ts -->
<g id="node5" class="node">
<title>src/handlers/dereference&#45;assignment.ts</title>
<path fill="none" stroke="#c6c5fe" d="M2081.83,-436C2081.83,-436 1843.17,-436 1843.17,-436 1839.33,-436 1835.5,-432.17 1835.5,-428.33 1835.5,-428.33 1835.5,-420.67 1835.5,-420.67 1835.5,-416.83 1839.33,-413 1843.17,-413 1843.17,-413 2081.83,-413 2081.83,-413 2085.67,-413 2089.5,-416.83 2089.5,-420.67 2089.5,-420.67 2089.5,-428.33 2089.5,-428.33 2089.5,-432.17 2085.67,-436 2081.83,-436"/>
<text text-anchor="middle" x="1962.5" y="-420.8" font-family="Arial" font-size="14.00" fill="#c6c5fe">src/handlers/dereference&#45;assignment.ts</text>
</g>
<!-- src/app.ts&#45;&gt;src/handlers/dereference&#45;assignment.ts -->
<g id="edge4" class="edge">
<title>src/app.ts&#45;&gt;src/handlers/dereference&#45;assignment.ts</title>
<path fill="none" stroke="#757575" d="M1121.13,-601C1274.9,-601 1847.5,-601 1847.5,-601 1847.5,-601 1847.5,-446.08 1847.5,-446.08"/>
<polygon fill="#757575" stroke="#757575" points="1851,-446.08 1847.5,-436.08 1844,-446.08 1851,-446.08"/>
</g>
<!-- src/handlers/lambda&#45;expressions.ts -->
<g id="node6" class="node">
<title>src/handlers/lambda&#45;expressions.ts</title>
<path fill="none" stroke="#c6c5fe" d="M2405.83,-436C2405.83,-436 2191.17,-436 2191.17,-436 2187.33,-436 2183.5,-432.17 2183.5,-428.33 2183.5,-428.33 2183.5,-420.67 2183.5,-420.67 2183.5,-416.83 2187.33,-413 2191.17,-413 2191.17,-413 2405.83,-413 2405.83,-413 2409.67,-413 2413.5,-416.83 2413.5,-420.67 2413.5,-420.67 2413.5,-428.33 2413.5,-428.33 2413.5,-432.17 2409.67,-436 2405.83,-436"/>
<text text-anchor="middle" x="2298.5" y="-420.8" font-family="Arial" font-size="14.00" fill="#c6c5fe">src/handlers/lambda&#45;expressions.ts</text>
</g>
<!-- src/app.ts&#45;&gt;src/handlers/lambda&#45;expressions.ts -->
<g id="edge5" class="edge">
<title>src/app.ts&#45;&gt;src/handlers/lambda&#45;expressions.ts</title>
<path fill="none" stroke="#757575" d="M1121.01,-605C1316.6,-605 2210.75,-605 2210.75,-605 2210.75,-605 2210.75,-446.07 2210.75,-446.07"/>
<polygon fill="#757575" stroke="#757575" points="2214.25,-446.07 2210.75,-436.07 2207.25,-446.07 2214.25,-446.07"/>
</g>
<!-- src/handlers/module&#45;access.ts -->
<g id="node7" class="node">
<title>src/handlers/module&#45;access.ts</title>
<path fill="none" stroke="#c6c5fe" d="M1171.83,-377C1171.83,-377 987.17,-377 987.17,-377 983.33,-377 979.5,-373.17 979.5,-369.33 979.5,-369.33 979.5,-361.67 979.5,-361.67 979.5,-357.83 983.33,-354 987.17,-354 987.17,-354 1171.83,-354 1171.83,-354 1175.67,-354 1179.5,-357.83 1179.5,-361.67 1179.5,-361.67 1179.5,-369.33 1179.5,-369.33 1179.5,-373.17 1175.67,-377 1171.83,-377"/>
<text text-anchor="middle" x="1079.5" y="-361.8" font-family="Arial" font-size="14.00" fill="#c6c5fe">src/handlers/module&#45;access.ts</text>
</g>
<!-- src/app.ts&#45;&gt;src/handlers/module&#45;access.ts -->
<g id="edge6" class="edge">
<title>src/app.ts&#45;&gt;src/handlers/module&#45;access.ts</title>
<path fill="none" stroke="#757575" d="M1076,-589.8C1076,-589.8 1076,-387.27 1076,-387.27"/>
<polygon fill="#757575" stroke="#757575" points="1079.5,-387.27 1076,-377.27 1072.5,-387.27 1079.5,-387.27"/>
</g>
<!-- src/handlers/pointer&#45;operations.ts -->
<g id="node8" class="node">
<title>src/handlers/pointer&#45;operations.ts</title>
<path fill="none" stroke="#c6c5fe" d="M1837.33,-377C1837.33,-377 1635.67,-377 1635.67,-377 1631.83,-377 1628,-373.17 1628,-369.33 1628,-369.33 1628,-361.67 1628,-361.67 1628,-357.83 1631.83,-354 1635.67,-354 1635.67,-354 1837.33,-354 1837.33,-354 1841.17,-354 1845,-357.83 1845,-361.67 1845,-361.67 1845,-369.33 1845,-369.33 1845,-373.17 1841.17,-377 1837.33,-377"/>
<text text-anchor="middle" x="1736.5" y="-361.8" font-family="Arial" font-size="14.00" fill="#c6c5fe">src/handlers/pointer&#45;operations.ts</text>
</g>
<!-- src/app.ts&#45;&gt;src/handlers/pointer&#45;operations.ts -->
<g id="edge7" class="edge">
<title>src/app.ts&#45;&gt;src/handlers/pointer&#45;operations.ts</title>
<path fill="none" stroke="#757575" d="M1121.15,-597C1269.77,-597 1807.5,-597 1807.5,-597 1807.5,-597 1807.5,-387.3 1807.5,-387.3"/>
<polygon fill="#757575" stroke="#757575" points="1811,-387.3 1807.5,-377.3 1804,-387.3 1811,-387.3"/>
</g>
<!-- src/loops/for.ts -->
<g id="node9" class="node">
<title>src/loops/for.ts</title>
<path fill="none" stroke="#c6c5fe" d="M990.83,-554C990.83,-554 902.17,-554 902.17,-554 898.33,-554 894.5,-550.17 894.5,-546.33 894.5,-546.33 894.5,-538.67 894.5,-538.67 894.5,-534.83 898.33,-531 902.17,-531 902.17,-531 990.83,-531 990.83,-531 994.67,-531 998.5,-534.83 998.5,-538.67 998.5,-538.67 998.5,-546.33 998.5,-546.33 998.5,-550.17 994.67,-554 990.83,-554"/>
<text text-anchor="middle" x="946.5" y="-538.8" font-family="Arial" font-size="14.00" fill="#c6c5fe">src/loops/for.ts</text>
</g>
<!-- src/app.ts&#45;&gt;src/loops/for.ts -->
<g id="edge8" class="edge">
<title>src/app.ts&#45;&gt;src/loops/for.ts</title>
<path fill="none" stroke="#757575" d="M1045.88,-595C1020.27,-595 991,-595 991,-595 991,-595 991,-564.15 991,-564.15"/>
<polygon fill="#757575" stroke="#757575" points="994.5,-564.15 991,-554.15 987.5,-564.15 994.5,-564.15"/>
</g>
<!-- src/loops/loop.ts -->
<g id="node10" class="node">
<title>src/loops/loop.ts</title>
<path fill="none" stroke="#cfffac" d="M1028.83,-495C1028.83,-495 930.17,-495 930.17,-495 926.33,-495 922.5,-491.17 922.5,-487.33 922.5,-487.33 922.5,-479.67 922.5,-479.67 922.5,-475.83 926.33,-472 930.17,-472 930.17,-472 1028.83,-472 1028.83,-472 1032.67,-472 1036.5,-475.83 1036.5,-479.67 1036.5,-479.67 1036.5,-487.33 1036.5,-487.33 1036.5,-491.17 1032.67,-495 1028.83,-495"/>
<text text-anchor="middle" x="979.5" y="-479.8" font-family="Arial" font-size="14.00" fill="#cfffac">src/loops/loop.ts</text>
</g>
<!-- src/app.ts&#45;&gt;src/loops/loop.ts -->
<g id="edge9" class="edge">
<title>src/app.ts&#45;&gt;src/loops/loop.ts</title>
<path fill="none" stroke="#757575" d="M1045.84,-592C1035.71,-592 1027.5,-592 1027.5,-592 1027.5,-592 1027.5,-505.11 1027.5,-505.11"/>
<polygon fill="#757575" stroke="#757575" points="1031,-505.11 1027.5,-495.11 1024,-505.11 1031,-505.11"/>
</g>
<!-- src/loops/while.ts -->
<g id="node11" class="node">
<title>src/loops/while.ts</title>
<path fill="none" stroke="#c6c5fe" d="M868.33,-554C868.33,-554 764.67,-554 764.67,-554 760.83,-554 757,-550.17 757,-546.33 757,-546.33 757,-538.67 757,-538.67 757,-534.83 760.83,-531 764.67,-531 764.67,-531 868.33,-531 868.33,-531 872.17,-531 876,-534.83 876,-538.67 876,-538.67 876,-546.33 876,-546.33 876,-550.17 872.17,-554 868.33,-554"/>
<text text-anchor="middle" x="816.5" y="-538.8" font-family="Arial" font-size="14.00" fill="#c6c5fe">src/loops/while.ts</text>
</g>
<!-- src/app.ts&#45;&gt;src/loops/while.ts -->
<g id="edge10" class="edge">
<title>src/app.ts&#45;&gt;src/loops/while.ts</title>
<path fill="none" stroke="#757575" d="M1045.81,-598C972.21,-598 816.5,-598 816.5,-598 816.5,-598 816.5,-564.27 816.5,-564.27"/>
<polygon fill="#757575" stroke="#757575" points="820,-564.27 816.5,-554.27 813,-564.27 820,-564.27"/>
</g>
<!-- src/match.ts -->
<g id="node12" class="node">
<title>src/match.ts</title>
<path fill="none" stroke="#cfffac" d="M675.83,-318C675.83,-318 601.17,-318 601.17,-318 597.33,-318 593.5,-314.17 593.5,-310.33 593.5,-310.33 593.5,-302.67 593.5,-302.67 593.5,-298.83 597.33,-295 601.17,-295 601.17,-295 675.83,-295 675.83,-295 679.67,-295 683.5,-298.83 683.5,-302.67 683.5,-302.67 683.5,-310.33 683.5,-310.33 683.5,-314.17 679.67,-318 675.83,-318"/>
<text text-anchor="middle" x="638.5" y="-302.8" font-family="Arial" font-size="14.00" fill="#cfffac">src/match.ts</text>
</g>
<!-- src/app.ts&#45;&gt;src/match.ts -->
<g id="edge11" class="edge">
<title>src/app.ts&#45;&gt;src/match.ts</title>
<path fill="none" stroke="#757575" d="M1045.77,-601C934.07,-601 612.75,-601 612.75,-601 612.75,-601 612.75,-328.04 612.75,-328.04"/>
<polygon fill="#757575" stroke="#757575" points="616.25,-328.04 612.75,-318.04 609.25,-328.04 616.25,-328.04"/>
</g>
<!-- src/parser.ts -->
<g id="node13" class="node">
<title>src/parser.ts</title>
<path fill="none" stroke="#c6c5fe" d="M526.83,-82C526.83,-82 452.17,-82 452.17,-82 448.33,-82 444.5,-78.17 444.5,-74.33 444.5,-74.33 444.5,-66.67 444.5,-66.67 444.5,-62.83 448.33,-59 452.17,-59 452.17,-59 526.83,-59 526.83,-59 530.67,-59 534.5,-62.83 534.5,-66.67 534.5,-66.67 534.5,-74.33 534.5,-74.33 534.5,-78.17 530.67,-82 526.83,-82"/>
<text text-anchor="middle" x="489.5" y="-66.8" font-family="Arial" font-size="14.00" fill="#c6c5fe">src/parser.ts</text>
</g>
<!-- src/app.ts&#45;&gt;src/parser.ts -->
<g id="edge12" class="edge">
<title>src/app.ts&#45;&gt;src/parser.ts</title>
<path fill="none" stroke="#757575" d="M1045.77,-607C929.02,-607 581.5,-607 581.5,-607 581.5,-607 581.5,-70 581.5,-70 581.5,-70 544.69,-70 544.69,-70"/>
<polygon fill="#757575" stroke="#757575" points="544.69,-66.5 534.69,-70 544.69,-73.5 544.69,-66.5"/>
</g>
<!-- src/scope.ts -->
<g id="node14" class="node">
<title>src/scope.ts</title>
<path fill="none" stroke="#c6c5fe" d="M2554.33,-495C2554.33,-495 2480.67,-495 2480.67,-495 2476.83,-495 2473,-491.17 2473,-487.33 2473,-487.33 2473,-479.67 2473,-479.67 2473,-475.83 2476.83,-472 2480.67,-472 2480.67,-472 2554.33,-472 2554.33,-472 2558.17,-472 2562,-475.83 2562,-479.67 2562,-479.67 2562,-487.33 2562,-487.33 2562,-491.17 2558.17,-495 2554.33,-495"/>
<text text-anchor="middle" x="2517.5" y="-479.8" font-family="Arial" font-size="14.00" fill="#c6c5fe">src/scope.ts</text>
</g>
<!-- src/app.ts&#45;&gt;src/scope.ts -->
<g id="edge13" class="edge">
<title>src/app.ts&#45;&gt;src/scope.ts</title>
<path fill="none" stroke="#757575" d="M1121.12,-609C1347.37,-609 2517.5,-609 2517.5,-609 2517.5,-609 2517.5,-505.08 2517.5,-505.08"/>
<polygon fill="#757575" stroke="#757575" points="2521,-505.08 2517.5,-495.08 2514,-505.08 2521,-505.08"/>
</g>
<!-- src/utils/app&#45;handlers.ts -->
<g id="node15" class="node">
<title>src/utils/app&#45;handlers.ts</title>
<path fill="none" stroke="#c6c5fe" d="M1435.33,-554C1435.33,-554 1291.67,-554 1291.67,-554 1287.83,-554 1284,-550.17 1284,-546.33 1284,-546.33 1284,-538.67 1284,-538.67 1284,-534.83 1287.83,-531 1291.67,-531 1291.67,-531 1435.33,-531 1435.33,-531 1439.17,-531 1443,-534.83 1443,-538.67 1443,-538.67 1443,-546.33 1443,-546.33 1443,-550.17 1439.17,-554 1435.33,-554"/>
<text text-anchor="middle" x="1363.5" y="-538.8" font-family="Arial" font-size="14.00" fill="#c6c5fe">src/utils/app&#45;handlers.ts</text>
</g>
<!-- src/app.ts&#45;&gt;src/utils/app&#45;handlers.ts -->
<g id="edge14" class="edge">
<title>src/app.ts&#45;&gt;src/utils/app&#45;handlers.ts</title>
<path fill="none" stroke="#757575" d="M1106,-589.85C1106,-574.38 1106,-549 1106,-549 1106,-549 1273.79,-549 1273.79,-549"/>
<polygon fill="#757575" stroke="#757575" points="1273.79,-552.5 1283.79,-549 1273.79,-545.5 1273.79,-552.5"/>
</g>
<!-- src/utils/array.ts -->
<g id="node16" class="node">
<title>src/utils/array.ts</title>
<path fill="none" stroke="#cfffac" d="M609.83,-23C609.83,-23 515.17,-23 515.17,-23 511.33,-23 507.5,-19.17 507.5,-15.33 507.5,-15.33 507.5,-7.67 507.5,-7.67 507.5,-3.83 511.33,0 515.17,0 515.17,0 609.83,0 609.83,0 613.67,0 617.5,-3.83 617.5,-7.67 617.5,-7.67 617.5,-15.33 617.5,-15.33 617.5,-19.17 613.67,-23 609.83,-23"/>
<text text-anchor="middle" x="562.5" y="-7.8" font-family="Arial" font-size="14.00" fill="#cfffac">src/utils/array.ts</text>
</g>
<!-- src/app.ts&#45;&gt;src/utils/array.ts -->
<g id="edge15" class="edge">
<title>src/app.ts&#45;&gt;src/utils/array.ts</title>
<path fill="none" stroke="#757575" d="M1045.66,-604C929.44,-604 585.5,-604 585.5,-604 585.5,-604 585.5,-33.07 585.5,-33.07"/>
<polygon fill="#757575" stroke="#757575" points="589,-33.07 585.5,-23.07 582,-33.07 589,-33.07"/>
</g>
<!-- src/utils/this&#45;keyword.ts -->
<g id="node17" class="node">
<title>src/utils/this&#45;keyword.ts</title>
<path fill="none" stroke="#c6c5fe" d="M1771.83,-436C1771.83,-436 1631.17,-436 1631.17,-436 1627.33,-436 1623.5,-432.17 1623.5,-428.33 1623.5,-428.33 1623.5,-420.67 1623.5,-420.67 1623.5,-416.83 1627.33,-413 1631.17,-413 1631.17,-413 1771.83,-413 1771.83,-413 1775.67,-413 1779.5,-416.83 1779.5,-420.67 1779.5,-420.67 1779.5,-428.33 1779.5,-428.33 1779.5,-432.17 1775.67,-436 1771.83,-436"/>
<text text-anchor="middle" x="1701.5" y="-420.8" font-family="Arial" font-size="14.00" fill="#c6c5fe">src/utils/this&#45;keyword.ts</text>
</g>
<!-- src/app.ts&#45;&gt;src/utils/this&#45;keyword.ts -->
<g id="edge16" class="edge">
<title>src/app.ts&#45;&gt;src/utils/this&#45;keyword.ts</title>
<path fill="none" stroke="#757575" d="M1121.21,-593C1248.07,-593 1651.5,-593 1651.5,-593 1651.5,-593 1651.5,-446.08 1651.5,-446.08"/>
<polygon fill="#757575" stroke="#757575" points="1655,-446.08 1651.5,-436.08 1648,-446.08 1655,-446.08"/>
</g>
<!-- src/expressions/binary&#45;operation.ts&#45;&gt;src/expressions/handlers.ts -->
<g id="edge18" class="edge">
<title>src/expressions/binary&#45;operation.ts&#45;&gt;src/expressions/handlers.ts</title>
<path fill="none" stroke="#757575" d="M560.12,-471.64C560.12,-415.71 560.12,-181 560.12,-181 560.12,-181 1204.34,-181 1204.34,-181"/>
<polygon fill="#757575" stroke="#757575" points="1204.34,-184.5 1214.34,-181 1204.34,-177.5 1204.34,-184.5"/>
</g>
<!-- src/expressions/binary&#45;operation.ts&#45;&gt;src/parser.ts -->
<g id="edge20" class="edge">
<title>src/expressions/binary&#45;operation.ts&#45;&gt;src/parser.ts</title>
<path fill="none" stroke="#757575" d="M545.38,-471.74C545.38,-404.93 545.38,-76 545.38,-76 545.38,-76 544.3,-76 544.3,-76"/>
<polygon fill="#757575" stroke="#757575" points="544.6,-72.5 534.6,-76 544.6,-79.5 544.6,-72.5"/>
</g>
<!-- src/expressions/operators.ts -->
<g id="node19" class="node">
<title>src/expressions/operators.ts</title>
<path fill="none" stroke="#c6c5fe" d="M530.33,-436C530.33,-436 360.67,-436 360.67,-436 356.83,-436 353,-432.17 353,-428.33 353,-428.33 353,-420.67 353,-420.67 353,-416.83 356.83,-413 360.67,-413 360.67,-413 530.33,-413 530.33,-413 534.17,-413 538,-416.83 538,-420.67 538,-420.67 538,-428.33 538,-428.33 538,-432.17 534.17,-436 530.33,-436"/>
<text text-anchor="middle" x="445.5" y="-420.8" font-family="Arial" font-size="14.00" fill="#c6c5fe">src/expressions/operators.ts</text>
</g>
<!-- src/expressions/binary&#45;operation.ts&#45;&gt;src/expressions/operators.ts -->
<g id="edge19" class="edge">
<title>src/expressions/binary&#45;operation.ts&#45;&gt;src/expressions/operators.ts</title>
<path fill="none" stroke="#757575" d="M445.5,-471.84C445.5,-471.84 445.5,-446.13 445.5,-446.13"/>
<polygon fill="#757575" stroke="#757575" points="449,-446.13 445.5,-436.13 442,-446.13 449,-446.13"/>
</g>
<!-- src/expressions/grouped&#45;expressions.ts&#45;&gt;src/expressions/handlers.ts -->
<g id="edge21" class="edge">
<title>src/expressions/grouped&#45;expressions.ts&#45;&gt;src/expressions/handlers.ts</title>
<path fill="none" stroke="#757575" d="M739.25,-354C739.25,-314.38 739.25,-186 739.25,-186 739.25,-186 1204.31,-186 1204.31,-186"/>
<polygon fill="#757575" stroke="#757575" points="1204.31,-189.5 1214.31,-186 1204.31,-182.5 1204.31,-189.5"/>
</g>
<!-- src/expressions/grouped&#45;expressions.ts&#45;&gt;src/match.ts -->
<g id="edge22" class="edge">
<title>src/expressions/grouped&#45;expressions.ts&#45;&gt;src/match.ts</title>
<path fill="none" stroke="#757575" d="M676.5,-353.84C676.5,-353.84 676.5,-328.13 676.5,-328.13"/>
<polygon fill="#757575" stroke="#757575" points="680,-328.13 676.5,-318.13 673,-328.13 680,-328.13"/>
</g>
<!-- src/expressions/grouped&#45;expressions.ts&#45;&gt;src/utils/array.ts -->
<g id="edge24" class="edge">
<title>src/expressions/grouped&#45;expressions.ts&#45;&gt;src/utils/array.ts</title>
<path fill="none" stroke="#757575" d="M669.24,-369C626.51,-369 589.5,-369 589.5,-369 589.5,-369 589.5,-33.39 589.5,-33.39"/>
<polygon fill="#757575" stroke="#757575" points="593,-33.39 589.5,-23.39 586,-33.39 593,-33.39"/>
</g>
<!-- src/types/structs.ts -->
<g id="node20" class="node">
<title>src/types/structs.ts</title>
<path fill="none" stroke="#c6c5fe" d="M1230.83,-318C1230.83,-318 1118.17,-318 1118.17,-318 1114.33,-318 1110.5,-314.17 1110.5,-310.33 1110.5,-310.33 1110.5,-302.67 1110.5,-302.67 1110.5,-298.83 1114.33,-295 1118.17,-295 1118.17,-295 1230.83,-295 1230.83,-295 1234.67,-295 1238.5,-298.83 1238.5,-302.67 1238.5,-302.67 1238.5,-310.33 1238.5,-310.33 1238.5,-314.17 1234.67,-318 1230.83,-318"/>
<text text-anchor="middle" x="1174.5" y="-302.8" font-family="Arial" font-size="14.00" fill="#c6c5fe">src/types/structs.ts</text>
</g>
<!-- src/expressions/grouped&#45;expressions.ts&#45;&gt;src/types/structs.ts -->
<g id="edge23" class="edge">
<title>src/expressions/grouped&#45;expressions.ts&#45;&gt;src/types/structs.ts</title>
<path fill="none" stroke="#757575" d="M917.5,-353.88C917.5,-343.52 917.5,-330 917.5,-330 917.5,-330 1156.5,-330 1156.5,-330 1156.5,-330 1156.5,-328.25 1156.5,-328.25"/>
<polygon fill="#757575" stroke="#757575" points="1160,-328.25 1156.5,-318.25 1153,-328.25 1160,-328.25"/>
</g>
<!-- src/utils/identifier&#45;utils.ts -->
<g id="node21" class="node">
<title>src/utils/identifier&#45;utils.ts</title>
<path fill="none" stroke="#cfffac" d="M1484.83,-259C1484.83,-259 1340.17,-259 1340.17,-259 1336.33,-259 1332.5,-255.17 1332.5,-251.33 1332.5,-251.33 1332.5,-243.67 1332.5,-243.67 1332.5,-239.83 1336.33,-236 1340.17,-236 1340.17,-236 1484.83,-236 1484.83,-236 1488.67,-236 1492.5,-239.83 1492.5,-243.67 1492.5,-243.67 1492.5,-251.33 1492.5,-251.33 1492.5,-255.17 1488.67,-259 1484.83,-259"/>
<text text-anchor="middle" x="1412.5" y="-243.8" font-family="Arial" font-size="14.00" fill="#cfffac">src/utils/identifier&#45;utils.ts</text>
</g>
<!-- src/expressions/grouped&#45;expressions.ts&#45;&gt;src/utils/identifier&#45;utils.ts -->
<g id="edge25" class="edge">
<title>src/expressions/grouped&#45;expressions.ts&#45;&gt;src/utils/identifier&#45;utils.ts</title>
<path fill="none" stroke="#757575" d="M920.5,-353.75C920.5,-347.88 920.5,-342 920.5,-342 920.5,-342 1345.33,-342 1345.33,-342 1345.33,-342 1345.33,-269.09 1345.33,-269.09"/>
<polygon fill="#757575" stroke="#757575" points="1348.83,-269.09 1345.33,-259.09 1341.83,-269.09 1348.83,-269.09"/>
</g>
<!-- src/handlers/assignment.ts -->
<g id="node22" class="node">
<title>src/handlers/assignment.ts</title>
<path fill="none" stroke="#c6c5fe" d="M1496.83,-141C1496.83,-141 1334.17,-141 1334.17,-141 1330.33,-141 1326.5,-137.17 1326.5,-133.33 1326.5,-133.33 1326.5,-125.67 1326.5,-125.67 1326.5,-121.83 1330.33,-118 1334.17,-118 1334.17,-118 1496.83,-118 1496.83,-118 1500.67,-118 1504.5,-121.83 1504.5,-125.67 1504.5,-125.67 1504.5,-133.33 1504.5,-133.33 1504.5,-137.17 1500.67,-141 1496.83,-141"/>
<text text-anchor="middle" x="1415.5" y="-125.8" font-family="Arial" font-size="14.00" fill="#c6c5fe">src/handlers/assignment.ts</text>
</g>
<!-- src/expressions/handlers.ts&#45;&gt;src/handlers/assignment.ts -->
<g id="edge26" class="edge">
<title>src/expressions/handlers.ts&#45;&gt;src/handlers/assignment.ts</title>
<path fill="none" stroke="#757575" d="M1360.5,-176.84C1360.5,-176.84 1360.5,-151.13 1360.5,-151.13"/>
<polygon fill="#757575" stroke="#757575" points="1364,-151.13 1360.5,-141.13 1357,-151.13 1364,-151.13"/>
</g>
<!-- src/types/interpreter.ts -->
<g id="node23" class="node">
<title>src/types/interpreter.ts</title>
<path fill="none" stroke="#cfffac" d="M1537.33,-82C1537.33,-82 1403.67,-82 1403.67,-82 1399.83,-82 1396,-78.17 1396,-74.33 1396,-74.33 1396,-66.67 1396,-66.67 1396,-62.83 1399.83,-59 1403.67,-59 1403.67,-59 1537.33,-59 1537.33,-59 1541.17,-59 1545,-62.83 1545,-66.67 1545,-66.67 1545,-74.33 1545,-74.33 1545,-78.17 1541.17,-82 1537.33,-82"/>
<text text-anchor="middle" x="1470.5" y="-66.8" font-family="Arial" font-size="14.00" fill="#cfffac">src/types/interpreter.ts</text>
</g>
<!-- src/expressions/handlers.ts&#45;&gt;src/types/interpreter.ts -->
<g id="edge27" class="edge">
<title>src/expressions/handlers.ts&#45;&gt;src/types/interpreter.ts</title>
<path fill="none" stroke="#757575" d="M1270.5,-176.56C1270.5,-145.4 1270.5,-64 1270.5,-64 1270.5,-64 1385.74,-64 1385.74,-64"/>
<polygon fill="#757575" stroke="#757575" points="1385.74,-67.5 1395.74,-64 1385.74,-60.5 1385.74,-67.5"/>
</g>
<!-- src/utils/scope&#45;helpers.ts -->
<g id="node24" class="node">
<title>src/utils/scope&#45;helpers.ts</title>
<path fill="none" stroke="#c6c5fe" d="M2115.33,-141C2115.33,-141 1965.67,-141 1965.67,-141 1961.83,-141 1958,-137.17 1958,-133.33 1958,-133.33 1958,-125.67 1958,-125.67 1958,-121.83 1961.83,-118 1965.67,-118 1965.67,-118 2115.33,-118 2115.33,-118 2119.17,-118 2123,-121.83 2123,-125.67 2123,-125.67 2123,-133.33 2123,-133.33 2123,-137.17 2119.17,-141 2115.33,-141"/>
<text text-anchor="middle" x="2040.5" y="-125.8" font-family="Arial" font-size="14.00" fill="#c6c5fe">src/utils/scope&#45;helpers.ts</text>
</g>
<!-- src/expressions/handlers.ts&#45;&gt;src/utils/scope&#45;helpers.ts -->
<g id="edge28" class="edge">
<title>src/expressions/handlers.ts&#45;&gt;src/utils/scope&#45;helpers.ts</title>
<path fill="none" stroke="#757575" d="M1394.75,-181C1581.87,-181 1994.83,-181 1994.83,-181 1994.83,-181 1994.83,-151.19 1994.83,-151.19"/>
<polygon fill="#757575" stroke="#757575" points="1998.33,-151.19 1994.83,-141.19 1991.33,-151.19 1998.33,-151.19"/>
</g>
<!-- src/handlers/dereference&#45;assignment.ts&#45;&gt;src/expressions/handlers.ts -->
<g id="edge52" class="edge">
<title>src/handlers/dereference&#45;assignment.ts&#45;&gt;src/expressions/handlers.ts</title>
<path fill="none" stroke="#757575" d="M1901.5,-413C1901.5,-365.36 1901.5,-186 1901.5,-186 1901.5,-186 1404.52,-186 1404.52,-186"/>
<polygon fill="#757575" stroke="#757575" points="1404.52,-182.5 1394.52,-186 1404.52,-189.5 1404.52,-182.5"/>
</g>
<!-- src/handlers/dereference&#45;assignment.ts&#45;&gt;src/handlers/pointer&#45;operations.ts -->
<g id="edge53" class="edge">
<title>src/handlers/dereference&#45;assignment.ts&#45;&gt;src/handlers/pointer&#45;operations.ts</title>
<path fill="none" stroke="#757575" d="M1840.25,-412.84C1840.25,-412.84 1840.25,-387.13 1840.25,-387.13"/>
<polygon fill="#757575" stroke="#757575" points="1843.75,-387.13 1840.25,-377.13 1836.75,-387.13 1843.75,-387.13"/>
</g>
<!-- src/functions.ts -->
<g id="node31" class="node">
<title>src/functions.ts</title>
<path fill="none" stroke="#c6c5fe" d="M2218.33,-377C2218.33,-377 2126.67,-377 2126.67,-377 2122.83,-377 2119,-373.17 2119,-369.33 2119,-369.33 2119,-361.67 2119,-361.67 2119,-357.83 2122.83,-354 2126.67,-354 2126.67,-354 2218.33,-354 2218.33,-354 2222.17,-354 2226,-357.83 2226,-361.67 2226,-361.67 2226,-369.33 2226,-369.33 2226,-373.17 2222.17,-377 2218.33,-377"/>
<text text-anchor="middle" x="2172.5" y="-361.8" font-family="Arial" font-size="14.00" fill="#c6c5fe">src/functions.ts</text>
</g>
<!-- src/handlers/lambda&#45;expressions.ts&#45;&gt;src/functions.ts -->
<g id="edge59" class="edge">
<title>src/handlers/lambda&#45;expressions.ts&#45;&gt;src/functions.ts</title>
<path fill="none" stroke="#757575" d="M2204.75,-412.84C2204.75,-412.84 2204.75,-387.13 2204.75,-387.13"/>
<polygon fill="#757575" stroke="#757575" points="2208.25,-387.13 2204.75,-377.13 2201.25,-387.13 2208.25,-387.13"/>
</g>
<!-- src/handlers/anonymous&#45;functions.ts -->
<g id="node32" class="node">
<title>src/handlers/anonymous&#45;functions.ts</title>
<path fill="none" stroke="#c6c5fe" d="M2580.33,-318C2580.33,-318 2358.67,-318 2358.67,-318 2354.83,-318 2351,-314.17 2351,-310.33 2351,-310.33 2351,-302.67 2351,-302.67 2351,-298.83 2354.83,-295 2358.67,-295 2358.67,-295 2580.33,-295 2580.33,-295 2584.17,-295 2588,-298.83 2588,-302.67 2588,-302.67 2588,-310.33 2588,-310.33 2588,-314.17 2584.17,-318 2580.33,-318"/>
<text text-anchor="middle" x="2469.5" y="-302.8" font-family="Arial" font-size="14.00" fill="#c6c5fe">src/handlers/anonymous&#45;functions.ts</text>
</g>
<!-- src/handlers/lambda&#45;expressions.ts&#45;&gt;src/handlers/anonymous&#45;functions.ts -->
<g id="edge60" class="edge">
<title>src/handlers/lambda&#45;expressions.ts&#45;&gt;src/handlers/anonymous&#45;functions.ts</title>
<path fill="none" stroke="#757575" d="M2392.67,-412.75C2392.67,-412.75 2392.67,-328.2 2392.67,-328.2"/>
<polygon fill="#757575" stroke="#757575" points="2396.17,-328.2 2392.67,-318.2 2389.17,-328.2 2396.17,-328.2"/>
</g>
<!-- src/handlers/module&#45;access.ts&#45;&gt;src/expressions/handlers.ts -->
<g id="edge66" class="edge">
<title>src/handlers/module&#45;access.ts&#45;&gt;src/expressions/handlers.ts</title>
<path fill="none" stroke="#757575" d="M1179.59,-358C1234.75,-358 1292.14,-358 1292.14,-358 1292.14,-358 1292.14,-210.15 1292.14,-210.15"/>
<polygon fill="#757575" stroke="#757575" points="1295.64,-210.15 1292.14,-200.15 1288.64,-210.15 1295.64,-210.15"/>
</g>
<!-- src/handlers/module&#45;access.ts&#45;&gt;src/utils/identifier&#45;utils.ts -->
<g id="edge68" class="edge">
<title>src/handlers/module&#45;access.ts&#45;&gt;src/utils/identifier&#45;utils.ts</title>
<path fill="none" stroke="#757575" d="M1179.72,-367C1257.34,-367 1351.75,-367 1351.75,-367 1351.75,-367 1351.75,-269.4 1351.75,-269.4"/>
<polygon fill="#757575" stroke="#757575" points="1355.25,-269.39 1351.75,-259.4 1348.25,-269.4 1355.25,-269.39"/>
</g>
<!-- src/types/modules.ts -->
<g id="node37" class="node">
<title>src/types/modules.ts</title>
<path fill="none" stroke="#c6c5fe" d="M1046.83,-318C1046.83,-318 922.17,-318 922.17,-318 918.33,-318 914.5,-314.17 914.5,-310.33 914.5,-310.33 914.5,-302.67 914.5,-302.67 914.5,-298.83 918.33,-295 922.17,-295 922.17,-295 1046.83,-295 1046.83,-295 1050.67,-295 1054.5,-298.83 1054.5,-302.67 1054.5,-302.67 1054.5,-310.33 1054.5,-310.33 1054.5,-314.17 1050.67,-318 1046.83,-318"/>
<text text-anchor="middle" x="984.5" y="-302.8" font-family="Arial" font-size="14.00" fill="#c6c5fe">src/types/modules.ts</text>
</g>
<!-- src/handlers/module&#45;access.ts&#45;&gt;src/types/modules.ts -->
<g id="edge67" class="edge">
<title>src/handlers/module&#45;access.ts&#45;&gt;src/types/modules.ts</title>
<path fill="none" stroke="#757575" d="M1004.5,-353.84C1004.5,-353.84 1004.5,-328.13 1004.5,-328.13"/>
<polygon fill="#757575" stroke="#757575" points="1008,-328.13 1004.5,-318.13 1001,-328.13 1008,-328.13"/>
</g>
<!-- src/handlers/pointer&#45;operations.ts&#45;&gt;src/utils/identifier&#45;utils.ts -->
<g id="edge69" class="edge">
<title>src/handlers/pointer&#45;operations.ts&#45;&gt;src/utils/identifier&#45;utils.ts</title>
<path fill="none" stroke="#757575" d="M1627.93,-363C1518.15,-363 1364.58,-363 1364.58,-363 1364.58,-363 1364.58,-269.43 1364.58,-269.43"/>
<polygon fill="#757575" stroke="#757575" points="1368.08,-269.43 1364.58,-259.43 1361.08,-269.43 1368.08,-269.43"/>
</g>
<!-- src/loops/for.ts&#45;&gt;src/loops/loop.ts -->
<g id="edge71" class="edge">
<title>src/loops/for.ts&#45;&gt;src/loops/loop.ts</title>
<path fill="none" stroke="#757575" d="M973.17,-530.84C973.17,-530.84 973.17,-505.13 973.17,-505.13"/>
<polygon fill="#757575" stroke="#757575" points="976.67,-505.13 973.17,-495.13 969.67,-505.13 976.67,-505.13"/>
</g>
<!-- src/loops/helpers.ts -->
<g id="node38" class="node">
<title>src/loops/helpers.ts</title>
<path fill="none" stroke="#cfffac" d="M757.33,-495C757.33,-495 639.67,-495 639.67,-495 635.83,-495 632,-491.17 632,-487.33 632,-487.33 632,-479.67 632,-479.67 632,-475.83 635.83,-472 639.67,-472 639.67,-472 757.33,-472 757.33,-472 761.17,-472 765,-475.83 765,-479.67 765,-479.67 765,-487.33 765,-487.33 765,-491.17 761.17,-495 757.33,-495"/>
<text text-anchor="middle" x="698.5" y="-479.8" font-family="Arial" font-size="14.00" fill="#cfffac">src/loops/helpers.ts</text>
</g>
<!-- src/loops/for.ts&#45;&gt;src/loops/helpers.ts -->
<g id="edge70" class="edge">
<title>src/loops/for.ts&#45;&gt;src/loops/helpers.ts</title>
<path fill="none" stroke="#757575" d="M897.67,-530.84C897.67,-522.6 897.67,-513 897.67,-513 897.67,-513 762.33,-513 762.33,-513 762.33,-513 762.33,-505.16 762.33,-505.16"/>
<polygon fill="#757575" stroke="#757575" points="765.83,-505.16 762.33,-495.16 758.83,-505.16 765.83,-505.16"/>
</g>
<!-- src/loops/types.ts -->
<g id="node39" class="node">
<title>src/loops/types.ts</title>
<path fill="none" stroke="#c6c5fe" d="M896.33,-495C896.33,-495 790.67,-495 790.67,-495 786.83,-495 783,-491.17 783,-487.33 783,-487.33 783,-479.67 783,-479.67 783,-475.83 786.83,-472 790.67,-472 790.67,-472 896.33,-472 896.33,-472 900.17,-472 904,-475.83 904,-479.67 904,-479.67 904,-487.33 904,-487.33 904,-491.17 900.17,-495 896.33,-495"/>
<text text-anchor="middle" x="843.5" y="-479.8" font-family="Arial" font-size="14.00" fill="#c6c5fe">src/loops/types.ts</text>
</g>
<!-- src/loops/for.ts&#45;&gt;src/loops/types.ts -->
<g id="edge72" class="edge">
<title>src/loops/for.ts&#45;&gt;src/loops/types.ts</title>
<path fill="none" stroke="#757575" d="M900.83,-530.84C900.83,-530.84 900.83,-505.13 900.83,-505.13"/>
<polygon fill="#757575" stroke="#757575" points="904.33,-505.13 900.83,-495.13 897.33,-505.13 904.33,-505.13"/>
</g>
<!-- src/loops/while.ts&#45;&gt;src/loops/loop.ts -->
<g id="edge75" class="edge">
<title>src/loops/while.ts&#45;&gt;src/loops/loop.ts</title>
<path fill="none" stroke="#757575" d="M845,-530.74C845,-519.42 845,-504 845,-504 845,-504 947.83,-504 947.83,-504 947.83,-504 947.83,-503.12 947.83,-503.12"/>
<polygon fill="#757575" stroke="#757575" points="951.33,-505.19 947.83,-495.19 944.33,-505.19 951.33,-505.19"/>
</g>
<!-- src/loops/while.ts&#45;&gt;src/loops/helpers.ts -->
<g id="edge74" class="edge">
<title>src/loops/while.ts&#45;&gt;src/loops/helpers.ts</title>
<path fill="none" stroke="#757575" d="M759.67,-530.84C759.67,-530.84 759.67,-505.13 759.67,-505.13"/>
<polygon fill="#757575" stroke="#757575" points="763.17,-505.13 759.67,-495.13 756.17,-505.13 763.17,-505.13"/>
</g>
<!-- src/loops/while.ts&#45;&gt;src/loops/types.ts -->
<g id="edge76" class="edge">
<title>src/loops/while.ts&#45;&gt;src/loops/types.ts</title>
<path fill="none" stroke="#757575" d="M814,-530.84C814,-530.84 814,-505.13 814,-505.13"/>
<polygon fill="#757575" stroke="#757575" points="817.5,-505.13 814,-495.13 810.5,-505.13 817.5,-505.13"/>
</g>
<!-- src/parser.ts&#45;&gt;src/utils/array.ts -->
<g id="edge78" class="edge">
<title>src/parser.ts&#45;&gt;src/utils/array.ts</title>
<path fill="none" stroke="#757575" d="M516.5,-58.84C516.5,-58.84 516.5,-33.13 516.5,-33.13"/>
<polygon fill="#757575" stroke="#757575" points="520,-33.13 516.5,-23.13 513,-33.13 520,-33.13"/>
</g>
<!-- src/type&#45;utils.ts -->
<g id="node28" class="node">
<title>src/type&#45;utils.ts</title>
<path fill="none" stroke="#cfffac" d="M2208.33,-23C2208.33,-23 2116.67,-23 2116.67,-23 2112.83,-23 2109,-19.17 2109,-15.33 2109,-15.33 2109,-7.67 2109,-7.67 2109,-3.83 2112.83,0 2116.67,0 2116.67,0 2208.33,0 2208.33,0 2212.17,0 2216,-3.83 2216,-7.67 2216,-7.67 2216,-15.33 2216,-15.33 2216,-19.17 2212.17,-23 2208.33,-23"/>
<text text-anchor="middle" x="2162.5" y="-7.8" font-family="Arial" font-size="14.00" fill="#cfffac">src/type&#45;utils.ts</text>
</g>
<!-- src/parser.ts&#45;&gt;src/type&#45;utils.ts -->
<g id="edge77" class="edge">
<title>src/parser.ts&#45;&gt;src/type&#45;utils.ts</title>
<path fill="none" stroke="#757575" d="M525.5,-58.84C525.5,-50.6 525.5,-41 525.5,-41 525.5,-41 2112.5,-41 2112.5,-41 2112.5,-41 2112.5,-33.16 2112.5,-33.16"/>
<polygon fill="#757575" stroke="#757575" points="2116,-33.16 2112.5,-23.16 2109,-33.16 2116,-33.16"/>
</g>
<!-- src/scope.ts&#45;&gt;src/expressions/handlers.ts -->
<g id="edge79" class="edge">
<title>src/scope.ts&#45;&gt;src/expressions/handlers.ts</title>
<path fill="none" stroke="#757575" d="M2472.88,-490C2288.89,-490 1598.75,-490 1598.75,-490 1598.75,-490 1598.75,-190 1598.75,-190 1598.75,-190 1404.78,-190 1404.78,-190"/>
<polygon fill="#757575" stroke="#757575" points="1404.78,-186.5 1394.78,-190 1404.78,-193.5 1404.78,-186.5"/>
</g>
<!-- src/scope.ts&#45;&gt;src/handlers/lambda&#45;expressions.ts -->
<g id="edge82" class="edge">
<title>src/scope.ts&#45;&gt;src/handlers/lambda&#45;expressions.ts</title>
<path fill="none" stroke="#757575" d="M2485.17,-471.74C2485.17,-454.4 2485.17,-424 2485.17,-424 2485.17,-424 2423.53,-424 2423.53,-424"/>
<polygon fill="#757575" stroke="#757575" points="2423.53,-420.5 2413.53,-424 2423.53,-427.5 2423.53,-420.5"/>
</g>
<!-- src/scope.ts&#45;&gt;src/parser.ts -->
<g id="edge83" class="edge">
<title>src/scope.ts&#45;&gt;src/parser.ts</title>
<path fill="none" stroke="#757575" d="M2497.33,-471.88C2497.33,-450.48 2497.33,-407 2497.33,-407 2497.33,-407 498,-407 498,-407 498,-407 498,-92.08 498,-92.08"/>
<polygon fill="#757575" stroke="#757575" points="501.5,-92.08 498,-82.08 494.5,-92.08 501.5,-92.08"/>
</g>
<!-- src/scope.ts&#45;&gt;src/utils/array.ts -->
<g id="edge84" class="edge">
<title>src/scope.ts&#45;&gt;src/utils/array.ts</title>
<path fill="none" stroke="#757575" d="M2472.97,-485C2290.17,-485 1607,-485 1607,-485 1607,-485 1607,-18 1607,-18 1607,-18 627.55,-18 627.55,-18"/>
<polygon fill="#757575" stroke="#757575" points="627.55,-14.5 617.55,-18 627.55,-21.5 627.55,-14.5"/>
</g>
<!-- src/scope.ts&#45;&gt;src/utils/scope&#45;helpers.ts -->
<g id="edge86" class="edge">
<title>src/scope.ts&#45;&gt;src/utils/scope&#45;helpers.ts</title>
<path fill="none" stroke="#757575" d="M2509.5,-471.68C2509.5,-448.87 2509.5,-401 2509.5,-401 2509.5,-401 2031.67,-401 2031.67,-401 2031.67,-401 2031.67,-151.17 2031.67,-151.17"/>
<polygon fill="#757575" stroke="#757575" points="2035.17,-151.17 2031.67,-141.17 2028.17,-151.17 2035.17,-151.17"/>
</g>
<!-- src/function&#45;type&#45;handler.ts -->
<g id="node30" class="node">
<title>src/function&#45;type&#45;handler.ts</title>
<path fill="none" stroke="#c6c5fe" d="M2717.33,-436C2717.33,-436 2553.67,-436 2553.67,-436 2549.83,-436 2546,-432.17 2546,-428.33 2546,-428.33 2546,-420.67 2546,-420.67 2546,-416.83 2549.83,-413 2553.67,-413 2553.67,-413 2717.33,-413 2717.33,-413 2721.17,-413 2725,-416.83 2725,-420.67 2725,-420.67 2725,-428.33 2725,-428.33 2725,-432.17 2721.17,-436 2717.33,-436"/>
<text text-anchor="middle" x="2635.5" y="-420.8" font-family="Arial" font-size="14.00" fill="#c6c5fe">src/function&#45;type&#45;handler.ts</text>
</g>
<!-- src/scope.ts&#45;&gt;src/function&#45;type&#45;handler.ts -->
<g id="edge80" class="edge">
<title>src/scope.ts&#45;&gt;src/function&#45;type&#45;handler.ts</title>
<path fill="none" stroke="#757575" d="M2554,-471.84C2554,-471.84 2554,-446.13 2554,-446.13"/>
<polygon fill="#757575" stroke="#757575" points="2557.5,-446.13 2554,-436.13 2550.5,-446.13 2557.5,-446.13"/>
</g>
<!-- src/scope.ts&#45;&gt;src/functions.ts -->
<g id="edge81" class="edge">
<title>src/scope.ts&#45;&gt;src/functions.ts</title>
<path fill="none" stroke="#757575" d="M2533.83,-471.99C2533.83,-443.5 2533.83,-372 2533.83,-372 2533.83,-372 2236.21,-372 2236.21,-372"/>
<polygon fill="#757575" stroke="#757575" points="2236.21,-368.5 2226.21,-372 2236.21,-375.5 2236.21,-368.5"/>
</g>
<!-- src/utils/function&#45;utils.ts -->
<g id="node35" class="node">
<title>src/utils/function&#45;utils.ts</title>
<path fill="none" stroke="#c6c5fe" d="M2392.83,-82C2392.83,-82 2252.17,-82 2252.17,-82 2248.33,-82 2244.5,-78.17 2244.5,-74.33 2244.5,-74.33 2244.5,-66.67 2244.5,-66.67 2244.5,-62.83 2248.33,-59 2252.17,-59 2252.17,-59 2392.83,-59 2392.83,-59 2396.67,-59 2400.5,-62.83 2400.5,-66.67 2400.5,-66.67 2400.5,-74.33 2400.5,-74.33 2400.5,-78.17 2396.67,-82 2392.83,-82"/>
<text text-anchor="middle" x="2322.5" y="-66.8" font-family="Arial" font-size="14.00" fill="#c6c5fe">src/utils/function&#45;utils.ts</text>
</g>
<!-- src/scope.ts&#45;&gt;src/utils/function&#45;utils.ts -->
<g id="edge85" class="edge">
<title>src/scope.ts&#45;&gt;src/utils/function&#45;utils.ts</title>
<path fill="none" stroke="#757575" d="M2521.67,-471.91C2521.67,-446.68 2521.67,-389 2521.67,-389 2521.67,-389 2332.17,-389 2332.17,-389 2332.17,-389 2332.17,-92.21 2332.17,-92.21"/>
<polygon fill="#757575" stroke="#757575" points="2335.67,-92.21 2332.17,-82.21 2328.67,-92.21 2335.67,-92.21"/>
</g>
<!-- src/utils/app&#45;handlers.ts&#45;&gt;src/expressions/handlers.ts -->
<g id="edge94" class="edge">
<title>src/utils/app&#45;handlers.ts&#45;&gt;src/expressions/handlers.ts</title>
<path fill="none" stroke="#757575" d="M1443.21,-540C1508.62,-540 1590.5,-540 1590.5,-540 1590.5,-540 1590.5,-195 1590.5,-195 1590.5,-195 1404.6,-195 1404.6,-195"/>
<polygon fill="#757575" stroke="#757575" points="1404.6,-191.5 1394.6,-195 1404.6,-198.5 1404.6,-191.5"/>
</g>
<!-- src/utils/app&#45;handlers.ts&#45;&gt;src/types/structs.ts -->
<g id="edge99" class="edge">
<title>src/utils/app&#45;handlers.ts&#45;&gt;src/types/structs.ts</title>
<path fill="none" stroke="#757575" d="M1283.69,-544C1246.06,-544 1209.3,-544 1209.3,-544 1209.3,-544 1209.3,-328.28 1209.3,-328.28"/>
<polygon fill="#757575" stroke="#757575" points="1212.8,-328.28 1209.3,-318.28 1205.8,-328.28 1212.8,-328.28"/>
</g>
<!-- src/expressions/unary&#45;operation.ts -->
<g id="node29" class="node">
<title>src/expressions/unary&#45;operation.ts</title>
<path fill="none" stroke="#c6c5fe" d="M1010.33,-259C1010.33,-259 802.67,-259 802.67,-259 798.83,-259 795,-255.17 795,-251.33 795,-251.33 795,-243.67 795,-243.67 795,-239.83 798.83,-236 802.67,-236 802.67,-236 1010.33,-236 1010.33,-236 1014.17,-236 1018,-239.83 1018,-243.67 1018,-243.67 1018,-251.33 1018,-251.33 1018,-255.17 1014.17,-259 1010.33,-259"/>
<text text-anchor="middle" x="906.5" y="-243.8" font-family="Arial" font-size="14.00" fill="#c6c5fe">src/expressions/unary&#45;operation.ts</text>
</g>
<!-- src/utils/app&#45;handlers.ts&#45;&gt;src/expressions/unary&#45;operation.ts -->
<g id="edge95" class="edge">
<title>src/utils/app&#45;handlers.ts&#45;&gt;src/expressions/unary&#45;operation.ts</title>
<path fill="none" stroke="#757575" d="M1283.86,-535C1266.24,-535 1252.7,-535 1252.7,-535 1252.7,-535 1252.7,-287 1252.7,-287 1252.7,-287 966.25,-287 966.25,-287 966.25,-287 966.25,-269.14 966.25,-269.14"/>
<polygon fill="#757575" stroke="#757575" points="969.75,-269.14 966.25,-259.14 962.75,-269.14 969.75,-269.14"/>
</g>
<!-- src/utils/app&#45;handlers.ts&#45;&gt;src/functions.ts -->
<g id="edge96" class="edge">
<title>src/utils/app&#45;handlers.ts&#45;&gt;src/functions.ts</title>
<path fill="none" stroke="#757575" d="M1443.15,-549C1646.22,-549 2167.38,-549 2167.38,-549 2167.38,-549 2167.38,-387.26 2167.38,-387.26"/>
<polygon fill="#757575" stroke="#757575" points="2170.88,-387.26 2167.38,-377.26 2163.88,-387.26 2170.88,-387.26"/>
</g>
<!-- src/utils/function&#45;call&#45;params.ts -->
<g id="node34" class="node">
<title>src/utils/function&#45;call&#45;params.ts</title>
<path fill="none" stroke="#c6c5fe" d="M1566.33,-318C1566.33,-318 1378.67,-318 1378.67,-318 1374.83,-318 1371,-314.17 1371,-310.33 1371,-310.33 1371,-302.67 1371,-302.67 1371,-298.83 1374.83,-295 1378.67,-295 1378.67,-295 1566.33,-295 1566.33,-295 1570.17,-295 1574,-298.83 1574,-302.67 1574,-302.67 1574,-310.33 1574,-310.33 1574,-314.17 1570.17,-318 1566.33,-318"/>
<text text-anchor="middle" x="1472.5" y="-302.8" font-family="Arial" font-size="14.00" fill="#c6c5fe">src/utils/function&#45;call&#45;params.ts</text>
</g>
<!-- src/utils/app&#45;handlers.ts&#45;&gt;src/utils/function&#45;call&#45;params.ts -->
<g id="edge101" class="edge">
<title>src/utils/app&#45;handlers.ts&#45;&gt;src/utils/function&#45;call&#45;params.ts</title>
<path fill="none" stroke="#757575" d="M1443.32,-535C1453.94,-535 1461.25,-535 1461.25,-535 1461.25,-535 1461.25,-328.15 1461.25,-328.15"/>
<polygon fill="#757575" stroke="#757575" points="1464.75,-328.15 1461.25,-318.15 1457.75,-328.15 1464.75,-328.15"/>
</g>
<!-- src/handlers/method&#45;call.ts -->
<g id="node36" class="node">
<title>src/handlers/method&#45;call.ts</title>
<path fill="none" stroke="#c6c5fe" d="M1445.33,-495C1445.33,-495 1281.67,-495 1281.67,-495 1277.83,-495 1274,-491.17 1274,-487.33 1274,-487.33 1274,-479.67 1274,-479.67 1274,-475.83 1277.83,-472 1281.67,-472 1281.67,-472 1445.33,-472 1445.33,-472 1449.17,-472 1453,-475.83 1453,-479.67 1453,-479.67 1453,-487.33 1453,-487.33 1453,-491.17 1449.17,-495 1445.33,-495"/>
<text text-anchor="middle" x="1363.5" y="-479.8" font-family="Arial" font-size="14.00" fill="#c6c5fe">src/handlers/method&#45;call.ts</text>
</g>
<!-- src/utils/app&#45;handlers.ts&#45;&gt;src/handlers/method&#45;call.ts -->
<g id="edge97" class="edge">
<title>src/utils/app&#45;handlers.ts&#45;&gt;src/handlers/method&#45;call.ts</title>
<path fill="none" stroke="#757575" d="M1363.5,-530.84C1363.5,-530.84 1363.5,-505.13 1363.5,-505.13"/>
<polygon fill="#757575" stroke="#757575" points="1367,-505.13 1363.5,-495.13 1360,-505.13 1367,-505.13"/>
</g>
<!-- src/utils/app&#45;handlers.ts&#45;&gt;src/types/modules.ts -->
<g id="edge98" class="edge">
<title>src/utils/app&#45;handlers.ts&#45;&gt;src/types/modules.ts</title>
<path fill="none" stroke="#757575" d="M1283.88,-540C1262.7,-540 1245.6,-540 1245.6,-540 1245.6,-540 1245.6,-336 1245.6,-336 1245.6,-336 1029.5,-336 1029.5,-336 1029.5,-336 1029.5,-328.16 1029.5,-328.16"/>
<polygon fill="#757575" stroke="#757575" points="1033,-328.16 1029.5,-318.16 1026,-328.16 1033,-328.16"/>
</g>
<!-- src/types/type&#45;declarations.ts -->
<g id="node40" class="node">
<title>src/types/type&#45;declarations.ts</title>
<path fill="none" stroke="#c6c5fe" d="M1814.33,-318C1814.33,-318 1638.67,-318 1638.67,-318 1634.83,-318 1631,-314.17 1631,-310.33 1631,-310.33 1631,-302.67 1631,-302.67 1631,-298.83 1634.83,-295 1638.67,-295 1638.67,-295 1814.33,-295 1814.33,-295 1818.17,-295 1822,-298.83 1822,-302.67 1822,-302.67 1822,-310.33 1822,-310.33 1822,-314.17 1818.17,-318 1814.33,-318"/>
<text text-anchor="middle" x="1726.5" y="-302.8" font-family="Arial" font-size="14.00" fill="#c6c5fe">src/types/type&#45;declarations.ts</text>
</g>
<!-- src/utils/app&#45;handlers.ts&#45;&gt;src/types/type&#45;declarations.ts -->
<g id="edge100" class="edge">
<title>src/utils/app&#45;handlers.ts&#45;&gt;src/types/type&#45;declarations.ts</title>
<path fill="none" stroke="#757575" d="M1443.16,-544C1516.91,-544 1615.25,-544 1615.25,-544 1615.25,-544 1615.25,-306 1615.25,-306 1615.25,-306 1620.72,-306 1620.72,-306"/>
<polygon fill="#757575" stroke="#757575" points="1620.72,-309.5 1630.72,-306 1620.72,-302.5 1620.72,-309.5"/>
</g>
<!-- src/utils/this&#45;keyword.ts&#45;&gt;src/types/structs.ts -->
<g id="edge110" class="edge">
<title>src/utils/this&#45;keyword.ts&#45;&gt;src/types/structs.ts</title>
<path fill="none" stroke="#757575" d="M1623.44,-418C1488.02,-418 1223.9,-418 1223.9,-418 1223.9,-418 1223.9,-328.01 1223.9,-328.01"/>
<polygon fill="#757575" stroke="#757575" points="1227.4,-328.01 1223.9,-318.01 1220.4,-328.01 1227.4,-328.01"/>
</g>
<!-- src/utils/this&#45;keyword.ts&#45;&gt;src/utils/scope&#45;helpers.ts -->
<g id="edge111" class="edge">
<title>src/utils/this&#45;keyword.ts&#45;&gt;src/utils/scope&#45;helpers.ts</title>
<path fill="none" stroke="#757575" d="M1678.5,-412.72C1678.5,-400.45 1678.5,-383 1678.5,-383 1678.5,-383 2013.25,-383 2013.25,-383 2013.25,-383 2013.25,-151.05 2013.25,-151.05"/>
<polygon fill="#757575" stroke="#757575" points="2016.75,-151.05 2013.25,-141.05 2009.75,-151.05 2016.75,-151.05"/>
</g>
<!-- src/utils/this&#45;keyword.ts&#45;&gt;src/functions.ts -->
<g id="edge109" class="edge">
<title>src/utils/this&#45;keyword.ts&#45;&gt;src/functions.ts</title>
<path fill="none" stroke="#757575" d="M1729,-412.84C1729,-404.6 1729,-395 1729,-395 1729,-395 2135.12,-395 2135.12,-395 2135.12,-395 2135.12,-387.16 2135.12,-387.16"/>
<polygon fill="#757575" stroke="#757575" points="2138.63,-387.16 2135.12,-377.16 2131.63,-387.16 2138.63,-387.16"/>
</g>
<!-- src/declarations.ts -->
<g id="node18" class="node">
<title>src/declarations.ts</title>
<path fill="none" stroke="#c6c5fe" d="M1268.33,-259C1268.33,-259 1158.67,-259 1158.67,-259 1154.83,-259 1151,-255.17 1151,-251.33 1151,-251.33 1151,-243.67 1151,-243.67 1151,-239.83 1154.83,-236 1158.67,-236 1158.67,-236 1268.33,-236 1268.33,-236 1272.17,-236 1276,-239.83 1276,-243.67 1276,-243.67 1276,-251.33 1276,-251.33 1276,-255.17 1272.17,-259 1268.33,-259"/>
<text text-anchor="middle" x="1213.5" y="-243.8" font-family="Arial" font-size="14.00" fill="#c6c5fe">src/declarations.ts</text>
</g>
<!-- src/declarations.ts&#45;&gt;src/expressions/handlers.ts -->
<g id="edge17" class="edge">
<title>src/declarations.ts&#45;&gt;src/expressions/handlers.ts</title>
<path fill="none" stroke="#757575" d="M1245.25,-235.84C1245.25,-235.84 1245.25,-210.13 1245.25,-210.13"/>
<polygon fill="#757575" stroke="#757575" points="1248.75,-210.13 1245.25,-200.13 1241.75,-210.13 1248.75,-210.13"/>
</g>
<!-- src/expressions/operators.ts&#45;&gt;src/handlers/pointer&#45;operations.ts -->
<g id="edge35" class="edge">
<title>src/expressions/operators.ts&#45;&gt;src/handlers/pointer&#45;operations.ts</title>
<path fill="none" stroke="#757575" d="M538.25,-424C738.37,-424 1192.75,-424 1192.75,-424 1192.75,-424 1192.75,-372 1192.75,-372 1192.75,-372 1617.77,-372 1617.77,-372"/>
<polygon fill="#757575" stroke="#757575" points="1617.77,-375.5 1627.77,-372 1617.77,-368.5 1617.77,-375.5"/>
</g>
<!-- src/expressions/operators.ts&#45;&gt;src/parser.ts -->
<g id="edge36" class="edge">
<title>src/expressions/operators.ts&#45;&gt;src/parser.ts</title>
<path fill="none" stroke="#757575" d="M479.75,-412.72C479.75,-412.72 479.75,-92.32 479.75,-92.32"/>
<polygon fill="#757575" stroke="#757575" points="483.25,-92.32 479.75,-82.32 476.25,-92.32 483.25,-92.32"/>
</g>
<!-- src/expressions/op&#45;helpers.ts -->
<g id="node25" class="node">
<title>src/expressions/op&#45;helpers.ts</title>
<path fill="none" stroke="#c6c5fe" d="M453.83,-377C453.83,-377 277.17,-377 277.17,-377 273.33,-377 269.5,-373.17 269.5,-369.33 269.5,-369.33 269.5,-361.67 269.5,-361.67 269.5,-357.83 273.33,-354 277.17,-354 277.17,-354 453.83,-354 453.83,-354 457.67,-354 461.5,-357.83 461.5,-361.67 461.5,-361.67 461.5,-369.33 461.5,-369.33 461.5,-373.17 457.67,-377 453.83,-377"/>
<text text-anchor="middle" x="365.5" y="-361.8" font-family="Arial" font-size="14.00" fill="#c6c5fe">src/expressions/op&#45;helpers.ts</text>
</g>
<!-- src/expressions/operators.ts&#45;&gt;src/expressions/op&#45;helpers.ts -->
<g id="edge33" class="edge">
<title>src/expressions/operators.ts&#45;&gt;src/expressions/op&#45;helpers.ts</title>
<path fill="none" stroke="#757575" d="M407.25,-412.84C407.25,-412.84 407.25,-387.13 407.25,-387.13"/>
<polygon fill="#757575" stroke="#757575" points="410.75,-387.13 407.25,-377.13 403.75,-387.13 410.75,-387.13"/>
</g>
<!-- src/expressions/operator&#45;finder.ts -->
<g id="node27" class="node">
<title>src/expressions/operator&#45;finder.ts</title>
<path fill="none" stroke="#c6c5fe" d="M243.83,-377C243.83,-377 43.17,-377 43.17,-377 39.33,-377 35.5,-373.17 35.5,-369.33 35.5,-369.33 35.5,-361.67 35.5,-361.67 35.5,-357.83 39.33,-354 43.17,-354 43.17,-354 243.83,-354 243.83,-354 247.67,-354 251.5,-357.83 251.5,-361.67 251.5,-361.67 251.5,-369.33 251.5,-369.33 251.5,-373.17 247.67,-377 243.83,-377"/>
<text text-anchor="middle" x="143.5" y="-361.8" font-family="Arial" font-size="14.00" fill="#c6c5fe">src/expressions/operator&#45;finder.ts</text>
</g>
<!-- src/expressions/operators.ts&#45;&gt;src/expressions/operator&#45;finder.ts -->
<g id="edge34" class="edge">
<title>src/expressions/operators.ts&#45;&gt;src/expressions/operator&#45;finder.ts</title>
<path fill="none" stroke="#757575" d="M352.78,-424C296.52,-424 235.5,-424 235.5,-424 235.5,-424 235.5,-387.06 235.5,-387.06"/>
<polygon fill="#757575" stroke="#757575" points="239,-387.06 235.5,-377.06 232,-387.06 239,-387.06"/>
</g>
<!-- src/expressions/operators.ts&#45;&gt;src/type&#45;utils.ts -->
<g id="edge37" class="edge">
<title>src/expressions/operators.ts&#45;&gt;src/type&#45;utils.ts</title>
<path fill="none" stroke="#757575" d="M538.04,-430C809.1,-430 1582.25,-430 1582.25,-430 1582.25,-430 1582.25,-9 1582.25,-9 1582.25,-9 2098.95,-9 2098.95,-9"/>
<polygon fill="#757575" stroke="#757575" points="2098.95,-12.5 2108.95,-9 2098.95,-5.5 2098.95,-12.5"/>
</g>
<!-- src/types/structs.ts&#45;&gt;src/expressions/handlers.ts -->
<g id="edge91" class="edge">
<title>src/types/structs.ts&#45;&gt;src/expressions/handlers.ts</title>
<path fill="none" stroke="#757575" d="M1238.56,-302C1262.53,-302 1284.07,-302 1284.07,-302 1284.07,-302 1284.07,-210.22 1284.07,-210.22"/>
<polygon fill="#757575" stroke="#757575" points="1287.57,-210.22 1284.07,-200.22 1280.57,-210.22 1287.57,-210.22"/>
</g>
<!-- src/types/structs.ts&#45;&gt;src/declarations.ts -->
<g id="edge90" class="edge">
<title>src/types/structs.ts&#45;&gt;src/declarations.ts</title>
<path fill="none" stroke="#757575" d="M1194.75,-294.84C1194.75,-294.84 1194.75,-269.13 1194.75,-269.13"/>
<polygon fill="#757575" stroke="#757575" points="1198.25,-269.13 1194.75,-259.13 1191.25,-269.13 1198.25,-269.13"/>
</g>
<!-- src/handlers/assignment.ts&#45;&gt;src/utils/array.ts -->
<g id="edge51" class="edge">
<title>src/handlers/assignment.ts&#45;&gt;src/utils/array.ts</title>
<path fill="none" stroke="#757575" d="M1326.5,-129C1116.08,-129 605.5,-129 605.5,-129 605.5,-129 605.5,-33.2 605.5,-33.2"/>
<polygon fill="#757575" stroke="#757575" points="609,-33.2 605.5,-23.2 602,-33.2 609,-33.2"/>
</g>
<!-- src/handlers/assignment.ts&#45;&gt;src/types/interpreter.ts -->
<g id="edge50" class="edge">
<title>src/handlers/assignment.ts&#45;&gt;src/types/interpreter.ts</title>
<path fill="none" stroke="#757575" d="M1450.25,-117.84C1450.25,-117.84 1450.25,-92.13 1450.25,-92.13"/>
<polygon fill="#757575" stroke="#757575" points="1453.75,-92.13 1450.25,-82.13 1446.75,-92.13 1453.75,-92.13"/>
</g>
<!-- src/utils/scope&#45;helpers.ts&#45;&gt;src/parser.ts -->
<g id="edge105" class="edge">
<title>src/utils/scope&#45;helpers.ts&#45;&gt;src/parser.ts</title>
<path fill="none" stroke="#757575" d="M2008.33,-117.84C2008.33,-109.6 2008.33,-100 2008.33,-100 2008.33,-100 516.25,-100 516.25,-100 516.25,-100 516.25,-92.16 516.25,-92.16"/>
<polygon fill="#757575" stroke="#757575" points="519.75,-92.16 516.25,-82.16 512.75,-92.16 519.75,-92.16"/>
</g>
<!-- src/utils/scope&#45;helpers.ts&#45;&gt;src/utils/array.ts -->
<g id="edge107" class="edge">
<title>src/utils/scope&#45;helpers.ts&#45;&gt;src/utils/array.ts</title>
<path fill="none" stroke="#757575" d="M2058.67,-117.92C2058.67,-86.85 2058.67,-4 2058.67,-4 2058.67,-4 627.52,-4 627.52,-4"/>
<polygon fill="#757575" stroke="#757575" points="627.52,-0.5 617.52,-4 627.52,-7.5 627.52,-0.5"/>
</g>
<!-- src/utils/scope&#45;helpers.ts&#45;&gt;src/type&#45;utils.ts -->
<g id="edge106" class="edge">
<title>src/utils/scope&#45;helpers.ts&#45;&gt;src/type&#45;utils.ts</title>
<path fill="none" stroke="#757575" d="M2116,-117.75C2116,-117.75 2116,-33.2 2116,-33.2"/>
<polygon fill="#757575" stroke="#757575" points="2119.5,-33.2 2116,-23.2 2112.5,-33.2 2119.5,-33.2"/>
</g>
<!-- src/utils/scope&#45;helpers.ts&#45;&gt;src/utils/function&#45;utils.ts -->
<g id="edge108" class="edge">
<title>src/utils/scope&#45;helpers.ts&#45;&gt;src/utils/function&#45;utils.ts</title>
<path fill="none" stroke="#757575" d="M2119.5,-117.73C2119.5,-101.44 2119.5,-74 2119.5,-74 2119.5,-74 2234.31,-74 2234.31,-74"/>
<polygon fill="#757575" stroke="#757575" points="2234.31,-77.5 2244.31,-74 2234.31,-70.5 2234.31,-77.5"/>
</g>
<!-- src/expressions/op&#45;helpers.ts&#45;&gt;src/utils/array.ts -->
<g id="edge31" class="edge">
<title>src/expressions/op&#45;helpers.ts&#45;&gt;src/utils/array.ts</title>
<path fill="none" stroke="#757575" d="M461.59,-361C507.57,-361 552.75,-361 552.75,-361 552.75,-361 552.75,-33.13 552.75,-33.13"/>
<polygon fill="#757575" stroke="#757575" points="556.25,-33.13 552.75,-23.13 549.25,-33.13 556.25,-33.13"/>
</g>
<!-- src/expressions/op&#45;helpers.ts&#45;&gt;src/types/structs.ts -->
<g id="edge30" class="edge">
<title>src/expressions/op&#45;helpers.ts&#45;&gt;src/types/structs.ts</title>
<path fill="none" stroke="#757575" d="M453,-353.72C453,-341.45 453,-324 453,-324 453,-324 1133.5,-324 1133.5,-324 1133.5,-324 1133.5,-323.41 1133.5,-323.41"/>
<polygon fill="#757575" stroke="#757575" points="1137,-328.08 1133.5,-318.08 1130,-328.08 1137,-328.08"/>
</g>
<!-- src/expressions/operator&#45;utils.ts -->
<g id="node26" class="node">
<title>src/expressions/operator&#45;utils.ts</title>
<path fill="none" stroke="#cfffac" d="M239.33,-318C239.33,-318 47.67,-318 47.67,-318 43.83,-318 40,-314.17 40,-310.33 40,-310.33 40,-302.67 40,-302.67 40,-298.83 43.83,-295 47.67,-295 47.67,-295 239.33,-295 239.33,-295 243.17,-295 247,-298.83 247,-302.67 247,-302.67 247,-310.33 247,-310.33 247,-314.17 243.17,-318 239.33,-318"/>
<text text-anchor="middle" x="143.5" y="-302.8" font-family="Arial" font-size="14.00" fill="#cfffac">src/expressions/operator&#45;utils.ts</text>
</g>
<!-- src/expressions/op&#45;helpers.ts&#45;&gt;src/expressions/operator&#45;utils.ts -->
<g id="edge29" class="edge">
<title>src/expressions/op&#45;helpers.ts&#45;&gt;src/expressions/operator&#45;utils.ts</title>
<path fill="none" stroke="#757575" d="M357,-353.74C357,-336.4 357,-306 357,-306 357,-306 257.12,-306 257.12,-306"/>
<polygon fill="#757575" stroke="#757575" points="257.12,-302.5 247.12,-306 257.12,-309.5 257.12,-302.5"/>
</g>
<!-- src/expressions/operator&#45;finder.ts&#45;&gt;src/expressions/operator&#45;utils.ts -->
<g id="edge32" class="edge">
<title>src/expressions/operator&#45;finder.ts&#45;&gt;src/expressions/operator&#45;utils.ts</title>
<path fill="none" stroke="#757575" d="M143.5,-353.84C143.5,-353.84 143.5,-328.13 143.5,-328.13"/>
<polygon fill="#757575" stroke="#757575" points="147,-328.13 143.5,-318.13 140,-328.13 147,-328.13"/>
</g>
<!-- src/expressions/unary&#45;operation.ts&#45;&gt;src/expressions/handlers.ts -->
<g id="edge38" class="edge">
<title>src/expressions/unary&#45;operation.ts&#45;&gt;src/expressions/handlers.ts</title>
<path fill="none" stroke="#757575" d="M906.5,-235.86C906.5,-219.06 906.5,-190 906.5,-190 906.5,-190 1204.19,-190 1204.19,-190"/>
<polygon fill="#757575" stroke="#757575" points="1204.19,-193.5 1214.19,-190 1204.19,-186.5 1204.19,-193.5"/>
</g>
<!-- src/function&#45;type&#45;handler.ts&#45;&gt;src/type&#45;utils.ts -->
<g id="edge40" class="edge">
<title>src/function&#45;type&#45;handler.ts&#45;&gt;src/type&#45;utils.ts</title>
<path fill="none" stroke="#757575" d="M2656.5,-412.9C2656.5,-345.47 2656.5,-7 2656.5,-7 2656.5,-7 2226.31,-7 2226.31,-7"/>
<polygon fill="#757575" stroke="#757575" points="2226.31,-3.5 2216.31,-7 2226.31,-10.5 2226.31,-3.5"/>
</g>
<!-- src/function&#45;type&#45;handler.ts&#45;&gt;src/functions.ts -->
<g id="edge39" class="edge">
<title>src/function&#45;type&#45;handler.ts&#45;&gt;src/functions.ts</title>
<path fill="none" stroke="#757575" d="M2567,-412.86C2567,-396.06 2567,-367 2567,-367 2567,-367 2236.11,-367 2236.11,-367"/>
<polygon fill="#757575" stroke="#757575" points="2236.11,-363.5 2226.11,-367 2236.11,-370.5 2236.11,-363.5"/>
</g>
<!-- src/functions.ts&#45;&gt;src/utils/identifier&#45;utils.ts -->
<g id="edge45" class="edge">
<title>src/functions.ts&#45;&gt;src/utils/identifier&#45;utils.ts</title>
<path fill="none" stroke="#757575" d="M2118.92,-369C2060.86,-369 1976.42,-369 1976.42,-369 1976.42,-369 1976.42,-253 1976.42,-253 1976.42,-253 1502.7,-253 1502.7,-253"/>
<polygon fill="#757575" stroke="#757575" points="1502.7,-249.5 1492.7,-253 1502.7,-256.5 1502.7,-249.5"/>
</g>
<!-- src/functions.ts&#45;&gt;src/utils/scope&#45;helpers.ts -->
<g id="edge46" class="edge">
<title>src/functions.ts&#45;&gt;src/utils/scope&#45;helpers.ts</title>
<path fill="none" stroke="#757575" d="M2118.81,-361C2085.91,-361 2050.08,-361 2050.08,-361 2050.08,-361 2050.08,-151.3 2050.08,-151.3"/>
<polygon fill="#757575" stroke="#757575" points="2053.58,-151.3 2050.08,-141.3 2046.58,-151.3 2053.58,-151.3"/>
</g>
<!-- src/functions.ts&#45;&gt;src/handlers/anonymous&#45;functions.ts -->
<g id="edge41" class="edge">
<title>src/functions.ts&#45;&gt;src/handlers/anonymous&#45;functions.ts</title>
<path fill="none" stroke="#757575" d="M2226.18,-363C2285.22,-363 2371.83,-363 2371.83,-363 2371.83,-363 2371.83,-328.21 2371.83,-328.21"/>
<polygon fill="#757575" stroke="#757575" points="2375.33,-328.21 2371.83,-318.21 2368.33,-328.21 2375.33,-328.21"/>
</g>
<!-- src/handlers/function&#45;declaration.ts -->
<g id="node33" class="node">
<title>src/handlers/function&#45;declaration.ts</title>
<path fill="none" stroke="#c6c5fe" d="M2286.83,-318C2286.83,-318 2076.17,-318 2076.17,-318 2072.33,-318 2068.5,-314.17 2068.5,-310.33 2068.5,-310.33 2068.5,-302.67 2068.5,-302.67 2068.5,-298.83 2072.33,-295 2076.17,-295 2076.17,-295 2286.83,-295 2286.83,-295 2290.67,-295 2294.5,-298.83 2294.5,-302.67 2294.5,-302.67 2294.5,-310.33 2294.5,-310.33 2294.5,-314.17 2290.67,-318 2286.83,-318"/>
<text text-anchor="middle" x="2181.5" y="-302.8" font-family="Arial" font-size="14.00" fill="#c6c5fe">src/handlers/function&#45;declaration.ts</text>
</g>
<!-- src/functions.ts&#45;&gt;src/handlers/function&#45;declaration.ts -->
<g id="edge42" class="edge">
<title>src/functions.ts&#45;&gt;src/handlers/function&#45;declaration.ts</title>
<path fill="none" stroke="#757575" d="M2190.33,-353.84C2190.33,-353.84 2190.33,-328.13 2190.33,-328.13"/>
<polygon fill="#757575" stroke="#757575" points="2193.83,-328.13 2190.33,-318.13 2186.83,-328.13 2193.83,-328.13"/>
</g>
<!-- src/functions.ts&#45;&gt;src/utils/function&#45;call&#45;params.ts -->
<g id="edge43" class="edge">
<title>src/functions.ts&#45;&gt;src/utils/function&#45;call&#45;params.ts</title>
<path fill="none" stroke="#757575" d="M2154.67,-353.92C2154.67,-350.67 2154.67,-348 2154.67,-348 2154.67,-348 1504.33,-348 1504.33,-348 1504.33,-348 1504.33,-328.28 1504.33,-328.28"/>
<polygon fill="#757575" stroke="#757575" points="1507.83,-328.28 1504.33,-318.28 1500.83,-328.28 1507.83,-328.28"/>
</g>
<!-- src/functions.ts&#45;&gt;src/utils/function&#45;utils.ts -->
<g id="edge44" class="edge">
<title>src/functions.ts&#45;&gt;src/utils/function&#45;utils.ts</title>
<path fill="none" stroke="#757575" d="M2226.14,-358C2265.94,-358 2313.33,-358 2313.33,-358 2313.33,-358 2313.33,-92.13 2313.33,-92.13"/>
<polygon fill="#757575" stroke="#757575" points="2316.83,-92.13 2313.33,-82.13 2309.83,-92.13 2316.83,-92.13"/>
</g>
<!-- src/handlers/anonymous&#45;functions.ts&#45;&gt;src/utils/identifier&#45;utils.ts -->
<g id="edge49" class="edge">
<title>src/handlers/anonymous&#45;functions.ts&#45;&gt;src/utils/identifier&#45;utils.ts</title>
<path fill="none" stroke="#757575" d="M2367.5,-294.79C2367.5,-275.95 2367.5,-241 2367.5,-241 2367.5,-241 1502.69,-241 1502.69,-241"/>
<polygon fill="#757575" stroke="#757575" points="1502.69,-237.5 1492.69,-241 1502.69,-244.5 1502.69,-237.5"/>
</g>
<!-- src/handlers/anonymous&#45;functions.ts&#45;&gt;src/type&#45;utils.ts -->
<g id="edge47" class="edge">
<title>src/handlers/anonymous&#45;functions.ts&#45;&gt;src/type&#45;utils.ts</title>
<path fill="none" stroke="#757575" d="M2494.25,-294.71C2494.25,-240.18 2494.25,-15 2494.25,-15 2494.25,-15 2226.17,-15 2226.17,-15"/>
<polygon fill="#757575" stroke="#757575" points="2226.17,-11.5 2216.17,-15 2226.17,-18.5 2226.17,-11.5"/>
</g>
<!-- src/handlers/anonymous&#45;functions.ts&#45;&gt;src/utils/function&#45;utils.ts -->
<g id="edge48" class="edge">
<title>src/handlers/anonymous&#45;functions.ts&#45;&gt;src/utils/function&#45;utils.ts</title>
<path fill="none" stroke="#757575" d="M2384,-294.8C2384,-294.8 2384,-92.27 2384,-92.27"/>
<polygon fill="#757575" stroke="#757575" points="2387.5,-92.27 2384,-82.27 2380.5,-92.27 2387.5,-92.27"/>
</g>
<!-- src/handlers/function&#45;declaration.ts&#45;&gt;src/declarations.ts -->
<g id="edge54" class="edge">
<title>src/handlers/function&#45;declaration.ts&#45;&gt;src/declarations.ts</title>
<path fill="none" stroke="#757575" d="M2082.12,-294.78C2082.12,-285.12 2082.12,-273 2082.12,-273 2082.12,-273 1266.9,-273 1266.9,-273 1266.9,-273 1266.9,-269.06 1266.9,-269.06"/>
<polygon fill="#757575" stroke="#757575" points="1270.4,-269.06 1266.9,-259.06 1263.4,-269.06 1270.4,-269.06"/>
</g>
<!-- src/handlers/function&#45;declaration.ts&#45;&gt;src/utils/identifier&#45;utils.ts -->
<g id="edge57" class="edge">
<title>src/handlers/function&#45;declaration.ts&#45;&gt;src/utils/identifier&#45;utils.ts</title>
<path fill="none" stroke="#757575" d="M2095.75,-294.74C2095.75,-277.4 2095.75,-247 2095.75,-247 2095.75,-247 1502.55,-247 1502.55,-247"/>
<polygon fill="#757575" stroke="#757575" points="1502.55,-243.5 1492.55,-247 1502.55,-250.5 1502.55,-243.5"/>
</g>
<!-- src/handlers/function&#45;declaration.ts&#45;&gt;src/utils/scope&#45;helpers.ts -->
<g id="edge58" class="edge">
<title>src/handlers/function&#45;declaration.ts&#45;&gt;src/utils/scope&#45;helpers.ts</title>
<path fill="none" stroke="#757575" d="M2109.38,-294.89C2109.38,-294.89 2109.38,-151.39 2109.38,-151.39"/>
<polygon fill="#757575" stroke="#757575" points="2112.88,-151.39 2109.38,-141.39 2105.88,-151.39 2112.88,-151.39"/>
</g>
<!-- src/handlers/function&#45;declaration.ts&#45;&gt;src/type&#45;utils.ts -->
<g id="edge55" class="edge">
<title>src/handlers/function&#45;declaration.ts&#45;&gt;src/type&#45;utils.ts</title>
<path fill="none" stroke="#757575" d="M2154,-294.94C2154,-294.94 2154,-33.3 2154,-33.3"/>
<polygon fill="#757575" stroke="#757575" points="2157.5,-33.3 2154,-23.3 2150.5,-33.31 2157.5,-33.3"/>
</g>
<!-- src/handlers/function&#45;declaration.ts&#45;&gt;src/utils/function&#45;utils.ts -->
<g id="edge56" class="edge">
<title>src/handlers/function&#45;declaration.ts&#45;&gt;src/utils/function&#45;utils.ts</title>
<path fill="none" stroke="#757575" d="M2269.5,-294.8C2269.5,-294.8 2269.5,-92.27 2269.5,-92.27"/>
<polygon fill="#757575" stroke="#757575" points="2273,-92.27 2269.5,-82.27 2266,-92.27 2273,-92.27"/>
</g>
<!-- src/utils/function&#45;call&#45;params.ts&#45;&gt;src/expressions/handlers.ts -->
<g id="edge102" class="edge">
<title>src/utils/function&#45;call&#45;params.ts&#45;&gt;src/expressions/handlers.ts</title>
<path fill="none" stroke="#757575" d="M1370.87,-310C1345.03,-310 1324.43,-310 1324.43,-310 1324.43,-310 1324.43,-210.15 1324.43,-210.15"/>
<polygon fill="#757575" stroke="#757575" points="1327.93,-210.15 1324.43,-200.15 1320.93,-210.15 1327.93,-210.15"/>
</g>
<!-- src/utils/function&#45;utils.ts&#45;&gt;src/type&#45;utils.ts -->
<g id="edge103" class="edge">
<title>src/utils/function&#45;utils.ts&#45;&gt;src/type&#45;utils.ts</title>
<path fill="none" stroke="#757575" d="M2244.11,-66C2213.23,-66 2185,-66 2185,-66 2185,-66 2185,-33.06 2185,-33.06"/>
<polygon fill="#757575" stroke="#757575" points="2188.5,-33.06 2185,-23.06 2181.5,-33.06 2188.5,-33.06"/>
</g>
<!-- src/handlers/method&#45;call.ts&#45;&gt;src/expressions/handlers.ts -->
<g id="edge61" class="edge">
<title>src/handlers/method&#45;call.ts&#45;&gt;src/expressions/handlers.ts</title>
<path fill="none" stroke="#757575" d="M1316.36,-471.94C1316.36,-471.94 1316.36,-210.3 1316.36,-210.3"/>
<polygon fill="#757575" stroke="#757575" points="1319.86,-210.3 1316.36,-200.3 1312.86,-210.31 1319.86,-210.3"/>
</g>
<!-- src/handlers/method&#45;call.ts&#45;&gt;src/utils/this&#45;keyword.ts -->
<g id="edge65" class="edge">
<title>src/handlers/method&#45;call.ts&#45;&gt;src/utils/this&#45;keyword.ts</title>
<path fill="none" stroke="#757575" d="M1453.22,-476C1533.13,-476 1637.5,-476 1637.5,-476 1637.5,-476 1637.5,-446.19 1637.5,-446.19"/>
<polygon fill="#757575" stroke="#757575" points="1641,-446.19 1637.5,-436.19 1634,-446.19 1641,-446.19"/>
</g>
<!-- src/handlers/method&#45;call.ts&#45;&gt;src/types/structs.ts -->
<g id="edge63" class="edge">
<title>src/handlers/method&#45;call.ts&#45;&gt;src/types/structs.ts</title>
<path fill="none" stroke="#757575" d="M1273.82,-483C1243.23,-483 1216.6,-483 1216.6,-483 1216.6,-483 1216.6,-328.08 1216.6,-328.08"/>
<polygon fill="#757575" stroke="#757575" points="1220.1,-328.08 1216.6,-318.08 1213.1,-328.08 1220.1,-328.08"/>
</g>
<!-- src/handlers/method&#45;call.ts&#45;&gt;src/utils/identifier&#45;utils.ts -->
<g id="edge64" class="edge">
<title>src/handlers/method&#45;call.ts&#45;&gt;src/utils/identifier&#45;utils.ts</title>
<path fill="none" stroke="#757575" d="M1358.17,-471.8C1358.17,-471.8 1358.17,-269.27 1358.17,-269.27"/>
<polygon fill="#757575" stroke="#757575" points="1361.67,-269.27 1358.17,-259.27 1354.67,-269.27 1361.67,-269.27"/>
</g>
<!-- src/handlers/method&#45;call.ts&#45;&gt;src/functions.ts -->
<g id="edge62" class="edge">
<title>src/handlers/method&#45;call.ts&#45;&gt;src/functions.ts</title>
<path fill="none" stroke="#757575" d="M1453.1,-481C1659.57,-481 2151.25,-481 2151.25,-481 2151.25,-481 2151.25,-387.43 2151.25,-387.43"/>
<polygon fill="#757575" stroke="#757575" points="2154.75,-387.43 2151.25,-377.43 2147.75,-387.43 2154.75,-387.43"/>
</g>
<!-- src/types/modules.ts&#45;&gt;src/expressions/handlers.ts -->
<g id="edge88" class="edge">
<title>src/types/modules.ts&#45;&gt;src/expressions/handlers.ts</title>
<path fill="none" stroke="#757575" d="M1036.25,-294.99C1036.25,-266.5 1036.25,-195 1036.25,-195 1036.25,-195 1204.43,-195 1204.43,-195"/>
<polygon fill="#757575" stroke="#757575" points="1204.43,-198.5 1214.43,-195 1204.43,-191.5 1204.43,-198.5"/>
</g>
<!-- src/types/modules.ts&#45;&gt;src/declarations.ts -->
<g id="edge87" class="edge">
<title>src/types/modules.ts&#45;&gt;src/declarations.ts</title>
<path fill="none" stroke="#757575" d="M1045.38,-294.74C1045.38,-277.4 1045.38,-247 1045.38,-247 1045.38,-247 1140.9,-247 1140.9,-247"/>
<polygon fill="#757575" stroke="#757575" points="1140.9,-250.5 1150.9,-247 1140.9,-243.5 1140.9,-250.5"/>
</g>
<!-- src/types/modules.ts&#45;&gt;src/utils/identifier&#45;utils.ts -->
<g id="edge89" class="edge">
<title>src/types/modules.ts&#45;&gt;src/utils/identifier&#45;utils.ts</title>
<path fill="none" stroke="#757575" d="M1027.12,-294.57C1027.12,-282.62 1027.12,-266 1027.12,-266 1027.12,-266 1338.92,-266 1338.92,-266 1338.92,-266 1338.92,-265.33 1338.92,-265.33"/>
<polygon fill="#757575" stroke="#757575" points="1342.42,-269.32 1338.92,-259.32 1335.42,-269.32 1342.42,-269.32"/>
</g>
<!-- src/loops/types.ts&#45;&gt;src/expressions/handlers.ts -->
<g id="edge73" class="edge">
<title>src/loops/types.ts&#45;&gt;src/expressions/handlers.ts</title>
<path fill="none" stroke="#757575" d="M843.5,-471.88C843.5,-461.52 843.5,-448 843.5,-448 843.5,-448 1300.21,-448 1300.21,-448 1300.21,-448 1300.21,-210.32 1300.21,-210.32"/>
<polygon fill="#757575" stroke="#757575" points="1303.71,-210.32 1300.21,-200.32 1296.71,-210.32 1303.71,-210.32"/>
</g>
<!-- src/types/type&#45;declarations.ts&#45;&gt;src/declarations.ts -->
<g id="edge92" class="edge">
<title>src/types/type&#45;declarations.ts&#45;&gt;src/declarations.ts</title>
<path fill="none" stroke="#757575" d="M1694.67,-294.8C1694.67,-287.7 1694.67,-280 1694.67,-280 1694.67,-280 1259.8,-280 1259.8,-280 1259.8,-280 1259.8,-269.23 1259.8,-269.23"/>
<polygon fill="#757575" stroke="#757575" points="1263.3,-269.23 1259.8,-259.23 1256.3,-269.23 1263.3,-269.23"/>
</g>
<!-- src/types/type&#45;declarations.ts&#45;&gt;src/type&#45;utils.ts -->
<g id="edge93" class="edge">
<title>src/types/type&#45;declarations.ts&#45;&gt;src/type&#45;utils.ts</title>
<path fill="none" stroke="#757575" d="M1758.33,-294.99C1758.33,-240.73 1758.33,-13 1758.33,-13 1758.33,-13 2098.83,-13 2098.83,-13"/>
<polygon fill="#757575" stroke="#757575" points="2098.83,-16.5 2108.83,-13 2098.83,-9.5 2098.83,-16.5"/>
</g>
<!-- src/utils/interpret.ts -->
<g id="node41" class="node">
<title>src/utils/interpret.ts</title>
<path fill="none" stroke="#c6c5fe" d="M1140.83,-672C1140.83,-672 1026.17,-672 1026.17,-672 1022.33,-672 1018.5,-668.17 1018.5,-664.33 1018.5,-664.33 1018.5,-656.67 1018.5,-656.67 1018.5,-652.83 1022.33,-649 1026.17,-649 1026.17,-649 1140.83,-649 1140.83,-649 1144.67,-649 1148.5,-652.83 1148.5,-656.67 1148.5,-656.67 1148.5,-664.33 1148.5,-664.33 1148.5,-668.17 1144.67,-672 1140.83,-672"/>
<text text-anchor="middle" x="1083.5" y="-656.8" font-family="Arial" font-size="14.00" fill="#c6c5fe">src/utils/interpret.ts</text>
</g>
<!-- src/utils/interpret.ts&#45;&gt;src/app.ts -->
<g id="edge104" class="edge">
<title>src/utils/interpret.ts&#45;&gt;src/app.ts</title>
<path fill="none" stroke="#757575" d="M1083.5,-648.84C1083.5,-648.84 1083.5,-623.13 1083.5,-623.13"/>
<polygon fill="#757575" stroke="#757575" points="1087,-623.13 1083.5,-613.13 1080,-623.13 1087,-623.13"/>
</g>
<!-- tests/control/control&#45;flow.test.ts -->
<g id="node42" class="node">
<title>tests/control/control&#45;flow.test.ts</title>
<path fill="none" stroke="#c6c5fe" d="M193.33,-731C193.33,-731 7.67,-731 7.67,-731 3.83,-731 0,-727.17 0,-723.33 0,-723.33 0,-715.67 0,-715.67 0,-711.83 3.83,-708 7.67,-708 7.67,-708 193.33,-708 193.33,-708 197.17,-708 201,-711.83 201,-715.67 201,-715.67 201,-723.33 201,-723.33 201,-727.17 197.17,-731 193.33,-731"/>
<text text-anchor="middle" x="100.5" y="-715.8" font-family="Arial" font-size="14.00" fill="#c6c5fe">tests/control/control&#45;flow.test.ts</text>
</g>
<!-- tests/control/control&#45;flow.test.ts&#45;&gt;src/utils/interpret.ts -->
<g id="edge112" class="edge">
<title>tests/control/control&#45;flow.test.ts&#45;&gt;src/utils/interpret.ts</title>
<path fill="none" stroke="#757575" d="M118.25,-707.74C118.25,-688.4 118.25,-652 118.25,-652 118.25,-652 1008.29,-652 1008.29,-652"/>
<polygon fill="#757575" stroke="#757575" points="1008.29,-655.5 1018.29,-652 1008.29,-648.5 1008.29,-655.5"/>
</g>
<!-- tests/core/arithmetic.test.ts -->
<g id="node43" class="node">
<title>tests/core/arithmetic.test.ts</title>
<path fill="none" stroke="#c6c5fe" d="M389.83,-731C389.83,-731 227.17,-731 227.17,-731 223.33,-731 219.5,-727.17 219.5,-723.33 219.5,-723.33 219.5,-715.67 219.5,-715.67 219.5,-711.83 223.33,-708 227.17,-708 227.17,-708 389.83,-708 389.83,-708 393.67,-708 397.5,-711.83 397.5,-715.67 397.5,-715.67 397.5,-723.33 397.5,-723.33 397.5,-727.17 393.67,-731 389.83,-731"/>
<text text-anchor="middle" x="308.5" y="-715.8" font-family="Arial" font-size="14.00" fill="#c6c5fe">tests/core/arithmetic.test.ts</text>
</g>
<!-- tests/core/arithmetic.test.ts&#45;&gt;src/utils/interpret.ts -->
<g id="edge113" class="edge">
<title>tests/core/arithmetic.test.ts&#45;&gt;src/utils/interpret.ts</title>
<path fill="none" stroke="#757575" d="M369.5,-707.85C369.5,-689.52 369.5,-656 369.5,-656 369.5,-656 1008.24,-656 1008.24,-656"/>
<polygon fill="#757575" stroke="#757575" points="1008.24,-659.5 1018.24,-656 1008.24,-652.5 1008.24,-659.5"/>
</g>
<!-- tests/core/char.test.ts -->
<g id="node44" class="node">
<title>tests/core/char.test.ts</title>
<path fill="none" stroke="#c6c5fe" d="M551.83,-731C551.83,-731 423.17,-731 423.17,-731 419.33,-731 415.5,-727.17 415.5,-723.33 415.5,-723.33 415.5,-715.67 415.5,-715.67 415.5,-711.83 419.33,-708 423.17,-708 423.17,-708 551.83,-708 551.83,-708 555.67,-708 559.5,-711.83 559.5,-715.67 559.5,-715.67 559.5,-723.33 559.5,-723.33 559.5,-727.17 555.67,-731 551.83,-731"/>
<text text-anchor="middle" x="487.5" y="-715.8" font-family="Arial" font-size="14.00" fill="#c6c5fe">tests/core/char.test.ts</text>
</g>
<!-- tests/core/char.test.ts&#45;&gt;src/utils/interpret.ts -->
<g id="edge114" class="edge">
<title>tests/core/char.test.ts&#45;&gt;src/utils/interpret.ts</title>
<path fill="none" stroke="#757575" d="M487.5,-707.74C487.5,-690.4 487.5,-660 487.5,-660 487.5,-660 1008.3,-660 1008.3,-660"/>
<polygon fill="#757575" stroke="#757575" points="1008.3,-663.5 1018.3,-660 1008.3,-656.5 1008.3,-663.5"/>
</g>
<!-- tests/core/strings.test.ts -->
<g id="node45" class="node">
<title>tests/core/strings.test.ts</title>
<path fill="none" stroke="#c6c5fe" d="M727.83,-731C727.83,-731 585.17,-731 585.17,-731 581.33,-731 577.5,-727.17 577.5,-723.33 577.5,-723.33 577.5,-715.67 577.5,-715.67 577.5,-711.83 581.33,-708 585.17,-708 585.17,-708 727.83,-708 727.83,-708 731.67,-708 735.5,-711.83 735.5,-715.67 735.5,-715.67 735.5,-723.33 735.5,-723.33 735.5,-727.17 731.67,-731 727.83,-731"/>
<text text-anchor="middle" x="656.5" y="-715.8" font-family="Arial" font-size="14.00" fill="#c6c5fe">tests/core/strings.test.ts</text>
</g>
<!-- tests/core/strings.test.ts&#45;&gt;src/utils/interpret.ts -->
<g id="edge115" class="edge">
<title>tests/core/strings.test.ts&#45;&gt;src/utils/interpret.ts</title>
<path fill="none" stroke="#757575" d="M683.75,-707.73C683.75,-691.44 683.75,-664 683.75,-664 683.75,-664 1008.38,-664 1008.38,-664"/>
<polygon fill="#757575" stroke="#757575" points="1008.38,-667.5 1018.38,-664 1008.38,-660.5 1008.38,-667.5"/>
</g>
<!-- tests/functions/constructor.test.ts -->
<g id="node46" class="node">
<title>tests/functions/constructor.test.ts</title>
<path fill="none" stroke="#c6c5fe" d="M957.83,-731C957.83,-731 761.17,-731 761.17,-731 757.33,-731 753.5,-727.17 753.5,-723.33 753.5,-723.33 753.5,-715.67 753.5,-715.67 753.5,-711.83 757.33,-708 761.17,-708 761.17,-708 957.83,-708 957.83,-708 961.67,-708 965.5,-711.83 965.5,-715.67 965.5,-715.67 965.5,-723.33 965.5,-723.33 965.5,-727.17 961.67,-731 957.83,-731"/>
<text text-anchor="middle" x="859.5" y="-715.8" font-family="Arial" font-size="14.00" fill="#c6c5fe">tests/functions/constructor.test.ts</text>
</g>
<!-- tests/functions/constructor.test.ts&#45;&gt;src/utils/interpret.ts -->
<g id="edge116" class="edge">
<title>tests/functions/constructor.test.ts&#45;&gt;src/utils/interpret.ts</title>
<path fill="none" stroke="#757575" d="M930,-707.81C930,-692.62 930,-668 930,-668 930,-668 1008.4,-668 1008.4,-668"/>
<polygon fill="#757575" stroke="#757575" points="1008.4,-671.5 1018.4,-668 1008.4,-664.5 1008.4,-671.5"/>
</g>
<!-- tests/functions/functions.test.ts -->
<g id="node47" class="node">
<title>tests/functions/functions.test.ts</title>
<path fill="none" stroke="#c6c5fe" d="M1175.83,-731C1175.83,-731 991.17,-731 991.17,-731 987.33,-731 983.5,-727.17 983.5,-723.33 983.5,-723.33 983.5,-715.67 983.5,-715.67 983.5,-711.83 987.33,-708 991.17,-708 991.17,-708 1175.83,-708 1175.83,-708 1179.67,-708 1183.5,-711.83 1183.5,-715.67 1183.5,-715.67 1183.5,-723.33 1183.5,-723.33 1183.5,-727.17 1179.67,-731 1175.83,-731"/>
<text text-anchor="middle" x="1083.5" y="-715.8" font-family="Arial" font-size="14.00" fill="#c6c5fe">tests/functions/functions.test.ts</text>
</g>
<!-- tests/functions/functions.test.ts&#45;&gt;src/utils/interpret.ts -->
<g id="edge117" class="edge">
<title>tests/functions/functions.test.ts&#45;&gt;src/utils/interpret.ts</title>
<path fill="none" stroke="#757575" d="M1083.5,-707.84C1083.5,-707.84 1083.5,-682.13 1083.5,-682.13"/>
<polygon fill="#757575" stroke="#757575" points="1087,-682.13 1083.5,-672.13 1080,-682.13 1087,-682.13"/>
</g>
<!-- tests/functions/generic&#45;functions.test.ts -->
<g id="node48" class="node">
<title>tests/functions/generic&#45;functions.test.ts</title>
<path fill="none" stroke="#c6c5fe" d="M1443.33,-731C1443.33,-731 1209.67,-731 1209.67,-731 1205.83,-731 1202,-727.17 1202,-723.33 1202,-723.33 1202,-715.67 1202,-715.67 1202,-711.83 1205.83,-708 1209.67,-708 1209.67,-708 1443.33,-708 1443.33,-708 1447.17,-708 1451,-711.83 1451,-715.67 1451,-715.67 1451,-723.33 1451,-723.33 1451,-727.17 1447.17,-731 1443.33,-731"/>
<text text-anchor="middle" x="1326.5" y="-715.8" font-family="Arial" font-size="14.00" fill="#c6c5fe">tests/functions/generic&#45;functions.test.ts</text>
</g>
<!-- tests/functions/generic&#45;functions.test.ts&#45;&gt;src/utils/interpret.ts -->
<g id="edge118" class="edge">
<title>tests/functions/generic&#45;functions.test.ts&#45;&gt;src/utils/interpret.ts</title>
<path fill="none" stroke="#757575" d="M1231.2,-707.81C1231.2,-692.62 1231.2,-668 1231.2,-668 1231.2,-668 1158.71,-668 1158.71,-668"/>
<polygon fill="#757575" stroke="#757575" points="1158.71,-664.5 1148.71,-668 1158.71,-671.5 1158.71,-664.5"/>
</g>
<!-- tests/modules/modules.test.ts -->
<g id="node49" class="node">
<title>tests/modules/modules.test.ts</title>
<path fill="none" stroke="#c6c5fe" d="M1657.83,-731C1657.83,-731 1477.17,-731 1477.17,-731 1473.33,-731 1469.5,-727.17 1469.5,-723.33 1469.5,-723.33 1469.5,-715.67 1469.5,-715.67 1469.5,-711.83 1473.33,-708 1477.17,-708 1477.17,-708 1657.83,-708 1657.83,-708 1661.67,-708 1665.5,-711.83 1665.5,-715.67 1665.5,-715.67 1665.5,-723.33 1665.5,-723.33 1665.5,-727.17 1661.67,-731 1657.83,-731"/>
<text text-anchor="middle" x="1567.5" y="-715.8" font-family="Arial" font-size="14.00" fill="#c6c5fe">tests/modules/modules.test.ts</text>
</g>
<!-- tests/modules/modules.test.ts&#45;&gt;src/utils/interpret.ts -->
<g id="edge119" class="edge">
<title>tests/modules/modules.test.ts&#45;&gt;src/utils/interpret.ts</title>
<path fill="none" stroke="#757575" d="M1539.17,-707.73C1539.17,-691.44 1539.17,-664 1539.17,-664 1539.17,-664 1158.79,-664 1158.79,-664"/>
<polygon fill="#757575" stroke="#757575" points="1158.79,-660.5 1148.79,-664 1158.79,-667.5 1158.79,-660.5"/>
</g>
<!-- tests/types/generics.test.ts -->
<g id="node50" class="node">
<title>tests/types/generics.test.ts</title>
<path fill="none" stroke="#c6c5fe" d="M1851.83,-731C1851.83,-731 1691.17,-731 1691.17,-731 1687.33,-731 1683.5,-727.17 1683.5,-723.33 1683.5,-723.33 1683.5,-715.67 1683.5,-715.67 1683.5,-711.83 1687.33,-708 1691.17,-708 1691.17,-708 1851.83,-708 1851.83,-708 1855.67,-708 1859.5,-711.83 1859.5,-715.67 1859.5,-715.67 1859.5,-723.33 1859.5,-723.33 1859.5,-727.17 1855.67,-731 1851.83,-731"/>
<text text-anchor="middle" x="1771.5" y="-715.8" font-family="Arial" font-size="14.00" fill="#c6c5fe">tests/types/generics.test.ts</text>
</g>
<!-- tests/types/generics.test.ts&#45;&gt;src/utils/interpret.ts -->
<g id="edge120" class="edge">
<title>tests/types/generics.test.ts&#45;&gt;src/utils/interpret.ts</title>
<path fill="none" stroke="#757575" d="M1731.5,-707.74C1731.5,-690.4 1731.5,-660 1731.5,-660 1731.5,-660 1158.6,-660 1158.6,-660"/>
<polygon fill="#757575" stroke="#757575" points="1158.6,-656.5 1148.6,-660 1158.6,-663.5 1158.6,-656.5"/>
</g>
<!-- tests/types/types.test.ts -->
<g id="node51" class="node">
<title>tests/types/types.test.ts</title>
<path fill="none" stroke="#c6c5fe" d="M2027.33,-731C2027.33,-731 1885.67,-731 1885.67,-731 1881.83,-731 1878,-727.17 1878,-723.33 1878,-723.33 1878,-715.67 1878,-715.67 1878,-711.83 1881.83,-708 1885.67,-708 1885.67,-708 2027.33,-708 2027.33,-708 2031.17,-708 2035,-711.83 2035,-715.67 2035,-715.67 2035,-723.33 2035,-723.33 2035,-727.17 2031.17,-731 2027.33,-731"/>
<text text-anchor="middle" x="1956.5" y="-715.8" font-family="Arial" font-size="14.00" fill="#c6c5fe">tests/types/types.test.ts</text>
</g>
<!-- tests/types/types.test.ts&#45;&gt;src/utils/interpret.ts -->
<g id="edge121" class="edge">
<title>tests/types/types.test.ts&#45;&gt;src/utils/interpret.ts</title>
<path fill="none" stroke="#757575" d="M1956.5,-707.85C1956.5,-689.52 1956.5,-656 1956.5,-656 1956.5,-656 1158.76,-656 1158.76,-656"/>
<polygon fill="#757575" stroke="#757575" points="1158.76,-652.5 1148.76,-656 1158.76,-659.5 1158.76,-652.5"/>
</g>
<!-- tests/values/variables.test.ts -->
<g id="node52" class="node">
<title>tests/values/variables.test.ts</title>
<path fill="none" stroke="#c6c5fe" d="M2230.33,-731C2230.33,-731 2060.67,-731 2060.67,-731 2056.83,-731 2053,-727.17 2053,-723.33 2053,-723.33 2053,-715.67 2053,-715.67 2053,-711.83 2056.83,-708 2060.67,-708 2060.67,-708 2230.33,-708 2230.33,-708 2234.17,-708 2238,-711.83 2238,-715.67 2238,-715.67 2238,-723.33 2238,-723.33 2238,-727.17 2234.17,-731 2230.33,-731"/>
<text text-anchor="middle" x="2145.5" y="-715.8" font-family="Arial" font-size="14.00" fill="#c6c5fe">tests/values/variables.test.ts</text>
</g>
<!-- tests/values/variables.test.ts&#45;&gt;src/utils/interpret.ts -->
<g id="edge122" class="edge">
<title>tests/values/variables.test.ts&#45;&gt;src/utils/interpret.ts</title>
<path fill="none" stroke="#757575" d="M2071.25,-707.74C2071.25,-688.4 2071.25,-652 2071.25,-652 2071.25,-652 1158.69,-652 1158.69,-652"/>
<polygon fill="#757575" stroke="#757575" points="1158.69,-648.5 1148.69,-652 1158.69,-655.5 1158.69,-648.5"/>
</g>
</g>
</svg>
