<?xml version="1.0" encoding="UTF-8" standalone="no"?>
<!DOCTYPE svg PUBLIC "-//W3C//DTD SVG 1.1//EN"
 "http://www.w3.org/Graphics/SVG/1.1/DTD/svg11.dtd">
<!-- Generated by graphviz version 2.43.0 (0)
 -->
<!-- Title: G Pages: 1 -->
<svg width="2332pt" height="538pt"
 viewBox="0.00 0.00 2331.70 538.20" xmlns="http://www.w3.org/2000/svg" xmlns:xlink="http://www.w3.org/1999/xlink">
<g id="graph0" class="graph" transform="scale(1 1) rotate(0) translate(21.6 516.6)">
<title>G</title>
<polygon fill="#111111" stroke="transparent" points="-21.6,21.6 -21.6,-516.6 2310.1,-516.6 2310.1,21.6 -21.6,21.6"/>
<!-- src/app.ts -->
<g id="node1" class="node">
<title>src/app.ts</title>
<path fill="none" stroke="#c6c5fe" d="M734.33,-377C734.33,-377 674.67,-377 674.67,-377 670.83,-377 667,-373.17 667,-369.33 667,-369.33 667,-361.67 667,-361.67 667,-357.83 670.83,-354 674.67,-354 674.67,-354 734.33,-354 734.33,-354 738.17,-354 742,-357.83 742,-361.67 742,-361.67 742,-369.33 742,-369.33 742,-373.17 738.17,-377 734.33,-377"/>
<text text-anchor="middle" x="704.5" y="-361.8" font-family="Arial" font-size="14.00" fill="#c6c5fe">src/app.ts</text>
</g>
<!-- src/expressions/binary&#45;operation.ts -->
<g id="node2" class="node">
<title>src/expressions/binary&#45;operation.ts</title>
<path fill="none" stroke="#c6c5fe" d="M2167.83,-259C2167.83,-259 1957.17,-259 1957.17,-259 1953.33,-259 1949.5,-255.17 1949.5,-251.33 1949.5,-251.33 1949.5,-243.67 1949.5,-243.67 1949.5,-239.83 1953.33,-236 1957.17,-236 1957.17,-236 2167.83,-236 2167.83,-236 2171.67,-236 2175.5,-239.83 2175.5,-243.67 2175.5,-243.67 2175.5,-251.33 2175.5,-251.33 2175.5,-255.17 2171.67,-259 2167.83,-259"/>
<text text-anchor="middle" x="2062.5" y="-243.8" font-family="Arial" font-size="14.00" fill="#c6c5fe">src/expressions/binary&#45;operation.ts</text>
</g>
<!-- src/app.ts&#45;&gt;src/expressions/binary&#45;operation.ts -->
<g id="edge1" class="edge">
<title>src/app.ts&#45;&gt;src/expressions/binary&#45;operation.ts</title>
<path fill="none" stroke="#757575" d="M742.24,-370C961.56,-370 2062.5,-370 2062.5,-370 2062.5,-370 2062.5,-269.25 2062.5,-269.25"/>
<polygon fill="#757575" stroke="#757575" points="2066,-269.25 2062.5,-259.25 2059,-269.25 2066,-269.25"/>
</g>
<!-- src/expressions/grouped&#45;expressions.ts -->
<g id="node3" class="node">
<title>src/expressions/grouped&#45;expressions.ts</title>
<path fill="none" stroke="#c6c5fe" d="M557.83,-200C557.83,-200 319.17,-200 319.17,-200 315.33,-200 311.5,-196.17 311.5,-192.33 311.5,-192.33 311.5,-184.67 311.5,-184.67 311.5,-180.83 315.33,-177 319.17,-177 319.17,-177 557.83,-177 557.83,-177 561.67,-177 565.5,-180.83 565.5,-184.67 565.5,-184.67 565.5,-192.33 565.5,-192.33 565.5,-196.17 561.67,-200 557.83,-200"/>
<text text-anchor="middle" x="438.5" y="-184.8" font-family="Arial" font-size="14.00" fill="#c6c5fe">src/expressions/grouped&#45;expressions.ts</text>
</g>
<!-- src/app.ts&#45;&gt;src/expressions/grouped&#45;expressions.ts -->
<g id="edge2" class="edge">
<title>src/app.ts&#45;&gt;src/expressions/grouped&#45;expressions.ts</title>
<path fill="none" stroke="#757575" d="M677,-353.81C677,-313.53 677,-183 677,-183 677,-183 575.78,-183 575.78,-183"/>
<polygon fill="#757575" stroke="#757575" points="575.78,-179.5 565.78,-183 575.78,-186.5 575.78,-179.5"/>
</g>
<!-- src/expressions/handlers.ts -->
<g id="node4" class="node">
<title>src/expressions/handlers.ts</title>
<path fill="none" stroke="#cfffac" d="M676.83,-23C676.83,-23 512.17,-23 512.17,-23 508.33,-23 504.5,-19.17 504.5,-15.33 504.5,-15.33 504.5,-7.67 504.5,-7.67 504.5,-3.83 508.33,0 512.17,0 512.17,0 676.83,0 676.83,0 680.67,0 684.5,-3.83 684.5,-7.67 684.5,-7.67 684.5,-15.33 684.5,-15.33 684.5,-19.17 680.67,-23 676.83,-23"/>
<text text-anchor="middle" x="594.5" y="-7.8" font-family="Arial" font-size="14.00" fill="#cfffac">src/expressions/handlers.ts</text>
</g>
<!-- src/app.ts&#45;&gt;src/expressions/handlers.ts -->
<g id="edge3" class="edge">
<title>src/app.ts&#45;&gt;src/expressions/handlers.ts</title>
<path fill="none" stroke="#757575" d="M675,-353.92C675,-320.13 675,-224 675,-224 675,-224 570.1,-224 570.1,-224 570.1,-224 570.1,-33.23 570.1,-33.23"/>
<polygon fill="#757575" stroke="#757575" points="573.6,-33.23 570.1,-23.23 566.6,-33.23 573.6,-33.23"/>
</g>
<!-- src/handlers/dereference&#45;assignment.ts -->
<g id="node5" class="node">
<title>src/handlers/dereference&#45;assignment.ts</title>
<path fill="none" stroke="#c6c5fe" d="M1102.83,-318C1102.83,-318 864.17,-318 864.17,-318 860.33,-318 856.5,-314.17 856.5,-310.33 856.5,-310.33 856.5,-302.67 856.5,-302.67 856.5,-298.83 860.33,-295 864.17,-295 864.17,-295 1102.83,-295 1102.83,-295 1106.67,-295 1110.5,-298.83 1110.5,-302.67 1110.5,-302.67 1110.5,-310.33 1110.5,-310.33 1110.5,-314.17 1106.67,-318 1102.83,-318"/>
<text text-anchor="middle" x="983.5" y="-302.8" font-family="Arial" font-size="14.00" fill="#c6c5fe">src/handlers/dereference&#45;assignment.ts</text>
</g>
<!-- src/app.ts&#45;&gt;src/handlers/dereference&#45;assignment.ts -->
<g id="edge4" class="edge">
<title>src/app.ts&#45;&gt;src/handlers/dereference&#45;assignment.ts</title>
<path fill="none" stroke="#757575" d="M742.06,-357C795.14,-357 885.75,-357 885.75,-357 885.75,-357 885.75,-328.21 885.75,-328.21"/>
<polygon fill="#757575" stroke="#757575" points="889.25,-328.21 885.75,-318.21 882.25,-328.21 889.25,-328.21"/>
</g>
<!-- src/handlers/lambda&#45;expressions.ts -->
<g id="node6" class="node">
<title>src/handlers/lambda&#45;expressions.ts</title>
<path fill="none" stroke="#c6c5fe" d="M1556.83,-259C1556.83,-259 1342.17,-259 1342.17,-259 1338.33,-259 1334.5,-255.17 1334.5,-251.33 1334.5,-251.33 1334.5,-243.67 1334.5,-243.67 1334.5,-239.83 1338.33,-236 1342.17,-236 1342.17,-236 1556.83,-236 1556.83,-236 1560.67,-236 1564.5,-239.83 1564.5,-243.67 1564.5,-243.67 1564.5,-251.33 1564.5,-251.33 1564.5,-255.17 1560.67,-259 1556.83,-259"/>
<text text-anchor="middle" x="1449.5" y="-243.8" font-family="Arial" font-size="14.00" fill="#c6c5fe">src/handlers/lambda&#45;expressions.ts</text>
</g>
<!-- src/app.ts&#45;&gt;src/handlers/lambda&#45;expressions.ts -->
<g id="edge5" class="edge">
<title>src/app.ts&#45;&gt;src/handlers/lambda&#45;expressions.ts</title>
<path fill="none" stroke="#757575" d="M742.21,-363C893.66,-363 1449.5,-363 1449.5,-363 1449.5,-363 1449.5,-269.43 1449.5,-269.43"/>
<polygon fill="#757575" stroke="#757575" points="1453,-269.43 1449.5,-259.43 1446,-269.43 1453,-269.43"/>
</g>
<!-- src/handlers/pointer&#45;operations.ts -->
<g id="node7" class="node">
<title>src/handlers/pointer&#45;operations.ts</title>
<path fill="none" stroke="#c6c5fe" d="M1270.33,-259C1270.33,-259 1068.67,-259 1068.67,-259 1064.83,-259 1061,-255.17 1061,-251.33 1061,-251.33 1061,-243.67 1061,-243.67 1061,-239.83 1064.83,-236 1068.67,-236 1068.67,-236 1270.33,-236 1270.33,-236 1274.17,-236 1278,-239.83 1278,-243.67 1278,-243.67 1278,-251.33 1278,-251.33 1278,-255.17 1274.17,-259 1270.33,-259"/>
<text text-anchor="middle" x="1169.5" y="-243.8" font-family="Arial" font-size="14.00" fill="#c6c5fe">src/handlers/pointer&#45;operations.ts</text>
</g>
<!-- src/app.ts&#45;&gt;src/handlers/pointer&#45;operations.ts -->
<g id="edge6" class="edge">
<title>src/app.ts&#45;&gt;src/handlers/pointer&#45;operations.ts</title>
<path fill="none" stroke="#757575" d="M742.12,-360C856.8,-360 1194.25,-360 1194.25,-360 1194.25,-360 1194.25,-269.12 1194.25,-269.12"/>
<polygon fill="#757575" stroke="#757575" points="1197.75,-269.12 1194.25,-259.12 1190.75,-269.12 1197.75,-269.12"/>
</g>
<!-- src/loops/for.ts -->
<g id="node8" class="node">
<title>src/loops/for.ts</title>
<path fill="none" stroke="#c6c5fe" d="M220.83,-318C220.83,-318 132.17,-318 132.17,-318 128.33,-318 124.5,-314.17 124.5,-310.33 124.5,-310.33 124.5,-302.67 124.5,-302.67 124.5,-298.83 128.33,-295 132.17,-295 132.17,-295 220.83,-295 220.83,-295 224.67,-295 228.5,-298.83 228.5,-302.67 228.5,-302.67 228.5,-310.33 228.5,-310.33 228.5,-314.17 224.67,-318 220.83,-318"/>
<text text-anchor="middle" x="176.5" y="-302.8" font-family="Arial" font-size="14.00" fill="#c6c5fe">src/loops/for.ts</text>
</g>
<!-- src/app.ts&#45;&gt;src/loops/for.ts -->
<g id="edge7" class="edge">
<title>src/app.ts&#45;&gt;src/loops/for.ts</title>
<path fill="none" stroke="#757575" d="M666.95,-369C546.32,-369 176.5,-369 176.5,-369 176.5,-369 176.5,-328.26 176.5,-328.26"/>
<polygon fill="#757575" stroke="#757575" points="180,-328.26 176.5,-318.26 173,-328.26 180,-328.26"/>
</g>
<!-- src/loops/loop.ts -->
<g id="node9" class="node">
<title>src/loops/loop.ts</title>
<path fill="none" stroke="#cfffac" d="M396.83,-259C396.83,-259 298.17,-259 298.17,-259 294.33,-259 290.5,-255.17 290.5,-251.33 290.5,-251.33 290.5,-243.67 290.5,-243.67 290.5,-239.83 294.33,-236 298.17,-236 298.17,-236 396.83,-236 396.83,-236 400.67,-236 404.5,-239.83 404.5,-243.67 404.5,-243.67 404.5,-251.33 404.5,-251.33 404.5,-255.17 400.67,-259 396.83,-259"/>
<text text-anchor="middle" x="347.5" y="-243.8" font-family="Arial" font-size="14.00" fill="#cfffac">src/loops/loop.ts</text>
</g>
<!-- src/app.ts&#45;&gt;src/loops/loop.ts -->
<g id="edge8" class="edge">
<title>src/app.ts&#45;&gt;src/loops/loop.ts</title>
<path fill="none" stroke="#757575" d="M666.94,-361C582.55,-361 385.25,-361 385.25,-361 385.25,-361 385.25,-269.22 385.25,-269.22"/>
<polygon fill="#757575" stroke="#757575" points="388.75,-269.22 385.25,-259.22 381.75,-269.22 388.75,-269.22"/>
</g>
<!-- src/loops/while.ts -->
<g id="node10" class="node">
<title>src/loops/while.ts</title>
<path fill="none" stroke="#c6c5fe" d="M358.33,-318C358.33,-318 254.67,-318 254.67,-318 250.83,-318 247,-314.17 247,-310.33 247,-310.33 247,-302.67 247,-302.67 247,-298.83 250.83,-295 254.67,-295 254.67,-295 358.33,-295 358.33,-295 362.17,-295 366,-298.83 366,-302.67 366,-302.67 366,-310.33 366,-310.33 366,-314.17 362.17,-318 358.33,-318"/>
<text text-anchor="middle" x="306.5" y="-302.8" font-family="Arial" font-size="14.00" fill="#c6c5fe">src/loops/while.ts</text>
</g>
<!-- src/app.ts&#45;&gt;src/loops/while.ts -->
<g id="edge9" class="edge">
<title>src/app.ts&#45;&gt;src/loops/while.ts</title>
<path fill="none" stroke="#757575" d="M669,-353.74C669,-336.4 669,-306 669,-306 669,-306 376.36,-306 376.36,-306"/>
<polygon fill="#757575" stroke="#757575" points="376.36,-302.5 366.36,-306 376.36,-309.5 376.36,-302.5"/>
</g>
<!-- src/match.ts -->
<g id="node11" class="node">
<title>src/match.ts</title>
<path fill="none" stroke="#cfffac" d="M290.83,-141C290.83,-141 216.17,-141 216.17,-141 212.33,-141 208.5,-137.17 208.5,-133.33 208.5,-133.33 208.5,-125.67 208.5,-125.67 208.5,-121.83 212.33,-118 216.17,-118 216.17,-118 290.83,-118 290.83,-118 294.67,-118 298.5,-121.83 298.5,-125.67 298.5,-125.67 298.5,-133.33 298.5,-133.33 298.5,-137.17 294.67,-141 290.83,-141"/>
<text text-anchor="middle" x="253.5" y="-125.8" font-family="Arial" font-size="14.00" fill="#cfffac">src/match.ts</text>
</g>
<!-- src/app.ts&#45;&gt;src/match.ts -->
<g id="edge10" class="edge">
<title>src/app.ts&#45;&gt;src/match.ts</title>
<path fill="none" stroke="#757575" d="M673,-353.95C673,-321.18 673,-230 673,-230 673,-230 293.17,-230 293.17,-230 293.17,-230 293.17,-151.03 293.17,-151.03"/>
<polygon fill="#757575" stroke="#757575" points="296.67,-151.03 293.17,-141.03 289.67,-151.03 296.67,-151.03"/>
</g>
<!-- src/parser.ts -->
<g id="node12" class="node">
<title>src/parser.ts</title>
<path fill="none" stroke="#c6c5fe" d="M2280.83,-141C2280.83,-141 2206.17,-141 2206.17,-141 2202.33,-141 2198.5,-137.17 2198.5,-133.33 2198.5,-133.33 2198.5,-125.67 2198.5,-125.67 2198.5,-121.83 2202.33,-118 2206.17,-118 2206.17,-118 2280.83,-118 2280.83,-118 2284.67,-118 2288.5,-121.83 2288.5,-125.67 2288.5,-125.67 2288.5,-133.33 2288.5,-133.33 2288.5,-137.17 2284.67,-141 2280.83,-141"/>
<text text-anchor="middle" x="2243.5" y="-125.8" font-family="Arial" font-size="14.00" fill="#c6c5fe">src/parser.ts</text>
</g>
<!-- src/app.ts&#45;&gt;src/parser.ts -->
<g id="edge11" class="edge">
<title>src/app.ts&#45;&gt;src/parser.ts</title>
<path fill="none" stroke="#757575" d="M742.05,-373C980.2,-373 2270.5,-373 2270.5,-373 2270.5,-373 2270.5,-151.24 2270.5,-151.24"/>
<polygon fill="#757575" stroke="#757575" points="2274,-151.24 2270.5,-141.24 2267,-151.24 2274,-151.24"/>
</g>
<!-- src/scope.ts -->
<g id="node13" class="node">
<title>src/scope.ts</title>
<path fill="none" stroke="#c6c5fe" d="M1688.33,-318C1688.33,-318 1614.67,-318 1614.67,-318 1610.83,-318 1607,-314.17 1607,-310.33 1607,-310.33 1607,-302.67 1607,-302.67 1607,-298.83 1610.83,-295 1614.67,-295 1614.67,-295 1688.33,-295 1688.33,-295 1692.17,-295 1696,-298.83 1696,-302.67 1696,-302.67 1696,-310.33 1696,-310.33 1696,-314.17 1692.17,-318 1688.33,-318"/>
<text text-anchor="middle" x="1651.5" y="-302.8" font-family="Arial" font-size="14.00" fill="#c6c5fe">src/scope.ts</text>
</g>
<!-- src/app.ts&#45;&gt;src/scope.ts -->
<g id="edge12" class="edge">
<title>src/app.ts&#45;&gt;src/scope.ts</title>
<path fill="none" stroke="#757575" d="M742.21,-367C918.34,-367 1651.5,-367 1651.5,-367 1651.5,-367 1651.5,-328.17 1651.5,-328.17"/>
<polygon fill="#757575" stroke="#757575" points="1655,-328.16 1651.5,-318.17 1648,-328.17 1655,-328.16"/>
</g>
<!-- src/utils/app&#45;handlers.ts -->
<g id="node14" class="node">
<title>src/utils/app&#45;handlers.ts</title>
<path fill="none" stroke="#c6c5fe" d="M830.33,-318C830.33,-318 686.67,-318 686.67,-318 682.83,-318 679,-314.17 679,-310.33 679,-310.33 679,-302.67 679,-302.67 679,-298.83 682.83,-295 686.67,-295 686.67,-295 830.33,-295 830.33,-295 834.17,-295 838,-298.83 838,-302.67 838,-302.67 838,-310.33 838,-310.33 838,-314.17 834.17,-318 830.33,-318"/>
<text text-anchor="middle" x="758.5" y="-302.8" font-family="Arial" font-size="14.00" fill="#c6c5fe">src/utils/app&#45;handlers.ts</text>
</g>
<!-- src/app.ts&#45;&gt;src/utils/app&#45;handlers.ts -->
<g id="edge13" class="edge">
<title>src/app.ts&#45;&gt;src/utils/app&#45;handlers.ts</title>
<path fill="none" stroke="#757575" d="M710.5,-353.84C710.5,-353.84 710.5,-328.13 710.5,-328.13"/>
<polygon fill="#757575" stroke="#757575" points="714,-328.13 710.5,-318.13 707,-328.13 714,-328.13"/>
</g>
<!-- src/utils/this&#45;keyword.ts -->
<g id="node15" class="node">
<title>src/utils/this&#45;keyword.ts</title>
<path fill="none" stroke="#c6c5fe" d="M646.83,-259C646.83,-259 506.17,-259 506.17,-259 502.33,-259 498.5,-255.17 498.5,-251.33 498.5,-251.33 498.5,-243.67 498.5,-243.67 498.5,-239.83 502.33,-236 506.17,-236 506.17,-236 646.83,-236 646.83,-236 650.67,-236 654.5,-239.83 654.5,-243.67 654.5,-243.67 654.5,-251.33 654.5,-251.33 654.5,-255.17 650.67,-259 646.83,-259"/>
<text text-anchor="middle" x="576.5" y="-243.8" font-family="Arial" font-size="14.00" fill="#c6c5fe">src/utils/this&#45;keyword.ts</text>
</g>
<!-- src/app.ts&#45;&gt;src/utils/this&#45;keyword.ts -->
<g id="edge14" class="edge">
<title>src/app.ts&#45;&gt;src/utils/this&#45;keyword.ts</title>
<path fill="none" stroke="#757575" d="M671,-353.75C671,-323.09 671,-243 671,-243 671,-243 664.54,-243 664.54,-243"/>
<polygon fill="#757575" stroke="#757575" points="664.54,-239.5 654.54,-243 664.54,-246.5 664.54,-239.5"/>
</g>
<!-- src/expressions/binary&#45;operation.ts&#45;&gt;src/expressions/handlers.ts -->
<g id="edge16" class="edge">
<title>src/expressions/binary&#45;operation.ts&#45;&gt;src/expressions/handlers.ts</title>
<path fill="none" stroke="#757575" d="M1963.75,-235.88C1963.75,-225.52 1963.75,-212 1963.75,-212 1963.75,-212 574.7,-212 574.7,-212 574.7,-212 574.7,-33.15 574.7,-33.15"/>
<polygon fill="#757575" stroke="#757575" points="578.2,-33.15 574.7,-23.15 571.2,-33.15 578.2,-33.15"/>
</g>
<!-- src/expressions/binary&#45;operation.ts&#45;&gt;src/parser.ts -->
<g id="edge18" class="edge">
<title>src/expressions/binary&#45;operation.ts&#45;&gt;src/parser.ts</title>
<path fill="none" stroke="#757575" d="M2175.79,-247C2207.99,-247 2234.5,-247 2234.5,-247 2234.5,-247 2234.5,-151.2 2234.5,-151.2"/>
<polygon fill="#757575" stroke="#757575" points="2238,-151.2 2234.5,-141.2 2231,-151.2 2238,-151.2"/>
</g>
<!-- src/expressions/operators.ts -->
<g id="node17" class="node">
<title>src/expressions/operators.ts</title>
<path fill="none" stroke="#c6c5fe" d="M2173.33,-200C2173.33,-200 2003.67,-200 2003.67,-200 1999.83,-200 1996,-196.17 1996,-192.33 1996,-192.33 1996,-184.67 1996,-184.67 1996,-180.83 1999.83,-177 2003.67,-177 2003.67,-177 2173.33,-177 2173.33,-177 2177.17,-177 2181,-180.83 2181,-184.67 2181,-184.67 2181,-192.33 2181,-192.33 2181,-196.17 2177.17,-200 2173.33,-200"/>
<text text-anchor="middle" x="2088.5" y="-184.8" font-family="Arial" font-size="14.00" fill="#c6c5fe">src/expressions/operators.ts</text>
</g>
<!-- src/expressions/binary&#45;operation.ts&#45;&gt;src/expressions/operators.ts -->
<g id="edge17" class="edge">
<title>src/expressions/binary&#45;operation.ts&#45;&gt;src/expressions/operators.ts</title>
<path fill="none" stroke="#757575" d="M2085.75,-235.84C2085.75,-235.84 2085.75,-210.13 2085.75,-210.13"/>
<polygon fill="#757575" stroke="#757575" points="2089.25,-210.13 2085.75,-200.13 2082.25,-210.13 2089.25,-210.13"/>
</g>
<!-- src/expressions/grouped&#45;expressions.ts&#45;&gt;src/expressions/handlers.ts -->
<g id="edge19" class="edge">
<title>src/expressions/grouped&#45;expressions.ts&#45;&gt;src/expressions/handlers.ts</title>
<path fill="none" stroke="#757575" d="M543,-176.89C543,-176.89 543,-33.39 543,-33.39"/>
<polygon fill="#757575" stroke="#757575" points="546.5,-33.39 543,-23.39 539.5,-33.39 546.5,-33.39"/>
</g>
<!-- src/expressions/grouped&#45;expressions.ts&#45;&gt;src/match.ts -->
<g id="edge20" class="edge">
<title>src/expressions/grouped&#45;expressions.ts&#45;&gt;src/match.ts</title>
<path fill="none" stroke="#757575" d="M311.37,-188C301.83,-188 295.83,-188 295.83,-188 295.83,-188 295.83,-151.06 295.83,-151.06"/>
<polygon fill="#757575" stroke="#757575" points="299.33,-151.06 295.83,-141.06 292.33,-151.06 299.33,-151.06"/>
</g>
<!-- src/types/structs.ts -->
<g id="node18" class="node">
<title>src/types/structs.ts</title>
<path fill="none" stroke="#c6c5fe" d="M512.83,-141C512.83,-141 400.17,-141 400.17,-141 396.33,-141 392.5,-137.17 392.5,-133.33 392.5,-133.33 392.5,-125.67 392.5,-125.67 392.5,-121.83 396.33,-118 400.17,-118 400.17,-118 512.83,-118 512.83,-118 516.67,-118 520.5,-121.83 520.5,-125.67 520.5,-125.67 520.5,-133.33 520.5,-133.33 520.5,-137.17 516.67,-141 512.83,-141"/>
<text text-anchor="middle" x="456.5" y="-125.8" font-family="Arial" font-size="14.00" fill="#c6c5fe">src/types/structs.ts</text>
</g>
<!-- src/expressions/grouped&#45;expressions.ts&#45;&gt;src/types/structs.ts -->
<g id="edge21" class="edge">
<title>src/expressions/grouped&#45;expressions.ts&#45;&gt;src/types/structs.ts</title>
<path fill="none" stroke="#757575" d="M424.5,-176.84C424.5,-176.84 424.5,-151.13 424.5,-151.13"/>
<polygon fill="#757575" stroke="#757575" points="428,-151.13 424.5,-141.13 421,-151.13 428,-151.13"/>
</g>
<!-- src/utils/identifier&#45;utils.ts -->
<g id="node19" class="node">
<title>src/utils/identifier&#45;utils.ts</title>
<path fill="none" stroke="#cfffac" d="M1391.83,-82C1391.83,-82 1247.17,-82 1247.17,-82 1243.33,-82 1239.5,-78.17 1239.5,-74.33 1239.5,-74.33 1239.5,-66.67 1239.5,-66.67 1239.5,-62.83 1243.33,-59 1247.17,-59 1247.17,-59 1391.83,-59 1391.83,-59 1395.67,-59 1399.5,-62.83 1399.5,-66.67 1399.5,-66.67 1399.5,-74.33 1399.5,-74.33 1399.5,-78.17 1395.67,-82 1391.83,-82"/>
<text text-anchor="middle" x="1319.5" y="-66.8" font-family="Arial" font-size="14.00" fill="#cfffac">src/utils/identifier&#45;utils.ts</text>
</g>
<!-- src/expressions/grouped&#45;expressions.ts&#45;&gt;src/utils/identifier&#45;utils.ts -->
<g id="edge22" class="edge">
<title>src/expressions/grouped&#45;expressions.ts&#45;&gt;src/utils/identifier&#45;utils.ts</title>
<path fill="none" stroke="#757575" d="M565.59,-180C740.12,-180 1032.62,-180 1032.62,-180 1032.62,-180 1032.62,-70 1032.62,-70 1032.62,-70 1229.21,-70 1229.21,-70"/>
<polygon fill="#757575" stroke="#757575" points="1229.21,-73.5 1239.21,-70 1229.21,-66.5 1229.21,-73.5"/>
</g>
<!-- src/handlers/dereference&#45;assignment.ts&#45;&gt;src/expressions/handlers.ts -->
<g id="edge38" class="edge">
<title>src/handlers/dereference&#45;assignment.ts&#45;&gt;src/expressions/handlers.ts</title>
<path fill="none" stroke="#757575" d="M1037.25,-294.97C1037.25,-239.54 1037.25,-3 1037.25,-3 1037.25,-3 694.63,-3 694.63,-3"/>
<polygon fill="#757575" stroke="#757575" points="694.63,0.5 684.63,-3 694.63,-6.5 694.63,0.5"/>
</g>
<!-- src/handlers/dereference&#45;assignment.ts&#45;&gt;src/handlers/pointer&#45;operations.ts -->
<g id="edge39" class="edge">
<title>src/handlers/dereference&#45;assignment.ts&#45;&gt;src/handlers/pointer&#45;operations.ts</title>
<path fill="none" stroke="#757575" d="M1085.75,-294.84C1085.75,-294.84 1085.75,-269.13 1085.75,-269.13"/>
<polygon fill="#757575" stroke="#757575" points="1089.25,-269.13 1085.75,-259.13 1082.25,-269.13 1089.25,-269.13"/>
</g>
<!-- src/functions.ts -->
<g id="node24" class="node">
<title>src/functions.ts</title>
<path fill="none" stroke="#c6c5fe" d="M1340.33,-200C1340.33,-200 1248.67,-200 1248.67,-200 1244.83,-200 1241,-196.17 1241,-192.33 1241,-192.33 1241,-184.67 1241,-184.67 1241,-180.83 1244.83,-177 1248.67,-177 1248.67,-177 1340.33,-177 1340.33,-177 1344.17,-177 1348,-180.83 1348,-184.67 1348,-184.67 1348,-192.33 1348,-192.33 1348,-196.17 1344.17,-200 1340.33,-200"/>
<text text-anchor="middle" x="1294.5" y="-184.8" font-family="Arial" font-size="14.00" fill="#c6c5fe">src/functions.ts</text>
</g>
<!-- src/handlers/lambda&#45;expressions.ts&#45;&gt;src/functions.ts -->
<g id="edge44" class="edge">
<title>src/handlers/lambda&#45;expressions.ts&#45;&gt;src/functions.ts</title>
<path fill="none" stroke="#757575" d="M1341.25,-235.84C1341.25,-235.84 1341.25,-210.13 1341.25,-210.13"/>
<polygon fill="#757575" stroke="#757575" points="1344.75,-210.13 1341.25,-200.13 1337.75,-210.13 1344.75,-210.13"/>
</g>
<!-- src/handlers/anonymous&#45;functions.ts -->
<g id="node25" class="node">
<title>src/handlers/anonymous&#45;functions.ts</title>
<path fill="none" stroke="#c6c5fe" d="M1634.33,-141C1634.33,-141 1412.67,-141 1412.67,-141 1408.83,-141 1405,-137.17 1405,-133.33 1405,-133.33 1405,-125.67 1405,-125.67 1405,-121.83 1408.83,-118 1412.67,-118 1412.67,-118 1634.33,-118 1634.33,-118 1638.17,-118 1642,-121.83 1642,-125.67 1642,-125.67 1642,-133.33 1642,-133.33 1642,-137.17 1638.17,-141 1634.33,-141"/>
<text text-anchor="middle" x="1523.5" y="-125.8" font-family="Arial" font-size="14.00" fill="#c6c5fe">src/handlers/anonymous&#45;functions.ts</text>
</g>
<!-- src/handlers/lambda&#45;expressions.ts&#45;&gt;src/handlers/anonymous&#45;functions.ts -->
<g id="edge45" class="edge">
<title>src/handlers/lambda&#45;expressions.ts&#45;&gt;src/handlers/anonymous&#45;functions.ts</title>
<path fill="none" stroke="#757575" d="M1484.75,-235.75C1484.75,-235.75 1484.75,-151.2 1484.75,-151.2"/>
<polygon fill="#757575" stroke="#757575" points="1488.25,-151.2 1484.75,-141.2 1481.25,-151.2 1488.25,-151.2"/>
</g>
<!-- src/handlers/pointer&#45;operations.ts&#45;&gt;src/utils/identifier&#45;utils.ts -->
<g id="edge49" class="edge">
<title>src/handlers/pointer&#45;operations.ts&#45;&gt;src/utils/identifier&#45;utils.ts</title>
<path fill="none" stroke="#757575" d="M1259.5,-235.72C1259.5,-223.45 1259.5,-206 1259.5,-206 1259.5,-206 1365.17,-206 1365.17,-206 1365.17,-206 1365.17,-92.05 1365.17,-92.05"/>
<polygon fill="#757575" stroke="#757575" points="1368.67,-92.05 1365.17,-82.05 1361.67,-92.05 1368.67,-92.05"/>
</g>
<!-- src/loops/for.ts&#45;&gt;src/loops/loop.ts -->
<g id="edge51" class="edge">
<title>src/loops/for.ts&#45;&gt;src/loops/loop.ts</title>
<path fill="none" stroke="#757575" d="M198.67,-294.88C198.67,-284.52 198.67,-271 198.67,-271 198.67,-271 315.67,-271 315.67,-271 315.67,-271 315.67,-269.25 315.67,-269.25"/>
<polygon fill="#757575" stroke="#757575" points="319.17,-269.25 315.67,-259.25 312.17,-269.25 319.17,-269.25"/>
</g>
<!-- src/loops/helpers.ts -->
<g id="node30" class="node">
<title>src/loops/helpers.ts</title>
<path fill="none" stroke="#cfffac" d="M264.33,-259C264.33,-259 146.67,-259 146.67,-259 142.83,-259 139,-255.17 139,-251.33 139,-251.33 139,-243.67 139,-243.67 139,-239.83 142.83,-236 146.67,-236 146.67,-236 264.33,-236 264.33,-236 268.17,-236 272,-239.83 272,-243.67 272,-243.67 272,-251.33 272,-251.33 272,-255.17 268.17,-259 264.33,-259"/>
<text text-anchor="middle" x="205.5" y="-243.8" font-family="Arial" font-size="14.00" fill="#cfffac">src/loops/helpers.ts</text>
</g>
<!-- src/loops/for.ts&#45;&gt;src/loops/helpers.ts -->
<g id="edge50" class="edge">
<title>src/loops/for.ts&#45;&gt;src/loops/helpers.ts</title>
<path fill="none" stroke="#757575" d="M168.83,-294.84C168.83,-294.84 168.83,-269.13 168.83,-269.13"/>
<polygon fill="#757575" stroke="#757575" points="172.33,-269.13 168.83,-259.13 165.33,-269.13 172.33,-269.13"/>
</g>
<!-- src/loops/types.ts -->
<g id="node31" class="node">
<title>src/loops/types.ts</title>
<path fill="none" stroke="#c6c5fe" d="M113.33,-259C113.33,-259 7.67,-259 7.67,-259 3.83,-259 0,-255.17 0,-251.33 0,-251.33 0,-243.67 0,-243.67 0,-239.83 3.83,-236 7.67,-236 7.67,-236 113.33,-236 113.33,-236 117.17,-236 121,-239.83 121,-243.67 121,-243.67 121,-251.33 121,-251.33 121,-255.17 117.17,-259 113.33,-259"/>
<text text-anchor="middle" x="60.5" y="-243.8" font-family="Arial" font-size="14.00" fill="#c6c5fe">src/loops/types.ts</text>
</g>
<!-- src/loops/for.ts&#45;&gt;src/loops/types.ts -->
<g id="edge52" class="edge">
<title>src/loops/for.ts&#45;&gt;src/loops/types.ts</title>
<path fill="none" stroke="#757575" d="M131.75,-294.74C131.75,-277.4 131.75,-247 131.75,-247 131.75,-247 130.7,-247 130.7,-247"/>
<polygon fill="#757575" stroke="#757575" points="131.24,-243.5 121.24,-247 131.24,-250.5 131.24,-243.5"/>
</g>
<!-- src/loops/while.ts&#45;&gt;src/loops/loop.ts -->
<g id="edge55" class="edge">
<title>src/loops/while.ts&#45;&gt;src/loops/loop.ts</title>
<path fill="none" stroke="#757575" d="M340.83,-294.84C340.83,-294.84 340.83,-269.13 340.83,-269.13"/>
<polygon fill="#757575" stroke="#757575" points="344.33,-269.13 340.83,-259.13 337.33,-269.13 344.33,-269.13"/>
</g>
<!-- src/loops/while.ts&#45;&gt;src/loops/helpers.ts -->
<g id="edge54" class="edge">
<title>src/loops/while.ts&#45;&gt;src/loops/helpers.ts</title>
<path fill="none" stroke="#757575" d="M263.67,-294.84C263.67,-294.84 263.67,-269.13 263.67,-269.13"/>
<polygon fill="#757575" stroke="#757575" points="267.17,-269.13 263.67,-259.13 260.17,-269.13 267.17,-269.13"/>
</g>
<!-- src/loops/while.ts&#45;&gt;src/loops/types.ts -->
<g id="edge56" class="edge">
<title>src/loops/while.ts&#45;&gt;src/loops/types.ts</title>
<path fill="none" stroke="#757575" d="M255.33,-294.75C255.33,-288.88 255.33,-283 255.33,-283 255.33,-283 60.5,-283 60.5,-283 60.5,-283 60.5,-269.12 60.5,-269.12"/>
<polygon fill="#757575" stroke="#757575" points="64,-269.12 60.5,-259.12 57,-269.12 64,-269.12"/>
</g>
<!-- src/type&#45;utils.ts -->
<g id="node22" class="node">
<title>src/type&#45;utils.ts</title>
<path fill="none" stroke="#cfffac" d="M1796.33,-23C1796.33,-23 1704.67,-23 1704.67,-23 1700.83,-23 1697,-19.17 1697,-15.33 1697,-15.33 1697,-7.67 1697,-7.67 1697,-3.83 1700.83,0 1704.67,0 1704.67,0 1796.33,0 1796.33,0 1800.17,0 1804,-3.83 1804,-7.67 1804,-7.67 1804,-15.33 1804,-15.33 1804,-19.17 1800.17,-23 1796.33,-23"/>
<text text-anchor="middle" x="1750.5" y="-7.8" font-family="Arial" font-size="14.00" fill="#cfffac">src/type&#45;utils.ts</text>
</g>
<!-- src/parser.ts&#45;&gt;src/type&#45;utils.ts -->
<g id="edge57" class="edge">
<title>src/parser.ts&#45;&gt;src/type&#45;utils.ts</title>
<path fill="none" stroke="#757575" d="M2243.5,-117.75C2243.5,-87.09 2243.5,-7 2243.5,-7 2243.5,-7 1814.2,-7 1814.2,-7"/>
<polygon fill="#757575" stroke="#757575" points="1814.2,-3.5 1804.2,-7 1814.2,-10.5 1814.2,-3.5"/>
</g>
<!-- src/scope.ts&#45;&gt;src/expressions/handlers.ts -->
<g id="edge58" class="edge">
<title>src/scope.ts&#45;&gt;src/expressions/handlers.ts</title>
<path fill="none" stroke="#757575" d="M1612.6,-294.93C1612.6,-270.94 1612.6,-218 1612.6,-218 1612.6,-218 572.4,-218 572.4,-218 572.4,-218 572.4,-33.19 572.4,-33.19"/>
<polygon fill="#757575" stroke="#757575" points="575.9,-33.19 572.4,-23.19 568.9,-33.19 575.9,-33.19"/>
</g>
<!-- src/scope.ts&#45;&gt;src/handlers/lambda&#45;expressions.ts -->
<g id="edge61" class="edge">
<title>src/scope.ts&#45;&gt;src/handlers/lambda&#45;expressions.ts</title>
<path fill="none" stroke="#757575" d="M1609.8,-294.74C1609.8,-277.4 1609.8,-247 1609.8,-247 1609.8,-247 1574.72,-247 1574.72,-247"/>
<polygon fill="#757575" stroke="#757575" points="1574.72,-243.5 1564.72,-247 1574.72,-250.5 1574.72,-243.5"/>
</g>
<!-- src/scope.ts&#45;&gt;src/parser.ts -->
<g id="edge62" class="edge">
<title>src/scope.ts&#45;&gt;src/parser.ts</title>
<path fill="none" stroke="#757575" d="M1696.18,-310C1835.46,-310 2252.5,-310 2252.5,-310 2252.5,-310 2252.5,-151.07 2252.5,-151.07"/>
<polygon fill="#757575" stroke="#757575" points="2256,-151.07 2252.5,-141.07 2249,-151.07 2256,-151.07"/>
</g>
<!-- src/function&#45;type&#45;handler.ts -->
<g id="node23" class="node">
<title>src/function&#45;type&#45;handler.ts</title>
<path fill="none" stroke="#c6c5fe" d="M1792.33,-259C1792.33,-259 1628.67,-259 1628.67,-259 1624.83,-259 1621,-255.17 1621,-251.33 1621,-251.33 1621,-243.67 1621,-243.67 1621,-239.83 1624.83,-236 1628.67,-236 1628.67,-236 1792.33,-236 1792.33,-236 1796.17,-236 1800,-239.83 1800,-243.67 1800,-243.67 1800,-251.33 1800,-251.33 1800,-255.17 1796.17,-259 1792.33,-259"/>
<text text-anchor="middle" x="1710.5" y="-243.8" font-family="Arial" font-size="14.00" fill="#c6c5fe">src/function&#45;type&#45;handler.ts</text>
</g>
<!-- src/scope.ts&#45;&gt;src/function&#45;type&#45;handler.ts -->
<g id="edge59" class="edge">
<title>src/scope.ts&#45;&gt;src/function&#45;type&#45;handler.ts</title>
<path fill="none" stroke="#757575" d="M1658.5,-294.84C1658.5,-294.84 1658.5,-269.13 1658.5,-269.13"/>
<polygon fill="#757575" stroke="#757575" points="1662,-269.13 1658.5,-259.13 1655,-269.13 1662,-269.13"/>
</g>
<!-- src/scope.ts&#45;&gt;src/functions.ts -->
<g id="edge60" class="edge">
<title>src/scope.ts&#45;&gt;src/functions.ts</title>
<path fill="none" stroke="#757575" d="M1615.4,-294.67C1615.4,-266.17 1615.4,-196 1615.4,-196 1615.4,-196 1358.21,-196 1358.21,-196"/>
<polygon fill="#757575" stroke="#757575" points="1358.21,-192.5 1348.21,-196 1358.21,-199.5 1358.21,-192.5"/>
</g>
<!-- src/utils/function&#45;utils.ts -->
<g id="node28" class="node">
<title>src/utils/function&#45;utils.ts</title>
<path fill="none" stroke="#c6c5fe" d="M1710.83,-82C1710.83,-82 1570.17,-82 1570.17,-82 1566.33,-82 1562.5,-78.17 1562.5,-74.33 1562.5,-74.33 1562.5,-66.67 1562.5,-66.67 1562.5,-62.83 1566.33,-59 1570.17,-59 1570.17,-59 1710.83,-59 1710.83,-59 1714.67,-59 1718.5,-62.83 1718.5,-66.67 1718.5,-66.67 1718.5,-74.33 1718.5,-74.33 1718.5,-78.17 1714.67,-82 1710.83,-82"/>
<text text-anchor="middle" x="1640.5" y="-66.8" font-family="Arial" font-size="14.00" fill="#c6c5fe">src/utils/function&#45;utils.ts</text>
</g>
<!-- src/scope.ts&#45;&gt;src/utils/function&#45;utils.ts -->
<g id="edge63" class="edge">
<title>src/scope.ts&#45;&gt;src/utils/function&#45;utils.ts</title>
<path fill="none" stroke="#757575" d="M1618.2,-294.95C1618.2,-264.79 1618.2,-186 1618.2,-186 1618.2,-186 1680.25,-186 1680.25,-186 1680.25,-186 1680.25,-92.43 1680.25,-92.43"/>
<polygon fill="#757575" stroke="#757575" points="1683.75,-92.43 1680.25,-82.43 1676.75,-92.43 1683.75,-92.43"/>
</g>
<!-- src/utils/scope&#45;helpers.ts -->
<g id="node32" class="node">
<title>src/utils/scope&#45;helpers.ts</title>
<path fill="none" stroke="#c6c5fe" d="M1970.33,-200C1970.33,-200 1820.67,-200 1820.67,-200 1816.83,-200 1813,-196.17 1813,-192.33 1813,-192.33 1813,-184.67 1813,-184.67 1813,-180.83 1816.83,-177 1820.67,-177 1820.67,-177 1970.33,-177 1970.33,-177 1974.17,-177 1978,-180.83 1978,-184.67 1978,-184.67 1978,-192.33 1978,-192.33 1978,-196.17 1974.17,-200 1970.33,-200"/>
<text text-anchor="middle" x="1895.5" y="-184.8" font-family="Arial" font-size="14.00" fill="#c6c5fe">src/utils/scope&#45;helpers.ts</text>
</g>
<!-- src/scope.ts&#45;&gt;src/utils/scope&#45;helpers.ts -->
<g id="edge64" class="edge">
<title>src/scope.ts&#45;&gt;src/utils/scope&#45;helpers.ts</title>
<path fill="none" stroke="#757575" d="M1696.07,-302C1762.88,-302 1881.25,-302 1881.25,-302 1881.25,-302 1881.25,-210.22 1881.25,-210.22"/>
<polygon fill="#757575" stroke="#757575" points="1884.75,-210.22 1881.25,-200.22 1877.75,-210.22 1884.75,-210.22"/>
</g>
<!-- src/utils/app&#45;handlers.ts&#45;&gt;src/types/structs.ts -->
<g id="edge71" class="edge">
<title>src/utils/app&#45;handlers.ts&#45;&gt;src/types/structs.ts</title>
<path fill="none" stroke="#757575" d="M708.67,-294.93C708.67,-260.15 708.67,-159 708.67,-159 708.67,-159 456.5,-159 456.5,-159 456.5,-159 456.5,-151.16 456.5,-151.16"/>
<polygon fill="#757575" stroke="#757575" points="460,-151.16 456.5,-141.16 453,-151.16 460,-151.16"/>
</g>
<!-- src/utils/app&#45;handlers.ts&#45;&gt;src/functions.ts -->
<g id="edge69" class="edge">
<title>src/utils/app&#45;handlers.ts&#45;&gt;src/functions.ts</title>
<path fill="none" stroke="#757575" d="M810.75,-294.78C810.75,-265.78 810.75,-193 810.75,-193 810.75,-193 1230.88,-193 1230.88,-193"/>
<polygon fill="#757575" stroke="#757575" points="1230.88,-196.5 1240.88,-193 1230.88,-189.5 1230.88,-196.5"/>
</g>
<!-- src/utils/function&#45;call&#45;params.ts -->
<g id="node27" class="node">
<title>src/utils/function&#45;call&#45;params.ts</title>
<path fill="none" stroke="#c6c5fe" d="M1020.33,-141C1020.33,-141 832.67,-141 832.67,-141 828.83,-141 825,-137.17 825,-133.33 825,-133.33 825,-125.67 825,-125.67 825,-121.83 828.83,-118 832.67,-118 832.67,-118 1020.33,-118 1020.33,-118 1024.17,-118 1028,-121.83 1028,-125.67 1028,-125.67 1028,-133.33 1028,-133.33 1028,-137.17 1024.17,-141 1020.33,-141"/>
<text text-anchor="middle" x="926.5" y="-125.8" font-family="Arial" font-size="14.00" fill="#c6c5fe">src/utils/function&#45;call&#45;params.ts</text>
</g>
<!-- src/utils/app&#45;handlers.ts&#45;&gt;src/utils/function&#45;call&#45;params.ts -->
<g id="edge73" class="edge">
<title>src/utils/app&#45;handlers.ts&#45;&gt;src/utils/function&#45;call&#45;params.ts</title>
<path fill="none" stroke="#757575" d="M796.5,-294.85C796.5,-255.36 796.5,-129 796.5,-129 796.5,-129 814.71,-129 814.71,-129"/>
<polygon fill="#757575" stroke="#757575" points="814.71,-132.5 824.71,-129 814.71,-125.5 814.71,-132.5"/>
</g>
<!-- src/handlers/method&#45;call.ts -->
<g id="node29" class="node">
<title>src/handlers/method&#45;call.ts</title>
<path fill="none" stroke="#c6c5fe" d="M996.33,-259C996.33,-259 832.67,-259 832.67,-259 828.83,-259 825,-255.17 825,-251.33 825,-251.33 825,-243.67 825,-243.67 825,-239.83 828.83,-236 832.67,-236 832.67,-236 996.33,-236 996.33,-236 1000.17,-236 1004,-239.83 1004,-243.67 1004,-243.67 1004,-251.33 1004,-251.33 1004,-255.17 1000.17,-259 996.33,-259"/>
<text text-anchor="middle" x="914.5" y="-243.8" font-family="Arial" font-size="14.00" fill="#c6c5fe">src/handlers/method&#45;call.ts</text>
</g>
<!-- src/utils/app&#45;handlers.ts&#45;&gt;src/handlers/method&#45;call.ts -->
<g id="edge70" class="edge">
<title>src/utils/app&#45;handlers.ts&#45;&gt;src/handlers/method&#45;call.ts</title>
<path fill="none" stroke="#757575" d="M831.5,-294.84C831.5,-294.84 831.5,-269.13 831.5,-269.13"/>
<polygon fill="#757575" stroke="#757575" points="835,-269.13 831.5,-259.13 828,-269.13 835,-269.13"/>
</g>
<!-- src/types/type&#45;declarations.ts -->
<g id="node33" class="node">
<title>src/types/type&#45;declarations.ts</title>
<path fill="none" stroke="#c6c5fe" d="M760.33,-141C760.33,-141 584.67,-141 584.67,-141 580.83,-141 577,-137.17 577,-133.33 577,-133.33 577,-125.67 577,-125.67 577,-121.83 580.83,-118 584.67,-118 584.67,-118 760.33,-118 760.33,-118 764.17,-118 768,-121.83 768,-125.67 768,-125.67 768,-133.33 768,-133.33 768,-137.17 764.17,-141 760.33,-141"/>
<text text-anchor="middle" x="672.5" y="-125.8" font-family="Arial" font-size="14.00" fill="#c6c5fe">src/types/type&#45;declarations.ts</text>
</g>
<!-- src/utils/app&#45;handlers.ts&#45;&gt;src/types/type&#45;declarations.ts -->
<g id="edge72" class="edge">
<title>src/utils/app&#45;handlers.ts&#45;&gt;src/types/type&#45;declarations.ts</title>
<path fill="none" stroke="#757575" d="M738.33,-294.89C738.33,-294.89 738.33,-151.39 738.33,-151.39"/>
<polygon fill="#757575" stroke="#757575" points="741.83,-151.39 738.33,-141.39 734.83,-151.39 741.83,-151.39"/>
</g>
<!-- src/utils/this&#45;keyword.ts&#45;&gt;src/types/structs.ts -->
<g id="edge81" class="edge">
<title>src/utils/this&#45;keyword.ts&#45;&gt;src/types/structs.ts</title>
<path fill="none" stroke="#757575" d="M567.8,-235.7C567.8,-205.73 567.8,-129 567.8,-129 567.8,-129 530.6,-129 530.6,-129"/>
<polygon fill="#757575" stroke="#757575" points="530.6,-125.5 520.6,-129 530.6,-132.5 530.6,-125.5"/>
</g>
<!-- src/utils/this&#45;keyword.ts&#45;&gt;src/functions.ts -->
<g id="edge80" class="edge">
<title>src/utils/this&#45;keyword.ts&#45;&gt;src/functions.ts</title>
<path fill="none" stroke="#757575" d="M615.75,-235.86C615.75,-219.06 615.75,-190 615.75,-190 615.75,-190 1230.96,-190 1230.96,-190"/>
<polygon fill="#757575" stroke="#757575" points="1230.96,-193.5 1240.96,-190 1230.96,-186.5 1230.96,-193.5"/>
</g>
<!-- src/declarations.ts -->
<g id="node16" class="node">
<title>src/declarations.ts</title>
<path fill="none" stroke="#c6c5fe" d="M711.33,-82C711.33,-82 601.67,-82 601.67,-82 597.83,-82 594,-78.17 594,-74.33 594,-74.33 594,-66.67 594,-66.67 594,-62.83 597.83,-59 601.67,-59 601.67,-59 711.33,-59 711.33,-59 715.17,-59 719,-62.83 719,-66.67 719,-66.67 719,-74.33 719,-74.33 719,-78.17 715.17,-82 711.33,-82"/>
<text text-anchor="middle" x="656.5" y="-66.8" font-family="Arial" font-size="14.00" fill="#c6c5fe">src/declarations.ts</text>
</g>
<!-- src/declarations.ts&#45;&gt;src/expressions/handlers.ts -->
<g id="edge15" class="edge">
<title>src/declarations.ts&#45;&gt;src/expressions/handlers.ts</title>
<path fill="none" stroke="#757575" d="M639.25,-58.84C639.25,-58.84 639.25,-33.13 639.25,-33.13"/>
<polygon fill="#757575" stroke="#757575" points="642.75,-33.13 639.25,-23.13 635.75,-33.13 642.75,-33.13"/>
</g>
<!-- src/expressions/operators.ts&#45;&gt;src/parser.ts -->
<g id="edge25" class="edge">
<title>src/expressions/operators.ts&#45;&gt;src/parser.ts</title>
<path fill="none" stroke="#757575" d="M2168.17,-176.74C2168.17,-159.4 2168.17,-129 2168.17,-129 2168.17,-129 2188.37,-129 2188.37,-129"/>
<polygon fill="#757575" stroke="#757575" points="2188.37,-132.5 2198.37,-129 2188.37,-125.5 2188.37,-132.5"/>
</g>
<!-- src/expressions/operators.ts&#45;&gt;src/types/structs.ts -->
<g id="edge27" class="edge">
<title>src/expressions/operators.ts&#45;&gt;src/types/structs.ts</title>
<path fill="none" stroke="#757575" d="M2044.83,-176.74C2044.83,-165.42 2044.83,-150 2044.83,-150 2044.83,-150 488.5,-150 488.5,-150 488.5,-150 488.5,-149.12 488.5,-149.12"/>
<polygon fill="#757575" stroke="#757575" points="492,-151.19 488.5,-141.19 485,-151.19 492,-151.19"/>
</g>
<!-- src/expressions/operator&#45;finder.ts -->
<g id="node20" class="node">
<title>src/expressions/operator&#45;finder.ts</title>
<path fill="none" stroke="#c6c5fe" d="M2134.83,-141C2134.83,-141 1934.17,-141 1934.17,-141 1930.33,-141 1926.5,-137.17 1926.5,-133.33 1926.5,-133.33 1926.5,-125.67 1926.5,-125.67 1926.5,-121.83 1930.33,-118 1934.17,-118 1934.17,-118 2134.83,-118 2134.83,-118 2138.67,-118 2142.5,-121.83 2142.5,-125.67 2142.5,-125.67 2142.5,-133.33 2142.5,-133.33 2142.5,-137.17 2138.67,-141 2134.83,-141"/>
<text text-anchor="middle" x="2034.5" y="-125.8" font-family="Arial" font-size="14.00" fill="#c6c5fe">src/expressions/operator&#45;finder.ts</text>
</g>
<!-- src/expressions/operators.ts&#45;&gt;src/expressions/operator&#45;finder.ts -->
<g id="edge24" class="edge">
<title>src/expressions/operators.ts&#45;&gt;src/expressions/operator&#45;finder.ts</title>
<path fill="none" stroke="#757575" d="M2093.67,-176.84C2093.67,-176.84 2093.67,-151.13 2093.67,-151.13"/>
<polygon fill="#757575" stroke="#757575" points="2097.17,-151.13 2093.67,-141.13 2090.17,-151.13 2097.17,-151.13"/>
</g>
<!-- src/expressions/operators.ts&#45;&gt;src/type&#45;utils.ts -->
<g id="edge26" class="edge">
<title>src/expressions/operators.ts&#45;&gt;src/type&#45;utils.ts</title>
<path fill="none" stroke="#757575" d="M2155.33,-176.85C2155.33,-137.95 2155.33,-15 2155.33,-15 2155.33,-15 1814.26,-15 1814.26,-15"/>
<polygon fill="#757575" stroke="#757575" points="1814.26,-11.5 1804.26,-15 1814.26,-18.5 1814.26,-11.5"/>
</g>
<!-- src/types/structs.ts&#45;&gt;src/expressions/handlers.ts -->
<g id="edge66" class="edge">
<title>src/types/structs.ts&#45;&gt;src/expressions/handlers.ts</title>
<path fill="none" stroke="#757575" d="M509.83,-117.75C509.83,-117.75 509.83,-33.2 509.83,-33.2"/>
<polygon fill="#757575" stroke="#757575" points="513.33,-33.2 509.83,-23.2 506.33,-33.2 513.33,-33.2"/>
</g>
<!-- src/types/structs.ts&#45;&gt;src/declarations.ts -->
<g id="edge65" class="edge">
<title>src/types/structs.ts&#45;&gt;src/declarations.ts</title>
<path fill="none" stroke="#757575" d="M515.17,-117.74C515.17,-100.4 515.17,-70 515.17,-70 515.17,-70 583.69,-70 583.69,-70"/>
<polygon fill="#757575" stroke="#757575" points="583.69,-73.5 593.69,-70 583.69,-66.5 583.69,-73.5"/>
</g>
<!-- src/expressions/operator&#45;utils.ts -->
<g id="node21" class="node">
<title>src/expressions/operator&#45;utils.ts</title>
<path fill="none" stroke="#cfffac" d="M2130.33,-82C2130.33,-82 1938.67,-82 1938.67,-82 1934.83,-82 1931,-78.17 1931,-74.33 1931,-74.33 1931,-66.67 1931,-66.67 1931,-62.83 1934.83,-59 1938.67,-59 1938.67,-59 2130.33,-59 2130.33,-59 2134.17,-59 2138,-62.83 2138,-66.67 2138,-66.67 2138,-74.33 2138,-74.33 2138,-78.17 2134.17,-82 2130.33,-82"/>
<text text-anchor="middle" x="2034.5" y="-66.8" font-family="Arial" font-size="14.00" fill="#cfffac">src/expressions/operator&#45;utils.ts</text>
</g>
<!-- src/expressions/operator&#45;finder.ts&#45;&gt;src/expressions/operator&#45;utils.ts -->
<g id="edge23" class="edge">
<title>src/expressions/operator&#45;finder.ts&#45;&gt;src/expressions/operator&#45;utils.ts</title>
<path fill="none" stroke="#757575" d="M2034.5,-117.84C2034.5,-117.84 2034.5,-92.13 2034.5,-92.13"/>
<polygon fill="#757575" stroke="#757575" points="2038,-92.13 2034.5,-82.13 2031,-92.13 2038,-92.13"/>
</g>
<!-- src/function&#45;type&#45;handler.ts&#45;&gt;src/type&#45;utils.ts -->
<g id="edge29" class="edge">
<title>src/function&#45;type&#45;handler.ts&#45;&gt;src/type&#45;utils.ts</title>
<path fill="none" stroke="#757575" d="M1759.25,-235.8C1759.25,-235.8 1759.25,-33.27 1759.25,-33.27"/>
<polygon fill="#757575" stroke="#757575" points="1762.75,-33.27 1759.25,-23.27 1755.75,-33.27 1762.75,-33.27"/>
</g>
<!-- src/function&#45;type&#45;handler.ts&#45;&gt;src/functions.ts -->
<g id="edge28" class="edge">
<title>src/function&#45;type&#45;handler.ts&#45;&gt;src/functions.ts</title>
<path fill="none" stroke="#757575" d="M1631.5,-235.94C1631.5,-219.94 1631.5,-193 1631.5,-193 1631.5,-193 1358.27,-193 1358.27,-193"/>
<polygon fill="#757575" stroke="#757575" points="1358.27,-189.5 1348.27,-193 1358.27,-196.5 1358.27,-189.5"/>
</g>
<!-- src/functions.ts&#45;&gt;src/utils/identifier&#45;utils.ts -->
<g id="edge34" class="edge">
<title>src/functions.ts&#45;&gt;src/utils/identifier&#45;utils.ts</title>
<path fill="none" stroke="#757575" d="M1297.67,-176.75C1297.67,-176.75 1297.67,-92.2 1297.67,-92.2"/>
<polygon fill="#757575" stroke="#757575" points="1301.17,-92.2 1297.67,-82.2 1294.17,-92.2 1301.17,-92.2"/>
</g>
<!-- src/functions.ts&#45;&gt;src/handlers/anonymous&#45;functions.ts -->
<g id="edge30" class="edge">
<title>src/functions.ts&#45;&gt;src/handlers/anonymous&#45;functions.ts</title>
<path fill="none" stroke="#757575" d="M1322.83,-176.73C1322.83,-160.44 1322.83,-133 1322.83,-133 1322.83,-133 1394.74,-133 1394.74,-133"/>
<polygon fill="#757575" stroke="#757575" points="1394.74,-136.5 1404.74,-133 1394.74,-129.5 1394.74,-136.5"/>
</g>
<!-- src/handlers/function&#45;declaration.ts -->
<g id="node26" class="node">
<title>src/handlers/function&#45;declaration.ts</title>
<path fill="none" stroke="#c6c5fe" d="M1264.83,-141C1264.83,-141 1054.17,-141 1054.17,-141 1050.33,-141 1046.5,-137.17 1046.5,-133.33 1046.5,-133.33 1046.5,-125.67 1046.5,-125.67 1046.5,-121.83 1050.33,-118 1054.17,-118 1054.17,-118 1264.83,-118 1264.83,-118 1268.67,-118 1272.5,-121.83 1272.5,-125.67 1272.5,-125.67 1272.5,-133.33 1272.5,-133.33 1272.5,-137.17 1268.67,-141 1264.83,-141"/>
<text text-anchor="middle" x="1159.5" y="-125.8" font-family="Arial" font-size="14.00" fill="#c6c5fe">src/handlers/function&#45;declaration.ts</text>
</g>
<!-- src/functions.ts&#45;&gt;src/handlers/function&#45;declaration.ts -->
<g id="edge31" class="edge">
<title>src/functions.ts&#45;&gt;src/handlers/function&#45;declaration.ts</title>
<path fill="none" stroke="#757575" d="M1256.75,-176.84C1256.75,-176.84 1256.75,-151.13 1256.75,-151.13"/>
<polygon fill="#757575" stroke="#757575" points="1260.25,-151.13 1256.75,-141.13 1253.25,-151.13 1260.25,-151.13"/>
</g>
<!-- src/functions.ts&#45;&gt;src/utils/function&#45;call&#45;params.ts -->
<g id="edge32" class="edge">
<title>src/functions.ts&#45;&gt;src/utils/function&#45;call&#45;params.ts</title>
<path fill="none" stroke="#757575" d="M1240.8,-186C1159.87,-186 1016,-186 1016,-186 1016,-186 1016,-151.21 1016,-151.21"/>
<polygon fill="#757575" stroke="#757575" points="1019.5,-151.21 1016,-141.21 1012.5,-151.21 1019.5,-151.21"/>
</g>
<!-- src/functions.ts&#45;&gt;src/utils/function&#45;utils.ts -->
<g id="edge33" class="edge">
<title>src/functions.ts&#45;&gt;src/utils/function&#45;utils.ts</title>
<path fill="none" stroke="#757575" d="M1348.2,-183C1450.04,-183 1661.12,-183 1661.12,-183 1661.12,-183 1661.12,-92.12 1661.12,-92.12"/>
<polygon fill="#757575" stroke="#757575" points="1664.63,-92.12 1661.12,-82.12 1657.63,-92.12 1664.63,-92.12"/>
</g>
<!-- src/handlers/anonymous&#45;functions.ts&#45;&gt;src/utils/identifier&#45;utils.ts -->
<g id="edge37" class="edge">
<title>src/handlers/anonymous&#45;functions.ts&#45;&gt;src/utils/identifier&#45;utils.ts</title>
<path fill="none" stroke="#757575" d="M1404.7,-125C1391.29,-125 1382.33,-125 1382.33,-125 1382.33,-125 1382.33,-92.06 1382.33,-92.06"/>
<polygon fill="#757575" stroke="#757575" points="1385.83,-92.06 1382.33,-82.06 1378.83,-92.06 1385.83,-92.06"/>
</g>
<!-- src/handlers/anonymous&#45;functions.ts&#45;&gt;src/type&#45;utils.ts -->
<g id="edge35" class="edge">
<title>src/handlers/anonymous&#45;functions.ts&#45;&gt;src/type&#45;utils.ts</title>
<path fill="none" stroke="#757575" d="M1642.21,-129C1692.14,-129 1738.88,-129 1738.88,-129 1738.88,-129 1738.88,-33.2 1738.88,-33.2"/>
<polygon fill="#757575" stroke="#757575" points="1742.38,-33.2 1738.88,-23.2 1735.38,-33.2 1742.38,-33.2"/>
</g>
<!-- src/handlers/anonymous&#45;functions.ts&#45;&gt;src/utils/function&#45;utils.ts -->
<g id="edge36" class="edge">
<title>src/handlers/anonymous&#45;functions.ts&#45;&gt;src/utils/function&#45;utils.ts</title>
<path fill="none" stroke="#757575" d="M1615.5,-117.84C1615.5,-117.84 1615.5,-92.13 1615.5,-92.13"/>
<polygon fill="#757575" stroke="#757575" points="1619,-92.13 1615.5,-82.13 1612,-92.13 1619,-92.13"/>
</g>
<!-- src/handlers/function&#45;declaration.ts&#45;&gt;src/declarations.ts -->
<g id="edge40" class="edge">
<title>src/handlers/function&#45;declaration.ts&#45;&gt;src/declarations.ts</title>
<path fill="none" stroke="#757575" d="M1110.83,-117.79C1110.83,-98.95 1110.83,-64 1110.83,-64 1110.83,-64 729.2,-64 729.2,-64"/>
<polygon fill="#757575" stroke="#757575" points="729.2,-60.5 719.2,-64 729.2,-67.5 729.2,-60.5"/>
</g>
<!-- src/handlers/function&#45;declaration.ts&#45;&gt;src/utils/identifier&#45;utils.ts -->
<g id="edge43" class="edge">
<title>src/handlers/function&#45;declaration.ts&#45;&gt;src/utils/identifier&#45;utils.ts</title>
<path fill="none" stroke="#757575" d="M1250.5,-117.84C1250.5,-117.84 1250.5,-92.13 1250.5,-92.13"/>
<polygon fill="#757575" stroke="#757575" points="1254,-92.13 1250.5,-82.13 1247,-92.13 1254,-92.13"/>
</g>
<!-- src/handlers/function&#45;declaration.ts&#45;&gt;src/type&#45;utils.ts -->
<g id="edge41" class="edge">
<title>src/handlers/function&#45;declaration.ts&#45;&gt;src/type&#45;utils.ts</title>
<path fill="none" stroke="#757575" d="M1175.17,-117.67C1175.17,-89.17 1175.17,-19 1175.17,-19 1175.17,-19 1686.89,-19 1686.89,-19"/>
<polygon fill="#757575" stroke="#757575" points="1686.89,-22.5 1696.89,-19 1686.89,-15.5 1686.89,-22.5"/>
</g>
<!-- src/handlers/function&#45;declaration.ts&#45;&gt;src/utils/function&#45;utils.ts -->
<g id="edge42" class="edge">
<title>src/handlers/function&#45;declaration.ts&#45;&gt;src/utils/function&#45;utils.ts</title>
<path fill="none" stroke="#757575" d="M1261.5,-117.84C1261.5,-109.6 1261.5,-100 1261.5,-100 1261.5,-100 1589,-100 1589,-100 1589,-100 1589,-92.16 1589,-92.16"/>
<polygon fill="#757575" stroke="#757575" points="1592.5,-92.16 1589,-82.16 1585.5,-92.16 1592.5,-92.16"/>
</g>
<!-- src/utils/function&#45;call&#45;params.ts&#45;&gt;src/expressions/handlers.ts -->
<g id="edge74" class="edge">
<title>src/utils/function&#45;call&#45;params.ts&#45;&gt;src/expressions/handlers.ts</title>
<path fill="none" stroke="#757575" d="M926.5,-117.75C926.5,-87.09 926.5,-7 926.5,-7 926.5,-7 694.78,-7 694.78,-7"/>
<polygon fill="#757575" stroke="#757575" points="694.78,-3.5 684.78,-7 694.78,-10.5 694.78,-3.5"/>
</g>
<!-- src/utils/function&#45;utils.ts&#45;&gt;src/type&#45;utils.ts -->
<g id="edge75" class="edge">
<title>src/utils/function&#45;utils.ts&#45;&gt;src/type&#45;utils.ts</title>
<path fill="none" stroke="#757575" d="M1707.75,-58.84C1707.75,-58.84 1707.75,-33.13 1707.75,-33.13"/>
<polygon fill="#757575" stroke="#757575" points="1711.25,-33.13 1707.75,-23.13 1704.25,-33.13 1711.25,-33.13"/>
</g>
<!-- src/handlers/method&#45;call.ts&#45;&gt;src/expressions/handlers.ts -->
<g id="edge46" class="edge">
<title>src/handlers/method&#45;call.ts&#45;&gt;src/expressions/handlers.ts</title>
<path fill="none" stroke="#757575" d="M824.82,-251C801.24,-251 782.25,-251 782.25,-251 782.25,-251 782.25,-11 782.25,-11 782.25,-11 694.53,-11 694.53,-11"/>
<polygon fill="#757575" stroke="#757575" points="694.53,-7.5 684.53,-11 694.53,-14.5 694.53,-7.5"/>
</g>
<!-- src/handlers/method&#45;call.ts&#45;&gt;src/utils/identifier&#45;utils.ts -->
<g id="edge48" class="edge">
<title>src/handlers/method&#45;call.ts&#45;&gt;src/utils/identifier&#45;utils.ts</title>
<path fill="none" stroke="#757575" d="M1004,-247C1025.25,-247 1041.88,-247 1041.88,-247 1041.88,-247 1041.88,-76 1041.88,-76 1041.88,-76 1229.2,-76 1229.2,-76"/>
<polygon fill="#757575" stroke="#757575" points="1229.2,-79.5 1239.2,-76 1229.2,-72.5 1229.2,-79.5"/>
</g>
<!-- src/handlers/method&#45;call.ts&#45;&gt;src/functions.ts -->
<g id="edge47" class="edge">
<title>src/handlers/method&#45;call.ts&#45;&gt;src/functions.ts</title>
<path fill="none" stroke="#757575" d="M914.5,-235.81C914.5,-220.62 914.5,-196 914.5,-196 914.5,-196 1230.86,-196 1230.86,-196"/>
<polygon fill="#757575" stroke="#757575" points="1230.86,-199.5 1240.86,-196 1230.86,-192.5 1230.86,-199.5"/>
</g>
<!-- src/loops/types.ts&#45;&gt;src/expressions/handlers.ts -->
<g id="edge53" class="edge">
<title>src/loops/types.ts&#45;&gt;src/expressions/handlers.ts</title>
<path fill="none" stroke="#757575" d="M60.5,-235.77C60.5,-188.05 60.5,-11 60.5,-11 60.5,-11 494.22,-11 494.22,-11"/>
<polygon fill="#757575" stroke="#757575" points="494.22,-14.5 504.22,-11 494.22,-7.5 494.22,-14.5"/>
</g>
<!-- src/utils/scope&#45;helpers.ts&#45;&gt;src/parser.ts -->
<g id="edge77" class="edge">
<title>src/utils/scope&#45;helpers.ts&#45;&gt;src/parser.ts</title>
<path fill="none" stroke="#757575" d="M1952.25,-176.81C1952.25,-172.21 1952.25,-168 1952.25,-168 1952.25,-168 2216.5,-168 2216.5,-168 2216.5,-168 2216.5,-151.26 2216.5,-151.26"/>
<polygon fill="#757575" stroke="#757575" points="2220,-151.26 2216.5,-141.26 2213,-151.26 2220,-151.26"/>
</g>
<!-- src/utils/scope&#45;helpers.ts&#45;&gt;src/type&#45;utils.ts -->
<g id="edge78" class="edge">
<title>src/utils/scope&#45;helpers.ts&#45;&gt;src/type&#45;utils.ts</title>
<path fill="none" stroke="#757575" d="M1812.83,-180C1794.11,-180 1779.62,-180 1779.62,-180 1779.62,-180 1779.62,-33.08 1779.62,-33.08"/>
<polygon fill="#757575" stroke="#757575" points="1783.13,-33.08 1779.62,-23.08 1776.13,-33.08 1783.13,-33.08"/>
</g>
<!-- src/utils/scope&#45;helpers.ts&#45;&gt;src/utils/function&#45;utils.ts -->
<g id="edge79" class="edge">
<title>src/utils/scope&#45;helpers.ts&#45;&gt;src/utils/function&#45;utils.ts</title>
<path fill="none" stroke="#757575" d="M1812.89,-190C1759.29,-190 1699.38,-190 1699.38,-190 1699.38,-190 1699.38,-92.4 1699.38,-92.4"/>
<polygon fill="#757575" stroke="#757575" points="1702.88,-92.39 1699.38,-82.4 1695.88,-92.4 1702.88,-92.39"/>
</g>
<!-- src/types/type&#45;declarations.ts&#45;&gt;src/declarations.ts -->
<g id="edge67" class="edge">
<title>src/types/type&#45;declarations.ts&#45;&gt;src/declarations.ts</title>
<path fill="none" stroke="#757575" d="M656.5,-117.84C656.5,-117.84 656.5,-92.13 656.5,-92.13"/>
<polygon fill="#757575" stroke="#757575" points="660,-92.13 656.5,-82.13 653,-92.13 660,-92.13"/>
</g>
<!-- src/types/type&#45;declarations.ts&#45;&gt;src/type&#45;utils.ts -->
<g id="edge68" class="edge">
<title>src/types/type&#45;declarations.ts&#45;&gt;src/type&#45;utils.ts</title>
<path fill="none" stroke="#757575" d="M743.5,-117.68C743.5,-88.42 743.5,-15 743.5,-15 743.5,-15 1686.72,-15 1686.72,-15"/>
<polygon fill="#757575" stroke="#757575" points="1686.72,-18.5 1696.72,-15 1686.72,-11.5 1686.72,-18.5"/>
</g>
<!-- src/utils/interpret.ts -->
<g id="node34" class="node">
<title>src/utils/interpret.ts</title>
<path fill="none" stroke="#c6c5fe" d="M761.83,-436C761.83,-436 647.17,-436 647.17,-436 643.33,-436 639.5,-432.17 639.5,-428.33 639.5,-428.33 639.5,-420.67 639.5,-420.67 639.5,-416.83 643.33,-413 647.17,-413 647.17,-413 761.83,-413 761.83,-413 765.67,-413 769.5,-416.83 769.5,-420.67 769.5,-420.67 769.5,-428.33 769.5,-428.33 769.5,-432.17 765.67,-436 761.83,-436"/>
<text text-anchor="middle" x="704.5" y="-420.8" font-family="Arial" font-size="14.00" fill="#c6c5fe">src/utils/interpret.ts</text>
</g>
<!-- src/utils/interpret.ts&#45;&gt;src/app.ts -->
<g id="edge76" class="edge">
<title>src/utils/interpret.ts&#45;&gt;src/app.ts</title>
<path fill="none" stroke="#757575" d="M704.5,-412.84C704.5,-412.84 704.5,-387.13 704.5,-387.13"/>
<polygon fill="#757575" stroke="#757575" points="708,-387.13 704.5,-377.13 701,-387.13 708,-387.13"/>
</g>
<!-- tests/arithmetic.test.ts -->
<g id="node35" class="node">
<title>tests/arithmetic.test.ts</title>
<path fill="none" stroke="#c6c5fe" d="M431.83,-495C431.83,-495 299.17,-495 299.17,-495 295.33,-495 291.5,-491.17 291.5,-487.33 291.5,-487.33 291.5,-479.67 291.5,-479.67 291.5,-475.83 295.33,-472 299.17,-472 299.17,-472 431.83,-472 431.83,-472 435.67,-472 439.5,-475.83 439.5,-479.67 439.5,-479.67 439.5,-487.33 439.5,-487.33 439.5,-491.17 435.67,-495 431.83,-495"/>
<text text-anchor="middle" x="365.5" y="-479.8" font-family="Arial" font-size="14.00" fill="#c6c5fe">tests/arithmetic.test.ts</text>
</g>
<!-- tests/arithmetic.test.ts&#45;&gt;src/utils/interpret.ts -->
<g id="edge82" class="edge">
<title>tests/arithmetic.test.ts&#45;&gt;src/utils/interpret.ts</title>
<path fill="none" stroke="#757575" d="M422,-471.85C422,-453.52 422,-420 422,-420 422,-420 629.33,-420 629.33,-420"/>
<polygon fill="#757575" stroke="#757575" points="629.33,-423.5 639.33,-420 629.33,-416.5 629.33,-423.5"/>
</g>
<!-- tests/control&#45;flow.test.ts -->
<g id="node36" class="node">
<title>tests/control&#45;flow.test.ts</title>
<path fill="none" stroke="#c6c5fe" d="M607.33,-495C607.33,-495 465.67,-495 465.67,-495 461.83,-495 458,-491.17 458,-487.33 458,-487.33 458,-479.67 458,-479.67 458,-475.83 461.83,-472 465.67,-472 465.67,-472 607.33,-472 607.33,-472 611.17,-472 615,-475.83 615,-479.67 615,-479.67 615,-487.33 615,-487.33 615,-491.17 611.17,-495 607.33,-495"/>
<text text-anchor="middle" x="536.5" y="-479.8" font-family="Arial" font-size="14.00" fill="#c6c5fe">tests/control&#45;flow.test.ts</text>
</g>
<!-- tests/control&#45;flow.test.ts&#45;&gt;src/utils/interpret.ts -->
<g id="edge83" class="edge">
<title>tests/control&#45;flow.test.ts&#45;&gt;src/utils/interpret.ts</title>
<path fill="none" stroke="#757575" d="M556.75,-471.73C556.75,-455.44 556.75,-428 556.75,-428 556.75,-428 629.26,-428 629.26,-428"/>
<polygon fill="#757575" stroke="#757575" points="629.26,-431.5 639.26,-428 629.26,-424.5 629.26,-431.5"/>
</g>
<!-- tests/functions.test.ts -->
<g id="node37" class="node">
<title>tests/functions.test.ts</title>
<path fill="none" stroke="#c6c5fe" d="M768.33,-495C768.33,-495 640.67,-495 640.67,-495 636.83,-495 633,-491.17 633,-487.33 633,-487.33 633,-479.67 633,-479.67 633,-475.83 636.83,-472 640.67,-472 640.67,-472 768.33,-472 768.33,-472 772.17,-472 776,-475.83 776,-479.67 776,-479.67 776,-487.33 776,-487.33 776,-491.17 772.17,-495 768.33,-495"/>
<text text-anchor="middle" x="704.5" y="-479.8" font-family="Arial" font-size="14.00" fill="#c6c5fe">tests/functions.test.ts</text>
</g>
<!-- tests/functions.test.ts&#45;&gt;src/utils/interpret.ts -->
<g id="edge84" class="edge">
<title>tests/functions.test.ts&#45;&gt;src/utils/interpret.ts</title>
<path fill="none" stroke="#757575" d="M704.5,-471.84C704.5,-471.84 704.5,-446.13 704.5,-446.13"/>
<polygon fill="#757575" stroke="#757575" points="708,-446.13 704.5,-436.13 701,-446.13 708,-446.13"/>
</g>
<!-- tests/types.test.ts -->
<g id="node38" class="node">
<title>tests/types.test.ts</title>
<path fill="none" stroke="#c6c5fe" d="M907.33,-495C907.33,-495 801.67,-495 801.67,-495 797.83,-495 794,-491.17 794,-487.33 794,-487.33 794,-479.67 794,-479.67 794,-475.83 797.83,-472 801.67,-472 801.67,-472 907.33,-472 907.33,-472 911.17,-472 915,-475.83 915,-479.67 915,-479.67 915,-487.33 915,-487.33 915,-491.17 911.17,-495 907.33,-495"/>
<text text-anchor="middle" x="854.5" y="-479.8" font-family="Arial" font-size="14.00" fill="#c6c5fe">tests/types.test.ts</text>
</g>
<!-- tests/types.test.ts&#45;&gt;src/utils/interpret.ts -->
<g id="edge85" class="edge">
<title>tests/types.test.ts&#45;&gt;src/utils/interpret.ts</title>
<path fill="none" stroke="#757575" d="M816,-471.73C816,-455.44 816,-428 816,-428 816,-428 779.68,-428 779.68,-428"/>
<polygon fill="#757575" stroke="#757575" points="779.68,-424.5 769.68,-428 779.68,-431.5 779.68,-424.5"/>
</g>
<!-- tests/variables.test.ts -->
<g id="node39" class="node">
<title>tests/variables.test.ts</title>
<path fill="none" stroke="#c6c5fe" d="M1068.33,-495C1068.33,-495 940.67,-495 940.67,-495 936.83,-495 933,-491.17 933,-487.33 933,-487.33 933,-479.67 933,-479.67 933,-475.83 936.83,-472 940.67,-472 940.67,-472 1068.33,-472 1068.33,-472 1072.17,-472 1076,-475.83 1076,-479.67 1076,-479.67 1076,-487.33 1076,-487.33 1076,-491.17 1072.17,-495 1068.33,-495"/>
<text text-anchor="middle" x="1004.5" y="-479.8" font-family="Arial" font-size="14.00" fill="#c6c5fe">tests/variables.test.ts</text>
</g>
<!-- tests/variables.test.ts&#45;&gt;src/utils/interpret.ts -->
<g id="edge86" class="edge">
<title>tests/variables.test.ts&#45;&gt;src/utils/interpret.ts</title>
<path fill="none" stroke="#757575" d="M1004.5,-471.85C1004.5,-453.52 1004.5,-420 1004.5,-420 1004.5,-420 779.6,-420 779.6,-420"/>
<polygon fill="#757575" stroke="#757575" points="779.6,-416.5 769.6,-420 779.6,-423.5 779.6,-416.5"/>
</g>
</g>
</svg>
