<?xml version="1.0" encoding="UTF-8" standalone="no"?>
<!DOCTYPE svg PUBLIC "-//W3C//DTD SVG 1.1//EN"
 "http://www.w3.org/Graphics/SVG/1.1/DTD/svg11.dtd">
<!-- Generated by graphviz version 2.43.0 (0)
 -->
<!-- Title: G Pages: 1 -->
<svg width="103pt" height="117pt"
 viewBox="0.00 0.00 103.20 117.20" xmlns="http://www.w3.org/2000/svg" xmlns:xlink="http://www.w3.org/1999/xlink">
<g id="graph0" class="graph" transform="scale(1 1) rotate(0) translate(21.6 95.6)">
<title>G</title>
<polygon fill="#111111" stroke="transparent" points="-21.6,21.6 -21.6,-95.6 81.6,-95.6 81.6,21.6 -21.6,21.6"/>
<!-- intepret.ts -->
<g id="node1" class="node">
<title>intepret.ts</title>
<path fill="none" stroke="#c6c5fe" d="M53.67,-74C53.67,-74 6.33,-74 6.33,-74 3.17,-74 0,-70.83 0,-67.67 0,-67.67 0,-61.33 0,-61.33 0,-58.17 3.17,-55 6.33,-55 6.33,-55 53.67,-55 53.67,-55 56.83,-55 60,-58.17 60,-61.33 60,-61.33 60,-67.67 60,-67.67 60,-70.83 56.83,-74 53.67,-74"/>
<text text-anchor="middle" x="30" y="-62" font-family="Arial" font-size="10.00" fill="#c6c5fe">intepret.ts</text>
</g>
<!-- result.ts -->
<g id="node2" class="node">
<title>result.ts</title>
<path fill="none" stroke="#cfffac" d="M50.67,-19C50.67,-19 9.33,-19 9.33,-19 6.17,-19 3,-15.83 3,-12.67 3,-12.67 3,-6.33 3,-6.33 3,-3.17 6.17,0 9.33,0 9.33,0 50.67,0 50.67,0 53.83,0 57,-3.17 57,-6.33 57,-6.33 57,-12.67 57,-12.67 57,-15.83 53.83,-19 50.67,-19"/>
<text text-anchor="middle" x="30" y="-7" font-family="Arial" font-size="10.00" fill="#cfffac">result.ts</text>
</g>
<!-- intepret.ts&#45;&gt;result.ts -->
<g id="edge1" class="edge">
<title>intepret.ts&#45;&gt;result.ts</title>
<path fill="none" stroke="#757575" d="M30,-54.92C30,-54.92 30,-29.34 30,-29.34"/>
<polygon fill="#757575" stroke="#757575" points="33.5,-29.34 30,-19.34 26.5,-29.34 33.5,-29.34"/>
</g>
</g>
</svg>
