<?xml version="1.0" encoding="UTF-8" standalone="no"?>
<!DOCTYPE svg PUBLIC "-//W3C//DTD SVG 1.1//EN"
 "http://www.w3.org/Graphics/SVG/1.1/DTD/svg11.dtd">
<!-- Generated by graphviz version 2.43.0 (0)
 -->
<!-- Title: G Pages: 1 -->
<svg width="1223pt" height="414pt"
 viewBox="0.00 0.00 1223.20 414.20" xmlns="http://www.w3.org/2000/svg" xmlns:xlink="http://www.w3.org/1999/xlink">
<g id="graph0" class="graph" transform="scale(1 1) rotate(0) translate(21.6 392.6)">
<title>G</title>
<polygon fill="#111111" stroke="transparent" points="-21.6,21.6 -21.6,-392.6 1201.6,-392.6 1201.6,21.6 -21.6,21.6"/>
<!-- core/arithmetic.ts -->
<g id="node1" class="node">
<title>core/arithmetic.ts</title>
<path fill="none" stroke="#c6c5fe" d="M1042.33,-175C1042.33,-175 937.67,-175 937.67,-175 933.83,-175 930,-171.17 930,-167.33 930,-167.33 930,-159.67 930,-159.67 930,-155.83 933.83,-152 937.67,-152 937.67,-152 1042.33,-152 1042.33,-152 1046.17,-152 1050,-155.83 1050,-159.67 1050,-159.67 1050,-167.33 1050,-167.33 1050,-171.17 1046.17,-175 1042.33,-175"/>
<text text-anchor="middle" x="990" y="-159.8" font-family="Arial" font-size="14.00" fill="#c6c5fe">core/arithmetic.ts</text>
</g>
<!-- core/error.ts -->
<g id="node2" class="node">
<title>core/error.ts</title>
<path fill="none" stroke="#cfffac" d="M1169.83,-78C1169.83,-78 1096.17,-78 1096.17,-78 1092.33,-78 1088.5,-74.17 1088.5,-70.33 1088.5,-70.33 1088.5,-62.67 1088.5,-62.67 1088.5,-58.83 1092.33,-55 1096.17,-55 1096.17,-55 1169.83,-55 1169.83,-55 1173.67,-55 1177.5,-58.83 1177.5,-62.67 1177.5,-62.67 1177.5,-70.33 1177.5,-70.33 1177.5,-74.17 1173.67,-78 1169.83,-78"/>
<text text-anchor="middle" x="1133" y="-62.8" font-family="Arial" font-size="14.00" fill="#cfffac">core/error.ts</text>
</g>
<!-- core/arithmetic.ts&#45;&gt;core/error.ts -->
<g id="edge1" class="edge">
<title>core/arithmetic.ts&#45;&gt;core/error.ts</title>
<path fill="none" stroke="#757575" d="M1050.09,-163.5C1086.9,-163.5 1127,-163.5 1127,-163.5 1127,-163.5 1127,-88.01 1127,-88.01"/>
<polygon fill="#757575" stroke="#757575" points="1130.5,-88.01 1127,-78.01 1123.5,-88.01 1130.5,-88.01"/>
</g>
<!-- core/result.ts -->
<g id="node3" class="node">
<title>core/result.ts</title>
<path fill="none" stroke="#cfffac" d="M1172.33,-371C1172.33,-371 1093.67,-371 1093.67,-371 1089.83,-371 1086,-367.17 1086,-363.33 1086,-363.33 1086,-355.67 1086,-355.67 1086,-351.83 1089.83,-348 1093.67,-348 1093.67,-348 1172.33,-348 1172.33,-348 1176.17,-348 1180,-351.83 1180,-355.67 1180,-355.67 1180,-363.33 1180,-363.33 1180,-367.17 1176.17,-371 1172.33,-371"/>
<text text-anchor="middle" x="1133" y="-355.8" font-family="Arial" font-size="14.00" fill="#cfffac">core/result.ts</text>
</g>
<!-- core/arithmetic.ts&#45;&gt;core/result.ts -->
<g id="edge2" class="edge">
<title>core/arithmetic.ts&#45;&gt;core/result.ts</title>
<path fill="none" stroke="#757575" d="M1043,-175.2C1043,-216.15 1043,-350.56 1043,-350.56 1043,-350.56 1075.89,-350.56 1075.89,-350.56"/>
<polygon fill="#757575" stroke="#757575" points="1075.89,-354.06 1085.89,-350.56 1075.89,-347.06 1075.89,-354.06"/>
</g>
<!-- eval/ifelse&#45;branch.ts -->
<g id="node4" class="node">
<title>eval/ifelse&#45;branch.ts</title>
<path fill="none" stroke="#c6c5fe" d="M396.33,-256C396.33,-256 274.67,-256 274.67,-256 270.83,-256 267,-252.17 267,-248.33 267,-248.33 267,-240.67 267,-240.67 267,-236.83 270.83,-233 274.67,-233 274.67,-233 396.33,-233 396.33,-233 400.17,-233 404,-236.83 404,-240.67 404,-240.67 404,-248.33 404,-248.33 404,-252.17 400.17,-256 396.33,-256"/>
<text text-anchor="middle" x="335.5" y="-240.8" font-family="Arial" font-size="14.00" fill="#c6c5fe">eval/ifelse&#45;branch.ts</text>
</g>
<!-- eval/ifelse&#45;branch.ts&#45;&gt;core/error.ts -->
<g id="edge3" class="edge">
<title>eval/ifelse&#45;branch.ts&#45;&gt;core/error.ts</title>
<path fill="none" stroke="#757575" d="M313,-232.91C313,-194.24 313,-72 313,-72 313,-72 1078.33,-72 1078.33,-72"/>
<polygon fill="#757575" stroke="#757575" points="1078.33,-75.5 1088.33,-72 1078.33,-68.5 1078.33,-75.5"/>
</g>
<!-- eval/ifelse&#45;branch.ts&#45;&gt;core/result.ts -->
<g id="edge4" class="edge">
<title>eval/ifelse&#45;branch.ts&#45;&gt;core/result.ts</title>
<path fill="none" stroke="#757575" d="M302,-256.33C302,-286.39 302,-363.33 302,-363.33 302,-363.33 1075.94,-363.33 1075.94,-363.33"/>
<polygon fill="#757575" stroke="#757575" points="1075.94,-366.83 1085.94,-363.33 1075.94,-359.83 1075.94,-366.83"/>
</g>
<!-- eval/ifelse&#45;helpers.ts -->
<g id="node5" class="node">
<title>eval/ifelse&#45;helpers.ts</title>
<path fill="none" stroke="#c6c5fe" d="M578.83,-336C578.83,-336 454.17,-336 454.17,-336 450.33,-336 446.5,-332.17 446.5,-328.33 446.5,-328.33 446.5,-320.67 446.5,-320.67 446.5,-316.83 450.33,-313 454.17,-313 454.17,-313 578.83,-313 578.83,-313 582.67,-313 586.5,-316.83 586.5,-320.67 586.5,-320.67 586.5,-328.33 586.5,-328.33 586.5,-332.17 582.67,-336 578.83,-336"/>
<text text-anchor="middle" x="516.5" y="-320.8" font-family="Arial" font-size="14.00" fill="#c6c5fe">eval/ifelse&#45;helpers.ts</text>
</g>
<!-- eval/ifelse&#45;branch.ts&#45;&gt;eval/ifelse&#45;helpers.ts -->
<g id="edge5" class="edge">
<title>eval/ifelse&#45;branch.ts&#45;&gt;eval/ifelse&#45;helpers.ts</title>
<path fill="none" stroke="#757575" d="M336,-256.07C336,-277.38 336,-320.67 336,-320.67 336,-320.67 436.46,-320.67 436.46,-320.67"/>
<polygon fill="#757575" stroke="#757575" points="436.46,-324.17 446.46,-320.67 436.46,-317.17 436.46,-324.17"/>
</g>
<!-- eval/variables.ts -->
<g id="node6" class="node">
<title>eval/variables.ts</title>
<path fill="none" stroke="#c6c5fe" d="M734.33,-256C734.33,-256 636.67,-256 636.67,-256 632.83,-256 629,-252.17 629,-248.33 629,-248.33 629,-240.67 629,-240.67 629,-236.83 632.83,-233 636.67,-233 636.67,-233 734.33,-233 734.33,-233 738.17,-233 742,-236.83 742,-240.67 742,-240.67 742,-248.33 742,-248.33 742,-252.17 738.17,-256 734.33,-256"/>
<text text-anchor="middle" x="685.5" y="-240.8" font-family="Arial" font-size="14.00" fill="#c6c5fe">eval/variables.ts</text>
</g>
<!-- eval/ifelse&#45;branch.ts&#45;&gt;eval/variables.ts -->
<g id="edge6" class="edge">
<title>eval/ifelse&#45;branch.ts&#45;&gt;eval/variables.ts</title>
<path fill="none" stroke="#757575" d="M404.23,-244.5C404.23,-244.5 618.77,-244.5 618.77,-244.5"/>
<polygon fill="#757575" stroke="#757575" points="618.77,-248 628.77,-244.5 618.77,-241 618.77,-248"/>
</g>
<!-- parse/parser.ts -->
<g id="node7" class="node">
<title>parse/parser.ts</title>
<path fill="none" stroke="#c6c5fe" d="M881.33,-176C881.33,-176 790.67,-176 790.67,-176 786.83,-176 783,-172.17 783,-168.33 783,-168.33 783,-160.67 783,-160.67 783,-156.83 786.83,-153 790.67,-153 790.67,-153 881.33,-153 881.33,-153 885.17,-153 889,-156.83 889,-160.67 889,-160.67 889,-168.33 889,-168.33 889,-172.17 885.17,-176 881.33,-176"/>
<text text-anchor="middle" x="836" y="-160.8" font-family="Arial" font-size="14.00" fill="#c6c5fe">parse/parser.ts</text>
</g>
<!-- eval/ifelse&#45;branch.ts&#45;&gt;parse/parser.ts -->
<g id="edge7" class="edge">
<title>eval/ifelse&#45;branch.ts&#45;&gt;parse/parser.ts</title>
<path fill="none" stroke="#757575" d="M359,-232.93C359,-211.62 359,-168.33 359,-168.33 359,-168.33 772.67,-168.33 772.67,-168.33"/>
<polygon fill="#757575" stroke="#757575" points="772.67,-171.83 782.67,-168.33 772.67,-164.83 772.67,-171.83"/>
</g>
<!-- utils/types.ts -->
<g id="node8" class="node">
<title>utils/types.ts</title>
<path fill="none" stroke="#c6c5fe" d="M1027.83,-293C1027.83,-293 952.17,-293 952.17,-293 948.33,-293 944.5,-289.17 944.5,-285.33 944.5,-285.33 944.5,-277.67 944.5,-277.67 944.5,-273.83 948.33,-270 952.17,-270 952.17,-270 1027.83,-270 1027.83,-270 1031.67,-270 1035.5,-273.83 1035.5,-277.67 1035.5,-277.67 1035.5,-285.33 1035.5,-285.33 1035.5,-289.17 1031.67,-293 1027.83,-293"/>
<text text-anchor="middle" x="990" y="-277.8" font-family="Arial" font-size="14.00" fill="#c6c5fe">utils/types.ts</text>
</g>
<!-- eval/ifelse&#45;branch.ts&#45;&gt;utils/types.ts -->
<g id="edge8" class="edge">
<title>eval/ifelse&#45;branch.ts&#45;&gt;utils/types.ts</title>
<path fill="none" stroke="#757575" d="M370,-256.09C370,-268.16 370,-285.33 370,-285.33 370,-285.33 934.41,-285.33 934.41,-285.33"/>
<polygon fill="#757575" stroke="#757575" points="934.41,-288.83 944.41,-285.33 934.41,-281.83 934.41,-288.83"/>
</g>
<!-- eval/ifelse&#45;helpers.ts&#45;&gt;core/error.ts -->
<g id="edge9" class="edge">
<title>eval/ifelse&#45;helpers.ts&#45;&gt;core/error.ts</title>
<path fill="none" stroke="#757575" d="M586.52,-324.5C754.2,-324.5 1165,-324.5 1165,-324.5 1165,-324.5 1165,-88.26 1165,-88.26"/>
<polygon fill="#757575" stroke="#757575" points="1168.5,-88.26 1165,-78.26 1161.5,-88.26 1168.5,-88.26"/>
</g>
<!-- eval/ifelse&#45;helpers.ts&#45;&gt;core/result.ts -->
<g id="edge10" class="edge">
<title>eval/ifelse&#45;helpers.ts&#45;&gt;core/result.ts</title>
<path fill="none" stroke="#757575" d="M586.54,-330.25C741.95,-330.25 1102,-330.25 1102,-330.25 1102,-330.25 1102,-337.94 1102,-337.94"/>
<polygon fill="#757575" stroke="#757575" points="1098.5,-337.94 1102,-347.94 1105.5,-337.94 1098.5,-337.94"/>
</g>
<!-- eval/ifelse&#45;helpers.ts&#45;&gt;eval/variables.ts -->
<g id="edge11" class="edge">
<title>eval/ifelse&#45;helpers.ts&#45;&gt;eval/variables.ts</title>
<path fill="none" stroke="#757575" d="M586.91,-318.75C633.48,-318.75 686,-318.75 686,-318.75 686,-318.75 686,-266.1 686,-266.1"/>
<polygon fill="#757575" stroke="#757575" points="689.5,-266.1 686,-256.1 682.5,-266.1 689.5,-266.1"/>
</g>
<!-- eval/variables.ts&#45;&gt;core/error.ts -->
<g id="edge29" class="edge">
<title>eval/variables.ts&#45;&gt;core/error.ts</title>
<path fill="none" stroke="#757575" d="M742.14,-242.2C863.98,-242.2 1140,-242.2 1140,-242.2 1140,-242.2 1140,-88.03 1140,-88.03"/>
<polygon fill="#757575" stroke="#757575" points="1143.5,-88.03 1140,-78.03 1136.5,-88.03 1143.5,-88.03"/>
</g>
<!-- eval/variables.ts&#45;&gt;core/result.ts -->
<g id="edge30" class="edge">
<title>eval/variables.ts&#45;&gt;core/result.ts</title>
<path fill="none" stroke="#757575" d="M742.4,-246.8C858.96,-246.8 1114,-246.8 1114,-246.8 1114,-246.8 1114,-337.86 1114,-337.86"/>
<polygon fill="#757575" stroke="#757575" points="1110.5,-337.86 1114,-347.86 1117.5,-337.86 1110.5,-337.86"/>
</g>
<!-- eval/variables.ts&#45;&gt;parse/parser.ts -->
<g id="edge31" class="edge">
<title>eval/variables.ts&#45;&gt;parse/parser.ts</title>
<path fill="none" stroke="#757575" d="M742.29,-237.6C775.12,-237.6 810,-237.6 810,-237.6 810,-237.6 810,-186.24 810,-186.24"/>
<polygon fill="#757575" stroke="#757575" points="813.5,-186.24 810,-176.24 806.5,-186.24 813.5,-186.24"/>
</g>
<!-- eval/variables.ts&#45;&gt;utils/types.ts -->
<g id="edge32" class="edge">
<title>eval/variables.ts&#45;&gt;utils/types.ts</title>
<path fill="none" stroke="#757575" d="M742.06,-251.4C830.12,-251.4 990,-251.4 990,-251.4 990,-251.4 990,-259.95 990,-259.95"/>
<polygon fill="#757575" stroke="#757575" points="986.5,-259.95 990,-269.95 993.5,-259.95 986.5,-259.95"/>
</g>
<!-- parse/parser.ts&#45;&gt;core/arithmetic.ts -->
<g id="edge33" class="edge">
<title>parse/parser.ts&#45;&gt;core/arithmetic.ts</title>
<path fill="none" stroke="#757575" d="M889.43,-164C889.43,-164 919.81,-164 919.81,-164"/>
<polygon fill="#757575" stroke="#757575" points="919.81,-167.5 929.81,-164 919.81,-160.5 919.81,-167.5"/>
</g>
<!-- parse/parser.ts&#45;&gt;core/error.ts -->
<g id="edge34" class="edge">
<title>parse/parser.ts&#45;&gt;core/error.ts</title>
<path fill="none" stroke="#757575" d="M863,-152.8C863,-128.54 863,-75 863,-75 863,-75 1078.41,-75 1078.41,-75"/>
<polygon fill="#757575" stroke="#757575" points="1078.42,-78.5 1088.41,-75 1078.41,-71.5 1078.42,-78.5"/>
</g>
<!-- parse/parser.ts&#45;&gt;core/result.ts -->
<g id="edge35" class="edge">
<title>parse/parser.ts&#45;&gt;core/result.ts</title>
<path fill="none" stroke="#757575" d="M836,-176.04C836,-217.74 836,-358.22 836,-358.22 836,-358.22 1075.94,-358.22 1075.94,-358.22"/>
<polygon fill="#757575" stroke="#757575" points="1075.94,-361.72 1085.94,-358.22 1075.94,-354.72 1075.94,-361.72"/>
</g>
<!-- parse/parser.ts&#45;&gt;utils/types.ts -->
<g id="edge36" class="edge">
<title>parse/parser.ts&#45;&gt;utils/types.ts</title>
<path fill="none" stroke="#757575" d="M863,-176.18C863,-205.1 863,-277.67 863,-277.67 863,-277.67 934.15,-277.67 934.15,-277.67"/>
<polygon fill="#757575" stroke="#757575" points="934.15,-281.17 944.15,-277.67 934.15,-274.17 934.15,-281.17"/>
</g>
<!-- utils/types.ts&#45;&gt;core/error.ts -->
<g id="edge37" class="edge">
<title>utils/types.ts&#45;&gt;core/error.ts</title>
<path fill="none" stroke="#757575" d="M1035.84,-281.5C1084.05,-281.5 1153,-281.5 1153,-281.5 1153,-281.5 1153,-88.06 1153,-88.06"/>
<polygon fill="#757575" stroke="#757575" points="1156.5,-88.06 1153,-78.06 1149.5,-88.06 1156.5,-88.06"/>
</g>
<!-- utils/types.ts&#45;&gt;core/result.ts -->
<g id="edge38" class="edge">
<title>utils/types.ts&#45;&gt;core/result.ts</title>
<path fill="none" stroke="#757575" d="M990,-293.01C990,-313.25 990,-353.11 990,-353.11 990,-353.11 1075.78,-353.11 1075.78,-353.11"/>
<polygon fill="#757575" stroke="#757575" points="1075.78,-356.61 1085.78,-353.11 1075.78,-349.61 1075.78,-356.61"/>
</g>
<!-- eval/ifelse.ts -->
<g id="node9" class="node">
<title>eval/ifelse.ts</title>
<path fill="none" stroke="#c6c5fe" d="M223.33,-209C223.33,-209 147.67,-209 147.67,-209 143.83,-209 140,-205.17 140,-201.33 140,-201.33 140,-193.67 140,-193.67 140,-189.83 143.83,-186 147.67,-186 147.67,-186 223.33,-186 223.33,-186 227.17,-186 231,-189.83 231,-193.67 231,-193.67 231,-201.33 231,-201.33 231,-205.17 227.17,-209 223.33,-209"/>
<text text-anchor="middle" x="185.5" y="-193.8" font-family="Arial" font-size="14.00" fill="#c6c5fe">eval/ifelse.ts</text>
</g>
<!-- eval/ifelse.ts&#45;&gt;core/error.ts -->
<g id="edge12" class="edge">
<title>eval/ifelse.ts&#45;&gt;core/error.ts</title>
<path fill="none" stroke="#757575" d="M201,-185.64C201,-153.83 201,-69 201,-69 201,-69 1078.36,-69 1078.36,-69"/>
<polygon fill="#757575" stroke="#757575" points="1078.36,-72.5 1088.36,-69 1078.36,-65.5 1078.36,-72.5"/>
</g>
<!-- eval/ifelse.ts&#45;&gt;core/result.ts -->
<g id="edge13" class="edge">
<title>eval/ifelse.ts&#45;&gt;core/result.ts</title>
<path fill="none" stroke="#757575" d="M163,-209.07C163,-247.12 163,-365.89 163,-365.89 163,-365.89 1075.89,-365.89 1075.89,-365.89"/>
<polygon fill="#757575" stroke="#757575" points="1075.89,-369.39 1085.89,-365.89 1075.89,-362.39 1075.89,-369.39"/>
</g>
<!-- eval/ifelse.ts&#45;&gt;eval/ifelse&#45;branch.ts -->
<g id="edge14" class="edge">
<title>eval/ifelse.ts&#45;&gt;eval/ifelse&#45;branch.ts</title>
<path fill="none" stroke="#757575" d="M209,-209.36C209,-223.28 209,-244.5 209,-244.5 209,-244.5 256.7,-244.5 256.7,-244.5"/>
<polygon fill="#757575" stroke="#757575" points="256.7,-248 266.7,-244.5 256.7,-241 256.7,-248"/>
</g>
<!-- eval/ifelse.ts&#45;&gt;eval/ifelse&#45;helpers.ts -->
<g id="edge15" class="edge">
<title>eval/ifelse.ts&#45;&gt;eval/ifelse&#45;helpers.ts</title>
<path fill="none" stroke="#757575" d="M186,-209.11C186,-241.13 186,-328.33 186,-328.33 186,-328.33 436.41,-328.33 436.41,-328.33"/>
<polygon fill="#757575" stroke="#757575" points="436.41,-331.83 446.41,-328.33 436.41,-324.83 436.41,-331.83"/>
</g>
<!-- eval/ifelse.ts&#45;&gt;eval/variables.ts -->
<g id="edge16" class="edge">
<title>eval/ifelse.ts&#45;&gt;eval/variables.ts</title>
<path fill="none" stroke="#757575" d="M231.23,-197.5C349.81,-197.5 658,-197.5 658,-197.5 658,-197.5 658,-222.64 658,-222.64"/>
<polygon fill="#757575" stroke="#757575" points="654.5,-222.64 658,-232.64 661.5,-222.64 654.5,-222.64"/>
</g>
<!-- eval/intepret&#45;helpers.ts -->
<g id="node10" class="node">
<title>eval/intepret&#45;helpers.ts</title>
<path fill="none" stroke="#c6c5fe" d="M585.33,-66C585.33,-66 447.67,-66 447.67,-66 443.83,-66 440,-62.17 440,-58.33 440,-58.33 440,-50.67 440,-50.67 440,-46.83 443.83,-43 447.67,-43 447.67,-43 585.33,-43 585.33,-43 589.17,-43 593,-46.83 593,-50.67 593,-50.67 593,-58.33 593,-58.33 593,-62.17 589.17,-66 585.33,-66"/>
<text text-anchor="middle" x="516.5" y="-50.8" font-family="Arial" font-size="14.00" fill="#c6c5fe">eval/intepret&#45;helpers.ts</text>
</g>
<!-- eval/intepret&#45;helpers.ts&#45;&gt;core/error.ts -->
<g id="edge17" class="edge">
<title>eval/intepret&#45;helpers.ts&#45;&gt;core/error.ts</title>
<path fill="none" stroke="#757575" d="M593.02,-59.4C593.02,-59.4 1078.45,-59.4 1078.45,-59.4"/>
<polygon fill="#757575" stroke="#757575" points="1078.45,-62.9 1088.45,-59.4 1078.45,-55.9 1078.45,-62.9"/>
</g>
<!-- eval/intepret&#45;helpers.ts&#45;&gt;core/result.ts -->
<g id="edge18" class="edge">
<title>eval/intepret&#45;helpers.ts&#45;&gt;core/result.ts</title>
<path fill="none" stroke="#757575" d="M593.23,-57.2C603.73,-57.2 611,-57.2 611,-57.2 611,-57.2 611,-360.78 611,-360.78 611,-360.78 1075.76,-360.78 1075.76,-360.78"/>
<polygon fill="#757575" stroke="#757575" points="1075.76,-364.28 1085.76,-360.78 1075.76,-357.28 1075.76,-364.28"/>
</g>
<!-- eval/intepret&#45;helpers.ts&#45;&gt;eval/variables.ts -->
<g id="edge19" class="edge">
<title>eval/intepret&#45;helpers.ts&#45;&gt;eval/variables.ts</title>
<path fill="none" stroke="#757575" d="M593.32,-63.8C638.16,-63.8 686,-63.8 686,-63.8 686,-63.8 686,-222.92 686,-222.92"/>
<polygon fill="#757575" stroke="#757575" points="682.5,-222.92 686,-232.92 689.5,-222.92 682.5,-222.92"/>
</g>
<!-- eval/intepret&#45;helpers.ts&#45;&gt;parse/parser.ts -->
<g id="edge20" class="edge">
<title>eval/intepret&#45;helpers.ts&#45;&gt;parse/parser.ts</title>
<path fill="none" stroke="#757575" d="M593.23,-61.6C680.19,-61.6 810,-61.6 810,-61.6 810,-61.6 810,-142.7 810,-142.7"/>
<polygon fill="#757575" stroke="#757575" points="806.5,-142.7 810,-152.7 813.5,-142.7 806.5,-142.7"/>
</g>
<!-- utils/validation.ts -->
<g id="node11" class="node">
<title>utils/validation.ts</title>
<path fill="none" stroke="#c6c5fe" d="M886.33,-23C886.33,-23 785.67,-23 785.67,-23 781.83,-23 778,-19.17 778,-15.33 778,-15.33 778,-7.67 778,-7.67 778,-3.83 781.83,0 785.67,0 785.67,0 886.33,0 886.33,0 890.17,0 894,-3.83 894,-7.67 894,-7.67 894,-15.33 894,-15.33 894,-19.17 890.17,-23 886.33,-23"/>
<text text-anchor="middle" x="836" y="-7.8" font-family="Arial" font-size="14.00" fill="#c6c5fe">utils/validation.ts</text>
</g>
<!-- eval/intepret&#45;helpers.ts&#45;&gt;utils/validation.ts -->
<g id="edge21" class="edge">
<title>eval/intepret&#45;helpers.ts&#45;&gt;utils/validation.ts</title>
<path fill="none" stroke="#757575" d="M593.03,-49C687.55,-49 836,-49 836,-49 836,-49 836,-33.37 836,-33.37"/>
<polygon fill="#757575" stroke="#757575" points="839.5,-33.37 836,-23.37 832.5,-33.37 839.5,-33.37"/>
</g>
<!-- utils/validation.ts&#45;&gt;core/error.ts -->
<g id="edge39" class="edge">
<title>utils/validation.ts&#45;&gt;core/error.ts</title>
<path fill="none" stroke="#757575" d="M894.32,-15.33C984.62,-15.33 1148,-15.33 1148,-15.33 1148,-15.33 1148,-44.89 1148,-44.89"/>
<polygon fill="#757575" stroke="#757575" points="1144.5,-44.89 1148,-54.89 1151.5,-44.89 1144.5,-44.89"/>
</g>
<!-- utils/validation.ts&#45;&gt;core/result.ts -->
<g id="edge40" class="edge">
<title>utils/validation.ts&#45;&gt;core/result.ts</title>
<path fill="none" stroke="#757575" d="M894.37,-7.67C904.58,-7.67 912,-7.67 912,-7.67 912,-7.67 912,-355.67 912,-355.67 912,-355.67 1075.86,-355.67 1075.86,-355.67"/>
<polygon fill="#757575" stroke="#757575" points="1075.86,-359.17 1085.86,-355.67 1075.86,-352.17 1075.86,-359.17"/>
</g>
<!-- eval/intepret.ts -->
<g id="node12" class="node">
<title>eval/intepret.ts</title>
<path fill="none" stroke="#c6c5fe" d="M96.33,-48C96.33,-48 7.67,-48 7.67,-48 3.83,-48 0,-44.17 0,-40.33 0,-40.33 0,-32.67 0,-32.67 0,-28.83 3.83,-25 7.67,-25 7.67,-25 96.33,-25 96.33,-25 100.17,-25 104,-28.83 104,-32.67 104,-32.67 104,-40.33 104,-40.33 104,-44.17 100.17,-48 96.33,-48"/>
<text text-anchor="middle" x="52" y="-32.8" font-family="Arial" font-size="14.00" fill="#c6c5fe">eval/intepret.ts</text>
</g>
<!-- eval/intepret.ts&#45;&gt;core/error.ts -->
<g id="edge22" class="edge">
<title>eval/intepret.ts&#45;&gt;core/error.ts</title>
<path fill="none" stroke="#757575" d="M104.19,-29.5C318.41,-29.5 1119,-29.5 1119,-29.5 1119,-29.5 1119,-44.79 1119,-44.79"/>
<polygon fill="#757575" stroke="#757575" points="1115.5,-44.79 1119,-54.79 1122.5,-44.79 1115.5,-44.79"/>
</g>
<!-- eval/intepret.ts&#45;&gt;core/result.ts -->
<g id="edge23" class="edge">
<title>eval/intepret.ts&#45;&gt;core/result.ts</title>
<path fill="none" stroke="#757575" d="M26,-48.31C26,-107.45 26,-368.44 26,-368.44 26,-368.44 1075.79,-368.44 1075.79,-368.44"/>
<polygon fill="#757575" stroke="#757575" points="1075.79,-371.94 1085.79,-368.44 1075.79,-364.94 1075.79,-371.94"/>
</g>
<!-- eval/intepret.ts&#45;&gt;eval/variables.ts -->
<g id="edge26" class="edge">
<title>eval/intepret.ts&#45;&gt;eval/variables.ts</title>
<path fill="none" stroke="#757575" d="M104.22,-34C260.54,-34 714,-34 714,-34 714,-34 714,-222.88 714,-222.88"/>
<polygon fill="#757575" stroke="#757575" points="710.5,-222.88 714,-232.88 717.5,-222.88 710.5,-222.88"/>
</g>
<!-- eval/intepret.ts&#45;&gt;parse/parser.ts -->
<g id="edge27" class="edge">
<title>eval/intepret.ts&#45;&gt;parse/parser.ts</title>
<path fill="none" stroke="#757575" d="M52,-48.41C52,-79.48 52,-160.67 52,-160.67 52,-160.67 772.73,-160.67 772.73,-160.67"/>
<polygon fill="#757575" stroke="#757575" points="772.73,-164.17 782.73,-160.67 772.73,-157.17 772.73,-164.17"/>
</g>
<!-- eval/intepret.ts&#45;&gt;eval/ifelse.ts -->
<g id="edge24" class="edge">
<title>eval/intepret.ts&#45;&gt;eval/ifelse.ts</title>
<path fill="none" stroke="#757575" d="M104.2,-38.5C136.17,-38.5 171,-38.5 171,-38.5 171,-38.5 171,-175.81 171,-175.81"/>
<polygon fill="#757575" stroke="#757575" points="167.5,-175.81 171,-185.81 174.5,-175.81 167.5,-175.81"/>
</g>
<!-- eval/intepret.ts&#45;&gt;eval/intepret&#45;helpers.ts -->
<g id="edge25" class="edge">
<title>eval/intepret.ts&#45;&gt;eval/intepret&#45;helpers.ts</title>
<path fill="none" stroke="#757575" d="M78,-48.19C78,-52.79 78,-57 78,-57 78,-57 429.87,-57 429.87,-57"/>
<polygon fill="#757575" stroke="#757575" points="429.87,-60.5 439.87,-57 429.87,-53.5 429.87,-60.5"/>
</g>
<!-- eval/intepret.ts&#45;&gt;utils/validation.ts -->
<g id="edge28" class="edge">
<title>eval/intepret.ts&#45;&gt;utils/validation.ts</title>
<path fill="none" stroke="#757575" d="M52,-24.88C52,-18.35 52,-11.5 52,-11.5 52,-11.5 767.71,-11.5 767.71,-11.5"/>
<polygon fill="#757575" stroke="#757575" points="767.71,-15 777.71,-11.5 767.71,-8 767.71,-15"/>
</g>
</g>
</svg>
