<?xml version="1.0" encoding="UTF-8" standalone="no"?>
<!DOCTYPE svg PUBLIC "-//W3C//DTD SVG 1.1//EN"
 "http://www.w3.org/Graphics/SVG/1.1/DTD/svg11.dtd">
<!-- Generated by graphviz version 2.43.0 (0)
 -->
<!-- Title: G Pages: 1 -->
<svg width="1898pt" height="392pt"
 viewBox="0.00 0.00 1898.20 392.20" xmlns="http://www.w3.org/2000/svg" xmlns:xlink="http://www.w3.org/1999/xlink">
<g id="graph0" class="graph" transform="scale(1 1) rotate(0) translate(21.6 370.6)">
<title>G</title>
<polygon fill="#111111" stroke="transparent" points="-21.6,21.6 -21.6,-370.6 1876.6,-370.6 1876.6,21.6 -21.6,21.6"/>
<!-- app.ts -->
<g id="node1" class="node">
<title>app.ts</title>
<path fill="none" stroke="#c6c5fe" d="M929.17,-349C929.17,-349 887.83,-349 887.83,-349 884.67,-349 881.5,-345.83 881.5,-342.67 881.5,-342.67 881.5,-336.33 881.5,-336.33 881.5,-333.17 884.67,-330 887.83,-330 887.83,-330 929.17,-330 929.17,-330 932.33,-330 935.5,-333.17 935.5,-336.33 935.5,-336.33 935.5,-342.67 935.5,-342.67 935.5,-345.83 932.33,-349 929.17,-349"/>
<text text-anchor="middle" x="908.5" y="-337" font-family="Arial" font-size="10.00" fill="#c6c5fe">app.ts</text>
</g>
<!-- arithmetic&#45;parsing.ts -->
<g id="node2" class="node">
<title>arithmetic&#45;parsing.ts</title>
<path fill="none" stroke="#c6c5fe" d="M245.67,-239C245.67,-239 153.33,-239 153.33,-239 150.17,-239 147,-235.83 147,-232.67 147,-232.67 147,-226.33 147,-226.33 147,-223.17 150.17,-220 153.33,-220 153.33,-220 245.67,-220 245.67,-220 248.83,-220 252,-223.17 252,-226.33 252,-226.33 252,-232.67 252,-232.67 252,-235.83 248.83,-239 245.67,-239"/>
<text text-anchor="middle" x="199.5" y="-227" font-family="Arial" font-size="10.00" fill="#c6c5fe">arithmetic&#45;parsing.ts</text>
</g>
<!-- app.ts&#45;&gt;arithmetic&#45;parsing.ts -->
<g id="edge1" class="edge">
<title>app.ts&#45;&gt;arithmetic&#45;parsing.ts</title>
<path fill="none" stroke="#757575" d="M881.14,-345C750.84,-345 199.5,-345 199.5,-345 199.5,-345 199.5,-249.35 199.5,-249.35"/>
<polygon fill="#757575" stroke="#757575" points="203,-249.35 199.5,-239.35 196,-249.35 203,-249.35"/>
</g>
<!-- compilation&#45;strategies.ts -->
<g id="node3" class="node">
<title>compilation&#45;strategies.ts</title>
<path fill="none" stroke="#c6c5fe" d="M1312.67,-294C1312.67,-294 1202.33,-294 1202.33,-294 1199.17,-294 1196,-290.83 1196,-287.67 1196,-287.67 1196,-281.33 1196,-281.33 1196,-278.17 1199.17,-275 1202.33,-275 1202.33,-275 1312.67,-275 1312.67,-275 1315.83,-275 1319,-278.17 1319,-281.33 1319,-281.33 1319,-287.67 1319,-287.67 1319,-290.83 1315.83,-294 1312.67,-294"/>
<text text-anchor="middle" x="1257.5" y="-282" font-family="Arial" font-size="10.00" fill="#c6c5fe">compilation&#45;strategies.ts</text>
</g>
<!-- app.ts&#45;&gt;compilation&#45;strategies.ts -->
<g id="edge2" class="edge">
<title>app.ts&#45;&gt;compilation&#45;strategies.ts</title>
<path fill="none" stroke="#757575" d="M929.67,-329.96C929.67,-315.57 929.67,-290 929.67,-290 929.67,-290 1185.84,-290 1185.84,-290"/>
<polygon fill="#757575" stroke="#757575" points="1185.84,-293.5 1195.84,-290 1185.84,-286.5 1185.84,-293.5"/>
</g>
<!-- debug&#45;dump.ts -->
<g id="node4" class="node">
<title>debug&#45;dump.ts</title>
<path fill="none" stroke="#c6c5fe" d="M1848.67,-294C1848.67,-294 1780.33,-294 1780.33,-294 1777.17,-294 1774,-290.83 1774,-287.67 1774,-287.67 1774,-281.33 1774,-281.33 1774,-278.17 1777.17,-275 1780.33,-275 1780.33,-275 1848.67,-275 1848.67,-275 1851.83,-275 1855,-278.17 1855,-281.33 1855,-281.33 1855,-287.67 1855,-287.67 1855,-290.83 1851.83,-294 1848.67,-294"/>
<text text-anchor="middle" x="1814.5" y="-282" font-family="Arial" font-size="10.00" fill="#c6c5fe">debug&#45;dump.ts</text>
</g>
<!-- app.ts&#45;&gt;debug&#45;dump.ts -->
<g id="edge3" class="edge">
<title>app.ts&#45;&gt;debug&#45;dump.ts</title>
<path fill="none" stroke="#757575" d="M935.61,-344C1086.36,-344 1814.5,-344 1814.5,-344 1814.5,-344 1814.5,-304.06 1814.5,-304.06"/>
<polygon fill="#757575" stroke="#757575" points="1818,-304.06 1814.5,-294.06 1811,-304.06 1818,-304.06"/>
</g>
<!-- let&#45;binding.ts -->
<g id="node5" class="node">
<title>let&#45;binding.ts</title>
<path fill="none" stroke="#c6c5fe" d="M1009.17,-184C1009.17,-184 949.83,-184 949.83,-184 946.67,-184 943.5,-180.83 943.5,-177.67 943.5,-177.67 943.5,-171.33 943.5,-171.33 943.5,-168.17 946.67,-165 949.83,-165 949.83,-165 1009.17,-165 1009.17,-165 1012.33,-165 1015.5,-168.17 1015.5,-171.33 1015.5,-171.33 1015.5,-177.67 1015.5,-177.67 1015.5,-180.83 1012.33,-184 1009.17,-184"/>
<text text-anchor="middle" x="979.5" y="-172" font-family="Arial" font-size="10.00" fill="#c6c5fe">let&#45;binding.ts</text>
</g>
<!-- app.ts&#45;&gt;let&#45;binding.ts -->
<g id="edge4" class="edge">
<title>app.ts&#45;&gt;let&#45;binding.ts</title>
<path fill="none" stroke="#757575" d="M899.75,-329.59C899.75,-294.89 899.75,-181 899.75,-181 899.75,-181 933.36,-181 933.36,-181"/>
<polygon fill="#757575" stroke="#757575" points="933.36,-184.5 943.36,-181 933.36,-177.5 933.36,-184.5"/>
</g>
<!-- let&#45;expression&#45;parsing.ts -->
<g id="node6" class="node">
<title>let&#45;expression&#45;parsing.ts</title>
<path fill="none" stroke="#c6c5fe" d="M1034.67,-239C1034.67,-239 924.33,-239 924.33,-239 921.17,-239 918,-235.83 918,-232.67 918,-232.67 918,-226.33 918,-226.33 918,-223.17 921.17,-220 924.33,-220 924.33,-220 1034.67,-220 1034.67,-220 1037.83,-220 1041,-223.17 1041,-226.33 1041,-226.33 1041,-232.67 1041,-232.67 1041,-235.83 1037.83,-239 1034.67,-239"/>
<text text-anchor="middle" x="979.5" y="-227" font-family="Arial" font-size="10.00" fill="#c6c5fe">let&#45;expression&#45;parsing.ts</text>
</g>
<!-- app.ts&#45;&gt;let&#45;expression&#45;parsing.ts -->
<g id="edge5" class="edge">
<title>app.ts&#45;&gt;let&#45;expression&#45;parsing.ts</title>
<path fill="none" stroke="#757575" d="M923.83,-329.74C923.83,-329.74 923.83,-249.08 923.83,-249.08"/>
<polygon fill="#757575" stroke="#757575" points="927.33,-249.08 923.83,-239.08 920.33,-249.08 927.33,-249.08"/>
</g>
<!-- parser.ts -->
<g id="node7" class="node">
<title>parser.ts</title>
<path fill="none" stroke="#c6c5fe" d="M368.67,-74C368.67,-74 326.33,-74 326.33,-74 323.17,-74 320,-70.83 320,-67.67 320,-67.67 320,-61.33 320,-61.33 320,-58.17 323.17,-55 326.33,-55 326.33,-55 368.67,-55 368.67,-55 371.83,-55 375,-58.17 375,-61.33 375,-61.33 375,-67.67 375,-67.67 375,-70.83 371.83,-74 368.67,-74"/>
<text text-anchor="middle" x="347.5" y="-62" font-family="Arial" font-size="10.00" fill="#c6c5fe">parser.ts</text>
</g>
<!-- app.ts&#45;&gt;parser.ts -->
<g id="edge6" class="edge">
<title>app.ts&#45;&gt;parser.ts</title>
<path fill="none" stroke="#757575" d="M881.38,-341C768.07,-341 338.33,-341 338.33,-341 338.33,-341 338.33,-84.02 338.33,-84.02"/>
<polygon fill="#757575" stroke="#757575" points="341.83,-84.02 338.33,-74.02 334.83,-84.02 341.83,-84.02"/>
</g>
<!-- pointer&#45;validation.ts -->
<g id="node8" class="node">
<title>pointer&#45;validation.ts</title>
<path fill="none" stroke="#c6c5fe" d="M705.67,-239C705.67,-239 617.33,-239 617.33,-239 614.17,-239 611,-235.83 611,-232.67 611,-232.67 611,-226.33 611,-226.33 611,-223.17 614.17,-220 617.33,-220 617.33,-220 705.67,-220 705.67,-220 708.83,-220 712,-223.17 712,-226.33 712,-226.33 712,-232.67 712,-232.67 712,-235.83 708.83,-239 705.67,-239"/>
<text text-anchor="middle" x="661.5" y="-227" font-family="Arial" font-size="10.00" fill="#c6c5fe">pointer&#45;validation.ts</text>
</g>
<!-- app.ts&#45;&gt;pointer&#45;validation.ts -->
<g id="edge7" class="edge">
<title>app.ts&#45;&gt;pointer&#45;validation.ts</title>
<path fill="none" stroke="#757575" d="M881.12,-333C816.81,-333 661.5,-333 661.5,-333 661.5,-333 661.5,-249.05 661.5,-249.05"/>
<polygon fill="#757575" stroke="#757575" points="665,-249.05 661.5,-239.05 658,-249.05 665,-249.05"/>
</g>
<!-- reassignment&#45;validation.ts -->
<g id="node9" class="node">
<title>reassignment&#45;validation.ts</title>
<path fill="none" stroke="#c6c5fe" d="M1222.67,-239C1222.67,-239 1104.33,-239 1104.33,-239 1101.17,-239 1098,-235.83 1098,-232.67 1098,-232.67 1098,-226.33 1098,-226.33 1098,-223.17 1101.17,-220 1104.33,-220 1104.33,-220 1222.67,-220 1222.67,-220 1225.83,-220 1229,-223.17 1229,-226.33 1229,-226.33 1229,-232.67 1229,-232.67 1229,-235.83 1225.83,-239 1222.67,-239"/>
<text text-anchor="middle" x="1163.5" y="-227" font-family="Arial" font-size="10.00" fill="#c6c5fe">reassignment&#45;validation.ts</text>
</g>
<!-- app.ts&#45;&gt;reassignment&#45;validation.ts -->
<g id="edge8" class="edge">
<title>app.ts&#45;&gt;reassignment&#45;validation.ts</title>
<path fill="none" stroke="#757575" d="M935.86,-339C998.51,-339 1147,-339 1147,-339 1147,-339 1147,-249.22 1147,-249.22"/>
<polygon fill="#757575" stroke="#757575" points="1150.5,-249.22 1147,-239.22 1143.5,-249.22 1150.5,-249.22"/>
</g>
<!-- types.ts -->
<g id="node10" class="node">
<title>types.ts</title>
<path fill="none" stroke="#c6c5fe" d="M712.17,-184C712.17,-184 670.83,-184 670.83,-184 667.67,-184 664.5,-180.83 664.5,-177.67 664.5,-177.67 664.5,-171.33 664.5,-171.33 664.5,-168.17 667.67,-165 670.83,-165 670.83,-165 712.17,-165 712.17,-165 715.33,-165 718.5,-168.17 718.5,-171.33 718.5,-171.33 718.5,-177.67 718.5,-177.67 718.5,-180.83 715.33,-184 712.17,-184"/>
<text text-anchor="middle" x="691.5" y="-172" font-family="Arial" font-size="10.00" fill="#c6c5fe">types.ts</text>
</g>
<!-- app.ts&#45;&gt;types.ts -->
<g id="edge9" class="edge">
<title>app.ts&#45;&gt;types.ts</title>
<path fill="none" stroke="#757575" d="M890.62,-329.7C890.62,-294.29 890.62,-175 890.62,-175 890.62,-175 728.77,-175 728.77,-175"/>
<polygon fill="#757575" stroke="#757575" points="728.77,-171.5 718.77,-175 728.77,-178.5 728.77,-171.5"/>
</g>
<!-- validation.ts -->
<g id="node11" class="node">
<title>validation.ts</title>
<path fill="none" stroke="#c6c5fe" d="M547.67,-239C547.67,-239 491.33,-239 491.33,-239 488.17,-239 485,-235.83 485,-232.67 485,-232.67 485,-226.33 485,-226.33 485,-223.17 488.17,-220 491.33,-220 491.33,-220 547.67,-220 547.67,-220 550.83,-220 554,-223.17 554,-226.33 554,-226.33 554,-232.67 554,-232.67 554,-235.83 550.83,-239 547.67,-239"/>
<text text-anchor="middle" x="519.5" y="-227" font-family="Arial" font-size="10.00" fill="#c6c5fe">validation.ts</text>
</g>
<!-- app.ts&#45;&gt;validation.ts -->
<g id="edge10" class="edge">
<title>app.ts&#45;&gt;validation.ts</title>
<path fill="none" stroke="#757575" d="M881.46,-337C793.24,-337 519.5,-337 519.5,-337 519.5,-337 519.5,-249.04 519.5,-249.04"/>
<polygon fill="#757575" stroke="#757575" points="523,-249.04 519.5,-239.04 516,-249.04 523,-249.04"/>
</g>
<!-- variable&#45;types.ts -->
<g id="node12" class="node">
<title>variable&#45;types.ts</title>
<path fill="none" stroke="#cfffac" d="M1221.67,-74C1221.67,-74 1145.33,-74 1145.33,-74 1142.17,-74 1139,-70.83 1139,-67.67 1139,-67.67 1139,-61.33 1139,-61.33 1139,-58.17 1142.17,-55 1145.33,-55 1145.33,-55 1221.67,-55 1221.67,-55 1224.83,-55 1228,-58.17 1228,-61.33 1228,-61.33 1228,-67.67 1228,-67.67 1228,-70.83 1224.83,-74 1221.67,-74"/>
<text text-anchor="middle" x="1183.5" y="-62" font-family="Arial" font-size="10.00" fill="#cfffac">variable&#45;types.ts</text>
</g>
<!-- app.ts&#45;&gt;variable&#45;types.ts -->
<g id="edge11" class="edge">
<title>app.ts&#45;&gt;variable&#45;types.ts</title>
<path fill="none" stroke="#757575" d="M935.74,-334C985.9,-334 1087.83,-334 1087.83,-334 1087.83,-334 1087.83,-67 1087.83,-67 1087.83,-67 1128.75,-67 1128.75,-67"/>
<polygon fill="#757575" stroke="#757575" points="1128.75,-70.5 1138.75,-67 1128.75,-63.5 1128.75,-70.5"/>
</g>
<!-- vm.ts -->
<g id="node13" class="node">
<title>vm.ts</title>
<path fill="none" stroke="#cfffac" d="M976.17,-19C976.17,-19 934.83,-19 934.83,-19 931.67,-19 928.5,-15.83 928.5,-12.67 928.5,-12.67 928.5,-6.33 928.5,-6.33 928.5,-3.17 931.67,0 934.83,0 934.83,0 976.17,0 976.17,0 979.33,0 982.5,-3.17 982.5,-6.33 982.5,-6.33 982.5,-12.67 982.5,-12.67 982.5,-15.83 979.33,-19 976.17,-19"/>
<text text-anchor="middle" x="955.5" y="-7" font-family="Arial" font-size="10.00" fill="#cfffac">vm.ts</text>
</g>
<!-- app.ts&#45;&gt;vm.ts -->
<g id="edge12" class="edge">
<title>app.ts&#45;&gt;vm.ts</title>
<path fill="none" stroke="#757575" d="M908.88,-329.56C908.88,-295.85 908.88,-188 908.88,-188 908.88,-188 937.5,-188 937.5,-188 937.5,-188 937.5,-29.1 937.5,-29.1"/>
<polygon fill="#757575" stroke="#757575" points="941,-29.1 937.5,-19.1 934,-29.1 941,-29.1"/>
</g>
<!-- arithmetic&#45;parsing.ts&#45;&gt;parser.ts -->
<g id="edge15" class="edge">
<title>arithmetic&#45;parsing.ts&#45;&gt;parser.ts</title>
<path fill="none" stroke="#757575" d="M252.34,-229C289.35,-229 332.22,-229 332.22,-229 332.22,-229 332.22,-84.3 332.22,-84.3"/>
<polygon fill="#757575" stroke="#757575" points="335.72,-84.3 332.22,-74.3 328.72,-84.3 335.72,-84.3"/>
</g>
<!-- arithmetic&#45;parsing.ts&#45;&gt;types.ts -->
<g id="edge16" class="edge">
<title>arithmetic&#45;parsing.ts&#45;&gt;types.ts</title>
<path fill="none" stroke="#757575" d="M252.12,-224C277.18,-224 301.75,-224 301.75,-224 301.75,-224 301.75,-176 301.75,-176 301.75,-176 654.4,-176 654.4,-176"/>
<polygon fill="#757575" stroke="#757575" points="654.4,-179.5 664.4,-176 654.4,-172.5 654.4,-179.5"/>
</g>
<!-- arithmetic&#45;parsing.ts&#45;&gt;vm.ts -->
<g id="edge17" class="edge">
<title>arithmetic&#45;parsing.ts&#45;&gt;vm.ts</title>
<path fill="none" stroke="#757575" d="M166.25,-219.74C166.25,-177.07 166.25,-9 166.25,-9 166.25,-9 918.33,-9 918.33,-9"/>
<polygon fill="#757575" stroke="#757575" points="918.33,-12.5 928.33,-9 918.33,-5.5 918.33,-12.5"/>
</g>
<!-- helpers.ts -->
<g id="node14" class="node">
<title>helpers.ts</title>
<path fill="none" stroke="#c6c5fe" d="M122.67,-184C122.67,-184 76.33,-184 76.33,-184 73.17,-184 70,-180.83 70,-177.67 70,-177.67 70,-171.33 70,-171.33 70,-168.17 73.17,-165 76.33,-165 76.33,-165 122.67,-165 122.67,-165 125.83,-165 129,-168.17 129,-171.33 129,-171.33 129,-177.67 129,-177.67 129,-180.83 125.83,-184 122.67,-184"/>
<text text-anchor="middle" x="99.5" y="-172" font-family="Arial" font-size="10.00" fill="#c6c5fe">helpers.ts</text>
</g>
<!-- arithmetic&#45;parsing.ts&#45;&gt;helpers.ts -->
<g id="edge13" class="edge">
<title>arithmetic&#45;parsing.ts&#45;&gt;helpers.ts</title>
<path fill="none" stroke="#757575" d="M146.7,-226C132.5,-226 121,-226 121,-226 121,-226 121,-194.43 121,-194.43"/>
<polygon fill="#757575" stroke="#757575" points="124.5,-194.43 121,-184.43 117.5,-194.43 124.5,-194.43"/>
</g>
<!-- operator&#45;parsing.ts -->
<g id="node15" class="node">
<title>operator&#45;parsing.ts</title>
<path fill="none" stroke="#c6c5fe" d="M277.17,-184C277.17,-184 191.83,-184 191.83,-184 188.67,-184 185.5,-180.83 185.5,-177.67 185.5,-177.67 185.5,-171.33 185.5,-171.33 185.5,-168.17 188.67,-165 191.83,-165 191.83,-165 277.17,-165 277.17,-165 280.33,-165 283.5,-168.17 283.5,-171.33 283.5,-171.33 283.5,-177.67 283.5,-177.67 283.5,-180.83 280.33,-184 277.17,-184"/>
<text text-anchor="middle" x="234.5" y="-172" font-family="Arial" font-size="10.00" fill="#c6c5fe">operator&#45;parsing.ts</text>
</g>
<!-- arithmetic&#45;parsing.ts&#45;&gt;operator&#45;parsing.ts -->
<g id="edge14" class="edge">
<title>arithmetic&#45;parsing.ts&#45;&gt;operator&#45;parsing.ts</title>
<path fill="none" stroke="#757575" d="M218.75,-219.92C218.75,-219.92 218.75,-194.34 218.75,-194.34"/>
<polygon fill="#757575" stroke="#757575" points="222.25,-194.34 218.75,-184.34 215.25,-194.34 222.25,-194.34"/>
</g>
<!-- compilation&#45;strategies.ts&#45;&gt;let&#45;binding.ts -->
<g id="edge30" class="edge">
<title>compilation&#45;strategies.ts&#45;&gt;let&#45;binding.ts</title>
<path fill="none" stroke="#757575" d="M1241.86,-274.67C1241.86,-248.31 1241.86,-178 1241.86,-178 1241.86,-178 1025.7,-178 1025.7,-178"/>
<polygon fill="#757575" stroke="#757575" points="1025.7,-174.5 1015.7,-178 1025.7,-181.5 1025.7,-174.5"/>
</g>
<!-- compilation&#45;strategies.ts&#45;&gt;parser.ts -->
<g id="edge31" class="edge">
<title>compilation&#45;strategies.ts&#45;&gt;parser.ts</title>
<path fill="none" stroke="#757575" d="M1195.82,-286C990.71,-286 344.44,-286 344.44,-286 344.44,-286 344.44,-84.02 344.44,-84.02"/>
<polygon fill="#757575" stroke="#757575" points="347.94,-84.02 344.44,-74.02 340.94,-84.02 347.94,-84.02"/>
</g>
<!-- compilation&#45;strategies.ts&#45;&gt;variable&#45;types.ts -->
<g id="edge33" class="edge">
<title>compilation&#45;strategies.ts&#45;&gt;variable&#45;types.ts</title>
<path fill="none" stroke="#757575" d="M1254.71,-274.74C1254.71,-232.07 1254.71,-64 1254.71,-64 1254.71,-64 1238.2,-64 1238.2,-64"/>
<polygon fill="#757575" stroke="#757575" points="1238.2,-60.5 1228.2,-64 1238.2,-67.5 1238.2,-60.5"/>
</g>
<!-- compilation&#45;strategies.ts&#45;&gt;vm.ts -->
<g id="edge34" class="edge">
<title>compilation&#45;strategies.ts&#45;&gt;vm.ts</title>
<path fill="none" stroke="#757575" d="M1267.57,-274.91C1267.57,-226.9 1267.57,-15 1267.57,-15 1267.57,-15 992.65,-15 992.65,-15"/>
<polygon fill="#757575" stroke="#757575" points="992.65,-11.5 982.65,-15 992.65,-18.5 992.65,-11.5"/>
</g>
<!-- instruction&#45;primitives.ts -->
<g id="node17" class="node">
<title>instruction&#45;primitives.ts</title>
<path fill="none" stroke="#c6c5fe" d="M1437.17,-129C1437.17,-129 1331.83,-129 1331.83,-129 1328.67,-129 1325.5,-125.83 1325.5,-122.67 1325.5,-122.67 1325.5,-116.33 1325.5,-116.33 1325.5,-113.17 1328.67,-110 1331.83,-110 1331.83,-110 1437.17,-110 1437.17,-110 1440.33,-110 1443.5,-113.17 1443.5,-116.33 1443.5,-116.33 1443.5,-122.67 1443.5,-122.67 1443.5,-125.83 1440.33,-129 1437.17,-129"/>
<text text-anchor="middle" x="1384.5" y="-117" font-family="Arial" font-size="10.00" fill="#c6c5fe">instruction&#45;primitives.ts</text>
</g>
<!-- compilation&#45;strategies.ts&#45;&gt;instruction&#45;primitives.ts -->
<g id="edge29" class="edge">
<title>compilation&#45;strategies.ts&#45;&gt;instruction&#45;primitives.ts</title>
<path fill="none" stroke="#757575" d="M1293.29,-274.52C1293.29,-239.6 1293.29,-125 1293.29,-125 1293.29,-125 1315.44,-125 1315.44,-125"/>
<polygon fill="#757575" stroke="#757575" points="1315.44,-128.5 1325.44,-125 1315.44,-121.5 1315.44,-128.5"/>
</g>
<!-- array&#45;parsing.ts -->
<g id="node19" class="node">
<title>array&#45;parsing.ts</title>
<path fill="none" stroke="#cfffac" d="M1061.17,-74C1061.17,-74 989.83,-74 989.83,-74 986.67,-74 983.5,-70.83 983.5,-67.67 983.5,-67.67 983.5,-61.33 983.5,-61.33 983.5,-58.17 986.67,-55 989.83,-55 989.83,-55 1061.17,-55 1061.17,-55 1064.33,-55 1067.5,-58.17 1067.5,-61.33 1067.5,-61.33 1067.5,-67.67 1067.5,-67.67 1067.5,-70.83 1064.33,-74 1061.17,-74"/>
<text text-anchor="middle" x="1025.5" y="-62" font-family="Arial" font-size="10.00" fill="#cfffac">array&#45;parsing.ts</text>
</g>
<!-- compilation&#45;strategies.ts&#45;&gt;array&#45;parsing.ts -->
<g id="edge27" class="edge">
<title>compilation&#45;strategies.ts&#45;&gt;array&#45;parsing.ts</title>
<path fill="none" stroke="#757575" d="M1195.97,-278C1136.14,-278 1054.25,-278 1054.25,-278 1054.25,-278 1054.25,-84.23 1054.25,-84.23"/>
<polygon fill="#757575" stroke="#757575" points="1057.75,-84.23 1054.25,-74.23 1050.75,-84.23 1057.75,-84.23"/>
</g>
<!-- expression&#45;with&#45;context.ts -->
<g id="node21" class="node">
<title>expression&#45;with&#45;context.ts</title>
<path fill="none" stroke="#c6c5fe" d="M854.67,-239C854.67,-239 736.33,-239 736.33,-239 733.17,-239 730,-235.83 730,-232.67 730,-232.67 730,-226.33 730,-226.33 730,-223.17 733.17,-220 736.33,-220 736.33,-220 854.67,-220 854.67,-220 857.83,-220 861,-223.17 861,-226.33 861,-226.33 861,-232.67 861,-232.67 861,-235.83 857.83,-239 854.67,-239"/>
<text text-anchor="middle" x="795.5" y="-227" font-family="Arial" font-size="10.00" fill="#c6c5fe">expression&#45;with&#45;context.ts</text>
</g>
<!-- compilation&#45;strategies.ts&#45;&gt;expression&#45;with&#45;context.ts -->
<g id="edge28" class="edge">
<title>compilation&#45;strategies.ts&#45;&gt;expression&#45;with&#45;context.ts</title>
<path fill="none" stroke="#757575" d="M1195.67,-282C1069.78,-282 795.5,-282 795.5,-282 795.5,-282 795.5,-249.13 795.5,-249.13"/>
<polygon fill="#757575" stroke="#757575" points="799,-249.13 795.5,-239.13 792,-249.13 799,-249.13"/>
</g>
<!-- reassignment&#45;parsing.ts -->
<g id="node22" class="node">
<title>reassignment&#45;parsing.ts</title>
<path fill="none" stroke="#c6c5fe" d="M1438.67,-184C1438.67,-184 1330.33,-184 1330.33,-184 1327.17,-184 1324,-180.83 1324,-177.67 1324,-177.67 1324,-171.33 1324,-171.33 1324,-168.17 1327.17,-165 1330.33,-165 1330.33,-165 1438.67,-165 1438.67,-165 1441.83,-165 1445,-168.17 1445,-171.33 1445,-171.33 1445,-177.67 1445,-177.67 1445,-180.83 1441.83,-184 1438.67,-184"/>
<text text-anchor="middle" x="1384.5" y="-172" font-family="Arial" font-size="10.00" fill="#c6c5fe">reassignment&#45;parsing.ts</text>
</g>
<!-- compilation&#45;strategies.ts&#45;&gt;reassignment&#45;parsing.ts -->
<g id="edge32" class="edge">
<title>compilation&#45;strategies.ts&#45;&gt;reassignment&#45;parsing.ts</title>
<path fill="none" stroke="#757575" d="M1306.14,-274.78C1306.14,-247.98 1306.14,-175 1306.14,-175 1306.14,-175 1313.92,-175 1313.92,-175"/>
<polygon fill="#757575" stroke="#757575" points="1313.92,-178.5 1323.92,-175 1313.92,-171.5 1313.92,-178.5"/>
</g>
<!-- debug&#45;dump.ts&#45;&gt;vm.ts -->
<g id="edge35" class="edge">
<title>debug&#45;dump.ts&#45;&gt;vm.ts</title>
<path fill="none" stroke="#757575" d="M1814.5,-274.81C1814.5,-225.31 1814.5,-3 1814.5,-3 1814.5,-3 992.63,-3 992.63,-3"/>
<polygon fill="#757575" stroke="#757575" points="992.63,0.5 982.63,-3 992.63,-6.5 992.63,0.5"/>
</g>
<!-- let&#45;binding.ts&#45;&gt;parser.ts -->
<g id="edge50" class="edge">
<title>let&#45;binding.ts&#45;&gt;parser.ts</title>
<path fill="none" stroke="#757575" d="M959.1,-164.74C959.1,-137.05 959.1,-60 959.1,-60 959.1,-60 385.37,-60 385.37,-60"/>
<polygon fill="#757575" stroke="#757575" points="385.37,-56.5 375.37,-60 385.37,-63.5 385.37,-56.5"/>
</g>
<!-- let&#45;binding.ts&#45;&gt;variable&#45;types.ts -->
<g id="edge52" class="edge">
<title>let&#45;binding.ts&#45;&gt;variable&#45;types.ts</title>
<path fill="none" stroke="#757575" d="M1015.84,-167C1068.88,-167 1161.25,-167 1161.25,-167 1161.25,-167 1161.25,-84.33 1161.25,-84.33"/>
<polygon fill="#757575" stroke="#757575" points="1164.75,-84.33 1161.25,-74.33 1157.75,-84.33 1164.75,-84.33"/>
</g>
<!-- let&#45;binding.ts&#45;&gt;vm.ts -->
<g id="edge53" class="edge">
<title>let&#45;binding.ts&#45;&gt;vm.ts</title>
<path fill="none" stroke="#757575" d="M966.9,-164.67C966.9,-164.67 966.9,-29.07 966.9,-29.07"/>
<polygon fill="#757575" stroke="#757575" points="970.4,-29.07 966.9,-19.07 963.4,-29.07 970.4,-29.07"/>
</g>
<!-- let&#45;binding.ts&#45;&gt;instruction&#45;primitives.ts -->
<g id="edge49" class="edge">
<title>let&#45;binding.ts&#45;&gt;instruction&#45;primitives.ts</title>
<path fill="none" stroke="#757575" d="M1007.5,-164.87C1007.5,-149.71 1007.5,-122 1007.5,-122 1007.5,-122 1315.18,-122 1315.18,-122"/>
<polygon fill="#757575" stroke="#757575" points="1315.18,-125.5 1325.18,-122 1315.18,-118.5 1315.18,-125.5"/>
</g>
<!-- array&#45;helpers.ts -->
<g id="node18" class="node">
<title>array&#45;helpers.ts</title>
<path fill="none" stroke="#c6c5fe" d="M921.17,-129C921.17,-129 849.83,-129 849.83,-129 846.67,-129 843.5,-125.83 843.5,-122.67 843.5,-122.67 843.5,-116.33 843.5,-116.33 843.5,-113.17 846.67,-110 849.83,-110 849.83,-110 921.17,-110 921.17,-110 924.33,-110 927.5,-113.17 927.5,-116.33 927.5,-116.33 927.5,-122.67 927.5,-122.67 927.5,-125.83 924.33,-129 921.17,-129"/>
<text text-anchor="middle" x="885.5" y="-117" font-family="Arial" font-size="10.00" fill="#c6c5fe">array&#45;helpers.ts</text>
</g>
<!-- let&#45;binding.ts&#45;&gt;array&#45;helpers.ts -->
<g id="edge47" class="edge">
<title>let&#45;binding.ts&#45;&gt;array&#45;helpers.ts</title>
<path fill="none" stroke="#757575" d="M943.24,-167C932.12,-167 922.75,-167 922.75,-167 922.75,-167 922.75,-139.11 922.75,-139.11"/>
<polygon fill="#757575" stroke="#757575" points="926.25,-139.11 922.75,-129.11 919.25,-139.11 926.25,-139.11"/>
</g>
<!-- let&#45;binding.ts&#45;&gt;array&#45;parsing.ts -->
<g id="edge48" class="edge">
<title>let&#45;binding.ts&#45;&gt;array&#45;parsing.ts</title>
<path fill="none" stroke="#757575" d="M999.5,-164.74C999.5,-164.74 999.5,-84.08 999.5,-84.08"/>
<polygon fill="#757575" stroke="#757575" points="1003,-84.08 999.5,-74.08 996,-84.08 1003,-84.08"/>
</g>
<!-- type&#45;inference&#45;helpers.ts -->
<g id="node24" class="node">
<title>type&#45;inference&#45;helpers.ts</title>
<path fill="none" stroke="#c6c5fe" d="M493.17,-129C493.17,-129 381.83,-129 381.83,-129 378.67,-129 375.5,-125.83 375.5,-122.67 375.5,-122.67 375.5,-116.33 375.5,-116.33 375.5,-113.17 378.67,-110 381.83,-110 381.83,-110 493.17,-110 493.17,-110 496.33,-110 499.5,-113.17 499.5,-116.33 499.5,-116.33 499.5,-122.67 499.5,-122.67 499.5,-125.83 496.33,-129 493.17,-129"/>
<text text-anchor="middle" x="437.5" y="-117" font-family="Arial" font-size="10.00" fill="#c6c5fe">type&#45;inference&#45;helpers.ts</text>
</g>
<!-- let&#45;binding.ts&#45;&gt;type&#45;inference&#45;helpers.ts -->
<g id="edge51" class="edge">
<title>let&#45;binding.ts&#45;&gt;type&#45;inference&#45;helpers.ts</title>
<path fill="none" stroke="#757575" d="M951.3,-164.78C951.3,-153.38 951.3,-136 951.3,-136 951.3,-136 494.67,-136 494.67,-136 494.67,-136 494.67,-135.33 494.67,-135.33"/>
<polygon fill="#757575" stroke="#757575" points="498.17,-139.29 494.67,-129.29 491.17,-139.29 498.17,-139.29"/>
</g>
<!-- let&#45;expression&#45;parsing.ts&#45;&gt;let&#45;binding.ts -->
<g id="edge54" class="edge">
<title>let&#45;expression&#45;parsing.ts&#45;&gt;let&#45;binding.ts</title>
<path fill="none" stroke="#757575" d="M991.5,-219.92C991.5,-219.92 991.5,-194.34 991.5,-194.34"/>
<polygon fill="#757575" stroke="#757575" points="995,-194.34 991.5,-184.34 988,-194.34 995,-194.34"/>
</g>
<!-- let&#45;expression&#45;parsing.ts&#45;&gt;variable&#45;types.ts -->
<g id="edge55" class="edge">
<title>let&#45;expression&#45;parsing.ts&#45;&gt;variable&#45;types.ts</title>
<path fill="none" stroke="#757575" d="M1041.11,-229C1060.84,-229 1077.67,-229 1077.67,-229 1077.67,-229 1077.67,-61 1077.67,-61 1077.67,-61 1128.92,-61 1128.92,-61"/>
<polygon fill="#757575" stroke="#757575" points="1128.92,-64.5 1138.92,-61 1128.92,-57.5 1128.92,-64.5"/>
</g>
<!-- let&#45;expression&#45;parsing.ts&#45;&gt;vm.ts -->
<g id="edge56" class="edge">
<title>let&#45;expression&#45;parsing.ts&#45;&gt;vm.ts</title>
<path fill="none" stroke="#757575" d="M940.5,-219.76C940.5,-219.76 940.5,-29.12 940.5,-29.12"/>
<polygon fill="#757575" stroke="#757575" points="944,-29.12 940.5,-19.12 937,-29.12 944,-29.12"/>
</g>
<!-- parser.ts&#45;&gt;vm.ts -->
<g id="edge58" class="edge">
<title>parser.ts&#45;&gt;vm.ts</title>
<path fill="none" stroke="#757575" d="M375.27,-57C491.33,-57 931.5,-57 931.5,-57 931.5,-57 931.5,-29.11 931.5,-29.11"/>
<polygon fill="#757575" stroke="#757575" points="935,-29.11 931.5,-19.11 928,-29.11 935,-29.11"/>
</g>
<!-- pointer&#45;validation.ts&#45;&gt;let&#45;binding.ts -->
<g id="edge59" class="edge">
<title>pointer&#45;validation.ts&#45;&gt;let&#45;binding.ts</title>
<path fill="none" stroke="#757575" d="M712.15,-229C719.29,-229 724.25,-229 724.25,-229 724.25,-229 724.25,-173 724.25,-173 724.25,-173 933.47,-173 933.47,-173"/>
<polygon fill="#757575" stroke="#757575" points="933.47,-176.5 943.47,-173 933.47,-169.5 933.47,-176.5"/>
</g>
<!-- pointer&#45;validation.ts&#45;&gt;parser.ts -->
<g id="edge60" class="edge">
<title>pointer&#45;validation.ts&#45;&gt;parser.ts</title>
<path fill="none" stroke="#757575" d="M621.25,-219.59C621.25,-184.89 621.25,-71 621.25,-71 621.25,-71 385,-71 385,-71"/>
<polygon fill="#757575" stroke="#757575" points="385,-67.5 375,-71 385,-74.5 385,-67.5"/>
</g>
<!-- pointer&#45;validation.ts&#45;&gt;types.ts -->
<g id="edge61" class="edge">
<title>pointer&#45;validation.ts&#45;&gt;types.ts</title>
<path fill="none" stroke="#757575" d="M676.38,-219.92C676.38,-219.92 676.38,-194.34 676.38,-194.34"/>
<polygon fill="#757575" stroke="#757575" points="679.88,-194.34 676.38,-184.34 672.88,-194.34 679.88,-194.34"/>
</g>
<!-- pointer&#45;validation.ts&#45;&gt;variable&#45;types.ts -->
<g id="edge62" class="edge">
<title>pointer&#45;validation.ts&#45;&gt;variable&#45;types.ts</title>
<path fill="none" stroke="#757575" d="M688.25,-219.88C688.25,-211.95 688.25,-202 688.25,-202 688.25,-202 1183.5,-202 1183.5,-202 1183.5,-202 1183.5,-84.39 1183.5,-84.39"/>
<polygon fill="#757575" stroke="#757575" points="1187,-84.39 1183.5,-74.39 1180,-84.39 1187,-84.39"/>
</g>
<!-- reassignment&#45;validation.ts&#45;&gt;let&#45;binding.ts -->
<g id="edge66" class="edge">
<title>reassignment&#45;validation.ts&#45;&gt;let&#45;binding.ts</title>
<path fill="none" stroke="#757575" d="M1125.33,-219.69C1125.33,-205.51 1125.33,-181 1125.33,-181 1125.33,-181 1025.55,-181 1025.55,-181"/>
<polygon fill="#757575" stroke="#757575" points="1025.55,-177.5 1015.55,-181 1025.55,-184.5 1025.55,-177.5"/>
</g>
<!-- reassignment&#45;validation.ts&#45;&gt;types.ts -->
<g id="edge68" class="edge">
<title>reassignment&#45;validation.ts&#45;&gt;types.ts</title>
<path fill="none" stroke="#757575" d="M1111.67,-219.82C1111.67,-215.34 1111.67,-211 1111.67,-211 1111.67,-211 700.12,-211 700.12,-211 700.12,-211 700.12,-194.09 700.12,-194.09"/>
<polygon fill="#757575" stroke="#757575" points="703.63,-194.09 700.12,-184.09 696.63,-194.09 703.63,-194.09"/>
</g>
<!-- reassignment&#45;validation.ts&#45;&gt;variable&#45;types.ts -->
<g id="edge69" class="edge">
<title>reassignment&#45;validation.ts&#45;&gt;variable&#45;types.ts</title>
<path fill="none" stroke="#757575" d="M1205.75,-219.67C1205.75,-219.67 1205.75,-84.07 1205.75,-84.07"/>
<polygon fill="#757575" stroke="#757575" points="1209.25,-84.07 1205.75,-74.07 1202.25,-84.07 1209.25,-84.07"/>
</g>
<!-- reassignment&#45;validation.ts&#45;&gt;reassignment&#45;parsing.ts -->
<g id="edge67" class="edge">
<title>reassignment&#45;validation.ts&#45;&gt;reassignment&#45;parsing.ts</title>
<path fill="none" stroke="#757575" d="M1216.88,-219.92C1216.88,-203.8 1216.88,-173 1216.88,-173 1216.88,-173 1313.98,-173 1313.98,-173"/>
<polygon fill="#757575" stroke="#757575" points="1313.98,-176.5 1323.98,-173 1313.98,-169.5 1313.98,-176.5"/>
</g>
<!-- types.ts&#45;&gt;parser.ts -->
<g id="edge73" class="edge">
<title>types.ts&#45;&gt;parser.ts</title>
<path fill="none" stroke="#757575" d="M664.38,-172C584.67,-172 356.67,-172 356.67,-172 356.67,-172 356.67,-84.04 356.67,-84.04"/>
<polygon fill="#757575" stroke="#757575" points="360.17,-84.04 356.67,-74.04 353.17,-84.04 360.17,-84.04"/>
</g>
<!-- types.ts&#45;&gt;vm.ts -->
<g id="edge74" class="edge">
<title>types.ts&#45;&gt;vm.ts</title>
<path fill="none" stroke="#757575" d="M718.9,-171C782.45,-171 934.5,-171 934.5,-171 934.5,-171 934.5,-29.12 934.5,-29.12"/>
<polygon fill="#757575" stroke="#757575" points="938,-29.12 934.5,-19.12 931,-29.12 938,-29.12"/>
</g>
<!-- types.ts&#45;&gt;instruction&#45;primitives.ts -->
<g id="edge72" class="edge">
<title>types.ts&#45;&gt;instruction&#45;primitives.ts</title>
<path fill="none" stroke="#757575" d="M691.5,-164.93C691.5,-160.85 691.5,-157 691.5,-157 691.5,-157 1396.3,-157 1396.3,-157 1396.3,-157 1396.3,-139.35 1396.3,-139.35"/>
<polygon fill="#757575" stroke="#757575" points="1399.8,-139.35 1396.3,-129.35 1392.8,-139.35 1399.8,-139.35"/>
</g>
<!-- types.ts&#45;&gt;array&#45;helpers.ts -->
<g id="edge71" class="edge">
<title>types.ts&#45;&gt;array&#45;helpers.ts</title>
<path fill="none" stroke="#757575" d="M718.77,-169C764.63,-169 852.25,-169 852.25,-169 852.25,-169 852.25,-139.04 852.25,-139.04"/>
<polygon fill="#757575" stroke="#757575" points="855.75,-139.04 852.25,-129.04 848.75,-139.04 855.75,-139.04"/>
</g>
<!-- validation.ts&#45;&gt;let&#45;binding.ts -->
<g id="edge75" class="edge">
<title>validation.ts&#45;&gt;let&#45;binding.ts</title>
<path fill="none" stroke="#757575" d="M513.12,-219.91C513.12,-209.1 513.12,-193 513.12,-193 513.12,-193 967.5,-193 967.5,-193 967.5,-193 967.5,-192.12 967.5,-192.12"/>
<polygon fill="#757575" stroke="#757575" points="971,-194.18 967.5,-184.18 964,-194.18 971,-194.18"/>
</g>
<!-- validation.ts&#45;&gt;parser.ts -->
<g id="edge76" class="edge">
<title>validation.ts&#45;&gt;parser.ts</title>
<path fill="none" stroke="#757575" d="M484.9,-234C435.48,-234 350.56,-234 350.56,-234 350.56,-234 350.56,-84.1 350.56,-84.1"/>
<polygon fill="#757575" stroke="#757575" points="354.06,-84.1 350.56,-74.1 347.06,-84.1 354.06,-84.1"/>
</g>
<!-- validation.ts&#45;&gt;types.ts -->
<g id="edge78" class="edge">
<title>validation.ts&#45;&gt;types.ts</title>
<path fill="none" stroke="#757575" d="M540.38,-219.96C540.38,-205.57 540.38,-180 540.38,-180 540.38,-180 654.48,-180 654.48,-180"/>
<polygon fill="#757575" stroke="#757575" points="654.48,-183.5 664.48,-180 654.48,-176.5 654.48,-183.5"/>
</g>
<!-- validation.ts&#45;&gt;variable&#45;types.ts -->
<g id="edge79" class="edge">
<title>validation.ts&#45;&gt;variable&#45;types.ts</title>
<path fill="none" stroke="#757575" d="M526.75,-219.92C526.75,-210.34 526.75,-197 526.75,-197 526.75,-197 1172.38,-197 1172.38,-197 1172.38,-197 1172.38,-84.03 1172.38,-84.03"/>
<polygon fill="#757575" stroke="#757575" points="1175.88,-84.03 1172.38,-74.03 1168.88,-84.03 1175.88,-84.03"/>
</g>
<!-- validation.ts&#45;&gt;type&#45;inference&#45;helpers.ts -->
<g id="edge77" class="edge">
<title>validation.ts&#45;&gt;type&#45;inference&#45;helpers.ts</title>
<path fill="none" stroke="#757575" d="M489.83,-219.74C489.83,-219.74 489.83,-139.08 489.83,-139.08"/>
<polygon fill="#757575" stroke="#757575" points="493.33,-139.08 489.83,-129.08 486.33,-139.08 493.33,-139.08"/>
</g>
<!-- helpers.ts&#45;&gt;vm.ts -->
<g id="edge43" class="edge">
<title>helpers.ts&#45;&gt;vm.ts</title>
<path fill="none" stroke="#757575" d="M109.33,-164.96C109.33,-129.31 109.33,-6 109.33,-6 109.33,-6 918.3,-6 918.3,-6"/>
<polygon fill="#757575" stroke="#757575" points="918.3,-9.5 928.3,-6 918.3,-2.5 918.3,-9.5"/>
</g>
<!-- helpers.ts&#45;&gt;instruction&#45;primitives.ts -->
<g id="edge42" class="edge">
<title>helpers.ts&#45;&gt;instruction&#45;primitives.ts</title>
<path fill="none" stroke="#757575" d="M89.67,-164.82C89.67,-157.97 89.67,-150 89.67,-150 89.67,-150 1349.1,-150 1349.1,-150 1349.1,-150 1349.1,-139.15 1349.1,-139.15"/>
<polygon fill="#757575" stroke="#757575" points="1352.6,-139.15 1349.1,-129.15 1345.6,-139.15 1352.6,-139.15"/>
</g>
<!-- operator&#45;parsing.ts&#45;&gt;parser.ts -->
<g id="edge57" class="edge">
<title>operator&#45;parsing.ts&#45;&gt;parser.ts</title>
<path fill="none" stroke="#757575" d="M283.52,-168C305.31,-168 326.11,-168 326.11,-168 326.11,-168 326.11,-84.05 326.11,-84.05"/>
<polygon fill="#757575" stroke="#757575" points="329.61,-84.05 326.11,-74.05 322.61,-84.05 329.61,-84.05"/>
</g>
<!-- array&#45;compilation.ts -->
<g id="node16" class="node">
<title>array&#45;compilation.ts</title>
<path fill="none" stroke="#c6c5fe" d="M1597.17,-184C1597.17,-184 1507.83,-184 1507.83,-184 1504.67,-184 1501.5,-180.83 1501.5,-177.67 1501.5,-177.67 1501.5,-171.33 1501.5,-171.33 1501.5,-168.17 1504.67,-165 1507.83,-165 1507.83,-165 1597.17,-165 1597.17,-165 1600.33,-165 1603.5,-168.17 1603.5,-171.33 1603.5,-171.33 1603.5,-177.67 1603.5,-177.67 1603.5,-180.83 1600.33,-184 1597.17,-184"/>
<text text-anchor="middle" x="1552.5" y="-172" font-family="Arial" font-size="10.00" fill="#c6c5fe">array&#45;compilation.ts</text>
</g>
<!-- array&#45;compilation.ts&#45;&gt;vm.ts -->
<g id="edge19" class="edge">
<title>array&#45;compilation.ts&#45;&gt;vm.ts</title>
<path fill="none" stroke="#757575" d="M1569.5,-164.52C1569.5,-128.46 1569.5,-7 1569.5,-7 1569.5,-7 992.68,-7 992.68,-7"/>
<polygon fill="#757575" stroke="#757575" points="992.68,-3.5 982.68,-7 992.68,-10.5 992.68,-3.5"/>
</g>
<!-- array&#45;compilation.ts&#45;&gt;instruction&#45;primitives.ts -->
<g id="edge18" class="edge">
<title>array&#45;compilation.ts&#45;&gt;instruction&#45;primitives.ts</title>
<path fill="none" stroke="#757575" d="M1535.5,-164.83C1535.5,-148.93 1535.5,-119 1535.5,-119 1535.5,-119 1453.75,-119 1453.75,-119"/>
<polygon fill="#757575" stroke="#757575" points="1453.75,-115.5 1443.75,-119 1453.75,-122.5 1453.75,-115.5"/>
</g>
<!-- instruction&#45;primitives.ts&#45;&gt;vm.ts -->
<g id="edge46" class="edge">
<title>instruction&#45;primitives.ts&#45;&gt;vm.ts</title>
<path fill="none" stroke="#757575" d="M1325.35,-119C1211.86,-119 974.7,-119 974.7,-119 974.7,-119 974.7,-29.22 974.7,-29.22"/>
<polygon fill="#757575" stroke="#757575" points="978.2,-29.22 974.7,-19.22 971.2,-29.22 978.2,-29.22"/>
</g>
<!-- array&#45;helpers.ts&#45;&gt;parser.ts -->
<g id="edge21" class="edge">
<title>array&#45;helpers.ts&#45;&gt;parser.ts</title>
<path fill="none" stroke="#757575" d="M885.5,-109.92C885.5,-93.8 885.5,-63 885.5,-63 885.5,-63 385.29,-63 385.29,-63"/>
<polygon fill="#757575" stroke="#757575" points="385.29,-59.5 375.29,-63 385.29,-66.5 385.29,-59.5"/>
</g>
<!-- array&#45;helpers.ts&#45;&gt;variable&#45;types.ts -->
<g id="edge22" class="edge">
<title>array&#45;helpers.ts&#45;&gt;variable&#45;types.ts</title>
<path fill="none" stroke="#757575" d="M927.72,-116C1002.43,-116 1150.12,-116 1150.12,-116 1150.12,-116 1150.12,-84.43 1150.12,-84.43"/>
<polygon fill="#757575" stroke="#757575" points="1153.63,-84.43 1150.12,-74.43 1146.63,-84.43 1153.63,-84.43"/>
</g>
<!-- array&#45;helpers.ts&#45;&gt;array&#45;parsing.ts -->
<g id="edge20" class="edge">
<title>array&#45;helpers.ts&#45;&gt;array&#45;parsing.ts</title>
<path fill="none" stroke="#757575" d="M927.7,-113C957.26,-113 991.5,-113 991.5,-113 991.5,-113 991.5,-84.31 991.5,-84.31"/>
<polygon fill="#757575" stroke="#757575" points="995,-84.31 991.5,-74.31 988,-84.31 995,-84.31"/>
</g>
<!-- comparison&#45;parsing.ts -->
<g id="node20" class="node">
<title>comparison&#45;parsing.ts</title>
<path fill="none" stroke="#c6c5fe" d="M106.67,-239C106.67,-239 6.33,-239 6.33,-239 3.17,-239 0,-235.83 0,-232.67 0,-232.67 0,-226.33 0,-226.33 0,-223.17 3.17,-220 6.33,-220 6.33,-220 106.67,-220 106.67,-220 109.83,-220 113,-223.17 113,-226.33 113,-226.33 113,-232.67 113,-232.67 113,-235.83 109.83,-239 106.67,-239"/>
<text text-anchor="middle" x="56.5" y="-227" font-family="Arial" font-size="10.00" fill="#c6c5fe">comparison&#45;parsing.ts</text>
</g>
<!-- comparison&#45;parsing.ts&#45;&gt;parser.ts -->
<g id="edge25" class="edge">
<title>comparison&#45;parsing.ts&#45;&gt;parser.ts</title>
<path fill="none" stroke="#757575" d="M46.67,-219.64C46.67,-184.01 46.67,-64 46.67,-64 46.67,-64 309.74,-64 309.74,-64"/>
<polygon fill="#757575" stroke="#757575" points="309.74,-67.5 319.74,-64 309.74,-60.5 309.74,-67.5"/>
</g>
<!-- comparison&#45;parsing.ts&#45;&gt;vm.ts -->
<g id="edge26" class="edge">
<title>comparison&#45;parsing.ts&#45;&gt;vm.ts</title>
<path fill="none" stroke="#757575" d="M23.33,-219.77C23.33,-176.41 23.33,-3 23.33,-3 23.33,-3 918.36,-3 918.36,-3"/>
<polygon fill="#757575" stroke="#757575" points="918.36,-6.5 928.36,-3 918.36,0.5 918.36,-6.5"/>
</g>
<!-- comparison&#45;parsing.ts&#45;&gt;helpers.ts -->
<g id="edge23" class="edge">
<title>comparison&#45;parsing.ts&#45;&gt;helpers.ts</title>
<path fill="none" stroke="#757575" d="M91.5,-219.92C91.5,-219.92 91.5,-194.34 91.5,-194.34"/>
<polygon fill="#757575" stroke="#757575" points="95,-194.34 91.5,-184.34 88,-194.34 95,-194.34"/>
</g>
<!-- comparison&#45;parsing.ts&#45;&gt;operator&#45;parsing.ts -->
<g id="edge24" class="edge">
<title>comparison&#45;parsing.ts&#45;&gt;operator&#45;parsing.ts</title>
<path fill="none" stroke="#757575" d="M113.1,-232C127.01,-232 138,-232 138,-232 138,-232 138,-174 138,-174 138,-174 175.4,-174 175.4,-174"/>
<polygon fill="#757575" stroke="#757575" points="175.4,-177.5 185.4,-174 175.4,-170.5 175.4,-177.5"/>
</g>
<!-- expression&#45;with&#45;context.ts&#45;&gt;let&#45;binding.ts -->
<g id="edge36" class="edge">
<title>expression&#45;with&#45;context.ts&#45;&gt;let&#45;binding.ts</title>
<path fill="none" stroke="#757575" d="M856.62,-219.76C856.62,-205.09 856.62,-179 856.62,-179 856.62,-179 933.3,-179 933.3,-179"/>
<polygon fill="#757575" stroke="#757575" points="933.3,-182.5 943.3,-179 933.3,-175.5 933.3,-182.5"/>
</g>
<!-- expression&#45;with&#45;context.ts&#45;&gt;parser.ts -->
<g id="edge38" class="edge">
<title>expression&#45;with&#45;context.ts&#45;&gt;parser.ts</title>
<path fill="none" stroke="#757575" d="M780.83,-219.7C780.83,-184.29 780.83,-65 780.83,-65 780.83,-65 385.27,-65 385.27,-65"/>
<polygon fill="#757575" stroke="#757575" points="385.27,-61.5 375.27,-65 385.27,-68.5 385.27,-61.5"/>
</g>
<!-- expression&#45;with&#45;context.ts&#45;&gt;types.ts -->
<g id="edge39" class="edge">
<title>expression&#45;with&#45;context.ts&#45;&gt;types.ts</title>
<path fill="none" stroke="#757575" d="M743,-219.87C743,-204.71 743,-177 743,-177 743,-177 728.76,-177 728.76,-177"/>
<polygon fill="#757575" stroke="#757575" points="728.76,-173.5 718.76,-177 728.76,-180.5 728.76,-173.5"/>
</g>
<!-- expression&#45;with&#45;context.ts&#45;&gt;variable&#45;types.ts -->
<g id="edge40" class="edge">
<title>expression&#45;with&#45;context.ts&#45;&gt;variable&#45;types.ts</title>
<path fill="none" stroke="#757575" d="M847.88,-219.94C847.88,-213.44 847.88,-206 847.88,-206 847.88,-206 1194.62,-206 1194.62,-206 1194.62,-206 1194.62,-84.23 1194.62,-84.23"/>
<polygon fill="#757575" stroke="#757575" points="1198.13,-84.23 1194.62,-74.23 1191.13,-84.23 1198.13,-84.23"/>
</g>
<!-- expression&#45;with&#45;context.ts&#45;&gt;vm.ts -->
<g id="edge41" class="edge">
<title>expression&#45;with&#45;context.ts&#45;&gt;vm.ts</title>
<path fill="none" stroke="#757575" d="M812.17,-219.73C812.17,-177.76 812.17,-15 812.17,-15 812.17,-15 918.2,-15 918.2,-15"/>
<polygon fill="#757575" stroke="#757575" points="918.2,-18.5 928.2,-15 918.2,-11.5 918.2,-18.5"/>
</g>
<!-- expression&#45;with&#45;context.ts&#45;&gt;operator&#45;parsing.ts -->
<g id="edge37" class="edge">
<title>expression&#45;with&#45;context.ts&#45;&gt;operator&#45;parsing.ts</title>
<path fill="none" stroke="#757575" d="M736.5,-219.91C736.5,-217.21 736.5,-215 736.5,-215 736.5,-215 267.75,-215 267.75,-215 267.75,-215 267.75,-194.3 267.75,-194.3"/>
<polygon fill="#757575" stroke="#757575" points="271.25,-194.3 267.75,-184.3 264.25,-194.3 271.25,-194.3"/>
</g>
<!-- reassignment&#45;parsing.ts&#45;&gt;parser.ts -->
<g id="edge64" class="edge">
<title>reassignment&#45;parsing.ts&#45;&gt;parser.ts</title>
<path fill="none" stroke="#757575" d="M1372.7,-164.88C1372.7,-155.61 1372.7,-143 1372.7,-143 1372.7,-143 362.78,-143 362.78,-143 362.78,-143 362.78,-84.13 362.78,-84.13"/>
<polygon fill="#757575" stroke="#757575" points="366.28,-84.13 362.78,-74.13 359.28,-84.13 366.28,-84.13"/>
</g>
<!-- reassignment&#45;parsing.ts&#45;&gt;vm.ts -->
<g id="edge65" class="edge">
<title>reassignment&#45;parsing.ts&#45;&gt;vm.ts</title>
<path fill="none" stroke="#757575" d="M1323.96,-170C1301.07,-170 1280.43,-170 1280.43,-170 1280.43,-170 1280.43,-11 1280.43,-11 1280.43,-11 992.64,-11 992.64,-11"/>
<polygon fill="#757575" stroke="#757575" points="992.64,-7.5 982.64,-11 992.64,-14.5 992.64,-7.5"/>
</g>
<!-- reassignment&#45;parsing.ts&#45;&gt;instruction&#45;primitives.ts -->
<g id="edge63" class="edge">
<title>reassignment&#45;parsing.ts&#45;&gt;instruction&#45;primitives.ts</title>
<path fill="none" stroke="#757575" d="M1419.9,-164.92C1419.9,-164.92 1419.9,-139.34 1419.9,-139.34"/>
<polygon fill="#757575" stroke="#757575" points="1423.4,-139.34 1419.9,-129.34 1416.4,-139.34 1423.4,-139.34"/>
</g>
<!-- if&#45;expression&#45;parsing.ts -->
<g id="node23" class="node">
<title>if&#45;expression&#45;parsing.ts</title>
<path fill="none" stroke="#c6c5fe" d="M743.17,-129C743.17,-129 637.83,-129 637.83,-129 634.67,-129 631.5,-125.83 631.5,-122.67 631.5,-122.67 631.5,-116.33 631.5,-116.33 631.5,-113.17 634.67,-110 637.83,-110 637.83,-110 743.17,-110 743.17,-110 746.33,-110 749.5,-113.17 749.5,-116.33 749.5,-116.33 749.5,-122.67 749.5,-122.67 749.5,-125.83 746.33,-129 743.17,-129"/>
<text text-anchor="middle" x="690.5" y="-117" font-family="Arial" font-size="10.00" fill="#c6c5fe">if&#45;expression&#45;parsing.ts</text>
</g>
<!-- if&#45;expression&#45;parsing.ts&#45;&gt;parser.ts -->
<g id="edge44" class="edge">
<title>if&#45;expression&#45;parsing.ts&#45;&gt;parser.ts</title>
<path fill="none" stroke="#757575" d="M670.83,-109.57C670.83,-94.6 670.83,-68 670.83,-68 670.83,-68 385.07,-68 385.07,-68"/>
<polygon fill="#757575" stroke="#757575" points="385.07,-64.5 375.07,-68 385.07,-71.5 385.07,-64.5"/>
</g>
<!-- if&#45;expression&#45;parsing.ts&#45;&gt;vm.ts -->
<g id="edge45" class="edge">
<title>if&#45;expression&#45;parsing.ts&#45;&gt;vm.ts</title>
<path fill="none" stroke="#757575" d="M710.17,-109.96C710.17,-83.65 710.17,-12 710.17,-12 710.17,-12 918.31,-12 918.31,-12"/>
<polygon fill="#757575" stroke="#757575" points="918.31,-15.5 928.31,-12 918.31,-8.5 918.31,-15.5"/>
</g>
<!-- type&#45;inference&#45;helpers.ts&#45;&gt;parser.ts -->
<g id="edge70" class="edge">
<title>type&#45;inference&#45;helpers.ts&#45;&gt;parser.ts</title>
<path fill="none" stroke="#757575" d="M375.47,-119C371.4,-119 368.89,-119 368.89,-119 368.89,-119 368.89,-84.24 368.89,-84.24"/>
<polygon fill="#757575" stroke="#757575" points="372.39,-84.24 368.89,-74.24 365.39,-84.24 372.39,-84.24"/>
</g>
</g>
</svg>
