<?xml version="1.0" encoding="UTF-8" standalone="no"?>
<!DOCTYPE svg PUBLIC "-//W3C//DTD SVG 1.1//EN"
 "http://www.w3.org/Graphics/SVG/1.1/DTD/svg11.dtd">
<!-- Generated by graphviz version 2.43.0 (0)
 -->
<!-- Title: G Pages: 1 -->
<svg width="595pt" height="420pt"
 viewBox="0.00 0.00 594.70 420.20" xmlns="http://www.w3.org/2000/svg" xmlns:xlink="http://www.w3.org/1999/xlink">
<g id="graph0" class="graph" transform="scale(1 1) rotate(0) translate(21.6 398.6)">
<title>G</title>
<polygon fill="#111111" stroke="transparent" points="-21.6,21.6 -21.6,-398.6 573.1,-398.6 573.1,21.6 -21.6,21.6"/>
<!-- src/app.ts -->
<g id="node1" class="node">
<title>src/app.ts</title>
<path fill="none" stroke="#c6c5fe" d="M242.33,-318C242.33,-318 182.67,-318 182.67,-318 178.83,-318 175,-314.17 175,-310.33 175,-310.33 175,-302.67 175,-302.67 175,-298.83 178.83,-295 182.67,-295 182.67,-295 242.33,-295 242.33,-295 246.17,-295 250,-298.83 250,-302.67 250,-302.67 250,-310.33 250,-310.33 250,-314.17 246.17,-318 242.33,-318"/>
<text text-anchor="middle" x="212.5" y="-302.8" font-family="Arial" font-size="14.00" fill="#c6c5fe">src/app.ts</text>
</g>
<!-- src/expressions/grouped&#45;expressions.ts -->
<g id="node2" class="node">
<title>src/expressions/grouped&#45;expressions.ts</title>
<path fill="none" stroke="#c6c5fe" d="M409.83,-259C409.83,-259 171.17,-259 171.17,-259 167.33,-259 163.5,-255.17 163.5,-251.33 163.5,-251.33 163.5,-243.67 163.5,-243.67 163.5,-239.83 167.33,-236 171.17,-236 171.17,-236 409.83,-236 409.83,-236 413.67,-236 417.5,-239.83 417.5,-243.67 417.5,-243.67 417.5,-251.33 417.5,-251.33 417.5,-255.17 413.67,-259 409.83,-259"/>
<text text-anchor="middle" x="290.5" y="-243.8" font-family="Arial" font-size="14.00" fill="#c6c5fe">src/expressions/grouped&#45;expressions.ts</text>
</g>
<!-- src/app.ts&#45;&gt;src/expressions/grouped&#45;expressions.ts -->
<g id="edge1" class="edge">
<title>src/app.ts&#45;&gt;src/expressions/grouped&#45;expressions.ts</title>
<path fill="none" stroke="#757575" d="M212.5,-294.84C212.5,-294.84 212.5,-269.13 212.5,-269.13"/>
<polygon fill="#757575" stroke="#757575" points="216,-269.13 212.5,-259.13 209,-269.13 216,-269.13"/>
</g>
<!-- src/expressions/handlers.ts -->
<g id="node3" class="node">
<title>src/expressions/handlers.ts</title>
<path fill="none" stroke="#c6c5fe" d="M264.83,-200C264.83,-200 100.17,-200 100.17,-200 96.33,-200 92.5,-196.17 92.5,-192.33 92.5,-192.33 92.5,-184.67 92.5,-184.67 92.5,-180.83 96.33,-177 100.17,-177 100.17,-177 264.83,-177 264.83,-177 268.67,-177 272.5,-180.83 272.5,-184.67 272.5,-184.67 272.5,-192.33 272.5,-192.33 272.5,-196.17 268.67,-200 264.83,-200"/>
<text text-anchor="middle" x="182.5" y="-184.8" font-family="Arial" font-size="14.00" fill="#c6c5fe">src/expressions/handlers.ts</text>
</g>
<!-- src/app.ts&#45;&gt;src/expressions/handlers.ts -->
<g id="edge2" class="edge">
<title>src/app.ts&#45;&gt;src/expressions/handlers.ts</title>
<path fill="none" stroke="#757575" d="M174.61,-300C153.73,-300 132,-300 132,-300 132,-300 132,-210.01 132,-210.01"/>
<polygon fill="#757575" stroke="#757575" points="135.5,-210.01 132,-200.01 128.5,-210.01 135.5,-210.01"/>
</g>
<!-- src/loop.ts -->
<g id="node4" class="node">
<title>src/loop.ts</title>
<path fill="none" stroke="#cfffac" d="M543.83,-259C543.83,-259 481.17,-259 481.17,-259 477.33,-259 473.5,-255.17 473.5,-251.33 473.5,-251.33 473.5,-243.67 473.5,-243.67 473.5,-239.83 477.33,-236 481.17,-236 481.17,-236 543.83,-236 543.83,-236 547.67,-236 551.5,-239.83 551.5,-243.67 551.5,-243.67 551.5,-251.33 551.5,-251.33 551.5,-255.17 547.67,-259 543.83,-259"/>
<text text-anchor="middle" x="512.5" y="-243.8" font-family="Arial" font-size="14.00" fill="#cfffac">src/loop.ts</text>
</g>
<!-- src/app.ts&#45;&gt;src/loop.ts -->
<g id="edge3" class="edge">
<title>src/app.ts&#45;&gt;src/loop.ts</title>
<path fill="none" stroke="#757575" d="M250.19,-310C330.77,-310 512.5,-310 512.5,-310 512.5,-310 512.5,-269.26 512.5,-269.26"/>
<polygon fill="#757575" stroke="#757575" points="516,-269.26 512.5,-259.26 509,-269.26 516,-269.26"/>
</g>
<!-- src/match.ts -->
<g id="node5" class="node">
<title>src/match.ts</title>
<path fill="none" stroke="#cfffac" d="M426.83,-200C426.83,-200 352.17,-200 352.17,-200 348.33,-200 344.5,-196.17 344.5,-192.33 344.5,-192.33 344.5,-184.67 344.5,-184.67 344.5,-180.83 348.33,-177 352.17,-177 352.17,-177 426.83,-177 426.83,-177 430.67,-177 434.5,-180.83 434.5,-184.67 434.5,-184.67 434.5,-192.33 434.5,-192.33 434.5,-196.17 430.67,-200 426.83,-200"/>
<text text-anchor="middle" x="389.5" y="-184.8" font-family="Arial" font-size="14.00" fill="#cfffac">src/match.ts</text>
</g>
<!-- src/app.ts&#45;&gt;src/match.ts -->
<g id="edge4" class="edge">
<title>src/app.ts&#45;&gt;src/match.ts</title>
<path fill="none" stroke="#757575" d="M250.18,-302C311.47,-302 426,-302 426,-302 426,-302 426,-210.22 426,-210.22"/>
<polygon fill="#757575" stroke="#757575" points="429.5,-210.22 426,-200.22 422.5,-210.22 429.5,-210.22"/>
</g>
<!-- src/parser.ts -->
<g id="node6" class="node">
<title>src/parser.ts</title>
<path fill="none" stroke="#c6c5fe" d="M137.83,-82C137.83,-82 63.17,-82 63.17,-82 59.33,-82 55.5,-78.17 55.5,-74.33 55.5,-74.33 55.5,-66.67 55.5,-66.67 55.5,-62.83 59.33,-59 63.17,-59 63.17,-59 137.83,-59 137.83,-59 141.67,-59 145.5,-62.83 145.5,-66.67 145.5,-66.67 145.5,-74.33 145.5,-74.33 145.5,-78.17 141.67,-82 137.83,-82"/>
<text text-anchor="middle" x="100.5" y="-66.8" font-family="Arial" font-size="14.00" fill="#c6c5fe">src/parser.ts</text>
</g>
<!-- src/app.ts&#45;&gt;src/parser.ts -->
<g id="edge5" class="edge">
<title>src/app.ts&#45;&gt;src/parser.ts</title>
<path fill="none" stroke="#757575" d="M175,-312C113.99,-312 0,-312 0,-312 0,-312 0,-70 0,-70 0,-70 45.25,-70 45.25,-70"/>
<polygon fill="#757575" stroke="#757575" points="45.25,-73.5 55.25,-70 45.25,-66.5 45.25,-73.5"/>
</g>
<!-- src/scope.ts -->
<g id="node7" class="node">
<title>src/scope.ts</title>
<path fill="none" stroke="#c6c5fe" d="M99.33,-259C99.33,-259 25.67,-259 25.67,-259 21.83,-259 18,-255.17 18,-251.33 18,-251.33 18,-243.67 18,-243.67 18,-239.83 21.83,-236 25.67,-236 25.67,-236 99.33,-236 99.33,-236 103.17,-236 107,-239.83 107,-243.67 107,-243.67 107,-251.33 107,-251.33 107,-255.17 103.17,-259 99.33,-259"/>
<text text-anchor="middle" x="62.5" y="-243.8" font-family="Arial" font-size="14.00" fill="#c6c5fe">src/scope.ts</text>
</g>
<!-- src/app.ts&#45;&gt;src/scope.ts -->
<g id="edge6" class="edge">
<title>src/app.ts&#45;&gt;src/scope.ts</title>
<path fill="none" stroke="#757575" d="M174.65,-306C130.21,-306 62.5,-306 62.5,-306 62.5,-306 62.5,-269.06 62.5,-269.06"/>
<polygon fill="#757575" stroke="#757575" points="66,-269.06 62.5,-259.06 59,-269.06 66,-269.06"/>
</g>
<!-- src/expressions/grouped&#45;expressions.ts&#45;&gt;src/expressions/handlers.ts -->
<g id="edge7" class="edge">
<title>src/expressions/grouped&#45;expressions.ts&#45;&gt;src/expressions/handlers.ts</title>
<path fill="none" stroke="#757575" d="M218,-235.84C218,-235.84 218,-210.13 218,-210.13"/>
<polygon fill="#757575" stroke="#757575" points="221.5,-210.13 218,-200.13 214.5,-210.13 221.5,-210.13"/>
</g>
<!-- src/expressions/grouped&#45;expressions.ts&#45;&gt;src/match.ts -->
<g id="edge8" class="edge">
<title>src/expressions/grouped&#45;expressions.ts&#45;&gt;src/match.ts</title>
<path fill="none" stroke="#757575" d="M381,-235.84C381,-235.84 381,-210.13 381,-210.13"/>
<polygon fill="#757575" stroke="#757575" points="384.5,-210.13 381,-200.13 377.5,-210.13 384.5,-210.13"/>
</g>
<!-- src/expressions/handlers.ts&#45;&gt;src/parser.ts -->
<g id="edge10" class="edge">
<title>src/expressions/handlers.ts&#45;&gt;src/parser.ts</title>
<path fill="none" stroke="#757575" d="M111.5,-176.75C111.5,-176.75 111.5,-92.2 111.5,-92.2"/>
<polygon fill="#757575" stroke="#757575" points="115,-92.2 111.5,-82.2 108,-92.2 115,-92.2"/>
</g>
<!-- src/operators.ts -->
<g id="node8" class="node">
<title>src/operators.ts</title>
<path fill="none" stroke="#c6c5fe" d="M232.83,-141C232.83,-141 138.17,-141 138.17,-141 134.33,-141 130.5,-137.17 130.5,-133.33 130.5,-133.33 130.5,-125.67 130.5,-125.67 130.5,-121.83 134.33,-118 138.17,-118 138.17,-118 232.83,-118 232.83,-118 236.67,-118 240.5,-121.83 240.5,-125.67 240.5,-125.67 240.5,-133.33 240.5,-133.33 240.5,-137.17 236.67,-141 232.83,-141"/>
<text text-anchor="middle" x="185.5" y="-125.8" font-family="Arial" font-size="14.00" fill="#c6c5fe">src/operators.ts</text>
</g>
<!-- src/expressions/handlers.ts&#45;&gt;src/operators.ts -->
<g id="edge9" class="edge">
<title>src/expressions/handlers.ts&#45;&gt;src/operators.ts</title>
<path fill="none" stroke="#757575" d="M185.5,-176.84C185.5,-176.84 185.5,-151.13 185.5,-151.13"/>
<polygon fill="#757575" stroke="#757575" points="189,-151.13 185.5,-141.13 182,-151.13 189,-151.13"/>
</g>
<!-- src/types.ts -->
<g id="node9" class="node">
<title>src/types.ts</title>
<path fill="none" stroke="#cfffac" d="M135.33,-23C135.33,-23 65.67,-23 65.67,-23 61.83,-23 58,-19.17 58,-15.33 58,-15.33 58,-7.67 58,-7.67 58,-3.83 61.83,0 65.67,0 65.67,0 135.33,0 135.33,0 139.17,0 143,-3.83 143,-7.67 143,-7.67 143,-15.33 143,-15.33 143,-19.17 139.17,-23 135.33,-23"/>
<text text-anchor="middle" x="100.5" y="-7.8" font-family="Arial" font-size="14.00" fill="#cfffac">src/types.ts</text>
</g>
<!-- src/parser.ts&#45;&gt;src/types.ts -->
<g id="edge13" class="edge">
<title>src/parser.ts&#45;&gt;src/types.ts</title>
<path fill="none" stroke="#757575" d="M100.5,-58.84C100.5,-58.84 100.5,-33.13 100.5,-33.13"/>
<polygon fill="#757575" stroke="#757575" points="104,-33.13 100.5,-23.13 97,-33.13 104,-33.13"/>
</g>
<!-- src/scope.ts&#45;&gt;src/expressions/handlers.ts -->
<g id="edge14" class="edge">
<title>src/scope.ts&#45;&gt;src/expressions/handlers.ts</title>
<path fill="none" stroke="#757575" d="M99.75,-235.84C99.75,-235.84 99.75,-210.13 99.75,-210.13"/>
<polygon fill="#757575" stroke="#757575" points="103.25,-210.13 99.75,-200.13 96.25,-210.13 103.25,-210.13"/>
</g>
<!-- src/scope.ts&#45;&gt;src/parser.ts -->
<g id="edge15" class="edge">
<title>src/scope.ts&#45;&gt;src/parser.ts</title>
<path fill="none" stroke="#757575" d="M74,-235.89C74,-235.89 74,-92.39 74,-92.39"/>
<polygon fill="#757575" stroke="#757575" points="77.5,-92.39 74,-82.39 70.5,-92.39 77.5,-92.39"/>
</g>
<!-- src/scope.ts&#45;&gt;src/types.ts -->
<g id="edge16" class="edge">
<title>src/scope.ts&#45;&gt;src/types.ts</title>
<path fill="none" stroke="#757575" d="M36.75,-235.77C36.75,-188.05 36.75,-11 36.75,-11 36.75,-11 47.98,-11 47.98,-11"/>
<polygon fill="#757575" stroke="#757575" points="47.98,-14.5 57.98,-11 47.98,-7.5 47.98,-14.5"/>
</g>
<!-- src/operators.ts&#45;&gt;src/parser.ts -->
<g id="edge11" class="edge">
<title>src/operators.ts&#45;&gt;src/parser.ts</title>
<path fill="none" stroke="#757575" d="M138,-117.84C138,-117.84 138,-92.13 138,-92.13"/>
<polygon fill="#757575" stroke="#757575" points="141.5,-92.13 138,-82.13 134.5,-92.13 141.5,-92.13"/>
</g>
<!-- src/operators.ts&#45;&gt;src/types.ts -->
<g id="edge12" class="edge">
<title>src/operators.ts&#45;&gt;src/types.ts</title>
<path fill="none" stroke="#757575" d="M193,-117.7C193,-87.73 193,-11 193,-11 193,-11 153.23,-11 153.23,-11"/>
<polygon fill="#757575" stroke="#757575" points="153.23,-7.5 143.23,-11 153.23,-14.5 153.23,-7.5"/>
</g>
<!-- tests/app.test.ts -->
<g id="node10" class="node">
<title>tests/app.test.ts</title>
<path fill="none" stroke="#c6c5fe" d="M260.33,-377C260.33,-377 164.67,-377 164.67,-377 160.83,-377 157,-373.17 157,-369.33 157,-369.33 157,-361.67 157,-361.67 157,-357.83 160.83,-354 164.67,-354 164.67,-354 260.33,-354 260.33,-354 264.17,-354 268,-357.83 268,-361.67 268,-361.67 268,-369.33 268,-369.33 268,-373.17 264.17,-377 260.33,-377"/>
<text text-anchor="middle" x="212.5" y="-361.8" font-family="Arial" font-size="14.00" fill="#c6c5fe">tests/app.test.ts</text>
</g>
<!-- tests/app.test.ts&#45;&gt;src/app.ts -->
<g id="edge17" class="edge">
<title>tests/app.test.ts&#45;&gt;src/app.ts</title>
<path fill="none" stroke="#757575" d="M212.5,-353.84C212.5,-353.84 212.5,-328.13 212.5,-328.13"/>
<polygon fill="#757575" stroke="#757575" points="216,-328.13 212.5,-318.13 209,-328.13 216,-328.13"/>
</g>
</g>
</svg>
