<?xml version="1.0" encoding="UTF-8" standalone="no"?>
<!DOCTYPE svg PUBLIC "-//W3C//DTD SVG 1.1//EN"
 "http://www.w3.org/Graphics/SVG/1.1/DTD/svg11.dtd">
<!-- Generated by graphviz version 2.43.0 (0)
 -->
<!-- Title: G Pages: 1 -->
<svg width="1478pt" height="479pt"
 viewBox="0.00 0.00 1477.70 479.20" xmlns="http://www.w3.org/2000/svg" xmlns:xlink="http://www.w3.org/1999/xlink">
<g id="graph0" class="graph" transform="scale(1 1) rotate(0) translate(21.6 457.6)">
<title>G</title>
<polygon fill="#111111" stroke="transparent" points="-21.6,21.6 -21.6,-457.6 1456.1,-457.6 1456.1,21.6 -21.6,21.6"/>
<!-- src/app.ts -->
<g id="node1" class="node">
<title>src/app.ts</title>
<path fill="none" stroke="#c6c5fe" d="M733.83,-318C733.83,-318 674.17,-318 674.17,-318 670.33,-318 666.5,-314.17 666.5,-310.33 666.5,-310.33 666.5,-302.67 666.5,-302.67 666.5,-298.83 670.33,-295 674.17,-295 674.17,-295 733.83,-295 733.83,-295 737.67,-295 741.5,-298.83 741.5,-302.67 741.5,-302.67 741.5,-310.33 741.5,-310.33 741.5,-314.17 737.67,-318 733.83,-318"/>
<text text-anchor="middle" x="704" y="-302.8" font-family="Arial" font-size="14.00" fill="#c6c5fe">src/app.ts</text>
</g>
<!-- src/expressions/binary&#45;operation.ts -->
<g id="node2" class="node">
<title>src/expressions/binary&#45;operation.ts</title>
<path fill="none" stroke="#c6c5fe" d="M970.33,-259C970.33,-259 759.67,-259 759.67,-259 755.83,-259 752,-255.17 752,-251.33 752,-251.33 752,-243.67 752,-243.67 752,-239.83 755.83,-236 759.67,-236 759.67,-236 970.33,-236 970.33,-236 974.17,-236 978,-239.83 978,-243.67 978,-243.67 978,-251.33 978,-251.33 978,-255.17 974.17,-259 970.33,-259"/>
<text text-anchor="middle" x="865" y="-243.8" font-family="Arial" font-size="14.00" fill="#c6c5fe">src/expressions/binary&#45;operation.ts</text>
</g>
<!-- src/app.ts&#45;&gt;src/expressions/binary&#45;operation.ts -->
<g id="edge1" class="edge">
<title>src/app.ts&#45;&gt;src/expressions/binary&#45;operation.ts</title>
<path fill="none" stroke="#757575" d="M741.69,-298C752.05,-298 760.5,-298 760.5,-298 760.5,-298 760.5,-269.21 760.5,-269.21"/>
<polygon fill="#757575" stroke="#757575" points="764,-269.21 760.5,-259.21 757,-269.21 764,-269.21"/>
</g>
<!-- src/expressions/grouped&#45;expressions.ts -->
<g id="node3" class="node">
<title>src/expressions/grouped&#45;expressions.ts</title>
<path fill="none" stroke="#c6c5fe" d="M319.33,-200C319.33,-200 80.67,-200 80.67,-200 76.83,-200 73,-196.17 73,-192.33 73,-192.33 73,-184.67 73,-184.67 73,-180.83 76.83,-177 80.67,-177 80.67,-177 319.33,-177 319.33,-177 323.17,-177 327,-180.83 327,-184.67 327,-184.67 327,-192.33 327,-192.33 327,-196.17 323.17,-200 319.33,-200"/>
<text text-anchor="middle" x="200" y="-184.8" font-family="Arial" font-size="14.00" fill="#c6c5fe">src/expressions/grouped&#45;expressions.ts</text>
</g>
<!-- src/app.ts&#45;&gt;src/expressions/grouped&#45;expressions.ts -->
<g id="edge2" class="edge">
<title>src/app.ts&#45;&gt;src/expressions/grouped&#45;expressions.ts</title>
<path fill="none" stroke="#757575" d="M666.12,-306C548.91,-306 200,-306 200,-306 200,-306 200,-210.2 200,-210.2"/>
<polygon fill="#757575" stroke="#757575" points="203.5,-210.2 200,-200.2 196.5,-210.2 203.5,-210.2"/>
</g>
<!-- src/expressions/handlers.ts -->
<g id="node4" class="node">
<title>src/expressions/handlers.ts</title>
<path fill="none" stroke="#cfffac" d="M738.33,-23C738.33,-23 573.67,-23 573.67,-23 569.83,-23 566,-19.17 566,-15.33 566,-15.33 566,-7.67 566,-7.67 566,-3.83 569.83,0 573.67,0 573.67,0 738.33,0 738.33,0 742.17,0 746,-3.83 746,-7.67 746,-7.67 746,-15.33 746,-15.33 746,-19.17 742.17,-23 738.33,-23"/>
<text text-anchor="middle" x="656" y="-7.8" font-family="Arial" font-size="14.00" fill="#cfffac">src/expressions/handlers.ts</text>
</g>
<!-- src/app.ts&#45;&gt;src/expressions/handlers.ts -->
<g id="edge3" class="edge">
<title>src/app.ts&#45;&gt;src/expressions/handlers.ts</title>
<path fill="none" stroke="#757575" d="M699.5,-294.94C699.5,-294.94 699.5,-33.3 699.5,-33.3"/>
<polygon fill="#757575" stroke="#757575" points="703,-33.3 699.5,-23.3 696,-33.31 703,-33.3"/>
</g>
<!-- src/functions.ts -->
<g id="node5" class="node">
<title>src/functions.ts</title>
<path fill="none" stroke="#c6c5fe" d="M429.83,-141C429.83,-141 338.17,-141 338.17,-141 334.33,-141 330.5,-137.17 330.5,-133.33 330.5,-133.33 330.5,-125.67 330.5,-125.67 330.5,-121.83 334.33,-118 338.17,-118 338.17,-118 429.83,-118 429.83,-118 433.67,-118 437.5,-121.83 437.5,-125.67 437.5,-125.67 437.5,-133.33 437.5,-133.33 437.5,-137.17 433.67,-141 429.83,-141"/>
<text text-anchor="middle" x="384" y="-125.8" font-family="Arial" font-size="14.00" fill="#c6c5fe">src/functions.ts</text>
</g>
<!-- src/app.ts&#45;&gt;src/functions.ts -->
<g id="edge4" class="edge">
<title>src/app.ts&#45;&gt;src/functions.ts</title>
<path fill="none" stroke="#757575" d="M666.35,-300C581.76,-300 384,-300 384,-300 384,-300 384,-151.22 384,-151.22"/>
<polygon fill="#757575" stroke="#757575" points="387.5,-151.22 384,-141.22 380.5,-151.22 387.5,-151.22"/>
</g>
<!-- src/loops/for.ts -->
<g id="node6" class="node">
<title>src/loops/for.ts</title>
<path fill="none" stroke="#c6c5fe" d="M1268.33,-259C1268.33,-259 1179.67,-259 1179.67,-259 1175.83,-259 1172,-255.17 1172,-251.33 1172,-251.33 1172,-243.67 1172,-243.67 1172,-239.83 1175.83,-236 1179.67,-236 1179.67,-236 1268.33,-236 1268.33,-236 1272.17,-236 1276,-239.83 1276,-243.67 1276,-243.67 1276,-251.33 1276,-251.33 1276,-255.17 1272.17,-259 1268.33,-259"/>
<text text-anchor="middle" x="1224" y="-243.8" font-family="Arial" font-size="14.00" fill="#c6c5fe">src/loops/for.ts</text>
</g>
<!-- src/app.ts&#45;&gt;src/loops/for.ts -->
<g id="edge5" class="edge">
<title>src/app.ts&#45;&gt;src/loops/for.ts</title>
<path fill="none" stroke="#757575" d="M741.82,-314C861.48,-314 1224,-314 1224,-314 1224,-314 1224,-269.08 1224,-269.08"/>
<polygon fill="#757575" stroke="#757575" points="1227.5,-269.08 1224,-259.08 1220.5,-269.08 1227.5,-269.08"/>
</g>
<!-- src/loops/loop.ts -->
<g id="node7" class="node">
<title>src/loops/loop.ts</title>
<path fill="none" stroke="#cfffac" d="M1136.33,-200C1136.33,-200 1037.67,-200 1037.67,-200 1033.83,-200 1030,-196.17 1030,-192.33 1030,-192.33 1030,-184.67 1030,-184.67 1030,-180.83 1033.83,-177 1037.67,-177 1037.67,-177 1136.33,-177 1136.33,-177 1140.17,-177 1144,-180.83 1144,-184.67 1144,-184.67 1144,-192.33 1144,-192.33 1144,-196.17 1140.17,-200 1136.33,-200"/>
<text text-anchor="middle" x="1087" y="-184.8" font-family="Arial" font-size="14.00" fill="#cfffac">src/loops/loop.ts</text>
</g>
<!-- src/app.ts&#45;&gt;src/loops/loop.ts -->
<g id="edge6" class="edge">
<title>src/app.ts&#45;&gt;src/loops/loop.ts</title>
<path fill="none" stroke="#757575" d="M741.69,-306C822.27,-306 1004,-306 1004,-306 1004,-306 1004,-188 1004,-188 1004,-188 1019.81,-188 1019.81,-188"/>
<polygon fill="#757575" stroke="#757575" points="1019.81,-191.5 1029.81,-188 1019.81,-184.5 1019.81,-191.5"/>
</g>
<!-- src/loops/while.ts -->
<g id="node8" class="node">
<title>src/loops/while.ts</title>
<path fill="none" stroke="#c6c5fe" d="M1145.83,-259C1145.83,-259 1042.17,-259 1042.17,-259 1038.33,-259 1034.5,-255.17 1034.5,-251.33 1034.5,-251.33 1034.5,-243.67 1034.5,-243.67 1034.5,-239.83 1038.33,-236 1042.17,-236 1042.17,-236 1145.83,-236 1145.83,-236 1149.67,-236 1153.5,-239.83 1153.5,-243.67 1153.5,-243.67 1153.5,-251.33 1153.5,-251.33 1153.5,-255.17 1149.67,-259 1145.83,-259"/>
<text text-anchor="middle" x="1094" y="-243.8" font-family="Arial" font-size="14.00" fill="#c6c5fe">src/loops/while.ts</text>
</g>
<!-- src/app.ts&#45;&gt;src/loops/while.ts -->
<g id="edge7" class="edge">
<title>src/app.ts&#45;&gt;src/loops/while.ts</title>
<path fill="none" stroke="#757575" d="M741.75,-310C839.62,-310 1094,-310 1094,-310 1094,-310 1094,-269.26 1094,-269.26"/>
<polygon fill="#757575" stroke="#757575" points="1097.5,-269.26 1094,-259.26 1090.5,-269.26 1097.5,-269.26"/>
</g>
<!-- src/match.ts -->
<g id="node9" class="node">
<title>src/match.ts</title>
<path fill="none" stroke="#cfffac" d="M82.33,-141C82.33,-141 7.67,-141 7.67,-141 3.83,-141 0,-137.17 0,-133.33 0,-133.33 0,-125.67 0,-125.67 0,-121.83 3.83,-118 7.67,-118 7.67,-118 82.33,-118 82.33,-118 86.17,-118 90,-121.83 90,-125.67 90,-125.67 90,-133.33 90,-133.33 90,-137.17 86.17,-141 82.33,-141"/>
<text text-anchor="middle" x="45" y="-125.8" font-family="Arial" font-size="14.00" fill="#cfffac">src/match.ts</text>
</g>
<!-- src/app.ts&#45;&gt;src/match.ts -->
<g id="edge8" class="edge">
<title>src/app.ts&#45;&gt;src/match.ts</title>
<path fill="none" stroke="#757575" d="M666.2,-312C524.99,-312 36.5,-312 36.5,-312 36.5,-312 36.5,-151.19 36.5,-151.19"/>
<polygon fill="#757575" stroke="#757575" points="40,-151.19 36.5,-141.19 33,-151.19 40,-151.19"/>
</g>
<!-- src/parser.ts -->
<g id="node10" class="node">
<title>src/parser.ts</title>
<path fill="none" stroke="#c6c5fe" d="M823.33,-141C823.33,-141 748.67,-141 748.67,-141 744.83,-141 741,-137.17 741,-133.33 741,-133.33 741,-125.67 741,-125.67 741,-121.83 744.83,-118 748.67,-118 748.67,-118 823.33,-118 823.33,-118 827.17,-118 831,-121.83 831,-125.67 831,-125.67 831,-133.33 831,-133.33 831,-137.17 827.17,-141 823.33,-141"/>
<text text-anchor="middle" x="786" y="-125.8" font-family="Arial" font-size="14.00" fill="#c6c5fe">src/parser.ts</text>
</g>
<!-- src/app.ts&#45;&gt;src/parser.ts -->
<g id="edge9" class="edge">
<title>src/app.ts&#45;&gt;src/parser.ts</title>
<path fill="none" stroke="#757575" d="M741.55,-302C745.72,-302 748.5,-302 748.5,-302 748.5,-302 748.5,-151.09 748.5,-151.09"/>
<polygon fill="#757575" stroke="#757575" points="752,-151.09 748.5,-141.09 745,-151.09 752,-151.09"/>
</g>
<!-- src/scope.ts -->
<g id="node11" class="node">
<title>src/scope.ts</title>
<path fill="none" stroke="#c6c5fe" d="M687.83,-200C687.83,-200 614.17,-200 614.17,-200 610.33,-200 606.5,-196.17 606.5,-192.33 606.5,-192.33 606.5,-184.67 606.5,-184.67 606.5,-180.83 610.33,-177 614.17,-177 614.17,-177 687.83,-177 687.83,-177 691.67,-177 695.5,-180.83 695.5,-184.67 695.5,-184.67 695.5,-192.33 695.5,-192.33 695.5,-196.17 691.67,-200 687.83,-200"/>
<text text-anchor="middle" x="651" y="-184.8" font-family="Arial" font-size="14.00" fill="#c6c5fe">src/scope.ts</text>
</g>
<!-- src/app.ts&#45;&gt;src/scope.ts -->
<g id="edge10" class="edge">
<title>src/app.ts&#45;&gt;src/scope.ts</title>
<path fill="none" stroke="#757575" d="M681,-294.75C681,-294.75 681,-210.2 681,-210.2"/>
<polygon fill="#757575" stroke="#757575" points="684.5,-210.2 681,-200.2 677.5,-210.2 684.5,-210.2"/>
</g>
<!-- src/types/structs.ts -->
<g id="node12" class="node">
<title>src/types/structs.ts</title>
<path fill="none" stroke="#c6c5fe" d="M304.33,-141C304.33,-141 191.67,-141 191.67,-141 187.83,-141 184,-137.17 184,-133.33 184,-133.33 184,-125.67 184,-125.67 184,-121.83 187.83,-118 191.67,-118 191.67,-118 304.33,-118 304.33,-118 308.17,-118 312,-121.83 312,-125.67 312,-125.67 312,-133.33 312,-133.33 312,-137.17 308.17,-141 304.33,-141"/>
<text text-anchor="middle" x="248" y="-125.8" font-family="Arial" font-size="14.00" fill="#c6c5fe">src/types/structs.ts</text>
</g>
<!-- src/app.ts&#45;&gt;src/types/structs.ts -->
<g id="edge11" class="edge">
<title>src/app.ts&#45;&gt;src/types/structs.ts</title>
<path fill="none" stroke="#757575" d="M711,-294.92C711,-261.13 711,-165 711,-165 711,-165 248,-165 248,-165 248,-165 248,-151.12 248,-151.12"/>
<polygon fill="#757575" stroke="#757575" points="251.5,-151.12 248,-141.12 244.5,-151.12 251.5,-151.12"/>
</g>
<!-- src/types/type&#45;declarations.ts -->
<g id="node13" class="node">
<title>src/types/type&#45;declarations.ts</title>
<path fill="none" stroke="#c6c5fe" d="M638.83,-141C638.83,-141 463.17,-141 463.17,-141 459.33,-141 455.5,-137.17 455.5,-133.33 455.5,-133.33 455.5,-125.67 455.5,-125.67 455.5,-121.83 459.33,-118 463.17,-118 463.17,-118 638.83,-118 638.83,-118 642.67,-118 646.5,-121.83 646.5,-125.67 646.5,-125.67 646.5,-133.33 646.5,-133.33 646.5,-137.17 642.67,-141 638.83,-141"/>
<text text-anchor="middle" x="551" y="-125.8" font-family="Arial" font-size="14.00" fill="#c6c5fe">src/types/type&#45;declarations.ts</text>
</g>
<!-- src/app.ts&#45;&gt;src/types/type&#45;declarations.ts -->
<g id="edge12" class="edge">
<title>src/app.ts&#45;&gt;src/types/type&#45;declarations.ts</title>
<path fill="none" stroke="#757575" d="M697.5,-294.85C697.5,-255.95 697.5,-133 697.5,-133 697.5,-133 656.67,-133 656.67,-133"/>
<polygon fill="#757575" stroke="#757575" points="656.67,-129.5 646.67,-133 656.67,-136.5 656.67,-129.5"/>
</g>
<!-- src/expressions/binary&#45;operation.ts&#45;&gt;src/expressions/handlers.ts -->
<g id="edge14" class="edge">
<title>src/expressions/binary&#45;operation.ts&#45;&gt;src/expressions/handlers.ts</title>
<path fill="none" stroke="#757575" d="M751.89,-247C723.78,-247 701.5,-247 701.5,-247 701.5,-247 701.5,-33.18 701.5,-33.18"/>
<polygon fill="#757575" stroke="#757575" points="705,-33.18 701.5,-23.18 698,-33.18 705,-33.18"/>
</g>
<!-- src/expressions/binary&#45;operation.ts&#45;&gt;src/parser.ts -->
<g id="edge16" class="edge">
<title>src/expressions/binary&#45;operation.ts&#45;&gt;src/parser.ts</title>
<path fill="none" stroke="#757575" d="M770.75,-235.75C770.75,-235.75 770.75,-151.2 770.75,-151.2"/>
<polygon fill="#757575" stroke="#757575" points="774.25,-151.2 770.75,-141.2 767.25,-151.2 774.25,-151.2"/>
</g>
<!-- src/expressions/operators.ts -->
<g id="node15" class="node">
<title>src/expressions/operators.ts</title>
<path fill="none" stroke="#c6c5fe" d="M966.83,-200C966.83,-200 797.17,-200 797.17,-200 793.33,-200 789.5,-196.17 789.5,-192.33 789.5,-192.33 789.5,-184.67 789.5,-184.67 789.5,-180.83 793.33,-177 797.17,-177 797.17,-177 966.83,-177 966.83,-177 970.67,-177 974.5,-180.83 974.5,-184.67 974.5,-184.67 974.5,-192.33 974.5,-192.33 974.5,-196.17 970.67,-200 966.83,-200"/>
<text text-anchor="middle" x="882" y="-184.8" font-family="Arial" font-size="14.00" fill="#c6c5fe">src/expressions/operators.ts</text>
</g>
<!-- src/expressions/binary&#45;operation.ts&#45;&gt;src/expressions/operators.ts -->
<g id="edge15" class="edge">
<title>src/expressions/binary&#45;operation.ts&#45;&gt;src/expressions/operators.ts</title>
<path fill="none" stroke="#757575" d="M882,-235.84C882,-235.84 882,-210.13 882,-210.13"/>
<polygon fill="#757575" stroke="#757575" points="885.5,-210.13 882,-200.13 878.5,-210.13 885.5,-210.13"/>
</g>
<!-- src/expressions/grouped&#45;expressions.ts&#45;&gt;src/expressions/handlers.ts -->
<g id="edge17" class="edge">
<title>src/expressions/grouped&#45;expressions.ts&#45;&gt;src/expressions/handlers.ts</title>
<path fill="none" stroke="#757575" d="M137,-176.87C137,-136.81 137,-7 137,-7 137,-7 555.89,-7 555.89,-7"/>
<polygon fill="#757575" stroke="#757575" points="555.89,-10.5 565.89,-7 555.89,-3.5 555.89,-10.5"/>
</g>
<!-- src/expressions/grouped&#45;expressions.ts&#45;&gt;src/match.ts -->
<g id="edge18" class="edge">
<title>src/expressions/grouped&#45;expressions.ts&#45;&gt;src/match.ts</title>
<path fill="none" stroke="#757575" d="M81.5,-176.84C81.5,-176.84 81.5,-151.13 81.5,-151.13"/>
<polygon fill="#757575" stroke="#757575" points="85,-151.13 81.5,-141.13 78,-151.13 85,-151.13"/>
</g>
<!-- src/expressions/grouped&#45;expressions.ts&#45;&gt;src/types/structs.ts -->
<g id="edge19" class="edge">
<title>src/expressions/grouped&#45;expressions.ts&#45;&gt;src/types/structs.ts</title>
<path fill="none" stroke="#757575" d="M216,-176.84C216,-176.84 216,-151.13 216,-151.13"/>
<polygon fill="#757575" stroke="#757575" points="219.5,-151.13 216,-141.13 212.5,-151.13 219.5,-151.13"/>
</g>
<!-- src/utils/identifier&#45;utils.ts -->
<g id="node16" class="node">
<title>src/utils/identifier&#45;utils.ts</title>
<path fill="none" stroke="#cfffac" d="M444.33,-82C444.33,-82 299.67,-82 299.67,-82 295.83,-82 292,-78.17 292,-74.33 292,-74.33 292,-66.67 292,-66.67 292,-62.83 295.83,-59 299.67,-59 299.67,-59 444.33,-59 444.33,-59 448.17,-59 452,-62.83 452,-66.67 452,-66.67 452,-74.33 452,-74.33 452,-78.17 448.17,-82 444.33,-82"/>
<text text-anchor="middle" x="372" y="-66.8" font-family="Arial" font-size="14.00" fill="#cfffac">src/utils/identifier&#45;utils.ts</text>
</g>
<!-- src/expressions/grouped&#45;expressions.ts&#45;&gt;src/utils/identifier&#45;utils.ts -->
<g id="edge20" class="edge">
<title>src/expressions/grouped&#45;expressions.ts&#45;&gt;src/utils/identifier&#45;utils.ts</title>
<path fill="none" stroke="#757575" d="M319.5,-176.75C319.5,-176.75 319.5,-92.2 319.5,-92.2"/>
<polygon fill="#757575" stroke="#757575" points="323,-92.2 319.5,-82.2 316,-92.2 323,-92.2"/>
</g>
<!-- src/functions.ts&#45;&gt;src/expressions/handlers.ts -->
<g id="edge27" class="edge">
<title>src/functions.ts&#45;&gt;src/expressions/handlers.ts</title>
<path fill="none" stroke="#757575" d="M394.7,-117.8C394.7,-110.7 394.7,-103 394.7,-103 394.7,-103 624.5,-103 624.5,-103 624.5,-103 624.5,-33.09 624.5,-33.09"/>
<polygon fill="#757575" stroke="#757575" points="628,-33.09 624.5,-23.09 621,-33.09 628,-33.09"/>
</g>
<!-- src/declarations.ts -->
<g id="node14" class="node">
<title>src/declarations.ts</title>
<path fill="none" stroke="#c6c5fe" d="M594.83,-82C594.83,-82 485.17,-82 485.17,-82 481.33,-82 477.5,-78.17 477.5,-74.33 477.5,-74.33 477.5,-66.67 477.5,-66.67 477.5,-62.83 481.33,-59 485.17,-59 485.17,-59 594.83,-59 594.83,-59 598.67,-59 602.5,-62.83 602.5,-66.67 602.5,-66.67 602.5,-74.33 602.5,-74.33 602.5,-78.17 598.67,-82 594.83,-82"/>
<text text-anchor="middle" x="540" y="-66.8" font-family="Arial" font-size="14.00" fill="#c6c5fe">src/declarations.ts</text>
</g>
<!-- src/functions.ts&#45;&gt;src/declarations.ts -->
<g id="edge26" class="edge">
<title>src/functions.ts&#45;&gt;src/declarations.ts</title>
<path fill="none" stroke="#757575" d="M373.3,-117.78C373.3,-108.12 373.3,-96 373.3,-96 373.3,-96 540,-96 540,-96 540,-96 540,-92.06 540,-92.06"/>
<polygon fill="#757575" stroke="#757575" points="543.5,-92.06 540,-82.06 536.5,-92.06 543.5,-92.06"/>
</g>
<!-- src/functions.ts&#45;&gt;src/utils/identifier&#45;utils.ts -->
<g id="edge29" class="edge">
<title>src/functions.ts&#45;&gt;src/utils/identifier&#45;utils.ts</title>
<path fill="none" stroke="#757575" d="M351.9,-117.84C351.9,-117.84 351.9,-92.13 351.9,-92.13"/>
<polygon fill="#757575" stroke="#757575" points="355.4,-92.13 351.9,-82.13 348.4,-92.13 355.4,-92.13"/>
</g>
<!-- src/type&#45;utils.ts -->
<g id="node19" class="node">
<title>src/type&#45;utils.ts</title>
<path fill="none" stroke="#cfffac" d="M802.83,-82C802.83,-82 711.17,-82 711.17,-82 707.33,-82 703.5,-78.17 703.5,-74.33 703.5,-74.33 703.5,-66.67 703.5,-66.67 703.5,-62.83 707.33,-59 711.17,-59 711.17,-59 802.83,-59 802.83,-59 806.67,-59 810.5,-62.83 810.5,-66.67 810.5,-66.67 810.5,-74.33 810.5,-74.33 810.5,-78.17 806.67,-82 802.83,-82"/>
<text text-anchor="middle" x="757" y="-66.8" font-family="Arial" font-size="14.00" fill="#cfffac">src/type&#45;utils.ts</text>
</g>
<!-- src/functions.ts&#45;&gt;src/type&#45;utils.ts -->
<g id="edge28" class="edge">
<title>src/functions.ts&#45;&gt;src/type&#45;utils.ts</title>
<path fill="none" stroke="#757575" d="M416.1,-117.93C416.1,-113.73 416.1,-110 416.1,-110 416.1,-110 718.5,-110 718.5,-110 718.5,-110 718.5,-92.14 718.5,-92.14"/>
<polygon fill="#757575" stroke="#757575" points="722,-92.14 718.5,-82.14 715,-92.14 722,-92.14"/>
</g>
<!-- src/loops/for.ts&#45;&gt;src/loops/loop.ts -->
<g id="edge31" class="edge">
<title>src/loops/for.ts&#45;&gt;src/loops/loop.ts</title>
<path fill="none" stroke="#757575" d="M1172,-247C1163.82,-247 1158,-247 1158,-247 1158,-247 1158,-192 1158,-192 1158,-192 1154.31,-192 1154.31,-192"/>
<polygon fill="#757575" stroke="#757575" points="1154.31,-188.5 1144.31,-192 1154.31,-195.5 1154.31,-188.5"/>
</g>
<!-- src/loops/helpers.ts -->
<g id="node20" class="node">
<title>src/loops/helpers.ts</title>
<path fill="none" stroke="#cfffac" d="M1426.83,-200C1426.83,-200 1309.17,-200 1309.17,-200 1305.33,-200 1301.5,-196.17 1301.5,-192.33 1301.5,-192.33 1301.5,-184.67 1301.5,-184.67 1301.5,-180.83 1305.33,-177 1309.17,-177 1309.17,-177 1426.83,-177 1426.83,-177 1430.67,-177 1434.5,-180.83 1434.5,-184.67 1434.5,-184.67 1434.5,-192.33 1434.5,-192.33 1434.5,-196.17 1430.67,-200 1426.83,-200"/>
<text text-anchor="middle" x="1368" y="-184.8" font-family="Arial" font-size="14.00" fill="#cfffac">src/loops/helpers.ts</text>
</g>
<!-- src/loops/for.ts&#45;&gt;src/loops/helpers.ts -->
<g id="edge30" class="edge">
<title>src/loops/for.ts&#45;&gt;src/loops/helpers.ts</title>
<path fill="none" stroke="#757575" d="M1276.12,-247C1324.85,-247 1390.17,-247 1390.17,-247 1390.17,-247 1390.17,-210.06 1390.17,-210.06"/>
<polygon fill="#757575" stroke="#757575" points="1393.67,-210.06 1390.17,-200.06 1386.67,-210.06 1393.67,-210.06"/>
</g>
<!-- src/loops/types.ts -->
<g id="node21" class="node">
<title>src/loops/types.ts</title>
<path fill="none" stroke="#c6c5fe" d="M1275.83,-200C1275.83,-200 1170.17,-200 1170.17,-200 1166.33,-200 1162.5,-196.17 1162.5,-192.33 1162.5,-192.33 1162.5,-184.67 1162.5,-184.67 1162.5,-180.83 1166.33,-177 1170.17,-177 1170.17,-177 1275.83,-177 1275.83,-177 1279.67,-177 1283.5,-180.83 1283.5,-184.67 1283.5,-184.67 1283.5,-192.33 1283.5,-192.33 1283.5,-196.17 1279.67,-200 1275.83,-200"/>
<text text-anchor="middle" x="1223" y="-184.8" font-family="Arial" font-size="14.00" fill="#c6c5fe">src/loops/types.ts</text>
</g>
<!-- src/loops/for.ts&#45;&gt;src/loops/types.ts -->
<g id="edge32" class="edge">
<title>src/loops/for.ts&#45;&gt;src/loops/types.ts</title>
<path fill="none" stroke="#757575" d="M1224,-235.84C1224,-235.84 1224,-210.13 1224,-210.13"/>
<polygon fill="#757575" stroke="#757575" points="1227.5,-210.13 1224,-200.13 1220.5,-210.13 1227.5,-210.13"/>
</g>
<!-- src/loops/while.ts&#45;&gt;src/loops/loop.ts -->
<g id="edge35" class="edge">
<title>src/loops/while.ts&#45;&gt;src/loops/loop.ts</title>
<path fill="none" stroke="#757575" d="M1089.25,-235.84C1089.25,-235.84 1089.25,-210.13 1089.25,-210.13"/>
<polygon fill="#757575" stroke="#757575" points="1092.75,-210.13 1089.25,-200.13 1085.75,-210.13 1092.75,-210.13"/>
</g>
<!-- src/loops/while.ts&#45;&gt;src/loops/helpers.ts -->
<g id="edge34" class="edge">
<title>src/loops/while.ts&#45;&gt;src/loops/helpers.ts</title>
<path fill="none" stroke="#757575" d="M1147.17,-235.84C1147.17,-227.6 1147.17,-218 1147.17,-218 1147.17,-218 1345.83,-218 1345.83,-218 1345.83,-218 1345.83,-210.16 1345.83,-210.16"/>
<polygon fill="#757575" stroke="#757575" points="1349.33,-210.16 1345.83,-200.16 1342.33,-210.16 1349.33,-210.16"/>
</g>
<!-- src/loops/while.ts&#45;&gt;src/loops/types.ts -->
<g id="edge36" class="edge">
<title>src/loops/while.ts&#45;&gt;src/loops/types.ts</title>
<path fill="none" stroke="#757575" d="M1150.33,-235.85C1150.33,-217.52 1150.33,-184 1150.33,-184 1150.33,-184 1152.33,-184 1152.33,-184"/>
<polygon fill="#757575" stroke="#757575" points="1152.33,-187.5 1162.33,-184 1152.33,-180.5 1152.33,-187.5"/>
</g>
<!-- src/parser.ts&#45;&gt;src/type&#45;utils.ts -->
<g id="edge37" class="edge">
<title>src/parser.ts&#45;&gt;src/type&#45;utils.ts</title>
<path fill="none" stroke="#757575" d="M775.75,-117.84C775.75,-117.84 775.75,-92.13 775.75,-92.13"/>
<polygon fill="#757575" stroke="#757575" points="779.25,-92.13 775.75,-82.13 772.25,-92.13 779.25,-92.13"/>
</g>
<!-- src/scope.ts&#45;&gt;src/expressions/handlers.ts -->
<g id="edge38" class="edge">
<title>src/scope.ts&#45;&gt;src/expressions/handlers.ts</title>
<path fill="none" stroke="#757575" d="M671,-176.89C671,-176.89 671,-33.39 671,-33.39"/>
<polygon fill="#757575" stroke="#757575" points="674.5,-33.39 671,-23.39 667.5,-33.39 674.5,-33.39"/>
</g>
<!-- src/scope.ts&#45;&gt;src/parser.ts -->
<g id="edge39" class="edge">
<title>src/scope.ts&#45;&gt;src/parser.ts</title>
<path fill="none" stroke="#757575" d="M695.52,-192C719.82,-192 745,-192 745,-192 745,-192 745,-151.26 745,-151.26"/>
<polygon fill="#757575" stroke="#757575" points="748.5,-151.26 745,-141.26 741.5,-151.26 748.5,-151.26"/>
</g>
<!-- src/scope.ts&#45;&gt;src/type&#45;utils.ts -->
<g id="edge40" class="edge">
<title>src/scope.ts&#45;&gt;src/type&#45;utils.ts</title>
<path fill="none" stroke="#757575" d="M695.63,-184C715.07,-184 733.5,-184 733.5,-184 733.5,-184 733.5,-92.22 733.5,-92.22"/>
<polygon fill="#757575" stroke="#757575" points="737,-92.22 733.5,-82.22 730,-92.22 737,-92.22"/>
</g>
<!-- src/types/structs.ts&#45;&gt;src/expressions/handlers.ts -->
<g id="edge42" class="edge">
<title>src/types/structs.ts&#45;&gt;src/expressions/handlers.ts</title>
<path fill="none" stroke="#757575" d="M238,-117.68C238,-88.42 238,-15 238,-15 238,-15 555.81,-15 555.81,-15"/>
<polygon fill="#757575" stroke="#757575" points="555.81,-18.5 565.81,-15 555.81,-11.5 555.81,-18.5"/>
</g>
<!-- src/types/structs.ts&#45;&gt;src/declarations.ts -->
<g id="edge41" class="edge">
<title>src/types/structs.ts&#45;&gt;src/declarations.ts</title>
<path fill="none" stroke="#757575" d="M302,-117.57C302,-105.62 302,-89 302,-89 302,-89 508.75,-89 508.75,-89 508.75,-89 508.75,-88.33 508.75,-88.33"/>
<polygon fill="#757575" stroke="#757575" points="512.25,-92.32 508.75,-82.32 505.25,-92.32 512.25,-92.32"/>
</g>
<!-- src/types/type&#45;declarations.ts&#45;&gt;src/declarations.ts -->
<g id="edge43" class="edge">
<title>src/types/type&#45;declarations.ts&#45;&gt;src/declarations.ts</title>
<path fill="none" stroke="#757575" d="M571.25,-117.84C571.25,-117.84 571.25,-92.13 571.25,-92.13"/>
<polygon fill="#757575" stroke="#757575" points="574.75,-92.13 571.25,-82.13 567.75,-92.13 574.75,-92.13"/>
</g>
<!-- src/types/type&#45;declarations.ts&#45;&gt;src/type&#45;utils.ts -->
<g id="edge44" class="edge">
<title>src/types/type&#45;declarations.ts&#45;&gt;src/type&#45;utils.ts</title>
<path fill="none" stroke="#757575" d="M646.69,-125C687.55,-125 726,-125 726,-125 726,-125 726,-92.06 726,-92.06"/>
<polygon fill="#757575" stroke="#757575" points="729.5,-92.06 726,-82.06 722.5,-92.06 729.5,-92.06"/>
</g>
<!-- src/declarations.ts&#45;&gt;src/expressions/handlers.ts -->
<g id="edge13" class="edge">
<title>src/declarations.ts&#45;&gt;src/expressions/handlers.ts</title>
<path fill="none" stroke="#757575" d="M584.25,-58.84C584.25,-58.84 584.25,-33.13 584.25,-33.13"/>
<polygon fill="#757575" stroke="#757575" points="587.75,-33.13 584.25,-23.13 580.75,-33.13 587.75,-33.13"/>
</g>
<!-- src/expressions/operators.ts&#45;&gt;src/parser.ts -->
<g id="edge23" class="edge">
<title>src/expressions/operators.ts&#45;&gt;src/parser.ts</title>
<path fill="none" stroke="#757575" d="M817.17,-176.84C817.17,-176.84 817.17,-151.13 817.17,-151.13"/>
<polygon fill="#757575" stroke="#757575" points="820.67,-151.13 817.17,-141.13 813.67,-151.13 820.67,-151.13"/>
</g>
<!-- src/expressions/operators.ts&#45;&gt;src/types/structs.ts -->
<g id="edge25" class="edge">
<title>src/expressions/operators.ts&#45;&gt;src/types/structs.ts</title>
<path fill="none" stroke="#757575" d="M803.33,-176.88C803.33,-166.52 803.33,-153 803.33,-153 803.33,-153 280,-153 280,-153 280,-153 280,-151.25 280,-151.25"/>
<polygon fill="#757575" stroke="#757575" points="283.5,-151.25 280,-141.25 276.5,-151.25 283.5,-151.25"/>
</g>
<!-- src/expressions/operator&#45;finder.ts -->
<g id="node17" class="node">
<title>src/expressions/operator&#45;finder.ts</title>
<path fill="none" stroke="#c6c5fe" d="M1095.33,-141C1095.33,-141 894.67,-141 894.67,-141 890.83,-141 887,-137.17 887,-133.33 887,-133.33 887,-125.67 887,-125.67 887,-121.83 890.83,-118 894.67,-118 894.67,-118 1095.33,-118 1095.33,-118 1099.17,-118 1103,-121.83 1103,-125.67 1103,-125.67 1103,-133.33 1103,-133.33 1103,-137.17 1099.17,-141 1095.33,-141"/>
<text text-anchor="middle" x="995" y="-125.8" font-family="Arial" font-size="14.00" fill="#c6c5fe">src/expressions/operator&#45;finder.ts</text>
</g>
<!-- src/expressions/operators.ts&#45;&gt;src/expressions/operator&#45;finder.ts -->
<g id="edge22" class="edge">
<title>src/expressions/operators.ts&#45;&gt;src/expressions/operator&#45;finder.ts</title>
<path fill="none" stroke="#757575" d="M930.75,-176.84C930.75,-176.84 930.75,-151.13 930.75,-151.13"/>
<polygon fill="#757575" stroke="#757575" points="934.25,-151.13 930.75,-141.13 927.25,-151.13 934.25,-151.13"/>
</g>
<!-- src/expressions/operators.ts&#45;&gt;src/type&#45;utils.ts -->
<g id="edge24" class="edge">
<title>src/expressions/operators.ts&#45;&gt;src/type&#45;utils.ts</title>
<path fill="none" stroke="#757575" d="M859,-176.7C859,-146.73 859,-70 859,-70 859,-70 820.69,-70 820.69,-70"/>
<polygon fill="#757575" stroke="#757575" points="820.69,-66.5 810.69,-70 820.69,-73.5 820.69,-66.5"/>
</g>
<!-- src/expressions/operator&#45;utils.ts -->
<g id="node18" class="node">
<title>src/expressions/operator&#45;utils.ts</title>
<path fill="none" stroke="#cfffac" d="M1090.83,-82C1090.83,-82 899.17,-82 899.17,-82 895.33,-82 891.5,-78.17 891.5,-74.33 891.5,-74.33 891.5,-66.67 891.5,-66.67 891.5,-62.83 895.33,-59 899.17,-59 899.17,-59 1090.83,-59 1090.83,-59 1094.67,-59 1098.5,-62.83 1098.5,-66.67 1098.5,-66.67 1098.5,-74.33 1098.5,-74.33 1098.5,-78.17 1094.67,-82 1090.83,-82"/>
<text text-anchor="middle" x="995" y="-66.8" font-family="Arial" font-size="14.00" fill="#cfffac">src/expressions/operator&#45;utils.ts</text>
</g>
<!-- src/expressions/operator&#45;finder.ts&#45;&gt;src/expressions/operator&#45;utils.ts -->
<g id="edge21" class="edge">
<title>src/expressions/operator&#45;finder.ts&#45;&gt;src/expressions/operator&#45;utils.ts</title>
<path fill="none" stroke="#757575" d="M995,-117.84C995,-117.84 995,-92.13 995,-92.13"/>
<polygon fill="#757575" stroke="#757575" points="998.5,-92.13 995,-82.13 991.5,-92.13 998.5,-92.13"/>
</g>
<!-- src/loops/types.ts&#45;&gt;src/expressions/handlers.ts -->
<g id="edge33" class="edge">
<title>src/loops/types.ts&#45;&gt;src/expressions/handlers.ts</title>
<path fill="none" stroke="#757575" d="M1223,-176.85C1223,-137.36 1223,-11 1223,-11 1223,-11 756.16,-11 756.16,-11"/>
<polygon fill="#757575" stroke="#757575" points="756.16,-7.5 746.16,-11 756.16,-14.5 756.16,-7.5"/>
</g>
<!-- src/utils/interpret.ts -->
<g id="node22" class="node">
<title>src/utils/interpret.ts</title>
<path fill="none" stroke="#c6c5fe" d="M761.33,-377C761.33,-377 646.67,-377 646.67,-377 642.83,-377 639,-373.17 639,-369.33 639,-369.33 639,-361.67 639,-361.67 639,-357.83 642.83,-354 646.67,-354 646.67,-354 761.33,-354 761.33,-354 765.17,-354 769,-357.83 769,-361.67 769,-361.67 769,-369.33 769,-369.33 769,-373.17 765.17,-377 761.33,-377"/>
<text text-anchor="middle" x="704" y="-361.8" font-family="Arial" font-size="14.00" fill="#c6c5fe">src/utils/interpret.ts</text>
</g>
<!-- src/utils/interpret.ts&#45;&gt;src/app.ts -->
<g id="edge45" class="edge">
<title>src/utils/interpret.ts&#45;&gt;src/app.ts</title>
<path fill="none" stroke="#757575" d="M704,-353.84C704,-353.84 704,-328.13 704,-328.13"/>
<polygon fill="#757575" stroke="#757575" points="707.5,-328.13 704,-318.13 700.5,-328.13 707.5,-328.13"/>
</g>
<!-- tests/app.test.ts -->
<g id="node23" class="node">
<title>tests/app.test.ts</title>
<path fill="none" stroke="#c6c5fe" d="M751.83,-436C751.83,-436 656.17,-436 656.17,-436 652.33,-436 648.5,-432.17 648.5,-428.33 648.5,-428.33 648.5,-420.67 648.5,-420.67 648.5,-416.83 652.33,-413 656.17,-413 656.17,-413 751.83,-413 751.83,-413 755.67,-413 759.5,-416.83 759.5,-420.67 759.5,-420.67 759.5,-428.33 759.5,-428.33 759.5,-432.17 755.67,-436 751.83,-436"/>
<text text-anchor="middle" x="704" y="-420.8" font-family="Arial" font-size="14.00" fill="#c6c5fe">tests/app.test.ts</text>
</g>
<!-- tests/app.test.ts&#45;&gt;src/utils/interpret.ts -->
<g id="edge46" class="edge">
<title>tests/app.test.ts&#45;&gt;src/utils/interpret.ts</title>
<path fill="none" stroke="#757575" d="M704,-412.84C704,-412.84 704,-387.13 704,-387.13"/>
<polygon fill="#757575" stroke="#757575" points="707.5,-387.13 704,-377.13 700.5,-387.13 707.5,-387.13"/>
</g>
</g>
</svg>
