<?xml version="1.0" encoding="UTF-8" standalone="no"?>
<!DOCTYPE svg PUBLIC "-//W3C//DTD SVG 1.1//EN"
 "http://www.w3.org/Graphics/SVG/1.1/DTD/svg11.dtd">
<!-- Generated by graphviz version 2.43.0 (0)
 -->
<!-- Title: G Pages: 1 -->
<svg width="1461pt" height="479pt"
 viewBox="0.00 0.00 1460.70 479.20" xmlns="http://www.w3.org/2000/svg" xmlns:xlink="http://www.w3.org/1999/xlink">
<g id="graph0" class="graph" transform="scale(1 1) rotate(0) translate(21.6 457.6)">
<title>G</title>
<polygon fill="#111111" stroke="transparent" points="-21.6,21.6 -21.6,-457.6 1439.1,-457.6 1439.1,21.6 -21.6,21.6"/>
<!-- src/app.ts -->
<g id="node1" class="node">
<title>src/app.ts</title>
<path fill="none" stroke="#c6c5fe" d="M716.83,-318C716.83,-318 657.17,-318 657.17,-318 653.33,-318 649.5,-314.17 649.5,-310.33 649.5,-310.33 649.5,-302.67 649.5,-302.67 649.5,-298.83 653.33,-295 657.17,-295 657.17,-295 716.83,-295 716.83,-295 720.67,-295 724.5,-298.83 724.5,-302.67 724.5,-302.67 724.5,-310.33 724.5,-310.33 724.5,-314.17 720.67,-318 716.83,-318"/>
<text text-anchor="middle" x="687" y="-302.8" font-family="Arial" font-size="14.00" fill="#c6c5fe">src/app.ts</text>
</g>
<!-- src/expressions/binary&#45;operation.ts -->
<g id="node2" class="node">
<title>src/expressions/binary&#45;operation.ts</title>
<path fill="none" stroke="#c6c5fe" d="M955.33,-259C955.33,-259 744.67,-259 744.67,-259 740.83,-259 737,-255.17 737,-251.33 737,-251.33 737,-243.67 737,-243.67 737,-239.83 740.83,-236 744.67,-236 744.67,-236 955.33,-236 955.33,-236 959.17,-236 963,-239.83 963,-243.67 963,-243.67 963,-251.33 963,-251.33 963,-255.17 959.17,-259 955.33,-259"/>
<text text-anchor="middle" x="850" y="-243.8" font-family="Arial" font-size="14.00" fill="#c6c5fe">src/expressions/binary&#45;operation.ts</text>
</g>
<!-- src/app.ts&#45;&gt;src/expressions/binary&#45;operation.ts -->
<g id="edge1" class="edge">
<title>src/app.ts&#45;&gt;src/expressions/binary&#45;operation.ts</title>
<path fill="none" stroke="#757575" d="M724.71,-299C735.55,-299 744.5,-299 744.5,-299 744.5,-299 744.5,-269.19 744.5,-269.19"/>
<polygon fill="#757575" stroke="#757575" points="748,-269.19 744.5,-259.19 741,-269.19 748,-269.19"/>
</g>
<!-- src/expressions/grouped&#45;expressions.ts -->
<g id="node3" class="node">
<title>src/expressions/grouped&#45;expressions.ts</title>
<path fill="none" stroke="#c6c5fe" d="M246.33,-200C246.33,-200 7.67,-200 7.67,-200 3.83,-200 0,-196.17 0,-192.33 0,-192.33 0,-184.67 0,-184.67 0,-180.83 3.83,-177 7.67,-177 7.67,-177 246.33,-177 246.33,-177 250.17,-177 254,-180.83 254,-184.67 254,-184.67 254,-192.33 254,-192.33 254,-196.17 250.17,-200 246.33,-200"/>
<text text-anchor="middle" x="127" y="-184.8" font-family="Arial" font-size="14.00" fill="#c6c5fe">src/expressions/grouped&#45;expressions.ts</text>
</g>
<!-- src/app.ts&#45;&gt;src/expressions/grouped&#45;expressions.ts -->
<g id="edge2" class="edge">
<title>src/app.ts&#45;&gt;src/expressions/grouped&#45;expressions.ts</title>
<path fill="none" stroke="#757575" d="M649.39,-312C523.83,-312 127,-312 127,-312 127,-312 127,-210.34 127,-210.34"/>
<polygon fill="#757575" stroke="#757575" points="130.5,-210.34 127,-200.34 123.5,-210.34 130.5,-210.34"/>
</g>
<!-- src/expressions/handlers.ts -->
<g id="node4" class="node">
<title>src/expressions/handlers.ts</title>
<path fill="none" stroke="#cfffac" d="M698.33,-23C698.33,-23 533.67,-23 533.67,-23 529.83,-23 526,-19.17 526,-15.33 526,-15.33 526,-7.67 526,-7.67 526,-3.83 529.83,0 533.67,0 533.67,0 698.33,0 698.33,0 702.17,0 706,-3.83 706,-7.67 706,-7.67 706,-15.33 706,-15.33 706,-19.17 702.17,-23 698.33,-23"/>
<text text-anchor="middle" x="616" y="-7.8" font-family="Arial" font-size="14.00" fill="#cfffac">src/expressions/handlers.ts</text>
</g>
<!-- src/app.ts&#45;&gt;src/expressions/handlers.ts -->
<g id="edge3" class="edge">
<title>src/app.ts&#45;&gt;src/expressions/handlers.ts</title>
<path fill="none" stroke="#757575" d="M700.83,-294.94C700.83,-294.94 700.83,-33.3 700.83,-33.3"/>
<polygon fill="#757575" stroke="#757575" points="704.33,-33.3 700.83,-23.3 697.33,-33.31 704.33,-33.3"/>
</g>
<!-- src/functions.ts -->
<g id="node5" class="node">
<title>src/functions.ts</title>
<path fill="none" stroke="#c6c5fe" d="M435.83,-141C435.83,-141 344.17,-141 344.17,-141 340.33,-141 336.5,-137.17 336.5,-133.33 336.5,-133.33 336.5,-125.67 336.5,-125.67 336.5,-121.83 340.33,-118 344.17,-118 344.17,-118 435.83,-118 435.83,-118 439.67,-118 443.5,-121.83 443.5,-125.67 443.5,-125.67 443.5,-133.33 443.5,-133.33 443.5,-137.17 439.67,-141 435.83,-141"/>
<text text-anchor="middle" x="390" y="-125.8" font-family="Arial" font-size="14.00" fill="#c6c5fe">src/functions.ts</text>
</g>
<!-- src/app.ts&#45;&gt;src/functions.ts -->
<g id="edge4" class="edge">
<title>src/app.ts&#45;&gt;src/functions.ts</title>
<path fill="none" stroke="#757575" d="M649.34,-300C565.77,-300 372.17,-300 372.17,-300 372.17,-300 372.17,-151.22 372.17,-151.22"/>
<polygon fill="#757575" stroke="#757575" points="375.67,-151.22 372.17,-141.22 368.67,-151.22 375.67,-151.22"/>
</g>
<!-- src/loops/for.ts -->
<g id="node6" class="node">
<title>src/loops/for.ts</title>
<path fill="none" stroke="#c6c5fe" d="M1115.33,-259C1115.33,-259 1026.67,-259 1026.67,-259 1022.83,-259 1019,-255.17 1019,-251.33 1019,-251.33 1019,-243.67 1019,-243.67 1019,-239.83 1022.83,-236 1026.67,-236 1026.67,-236 1115.33,-236 1115.33,-236 1119.17,-236 1123,-239.83 1123,-243.67 1123,-243.67 1123,-251.33 1123,-251.33 1123,-255.17 1119.17,-259 1115.33,-259"/>
<text text-anchor="middle" x="1071" y="-243.8" font-family="Arial" font-size="14.00" fill="#c6c5fe">src/loops/for.ts</text>
</g>
<!-- src/app.ts&#45;&gt;src/loops/for.ts -->
<g id="edge5" class="edge">
<title>src/app.ts&#45;&gt;src/loops/for.ts</title>
<path fill="none" stroke="#757575" d="M724.52,-308C821.14,-308 1071,-308 1071,-308 1071,-308 1071,-269.17 1071,-269.17"/>
<polygon fill="#757575" stroke="#757575" points="1074.5,-269.16 1071,-259.17 1067.5,-269.17 1074.5,-269.16"/>
</g>
<!-- src/loops/loop.ts -->
<g id="node7" class="node">
<title>src/loops/loop.ts</title>
<path fill="none" stroke="#cfffac" d="M1119.33,-200C1119.33,-200 1020.67,-200 1020.67,-200 1016.83,-200 1013,-196.17 1013,-192.33 1013,-192.33 1013,-184.67 1013,-184.67 1013,-180.83 1016.83,-177 1020.67,-177 1020.67,-177 1119.33,-177 1119.33,-177 1123.17,-177 1127,-180.83 1127,-184.67 1127,-184.67 1127,-192.33 1127,-192.33 1127,-196.17 1123.17,-200 1119.33,-200"/>
<text text-anchor="middle" x="1070" y="-184.8" font-family="Arial" font-size="14.00" fill="#cfffac">src/loops/loop.ts</text>
</g>
<!-- src/app.ts&#45;&gt;src/loops/loop.ts -->
<g id="edge6" class="edge">
<title>src/app.ts&#45;&gt;src/loops/loop.ts</title>
<path fill="none" stroke="#757575" d="M724.51,-304C805.2,-304 988,-304 988,-304 988,-304 988,-188 988,-188 988,-188 1002.6,-188 1002.6,-188"/>
<polygon fill="#757575" stroke="#757575" points="1002.6,-191.5 1012.6,-188 1002.6,-184.5 1002.6,-191.5"/>
</g>
<!-- src/loops/while.ts -->
<g id="node8" class="node">
<title>src/loops/while.ts</title>
<path fill="none" stroke="#c6c5fe" d="M1254.83,-259C1254.83,-259 1151.17,-259 1151.17,-259 1147.33,-259 1143.5,-255.17 1143.5,-251.33 1143.5,-251.33 1143.5,-243.67 1143.5,-243.67 1143.5,-239.83 1147.33,-236 1151.17,-236 1151.17,-236 1254.83,-236 1254.83,-236 1258.67,-236 1262.5,-239.83 1262.5,-243.67 1262.5,-243.67 1262.5,-251.33 1262.5,-251.33 1262.5,-255.17 1258.67,-259 1254.83,-259"/>
<text text-anchor="middle" x="1203" y="-243.8" font-family="Arial" font-size="14.00" fill="#c6c5fe">src/loops/while.ts</text>
</g>
<!-- src/app.ts&#45;&gt;src/loops/while.ts -->
<g id="edge7" class="edge">
<title>src/app.ts&#45;&gt;src/loops/while.ts</title>
<path fill="none" stroke="#757575" d="M724.53,-313C843.27,-313 1203,-313 1203,-313 1203,-313 1203,-269.21 1203,-269.21"/>
<polygon fill="#757575" stroke="#757575" points="1206.5,-269.21 1203,-259.21 1199.5,-269.21 1206.5,-269.21"/>
</g>
<!-- src/match.ts -->
<g id="node9" class="node">
<title>src/match.ts</title>
<path fill="none" stroke="#cfffac" d="M164.33,-141C164.33,-141 89.67,-141 89.67,-141 85.83,-141 82,-137.17 82,-133.33 82,-133.33 82,-125.67 82,-125.67 82,-121.83 85.83,-118 89.67,-118 89.67,-118 164.33,-118 164.33,-118 168.17,-118 172,-121.83 172,-125.67 172,-125.67 172,-133.33 172,-133.33 172,-137.17 168.17,-141 164.33,-141"/>
<text text-anchor="middle" x="127" y="-125.8" font-family="Arial" font-size="14.00" fill="#cfffac">src/match.ts</text>
</g>
<!-- src/app.ts&#45;&gt;src/match.ts -->
<g id="edge8" class="edge">
<title>src/app.ts&#45;&gt;src/match.ts</title>
<path fill="none" stroke="#757575" d="M680.9,-294.92C680.9,-261.13 680.9,-165 680.9,-165 680.9,-165 142,-165 142,-165 142,-165 142,-151.12 142,-151.12"/>
<polygon fill="#757575" stroke="#757575" points="145.5,-151.12 142,-141.12 138.5,-151.12 145.5,-151.12"/>
</g>
<!-- src/parser.ts -->
<g id="node10" class="node">
<title>src/parser.ts</title>
<path fill="none" stroke="#c6c5fe" d="M829.33,-141C829.33,-141 754.67,-141 754.67,-141 750.83,-141 747,-137.17 747,-133.33 747,-133.33 747,-125.67 747,-125.67 747,-121.83 750.83,-118 754.67,-118 754.67,-118 829.33,-118 829.33,-118 833.17,-118 837,-121.83 837,-125.67 837,-125.67 837,-133.33 837,-133.33 837,-137.17 833.17,-141 829.33,-141"/>
<text text-anchor="middle" x="792" y="-125.8" font-family="Arial" font-size="14.00" fill="#c6c5fe">src/parser.ts</text>
</g>
<!-- src/app.ts&#45;&gt;src/parser.ts -->
<g id="edge9" class="edge">
<title>src/app.ts&#45;&gt;src/parser.ts</title>
<path fill="none" stroke="#757575" d="M715.25,-294.98C715.25,-255.94 715.25,-131 715.25,-131 715.25,-131 736.91,-131 736.91,-131"/>
<polygon fill="#757575" stroke="#757575" points="736.91,-134.5 746.91,-131 736.91,-127.5 736.91,-134.5"/>
</g>
<!-- src/scope.ts -->
<g id="node11" class="node">
<title>src/scope.ts</title>
<path fill="none" stroke="#c6c5fe" d="M670.83,-200C670.83,-200 597.17,-200 597.17,-200 593.33,-200 589.5,-196.17 589.5,-192.33 589.5,-192.33 589.5,-184.67 589.5,-184.67 589.5,-180.83 593.33,-177 597.17,-177 597.17,-177 670.83,-177 670.83,-177 674.67,-177 678.5,-180.83 678.5,-184.67 678.5,-184.67 678.5,-192.33 678.5,-192.33 678.5,-196.17 674.67,-200 670.83,-200"/>
<text text-anchor="middle" x="634" y="-184.8" font-family="Arial" font-size="14.00" fill="#c6c5fe">src/scope.ts</text>
</g>
<!-- src/app.ts&#45;&gt;src/scope.ts -->
<g id="edge10" class="edge">
<title>src/app.ts&#45;&gt;src/scope.ts</title>
<path fill="none" stroke="#757575" d="M664,-294.75C664,-294.75 664,-210.2 664,-210.2"/>
<polygon fill="#757575" stroke="#757575" points="667.5,-210.2 664,-200.2 660.5,-210.2 667.5,-210.2"/>
</g>
<!-- src/types/structs.ts -->
<g id="node12" class="node">
<title>src/types/structs.ts</title>
<path fill="none" stroke="#c6c5fe" d="M310.33,-141C310.33,-141 197.67,-141 197.67,-141 193.83,-141 190,-137.17 190,-133.33 190,-133.33 190,-125.67 190,-125.67 190,-121.83 193.83,-118 197.67,-118 197.67,-118 310.33,-118 310.33,-118 314.17,-118 318,-121.83 318,-125.67 318,-125.67 318,-133.33 318,-133.33 318,-137.17 314.17,-141 310.33,-141"/>
<text text-anchor="middle" x="254" y="-125.8" font-family="Arial" font-size="14.00" fill="#c6c5fe">src/types/structs.ts</text>
</g>
<!-- src/app.ts&#45;&gt;src/types/structs.ts -->
<g id="edge11" class="edge">
<title>src/app.ts&#45;&gt;src/types/structs.ts</title>
<path fill="none" stroke="#757575" d="M649.38,-306C547.75,-306 275.33,-306 275.33,-306 275.33,-306 275.33,-151.08 275.33,-151.08"/>
<polygon fill="#757575" stroke="#757575" points="278.83,-151.08 275.33,-141.08 271.83,-151.08 278.83,-151.08"/>
</g>
<!-- src/types/type&#45;declarations.ts -->
<g id="node13" class="node">
<title>src/types/type&#45;declarations.ts</title>
<path fill="none" stroke="#c6c5fe" d="M644.83,-141C644.83,-141 469.17,-141 469.17,-141 465.33,-141 461.5,-137.17 461.5,-133.33 461.5,-133.33 461.5,-125.67 461.5,-125.67 461.5,-121.83 465.33,-118 469.17,-118 469.17,-118 644.83,-118 644.83,-118 648.67,-118 652.5,-121.83 652.5,-125.67 652.5,-125.67 652.5,-133.33 652.5,-133.33 652.5,-137.17 648.67,-141 644.83,-141"/>
<text text-anchor="middle" x="557" y="-125.8" font-family="Arial" font-size="14.00" fill="#c6c5fe">src/types/type&#45;declarations.ts</text>
</g>
<!-- src/app.ts&#45;&gt;src/types/type&#45;declarations.ts -->
<g id="edge12" class="edge">
<title>src/app.ts&#45;&gt;src/types/type&#45;declarations.ts</title>
<path fill="none" stroke="#757575" d="M683.3,-294.78C683.3,-256.26 683.3,-136 683.3,-136 683.3,-136 662.73,-136 662.73,-136"/>
<polygon fill="#757575" stroke="#757575" points="662.73,-132.5 652.73,-136 662.73,-139.5 662.73,-132.5"/>
</g>
<!-- src/expressions/binary&#45;operation.ts&#45;&gt;src/expressions/handlers.ts -->
<g id="edge14" class="edge">
<title>src/expressions/binary&#45;operation.ts&#45;&gt;src/expressions/handlers.ts</title>
<path fill="none" stroke="#757575" d="M742,-235.97C742,-189.06 742,-15 742,-15 742,-15 716.23,-15 716.23,-15"/>
<polygon fill="#757575" stroke="#757575" points="716.23,-11.5 706.23,-15 716.23,-18.5 716.23,-11.5"/>
</g>
<!-- src/expressions/binary&#45;operation.ts&#45;&gt;src/parser.ts -->
<g id="edge16" class="edge">
<title>src/expressions/binary&#45;operation.ts&#45;&gt;src/parser.ts</title>
<path fill="none" stroke="#757575" d="M759.75,-235.75C759.75,-235.75 759.75,-151.2 759.75,-151.2"/>
<polygon fill="#757575" stroke="#757575" points="763.25,-151.2 759.75,-141.2 756.25,-151.2 763.25,-151.2"/>
</g>
<!-- src/expressions/operators.ts -->
<g id="node15" class="node">
<title>src/expressions/operators.ts</title>
<path fill="none" stroke="#c6c5fe" d="M949.83,-200C949.83,-200 780.17,-200 780.17,-200 776.33,-200 772.5,-196.17 772.5,-192.33 772.5,-192.33 772.5,-184.67 772.5,-184.67 772.5,-180.83 776.33,-177 780.17,-177 780.17,-177 949.83,-177 949.83,-177 953.67,-177 957.5,-180.83 957.5,-184.67 957.5,-184.67 957.5,-192.33 957.5,-192.33 957.5,-196.17 953.67,-200 949.83,-200"/>
<text text-anchor="middle" x="865" y="-184.8" font-family="Arial" font-size="14.00" fill="#c6c5fe">src/expressions/operators.ts</text>
</g>
<!-- src/expressions/binary&#45;operation.ts&#45;&gt;src/expressions/operators.ts -->
<g id="edge15" class="edge">
<title>src/expressions/binary&#45;operation.ts&#45;&gt;src/expressions/operators.ts</title>
<path fill="none" stroke="#757575" d="M865,-235.84C865,-235.84 865,-210.13 865,-210.13"/>
<polygon fill="#757575" stroke="#757575" points="868.5,-210.13 865,-200.13 861.5,-210.13 868.5,-210.13"/>
</g>
<!-- src/expressions/grouped&#45;expressions.ts&#45;&gt;src/expressions/handlers.ts -->
<g id="edge17" class="edge">
<title>src/expressions/grouped&#45;expressions.ts&#45;&gt;src/expressions/handlers.ts</title>
<path fill="none" stroke="#757575" d="M39.5,-176.74C39.5,-136.24 39.5,-5 39.5,-5 39.5,-5 515.92,-5 515.92,-5"/>
<polygon fill="#757575" stroke="#757575" points="515.92,-8.5 525.92,-5 515.92,-1.5 515.92,-8.5"/>
</g>
<!-- src/expressions/grouped&#45;expressions.ts&#45;&gt;src/match.ts -->
<g id="edge18" class="edge">
<title>src/expressions/grouped&#45;expressions.ts&#45;&gt;src/match.ts</title>
<path fill="none" stroke="#757575" d="M112,-176.84C112,-176.84 112,-151.13 112,-151.13"/>
<polygon fill="#757575" stroke="#757575" points="115.5,-151.13 112,-141.13 108.5,-151.13 115.5,-151.13"/>
</g>
<!-- src/expressions/grouped&#45;expressions.ts&#45;&gt;src/types/structs.ts -->
<g id="edge19" class="edge">
<title>src/expressions/grouped&#45;expressions.ts&#45;&gt;src/types/structs.ts</title>
<path fill="none" stroke="#757575" d="M222,-176.84C222,-176.84 222,-151.13 222,-151.13"/>
<polygon fill="#757575" stroke="#757575" points="225.5,-151.13 222,-141.13 218.5,-151.13 225.5,-151.13"/>
</g>
<!-- src/utils/identifier&#45;utils.ts -->
<g id="node16" class="node">
<title>src/utils/identifier&#45;utils.ts</title>
<path fill="none" stroke="#cfffac" d="M231.33,-82C231.33,-82 86.67,-82 86.67,-82 82.83,-82 79,-78.17 79,-74.33 79,-74.33 79,-66.67 79,-66.67 79,-62.83 82.83,-59 86.67,-59 86.67,-59 231.33,-59 231.33,-59 235.17,-59 239,-62.83 239,-66.67 239,-66.67 239,-74.33 239,-74.33 239,-78.17 235.17,-82 231.33,-82"/>
<text text-anchor="middle" x="159" y="-66.8" font-family="Arial" font-size="14.00" fill="#cfffac">src/utils/identifier&#45;utils.ts</text>
</g>
<!-- src/expressions/grouped&#45;expressions.ts&#45;&gt;src/utils/identifier&#45;utils.ts -->
<g id="edge20" class="edge">
<title>src/expressions/grouped&#45;expressions.ts&#45;&gt;src/utils/identifier&#45;utils.ts</title>
<path fill="none" stroke="#757575" d="M181,-176.75C181,-176.75 181,-92.2 181,-92.2"/>
<polygon fill="#757575" stroke="#757575" points="184.5,-92.2 181,-82.2 177.5,-92.2 184.5,-92.2"/>
</g>
<!-- src/functions.ts&#45;&gt;src/expressions/handlers.ts -->
<g id="edge27" class="edge">
<title>src/functions.ts&#45;&gt;src/expressions/handlers.ts</title>
<path fill="none" stroke="#757575" d="M401.83,-117.88C401.83,-89.14 401.83,-17 401.83,-17 401.83,-17 515.79,-17 515.79,-17"/>
<polygon fill="#757575" stroke="#757575" points="515.79,-20.5 525.79,-17 515.79,-13.5 515.79,-20.5"/>
</g>
<!-- src/declarations.ts -->
<g id="node14" class="node">
<title>src/declarations.ts</title>
<path fill="none" stroke="#c6c5fe" d="M551.83,-82C551.83,-82 442.17,-82 442.17,-82 438.33,-82 434.5,-78.17 434.5,-74.33 434.5,-74.33 434.5,-66.67 434.5,-66.67 434.5,-62.83 438.33,-59 442.17,-59 442.17,-59 551.83,-59 551.83,-59 555.67,-59 559.5,-62.83 559.5,-66.67 559.5,-66.67 559.5,-74.33 559.5,-74.33 559.5,-78.17 555.67,-82 551.83,-82"/>
<text text-anchor="middle" x="497" y="-66.8" font-family="Arial" font-size="14.00" fill="#c6c5fe">src/declarations.ts</text>
</g>
<!-- src/functions.ts&#45;&gt;src/declarations.ts -->
<g id="edge26" class="edge">
<title>src/functions.ts&#45;&gt;src/declarations.ts</title>
<path fill="none" stroke="#757575" d="M437.5,-117.84C437.5,-117.84 437.5,-92.13 437.5,-92.13"/>
<polygon fill="#757575" stroke="#757575" points="441,-92.13 437.5,-82.13 434,-92.13 441,-92.13"/>
</g>
<!-- src/functions.ts&#45;&gt;src/utils/identifier&#45;utils.ts -->
<g id="edge29" class="edge">
<title>src/functions.ts&#45;&gt;src/utils/identifier&#45;utils.ts</title>
<path fill="none" stroke="#757575" d="M369.17,-117.85C369.17,-99.52 369.17,-66 369.17,-66 369.17,-66 249.05,-66 249.05,-66"/>
<polygon fill="#757575" stroke="#757575" points="249.05,-62.5 239.05,-66 249.05,-69.5 249.05,-62.5"/>
</g>
<!-- src/type&#45;utils.ts -->
<g id="node19" class="node">
<title>src/type&#45;utils.ts</title>
<path fill="none" stroke="#cfffac" d="M682.83,-82C682.83,-82 591.17,-82 591.17,-82 587.33,-82 583.5,-78.17 583.5,-74.33 583.5,-74.33 583.5,-66.67 583.5,-66.67 583.5,-62.83 587.33,-59 591.17,-59 591.17,-59 682.83,-59 682.83,-59 686.67,-59 690.5,-62.83 690.5,-66.67 690.5,-66.67 690.5,-74.33 690.5,-74.33 690.5,-78.17 686.67,-82 682.83,-82"/>
<text text-anchor="middle" x="637" y="-66.8" font-family="Arial" font-size="14.00" fill="#cfffac">src/type&#45;utils.ts</text>
</g>
<!-- src/functions.ts&#45;&gt;src/type&#45;utils.ts -->
<g id="edge28" class="edge">
<title>src/functions.ts&#45;&gt;src/type&#45;utils.ts</title>
<path fill="none" stroke="#757575" d="M440.5,-117.84C440.5,-109.6 440.5,-100 440.5,-100 440.5,-100 606.5,-100 606.5,-100 606.5,-100 606.5,-92.16 606.5,-92.16"/>
<polygon fill="#757575" stroke="#757575" points="610,-92.16 606.5,-82.16 603,-92.16 610,-92.16"/>
</g>
<!-- src/loops/for.ts&#45;&gt;src/loops/loop.ts -->
<g id="edge31" class="edge">
<title>src/loops/for.ts&#45;&gt;src/loops/loop.ts</title>
<path fill="none" stroke="#757575" d="M1053.67,-235.84C1053.67,-235.84 1053.67,-210.13 1053.67,-210.13"/>
<polygon fill="#757575" stroke="#757575" points="1057.17,-210.13 1053.67,-200.13 1050.17,-210.13 1057.17,-210.13"/>
</g>
<!-- src/loops/helpers.ts -->
<g id="node20" class="node">
<title>src/loops/helpers.ts</title>
<path fill="none" stroke="#cfffac" d="M1409.83,-200C1409.83,-200 1292.17,-200 1292.17,-200 1288.33,-200 1284.5,-196.17 1284.5,-192.33 1284.5,-192.33 1284.5,-184.67 1284.5,-184.67 1284.5,-180.83 1288.33,-177 1292.17,-177 1292.17,-177 1409.83,-177 1409.83,-177 1413.67,-177 1417.5,-180.83 1417.5,-184.67 1417.5,-184.67 1417.5,-192.33 1417.5,-192.33 1417.5,-196.17 1413.67,-200 1409.83,-200"/>
<text text-anchor="middle" x="1351" y="-184.8" font-family="Arial" font-size="14.00" fill="#cfffac">src/loops/helpers.ts</text>
</g>
<!-- src/loops/for.ts&#45;&gt;src/loops/helpers.ts -->
<g id="edge30" class="edge">
<title>src/loops/for.ts&#45;&gt;src/loops/helpers.ts</title>
<path fill="none" stroke="#757575" d="M1088.33,-235.84C1088.33,-227.6 1088.33,-218 1088.33,-218 1088.33,-218 1328.83,-218 1328.83,-218 1328.83,-218 1328.83,-210.16 1328.83,-210.16"/>
<polygon fill="#757575" stroke="#757575" points="1332.33,-210.16 1328.83,-200.16 1325.33,-210.16 1332.33,-210.16"/>
</g>
<!-- src/loops/types.ts -->
<g id="node21" class="node">
<title>src/loops/types.ts</title>
<path fill="none" stroke="#c6c5fe" d="M1258.83,-200C1258.83,-200 1153.17,-200 1153.17,-200 1149.33,-200 1145.5,-196.17 1145.5,-192.33 1145.5,-192.33 1145.5,-184.67 1145.5,-184.67 1145.5,-180.83 1149.33,-177 1153.17,-177 1153.17,-177 1258.83,-177 1258.83,-177 1262.67,-177 1266.5,-180.83 1266.5,-184.67 1266.5,-184.67 1266.5,-192.33 1266.5,-192.33 1266.5,-196.17 1262.67,-200 1258.83,-200"/>
<text text-anchor="middle" x="1206" y="-184.8" font-family="Arial" font-size="14.00" fill="#c6c5fe">src/loops/types.ts</text>
</g>
<!-- src/loops/for.ts&#45;&gt;src/loops/types.ts -->
<g id="edge32" class="edge">
<title>src/loops/for.ts&#45;&gt;src/loops/types.ts</title>
<path fill="none" stroke="#757575" d="M1123.16,-251C1128.78,-251 1132.5,-251 1132.5,-251 1132.5,-251 1132.5,-184 1132.5,-184 1132.5,-184 1135.3,-184 1135.3,-184"/>
<polygon fill="#757575" stroke="#757575" points="1135.3,-187.5 1145.3,-184 1135.3,-180.5 1135.3,-187.5"/>
</g>
<!-- src/loops/while.ts&#45;&gt;src/loops/loop.ts -->
<g id="edge35" class="edge">
<title>src/loops/while.ts&#45;&gt;src/loops/loop.ts</title>
<path fill="none" stroke="#757575" d="M1143.1,-243C1139.92,-243 1138,-243 1138,-243 1138,-243 1138,-192 1138,-192 1138,-192 1136.91,-192 1136.91,-192"/>
<polygon fill="#757575" stroke="#757575" points="1137.07,-188.5 1127.07,-192 1137.07,-195.5 1137.07,-188.5"/>
</g>
<!-- src/loops/while.ts&#45;&gt;src/loops/helpers.ts -->
<g id="edge34" class="edge">
<title>src/loops/while.ts&#45;&gt;src/loops/helpers.ts</title>
<path fill="none" stroke="#757575" d="M1262.52,-247C1311.59,-247 1373.17,-247 1373.17,-247 1373.17,-247 1373.17,-210.06 1373.17,-210.06"/>
<polygon fill="#757575" stroke="#757575" points="1376.67,-210.06 1373.17,-200.06 1369.67,-210.06 1376.67,-210.06"/>
</g>
<!-- src/loops/while.ts&#45;&gt;src/loops/types.ts -->
<g id="edge36" class="edge">
<title>src/loops/while.ts&#45;&gt;src/loops/types.ts</title>
<path fill="none" stroke="#757575" d="M1204,-235.84C1204,-235.84 1204,-210.13 1204,-210.13"/>
<polygon fill="#757575" stroke="#757575" points="1207.5,-210.13 1204,-200.13 1200.5,-210.13 1207.5,-210.13"/>
</g>
<!-- src/parser.ts&#45;&gt;src/type&#45;utils.ts -->
<g id="edge37" class="edge">
<title>src/parser.ts&#45;&gt;src/type&#45;utils.ts</title>
<path fill="none" stroke="#757575" d="M746.73,-122C718.73,-122 688.1,-122 688.1,-122 688.1,-122 688.1,-92.19 688.1,-92.19"/>
<polygon fill="#757575" stroke="#757575" points="691.6,-92.19 688.1,-82.19 684.6,-92.19 691.6,-92.19"/>
</g>
<!-- src/scope.ts&#45;&gt;src/expressions/handlers.ts -->
<g id="edge38" class="edge">
<title>src/scope.ts&#45;&gt;src/expressions/handlers.ts</title>
<path fill="none" stroke="#757575" d="M678.82,-184C688.38,-184 695.67,-184 695.67,-184 695.67,-184 695.67,-33.09 695.67,-33.09"/>
<polygon fill="#757575" stroke="#757575" points="699.17,-33.09 695.67,-23.09 692.17,-33.09 699.17,-33.09"/>
</g>
<!-- src/scope.ts&#45;&gt;src/functions.ts -->
<g id="edge39" class="edge">
<title>src/scope.ts&#45;&gt;src/functions.ts</title>
<path fill="none" stroke="#757575" d="M589.32,-188C523.4,-188 407.83,-188 407.83,-188 407.83,-188 407.83,-151.06 407.83,-151.06"/>
<polygon fill="#757575" stroke="#757575" points="411.33,-151.06 407.83,-141.06 404.33,-151.06 411.33,-151.06"/>
</g>
<!-- src/scope.ts&#45;&gt;src/parser.ts -->
<g id="edge40" class="edge">
<title>src/scope.ts&#45;&gt;src/parser.ts</title>
<path fill="none" stroke="#757575" d="M669.83,-176.93C669.83,-159.12 669.83,-127 669.83,-127 669.83,-127 736.86,-127 736.86,-127"/>
<polygon fill="#757575" stroke="#757575" points="736.86,-130.5 746.86,-127 736.86,-123.5 736.86,-130.5"/>
</g>
<!-- src/scope.ts&#45;&gt;src/type&#45;utils.ts -->
<g id="edge41" class="edge">
<title>src/scope.ts&#45;&gt;src/type&#45;utils.ts</title>
<path fill="none" stroke="#757575" d="M661.17,-176.75C661.17,-176.75 661.17,-92.2 661.17,-92.2"/>
<polygon fill="#757575" stroke="#757575" points="664.67,-92.2 661.17,-82.2 657.67,-92.2 664.67,-92.2"/>
</g>
<!-- src/types/structs.ts&#45;&gt;src/expressions/handlers.ts -->
<g id="edge43" class="edge">
<title>src/types/structs.ts&#45;&gt;src/expressions/handlers.ts</title>
<path fill="none" stroke="#757575" d="M265.33,-117.7C265.33,-87.73 265.33,-11 265.33,-11 265.33,-11 515.69,-11 515.69,-11"/>
<polygon fill="#757575" stroke="#757575" points="515.69,-14.5 525.69,-11 515.69,-7.5 515.69,-14.5"/>
</g>
<!-- src/types/structs.ts&#45;&gt;src/declarations.ts -->
<g id="edge42" class="edge">
<title>src/types/structs.ts&#45;&gt;src/declarations.ts</title>
<path fill="none" stroke="#757575" d="M291.67,-117.73C291.67,-101.44 291.67,-74 291.67,-74 291.67,-74 424.28,-74 424.28,-74"/>
<polygon fill="#757575" stroke="#757575" points="424.28,-77.5 434.28,-74 424.28,-70.5 424.28,-77.5"/>
</g>
<!-- src/types/type&#45;declarations.ts&#45;&gt;src/declarations.ts -->
<g id="edge44" class="edge">
<title>src/types/type&#45;declarations.ts&#45;&gt;src/declarations.ts</title>
<path fill="none" stroke="#757575" d="M510.5,-117.84C510.5,-117.84 510.5,-92.13 510.5,-92.13"/>
<polygon fill="#757575" stroke="#757575" points="514,-92.13 510.5,-82.13 507,-92.13 514,-92.13"/>
</g>
<!-- src/types/type&#45;declarations.ts&#45;&gt;src/type&#45;utils.ts -->
<g id="edge45" class="edge">
<title>src/types/type&#45;declarations.ts&#45;&gt;src/type&#45;utils.ts</title>
<path fill="none" stroke="#757575" d="M629.5,-117.84C629.5,-117.84 629.5,-92.13 629.5,-92.13"/>
<polygon fill="#757575" stroke="#757575" points="633,-92.13 629.5,-82.13 626,-92.13 633,-92.13"/>
</g>
<!-- src/declarations.ts&#45;&gt;src/expressions/handlers.ts -->
<g id="edge13" class="edge">
<title>src/declarations.ts&#45;&gt;src/expressions/handlers.ts</title>
<path fill="none" stroke="#757575" d="M542.75,-58.84C542.75,-58.84 542.75,-33.13 542.75,-33.13"/>
<polygon fill="#757575" stroke="#757575" points="546.25,-33.13 542.75,-23.13 539.25,-33.13 546.25,-33.13"/>
</g>
<!-- src/expressions/operators.ts&#45;&gt;src/parser.ts -->
<g id="edge23" class="edge">
<title>src/expressions/operators.ts&#45;&gt;src/parser.ts</title>
<path fill="none" stroke="#757575" d="M815.5,-176.84C815.5,-176.84 815.5,-151.13 815.5,-151.13"/>
<polygon fill="#757575" stroke="#757575" points="819,-151.13 815.5,-141.13 812,-151.13 819,-151.13"/>
</g>
<!-- src/expressions/operators.ts&#45;&gt;src/types/structs.ts -->
<g id="edge25" class="edge">
<title>src/expressions/operators.ts&#45;&gt;src/types/structs.ts</title>
<path fill="none" stroke="#757575" d="M794,-176.88C794,-166.52 794,-153 794,-153 794,-153 296.67,-153 296.67,-153 296.67,-153 296.67,-151.25 296.67,-151.25"/>
<polygon fill="#757575" stroke="#757575" points="300.17,-151.25 296.67,-141.25 293.17,-151.25 300.17,-151.25"/>
</g>
<!-- src/expressions/operator&#45;finder.ts -->
<g id="node17" class="node">
<title>src/expressions/operator&#45;finder.ts</title>
<path fill="none" stroke="#c6c5fe" d="M1101.33,-141C1101.33,-141 900.67,-141 900.67,-141 896.83,-141 893,-137.17 893,-133.33 893,-133.33 893,-125.67 893,-125.67 893,-121.83 896.83,-118 900.67,-118 900.67,-118 1101.33,-118 1101.33,-118 1105.17,-118 1109,-121.83 1109,-125.67 1109,-125.67 1109,-133.33 1109,-133.33 1109,-137.17 1105.17,-141 1101.33,-141"/>
<text text-anchor="middle" x="1001" y="-125.8" font-family="Arial" font-size="14.00" fill="#c6c5fe">src/expressions/operator&#45;finder.ts</text>
</g>
<!-- src/expressions/operators.ts&#45;&gt;src/expressions/operator&#45;finder.ts -->
<g id="edge22" class="edge">
<title>src/expressions/operators.ts&#45;&gt;src/expressions/operator&#45;finder.ts</title>
<path fill="none" stroke="#757575" d="M925.25,-176.84C925.25,-176.84 925.25,-151.13 925.25,-151.13"/>
<polygon fill="#757575" stroke="#757575" points="928.75,-151.13 925.25,-141.13 921.75,-151.13 928.75,-151.13"/>
</g>
<!-- src/expressions/operators.ts&#45;&gt;src/type&#45;utils.ts -->
<g id="edge24" class="edge">
<title>src/expressions/operators.ts&#45;&gt;src/type&#45;utils.ts</title>
<path fill="none" stroke="#757575" d="M772.46,-192C728.62,-192 685.7,-192 685.7,-192 685.7,-192 685.7,-92.15 685.7,-92.15"/>
<polygon fill="#757575" stroke="#757575" points="689.2,-92.15 685.7,-82.15 682.2,-92.15 689.2,-92.15"/>
</g>
<!-- src/expressions/operator&#45;utils.ts -->
<g id="node18" class="node">
<title>src/expressions/operator&#45;utils.ts</title>
<path fill="none" stroke="#cfffac" d="M1096.83,-82C1096.83,-82 905.17,-82 905.17,-82 901.33,-82 897.5,-78.17 897.5,-74.33 897.5,-74.33 897.5,-66.67 897.5,-66.67 897.5,-62.83 901.33,-59 905.17,-59 905.17,-59 1096.83,-59 1096.83,-59 1100.67,-59 1104.5,-62.83 1104.5,-66.67 1104.5,-66.67 1104.5,-74.33 1104.5,-74.33 1104.5,-78.17 1100.67,-82 1096.83,-82"/>
<text text-anchor="middle" x="1001" y="-66.8" font-family="Arial" font-size="14.00" fill="#cfffac">src/expressions/operator&#45;utils.ts</text>
</g>
<!-- src/expressions/operator&#45;finder.ts&#45;&gt;src/expressions/operator&#45;utils.ts -->
<g id="edge21" class="edge">
<title>src/expressions/operator&#45;finder.ts&#45;&gt;src/expressions/operator&#45;utils.ts</title>
<path fill="none" stroke="#757575" d="M1001,-117.84C1001,-117.84 1001,-92.13 1001,-92.13"/>
<polygon fill="#757575" stroke="#757575" points="1004.5,-92.13 1001,-82.13 997.5,-92.13 1004.5,-92.13"/>
</g>
<!-- src/loops/types.ts&#45;&gt;src/expressions/handlers.ts -->
<g id="edge33" class="edge">
<title>src/loops/types.ts&#45;&gt;src/expressions/handlers.ts</title>
<path fill="none" stroke="#757575" d="M1206,-176.87C1206,-136.81 1206,-7 1206,-7 1206,-7 716.25,-7 716.25,-7"/>
<polygon fill="#757575" stroke="#757575" points="716.25,-3.5 706.25,-7 716.25,-10.5 716.25,-3.5"/>
</g>
<!-- src/utils/interpret.ts -->
<g id="node22" class="node">
<title>src/utils/interpret.ts</title>
<path fill="none" stroke="#c6c5fe" d="M744.33,-377C744.33,-377 629.67,-377 629.67,-377 625.83,-377 622,-373.17 622,-369.33 622,-369.33 622,-361.67 622,-361.67 622,-357.83 625.83,-354 629.67,-354 629.67,-354 744.33,-354 744.33,-354 748.17,-354 752,-357.83 752,-361.67 752,-361.67 752,-369.33 752,-369.33 752,-373.17 748.17,-377 744.33,-377"/>
<text text-anchor="middle" x="687" y="-361.8" font-family="Arial" font-size="14.00" fill="#c6c5fe">src/utils/interpret.ts</text>
</g>
<!-- src/utils/interpret.ts&#45;&gt;src/app.ts -->
<g id="edge46" class="edge">
<title>src/utils/interpret.ts&#45;&gt;src/app.ts</title>
<path fill="none" stroke="#757575" d="M687,-353.84C687,-353.84 687,-328.13 687,-328.13"/>
<polygon fill="#757575" stroke="#757575" points="690.5,-328.13 687,-318.13 683.5,-328.13 690.5,-328.13"/>
</g>
<!-- tests/app.test.ts -->
<g id="node23" class="node">
<title>tests/app.test.ts</title>
<path fill="none" stroke="#c6c5fe" d="M734.83,-436C734.83,-436 639.17,-436 639.17,-436 635.33,-436 631.5,-432.17 631.5,-428.33 631.5,-428.33 631.5,-420.67 631.5,-420.67 631.5,-416.83 635.33,-413 639.17,-413 639.17,-413 734.83,-413 734.83,-413 738.67,-413 742.5,-416.83 742.5,-420.67 742.5,-420.67 742.5,-428.33 742.5,-428.33 742.5,-432.17 738.67,-436 734.83,-436"/>
<text text-anchor="middle" x="687" y="-420.8" font-family="Arial" font-size="14.00" fill="#c6c5fe">tests/app.test.ts</text>
</g>
<!-- tests/app.test.ts&#45;&gt;src/utils/interpret.ts -->
<g id="edge47" class="edge">
<title>tests/app.test.ts&#45;&gt;src/utils/interpret.ts</title>
<path fill="none" stroke="#757575" d="M687,-412.84C687,-412.84 687,-387.13 687,-387.13"/>
<polygon fill="#757575" stroke="#757575" points="690.5,-387.13 687,-377.13 683.5,-387.13 690.5,-387.13"/>
</g>
</g>
</svg>
