<?xml version="1.0" encoding="UTF-8" standalone="no"?>
<!DOCTYPE svg PUBLIC "-//W3C//DTD SVG 1.1//EN"
 "http://www.w3.org/Graphics/SVG/1.1/DTD/svg11.dtd">
<!-- Generated by graphviz version 2.43.0 (0)
 -->
<!-- Title: G Pages: 1 -->
<svg width="2807pt" height="774pt"
 viewBox="0.00 0.00 2806.70 774.20" xmlns="http://www.w3.org/2000/svg" xmlns:xlink="http://www.w3.org/1999/xlink">
<g id="graph0" class="graph" transform="scale(1 1) rotate(0) translate(21.6 752.6)">
<title>G</title>
<polygon fill="#111111" stroke="transparent" points="-21.6,21.6 -21.6,-752.6 2785.1,-752.6 2785.1,21.6 -21.6,21.6"/>
<!-- src/app.ts -->
<g id="node1" class="node">
<title>src/app.ts</title>
<path fill="none" stroke="#c6c5fe" d="M1241.83,-613C1241.83,-613 1182.17,-613 1182.17,-613 1178.33,-613 1174.5,-609.17 1174.5,-605.33 1174.5,-605.33 1174.5,-597.67 1174.5,-597.67 1174.5,-593.83 1178.33,-590 1182.17,-590 1182.17,-590 1241.83,-590 1241.83,-590 1245.67,-590 1249.5,-593.83 1249.5,-597.67 1249.5,-597.67 1249.5,-605.33 1249.5,-605.33 1249.5,-609.17 1245.67,-613 1241.83,-613"/>
<text text-anchor="middle" x="1212" y="-597.8" font-family="Arial" font-size="14.00" fill="#c6c5fe">src/app.ts</text>
</g>
<!-- src/expressions/binary&#45;operation.ts -->
<g id="node2" class="node">
<title>src/expressions/binary&#45;operation.ts</title>
<path fill="none" stroke="#c6c5fe" d="M2578.33,-436C2578.33,-436 2367.67,-436 2367.67,-436 2363.83,-436 2360,-432.17 2360,-428.33 2360,-428.33 2360,-420.67 2360,-420.67 2360,-416.83 2363.83,-413 2367.67,-413 2367.67,-413 2578.33,-413 2578.33,-413 2582.17,-413 2586,-416.83 2586,-420.67 2586,-420.67 2586,-428.33 2586,-428.33 2586,-432.17 2582.17,-436 2578.33,-436"/>
<text text-anchor="middle" x="2473" y="-420.8" font-family="Arial" font-size="14.00" fill="#c6c5fe">src/expressions/binary&#45;operation.ts</text>
</g>
<!-- src/app.ts&#45;&gt;src/expressions/binary&#45;operation.ts -->
<g id="edge1" class="edge">
<title>src/app.ts&#45;&gt;src/expressions/binary&#45;operation.ts</title>
<path fill="none" stroke="#757575" d="M1249.74,-610C1459.55,-610 2473,-610 2473,-610 2473,-610 2473,-446.1 2473,-446.1"/>
<polygon fill="#757575" stroke="#757575" points="2476.5,-446.1 2473,-436.1 2469.5,-446.1 2476.5,-446.1"/>
</g>
<!-- src/expressions/grouped&#45;expressions.ts -->
<g id="node3" class="node">
<title>src/expressions/grouped&#45;expressions.ts</title>
<path fill="none" stroke="#c6c5fe" d="M1106.33,-377C1106.33,-377 867.67,-377 867.67,-377 863.83,-377 860,-373.17 860,-369.33 860,-369.33 860,-361.67 860,-361.67 860,-357.83 863.83,-354 867.67,-354 867.67,-354 1106.33,-354 1106.33,-354 1110.17,-354 1114,-357.83 1114,-361.67 1114,-361.67 1114,-369.33 1114,-369.33 1114,-373.17 1110.17,-377 1106.33,-377"/>
<text text-anchor="middle" x="987" y="-361.8" font-family="Arial" font-size="14.00" fill="#c6c5fe">src/expressions/grouped&#45;expressions.ts</text>
</g>
<!-- src/app.ts&#45;&gt;src/expressions/grouped&#45;expressions.ts -->
<g id="edge2" class="edge">
<title>src/app.ts&#45;&gt;src/expressions/grouped&#45;expressions.ts</title>
<path fill="none" stroke="#757575" d="M1174.33,-592C1135.86,-592 1081.75,-592 1081.75,-592 1081.75,-592 1081.75,-387.04 1081.75,-387.04"/>
<polygon fill="#757575" stroke="#757575" points="1085.25,-387.04 1081.75,-377.04 1078.25,-387.04 1085.25,-387.04"/>
</g>
<!-- src/expressions/handlers.ts -->
<g id="node4" class="node">
<title>src/expressions/handlers.ts</title>
<path fill="none" stroke="#c6c5fe" d="M1541.33,-200C1541.33,-200 1376.67,-200 1376.67,-200 1372.83,-200 1369,-196.17 1369,-192.33 1369,-192.33 1369,-184.67 1369,-184.67 1369,-180.83 1372.83,-177 1376.67,-177 1376.67,-177 1541.33,-177 1541.33,-177 1545.17,-177 1549,-180.83 1549,-184.67 1549,-184.67 1549,-192.33 1549,-192.33 1549,-196.17 1545.17,-200 1541.33,-200"/>
<text text-anchor="middle" x="1459" y="-184.8" font-family="Arial" font-size="14.00" fill="#c6c5fe">src/expressions/handlers.ts</text>
</g>
<!-- src/app.ts&#45;&gt;src/expressions/handlers.ts -->
<g id="edge3" class="edge">
<title>src/app.ts&#45;&gt;src/expressions/handlers.ts</title>
<path fill="none" stroke="#757575" d="M1249.81,-598C1368.57,-598 1726.25,-598 1726.25,-598 1726.25,-598 1726.25,-196 1726.25,-196 1726.25,-196 1559.11,-196 1559.11,-196"/>
<polygon fill="#757575" stroke="#757575" points="1559.11,-192.5 1549.11,-196 1559.11,-199.5 1559.11,-192.5"/>
</g>
<!-- src/handlers/dereference&#45;assignment.ts -->
<g id="node5" class="node">
<title>src/handlers/dereference&#45;assignment.ts</title>
<path fill="none" stroke="#c6c5fe" d="M1981.33,-377C1981.33,-377 1742.67,-377 1742.67,-377 1738.83,-377 1735,-373.17 1735,-369.33 1735,-369.33 1735,-361.67 1735,-361.67 1735,-357.83 1738.83,-354 1742.67,-354 1742.67,-354 1981.33,-354 1981.33,-354 1985.17,-354 1989,-357.83 1989,-361.67 1989,-361.67 1989,-369.33 1989,-369.33 1989,-373.17 1985.17,-377 1981.33,-377"/>
<text text-anchor="middle" x="1862" y="-361.8" font-family="Arial" font-size="14.00" fill="#c6c5fe">src/handlers/dereference&#45;assignment.ts</text>
</g>
<!-- src/app.ts&#45;&gt;src/handlers/dereference&#45;assignment.ts -->
<g id="edge4" class="edge">
<title>src/app.ts&#45;&gt;src/handlers/dereference&#45;assignment.ts</title>
<path fill="none" stroke="#757575" d="M1249.66,-601C1372.52,-601 1753.75,-601 1753.75,-601 1753.75,-601 1753.75,-387.18 1753.75,-387.18"/>
<polygon fill="#757575" stroke="#757575" points="1757.25,-387.18 1753.75,-377.18 1750.25,-387.18 1757.25,-387.18"/>
</g>
<!-- src/handlers/lambda&#45;expressions.ts -->
<g id="node6" class="node">
<title>src/handlers/lambda&#45;expressions.ts</title>
<path fill="none" stroke="#c6c5fe" d="M222.33,-436C222.33,-436 7.67,-436 7.67,-436 3.83,-436 0,-432.17 0,-428.33 0,-428.33 0,-420.67 0,-420.67 0,-416.83 3.83,-413 7.67,-413 7.67,-413 222.33,-413 222.33,-413 226.17,-413 230,-416.83 230,-420.67 230,-420.67 230,-428.33 230,-428.33 230,-432.17 226.17,-436 222.33,-436"/>
<text text-anchor="middle" x="115" y="-420.8" font-family="Arial" font-size="14.00" fill="#c6c5fe">src/handlers/lambda&#45;expressions.ts</text>
</g>
<!-- src/app.ts&#45;&gt;src/handlers/lambda&#45;expressions.ts -->
<g id="edge5" class="edge">
<title>src/app.ts&#45;&gt;src/handlers/lambda&#45;expressions.ts</title>
<path fill="none" stroke="#757575" d="M1174.44,-610C991.11,-610 199,-610 199,-610 199,-610 199,-446.1 199,-446.1"/>
<polygon fill="#757575" stroke="#757575" points="202.5,-446.1 199,-436.1 195.5,-446.1 202.5,-446.1"/>
</g>
<!-- src/handlers/module&#45;access.ts -->
<g id="node7" class="node">
<title>src/handlers/module&#45;access.ts</title>
<path fill="none" stroke="#c6c5fe" d="M1400.33,-377C1400.33,-377 1215.67,-377 1215.67,-377 1211.83,-377 1208,-373.17 1208,-369.33 1208,-369.33 1208,-361.67 1208,-361.67 1208,-357.83 1211.83,-354 1215.67,-354 1215.67,-354 1400.33,-354 1400.33,-354 1404.17,-354 1408,-357.83 1408,-361.67 1408,-361.67 1408,-369.33 1408,-369.33 1408,-373.17 1404.17,-377 1400.33,-377"/>
<text text-anchor="middle" x="1308" y="-361.8" font-family="Arial" font-size="14.00" fill="#c6c5fe">src/handlers/module&#45;access.ts</text>
</g>
<!-- src/app.ts&#45;&gt;src/handlers/module&#45;access.ts -->
<g id="edge6" class="edge">
<title>src/app.ts&#45;&gt;src/handlers/module&#45;access.ts</title>
<path fill="none" stroke="#757575" d="M1249.6,-592C1301.09,-592 1387.25,-592 1387.25,-592 1387.25,-592 1387.25,-387.04 1387.25,-387.04"/>
<polygon fill="#757575" stroke="#757575" points="1390.75,-387.04 1387.25,-377.04 1383.75,-387.04 1390.75,-387.04"/>
</g>
<!-- src/handlers/pointer&#45;operations.ts -->
<g id="node8" class="node">
<title>src/handlers/pointer&#45;operations.ts</title>
<path fill="none" stroke="#c6c5fe" d="M1709.83,-318C1709.83,-318 1508.17,-318 1508.17,-318 1504.33,-318 1500.5,-314.17 1500.5,-310.33 1500.5,-310.33 1500.5,-302.67 1500.5,-302.67 1500.5,-298.83 1504.33,-295 1508.17,-295 1508.17,-295 1709.83,-295 1709.83,-295 1713.67,-295 1717.5,-298.83 1717.5,-302.67 1717.5,-302.67 1717.5,-310.33 1717.5,-310.33 1717.5,-314.17 1713.67,-318 1709.83,-318"/>
<text text-anchor="middle" x="1609" y="-302.8" font-family="Arial" font-size="14.00" fill="#c6c5fe">src/handlers/pointer&#45;operations.ts</text>
</g>
<!-- src/app.ts&#45;&gt;src/handlers/pointer&#45;operations.ts -->
<g id="edge7" class="edge">
<title>src/app.ts&#45;&gt;src/handlers/pointer&#45;operations.ts</title>
<path fill="none" stroke="#757575" d="M1249.54,-595C1356.76,-595 1656.75,-595 1656.75,-595 1656.75,-595 1656.75,-328.17 1656.75,-328.17"/>
<polygon fill="#757575" stroke="#757575" points="1660.25,-328.17 1656.75,-318.17 1653.25,-328.17 1660.25,-328.17"/>
</g>
<!-- src/loops/for.ts -->
<g id="node9" class="node">
<title>src/loops/for.ts</title>
<path fill="none" stroke="#c6c5fe" d="M1321.33,-554C1321.33,-554 1232.67,-554 1232.67,-554 1228.83,-554 1225,-550.17 1225,-546.33 1225,-546.33 1225,-538.67 1225,-538.67 1225,-534.83 1228.83,-531 1232.67,-531 1232.67,-531 1321.33,-531 1321.33,-531 1325.17,-531 1329,-534.83 1329,-538.67 1329,-538.67 1329,-546.33 1329,-546.33 1329,-550.17 1325.17,-554 1321.33,-554"/>
<text text-anchor="middle" x="1277" y="-538.8" font-family="Arial" font-size="14.00" fill="#c6c5fe">src/loops/for.ts</text>
</g>
<!-- src/app.ts&#45;&gt;src/loops/for.ts -->
<g id="edge8" class="edge">
<title>src/app.ts&#45;&gt;src/loops/for.ts</title>
<path fill="none" stroke="#757575" d="M1237.25,-589.84C1237.25,-589.84 1237.25,-564.13 1237.25,-564.13"/>
<polygon fill="#757575" stroke="#757575" points="1240.75,-564.13 1237.25,-554.13 1233.75,-564.13 1240.75,-564.13"/>
</g>
<!-- src/loops/loop.ts -->
<g id="node10" class="node">
<title>src/loops/loop.ts</title>
<path fill="none" stroke="#cfffac" d="M1068.33,-495C1068.33,-495 969.67,-495 969.67,-495 965.83,-495 962,-491.17 962,-487.33 962,-487.33 962,-479.67 962,-479.67 962,-475.83 965.83,-472 969.67,-472 969.67,-472 1068.33,-472 1068.33,-472 1072.17,-472 1076,-475.83 1076,-479.67 1076,-479.67 1076,-487.33 1076,-487.33 1076,-491.17 1072.17,-495 1068.33,-495"/>
<text text-anchor="middle" x="1019" y="-479.8" font-family="Arial" font-size="14.00" fill="#cfffac">src/loops/loop.ts</text>
</g>
<!-- src/app.ts&#45;&gt;src/loops/loop.ts -->
<g id="edge9" class="edge">
<title>src/app.ts&#45;&gt;src/loops/loop.ts</title>
<path fill="none" stroke="#757575" d="M1174.39,-595C1118.33,-595 1019.33,-595 1019.33,-595 1019.33,-595 1019.33,-505.01 1019.33,-505.01"/>
<polygon fill="#757575" stroke="#757575" points="1022.83,-505.01 1019.33,-495.01 1015.83,-505.01 1022.83,-505.01"/>
</g>
<!-- src/loops/while.ts -->
<g id="node11" class="node">
<title>src/loops/while.ts</title>
<path fill="none" stroke="#c6c5fe" d="M1198.83,-554C1198.83,-554 1095.17,-554 1095.17,-554 1091.33,-554 1087.5,-550.17 1087.5,-546.33 1087.5,-546.33 1087.5,-538.67 1087.5,-538.67 1087.5,-534.83 1091.33,-531 1095.17,-531 1095.17,-531 1198.83,-531 1198.83,-531 1202.67,-531 1206.5,-534.83 1206.5,-538.67 1206.5,-538.67 1206.5,-546.33 1206.5,-546.33 1206.5,-550.17 1202.67,-554 1198.83,-554"/>
<text text-anchor="middle" x="1147" y="-538.8" font-family="Arial" font-size="14.00" fill="#c6c5fe">src/loops/while.ts</text>
</g>
<!-- src/app.ts&#45;&gt;src/loops/while.ts -->
<g id="edge10" class="edge">
<title>src/app.ts&#45;&gt;src/loops/while.ts</title>
<path fill="none" stroke="#757575" d="M1190.5,-589.84C1190.5,-589.84 1190.5,-564.13 1190.5,-564.13"/>
<polygon fill="#757575" stroke="#757575" points="1194,-564.13 1190.5,-554.13 1187,-564.13 1194,-564.13"/>
</g>
<!-- src/match.ts -->
<g id="node12" class="node">
<title>src/match.ts</title>
<path fill="none" stroke="#cfffac" d="M904.33,-318C904.33,-318 829.67,-318 829.67,-318 825.83,-318 822,-314.17 822,-310.33 822,-310.33 822,-302.67 822,-302.67 822,-298.83 825.83,-295 829.67,-295 829.67,-295 904.33,-295 904.33,-295 908.17,-295 912,-298.83 912,-302.67 912,-302.67 912,-310.33 912,-310.33 912,-314.17 908.17,-318 904.33,-318"/>
<text text-anchor="middle" x="867" y="-302.8" font-family="Arial" font-size="14.00" fill="#cfffac">src/match.ts</text>
</g>
<!-- src/app.ts&#45;&gt;src/match.ts -->
<g id="edge11" class="edge">
<title>src/app.ts&#45;&gt;src/match.ts</title>
<path fill="none" stroke="#757575" d="M1174.45,-598C1080.91,-598 845,-598 845,-598 845,-598 845,-328.29 845,-328.29"/>
<polygon fill="#757575" stroke="#757575" points="848.5,-328.29 845,-318.29 841.5,-328.29 848.5,-328.29"/>
</g>
<!-- src/parser.ts -->
<g id="node13" class="node">
<title>src/parser.ts</title>
<path fill="none" stroke="#c6c5fe" d="M2728.33,-82C2728.33,-82 2653.67,-82 2653.67,-82 2649.83,-82 2646,-78.17 2646,-74.33 2646,-74.33 2646,-66.67 2646,-66.67 2646,-62.83 2649.83,-59 2653.67,-59 2653.67,-59 2728.33,-59 2728.33,-59 2732.17,-59 2736,-62.83 2736,-66.67 2736,-66.67 2736,-74.33 2736,-74.33 2736,-78.17 2732.17,-82 2728.33,-82"/>
<text text-anchor="middle" x="2691" y="-66.8" font-family="Arial" font-size="14.00" fill="#c6c5fe">src/parser.ts</text>
</g>
<!-- src/app.ts&#45;&gt;src/parser.ts -->
<g id="edge12" class="edge">
<title>src/app.ts&#45;&gt;src/parser.ts</title>
<path fill="none" stroke="#757575" d="M1249.69,-607C1433.65,-607 2228.5,-607 2228.5,-607 2228.5,-607 2228.5,-72 2228.5,-72 2228.5,-72 2635.81,-72 2635.81,-72"/>
<polygon fill="#757575" stroke="#757575" points="2635.81,-75.5 2645.81,-72 2635.81,-68.5 2635.81,-75.5"/>
</g>
<!-- src/scope.ts -->
<g id="node14" class="node">
<title>src/scope.ts</title>
<path fill="none" stroke="#c6c5fe" d="M530.83,-495C530.83,-495 457.17,-495 457.17,-495 453.33,-495 449.5,-491.17 449.5,-487.33 449.5,-487.33 449.5,-479.67 449.5,-479.67 449.5,-475.83 453.33,-472 457.17,-472 457.17,-472 530.83,-472 530.83,-472 534.67,-472 538.5,-475.83 538.5,-479.67 538.5,-479.67 538.5,-487.33 538.5,-487.33 538.5,-491.17 534.67,-495 530.83,-495"/>
<text text-anchor="middle" x="494" y="-479.8" font-family="Arial" font-size="14.00" fill="#c6c5fe">src/scope.ts</text>
</g>
<!-- src/app.ts&#45;&gt;src/scope.ts -->
<g id="edge13" class="edge">
<title>src/app.ts&#45;&gt;src/scope.ts</title>
<path fill="none" stroke="#757575" d="M1174.41,-607C1026.67,-607 494,-607 494,-607 494,-607 494,-505.34 494,-505.34"/>
<polygon fill="#757575" stroke="#757575" points="497.5,-505.34 494,-495.34 490.5,-505.34 497.5,-505.34"/>
</g>
<!-- src/utils/app&#45;handlers.ts -->
<g id="node15" class="node">
<title>src/utils/app&#45;handlers.ts</title>
<path fill="none" stroke="#c6c5fe" d="M1923.83,-554C1923.83,-554 1780.17,-554 1780.17,-554 1776.33,-554 1772.5,-550.17 1772.5,-546.33 1772.5,-546.33 1772.5,-538.67 1772.5,-538.67 1772.5,-534.83 1776.33,-531 1780.17,-531 1780.17,-531 1923.83,-531 1923.83,-531 1927.67,-531 1931.5,-534.83 1931.5,-538.67 1931.5,-538.67 1931.5,-546.33 1931.5,-546.33 1931.5,-550.17 1927.67,-554 1923.83,-554"/>
<text text-anchor="middle" x="1852" y="-538.8" font-family="Arial" font-size="14.00" fill="#c6c5fe">src/utils/app&#45;handlers.ts</text>
</g>
<!-- src/app.ts&#45;&gt;src/utils/app&#45;handlers.ts -->
<g id="edge14" class="edge">
<title>src/app.ts&#45;&gt;src/utils/app&#45;handlers.ts</title>
<path fill="none" stroke="#757575" d="M1249.56,-604C1382.06,-604 1819.75,-604 1819.75,-604 1819.75,-604 1819.75,-564.07 1819.75,-564.07"/>
<polygon fill="#757575" stroke="#757575" points="1823.25,-564.07 1819.75,-554.07 1816.25,-564.07 1823.25,-564.07"/>
</g>
<!-- src/utils/array.ts -->
<g id="node16" class="node">
<title>src/utils/array.ts</title>
<path fill="none" stroke="#cfffac" d="M914.33,-82C914.33,-82 819.67,-82 819.67,-82 815.83,-82 812,-78.17 812,-74.33 812,-74.33 812,-66.67 812,-66.67 812,-62.83 815.83,-59 819.67,-59 819.67,-59 914.33,-59 914.33,-59 918.17,-59 922,-62.83 922,-66.67 922,-66.67 922,-74.33 922,-74.33 922,-78.17 918.17,-82 914.33,-82"/>
<text text-anchor="middle" x="867" y="-66.8" font-family="Arial" font-size="14.00" fill="#cfffac">src/utils/array.ts</text>
</g>
<!-- src/app.ts&#45;&gt;src/utils/array.ts -->
<g id="edge15" class="edge">
<title>src/app.ts&#45;&gt;src/utils/array.ts</title>
<path fill="none" stroke="#757575" d="M1174.34,-604C1051.5,-604 670.33,-604 670.33,-604 670.33,-604 670.33,-76 670.33,-76 670.33,-76 801.96,-76 801.96,-76"/>
<polygon fill="#757575" stroke="#757575" points="801.96,-79.5 811.96,-76 801.96,-72.5 801.96,-79.5"/>
</g>
<!-- src/utils/this&#45;keyword.ts -->
<g id="node17" class="node">
<title>src/utils/this&#45;keyword.ts</title>
<path fill="none" stroke="#c6c5fe" d="M822.33,-436C822.33,-436 681.67,-436 681.67,-436 677.83,-436 674,-432.17 674,-428.33 674,-428.33 674,-420.67 674,-420.67 674,-416.83 677.83,-413 681.67,-413 681.67,-413 822.33,-413 822.33,-413 826.17,-413 830,-416.83 830,-420.67 830,-420.67 830,-428.33 830,-428.33 830,-432.17 826.17,-436 822.33,-436"/>
<text text-anchor="middle" x="752" y="-420.8" font-family="Arial" font-size="14.00" fill="#c6c5fe">src/utils/this&#45;keyword.ts</text>
</g>
<!-- src/app.ts&#45;&gt;src/utils/this&#45;keyword.ts -->
<g id="edge16" class="edge">
<title>src/app.ts&#45;&gt;src/utils/this&#45;keyword.ts</title>
<path fill="none" stroke="#757575" d="M1174.3,-601C1071.78,-601 795.5,-601 795.5,-601 795.5,-601 795.5,-446.08 795.5,-446.08"/>
<polygon fill="#757575" stroke="#757575" points="799,-446.08 795.5,-436.08 792,-446.08 799,-446.08"/>
</g>
<!-- src/expressions/binary&#45;operation.ts&#45;&gt;src/expressions/handlers.ts -->
<g id="edge18" class="edge">
<title>src/expressions/binary&#45;operation.ts&#45;&gt;src/expressions/handlers.ts</title>
<path fill="none" stroke="#757575" d="M2371.25,-412.85C2371.25,-364.61 2371.25,-183 2371.25,-183 2371.25,-183 1559.39,-183 1559.39,-183"/>
<polygon fill="#757575" stroke="#757575" points="1559.39,-179.5 1549.39,-183 1559.39,-186.5 1559.39,-179.5"/>
</g>
<!-- src/expressions/binary&#45;operation.ts&#45;&gt;src/parser.ts -->
<g id="edge20" class="edge">
<title>src/expressions/binary&#45;operation.ts&#45;&gt;src/parser.ts</title>
<path fill="none" stroke="#757575" d="M2376.88,-412.94C2376.88,-352.64 2376.88,-77 2376.88,-77 2376.88,-77 2635.99,-77 2635.99,-77"/>
<polygon fill="#757575" stroke="#757575" points="2635.99,-80.5 2645.99,-77 2635.99,-73.5 2635.99,-80.5"/>
</g>
<!-- src/expressions/operators.ts -->
<g id="node19" class="node">
<title>src/expressions/operators.ts</title>
<path fill="none" stroke="#c6c5fe" d="M2184.83,-377C2184.83,-377 2015.17,-377 2015.17,-377 2011.33,-377 2007.5,-373.17 2007.5,-369.33 2007.5,-369.33 2007.5,-361.67 2007.5,-361.67 2007.5,-357.83 2011.33,-354 2015.17,-354 2015.17,-354 2184.83,-354 2184.83,-354 2188.67,-354 2192.5,-357.83 2192.5,-361.67 2192.5,-361.67 2192.5,-369.33 2192.5,-369.33 2192.5,-373.17 2188.67,-377 2184.83,-377"/>
<text text-anchor="middle" x="2100" y="-361.8" font-family="Arial" font-size="14.00" fill="#c6c5fe">src/expressions/operators.ts</text>
</g>
<!-- src/expressions/binary&#45;operation.ts&#45;&gt;src/expressions/operators.ts -->
<g id="edge19" class="edge">
<title>src/expressions/binary&#45;operation.ts&#45;&gt;src/expressions/operators.ts</title>
<path fill="none" stroke="#757575" d="M2365.62,-412.73C2365.62,-396.44 2365.62,-369 2365.62,-369 2365.62,-369 2202.53,-369 2202.53,-369"/>
<polygon fill="#757575" stroke="#757575" points="2202.53,-365.5 2192.53,-369 2202.53,-372.5 2202.53,-365.5"/>
</g>
<!-- src/expressions/grouped&#45;expressions.ts&#45;&gt;src/expressions/handlers.ts -->
<g id="edge21" class="edge">
<title>src/expressions/grouped&#45;expressions.ts&#45;&gt;src/expressions/handlers.ts</title>
<path fill="none" stroke="#757575" d="M964,-353.98C964,-314.94 964,-190 964,-190 964,-190 1358.78,-190 1358.78,-190"/>
<polygon fill="#757575" stroke="#757575" points="1358.78,-193.5 1368.78,-190 1358.78,-186.5 1358.78,-193.5"/>
</g>
<!-- src/expressions/grouped&#45;expressions.ts&#45;&gt;src/match.ts -->
<g id="edge22" class="edge">
<title>src/expressions/grouped&#45;expressions.ts&#45;&gt;src/match.ts</title>
<path fill="none" stroke="#757575" d="M886,-353.84C886,-353.84 886,-328.13 886,-328.13"/>
<polygon fill="#757575" stroke="#757575" points="889.5,-328.13 886,-318.13 882.5,-328.13 889.5,-328.13"/>
</g>
<!-- src/expressions/grouped&#45;expressions.ts&#45;&gt;src/utils/array.ts -->
<g id="edge24" class="edge">
<title>src/expressions/grouped&#45;expressions.ts&#45;&gt;src/utils/array.ts</title>
<path fill="none" stroke="#757575" d="M914.5,-353.94C914.5,-353.94 914.5,-92.3 914.5,-92.3"/>
<polygon fill="#757575" stroke="#757575" points="918,-92.3 914.5,-82.3 911,-92.31 918,-92.3"/>
</g>
<!-- src/types/structs.ts -->
<g id="node20" class="node">
<title>src/types/structs.ts</title>
<path fill="none" stroke="#c6c5fe" d="M1474.33,-318C1474.33,-318 1361.67,-318 1361.67,-318 1357.83,-318 1354,-314.17 1354,-310.33 1354,-310.33 1354,-302.67 1354,-302.67 1354,-298.83 1357.83,-295 1361.67,-295 1361.67,-295 1474.33,-295 1474.33,-295 1478.17,-295 1482,-298.83 1482,-302.67 1482,-302.67 1482,-310.33 1482,-310.33 1482,-314.17 1478.17,-318 1474.33,-318"/>
<text text-anchor="middle" x="1418" y="-302.8" font-family="Arial" font-size="14.00" fill="#c6c5fe">src/types/structs.ts</text>
</g>
<!-- src/expressions/grouped&#45;expressions.ts&#45;&gt;src/types/structs.ts -->
<g id="edge23" class="edge">
<title>src/expressions/grouped&#45;expressions.ts&#45;&gt;src/types/structs.ts</title>
<path fill="none" stroke="#757575" d="M1042,-353.93C1042,-349.73 1042,-346 1042,-346 1042,-346 1381,-346 1381,-346 1381,-346 1381,-328.14 1381,-328.14"/>
<polygon fill="#757575" stroke="#757575" points="1384.5,-328.14 1381,-318.14 1377.5,-328.14 1384.5,-328.14"/>
</g>
<!-- src/utils/identifier&#45;utils.ts -->
<g id="node21" class="node">
<title>src/utils/identifier&#45;utils.ts</title>
<path fill="none" stroke="#cfffac" d="M1158.33,-259C1158.33,-259 1013.67,-259 1013.67,-259 1009.83,-259 1006,-255.17 1006,-251.33 1006,-251.33 1006,-243.67 1006,-243.67 1006,-239.83 1009.83,-236 1013.67,-236 1013.67,-236 1158.33,-236 1158.33,-236 1162.17,-236 1166,-239.83 1166,-243.67 1166,-243.67 1166,-251.33 1166,-251.33 1166,-255.17 1162.17,-259 1158.33,-259"/>
<text text-anchor="middle" x="1086" y="-243.8" font-family="Arial" font-size="14.00" fill="#cfffac">src/utils/identifier&#45;utils.ts</text>
</g>
<!-- src/expressions/grouped&#45;expressions.ts&#45;&gt;src/utils/identifier&#45;utils.ts -->
<g id="edge25" class="edge">
<title>src/expressions/grouped&#45;expressions.ts&#45;&gt;src/utils/identifier&#45;utils.ts</title>
<path fill="none" stroke="#757575" d="M1078,-353.75C1078,-353.75 1078,-269.2 1078,-269.2"/>
<polygon fill="#757575" stroke="#757575" points="1081.5,-269.2 1078,-259.2 1074.5,-269.2 1081.5,-269.2"/>
</g>
<!-- src/handlers/assignment.ts -->
<g id="node22" class="node">
<title>src/handlers/assignment.ts</title>
<path fill="none" stroke="#c6c5fe" d="M1423.33,-141C1423.33,-141 1260.67,-141 1260.67,-141 1256.83,-141 1253,-137.17 1253,-133.33 1253,-133.33 1253,-125.67 1253,-125.67 1253,-121.83 1256.83,-118 1260.67,-118 1260.67,-118 1423.33,-118 1423.33,-118 1427.17,-118 1431,-121.83 1431,-125.67 1431,-125.67 1431,-133.33 1431,-133.33 1431,-137.17 1427.17,-141 1423.33,-141"/>
<text text-anchor="middle" x="1342" y="-125.8" font-family="Arial" font-size="14.00" fill="#c6c5fe">src/handlers/assignment.ts</text>
</g>
<!-- src/expressions/handlers.ts&#45;&gt;src/handlers/assignment.ts -->
<g id="edge26" class="edge">
<title>src/expressions/handlers.ts&#45;&gt;src/handlers/assignment.ts</title>
<path fill="none" stroke="#757575" d="M1400,-176.84C1400,-176.84 1400,-151.13 1400,-151.13"/>
<polygon fill="#757575" stroke="#757575" points="1403.5,-151.13 1400,-141.13 1396.5,-151.13 1403.5,-151.13"/>
</g>
<!-- src/types/interpreter.ts -->
<g id="node23" class="node">
<title>src/types/interpreter.ts</title>
<path fill="none" stroke="#cfffac" d="M1466.83,-82C1466.83,-82 1333.17,-82 1333.17,-82 1329.33,-82 1325.5,-78.17 1325.5,-74.33 1325.5,-74.33 1325.5,-66.67 1325.5,-66.67 1325.5,-62.83 1329.33,-59 1333.17,-59 1333.17,-59 1466.83,-59 1466.83,-59 1470.67,-59 1474.5,-62.83 1474.5,-66.67 1474.5,-66.67 1474.5,-74.33 1474.5,-74.33 1474.5,-78.17 1470.67,-82 1466.83,-82"/>
<text text-anchor="middle" x="1400" y="-66.8" font-family="Arial" font-size="14.00" fill="#cfffac">src/types/interpreter.ts</text>
</g>
<!-- src/expressions/handlers.ts&#45;&gt;src/types/interpreter.ts -->
<g id="edge27" class="edge">
<title>src/expressions/handlers.ts&#45;&gt;src/types/interpreter.ts</title>
<path fill="none" stroke="#757575" d="M1452.75,-176.75C1452.75,-176.75 1452.75,-92.2 1452.75,-92.2"/>
<polygon fill="#757575" stroke="#757575" points="1456.25,-92.2 1452.75,-82.2 1449.25,-92.2 1456.25,-92.2"/>
</g>
<!-- src/utils/scope&#45;helpers.ts -->
<g id="node24" class="node">
<title>src/utils/scope&#45;helpers.ts</title>
<path fill="none" stroke="#c6c5fe" d="M583.83,-141C583.83,-141 434.17,-141 434.17,-141 430.33,-141 426.5,-137.17 426.5,-133.33 426.5,-133.33 426.5,-125.67 426.5,-125.67 426.5,-121.83 430.33,-118 434.17,-118 434.17,-118 583.83,-118 583.83,-118 587.67,-118 591.5,-121.83 591.5,-125.67 591.5,-125.67 591.5,-133.33 591.5,-133.33 591.5,-137.17 587.67,-141 583.83,-141"/>
<text text-anchor="middle" x="509" y="-125.8" font-family="Arial" font-size="14.00" fill="#c6c5fe">src/utils/scope&#45;helpers.ts</text>
</g>
<!-- src/expressions/handlers.ts&#45;&gt;src/utils/scope&#45;helpers.ts -->
<g id="edge28" class="edge">
<title>src/expressions/handlers.ts&#45;&gt;src/utils/scope&#45;helpers.ts</title>
<path fill="none" stroke="#757575" d="M1368.87,-181C1136.74,-181 536.5,-181 536.5,-181 536.5,-181 536.5,-151.19 536.5,-151.19"/>
<polygon fill="#757575" stroke="#757575" points="540,-151.19 536.5,-141.19 533,-151.19 540,-151.19"/>
</g>
<!-- src/handlers/dereference&#45;assignment.ts&#45;&gt;src/expressions/handlers.ts -->
<g id="edge50" class="edge">
<title>src/handlers/dereference&#45;assignment.ts&#45;&gt;src/expressions/handlers.ts</title>
<path fill="none" stroke="#757575" d="M1754.5,-353.98C1754.5,-314.94 1754.5,-190 1754.5,-190 1754.5,-190 1559.27,-190 1559.27,-190"/>
<polygon fill="#757575" stroke="#757575" points="1559.27,-186.5 1549.27,-190 1559.27,-193.5 1559.27,-186.5"/>
</g>
<!-- src/handlers/dereference&#45;assignment.ts&#45;&gt;src/handlers/pointer&#45;operations.ts -->
<g id="edge51" class="edge">
<title>src/handlers/dereference&#45;assignment.ts&#45;&gt;src/handlers/pointer&#45;operations.ts</title>
<path fill="none" stroke="#757575" d="M1734.82,-369C1720.47,-369 1710.88,-369 1710.88,-369 1710.88,-369 1710.88,-328.26 1710.88,-328.26"/>
<polygon fill="#757575" stroke="#757575" points="1714.38,-328.26 1710.88,-318.26 1707.38,-328.26 1714.38,-328.26"/>
</g>
<!-- src/functions.ts -->
<g id="node30" class="node">
<title>src/functions.ts</title>
<path fill="none" stroke="#c6c5fe" d="M421.83,-377C421.83,-377 330.17,-377 330.17,-377 326.33,-377 322.5,-373.17 322.5,-369.33 322.5,-369.33 322.5,-361.67 322.5,-361.67 322.5,-357.83 326.33,-354 330.17,-354 330.17,-354 421.83,-354 421.83,-354 425.67,-354 429.5,-357.83 429.5,-361.67 429.5,-361.67 429.5,-369.33 429.5,-369.33 429.5,-373.17 425.67,-377 421.83,-377"/>
<text text-anchor="middle" x="376" y="-361.8" font-family="Arial" font-size="14.00" fill="#c6c5fe">src/functions.ts</text>
</g>
<!-- src/handlers/lambda&#45;expressions.ts&#45;&gt;src/functions.ts -->
<g id="edge57" class="edge">
<title>src/handlers/lambda&#45;expressions.ts&#45;&gt;src/functions.ts</title>
<path fill="none" stroke="#757575" d="M159.5,-412.73C159.5,-396.44 159.5,-369 159.5,-369 159.5,-369 312.48,-369 312.48,-369"/>
<polygon fill="#757575" stroke="#757575" points="312.48,-372.5 322.48,-369 312.48,-365.5 312.48,-372.5"/>
</g>
<!-- src/handlers/anonymous&#45;functions.ts -->
<g id="node31" class="node">
<title>src/handlers/anonymous&#45;functions.ts</title>
<path fill="none" stroke="#c6c5fe" d="M247.83,-318C247.83,-318 26.17,-318 26.17,-318 22.33,-318 18.5,-314.17 18.5,-310.33 18.5,-310.33 18.5,-302.67 18.5,-302.67 18.5,-298.83 22.33,-295 26.17,-295 26.17,-295 247.83,-295 247.83,-295 251.67,-295 255.5,-298.83 255.5,-302.67 255.5,-302.67 255.5,-310.33 255.5,-310.33 255.5,-314.17 251.67,-318 247.83,-318"/>
<text text-anchor="middle" x="137" y="-302.8" font-family="Arial" font-size="14.00" fill="#c6c5fe">src/handlers/anonymous&#45;functions.ts</text>
</g>
<!-- src/handlers/lambda&#45;expressions.ts&#45;&gt;src/handlers/anonymous&#45;functions.ts -->
<g id="edge58" class="edge">
<title>src/handlers/lambda&#45;expressions.ts&#45;&gt;src/handlers/anonymous&#45;functions.ts</title>
<path fill="none" stroke="#757575" d="M89,-412.75C89,-412.75 89,-328.2 89,-328.2"/>
<polygon fill="#757575" stroke="#757575" points="92.5,-328.2 89,-318.2 85.5,-328.2 92.5,-328.2"/>
</g>
<!-- src/handlers/module&#45;access.ts&#45;&gt;src/expressions/handlers.ts -->
<g id="edge64" class="edge">
<title>src/handlers/module&#45;access.ts&#45;&gt;src/expressions/handlers.ts</title>
<path fill="none" stroke="#757575" d="M1408.02,-361C1448.83,-361 1486.62,-361 1486.62,-361 1486.62,-361 1486.62,-210.09 1486.62,-210.09"/>
<polygon fill="#757575" stroke="#757575" points="1490.13,-210.09 1486.62,-200.09 1483.13,-210.09 1490.13,-210.09"/>
</g>
<!-- src/handlers/module&#45;access.ts&#45;&gt;src/utils/identifier&#45;utils.ts -->
<g id="edge66" class="edge">
<title>src/handlers/module&#45;access.ts&#45;&gt;src/utils/identifier&#45;utils.ts</title>
<path fill="none" stroke="#757575" d="M1207.75,-365C1169.45,-365 1134.8,-365 1134.8,-365 1134.8,-365 1134.8,-269.2 1134.8,-269.2"/>
<polygon fill="#757575" stroke="#757575" points="1138.3,-269.2 1134.8,-259.2 1131.3,-269.2 1138.3,-269.2"/>
</g>
<!-- src/types/modules.ts -->
<g id="node36" class="node">
<title>src/types/modules.ts</title>
<path fill="none" stroke="#c6c5fe" d="M1328.33,-318C1328.33,-318 1203.67,-318 1203.67,-318 1199.83,-318 1196,-314.17 1196,-310.33 1196,-310.33 1196,-302.67 1196,-302.67 1196,-298.83 1199.83,-295 1203.67,-295 1203.67,-295 1328.33,-295 1328.33,-295 1332.17,-295 1336,-298.83 1336,-302.67 1336,-302.67 1336,-310.33 1336,-310.33 1336,-314.17 1332.17,-318 1328.33,-318"/>
<text text-anchor="middle" x="1266" y="-302.8" font-family="Arial" font-size="14.00" fill="#c6c5fe">src/types/modules.ts</text>
</g>
<!-- src/handlers/module&#45;access.ts&#45;&gt;src/types/modules.ts -->
<g id="edge65" class="edge">
<title>src/handlers/module&#45;access.ts&#45;&gt;src/types/modules.ts</title>
<path fill="none" stroke="#757575" d="M1272,-353.84C1272,-353.84 1272,-328.13 1272,-328.13"/>
<polygon fill="#757575" stroke="#757575" points="1275.5,-328.13 1272,-318.13 1268.5,-328.13 1275.5,-328.13"/>
</g>
<!-- src/handlers/pointer&#45;operations.ts&#45;&gt;src/utils/identifier&#45;utils.ts -->
<g id="edge67" class="edge">
<title>src/handlers/pointer&#45;operations.ts&#45;&gt;src/utils/identifier&#45;utils.ts</title>
<path fill="none" stroke="#757575" d="M1524.75,-294.84C1524.75,-286.6 1524.75,-277 1524.75,-277 1524.75,-277 1155.6,-277 1155.6,-277 1155.6,-277 1155.6,-269.16 1155.6,-269.16"/>
<polygon fill="#757575" stroke="#757575" points="1159.1,-269.16 1155.6,-259.16 1152.1,-269.16 1159.1,-269.16"/>
</g>
<!-- src/loops/for.ts&#45;&gt;src/loops/loop.ts -->
<g id="edge69" class="edge">
<title>src/loops/for.ts&#45;&gt;src/loops/loop.ts</title>
<path fill="none" stroke="#757575" d="M1233.5,-530.75C1233.5,-524.88 1233.5,-519 1233.5,-519 1233.5,-519 1047.67,-519 1047.67,-519 1047.67,-519 1047.67,-505.12 1047.67,-505.12"/>
<polygon fill="#757575" stroke="#757575" points="1051.17,-505.12 1047.67,-495.12 1044.17,-505.12 1051.17,-505.12"/>
</g>
<!-- src/loops/helpers.ts -->
<g id="node37" class="node">
<title>src/loops/helpers.ts</title>
<path fill="none" stroke="#cfffac" d="M1219.83,-495C1219.83,-495 1102.17,-495 1102.17,-495 1098.33,-495 1094.5,-491.17 1094.5,-487.33 1094.5,-487.33 1094.5,-479.67 1094.5,-479.67 1094.5,-475.83 1098.33,-472 1102.17,-472 1102.17,-472 1219.83,-472 1219.83,-472 1223.67,-472 1227.5,-475.83 1227.5,-479.67 1227.5,-479.67 1227.5,-487.33 1227.5,-487.33 1227.5,-491.17 1223.67,-495 1219.83,-495"/>
<text text-anchor="middle" x="1161" y="-479.8" font-family="Arial" font-size="14.00" fill="#cfffac">src/loops/helpers.ts</text>
</g>
<!-- src/loops/for.ts&#45;&gt;src/loops/helpers.ts -->
<g id="edge68" class="edge">
<title>src/loops/for.ts&#45;&gt;src/loops/helpers.ts</title>
<path fill="none" stroke="#757575" d="M1239.5,-530.74C1239.5,-513.4 1239.5,-483 1239.5,-483 1239.5,-483 1237.58,-483 1237.58,-483"/>
<polygon fill="#757575" stroke="#757575" points="1237.58,-479.5 1227.58,-483 1237.58,-486.5 1237.58,-479.5"/>
</g>
<!-- src/loops/types.ts -->
<g id="node38" class="node">
<title>src/loops/types.ts</title>
<path fill="none" stroke="#c6c5fe" d="M1358.83,-495C1358.83,-495 1253.17,-495 1253.17,-495 1249.33,-495 1245.5,-491.17 1245.5,-487.33 1245.5,-487.33 1245.5,-479.67 1245.5,-479.67 1245.5,-475.83 1249.33,-472 1253.17,-472 1253.17,-472 1358.83,-472 1358.83,-472 1362.67,-472 1366.5,-475.83 1366.5,-479.67 1366.5,-479.67 1366.5,-487.33 1366.5,-487.33 1366.5,-491.17 1362.67,-495 1358.83,-495"/>
<text text-anchor="middle" x="1306" y="-479.8" font-family="Arial" font-size="14.00" fill="#c6c5fe">src/loops/types.ts</text>
</g>
<!-- src/loops/for.ts&#45;&gt;src/loops/types.ts -->
<g id="edge70" class="edge">
<title>src/loops/for.ts&#45;&gt;src/loops/types.ts</title>
<path fill="none" stroke="#757575" d="M1301.17,-530.84C1301.17,-530.84 1301.17,-505.13 1301.17,-505.13"/>
<polygon fill="#757575" stroke="#757575" points="1304.67,-505.13 1301.17,-495.13 1297.67,-505.13 1304.67,-505.13"/>
</g>
<!-- src/loops/while.ts&#45;&gt;src/loops/loop.ts -->
<g id="edge73" class="edge">
<title>src/loops/while.ts&#45;&gt;src/loops/loop.ts</title>
<path fill="none" stroke="#757575" d="M1091,-530.74C1091,-513.4 1091,-483 1091,-483 1091,-483 1086.08,-483 1086.08,-483"/>
<polygon fill="#757575" stroke="#757575" points="1086.08,-479.5 1076.08,-483 1086.08,-486.5 1086.08,-479.5"/>
</g>
<!-- src/loops/while.ts&#45;&gt;src/loops/helpers.ts -->
<g id="edge72" class="edge">
<title>src/loops/while.ts&#45;&gt;src/loops/helpers.ts</title>
<path fill="none" stroke="#757575" d="M1131.83,-530.84C1131.83,-530.84 1131.83,-505.13 1131.83,-505.13"/>
<polygon fill="#757575" stroke="#757575" points="1135.33,-505.13 1131.83,-495.13 1128.33,-505.13 1135.33,-505.13"/>
</g>
<!-- src/loops/while.ts&#45;&gt;src/loops/types.ts -->
<g id="edge74" class="edge">
<title>src/loops/while.ts&#45;&gt;src/loops/types.ts</title>
<path fill="none" stroke="#757575" d="M1169.17,-530.88C1169.17,-520.52 1169.17,-507 1169.17,-507 1169.17,-507 1273.33,-507 1273.33,-507 1273.33,-507 1273.33,-505.25 1273.33,-505.25"/>
<polygon fill="#757575" stroke="#757575" points="1276.83,-505.25 1273.33,-495.25 1269.83,-505.25 1276.83,-505.25"/>
</g>
<!-- src/type&#45;utils.ts -->
<g id="node27" class="node">
<title>src/type&#45;utils.ts</title>
<path fill="none" stroke="#cfffac" d="M637.83,-23C637.83,-23 546.17,-23 546.17,-23 542.33,-23 538.5,-19.17 538.5,-15.33 538.5,-15.33 538.5,-7.67 538.5,-7.67 538.5,-3.83 542.33,0 546.17,0 546.17,0 637.83,0 637.83,0 641.67,0 645.5,-3.83 645.5,-7.67 645.5,-7.67 645.5,-15.33 645.5,-15.33 645.5,-19.17 641.67,-23 637.83,-23"/>
<text text-anchor="middle" x="592" y="-7.8" font-family="Arial" font-size="14.00" fill="#cfffac">src/type&#45;utils.ts</text>
</g>
<!-- src/parser.ts&#45;&gt;src/type&#45;utils.ts -->
<g id="edge75" class="edge">
<title>src/parser.ts&#45;&gt;src/type&#45;utils.ts</title>
<path fill="none" stroke="#757575" d="M2691,-58.92C2691,-39.86 2691,-4 2691,-4 2691,-4 655.73,-4 655.73,-4"/>
<polygon fill="#757575" stroke="#757575" points="655.73,-0.5 645.73,-4 655.73,-7.5 655.73,-0.5"/>
</g>
<!-- src/scope.ts&#45;&gt;src/expressions/handlers.ts -->
<g id="edge76" class="edge">
<title>src/scope.ts&#45;&gt;src/expressions/handlers.ts</title>
<path fill="none" stroke="#757575" d="M538.92,-489C590.08,-489 666.67,-489 666.67,-489 666.67,-489 666.67,-186 666.67,-186 666.67,-186 1358.88,-186 1358.88,-186"/>
<polygon fill="#757575" stroke="#757575" points="1358.88,-189.5 1368.88,-186 1358.88,-182.5 1358.88,-189.5"/>
</g>
<!-- src/scope.ts&#45;&gt;src/handlers/lambda&#45;expressions.ts -->
<g id="edge79" class="edge">
<title>src/scope.ts&#45;&gt;src/handlers/lambda&#45;expressions.ts</title>
<path fill="none" stroke="#757575" d="M449.4,-483C370.49,-483 214.5,-483 214.5,-483 214.5,-483 214.5,-446.06 214.5,-446.06"/>
<polygon fill="#757575" stroke="#757575" points="218,-446.06 214.5,-436.06 211,-446.06 218,-446.06"/>
</g>
<!-- src/scope.ts&#45;&gt;src/parser.ts -->
<g id="edge80" class="edge">
<title>src/scope.ts&#45;&gt;src/parser.ts</title>
<path fill="none" stroke="#757575" d="M483.75,-471.81C483.75,-467.21 483.75,-463 483.75,-463 483.75,-463 1721.88,-463 1721.88,-463 1721.88,-463 1721.88,-63 1721.88,-63 1721.88,-63 2635.88,-63 2635.88,-63"/>
<polygon fill="#757575" stroke="#757575" points="2635.88,-66.5 2645.88,-63 2635.88,-59.5 2635.88,-66.5"/>
</g>
<!-- src/scope.ts&#45;&gt;src/utils/array.ts -->
<g id="edge81" class="edge">
<title>src/scope.ts&#45;&gt;src/utils/array.ts</title>
<path fill="none" stroke="#757575" d="M538.85,-483C588.91,-483 663,-483 663,-483 663,-483 663,-70 663,-70 663,-70 801.79,-70 801.79,-70"/>
<polygon fill="#757575" stroke="#757575" points="801.79,-73.5 811.79,-70 801.79,-66.5 801.79,-73.5"/>
</g>
<!-- src/scope.ts&#45;&gt;src/utils/scope&#45;helpers.ts -->
<g id="edge83" class="edge">
<title>src/scope.ts&#45;&gt;src/utils/scope&#45;helpers.ts</title>
<path fill="none" stroke="#757575" d="M538.74,-477C587.71,-477 659.33,-477 659.33,-477 659.33,-477 659.33,-131 659.33,-131 659.33,-131 601.64,-131 601.64,-131"/>
<polygon fill="#757575" stroke="#757575" points="601.64,-127.5 591.64,-131 601.64,-134.5 601.64,-127.5"/>
</g>
<!-- src/function&#45;type&#45;handler.ts -->
<g id="node29" class="node">
<title>src/function&#45;type&#45;handler.ts</title>
<path fill="none" stroke="#c6c5fe" d="M457.83,-436C457.83,-436 294.17,-436 294.17,-436 290.33,-436 286.5,-432.17 286.5,-428.33 286.5,-428.33 286.5,-420.67 286.5,-420.67 286.5,-416.83 290.33,-413 294.17,-413 294.17,-413 457.83,-413 457.83,-413 461.67,-413 465.5,-416.83 465.5,-420.67 465.5,-420.67 465.5,-428.33 465.5,-428.33 465.5,-432.17 461.67,-436 457.83,-436"/>
<text text-anchor="middle" x="376" y="-420.8" font-family="Arial" font-size="14.00" fill="#c6c5fe">src/function&#45;type&#45;handler.ts</text>
</g>
<!-- src/scope.ts&#45;&gt;src/function&#45;type&#45;handler.ts -->
<g id="edge77" class="edge">
<title>src/scope.ts&#45;&gt;src/function&#45;type&#45;handler.ts</title>
<path fill="none" stroke="#757575" d="M457.5,-471.84C457.5,-471.84 457.5,-446.13 457.5,-446.13"/>
<polygon fill="#757575" stroke="#757575" points="461,-446.13 457.5,-436.13 454,-446.13 461,-446.13"/>
</g>
<!-- src/scope.ts&#45;&gt;src/functions.ts -->
<g id="edge78" class="edge">
<title>src/scope.ts&#45;&gt;src/functions.ts</title>
<path fill="none" stroke="#757575" d="M502,-471.7C502,-441.73 502,-365 502,-365 502,-365 439.8,-365 439.8,-365"/>
<polygon fill="#757575" stroke="#757575" points="439.8,-361.5 429.8,-365 439.8,-368.5 439.8,-361.5"/>
</g>
<!-- src/utils/function&#45;utils.ts -->
<g id="node34" class="node">
<title>src/utils/function&#45;utils.ts</title>
<path fill="none" stroke="#c6c5fe" d="M430.33,-82C430.33,-82 289.67,-82 289.67,-82 285.83,-82 282,-78.17 282,-74.33 282,-74.33 282,-66.67 282,-66.67 282,-62.83 285.83,-59 289.67,-59 289.67,-59 430.33,-59 430.33,-59 434.17,-59 438,-62.83 438,-66.67 438,-66.67 438,-74.33 438,-74.33 438,-78.17 434.17,-82 430.33,-82"/>
<text text-anchor="middle" x="360" y="-66.8" font-family="Arial" font-size="14.00" fill="#c6c5fe">src/utils/function&#45;utils.ts</text>
</g>
<!-- src/scope.ts&#45;&gt;src/utils/function&#45;utils.ts -->
<g id="edge82" class="edge">
<title>src/scope.ts&#45;&gt;src/utils/function&#45;utils.ts</title>
<path fill="none" stroke="#757575" d="M520.25,-471.67C520.25,-437.16 520.25,-339 520.25,-339 520.25,-339 366.86,-339 366.86,-339 366.86,-339 366.86,-92.04 366.86,-92.04"/>
<polygon fill="#757575" stroke="#757575" points="370.36,-92.04 366.86,-82.04 363.36,-92.04 370.36,-92.04"/>
</g>
<!-- src/utils/app&#45;handlers.ts&#45;&gt;src/expressions/handlers.ts -->
<g id="edge91" class="edge">
<title>src/utils/app&#45;handlers.ts&#45;&gt;src/expressions/handlers.ts</title>
<path fill="none" stroke="#757575" d="M1772.4,-538C1749.52,-538 1730.62,-538 1730.62,-538 1730.62,-538 1730.62,-193 1730.62,-193 1730.62,-193 1559.07,-193 1559.07,-193"/>
<polygon fill="#757575" stroke="#757575" points="1559.07,-189.5 1549.07,-193 1559.07,-196.5 1559.07,-189.5"/>
</g>
<!-- src/utils/app&#45;handlers.ts&#45;&gt;src/types/structs.ts -->
<g id="edge96" class="edge">
<title>src/utils/app&#45;handlers.ts&#45;&gt;src/types/structs.ts</title>
<path fill="none" stroke="#757575" d="M1772.4,-546C1653.07,-546 1441.67,-546 1441.67,-546 1441.67,-546 1441.67,-328.05 1441.67,-328.05"/>
<polygon fill="#757575" stroke="#757575" points="1445.17,-328.05 1441.67,-318.05 1438.17,-328.05 1445.17,-328.05"/>
</g>
<!-- src/expressions/unary&#45;operation.ts -->
<g id="node28" class="node">
<title>src/expressions/unary&#45;operation.ts</title>
<path fill="none" stroke="#c6c5fe" d="M2597.83,-259C2597.83,-259 2390.17,-259 2390.17,-259 2386.33,-259 2382.5,-255.17 2382.5,-251.33 2382.5,-251.33 2382.5,-243.67 2382.5,-243.67 2382.5,-239.83 2386.33,-236 2390.17,-236 2390.17,-236 2597.83,-236 2597.83,-236 2601.67,-236 2605.5,-239.83 2605.5,-243.67 2605.5,-243.67 2605.5,-251.33 2605.5,-251.33 2605.5,-255.17 2601.67,-259 2597.83,-259"/>
<text text-anchor="middle" x="2494" y="-243.8" font-family="Arial" font-size="14.00" fill="#c6c5fe">src/expressions/unary&#45;operation.ts</text>
</g>
<!-- src/utils/app&#45;handlers.ts&#45;&gt;src/expressions/unary&#45;operation.ts -->
<g id="edge92" class="edge">
<title>src/utils/app&#45;handlers.ts&#45;&gt;src/expressions/unary&#45;operation.ts</title>
<path fill="none" stroke="#757575" d="M1931.77,-542C2044.54,-542 2237,-542 2237,-542 2237,-542 2237,-247 2237,-247 2237,-247 2372.4,-247 2372.4,-247"/>
<polygon fill="#757575" stroke="#757575" points="2372.4,-250.5 2382.4,-247 2372.4,-243.5 2372.4,-250.5"/>
</g>
<!-- src/utils/app&#45;handlers.ts&#45;&gt;src/functions.ts -->
<g id="edge93" class="edge">
<title>src/utils/app&#45;handlers.ts&#45;&gt;src/functions.ts</title>
<path fill="none" stroke="#757575" d="M1891.75,-530.67C1891.75,-496.16 1891.75,-398 1891.75,-398 1891.75,-398 402.75,-398 402.75,-398 402.75,-398 402.75,-387.23 402.75,-387.23"/>
<polygon fill="#757575" stroke="#757575" points="406.25,-387.23 402.75,-377.23 399.25,-387.23 406.25,-387.23"/>
</g>
<!-- src/utils/function&#45;call&#45;params.ts -->
<g id="node33" class="node">
<title>src/utils/function&#45;call&#45;params.ts</title>
<path fill="none" stroke="#c6c5fe" d="M2203.83,-318C2203.83,-318 2016.17,-318 2016.17,-318 2012.33,-318 2008.5,-314.17 2008.5,-310.33 2008.5,-310.33 2008.5,-302.67 2008.5,-302.67 2008.5,-298.83 2012.33,-295 2016.17,-295 2016.17,-295 2203.83,-295 2203.83,-295 2207.67,-295 2211.5,-298.83 2211.5,-302.67 2211.5,-302.67 2211.5,-310.33 2211.5,-310.33 2211.5,-314.17 2207.67,-318 2203.83,-318"/>
<text text-anchor="middle" x="2110" y="-302.8" font-family="Arial" font-size="14.00" fill="#c6c5fe">src/utils/function&#45;call&#45;params.ts</text>
</g>
<!-- src/utils/app&#45;handlers.ts&#45;&gt;src/utils/function&#45;call&#45;params.ts -->
<g id="edge98" class="edge">
<title>src/utils/app&#45;handlers.ts&#45;&gt;src/utils/function&#45;call&#45;params.ts</title>
<path fill="none" stroke="#757575" d="M1931.86,-536C2035.16,-536 2202,-536 2202,-536 2202,-536 2202,-328.2 2202,-328.2"/>
<polygon fill="#757575" stroke="#757575" points="2205.5,-328.2 2202,-318.2 2198.5,-328.2 2205.5,-328.2"/>
</g>
<!-- src/handlers/method&#45;call.ts -->
<g id="node35" class="node">
<title>src/handlers/method&#45;call.ts</title>
<path fill="none" stroke="#c6c5fe" d="M1632.83,-495C1632.83,-495 1469.17,-495 1469.17,-495 1465.33,-495 1461.5,-491.17 1461.5,-487.33 1461.5,-487.33 1461.5,-479.67 1461.5,-479.67 1461.5,-475.83 1465.33,-472 1469.17,-472 1469.17,-472 1632.83,-472 1632.83,-472 1636.67,-472 1640.5,-475.83 1640.5,-479.67 1640.5,-479.67 1640.5,-487.33 1640.5,-487.33 1640.5,-491.17 1636.67,-495 1632.83,-495"/>
<text text-anchor="middle" x="1551" y="-479.8" font-family="Arial" font-size="14.00" fill="#c6c5fe">src/handlers/method&#45;call.ts</text>
</g>
<!-- src/utils/app&#45;handlers.ts&#45;&gt;src/handlers/method&#45;call.ts -->
<g id="edge94" class="edge">
<title>src/utils/app&#45;handlers.ts&#45;&gt;src/handlers/method&#45;call.ts</title>
<path fill="none" stroke="#757575" d="M1812.25,-530.74C1812.25,-513.4 1812.25,-483 1812.25,-483 1812.25,-483 1650.54,-483 1650.54,-483"/>
<polygon fill="#757575" stroke="#757575" points="1650.54,-479.5 1640.54,-483 1650.54,-486.5 1650.54,-479.5"/>
</g>
<!-- src/utils/app&#45;handlers.ts&#45;&gt;src/types/modules.ts -->
<g id="edge95" class="edge">
<title>src/utils/app&#45;handlers.ts&#45;&gt;src/types/modules.ts</title>
<path fill="none" stroke="#757575" d="M1852,-530.93C1852,-506.94 1852,-454 1852,-454 1852,-454 1202,-454 1202,-454 1202,-454 1202,-328.07 1202,-328.07"/>
<polygon fill="#757575" stroke="#757575" points="1205.5,-328.07 1202,-318.07 1198.5,-328.07 1205.5,-328.07"/>
</g>
<!-- src/types/type&#45;declarations.ts -->
<g id="node39" class="node">
<title>src/types/type&#45;declarations.ts</title>
<path fill="none" stroke="#c6c5fe" d="M2755.83,-318C2755.83,-318 2580.17,-318 2580.17,-318 2576.33,-318 2572.5,-314.17 2572.5,-310.33 2572.5,-310.33 2572.5,-302.67 2572.5,-302.67 2572.5,-298.83 2576.33,-295 2580.17,-295 2580.17,-295 2755.83,-295 2755.83,-295 2759.67,-295 2763.5,-298.83 2763.5,-302.67 2763.5,-302.67 2763.5,-310.33 2763.5,-310.33 2763.5,-314.17 2759.67,-318 2755.83,-318"/>
<text text-anchor="middle" x="2668" y="-302.8" font-family="Arial" font-size="14.00" fill="#c6c5fe">src/types/type&#45;declarations.ts</text>
</g>
<!-- src/utils/app&#45;handlers.ts&#45;&gt;src/types/type&#45;declarations.ts -->
<g id="edge97" class="edge">
<title>src/utils/app&#45;handlers.ts&#45;&gt;src/types/type&#45;declarations.ts</title>
<path fill="none" stroke="#757575" d="M1931.64,-548C2138.11,-548 2674.75,-548 2674.75,-548 2674.75,-548 2674.75,-328.15 2674.75,-328.15"/>
<polygon fill="#757575" stroke="#757575" points="2678.25,-328.15 2674.75,-318.15 2671.25,-328.15 2678.25,-328.15"/>
</g>
<!-- src/utils/this&#45;keyword.ts&#45;&gt;src/types/structs.ts -->
<g id="edge107" class="edge">
<title>src/utils/this&#45;keyword.ts&#45;&gt;src/types/structs.ts</title>
<path fill="none" stroke="#757575" d="M830.17,-424C1007.47,-424 1424.83,-424 1424.83,-424 1424.83,-424 1424.83,-328.2 1424.83,-328.2"/>
<polygon fill="#757575" stroke="#757575" points="1428.33,-328.2 1424.83,-318.2 1421.33,-328.2 1428.33,-328.2"/>
</g>
<!-- src/utils/this&#45;keyword.ts&#45;&gt;src/utils/scope&#45;helpers.ts -->
<g id="edge108" class="edge">
<title>src/utils/this&#45;keyword.ts&#45;&gt;src/utils/scope&#45;helpers.ts</title>
<path fill="none" stroke="#757575" d="M766,-412.84C766,-357.83 766,-127 766,-127 766,-127 601.73,-127 601.73,-127"/>
<polygon fill="#757575" stroke="#757575" points="601.73,-123.5 591.73,-127 601.73,-130.5 601.73,-123.5"/>
</g>
<!-- src/utils/this&#45;keyword.ts&#45;&gt;src/functions.ts -->
<g id="edge106" class="edge">
<title>src/utils/this&#45;keyword.ts&#45;&gt;src/functions.ts</title>
<path fill="none" stroke="#757575" d="M720,-412.79C720,-393.95 720,-359 720,-359 720,-359 439.75,-359 439.75,-359"/>
<polygon fill="#757575" stroke="#757575" points="439.75,-355.5 429.75,-359 439.75,-362.5 439.75,-355.5"/>
</g>
<!-- src/declarations.ts -->
<g id="node18" class="node">
<title>src/declarations.ts</title>
<path fill="none" stroke="#c6c5fe" d="M1453.83,-259C1453.83,-259 1344.17,-259 1344.17,-259 1340.33,-259 1336.5,-255.17 1336.5,-251.33 1336.5,-251.33 1336.5,-243.67 1336.5,-243.67 1336.5,-239.83 1340.33,-236 1344.17,-236 1344.17,-236 1453.83,-236 1453.83,-236 1457.67,-236 1461.5,-239.83 1461.5,-243.67 1461.5,-243.67 1461.5,-251.33 1461.5,-251.33 1461.5,-255.17 1457.67,-259 1453.83,-259"/>
<text text-anchor="middle" x="1399" y="-243.8" font-family="Arial" font-size="14.00" fill="#c6c5fe">src/declarations.ts</text>
</g>
<!-- src/declarations.ts&#45;&gt;src/expressions/handlers.ts -->
<g id="edge17" class="edge">
<title>src/declarations.ts&#45;&gt;src/expressions/handlers.ts</title>
<path fill="none" stroke="#757575" d="M1415.25,-235.84C1415.25,-235.84 1415.25,-210.13 1415.25,-210.13"/>
<polygon fill="#757575" stroke="#757575" points="1418.75,-210.13 1415.25,-200.13 1411.75,-210.13 1418.75,-210.13"/>
</g>
<!-- src/expressions/operators.ts&#45;&gt;src/handlers/pointer&#45;operations.ts -->
<g id="edge31" class="edge">
<title>src/expressions/operators.ts&#45;&gt;src/handlers/pointer&#45;operations.ts</title>
<path fill="none" stroke="#757575" d="M2019.17,-377.32C2019.17,-380.95 2019.17,-384 2019.17,-384 2019.17,-384 1704.25,-384 1704.25,-384 1704.25,-384 1704.25,-328.27 1704.25,-328.27"/>
<polygon fill="#757575" stroke="#757575" points="1707.75,-328.27 1704.25,-318.27 1700.75,-328.27 1707.75,-328.27"/>
</g>
<!-- src/expressions/operators.ts&#45;&gt;src/parser.ts -->
<g id="edge32" class="edge">
<title>src/expressions/operators.ts&#45;&gt;src/parser.ts</title>
<path fill="none" stroke="#757575" d="M2192.77,-361C2208.57,-361 2220,-361 2220,-361 2220,-361 2220,-68 2220,-68 2220,-68 2635.84,-68 2635.84,-68"/>
<polygon fill="#757575" stroke="#757575" points="2635.84,-71.5 2645.84,-68 2635.84,-64.5 2635.84,-71.5"/>
</g>
<!-- src/expressions/operators.ts&#45;&gt;src/utils/array.ts -->
<g id="edge35" class="edge">
<title>src/expressions/operators.ts&#45;&gt;src/utils/array.ts</title>
<path fill="none" stroke="#757575" d="M2131.17,-353.57C2131.17,-341.62 2131.17,-325 2131.17,-325 2131.17,-325 917,-325 917,-325 917,-325 917,-92.1 917,-92.1"/>
<polygon fill="#757575" stroke="#757575" points="920.5,-92.1 917,-82.1 913.5,-92.1 920.5,-92.1"/>
</g>
<!-- src/expressions/operators.ts&#45;&gt;src/types/structs.ts -->
<g id="edge34" class="edge">
<title>src/expressions/operators.ts&#45;&gt;src/types/structs.ts</title>
<path fill="none" stroke="#757575" d="M2030.83,-377.06C2030.83,-383.8 2030.83,-391 2030.83,-391 2030.83,-391 1478.58,-391 1478.58,-391 1478.58,-391 1478.58,-328.25 1478.58,-328.25"/>
<polygon fill="#757575" stroke="#757575" points="1482.08,-328.25 1478.58,-318.25 1475.08,-328.25 1482.08,-328.25"/>
</g>
<!-- src/expressions/operator&#45;finder.ts -->
<g id="node25" class="node">
<title>src/expressions/operator&#45;finder.ts</title>
<path fill="none" stroke="#c6c5fe" d="M1982.33,-318C1982.33,-318 1781.67,-318 1781.67,-318 1777.83,-318 1774,-314.17 1774,-310.33 1774,-310.33 1774,-302.67 1774,-302.67 1774,-298.83 1777.83,-295 1781.67,-295 1781.67,-295 1982.33,-295 1982.33,-295 1986.17,-295 1990,-298.83 1990,-302.67 1990,-302.67 1990,-310.33 1990,-310.33 1990,-314.17 1986.17,-318 1982.33,-318"/>
<text text-anchor="middle" x="1882" y="-302.8" font-family="Arial" font-size="14.00" fill="#c6c5fe">src/expressions/operator&#45;finder.ts</text>
</g>
<!-- src/expressions/operators.ts&#45;&gt;src/expressions/operator&#45;finder.ts -->
<g id="edge30" class="edge">
<title>src/expressions/operators.ts&#45;&gt;src/expressions/operator&#45;finder.ts</title>
<path fill="none" stroke="#757575" d="M2007.38,-369C2000.3,-369 1995.83,-369 1995.83,-369 1995.83,-369 1995.83,-306 1995.83,-306 1995.83,-306 1995.25,-306 1995.25,-306"/>
<polygon fill="#757575" stroke="#757575" points="2000.03,-302.5 1990.03,-306 2000.03,-309.5 2000.03,-302.5"/>
</g>
<!-- src/expressions/operators.ts&#45;&gt;src/type&#45;utils.ts -->
<g id="edge33" class="edge">
<title>src/expressions/operators.ts&#45;&gt;src/type&#45;utils.ts</title>
<path fill="none" stroke="#757575" d="M2007.24,-361C2003.72,-361 2001.67,-361 2001.67,-361 2001.67,-361 2001.67,-13 2001.67,-13 2001.67,-13 655.54,-13 655.54,-13"/>
<polygon fill="#757575" stroke="#757575" points="655.54,-9.5 645.54,-13 655.54,-16.5 655.54,-9.5"/>
</g>
<!-- src/types/structs.ts&#45;&gt;src/expressions/handlers.ts -->
<g id="edge88" class="edge">
<title>src/types/structs.ts&#45;&gt;src/expressions/handlers.ts</title>
<path fill="none" stroke="#757575" d="M1471.75,-294.75C1471.75,-294.75 1471.75,-210.2 1471.75,-210.2"/>
<polygon fill="#757575" stroke="#757575" points="1475.25,-210.2 1471.75,-200.2 1468.25,-210.2 1475.25,-210.2"/>
</g>
<!-- src/types/structs.ts&#45;&gt;src/declarations.ts -->
<g id="edge87" class="edge">
<title>src/types/structs.ts&#45;&gt;src/declarations.ts</title>
<path fill="none" stroke="#757575" d="M1389.83,-294.84C1389.83,-294.84 1389.83,-269.13 1389.83,-269.13"/>
<polygon fill="#757575" stroke="#757575" points="1393.33,-269.13 1389.83,-259.13 1386.33,-269.13 1393.33,-269.13"/>
</g>
<!-- src/handlers/assignment.ts&#45;&gt;src/utils/array.ts -->
<g id="edge49" class="edge">
<title>src/handlers/assignment.ts&#45;&gt;src/utils/array.ts</title>
<path fill="none" stroke="#757575" d="M1252.91,-136C1128.96,-136 919.5,-136 919.5,-136 919.5,-136 919.5,-92.21 919.5,-92.21"/>
<polygon fill="#757575" stroke="#757575" points="923,-92.21 919.5,-82.21 916,-92.21 923,-92.21"/>
</g>
<!-- src/handlers/assignment.ts&#45;&gt;src/types/interpreter.ts -->
<g id="edge48" class="edge">
<title>src/handlers/assignment.ts&#45;&gt;src/types/interpreter.ts</title>
<path fill="none" stroke="#757575" d="M1378.25,-117.84C1378.25,-117.84 1378.25,-92.13 1378.25,-92.13"/>
<polygon fill="#757575" stroke="#757575" points="1381.75,-92.13 1378.25,-82.13 1374.75,-92.13 1381.75,-92.13"/>
</g>
<!-- src/utils/scope&#45;helpers.ts&#45;&gt;src/parser.ts -->
<g id="edge102" class="edge">
<title>src/utils/scope&#45;helpers.ts&#45;&gt;src/parser.ts</title>
<path fill="none" stroke="#757575" d="M551.75,-117.84C551.75,-109.6 551.75,-100 551.75,-100 551.75,-100 2691,-100 2691,-100 2691,-100 2691,-92.16 2691,-92.16"/>
<polygon fill="#757575" stroke="#757575" points="2694.5,-92.16 2691,-82.16 2687.5,-92.16 2694.5,-92.16"/>
</g>
<!-- src/utils/scope&#45;helpers.ts&#45;&gt;src/utils/array.ts -->
<g id="edge104" class="edge">
<title>src/utils/scope&#45;helpers.ts&#45;&gt;src/utils/array.ts</title>
<path fill="none" stroke="#757575" d="M591.54,-122C682.77,-122 817,-122 817,-122 817,-122 817,-92.19 817,-92.19"/>
<polygon fill="#757575" stroke="#757575" points="820.5,-92.19 817,-82.19 813.5,-92.19 820.5,-92.19"/>
</g>
<!-- src/utils/scope&#45;helpers.ts&#45;&gt;src/type&#45;utils.ts -->
<g id="edge103" class="edge">
<title>src/utils/scope&#45;helpers.ts&#45;&gt;src/type&#45;utils.ts</title>
<path fill="none" stroke="#757575" d="M578.25,-117.75C578.25,-117.75 578.25,-33.2 578.25,-33.2"/>
<polygon fill="#757575" stroke="#757575" points="581.75,-33.2 578.25,-23.2 574.75,-33.2 581.75,-33.2"/>
</g>
<!-- src/utils/scope&#45;helpers.ts&#45;&gt;src/utils/function&#45;utils.ts -->
<g id="edge105" class="edge">
<title>src/utils/scope&#45;helpers.ts&#45;&gt;src/utils/function&#45;utils.ts</title>
<path fill="none" stroke="#757575" d="M432.25,-117.84C432.25,-117.84 432.25,-92.13 432.25,-92.13"/>
<polygon fill="#757575" stroke="#757575" points="435.75,-92.13 432.25,-82.13 428.75,-92.13 435.75,-92.13"/>
</g>
<!-- src/expressions/operator&#45;utils.ts -->
<g id="node26" class="node">
<title>src/expressions/operator&#45;utils.ts</title>
<path fill="none" stroke="#cfffac" d="M1977.83,-259C1977.83,-259 1786.17,-259 1786.17,-259 1782.33,-259 1778.5,-255.17 1778.5,-251.33 1778.5,-251.33 1778.5,-243.67 1778.5,-243.67 1778.5,-239.83 1782.33,-236 1786.17,-236 1786.17,-236 1977.83,-236 1977.83,-236 1981.67,-236 1985.5,-239.83 1985.5,-243.67 1985.5,-243.67 1985.5,-251.33 1985.5,-251.33 1985.5,-255.17 1981.67,-259 1977.83,-259"/>
<text text-anchor="middle" x="1882" y="-243.8" font-family="Arial" font-size="14.00" fill="#cfffac">src/expressions/operator&#45;utils.ts</text>
</g>
<!-- src/expressions/operator&#45;finder.ts&#45;&gt;src/expressions/operator&#45;utils.ts -->
<g id="edge29" class="edge">
<title>src/expressions/operator&#45;finder.ts&#45;&gt;src/expressions/operator&#45;utils.ts</title>
<path fill="none" stroke="#757575" d="M1882,-294.84C1882,-294.84 1882,-269.13 1882,-269.13"/>
<polygon fill="#757575" stroke="#757575" points="1885.5,-269.13 1882,-259.13 1878.5,-269.13 1885.5,-269.13"/>
</g>
<!-- src/expressions/unary&#45;operation.ts&#45;&gt;src/expressions/handlers.ts -->
<g id="edge36" class="edge">
<title>src/expressions/unary&#45;operation.ts&#45;&gt;src/expressions/handlers.ts</title>
<path fill="none" stroke="#757575" d="M2494,-235.74C2494,-216.4 2494,-180 2494,-180 2494,-180 1559.04,-180 1559.04,-180"/>
<polygon fill="#757575" stroke="#757575" points="1559.04,-176.5 1549.04,-180 1559.04,-183.5 1559.04,-176.5"/>
</g>
<!-- src/function&#45;type&#45;handler.ts&#45;&gt;src/type&#45;utils.ts -->
<g id="edge38" class="edge">
<title>src/function&#45;type&#45;handler.ts&#45;&gt;src/type&#45;utils.ts</title>
<path fill="none" stroke="#757575" d="M465.64,-424C547.44,-424 655.67,-424 655.67,-424 655.67,-424 655.67,-18 655.67,-18 655.67,-18 654.67,-18 654.67,-18"/>
<polygon fill="#757575" stroke="#757575" points="655.72,-14.5 645.72,-18 655.72,-21.5 655.72,-14.5"/>
</g>
<!-- src/function&#45;type&#45;handler.ts&#45;&gt;src/functions.ts -->
<g id="edge37" class="edge">
<title>src/function&#45;type&#45;handler.ts&#45;&gt;src/functions.ts</title>
<path fill="none" stroke="#757575" d="M349.25,-412.84C349.25,-412.84 349.25,-387.13 349.25,-387.13"/>
<polygon fill="#757575" stroke="#757575" points="352.75,-387.13 349.25,-377.13 345.75,-387.13 352.75,-387.13"/>
</g>
<!-- src/functions.ts&#45;&gt;src/utils/identifier&#45;utils.ts -->
<g id="edge43" class="edge">
<title>src/functions.ts&#45;&gt;src/utils/identifier&#45;utils.ts</title>
<path fill="none" stroke="#757575" d="M411.21,-353.7C411.21,-323.73 411.21,-247 411.21,-247 411.21,-247 995.94,-247 995.94,-247"/>
<polygon fill="#757575" stroke="#757575" points="995.94,-250.5 1005.94,-247 995.94,-243.5 995.94,-250.5"/>
</g>
<!-- src/functions.ts&#45;&gt;src/utils/scope&#45;helpers.ts -->
<g id="edge44" class="edge">
<title>src/functions.ts&#45;&gt;src/utils/scope&#45;helpers.ts</title>
<path fill="none" stroke="#757575" d="M396.43,-353.77C396.43,-306.05 396.43,-129 396.43,-129 396.43,-129 416.3,-129 416.3,-129"/>
<polygon fill="#757575" stroke="#757575" points="416.3,-132.5 426.3,-129 416.3,-125.5 416.3,-132.5"/>
</g>
<!-- src/functions.ts&#45;&gt;src/handlers/anonymous&#45;functions.ts -->
<g id="edge39" class="edge">
<title>src/functions.ts&#45;&gt;src/handlers/anonymous&#45;functions.ts</title>
<path fill="none" stroke="#757575" d="M322.19,-361C285.2,-361 242.75,-361 242.75,-361 242.75,-361 242.75,-328.06 242.75,-328.06"/>
<polygon fill="#757575" stroke="#757575" points="246.25,-328.06 242.75,-318.06 239.25,-328.06 246.25,-328.06"/>
</g>
<!-- src/handlers/function&#45;declaration.ts -->
<g id="node32" class="node">
<title>src/handlers/function&#45;declaration.ts</title>
<path fill="none" stroke="#c6c5fe" d="M644.33,-318C644.33,-318 433.67,-318 433.67,-318 429.83,-318 426,-314.17 426,-310.33 426,-310.33 426,-302.67 426,-302.67 426,-298.83 429.83,-295 433.67,-295 433.67,-295 644.33,-295 644.33,-295 648.17,-295 652,-298.83 652,-302.67 652,-302.67 652,-310.33 652,-310.33 652,-314.17 648.17,-318 644.33,-318"/>
<text text-anchor="middle" x="539" y="-302.8" font-family="Arial" font-size="14.00" fill="#c6c5fe">src/handlers/function&#45;declaration.ts</text>
</g>
<!-- src/functions.ts&#45;&gt;src/handlers/function&#45;declaration.ts -->
<g id="edge40" class="edge">
<title>src/functions.ts&#45;&gt;src/handlers/function&#45;declaration.ts</title>
<path fill="none" stroke="#757575" d="M429.83,-371C439.98,-371 447.5,-371 447.5,-371 447.5,-371 447.5,-328.03 447.5,-328.03"/>
<polygon fill="#757575" stroke="#757575" points="451,-328.03 447.5,-318.03 444,-328.03 451,-328.03"/>
</g>
<!-- src/functions.ts&#45;&gt;src/utils/function&#45;call&#45;params.ts -->
<g id="edge41" class="edge">
<title>src/functions.ts&#45;&gt;src/utils/function&#45;call&#45;params.ts</title>
<path fill="none" stroke="#757575" d="M337.29,-353.78C337.29,-344.12 337.29,-332 337.29,-332 337.29,-332 2069.83,-332 2069.83,-332 2069.83,-332 2069.83,-328.06 2069.83,-328.06"/>
<polygon fill="#757575" stroke="#757575" points="2073.33,-328.06 2069.83,-318.06 2066.33,-328.06 2073.33,-328.06"/>
</g>
<!-- src/functions.ts&#45;&gt;src/utils/function&#45;utils.ts -->
<g id="edge42" class="edge">
<title>src/functions.ts&#45;&gt;src/utils/function&#45;utils.ts</title>
<path fill="none" stroke="#757575" d="M352.07,-353.94C352.07,-353.94 352.07,-92.3 352.07,-92.3"/>
<polygon fill="#757575" stroke="#757575" points="355.57,-92.3 352.07,-82.3 348.57,-92.31 355.57,-92.3"/>
</g>
<!-- src/handlers/anonymous&#45;functions.ts&#45;&gt;src/utils/identifier&#45;utils.ts -->
<g id="edge47" class="edge">
<title>src/handlers/anonymous&#45;functions.ts&#45;&gt;src/utils/identifier&#45;utils.ts</title>
<path fill="none" stroke="#757575" d="M176.5,-294.79C176.5,-275.95 176.5,-241 176.5,-241 176.5,-241 995.69,-241 995.69,-241"/>
<polygon fill="#757575" stroke="#757575" points="995.69,-244.5 1005.69,-241 995.69,-237.5 995.69,-244.5"/>
</g>
<!-- src/handlers/anonymous&#45;functions.ts&#45;&gt;src/type&#45;utils.ts -->
<g id="edge45" class="edge">
<title>src/handlers/anonymous&#45;functions.ts&#45;&gt;src/type&#45;utils.ts</title>
<path fill="none" stroke="#757575" d="M97.5,-294.92C97.5,-240.28 97.5,-11 97.5,-11 97.5,-11 528.14,-11 528.14,-11"/>
<polygon fill="#757575" stroke="#757575" points="528.14,-14.5 538.14,-11 528.14,-7.5 528.14,-14.5"/>
</g>
<!-- src/handlers/anonymous&#45;functions.ts&#45;&gt;src/utils/function&#45;utils.ts -->
<g id="edge46" class="edge">
<title>src/handlers/anonymous&#45;functions.ts&#45;&gt;src/utils/function&#45;utils.ts</title>
<path fill="none" stroke="#757575" d="M255.6,-310C283.1,-310 304.5,-310 304.5,-310 304.5,-310 304.5,-92.05 304.5,-92.05"/>
<polygon fill="#757575" stroke="#757575" points="308,-92.05 304.5,-82.05 301,-92.05 308,-92.05"/>
</g>
<!-- src/handlers/function&#45;declaration.ts&#45;&gt;src/declarations.ts -->
<g id="edge52" class="edge">
<title>src/handlers/function&#45;declaration.ts&#45;&gt;src/declarations.ts</title>
<path fill="none" stroke="#757575" d="M605,-294.81C605,-290.21 605,-286 605,-286 605,-286 1342.33,-286 1342.33,-286 1342.33,-286 1342.33,-269.26 1342.33,-269.26"/>
<polygon fill="#757575" stroke="#757575" points="1345.83,-269.26 1342.33,-259.26 1338.83,-269.26 1345.83,-269.26"/>
</g>
<!-- src/handlers/function&#45;declaration.ts&#45;&gt;src/utils/identifier&#45;utils.ts -->
<g id="edge55" class="edge">
<title>src/handlers/function&#45;declaration.ts&#45;&gt;src/utils/identifier&#45;utils.ts</title>
<path fill="none" stroke="#757575" d="M632,-294.89C632,-279.16 632,-253 632,-253 632,-253 995.88,-253 995.88,-253"/>
<polygon fill="#757575" stroke="#757575" points="995.88,-256.5 1005.88,-253 995.88,-249.5 995.88,-256.5"/>
</g>
<!-- src/handlers/function&#45;declaration.ts&#45;&gt;src/utils/scope&#45;helpers.ts -->
<g id="edge56" class="edge">
<title>src/handlers/function&#45;declaration.ts&#45;&gt;src/utils/scope&#45;helpers.ts</title>
<path fill="none" stroke="#757575" d="M481.5,-294.89C481.5,-294.89 481.5,-151.39 481.5,-151.39"/>
<polygon fill="#757575" stroke="#757575" points="485,-151.39 481.5,-141.39 478,-151.39 485,-151.39"/>
</g>
<!-- src/handlers/function&#45;declaration.ts&#45;&gt;src/type&#45;utils.ts -->
<g id="edge53" class="edge">
<title>src/handlers/function&#45;declaration.ts&#45;&gt;src/type&#45;utils.ts</title>
<path fill="none" stroke="#757575" d="M618.5,-294.94C618.5,-294.94 618.5,-33.3 618.5,-33.3"/>
<polygon fill="#757575" stroke="#757575" points="622,-33.3 618.5,-23.3 615,-33.31 622,-33.3"/>
</g>
<!-- src/handlers/function&#45;declaration.ts&#45;&gt;src/utils/function&#45;utils.ts -->
<g id="edge54" class="edge">
<title>src/handlers/function&#45;declaration.ts&#45;&gt;src/utils/function&#45;utils.ts</title>
<path fill="none" stroke="#757575" d="M425.89,-302C400.88,-302 381.64,-302 381.64,-302 381.64,-302 381.64,-92.3 381.64,-92.3"/>
<polygon fill="#757575" stroke="#757575" points="385.14,-92.3 381.64,-82.3 378.14,-92.3 385.14,-92.3"/>
</g>
<!-- src/utils/function&#45;call&#45;params.ts&#45;&gt;src/expressions/handlers.ts -->
<g id="edge99" class="edge">
<title>src/utils/function&#45;call&#45;params.ts&#45;&gt;src/expressions/handlers.ts</title>
<path fill="none" stroke="#757575" d="M2110,-294.95C2110,-264.79 2110,-186 2110,-186 2110,-186 1559.18,-186 1559.18,-186"/>
<polygon fill="#757575" stroke="#757575" points="1559.18,-182.5 1549.18,-186 1559.18,-189.5 1559.18,-182.5"/>
</g>
<!-- src/utils/function&#45;utils.ts&#45;&gt;src/type&#45;utils.ts -->
<g id="edge100" class="edge">
<title>src/utils/function&#45;utils.ts&#45;&gt;src/type&#45;utils.ts</title>
<path fill="none" stroke="#757575" d="M438.09,-64C496.02,-64 565,-64 565,-64 565,-64 565,-33.15 565,-33.15"/>
<polygon fill="#757575" stroke="#757575" points="568.5,-33.15 565,-23.15 561.5,-33.15 568.5,-33.15"/>
</g>
<!-- src/handlers/method&#45;call.ts&#45;&gt;src/expressions/handlers.ts -->
<g id="edge59" class="edge">
<title>src/handlers/method&#45;call.ts&#45;&gt;src/expressions/handlers.ts</title>
<path fill="none" stroke="#757575" d="M1495.88,-471.94C1495.88,-471.94 1495.88,-210.3 1495.88,-210.3"/>
<polygon fill="#757575" stroke="#757575" points="1499.38,-210.3 1495.88,-200.3 1492.38,-210.31 1499.38,-210.3"/>
</g>
<!-- src/handlers/method&#45;call.ts&#45;&gt;src/utils/this&#45;keyword.ts -->
<g id="edge63" class="edge">
<title>src/handlers/method&#45;call.ts&#45;&gt;src/utils/this&#45;keyword.ts</title>
<path fill="none" stroke="#757575" d="M1464.92,-471.89C1464.92,-456.16 1464.92,-430 1464.92,-430 1464.92,-430 840.33,-430 840.33,-430"/>
<polygon fill="#757575" stroke="#757575" points="840.33,-426.5 830.33,-430 840.33,-433.5 840.33,-426.5"/>
</g>
<!-- src/handlers/method&#45;call.ts&#45;&gt;src/types/structs.ts -->
<g id="edge61" class="edge">
<title>src/handlers/method&#45;call.ts&#45;&gt;src/types/structs.ts</title>
<path fill="none" stroke="#757575" d="M1475.17,-471.89C1475.17,-471.89 1475.17,-328.39 1475.17,-328.39"/>
<polygon fill="#757575" stroke="#757575" points="1478.67,-328.39 1475.17,-318.39 1471.67,-328.39 1478.67,-328.39"/>
</g>
<!-- src/handlers/method&#45;call.ts&#45;&gt;src/utils/identifier&#45;utils.ts -->
<g id="edge62" class="edge">
<title>src/handlers/method&#45;call.ts&#45;&gt;src/utils/identifier&#45;utils.ts</title>
<path fill="none" stroke="#757575" d="M1468.33,-471.79C1468.33,-452.95 1468.33,-418 1468.33,-418 1468.33,-418 1124.4,-418 1124.4,-418 1124.4,-418 1124.4,-269.22 1124.4,-269.22"/>
<polygon fill="#757575" stroke="#757575" points="1127.9,-269.22 1124.4,-259.22 1120.9,-269.22 1127.9,-269.22"/>
</g>
<!-- src/handlers/method&#45;call.ts&#45;&gt;src/functions.ts -->
<g id="edge60" class="edge">
<title>src/handlers/method&#45;call.ts&#45;&gt;src/functions.ts</title>
<path fill="none" stroke="#757575" d="M1471.75,-471.92C1471.75,-450.08 1471.75,-405 1471.75,-405 1471.75,-405 376,-405 376,-405 376,-405 376,-387.14 376,-387.14"/>
<polygon fill="#757575" stroke="#757575" points="379.5,-387.14 376,-377.14 372.5,-387.14 379.5,-387.14"/>
</g>
<!-- src/types/modules.ts&#45;&gt;src/expressions/handlers.ts -->
<g id="edge85" class="edge">
<title>src/types/modules.ts&#45;&gt;src/expressions/handlers.ts</title>
<path fill="none" stroke="#757575" d="M1294.5,-294.99C1294.5,-266.5 1294.5,-195 1294.5,-195 1294.5,-195 1358.57,-195 1358.57,-195"/>
<polygon fill="#757575" stroke="#757575" points="1358.57,-198.5 1368.57,-195 1358.57,-191.5 1358.57,-198.5"/>
</g>
<!-- src/types/modules.ts&#45;&gt;src/declarations.ts -->
<g id="edge84" class="edge">
<title>src/types/modules.ts&#45;&gt;src/declarations.ts</title>
<path fill="none" stroke="#757575" d="M1336.04,-306C1343.35,-306 1348.17,-306 1348.17,-306 1348.17,-306 1348.17,-269.06 1348.17,-269.06"/>
<polygon fill="#757575" stroke="#757575" points="1351.67,-269.06 1348.17,-259.06 1344.67,-269.06 1351.67,-269.06"/>
</g>
<!-- src/types/modules.ts&#45;&gt;src/utils/identifier&#45;utils.ts -->
<g id="edge86" class="edge">
<title>src/types/modules.ts&#45;&gt;src/utils/identifier&#45;utils.ts</title>
<path fill="none" stroke="#757575" d="M1195.73,-306C1169.16,-306 1145.2,-306 1145.2,-306 1145.2,-306 1145.2,-269.06 1145.2,-269.06"/>
<polygon fill="#757575" stroke="#757575" points="1148.7,-269.06 1145.2,-259.06 1141.7,-269.06 1148.7,-269.06"/>
</g>
<!-- src/loops/types.ts&#45;&gt;src/expressions/handlers.ts -->
<g id="edge71" class="edge">
<title>src/loops/types.ts&#45;&gt;src/expressions/handlers.ts</title>
<path fill="none" stroke="#757575" d="M1306,-471.74C1306,-460.42 1306,-445 1306,-445 1306,-445 1491.25,-445 1491.25,-445 1491.25,-445 1491.25,-210.19 1491.25,-210.19"/>
<polygon fill="#757575" stroke="#757575" points="1494.75,-210.19 1491.25,-200.19 1487.75,-210.19 1494.75,-210.19"/>
</g>
<!-- src/types/type&#45;declarations.ts&#45;&gt;src/declarations.ts -->
<g id="edge89" class="edge">
<title>src/types/type&#45;declarations.ts&#45;&gt;src/declarations.ts</title>
<path fill="none" stroke="#757575" d="M2589,-294.74C2589,-283.42 2589,-268 2589,-268 2589,-268 1425.67,-268 1425.67,-268 1425.67,-268 1425.67,-267.12 1425.67,-267.12"/>
<polygon fill="#757575" stroke="#757575" points="1429.17,-269.19 1425.67,-259.19 1422.17,-269.19 1429.17,-269.19"/>
</g>
<!-- src/types/type&#45;declarations.ts&#45;&gt;src/type&#45;utils.ts -->
<g id="edge90" class="edge">
<title>src/types/type&#45;declarations.ts&#45;&gt;src/type&#45;utils.ts</title>
<path fill="none" stroke="#757575" d="M2625.75,-294.84C2625.75,-239.83 2625.75,-9 2625.75,-9 2625.75,-9 655.61,-9 655.61,-9"/>
<polygon fill="#757575" stroke="#757575" points="655.61,-5.5 645.61,-9 655.61,-12.5 655.61,-5.5"/>
</g>
<!-- src/utils/interpret.ts -->
<g id="node40" class="node">
<title>src/utils/interpret.ts</title>
<path fill="none" stroke="#c6c5fe" d="M1269.33,-672C1269.33,-672 1154.67,-672 1154.67,-672 1150.83,-672 1147,-668.17 1147,-664.33 1147,-664.33 1147,-656.67 1147,-656.67 1147,-652.83 1150.83,-649 1154.67,-649 1154.67,-649 1269.33,-649 1269.33,-649 1273.17,-649 1277,-652.83 1277,-656.67 1277,-656.67 1277,-664.33 1277,-664.33 1277,-668.17 1273.17,-672 1269.33,-672"/>
<text text-anchor="middle" x="1212" y="-656.8" font-family="Arial" font-size="14.00" fill="#c6c5fe">src/utils/interpret.ts</text>
</g>
<!-- src/utils/interpret.ts&#45;&gt;src/app.ts -->
<g id="edge101" class="edge">
<title>src/utils/interpret.ts&#45;&gt;src/app.ts</title>
<path fill="none" stroke="#757575" d="M1212,-648.84C1212,-648.84 1212,-623.13 1212,-623.13"/>
<polygon fill="#757575" stroke="#757575" points="1215.5,-623.13 1212,-613.13 1208.5,-623.13 1215.5,-623.13"/>
</g>
<!-- tests/control/control&#45;flow.test.ts -->
<g id="node41" class="node">
<title>tests/control/control&#45;flow.test.ts</title>
<path fill="none" stroke="#c6c5fe" d="M376.83,-731C376.83,-731 191.17,-731 191.17,-731 187.33,-731 183.5,-727.17 183.5,-723.33 183.5,-723.33 183.5,-715.67 183.5,-715.67 183.5,-711.83 187.33,-708 191.17,-708 191.17,-708 376.83,-708 376.83,-708 380.67,-708 384.5,-711.83 384.5,-715.67 384.5,-715.67 384.5,-723.33 384.5,-723.33 384.5,-727.17 380.67,-731 376.83,-731"/>
<text text-anchor="middle" x="284" y="-715.8" font-family="Arial" font-size="14.00" fill="#c6c5fe">tests/control/control&#45;flow.test.ts</text>
</g>
<!-- tests/control/control&#45;flow.test.ts&#45;&gt;src/utils/interpret.ts -->
<g id="edge109" class="edge">
<title>tests/control/control&#45;flow.test.ts&#45;&gt;src/utils/interpret.ts</title>
<path fill="none" stroke="#757575" d="M335.5,-707.92C335.5,-688.86 335.5,-653 335.5,-653 335.5,-653 1136.84,-653 1136.84,-653"/>
<polygon fill="#757575" stroke="#757575" points="1136.84,-656.5 1146.84,-653 1136.84,-649.5 1136.84,-656.5"/>
</g>
<!-- tests/core/arithmetic.test.ts -->
<g id="node42" class="node">
<title>tests/core/arithmetic.test.ts</title>
<path fill="none" stroke="#c6c5fe" d="M573.33,-731C573.33,-731 410.67,-731 410.67,-731 406.83,-731 403,-727.17 403,-723.33 403,-723.33 403,-715.67 403,-715.67 403,-711.83 406.83,-708 410.67,-708 410.67,-708 573.33,-708 573.33,-708 577.17,-708 581,-711.83 581,-715.67 581,-715.67 581,-723.33 581,-723.33 581,-727.17 577.17,-731 573.33,-731"/>
<text text-anchor="middle" x="492" y="-715.8" font-family="Arial" font-size="14.00" fill="#c6c5fe">tests/core/arithmetic.test.ts</text>
</g>
<!-- tests/core/arithmetic.test.ts&#45;&gt;src/utils/interpret.ts -->
<g id="edge110" class="edge">
<title>tests/core/arithmetic.test.ts&#45;&gt;src/utils/interpret.ts</title>
<path fill="none" stroke="#757575" d="M559.75,-707.93C559.75,-690.12 559.75,-658 559.75,-658 559.75,-658 1136.77,-658 1136.77,-658"/>
<polygon fill="#757575" stroke="#757575" points="1136.77,-661.5 1146.77,-658 1136.77,-654.5 1136.77,-661.5"/>
</g>
<!-- tests/core/char.test.ts -->
<g id="node43" class="node">
<title>tests/core/char.test.ts</title>
<path fill="none" stroke="#c6c5fe" d="M735.33,-731C735.33,-731 606.67,-731 606.67,-731 602.83,-731 599,-727.17 599,-723.33 599,-723.33 599,-715.67 599,-715.67 599,-711.83 602.83,-708 606.67,-708 606.67,-708 735.33,-708 735.33,-708 739.17,-708 743,-711.83 743,-715.67 743,-715.67 743,-723.33 743,-723.33 743,-727.17 739.17,-731 735.33,-731"/>
<text text-anchor="middle" x="671" y="-715.8" font-family="Arial" font-size="14.00" fill="#c6c5fe">tests/core/char.test.ts</text>
</g>
<!-- tests/core/char.test.ts&#45;&gt;src/utils/interpret.ts -->
<g id="edge111" class="edge">
<title>tests/core/char.test.ts&#45;&gt;src/utils/interpret.ts</title>
<path fill="none" stroke="#757575" d="M708.5,-707.86C708.5,-691.06 708.5,-662 708.5,-662 708.5,-662 1136.95,-662 1136.95,-662"/>
<polygon fill="#757575" stroke="#757575" points="1136.95,-665.5 1146.95,-662 1136.95,-658.5 1136.95,-665.5"/>
</g>
<!-- tests/functions/constructor.test.ts -->
<g id="node44" class="node">
<title>tests/functions/constructor.test.ts</title>
<path fill="none" stroke="#c6c5fe" d="M965.33,-731C965.33,-731 768.67,-731 768.67,-731 764.83,-731 761,-727.17 761,-723.33 761,-723.33 761,-715.67 761,-715.67 761,-711.83 764.83,-708 768.67,-708 768.67,-708 965.33,-708 965.33,-708 969.17,-708 973,-711.83 973,-715.67 973,-715.67 973,-723.33 973,-723.33 973,-727.17 969.17,-731 965.33,-731"/>
<text text-anchor="middle" x="867" y="-715.8" font-family="Arial" font-size="14.00" fill="#c6c5fe">tests/functions/constructor.test.ts</text>
</g>
<!-- tests/functions/constructor.test.ts&#45;&gt;src/utils/interpret.ts -->
<g id="edge112" class="edge">
<title>tests/functions/constructor.test.ts&#45;&gt;src/utils/interpret.ts</title>
<path fill="none" stroke="#757575" d="M967.5,-707.85C967.5,-692.38 967.5,-667 967.5,-667 967.5,-667 1136.8,-667 1136.8,-667"/>
<polygon fill="#757575" stroke="#757575" points="1136.8,-670.5 1146.8,-667 1136.8,-663.5 1136.8,-670.5"/>
</g>
<!-- tests/functions/functions.test.ts -->
<g id="node45" class="node">
<title>tests/functions/functions.test.ts</title>
<path fill="none" stroke="#c6c5fe" d="M1183.33,-731C1183.33,-731 998.67,-731 998.67,-731 994.83,-731 991,-727.17 991,-723.33 991,-723.33 991,-715.67 991,-715.67 991,-711.83 994.83,-708 998.67,-708 998.67,-708 1183.33,-708 1183.33,-708 1187.17,-708 1191,-711.83 1191,-715.67 1191,-715.67 1191,-723.33 1191,-723.33 1191,-727.17 1187.17,-731 1183.33,-731"/>
<text text-anchor="middle" x="1091" y="-715.8" font-family="Arial" font-size="14.00" fill="#c6c5fe">tests/functions/functions.test.ts</text>
</g>
<!-- tests/functions/functions.test.ts&#45;&gt;src/utils/interpret.ts -->
<g id="edge113" class="edge">
<title>tests/functions/functions.test.ts&#45;&gt;src/utils/interpret.ts</title>
<path fill="none" stroke="#757575" d="M1169,-707.84C1169,-707.84 1169,-682.13 1169,-682.13"/>
<polygon fill="#757575" stroke="#757575" points="1172.5,-682.13 1169,-672.13 1165.5,-682.13 1172.5,-682.13"/>
</g>
<!-- tests/functions/generic&#45;functions.test.ts -->
<g id="node46" class="node">
<title>tests/functions/generic&#45;functions.test.ts</title>
<path fill="none" stroke="#c6c5fe" d="M1450.83,-731C1450.83,-731 1217.17,-731 1217.17,-731 1213.33,-731 1209.5,-727.17 1209.5,-723.33 1209.5,-723.33 1209.5,-715.67 1209.5,-715.67 1209.5,-711.83 1213.33,-708 1217.17,-708 1217.17,-708 1450.83,-708 1450.83,-708 1454.67,-708 1458.5,-711.83 1458.5,-715.67 1458.5,-715.67 1458.5,-723.33 1458.5,-723.33 1458.5,-727.17 1454.67,-731 1450.83,-731"/>
<text text-anchor="middle" x="1334" y="-715.8" font-family="Arial" font-size="14.00" fill="#c6c5fe">tests/functions/generic&#45;functions.test.ts</text>
</g>
<!-- tests/functions/generic&#45;functions.test.ts&#45;&gt;src/utils/interpret.ts -->
<g id="edge114" class="edge">
<title>tests/functions/generic&#45;functions.test.ts&#45;&gt;src/utils/interpret.ts</title>
<path fill="none" stroke="#757575" d="M1243.25,-707.84C1243.25,-707.84 1243.25,-682.13 1243.25,-682.13"/>
<polygon fill="#757575" stroke="#757575" points="1246.75,-682.13 1243.25,-672.13 1239.75,-682.13 1246.75,-682.13"/>
</g>
<!-- tests/modules/modules.test.ts -->
<g id="node47" class="node">
<title>tests/modules/modules.test.ts</title>
<path fill="none" stroke="#c6c5fe" d="M1665.33,-731C1665.33,-731 1484.67,-731 1484.67,-731 1480.83,-731 1477,-727.17 1477,-723.33 1477,-723.33 1477,-715.67 1477,-715.67 1477,-711.83 1480.83,-708 1484.67,-708 1484.67,-708 1665.33,-708 1665.33,-708 1669.17,-708 1673,-711.83 1673,-715.67 1673,-715.67 1673,-723.33 1673,-723.33 1673,-727.17 1669.17,-731 1665.33,-731"/>
<text text-anchor="middle" x="1575" y="-715.8" font-family="Arial" font-size="14.00" fill="#c6c5fe">tests/modules/modules.test.ts</text>
</g>
<!-- tests/modules/modules.test.ts&#45;&gt;src/utils/interpret.ts -->
<g id="edge115" class="edge">
<title>tests/modules/modules.test.ts&#45;&gt;src/utils/interpret.ts</title>
<path fill="none" stroke="#757575" d="M1558.75,-707.85C1558.75,-692.38 1558.75,-667 1558.75,-667 1558.75,-667 1287.22,-667 1287.22,-667"/>
<polygon fill="#757575" stroke="#757575" points="1287.22,-663.5 1277.22,-667 1287.22,-670.5 1287.22,-663.5"/>
</g>
<!-- tests/types/generics.test.ts -->
<g id="node48" class="node">
<title>tests/types/generics.test.ts</title>
<path fill="none" stroke="#c6c5fe" d="M1859.33,-731C1859.33,-731 1698.67,-731 1698.67,-731 1694.83,-731 1691,-727.17 1691,-723.33 1691,-723.33 1691,-715.67 1691,-715.67 1691,-711.83 1694.83,-708 1698.67,-708 1698.67,-708 1859.33,-708 1859.33,-708 1863.17,-708 1867,-711.83 1867,-715.67 1867,-715.67 1867,-723.33 1867,-723.33 1867,-727.17 1863.17,-731 1859.33,-731"/>
<text text-anchor="middle" x="1779" y="-715.8" font-family="Arial" font-size="14.00" fill="#c6c5fe">tests/types/generics.test.ts</text>
</g>
<!-- tests/types/generics.test.ts&#45;&gt;src/utils/interpret.ts -->
<g id="edge116" class="edge">
<title>tests/types/generics.test.ts&#45;&gt;src/utils/interpret.ts</title>
<path fill="none" stroke="#757575" d="M1697.62,-707.86C1697.62,-691.06 1697.62,-662 1697.62,-662 1697.62,-662 1287.24,-662 1287.24,-662"/>
<polygon fill="#757575" stroke="#757575" points="1287.24,-658.5 1277.24,-662 1287.24,-665.5 1287.24,-658.5"/>
</g>
<!-- tests/types/types.test.ts -->
<g id="node49" class="node">
<title>tests/types/types.test.ts</title>
<path fill="none" stroke="#c6c5fe" d="M2034.83,-731C2034.83,-731 1893.17,-731 1893.17,-731 1889.33,-731 1885.5,-727.17 1885.5,-723.33 1885.5,-723.33 1885.5,-715.67 1885.5,-715.67 1885.5,-711.83 1889.33,-708 1893.17,-708 1893.17,-708 2034.83,-708 2034.83,-708 2038.67,-708 2042.5,-711.83 2042.5,-715.67 2042.5,-715.67 2042.5,-723.33 2042.5,-723.33 2042.5,-727.17 2038.67,-731 2034.83,-731"/>
<text text-anchor="middle" x="1964" y="-715.8" font-family="Arial" font-size="14.00" fill="#c6c5fe">tests/types/types.test.ts</text>
</g>
<!-- tests/types/types.test.ts&#45;&gt;src/utils/interpret.ts -->
<g id="edge117" class="edge">
<title>tests/types/types.test.ts&#45;&gt;src/utils/interpret.ts</title>
<path fill="none" stroke="#757575" d="M1908.5,-707.93C1908.5,-690.12 1908.5,-658 1908.5,-658 1908.5,-658 1287.21,-658 1287.21,-658"/>
<polygon fill="#757575" stroke="#757575" points="1287.21,-654.5 1277.21,-658 1287.21,-661.5 1287.21,-654.5"/>
</g>
<!-- tests/values/variables.test.ts -->
<g id="node50" class="node">
<title>tests/values/variables.test.ts</title>
<path fill="none" stroke="#c6c5fe" d="M2237.83,-731C2237.83,-731 2068.17,-731 2068.17,-731 2064.33,-731 2060.5,-727.17 2060.5,-723.33 2060.5,-723.33 2060.5,-715.67 2060.5,-715.67 2060.5,-711.83 2064.33,-708 2068.17,-708 2068.17,-708 2237.83,-708 2237.83,-708 2241.67,-708 2245.5,-711.83 2245.5,-715.67 2245.5,-715.67 2245.5,-723.33 2245.5,-723.33 2245.5,-727.17 2241.67,-731 2237.83,-731"/>
<text text-anchor="middle" x="2153" y="-715.8" font-family="Arial" font-size="14.00" fill="#c6c5fe">tests/values/variables.test.ts</text>
</g>
<!-- tests/values/variables.test.ts&#45;&gt;src/utils/interpret.ts -->
<g id="edge118" class="edge">
<title>tests/values/variables.test.ts&#45;&gt;src/utils/interpret.ts</title>
<path fill="none" stroke="#757575" d="M2126.5,-707.92C2126.5,-688.86 2126.5,-653 2126.5,-653 2126.5,-653 1287.04,-653 1287.04,-653"/>
<polygon fill="#757575" stroke="#757575" points="1287.04,-649.5 1277.04,-653 1287.04,-656.5 1287.04,-649.5"/>
</g>
</g>
</svg>
