<?xml version="1.0" encoding="UTF-8" standalone="no"?>
<!DOCTYPE svg PUBLIC "-//W3C//DTD SVG 1.1//EN"
 "http://www.w3.org/Graphics/SVG/1.1/DTD/svg11.dtd">
<!-- Generated by graphviz version 2.43.0 (0)
 -->
<!-- Title: G Pages: 1 -->
<svg width="298pt" height="172pt"
 viewBox="0.00 0.00 298.20 172.20" xmlns="http://www.w3.org/2000/svg" xmlns:xlink="http://www.w3.org/1999/xlink">
<g id="graph0" class="graph" transform="scale(1 1) rotate(0) translate(21.6 150.6)">
<title>G</title>
<polygon fill="#111111" stroke="transparent" points="-21.6,21.6 -21.6,-150.6 276.6,-150.6 276.6,21.6 -21.6,21.6"/>
<!-- app.ts -->
<g id="node1" class="node">
<title>app.ts</title>
<path fill="none" stroke="#c6c5fe" d="M180.17,-129C180.17,-129 138.83,-129 138.83,-129 135.67,-129 132.5,-125.83 132.5,-122.67 132.5,-122.67 132.5,-116.33 132.5,-116.33 132.5,-113.17 135.67,-110 138.83,-110 138.83,-110 180.17,-110 180.17,-110 183.33,-110 186.5,-113.17 186.5,-116.33 186.5,-116.33 186.5,-122.67 186.5,-122.67 186.5,-125.83 183.33,-129 180.17,-129"/>
<text text-anchor="middle" x="159.5" y="-117" font-family="Arial" font-size="10.00" fill="#c6c5fe">app.ts</text>
</g>
<!-- core/debug&#45;dump.ts -->
<g id="node2" class="node">
<title>core/debug&#45;dump.ts</title>
<path fill="none" stroke="#c6c5fe" d="M96.67,-74C96.67,-74 6.33,-74 6.33,-74 3.17,-74 0,-70.83 0,-67.67 0,-67.67 0,-61.33 0,-61.33 0,-58.17 3.17,-55 6.33,-55 6.33,-55 96.67,-55 96.67,-55 99.83,-55 103,-58.17 103,-61.33 103,-61.33 103,-67.67 103,-67.67 103,-70.83 99.83,-74 96.67,-74"/>
<text text-anchor="middle" x="51.5" y="-62" font-family="Arial" font-size="10.00" fill="#c6c5fe">core/debug&#45;dump.ts</text>
</g>
<!-- app.ts&#45;&gt;core/debug&#45;dump.ts -->
<g id="edge1" class="edge">
<title>app.ts&#45;&gt;core/debug&#45;dump.ts</title>
<path fill="none" stroke="#757575" d="M141.25,-109.83C141.25,-93.93 141.25,-64 141.25,-64 141.25,-64 113.19,-64 113.19,-64"/>
<polygon fill="#757575" stroke="#757575" points="113.19,-60.5 103.19,-64 113.19,-67.5 113.19,-60.5"/>
</g>
<!-- core/vm.ts -->
<g id="node3" class="node">
<title>core/vm.ts</title>
<path fill="none" stroke="#cfffac" d="M128.67,-19C128.67,-19 78.33,-19 78.33,-19 75.17,-19 72,-15.83 72,-12.67 72,-12.67 72,-6.33 72,-6.33 72,-3.17 75.17,0 78.33,0 78.33,0 128.67,0 128.67,0 131.83,0 135,-3.17 135,-6.33 135,-6.33 135,-12.67 135,-12.67 135,-15.83 131.83,-19 128.67,-19"/>
<text text-anchor="middle" x="103.5" y="-7" font-family="Arial" font-size="10.00" fill="#cfffac">core/vm.ts</text>
</g>
<!-- app.ts&#45;&gt;core/vm.ts -->
<g id="edge2" class="edge">
<title>app.ts&#45;&gt;core/vm.ts</title>
<path fill="none" stroke="#757575" d="M147.5,-109.96C147.5,-83.65 147.5,-12 147.5,-12 147.5,-12 145.01,-12 145.01,-12"/>
<polygon fill="#757575" stroke="#757575" points="145.01,-8.5 135.01,-12 145.01,-15.5 145.01,-8.5"/>
</g>
<!-- parser.ts -->
<g id="node4" class="node">
<title>parser.ts</title>
<path fill="none" stroke="#c6c5fe" d="M208.67,-74C208.67,-74 166.33,-74 166.33,-74 163.17,-74 160,-70.83 160,-67.67 160,-67.67 160,-61.33 160,-61.33 160,-58.17 163.17,-55 166.33,-55 166.33,-55 208.67,-55 208.67,-55 211.83,-55 215,-58.17 215,-61.33 215,-61.33 215,-67.67 215,-67.67 215,-70.83 211.83,-74 208.67,-74"/>
<text text-anchor="middle" x="187.5" y="-62" font-family="Arial" font-size="10.00" fill="#c6c5fe">parser.ts</text>
</g>
<!-- app.ts&#45;&gt;parser.ts -->
<g id="edge3" class="edge">
<title>app.ts&#45;&gt;parser.ts</title>
<path fill="none" stroke="#757575" d="M173.25,-109.92C173.25,-109.92 173.25,-84.34 173.25,-84.34"/>
<polygon fill="#757575" stroke="#757575" points="176.75,-84.34 173.25,-74.34 169.75,-84.34 176.75,-84.34"/>
</g>
<!-- types/types.ts -->
<g id="node5" class="node">
<title>types/types.ts</title>
<path fill="none" stroke="#cfffac" d="M248.67,-19C248.67,-19 182.33,-19 182.33,-19 179.17,-19 176,-15.83 176,-12.67 176,-12.67 176,-6.33 176,-6.33 176,-3.17 179.17,0 182.33,0 182.33,0 248.67,0 248.67,0 251.83,0 255,-3.17 255,-6.33 255,-6.33 255,-12.67 255,-12.67 255,-15.83 251.83,-19 248.67,-19"/>
<text text-anchor="middle" x="215.5" y="-7" font-family="Arial" font-size="10.00" fill="#cfffac">types/types.ts</text>
</g>
<!-- app.ts&#45;&gt;types/types.ts -->
<g id="edge4" class="edge">
<title>app.ts&#45;&gt;types/types.ts</title>
<path fill="none" stroke="#757575" d="M153.75,-109.82C153.75,-82.38 153.75,-6 153.75,-6 153.75,-6 165.69,-6 165.69,-6"/>
<polygon fill="#757575" stroke="#757575" points="165.69,-9.5 175.69,-6 165.69,-2.5 165.69,-9.5"/>
</g>
<!-- core/debug&#45;dump.ts&#45;&gt;core/vm.ts -->
<g id="edge5" class="edge">
<title>core/debug&#45;dump.ts&#45;&gt;core/vm.ts</title>
<path fill="none" stroke="#757575" d="M87.5,-54.92C87.5,-54.92 87.5,-29.34 87.5,-29.34"/>
<polygon fill="#757575" stroke="#757575" points="91,-29.34 87.5,-19.34 84,-29.34 91,-29.34"/>
</g>
<!-- parser.ts&#45;&gt;types/types.ts -->
<g id="edge6" class="edge">
<title>parser.ts&#45;&gt;types/types.ts</title>
<path fill="none" stroke="#757575" d="M195.5,-54.92C195.5,-54.92 195.5,-29.34 195.5,-29.34"/>
<polygon fill="#757575" stroke="#757575" points="199,-29.34 195.5,-19.34 192,-29.34 199,-29.34"/>
</g>
</g>
</svg>
