<?xml version="1.0" encoding="UTF-8" standalone="no"?>
<!DOCTYPE svg PUBLIC "-//W3C//DTD SVG 1.1//EN"
 "http://www.w3.org/Graphics/SVG/1.1/DTD/svg11.dtd">
<!-- Generated by graphviz version 2.43.0 (0)
 -->
<!-- Title: G Pages: 1 -->
<svg width="2820pt" height="715pt"
 viewBox="0.00 0.00 2820.20 715.20" xmlns="http://www.w3.org/2000/svg" xmlns:xlink="http://www.w3.org/1999/xlink">
<g id="graph0" class="graph" transform="scale(1 1) rotate(0) translate(21.6 693.6)">
<title>G</title>
<polygon fill="#111111" stroke="transparent" points="-21.6,21.6 -21.6,-693.6 2798.6,-693.6 2798.6,21.6 -21.6,21.6"/>
<!-- src/app.ts -->
<g id="node1" class="node">
<title>src/app.ts</title>
<path fill="none" stroke="#c6c5fe" d="M1288.83,-554C1288.83,-554 1229.17,-554 1229.17,-554 1225.33,-554 1221.5,-550.17 1221.5,-546.33 1221.5,-546.33 1221.5,-538.67 1221.5,-538.67 1221.5,-534.83 1225.33,-531 1229.17,-531 1229.17,-531 1288.83,-531 1288.83,-531 1292.67,-531 1296.5,-534.83 1296.5,-538.67 1296.5,-538.67 1296.5,-546.33 1296.5,-546.33 1296.5,-550.17 1292.67,-554 1288.83,-554"/>
<text text-anchor="middle" x="1259" y="-538.8" font-family="Arial" font-size="14.00" fill="#c6c5fe">src/app.ts</text>
</g>
<!-- src/expressions/binary&#45;operation.ts -->
<g id="node2" class="node">
<title>src/expressions/binary&#45;operation.ts</title>
<path fill="none" stroke="#c6c5fe" d="M2519.33,-436C2519.33,-436 2308.67,-436 2308.67,-436 2304.83,-436 2301,-432.17 2301,-428.33 2301,-428.33 2301,-420.67 2301,-420.67 2301,-416.83 2304.83,-413 2308.67,-413 2308.67,-413 2519.33,-413 2519.33,-413 2523.17,-413 2527,-416.83 2527,-420.67 2527,-420.67 2527,-428.33 2527,-428.33 2527,-432.17 2523.17,-436 2519.33,-436"/>
<text text-anchor="middle" x="2414" y="-420.8" font-family="Arial" font-size="14.00" fill="#c6c5fe">src/expressions/binary&#45;operation.ts</text>
</g>
<!-- src/app.ts&#45;&gt;src/expressions/binary&#45;operation.ts -->
<g id="edge1" class="edge">
<title>src/app.ts&#45;&gt;src/expressions/binary&#45;operation.ts</title>
<path fill="none" stroke="#757575" d="M1296.77,-548C1495.83,-548 2414,-548 2414,-548 2414,-548 2414,-446.34 2414,-446.34"/>
<polygon fill="#757575" stroke="#757575" points="2417.5,-446.34 2414,-436.34 2410.5,-446.34 2417.5,-446.34"/>
</g>
<!-- src/expressions/grouped&#45;expressions.ts -->
<g id="node3" class="node">
<title>src/expressions/grouped&#45;expressions.ts</title>
<path fill="none" stroke="#c6c5fe" d="M1677.33,-377C1677.33,-377 1438.67,-377 1438.67,-377 1434.83,-377 1431,-373.17 1431,-369.33 1431,-369.33 1431,-361.67 1431,-361.67 1431,-357.83 1434.83,-354 1438.67,-354 1438.67,-354 1677.33,-354 1677.33,-354 1681.17,-354 1685,-357.83 1685,-361.67 1685,-361.67 1685,-369.33 1685,-369.33 1685,-373.17 1681.17,-377 1677.33,-377"/>
<text text-anchor="middle" x="1558" y="-361.8" font-family="Arial" font-size="14.00" fill="#c6c5fe">src/expressions/grouped&#45;expressions.ts</text>
</g>
<!-- src/app.ts&#45;&gt;src/expressions/grouped&#45;expressions.ts -->
<g id="edge2" class="edge">
<title>src/app.ts&#45;&gt;src/expressions/grouped&#45;expressions.ts</title>
<path fill="none" stroke="#757575" d="M1296.63,-538C1385.61,-538 1601.5,-538 1601.5,-538 1601.5,-538 1601.5,-387.09 1601.5,-387.09"/>
<polygon fill="#757575" stroke="#757575" points="1605,-387.09 1601.5,-377.09 1598,-387.09 1605,-387.09"/>
</g>
<!-- src/expressions/handlers.ts -->
<g id="node4" class="node">
<title>src/expressions/handlers.ts</title>
<path fill="none" stroke="#c6c5fe" d="M1775.33,-200C1775.33,-200 1610.67,-200 1610.67,-200 1606.83,-200 1603,-196.17 1603,-192.33 1603,-192.33 1603,-184.67 1603,-184.67 1603,-180.83 1606.83,-177 1610.67,-177 1610.67,-177 1775.33,-177 1775.33,-177 1779.17,-177 1783,-180.83 1783,-184.67 1783,-184.67 1783,-192.33 1783,-192.33 1783,-196.17 1779.17,-200 1775.33,-200"/>
<text text-anchor="middle" x="1693" y="-184.8" font-family="Arial" font-size="14.00" fill="#c6c5fe">src/expressions/handlers.ts</text>
</g>
<!-- src/app.ts&#45;&gt;src/expressions/handlers.ts -->
<g id="edge3" class="edge">
<title>src/app.ts&#45;&gt;src/expressions/handlers.ts</title>
<path fill="none" stroke="#757575" d="M1296.87,-541C1414.91,-541 1768.33,-541 1768.33,-541 1768.33,-541 1768.33,-210.23 1768.33,-210.23"/>
<polygon fill="#757575" stroke="#757575" points="1771.83,-210.23 1768.33,-200.23 1764.83,-210.23 1771.83,-210.23"/>
</g>
<!-- src/handlers/dereference&#45;assignment.ts -->
<g id="node5" class="node">
<title>src/handlers/dereference&#45;assignment.ts</title>
<path fill="none" stroke="#c6c5fe" d="M2176.33,-377C2176.33,-377 1937.67,-377 1937.67,-377 1933.83,-377 1930,-373.17 1930,-369.33 1930,-369.33 1930,-361.67 1930,-361.67 1930,-357.83 1933.83,-354 1937.67,-354 1937.67,-354 2176.33,-354 2176.33,-354 2180.17,-354 2184,-357.83 2184,-361.67 2184,-361.67 2184,-369.33 2184,-369.33 2184,-373.17 2180.17,-377 2176.33,-377"/>
<text text-anchor="middle" x="2057" y="-361.8" font-family="Arial" font-size="14.00" fill="#c6c5fe">src/handlers/dereference&#45;assignment.ts</text>
</g>
<!-- src/app.ts&#45;&gt;src/handlers/dereference&#45;assignment.ts -->
<g id="edge4" class="edge">
<title>src/app.ts&#45;&gt;src/handlers/dereference&#45;assignment.ts</title>
<path fill="none" stroke="#757575" d="M1296.69,-543C1454.86,-543 2057,-543 2057,-543 2057,-543 2057,-387.15 2057,-387.15"/>
<polygon fill="#757575" stroke="#757575" points="2060.5,-387.15 2057,-377.15 2053.5,-387.15 2060.5,-387.15"/>
</g>
<!-- src/handlers/lambda&#45;expressions.ts -->
<g id="node6" class="node">
<title>src/handlers/lambda&#45;expressions.ts</title>
<path fill="none" stroke="#c6c5fe" d="M1033.33,-436C1033.33,-436 818.67,-436 818.67,-436 814.83,-436 811,-432.17 811,-428.33 811,-428.33 811,-420.67 811,-420.67 811,-416.83 814.83,-413 818.67,-413 818.67,-413 1033.33,-413 1033.33,-413 1037.17,-413 1041,-416.83 1041,-420.67 1041,-420.67 1041,-428.33 1041,-428.33 1041,-432.17 1037.17,-436 1033.33,-436"/>
<text text-anchor="middle" x="926" y="-420.8" font-family="Arial" font-size="14.00" fill="#c6c5fe">src/handlers/lambda&#45;expressions.ts</text>
</g>
<!-- src/app.ts&#45;&gt;src/handlers/lambda&#45;expressions.ts -->
<g id="edge5" class="edge">
<title>src/app.ts&#45;&gt;src/handlers/lambda&#45;expressions.ts</title>
<path fill="none" stroke="#757575" d="M1221.43,-535C1155.7,-535 1026.75,-535 1026.75,-535 1026.75,-535 1026.75,-446.33 1026.75,-446.33"/>
<polygon fill="#757575" stroke="#757575" points="1030.25,-446.33 1026.75,-436.33 1023.25,-446.33 1030.25,-446.33"/>
</g>
<!-- src/handlers/pointer&#45;operations.ts -->
<g id="node7" class="node">
<title>src/handlers/pointer&#45;operations.ts</title>
<path fill="none" stroke="#c6c5fe" d="M2312.83,-318C2312.83,-318 2111.17,-318 2111.17,-318 2107.33,-318 2103.5,-314.17 2103.5,-310.33 2103.5,-310.33 2103.5,-302.67 2103.5,-302.67 2103.5,-298.83 2107.33,-295 2111.17,-295 2111.17,-295 2312.83,-295 2312.83,-295 2316.67,-295 2320.5,-298.83 2320.5,-302.67 2320.5,-302.67 2320.5,-310.33 2320.5,-310.33 2320.5,-314.17 2316.67,-318 2312.83,-318"/>
<text text-anchor="middle" x="2212" y="-302.8" font-family="Arial" font-size="14.00" fill="#c6c5fe">src/handlers/pointer&#45;operations.ts</text>
</g>
<!-- src/app.ts&#45;&gt;src/handlers/pointer&#45;operations.ts -->
<g id="edge6" class="edge">
<title>src/app.ts&#45;&gt;src/handlers/pointer&#45;operations.ts</title>
<path fill="none" stroke="#757575" d="M1296.65,-546C1476.85,-546 2242.5,-546 2242.5,-546 2242.5,-546 2242.5,-328.05 2242.5,-328.05"/>
<polygon fill="#757575" stroke="#757575" points="2246,-328.05 2242.5,-318.05 2239,-328.05 2246,-328.05"/>
</g>
<!-- src/loops/for.ts -->
<g id="node8" class="node">
<title>src/loops/for.ts</title>
<path fill="none" stroke="#c6c5fe" d="M378.33,-495C378.33,-495 289.67,-495 289.67,-495 285.83,-495 282,-491.17 282,-487.33 282,-487.33 282,-479.67 282,-479.67 282,-475.83 285.83,-472 289.67,-472 289.67,-472 378.33,-472 378.33,-472 382.17,-472 386,-475.83 386,-479.67 386,-479.67 386,-487.33 386,-487.33 386,-491.17 382.17,-495 378.33,-495"/>
<text text-anchor="middle" x="334" y="-479.8" font-family="Arial" font-size="14.00" fill="#c6c5fe">src/loops/for.ts</text>
</g>
<!-- src/app.ts&#45;&gt;src/loops/for.ts -->
<g id="edge7" class="edge">
<title>src/app.ts&#45;&gt;src/loops/for.ts</title>
<path fill="none" stroke="#757575" d="M1221.3,-540C1047.75,-540 334,-540 334,-540 334,-540 334,-505.21 334,-505.21"/>
<polygon fill="#757575" stroke="#757575" points="337.5,-505.21 334,-495.21 330.5,-505.21 337.5,-505.21"/>
</g>
<!-- src/loops/loop.ts -->
<g id="node9" class="node">
<title>src/loops/loop.ts</title>
<path fill="none" stroke="#cfffac" d="M106.33,-436C106.33,-436 7.67,-436 7.67,-436 3.83,-436 0,-432.17 0,-428.33 0,-428.33 0,-420.67 0,-420.67 0,-416.83 3.83,-413 7.67,-413 7.67,-413 106.33,-413 106.33,-413 110.17,-413 114,-416.83 114,-420.67 114,-420.67 114,-428.33 114,-428.33 114,-432.17 110.17,-436 106.33,-436"/>
<text text-anchor="middle" x="57" y="-420.8" font-family="Arial" font-size="14.00" fill="#cfffac">src/loops/loop.ts</text>
</g>
<!-- src/app.ts&#45;&gt;src/loops/loop.ts -->
<g id="edge8" class="edge">
<title>src/app.ts&#45;&gt;src/loops/loop.ts</title>
<path fill="none" stroke="#757575" d="M1221.16,-549C1014.2,-549 28.5,-549 28.5,-549 28.5,-549 28.5,-446.44 28.5,-446.44"/>
<polygon fill="#757575" stroke="#757575" points="32,-446.44 28.5,-436.44 25,-446.44 32,-446.44"/>
</g>
<!-- src/loops/while.ts -->
<g id="node10" class="node">
<title>src/loops/while.ts</title>
<path fill="none" stroke="#c6c5fe" d="M248.83,-495C248.83,-495 145.17,-495 145.17,-495 141.33,-495 137.5,-491.17 137.5,-487.33 137.5,-487.33 137.5,-479.67 137.5,-479.67 137.5,-475.83 141.33,-472 145.17,-472 145.17,-472 248.83,-472 248.83,-472 252.67,-472 256.5,-475.83 256.5,-479.67 256.5,-479.67 256.5,-487.33 256.5,-487.33 256.5,-491.17 252.67,-495 248.83,-495"/>
<text text-anchor="middle" x="197" y="-479.8" font-family="Arial" font-size="14.00" fill="#c6c5fe">src/loops/while.ts</text>
</g>
<!-- src/app.ts&#45;&gt;src/loops/while.ts -->
<g id="edge9" class="edge">
<title>src/app.ts&#45;&gt;src/loops/while.ts</title>
<path fill="none" stroke="#757575" d="M1221.2,-544C1032.02,-544 197,-544 197,-544 197,-544 197,-505.17 197,-505.17"/>
<polygon fill="#757575" stroke="#757575" points="200.5,-505.16 197,-495.17 193.5,-505.17 200.5,-505.16"/>
</g>
<!-- src/match.ts -->
<g id="node11" class="node">
<title>src/match.ts</title>
<path fill="none" stroke="#cfffac" d="M1455.33,-318C1455.33,-318 1380.67,-318 1380.67,-318 1376.83,-318 1373,-314.17 1373,-310.33 1373,-310.33 1373,-302.67 1373,-302.67 1373,-298.83 1376.83,-295 1380.67,-295 1380.67,-295 1455.33,-295 1455.33,-295 1459.17,-295 1463,-298.83 1463,-302.67 1463,-302.67 1463,-310.33 1463,-310.33 1463,-314.17 1459.17,-318 1455.33,-318"/>
<text text-anchor="middle" x="1418" y="-302.8" font-family="Arial" font-size="14.00" fill="#cfffac">src/match.ts</text>
</g>
<!-- src/app.ts&#45;&gt;src/match.ts -->
<g id="edge10" class="edge">
<title>src/app.ts&#45;&gt;src/match.ts</title>
<path fill="none" stroke="#757575" d="M1296.62,-533C1333.19,-533 1383.25,-533 1383.25,-533 1383.25,-533 1383.25,-328.04 1383.25,-328.04"/>
<polygon fill="#757575" stroke="#757575" points="1386.75,-328.04 1383.25,-318.04 1379.75,-328.04 1386.75,-328.04"/>
</g>
<!-- src/parser.ts -->
<g id="node12" class="node">
<title>src/parser.ts</title>
<path fill="none" stroke="#c6c5fe" d="M2769.33,-82C2769.33,-82 2694.67,-82 2694.67,-82 2690.83,-82 2687,-78.17 2687,-74.33 2687,-74.33 2687,-66.67 2687,-66.67 2687,-62.83 2690.83,-59 2694.67,-59 2694.67,-59 2769.33,-59 2769.33,-59 2773.17,-59 2777,-62.83 2777,-66.67 2777,-66.67 2777,-74.33 2777,-74.33 2777,-78.17 2773.17,-82 2769.33,-82"/>
<text text-anchor="middle" x="2732" y="-66.8" font-family="Arial" font-size="14.00" fill="#c6c5fe">src/parser.ts</text>
</g>
<!-- src/app.ts&#45;&gt;src/parser.ts -->
<g id="edge11" class="edge">
<title>src/app.ts&#45;&gt;src/parser.ts</title>
<path fill="none" stroke="#757575" d="M1296.53,-551C1528.93,-551 2762,-551 2762,-551 2762,-551 2762,-92.38 2762,-92.38"/>
<polygon fill="#757575" stroke="#757575" points="2765.5,-92.38 2762,-82.38 2758.5,-92.38 2765.5,-92.38"/>
</g>
<!-- src/scope.ts -->
<g id="node13" class="node">
<title>src/scope.ts</title>
<path fill="none" stroke="#c6c5fe" d="M621.83,-495C621.83,-495 548.17,-495 548.17,-495 544.33,-495 540.5,-491.17 540.5,-487.33 540.5,-487.33 540.5,-479.67 540.5,-479.67 540.5,-475.83 544.33,-472 548.17,-472 548.17,-472 621.83,-472 621.83,-472 625.67,-472 629.5,-475.83 629.5,-479.67 629.5,-479.67 629.5,-487.33 629.5,-487.33 629.5,-491.17 625.67,-495 621.83,-495"/>
<text text-anchor="middle" x="585" y="-479.8" font-family="Arial" font-size="14.00" fill="#c6c5fe">src/scope.ts</text>
</g>
<!-- src/app.ts&#45;&gt;src/scope.ts -->
<g id="edge12" class="edge">
<title>src/app.ts&#45;&gt;src/scope.ts</title>
<path fill="none" stroke="#757575" d="M1240.25,-530.85C1240.25,-515.38 1240.25,-490 1240.25,-490 1240.25,-490 639.52,-490 639.52,-490"/>
<polygon fill="#757575" stroke="#757575" points="639.52,-486.5 629.52,-490 639.52,-493.5 639.52,-486.5"/>
</g>
<!-- src/utils/app&#45;handlers.ts -->
<g id="node14" class="node">
<title>src/utils/app&#45;handlers.ts</title>
<path fill="none" stroke="#c6c5fe" d="M1554.83,-495C1554.83,-495 1411.17,-495 1411.17,-495 1407.33,-495 1403.5,-491.17 1403.5,-487.33 1403.5,-487.33 1403.5,-479.67 1403.5,-479.67 1403.5,-475.83 1407.33,-472 1411.17,-472 1411.17,-472 1554.83,-472 1554.83,-472 1558.67,-472 1562.5,-475.83 1562.5,-479.67 1562.5,-479.67 1562.5,-487.33 1562.5,-487.33 1562.5,-491.17 1558.67,-495 1554.83,-495"/>
<text text-anchor="middle" x="1483" y="-479.8" font-family="Arial" font-size="14.00" fill="#c6c5fe">src/utils/app&#45;handlers.ts</text>
</g>
<!-- src/app.ts&#45;&gt;src/utils/app&#45;handlers.ts -->
<g id="edge13" class="edge">
<title>src/app.ts&#45;&gt;src/utils/app&#45;handlers.ts</title>
<path fill="none" stroke="#757575" d="M1296.64,-536C1348.75,-536 1436.5,-536 1436.5,-536 1436.5,-536 1436.5,-505.15 1436.5,-505.15"/>
<polygon fill="#757575" stroke="#757575" points="1440,-505.15 1436.5,-495.15 1433,-505.15 1440,-505.15"/>
</g>
<!-- src/utils/array.ts -->
<g id="node15" class="node">
<title>src/utils/array.ts</title>
<path fill="none" stroke="#cfffac" d="M1378.33,-82C1378.33,-82 1283.67,-82 1283.67,-82 1279.83,-82 1276,-78.17 1276,-74.33 1276,-74.33 1276,-66.67 1276,-66.67 1276,-62.83 1279.83,-59 1283.67,-59 1283.67,-59 1378.33,-59 1378.33,-59 1382.17,-59 1386,-62.83 1386,-66.67 1386,-66.67 1386,-74.33 1386,-74.33 1386,-78.17 1382.17,-82 1378.33,-82"/>
<text text-anchor="middle" x="1331" y="-66.8" font-family="Arial" font-size="14.00" fill="#cfffac">src/utils/array.ts</text>
</g>
<!-- src/app.ts&#45;&gt;src/utils/array.ts -->
<g id="edge14" class="edge">
<title>src/app.ts&#45;&gt;src/utils/array.ts</title>
<path fill="none" stroke="#757575" d="M1259,-530.84C1259,-522.6 1259,-513 1259,-513 1259,-513 1366.62,-513 1366.62,-513 1366.62,-513 1366.62,-92.34 1366.62,-92.34"/>
<polygon fill="#757575" stroke="#757575" points="1370.13,-92.34 1366.62,-82.34 1363.13,-92.34 1370.13,-92.34"/>
</g>
<!-- src/utils/this&#45;keyword.ts -->
<g id="node16" class="node">
<title>src/utils/this&#45;keyword.ts</title>
<path fill="none" stroke="#c6c5fe" d="M1329.33,-436C1329.33,-436 1188.67,-436 1188.67,-436 1184.83,-436 1181,-432.17 1181,-428.33 1181,-428.33 1181,-420.67 1181,-420.67 1181,-416.83 1184.83,-413 1188.67,-413 1188.67,-413 1329.33,-413 1329.33,-413 1333.17,-413 1337,-416.83 1337,-420.67 1337,-420.67 1337,-428.33 1337,-428.33 1337,-432.17 1333.17,-436 1329.33,-436"/>
<text text-anchor="middle" x="1259" y="-420.8" font-family="Arial" font-size="14.00" fill="#c6c5fe">src/utils/this&#45;keyword.ts</text>
</g>
<!-- src/app.ts&#45;&gt;src/utils/this&#45;keyword.ts -->
<g id="edge15" class="edge">
<title>src/app.ts&#45;&gt;src/utils/this&#45;keyword.ts</title>
<path fill="none" stroke="#757575" d="M1277.75,-530.75C1277.75,-530.75 1277.75,-446.2 1277.75,-446.2"/>
<polygon fill="#757575" stroke="#757575" points="1281.25,-446.2 1277.75,-436.2 1274.25,-446.2 1281.25,-446.2"/>
</g>
<!-- src/expressions/binary&#45;operation.ts&#45;&gt;src/expressions/handlers.ts -->
<g id="edge17" class="edge">
<title>src/expressions/binary&#45;operation.ts&#45;&gt;src/expressions/handlers.ts</title>
<path fill="none" stroke="#757575" d="M2300.7,-428C2116.4,-428 1772,-428 1772,-428 1772,-428 1772,-210.05 1772,-210.05"/>
<polygon fill="#757575" stroke="#757575" points="1775.5,-210.05 1772,-200.05 1768.5,-210.05 1775.5,-210.05"/>
</g>
<!-- src/expressions/binary&#45;operation.ts&#45;&gt;src/parser.ts -->
<g id="edge19" class="edge">
<title>src/expressions/binary&#45;operation.ts&#45;&gt;src/parser.ts</title>
<path fill="none" stroke="#757575" d="M2527.01,-424C2618.41,-424 2732,-424 2732,-424 2732,-424 2732,-92.26 2732,-92.26"/>
<polygon fill="#757575" stroke="#757575" points="2735.5,-92.26 2732,-82.26 2728.5,-92.26 2735.5,-92.26"/>
</g>
<!-- src/expressions/operators.ts -->
<g id="node18" class="node">
<title>src/expressions/operators.ts</title>
<path fill="none" stroke="#c6c5fe" d="M2553.83,-377C2553.83,-377 2384.17,-377 2384.17,-377 2380.33,-377 2376.5,-373.17 2376.5,-369.33 2376.5,-369.33 2376.5,-361.67 2376.5,-361.67 2376.5,-357.83 2380.33,-354 2384.17,-354 2384.17,-354 2553.83,-354 2553.83,-354 2557.67,-354 2561.5,-357.83 2561.5,-361.67 2561.5,-361.67 2561.5,-369.33 2561.5,-369.33 2561.5,-373.17 2557.67,-377 2553.83,-377"/>
<text text-anchor="middle" x="2469" y="-361.8" font-family="Arial" font-size="14.00" fill="#c6c5fe">src/expressions/operators.ts</text>
</g>
<!-- src/expressions/binary&#45;operation.ts&#45;&gt;src/expressions/operators.ts -->
<g id="edge18" class="edge">
<title>src/expressions/binary&#45;operation.ts&#45;&gt;src/expressions/operators.ts</title>
<path fill="none" stroke="#757575" d="M2451.75,-412.84C2451.75,-412.84 2451.75,-387.13 2451.75,-387.13"/>
<polygon fill="#757575" stroke="#757575" points="2455.25,-387.13 2451.75,-377.13 2448.25,-387.13 2455.25,-387.13"/>
</g>
<!-- src/expressions/grouped&#45;expressions.ts&#45;&gt;src/expressions/handlers.ts -->
<g id="edge20" class="edge">
<title>src/expressions/grouped&#45;expressions.ts&#45;&gt;src/expressions/handlers.ts</title>
<path fill="none" stroke="#757575" d="M1559.25,-353.85C1559.25,-315.55 1559.25,-196 1559.25,-196 1559.25,-196 1592.67,-196 1592.67,-196"/>
<polygon fill="#757575" stroke="#757575" points="1592.67,-199.5 1602.67,-196 1592.67,-192.5 1592.67,-199.5"/>
</g>
<!-- src/expressions/grouped&#45;expressions.ts&#45;&gt;src/match.ts -->
<g id="edge21" class="edge">
<title>src/expressions/grouped&#45;expressions.ts&#45;&gt;src/match.ts</title>
<path fill="none" stroke="#757575" d="M1447,-353.84C1447,-353.84 1447,-328.13 1447,-328.13"/>
<polygon fill="#757575" stroke="#757575" points="1450.5,-328.13 1447,-318.13 1443.5,-328.13 1450.5,-328.13"/>
</g>
<!-- src/expressions/grouped&#45;expressions.ts&#45;&gt;src/utils/array.ts -->
<g id="edge23" class="edge">
<title>src/expressions/grouped&#45;expressions.ts&#45;&gt;src/utils/array.ts</title>
<path fill="none" stroke="#757575" d="M1430.85,-365C1397.6,-365 1370.88,-365 1370.88,-365 1370.88,-365 1370.88,-92.04 1370.88,-92.04"/>
<polygon fill="#757575" stroke="#757575" points="1374.38,-92.04 1370.88,-82.04 1367.38,-92.04 1374.38,-92.04"/>
</g>
<!-- src/types/structs.ts -->
<g id="node19" class="node">
<title>src/types/structs.ts</title>
<path fill="none" stroke="#c6c5fe" d="M1753.33,-318C1753.33,-318 1640.67,-318 1640.67,-318 1636.83,-318 1633,-314.17 1633,-310.33 1633,-310.33 1633,-302.67 1633,-302.67 1633,-298.83 1636.83,-295 1640.67,-295 1640.67,-295 1753.33,-295 1753.33,-295 1757.17,-295 1761,-298.83 1761,-302.67 1761,-302.67 1761,-310.33 1761,-310.33 1761,-314.17 1757.17,-318 1753.33,-318"/>
<text text-anchor="middle" x="1697" y="-302.8" font-family="Arial" font-size="14.00" fill="#c6c5fe">src/types/structs.ts</text>
</g>
<!-- src/expressions/grouped&#45;expressions.ts&#45;&gt;src/types/structs.ts -->
<g id="edge22" class="edge">
<title>src/expressions/grouped&#45;expressions.ts&#45;&gt;src/types/structs.ts</title>
<path fill="none" stroke="#757575" d="M1667.67,-353.84C1667.67,-353.84 1667.67,-328.13 1667.67,-328.13"/>
<polygon fill="#757575" stroke="#757575" points="1671.17,-328.13 1667.67,-318.13 1664.17,-328.13 1671.17,-328.13"/>
</g>
<!-- src/utils/identifier&#45;utils.ts -->
<g id="node20" class="node">
<title>src/utils/identifier&#45;utils.ts</title>
<path fill="none" stroke="#cfffac" d="M1326.33,-259C1326.33,-259 1181.67,-259 1181.67,-259 1177.83,-259 1174,-255.17 1174,-251.33 1174,-251.33 1174,-243.67 1174,-243.67 1174,-239.83 1177.83,-236 1181.67,-236 1181.67,-236 1326.33,-236 1326.33,-236 1330.17,-236 1334,-239.83 1334,-243.67 1334,-243.67 1334,-251.33 1334,-251.33 1334,-255.17 1330.17,-259 1326.33,-259"/>
<text text-anchor="middle" x="1254" y="-243.8" font-family="Arial" font-size="14.00" fill="#cfffac">src/utils/identifier&#45;utils.ts</text>
</g>
<!-- src/expressions/grouped&#45;expressions.ts&#45;&gt;src/utils/identifier&#45;utils.ts -->
<g id="edge24" class="edge">
<title>src/expressions/grouped&#45;expressions.ts&#45;&gt;src/utils/identifier&#45;utils.ts</title>
<path fill="none" stroke="#757575" d="M1492,-353.75C1492,-323.09 1492,-243 1492,-243 1492,-243 1344.24,-243 1344.24,-243"/>
<polygon fill="#757575" stroke="#757575" points="1344.24,-239.5 1334.24,-243 1344.24,-246.5 1344.24,-239.5"/>
</g>
<!-- src/handlers/assignment.ts -->
<g id="node21" class="node">
<title>src/handlers/assignment.ts</title>
<path fill="none" stroke="#c6c5fe" d="M1691.33,-141C1691.33,-141 1528.67,-141 1528.67,-141 1524.83,-141 1521,-137.17 1521,-133.33 1521,-133.33 1521,-125.67 1521,-125.67 1521,-121.83 1524.83,-118 1528.67,-118 1528.67,-118 1691.33,-118 1691.33,-118 1695.17,-118 1699,-121.83 1699,-125.67 1699,-125.67 1699,-133.33 1699,-133.33 1699,-137.17 1695.17,-141 1691.33,-141"/>
<text text-anchor="middle" x="1610" y="-125.8" font-family="Arial" font-size="14.00" fill="#c6c5fe">src/handlers/assignment.ts</text>
</g>
<!-- src/expressions/handlers.ts&#45;&gt;src/handlers/assignment.ts -->
<g id="edge25" class="edge">
<title>src/expressions/handlers.ts&#45;&gt;src/handlers/assignment.ts</title>
<path fill="none" stroke="#757575" d="M1651,-176.84C1651,-176.84 1651,-151.13 1651,-151.13"/>
<polygon fill="#757575" stroke="#757575" points="1654.5,-151.13 1651,-141.13 1647.5,-151.13 1654.5,-151.13"/>
</g>
<!-- src/types/interpreter.ts -->
<g id="node22" class="node">
<title>src/types/interpreter.ts</title>
<path fill="none" stroke="#cfffac" d="M1735.83,-82C1735.83,-82 1602.17,-82 1602.17,-82 1598.33,-82 1594.5,-78.17 1594.5,-74.33 1594.5,-74.33 1594.5,-66.67 1594.5,-66.67 1594.5,-62.83 1598.33,-59 1602.17,-59 1602.17,-59 1735.83,-59 1735.83,-59 1739.67,-59 1743.5,-62.83 1743.5,-66.67 1743.5,-66.67 1743.5,-74.33 1743.5,-74.33 1743.5,-78.17 1739.67,-82 1735.83,-82"/>
<text text-anchor="middle" x="1669" y="-66.8" font-family="Arial" font-size="14.00" fill="#cfffac">src/types/interpreter.ts</text>
</g>
<!-- src/expressions/handlers.ts&#45;&gt;src/types/interpreter.ts -->
<g id="edge26" class="edge">
<title>src/expressions/handlers.ts&#45;&gt;src/types/interpreter.ts</title>
<path fill="none" stroke="#757575" d="M1721.25,-176.75C1721.25,-176.75 1721.25,-92.2 1721.25,-92.2"/>
<polygon fill="#757575" stroke="#757575" points="1724.75,-92.2 1721.25,-82.2 1717.75,-92.2 1724.75,-92.2"/>
</g>
<!-- src/utils/scope&#45;helpers.ts -->
<g id="node23" class="node">
<title>src/utils/scope&#45;helpers.ts</title>
<path fill="none" stroke="#c6c5fe" d="M1356.83,-141C1356.83,-141 1207.17,-141 1207.17,-141 1203.33,-141 1199.5,-137.17 1199.5,-133.33 1199.5,-133.33 1199.5,-125.67 1199.5,-125.67 1199.5,-121.83 1203.33,-118 1207.17,-118 1207.17,-118 1356.83,-118 1356.83,-118 1360.67,-118 1364.5,-121.83 1364.5,-125.67 1364.5,-125.67 1364.5,-133.33 1364.5,-133.33 1364.5,-137.17 1360.67,-141 1356.83,-141"/>
<text text-anchor="middle" x="1282" y="-125.8" font-family="Arial" font-size="14.00" fill="#c6c5fe">src/utils/scope&#45;helpers.ts</text>
</g>
<!-- src/expressions/handlers.ts&#45;&gt;src/utils/scope&#45;helpers.ts -->
<g id="edge27" class="edge">
<title>src/expressions/handlers.ts&#45;&gt;src/utils/scope&#45;helpers.ts</title>
<path fill="none" stroke="#757575" d="M1602.74,-180C1503.47,-180 1357.83,-180 1357.83,-180 1357.83,-180 1357.83,-151.21 1357.83,-151.21"/>
<polygon fill="#757575" stroke="#757575" points="1361.33,-151.21 1357.83,-141.21 1354.33,-151.21 1361.33,-151.21"/>
</g>
<!-- src/handlers/dereference&#45;assignment.ts&#45;&gt;src/expressions/handlers.ts -->
<g id="edge48" class="edge">
<title>src/handlers/dereference&#45;assignment.ts&#45;&gt;src/expressions/handlers.ts</title>
<path fill="none" stroke="#757575" d="M1929.91,-365C1855.36,-365 1775.67,-365 1775.67,-365 1775.67,-365 1775.67,-210.08 1775.67,-210.08"/>
<polygon fill="#757575" stroke="#757575" points="1779.17,-210.08 1775.67,-200.08 1772.17,-210.08 1779.17,-210.08"/>
</g>
<!-- src/handlers/dereference&#45;assignment.ts&#45;&gt;src/handlers/pointer&#45;operations.ts -->
<g id="edge49" class="edge">
<title>src/handlers/dereference&#45;assignment.ts&#45;&gt;src/handlers/pointer&#45;operations.ts</title>
<path fill="none" stroke="#757575" d="M2143.75,-353.84C2143.75,-353.84 2143.75,-328.13 2143.75,-328.13"/>
<polygon fill="#757575" stroke="#757575" points="2147.25,-328.13 2143.75,-318.13 2140.25,-328.13 2147.25,-328.13"/>
</g>
<!-- src/functions.ts -->
<g id="node29" class="node">
<title>src/functions.ts</title>
<path fill="none" stroke="#c6c5fe" d="M1114.83,-377C1114.83,-377 1023.17,-377 1023.17,-377 1019.33,-377 1015.5,-373.17 1015.5,-369.33 1015.5,-369.33 1015.5,-361.67 1015.5,-361.67 1015.5,-357.83 1019.33,-354 1023.17,-354 1023.17,-354 1114.83,-354 1114.83,-354 1118.67,-354 1122.5,-357.83 1122.5,-361.67 1122.5,-361.67 1122.5,-369.33 1122.5,-369.33 1122.5,-373.17 1118.67,-377 1114.83,-377"/>
<text text-anchor="middle" x="1069" y="-361.8" font-family="Arial" font-size="14.00" fill="#c6c5fe">src/functions.ts</text>
</g>
<!-- src/handlers/lambda&#45;expressions.ts&#45;&gt;src/functions.ts -->
<g id="edge54" class="edge">
<title>src/handlers/lambda&#45;expressions.ts&#45;&gt;src/functions.ts</title>
<path fill="none" stroke="#757575" d="M1028.25,-412.84C1028.25,-412.84 1028.25,-387.13 1028.25,-387.13"/>
<polygon fill="#757575" stroke="#757575" points="1031.75,-387.13 1028.25,-377.13 1024.75,-387.13 1031.75,-387.13"/>
</g>
<!-- src/handlers/anonymous&#45;functions.ts -->
<g id="node30" class="node">
<title>src/handlers/anonymous&#45;functions.ts</title>
<path fill="none" stroke="#c6c5fe" d="M842.83,-318C842.83,-318 621.17,-318 621.17,-318 617.33,-318 613.5,-314.17 613.5,-310.33 613.5,-310.33 613.5,-302.67 613.5,-302.67 613.5,-298.83 617.33,-295 621.17,-295 621.17,-295 842.83,-295 842.83,-295 846.67,-295 850.5,-298.83 850.5,-302.67 850.5,-302.67 850.5,-310.33 850.5,-310.33 850.5,-314.17 846.67,-318 842.83,-318"/>
<text text-anchor="middle" x="732" y="-302.8" font-family="Arial" font-size="14.00" fill="#c6c5fe">src/handlers/anonymous&#45;functions.ts</text>
</g>
<!-- src/handlers/lambda&#45;expressions.ts&#45;&gt;src/handlers/anonymous&#45;functions.ts -->
<g id="edge55" class="edge">
<title>src/handlers/lambda&#45;expressions.ts&#45;&gt;src/handlers/anonymous&#45;functions.ts</title>
<path fill="none" stroke="#757575" d="M824.17,-412.75C824.17,-412.75 824.17,-328.2 824.17,-328.2"/>
<polygon fill="#757575" stroke="#757575" points="827.67,-328.2 824.17,-318.2 820.67,-328.2 827.67,-328.2"/>
</g>
<!-- src/handlers/pointer&#45;operations.ts&#45;&gt;src/utils/identifier&#45;utils.ts -->
<g id="edge59" class="edge">
<title>src/handlers/pointer&#45;operations.ts&#45;&gt;src/utils/identifier&#45;utils.ts</title>
<path fill="none" stroke="#757575" d="M2212,-294.75C2212,-288.88 2212,-283 2212,-283 2212,-283 1254,-283 1254,-283 1254,-283 1254,-269.12 1254,-269.12"/>
<polygon fill="#757575" stroke="#757575" points="1257.5,-269.12 1254,-259.12 1250.5,-269.12 1257.5,-269.12"/>
</g>
<!-- src/loops/for.ts&#45;&gt;src/loops/loop.ts -->
<g id="edge61" class="edge">
<title>src/loops/for.ts&#45;&gt;src/loops/loop.ts</title>
<path fill="none" stroke="#757575" d="M316.67,-471.88C316.67,-461.52 316.67,-448 316.67,-448 316.67,-448 85.5,-448 85.5,-448 85.5,-448 85.5,-446.25 85.5,-446.25"/>
<polygon fill="#757575" stroke="#757575" points="89,-446.25 85.5,-436.25 82,-446.25 89,-446.25"/>
</g>
<!-- src/loops/helpers.ts -->
<g id="node35" class="node">
<title>src/loops/helpers.ts</title>
<path fill="none" stroke="#cfffac" d="M396.83,-436C396.83,-436 279.17,-436 279.17,-436 275.33,-436 271.5,-432.17 271.5,-428.33 271.5,-428.33 271.5,-420.67 271.5,-420.67 271.5,-416.83 275.33,-413 279.17,-413 279.17,-413 396.83,-413 396.83,-413 400.67,-413 404.5,-416.83 404.5,-420.67 404.5,-420.67 404.5,-428.33 404.5,-428.33 404.5,-432.17 400.67,-436 396.83,-436"/>
<text text-anchor="middle" x="338" y="-420.8" font-family="Arial" font-size="14.00" fill="#cfffac">src/loops/helpers.ts</text>
</g>
<!-- src/loops/for.ts&#45;&gt;src/loops/helpers.ts -->
<g id="edge60" class="edge">
<title>src/loops/for.ts&#45;&gt;src/loops/helpers.ts</title>
<path fill="none" stroke="#757575" d="M351.33,-471.84C351.33,-471.84 351.33,-446.13 351.33,-446.13"/>
<polygon fill="#757575" stroke="#757575" points="354.83,-446.13 351.33,-436.13 347.83,-446.13 354.83,-446.13"/>
</g>
<!-- src/loops/types.ts -->
<g id="node36" class="node">
<title>src/loops/types.ts</title>
<path fill="none" stroke="#c6c5fe" d="M245.83,-436C245.83,-436 140.17,-436 140.17,-436 136.33,-436 132.5,-432.17 132.5,-428.33 132.5,-428.33 132.5,-420.67 132.5,-420.67 132.5,-416.83 136.33,-413 140.17,-413 140.17,-413 245.83,-413 245.83,-413 249.67,-413 253.5,-416.83 253.5,-420.67 253.5,-420.67 253.5,-428.33 253.5,-428.33 253.5,-432.17 249.67,-436 245.83,-436"/>
<text text-anchor="middle" x="193" y="-420.8" font-family="Arial" font-size="14.00" fill="#c6c5fe">src/loops/types.ts</text>
</g>
<!-- src/loops/for.ts&#45;&gt;src/loops/types.ts -->
<g id="edge62" class="edge">
<title>src/loops/for.ts&#45;&gt;src/loops/types.ts</title>
<path fill="none" stroke="#757575" d="M281.66,-479C271.54,-479 264,-479 264,-479 264,-479 264,-424 264,-424 264,-424 262.95,-424 262.95,-424"/>
<polygon fill="#757575" stroke="#757575" points="263.52,-420.5 253.52,-424 263.52,-427.5 263.52,-420.5"/>
</g>
<!-- src/loops/while.ts&#45;&gt;src/loops/loop.ts -->
<g id="edge65" class="edge">
<title>src/loops/while.ts&#45;&gt;src/loops/loop.ts</title>
<path fill="none" stroke="#757575" d="M137.22,-483C99.17,-483 57,-483 57,-483 57,-483 57,-446.06 57,-446.06"/>
<polygon fill="#757575" stroke="#757575" points="60.5,-446.06 57,-436.06 53.5,-446.06 60.5,-446.06"/>
</g>
<!-- src/loops/while.ts&#45;&gt;src/loops/helpers.ts -->
<g id="edge64" class="edge">
<title>src/loops/while.ts&#45;&gt;src/loops/helpers.ts</title>
<path fill="none" stroke="#757575" d="M256.63,-487C268.16,-487 276.75,-487 276.75,-487 276.75,-487 276.75,-446.26 276.75,-446.26"/>
<polygon fill="#757575" stroke="#757575" points="280.25,-446.26 276.75,-436.26 273.25,-446.26 280.25,-446.26"/>
</g>
<!-- src/loops/while.ts&#45;&gt;src/loops/types.ts -->
<g id="edge66" class="edge">
<title>src/loops/while.ts&#45;&gt;src/loops/types.ts</title>
<path fill="none" stroke="#757575" d="M195.5,-471.84C195.5,-471.84 195.5,-446.13 195.5,-446.13"/>
<polygon fill="#757575" stroke="#757575" points="199,-446.13 195.5,-436.13 192,-446.13 199,-446.13"/>
</g>
<!-- src/type&#45;utils.ts -->
<g id="node26" class="node">
<title>src/type&#45;utils.ts</title>
<path fill="none" stroke="#cfffac" d="M1253.83,-23C1253.83,-23 1162.17,-23 1162.17,-23 1158.33,-23 1154.5,-19.17 1154.5,-15.33 1154.5,-15.33 1154.5,-7.67 1154.5,-7.67 1154.5,-3.83 1158.33,0 1162.17,0 1162.17,0 1253.83,0 1253.83,0 1257.67,0 1261.5,-3.83 1261.5,-7.67 1261.5,-7.67 1261.5,-15.33 1261.5,-15.33 1261.5,-19.17 1257.67,-23 1253.83,-23"/>
<text text-anchor="middle" x="1208" y="-7.8" font-family="Arial" font-size="14.00" fill="#cfffac">src/type&#45;utils.ts</text>
</g>
<!-- src/parser.ts&#45;&gt;src/type&#45;utils.ts -->
<g id="edge67" class="edge">
<title>src/parser.ts&#45;&gt;src/type&#45;utils.ts</title>
<path fill="none" stroke="#757575" d="M2732,-58.79C2732,-39.95 2732,-5 2732,-5 2732,-5 1271.79,-5 1271.79,-5"/>
<polygon fill="#757575" stroke="#757575" points="1271.79,-1.5 1261.79,-5 1271.79,-8.5 1271.79,-1.5"/>
</g>
<!-- src/scope.ts&#45;&gt;src/expressions/handlers.ts -->
<g id="edge68" class="edge">
<title>src/scope.ts&#45;&gt;src/expressions/handlers.ts</title>
<path fill="none" stroke="#757575" d="M582.43,-471.92C582.43,-417.28 582.43,-188 582.43,-188 582.43,-188 1592.59,-188 1592.59,-188"/>
<polygon fill="#757575" stroke="#757575" points="1592.59,-191.5 1602.59,-188 1592.59,-184.5 1592.59,-191.5"/>
</g>
<!-- src/scope.ts&#45;&gt;src/handlers/lambda&#45;expressions.ts -->
<g id="edge71" class="edge">
<title>src/scope.ts&#45;&gt;src/handlers/lambda&#45;expressions.ts</title>
<path fill="none" stroke="#757575" d="M629.66,-481C699.96,-481 828.5,-481 828.5,-481 828.5,-481 828.5,-446.21 828.5,-446.21"/>
<polygon fill="#757575" stroke="#757575" points="832,-446.21 828.5,-436.21 825,-446.21 832,-446.21"/>
</g>
<!-- src/scope.ts&#45;&gt;src/parser.ts -->
<g id="edge72" class="edge">
<title>src/scope.ts&#45;&gt;src/parser.ts</title>
<path fill="none" stroke="#757575" d="M624.17,-471.75C624.17,-465.88 624.17,-460 624.17,-460 624.17,-460 2747,-460 2747,-460 2747,-460 2747,-92.16 2747,-92.16"/>
<polygon fill="#757575" stroke="#757575" points="2750.5,-92.16 2747,-82.16 2743.5,-92.16 2750.5,-92.16"/>
</g>
<!-- src/scope.ts&#45;&gt;src/utils/array.ts -->
<g id="edge73" class="edge">
<title>src/scope.ts&#45;&gt;src/utils/array.ts</title>
<path fill="none" stroke="#757575" d="M561.71,-471.9C561.71,-404.47 561.71,-66 561.71,-66 561.71,-66 1265.98,-66 1265.98,-66"/>
<polygon fill="#757575" stroke="#757575" points="1265.98,-69.5 1275.98,-66 1265.98,-62.5 1265.98,-69.5"/>
</g>
<!-- src/scope.ts&#45;&gt;src/utils/scope&#45;helpers.ts -->
<g id="edge75" class="edge">
<title>src/scope.ts&#45;&gt;src/utils/scope&#45;helpers.ts</title>
<path fill="none" stroke="#757575" d="M572.07,-471.71C572.07,-410.19 572.07,-129 572.07,-129 572.07,-129 1189.17,-129 1189.17,-129"/>
<polygon fill="#757575" stroke="#757575" points="1189.17,-132.5 1199.17,-129 1189.17,-125.5 1189.17,-132.5"/>
</g>
<!-- src/function&#45;type&#45;handler.ts -->
<g id="node28" class="node">
<title>src/function&#45;type&#45;handler.ts</title>
<path fill="none" stroke="#c6c5fe" d="M784.83,-436C784.83,-436 621.17,-436 621.17,-436 617.33,-436 613.5,-432.17 613.5,-428.33 613.5,-428.33 613.5,-420.67 613.5,-420.67 613.5,-416.83 617.33,-413 621.17,-413 621.17,-413 784.83,-413 784.83,-413 788.67,-413 792.5,-416.83 792.5,-420.67 792.5,-420.67 792.5,-428.33 792.5,-428.33 792.5,-432.17 788.67,-436 784.83,-436"/>
<text text-anchor="middle" x="703" y="-420.8" font-family="Arial" font-size="14.00" fill="#c6c5fe">src/function&#45;type&#45;handler.ts</text>
</g>
<!-- src/scope.ts&#45;&gt;src/function&#45;type&#45;handler.ts -->
<g id="edge69" class="edge">
<title>src/scope.ts&#45;&gt;src/function&#45;type&#45;handler.ts</title>
<path fill="none" stroke="#757575" d="M618.83,-471.84C618.83,-471.84 618.83,-446.13 618.83,-446.13"/>
<polygon fill="#757575" stroke="#757575" points="622.33,-446.13 618.83,-436.13 615.33,-446.13 622.33,-446.13"/>
</g>
<!-- src/scope.ts&#45;&gt;src/functions.ts -->
<g id="edge70" class="edge">
<title>src/scope.ts&#45;&gt;src/functions.ts</title>
<path fill="none" stroke="#757575" d="M603.14,-471.9C603.14,-442.44 603.14,-367 603.14,-367 603.14,-367 1005.11,-367 1005.11,-367"/>
<polygon fill="#757575" stroke="#757575" points="1005.11,-370.5 1015.11,-367 1005.11,-363.5 1005.11,-370.5"/>
</g>
<!-- src/utils/function&#45;utils.ts -->
<g id="node33" class="node">
<title>src/utils/function&#45;utils.ts</title>
<path fill="none" stroke="#c6c5fe" d="M533.33,-82C533.33,-82 392.67,-82 392.67,-82 388.83,-82 385,-78.17 385,-74.33 385,-74.33 385,-66.67 385,-66.67 385,-62.83 388.83,-59 392.67,-59 392.67,-59 533.33,-59 533.33,-59 537.17,-59 541,-62.83 541,-66.67 541,-66.67 541,-74.33 541,-74.33 541,-78.17 537.17,-82 533.33,-82"/>
<text text-anchor="middle" x="463" y="-66.8" font-family="Arial" font-size="14.00" fill="#c6c5fe">src/utils/function&#45;utils.ts</text>
</g>
<!-- src/scope.ts&#45;&gt;src/utils/function&#45;utils.ts -->
<g id="edge74" class="edge">
<title>src/scope.ts&#45;&gt;src/utils/function&#45;utils.ts</title>
<path fill="none" stroke="#757575" d="M551.36,-471.8C551.36,-405.32 551.36,-78 551.36,-78 551.36,-78 550.34,-78 550.34,-78"/>
<polygon fill="#757575" stroke="#757575" points="551.22,-74.5 541.22,-78 551.22,-81.5 551.22,-74.5"/>
</g>
<!-- src/utils/app&#45;handlers.ts&#45;&gt;src/types/structs.ts -->
<g id="edge83" class="edge">
<title>src/utils/app&#45;handlers.ts&#45;&gt;src/types/structs.ts</title>
<path fill="none" stroke="#757575" d="M1562.51,-477C1628.07,-477 1710.33,-477 1710.33,-477 1710.33,-477 1710.33,-328.22 1710.33,-328.22"/>
<polygon fill="#757575" stroke="#757575" points="1713.83,-328.22 1710.33,-318.22 1706.83,-328.22 1713.83,-328.22"/>
</g>
<!-- src/expressions/unary&#45;operation.ts -->
<g id="node27" class="node">
<title>src/expressions/unary&#45;operation.ts</title>
<path fill="none" stroke="#c6c5fe" d="M2032.83,-259C2032.83,-259 1825.17,-259 1825.17,-259 1821.33,-259 1817.5,-255.17 1817.5,-251.33 1817.5,-251.33 1817.5,-243.67 1817.5,-243.67 1817.5,-239.83 1821.33,-236 1825.17,-236 1825.17,-236 2032.83,-236 2032.83,-236 2036.67,-236 2040.5,-239.83 2040.5,-243.67 2040.5,-243.67 2040.5,-251.33 2040.5,-251.33 2040.5,-255.17 2036.67,-259 2032.83,-259"/>
<text text-anchor="middle" x="1929" y="-243.8" font-family="Arial" font-size="14.00" fill="#c6c5fe">src/expressions/unary&#45;operation.ts</text>
</g>
<!-- src/utils/app&#45;handlers.ts&#45;&gt;src/expressions/unary&#45;operation.ts -->
<g id="edge80" class="edge">
<title>src/utils/app&#45;handlers.ts&#45;&gt;src/expressions/unary&#45;operation.ts</title>
<path fill="none" stroke="#757575" d="M1562.77,-483C1667.03,-483 1836.5,-483 1836.5,-483 1836.5,-483 1836.5,-269.18 1836.5,-269.18"/>
<polygon fill="#757575" stroke="#757575" points="1840,-269.18 1836.5,-259.18 1833,-269.18 1840,-269.18"/>
</g>
<!-- src/utils/app&#45;handlers.ts&#45;&gt;src/functions.ts -->
<g id="edge81" class="edge">
<title>src/utils/app&#45;handlers.ts&#45;&gt;src/functions.ts</title>
<path fill="none" stroke="#757575" d="M1403.02,-485C1282.47,-485 1068.17,-485 1068.17,-485 1068.17,-485 1068.17,-387.4 1068.17,-387.4"/>
<polygon fill="#757575" stroke="#757575" points="1071.67,-387.39 1068.17,-377.4 1064.67,-387.4 1071.67,-387.39"/>
</g>
<!-- src/utils/function&#45;call&#45;params.ts -->
<g id="node32" class="node">
<title>src/utils/function&#45;call&#45;params.ts</title>
<path fill="none" stroke="#c6c5fe" d="M1346.83,-318C1346.83,-318 1159.17,-318 1159.17,-318 1155.33,-318 1151.5,-314.17 1151.5,-310.33 1151.5,-310.33 1151.5,-302.67 1151.5,-302.67 1151.5,-298.83 1155.33,-295 1159.17,-295 1159.17,-295 1346.83,-295 1346.83,-295 1350.67,-295 1354.5,-298.83 1354.5,-302.67 1354.5,-302.67 1354.5,-310.33 1354.5,-310.33 1354.5,-314.17 1350.67,-318 1346.83,-318"/>
<text text-anchor="middle" x="1253" y="-302.8" font-family="Arial" font-size="14.00" fill="#c6c5fe">src/utils/function&#45;call&#45;params.ts</text>
</g>
<!-- src/utils/app&#45;handlers.ts&#45;&gt;src/utils/function&#45;call&#45;params.ts -->
<g id="edge85" class="edge">
<title>src/utils/app&#45;handlers.ts&#45;&gt;src/utils/function&#45;call&#45;params.ts</title>
<path fill="none" stroke="#757575" d="M1403.45,-476C1371.8,-476 1342.75,-476 1342.75,-476 1342.75,-476 1342.75,-328.15 1342.75,-328.15"/>
<polygon fill="#757575" stroke="#757575" points="1346.25,-328.15 1342.75,-318.15 1339.25,-328.15 1346.25,-328.15"/>
</g>
<!-- src/handlers/method&#45;call.ts -->
<g id="node34" class="node">
<title>src/handlers/method&#45;call.ts</title>
<path fill="none" stroke="#c6c5fe" d="M1564.83,-436C1564.83,-436 1401.17,-436 1401.17,-436 1397.33,-436 1393.5,-432.17 1393.5,-428.33 1393.5,-428.33 1393.5,-420.67 1393.5,-420.67 1393.5,-416.83 1397.33,-413 1401.17,-413 1401.17,-413 1564.83,-413 1564.83,-413 1568.67,-413 1572.5,-416.83 1572.5,-420.67 1572.5,-420.67 1572.5,-428.33 1572.5,-428.33 1572.5,-432.17 1568.67,-436 1564.83,-436"/>
<text text-anchor="middle" x="1483" y="-420.8" font-family="Arial" font-size="14.00" fill="#c6c5fe">src/handlers/method&#45;call.ts</text>
</g>
<!-- src/utils/app&#45;handlers.ts&#45;&gt;src/handlers/method&#45;call.ts -->
<g id="edge82" class="edge">
<title>src/utils/app&#45;handlers.ts&#45;&gt;src/handlers/method&#45;call.ts</title>
<path fill="none" stroke="#757575" d="M1483,-471.84C1483,-471.84 1483,-446.13 1483,-446.13"/>
<polygon fill="#757575" stroke="#757575" points="1486.5,-446.13 1483,-436.13 1479.5,-446.13 1486.5,-446.13"/>
</g>
<!-- src/types/type&#45;declarations.ts -->
<g id="node37" class="node">
<title>src/types/type&#45;declarations.ts</title>
<path fill="none" stroke="#c6c5fe" d="M2038.83,-318C2038.83,-318 1863.17,-318 1863.17,-318 1859.33,-318 1855.5,-314.17 1855.5,-310.33 1855.5,-310.33 1855.5,-302.67 1855.5,-302.67 1855.5,-298.83 1859.33,-295 1863.17,-295 1863.17,-295 2038.83,-295 2038.83,-295 2042.67,-295 2046.5,-298.83 2046.5,-302.67 2046.5,-302.67 2046.5,-310.33 2046.5,-310.33 2046.5,-314.17 2042.67,-318 2038.83,-318"/>
<text text-anchor="middle" x="1951" y="-302.8" font-family="Arial" font-size="14.00" fill="#c6c5fe">src/types/type&#45;declarations.ts</text>
</g>
<!-- src/utils/app&#45;handlers.ts&#45;&gt;src/types/type&#45;declarations.ts -->
<g id="edge84" class="edge">
<title>src/utils/app&#45;handlers.ts&#45;&gt;src/types/type&#45;declarations.ts</title>
<path fill="none" stroke="#757575" d="M1562.98,-489C1682.22,-489 1892.75,-489 1892.75,-489 1892.75,-489 1892.75,-328.19 1892.75,-328.19"/>
<polygon fill="#757575" stroke="#757575" points="1896.25,-328.19 1892.75,-318.19 1889.25,-328.19 1896.25,-328.19"/>
</g>
<!-- src/utils/this&#45;keyword.ts&#45;&gt;src/types/structs.ts -->
<g id="edge94" class="edge">
<title>src/utils/this&#45;keyword.ts&#45;&gt;src/types/structs.ts</title>
<path fill="none" stroke="#757575" d="M1259,-412.93C1259,-388.94 1259,-336 1259,-336 1259,-336 1650.33,-336 1650.33,-336 1650.33,-336 1650.33,-328.16 1650.33,-328.16"/>
<polygon fill="#757575" stroke="#757575" points="1653.83,-328.16 1650.33,-318.16 1646.83,-328.16 1653.83,-328.16"/>
</g>
<!-- src/utils/this&#45;keyword.ts&#45;&gt;src/functions.ts -->
<g id="edge93" class="edge">
<title>src/utils/this&#45;keyword.ts&#45;&gt;src/functions.ts</title>
<path fill="none" stroke="#757575" d="M1180.52,-424C1138.52,-424 1095.33,-424 1095.33,-424 1095.33,-424 1095.33,-387.06 1095.33,-387.06"/>
<polygon fill="#757575" stroke="#757575" points="1098.83,-387.06 1095.33,-377.06 1091.83,-387.06 1098.83,-387.06"/>
</g>
<!-- src/declarations.ts -->
<g id="node17" class="node">
<title>src/declarations.ts</title>
<path fill="none" stroke="#c6c5fe" d="M1714.83,-259C1714.83,-259 1605.17,-259 1605.17,-259 1601.33,-259 1597.5,-255.17 1597.5,-251.33 1597.5,-251.33 1597.5,-243.67 1597.5,-243.67 1597.5,-239.83 1601.33,-236 1605.17,-236 1605.17,-236 1714.83,-236 1714.83,-236 1718.67,-236 1722.5,-239.83 1722.5,-243.67 1722.5,-243.67 1722.5,-251.33 1722.5,-251.33 1722.5,-255.17 1718.67,-259 1714.83,-259"/>
<text text-anchor="middle" x="1660" y="-243.8" font-family="Arial" font-size="14.00" fill="#c6c5fe">src/declarations.ts</text>
</g>
<!-- src/declarations.ts&#45;&gt;src/expressions/handlers.ts -->
<g id="edge16" class="edge">
<title>src/declarations.ts&#45;&gt;src/expressions/handlers.ts</title>
<path fill="none" stroke="#757575" d="M1662.75,-235.84C1662.75,-235.84 1662.75,-210.13 1662.75,-210.13"/>
<polygon fill="#757575" stroke="#757575" points="1666.25,-210.13 1662.75,-200.13 1659.25,-210.13 1666.25,-210.13"/>
</g>
<!-- src/expressions/operators.ts&#45;&gt;src/handlers/pointer&#45;operations.ts -->
<g id="edge30" class="edge">
<title>src/expressions/operators.ts&#45;&gt;src/handlers/pointer&#45;operations.ts</title>
<path fill="none" stroke="#757575" d="M2380.1,-353.74C2380.1,-336.4 2380.1,-306 2380.1,-306 2380.1,-306 2330.83,-306 2330.83,-306"/>
<polygon fill="#757575" stroke="#757575" points="2330.83,-302.5 2320.83,-306 2330.83,-309.5 2330.83,-302.5"/>
</g>
<!-- src/expressions/operators.ts&#45;&gt;src/parser.ts -->
<g id="edge31" class="edge">
<title>src/expressions/operators.ts&#45;&gt;src/parser.ts</title>
<path fill="none" stroke="#757575" d="M2561.7,-365C2632.14,-365 2717,-365 2717,-365 2717,-365 2717,-92.04 2717,-92.04"/>
<polygon fill="#757575" stroke="#757575" points="2720.5,-92.04 2717,-82.04 2713.5,-92.04 2720.5,-92.04"/>
</g>
<!-- src/expressions/operators.ts&#45;&gt;src/utils/array.ts -->
<g id="edge34" class="edge">
<title>src/expressions/operators.ts&#45;&gt;src/utils/array.ts</title>
<path fill="none" stroke="#757575" d="M2381.9,-353.91C2381.9,-328.68 2381.9,-271 2381.9,-271 2381.9,-271 1377.33,-271 1377.33,-271 1377.33,-271 1377.33,-92.15 1377.33,-92.15"/>
<polygon fill="#757575" stroke="#757575" points="1380.83,-92.15 1377.33,-82.15 1373.83,-92.15 1380.83,-92.15"/>
</g>
<!-- src/expressions/operators.ts&#45;&gt;src/types/structs.ts -->
<g id="edge33" class="edge">
<title>src/expressions/operators.ts&#45;&gt;src/types/structs.ts</title>
<path fill="none" stroke="#757575" d="M2378.3,-353.81C2378.3,-349.21 2378.3,-345 2378.3,-345 2378.3,-345 1735.67,-345 1735.67,-345 1735.67,-345 1735.67,-328.26 1735.67,-328.26"/>
<polygon fill="#757575" stroke="#757575" points="1739.17,-328.26 1735.67,-318.26 1732.17,-328.26 1739.17,-328.26"/>
</g>
<!-- src/expressions/operator&#45;finder.ts -->
<g id="node24" class="node">
<title>src/expressions/operator&#45;finder.ts</title>
<path fill="none" stroke="#c6c5fe" d="M2623.33,-318C2623.33,-318 2422.67,-318 2422.67,-318 2418.83,-318 2415,-314.17 2415,-310.33 2415,-310.33 2415,-302.67 2415,-302.67 2415,-298.83 2418.83,-295 2422.67,-295 2422.67,-295 2623.33,-295 2623.33,-295 2627.17,-295 2631,-298.83 2631,-302.67 2631,-302.67 2631,-310.33 2631,-310.33 2631,-314.17 2627.17,-318 2623.33,-318"/>
<text text-anchor="middle" x="2523" y="-302.8" font-family="Arial" font-size="14.00" fill="#c6c5fe">src/expressions/operator&#45;finder.ts</text>
</g>
<!-- src/expressions/operators.ts&#45;&gt;src/expressions/operator&#45;finder.ts -->
<g id="edge29" class="edge">
<title>src/expressions/operators.ts&#45;&gt;src/expressions/operator&#45;finder.ts</title>
<path fill="none" stroke="#757575" d="M2488.25,-353.84C2488.25,-353.84 2488.25,-328.13 2488.25,-328.13"/>
<polygon fill="#757575" stroke="#757575" points="2491.75,-328.13 2488.25,-318.13 2484.75,-328.13 2491.75,-328.13"/>
</g>
<!-- src/expressions/operators.ts&#45;&gt;src/type&#45;utils.ts -->
<g id="edge32" class="edge">
<title>src/expressions/operators.ts&#45;&gt;src/type&#45;utils.ts</title>
<path fill="none" stroke="#757575" d="M2383.7,-353.71C2383.7,-292.19 2383.7,-11 2383.7,-11 2383.7,-11 1271.57,-11 1271.57,-11"/>
<polygon fill="#757575" stroke="#757575" points="1271.57,-7.5 1261.57,-11 1271.57,-14.5 1271.57,-7.5"/>
</g>
<!-- src/types/structs.ts&#45;&gt;src/expressions/handlers.ts -->
<g id="edge77" class="edge">
<title>src/types/structs.ts&#45;&gt;src/expressions/handlers.ts</title>
<path fill="none" stroke="#757575" d="M1741.75,-294.75C1741.75,-294.75 1741.75,-210.2 1741.75,-210.2"/>
<polygon fill="#757575" stroke="#757575" points="1745.25,-210.2 1741.75,-200.2 1738.25,-210.2 1745.25,-210.2"/>
</g>
<!-- src/types/structs.ts&#45;&gt;src/declarations.ts -->
<g id="edge76" class="edge">
<title>src/types/structs.ts&#45;&gt;src/declarations.ts</title>
<path fill="none" stroke="#757575" d="M1677.75,-294.84C1677.75,-294.84 1677.75,-269.13 1677.75,-269.13"/>
<polygon fill="#757575" stroke="#757575" points="1681.25,-269.13 1677.75,-259.13 1674.25,-269.13 1681.25,-269.13"/>
</g>
<!-- src/handlers/assignment.ts&#45;&gt;src/utils/array.ts -->
<g id="edge47" class="edge">
<title>src/handlers/assignment.ts&#45;&gt;src/utils/array.ts</title>
<path fill="none" stroke="#757575" d="M1520.74,-129C1456.7,-129 1381.67,-129 1381.67,-129 1381.67,-129 1381.67,-92.06 1381.67,-92.06"/>
<polygon fill="#757575" stroke="#757575" points="1385.17,-92.06 1381.67,-82.06 1378.17,-92.06 1385.17,-92.06"/>
</g>
<!-- src/handlers/assignment.ts&#45;&gt;src/types/interpreter.ts -->
<g id="edge46" class="edge">
<title>src/handlers/assignment.ts&#45;&gt;src/types/interpreter.ts</title>
<path fill="none" stroke="#757575" d="M1646.75,-117.84C1646.75,-117.84 1646.75,-92.13 1646.75,-92.13"/>
<polygon fill="#757575" stroke="#757575" points="1650.25,-92.13 1646.75,-82.13 1643.25,-92.13 1650.25,-92.13"/>
</g>
<!-- src/utils/scope&#45;helpers.ts&#45;&gt;src/parser.ts -->
<g id="edge89" class="edge">
<title>src/utils/scope&#45;helpers.ts&#45;&gt;src/parser.ts</title>
<path fill="none" stroke="#757575" d="M1335,-117.84C1335,-109.6 1335,-100 1335,-100 1335,-100 2702,-100 2702,-100 2702,-100 2702,-92.16 2702,-92.16"/>
<polygon fill="#757575" stroke="#757575" points="2705.5,-92.16 2702,-82.16 2698.5,-92.16 2705.5,-92.16"/>
</g>
<!-- src/utils/scope&#45;helpers.ts&#45;&gt;src/utils/array.ts -->
<g id="edge91" class="edge">
<title>src/utils/scope&#45;helpers.ts&#45;&gt;src/utils/array.ts</title>
<path fill="none" stroke="#757575" d="M1305.5,-117.84C1305.5,-117.84 1305.5,-92.13 1305.5,-92.13"/>
<polygon fill="#757575" stroke="#757575" points="1309,-92.13 1305.5,-82.13 1302,-92.13 1309,-92.13"/>
</g>
<!-- src/utils/scope&#45;helpers.ts&#45;&gt;src/type&#45;utils.ts -->
<g id="edge90" class="edge">
<title>src/utils/scope&#45;helpers.ts&#45;&gt;src/type&#45;utils.ts</title>
<path fill="none" stroke="#757575" d="M1240.83,-117.75C1240.83,-117.75 1240.83,-33.2 1240.83,-33.2"/>
<polygon fill="#757575" stroke="#757575" points="1244.33,-33.2 1240.83,-23.2 1237.33,-33.2 1244.33,-33.2"/>
</g>
<!-- src/utils/scope&#45;helpers.ts&#45;&gt;src/utils/function&#45;utils.ts -->
<g id="edge92" class="edge">
<title>src/utils/scope&#45;helpers.ts&#45;&gt;src/utils/function&#45;utils.ts</title>
<path fill="none" stroke="#757575" d="M1220.17,-117.74C1220.17,-100.4 1220.17,-70 1220.17,-70 1220.17,-70 551.18,-70 551.18,-70"/>
<polygon fill="#757575" stroke="#757575" points="551.18,-66.5 541.18,-70 551.18,-73.5 551.18,-66.5"/>
</g>
<!-- src/expressions/operator&#45;utils.ts -->
<g id="node25" class="node">
<title>src/expressions/operator&#45;utils.ts</title>
<path fill="none" stroke="#cfffac" d="M2584.83,-259C2584.83,-259 2393.17,-259 2393.17,-259 2389.33,-259 2385.5,-255.17 2385.5,-251.33 2385.5,-251.33 2385.5,-243.67 2385.5,-243.67 2385.5,-239.83 2389.33,-236 2393.17,-236 2393.17,-236 2584.83,-236 2584.83,-236 2588.67,-236 2592.5,-239.83 2592.5,-243.67 2592.5,-243.67 2592.5,-251.33 2592.5,-251.33 2592.5,-255.17 2588.67,-259 2584.83,-259"/>
<text text-anchor="middle" x="2489" y="-243.8" font-family="Arial" font-size="14.00" fill="#cfffac">src/expressions/operator&#45;utils.ts</text>
</g>
<!-- src/expressions/operator&#45;finder.ts&#45;&gt;src/expressions/operator&#45;utils.ts -->
<g id="edge28" class="edge">
<title>src/expressions/operator&#45;finder.ts&#45;&gt;src/expressions/operator&#45;utils.ts</title>
<path fill="none" stroke="#757575" d="M2503.75,-294.84C2503.75,-294.84 2503.75,-269.13 2503.75,-269.13"/>
<polygon fill="#757575" stroke="#757575" points="2507.25,-269.13 2503.75,-259.13 2500.25,-269.13 2507.25,-269.13"/>
</g>
<!-- src/expressions/unary&#45;operation.ts&#45;&gt;src/expressions/handlers.ts -->
<g id="edge35" class="edge">
<title>src/expressions/unary&#45;operation.ts&#45;&gt;src/expressions/handlers.ts</title>
<path fill="none" stroke="#757575" d="M1817.49,-243C1795.64,-243 1779.33,-243 1779.33,-243 1779.33,-243 1779.33,-210.06 1779.33,-210.06"/>
<polygon fill="#757575" stroke="#757575" points="1782.83,-210.06 1779.33,-200.06 1775.83,-210.06 1782.83,-210.06"/>
</g>
<!-- src/function&#45;type&#45;handler.ts&#45;&gt;src/type&#45;utils.ts -->
<g id="edge37" class="edge">
<title>src/function&#45;type&#45;handler.ts&#45;&gt;src/type&#45;utils.ts</title>
<path fill="none" stroke="#757575" d="M613.26,-424C601.14,-424 592.79,-424 592.79,-424 592.79,-424 592.79,-5 592.79,-5 592.79,-5 1144.48,-5 1144.48,-5"/>
<polygon fill="#757575" stroke="#757575" points="1144.48,-8.5 1154.48,-5 1144.48,-1.5 1144.48,-8.5"/>
</g>
<!-- src/function&#45;type&#45;handler.ts&#45;&gt;src/functions.ts -->
<g id="edge36" class="edge">
<title>src/function&#45;type&#45;handler.ts&#45;&gt;src/functions.ts</title>
<path fill="none" stroke="#757575" d="M703,-412.85C703,-397.38 703,-372 703,-372 703,-372 1005.39,-372 1005.39,-372"/>
<polygon fill="#757575" stroke="#757575" points="1005.39,-375.5 1015.39,-372 1005.39,-368.5 1005.39,-375.5"/>
</g>
<!-- src/functions.ts&#45;&gt;src/utils/identifier&#45;utils.ts -->
<g id="edge42" class="edge">
<title>src/functions.ts&#45;&gt;src/utils/identifier&#45;utils.ts</title>
<path fill="none" stroke="#757575" d="M1108.75,-353.88C1108.75,-325.14 1108.75,-253 1108.75,-253 1108.75,-253 1163.73,-253 1163.73,-253"/>
<polygon fill="#757575" stroke="#757575" points="1163.73,-256.5 1173.73,-253 1163.73,-249.5 1163.73,-256.5"/>
</g>
<!-- src/functions.ts&#45;&gt;src/handlers/anonymous&#45;functions.ts -->
<g id="edge38" class="edge">
<title>src/functions.ts&#45;&gt;src/handlers/anonymous&#45;functions.ts</title>
<path fill="none" stroke="#757575" d="M1015.27,-358C946.83,-358 837.33,-358 837.33,-358 837.33,-358 837.33,-328.19 837.33,-328.19"/>
<polygon fill="#757575" stroke="#757575" points="840.83,-328.19 837.33,-318.19 833.83,-328.19 840.83,-328.19"/>
</g>
<!-- src/handlers/function&#45;declaration.ts -->
<g id="node31" class="node">
<title>src/handlers/function&#45;declaration.ts</title>
<path fill="none" stroke="#c6c5fe" d="M1087.33,-318C1087.33,-318 876.67,-318 876.67,-318 872.83,-318 869,-314.17 869,-310.33 869,-310.33 869,-302.67 869,-302.67 869,-298.83 872.83,-295 876.67,-295 876.67,-295 1087.33,-295 1087.33,-295 1091.17,-295 1095,-298.83 1095,-302.67 1095,-302.67 1095,-310.33 1095,-310.33 1095,-314.17 1091.17,-318 1087.33,-318"/>
<text text-anchor="middle" x="982" y="-302.8" font-family="Arial" font-size="14.00" fill="#c6c5fe">src/handlers/function&#45;declaration.ts</text>
</g>
<!-- src/functions.ts&#45;&gt;src/handlers/function&#45;declaration.ts -->
<g id="edge39" class="edge">
<title>src/functions.ts&#45;&gt;src/handlers/function&#45;declaration.ts</title>
<path fill="none" stroke="#757575" d="M1042,-353.84C1042,-353.84 1042,-328.13 1042,-328.13"/>
<polygon fill="#757575" stroke="#757575" points="1045.5,-328.13 1042,-318.13 1038.5,-328.13 1045.5,-328.13"/>
</g>
<!-- src/functions.ts&#45;&gt;src/utils/function&#45;call&#45;params.ts -->
<g id="edge40" class="edge">
<title>src/functions.ts&#45;&gt;src/utils/function&#45;call&#45;params.ts</title>
<path fill="none" stroke="#757575" d="M1122.52,-359C1141.16,-359 1157.5,-359 1157.5,-359 1157.5,-359 1157.5,-328.15 1157.5,-328.15"/>
<polygon fill="#757575" stroke="#757575" points="1161,-328.15 1157.5,-318.15 1154,-328.15 1161,-328.15"/>
</g>
<!-- src/functions.ts&#45;&gt;src/utils/function&#45;utils.ts -->
<g id="edge41" class="edge">
<title>src/functions.ts&#45;&gt;src/utils/function&#45;utils.ts</title>
<path fill="none" stroke="#757575" d="M1015.41,-363C864.99,-363 449.83,-363 449.83,-363 449.83,-363 449.83,-92.33 449.83,-92.33"/>
<polygon fill="#757575" stroke="#757575" points="453.33,-92.33 449.83,-82.33 446.33,-92.33 453.33,-92.33"/>
</g>
<!-- src/handlers/anonymous&#45;functions.ts&#45;&gt;src/utils/identifier&#45;utils.ts -->
<g id="edge45" class="edge">
<title>src/handlers/anonymous&#45;functions.ts&#45;&gt;src/utils/identifier&#45;utils.ts</title>
<path fill="none" stroke="#757575" d="M771.5,-294.79C771.5,-275.95 771.5,-241 771.5,-241 771.5,-241 1163.78,-241 1163.78,-241"/>
<polygon fill="#757575" stroke="#757575" points="1163.78,-244.5 1173.78,-241 1163.78,-237.5 1163.78,-244.5"/>
</g>
<!-- src/handlers/anonymous&#45;functions.ts&#45;&gt;src/type&#45;utils.ts -->
<g id="edge43" class="edge">
<title>src/handlers/anonymous&#45;functions.ts&#45;&gt;src/type&#45;utils.ts</title>
<path fill="none" stroke="#757575" d="M692.5,-294.92C692.5,-240.28 692.5,-11 692.5,-11 692.5,-11 1144.29,-11 1144.29,-11"/>
<polygon fill="#757575" stroke="#757575" points="1144.29,-14.5 1154.29,-11 1144.29,-7.5 1144.29,-14.5"/>
</g>
<!-- src/handlers/anonymous&#45;functions.ts&#45;&gt;src/utils/function&#45;utils.ts -->
<g id="edge44" class="edge">
<title>src/handlers/anonymous&#45;functions.ts&#45;&gt;src/utils/function&#45;utils.ts</title>
<path fill="none" stroke="#757575" d="M613.24,-306C554.14,-306 495.17,-306 495.17,-306 495.17,-306 495.17,-92.18 495.17,-92.18"/>
<polygon fill="#757575" stroke="#757575" points="498.67,-92.18 495.17,-82.18 491.67,-92.18 498.67,-92.18"/>
</g>
<!-- src/handlers/function&#45;declaration.ts&#45;&gt;src/declarations.ts -->
<g id="edge50" class="edge">
<title>src/handlers/function&#45;declaration.ts&#45;&gt;src/declarations.ts</title>
<path fill="none" stroke="#757575" d="M1068.5,-318.19C1068.5,-322.79 1068.5,-327 1068.5,-327 1068.5,-327 1615.25,-327 1615.25,-327 1615.25,-327 1615.25,-269.23 1615.25,-269.23"/>
<polygon fill="#757575" stroke="#757575" points="1618.75,-269.23 1615.25,-259.23 1611.75,-269.23 1618.75,-269.23"/>
</g>
<!-- src/handlers/function&#45;declaration.ts&#45;&gt;src/utils/identifier&#45;utils.ts -->
<g id="edge53" class="edge">
<title>src/handlers/function&#45;declaration.ts&#45;&gt;src/utils/identifier&#45;utils.ts</title>
<path fill="none" stroke="#757575" d="M1038.5,-294.74C1038.5,-277.4 1038.5,-247 1038.5,-247 1038.5,-247 1163.76,-247 1163.76,-247"/>
<polygon fill="#757575" stroke="#757575" points="1163.76,-250.5 1173.76,-247 1163.76,-243.5 1163.76,-250.5"/>
</g>
<!-- src/handlers/function&#45;declaration.ts&#45;&gt;src/type&#45;utils.ts -->
<g id="edge51" class="edge">
<title>src/handlers/function&#45;declaration.ts&#45;&gt;src/type&#45;utils.ts</title>
<path fill="none" stroke="#757575" d="M982,-294.79C982,-240.63 982,-17 982,-17 982,-17 1144.44,-17 1144.44,-17"/>
<polygon fill="#757575" stroke="#757575" points="1144.44,-20.5 1154.44,-17 1144.44,-13.5 1144.44,-20.5"/>
</g>
<!-- src/handlers/function&#45;declaration.ts&#45;&gt;src/utils/function&#45;utils.ts -->
<g id="edge52" class="edge">
<title>src/handlers/function&#45;declaration.ts&#45;&gt;src/utils/function&#45;utils.ts</title>
<path fill="none" stroke="#757575" d="M925.5,-294.97C925.5,-248.06 925.5,-74 925.5,-74 925.5,-74 551.2,-74 551.2,-74"/>
<polygon fill="#757575" stroke="#757575" points="551.2,-70.5 541.2,-74 551.2,-77.5 551.2,-70.5"/>
</g>
<!-- src/utils/function&#45;call&#45;params.ts&#45;&gt;src/expressions/handlers.ts -->
<g id="edge86" class="edge">
<title>src/utils/function&#45;call&#45;params.ts&#45;&gt;src/expressions/handlers.ts</title>
<path fill="none" stroke="#757575" d="M1344.25,-294.68C1344.25,-265.42 1344.25,-192 1344.25,-192 1344.25,-192 1592.73,-192 1592.73,-192"/>
<polygon fill="#757575" stroke="#757575" points="1592.73,-195.5 1602.73,-192 1592.73,-188.5 1592.73,-195.5"/>
</g>
<!-- src/utils/function&#45;utils.ts&#45;&gt;src/type&#45;utils.ts -->
<g id="edge87" class="edge">
<title>src/utils/function&#45;utils.ts&#45;&gt;src/type&#45;utils.ts</title>
<path fill="none" stroke="#757575" d="M541.06,-62C723.85,-62 1164.25,-62 1164.25,-62 1164.25,-62 1164.25,-33.21 1164.25,-33.21"/>
<polygon fill="#757575" stroke="#757575" points="1167.75,-33.21 1164.25,-23.21 1160.75,-33.21 1167.75,-33.21"/>
</g>
<!-- src/handlers/method&#45;call.ts&#45;&gt;src/expressions/handlers.ts -->
<g id="edge56" class="edge">
<title>src/handlers/method&#45;call.ts&#45;&gt;src/expressions/handlers.ts</title>
<path fill="none" stroke="#757575" d="M1572.51,-420C1654.98,-420 1764.67,-420 1764.67,-420 1764.67,-420 1764.67,-210.3 1764.67,-210.3"/>
<polygon fill="#757575" stroke="#757575" points="1768.17,-210.3 1764.67,-200.3 1761.17,-210.3 1768.17,-210.3"/>
</g>
<!-- src/handlers/method&#45;call.ts&#45;&gt;src/utils/identifier&#45;utils.ts -->
<g id="edge58" class="edge">
<title>src/handlers/method&#45;call.ts&#45;&gt;src/utils/identifier&#45;utils.ts</title>
<path fill="none" stroke="#757575" d="M1393.26,-424C1378.95,-424 1368.75,-424 1368.75,-424 1368.75,-424 1368.75,-251 1368.75,-251 1368.75,-251 1344.01,-251 1344.01,-251"/>
<polygon fill="#757575" stroke="#757575" points="1344.01,-247.5 1334.01,-251 1344.01,-254.5 1344.01,-247.5"/>
</g>
<!-- src/handlers/method&#45;call.ts&#45;&gt;src/functions.ts -->
<g id="edge57" class="edge">
<title>src/handlers/method&#45;call.ts&#45;&gt;src/functions.ts</title>
<path fill="none" stroke="#757575" d="M1412.25,-412.89C1412.25,-397.16 1412.25,-371 1412.25,-371 1412.25,-371 1132.63,-371 1132.63,-371"/>
<polygon fill="#757575" stroke="#757575" points="1132.63,-367.5 1122.63,-371 1132.63,-374.5 1132.63,-367.5"/>
</g>
<!-- src/loops/types.ts&#45;&gt;src/expressions/handlers.ts -->
<g id="edge63" class="edge">
<title>src/loops/types.ts&#45;&gt;src/expressions/handlers.ts</title>
<path fill="none" stroke="#757575" d="M193,-412.9C193,-364.86 193,-184 193,-184 193,-184 1592.83,-184 1592.83,-184"/>
<polygon fill="#757575" stroke="#757575" points="1592.83,-187.5 1602.83,-184 1592.83,-180.5 1592.83,-187.5"/>
</g>
<!-- src/types/type&#45;declarations.ts&#45;&gt;src/declarations.ts -->
<g id="edge78" class="edge">
<title>src/types/type&#45;declarations.ts&#45;&gt;src/declarations.ts</title>
<path fill="none" stroke="#757575" d="M1855.46,-310C1822.87,-310 1794.5,-310 1794.5,-310 1794.5,-310 1794.5,-251 1794.5,-251 1794.5,-251 1732.52,-251 1732.52,-251"/>
<polygon fill="#757575" stroke="#757575" points="1732.52,-247.5 1722.52,-251 1732.52,-254.5 1732.52,-247.5"/>
</g>
<!-- src/types/type&#45;declarations.ts&#45;&gt;src/type&#45;utils.ts -->
<g id="edge79" class="edge">
<title>src/types/type&#45;declarations.ts&#45;&gt;src/type&#45;utils.ts</title>
<path fill="none" stroke="#757575" d="M1855.5,-302C1828.35,-302 1806,-302 1806,-302 1806,-302 1806,-17 1806,-17 1806,-17 1271.59,-17 1271.59,-17"/>
<polygon fill="#757575" stroke="#757575" points="1271.59,-13.5 1261.59,-17 1271.59,-20.5 1271.59,-13.5"/>
</g>
<!-- src/utils/interpret.ts -->
<g id="node38" class="node">
<title>src/utils/interpret.ts</title>
<path fill="none" stroke="#c6c5fe" d="M1316.33,-613C1316.33,-613 1201.67,-613 1201.67,-613 1197.83,-613 1194,-609.17 1194,-605.33 1194,-605.33 1194,-597.67 1194,-597.67 1194,-593.83 1197.83,-590 1201.67,-590 1201.67,-590 1316.33,-590 1316.33,-590 1320.17,-590 1324,-593.83 1324,-597.67 1324,-597.67 1324,-605.33 1324,-605.33 1324,-609.17 1320.17,-613 1316.33,-613"/>
<text text-anchor="middle" x="1259" y="-597.8" font-family="Arial" font-size="14.00" fill="#c6c5fe">src/utils/interpret.ts</text>
</g>
<!-- src/utils/interpret.ts&#45;&gt;src/app.ts -->
<g id="edge88" class="edge">
<title>src/utils/interpret.ts&#45;&gt;src/app.ts</title>
<path fill="none" stroke="#757575" d="M1259,-589.84C1259,-589.84 1259,-564.13 1259,-564.13"/>
<polygon fill="#757575" stroke="#757575" points="1262.5,-564.13 1259,-554.13 1255.5,-564.13 1262.5,-564.13"/>
</g>
<!-- tests/arithmetic.test.ts -->
<g id="node39" class="node">
<title>tests/arithmetic.test.ts</title>
<path fill="none" stroke="#c6c5fe" d="M986.33,-672C986.33,-672 853.67,-672 853.67,-672 849.83,-672 846,-668.17 846,-664.33 846,-664.33 846,-656.67 846,-656.67 846,-652.83 849.83,-649 853.67,-649 853.67,-649 986.33,-649 986.33,-649 990.17,-649 994,-652.83 994,-656.67 994,-656.67 994,-664.33 994,-664.33 994,-668.17 990.17,-672 986.33,-672"/>
<text text-anchor="middle" x="920" y="-656.8" font-family="Arial" font-size="14.00" fill="#c6c5fe">tests/arithmetic.test.ts</text>
</g>
<!-- tests/arithmetic.test.ts&#45;&gt;src/utils/interpret.ts -->
<g id="edge95" class="edge">
<title>tests/arithmetic.test.ts&#45;&gt;src/utils/interpret.ts</title>
<path fill="none" stroke="#757575" d="M920,-648.85C920,-630.52 920,-597 920,-597 920,-597 1183.64,-597 1183.64,-597"/>
<polygon fill="#757575" stroke="#757575" points="1183.64,-600.5 1193.64,-597 1183.64,-593.5 1183.64,-600.5"/>
</g>
<!-- tests/control&#45;flow.test.ts -->
<g id="node40" class="node">
<title>tests/control&#45;flow.test.ts</title>
<path fill="none" stroke="#c6c5fe" d="M1161.83,-672C1161.83,-672 1020.17,-672 1020.17,-672 1016.33,-672 1012.5,-668.17 1012.5,-664.33 1012.5,-664.33 1012.5,-656.67 1012.5,-656.67 1012.5,-652.83 1016.33,-649 1020.17,-649 1020.17,-649 1161.83,-649 1161.83,-649 1165.67,-649 1169.5,-652.83 1169.5,-656.67 1169.5,-656.67 1169.5,-664.33 1169.5,-664.33 1169.5,-668.17 1165.67,-672 1161.83,-672"/>
<text text-anchor="middle" x="1091" y="-656.8" font-family="Arial" font-size="14.00" fill="#c6c5fe">tests/control&#45;flow.test.ts</text>
</g>
<!-- tests/control&#45;flow.test.ts&#45;&gt;src/utils/interpret.ts -->
<g id="edge96" class="edge">
<title>tests/control&#45;flow.test.ts&#45;&gt;src/utils/interpret.ts</title>
<path fill="none" stroke="#757575" d="M1163.5,-648.73C1163.5,-632.44 1163.5,-605 1163.5,-605 1163.5,-605 1183.98,-605 1183.98,-605"/>
<polygon fill="#757575" stroke="#757575" points="1183.98,-608.5 1193.98,-605 1183.98,-601.5 1183.98,-608.5"/>
</g>
<!-- tests/functions.test.ts -->
<g id="node41" class="node">
<title>tests/functions.test.ts</title>
<path fill="none" stroke="#c6c5fe" d="M1322.83,-672C1322.83,-672 1195.17,-672 1195.17,-672 1191.33,-672 1187.5,-668.17 1187.5,-664.33 1187.5,-664.33 1187.5,-656.67 1187.5,-656.67 1187.5,-652.83 1191.33,-649 1195.17,-649 1195.17,-649 1322.83,-649 1322.83,-649 1326.67,-649 1330.5,-652.83 1330.5,-656.67 1330.5,-656.67 1330.5,-664.33 1330.5,-664.33 1330.5,-668.17 1326.67,-672 1322.83,-672"/>
<text text-anchor="middle" x="1259" y="-656.8" font-family="Arial" font-size="14.00" fill="#c6c5fe">tests/functions.test.ts</text>
</g>
<!-- tests/functions.test.ts&#45;&gt;src/utils/interpret.ts -->
<g id="edge97" class="edge">
<title>tests/functions.test.ts&#45;&gt;src/utils/interpret.ts</title>
<path fill="none" stroke="#757575" d="M1259,-648.84C1259,-648.84 1259,-623.13 1259,-623.13"/>
<polygon fill="#757575" stroke="#757575" points="1262.5,-623.13 1259,-613.13 1255.5,-623.13 1262.5,-623.13"/>
</g>
<!-- tests/types.test.ts -->
<g id="node42" class="node">
<title>tests/types.test.ts</title>
<path fill="none" stroke="#c6c5fe" d="M1461.83,-672C1461.83,-672 1356.17,-672 1356.17,-672 1352.33,-672 1348.5,-668.17 1348.5,-664.33 1348.5,-664.33 1348.5,-656.67 1348.5,-656.67 1348.5,-652.83 1352.33,-649 1356.17,-649 1356.17,-649 1461.83,-649 1461.83,-649 1465.67,-649 1469.5,-652.83 1469.5,-656.67 1469.5,-656.67 1469.5,-664.33 1469.5,-664.33 1469.5,-668.17 1465.67,-672 1461.83,-672"/>
<text text-anchor="middle" x="1409" y="-656.8" font-family="Arial" font-size="14.00" fill="#c6c5fe">tests/types.test.ts</text>
</g>
<!-- tests/types.test.ts&#45;&gt;src/utils/interpret.ts -->
<g id="edge98" class="edge">
<title>tests/types.test.ts&#45;&gt;src/utils/interpret.ts</title>
<path fill="none" stroke="#757575" d="M1361.17,-648.73C1361.17,-632.44 1361.17,-605 1361.17,-605 1361.17,-605 1334.28,-605 1334.28,-605"/>
<polygon fill="#757575" stroke="#757575" points="1334.28,-601.5 1324.28,-605 1334.28,-608.5 1334.28,-601.5"/>
</g>
<!-- tests/variables.test.ts -->
<g id="node43" class="node">
<title>tests/variables.test.ts</title>
<path fill="none" stroke="#c6c5fe" d="M1622.83,-672C1622.83,-672 1495.17,-672 1495.17,-672 1491.33,-672 1487.5,-668.17 1487.5,-664.33 1487.5,-664.33 1487.5,-656.67 1487.5,-656.67 1487.5,-652.83 1491.33,-649 1495.17,-649 1495.17,-649 1622.83,-649 1622.83,-649 1626.67,-649 1630.5,-652.83 1630.5,-656.67 1630.5,-656.67 1630.5,-664.33 1630.5,-664.33 1630.5,-668.17 1626.67,-672 1622.83,-672"/>
<text text-anchor="middle" x="1559" y="-656.8" font-family="Arial" font-size="14.00" fill="#c6c5fe">tests/variables.test.ts</text>
</g>
<!-- tests/variables.test.ts&#45;&gt;src/utils/interpret.ts -->
<g id="edge99" class="edge">
<title>tests/variables.test.ts&#45;&gt;src/utils/interpret.ts</title>
<path fill="none" stroke="#757575" d="M1525,-648.85C1525,-630.52 1525,-597 1525,-597 1525,-597 1334.07,-597 1334.07,-597"/>
<polygon fill="#757575" stroke="#757575" points="1334.07,-593.5 1324.07,-597 1334.07,-600.5 1334.07,-593.5"/>
</g>
</g>
</svg>
