<?xml version="1.0" encoding="UTF-8" standalone="no"?>
<!DOCTYPE svg PUBLIC "-//W3C//DTD SVG 1.1//EN"
 "http://www.w3.org/Graphics/SVG/1.1/DTD/svg11.dtd">
<!-- Generated by graphviz version 2.43.0 (0)
 -->
<!-- Title: G Pages: 1 -->
<svg width="129pt" height="172pt"
 viewBox="0.00 0.00 128.70 172.20" xmlns="http://www.w3.org/2000/svg" xmlns:xlink="http://www.w3.org/1999/xlink">
<g id="graph0" class="graph" transform="scale(1 1) rotate(0) translate(21.6 150.6)">
<title>G</title>
<polygon fill="#111111" stroke="transparent" points="-21.6,21.6 -21.6,-150.6 107.1,-150.6 107.1,21.6 -21.6,21.6"/>
<!-- intepret.ts -->
<g id="node1" class="node">
<title>intepret.ts</title>
<path fill="none" stroke="#c6c5fe" d="M79.17,-129C79.17,-129 31.83,-129 31.83,-129 28.67,-129 25.5,-125.83 25.5,-122.67 25.5,-122.67 25.5,-116.33 25.5,-116.33 25.5,-113.17 28.67,-110 31.83,-110 31.83,-110 79.17,-110 79.17,-110 82.33,-110 85.5,-113.17 85.5,-116.33 85.5,-116.33 85.5,-122.67 85.5,-122.67 85.5,-125.83 82.33,-129 79.17,-129"/>
<text text-anchor="middle" x="55.5" y="-117" font-family="Arial" font-size="10.00" fill="#c6c5fe">intepret.ts</text>
</g>
<!-- parser.ts -->
<g id="node2" class="node">
<title>parser.ts</title>
<path fill="none" stroke="#c6c5fe" d="M48.67,-74C48.67,-74 6.33,-74 6.33,-74 3.17,-74 0,-70.83 0,-67.67 0,-67.67 0,-61.33 0,-61.33 0,-58.17 3.17,-55 6.33,-55 6.33,-55 48.67,-55 48.67,-55 51.83,-55 55,-58.17 55,-61.33 55,-61.33 55,-67.67 55,-67.67 55,-70.83 51.83,-74 48.67,-74"/>
<text text-anchor="middle" x="27.5" y="-62" font-family="Arial" font-size="10.00" fill="#c6c5fe">parser.ts</text>
</g>
<!-- intepret.ts&#45;&gt;parser.ts -->
<g id="edge1" class="edge">
<title>intepret.ts&#45;&gt;parser.ts</title>
<path fill="none" stroke="#757575" d="M40.25,-109.92C40.25,-109.92 40.25,-84.34 40.25,-84.34"/>
<polygon fill="#757575" stroke="#757575" points="43.75,-84.34 40.25,-74.34 36.75,-84.34 43.75,-84.34"/>
</g>
<!-- result.ts -->
<g id="node3" class="node">
<title>result.ts</title>
<path fill="none" stroke="#cfffac" d="M76.17,-19C76.17,-19 34.83,-19 34.83,-19 31.67,-19 28.5,-15.83 28.5,-12.67 28.5,-12.67 28.5,-6.33 28.5,-6.33 28.5,-3.17 31.67,0 34.83,0 34.83,0 76.17,0 76.17,0 79.33,0 82.5,-3.17 82.5,-6.33 82.5,-6.33 82.5,-12.67 82.5,-12.67 82.5,-15.83 79.33,-19 76.17,-19"/>
<text text-anchor="middle" x="55.5" y="-7" font-family="Arial" font-size="10.00" fill="#cfffac">result.ts</text>
</g>
<!-- intepret.ts&#45;&gt;result.ts -->
<g id="edge2" class="edge">
<title>intepret.ts&#45;&gt;result.ts</title>
<path fill="none" stroke="#757575" d="M68.75,-109.74C68.75,-109.74 68.75,-29.08 68.75,-29.08"/>
<polygon fill="#757575" stroke="#757575" points="72.25,-29.08 68.75,-19.08 65.25,-29.08 72.25,-29.08"/>
</g>
<!-- parser.ts&#45;&gt;result.ts -->
<g id="edge3" class="edge">
<title>parser.ts&#45;&gt;result.ts</title>
<path fill="none" stroke="#757575" d="M41.75,-54.92C41.75,-54.92 41.75,-29.34 41.75,-29.34"/>
<polygon fill="#757575" stroke="#757575" points="45.25,-29.34 41.75,-19.34 38.25,-29.34 45.25,-29.34"/>
</g>
</g>
</svg>
