<?xml version="1.0" encoding="UTF-8" standalone="no"?>
<!DOCTYPE svg PUBLIC "-//W3C//DTD SVG 1.1//EN"
 "http://www.w3.org/Graphics/SVG/1.1/DTD/svg11.dtd">
<!-- Generated by graphviz version 2.43.0 (0)
 -->
<!-- Title: G Pages: 1 -->
<svg width="2095pt" height="447pt"
 viewBox="0.00 0.00 2095.20 447.20" xmlns="http://www.w3.org/2000/svg" xmlns:xlink="http://www.w3.org/1999/xlink">
<g id="graph0" class="graph" transform="scale(1 1) rotate(0) translate(21.6 425.6)">
<title>G</title>
<polygon fill="#111111" stroke="transparent" points="-21.6,21.6 -21.6,-425.6 2073.6,-425.6 2073.6,21.6 -21.6,21.6"/>
<!-- app.ts -->
<g id="node1" class="node">
<title>app.ts</title>
<path fill="none" stroke="#c6c5fe" d="M819.17,-404C819.17,-404 777.83,-404 777.83,-404 774.67,-404 771.5,-400.83 771.5,-397.67 771.5,-397.67 771.5,-391.33 771.5,-391.33 771.5,-388.17 774.67,-385 777.83,-385 777.83,-385 819.17,-385 819.17,-385 822.33,-385 825.5,-388.17 825.5,-391.33 825.5,-391.33 825.5,-397.67 825.5,-397.67 825.5,-400.83 822.33,-404 819.17,-404"/>
<text text-anchor="middle" x="798.5" y="-392" font-family="Arial" font-size="10.00" fill="#c6c5fe">app.ts</text>
</g>
<!-- compilation/compilation&#45;strategies.ts -->
<g id="node2" class="node">
<title>compilation/compilation&#45;strategies.ts</title>
<path fill="none" stroke="#c6c5fe" d="M1627.17,-349C1627.17,-349 1463.83,-349 1463.83,-349 1460.67,-349 1457.5,-345.83 1457.5,-342.67 1457.5,-342.67 1457.5,-336.33 1457.5,-336.33 1457.5,-333.17 1460.67,-330 1463.83,-330 1463.83,-330 1627.17,-330 1627.17,-330 1630.33,-330 1633.5,-333.17 1633.5,-336.33 1633.5,-336.33 1633.5,-342.67 1633.5,-342.67 1633.5,-345.83 1630.33,-349 1627.17,-349"/>
<text text-anchor="middle" x="1545.5" y="-337" font-family="Arial" font-size="10.00" fill="#c6c5fe">compilation/compilation&#45;strategies.ts</text>
</g>
<!-- app.ts&#45;&gt;compilation/compilation&#45;strategies.ts -->
<g id="edge1" class="edge">
<title>app.ts&#45;&gt;compilation/compilation&#45;strategies.ts</title>
<path fill="none" stroke="#757575" d="M807.5,-384.69C807.5,-370.51 807.5,-346 807.5,-346 807.5,-346 1447.21,-346 1447.21,-346"/>
<polygon fill="#757575" stroke="#757575" points="1447.21,-349.5 1457.21,-346 1447.21,-342.5 1447.21,-349.5"/>
</g>
<!-- compilation/function&#45;compilation.ts -->
<g id="node3" class="node">
<title>compilation/function&#45;compilation.ts</title>
<path fill="none" stroke="#c6c5fe" d="M543.67,-239C543.67,-239 389.33,-239 389.33,-239 386.17,-239 383,-235.83 383,-232.67 383,-232.67 383,-226.33 383,-226.33 383,-223.17 386.17,-220 389.33,-220 389.33,-220 543.67,-220 543.67,-220 546.83,-220 550,-223.17 550,-226.33 550,-226.33 550,-232.67 550,-232.67 550,-235.83 546.83,-239 543.67,-239"/>
<text text-anchor="middle" x="466.5" y="-227" font-family="Arial" font-size="10.00" fill="#c6c5fe">compilation/function&#45;compilation.ts</text>
</g>
<!-- app.ts&#45;&gt;compilation/function&#45;compilation.ts -->
<g id="edge2" class="edge">
<title>app.ts&#45;&gt;compilation/function&#45;compilation.ts</title>
<path fill="none" stroke="#757575" d="M771.33,-393C692.04,-393 466.5,-393 466.5,-393 466.5,-393 466.5,-249.24 466.5,-249.24"/>
<polygon fill="#757575" stroke="#757575" points="470,-249.24 466.5,-239.24 463,-249.24 470,-249.24"/>
</g>
<!-- core/vm.ts -->
<g id="node4" class="node">
<title>core/vm.ts</title>
<path fill="none" stroke="#cfffac" d="M1682.67,-19C1682.67,-19 1632.33,-19 1632.33,-19 1629.17,-19 1626,-15.83 1626,-12.67 1626,-12.67 1626,-6.33 1626,-6.33 1626,-3.17 1629.17,0 1632.33,0 1632.33,0 1682.67,0 1682.67,0 1685.83,0 1689,-3.17 1689,-6.33 1689,-6.33 1689,-12.67 1689,-12.67 1689,-15.83 1685.83,-19 1682.67,-19"/>
<text text-anchor="middle" x="1657.5" y="-7" font-family="Arial" font-size="10.00" fill="#cfffac">core/vm.ts</text>
</g>
<!-- app.ts&#45;&gt;core/vm.ts -->
<g id="edge3" class="edge">
<title>app.ts&#45;&gt;core/vm.ts</title>
<path fill="none" stroke="#757575" d="M825.91,-389C886.34,-389 1025.71,-389 1025.71,-389 1025.71,-389 1025.71,-9 1025.71,-9 1025.71,-9 1615.74,-9 1615.74,-9"/>
<polygon fill="#757575" stroke="#757575" points="1615.74,-12.5 1625.74,-9 1615.74,-5.5 1615.74,-12.5"/>
</g>
<!-- parsing/arithmetic&#45;parsing.ts -->
<g id="node5" class="node">
<title>parsing/arithmetic&#45;parsing.ts</title>
<path fill="none" stroke="#c6c5fe" d="M1609.17,-239C1609.17,-239 1481.83,-239 1481.83,-239 1478.67,-239 1475.5,-235.83 1475.5,-232.67 1475.5,-232.67 1475.5,-226.33 1475.5,-226.33 1475.5,-223.17 1478.67,-220 1481.83,-220 1481.83,-220 1609.17,-220 1609.17,-220 1612.33,-220 1615.5,-223.17 1615.5,-226.33 1615.5,-226.33 1615.5,-232.67 1615.5,-232.67 1615.5,-235.83 1612.33,-239 1609.17,-239"/>
<text text-anchor="middle" x="1545.5" y="-227" font-family="Arial" font-size="10.00" fill="#c6c5fe">parsing/arithmetic&#45;parsing.ts</text>
</g>
<!-- app.ts&#45;&gt;parsing/arithmetic&#45;parsing.ts -->
<g id="edge4" class="edge">
<title>app.ts&#45;&gt;parsing/arithmetic&#45;parsing.ts</title>
<path fill="none" stroke="#757575" d="M825.51,-399C940.43,-399 1382.83,-399 1382.83,-399 1382.83,-399 1382.83,-232 1382.83,-232 1382.83,-232 1465.1,-232 1465.1,-232"/>
<polygon fill="#757575" stroke="#757575" points="1465.1,-235.5 1475.1,-232 1465.1,-228.5 1465.1,-235.5"/>
</g>
<!-- parsing/expressions/let&#45;expression&#45;parsing.ts -->
<g id="node6" class="node">
<title>parsing/expressions/let&#45;expression&#45;parsing.ts</title>
<path fill="none" stroke="#c6c5fe" d="M206.67,-239C206.67,-239 6.33,-239 6.33,-239 3.17,-239 0,-235.83 0,-232.67 0,-232.67 0,-226.33 0,-226.33 0,-223.17 3.17,-220 6.33,-220 6.33,-220 206.67,-220 206.67,-220 209.83,-220 213,-223.17 213,-226.33 213,-226.33 213,-232.67 213,-232.67 213,-235.83 209.83,-239 206.67,-239"/>
<text text-anchor="middle" x="106.5" y="-227" font-family="Arial" font-size="10.00" fill="#c6c5fe">parsing/expressions/let&#45;expression&#45;parsing.ts</text>
</g>
<!-- app.ts&#45;&gt;parsing/expressions/let&#45;expression&#45;parsing.ts -->
<g id="edge5" class="edge">
<title>app.ts&#45;&gt;parsing/expressions/let&#45;expression&#45;parsing.ts</title>
<path fill="none" stroke="#757575" d="M771.37,-401C643.43,-401 106.5,-401 106.5,-401 106.5,-401 106.5,-249.21 106.5,-249.21"/>
<polygon fill="#757575" stroke="#757575" points="110,-249.21 106.5,-239.21 103,-249.21 110,-249.21"/>
</g>
<!-- parsing/parser.ts -->
<g id="node7" class="node">
<title>parsing/parser.ts</title>
<path fill="none" stroke="#c6c5fe" d="M1157.67,-74C1157.67,-74 1081.33,-74 1081.33,-74 1078.17,-74 1075,-70.83 1075,-67.67 1075,-67.67 1075,-61.33 1075,-61.33 1075,-58.17 1078.17,-55 1081.33,-55 1081.33,-55 1157.67,-55 1157.67,-55 1160.83,-55 1164,-58.17 1164,-61.33 1164,-61.33 1164,-67.67 1164,-67.67 1164,-70.83 1160.83,-74 1157.67,-74"/>
<text text-anchor="middle" x="1119.5" y="-62" font-family="Arial" font-size="10.00" fill="#c6c5fe">parsing/parser.ts</text>
</g>
<!-- app.ts&#45;&gt;parsing/parser.ts -->
<g id="edge6" class="edge">
<title>app.ts&#45;&gt;parsing/parser.ts</title>
<path fill="none" stroke="#757575" d="M825.66,-392C887.86,-392 1035.29,-392 1035.29,-392 1035.29,-392 1035.29,-69 1035.29,-69 1035.29,-69 1064.93,-69 1064.93,-69"/>
<polygon fill="#757575" stroke="#757575" points="1064.93,-72.5 1074.93,-69 1064.93,-65.5 1064.93,-72.5"/>
</g>
<!-- support/debug&#45;dump.ts -->
<g id="node8" class="node">
<title>support/debug&#45;dump.ts</title>
<path fill="none" stroke="#c6c5fe" d="M1961.17,-349C1961.17,-349 1857.83,-349 1857.83,-349 1854.67,-349 1851.5,-345.83 1851.5,-342.67 1851.5,-342.67 1851.5,-336.33 1851.5,-336.33 1851.5,-333.17 1854.67,-330 1857.83,-330 1857.83,-330 1961.17,-330 1961.17,-330 1964.33,-330 1967.5,-333.17 1967.5,-336.33 1967.5,-336.33 1967.5,-342.67 1967.5,-342.67 1967.5,-345.83 1964.33,-349 1961.17,-349"/>
<text text-anchor="middle" x="1909.5" y="-337" font-family="Arial" font-size="10.00" fill="#c6c5fe">support/debug&#45;dump.ts</text>
</g>
<!-- app.ts&#45;&gt;support/debug&#45;dump.ts -->
<g id="edge7" class="edge">
<title>app.ts&#45;&gt;support/debug&#45;dump.ts</title>
<path fill="none" stroke="#757575" d="M825.69,-401C996.06,-401 1909.5,-401 1909.5,-401 1909.5,-401 1909.5,-359.11 1909.5,-359.11"/>
<polygon fill="#757575" stroke="#757575" points="1913,-359.11 1909.5,-349.11 1906,-359.11 1913,-359.11"/>
</g>
<!-- support/function&#45;context.ts -->
<g id="node9" class="node">
<title>support/function&#45;context.ts</title>
<path fill="none" stroke="#c6c5fe" d="M526.67,-184C526.67,-184 406.33,-184 406.33,-184 403.17,-184 400,-180.83 400,-177.67 400,-177.67 400,-171.33 400,-171.33 400,-168.17 403.17,-165 406.33,-165 406.33,-165 526.67,-165 526.67,-165 529.83,-165 533,-168.17 533,-171.33 533,-171.33 533,-177.67 533,-177.67 533,-180.83 529.83,-184 526.67,-184"/>
<text text-anchor="middle" x="466.5" y="-172" font-family="Arial" font-size="10.00" fill="#c6c5fe">support/function&#45;context.ts</text>
</g>
<!-- app.ts&#45;&gt;support/function&#45;context.ts -->
<g id="edge8" class="edge">
<title>app.ts&#45;&gt;support/function&#45;context.ts</title>
<path fill="none" stroke="#757575" d="M771.44,-390C714.66,-390 588.25,-390 588.25,-390 588.25,-390 588.25,-181 588.25,-181 588.25,-181 543.07,-181 543.07,-181"/>
<polygon fill="#757575" stroke="#757575" points="543.07,-177.5 533.07,-181 543.07,-184.5 543.07,-177.5"/>
</g>
<!-- support/let&#45;binding.ts -->
<g id="node10" class="node">
<title>support/let&#45;binding.ts</title>
<path fill="none" stroke="#c6c5fe" d="M968.67,-184C968.67,-184 874.33,-184 874.33,-184 871.17,-184 868,-180.83 868,-177.67 868,-177.67 868,-171.33 868,-171.33 868,-168.17 871.17,-165 874.33,-165 874.33,-165 968.67,-165 968.67,-165 971.83,-165 975,-168.17 975,-171.33 975,-171.33 975,-177.67 975,-177.67 975,-180.83 971.83,-184 968.67,-184"/>
<text text-anchor="middle" x="921.5" y="-172" font-family="Arial" font-size="10.00" fill="#c6c5fe">support/let&#45;binding.ts</text>
</g>
<!-- app.ts&#45;&gt;support/let&#45;binding.ts -->
<g id="edge9" class="edge">
<title>app.ts&#45;&gt;support/let&#45;binding.ts</title>
<path fill="none" stroke="#757575" d="M825.62,-387C883.97,-387 1016.14,-387 1016.14,-387 1016.14,-387 1016.14,-177 1016.14,-177 1016.14,-177 985.18,-177 985.18,-177"/>
<polygon fill="#757575" stroke="#757575" points="985.18,-173.5 975.18,-177 985.18,-180.5 985.18,-173.5"/>
</g>
<!-- types/function&#45;types.ts -->
<g id="node11" class="node">
<title>types/function&#45;types.ts</title>
<path fill="none" stroke="#cfffac" d="M157.17,-129C157.17,-129 53.83,-129 53.83,-129 50.67,-129 47.5,-125.83 47.5,-122.67 47.5,-122.67 47.5,-116.33 47.5,-116.33 47.5,-113.17 50.67,-110 53.83,-110 53.83,-110 157.17,-110 157.17,-110 160.33,-110 163.5,-113.17 163.5,-116.33 163.5,-116.33 163.5,-122.67 163.5,-122.67 163.5,-125.83 160.33,-129 157.17,-129"/>
<text text-anchor="middle" x="105.5" y="-117" font-family="Arial" font-size="10.00" fill="#cfffac">types/function&#45;types.ts</text>
</g>
<!-- app.ts&#45;&gt;types/function&#45;types.ts -->
<g id="edge10" class="edge">
<title>app.ts&#45;&gt;types/function&#45;types.ts</title>
<path fill="none" stroke="#757575" d="M771.22,-395C677.98,-395 377.75,-395 377.75,-395 377.75,-395 377.75,-122 377.75,-122 377.75,-122 173.57,-122 173.57,-122"/>
<polygon fill="#757575" stroke="#757575" points="173.57,-118.5 163.57,-122 173.57,-125.5 173.57,-118.5"/>
</g>
<!-- types/types.ts -->
<g id="node12" class="node">
<title>types/types.ts</title>
<path fill="none" stroke="#c6c5fe" d="M1244.67,-184C1244.67,-184 1178.33,-184 1178.33,-184 1175.17,-184 1172,-180.83 1172,-177.67 1172,-177.67 1172,-171.33 1172,-171.33 1172,-168.17 1175.17,-165 1178.33,-165 1178.33,-165 1244.67,-165 1244.67,-165 1247.83,-165 1251,-168.17 1251,-171.33 1251,-171.33 1251,-177.67 1251,-177.67 1251,-180.83 1247.83,-184 1244.67,-184"/>
<text text-anchor="middle" x="1211.5" y="-172" font-family="Arial" font-size="10.00" fill="#c6c5fe">types/types.ts</text>
</g>
<!-- app.ts&#45;&gt;types/types.ts -->
<g id="edge11" class="edge">
<title>app.ts&#45;&gt;types/types.ts</title>
<path fill="none" stroke="#757575" d="M825.75,-394C901.41,-394 1108.57,-394 1108.57,-394 1108.57,-394 1108.57,-181 1108.57,-181 1108.57,-181 1162,-181 1162,-181"/>
<polygon fill="#757575" stroke="#757575" points="1162,-184.5 1172,-181 1162,-177.5 1162,-184.5"/>
</g>
<!-- types/variable&#45;types.ts -->
<g id="node13" class="node">
<title>types/variable&#45;types.ts</title>
<path fill="none" stroke="#cfffac" d="M366.17,-74C366.17,-74 262.83,-74 262.83,-74 259.67,-74 256.5,-70.83 256.5,-67.67 256.5,-67.67 256.5,-61.33 256.5,-61.33 256.5,-58.17 259.67,-55 262.83,-55 262.83,-55 366.17,-55 366.17,-55 369.33,-55 372.5,-58.17 372.5,-61.33 372.5,-61.33 372.5,-67.67 372.5,-67.67 372.5,-70.83 369.33,-74 366.17,-74"/>
<text text-anchor="middle" x="314.5" y="-62" font-family="Arial" font-size="10.00" fill="#cfffac">types/variable&#45;types.ts</text>
</g>
<!-- app.ts&#45;&gt;types/variable&#45;types.ts -->
<g id="edge12" class="edge">
<title>app.ts&#45;&gt;types/variable&#45;types.ts</title>
<path fill="none" stroke="#757575" d="M771.5,-398C664.47,-398 275.83,-398 275.83,-398 275.83,-398 275.83,-84.12 275.83,-84.12"/>
<polygon fill="#757575" stroke="#757575" points="279.33,-84.12 275.83,-74.12 272.33,-84.12 279.33,-84.12"/>
</g>
<!-- validation/pointer&#45;validation.ts -->
<g id="node14" class="node">
<title>validation/pointer&#45;validation.ts</title>
<path fill="none" stroke="#c6c5fe" d="M745.17,-239C745.17,-239 611.83,-239 611.83,-239 608.67,-239 605.5,-235.83 605.5,-232.67 605.5,-232.67 605.5,-226.33 605.5,-226.33 605.5,-223.17 608.67,-220 611.83,-220 611.83,-220 745.17,-220 745.17,-220 748.33,-220 751.5,-223.17 751.5,-226.33 751.5,-226.33 751.5,-232.67 751.5,-232.67 751.5,-235.83 748.33,-239 745.17,-239"/>
<text text-anchor="middle" x="678.5" y="-227" font-family="Arial" font-size="10.00" fill="#c6c5fe">validation/pointer&#45;validation.ts</text>
</g>
<!-- app.ts&#45;&gt;validation/pointer&#45;validation.ts -->
<g id="edge13" class="edge">
<title>app.ts&#45;&gt;validation/pointer&#45;validation.ts</title>
<path fill="none" stroke="#757575" d="M771.43,-387C734.74,-387 673.75,-387 673.75,-387 673.75,-387 673.75,-249.35 673.75,-249.35"/>
<polygon fill="#757575" stroke="#757575" points="677.25,-249.35 673.75,-239.35 670.25,-249.35 677.25,-249.35"/>
</g>
<!-- validation/reassignment&#45;validation.ts -->
<g id="node15" class="node">
<title>validation/reassignment&#45;validation.ts</title>
<path fill="none" stroke="#c6c5fe" d="M1336.67,-239C1336.67,-239 1174.33,-239 1174.33,-239 1171.17,-239 1168,-235.83 1168,-232.67 1168,-232.67 1168,-226.33 1168,-226.33 1168,-223.17 1171.17,-220 1174.33,-220 1174.33,-220 1336.67,-220 1336.67,-220 1339.83,-220 1343,-223.17 1343,-226.33 1343,-226.33 1343,-232.67 1343,-232.67 1343,-235.83 1339.83,-239 1336.67,-239"/>
<text text-anchor="middle" x="1255.5" y="-227" font-family="Arial" font-size="10.00" fill="#c6c5fe">validation/reassignment&#45;validation.ts</text>
</g>
<!-- app.ts&#45;&gt;validation/reassignment&#45;validation.ts -->
<g id="edge14" class="edge">
<title>app.ts&#45;&gt;validation/reassignment&#45;validation.ts</title>
<path fill="none" stroke="#757575" d="M825.72,-396C924.1,-396 1255.5,-396 1255.5,-396 1255.5,-396 1255.5,-249.42 1255.5,-249.42"/>
<polygon fill="#757575" stroke="#757575" points="1259,-249.42 1255.5,-239.42 1252,-249.42 1259,-249.42"/>
</g>
<!-- validation/validation.ts -->
<g id="node16" class="node">
<title>validation/validation.ts</title>
<path fill="none" stroke="#c6c5fe" d="M848.67,-294C848.67,-294 748.33,-294 748.33,-294 745.17,-294 742,-290.83 742,-287.67 742,-287.67 742,-281.33 742,-281.33 742,-278.17 745.17,-275 748.33,-275 748.33,-275 848.67,-275 848.67,-275 851.83,-275 855,-278.17 855,-281.33 855,-281.33 855,-287.67 855,-287.67 855,-290.83 851.83,-294 848.67,-294"/>
<text text-anchor="middle" x="798.5" y="-282" font-family="Arial" font-size="10.00" fill="#c6c5fe">validation/validation.ts</text>
</g>
<!-- app.ts&#45;&gt;validation/validation.ts -->
<g id="edge15" class="edge">
<title>app.ts&#45;&gt;validation/validation.ts</title>
<path fill="none" stroke="#757575" d="M789.5,-384.74C789.5,-384.74 789.5,-304.08 789.5,-304.08"/>
<polygon fill="#757575" stroke="#757575" points="793,-304.08 789.5,-294.08 786,-304.08 793,-304.08"/>
</g>
<!-- compilation/compilation&#45;strategies.ts&#45;&gt;core/vm.ts -->
<g id="edge17" class="edge">
<title>compilation/compilation&#45;strategies.ts&#45;&gt;core/vm.ts</title>
<path fill="none" stroke="#757575" d="M1633.7,-334C1678.68,-334 1724,-334 1724,-334 1724,-334 1724,-147 1724,-147 1724,-147 1640.33,-147 1640.33,-147 1640.33,-147 1640.33,-29.39 1640.33,-29.39"/>
<polygon fill="#757575" stroke="#757575" points="1643.83,-29.39 1640.33,-19.39 1636.83,-29.39 1643.83,-29.39"/>
</g>
<!-- compilation/compilation&#45;strategies.ts&#45;&gt;parsing/parser.ts -->
<g id="edge20" class="edge">
<title>compilation/compilation&#45;strategies.ts&#45;&gt;parsing/parser.ts</title>
<path fill="none" stroke="#757575" d="M1457.43,-338C1313.78,-338 1044.86,-338 1044.86,-338 1044.86,-338 1044.86,-71 1044.86,-71 1044.86,-71 1064.79,-71 1064.79,-71"/>
<polygon fill="#757575" stroke="#757575" points="1064.79,-74.5 1074.79,-71 1064.79,-67.5 1064.79,-74.5"/>
</g>
<!-- compilation/compilation&#45;strategies.ts&#45;&gt;support/let&#45;binding.ts -->
<g id="edge23" class="edge">
<title>compilation/compilation&#45;strategies.ts&#45;&gt;support/let&#45;binding.ts</title>
<path fill="none" stroke="#757575" d="M1457.28,-335C1333.55,-335 1123.43,-335 1123.43,-335 1123.43,-335 1123.43,-175 1123.43,-175 1123.43,-175 985.08,-175 985.08,-175"/>
<polygon fill="#757575" stroke="#757575" points="985.08,-171.5 975.08,-175 985.08,-178.5 985.08,-171.5"/>
</g>
<!-- compilation/compilation&#45;strategies.ts&#45;&gt;types/function&#45;types.ts -->
<g id="edge24" class="edge">
<title>compilation/compilation&#45;strategies.ts&#45;&gt;types/function&#45;types.ts</title>
<path fill="none" stroke="#757575" d="M1457.46,-343C1163.58,-343 234.75,-343 234.75,-343 234.75,-343 234.75,-125 234.75,-125 234.75,-125 173.7,-125 173.7,-125"/>
<polygon fill="#757575" stroke="#757575" points="173.7,-121.5 163.7,-125 173.7,-128.5 173.7,-121.5"/>
</g>
<!-- compilation/compilation&#45;strategies.ts&#45;&gt;types/variable&#45;types.ts -->
<g id="edge25" class="edge">
<title>compilation/compilation&#45;strategies.ts&#45;&gt;types/variable&#45;types.ts</title>
<path fill="none" stroke="#757575" d="M1457.08,-340C1171.95,-340 295.17,-340 295.17,-340 295.17,-340 295.17,-84.31 295.17,-84.31"/>
<polygon fill="#757575" stroke="#757575" points="298.67,-84.31 295.17,-74.31 291.67,-84.31 298.67,-84.31"/>
</g>
<!-- compilation/instruction&#45;primitives.ts -->
<g id="node17" class="node">
<title>compilation/instruction&#45;primitives.ts</title>
<path fill="none" stroke="#c6c5fe" d="M1811.17,-129C1811.17,-129 1653.83,-129 1653.83,-129 1650.67,-129 1647.5,-125.83 1647.5,-122.67 1647.5,-122.67 1647.5,-116.33 1647.5,-116.33 1647.5,-113.17 1650.67,-110 1653.83,-110 1653.83,-110 1811.17,-110 1811.17,-110 1814.33,-110 1817.5,-113.17 1817.5,-116.33 1817.5,-116.33 1817.5,-122.67 1817.5,-122.67 1817.5,-125.83 1814.33,-129 1811.17,-129"/>
<text text-anchor="middle" x="1732.5" y="-117" font-family="Arial" font-size="10.00" fill="#c6c5fe">compilation/instruction&#45;primitives.ts</text>
</g>
<!-- compilation/compilation&#45;strategies.ts&#45;&gt;compilation/instruction&#45;primitives.ts -->
<g id="edge16" class="edge">
<title>compilation/compilation&#45;strategies.ts&#45;&gt;compilation/instruction&#45;primitives.ts</title>
<path fill="none" stroke="#757575" d="M1633.56,-339C1686.23,-339 1743,-339 1743,-339 1743,-339 1743,-139.21 1743,-139.21"/>
<polygon fill="#757575" stroke="#757575" points="1746.5,-139.21 1743,-129.21 1739.5,-139.21 1746.5,-139.21"/>
</g>
<!-- parsing/array&#45;parsing.ts -->
<g id="node18" class="node">
<title>parsing/array&#45;parsing.ts</title>
<path fill="none" stroke="#cfffac" d="M1294.67,-74C1294.67,-74 1188.33,-74 1188.33,-74 1185.17,-74 1182,-70.83 1182,-67.67 1182,-67.67 1182,-61.33 1182,-61.33 1182,-58.17 1185.17,-55 1188.33,-55 1188.33,-55 1294.67,-55 1294.67,-55 1297.83,-55 1301,-58.17 1301,-61.33 1301,-61.33 1301,-67.67 1301,-67.67 1301,-70.83 1297.83,-74 1294.67,-74"/>
<text text-anchor="middle" x="1241.5" y="-62" font-family="Arial" font-size="10.00" fill="#cfffac">parsing/array&#45;parsing.ts</text>
</g>
<!-- compilation/compilation&#45;strategies.ts&#45;&gt;parsing/array&#45;parsing.ts -->
<g id="edge18" class="edge">
<title>compilation/compilation&#45;strategies.ts&#45;&gt;parsing/array&#45;parsing.ts</title>
<path fill="none" stroke="#757575" d="M1457.43,-332C1436.53,-332 1420.17,-332 1420.17,-332 1420.17,-332 1420.17,-196 1420.17,-196 1420.17,-196 1276,-196 1276,-196 1276,-196 1276,-84.38 1276,-84.38"/>
<polygon fill="#757575" stroke="#757575" points="1279.5,-84.38 1276,-74.38 1272.5,-84.38 1279.5,-84.38"/>
</g>
<!-- parsing/expression&#45;with&#45;context.ts -->
<g id="node19" class="node">
<title>parsing/expression&#45;with&#45;context.ts</title>
<path fill="none" stroke="#c6c5fe" d="M1622.17,-294C1622.17,-294 1468.83,-294 1468.83,-294 1465.67,-294 1462.5,-290.83 1462.5,-287.67 1462.5,-287.67 1462.5,-281.33 1462.5,-281.33 1462.5,-278.17 1465.67,-275 1468.83,-275 1468.83,-275 1622.17,-275 1622.17,-275 1625.33,-275 1628.5,-278.17 1628.5,-281.33 1628.5,-281.33 1628.5,-287.67 1628.5,-287.67 1628.5,-290.83 1625.33,-294 1622.17,-294"/>
<text text-anchor="middle" x="1545.5" y="-282" font-family="Arial" font-size="10.00" fill="#c6c5fe">parsing/expression&#45;with&#45;context.ts</text>
</g>
<!-- compilation/compilation&#45;strategies.ts&#45;&gt;parsing/expression&#45;with&#45;context.ts -->
<g id="edge19" class="edge">
<title>compilation/compilation&#45;strategies.ts&#45;&gt;parsing/expression&#45;with&#45;context.ts</title>
<path fill="none" stroke="#757575" d="M1517.83,-329.92C1517.83,-329.92 1517.83,-304.34 1517.83,-304.34"/>
<polygon fill="#757575" stroke="#757575" points="1521.33,-304.34 1517.83,-294.34 1514.33,-304.34 1521.33,-304.34"/>
</g>
<!-- parsing/reassignment&#45;parsing.ts -->
<g id="node20" class="node">
<title>parsing/reassignment&#45;parsing.ts</title>
<path fill="none" stroke="#c6c5fe" d="M1910.67,-184C1910.67,-184 1768.33,-184 1768.33,-184 1765.17,-184 1762,-180.83 1762,-177.67 1762,-177.67 1762,-171.33 1762,-171.33 1762,-168.17 1765.17,-165 1768.33,-165 1768.33,-165 1910.67,-165 1910.67,-165 1913.83,-165 1917,-168.17 1917,-171.33 1917,-171.33 1917,-177.67 1917,-177.67 1917,-180.83 1913.83,-184 1910.67,-184"/>
<text text-anchor="middle" x="1839.5" y="-172" font-family="Arial" font-size="10.00" fill="#c6c5fe">parsing/reassignment&#45;parsing.ts</text>
</g>
<!-- compilation/compilation&#45;strategies.ts&#45;&gt;parsing/reassignment&#45;parsing.ts -->
<g id="edge21" class="edge">
<title>compilation/compilation&#45;strategies.ts&#45;&gt;parsing/reassignment&#45;parsing.ts</title>
<path fill="none" stroke="#757575" d="M1633.64,-344C1714.46,-344 1821.67,-344 1821.67,-344 1821.67,-344 1821.67,-194.1 1821.67,-194.1"/>
<polygon fill="#757575" stroke="#757575" points="1825.17,-194.1 1821.67,-184.1 1818.17,-194.1 1825.17,-194.1"/>
</g>
<!-- parsing/slice&#45;parsing.ts -->
<g id="node21" class="node">
<title>parsing/slice&#45;parsing.ts</title>
<path fill="none" stroke="#c6c5fe" d="M2045.67,-184C2045.67,-184 1941.33,-184 1941.33,-184 1938.17,-184 1935,-180.83 1935,-177.67 1935,-177.67 1935,-171.33 1935,-171.33 1935,-168.17 1938.17,-165 1941.33,-165 1941.33,-165 2045.67,-165 2045.67,-165 2048.83,-165 2052,-168.17 2052,-171.33 2052,-171.33 2052,-177.67 2052,-177.67 2052,-180.83 2048.83,-184 2045.67,-184"/>
<text text-anchor="middle" x="1993.5" y="-172" font-family="Arial" font-size="10.00" fill="#c6c5fe">parsing/slice&#45;parsing.ts</text>
</g>
<!-- compilation/compilation&#45;strategies.ts&#45;&gt;parsing/slice&#45;parsing.ts -->
<g id="edge22" class="edge">
<title>compilation/compilation&#45;strategies.ts&#45;&gt;parsing/slice&#45;parsing.ts</title>
<path fill="none" stroke="#757575" d="M1573.17,-329.88C1573.17,-321.95 1573.17,-312 1573.17,-312 1573.17,-312 1951.25,-312 1951.25,-312 1951.25,-312 1951.25,-194.39 1951.25,-194.39"/>
<polygon fill="#757575" stroke="#757575" points="1954.75,-194.39 1951.25,-184.39 1947.75,-194.39 1954.75,-194.39"/>
</g>
<!-- compilation/function&#45;compilation.ts&#45;&gt;core/vm.ts -->
<g id="edge26" class="edge">
<title>compilation/function&#45;compilation.ts&#45;&gt;core/vm.ts</title>
<path fill="none" stroke="#757575" d="M395.75,-219.81C395.75,-176.65 395.75,-4 395.75,-4 395.75,-4 1616,-4 1616,-4"/>
<polygon fill="#757575" stroke="#757575" points="1616,-7.5 1626,-4 1616,-0.5 1616,-7.5"/>
</g>
<!-- compilation/function&#45;compilation.ts&#45;&gt;types/function&#45;types.ts -->
<g id="edge28" class="edge">
<title>compilation/function&#45;compilation.ts&#45;&gt;types/function&#45;types.ts</title>
<path fill="none" stroke="#757575" d="M387.25,-219.69C387.25,-192.65 387.25,-119 387.25,-119 387.25,-119 173.54,-119 173.54,-119"/>
<polygon fill="#757575" stroke="#757575" points="173.54,-115.5 163.54,-119 173.54,-122.5 173.54,-115.5"/>
</g>
<!-- compilation/function&#45;compilation.ts&#45;&gt;types/types.ts -->
<g id="edge29" class="edge">
<title>compilation/function&#45;compilation.ts&#45;&gt;types/types.ts</title>
<path fill="none" stroke="#757575" d="M538.67,-219.76C538.67,-214.07 538.67,-208 538.67,-208 538.67,-208 1194.57,-208 1194.57,-208 1194.57,-208 1194.57,-194.01 1194.57,-194.01"/>
<polygon fill="#757575" stroke="#757575" points="1198.07,-194.01 1194.57,-184.01 1191.07,-194.01 1198.07,-194.01"/>
</g>
<!-- compilation/function&#45;compilation.ts&#45;&gt;types/variable&#45;types.ts -->
<g id="edge30" class="edge">
<title>compilation/function&#45;compilation.ts&#45;&gt;types/variable&#45;types.ts</title>
<path fill="none" stroke="#757575" d="M391.5,-219.9C391.5,-184.04 391.5,-60 391.5,-60 391.5,-60 382.86,-60 382.86,-60"/>
<polygon fill="#757575" stroke="#757575" points="382.86,-56.5 372.86,-60 382.86,-63.5 382.86,-56.5"/>
</g>
<!-- parsing/function&#45;parsing.ts -->
<g id="node22" class="node">
<title>parsing/function&#45;parsing.ts</title>
<path fill="none" stroke="#c6c5fe" d="M564.67,-129C564.67,-129 446.33,-129 446.33,-129 443.17,-129 440,-125.83 440,-122.67 440,-122.67 440,-116.33 440,-116.33 440,-113.17 443.17,-110 446.33,-110 446.33,-110 564.67,-110 564.67,-110 567.83,-110 571,-113.17 571,-116.33 571,-116.33 571,-122.67 571,-122.67 571,-125.83 567.83,-129 564.67,-129"/>
<text text-anchor="middle" x="505.5" y="-117" font-family="Arial" font-size="10.00" fill="#c6c5fe">parsing/function&#45;parsing.ts</text>
</g>
<!-- compilation/function&#45;compilation.ts&#45;&gt;parsing/function&#45;parsing.ts -->
<g id="edge27" class="edge">
<title>compilation/function&#45;compilation.ts&#45;&gt;parsing/function&#45;parsing.ts</title>
<path fill="none" stroke="#757575" d="M544.33,-219.74C544.33,-219.74 544.33,-139.08 544.33,-139.08"/>
<polygon fill="#757575" stroke="#757575" points="547.83,-139.08 544.33,-129.08 540.83,-139.08 547.83,-139.08"/>
</g>
<!-- parsing/arithmetic&#45;parsing.ts&#45;&gt;core/vm.ts -->
<g id="edge32" class="edge">
<title>parsing/arithmetic&#45;parsing.ts&#45;&gt;core/vm.ts</title>
<path fill="none" stroke="#757575" d="M1576.88,-219.77C1576.88,-178 1576.88,-16 1576.88,-16 1576.88,-16 1615.63,-16 1615.63,-16"/>
<polygon fill="#757575" stroke="#757575" points="1615.63,-19.5 1625.63,-16 1615.63,-12.5 1615.63,-19.5"/>
</g>
<!-- parsing/arithmetic&#45;parsing.ts&#45;&gt;parsing/parser.ts -->
<g id="edge34" class="edge">
<title>parsing/arithmetic&#45;parsing.ts&#45;&gt;parsing/parser.ts</title>
<path fill="none" stroke="#757575" d="M1543.75,-219.61C1543.75,-188.08 1543.75,-92 1543.75,-92 1543.75,-92 1125.86,-92 1125.86,-92 1125.86,-92 1125.86,-84.12 1125.86,-84.12"/>
<polygon fill="#757575" stroke="#757575" points="1129.36,-84.12 1125.86,-74.12 1122.36,-84.12 1129.36,-84.12"/>
</g>
<!-- parsing/arithmetic&#45;parsing.ts&#45;&gt;types/types.ts -->
<g id="edge36" class="edge">
<title>parsing/arithmetic&#45;parsing.ts&#45;&gt;types/types.ts</title>
<path fill="none" stroke="#757575" d="M1510.62,-219.87C1510.62,-207.62 1510.62,-188 1510.62,-188 1510.62,-188 1239.71,-188 1239.71,-188 1239.71,-188 1239.71,-187.6 1239.71,-187.6"/>
<polygon fill="#757575" stroke="#757575" points="1243.21,-194.02 1239.71,-184.02 1236.21,-194.02 1243.21,-194.02"/>
</g>
<!-- parsing/operator&#45;parsing.ts -->
<g id="node23" class="node">
<title>parsing/operator&#45;parsing.ts</title>
<path fill="none" stroke="#c6c5fe" d="M1471.17,-184C1471.17,-184 1351.83,-184 1351.83,-184 1348.67,-184 1345.5,-180.83 1345.5,-177.67 1345.5,-177.67 1345.5,-171.33 1345.5,-171.33 1345.5,-168.17 1348.67,-165 1351.83,-165 1351.83,-165 1471.17,-165 1471.17,-165 1474.33,-165 1477.5,-168.17 1477.5,-171.33 1477.5,-171.33 1477.5,-177.67 1477.5,-177.67 1477.5,-180.83 1474.33,-184 1471.17,-184"/>
<text text-anchor="middle" x="1411.5" y="-172" font-family="Arial" font-size="10.00" fill="#c6c5fe">parsing/operator&#45;parsing.ts</text>
</g>
<!-- parsing/arithmetic&#45;parsing.ts&#45;&gt;parsing/operator&#45;parsing.ts -->
<g id="edge33" class="edge">
<title>parsing/arithmetic&#45;parsing.ts&#45;&gt;parsing/operator&#45;parsing.ts</title>
<path fill="none" stroke="#757575" d="M1475.32,-226C1473.77,-226 1472.9,-226 1472.9,-226 1472.9,-226 1472.9,-194.43 1472.9,-194.43"/>
<polygon fill="#757575" stroke="#757575" points="1476.4,-194.43 1472.9,-184.43 1469.4,-194.43 1476.4,-194.43"/>
</g>
<!-- support/helpers.ts -->
<g id="node24" class="node">
<title>support/helpers.ts</title>
<path fill="none" stroke="#c6c5fe" d="M1698.67,-184C1698.67,-184 1616.33,-184 1616.33,-184 1613.17,-184 1610,-180.83 1610,-177.67 1610,-177.67 1610,-171.33 1610,-171.33 1610,-168.17 1613.17,-165 1616.33,-165 1616.33,-165 1698.67,-165 1698.67,-165 1701.83,-165 1705,-168.17 1705,-171.33 1705,-171.33 1705,-177.67 1705,-177.67 1705,-180.83 1701.83,-184 1698.67,-184"/>
<text text-anchor="middle" x="1657.5" y="-172" font-family="Arial" font-size="10.00" fill="#c6c5fe">support/helpers.ts</text>
</g>
<!-- parsing/arithmetic&#45;parsing.ts&#45;&gt;support/helpers.ts -->
<g id="edge35" class="edge">
<title>parsing/arithmetic&#45;parsing.ts&#45;&gt;support/helpers.ts</title>
<path fill="none" stroke="#757575" d="M1615.74,-229C1619.64,-229 1622,-229 1622,-229 1622,-229 1622,-194.24 1622,-194.24"/>
<polygon fill="#757575" stroke="#757575" points="1625.5,-194.24 1622,-184.24 1618.5,-194.24 1625.5,-194.24"/>
</g>
<!-- parsing/expressions/let&#45;expression&#45;parsing.ts&#45;&gt;core/vm.ts -->
<g id="edge44" class="edge">
<title>parsing/expressions/let&#45;expression&#45;parsing.ts&#45;&gt;core/vm.ts</title>
<path fill="none" stroke="#757575" d="M171.75,-219.72C171.75,-176.18 171.75,-2 171.75,-2 171.75,-2 1615.78,-2 1615.78,-2"/>
<polygon fill="#757575" stroke="#757575" points="1615.78,-5.5 1625.78,-2 1615.78,1.5 1615.78,-5.5"/>
</g>
<!-- parsing/expressions/let&#45;expression&#45;parsing.ts&#45;&gt;parsing/parser.ts -->
<g id="edge46" class="edge">
<title>parsing/expressions/let&#45;expression&#45;parsing.ts&#45;&gt;parsing/parser.ts</title>
<path fill="none" stroke="#757575" d="M188.25,-219.65C188.25,-190.07 188.25,-104 188.25,-104 188.25,-104 1087.71,-104 1087.71,-104 1087.71,-104 1087.71,-84.06 1087.71,-84.06"/>
<polygon fill="#757575" stroke="#757575" points="1091.21,-84.06 1087.71,-74.06 1084.21,-84.06 1091.21,-84.06"/>
</g>
<!-- parsing/expressions/let&#45;expression&#45;parsing.ts&#45;&gt;support/let&#45;binding.ts -->
<g id="edge47" class="edge">
<title>parsing/expressions/let&#45;expression&#45;parsing.ts&#45;&gt;support/let&#45;binding.ts</title>
<path fill="none" stroke="#757575" d="M196.5,-219.84C196.5,-211.24 196.5,-200 196.5,-200 196.5,-200 903.67,-200 903.67,-200 903.67,-200 903.67,-194.29 903.67,-194.29"/>
<polygon fill="#757575" stroke="#757575" points="907.17,-194.29 903.67,-184.29 900.17,-194.29 907.17,-194.29"/>
</g>
<!-- parsing/expressions/let&#45;expression&#45;parsing.ts&#45;&gt;types/function&#45;types.ts -->
<g id="edge48" class="edge">
<title>parsing/expressions/let&#45;expression&#45;parsing.ts&#45;&gt;types/function&#45;types.ts</title>
<path fill="none" stroke="#757575" d="M105.5,-219.74C105.5,-219.74 105.5,-139.08 105.5,-139.08"/>
<polygon fill="#757575" stroke="#757575" points="109,-139.08 105.5,-129.08 102,-139.08 109,-139.08"/>
</g>
<!-- parsing/expressions/let&#45;expression&#45;parsing.ts&#45;&gt;types/variable&#45;types.ts -->
<g id="edge49" class="edge">
<title>parsing/expressions/let&#45;expression&#45;parsing.ts&#45;&gt;types/variable&#45;types.ts</title>
<path fill="none" stroke="#757575" d="M180,-219.64C180,-184.01 180,-64 180,-64 180,-64 246.29,-64 246.29,-64"/>
<polygon fill="#757575" stroke="#757575" points="246.29,-67.5 256.29,-64 246.29,-60.5 246.29,-67.5"/>
</g>
<!-- parsing/expressions/let&#45;expression&#45;parsing.ts&#45;&gt;parsing/function&#45;parsing.ts -->
<g id="edge45" class="edge">
<title>parsing/expressions/let&#45;expression&#45;parsing.ts&#45;&gt;parsing/function&#45;parsing.ts</title>
<path fill="none" stroke="#757575" d="M204.75,-219.82C204.75,-192.38 204.75,-116 204.75,-116 204.75,-116 429.87,-116 429.87,-116"/>
<polygon fill="#757575" stroke="#757575" points="429.87,-119.5 439.87,-116 429.87,-112.5 429.87,-119.5"/>
</g>
<!-- parsing/parser.ts&#45;&gt;core/vm.ts -->
<g id="edge52" class="edge">
<title>parsing/parser.ts&#45;&gt;core/vm.ts</title>
<path fill="none" stroke="#757575" d="M1119.5,-54.69C1119.5,-39.24 1119.5,-11 1119.5,-11 1119.5,-11 1615.85,-11 1615.85,-11"/>
<polygon fill="#757575" stroke="#757575" points="1615.85,-14.5 1625.85,-11 1615.85,-7.5 1615.85,-14.5"/>
</g>
<!-- support/debug&#45;dump.ts&#45;&gt;core/vm.ts -->
<g id="edge59" class="edge">
<title>support/debug&#45;dump.ts&#45;&gt;core/vm.ts</title>
<path fill="none" stroke="#757575" d="M1929,-329.91C1929,-275.39 1929,-7 1929,-7 1929,-7 1699.18,-7 1699.18,-7"/>
<polygon fill="#757575" stroke="#757575" points="1699.18,-3.5 1689.18,-7 1699.18,-10.5 1699.18,-3.5"/>
</g>
<!-- support/function&#45;context.ts&#45;&gt;types/function&#45;types.ts -->
<g id="edge61" class="edge">
<title>support/function&#45;context.ts&#45;&gt;types/function&#45;types.ts</title>
<path fill="none" stroke="#757575" d="M420,-164.89C420,-147.59 420,-113 420,-113 420,-113 173.55,-113 173.55,-113"/>
<polygon fill="#757575" stroke="#757575" points="173.55,-109.5 163.55,-113 173.55,-116.5 173.55,-109.5"/>
</g>
<!-- support/function&#45;context.ts&#45;&gt;parsing/function&#45;parsing.ts -->
<g id="edge60" class="edge">
<title>support/function&#45;context.ts&#45;&gt;parsing/function&#45;parsing.ts</title>
<path fill="none" stroke="#757575" d="M486.5,-164.92C486.5,-164.92 486.5,-139.34 486.5,-139.34"/>
<polygon fill="#757575" stroke="#757575" points="490,-139.34 486.5,-129.34 483,-139.34 490,-139.34"/>
</g>
<!-- support/let&#45;binding.ts&#45;&gt;core/vm.ts -->
<g id="edge65" class="edge">
<title>support/let&#45;binding.ts&#45;&gt;core/vm.ts</title>
<path fill="none" stroke="#757575" d="M939.33,-164.52C939.33,-128.46 939.33,-7 939.33,-7 939.33,-7 1615.71,-7 1615.71,-7"/>
<polygon fill="#757575" stroke="#757575" points="1615.71,-10.5 1625.71,-7 1615.71,-3.5 1615.71,-10.5"/>
</g>
<!-- support/let&#45;binding.ts&#45;&gt;parsing/parser.ts -->
<g id="edge68" class="edge">
<title>support/let&#45;binding.ts&#45;&gt;parsing/parser.ts</title>
<path fill="none" stroke="#757575" d="M957.17,-164.87C957.17,-138.32 957.17,-66 957.17,-66 957.17,-66 1064.71,-66 1064.71,-66"/>
<polygon fill="#757575" stroke="#757575" points="1064.71,-69.5 1074.71,-66 1064.71,-62.5 1064.71,-69.5"/>
</g>
<!-- support/let&#45;binding.ts&#45;&gt;types/variable&#45;types.ts -->
<g id="edge71" class="edge">
<title>support/let&#45;binding.ts&#45;&gt;types/variable&#45;types.ts</title>
<path fill="none" stroke="#757575" d="M921.5,-164.88C921.5,-136.82 921.5,-57 921.5,-57 921.5,-57 382.7,-57 382.7,-57"/>
<polygon fill="#757575" stroke="#757575" points="382.7,-53.5 372.7,-57 382.7,-60.5 382.7,-53.5"/>
</g>
<!-- support/let&#45;binding.ts&#45;&gt;compilation/instruction&#45;primitives.ts -->
<g id="edge64" class="edge">
<title>support/let&#45;binding.ts&#45;&gt;compilation/instruction&#45;primitives.ts</title>
<path fill="none" stroke="#757575" d="M903.67,-164.82C903.67,-160.34 903.67,-156 903.67,-156 903.67,-156 1666.67,-156 1666.67,-156 1666.67,-156 1666.67,-139.09 1666.67,-139.09"/>
<polygon fill="#757575" stroke="#757575" points="1670.17,-139.09 1666.67,-129.09 1663.17,-139.09 1670.17,-139.09"/>
</g>
<!-- support/let&#45;binding.ts&#45;&gt;parsing/array&#45;parsing.ts -->
<g id="edge66" class="edge">
<title>support/let&#45;binding.ts&#45;&gt;parsing/array&#45;parsing.ts</title>
<path fill="none" stroke="#757575" d="M885.83,-164.91C885.83,-154.1 885.83,-138 885.83,-138 885.83,-138 1205,-138 1205,-138 1205,-138 1205,-84.11 1205,-84.11"/>
<polygon fill="#757575" stroke="#757575" points="1208.5,-84.11 1205,-74.11 1201.5,-84.11 1208.5,-84.11"/>
</g>
<!-- support/let&#45;binding.ts&#45;&gt;parsing/function&#45;parsing.ts -->
<g id="edge67" class="edge">
<title>support/let&#45;binding.ts&#45;&gt;parsing/function&#45;parsing.ts</title>
<path fill="none" stroke="#757575" d="M867.84,-170C767.28,-170 560.5,-170 560.5,-170 560.5,-170 560.5,-139.24 560.5,-139.24"/>
<polygon fill="#757575" stroke="#757575" points="564,-139.24 560.5,-129.24 557,-139.24 564,-139.24"/>
</g>
<!-- types/array&#45;helpers.ts -->
<g id="node25" class="node">
<title>types/array&#45;helpers.ts</title>
<path fill="none" stroke="#c6c5fe" d="M1168.67,-129C1168.67,-129 1070.33,-129 1070.33,-129 1067.17,-129 1064,-125.83 1064,-122.67 1064,-122.67 1064,-116.33 1064,-116.33 1064,-113.17 1067.17,-110 1070.33,-110 1070.33,-110 1168.67,-110 1168.67,-110 1171.83,-110 1175,-113.17 1175,-116.33 1175,-116.33 1175,-122.67 1175,-122.67 1175,-125.83 1171.83,-129 1168.67,-129"/>
<text text-anchor="middle" x="1119.5" y="-117" font-family="Arial" font-size="10.00" fill="#c6c5fe">types/array&#45;helpers.ts</text>
</g>
<!-- support/let&#45;binding.ts&#45;&gt;types/array&#45;helpers.ts -->
<g id="edge69" class="edge">
<title>support/let&#45;binding.ts&#45;&gt;types/array&#45;helpers.ts</title>
<path fill="none" stroke="#757575" d="M975.21,-167C1020.8,-167 1078.86,-167 1078.86,-167 1078.86,-167 1078.86,-139.11 1078.86,-139.11"/>
<polygon fill="#757575" stroke="#757575" points="1082.36,-139.11 1078.86,-129.11 1075.36,-139.11 1082.36,-139.11"/>
</g>
<!-- types/type&#45;inference&#45;helpers.ts -->
<g id="node26" class="node">
<title>types/type&#45;inference&#45;helpers.ts</title>
<path fill="none" stroke="#c6c5fe" d="M848.67,-129C848.67,-129 710.33,-129 710.33,-129 707.17,-129 704,-125.83 704,-122.67 704,-122.67 704,-116.33 704,-116.33 704,-113.17 707.17,-110 710.33,-110 710.33,-110 848.67,-110 848.67,-110 851.83,-110 855,-113.17 855,-116.33 855,-116.33 855,-122.67 855,-122.67 855,-125.83 851.83,-129 848.67,-129"/>
<text text-anchor="middle" x="779.5" y="-117" font-family="Arial" font-size="10.00" fill="#c6c5fe">types/type&#45;inference&#45;helpers.ts</text>
</g>
<!-- support/let&#45;binding.ts&#45;&gt;types/type&#45;inference&#45;helpers.ts -->
<g id="edge70" class="edge">
<title>support/let&#45;binding.ts&#45;&gt;types/type&#45;inference&#45;helpers.ts</title>
<path fill="none" stroke="#757575" d="M867.69,-167C857.78,-167 850.5,-167 850.5,-167 850.5,-167 850.5,-139.11 850.5,-139.11"/>
<polygon fill="#757575" stroke="#757575" points="854,-139.11 850.5,-129.11 847,-139.11 854,-139.11"/>
</g>
<!-- types/types.ts&#45;&gt;core/vm.ts -->
<g id="edge77" class="edge">
<title>types/types.ts&#45;&gt;core/vm.ts</title>
<path fill="none" stroke="#757575" d="M1180.25,-164.94C1180.25,-130.39 1180.25,-14 1180.25,-14 1180.25,-14 1615.82,-14 1615.82,-14"/>
<polygon fill="#757575" stroke="#757575" points="1615.82,-17.5 1625.82,-14 1615.82,-10.5 1615.82,-17.5"/>
</g>
<!-- types/types.ts&#45;&gt;parsing/parser.ts -->
<g id="edge78" class="edge">
<title>types/types.ts&#45;&gt;parsing/parser.ts</title>
<path fill="none" stroke="#757575" d="M1178.5,-164.96C1178.5,-138.65 1178.5,-67 1178.5,-67 1178.5,-67 1174.22,-67 1174.22,-67"/>
<polygon fill="#757575" stroke="#757575" points="1174.22,-63.5 1164.22,-67 1174.22,-70.5 1174.22,-63.5"/>
</g>
<!-- types/types.ts&#45;&gt;compilation/instruction&#45;primitives.ts -->
<g id="edge76" class="edge">
<title>types/types.ts&#45;&gt;compilation/instruction&#45;primitives.ts</title>
<path fill="none" stroke="#757575" d="M1228,-164.87C1228,-149.71 1228,-122 1228,-122 1228,-122 1637.49,-122 1637.49,-122"/>
<polygon fill="#757575" stroke="#757575" points="1637.49,-125.5 1647.49,-122 1637.49,-118.5 1637.49,-125.5"/>
</g>
<!-- types/types.ts&#45;&gt;types/array&#45;helpers.ts -->
<g id="edge79" class="edge">
<title>types/types.ts&#45;&gt;types/array&#45;helpers.ts</title>
<path fill="none" stroke="#757575" d="M1176.75,-164.84C1176.75,-148.22 1176.75,-116 1176.75,-116 1176.75,-116 1176.61,-116 1176.61,-116"/>
<polygon fill="#757575" stroke="#757575" points="1185.34,-112.5 1175.33,-116 1185.33,-119.5 1185.34,-112.5"/>
</g>
<!-- validation/pointer&#45;validation.ts&#45;&gt;parsing/parser.ts -->
<g id="edge83" class="edge">
<title>validation/pointer&#45;validation.ts&#45;&gt;parsing/parser.ts</title>
<path fill="none" stroke="#757575" d="M671.17,-219.58C671.17,-183.74 671.17,-63 671.17,-63 671.17,-63 1064.87,-63 1064.87,-63"/>
<polygon fill="#757575" stroke="#757575" points="1064.87,-66.5 1074.87,-63 1064.87,-59.5 1064.87,-66.5"/>
</g>
<!-- validation/pointer&#45;validation.ts&#45;&gt;support/let&#45;binding.ts -->
<g id="edge84" class="edge">
<title>validation/pointer&#45;validation.ts&#45;&gt;support/let&#45;binding.ts</title>
<path fill="none" stroke="#757575" d="M735.67,-219.76C735.67,-204.08 735.67,-175 735.67,-175 735.67,-175 857.75,-175 857.75,-175"/>
<polygon fill="#757575" stroke="#757575" points="857.75,-178.5 867.75,-175 857.75,-171.5 857.75,-178.5"/>
</g>
<!-- validation/pointer&#45;validation.ts&#45;&gt;types/types.ts -->
<g id="edge85" class="edge">
<title>validation/pointer&#45;validation.ts&#45;&gt;types/types.ts</title>
<path fill="none" stroke="#757575" d="M719.83,-219.93C719.83,-215.85 719.83,-212 719.83,-212 719.83,-212 1205.86,-212 1205.86,-212 1205.86,-212 1205.86,-194.35 1205.86,-194.35"/>
<polygon fill="#757575" stroke="#757575" points="1209.36,-194.35 1205.86,-184.35 1202.36,-194.35 1209.36,-194.35"/>
</g>
<!-- validation/pointer&#45;validation.ts&#45;&gt;types/variable&#45;types.ts -->
<g id="edge86" class="edge">
<title>validation/pointer&#45;validation.ts&#45;&gt;types/variable&#45;types.ts</title>
<path fill="none" stroke="#757575" d="M638.33,-219.84C638.33,-183.78 638.33,-59 638.33,-59 638.33,-59 382.77,-59 382.77,-59"/>
<polygon fill="#757575" stroke="#757575" points="382.77,-55.5 372.77,-59 382.77,-62.5 382.77,-55.5"/>
</g>
<!-- validation/reassignment&#45;validation.ts&#45;&gt;support/let&#45;binding.ts -->
<g id="edge88" class="edge">
<title>validation/reassignment&#45;validation.ts&#45;&gt;support/let&#45;binding.ts</title>
<path fill="none" stroke="#757575" d="M1167.81,-229C1158.95,-229 1153.14,-229 1153.14,-229 1153.14,-229 1153.14,-171 1153.14,-171 1153.14,-171 985.23,-171 985.23,-171"/>
<polygon fill="#757575" stroke="#757575" points="985.23,-167.5 975.23,-171 985.23,-174.5 985.23,-167.5"/>
</g>
<!-- validation/reassignment&#45;validation.ts&#45;&gt;types/types.ts -->
<g id="edge89" class="edge">
<title>validation/reassignment&#45;validation.ts&#45;&gt;types/types.ts</title>
<path fill="none" stroke="#757575" d="M1217.14,-219.92C1217.14,-219.92 1217.14,-194.34 1217.14,-194.34"/>
<polygon fill="#757575" stroke="#757575" points="1220.64,-194.34 1217.14,-184.34 1213.64,-194.34 1220.64,-194.34"/>
</g>
<!-- validation/reassignment&#45;validation.ts&#45;&gt;types/variable&#45;types.ts -->
<g id="edge90" class="edge">
<title>validation/reassignment&#45;validation.ts&#45;&gt;types/variable&#45;types.ts</title>
<path fill="none" stroke="#757575" d="M1183.29,-219.71C1183.29,-212.52 1183.29,-204 1183.29,-204 1183.29,-204 353.17,-204 353.17,-204 353.17,-204 353.17,-84.09 353.17,-84.09"/>
<polygon fill="#757575" stroke="#757575" points="356.67,-84.09 353.17,-74.09 349.67,-84.09 356.67,-84.09"/>
</g>
<!-- validation/reassignment&#45;validation.ts&#45;&gt;parsing/reassignment&#45;parsing.ts -->
<g id="edge87" class="edge">
<title>validation/reassignment&#45;validation.ts&#45;&gt;parsing/reassignment&#45;parsing.ts</title>
<path fill="none" stroke="#757575" d="M1322,-219.98C1322,-217.74 1322,-216 1322,-216 1322,-216 1791.83,-216 1791.83,-216 1791.83,-216 1791.83,-194.13 1791.83,-194.13"/>
<polygon fill="#757575" stroke="#757575" points="1795.33,-194.13 1791.83,-184.13 1788.33,-194.13 1795.33,-194.13"/>
</g>
<!-- validation/validation.ts&#45;&gt;parsing/parser.ts -->
<g id="edge91" class="edge">
<title>validation/validation.ts&#45;&gt;parsing/parser.ts</title>
<path fill="none" stroke="#757575" d="M855.08,-278C916.7,-278 1006.57,-278 1006.57,-278 1006.57,-278 1006.57,-68 1006.57,-68 1006.57,-68 1064.87,-68 1064.87,-68"/>
<polygon fill="#757575" stroke="#757575" points="1064.87,-71.5 1074.87,-68 1064.87,-64.5 1064.87,-71.5"/>
</g>
<!-- validation/validation.ts&#45;&gt;support/let&#45;binding.ts -->
<g id="edge92" class="edge">
<title>validation/validation.ts&#45;&gt;support/let&#45;binding.ts</title>
<path fill="none" stroke="#757575" d="M814.5,-274.67C814.5,-248.31 814.5,-178 814.5,-178 814.5,-178 858,-178 858,-178"/>
<polygon fill="#757575" stroke="#757575" points="858,-181.5 868,-178 858,-174.5 858,-181.5"/>
</g>
<!-- validation/validation.ts&#45;&gt;types/types.ts -->
<g id="edge94" class="edge">
<title>validation/validation.ts&#45;&gt;types/types.ts</title>
<path fill="none" stroke="#757575" d="M855.07,-282C940.79,-282 1093.71,-282 1093.71,-282 1093.71,-282 1093.71,-179 1093.71,-179 1093.71,-179 1161.95,-179 1161.95,-179"/>
<polygon fill="#757575" stroke="#757575" points="1161.95,-182.5 1171.95,-179 1161.95,-175.5 1161.95,-182.5"/>
</g>
<!-- validation/validation.ts&#45;&gt;types/variable&#45;types.ts -->
<g id="edge95" class="edge">
<title>validation/validation.ts&#45;&gt;types/variable&#45;types.ts</title>
<path fill="none" stroke="#757575" d="M741.56,-284C613.61,-284 314.5,-284 314.5,-284 314.5,-284 314.5,-84.21 314.5,-84.21"/>
<polygon fill="#757575" stroke="#757575" points="318,-84.21 314.5,-74.21 311,-84.21 318,-84.21"/>
</g>
<!-- validation/validation.ts&#45;&gt;types/type&#45;inference&#45;helpers.ts -->
<g id="edge93" class="edge">
<title>validation/validation.ts&#45;&gt;types/type&#45;inference&#45;helpers.ts</title>
<path fill="none" stroke="#757575" d="M783,-274.67C783,-274.67 783,-139.07 783,-139.07"/>
<polygon fill="#757575" stroke="#757575" points="786.5,-139.07 783,-129.07 779.5,-139.07 786.5,-139.07"/>
</g>
<!-- validation/function&#45;validation.ts -->
<g id="node27" class="node">
<title>validation/function&#45;validation.ts</title>
<path fill="none" stroke="#c6c5fe" d="M990.67,-239C990.67,-239 852.33,-239 852.33,-239 849.17,-239 846,-235.83 846,-232.67 846,-232.67 846,-226.33 846,-226.33 846,-223.17 849.17,-220 852.33,-220 852.33,-220 990.67,-220 990.67,-220 993.83,-220 997,-223.17 997,-226.33 997,-226.33 997,-232.67 997,-232.67 997,-235.83 993.83,-239 990.67,-239"/>
<text text-anchor="middle" x="921.5" y="-227" font-family="Arial" font-size="10.00" fill="#c6c5fe">validation/function&#45;validation.ts</text>
</g>
<!-- validation/validation.ts&#45;&gt;validation/function&#45;validation.ts -->
<g id="edge96" class="edge">
<title>validation/validation.ts&#45;&gt;validation/function&#45;validation.ts</title>
<path fill="none" stroke="#757575" d="M850.5,-274.92C850.5,-274.92 850.5,-249.34 850.5,-249.34"/>
<polygon fill="#757575" stroke="#757575" points="854,-249.34 850.5,-239.34 847,-249.34 854,-249.34"/>
</g>
<!-- compilation/instruction&#45;primitives.ts&#45;&gt;core/vm.ts -->
<g id="edge31" class="edge">
<title>compilation/instruction&#45;primitives.ts&#45;&gt;core/vm.ts</title>
<path fill="none" stroke="#757575" d="M1668.25,-109.74C1668.25,-109.74 1668.25,-29.08 1668.25,-29.08"/>
<polygon fill="#757575" stroke="#757575" points="1671.75,-29.08 1668.25,-19.08 1664.75,-29.08 1671.75,-29.08"/>
</g>
<!-- parsing/expression&#45;with&#45;context.ts&#45;&gt;core/vm.ts -->
<g id="edge37" class="edge">
<title>parsing/expression&#45;with&#45;context.ts&#45;&gt;core/vm.ts</title>
<path fill="none" stroke="#757575" d="M1628.81,-284C1739.98,-284 1923,-284 1923,-284 1923,-284 1923,-11 1923,-11 1923,-11 1699.26,-11 1699.26,-11"/>
<polygon fill="#757575" stroke="#757575" points="1699.26,-7.5 1689.26,-11 1699.26,-14.5 1699.26,-7.5"/>
</g>
<!-- parsing/expression&#45;with&#45;context.ts&#45;&gt;parsing/arithmetic&#45;parsing.ts -->
<g id="edge38" class="edge">
<title>parsing/expression&#45;with&#45;context.ts&#45;&gt;parsing/arithmetic&#45;parsing.ts</title>
<path fill="none" stroke="#757575" d="M1545.5,-274.92C1545.5,-274.92 1545.5,-249.34 1545.5,-249.34"/>
<polygon fill="#757575" stroke="#757575" points="1549,-249.34 1545.5,-239.34 1542,-249.34 1549,-249.34"/>
</g>
<!-- parsing/expression&#45;with&#45;context.ts&#45;&gt;parsing/parser.ts -->
<g id="edge40" class="edge">
<title>parsing/expression&#45;with&#45;context.ts&#45;&gt;parsing/parser.ts</title>
<path fill="none" stroke="#757575" d="M1462.47,-290C1322.45,-290 1054.43,-290 1054.43,-290 1054.43,-290 1054.43,-72 1054.43,-72 1054.43,-72 1064.66,-72 1064.66,-72"/>
<polygon fill="#757575" stroke="#757575" points="1064.66,-75.5 1074.66,-72 1064.66,-68.5 1064.66,-75.5"/>
</g>
<!-- parsing/expression&#45;with&#45;context.ts&#45;&gt;support/let&#45;binding.ts -->
<g id="edge41" class="edge">
<title>parsing/expression&#45;with&#45;context.ts&#45;&gt;support/let&#45;binding.ts</title>
<path fill="none" stroke="#757575" d="M1462.11,-286C1342.98,-286 1138.29,-286 1138.29,-286 1138.29,-286 1138.29,-173 1138.29,-173 1138.29,-173 985.09,-173 985.09,-173"/>
<polygon fill="#757575" stroke="#757575" points="985.09,-169.5 975.09,-173 985.09,-176.5 985.09,-169.5"/>
</g>
<!-- parsing/expression&#45;with&#45;context.ts&#45;&gt;types/types.ts -->
<g id="edge42" class="edge">
<title>parsing/expression&#45;with&#45;context.ts&#45;&gt;types/types.ts</title>
<path fill="none" stroke="#757575" d="M1467.7,-274.95C1467.7,-251.32 1467.7,-192 1467.7,-192 1467.7,-192 1228.43,-192 1228.43,-192 1228.43,-192 1228.43,-191.21 1228.43,-191.21"/>
<polygon fill="#757575" stroke="#757575" points="1231.93,-194.07 1228.43,-184.07 1224.93,-194.07 1231.93,-194.07"/>
</g>
<!-- parsing/expression&#45;with&#45;context.ts&#45;&gt;types/variable&#45;types.ts -->
<g id="edge43" class="edge">
<title>parsing/expression&#45;with&#45;context.ts&#45;&gt;types/variable&#45;types.ts</title>
<path fill="none" stroke="#757575" d="M1465.1,-274.88C1465.1,-266.95 1465.1,-257 1465.1,-257 1465.1,-257 333.83,-257 333.83,-257 333.83,-257 333.83,-84.05 333.83,-84.05"/>
<polygon fill="#757575" stroke="#757575" points="337.33,-84.05 333.83,-74.05 330.33,-84.05 337.33,-84.05"/>
</g>
<!-- parsing/expression&#45;with&#45;context.ts&#45;&gt;parsing/operator&#45;parsing.ts -->
<g id="edge39" class="edge">
<title>parsing/expression&#45;with&#45;context.ts&#45;&gt;parsing/operator&#45;parsing.ts</title>
<path fill="none" stroke="#757575" d="M1470.3,-274.74C1470.3,-274.74 1470.3,-194.08 1470.3,-194.08"/>
<polygon fill="#757575" stroke="#757575" points="1473.8,-194.08 1470.3,-184.08 1466.8,-194.08 1473.8,-194.08"/>
</g>
<!-- parsing/reassignment&#45;parsing.ts&#45;&gt;core/vm.ts -->
<g id="edge54" class="edge">
<title>parsing/reassignment&#45;parsing.ts&#45;&gt;core/vm.ts</title>
<path fill="none" stroke="#757575" d="M1883.83,-164.52C1883.83,-129.6 1883.83,-15 1883.83,-15 1883.83,-15 1699.45,-15 1699.45,-15"/>
<polygon fill="#757575" stroke="#757575" points="1699.45,-11.5 1689.45,-15 1699.45,-18.5 1699.45,-11.5"/>
</g>
<!-- parsing/reassignment&#45;parsing.ts&#45;&gt;parsing/parser.ts -->
<g id="edge55" class="edge">
<title>parsing/reassignment&#45;parsing.ts&#45;&gt;parsing/parser.ts</title>
<path fill="none" stroke="#757575" d="M1850.67,-164.69C1850.67,-141.65 1850.67,-86 1850.67,-86 1850.67,-86 1138.57,-86 1138.57,-86 1138.57,-86 1138.57,-84.24 1138.57,-84.24"/>
<polygon fill="#757575" stroke="#757575" points="1142.07,-84.24 1138.57,-74.24 1135.07,-84.24 1142.07,-84.24"/>
</g>
<!-- parsing/reassignment&#45;parsing.ts&#45;&gt;compilation/instruction&#45;primitives.ts -->
<g id="edge53" class="edge">
<title>parsing/reassignment&#45;parsing.ts&#45;&gt;compilation/instruction&#45;primitives.ts</title>
<path fill="none" stroke="#757575" d="M1789.75,-164.92C1789.75,-164.92 1789.75,-139.34 1789.75,-139.34"/>
<polygon fill="#757575" stroke="#757575" points="1793.25,-139.34 1789.75,-129.34 1786.25,-139.34 1793.25,-139.34"/>
</g>
<!-- parsing/slice&#45;parsing.ts&#45;&gt;core/vm.ts -->
<g id="edge57" class="edge">
<title>parsing/slice&#45;parsing.ts&#45;&gt;core/vm.ts</title>
<path fill="none" stroke="#757575" d="M2022.75,-164.79C2022.75,-128.51 2022.75,-3 2022.75,-3 2022.75,-3 1699.27,-3 1699.27,-3"/>
<polygon fill="#757575" stroke="#757575" points="1699.27,0.5 1689.27,-3 1699.27,-6.5 1699.27,0.5"/>
</g>
<!-- parsing/slice&#45;parsing.ts&#45;&gt;parsing/parser.ts -->
<g id="edge58" class="edge">
<title>parsing/slice&#45;parsing.ts&#45;&gt;parsing/parser.ts</title>
<path fill="none" stroke="#757575" d="M1993.5,-164.74C1993.5,-140.6 1993.5,-80 1993.5,-80 1993.5,-80 1151.29,-80 1151.29,-80 1151.29,-80 1151.29,-79.41 1151.29,-79.41"/>
<polygon fill="#757575" stroke="#757575" points="1154.79,-84.05 1151.29,-74.05 1147.79,-84.05 1154.79,-84.05"/>
</g>
<!-- parsing/slice&#45;parsing.ts&#45;&gt;compilation/instruction&#45;primitives.ts -->
<g id="edge56" class="edge">
<title>parsing/slice&#45;parsing.ts&#45;&gt;compilation/instruction&#45;primitives.ts</title>
<path fill="none" stroke="#757575" d="M1964.25,-164.83C1964.25,-148.93 1964.25,-119 1964.25,-119 1964.25,-119 1827.81,-119 1827.81,-119"/>
<polygon fill="#757575" stroke="#757575" points="1827.81,-115.5 1817.81,-119 1827.81,-122.5 1827.81,-115.5"/>
</g>
<!-- parsing/function&#45;parsing.ts&#45;&gt;parsing/parser.ts -->
<g id="edge50" class="edge">
<title>parsing/function&#45;parsing.ts&#45;&gt;parsing/parser.ts</title>
<path fill="none" stroke="#757575" d="M505.5,-109.75C505.5,-93.34 505.5,-62 505.5,-62 505.5,-62 1064.85,-62 1064.85,-62"/>
<polygon fill="#757575" stroke="#757575" points="1064.85,-65.5 1074.85,-62 1064.85,-58.5 1064.85,-65.5"/>
</g>
<!-- parsing/operator&#45;parsing.ts&#45;&gt;parsing/parser.ts -->
<g id="edge51" class="edge">
<title>parsing/operator&#45;parsing.ts&#45;&gt;parsing/parser.ts</title>
<path fill="none" stroke="#757575" d="M1411.5,-164.81C1411.5,-144.23 1411.5,-98 1411.5,-98 1411.5,-98 1113.14,-98 1113.14,-98 1113.14,-98 1113.14,-84.01 1113.14,-84.01"/>
<polygon fill="#757575" stroke="#757575" points="1116.64,-84.01 1113.14,-74.01 1109.64,-84.01 1116.64,-84.01"/>
</g>
<!-- support/helpers.ts&#45;&gt;core/vm.ts -->
<g id="edge63" class="edge">
<title>support/helpers.ts&#45;&gt;core/vm.ts</title>
<path fill="none" stroke="#757575" d="M1633.17,-164.67C1633.17,-164.67 1633.17,-29.07 1633.17,-29.07"/>
<polygon fill="#757575" stroke="#757575" points="1636.67,-29.07 1633.17,-19.07 1629.67,-29.07 1636.67,-29.07"/>
</g>
<!-- support/helpers.ts&#45;&gt;compilation/instruction&#45;primitives.ts -->
<g id="edge62" class="edge">
<title>support/helpers.ts&#45;&gt;compilation/instruction&#45;primitives.ts</title>
<path fill="none" stroke="#757575" d="M1685.83,-164.92C1685.83,-164.92 1685.83,-139.34 1685.83,-139.34"/>
<polygon fill="#757575" stroke="#757575" points="1689.33,-139.34 1685.83,-129.34 1682.33,-139.34 1689.33,-139.34"/>
</g>
<!-- types/array&#45;helpers.ts&#45;&gt;parsing/parser.ts -->
<g id="edge73" class="edge">
<title>types/array&#45;helpers.ts&#45;&gt;parsing/parser.ts</title>
<path fill="none" stroke="#757575" d="M1100.43,-109.92C1100.43,-109.92 1100.43,-84.34 1100.43,-84.34"/>
<polygon fill="#757575" stroke="#757575" points="1103.93,-84.34 1100.43,-74.34 1096.93,-84.34 1103.93,-84.34"/>
</g>
<!-- types/array&#45;helpers.ts&#45;&gt;types/variable&#45;types.ts -->
<g id="edge74" class="edge">
<title>types/array&#45;helpers.ts&#45;&gt;types/variable&#45;types.ts</title>
<path fill="none" stroke="#757575" d="M1063.71,-119C1025.73,-119 982.33,-119 982.33,-119 982.33,-119 982.33,-56 982.33,-56 982.33,-56 382.6,-56 382.6,-56"/>
<polygon fill="#757575" stroke="#757575" points="382.6,-52.5 372.6,-56 382.6,-59.5 382.6,-52.5"/>
</g>
<!-- types/array&#45;helpers.ts&#45;&gt;parsing/array&#45;parsing.ts -->
<g id="edge72" class="edge">
<title>types/array&#45;helpers.ts&#45;&gt;parsing/array&#45;parsing.ts</title>
<path fill="none" stroke="#757575" d="M1169.5,-109.84C1169.5,-93.22 1169.5,-61 1169.5,-61 1169.5,-61 1171.71,-61 1171.71,-61"/>
<polygon fill="#757575" stroke="#757575" points="1171.71,-64.5 1181.71,-61 1171.71,-57.5 1171.71,-64.5"/>
</g>
<!-- types/type&#45;inference&#45;helpers.ts&#45;&gt;parsing/parser.ts -->
<g id="edge75" class="edge">
<title>types/type&#45;inference&#45;helpers.ts&#45;&gt;parsing/parser.ts</title>
<path fill="none" stroke="#757575" d="M779.5,-109.76C779.5,-94.08 779.5,-65 779.5,-65 779.5,-65 1064.7,-65 1064.7,-65"/>
<polygon fill="#757575" stroke="#757575" points="1064.7,-68.5 1074.7,-65 1064.7,-61.5 1064.7,-68.5"/>
</g>
<!-- validation/function&#45;validation.ts&#45;&gt;support/function&#45;context.ts -->
<g id="edge80" class="edge">
<title>validation/function&#45;validation.ts&#45;&gt;support/function&#45;context.ts</title>
<path fill="none" stroke="#757575" d="M861.5,-219.92C861.5,-203.8 861.5,-173 861.5,-173 861.5,-173 543.06,-173 543.06,-173"/>
<polygon fill="#757575" stroke="#757575" points="543.06,-169.5 533.06,-173 543.06,-176.5 543.06,-169.5"/>
</g>
<!-- validation/function&#45;validation.ts&#45;&gt;support/let&#45;binding.ts -->
<g id="edge81" class="edge">
<title>validation/function&#45;validation.ts&#45;&gt;support/let&#45;binding.ts</title>
<path fill="none" stroke="#757575" d="M939.33,-219.92C939.33,-219.92 939.33,-194.34 939.33,-194.34"/>
<polygon fill="#757575" stroke="#757575" points="942.83,-194.34 939.33,-184.34 935.83,-194.34 942.83,-194.34"/>
</g>
<!-- validation/function&#45;validation.ts&#45;&gt;types/types.ts -->
<g id="edge82" class="edge">
<title>validation/function&#45;validation.ts&#45;&gt;types/types.ts</title>
<path fill="none" stroke="#757575" d="M989.67,-219.78C989.67,-202.68 989.67,-169 989.67,-169 989.67,-169 1161.84,-169 1161.84,-169"/>
<polygon fill="#757575" stroke="#757575" points="1161.84,-172.5 1171.84,-169 1161.84,-165.5 1161.84,-172.5"/>
</g>
</g>
</svg>
