<?xml version="1.0" encoding="UTF-8" standalone="no"?>
<!DOCTYPE svg PUBLIC "-//W3C//DTD SVG 1.1//EN"
 "http://www.w3.org/Graphics/SVG/1.1/DTD/svg11.dtd">
<!-- Generated by graphviz version 2.43.0 (0)
 -->
<!-- Title: G Pages: 1 -->
<svg width="3207pt" height="833pt"
 viewBox="0.00 0.00 3207.20 833.20" xmlns="http://www.w3.org/2000/svg" xmlns:xlink="http://www.w3.org/1999/xlink">
<g id="graph0" class="graph" transform="scale(1 1) rotate(0) translate(21.6 811.6)">
<title>G</title>
<polygon fill="#111111" stroke="transparent" points="-21.6,21.6 -21.6,-811.6 3185.6,-811.6 3185.6,21.6 -21.6,21.6"/>
<!-- src/app.ts -->
<g id="node1" class="node">
<title>src/app.ts</title>
<path fill="none" stroke="#c6c5fe" d="M1362.33,-672C1362.33,-672 1302.67,-672 1302.67,-672 1298.83,-672 1295,-668.17 1295,-664.33 1295,-664.33 1295,-656.67 1295,-656.67 1295,-652.83 1298.83,-649 1302.67,-649 1302.67,-649 1362.33,-649 1362.33,-649 1366.17,-649 1370,-652.83 1370,-656.67 1370,-656.67 1370,-664.33 1370,-664.33 1370,-668.17 1366.17,-672 1362.33,-672"/>
<text text-anchor="middle" x="1332.5" y="-656.8" font-family="Arial" font-size="14.00" fill="#c6c5fe">src/app.ts</text>
</g>
<!-- src/expressions/grouped&#45;expressions.ts -->
<g id="node2" class="node">
<title>src/expressions/grouped&#45;expressions.ts</title>
<path fill="none" stroke="#c6c5fe" d="M1896.83,-554C1896.83,-554 1658.17,-554 1658.17,-554 1654.33,-554 1650.5,-550.17 1650.5,-546.33 1650.5,-546.33 1650.5,-538.67 1650.5,-538.67 1650.5,-534.83 1654.33,-531 1658.17,-531 1658.17,-531 1896.83,-531 1896.83,-531 1900.67,-531 1904.5,-534.83 1904.5,-538.67 1904.5,-538.67 1904.5,-546.33 1904.5,-546.33 1904.5,-550.17 1900.67,-554 1896.83,-554"/>
<text text-anchor="middle" x="1777.5" y="-538.8" font-family="Arial" font-size="14.00" fill="#c6c5fe">src/expressions/grouped&#45;expressions.ts</text>
</g>
<!-- src/app.ts&#45;&gt;src/expressions/grouped&#45;expressions.ts -->
<g id="edge1" class="edge">
<title>src/app.ts&#45;&gt;src/expressions/grouped&#45;expressions.ts</title>
<path fill="none" stroke="#757575" d="M1370.16,-654C1459.2,-654 1675.25,-654 1675.25,-654 1675.25,-654 1675.25,-564.01 1675.25,-564.01"/>
<polygon fill="#757575" stroke="#757575" points="1678.75,-564.01 1675.25,-554.01 1671.75,-564.01 1678.75,-564.01"/>
</g>
<!-- src/expressions/handlers.ts -->
<g id="node3" class="node">
<title>src/expressions/handlers.ts</title>
<path fill="none" stroke="#c6c5fe" d="M1550.83,-259C1550.83,-259 1386.17,-259 1386.17,-259 1382.33,-259 1378.5,-255.17 1378.5,-251.33 1378.5,-251.33 1378.5,-243.67 1378.5,-243.67 1378.5,-239.83 1382.33,-236 1386.17,-236 1386.17,-236 1550.83,-236 1550.83,-236 1554.67,-236 1558.5,-239.83 1558.5,-243.67 1558.5,-243.67 1558.5,-251.33 1558.5,-251.33 1558.5,-255.17 1554.67,-259 1550.83,-259"/>
<text text-anchor="middle" x="1468.5" y="-243.8" font-family="Arial" font-size="14.00" fill="#c6c5fe">src/expressions/handlers.ts</text>
</g>
<!-- src/app.ts&#45;&gt;src/expressions/handlers.ts -->
<g id="edge2" class="edge">
<title>src/app.ts&#45;&gt;src/expressions/handlers.ts</title>
<path fill="none" stroke="#757575" d="M1370.02,-651C1391.1,-651 1413.21,-651 1413.21,-651 1413.21,-651 1413.21,-269.14 1413.21,-269.14"/>
<polygon fill="#757575" stroke="#757575" points="1416.71,-269.14 1413.21,-259.14 1409.71,-269.14 1416.71,-269.14"/>
</g>
<!-- src/expressions/operators/binary&#45;operation.ts -->
<g id="node4" class="node">
<title>src/expressions/operators/binary&#45;operation.ts</title>
<path fill="none" stroke="#c6c5fe" d="M616.33,-554C616.33,-554 344.67,-554 344.67,-554 340.83,-554 337,-550.17 337,-546.33 337,-546.33 337,-538.67 337,-538.67 337,-534.83 340.83,-531 344.67,-531 344.67,-531 616.33,-531 616.33,-531 620.17,-531 624,-534.83 624,-538.67 624,-538.67 624,-546.33 624,-546.33 624,-550.17 620.17,-554 616.33,-554"/>
<text text-anchor="middle" x="480.5" y="-538.8" font-family="Arial" font-size="14.00" fill="#c6c5fe">src/expressions/operators/binary&#45;operation.ts</text>
</g>
<!-- src/app.ts&#45;&gt;src/expressions/operators/binary&#45;operation.ts -->
<g id="edge3" class="edge">
<title>src/app.ts&#45;&gt;src/expressions/operators/binary&#45;operation.ts</title>
<path fill="none" stroke="#757575" d="M1294.84,-668C1138.19,-668 546.25,-668 546.25,-668 546.25,-668 546.25,-564.08 546.25,-564.08"/>
<polygon fill="#757575" stroke="#757575" points="549.75,-564.08 546.25,-554.08 542.75,-564.08 549.75,-564.08"/>
</g>
<!-- src/handlers/dereference&#45;assignment.ts -->
<g id="node5" class="node">
<title>src/handlers/dereference&#45;assignment.ts</title>
<path fill="none" stroke="#c6c5fe" d="M2596.83,-495C2596.83,-495 2358.17,-495 2358.17,-495 2354.33,-495 2350.5,-491.17 2350.5,-487.33 2350.5,-487.33 2350.5,-479.67 2350.5,-479.67 2350.5,-475.83 2354.33,-472 2358.17,-472 2358.17,-472 2596.83,-472 2596.83,-472 2600.67,-472 2604.5,-475.83 2604.5,-479.67 2604.5,-479.67 2604.5,-487.33 2604.5,-487.33 2604.5,-491.17 2600.67,-495 2596.83,-495"/>
<text text-anchor="middle" x="2477.5" y="-479.8" font-family="Arial" font-size="14.00" fill="#c6c5fe">src/handlers/dereference&#45;assignment.ts</text>
</g>
<!-- src/app.ts&#45;&gt;src/handlers/dereference&#45;assignment.ts -->
<g id="edge4" class="edge">
<title>src/app.ts&#45;&gt;src/handlers/dereference&#45;assignment.ts</title>
<path fill="none" stroke="#757575" d="M1370.21,-663C1561.84,-663 2418.75,-663 2418.75,-663 2418.75,-663 2418.75,-505 2418.75,-505"/>
<polygon fill="#757575" stroke="#757575" points="2422.25,-505 2418.75,-495 2415.25,-505 2422.25,-505"/>
</g>
<!-- src/handlers/lambda&#45;expressions.ts -->
<g id="node6" class="node">
<title>src/handlers/lambda&#45;expressions.ts</title>
<path fill="none" stroke="#c6c5fe" d="M2844.83,-495C2844.83,-495 2630.17,-495 2630.17,-495 2626.33,-495 2622.5,-491.17 2622.5,-487.33 2622.5,-487.33 2622.5,-479.67 2622.5,-479.67 2622.5,-475.83 2626.33,-472 2630.17,-472 2630.17,-472 2844.83,-472 2844.83,-472 2848.67,-472 2852.5,-475.83 2852.5,-479.67 2852.5,-479.67 2852.5,-487.33 2852.5,-487.33 2852.5,-491.17 2848.67,-495 2844.83,-495"/>
<text text-anchor="middle" x="2737.5" y="-479.8" font-family="Arial" font-size="14.00" fill="#c6c5fe">src/handlers/lambda&#45;expressions.ts</text>
</g>
<!-- src/app.ts&#45;&gt;src/handlers/lambda&#45;expressions.ts -->
<g id="edge5" class="edge">
<title>src/app.ts&#45;&gt;src/handlers/lambda&#45;expressions.ts</title>
<path fill="none" stroke="#757575" d="M1370.08,-666C1593.51,-666 2737.5,-666 2737.5,-666 2737.5,-666 2737.5,-505.19 2737.5,-505.19"/>
<polygon fill="#757575" stroke="#757575" points="2741,-505.19 2737.5,-495.19 2734,-505.19 2741,-505.19"/>
</g>
<!-- src/handlers/module&#45;access.ts -->
<g id="node7" class="node">
<title>src/handlers/module&#45;access.ts</title>
<path fill="none" stroke="#c6c5fe" d="M1198.83,-495C1198.83,-495 1014.17,-495 1014.17,-495 1010.33,-495 1006.5,-491.17 1006.5,-487.33 1006.5,-487.33 1006.5,-479.67 1006.5,-479.67 1006.5,-475.83 1010.33,-472 1014.17,-472 1014.17,-472 1198.83,-472 1198.83,-472 1202.67,-472 1206.5,-475.83 1206.5,-479.67 1206.5,-479.67 1206.5,-487.33 1206.5,-487.33 1206.5,-491.17 1202.67,-495 1198.83,-495"/>
<text text-anchor="middle" x="1106.5" y="-479.8" font-family="Arial" font-size="14.00" fill="#c6c5fe">src/handlers/module&#45;access.ts</text>
</g>
<!-- src/app.ts&#45;&gt;src/handlers/module&#45;access.ts -->
<g id="edge6" class="edge">
<title>src/app.ts&#45;&gt;src/handlers/module&#45;access.ts</title>
<path fill="none" stroke="#757575" d="M1294.96,-652C1239.59,-652 1142.5,-652 1142.5,-652 1142.5,-652 1142.5,-505.08 1142.5,-505.08"/>
<polygon fill="#757575" stroke="#757575" points="1146,-505.08 1142.5,-495.08 1139,-505.08 1146,-505.08"/>
</g>
<!-- src/handlers/pointer&#45;operations.ts -->
<g id="node8" class="node">
<title>src/handlers/pointer&#45;operations.ts</title>
<path fill="none" stroke="#c6c5fe" d="M2264.33,-436C2264.33,-436 2062.67,-436 2062.67,-436 2058.83,-436 2055,-432.17 2055,-428.33 2055,-428.33 2055,-420.67 2055,-420.67 2055,-416.83 2058.83,-413 2062.67,-413 2062.67,-413 2264.33,-413 2264.33,-413 2268.17,-413 2272,-416.83 2272,-420.67 2272,-420.67 2272,-428.33 2272,-428.33 2272,-432.17 2268.17,-436 2264.33,-436"/>
<text text-anchor="middle" x="2163.5" y="-420.8" font-family="Arial" font-size="14.00" fill="#c6c5fe">src/handlers/pointer&#45;operations.ts</text>
</g>
<!-- src/app.ts&#45;&gt;src/handlers/pointer&#45;operations.ts -->
<g id="edge7" class="edge">
<title>src/app.ts&#45;&gt;src/handlers/pointer&#45;operations.ts</title>
<path fill="none" stroke="#757575" d="M1366.33,-648.75C1366.33,-601.78 1366.33,-430 1366.33,-430 1366.33,-430 2044.75,-430 2044.75,-430"/>
<polygon fill="#757575" stroke="#757575" points="2044.75,-433.5 2054.75,-430 2044.75,-426.5 2044.75,-433.5"/>
</g>
<!-- src/loops/for.ts -->
<g id="node9" class="node">
<title>src/loops/for.ts</title>
<path fill="none" stroke="#c6c5fe" d="M1055.83,-613C1055.83,-613 967.17,-613 967.17,-613 963.33,-613 959.5,-609.17 959.5,-605.33 959.5,-605.33 959.5,-597.67 959.5,-597.67 959.5,-593.83 963.33,-590 967.17,-590 967.17,-590 1055.83,-590 1055.83,-590 1059.67,-590 1063.5,-593.83 1063.5,-597.67 1063.5,-597.67 1063.5,-605.33 1063.5,-605.33 1063.5,-609.17 1059.67,-613 1055.83,-613"/>
<text text-anchor="middle" x="1011.5" y="-597.8" font-family="Arial" font-size="14.00" fill="#c6c5fe">src/loops/for.ts</text>
</g>
<!-- src/app.ts&#45;&gt;src/loops/for.ts -->
<g id="edge8" class="edge">
<title>src/app.ts&#45;&gt;src/loops/for.ts</title>
<path fill="none" stroke="#757575" d="M1294.87,-655C1214.43,-655 1033,-655 1033,-655 1033,-655 1033,-623.11 1033,-623.11"/>
<polygon fill="#757575" stroke="#757575" points="1036.5,-623.11 1033,-613.11 1029.5,-623.11 1036.5,-623.11"/>
</g>
<!-- src/loops/loop.ts -->
<g id="node10" class="node">
<title>src/loops/loop.ts</title>
<path fill="none" stroke="#cfffac" d="M786.83,-554C786.83,-554 688.17,-554 688.17,-554 684.33,-554 680.5,-550.17 680.5,-546.33 680.5,-546.33 680.5,-538.67 680.5,-538.67 680.5,-534.83 684.33,-531 688.17,-531 688.17,-531 786.83,-531 786.83,-531 790.67,-531 794.5,-534.83 794.5,-538.67 794.5,-538.67 794.5,-546.33 794.5,-546.33 794.5,-550.17 790.67,-554 786.83,-554"/>
<text text-anchor="middle" x="737.5" y="-538.8" font-family="Arial" font-size="14.00" fill="#cfffac">src/loops/loop.ts</text>
</g>
<!-- src/app.ts&#45;&gt;src/loops/loop.ts -->
<g id="edge9" class="edge">
<title>src/app.ts&#45;&gt;src/loops/loop.ts</title>
<path fill="none" stroke="#757575" d="M1294.9,-662C1160.1,-662 709,-662 709,-662 709,-662 709,-564.4 709,-564.4"/>
<polygon fill="#757575" stroke="#757575" points="712.5,-564.39 709,-554.4 705.5,-564.4 712.5,-564.39"/>
</g>
<!-- src/loops/while.ts -->
<g id="node11" class="node">
<title>src/loops/while.ts</title>
<path fill="none" stroke="#c6c5fe" d="M929.33,-613C929.33,-613 825.67,-613 825.67,-613 821.83,-613 818,-609.17 818,-605.33 818,-605.33 818,-597.67 818,-597.67 818,-593.83 821.83,-590 825.67,-590 825.67,-590 929.33,-590 929.33,-590 933.17,-590 937,-593.83 937,-597.67 937,-597.67 937,-605.33 937,-605.33 937,-609.17 933.17,-613 929.33,-613"/>
<text text-anchor="middle" x="877.5" y="-597.8" font-family="Arial" font-size="14.00" fill="#c6c5fe">src/loops/while.ts</text>
</g>
<!-- src/app.ts&#45;&gt;src/loops/while.ts -->
<g id="edge10" class="edge">
<title>src/app.ts&#45;&gt;src/loops/while.ts</title>
<path fill="none" stroke="#757575" d="M1294.84,-658C1186.51,-658 881.75,-658 881.75,-658 881.75,-658 881.75,-623.21 881.75,-623.21"/>
<polygon fill="#757575" stroke="#757575" points="885.25,-623.21 881.75,-613.21 878.25,-623.21 885.25,-623.21"/>
</g>
<!-- src/match.ts -->
<g id="node12" class="node">
<title>src/match.ts</title>
<path fill="none" stroke="#cfffac" d="M2248.83,-495C2248.83,-495 2174.17,-495 2174.17,-495 2170.33,-495 2166.5,-491.17 2166.5,-487.33 2166.5,-487.33 2166.5,-479.67 2166.5,-479.67 2166.5,-475.83 2170.33,-472 2174.17,-472 2174.17,-472 2248.83,-472 2248.83,-472 2252.67,-472 2256.5,-475.83 2256.5,-479.67 2256.5,-479.67 2256.5,-487.33 2256.5,-487.33 2256.5,-491.17 2252.67,-495 2248.83,-495"/>
<text text-anchor="middle" x="2211.5" y="-479.8" font-family="Arial" font-size="14.00" fill="#cfffac">src/match.ts</text>
</g>
<!-- src/app.ts&#45;&gt;src/match.ts -->
<g id="edge11" class="edge">
<title>src/app.ts&#45;&gt;src/match.ts</title>
<path fill="none" stroke="#757575" d="M1370.06,-660C1539.74,-660 2226.5,-660 2226.5,-660 2226.5,-660 2226.5,-505.08 2226.5,-505.08"/>
<polygon fill="#757575" stroke="#757575" points="2230,-505.08 2226.5,-495.08 2223,-505.08 2230,-505.08"/>
</g>
<!-- src/parser.ts -->
<g id="node13" class="node">
<title>src/parser.ts</title>
<path fill="none" stroke="#c6c5fe" d="M754.83,-141C754.83,-141 680.17,-141 680.17,-141 676.33,-141 672.5,-137.17 672.5,-133.33 672.5,-133.33 672.5,-125.67 672.5,-125.67 672.5,-121.83 676.33,-118 680.17,-118 680.17,-118 754.83,-118 754.83,-118 758.67,-118 762.5,-121.83 762.5,-125.67 762.5,-125.67 762.5,-133.33 762.5,-133.33 762.5,-137.17 758.67,-141 754.83,-141"/>
<text text-anchor="middle" x="717.5" y="-125.8" font-family="Arial" font-size="14.00" fill="#c6c5fe">src/parser.ts</text>
</g>
<!-- src/app.ts&#45;&gt;src/parser.ts -->
<g id="edge12" class="edge">
<title>src/app.ts&#45;&gt;src/parser.ts</title>
<path fill="none" stroke="#757575" d="M1294.99,-665C1156.02,-665 678.5,-665 678.5,-665 678.5,-665 678.5,-151.18 678.5,-151.18"/>
<polygon fill="#757575" stroke="#757575" points="682,-151.18 678.5,-141.18 675,-151.18 682,-151.18"/>
</g>
<!-- src/scope.ts -->
<g id="node14" class="node">
<title>src/scope.ts</title>
<path fill="none" stroke="#c6c5fe" d="M2993.33,-554C2993.33,-554 2919.67,-554 2919.67,-554 2915.83,-554 2912,-550.17 2912,-546.33 2912,-546.33 2912,-538.67 2912,-538.67 2912,-534.83 2915.83,-531 2919.67,-531 2919.67,-531 2993.33,-531 2993.33,-531 2997.17,-531 3001,-534.83 3001,-538.67 3001,-538.67 3001,-546.33 3001,-546.33 3001,-550.17 2997.17,-554 2993.33,-554"/>
<text text-anchor="middle" x="2956.5" y="-538.8" font-family="Arial" font-size="14.00" fill="#c6c5fe">src/scope.ts</text>
</g>
<!-- src/app.ts&#45;&gt;src/scope.ts -->
<g id="edge13" class="edge">
<title>src/app.ts&#45;&gt;src/scope.ts</title>
<path fill="none" stroke="#757575" d="M1370.25,-669C1614.09,-669 2956.5,-669 2956.5,-669 2956.5,-669 2956.5,-564.17 2956.5,-564.17"/>
<polygon fill="#757575" stroke="#757575" points="2960,-564.17 2956.5,-554.17 2953,-564.17 2960,-564.17"/>
</g>
<!-- src/utils/app&#45;handlers.ts -->
<g id="node15" class="node">
<title>src/utils/app&#45;handlers.ts</title>
<path fill="none" stroke="#c6c5fe" d="M1351.33,-613C1351.33,-613 1207.67,-613 1207.67,-613 1203.83,-613 1200,-609.17 1200,-605.33 1200,-605.33 1200,-597.67 1200,-597.67 1200,-593.83 1203.83,-590 1207.67,-590 1207.67,-590 1351.33,-590 1351.33,-590 1355.17,-590 1359,-593.83 1359,-597.67 1359,-597.67 1359,-605.33 1359,-605.33 1359,-609.17 1355.17,-613 1351.33,-613"/>
<text text-anchor="middle" x="1279.5" y="-597.8" font-family="Arial" font-size="14.00" fill="#c6c5fe">src/utils/app&#45;handlers.ts</text>
</g>
<!-- src/app.ts&#45;&gt;src/utils/app&#45;handlers.ts -->
<g id="edge14" class="edge">
<title>src/app.ts&#45;&gt;src/utils/app&#45;handlers.ts</title>
<path fill="none" stroke="#757575" d="M1327,-648.84C1327,-648.84 1327,-623.13 1327,-623.13"/>
<polygon fill="#757575" stroke="#757575" points="1330.5,-623.13 1327,-613.13 1323.5,-623.13 1330.5,-623.13"/>
</g>
<!-- src/utils/array.ts -->
<g id="node16" class="node">
<title>src/utils/array.ts</title>
<path fill="none" stroke="#c6c5fe" d="M1997.83,-82C1997.83,-82 1903.17,-82 1903.17,-82 1899.33,-82 1895.5,-78.17 1895.5,-74.33 1895.5,-74.33 1895.5,-66.67 1895.5,-66.67 1895.5,-62.83 1899.33,-59 1903.17,-59 1903.17,-59 1997.83,-59 1997.83,-59 2001.67,-59 2005.5,-62.83 2005.5,-66.67 2005.5,-66.67 2005.5,-74.33 2005.5,-74.33 2005.5,-78.17 2001.67,-82 1997.83,-82"/>
<text text-anchor="middle" x="1950.5" y="-66.8" font-family="Arial" font-size="14.00" fill="#c6c5fe">src/utils/array.ts</text>
</g>
<!-- src/app.ts&#45;&gt;src/utils/array.ts -->
<g id="edge15" class="edge">
<title>src/app.ts&#45;&gt;src/utils/array.ts</title>
<path fill="none" stroke="#757575" d="M1362.67,-648.81C1362.67,-590.29 1362.67,-332 1362.67,-332 1362.67,-332 1923,-332 1923,-332 1923,-332 1923,-92.07 1923,-92.07"/>
<polygon fill="#757575" stroke="#757575" points="1926.5,-92.07 1923,-82.07 1919.5,-92.07 1926.5,-92.07"/>
</g>
<!-- src/utils/this&#45;keyword.ts -->
<g id="node17" class="node">
<title>src/utils/this&#45;keyword.ts</title>
<path fill="none" stroke="#c6c5fe" d="M2026.83,-495C2026.83,-495 1886.17,-495 1886.17,-495 1882.33,-495 1878.5,-491.17 1878.5,-487.33 1878.5,-487.33 1878.5,-479.67 1878.5,-479.67 1878.5,-475.83 1882.33,-472 1886.17,-472 1886.17,-472 2026.83,-472 2026.83,-472 2030.67,-472 2034.5,-475.83 2034.5,-479.67 2034.5,-479.67 2034.5,-487.33 2034.5,-487.33 2034.5,-491.17 2030.67,-495 2026.83,-495"/>
<text text-anchor="middle" x="1956.5" y="-479.8" font-family="Arial" font-size="14.00" fill="#c6c5fe">src/utils/this&#45;keyword.ts</text>
</g>
<!-- src/app.ts&#45;&gt;src/utils/this&#45;keyword.ts -->
<g id="edge16" class="edge">
<title>src/app.ts&#45;&gt;src/utils/this&#45;keyword.ts</title>
<path fill="none" stroke="#757575" d="M1370.36,-657C1498.73,-657 1909.5,-657 1909.5,-657 1909.5,-657 1909.5,-505.15 1909.5,-505.15"/>
<polygon fill="#757575" stroke="#757575" points="1913,-505.15 1909.5,-495.15 1906,-505.15 1913,-505.15"/>
</g>
<!-- src/expressions/grouped&#45;expressions.ts&#45;&gt;src/expressions/handlers.ts -->
<g id="edge23" class="edge">
<title>src/expressions/grouped&#45;expressions.ts&#45;&gt;src/expressions/handlers.ts</title>
<path fill="none" stroke="#757575" d="M1866.5,-530.71C1866.5,-476.18 1866.5,-251 1866.5,-251 1866.5,-251 1568.81,-251 1568.81,-251"/>
<polygon fill="#757575" stroke="#757575" points="1568.81,-247.5 1558.81,-251 1568.81,-254.5 1568.81,-247.5"/>
</g>
<!-- src/expressions/grouped&#45;expressions.ts&#45;&gt;src/match.ts -->
<g id="edge24" class="edge">
<title>src/expressions/grouped&#45;expressions.ts&#45;&gt;src/match.ts</title>
<path fill="none" stroke="#757575" d="M1904.64,-546C2027.93,-546 2196.5,-546 2196.5,-546 2196.5,-546 2196.5,-505.26 2196.5,-505.26"/>
<polygon fill="#757575" stroke="#757575" points="2200,-505.26 2196.5,-495.26 2193,-505.26 2200,-505.26"/>
</g>
<!-- src/expressions/grouped&#45;expressions.ts&#45;&gt;src/utils/array.ts -->
<g id="edge26" class="edge">
<title>src/expressions/grouped&#45;expressions.ts&#45;&gt;src/utils/array.ts</title>
<path fill="none" stroke="#757575" d="M1872.5,-530.55C1872.5,-457.85 1872.5,-78 1872.5,-78 1872.5,-78 1885.48,-78 1885.48,-78"/>
<polygon fill="#757575" stroke="#757575" points="1885.48,-81.5 1895.48,-78 1885.48,-74.5 1885.48,-81.5"/>
</g>
<!-- src/expressions/drop&#45;handlers.ts -->
<g id="node19" class="node">
<title>src/expressions/drop&#45;handlers.ts</title>
<path fill="none" stroke="#c6c5fe" d="M1852.83,-495C1852.83,-495 1656.17,-495 1656.17,-495 1652.33,-495 1648.5,-491.17 1648.5,-487.33 1648.5,-487.33 1648.5,-479.67 1648.5,-479.67 1648.5,-475.83 1652.33,-472 1656.17,-472 1656.17,-472 1852.83,-472 1852.83,-472 1856.67,-472 1860.5,-475.83 1860.5,-479.67 1860.5,-479.67 1860.5,-487.33 1860.5,-487.33 1860.5,-491.17 1856.67,-495 1852.83,-495"/>
<text text-anchor="middle" x="1754.5" y="-479.8" font-family="Arial" font-size="14.00" fill="#c6c5fe">src/expressions/drop&#45;handlers.ts</text>
</g>
<!-- src/expressions/grouped&#45;expressions.ts&#45;&gt;src/expressions/drop&#45;handlers.ts -->
<g id="edge22" class="edge">
<title>src/expressions/grouped&#45;expressions.ts&#45;&gt;src/expressions/drop&#45;handlers.ts</title>
<path fill="none" stroke="#757575" d="M1755.5,-530.84C1755.5,-530.84 1755.5,-505.13 1755.5,-505.13"/>
<polygon fill="#757575" stroke="#757575" points="1759,-505.13 1755.5,-495.13 1752,-505.13 1759,-505.13"/>
</g>
<!-- src/types/structs.ts -->
<g id="node21" class="node">
<title>src/types/structs.ts</title>
<path fill="none" stroke="#c6c5fe" d="M1578.83,-377C1578.83,-377 1466.17,-377 1466.17,-377 1462.33,-377 1458.5,-373.17 1458.5,-369.33 1458.5,-369.33 1458.5,-361.67 1458.5,-361.67 1458.5,-357.83 1462.33,-354 1466.17,-354 1466.17,-354 1578.83,-354 1578.83,-354 1582.67,-354 1586.5,-357.83 1586.5,-361.67 1586.5,-361.67 1586.5,-369.33 1586.5,-369.33 1586.5,-373.17 1582.67,-377 1578.83,-377"/>
<text text-anchor="middle" x="1522.5" y="-361.8" font-family="Arial" font-size="14.00" fill="#c6c5fe">src/types/structs.ts</text>
</g>
<!-- src/expressions/grouped&#45;expressions.ts&#45;&gt;src/types/structs.ts -->
<g id="edge25" class="edge">
<title>src/expressions/grouped&#45;expressions.ts&#45;&gt;src/types/structs.ts</title>
<path fill="none" stroke="#757575" d="M1650.48,-542C1628.56,-542 1612.67,-542 1612.67,-542 1612.67,-542 1612.67,-361 1612.67,-361 1612.67,-361 1596.59,-361 1596.59,-361"/>
<polygon fill="#757575" stroke="#757575" points="1596.59,-357.5 1586.59,-361 1596.59,-364.5 1596.59,-357.5"/>
</g>
<!-- src/utils/identifier&#45;utils.ts -->
<g id="node22" class="node">
<title>src/utils/identifier&#45;utils.ts</title>
<path fill="none" stroke="#cfffac" d="M2168.83,-318C2168.83,-318 2024.17,-318 2024.17,-318 2020.33,-318 2016.5,-314.17 2016.5,-310.33 2016.5,-310.33 2016.5,-302.67 2016.5,-302.67 2016.5,-298.83 2020.33,-295 2024.17,-295 2024.17,-295 2168.83,-295 2168.83,-295 2172.67,-295 2176.5,-298.83 2176.5,-302.67 2176.5,-302.67 2176.5,-310.33 2176.5,-310.33 2176.5,-314.17 2172.67,-318 2168.83,-318"/>
<text text-anchor="middle" x="2096.5" y="-302.8" font-family="Arial" font-size="14.00" fill="#cfffac">src/utils/identifier&#45;utils.ts</text>
</g>
<!-- src/expressions/grouped&#45;expressions.ts&#45;&gt;src/utils/identifier&#45;utils.ts -->
<g id="edge27" class="edge">
<title>src/expressions/grouped&#45;expressions.ts&#45;&gt;src/utils/identifier&#45;utils.ts</title>
<path fill="none" stroke="#757575" d="M1904.86,-538C1973.7,-538 2044.75,-538 2044.75,-538 2044.75,-538 2044.75,-328.3 2044.75,-328.3"/>
<polygon fill="#757575" stroke="#757575" points="2048.25,-328.3 2044.75,-318.3 2041.25,-328.3 2048.25,-328.3"/>
</g>
<!-- src/handlers/assignment.ts -->
<g id="node23" class="node">
<title>src/handlers/assignment.ts</title>
<path fill="none" stroke="#c6c5fe" d="M1666.83,-200C1666.83,-200 1504.17,-200 1504.17,-200 1500.33,-200 1496.5,-196.17 1496.5,-192.33 1496.5,-192.33 1496.5,-184.67 1496.5,-184.67 1496.5,-180.83 1500.33,-177 1504.17,-177 1504.17,-177 1666.83,-177 1666.83,-177 1670.67,-177 1674.5,-180.83 1674.5,-184.67 1674.5,-184.67 1674.5,-192.33 1674.5,-192.33 1674.5,-196.17 1670.67,-200 1666.83,-200"/>
<text text-anchor="middle" x="1585.5" y="-184.8" font-family="Arial" font-size="14.00" fill="#c6c5fe">src/handlers/assignment.ts</text>
</g>
<!-- src/expressions/handlers.ts&#45;&gt;src/handlers/assignment.ts -->
<g id="edge28" class="edge">
<title>src/expressions/handlers.ts&#45;&gt;src/handlers/assignment.ts</title>
<path fill="none" stroke="#757575" d="M1527.5,-235.84C1527.5,-235.84 1527.5,-210.13 1527.5,-210.13"/>
<polygon fill="#757575" stroke="#757575" points="1531,-210.13 1527.5,-200.13 1524,-210.13 1531,-210.13"/>
</g>
<!-- src/types/interpreter.ts -->
<g id="node24" class="node">
<title>src/types/interpreter.ts</title>
<path fill="none" stroke="#cfffac" d="M1606.33,-141C1606.33,-141 1472.67,-141 1472.67,-141 1468.83,-141 1465,-137.17 1465,-133.33 1465,-133.33 1465,-125.67 1465,-125.67 1465,-121.83 1468.83,-118 1472.67,-118 1472.67,-118 1606.33,-118 1606.33,-118 1610.17,-118 1614,-121.83 1614,-125.67 1614,-125.67 1614,-133.33 1614,-133.33 1614,-137.17 1610.17,-141 1606.33,-141"/>
<text text-anchor="middle" x="1539.5" y="-125.8" font-family="Arial" font-size="14.00" fill="#cfffac">src/types/interpreter.ts</text>
</g>
<!-- src/expressions/handlers.ts&#45;&gt;src/types/interpreter.ts -->
<g id="edge29" class="edge">
<title>src/expressions/handlers.ts&#45;&gt;src/types/interpreter.ts</title>
<path fill="none" stroke="#757575" d="M1480.75,-235.75C1480.75,-235.75 1480.75,-151.2 1480.75,-151.2"/>
<polygon fill="#757575" stroke="#757575" points="1484.25,-151.2 1480.75,-141.2 1477.25,-151.2 1484.25,-151.2"/>
</g>
<!-- src/utils/scope&#45;helpers.ts -->
<g id="node25" class="node">
<title>src/utils/scope&#45;helpers.ts</title>
<path fill="none" stroke="#c6c5fe" d="M2317.33,-200C2317.33,-200 2167.67,-200 2167.67,-200 2163.83,-200 2160,-196.17 2160,-192.33 2160,-192.33 2160,-184.67 2160,-184.67 2160,-180.83 2163.83,-177 2167.67,-177 2167.67,-177 2317.33,-177 2317.33,-177 2321.17,-177 2325,-180.83 2325,-184.67 2325,-184.67 2325,-192.33 2325,-192.33 2325,-196.17 2321.17,-200 2317.33,-200"/>
<text text-anchor="middle" x="2242.5" y="-184.8" font-family="Arial" font-size="14.00" fill="#c6c5fe">src/utils/scope&#45;helpers.ts</text>
</g>
<!-- src/expressions/handlers.ts&#45;&gt;src/utils/scope&#45;helpers.ts -->
<g id="edge30" class="edge">
<title>src/expressions/handlers.ts&#45;&gt;src/utils/scope&#45;helpers.ts</title>
<path fill="none" stroke="#757575" d="M1558.55,-239C1746.97,-239 2165.5,-239 2165.5,-239 2165.5,-239 2165.5,-210.21 2165.5,-210.21"/>
<polygon fill="#757575" stroke="#757575" points="2169,-210.21 2165.5,-200.21 2162,-210.21 2169,-210.21"/>
</g>
<!-- src/expressions/operators/binary&#45;operation.ts&#45;&gt;src/expressions/handlers.ts -->
<g id="edge31" class="edge">
<title>src/expressions/operators/binary&#45;operation.ts&#45;&gt;src/expressions/handlers.ts</title>
<path fill="none" stroke="#757575" d="M598.67,-530.68C598.67,-474.94 598.67,-241 598.67,-241 598.67,-241 1368.28,-241 1368.28,-241"/>
<polygon fill="#757575" stroke="#757575" points="1368.28,-244.5 1378.28,-241 1368.28,-237.5 1368.28,-244.5"/>
</g>
<!-- src/expressions/operators/binary&#45;operation.ts&#45;&gt;src/parser.ts -->
<g id="edge33" class="edge">
<title>src/expressions/operators/binary&#45;operation.ts&#45;&gt;src/parser.ts</title>
<path fill="none" stroke="#757575" d="M624.23,-542C653.99,-542 676.5,-542 676.5,-542 676.5,-542 676.5,-151.4 676.5,-151.4"/>
<polygon fill="#757575" stroke="#757575" points="680,-151.4 676.5,-141.4 673,-151.4 680,-151.4"/>
</g>
<!-- src/expressions/operators/operators.ts -->
<g id="node26" class="node">
<title>src/expressions/operators/operators.ts</title>
<path fill="none" stroke="#c6c5fe" d="M395.83,-495C395.83,-495 165.17,-495 165.17,-495 161.33,-495 157.5,-491.17 157.5,-487.33 157.5,-487.33 157.5,-479.67 157.5,-479.67 157.5,-475.83 161.33,-472 165.17,-472 165.17,-472 395.83,-472 395.83,-472 399.67,-472 403.5,-475.83 403.5,-479.67 403.5,-479.67 403.5,-487.33 403.5,-487.33 403.5,-491.17 399.67,-495 395.83,-495"/>
<text text-anchor="middle" x="280.5" y="-479.8" font-family="Arial" font-size="14.00" fill="#c6c5fe">src/expressions/operators/operators.ts</text>
</g>
<!-- src/expressions/operators/binary&#45;operation.ts&#45;&gt;src/expressions/operators/operators.ts -->
<g id="edge32" class="edge">
<title>src/expressions/operators/binary&#45;operation.ts&#45;&gt;src/expressions/operators/operators.ts</title>
<path fill="none" stroke="#757575" d="M370.25,-530.84C370.25,-530.84 370.25,-505.13 370.25,-505.13"/>
<polygon fill="#757575" stroke="#757575" points="373.75,-505.13 370.25,-495.13 366.75,-505.13 373.75,-505.13"/>
</g>
<!-- src/handlers/dereference&#45;assignment.ts&#45;&gt;src/expressions/handlers.ts -->
<g id="edge57" class="edge">
<title>src/handlers/dereference&#45;assignment.ts&#45;&gt;src/expressions/handlers.ts</title>
<path fill="none" stroke="#757575" d="M2464.5,-471.77C2464.5,-424.05 2464.5,-247 2464.5,-247 2464.5,-247 1568.65,-247 1568.65,-247"/>
<polygon fill="#757575" stroke="#757575" points="1568.65,-243.5 1558.65,-247 1568.64,-250.5 1568.65,-243.5"/>
</g>
<!-- src/handlers/dereference&#45;assignment.ts&#45;&gt;src/handlers/pointer&#45;operations.ts -->
<g id="edge58" class="edge">
<title>src/handlers/dereference&#45;assignment.ts&#45;&gt;src/handlers/pointer&#45;operations.ts</title>
<path fill="none" stroke="#757575" d="M2350.37,-483C2304.7,-483 2264.25,-483 2264.25,-483 2264.25,-483 2264.25,-446.06 2264.25,-446.06"/>
<polygon fill="#757575" stroke="#757575" points="2267.75,-446.06 2264.25,-436.06 2260.75,-446.06 2267.75,-446.06"/>
</g>
<!-- src/functions.ts -->
<g id="node20" class="node">
<title>src/functions.ts</title>
<path fill="none" stroke="#c6c5fe" d="M2389.33,-436C2389.33,-436 2297.67,-436 2297.67,-436 2293.83,-436 2290,-432.17 2290,-428.33 2290,-428.33 2290,-420.67 2290,-420.67 2290,-416.83 2293.83,-413 2297.67,-413 2297.67,-413 2389.33,-413 2389.33,-413 2393.17,-413 2397,-416.83 2397,-420.67 2397,-420.67 2397,-428.33 2397,-428.33 2397,-432.17 2393.17,-436 2389.33,-436"/>
<text text-anchor="middle" x="2343.5" y="-420.8" font-family="Arial" font-size="14.00" fill="#c6c5fe">src/functions.ts</text>
</g>
<!-- src/handlers/lambda&#45;expressions.ts&#45;&gt;src/functions.ts -->
<g id="edge64" class="edge">
<title>src/handlers/lambda&#45;expressions.ts&#45;&gt;src/functions.ts</title>
<path fill="none" stroke="#757575" d="M2737.5,-471.81C2737.5,-456.62 2737.5,-432 2737.5,-432 2737.5,-432 2407.05,-432 2407.05,-432"/>
<polygon fill="#757575" stroke="#757575" points="2407.05,-428.5 2397.05,-432 2407.05,-435.5 2407.05,-428.5"/>
</g>
<!-- src/handlers/anonymous&#45;functions.ts -->
<g id="node33" class="node">
<title>src/handlers/anonymous&#45;functions.ts</title>
<path fill="none" stroke="#c6c5fe" d="M2848.33,-377C2848.33,-377 2626.67,-377 2626.67,-377 2622.83,-377 2619,-373.17 2619,-369.33 2619,-369.33 2619,-361.67 2619,-361.67 2619,-357.83 2622.83,-354 2626.67,-354 2626.67,-354 2848.33,-354 2848.33,-354 2852.17,-354 2856,-357.83 2856,-361.67 2856,-361.67 2856,-369.33 2856,-369.33 2856,-373.17 2852.17,-377 2848.33,-377"/>
<text text-anchor="middle" x="2737.5" y="-361.8" font-family="Arial" font-size="14.00" fill="#c6c5fe">src/handlers/anonymous&#45;functions.ts</text>
</g>
<!-- src/handlers/lambda&#45;expressions.ts&#45;&gt;src/handlers/anonymous&#45;functions.ts -->
<g id="edge65" class="edge">
<title>src/handlers/lambda&#45;expressions.ts&#45;&gt;src/handlers/anonymous&#45;functions.ts</title>
<path fill="none" stroke="#757575" d="M2795,-471.75C2795,-471.75 2795,-387.2 2795,-387.2"/>
<polygon fill="#757575" stroke="#757575" points="2798.5,-387.2 2795,-377.2 2791.5,-387.2 2798.5,-387.2"/>
</g>
<!-- src/handlers/module&#45;access.ts&#45;&gt;src/expressions/handlers.ts -->
<g id="edge71" class="edge">
<title>src/handlers/module&#45;access.ts&#45;&gt;src/expressions/handlers.ts</title>
<path fill="none" stroke="#757575" d="M1206.6,-485C1294.9,-485 1409.64,-485 1409.64,-485 1409.64,-485 1409.64,-269.28 1409.64,-269.28"/>
<polygon fill="#757575" stroke="#757575" points="1413.14,-269.28 1409.64,-259.28 1406.14,-269.28 1413.14,-269.28"/>
</g>
<!-- src/handlers/module&#45;access.ts&#45;&gt;src/utils/identifier&#45;utils.ts -->
<g id="edge74" class="edge">
<title>src/handlers/module&#45;access.ts&#45;&gt;src/utils/identifier&#45;utils.ts</title>
<path fill="none" stroke="#757575" d="M1206.67,-490C1359.29,-490 1632.5,-490 1632.5,-490 1632.5,-490 1632.5,-302 1632.5,-302 1632.5,-302 2006.47,-302 2006.47,-302"/>
<polygon fill="#757575" stroke="#757575" points="2006.47,-305.5 2016.47,-302 2006.47,-298.5 2006.47,-305.5"/>
</g>
<!-- src/types/modules.ts -->
<g id="node38" class="node">
<title>src/types/modules.ts</title>
<path fill="none" stroke="#c6c5fe" d="M1204.83,-436C1204.83,-436 1080.17,-436 1080.17,-436 1076.33,-436 1072.5,-432.17 1072.5,-428.33 1072.5,-428.33 1072.5,-420.67 1072.5,-420.67 1072.5,-416.83 1076.33,-413 1080.17,-413 1080.17,-413 1204.83,-413 1204.83,-413 1208.67,-413 1212.5,-416.83 1212.5,-420.67 1212.5,-420.67 1212.5,-428.33 1212.5,-428.33 1212.5,-432.17 1208.67,-436 1204.83,-436"/>
<text text-anchor="middle" x="1142.5" y="-420.8" font-family="Arial" font-size="14.00" fill="#c6c5fe">src/types/modules.ts</text>
</g>
<!-- src/handlers/module&#45;access.ts&#45;&gt;src/types/modules.ts -->
<g id="edge72" class="edge">
<title>src/handlers/module&#45;access.ts&#45;&gt;src/types/modules.ts</title>
<path fill="none" stroke="#757575" d="M1139.5,-471.84C1139.5,-471.84 1139.5,-446.13 1139.5,-446.13"/>
<polygon fill="#757575" stroke="#757575" points="1143,-446.13 1139.5,-436.13 1136,-446.13 1143,-446.13"/>
</g>
<!-- src/types/objects.ts -->
<g id="node39" class="node">
<title>src/types/objects.ts</title>
<path fill="none" stroke="#c6c5fe" d="M1046.33,-436C1046.33,-436 930.67,-436 930.67,-436 926.83,-436 923,-432.17 923,-428.33 923,-428.33 923,-420.67 923,-420.67 923,-416.83 926.83,-413 930.67,-413 930.67,-413 1046.33,-413 1046.33,-413 1050.17,-413 1054,-416.83 1054,-420.67 1054,-420.67 1054,-428.33 1054,-428.33 1054,-432.17 1050.17,-436 1046.33,-436"/>
<text text-anchor="middle" x="988.5" y="-420.8" font-family="Arial" font-size="14.00" fill="#c6c5fe">src/types/objects.ts</text>
</g>
<!-- src/handlers/module&#45;access.ts&#45;&gt;src/types/objects.ts -->
<g id="edge73" class="edge">
<title>src/handlers/module&#45;access.ts&#45;&gt;src/types/objects.ts</title>
<path fill="none" stroke="#757575" d="M1022.33,-471.84C1022.33,-471.84 1022.33,-446.13 1022.33,-446.13"/>
<polygon fill="#757575" stroke="#757575" points="1025.83,-446.13 1022.33,-436.13 1018.83,-446.13 1025.83,-446.13"/>
</g>
<!-- src/handlers/pointer&#45;operations.ts&#45;&gt;src/utils/identifier&#45;utils.ts -->
<g id="edge75" class="edge">
<title>src/handlers/pointer&#45;operations.ts&#45;&gt;src/utils/identifier&#45;utils.ts</title>
<path fill="none" stroke="#757575" d="M2085.38,-412.75C2085.38,-412.75 2085.38,-328.2 2085.38,-328.2"/>
<polygon fill="#757575" stroke="#757575" points="2088.88,-328.2 2085.38,-318.2 2081.88,-328.2 2088.88,-328.2"/>
</g>
<!-- src/loops/for.ts&#45;&gt;src/loops/loop.ts -->
<g id="edge77" class="edge">
<title>src/loops/for.ts&#45;&gt;src/loops/loop.ts</title>
<path fill="none" stroke="#757575" d="M994.17,-589.84C994.17,-581.6 994.17,-572 994.17,-572 994.17,-572 766,-572 766,-572 766,-572 766,-564.16 766,-564.16"/>
<polygon fill="#757575" stroke="#757575" points="769.5,-564.16 766,-554.16 762.5,-564.16 769.5,-564.16"/>
</g>
<!-- src/loops/helpers.ts -->
<g id="node40" class="node">
<title>src/loops/helpers.ts</title>
<path fill="none" stroke="#cfffac" d="M1077.33,-554C1077.33,-554 959.67,-554 959.67,-554 955.83,-554 952,-550.17 952,-546.33 952,-546.33 952,-538.67 952,-538.67 952,-534.83 955.83,-531 959.67,-531 959.67,-531 1077.33,-531 1077.33,-531 1081.17,-531 1085,-534.83 1085,-538.67 1085,-538.67 1085,-546.33 1085,-546.33 1085,-550.17 1081.17,-554 1077.33,-554"/>
<text text-anchor="middle" x="1018.5" y="-538.8" font-family="Arial" font-size="14.00" fill="#cfffac">src/loops/helpers.ts</text>
</g>
<!-- src/loops/for.ts&#45;&gt;src/loops/helpers.ts -->
<g id="edge76" class="edge">
<title>src/loops/for.ts&#45;&gt;src/loops/helpers.ts</title>
<path fill="none" stroke="#757575" d="M1028.83,-589.84C1028.83,-589.84 1028.83,-564.13 1028.83,-564.13"/>
<polygon fill="#757575" stroke="#757575" points="1032.33,-564.13 1028.83,-554.13 1025.33,-564.13 1032.33,-564.13"/>
</g>
<!-- src/loops/types.ts -->
<g id="node41" class="node">
<title>src/loops/types.ts</title>
<path fill="none" stroke="#c6c5fe" d="M926.33,-554C926.33,-554 820.67,-554 820.67,-554 816.83,-554 813,-550.17 813,-546.33 813,-546.33 813,-538.67 813,-538.67 813,-534.83 816.83,-531 820.67,-531 820.67,-531 926.33,-531 926.33,-531 930.17,-531 934,-534.83 934,-538.67 934,-538.67 934,-546.33 934,-546.33 934,-550.17 930.17,-554 926.33,-554"/>
<text text-anchor="middle" x="873.5" y="-538.8" font-family="Arial" font-size="14.00" fill="#c6c5fe">src/loops/types.ts</text>
</g>
<!-- src/loops/for.ts&#45;&gt;src/loops/types.ts -->
<g id="edge78" class="edge">
<title>src/loops/for.ts&#45;&gt;src/loops/types.ts</title>
<path fill="none" stroke="#757575" d="M959.37,-597C950.72,-597 944.5,-597 944.5,-597 944.5,-597 944.5,-542 944.5,-542 944.5,-542 943.45,-542 943.45,-542"/>
<polygon fill="#757575" stroke="#757575" points="944.02,-538.5 934.02,-542 944.02,-545.5 944.02,-538.5"/>
</g>
<!-- src/loops/while.ts&#45;&gt;src/loops/loop.ts -->
<g id="edge81" class="edge">
<title>src/loops/while.ts&#45;&gt;src/loops/loop.ts</title>
<path fill="none" stroke="#757575" d="M817.72,-601C779.67,-601 737.5,-601 737.5,-601 737.5,-601 737.5,-564.06 737.5,-564.06"/>
<polygon fill="#757575" stroke="#757575" points="741,-564.06 737.5,-554.06 734,-564.06 741,-564.06"/>
</g>
<!-- src/loops/while.ts&#45;&gt;src/loops/helpers.ts -->
<g id="edge80" class="edge">
<title>src/loops/while.ts&#45;&gt;src/loops/helpers.ts</title>
<path fill="none" stroke="#757575" d="M937.21,-605C947.92,-605 955.75,-605 955.75,-605 955.75,-605 955.75,-564.26 955.75,-564.26"/>
<polygon fill="#757575" stroke="#757575" points="959.25,-564.26 955.75,-554.26 952.25,-564.26 959.25,-564.26"/>
</g>
<!-- src/loops/while.ts&#45;&gt;src/loops/types.ts -->
<g id="edge82" class="edge">
<title>src/loops/while.ts&#45;&gt;src/loops/types.ts</title>
<path fill="none" stroke="#757575" d="M876,-589.84C876,-589.84 876,-564.13 876,-564.13"/>
<polygon fill="#757575" stroke="#757575" points="879.5,-564.13 876,-554.13 872.5,-564.13 879.5,-564.13"/>
</g>
<!-- src/parser.ts&#45;&gt;src/utils/array.ts -->
<g id="edge84" class="edge">
<title>src/parser.ts&#45;&gt;src/utils/array.ts</title>
<path fill="none" stroke="#757575" d="M732.5,-117.85C732.5,-99.52 732.5,-66 732.5,-66 732.5,-66 1885.4,-66 1885.4,-66"/>
<polygon fill="#757575" stroke="#757575" points="1885.4,-69.5 1895.4,-66 1885.4,-62.5 1885.4,-69.5"/>
</g>
<!-- src/type&#45;utils.ts -->
<g id="node30" class="node">
<title>src/type&#45;utils.ts</title>
<path fill="none" stroke="#cfffac" d="M2402.33,-23C2402.33,-23 2310.67,-23 2310.67,-23 2306.83,-23 2303,-19.17 2303,-15.33 2303,-15.33 2303,-7.67 2303,-7.67 2303,-3.83 2306.83,0 2310.67,0 2310.67,0 2402.33,0 2402.33,0 2406.17,0 2410,-3.83 2410,-7.67 2410,-7.67 2410,-15.33 2410,-15.33 2410,-19.17 2406.17,-23 2402.33,-23"/>
<text text-anchor="middle" x="2356.5" y="-7.8" font-family="Arial" font-size="14.00" fill="#cfffac">src/type&#45;utils.ts</text>
</g>
<!-- src/parser.ts&#45;&gt;src/type&#45;utils.ts -->
<g id="edge83" class="edge">
<title>src/parser.ts&#45;&gt;src/type&#45;utils.ts</title>
<path fill="none" stroke="#757575" d="M702.5,-117.7C702.5,-87.73 702.5,-11 702.5,-11 702.5,-11 2292.88,-11 2292.88,-11"/>
<polygon fill="#757575" stroke="#757575" points="2292.88,-14.5 2302.88,-11 2292.88,-7.5 2292.88,-14.5"/>
</g>
<!-- src/scope.ts&#45;&gt;src/expressions/handlers.ts -->
<g id="edge85" class="edge">
<title>src/scope.ts&#45;&gt;src/expressions/handlers.ts</title>
<path fill="none" stroke="#757575" d="M2948.5,-530.76C2948.5,-475.39 2948.5,-243 2948.5,-243 2948.5,-243 1568.58,-243 1568.58,-243"/>
<polygon fill="#757575" stroke="#757575" points="1568.58,-239.5 1558.58,-243 1568.58,-246.5 1568.58,-239.5"/>
</g>
<!-- src/scope.ts&#45;&gt;src/handlers/lambda&#45;expressions.ts -->
<g id="edge88" class="edge">
<title>src/scope.ts&#45;&gt;src/handlers/lambda&#45;expressions.ts</title>
<path fill="none" stroke="#757575" d="M2921.12,-530.74C2921.12,-513.4 2921.12,-483 2921.12,-483 2921.12,-483 2862.75,-483 2862.75,-483"/>
<polygon fill="#757575" stroke="#757575" points="2862.75,-479.5 2852.75,-483 2862.75,-486.5 2862.75,-479.5"/>
</g>
<!-- src/scope.ts&#45;&gt;src/parser.ts -->
<g id="edge89" class="edge">
<title>src/scope.ts&#45;&gt;src/parser.ts</title>
<path fill="none" stroke="#757575" d="M2939.38,-530.8C2939.38,-488.49 2939.38,-346 2939.38,-346 2939.38,-346 733.5,-346 733.5,-346 733.5,-346 733.5,-151.14 733.5,-151.14"/>
<polygon fill="#757575" stroke="#757575" points="737,-151.14 733.5,-141.14 730,-151.14 737,-151.14"/>
</g>
<!-- src/scope.ts&#45;&gt;src/utils/array.ts -->
<g id="edge90" class="edge">
<title>src/scope.ts&#45;&gt;src/utils/array.ts</title>
<path fill="none" stroke="#757575" d="M2975.88,-530.92C2975.88,-458.77 2975.88,-74 2975.88,-74 2975.88,-74 2015.63,-74 2015.63,-74"/>
<polygon fill="#757575" stroke="#757575" points="2015.63,-70.5 2005.63,-74 2015.63,-77.5 2015.63,-70.5"/>
</g>
<!-- src/scope.ts&#45;&gt;src/functions.ts -->
<g id="edge87" class="edge">
<title>src/scope.ts&#45;&gt;src/functions.ts</title>
<path fill="none" stroke="#757575" d="M2930.25,-530.68C2930.25,-501.42 2930.25,-428 2930.25,-428 2930.25,-428 2407.13,-428 2407.13,-428"/>
<polygon fill="#757575" stroke="#757575" points="2407.13,-424.5 2397.13,-428 2407.13,-431.5 2407.13,-424.5"/>
</g>
<!-- src/scope.ts&#45;&gt;src/utils/scope&#45;helpers.ts -->
<g id="edge92" class="edge">
<title>src/scope.ts&#45;&gt;src/utils/scope&#45;helpers.ts</title>
<path fill="none" stroke="#757575" d="M2957.62,-530.71C2957.62,-469.19 2957.62,-188 2957.62,-188 2957.62,-188 2335.23,-188 2335.23,-188"/>
<polygon fill="#757575" stroke="#757575" points="2335.23,-184.5 2325.23,-188 2335.23,-191.5 2335.23,-184.5"/>
</g>
<!-- src/function&#45;type&#45;handler.ts -->
<g id="node32" class="node">
<title>src/function&#45;type&#45;handler.ts</title>
<path fill="none" stroke="#c6c5fe" d="M3156.33,-495C3156.33,-495 2992.67,-495 2992.67,-495 2988.83,-495 2985,-491.17 2985,-487.33 2985,-487.33 2985,-479.67 2985,-479.67 2985,-475.83 2988.83,-472 2992.67,-472 2992.67,-472 3156.33,-472 3156.33,-472 3160.17,-472 3164,-475.83 3164,-479.67 3164,-479.67 3164,-487.33 3164,-487.33 3164,-491.17 3160.17,-495 3156.33,-495"/>
<text text-anchor="middle" x="3074.5" y="-479.8" font-family="Arial" font-size="14.00" fill="#c6c5fe">src/function&#45;type&#45;handler.ts</text>
</g>
<!-- src/scope.ts&#45;&gt;src/function&#45;type&#45;handler.ts -->
<g id="edge86" class="edge">
<title>src/scope.ts&#45;&gt;src/function&#45;type&#45;handler.ts</title>
<path fill="none" stroke="#757575" d="M2993,-530.84C2993,-530.84 2993,-505.13 2993,-505.13"/>
<polygon fill="#757575" stroke="#757575" points="2996.5,-505.13 2993,-495.13 2989.5,-505.13 2996.5,-505.13"/>
</g>
<!-- src/utils/function&#45;utils.ts -->
<g id="node36" class="node">
<title>src/utils/function&#45;utils.ts</title>
<path fill="none" stroke="#c6c5fe" d="M2570.83,-141C2570.83,-141 2430.17,-141 2430.17,-141 2426.33,-141 2422.5,-137.17 2422.5,-133.33 2422.5,-133.33 2422.5,-125.67 2422.5,-125.67 2422.5,-121.83 2426.33,-118 2430.17,-118 2430.17,-118 2570.83,-118 2570.83,-118 2574.67,-118 2578.5,-121.83 2578.5,-125.67 2578.5,-125.67 2578.5,-133.33 2578.5,-133.33 2578.5,-137.17 2574.67,-141 2570.83,-141"/>
<text text-anchor="middle" x="2500.5" y="-125.8" font-family="Arial" font-size="14.00" fill="#c6c5fe">src/utils/function&#45;utils.ts</text>
</g>
<!-- src/scope.ts&#45;&gt;src/utils/function&#45;utils.ts -->
<g id="edge91" class="edge">
<title>src/scope.ts&#45;&gt;src/utils/function&#45;utils.ts</title>
<path fill="none" stroke="#757575" d="M2966.75,-530.57C2966.75,-462.77 2966.75,-129 2966.75,-129 2966.75,-129 2588.54,-129 2588.54,-129"/>
<polygon fill="#757575" stroke="#757575" points="2588.54,-125.5 2578.54,-129 2588.54,-132.5 2588.54,-125.5"/>
</g>
<!-- src/utils/app&#45;handlers.ts&#45;&gt;src/expressions/handlers.ts -->
<g id="edge104" class="edge">
<title>src/utils/app&#45;handlers.ts&#45;&gt;src/expressions/handlers.ts</title>
<path fill="none" stroke="#757575" d="M1359.29,-594C1387.07,-594 1411.43,-594 1411.43,-594 1411.43,-594 1411.43,-269.03 1411.43,-269.03"/>
<polygon fill="#757575" stroke="#757575" points="1414.93,-269.03 1411.43,-259.03 1407.93,-269.03 1414.93,-269.03"/>
</g>
<!-- src/utils/app&#45;handlers.ts&#45;&gt;src/functions.ts -->
<g id="edge106" class="edge">
<title>src/utils/app&#45;handlers.ts&#45;&gt;src/functions.ts</title>
<path fill="none" stroke="#757575" d="M1359.12,-608C1599.2,-608 2299.6,-608 2299.6,-608 2299.6,-608 2299.6,-446.26 2299.6,-446.26"/>
<polygon fill="#757575" stroke="#757575" points="2303.1,-446.26 2299.6,-436.26 2296.1,-446.26 2303.1,-446.26"/>
</g>
<!-- src/utils/app&#45;handlers.ts&#45;&gt;src/types/structs.ts -->
<g id="edge110" class="edge">
<title>src/utils/app&#45;handlers.ts&#45;&gt;src/types/structs.ts</title>
<path fill="none" stroke="#757575" d="M1322.83,-589.75C1322.83,-542.78 1322.83,-371 1322.83,-371 1322.83,-371 1448.23,-371 1448.23,-371"/>
<polygon fill="#757575" stroke="#757575" points="1448.23,-374.5 1458.23,-371 1448.23,-367.5 1448.23,-374.5"/>
</g>
<!-- src/expressions/operators/unary&#45;operation.ts -->
<g id="node31" class="node">
<title>src/expressions/operators/unary&#45;operation.ts</title>
<path fill="none" stroke="#c6c5fe" d="M1394.83,-318C1394.83,-318 1126.17,-318 1126.17,-318 1122.33,-318 1118.5,-314.17 1118.5,-310.33 1118.5,-310.33 1118.5,-302.67 1118.5,-302.67 1118.5,-298.83 1122.33,-295 1126.17,-295 1126.17,-295 1394.83,-295 1394.83,-295 1398.67,-295 1402.5,-298.83 1402.5,-302.67 1402.5,-302.67 1402.5,-310.33 1402.5,-310.33 1402.5,-314.17 1398.67,-318 1394.83,-318"/>
<text text-anchor="middle" x="1260.5" y="-302.8" font-family="Arial" font-size="14.00" fill="#c6c5fe">src/expressions/operators/unary&#45;operation.ts</text>
</g>
<!-- src/utils/app&#45;handlers.ts&#45;&gt;src/expressions/operators/unary&#45;operation.ts -->
<g id="edge105" class="edge">
<title>src/utils/app&#45;handlers.ts&#45;&gt;src/expressions/operators/unary&#45;operation.ts</title>
<path fill="none" stroke="#757575" d="M1286.67,-589.94C1286.67,-589.94 1286.67,-328.3 1286.67,-328.3"/>
<polygon fill="#757575" stroke="#757575" points="1290.17,-328.3 1286.67,-318.3 1283.17,-328.31 1290.17,-328.3"/>
</g>
<!-- src/utils/function&#45;call&#45;params.ts -->
<g id="node35" class="node">
<title>src/utils/function&#45;call&#45;params.ts</title>
<path fill="none" stroke="#c6c5fe" d="M1838.33,-377C1838.33,-377 1650.67,-377 1650.67,-377 1646.83,-377 1643,-373.17 1643,-369.33 1643,-369.33 1643,-361.67 1643,-361.67 1643,-357.83 1646.83,-354 1650.67,-354 1650.67,-354 1838.33,-354 1838.33,-354 1842.17,-354 1846,-357.83 1846,-361.67 1846,-361.67 1846,-369.33 1846,-369.33 1846,-373.17 1842.17,-377 1838.33,-377"/>
<text text-anchor="middle" x="1744.5" y="-361.8" font-family="Arial" font-size="14.00" fill="#c6c5fe">src/utils/function&#45;call&#45;params.ts</text>
</g>
<!-- src/utils/app&#45;handlers.ts&#45;&gt;src/utils/function&#45;call&#45;params.ts -->
<g id="edge112" class="edge">
<title>src/utils/app&#45;handlers.ts&#45;&gt;src/utils/function&#45;call&#45;params.ts</title>
<path fill="none" stroke="#757575" d="M1359.13,-603C1455.02,-603 1603.33,-603 1603.33,-603 1603.33,-603 1603.33,-369 1603.33,-369 1603.33,-369 1632.66,-369 1632.66,-369"/>
<polygon fill="#757575" stroke="#757575" points="1632.66,-372.5 1642.66,-369 1632.66,-365.5 1632.66,-372.5"/>
</g>
<!-- src/handlers/method&#45;call.ts -->
<g id="node37" class="node">
<title>src/handlers/method&#45;call.ts</title>
<path fill="none" stroke="#c6c5fe" d="M1586.33,-554C1586.33,-554 1422.67,-554 1422.67,-554 1418.83,-554 1415,-550.17 1415,-546.33 1415,-546.33 1415,-538.67 1415,-538.67 1415,-534.83 1418.83,-531 1422.67,-531 1422.67,-531 1586.33,-531 1586.33,-531 1590.17,-531 1594,-534.83 1594,-538.67 1594,-538.67 1594,-546.33 1594,-546.33 1594,-550.17 1590.17,-554 1586.33,-554"/>
<text text-anchor="middle" x="1504.5" y="-538.8" font-family="Arial" font-size="14.00" fill="#c6c5fe">src/handlers/method&#45;call.ts</text>
</g>
<!-- src/utils/app&#45;handlers.ts&#45;&gt;src/handlers/method&#45;call.ts -->
<g id="edge107" class="edge">
<title>src/utils/app&#45;handlers.ts&#45;&gt;src/handlers/method&#45;call.ts</title>
<path fill="none" stroke="#757575" d="M1359.22,-599C1392.58,-599 1423.75,-599 1423.75,-599 1423.75,-599 1423.75,-564.21 1423.75,-564.21"/>
<polygon fill="#757575" stroke="#757575" points="1427.25,-564.21 1423.75,-554.21 1420.25,-564.21 1427.25,-564.21"/>
</g>
<!-- src/utils/app&#45;handlers.ts&#45;&gt;src/types/modules.ts -->
<g id="edge108" class="edge">
<title>src/utils/app&#45;handlers.ts&#45;&gt;src/types/modules.ts</title>
<path fill="none" stroke="#757575" d="M1241,-589.85C1241,-550.36 1241,-424 1241,-424 1241,-424 1222.51,-424 1222.51,-424"/>
<polygon fill="#757575" stroke="#757575" points="1222.51,-420.5 1212.51,-424 1222.51,-427.5 1222.51,-420.5"/>
</g>
<!-- src/utils/app&#45;handlers.ts&#45;&gt;src/types/objects.ts -->
<g id="edge109" class="edge">
<title>src/utils/app&#45;handlers.ts&#45;&gt;src/types/objects.ts</title>
<path fill="none" stroke="#757575" d="M1231.5,-589.89C1231.5,-552.85 1231.5,-440 1231.5,-440 1231.5,-440 1038.17,-440 1038.17,-440 1038.17,-440 1038.17,-439.61 1038.17,-439.61"/>
<polygon fill="#757575" stroke="#757575" points="1041.67,-446.09 1038.17,-436.09 1034.67,-446.09 1041.67,-446.09"/>
</g>
<!-- src/types/type&#45;declarations.ts -->
<g id="node43" class="node">
<title>src/types/type&#45;declarations.ts</title>
<path fill="none" stroke="#c6c5fe" d="M902.33,-377C902.33,-377 726.67,-377 726.67,-377 722.83,-377 719,-373.17 719,-369.33 719,-369.33 719,-361.67 719,-361.67 719,-357.83 722.83,-354 726.67,-354 726.67,-354 902.33,-354 902.33,-354 906.17,-354 910,-357.83 910,-361.67 910,-361.67 910,-369.33 910,-369.33 910,-373.17 906.17,-377 902.33,-377"/>
<text text-anchor="middle" x="814.5" y="-361.8" font-family="Arial" font-size="14.00" fill="#c6c5fe">src/types/type&#45;declarations.ts</text>
</g>
<!-- src/utils/app&#45;handlers.ts&#45;&gt;src/types/type&#45;declarations.ts -->
<g id="edge111" class="edge">
<title>src/utils/app&#45;handlers.ts&#45;&gt;src/types/type&#45;declarations.ts</title>
<path fill="none" stroke="#757575" d="M1222,-589.68C1222,-566.87 1222,-519 1222,-519 1222,-519 861.5,-519 861.5,-519 861.5,-519 861.5,-387.04 861.5,-387.04"/>
<polygon fill="#757575" stroke="#757575" points="865,-387.04 861.5,-377.04 858,-387.04 865,-387.04"/>
</g>
<!-- src/utils/array.ts&#45;&gt;src/type&#45;utils.ts -->
<g id="edge113" class="edge">
<title>src/utils/array.ts&#45;&gt;src/type&#45;utils.ts</title>
<path fill="none" stroke="#757575" d="M2005.65,-66C2106.07,-66 2308.5,-66 2308.5,-66 2308.5,-66 2308.5,-33.06 2308.5,-33.06"/>
<polygon fill="#757575" stroke="#757575" points="2312,-33.06 2308.5,-23.06 2305,-33.06 2312,-33.06"/>
</g>
<!-- src/utils/this&#45;keyword.ts&#45;&gt;src/functions.ts -->
<g id="edge121" class="edge">
<title>src/utils/this&#45;keyword.ts&#45;&gt;src/functions.ts</title>
<path fill="none" stroke="#757575" d="M2030,-471.81C2030,-467.21 2030,-463 2030,-463 2030,-463 2297.2,-463 2297.2,-463 2297.2,-463 2297.2,-446.26 2297.2,-446.26"/>
<polygon fill="#757575" stroke="#757575" points="2300.7,-446.26 2297.2,-436.26 2293.7,-446.26 2300.7,-446.26"/>
</g>
<!-- src/utils/this&#45;keyword.ts&#45;&gt;src/types/structs.ts -->
<g id="edge122" class="edge">
<title>src/utils/this&#45;keyword.ts&#45;&gt;src/types/structs.ts</title>
<path fill="none" stroke="#757575" d="M1887,-471.86C1887,-469.13 1887,-467 1887,-467 1887,-467 1560.9,-467 1560.9,-467 1560.9,-467 1560.9,-387.14 1560.9,-387.14"/>
<polygon fill="#757575" stroke="#757575" points="1564.4,-387.14 1560.9,-377.14 1557.4,-387.14 1564.4,-387.14"/>
</g>
<!-- src/utils/this&#45;keyword.ts&#45;&gt;src/utils/scope&#45;helpers.ts -->
<g id="edge123" class="edge">
<title>src/utils/this&#45;keyword.ts&#45;&gt;src/utils/scope&#45;helpers.ts</title>
<path fill="none" stroke="#757575" d="M2011,-471.71C2011,-417.18 2011,-192 2011,-192 2011,-192 2149.9,-192 2149.9,-192"/>
<polygon fill="#757575" stroke="#757575" points="2149.9,-195.5 2159.9,-192 2149.9,-188.5 2149.9,-195.5"/>
</g>
<!-- src/declarations.ts -->
<g id="node18" class="node">
<title>src/declarations.ts</title>
<path fill="none" stroke="#c6c5fe" d="M1614.33,-318C1614.33,-318 1504.67,-318 1504.67,-318 1500.83,-318 1497,-314.17 1497,-310.33 1497,-310.33 1497,-302.67 1497,-302.67 1497,-298.83 1500.83,-295 1504.67,-295 1504.67,-295 1614.33,-295 1614.33,-295 1618.17,-295 1622,-298.83 1622,-302.67 1622,-302.67 1622,-310.33 1622,-310.33 1622,-314.17 1618.17,-318 1614.33,-318"/>
<text text-anchor="middle" x="1559.5" y="-302.8" font-family="Arial" font-size="14.00" fill="#c6c5fe">src/declarations.ts</text>
</g>
<!-- src/declarations.ts&#45;&gt;src/expressions/handlers.ts -->
<g id="edge17" class="edge">
<title>src/declarations.ts&#45;&gt;src/expressions/handlers.ts</title>
<path fill="none" stroke="#757575" d="M1527.75,-294.84C1527.75,-294.84 1527.75,-269.13 1527.75,-269.13"/>
<polygon fill="#757575" stroke="#757575" points="1531.25,-269.13 1527.75,-259.13 1524.25,-269.13 1531.25,-269.13"/>
</g>
<!-- src/expressions/drop&#45;handlers.ts&#45;&gt;src/expressions/handlers.ts -->
<g id="edge18" class="edge">
<title>src/expressions/drop&#45;handlers.ts&#45;&gt;src/expressions/handlers.ts</title>
<path fill="none" stroke="#757575" d="M1648.08,-481C1558.19,-481 1444,-481 1444,-481 1444,-481 1444,-269.08 1444,-269.08"/>
<polygon fill="#757575" stroke="#757575" points="1447.5,-269.08 1444,-259.08 1440.5,-269.08 1447.5,-269.08"/>
</g>
<!-- src/expressions/drop&#45;handlers.ts&#45;&gt;src/utils/array.ts -->
<g id="edge21" class="edge">
<title>src/expressions/drop&#45;handlers.ts&#45;&gt;src/utils/array.ts</title>
<path fill="none" stroke="#757575" d="M1855.67,-471.69C1855.67,-404.54 1855.67,-74 1855.67,-74 1855.67,-74 1885.34,-74 1885.34,-74"/>
<polygon fill="#757575" stroke="#757575" points="1885.34,-77.5 1895.34,-74 1885.34,-70.5 1885.34,-77.5"/>
</g>
<!-- src/expressions/drop&#45;handlers.ts&#45;&gt;src/functions.ts -->
<g id="edge19" class="edge">
<title>src/expressions/drop&#45;handlers.ts&#45;&gt;src/functions.ts</title>
<path fill="none" stroke="#757575" d="M1850.83,-471.94C1850.83,-465.2 1850.83,-458 1850.83,-458 1850.83,-458 2294.8,-458 2294.8,-458 2294.8,-458 2294.8,-446.22 2294.8,-446.22"/>
<polygon fill="#757575" stroke="#757575" points="2298.3,-446.22 2294.8,-436.22 2291.3,-446.22 2298.3,-446.22"/>
</g>
<!-- src/expressions/drop&#45;handlers.ts&#45;&gt;src/types/structs.ts -->
<g id="edge20" class="edge">
<title>src/expressions/drop&#45;handlers.ts&#45;&gt;src/types/structs.ts</title>
<path fill="none" stroke="#757575" d="M1648.43,-476C1592.48,-476 1535.3,-476 1535.3,-476 1535.3,-476 1535.3,-387.33 1535.3,-387.33"/>
<polygon fill="#757575" stroke="#757575" points="1538.8,-387.33 1535.3,-377.33 1531.8,-387.33 1538.8,-387.33"/>
</g>
<!-- src/functions.ts&#45;&gt;src/utils/identifier&#45;utils.ts -->
<g id="edge50" class="edge">
<title>src/functions.ts&#45;&gt;src/utils/identifier&#45;utils.ts</title>
<path fill="none" stroke="#757575" d="M2332.8,-412.78C2332.8,-403.12 2332.8,-391 2332.8,-391 2332.8,-391 2115.75,-391 2115.75,-391 2115.75,-391 2115.75,-328.25 2115.75,-328.25"/>
<polygon fill="#757575" stroke="#757575" points="2119.25,-328.25 2115.75,-318.25 2112.25,-328.25 2119.25,-328.25"/>
</g>
<!-- src/functions.ts&#45;&gt;src/utils/scope&#45;helpers.ts -->
<g id="edge51" class="edge">
<title>src/functions.ts&#45;&gt;src/utils/scope&#45;helpers.ts</title>
<path fill="none" stroke="#757575" d="M2354.2,-412.57C2354.2,-400.62 2354.2,-384 2354.2,-384 2354.2,-384 2188.5,-384 2188.5,-384 2188.5,-384 2188.5,-210.14 2188.5,-210.14"/>
<polygon fill="#757575" stroke="#757575" points="2192,-210.14 2188.5,-200.14 2185,-210.14 2192,-210.14"/>
</g>
<!-- src/functions.ts&#45;&gt;src/handlers/anonymous&#45;functions.ts -->
<g id="edge46" class="edge">
<title>src/functions.ts&#45;&gt;src/handlers/anonymous&#45;functions.ts</title>
<path fill="none" stroke="#757575" d="M2397.19,-420C2492.19,-420 2680,-420 2680,-420 2680,-420 2680,-387.06 2680,-387.06"/>
<polygon fill="#757575" stroke="#757575" points="2683.5,-387.06 2680,-377.06 2676.5,-387.06 2683.5,-387.06"/>
</g>
<!-- src/handlers/function&#45;declaration.ts -->
<g id="node34" class="node">
<title>src/handlers/function&#45;declaration.ts</title>
<path fill="none" stroke="#c6c5fe" d="M2418.83,-377C2418.83,-377 2208.17,-377 2208.17,-377 2204.33,-377 2200.5,-373.17 2200.5,-369.33 2200.5,-369.33 2200.5,-361.67 2200.5,-361.67 2200.5,-357.83 2204.33,-354 2208.17,-354 2208.17,-354 2418.83,-354 2418.83,-354 2422.67,-354 2426.5,-357.83 2426.5,-361.67 2426.5,-361.67 2426.5,-369.33 2426.5,-369.33 2426.5,-373.17 2422.67,-377 2418.83,-377"/>
<text text-anchor="middle" x="2313.5" y="-361.8" font-family="Arial" font-size="14.00" fill="#c6c5fe">src/handlers/function&#45;declaration.ts</text>
</g>
<!-- src/functions.ts&#45;&gt;src/handlers/function&#45;declaration.ts -->
<g id="edge47" class="edge">
<title>src/functions.ts&#45;&gt;src/handlers/function&#45;declaration.ts</title>
<path fill="none" stroke="#757575" d="M2375.6,-412.84C2375.6,-412.84 2375.6,-387.13 2375.6,-387.13"/>
<polygon fill="#757575" stroke="#757575" points="2379.1,-387.13 2375.6,-377.13 2372.1,-387.13 2379.1,-387.13"/>
</g>
<!-- src/functions.ts&#45;&gt;src/utils/function&#45;call&#45;params.ts -->
<g id="edge48" class="edge">
<title>src/functions.ts&#45;&gt;src/utils/function&#45;call&#45;params.ts</title>
<path fill="none" stroke="#757575" d="M2311.4,-412.8C2311.4,-405.7 2311.4,-398 2311.4,-398 2311.4,-398 1747.25,-398 1747.25,-398 1747.25,-398 1747.25,-387.23 1747.25,-387.23"/>
<polygon fill="#757575" stroke="#757575" points="1750.75,-387.23 1747.25,-377.23 1743.75,-387.23 1750.75,-387.23"/>
</g>
<!-- src/functions.ts&#45;&gt;src/utils/function&#45;utils.ts -->
<g id="edge49" class="edge">
<title>src/functions.ts&#45;&gt;src/utils/function&#45;utils.ts</title>
<path fill="none" stroke="#757575" d="M2397.33,-416C2443.46,-416 2502.5,-416 2502.5,-416 2502.5,-416 2502.5,-151.09 2502.5,-151.09"/>
<polygon fill="#757575" stroke="#757575" points="2506,-151.09 2502.5,-141.09 2499,-151.09 2506,-151.09"/>
</g>
<!-- src/types/structs.ts&#45;&gt;src/expressions/handlers.ts -->
<g id="edge101" class="edge">
<title>src/types/structs.ts&#45;&gt;src/expressions/handlers.ts</title>
<path fill="none" stroke="#757575" d="M1477.75,-353.75C1477.75,-353.75 1477.75,-269.2 1477.75,-269.2"/>
<polygon fill="#757575" stroke="#757575" points="1481.25,-269.2 1477.75,-259.2 1474.25,-269.2 1481.25,-269.2"/>
</g>
<!-- src/types/structs.ts&#45;&gt;src/declarations.ts -->
<g id="edge100" class="edge">
<title>src/types/structs.ts&#45;&gt;src/declarations.ts</title>
<path fill="none" stroke="#757575" d="M1556.67,-353.84C1556.67,-353.84 1556.67,-328.13 1556.67,-328.13"/>
<polygon fill="#757575" stroke="#757575" points="1560.17,-328.13 1556.67,-318.13 1553.17,-328.13 1560.17,-328.13"/>
</g>
<!-- src/handlers/assignment.ts&#45;&gt;src/utils/array.ts -->
<g id="edge56" class="edge">
<title>src/handlers/assignment.ts&#45;&gt;src/utils/array.ts</title>
<path fill="none" stroke="#757575" d="M1644.25,-176.7C1644.25,-146.73 1644.25,-70 1644.25,-70 1644.25,-70 1885.39,-70 1885.39,-70"/>
<polygon fill="#757575" stroke="#757575" points="1885.39,-73.5 1895.39,-70 1885.39,-66.5 1885.39,-73.5"/>
</g>
<!-- src/handlers/assignment.ts&#45;&gt;src/types/interpreter.ts -->
<g id="edge55" class="edge">
<title>src/handlers/assignment.ts&#45;&gt;src/types/interpreter.ts</title>
<path fill="none" stroke="#757575" d="M1555.25,-176.84C1555.25,-176.84 1555.25,-151.13 1555.25,-151.13"/>
<polygon fill="#757575" stroke="#757575" points="1558.75,-151.13 1555.25,-141.13 1551.75,-151.13 1558.75,-151.13"/>
</g>
<!-- src/utils/scope&#45;helpers.ts&#45;&gt;src/parser.ts -->
<g id="edge117" class="edge">
<title>src/utils/scope&#45;helpers.ts&#45;&gt;src/parser.ts</title>
<path fill="none" stroke="#757575" d="M2171,-200.16C2171,-208.4 2171,-218 2171,-218 2171,-218 748,-218 748,-218 748,-218 748,-151.07 748,-151.07"/>
<polygon fill="#757575" stroke="#757575" points="751.5,-151.07 748,-141.07 744.5,-151.07 751.5,-151.07"/>
</g>
<!-- src/utils/scope&#45;helpers.ts&#45;&gt;src/utils/array.ts -->
<g id="edge119" class="edge">
<title>src/utils/scope&#45;helpers.ts&#45;&gt;src/utils/array.ts</title>
<path fill="none" stroke="#757575" d="M2159.9,-184C2082.29,-184 1978,-184 1978,-184 1978,-184 1978,-92.22 1978,-92.22"/>
<polygon fill="#757575" stroke="#757575" points="1981.5,-92.22 1978,-82.22 1974.5,-92.22 1981.5,-92.22"/>
</g>
<!-- src/utils/scope&#45;helpers.ts&#45;&gt;src/type&#45;utils.ts -->
<g id="edge118" class="edge">
<title>src/utils/scope&#45;helpers.ts&#45;&gt;src/type&#45;utils.ts</title>
<path fill="none" stroke="#757575" d="M2314,-176.89C2314,-176.89 2314,-33.39 2314,-33.39"/>
<polygon fill="#757575" stroke="#757575" points="2317.5,-33.39 2314,-23.39 2310.5,-33.39 2317.5,-33.39"/>
</g>
<!-- src/utils/scope&#45;helpers.ts&#45;&gt;src/utils/function&#45;utils.ts -->
<g id="edge120" class="edge">
<title>src/utils/scope&#45;helpers.ts&#45;&gt;src/utils/function&#45;utils.ts</title>
<path fill="none" stroke="#757575" d="M2319.5,-176.74C2319.5,-159.4 2319.5,-129 2319.5,-129 2319.5,-129 2412.43,-129 2412.43,-129"/>
<polygon fill="#757575" stroke="#757575" points="2412.43,-132.5 2422.43,-129 2412.43,-125.5 2412.43,-132.5"/>
</g>
<!-- src/expressions/operators/operators.ts&#45;&gt;src/handlers/pointer&#45;operations.ts -->
<g id="edge40" class="edge">
<title>src/expressions/operators/operators.ts&#45;&gt;src/handlers/pointer&#45;operations.ts</title>
<path fill="none" stroke="#757575" d="M367.33,-471.82C367.33,-461.81 367.33,-449 367.33,-449 367.33,-449 2081.75,-449 2081.75,-449 2081.75,-449 2081.75,-446.18 2081.75,-446.18"/>
<polygon fill="#757575" stroke="#757575" points="2085.25,-446.18 2081.75,-436.18 2078.25,-446.18 2085.25,-446.18"/>
</g>
<!-- src/expressions/operators/operators.ts&#45;&gt;src/parser.ts -->
<g id="edge41" class="edge">
<title>src/expressions/operators/operators.ts&#45;&gt;src/parser.ts</title>
<path fill="none" stroke="#757575" d="M403.54,-487C519.15,-487 674.5,-487 674.5,-487 674.5,-487 674.5,-151.39 674.5,-151.39"/>
<polygon fill="#757575" stroke="#757575" points="678,-151.39 674.5,-141.39 671,-151.39 678,-151.39"/>
</g>
<!-- src/expressions/operators/op&#45;helpers.ts -->
<g id="node27" class="node">
<title>src/expressions/operators/op&#45;helpers.ts</title>
<path fill="none" stroke="#c6c5fe" d="M540.33,-436C540.33,-436 302.67,-436 302.67,-436 298.83,-436 295,-432.17 295,-428.33 295,-428.33 295,-420.67 295,-420.67 295,-416.83 298.83,-413 302.67,-413 302.67,-413 540.33,-413 540.33,-413 544.17,-413 548,-416.83 548,-420.67 548,-420.67 548,-428.33 548,-428.33 548,-432.17 544.17,-436 540.33,-436"/>
<text text-anchor="middle" x="421.5" y="-420.8" font-family="Arial" font-size="14.00" fill="#c6c5fe">src/expressions/operators/op&#45;helpers.ts</text>
</g>
<!-- src/expressions/operators/operators.ts&#45;&gt;src/expressions/operators/op&#45;helpers.ts -->
<g id="edge38" class="edge">
<title>src/expressions/operators/operators.ts&#45;&gt;src/expressions/operators/op&#45;helpers.ts</title>
<path fill="none" stroke="#757575" d="M331.17,-471.84C331.17,-471.84 331.17,-446.13 331.17,-446.13"/>
<polygon fill="#757575" stroke="#757575" points="334.67,-446.13 331.17,-436.13 327.67,-446.13 334.67,-446.13"/>
</g>
<!-- src/expressions/operators/operator&#45;finder.ts -->
<g id="node29" class="node">
<title>src/expressions/operators/operator&#45;finder.ts</title>
<path fill="none" stroke="#c6c5fe" d="M269.33,-436C269.33,-436 7.67,-436 7.67,-436 3.83,-436 0,-432.17 0,-428.33 0,-428.33 0,-420.67 0,-420.67 0,-416.83 3.83,-413 7.67,-413 7.67,-413 269.33,-413 269.33,-413 273.17,-413 277,-416.83 277,-420.67 277,-420.67 277,-428.33 277,-428.33 277,-432.17 273.17,-436 269.33,-436"/>
<text text-anchor="middle" x="138.5" y="-420.8" font-family="Arial" font-size="14.00" fill="#c6c5fe">src/expressions/operators/operator&#45;finder.ts</text>
</g>
<!-- src/expressions/operators/operators.ts&#45;&gt;src/expressions/operators/operator&#45;finder.ts -->
<g id="edge39" class="edge">
<title>src/expressions/operators/operators.ts&#45;&gt;src/expressions/operators/operator&#45;finder.ts</title>
<path fill="none" stroke="#757575" d="M217.25,-471.84C217.25,-471.84 217.25,-446.13 217.25,-446.13"/>
<polygon fill="#757575" stroke="#757575" points="220.75,-446.13 217.25,-436.13 213.75,-446.13 220.75,-446.13"/>
</g>
<!-- src/expressions/operators/operators.ts&#45;&gt;src/type&#45;utils.ts -->
<g id="edge42" class="edge">
<title>src/expressions/operators/operators.ts&#45;&gt;src/type&#45;utils.ts</title>
<path fill="none" stroke="#757575" d="M403.84,-479C483.87,-479 573.33,-479 573.33,-479 573.33,-479 573.33,-5 573.33,-5 573.33,-5 2292.65,-5 2292.65,-5"/>
<polygon fill="#757575" stroke="#757575" points="2292.65,-8.5 2302.65,-5 2292.65,-1.5 2292.65,-8.5"/>
</g>
<!-- src/expressions/operators/op&#45;helpers.ts&#45;&gt;src/utils/array.ts -->
<g id="edge36" class="edge">
<title>src/expressions/operators/op&#45;helpers.ts&#45;&gt;src/utils/array.ts</title>
<path fill="none" stroke="#757575" d="M443.67,-412.85C443.67,-350.8 443.67,-62 443.67,-62 443.67,-62 1885.08,-62 1885.08,-62"/>
<polygon fill="#757575" stroke="#757575" points="1885.08,-65.5 1895.08,-62 1885.08,-58.5 1885.08,-65.5"/>
</g>
<!-- src/expressions/operators/op&#45;helpers.ts&#45;&gt;src/types/structs.ts -->
<g id="edge35" class="edge">
<title>src/expressions/operators/op&#45;helpers.ts&#45;&gt;src/types/structs.ts</title>
<path fill="none" stroke="#757575" d="M495.83,-412.93C495.83,-408.73 495.83,-405 495.83,-405 495.83,-405 1484.1,-405 1484.1,-405 1484.1,-405 1484.1,-387.14 1484.1,-387.14"/>
<polygon fill="#757575" stroke="#757575" points="1487.6,-387.14 1484.1,-377.14 1480.6,-387.14 1487.6,-387.14"/>
</g>
<!-- src/expressions/operators/operator&#45;utils.ts -->
<g id="node28" class="node">
<title>src/expressions/operators/operator&#45;utils.ts</title>
<path fill="none" stroke="#cfffac" d="M383.83,-377C383.83,-377 131.17,-377 131.17,-377 127.33,-377 123.5,-373.17 123.5,-369.33 123.5,-369.33 123.5,-361.67 123.5,-361.67 123.5,-357.83 127.33,-354 131.17,-354 131.17,-354 383.83,-354 383.83,-354 387.67,-354 391.5,-357.83 391.5,-361.67 391.5,-361.67 391.5,-369.33 391.5,-369.33 391.5,-373.17 387.67,-377 383.83,-377"/>
<text text-anchor="middle" x="257.5" y="-361.8" font-family="Arial" font-size="14.00" fill="#cfffac">src/expressions/operators/operator&#45;utils.ts</text>
</g>
<!-- src/expressions/operators/op&#45;helpers.ts&#45;&gt;src/expressions/operators/operator&#45;utils.ts -->
<g id="edge34" class="edge">
<title>src/expressions/operators/op&#45;helpers.ts&#45;&gt;src/expressions/operators/operator&#45;utils.ts</title>
<path fill="none" stroke="#757575" d="M343.25,-412.84C343.25,-412.84 343.25,-387.13 343.25,-387.13"/>
<polygon fill="#757575" stroke="#757575" points="346.75,-387.13 343.25,-377.13 339.75,-387.13 346.75,-387.13"/>
</g>
<!-- src/expressions/operators/operator&#45;finder.ts&#45;&gt;src/expressions/operators/operator&#45;utils.ts -->
<g id="edge37" class="edge">
<title>src/expressions/operators/operator&#45;finder.ts&#45;&gt;src/expressions/operators/operator&#45;utils.ts</title>
<path fill="none" stroke="#757575" d="M200.25,-412.84C200.25,-412.84 200.25,-387.13 200.25,-387.13"/>
<polygon fill="#757575" stroke="#757575" points="203.75,-387.13 200.25,-377.13 196.75,-387.13 203.75,-387.13"/>
</g>
<!-- src/expressions/operators/unary&#45;operation.ts&#45;&gt;src/expressions/handlers.ts -->
<g id="edge43" class="edge">
<title>src/expressions/operators/unary&#45;operation.ts&#45;&gt;src/expressions/handlers.ts</title>
<path fill="none" stroke="#757575" d="M1390.5,-294.84C1390.5,-294.84 1390.5,-269.13 1390.5,-269.13"/>
<polygon fill="#757575" stroke="#757575" points="1394,-269.13 1390.5,-259.13 1387,-269.13 1394,-269.13"/>
</g>
<!-- src/function&#45;type&#45;handler.ts&#45;&gt;src/functions.ts -->
<g id="edge44" class="edge">
<title>src/function&#45;type&#45;handler.ts&#45;&gt;src/functions.ts</title>
<path fill="none" stroke="#757575" d="M3044.67,-471.74C3044.67,-454.4 3044.67,-424 3044.67,-424 3044.67,-424 2407.07,-424 2407.07,-424"/>
<polygon fill="#757575" stroke="#757575" points="2407.07,-420.5 2397.07,-424 2407.07,-427.5 2407.07,-420.5"/>
</g>
<!-- src/function&#45;type&#45;handler.ts&#45;&gt;src/type&#45;utils.ts -->
<g id="edge45" class="edge">
<title>src/function&#45;type&#45;handler.ts&#45;&gt;src/type&#45;utils.ts</title>
<path fill="none" stroke="#757575" d="M3104.33,-471.72C3104.33,-398.34 3104.33,-7 3104.33,-7 3104.33,-7 2420.28,-7 2420.28,-7"/>
<polygon fill="#757575" stroke="#757575" points="2420.28,-3.5 2410.28,-7 2420.28,-10.5 2420.28,-3.5"/>
</g>
<!-- src/handlers/anonymous&#45;functions.ts&#45;&gt;src/utils/identifier&#45;utils.ts -->
<g id="edge54" class="edge">
<title>src/handlers/anonymous&#45;functions.ts&#45;&gt;src/utils/identifier&#45;utils.ts</title>
<path fill="none" stroke="#757575" d="M2698,-353.74C2698,-336.4 2698,-306 2698,-306 2698,-306 2186.69,-306 2186.69,-306"/>
<polygon fill="#757575" stroke="#757575" points="2186.69,-302.5 2176.69,-306 2186.69,-309.5 2186.69,-302.5"/>
</g>
<!-- src/handlers/anonymous&#45;functions.ts&#45;&gt;src/type&#45;utils.ts -->
<g id="edge52" class="edge">
<title>src/handlers/anonymous&#45;functions.ts&#45;&gt;src/type&#45;utils.ts</title>
<path fill="none" stroke="#757575" d="M2777,-353.84C2777,-293.02 2777,-15 2777,-15 2777,-15 2420.18,-15 2420.18,-15"/>
<polygon fill="#757575" stroke="#757575" points="2420.18,-11.5 2410.18,-15 2420.18,-18.5 2420.18,-11.5"/>
</g>
<!-- src/handlers/anonymous&#45;functions.ts&#45;&gt;src/utils/function&#45;utils.ts -->
<g id="edge53" class="edge">
<title>src/handlers/anonymous&#45;functions.ts&#45;&gt;src/utils/function&#45;utils.ts</title>
<path fill="none" stroke="#757575" d="M2618.93,-365C2577.2,-365 2540.5,-365 2540.5,-365 2540.5,-365 2540.5,-151.18 2540.5,-151.18"/>
<polygon fill="#757575" stroke="#757575" points="2544,-151.18 2540.5,-141.18 2537,-151.18 2544,-151.18"/>
</g>
<!-- src/handlers/function&#45;declaration.ts&#45;&gt;src/declarations.ts -->
<g id="edge59" class="edge">
<title>src/handlers/function&#45;declaration.ts&#45;&gt;src/declarations.ts</title>
<path fill="none" stroke="#757575" d="M2200.14,-369C2093.63,-369 1950.5,-369 1950.5,-369 1950.5,-369 1950.5,-310 1950.5,-310 1950.5,-310 1632.32,-310 1632.32,-310"/>
<polygon fill="#757575" stroke="#757575" points="1632.32,-306.5 1622.32,-310 1632.32,-313.5 1632.32,-306.5"/>
</g>
<!-- src/handlers/function&#45;declaration.ts&#45;&gt;src/utils/identifier&#45;utils.ts -->
<g id="edge62" class="edge">
<title>src/handlers/function&#45;declaration.ts&#45;&gt;src/utils/identifier&#45;utils.ts</title>
<path fill="none" stroke="#757575" d="M2200.47,-361C2170.4,-361 2146.12,-361 2146.12,-361 2146.12,-361 2146.12,-328.06 2146.12,-328.06"/>
<polygon fill="#757575" stroke="#757575" points="2149.63,-328.06 2146.12,-318.06 2142.63,-328.06 2149.63,-328.06"/>
</g>
<!-- src/handlers/function&#45;declaration.ts&#45;&gt;src/utils/scope&#45;helpers.ts -->
<g id="edge63" class="edge">
<title>src/handlers/function&#45;declaration.ts&#45;&gt;src/utils/scope&#45;helpers.ts</title>
<path fill="none" stroke="#757575" d="M2262.75,-353.89C2262.75,-353.89 2262.75,-210.39 2262.75,-210.39"/>
<polygon fill="#757575" stroke="#757575" points="2266.25,-210.39 2262.75,-200.39 2259.25,-210.39 2266.25,-210.39"/>
</g>
<!-- src/handlers/function&#45;declaration.ts&#45;&gt;src/type&#45;utils.ts -->
<g id="edge60" class="edge">
<title>src/handlers/function&#45;declaration.ts&#45;&gt;src/type&#45;utils.ts</title>
<path fill="none" stroke="#757575" d="M2353.33,-353.72C2353.33,-353.72 2353.33,-33.32 2353.33,-33.32"/>
<polygon fill="#757575" stroke="#757575" points="2356.83,-33.32 2353.33,-23.32 2349.83,-33.32 2356.83,-33.32"/>
</g>
<!-- src/handlers/function&#45;declaration.ts&#45;&gt;src/utils/function&#45;utils.ts -->
<g id="edge61" class="edge">
<title>src/handlers/function&#45;declaration.ts&#45;&gt;src/utils/function&#45;utils.ts</title>
<path fill="none" stroke="#757575" d="M2416.25,-353.75C2416.25,-306.78 2416.25,-135 2416.25,-135 2416.25,-135 2416.86,-135 2416.86,-135"/>
<polygon fill="#757575" stroke="#757575" points="2412.31,-138.5 2422.31,-135 2412.31,-131.5 2412.31,-138.5"/>
</g>
<!-- src/utils/function&#45;call&#45;params.ts&#45;&gt;src/expressions/handlers.ts -->
<g id="edge114" class="edge">
<title>src/utils/function&#45;call&#45;params.ts&#45;&gt;src/expressions/handlers.ts</title>
<path fill="none" stroke="#757575" d="M1658.75,-353.67C1658.75,-325.17 1658.75,-255 1658.75,-255 1658.75,-255 1568.61,-255 1568.61,-255"/>
<polygon fill="#757575" stroke="#757575" points="1568.61,-251.5 1558.61,-255 1568.61,-258.5 1568.61,-251.5"/>
</g>
<!-- src/utils/function&#45;utils.ts&#45;&gt;src/type&#45;utils.ts -->
<g id="edge115" class="edge">
<title>src/utils/function&#45;utils.ts&#45;&gt;src/type&#45;utils.ts</title>
<path fill="none" stroke="#757575" d="M2422.23,-123C2399.98,-123 2381.67,-123 2381.67,-123 2381.67,-123 2381.67,-33.01 2381.67,-33.01"/>
<polygon fill="#757575" stroke="#757575" points="2385.17,-33.01 2381.67,-23.01 2378.17,-33.01 2385.17,-33.01"/>
</g>
<!-- src/handlers/method&#45;call.ts&#45;&gt;src/expressions/handlers.ts -->
<g id="edge66" class="edge">
<title>src/handlers/method&#45;call.ts&#45;&gt;src/expressions/handlers.ts</title>
<path fill="none" stroke="#757575" d="M1429.5,-530.94C1429.5,-530.94 1429.5,-269.3 1429.5,-269.3"/>
<polygon fill="#757575" stroke="#757575" points="1433,-269.3 1429.5,-259.3 1426,-269.31 1433,-269.3"/>
</g>
<!-- src/handlers/method&#45;call.ts&#45;&gt;src/utils/this&#45;keyword.ts -->
<g id="edge70" class="edge">
<title>src/handlers/method&#45;call.ts&#45;&gt;src/utils/this&#45;keyword.ts</title>
<path fill="none" stroke="#757575" d="M1592.12,-530.88C1592.12,-520.52 1592.12,-507 1592.12,-507 1592.12,-507 1891.5,-507 1891.5,-507 1891.5,-507 1891.5,-505.25 1891.5,-505.25"/>
<polygon fill="#757575" stroke="#757575" points="1895,-505.25 1891.5,-495.25 1888,-505.25 1895,-505.25"/>
</g>
<!-- src/handlers/method&#45;call.ts&#45;&gt;src/functions.ts -->
<g id="edge67" class="edge">
<title>src/handlers/method&#45;call.ts&#45;&gt;src/functions.ts</title>
<path fill="none" stroke="#757575" d="M1590.25,-530.93C1590.25,-506.94 1590.25,-454 1590.25,-454 1590.25,-454 2292.4,-454 2292.4,-454 2292.4,-454 2292.4,-446.16 2292.4,-446.16"/>
<polygon fill="#757575" stroke="#757575" points="2295.9,-446.16 2292.4,-436.16 2288.9,-446.16 2295.9,-446.16"/>
</g>
<!-- src/handlers/method&#45;call.ts&#45;&gt;src/types/structs.ts -->
<g id="edge68" class="edge">
<title>src/handlers/method&#45;call.ts&#45;&gt;src/types/structs.ts</title>
<path fill="none" stroke="#757575" d="M1509.7,-530.89C1509.7,-530.89 1509.7,-387.39 1509.7,-387.39"/>
<polygon fill="#757575" stroke="#757575" points="1513.2,-387.39 1509.7,-377.39 1506.2,-387.39 1513.2,-387.39"/>
</g>
<!-- src/handlers/method&#45;call.ts&#45;&gt;src/utils/identifier&#45;utils.ts -->
<g id="edge69" class="edge">
<title>src/handlers/method&#45;call.ts&#45;&gt;src/utils/identifier&#45;utils.ts</title>
<path fill="none" stroke="#757575" d="M1588.38,-530.93C1588.38,-505.11 1588.38,-445 1588.38,-445 1588.38,-445 2025.5,-445 2025.5,-445 2025.5,-445 2025.5,-328.31 2025.5,-328.31"/>
<polygon fill="#757575" stroke="#757575" points="2029,-328.31 2025.5,-318.31 2022,-328.31 2029,-328.31"/>
</g>
<!-- src/types/modules.ts&#45;&gt;src/expressions/handlers.ts -->
<g id="edge93" class="edge">
<title>src/types/modules.ts&#45;&gt;src/expressions/handlers.ts</title>
<path fill="none" stroke="#757575" d="M1212.57,-418C1291.18,-418 1407.86,-418 1407.86,-418 1407.86,-418 1407.86,-269.22 1407.86,-269.22"/>
<polygon fill="#757575" stroke="#757575" points="1411.36,-269.22 1407.86,-259.22 1404.36,-269.22 1411.36,-269.22"/>
</g>
<!-- src/types/namespace&#45;handler.ts -->
<g id="node42" class="node">
<title>src/types/namespace&#45;handler.ts</title>
<path fill="none" stroke="#c6c5fe" d="M1242.83,-377C1242.83,-377 1050.17,-377 1050.17,-377 1046.33,-377 1042.5,-373.17 1042.5,-369.33 1042.5,-369.33 1042.5,-361.67 1042.5,-361.67 1042.5,-357.83 1046.33,-354 1050.17,-354 1050.17,-354 1242.83,-354 1242.83,-354 1246.67,-354 1250.5,-357.83 1250.5,-361.67 1250.5,-361.67 1250.5,-369.33 1250.5,-369.33 1250.5,-373.17 1246.67,-377 1242.83,-377"/>
<text text-anchor="middle" x="1146.5" y="-361.8" font-family="Arial" font-size="14.00" fill="#c6c5fe">src/types/namespace&#45;handler.ts</text>
</g>
<!-- src/types/modules.ts&#45;&gt;src/types/namespace&#45;handler.ts -->
<g id="edge94" class="edge">
<title>src/types/modules.ts&#45;&gt;src/types/namespace&#45;handler.ts</title>
<path fill="none" stroke="#757575" d="M1142.5,-412.84C1142.5,-412.84 1142.5,-387.13 1142.5,-387.13"/>
<polygon fill="#757575" stroke="#757575" points="1146,-387.13 1142.5,-377.13 1139,-387.13 1146,-387.13"/>
</g>
<!-- src/types/objects.ts&#45;&gt;src/expressions/handlers.ts -->
<g id="edge98" class="edge">
<title>src/types/objects.ts&#45;&gt;src/expressions/handlers.ts</title>
<path fill="none" stroke="#757575" d="M982.75,-412.98C982.75,-374.53 982.75,-253 982.75,-253 982.75,-253 1368.27,-253 1368.27,-253"/>
<polygon fill="#757575" stroke="#757575" points="1368.27,-256.5 1378.27,-253 1368.27,-249.5 1368.27,-256.5"/>
</g>
<!-- src/types/objects.ts&#45;&gt;src/types/namespace&#45;handler.ts -->
<g id="edge99" class="edge">
<title>src/types/objects.ts&#45;&gt;src/types/namespace&#45;handler.ts</title>
<path fill="none" stroke="#757575" d="M1048.25,-412.84C1048.25,-412.84 1048.25,-387.13 1048.25,-387.13"/>
<polygon fill="#757575" stroke="#757575" points="1051.75,-387.13 1048.25,-377.13 1044.75,-387.13 1051.75,-387.13"/>
</g>
<!-- src/loops/types.ts&#45;&gt;src/expressions/handlers.ts -->
<g id="edge79" class="edge">
<title>src/loops/types.ts&#45;&gt;src/expressions/handlers.ts</title>
<path fill="none" stroke="#757575" d="M916.5,-530.92C916.5,-476.28 916.5,-247 916.5,-247 916.5,-247 1368.28,-247 1368.28,-247"/>
<polygon fill="#757575" stroke="#757575" points="1368.28,-250.5 1378.28,-247 1368.27,-243.5 1368.28,-250.5"/>
</g>
<!-- src/types/namespace&#45;handler.ts&#45;&gt;src/expressions/handlers.ts -->
<g id="edge96" class="edge">
<title>src/types/namespace&#45;handler.ts&#45;&gt;src/expressions/handlers.ts</title>
<path fill="none" stroke="#757575" d="M1250.61,-359C1322.15,-359 1404.29,-359 1404.29,-359 1404.29,-359 1404.29,-269.01 1404.29,-269.01"/>
<polygon fill="#757575" stroke="#757575" points="1407.79,-269.01 1404.29,-259.01 1400.79,-269.01 1407.79,-269.01"/>
</g>
<!-- src/types/namespace&#45;handler.ts&#45;&gt;src/declarations.ts -->
<g id="edge95" class="edge">
<title>src/types/namespace&#45;handler.ts&#45;&gt;src/declarations.ts</title>
<path fill="none" stroke="#757575" d="M1250.58,-365C1322.8,-365 1406.07,-365 1406.07,-365 1406.07,-365 1406.07,-306 1406.07,-306 1406.07,-306 1486.65,-306 1486.65,-306"/>
<polygon fill="#757575" stroke="#757575" points="1486.65,-309.5 1496.65,-306 1486.65,-302.5 1486.65,-309.5"/>
</g>
<!-- src/types/namespace&#45;handler.ts&#45;&gt;src/utils/identifier&#45;utils.ts -->
<g id="edge97" class="edge">
<title>src/types/namespace&#45;handler.ts&#45;&gt;src/utils/identifier&#45;utils.ts</title>
<path fill="none" stroke="#757575" d="M1184.5,-353.8C1184.5,-346.7 1184.5,-339 1184.5,-339 1184.5,-339 2021,-339 2021,-339 2021,-339 2021,-328.23 2021,-328.23"/>
<polygon fill="#757575" stroke="#757575" points="2024.5,-328.23 2021,-318.23 2017.5,-328.23 2024.5,-328.23"/>
</g>
<!-- src/types/type&#45;declarations.ts&#45;&gt;src/declarations.ts -->
<g id="edge102" class="edge">
<title>src/types/type&#45;declarations.ts&#45;&gt;src/declarations.ts</title>
<path fill="none" stroke="#757575" d="M860.83,-353.57C860.83,-341.62 860.83,-325 860.83,-325 860.83,-325 1526.83,-325 1526.83,-325 1526.83,-325 1526.83,-324.33 1526.83,-324.33"/>
<polygon fill="#757575" stroke="#757575" points="1530.33,-328.32 1526.83,-318.32 1523.33,-328.32 1530.33,-328.32"/>
</g>
<!-- src/types/type&#45;declarations.ts&#45;&gt;src/type&#45;utils.ts -->
<g id="edge103" class="edge">
<title>src/types/type&#45;declarations.ts&#45;&gt;src/type&#45;utils.ts</title>
<path fill="none" stroke="#757575" d="M811.67,-353.9C811.67,-293.43 811.67,-17 811.67,-17 811.67,-17 2292.87,-17 2292.87,-17"/>
<polygon fill="#757575" stroke="#757575" points="2292.87,-20.5 2302.87,-17 2292.87,-13.5 2292.87,-20.5"/>
</g>
<!-- src/utils/interpret.ts -->
<g id="node44" class="node">
<title>src/utils/interpret.ts</title>
<path fill="none" stroke="#c6c5fe" d="M1389.83,-731C1389.83,-731 1275.17,-731 1275.17,-731 1271.33,-731 1267.5,-727.17 1267.5,-723.33 1267.5,-723.33 1267.5,-715.67 1267.5,-715.67 1267.5,-711.83 1271.33,-708 1275.17,-708 1275.17,-708 1389.83,-708 1389.83,-708 1393.67,-708 1397.5,-711.83 1397.5,-715.67 1397.5,-715.67 1397.5,-723.33 1397.5,-723.33 1397.5,-727.17 1393.67,-731 1389.83,-731"/>
<text text-anchor="middle" x="1332.5" y="-715.8" font-family="Arial" font-size="14.00" fill="#c6c5fe">src/utils/interpret.ts</text>
</g>
<!-- src/utils/interpret.ts&#45;&gt;src/app.ts -->
<g id="edge116" class="edge">
<title>src/utils/interpret.ts&#45;&gt;src/app.ts</title>
<path fill="none" stroke="#757575" d="M1332.5,-707.84C1332.5,-707.84 1332.5,-682.13 1332.5,-682.13"/>
<polygon fill="#757575" stroke="#757575" points="1336,-682.13 1332.5,-672.13 1329,-682.13 1336,-682.13"/>
</g>
<!-- tests/control/control&#45;flow.test.ts -->
<g id="node45" class="node">
<title>tests/control/control&#45;flow.test.ts</title>
<path fill="none" stroke="#c6c5fe" d="M442.33,-790C442.33,-790 256.67,-790 256.67,-790 252.83,-790 249,-786.17 249,-782.33 249,-782.33 249,-774.67 249,-774.67 249,-770.83 252.83,-767 256.67,-767 256.67,-767 442.33,-767 442.33,-767 446.17,-767 450,-770.83 450,-774.67 450,-774.67 450,-782.33 450,-782.33 450,-786.17 446.17,-790 442.33,-790"/>
<text text-anchor="middle" x="349.5" y="-774.8" font-family="Arial" font-size="14.00" fill="#c6c5fe">tests/control/control&#45;flow.test.ts</text>
</g>
<!-- tests/control/control&#45;flow.test.ts&#45;&gt;src/utils/interpret.ts -->
<g id="edge124" class="edge">
<title>tests/control/control&#45;flow.test.ts&#45;&gt;src/utils/interpret.ts</title>
<path fill="none" stroke="#757575" d="M393.5,-766.74C393.5,-747.4 393.5,-711 393.5,-711 393.5,-711 1257.22,-711 1257.22,-711"/>
<polygon fill="#757575" stroke="#757575" points="1257.22,-714.5 1267.22,-711 1257.22,-707.5 1257.22,-714.5"/>
</g>
<!-- tests/core/arithmetic.test.ts -->
<g id="node46" class="node">
<title>tests/core/arithmetic.test.ts</title>
<path fill="none" stroke="#c6c5fe" d="M638.83,-790C638.83,-790 476.17,-790 476.17,-790 472.33,-790 468.5,-786.17 468.5,-782.33 468.5,-782.33 468.5,-774.67 468.5,-774.67 468.5,-770.83 472.33,-767 476.17,-767 476.17,-767 638.83,-767 638.83,-767 642.67,-767 646.5,-770.83 646.5,-774.67 646.5,-774.67 646.5,-782.33 646.5,-782.33 646.5,-786.17 642.67,-790 638.83,-790"/>
<text text-anchor="middle" x="557.5" y="-774.8" font-family="Arial" font-size="14.00" fill="#c6c5fe">tests/core/arithmetic.test.ts</text>
</g>
<!-- tests/core/arithmetic.test.ts&#45;&gt;src/utils/interpret.ts -->
<g id="edge125" class="edge">
<title>tests/core/arithmetic.test.ts&#45;&gt;src/utils/interpret.ts</title>
<path fill="none" stroke="#757575" d="M635.25,-766.85C635.25,-748.52 635.25,-715 635.25,-715 635.25,-715 1257.22,-715 1257.22,-715"/>
<polygon fill="#757575" stroke="#757575" points="1257.22,-718.5 1267.22,-715 1257.22,-711.5 1257.22,-718.5"/>
</g>
<!-- tests/core/char.test.ts -->
<g id="node47" class="node">
<title>tests/core/char.test.ts</title>
<path fill="none" stroke="#c6c5fe" d="M800.83,-790C800.83,-790 672.17,-790 672.17,-790 668.33,-790 664.5,-786.17 664.5,-782.33 664.5,-782.33 664.5,-774.67 664.5,-774.67 664.5,-770.83 668.33,-767 672.17,-767 672.17,-767 800.83,-767 800.83,-767 804.67,-767 808.5,-770.83 808.5,-774.67 808.5,-774.67 808.5,-782.33 808.5,-782.33 808.5,-786.17 804.67,-790 800.83,-790"/>
<text text-anchor="middle" x="736.5" y="-774.8" font-family="Arial" font-size="14.00" fill="#c6c5fe">tests/core/char.test.ts</text>
</g>
<!-- tests/core/char.test.ts&#45;&gt;src/utils/interpret.ts -->
<g id="edge126" class="edge">
<title>tests/core/char.test.ts&#45;&gt;src/utils/interpret.ts</title>
<path fill="none" stroke="#757575" d="M801.5,-766.74C801.5,-749.4 801.5,-719 801.5,-719 801.5,-719 1257.39,-719 1257.39,-719"/>
<polygon fill="#757575" stroke="#757575" points="1257.39,-722.5 1267.39,-719 1257.39,-715.5 1257.39,-722.5"/>
</g>
<!-- tests/core/strings.test.ts -->
<g id="node48" class="node">
<title>tests/core/strings.test.ts</title>
<path fill="none" stroke="#c6c5fe" d="M976.83,-790C976.83,-790 834.17,-790 834.17,-790 830.33,-790 826.5,-786.17 826.5,-782.33 826.5,-782.33 826.5,-774.67 826.5,-774.67 826.5,-770.83 830.33,-767 834.17,-767 834.17,-767 976.83,-767 976.83,-767 980.67,-767 984.5,-770.83 984.5,-774.67 984.5,-774.67 984.5,-782.33 984.5,-782.33 984.5,-786.17 980.67,-790 976.83,-790"/>
<text text-anchor="middle" x="905.5" y="-774.8" font-family="Arial" font-size="14.00" fill="#c6c5fe">tests/core/strings.test.ts</text>
</g>
<!-- tests/core/strings.test.ts&#45;&gt;src/utils/interpret.ts -->
<g id="edge127" class="edge">
<title>tests/core/strings.test.ts&#45;&gt;src/utils/interpret.ts</title>
<path fill="none" stroke="#757575" d="M972,-766.73C972,-750.44 972,-723 972,-723 972,-723 1257.22,-723 1257.22,-723"/>
<polygon fill="#757575" stroke="#757575" points="1257.22,-726.5 1267.22,-723 1257.22,-719.5 1257.22,-726.5"/>
</g>
<!-- tests/functions/constructor.test.ts -->
<g id="node49" class="node">
<title>tests/functions/constructor.test.ts</title>
<path fill="none" stroke="#c6c5fe" d="M1206.83,-790C1206.83,-790 1010.17,-790 1010.17,-790 1006.33,-790 1002.5,-786.17 1002.5,-782.33 1002.5,-782.33 1002.5,-774.67 1002.5,-774.67 1002.5,-770.83 1006.33,-767 1010.17,-767 1010.17,-767 1206.83,-767 1206.83,-767 1210.67,-767 1214.5,-770.83 1214.5,-774.67 1214.5,-774.67 1214.5,-782.33 1214.5,-782.33 1214.5,-786.17 1210.67,-790 1206.83,-790"/>
<text text-anchor="middle" x="1108.5" y="-774.8" font-family="Arial" font-size="14.00" fill="#c6c5fe">tests/functions/constructor.test.ts</text>
</g>
<!-- tests/functions/constructor.test.ts&#45;&gt;src/utils/interpret.ts -->
<g id="edge128" class="edge">
<title>tests/functions/constructor.test.ts&#45;&gt;src/utils/interpret.ts</title>
<path fill="none" stroke="#757575" d="M1207.25,-766.81C1207.25,-751.62 1207.25,-727 1207.25,-727 1207.25,-727 1257.31,-727 1257.31,-727"/>
<polygon fill="#757575" stroke="#757575" points="1257.31,-730.5 1267.31,-727 1257.31,-723.5 1257.31,-730.5"/>
</g>
<!-- tests/functions/functions.test.ts -->
<g id="node50" class="node">
<title>tests/functions/functions.test.ts</title>
<path fill="none" stroke="#c6c5fe" d="M1424.83,-790C1424.83,-790 1240.17,-790 1240.17,-790 1236.33,-790 1232.5,-786.17 1232.5,-782.33 1232.5,-782.33 1232.5,-774.67 1232.5,-774.67 1232.5,-770.83 1236.33,-767 1240.17,-767 1240.17,-767 1424.83,-767 1424.83,-767 1428.67,-767 1432.5,-770.83 1432.5,-774.67 1432.5,-774.67 1432.5,-782.33 1432.5,-782.33 1432.5,-786.17 1428.67,-790 1424.83,-790"/>
<text text-anchor="middle" x="1332.5" y="-774.8" font-family="Arial" font-size="14.00" fill="#c6c5fe">tests/functions/functions.test.ts</text>
</g>
<!-- tests/functions/functions.test.ts&#45;&gt;src/utils/interpret.ts -->
<g id="edge129" class="edge">
<title>tests/functions/functions.test.ts&#45;&gt;src/utils/interpret.ts</title>
<path fill="none" stroke="#757575" d="M1332.5,-766.84C1332.5,-766.84 1332.5,-741.13 1332.5,-741.13"/>
<polygon fill="#757575" stroke="#757575" points="1336,-741.13 1332.5,-731.13 1329,-741.13 1336,-741.13"/>
</g>
<!-- tests/functions/generic&#45;functions.test.ts -->
<g id="node51" class="node">
<title>tests/functions/generic&#45;functions.test.ts</title>
<path fill="none" stroke="#c6c5fe" d="M1692.33,-790C1692.33,-790 1458.67,-790 1458.67,-790 1454.83,-790 1451,-786.17 1451,-782.33 1451,-782.33 1451,-774.67 1451,-774.67 1451,-770.83 1454.83,-767 1458.67,-767 1458.67,-767 1692.33,-767 1692.33,-767 1696.17,-767 1700,-770.83 1700,-774.67 1700,-774.67 1700,-782.33 1700,-782.33 1700,-786.17 1696.17,-790 1692.33,-790"/>
<text text-anchor="middle" x="1575.5" y="-774.8" font-family="Arial" font-size="14.00" fill="#c6c5fe">tests/functions/generic&#45;functions.test.ts</text>
</g>
<!-- tests/functions/generic&#45;functions.test.ts&#45;&gt;src/utils/interpret.ts -->
<g id="edge130" class="edge">
<title>tests/functions/generic&#45;functions.test.ts&#45;&gt;src/utils/interpret.ts</title>
<path fill="none" stroke="#757575" d="M1522.5,-766.81C1522.5,-751.62 1522.5,-727 1522.5,-727 1522.5,-727 1407.62,-727 1407.62,-727"/>
<polygon fill="#757575" stroke="#757575" points="1407.62,-723.5 1397.62,-727 1407.62,-730.5 1407.62,-723.5"/>
</g>
<!-- tests/modules/modules.test.ts -->
<g id="node52" class="node">
<title>tests/modules/modules.test.ts</title>
<path fill="none" stroke="#c6c5fe" d="M1906.83,-790C1906.83,-790 1726.17,-790 1726.17,-790 1722.33,-790 1718.5,-786.17 1718.5,-782.33 1718.5,-782.33 1718.5,-774.67 1718.5,-774.67 1718.5,-770.83 1722.33,-767 1726.17,-767 1726.17,-767 1906.83,-767 1906.83,-767 1910.67,-767 1914.5,-770.83 1914.5,-774.67 1914.5,-774.67 1914.5,-782.33 1914.5,-782.33 1914.5,-786.17 1910.67,-790 1906.83,-790"/>
<text text-anchor="middle" x="1816.5" y="-774.8" font-family="Arial" font-size="14.00" fill="#c6c5fe">tests/modules/modules.test.ts</text>
</g>
<!-- tests/modules/modules.test.ts&#45;&gt;src/utils/interpret.ts -->
<g id="edge131" class="edge">
<title>tests/modules/modules.test.ts&#45;&gt;src/utils/interpret.ts</title>
<path fill="none" stroke="#757575" d="M1811.5,-766.73C1811.5,-750.44 1811.5,-723 1811.5,-723 1811.5,-723 1407.6,-723 1407.6,-723"/>
<polygon fill="#757575" stroke="#757575" points="1407.6,-719.5 1397.6,-723 1407.6,-726.5 1407.6,-719.5"/>
</g>
<!-- tests/types/generics.test.ts -->
<g id="node53" class="node">
<title>tests/types/generics.test.ts</title>
<path fill="none" stroke="#c6c5fe" d="M2100.83,-790C2100.83,-790 1940.17,-790 1940.17,-790 1936.33,-790 1932.5,-786.17 1932.5,-782.33 1932.5,-782.33 1932.5,-774.67 1932.5,-774.67 1932.5,-770.83 1936.33,-767 1940.17,-767 1940.17,-767 2100.83,-767 2100.83,-767 2104.67,-767 2108.5,-770.83 2108.5,-774.67 2108.5,-774.67 2108.5,-782.33 2108.5,-782.33 2108.5,-786.17 2104.67,-790 2100.83,-790"/>
<text text-anchor="middle" x="2020.5" y="-774.8" font-family="Arial" font-size="14.00" fill="#c6c5fe">tests/types/generics.test.ts</text>
</g>
<!-- tests/types/generics.test.ts&#45;&gt;src/utils/interpret.ts -->
<g id="edge132" class="edge">
<title>tests/types/generics.test.ts&#45;&gt;src/utils/interpret.ts</title>
<path fill="none" stroke="#757575" d="M1983.5,-766.74C1983.5,-749.4 1983.5,-719 1983.5,-719 1983.5,-719 1407.6,-719 1407.6,-719"/>
<polygon fill="#757575" stroke="#757575" points="1407.6,-715.5 1397.6,-719 1407.6,-722.5 1407.6,-715.5"/>
</g>
<!-- tests/types/types.test.ts -->
<g id="node54" class="node">
<title>tests/types/types.test.ts</title>
<path fill="none" stroke="#c6c5fe" d="M2276.33,-790C2276.33,-790 2134.67,-790 2134.67,-790 2130.83,-790 2127,-786.17 2127,-782.33 2127,-782.33 2127,-774.67 2127,-774.67 2127,-770.83 2130.83,-767 2134.67,-767 2134.67,-767 2276.33,-767 2276.33,-767 2280.17,-767 2284,-770.83 2284,-774.67 2284,-774.67 2284,-782.33 2284,-782.33 2284,-786.17 2280.17,-790 2276.33,-790"/>
<text text-anchor="middle" x="2205.5" y="-774.8" font-family="Arial" font-size="14.00" fill="#c6c5fe">tests/types/types.test.ts</text>
</g>
<!-- tests/types/types.test.ts&#45;&gt;src/utils/interpret.ts -->
<g id="edge133" class="edge">
<title>tests/types/types.test.ts&#45;&gt;src/utils/interpret.ts</title>
<path fill="none" stroke="#757575" d="M2146.75,-766.85C2146.75,-748.52 2146.75,-715 2146.75,-715 2146.75,-715 1407.76,-715 1407.76,-715"/>
<polygon fill="#757575" stroke="#757575" points="1407.76,-711.5 1397.76,-715 1407.76,-718.5 1407.76,-711.5"/>
</g>
<!-- tests/values/variables.test.ts -->
<g id="node55" class="node">
<title>tests/values/variables.test.ts</title>
<path fill="none" stroke="#c6c5fe" d="M2479.33,-790C2479.33,-790 2309.67,-790 2309.67,-790 2305.83,-790 2302,-786.17 2302,-782.33 2302,-782.33 2302,-774.67 2302,-774.67 2302,-770.83 2305.83,-767 2309.67,-767 2309.67,-767 2479.33,-767 2479.33,-767 2483.17,-767 2487,-770.83 2487,-774.67 2487,-774.67 2487,-782.33 2487,-782.33 2487,-786.17 2483.17,-790 2479.33,-790"/>
<text text-anchor="middle" x="2394.5" y="-774.8" font-family="Arial" font-size="14.00" fill="#c6c5fe">tests/values/variables.test.ts</text>
</g>
<!-- tests/values/variables.test.ts&#45;&gt;src/utils/interpret.ts -->
<g id="edge134" class="edge">
<title>tests/values/variables.test.ts&#45;&gt;src/utils/interpret.ts</title>
<path fill="none" stroke="#757575" d="M2326.25,-766.74C2326.25,-747.4 2326.25,-711 2326.25,-711 2326.25,-711 1407.7,-711 1407.7,-711"/>
<polygon fill="#757575" stroke="#757575" points="1407.7,-707.5 1397.7,-711 1407.7,-714.5 1407.7,-707.5"/>
</g>
</g>
</svg>
