<?xml version="1.0" encoding="UTF-8" standalone="no"?>
<!DOCTYPE svg PUBLIC "-//W3C//DTD SVG 1.1//EN"
 "http://www.w3.org/Graphics/SVG/1.1/DTD/svg11.dtd">
<!-- Generated by graphviz version 2.43.0 (0)
 -->
<!-- Title: G Pages: 1 -->
<svg width="282pt" height="172pt"
 viewBox="0.00 0.00 282.20 172.20" xmlns="http://www.w3.org/2000/svg" xmlns:xlink="http://www.w3.org/1999/xlink">
<g id="graph0" class="graph" transform="scale(1 1) rotate(0) translate(21.6 150.6)">
<title>G</title>
<polygon fill="#111111" stroke="transparent" points="-21.6,21.6 -21.6,-150.6 260.6,-150.6 260.6,21.6 -21.6,21.6"/>
<!-- app.ts -->
<g id="node1" class="node">
<title>app.ts</title>
<path fill="none" stroke="#c6c5fe" d="M152.17,-129C152.17,-129 110.83,-129 110.83,-129 107.67,-129 104.5,-125.83 104.5,-122.67 104.5,-122.67 104.5,-116.33 104.5,-116.33 104.5,-113.17 107.67,-110 110.83,-110 110.83,-110 152.17,-110 152.17,-110 155.33,-110 158.5,-113.17 158.5,-116.33 158.5,-116.33 158.5,-122.67 158.5,-122.67 158.5,-125.83 155.33,-129 152.17,-129"/>
<text text-anchor="middle" x="131.5" y="-117" font-family="Arial" font-size="10.00" fill="#c6c5fe">app.ts</text>
</g>
<!-- core/debug&#45;dump.ts -->
<g id="node2" class="node">
<title>core/debug&#45;dump.ts</title>
<path fill="none" stroke="#c6c5fe" d="M96.67,-74C96.67,-74 6.33,-74 6.33,-74 3.17,-74 0,-70.83 0,-67.67 0,-67.67 0,-61.33 0,-61.33 0,-58.17 3.17,-55 6.33,-55 6.33,-55 96.67,-55 96.67,-55 99.83,-55 103,-58.17 103,-61.33 103,-61.33 103,-67.67 103,-67.67 103,-70.83 99.83,-74 96.67,-74"/>
<text text-anchor="middle" x="51.5" y="-62" font-family="Arial" font-size="10.00" fill="#c6c5fe">core/debug&#45;dump.ts</text>
</g>
<!-- app.ts&#45;&gt;core/debug&#45;dump.ts -->
<g id="edge1" class="edge">
<title>app.ts&#45;&gt;core/debug&#45;dump.ts</title>
<path fill="none" stroke="#757575" d="M110.67,-109.87C110.67,-94.71 110.67,-67 110.67,-67 110.67,-67 109.94,-67 109.94,-67"/>
<polygon fill="#757575" stroke="#757575" points="113.41,-63.5 103.41,-67 113.41,-70.5 113.41,-63.5"/>
</g>
<!-- core/vm.ts -->
<g id="node3" class="node">
<title>core/vm.ts</title>
<path fill="none" stroke="#cfffac" d="M116.67,-19C116.67,-19 66.33,-19 66.33,-19 63.17,-19 60,-15.83 60,-12.67 60,-12.67 60,-6.33 60,-6.33 60,-3.17 63.17,0 66.33,0 66.33,0 116.67,0 116.67,0 119.83,0 123,-3.17 123,-6.33 123,-6.33 123,-12.67 123,-12.67 123,-15.83 119.83,-19 116.67,-19"/>
<text text-anchor="middle" x="91.5" y="-7" font-family="Arial" font-size="10.00" fill="#cfffac">core/vm.ts</text>
</g>
<!-- app.ts&#45;&gt;core/vm.ts -->
<g id="edge2" class="edge">
<title>app.ts&#45;&gt;core/vm.ts</title>
<path fill="none" stroke="#757575" d="M116.83,-109.74C116.83,-109.74 116.83,-29.08 116.83,-29.08"/>
<polygon fill="#757575" stroke="#757575" points="120.33,-29.08 116.83,-19.08 113.33,-29.08 120.33,-29.08"/>
</g>
<!-- types/types.ts -->
<g id="node4" class="node">
<title>types/types.ts</title>
<path fill="none" stroke="#cfffac" d="M232.67,-74C232.67,-74 166.33,-74 166.33,-74 163.17,-74 160,-70.83 160,-67.67 160,-67.67 160,-61.33 160,-61.33 160,-58.17 163.17,-55 166.33,-55 166.33,-55 232.67,-55 232.67,-55 235.83,-55 239,-58.17 239,-61.33 239,-61.33 239,-67.67 239,-67.67 239,-70.83 235.83,-74 232.67,-74"/>
<text text-anchor="middle" x="199.5" y="-62" font-family="Arial" font-size="10.00" fill="#cfffac">types/types.ts</text>
</g>
<!-- app.ts&#45;&gt;types/types.ts -->
<g id="edge3" class="edge">
<title>app.ts&#45;&gt;types/types.ts</title>
<path fill="none" stroke="#757575" d="M140.75,-109.84C140.75,-93.22 140.75,-61 140.75,-61 140.75,-61 149.99,-61 149.99,-61"/>
<polygon fill="#757575" stroke="#757575" points="149.99,-64.5 159.99,-61 149.99,-57.5 149.99,-64.5"/>
</g>
<!-- core/debug&#45;dump.ts&#45;&gt;core/vm.ts -->
<g id="edge4" class="edge">
<title>core/debug&#45;dump.ts&#45;&gt;core/vm.ts</title>
<path fill="none" stroke="#757575" d="M81.5,-54.92C81.5,-54.92 81.5,-29.34 81.5,-29.34"/>
<polygon fill="#757575" stroke="#757575" points="85,-29.34 81.5,-19.34 78,-29.34 85,-29.34"/>
</g>
</g>
</svg>
