<?xml version="1.0" encoding="UTF-8" standalone="no"?>
<!DOCTYPE svg PUBLIC "-//W3C//DTD SVG 1.1//EN"
 "http://www.w3.org/Graphics/SVG/1.1/DTD/svg11.dtd">
<!-- Generated by graphviz version 2.43.0 (0)
 -->
<!-- Title: G Pages: 1 -->
<svg width="1023pt" height="361pt"
 viewBox="0.00 0.00 1023.20 361.20" xmlns="http://www.w3.org/2000/svg" xmlns:xlink="http://www.w3.org/1999/xlink">
<g id="graph0" class="graph" transform="scale(1 1) rotate(0) translate(21.6 339.6)">
<title>G</title>
<polygon fill="#111111" stroke="transparent" points="-21.6,21.6 -21.6,-339.6 1001.6,-339.6 1001.6,21.6 -21.6,21.6"/>
<!-- src/app.ts -->
<g id="node1" class="node">
<title>src/app.ts</title>
<path fill="none" stroke="#c6c5fe" d="M605.83,-259C605.83,-259 546.17,-259 546.17,-259 542.33,-259 538.5,-255.17 538.5,-251.33 538.5,-251.33 538.5,-243.67 538.5,-243.67 538.5,-239.83 542.33,-236 546.17,-236 546.17,-236 605.83,-236 605.83,-236 609.67,-236 613.5,-239.83 613.5,-243.67 613.5,-243.67 613.5,-251.33 613.5,-251.33 613.5,-255.17 609.67,-259 605.83,-259"/>
<text text-anchor="middle" x="576" y="-243.8" font-family="Arial" font-size="14.00" fill="#c6c5fe">src/app.ts</text>
</g>
<!-- src/expressions/binary&#45;operation.ts -->
<g id="node2" class="node">
<title>src/expressions/binary&#45;operation.ts</title>
<path fill="none" stroke="#c6c5fe" d="M972.33,-200C972.33,-200 761.67,-200 761.67,-200 757.83,-200 754,-196.17 754,-192.33 754,-192.33 754,-184.67 754,-184.67 754,-180.83 757.83,-177 761.67,-177 761.67,-177 972.33,-177 972.33,-177 976.17,-177 980,-180.83 980,-184.67 980,-184.67 980,-192.33 980,-192.33 980,-196.17 976.17,-200 972.33,-200"/>
<text text-anchor="middle" x="867" y="-184.8" font-family="Arial" font-size="14.00" fill="#c6c5fe">src/expressions/binary&#45;operation.ts</text>
</g>
<!-- src/app.ts&#45;&gt;src/expressions/binary&#45;operation.ts -->
<g id="edge1" class="edge">
<title>src/app.ts&#45;&gt;src/expressions/binary&#45;operation.ts</title>
<path fill="none" stroke="#757575" d="M609.83,-235.74C609.83,-218.4 609.83,-188 609.83,-188 609.83,-188 743.83,-188 743.83,-188"/>
<polygon fill="#757575" stroke="#757575" points="743.83,-191.5 753.83,-188 743.83,-184.5 743.83,-191.5"/>
</g>
<!-- src/expressions/grouped&#45;expressions.ts -->
<g id="node3" class="node">
<title>src/expressions/grouped&#45;expressions.ts</title>
<path fill="none" stroke="#c6c5fe" d="M278.33,-200C278.33,-200 39.67,-200 39.67,-200 35.83,-200 32,-196.17 32,-192.33 32,-192.33 32,-184.67 32,-184.67 32,-180.83 35.83,-177 39.67,-177 39.67,-177 278.33,-177 278.33,-177 282.17,-177 286,-180.83 286,-184.67 286,-184.67 286,-192.33 286,-192.33 286,-196.17 282.17,-200 278.33,-200"/>
<text text-anchor="middle" x="159" y="-184.8" font-family="Arial" font-size="14.00" fill="#c6c5fe">src/expressions/grouped&#45;expressions.ts</text>
</g>
<!-- src/app.ts&#45;&gt;src/expressions/grouped&#45;expressions.ts -->
<g id="edge2" class="edge">
<title>src/app.ts&#45;&gt;src/expressions/grouped&#45;expressions.ts</title>
<path fill="none" stroke="#757575" d="M538.26,-249C435.61,-249 159,-249 159,-249 159,-249 159,-210.17 159,-210.17"/>
<polygon fill="#757575" stroke="#757575" points="162.5,-210.16 159,-200.17 155.5,-210.17 162.5,-210.16"/>
</g>
<!-- src/expressions/handlers.ts -->
<g id="node4" class="node">
<title>src/expressions/handlers.ts</title>
<path fill="none" stroke="#cfffac" d="M702.33,-82C702.33,-82 537.67,-82 537.67,-82 533.83,-82 530,-78.17 530,-74.33 530,-74.33 530,-66.67 530,-66.67 530,-62.83 533.83,-59 537.67,-59 537.67,-59 702.33,-59 702.33,-59 706.17,-59 710,-62.83 710,-66.67 710,-66.67 710,-74.33 710,-74.33 710,-78.17 706.17,-82 702.33,-82"/>
<text text-anchor="middle" x="620" y="-66.8" font-family="Arial" font-size="14.00" fill="#cfffac">src/expressions/handlers.ts</text>
</g>
<!-- src/app.ts&#45;&gt;src/expressions/handlers.ts -->
<g id="edge3" class="edge">
<title>src/app.ts&#45;&gt;src/expressions/handlers.ts</title>
<path fill="none" stroke="#757575" d="M595.17,-235.89C595.17,-235.89 595.17,-92.39 595.17,-92.39"/>
<polygon fill="#757575" stroke="#757575" points="598.67,-92.39 595.17,-82.39 591.67,-92.39 598.67,-92.39"/>
</g>
<!-- src/loops/for.ts -->
<g id="node5" class="node">
<title>src/loops/for.ts</title>
<path fill="none" stroke="#c6c5fe" d="M576.33,-200C576.33,-200 487.67,-200 487.67,-200 483.83,-200 480,-196.17 480,-192.33 480,-192.33 480,-184.67 480,-184.67 480,-180.83 483.83,-177 487.67,-177 487.67,-177 576.33,-177 576.33,-177 580.17,-177 584,-180.83 584,-184.67 584,-184.67 584,-192.33 584,-192.33 584,-196.17 580.17,-200 576.33,-200"/>
<text text-anchor="middle" x="532" y="-184.8" font-family="Arial" font-size="14.00" fill="#c6c5fe">src/loops/for.ts</text>
</g>
<!-- src/app.ts&#45;&gt;src/loops/for.ts -->
<g id="edge4" class="edge">
<title>src/app.ts&#45;&gt;src/loops/for.ts</title>
<path fill="none" stroke="#757575" d="M561.25,-235.84C561.25,-235.84 561.25,-210.13 561.25,-210.13"/>
<polygon fill="#757575" stroke="#757575" points="564.75,-210.13 561.25,-200.13 557.75,-210.13 564.75,-210.13"/>
</g>
<!-- src/loops/loop.ts -->
<g id="node6" class="node">
<title>src/loops/loop.ts</title>
<path fill="none" stroke="#cfffac" d="M293.33,-141C293.33,-141 194.67,-141 194.67,-141 190.83,-141 187,-137.17 187,-133.33 187,-133.33 187,-125.67 187,-125.67 187,-121.83 190.83,-118 194.67,-118 194.67,-118 293.33,-118 293.33,-118 297.17,-118 301,-121.83 301,-125.67 301,-125.67 301,-133.33 301,-133.33 301,-137.17 297.17,-141 293.33,-141"/>
<text text-anchor="middle" x="244" y="-125.8" font-family="Arial" font-size="14.00" fill="#cfffac">src/loops/loop.ts</text>
</g>
<!-- src/app.ts&#45;&gt;src/loops/loop.ts -->
<g id="edge5" class="edge">
<title>src/app.ts&#45;&gt;src/loops/loop.ts</title>
<path fill="none" stroke="#757575" d="M538.28,-245C460.55,-245 289.75,-245 289.75,-245 289.75,-245 289.75,-151.43 289.75,-151.43"/>
<polygon fill="#757575" stroke="#757575" points="293.25,-151.43 289.75,-141.43 286.25,-151.43 293.25,-151.43"/>
</g>
<!-- src/loops/while.ts -->
<g id="node7" class="node">
<title>src/loops/while.ts</title>
<path fill="none" stroke="#c6c5fe" d="M453.83,-200C453.83,-200 350.17,-200 350.17,-200 346.33,-200 342.5,-196.17 342.5,-192.33 342.5,-192.33 342.5,-184.67 342.5,-184.67 342.5,-180.83 346.33,-177 350.17,-177 350.17,-177 453.83,-177 453.83,-177 457.67,-177 461.5,-180.83 461.5,-184.67 461.5,-184.67 461.5,-192.33 461.5,-192.33 461.5,-196.17 457.67,-200 453.83,-200"/>
<text text-anchor="middle" x="402" y="-184.8" font-family="Arial" font-size="14.00" fill="#c6c5fe">src/loops/while.ts</text>
</g>
<!-- src/app.ts&#45;&gt;src/loops/while.ts -->
<g id="edge6" class="edge">
<title>src/app.ts&#45;&gt;src/loops/while.ts</title>
<path fill="none" stroke="#757575" d="M538.24,-240C487.07,-240 402,-240 402,-240 402,-240 402,-210.19 402,-210.19"/>
<polygon fill="#757575" stroke="#757575" points="405.5,-210.19 402,-200.19 398.5,-210.19 405.5,-210.19"/>
</g>
<!-- src/match.ts -->
<g id="node8" class="node">
<title>src/match.ts</title>
<path fill="none" stroke="#cfffac" d="M82.33,-141C82.33,-141 7.67,-141 7.67,-141 3.83,-141 0,-137.17 0,-133.33 0,-133.33 0,-125.67 0,-125.67 0,-121.83 3.83,-118 7.67,-118 7.67,-118 82.33,-118 82.33,-118 86.17,-118 90,-121.83 90,-125.67 90,-125.67 90,-133.33 90,-133.33 90,-137.17 86.17,-141 82.33,-141"/>
<text text-anchor="middle" x="45" y="-125.8" font-family="Arial" font-size="14.00" fill="#cfffac">src/match.ts</text>
</g>
<!-- src/app.ts&#45;&gt;src/match.ts -->
<g id="edge7" class="edge">
<title>src/app.ts&#45;&gt;src/match.ts</title>
<path fill="none" stroke="#757575" d="M538.39,-254C412.83,-254 16,-254 16,-254 16,-254 16,-151.44 16,-151.44"/>
<polygon fill="#757575" stroke="#757575" points="19.5,-151.44 16,-141.44 12.5,-151.44 19.5,-151.44"/>
</g>
<!-- src/parser.ts -->
<g id="node9" class="node">
<title>src/parser.ts</title>
<path fill="none" stroke="#c6c5fe" d="M879.33,-82C879.33,-82 804.67,-82 804.67,-82 800.83,-82 797,-78.17 797,-74.33 797,-74.33 797,-66.67 797,-66.67 797,-62.83 800.83,-59 804.67,-59 804.67,-59 879.33,-59 879.33,-59 883.17,-59 887,-62.83 887,-66.67 887,-66.67 887,-74.33 887,-74.33 887,-78.17 883.17,-82 879.33,-82"/>
<text text-anchor="middle" x="842" y="-66.8" font-family="Arial" font-size="14.00" fill="#c6c5fe">src/parser.ts</text>
</g>
<!-- src/app.ts&#45;&gt;src/parser.ts -->
<g id="edge8" class="edge">
<title>src/app.ts&#45;&gt;src/parser.ts</title>
<path fill="none" stroke="#757575" d="M606.17,-235.68C606.17,-212.87 606.17,-165 606.17,-165 606.17,-165 821.33,-165 821.33,-165 821.33,-165 821.33,-92.09 821.33,-92.09"/>
<polygon fill="#757575" stroke="#757575" points="824.83,-92.09 821.33,-82.09 817.83,-92.09 824.83,-92.09"/>
</g>
<!-- src/scope.ts -->
<g id="node10" class="node">
<title>src/scope.ts</title>
<path fill="none" stroke="#c6c5fe" d="M767.83,-141C767.83,-141 694.17,-141 694.17,-141 690.33,-141 686.5,-137.17 686.5,-133.33 686.5,-133.33 686.5,-125.67 686.5,-125.67 686.5,-121.83 690.33,-118 694.17,-118 694.17,-118 767.83,-118 767.83,-118 771.67,-118 775.5,-121.83 775.5,-125.67 775.5,-125.67 775.5,-133.33 775.5,-133.33 775.5,-137.17 771.67,-141 767.83,-141"/>
<text text-anchor="middle" x="731" y="-125.8" font-family="Arial" font-size="14.00" fill="#c6c5fe">src/scope.ts</text>
</g>
<!-- src/app.ts&#45;&gt;src/scope.ts -->
<g id="edge9" class="edge">
<title>src/app.ts&#45;&gt;src/scope.ts</title>
<path fill="none" stroke="#757575" d="M602.5,-235.7C602.5,-205.73 602.5,-129 602.5,-129 602.5,-129 676.42,-129 676.42,-129"/>
<polygon fill="#757575" stroke="#757575" points="676.42,-132.5 686.42,-129 676.42,-125.5 676.42,-132.5"/>
</g>
<!-- src/types.ts -->
<g id="node11" class="node">
<title>src/types.ts</title>
<path fill="none" stroke="#cfffac" d="M915.83,-23C915.83,-23 846.17,-23 846.17,-23 842.33,-23 838.5,-19.17 838.5,-15.33 838.5,-15.33 838.5,-7.67 838.5,-7.67 838.5,-3.83 842.33,0 846.17,0 846.17,0 915.83,0 915.83,0 919.67,0 923.5,-3.83 923.5,-7.67 923.5,-7.67 923.5,-15.33 923.5,-15.33 923.5,-19.17 919.67,-23 915.83,-23"/>
<text text-anchor="middle" x="881" y="-7.8" font-family="Arial" font-size="14.00" fill="#cfffac">src/types.ts</text>
</g>
<!-- src/app.ts&#45;&gt;src/types.ts -->
<g id="edge10" class="edge">
<title>src/app.ts&#45;&gt;src/types.ts</title>
<path fill="none" stroke="#757575" d="M598.83,-235.93C598.83,-201.15 598.83,-100 598.83,-100 598.83,-100 899.17,-100 899.17,-100 899.17,-100 899.17,-33.07 899.17,-33.07"/>
<polygon fill="#757575" stroke="#757575" points="902.67,-33.07 899.17,-23.07 895.67,-33.07 902.67,-33.07"/>
</g>
<!-- src/expressions/binary&#45;operation.ts&#45;&gt;src/expressions/handlers.ts -->
<g id="edge11" class="edge">
<title>src/expressions/binary&#45;operation.ts&#45;&gt;src/expressions/handlers.ts</title>
<path fill="none" stroke="#757575" d="M786.25,-176.68C786.25,-147.42 786.25,-74 786.25,-74 786.25,-74 720.42,-74 720.42,-74"/>
<polygon fill="#757575" stroke="#757575" points="720.42,-70.5 710.42,-74 720.42,-77.5 720.42,-70.5"/>
</g>
<!-- src/expressions/binary&#45;operation.ts&#45;&gt;src/parser.ts -->
<g id="edge13" class="edge">
<title>src/expressions/binary&#45;operation.ts&#45;&gt;src/parser.ts</title>
<path fill="none" stroke="#757575" d="M845.67,-176.75C845.67,-176.75 845.67,-92.2 845.67,-92.2"/>
<polygon fill="#757575" stroke="#757575" points="849.17,-92.2 845.67,-82.2 842.17,-92.2 849.17,-92.2"/>
</g>
<!-- src/operators.ts -->
<g id="node12" class="node">
<title>src/operators.ts</title>
<path fill="none" stroke="#c6c5fe" d="M972.33,-141C972.33,-141 877.67,-141 877.67,-141 873.83,-141 870,-137.17 870,-133.33 870,-133.33 870,-125.67 870,-125.67 870,-121.83 873.83,-118 877.67,-118 877.67,-118 972.33,-118 972.33,-118 976.17,-118 980,-121.83 980,-125.67 980,-125.67 980,-133.33 980,-133.33 980,-137.17 976.17,-141 972.33,-141"/>
<text text-anchor="middle" x="925" y="-125.8" font-family="Arial" font-size="14.00" fill="#c6c5fe">src/operators.ts</text>
</g>
<!-- src/expressions/binary&#45;operation.ts&#45;&gt;src/operators.ts -->
<g id="edge12" class="edge">
<title>src/expressions/binary&#45;operation.ts&#45;&gt;src/operators.ts</title>
<path fill="none" stroke="#757575" d="M925,-176.84C925,-176.84 925,-151.13 925,-151.13"/>
<polygon fill="#757575" stroke="#757575" points="928.5,-151.13 925,-141.13 921.5,-151.13 928.5,-151.13"/>
</g>
<!-- src/expressions/grouped&#45;expressions.ts&#45;&gt;src/expressions/handlers.ts -->
<g id="edge14" class="edge">
<title>src/expressions/grouped&#45;expressions.ts&#45;&gt;src/expressions/handlers.ts</title>
<path fill="none" stroke="#757575" d="M138.5,-176.7C138.5,-146.73 138.5,-70 138.5,-70 138.5,-70 520,-70 520,-70"/>
<polygon fill="#757575" stroke="#757575" points="520,-73.5 530,-70 520,-66.5 520,-73.5"/>
</g>
<!-- src/expressions/grouped&#45;expressions.ts&#45;&gt;src/match.ts -->
<g id="edge15" class="edge">
<title>src/expressions/grouped&#45;expressions.ts&#45;&gt;src/match.ts</title>
<path fill="none" stroke="#757575" d="M61,-176.84C61,-176.84 61,-151.13 61,-151.13"/>
<polygon fill="#757575" stroke="#757575" points="64.5,-151.13 61,-141.13 57.5,-151.13 64.5,-151.13"/>
</g>
<!-- src/loops/for.ts&#45;&gt;src/loops/loop.ts -->
<g id="edge17" class="edge">
<title>src/loops/for.ts&#45;&gt;src/loops/loop.ts</title>
<path fill="none" stroke="#757575" d="M514.67,-176.88C514.67,-166.52 514.67,-153 514.67,-153 514.67,-153 297.25,-153 297.25,-153 297.25,-153 297.25,-151.25 297.25,-151.25"/>
<polygon fill="#757575" stroke="#757575" points="300.75,-151.25 297.25,-141.25 293.75,-151.25 300.75,-151.25"/>
</g>
<!-- src/loops/helpers.ts -->
<g id="node13" class="node">
<title>src/loops/helpers.ts</title>
<path fill="none" stroke="#cfffac" d="M444.83,-141C444.83,-141 327.17,-141 327.17,-141 323.33,-141 319.5,-137.17 319.5,-133.33 319.5,-133.33 319.5,-125.67 319.5,-125.67 319.5,-121.83 323.33,-118 327.17,-118 327.17,-118 444.83,-118 444.83,-118 448.67,-118 452.5,-121.83 452.5,-125.67 452.5,-125.67 452.5,-133.33 452.5,-133.33 452.5,-137.17 448.67,-141 444.83,-141"/>
<text text-anchor="middle" x="386" y="-125.8" font-family="Arial" font-size="14.00" fill="#cfffac">src/loops/helpers.ts</text>
</g>
<!-- src/loops/for.ts&#45;&gt;src/loops/helpers.ts -->
<g id="edge16" class="edge">
<title>src/loops/for.ts&#45;&gt;src/loops/helpers.ts</title>
<path fill="none" stroke="#757575" d="M480,-188C471.82,-188 466,-188 466,-188 466,-188 466,-133 466,-133 466,-133 462.79,-133 462.79,-133"/>
<polygon fill="#757575" stroke="#757575" points="462.79,-129.5 452.79,-133 462.79,-136.5 462.79,-129.5"/>
</g>
<!-- src/loops/types.ts -->
<g id="node14" class="node">
<title>src/loops/types.ts</title>
<path fill="none" stroke="#c6c5fe" d="M583.83,-141C583.83,-141 478.17,-141 478.17,-141 474.33,-141 470.5,-137.17 470.5,-133.33 470.5,-133.33 470.5,-125.67 470.5,-125.67 470.5,-121.83 474.33,-118 478.17,-118 478.17,-118 583.83,-118 583.83,-118 587.67,-118 591.5,-121.83 591.5,-125.67 591.5,-125.67 591.5,-133.33 591.5,-133.33 591.5,-137.17 587.67,-141 583.83,-141"/>
<text text-anchor="middle" x="531" y="-125.8" font-family="Arial" font-size="14.00" fill="#c6c5fe">src/loops/types.ts</text>
</g>
<!-- src/loops/for.ts&#45;&gt;src/loops/types.ts -->
<g id="edge18" class="edge">
<title>src/loops/for.ts&#45;&gt;src/loops/types.ts</title>
<path fill="none" stroke="#757575" d="M549.33,-176.84C549.33,-176.84 549.33,-151.13 549.33,-151.13"/>
<polygon fill="#757575" stroke="#757575" points="552.83,-151.13 549.33,-141.13 545.83,-151.13 552.83,-151.13"/>
</g>
<!-- src/loops/while.ts&#45;&gt;src/loops/loop.ts -->
<g id="edge21" class="edge">
<title>src/loops/while.ts&#45;&gt;src/loops/loop.ts</title>
<path fill="none" stroke="#757575" d="M342.35,-188C317.14,-188 293.5,-188 293.5,-188 293.5,-188 293.5,-151.06 293.5,-151.06"/>
<polygon fill="#757575" stroke="#757575" points="297,-151.06 293.5,-141.06 290,-151.06 297,-151.06"/>
</g>
<!-- src/loops/while.ts&#45;&gt;src/loops/helpers.ts -->
<g id="edge20" class="edge">
<title>src/loops/while.ts&#45;&gt;src/loops/helpers.ts</title>
<path fill="none" stroke="#757575" d="M397.5,-176.84C397.5,-176.84 397.5,-151.13 397.5,-151.13"/>
<polygon fill="#757575" stroke="#757575" points="401,-151.13 397.5,-141.13 394,-151.13 401,-151.13"/>
</g>
<!-- src/loops/while.ts&#45;&gt;src/loops/types.ts -->
<g id="edge22" class="edge">
<title>src/loops/while.ts&#45;&gt;src/loops/types.ts</title>
<path fill="none" stroke="#757575" d="M457,-176.85C457,-158.52 457,-125 457,-125 457,-125 460.23,-125 460.23,-125"/>
<polygon fill="#757575" stroke="#757575" points="460.23,-128.5 470.23,-125 460.23,-121.5 460.23,-128.5"/>
</g>
<!-- src/parser.ts&#45;&gt;src/types.ts -->
<g id="edge25" class="edge">
<title>src/parser.ts&#45;&gt;src/types.ts</title>
<path fill="none" stroke="#757575" d="M862.75,-58.84C862.75,-58.84 862.75,-33.13 862.75,-33.13"/>
<polygon fill="#757575" stroke="#757575" points="866.25,-33.13 862.75,-23.13 859.25,-33.13 866.25,-33.13"/>
</g>
<!-- src/scope.ts&#45;&gt;src/expressions/handlers.ts -->
<g id="edge26" class="edge">
<title>src/scope.ts&#45;&gt;src/expressions/handlers.ts</title>
<path fill="none" stroke="#757575" d="M698.25,-117.84C698.25,-117.84 698.25,-92.13 698.25,-92.13"/>
<polygon fill="#757575" stroke="#757575" points="701.75,-92.13 698.25,-82.13 694.75,-92.13 701.75,-92.13"/>
</g>
<!-- src/scope.ts&#45;&gt;src/parser.ts -->
<g id="edge27" class="edge">
<title>src/scope.ts&#45;&gt;src/parser.ts</title>
<path fill="none" stroke="#757575" d="M753.67,-117.85C753.67,-99.52 753.67,-66 753.67,-66 753.67,-66 786.8,-66 786.8,-66"/>
<polygon fill="#757575" stroke="#757575" points="786.8,-69.5 796.8,-66 786.8,-62.5 786.8,-69.5"/>
</g>
<!-- src/scope.ts&#45;&gt;src/types.ts -->
<g id="edge28" class="edge">
<title>src/scope.ts&#45;&gt;src/types.ts</title>
<path fill="none" stroke="#757575" d="M731.83,-117.7C731.83,-87.73 731.83,-11 731.83,-11 731.83,-11 828.25,-11 828.25,-11"/>
<polygon fill="#757575" stroke="#757575" points="828.25,-14.5 838.25,-11 828.25,-7.5 828.25,-14.5"/>
</g>
<!-- src/operators.ts&#45;&gt;src/parser.ts -->
<g id="edge23" class="edge">
<title>src/operators.ts&#45;&gt;src/parser.ts</title>
<path fill="none" stroke="#757575" d="M878.5,-117.84C878.5,-117.84 878.5,-92.13 878.5,-92.13"/>
<polygon fill="#757575" stroke="#757575" points="882,-92.13 878.5,-82.13 875,-92.13 882,-92.13"/>
</g>
<!-- src/operators.ts&#45;&gt;src/types.ts -->
<g id="edge24" class="edge">
<title>src/operators.ts&#45;&gt;src/types.ts</title>
<path fill="none" stroke="#757575" d="M911.33,-117.75C911.33,-117.75 911.33,-33.2 911.33,-33.2"/>
<polygon fill="#757575" stroke="#757575" points="914.83,-33.2 911.33,-23.2 907.83,-33.2 914.83,-33.2"/>
</g>
<!-- src/loops/types.ts&#45;&gt;src/expressions/handlers.ts -->
<g id="edge19" class="edge">
<title>src/loops/types.ts&#45;&gt;src/expressions/handlers.ts</title>
<path fill="none" stroke="#757575" d="M560.75,-117.84C560.75,-117.84 560.75,-92.13 560.75,-92.13"/>
<polygon fill="#757575" stroke="#757575" points="564.25,-92.13 560.75,-82.13 557.25,-92.13 564.25,-92.13"/>
</g>
<!-- tests/app.test.ts -->
<g id="node15" class="node">
<title>tests/app.test.ts</title>
<path fill="none" stroke="#c6c5fe" d="M623.83,-318C623.83,-318 528.17,-318 528.17,-318 524.33,-318 520.5,-314.17 520.5,-310.33 520.5,-310.33 520.5,-302.67 520.5,-302.67 520.5,-298.83 524.33,-295 528.17,-295 528.17,-295 623.83,-295 623.83,-295 627.67,-295 631.5,-298.83 631.5,-302.67 631.5,-302.67 631.5,-310.33 631.5,-310.33 631.5,-314.17 627.67,-318 623.83,-318"/>
<text text-anchor="middle" x="576" y="-302.8" font-family="Arial" font-size="14.00" fill="#c6c5fe">tests/app.test.ts</text>
</g>
<!-- tests/app.test.ts&#45;&gt;src/app.ts -->
<g id="edge29" class="edge">
<title>tests/app.test.ts&#45;&gt;src/app.ts</title>
<path fill="none" stroke="#757575" d="M576,-294.84C576,-294.84 576,-269.13 576,-269.13"/>
<polygon fill="#757575" stroke="#757575" points="579.5,-269.13 576,-259.13 572.5,-269.13 579.5,-269.13"/>
</g>
</g>
</svg>
