<?xml version="1.0" encoding="UTF-8" standalone="no"?>
<!DOCTYPE svg PUBLIC "-//W3C//DTD SVG 1.1//EN"
 "http://www.w3.org/Graphics/SVG/1.1/DTD/svg11.dtd">
<!-- Generated by graphviz version 2.43.0 (0)
 -->
<!-- Title: G Pages: 1 -->
<svg width="2248pt" height="447pt"
 viewBox="0.00 0.00 2248.20 447.20" xmlns="http://www.w3.org/2000/svg" xmlns:xlink="http://www.w3.org/1999/xlink">
<g id="graph0" class="graph" transform="scale(1 1) rotate(0) translate(21.6 425.6)">
<title>G</title>
<polygon fill="#111111" stroke="transparent" points="-21.6,21.6 -21.6,-425.6 2226.6,-425.6 2226.6,21.6 -21.6,21.6"/>
<!-- app.ts -->
<g id="node1" class="node">
<title>app.ts</title>
<path fill="none" stroke="#c6c5fe" d="M819.17,-404C819.17,-404 777.83,-404 777.83,-404 774.67,-404 771.5,-400.83 771.5,-397.67 771.5,-397.67 771.5,-391.33 771.5,-391.33 771.5,-388.17 774.67,-385 777.83,-385 777.83,-385 819.17,-385 819.17,-385 822.33,-385 825.5,-388.17 825.5,-391.33 825.5,-391.33 825.5,-397.67 825.5,-397.67 825.5,-400.83 822.33,-404 819.17,-404"/>
<text text-anchor="middle" x="798.5" y="-392" font-family="Arial" font-size="10.00" fill="#c6c5fe">app.ts</text>
</g>
<!-- arithmetic&#45;parsing.ts -->
<g id="node2" class="node">
<title>arithmetic&#45;parsing.ts</title>
<path fill="none" stroke="#c6c5fe" d="M1332.67,-239C1332.67,-239 1240.33,-239 1240.33,-239 1237.17,-239 1234,-235.83 1234,-232.67 1234,-232.67 1234,-226.33 1234,-226.33 1234,-223.17 1237.17,-220 1240.33,-220 1240.33,-220 1332.67,-220 1332.67,-220 1335.83,-220 1339,-223.17 1339,-226.33 1339,-226.33 1339,-232.67 1339,-232.67 1339,-235.83 1335.83,-239 1332.67,-239"/>
<text text-anchor="middle" x="1286.5" y="-227" font-family="Arial" font-size="10.00" fill="#c6c5fe">arithmetic&#45;parsing.ts</text>
</g>
<!-- app.ts&#45;&gt;arithmetic&#45;parsing.ts -->
<g id="edge1" class="edge">
<title>app.ts&#45;&gt;arithmetic&#45;parsing.ts</title>
<path fill="none" stroke="#757575" d="M825.78,-392C928.55,-392 1286.5,-392 1286.5,-392 1286.5,-392 1286.5,-249.18 1286.5,-249.18"/>
<polygon fill="#757575" stroke="#757575" points="1290,-249.18 1286.5,-239.18 1283,-249.18 1290,-249.18"/>
</g>
<!-- compilation&#45;strategies.ts -->
<g id="node3" class="node">
<title>compilation&#45;strategies.ts</title>
<path fill="none" stroke="#c6c5fe" d="M1120.67,-349C1120.67,-349 1010.33,-349 1010.33,-349 1007.17,-349 1004,-345.83 1004,-342.67 1004,-342.67 1004,-336.33 1004,-336.33 1004,-333.17 1007.17,-330 1010.33,-330 1010.33,-330 1120.67,-330 1120.67,-330 1123.83,-330 1127,-333.17 1127,-336.33 1127,-336.33 1127,-342.67 1127,-342.67 1127,-345.83 1123.83,-349 1120.67,-349"/>
<text text-anchor="middle" x="1065.5" y="-337" font-family="Arial" font-size="10.00" fill="#c6c5fe">compilation&#45;strategies.ts</text>
</g>
<!-- app.ts&#45;&gt;compilation&#45;strategies.ts -->
<g id="edge2" class="edge">
<title>app.ts&#45;&gt;compilation&#45;strategies.ts</title>
<path fill="none" stroke="#757575" d="M807.5,-384.96C807.5,-370.57 807.5,-345 807.5,-345 807.5,-345 993.7,-345 993.7,-345"/>
<polygon fill="#757575" stroke="#757575" points="993.7,-348.5 1003.7,-345 993.7,-341.5 993.7,-348.5"/>
</g>
<!-- debug&#45;dump.ts -->
<g id="node4" class="node">
<title>debug&#45;dump.ts</title>
<path fill="none" stroke="#c6c5fe" d="M2198.67,-294C2198.67,-294 2130.33,-294 2130.33,-294 2127.17,-294 2124,-290.83 2124,-287.67 2124,-287.67 2124,-281.33 2124,-281.33 2124,-278.17 2127.17,-275 2130.33,-275 2130.33,-275 2198.67,-275 2198.67,-275 2201.83,-275 2205,-278.17 2205,-281.33 2205,-281.33 2205,-287.67 2205,-287.67 2205,-290.83 2201.83,-294 2198.67,-294"/>
<text text-anchor="middle" x="2164.5" y="-282" font-family="Arial" font-size="10.00" fill="#c6c5fe">debug&#45;dump.ts</text>
</g>
<!-- app.ts&#45;&gt;debug&#45;dump.ts -->
<g id="edge3" class="edge">
<title>app.ts&#45;&gt;debug&#45;dump.ts</title>
<path fill="none" stroke="#757575" d="M825.79,-401C1018.31,-401 2164.5,-401 2164.5,-401 2164.5,-401 2164.5,-304.03 2164.5,-304.03"/>
<polygon fill="#757575" stroke="#757575" points="2168,-304.03 2164.5,-294.03 2161,-304.03 2168,-304.03"/>
</g>
<!-- function&#45;compilation.ts -->
<g id="node5" class="node">
<title>function&#45;compilation.ts</title>
<path fill="none" stroke="#c6c5fe" d="M1816.67,-349C1816.67,-349 1714.33,-349 1714.33,-349 1711.17,-349 1708,-345.83 1708,-342.67 1708,-342.67 1708,-336.33 1708,-336.33 1708,-333.17 1711.17,-330 1714.33,-330 1714.33,-330 1816.67,-330 1816.67,-330 1819.83,-330 1823,-333.17 1823,-336.33 1823,-336.33 1823,-342.67 1823,-342.67 1823,-345.83 1819.83,-349 1816.67,-349"/>
<text text-anchor="middle" x="1765.5" y="-337" font-family="Arial" font-size="10.00" fill="#c6c5fe">function&#45;compilation.ts</text>
</g>
<!-- app.ts&#45;&gt;function&#45;compilation.ts -->
<g id="edge4" class="edge">
<title>app.ts&#45;&gt;function&#45;compilation.ts</title>
<path fill="none" stroke="#757575" d="M825.63,-394C982.4,-394 1765.5,-394 1765.5,-394 1765.5,-394 1765.5,-359.24 1765.5,-359.24"/>
<polygon fill="#757575" stroke="#757575" points="1769,-359.24 1765.5,-349.24 1762,-359.24 1769,-359.24"/>
</g>
<!-- function&#45;context.ts -->
<g id="node6" class="node">
<title>function&#45;context.ts</title>
<path fill="none" stroke="#c6c5fe" d="M1933.17,-349C1933.17,-349 1847.83,-349 1847.83,-349 1844.67,-349 1841.5,-345.83 1841.5,-342.67 1841.5,-342.67 1841.5,-336.33 1841.5,-336.33 1841.5,-333.17 1844.67,-330 1847.83,-330 1847.83,-330 1933.17,-330 1933.17,-330 1936.33,-330 1939.5,-333.17 1939.5,-336.33 1939.5,-336.33 1939.5,-342.67 1939.5,-342.67 1939.5,-345.83 1936.33,-349 1933.17,-349"/>
<text text-anchor="middle" x="1890.5" y="-337" font-family="Arial" font-size="10.00" fill="#c6c5fe">function&#45;context.ts</text>
</g>
<!-- app.ts&#45;&gt;function&#45;context.ts -->
<g id="edge5" class="edge">
<title>app.ts&#45;&gt;function&#45;context.ts</title>
<path fill="none" stroke="#757575" d="M825.77,-396C994.62,-396 1890.5,-396 1890.5,-396 1890.5,-396 1890.5,-359.08 1890.5,-359.08"/>
<polygon fill="#757575" stroke="#757575" points="1894,-359.08 1890.5,-349.08 1887,-359.08 1894,-359.08"/>
</g>
<!-- function&#45;types.ts -->
<g id="node7" class="node">
<title>function&#45;types.ts</title>
<path fill="none" stroke="#cfffac" d="M2060.67,-294C2060.67,-294 1984.33,-294 1984.33,-294 1981.17,-294 1978,-290.83 1978,-287.67 1978,-287.67 1978,-281.33 1978,-281.33 1978,-278.17 1981.17,-275 1984.33,-275 1984.33,-275 2060.67,-275 2060.67,-275 2063.83,-275 2067,-278.17 2067,-281.33 2067,-281.33 2067,-287.67 2067,-287.67 2067,-290.83 2063.83,-294 2060.67,-294"/>
<text text-anchor="middle" x="2022.5" y="-282" font-family="Arial" font-size="10.00" fill="#cfffac">function&#45;types.ts</text>
</g>
<!-- app.ts&#45;&gt;function&#45;types.ts -->
<g id="edge6" class="edge">
<title>app.ts&#45;&gt;function&#45;types.ts</title>
<path fill="none" stroke="#757575" d="M825.53,-399C1006.69,-399 2037.33,-399 2037.33,-399 2037.33,-399 2037.33,-304.26 2037.33,-304.26"/>
<polygon fill="#757575" stroke="#757575" points="2040.83,-304.26 2037.33,-294.26 2033.83,-304.26 2040.83,-304.26"/>
</g>
<!-- let&#45;binding.ts -->
<g id="node8" class="node">
<title>let&#45;binding.ts</title>
<path fill="none" stroke="#c6c5fe" d="M427.17,-184C427.17,-184 367.83,-184 367.83,-184 364.67,-184 361.5,-180.83 361.5,-177.67 361.5,-177.67 361.5,-171.33 361.5,-171.33 361.5,-168.17 364.67,-165 367.83,-165 367.83,-165 427.17,-165 427.17,-165 430.33,-165 433.5,-168.17 433.5,-171.33 433.5,-171.33 433.5,-177.67 433.5,-177.67 433.5,-180.83 430.33,-184 427.17,-184"/>
<text text-anchor="middle" x="397.5" y="-172" font-family="Arial" font-size="10.00" fill="#c6c5fe">let&#45;binding.ts</text>
</g>
<!-- app.ts&#45;&gt;let&#45;binding.ts -->
<g id="edge7" class="edge">
<title>app.ts&#45;&gt;let&#45;binding.ts</title>
<path fill="none" stroke="#757575" d="M771.38,-390C740.49,-390 694.25,-390 694.25,-390 694.25,-390 694.25,-180 694.25,-180 694.25,-180 443.59,-180 443.59,-180"/>
<polygon fill="#757575" stroke="#757575" points="443.59,-176.5 433.59,-180 443.59,-183.5 443.59,-176.5"/>
</g>
<!-- let&#45;expression&#45;parsing.ts -->
<g id="node9" class="node">
<title>let&#45;expression&#45;parsing.ts</title>
<path fill="none" stroke="#c6c5fe" d="M116.67,-239C116.67,-239 6.33,-239 6.33,-239 3.17,-239 0,-235.83 0,-232.67 0,-232.67 0,-226.33 0,-226.33 0,-223.17 3.17,-220 6.33,-220 6.33,-220 116.67,-220 116.67,-220 119.83,-220 123,-223.17 123,-226.33 123,-226.33 123,-232.67 123,-232.67 123,-235.83 119.83,-239 116.67,-239"/>
<text text-anchor="middle" x="61.5" y="-227" font-family="Arial" font-size="10.00" fill="#c6c5fe">let&#45;expression&#45;parsing.ts</text>
</g>
<!-- app.ts&#45;&gt;let&#45;expression&#45;parsing.ts -->
<g id="edge8" class="edge">
<title>app.ts&#45;&gt;let&#45;expression&#45;parsing.ts</title>
<path fill="none" stroke="#757575" d="M771.4,-401C638.43,-401 61.5,-401 61.5,-401 61.5,-401 61.5,-249.21 61.5,-249.21"/>
<polygon fill="#757575" stroke="#757575" points="65,-249.21 61.5,-239.21 58,-249.21 65,-249.21"/>
</g>
<!-- parser.ts -->
<g id="node10" class="node">
<title>parser.ts</title>
<path fill="none" stroke="#c6c5fe" d="M1020.67,-74C1020.67,-74 978.33,-74 978.33,-74 975.17,-74 972,-70.83 972,-67.67 972,-67.67 972,-61.33 972,-61.33 972,-58.17 975.17,-55 978.33,-55 978.33,-55 1020.67,-55 1020.67,-55 1023.83,-55 1027,-58.17 1027,-61.33 1027,-61.33 1027,-67.67 1027,-67.67 1027,-70.83 1023.83,-74 1020.67,-74"/>
<text text-anchor="middle" x="999.5" y="-62" font-family="Arial" font-size="10.00" fill="#c6c5fe">parser.ts</text>
</g>
<!-- app.ts&#45;&gt;parser.ts -->
<g id="edge9" class="edge">
<title>app.ts&#45;&gt;parser.ts</title>
<path fill="none" stroke="#757575" d="M825.91,-389C880.73,-389 998.67,-389 998.67,-389 998.67,-389 998.67,-84.21 998.67,-84.21"/>
<polygon fill="#757575" stroke="#757575" points="1002.17,-84.21 998.67,-74.21 995.17,-84.21 1002.17,-84.21"/>
</g>
<!-- pointer&#45;validation.ts -->
<g id="node11" class="node">
<title>pointer&#45;validation.ts</title>
<path fill="none" stroke="#c6c5fe" d="M441.67,-239C441.67,-239 353.33,-239 353.33,-239 350.17,-239 347,-235.83 347,-232.67 347,-232.67 347,-226.33 347,-226.33 347,-223.17 350.17,-220 353.33,-220 353.33,-220 441.67,-220 441.67,-220 444.83,-220 448,-223.17 448,-226.33 448,-226.33 448,-232.67 448,-232.67 448,-235.83 444.83,-239 441.67,-239"/>
<text text-anchor="middle" x="397.5" y="-227" font-family="Arial" font-size="10.00" fill="#c6c5fe">pointer&#45;validation.ts</text>
</g>
<!-- app.ts&#45;&gt;pointer&#45;validation.ts -->
<g id="edge10" class="edge">
<title>app.ts&#45;&gt;pointer&#45;validation.ts</title>
<path fill="none" stroke="#757575" d="M771.25,-395C681,-395 397.5,-395 397.5,-395 397.5,-395 397.5,-249.36 397.5,-249.36"/>
<polygon fill="#757575" stroke="#757575" points="401,-249.36 397.5,-239.36 394,-249.36 401,-249.36"/>
</g>
<!-- reassignment&#45;validation.ts -->
<g id="node12" class="node">
<title>reassignment&#45;validation.ts</title>
<path fill="none" stroke="#c6c5fe" d="M629.67,-239C629.67,-239 511.33,-239 511.33,-239 508.17,-239 505,-235.83 505,-232.67 505,-232.67 505,-226.33 505,-226.33 505,-223.17 508.17,-220 511.33,-220 511.33,-220 629.67,-220 629.67,-220 632.83,-220 636,-223.17 636,-226.33 636,-226.33 636,-232.67 636,-232.67 636,-235.83 632.83,-239 629.67,-239"/>
<text text-anchor="middle" x="570.5" y="-227" font-family="Arial" font-size="10.00" fill="#c6c5fe">reassignment&#45;validation.ts</text>
</g>
<!-- app.ts&#45;&gt;reassignment&#45;validation.ts -->
<g id="edge11" class="edge">
<title>app.ts&#45;&gt;reassignment&#45;validation.ts</title>
<path fill="none" stroke="#757575" d="M771.45,-393C711.06,-393 570.5,-393 570.5,-393 570.5,-393 570.5,-249.24 570.5,-249.24"/>
<polygon fill="#757575" stroke="#757575" points="574,-249.24 570.5,-239.24 567,-249.24 574,-249.24"/>
</g>
<!-- types.ts -->
<g id="node13" class="node">
<title>types.ts</title>
<path fill="none" stroke="#c6c5fe" d="M800.17,-184C800.17,-184 758.83,-184 758.83,-184 755.67,-184 752.5,-180.83 752.5,-177.67 752.5,-177.67 752.5,-171.33 752.5,-171.33 752.5,-168.17 755.67,-165 758.83,-165 758.83,-165 800.17,-165 800.17,-165 803.33,-165 806.5,-168.17 806.5,-171.33 806.5,-171.33 806.5,-177.67 806.5,-177.67 806.5,-180.83 803.33,-184 800.17,-184"/>
<text text-anchor="middle" x="779.5" y="-172" font-family="Arial" font-size="10.00" fill="#c6c5fe">types.ts</text>
</g>
<!-- app.ts&#45;&gt;types.ts -->
<g id="edge12" class="edge">
<title>app.ts&#45;&gt;types.ts</title>
<path fill="none" stroke="#757575" d="M771.47,-387C765.42,-387 760.75,-387 760.75,-387 760.75,-387 760.75,-194.18 760.75,-194.18"/>
<polygon fill="#757575" stroke="#757575" points="764.25,-194.18 760.75,-184.18 757.25,-194.18 764.25,-194.18"/>
</g>
<!-- validation.ts -->
<g id="node14" class="node">
<title>validation.ts</title>
<path fill="none" stroke="#c6c5fe" d="M831.67,-239C831.67,-239 775.33,-239 775.33,-239 772.17,-239 769,-235.83 769,-232.67 769,-232.67 769,-226.33 769,-226.33 769,-223.17 772.17,-220 775.33,-220 775.33,-220 831.67,-220 831.67,-220 834.83,-220 838,-223.17 838,-226.33 838,-226.33 838,-232.67 838,-232.67 838,-235.83 834.83,-239 831.67,-239"/>
<text text-anchor="middle" x="803.5" y="-227" font-family="Arial" font-size="10.00" fill="#c6c5fe">validation.ts</text>
</g>
<!-- app.ts&#45;&gt;validation.ts -->
<g id="edge13" class="edge">
<title>app.ts&#45;&gt;validation.ts</title>
<path fill="none" stroke="#757575" d="M789.5,-384.67C789.5,-384.67 789.5,-249.07 789.5,-249.07"/>
<polygon fill="#757575" stroke="#757575" points="793,-249.07 789.5,-239.07 786,-249.07 793,-249.07"/>
</g>
<!-- variable&#45;types.ts -->
<g id="node15" class="node">
<title>variable&#45;types.ts</title>
<path fill="none" stroke="#cfffac" d="M163.67,-74C163.67,-74 87.33,-74 87.33,-74 84.17,-74 81,-70.83 81,-67.67 81,-67.67 81,-61.33 81,-61.33 81,-58.17 84.17,-55 87.33,-55 87.33,-55 163.67,-55 163.67,-55 166.83,-55 170,-58.17 170,-61.33 170,-61.33 170,-67.67 170,-67.67 170,-70.83 166.83,-74 163.67,-74"/>
<text text-anchor="middle" x="125.5" y="-62" font-family="Arial" font-size="10.00" fill="#cfffac">variable&#45;types.ts</text>
</g>
<!-- app.ts&#45;&gt;variable&#45;types.ts -->
<g id="edge14" class="edge">
<title>app.ts&#45;&gt;variable&#45;types.ts</title>
<path fill="none" stroke="#757575" d="M771.37,-398C645.88,-398 127.7,-398 127.7,-398 127.7,-398 127.7,-84.12 127.7,-84.12"/>
<polygon fill="#757575" stroke="#757575" points="131.2,-84.12 127.7,-74.12 124.2,-84.12 131.2,-84.12"/>
</g>
<!-- vm.ts -->
<g id="node16" class="node">
<title>vm.ts</title>
<path fill="none" stroke="#cfffac" d="M1735.17,-19C1735.17,-19 1693.83,-19 1693.83,-19 1690.67,-19 1687.5,-15.83 1687.5,-12.67 1687.5,-12.67 1687.5,-6.33 1687.5,-6.33 1687.5,-3.17 1690.67,0 1693.83,0 1693.83,0 1735.17,0 1735.17,0 1738.33,0 1741.5,-3.17 1741.5,-6.33 1741.5,-6.33 1741.5,-12.67 1741.5,-12.67 1741.5,-15.83 1738.33,-19 1735.17,-19"/>
<text text-anchor="middle" x="1714.5" y="-7" font-family="Arial" font-size="10.00" fill="#cfffac">vm.ts</text>
</g>
<!-- app.ts&#45;&gt;vm.ts -->
<g id="edge15" class="edge">
<title>app.ts&#45;&gt;vm.ts</title>
<path fill="none" stroke="#757575" d="M825.73,-387C867.66,-387 943.25,-387 943.25,-387 943.25,-387 943.25,-9 943.25,-9 943.25,-9 1677.05,-9 1677.05,-9"/>
<polygon fill="#757575" stroke="#757575" points="1677.05,-12.5 1687.05,-9 1677.05,-5.5 1677.05,-12.5"/>
</g>
<!-- arithmetic&#45;parsing.ts&#45;&gt;parser.ts -->
<g id="edge18" class="edge">
<title>arithmetic&#45;parsing.ts&#45;&gt;parser.ts</title>
<path fill="none" stroke="#757575" d="M1233.93,-224C1155.12,-224 1015.5,-224 1015.5,-224 1015.5,-224 1015.5,-84.48 1015.5,-84.48"/>
<polygon fill="#757575" stroke="#757575" points="1019,-84.48 1015.5,-74.48 1012,-84.48 1019,-84.48"/>
</g>
<!-- arithmetic&#45;parsing.ts&#45;&gt;types.ts -->
<g id="edge19" class="edge">
<title>arithmetic&#45;parsing.ts&#45;&gt;types.ts</title>
<path fill="none" stroke="#757575" d="M1240.12,-219.96C1240.12,-205.57 1240.12,-180 1240.12,-180 1240.12,-180 816.59,-180 816.59,-180"/>
<polygon fill="#757575" stroke="#757575" points="816.59,-176.5 806.59,-180 816.59,-183.5 816.59,-176.5"/>
</g>
<!-- arithmetic&#45;parsing.ts&#45;&gt;vm.ts -->
<g id="edge20" class="edge">
<title>arithmetic&#45;parsing.ts&#45;&gt;vm.ts</title>
<path fill="none" stroke="#757575" d="M1312.17,-219.73C1312.17,-177.76 1312.17,-15 1312.17,-15 1312.17,-15 1677.48,-15 1677.48,-15"/>
<polygon fill="#757575" stroke="#757575" points="1677.48,-18.5 1687.48,-15 1677.48,-11.5 1677.48,-18.5"/>
</g>
<!-- helpers.ts -->
<g id="node17" class="node">
<title>helpers.ts</title>
<path fill="none" stroke="#c6c5fe" d="M1722.67,-129C1722.67,-129 1676.33,-129 1676.33,-129 1673.17,-129 1670,-125.83 1670,-122.67 1670,-122.67 1670,-116.33 1670,-116.33 1670,-113.17 1673.17,-110 1676.33,-110 1676.33,-110 1722.67,-110 1722.67,-110 1725.83,-110 1729,-113.17 1729,-116.33 1729,-116.33 1729,-122.67 1729,-122.67 1729,-125.83 1725.83,-129 1722.67,-129"/>
<text text-anchor="middle" x="1699.5" y="-117" font-family="Arial" font-size="10.00" fill="#c6c5fe">helpers.ts</text>
</g>
<!-- arithmetic&#45;parsing.ts&#45;&gt;helpers.ts -->
<g id="edge16" class="edge">
<title>arithmetic&#45;parsing.ts&#45;&gt;helpers.ts</title>
<path fill="none" stroke="#757575" d="M1339.11,-229C1449.53,-229 1695.33,-229 1695.33,-229 1695.33,-229 1695.33,-139.22 1695.33,-139.22"/>
<polygon fill="#757575" stroke="#757575" points="1698.83,-139.22 1695.33,-129.22 1691.83,-139.22 1698.83,-139.22"/>
</g>
<!-- operator&#45;parsing.ts -->
<g id="node18" class="node">
<title>operator&#45;parsing.ts</title>
<path fill="none" stroke="#c6c5fe" d="M1252.17,-129C1252.17,-129 1166.83,-129 1166.83,-129 1163.67,-129 1160.5,-125.83 1160.5,-122.67 1160.5,-122.67 1160.5,-116.33 1160.5,-116.33 1160.5,-113.17 1163.67,-110 1166.83,-110 1166.83,-110 1252.17,-110 1252.17,-110 1255.33,-110 1258.5,-113.17 1258.5,-116.33 1258.5,-116.33 1258.5,-122.67 1258.5,-122.67 1258.5,-125.83 1255.33,-129 1252.17,-129"/>
<text text-anchor="middle" x="1209.5" y="-117" font-family="Arial" font-size="10.00" fill="#c6c5fe">operator&#45;parsing.ts</text>
</g>
<!-- arithmetic&#45;parsing.ts&#45;&gt;operator&#45;parsing.ts -->
<g id="edge17" class="edge">
<title>arithmetic&#45;parsing.ts&#45;&gt;operator&#45;parsing.ts</title>
<path fill="none" stroke="#757575" d="M1246.25,-219.74C1246.25,-219.74 1246.25,-139.08 1246.25,-139.08"/>
<polygon fill="#757575" stroke="#757575" points="1249.75,-139.08 1246.25,-129.08 1242.75,-139.08 1249.75,-139.08"/>
</g>
<!-- compilation&#45;strategies.ts&#45;&gt;let&#45;binding.ts -->
<g id="edge33" class="edge">
<title>compilation&#45;strategies.ts&#45;&gt;let&#45;binding.ts</title>
<path fill="none" stroke="#757575" d="M1003.78,-333C901.69,-333 708.81,-333 708.81,-333 708.81,-333 708.81,-178 708.81,-178 708.81,-178 443.52,-178 443.52,-178"/>
<polygon fill="#757575" stroke="#757575" points="443.52,-174.5 433.52,-178 443.52,-181.5 443.52,-174.5"/>
</g>
<!-- compilation&#45;strategies.ts&#45;&gt;parser.ts -->
<g id="edge34" class="edge">
<title>compilation&#45;strategies.ts&#45;&gt;parser.ts</title>
<path fill="none" stroke="#757575" d="M1007.83,-329.71C1007.83,-329.71 1007.83,-84.17 1007.83,-84.17"/>
<polygon fill="#757575" stroke="#757575" points="1011.33,-84.17 1007.83,-74.17 1004.33,-84.17 1011.33,-84.17"/>
</g>
<!-- compilation&#45;strategies.ts&#45;&gt;variable&#45;types.ts -->
<g id="edge37" class="edge">
<title>compilation&#45;strategies.ts&#45;&gt;variable&#45;types.ts</title>
<path fill="none" stroke="#757575" d="M1003.92,-341C795.92,-341 132.4,-341 132.4,-341 132.4,-341 132.4,-84.02 132.4,-84.02"/>
<polygon fill="#757575" stroke="#757575" points="135.9,-84.02 132.4,-74.02 128.9,-84.02 135.9,-84.02"/>
</g>
<!-- compilation&#45;strategies.ts&#45;&gt;vm.ts -->
<g id="edge38" class="edge">
<title>compilation&#45;strategies.ts&#45;&gt;vm.ts</title>
<path fill="none" stroke="#757575" d="M1033.67,-329.73C1033.67,-275.4 1033.67,-13 1033.67,-13 1033.67,-13 1677.39,-13 1677.39,-13"/>
<polygon fill="#757575" stroke="#757575" points="1677.39,-16.5 1687.39,-13 1677.39,-9.5 1677.39,-16.5"/>
</g>
<!-- instruction&#45;primitives.ts -->
<g id="node20" class="node">
<title>instruction&#45;primitives.ts</title>
<path fill="none" stroke="#c6c5fe" d="M1680.17,-74C1680.17,-74 1574.83,-74 1574.83,-74 1571.67,-74 1568.5,-70.83 1568.5,-67.67 1568.5,-67.67 1568.5,-61.33 1568.5,-61.33 1568.5,-58.17 1571.67,-55 1574.83,-55 1574.83,-55 1680.17,-55 1680.17,-55 1683.33,-55 1686.5,-58.17 1686.5,-61.33 1686.5,-61.33 1686.5,-67.67 1686.5,-67.67 1686.5,-70.83 1683.33,-74 1680.17,-74"/>
<text text-anchor="middle" x="1627.5" y="-62" font-family="Arial" font-size="10.00" fill="#c6c5fe">instruction&#45;primitives.ts</text>
</g>
<!-- compilation&#45;strategies.ts&#45;&gt;instruction&#45;primitives.ts -->
<g id="edge32" class="edge">
<title>compilation&#45;strategies.ts&#45;&gt;instruction&#45;primitives.ts</title>
<path fill="none" stroke="#757575" d="M1040.33,-329.88C1040.33,-280.73 1040.33,-60 1040.33,-60 1040.33,-60 1558.24,-60 1558.24,-60"/>
<polygon fill="#757575" stroke="#757575" points="1558.24,-63.5 1568.24,-60 1558.24,-56.5 1558.24,-63.5"/>
</g>
<!-- array&#45;parsing.ts -->
<g id="node22" class="node">
<title>array&#45;parsing.ts</title>
<path fill="none" stroke="#cfffac" d="M370.17,-74C370.17,-74 298.83,-74 298.83,-74 295.67,-74 292.5,-70.83 292.5,-67.67 292.5,-67.67 292.5,-61.33 292.5,-61.33 292.5,-58.17 295.67,-55 298.83,-55 298.83,-55 370.17,-55 370.17,-55 373.33,-55 376.5,-58.17 376.5,-61.33 376.5,-61.33 376.5,-67.67 376.5,-67.67 376.5,-70.83 373.33,-74 370.17,-74"/>
<text text-anchor="middle" x="334.5" y="-62" font-family="Arial" font-size="10.00" fill="#cfffac">array&#45;parsing.ts</text>
</g>
<!-- compilation&#45;strategies.ts&#45;&gt;array&#45;parsing.ts -->
<g id="edge30" class="edge">
<title>compilation&#45;strategies.ts&#45;&gt;array&#45;parsing.ts</title>
<path fill="none" stroke="#757575" d="M1003.84,-337C825.17,-337 319.75,-337 319.75,-337 319.75,-337 319.75,-84.2 319.75,-84.2"/>
<polygon fill="#757575" stroke="#757575" points="323.25,-84.2 319.75,-74.2 316.25,-84.2 323.25,-84.2"/>
</g>
<!-- expression&#45;with&#45;context.ts -->
<g id="node24" class="node">
<title>expression&#45;with&#45;context.ts</title>
<path fill="none" stroke="#c6c5fe" d="M1171.67,-294C1171.67,-294 1053.33,-294 1053.33,-294 1050.17,-294 1047,-290.83 1047,-287.67 1047,-287.67 1047,-281.33 1047,-281.33 1047,-278.17 1050.17,-275 1053.33,-275 1053.33,-275 1171.67,-275 1171.67,-275 1174.83,-275 1178,-278.17 1178,-281.33 1178,-281.33 1178,-287.67 1178,-287.67 1178,-290.83 1174.83,-294 1171.67,-294"/>
<text text-anchor="middle" x="1112.5" y="-282" font-family="Arial" font-size="10.00" fill="#c6c5fe">expression&#45;with&#45;context.ts</text>
</g>
<!-- compilation&#45;strategies.ts&#45;&gt;expression&#45;with&#45;context.ts -->
<g id="edge31" class="edge">
<title>compilation&#45;strategies.ts&#45;&gt;expression&#45;with&#45;context.ts</title>
<path fill="none" stroke="#757575" d="M1087,-329.92C1087,-329.92 1087,-304.34 1087,-304.34"/>
<polygon fill="#757575" stroke="#757575" points="1090.5,-304.34 1087,-294.34 1083.5,-304.34 1090.5,-304.34"/>
</g>
<!-- reassignment&#45;parsing.ts -->
<g id="node25" class="node">
<title>reassignment&#45;parsing.ts</title>
<path fill="none" stroke="#c6c5fe" d="M1505.67,-129C1505.67,-129 1397.33,-129 1397.33,-129 1394.17,-129 1391,-125.83 1391,-122.67 1391,-122.67 1391,-116.33 1391,-116.33 1391,-113.17 1394.17,-110 1397.33,-110 1397.33,-110 1505.67,-110 1505.67,-110 1508.83,-110 1512,-113.17 1512,-116.33 1512,-116.33 1512,-122.67 1512,-122.67 1512,-125.83 1508.83,-129 1505.67,-129"/>
<text text-anchor="middle" x="1451.5" y="-117" font-family="Arial" font-size="10.00" fill="#c6c5fe">reassignment&#45;parsing.ts</text>
</g>
<!-- compilation&#45;strategies.ts&#45;&gt;reassignment&#45;parsing.ts -->
<g id="edge35" class="edge">
<title>compilation&#45;strategies.ts&#45;&gt;reassignment&#45;parsing.ts</title>
<path fill="none" stroke="#757575" d="M1127.08,-336C1244.54,-336 1489,-336 1489,-336 1489,-336 1489,-139.08 1489,-139.08"/>
<polygon fill="#757575" stroke="#757575" points="1492.5,-139.08 1489,-129.08 1485.5,-139.08 1492.5,-139.08"/>
</g>
<!-- slice&#45;parsing.ts -->
<g id="node26" class="node">
<title>slice&#45;parsing.ts</title>
<path fill="none" stroke="#c6c5fe" d="M1645.67,-129C1645.67,-129 1575.33,-129 1575.33,-129 1572.17,-129 1569,-125.83 1569,-122.67 1569,-122.67 1569,-116.33 1569,-116.33 1569,-113.17 1572.17,-110 1575.33,-110 1575.33,-110 1645.67,-110 1645.67,-110 1648.83,-110 1652,-113.17 1652,-116.33 1652,-116.33 1652,-122.67 1652,-122.67 1652,-125.83 1648.83,-129 1645.67,-129"/>
<text text-anchor="middle" x="1610.5" y="-117" font-family="Arial" font-size="10.00" fill="#c6c5fe">slice&#45;parsing.ts</text>
</g>
<!-- compilation&#45;strategies.ts&#45;&gt;slice&#45;parsing.ts -->
<g id="edge36" class="edge">
<title>compilation&#45;strategies.ts&#45;&gt;slice&#45;parsing.ts</title>
<path fill="none" stroke="#757575" d="M1127.22,-342C1269.91,-342 1610.5,-342 1610.5,-342 1610.5,-342 1610.5,-139.06 1610.5,-139.06"/>
<polygon fill="#757575" stroke="#757575" points="1614,-139.06 1610.5,-129.06 1607,-139.06 1614,-139.06"/>
</g>
<!-- debug&#45;dump.ts&#45;&gt;vm.ts -->
<g id="edge39" class="edge">
<title>debug&#45;dump.ts&#45;&gt;vm.ts</title>
<path fill="none" stroke="#757575" d="M2164.5,-274.69C2164.5,-225.62 2164.5,-9 2164.5,-9 2164.5,-9 1751.64,-9 1751.64,-9"/>
<polygon fill="#757575" stroke="#757575" points="1751.64,-5.5 1741.64,-9 1751.64,-12.5 1751.64,-5.5"/>
</g>
<!-- function&#45;compilation.ts&#45;&gt;function&#45;types.ts -->
<g id="edge48" class="edge">
<title>function&#45;compilation.ts&#45;&gt;function&#45;types.ts</title>
<path fill="none" stroke="#757575" d="M1804.25,-329.88C1804.25,-321.95 1804.25,-312 1804.25,-312 1804.25,-312 2007.67,-312 2007.67,-312 2007.67,-312 2007.67,-304.12 2007.67,-304.12"/>
<polygon fill="#757575" stroke="#757575" points="2011.17,-304.12 2007.67,-294.12 2004.17,-304.12 2011.17,-304.12"/>
</g>
<!-- function&#45;compilation.ts&#45;&gt;variable&#45;types.ts -->
<g id="edge49" class="edge">
<title>function&#45;compilation.ts&#45;&gt;variable&#45;types.ts</title>
<path fill="none" stroke="#757575" d="M1718.5,-329.76C1718.5,-296.72 1718.5,-191 1718.5,-191 1718.5,-191 155.9,-191 155.9,-191 155.9,-191 155.9,-84.01 155.9,-84.01"/>
<polygon fill="#757575" stroke="#757575" points="159.4,-84.01 155.9,-74.01 152.4,-84.01 159.4,-84.01"/>
</g>
<!-- function&#45;compilation.ts&#45;&gt;vm.ts -->
<g id="edge50" class="edge">
<title>function&#45;compilation.ts&#45;&gt;vm.ts</title>
<path fill="none" stroke="#757575" d="M1736.5,-329.98C1736.5,-329.98 1736.5,-29.06 1736.5,-29.06"/>
<polygon fill="#757575" stroke="#757575" points="1740,-29.06 1736.5,-19.06 1733,-29.06 1740,-29.06"/>
</g>
<!-- function&#45;parsing.ts -->
<g id="node27" class="node">
<title>function&#45;parsing.ts</title>
<path fill="none" stroke="#c6c5fe" d="M1914.67,-294C1914.67,-294 1830.33,-294 1830.33,-294 1827.17,-294 1824,-290.83 1824,-287.67 1824,-287.67 1824,-281.33 1824,-281.33 1824,-278.17 1827.17,-275 1830.33,-275 1830.33,-275 1914.67,-275 1914.67,-275 1917.83,-275 1921,-278.17 1921,-281.33 1921,-281.33 1921,-287.67 1921,-287.67 1921,-290.83 1917.83,-294 1914.67,-294"/>
<text text-anchor="middle" x="1872.5" y="-282" font-family="Arial" font-size="10.00" fill="#c6c5fe">function&#45;parsing.ts</text>
</g>
<!-- function&#45;compilation.ts&#45;&gt;function&#45;parsing.ts -->
<g id="edge47" class="edge">
<title>function&#45;compilation.ts&#45;&gt;function&#45;parsing.ts</title>
<path fill="none" stroke="#757575" d="M1823.11,-339C1828.93,-339 1832.75,-339 1832.75,-339 1832.75,-339 1832.75,-304.24 1832.75,-304.24"/>
<polygon fill="#757575" stroke="#757575" points="1836.25,-304.24 1832.75,-294.24 1829.25,-304.24 1836.25,-304.24"/>
</g>
<!-- function&#45;context.ts&#45;&gt;function&#45;types.ts -->
<g id="edge52" class="edge">
<title>function&#45;context.ts&#45;&gt;function&#45;types.ts</title>
<path fill="none" stroke="#757575" d="M1930.25,-329.83C1930.25,-313.93 1930.25,-284 1930.25,-284 1930.25,-284 1968,-284 1968,-284"/>
<polygon fill="#757575" stroke="#757575" points="1968,-287.5 1978,-284 1968,-280.5 1968,-287.5"/>
</g>
<!-- function&#45;context.ts&#45;&gt;function&#45;parsing.ts -->
<g id="edge51" class="edge">
<title>function&#45;context.ts&#45;&gt;function&#45;parsing.ts</title>
<path fill="none" stroke="#757575" d="M1881.25,-329.92C1881.25,-329.92 1881.25,-304.34 1881.25,-304.34"/>
<polygon fill="#757575" stroke="#757575" points="1884.75,-304.34 1881.25,-294.34 1877.75,-304.34 1884.75,-304.34"/>
</g>
<!-- let&#45;binding.ts&#45;&gt;parser.ts -->
<g id="edge62" class="edge">
<title>let&#45;binding.ts&#45;&gt;parser.ts</title>
<path fill="none" stroke="#757575" d="M433.59,-170C506.64,-170 665.12,-170 665.12,-170 665.12,-170 665.12,-70 665.12,-70 665.12,-70 961.85,-70 961.85,-70"/>
<polygon fill="#757575" stroke="#757575" points="961.85,-73.5 971.85,-70 961.85,-66.5 961.85,-73.5"/>
</g>
<!-- let&#45;binding.ts&#45;&gt;variable&#45;types.ts -->
<g id="edge64" class="edge">
<title>let&#45;binding.ts&#45;&gt;variable&#45;types.ts</title>
<path fill="none" stroke="#757575" d="M361.26,-174C294.9,-174 160.6,-174 160.6,-174 160.6,-174 160.6,-84.22 160.6,-84.22"/>
<polygon fill="#757575" stroke="#757575" points="164.1,-84.22 160.6,-74.22 157.1,-84.22 164.1,-84.22"/>
</g>
<!-- let&#45;binding.ts&#45;&gt;vm.ts -->
<g id="edge65" class="edge">
<title>let&#45;binding.ts&#45;&gt;vm.ts</title>
<path fill="none" stroke="#757575" d="M433.76,-168C503.73,-168 650.56,-168 650.56,-168 650.56,-168 650.56,-5 650.56,-5 650.56,-5 1677.4,-5 1677.4,-5"/>
<polygon fill="#757575" stroke="#757575" points="1677.4,-8.5 1687.4,-5 1677.4,-1.5 1677.4,-8.5"/>
</g>
<!-- let&#45;binding.ts&#45;&gt;instruction&#45;primitives.ts -->
<g id="edge61" class="edge">
<title>let&#45;binding.ts&#45;&gt;instruction&#45;primitives.ts</title>
<path fill="none" stroke="#757575" d="M409.83,-164.76C409.83,-159.07 409.83,-153 409.83,-153 409.83,-153 1661,-153 1661,-153 1661,-153 1661,-84.31 1661,-84.31"/>
<polygon fill="#757575" stroke="#757575" points="1664.5,-84.31 1661,-74.31 1657.5,-84.31 1664.5,-84.31"/>
</g>
<!-- array&#45;helpers.ts -->
<g id="node21" class="node">
<title>array&#45;helpers.ts</title>
<path fill="none" stroke="#c6c5fe" d="M440.17,-129C440.17,-129 368.83,-129 368.83,-129 365.67,-129 362.5,-125.83 362.5,-122.67 362.5,-122.67 362.5,-116.33 362.5,-116.33 362.5,-113.17 365.67,-110 368.83,-110 368.83,-110 440.17,-110 440.17,-110 443.33,-110 446.5,-113.17 446.5,-116.33 446.5,-116.33 446.5,-122.67 446.5,-122.67 446.5,-125.83 443.33,-129 440.17,-129"/>
<text text-anchor="middle" x="404.5" y="-117" font-family="Arial" font-size="10.00" fill="#c6c5fe">array&#45;helpers.ts</text>
</g>
<!-- let&#45;binding.ts&#45;&gt;array&#45;helpers.ts -->
<g id="edge59" class="edge">
<title>let&#45;binding.ts&#45;&gt;array&#45;helpers.ts</title>
<path fill="none" stroke="#757575" d="M386.17,-164.92C386.17,-164.92 386.17,-139.34 386.17,-139.34"/>
<polygon fill="#757575" stroke="#757575" points="389.67,-139.34 386.17,-129.34 382.67,-139.34 389.67,-139.34"/>
</g>
<!-- let&#45;binding.ts&#45;&gt;array&#45;parsing.ts -->
<g id="edge60" class="edge">
<title>let&#45;binding.ts&#45;&gt;array&#45;parsing.ts</title>
<path fill="none" stroke="#757575" d="M361.39,-169C357.12,-169 354.25,-169 354.25,-169 354.25,-169 354.25,-84.14 354.25,-84.14"/>
<polygon fill="#757575" stroke="#757575" points="357.75,-84.14 354.25,-74.14 350.75,-84.14 357.75,-84.14"/>
</g>
<!-- type&#45;inference&#45;helpers.ts -->
<g id="node29" class="node">
<title>type&#45;inference&#45;helpers.ts</title>
<path fill="none" stroke="#c6c5fe" d="M908.17,-129C908.17,-129 796.83,-129 796.83,-129 793.67,-129 790.5,-125.83 790.5,-122.67 790.5,-122.67 790.5,-116.33 790.5,-116.33 790.5,-113.17 793.67,-110 796.83,-110 796.83,-110 908.17,-110 908.17,-110 911.33,-110 914.5,-113.17 914.5,-116.33 914.5,-116.33 914.5,-122.67 914.5,-122.67 914.5,-125.83 911.33,-129 908.17,-129"/>
<text text-anchor="middle" x="852.5" y="-117" font-family="Arial" font-size="10.00" fill="#c6c5fe">type&#45;inference&#45;helpers.ts</text>
</g>
<!-- let&#45;binding.ts&#45;&gt;type&#45;inference&#45;helpers.ts -->
<g id="edge63" class="edge">
<title>let&#45;binding.ts&#45;&gt;type&#45;inference&#45;helpers.ts</title>
<path fill="none" stroke="#757575" d="M433.53,-171C509.6,-171 679.69,-171 679.69,-171 679.69,-171 679.69,-119 679.69,-119 679.69,-119 780.11,-119 780.11,-119"/>
<polygon fill="#757575" stroke="#757575" points="780.11,-122.5 790.11,-119 780.11,-115.5 780.11,-122.5"/>
</g>
<!-- let&#45;expression&#45;parsing.ts&#45;&gt;let&#45;binding.ts -->
<g id="edge66" class="edge">
<title>let&#45;expression&#45;parsing.ts&#45;&gt;let&#45;binding.ts</title>
<path fill="none" stroke="#757575" d="M112.5,-219.76C112.5,-205.09 112.5,-179 112.5,-179 112.5,-179 351.4,-179 351.4,-179"/>
<polygon fill="#757575" stroke="#757575" points="351.4,-182.5 361.4,-179 351.4,-175.5 351.4,-182.5"/>
</g>
<!-- let&#45;expression&#45;parsing.ts&#45;&gt;parser.ts -->
<g id="edge67" class="edge">
<title>let&#45;expression&#45;parsing.ts&#45;&gt;parser.ts</title>
<path fill="none" stroke="#757575" d="M91.5,-219.93C91.5,-215.85 91.5,-212 91.5,-212 91.5,-212 988,-212 988,-212 988,-212 988,-84.18 988,-84.18"/>
<polygon fill="#757575" stroke="#757575" points="991.5,-84.18 988,-74.18 984.5,-84.18 991.5,-84.18"/>
</g>
<!-- let&#45;expression&#45;parsing.ts&#45;&gt;variable&#45;types.ts -->
<g id="edge68" class="edge">
<title>let&#45;expression&#45;parsing.ts&#45;&gt;variable&#45;types.ts</title>
<path fill="none" stroke="#757575" d="M102,-219.67C102,-219.67 102,-84.07 102,-84.07"/>
<polygon fill="#757575" stroke="#757575" points="105.5,-84.07 102,-74.07 98.5,-84.07 105.5,-84.07"/>
</g>
<!-- let&#45;expression&#45;parsing.ts&#45;&gt;vm.ts -->
<g id="edge69" class="edge">
<title>let&#45;expression&#45;parsing.ts&#45;&gt;vm.ts</title>
<path fill="none" stroke="#757575" d="M40.5,-219.97C40.5,-176.73 40.5,-1 40.5,-1 40.5,-1 1677.19,-1 1677.19,-1"/>
<polygon fill="#757575" stroke="#757575" points="1677.19,-4.5 1687.19,-1 1677.19,2.5 1677.19,-4.5"/>
</g>
<!-- parser.ts&#45;&gt;vm.ts -->
<g id="edge71" class="edge">
<title>parser.ts&#45;&gt;vm.ts</title>
<path fill="none" stroke="#757575" d="M999.5,-54.69C999.5,-39.24 999.5,-11 999.5,-11 999.5,-11 1677.34,-11 1677.34,-11"/>
<polygon fill="#757575" stroke="#757575" points="1677.34,-14.5 1687.34,-11 1677.34,-7.5 1677.34,-14.5"/>
</g>
<!-- pointer&#45;validation.ts&#45;&gt;let&#45;binding.ts -->
<g id="edge72" class="edge">
<title>pointer&#45;validation.ts&#45;&gt;let&#45;binding.ts</title>
<path fill="none" stroke="#757575" d="M397.5,-219.92C397.5,-219.92 397.5,-194.34 397.5,-194.34"/>
<polygon fill="#757575" stroke="#757575" points="401,-194.34 397.5,-184.34 394,-194.34 401,-194.34"/>
</g>
<!-- pointer&#45;validation.ts&#45;&gt;parser.ts -->
<g id="edge73" class="edge">
<title>pointer&#45;validation.ts&#45;&gt;parser.ts</title>
<path fill="none" stroke="#757575" d="M448.06,-229C462.91,-229 475.25,-229 475.25,-229 475.25,-229 475.25,-62 475.25,-62 475.25,-62 961.68,-62 961.68,-62"/>
<polygon fill="#757575" stroke="#757575" points="961.68,-65.5 971.68,-62 961.68,-58.5 961.68,-65.5"/>
</g>
<!-- pointer&#45;validation.ts&#45;&gt;types.ts -->
<g id="edge74" class="edge">
<title>pointer&#45;validation.ts&#45;&gt;types.ts</title>
<path fill="none" stroke="#757575" d="M437.83,-219.92C437.83,-203.8 437.83,-173 437.83,-173 437.83,-173 742.4,-173 742.4,-173"/>
<polygon fill="#757575" stroke="#757575" points="742.4,-176.5 752.4,-173 742.4,-169.5 742.4,-176.5"/>
</g>
<!-- pointer&#45;validation.ts&#45;&gt;variable&#45;types.ts -->
<g id="edge75" class="edge">
<title>pointer&#45;validation.ts&#45;&gt;variable&#45;types.ts</title>
<path fill="none" stroke="#757575" d="M346.98,-229C272.46,-229 141.8,-229 141.8,-229 141.8,-229 141.8,-84.3 141.8,-84.3"/>
<polygon fill="#757575" stroke="#757575" points="145.3,-84.3 141.8,-74.3 138.3,-84.3 145.3,-84.3"/>
</g>
<!-- reassignment&#45;validation.ts&#45;&gt;let&#45;binding.ts -->
<g id="edge79" class="edge">
<title>reassignment&#45;validation.ts&#45;&gt;let&#45;binding.ts</title>
<path fill="none" stroke="#757575" d="M582,-219.89C582,-206.01 582,-182 582,-182 582,-182 443.51,-182 443.51,-182"/>
<polygon fill="#757575" stroke="#757575" points="443.51,-178.5 433.51,-182 443.51,-185.5 443.51,-178.5"/>
</g>
<!-- reassignment&#45;validation.ts&#45;&gt;types.ts -->
<g id="edge81" class="edge">
<title>reassignment&#45;validation.ts&#45;&gt;types.ts</title>
<path fill="none" stroke="#757575" d="M636.12,-226C689.71,-226 756.62,-226 756.62,-226 756.62,-226 756.62,-194.43 756.62,-194.43"/>
<polygon fill="#757575" stroke="#757575" points="760.13,-194.43 756.62,-184.43 753.13,-194.43 760.13,-194.43"/>
</g>
<!-- reassignment&#45;validation.ts&#45;&gt;variable&#45;types.ts -->
<g id="edge82" class="edge">
<title>reassignment&#45;validation.ts&#45;&gt;variable&#45;types.ts</title>
<path fill="none" stroke="#757575" d="M543.5,-219.82C543.5,-212.97 543.5,-205 543.5,-205 543.5,-205 146.5,-205 146.5,-205 146.5,-205 146.5,-84.16 146.5,-84.16"/>
<polygon fill="#757575" stroke="#757575" points="150,-84.16 146.5,-74.16 143,-84.16 150,-84.16"/>
</g>
<!-- reassignment&#45;validation.ts&#45;&gt;reassignment&#45;parsing.ts -->
<g id="edge80" class="edge">
<title>reassignment&#45;validation.ts&#45;&gt;reassignment&#45;parsing.ts</title>
<path fill="none" stroke="#757575" d="M628.25,-219.69C628.25,-196.65 628.25,-141 628.25,-141 628.25,-141 1428.5,-141 1428.5,-141 1428.5,-141 1428.5,-139.24 1428.5,-139.24"/>
<polygon fill="#757575" stroke="#757575" points="1432,-139.24 1428.5,-129.24 1425,-139.24 1432,-139.24"/>
</g>
<!-- types.ts&#45;&gt;parser.ts -->
<g id="edge89" class="edge">
<title>types.ts&#45;&gt;parser.ts</title>
<path fill="none" stroke="#757575" d="M806.9,-171C862.36,-171 982.67,-171 982.67,-171 982.67,-171 982.67,-84.33 982.67,-84.33"/>
<polygon fill="#757575" stroke="#757575" points="986.17,-84.33 982.67,-74.33 979.17,-84.33 986.17,-84.33"/>
</g>
<!-- types.ts&#45;&gt;vm.ts -->
<g id="edge90" class="edge">
<title>types.ts&#45;&gt;vm.ts</title>
<path fill="none" stroke="#757575" d="M771.5,-164.52C771.5,-128.46 771.5,-7 771.5,-7 771.5,-7 1677.29,-7 1677.29,-7"/>
<polygon fill="#757575" stroke="#757575" points="1677.29,-10.5 1687.29,-7 1677.29,-3.5 1677.29,-10.5"/>
</g>
<!-- types.ts&#45;&gt;instruction&#45;primitives.ts -->
<g id="edge88" class="edge">
<title>types.ts&#45;&gt;instruction&#45;primitives.ts</title>
<path fill="none" stroke="#757575" d="M806.7,-177C911.76,-177 1285.33,-177 1285.33,-177 1285.33,-177 1285.33,-65 1285.33,-65 1285.33,-65 1558.29,-65 1558.29,-65"/>
<polygon fill="#757575" stroke="#757575" points="1558.29,-68.5 1568.29,-65 1558.29,-61.5 1558.29,-68.5"/>
</g>
<!-- types.ts&#45;&gt;array&#45;helpers.ts -->
<g id="edge87" class="edge">
<title>types.ts&#45;&gt;array&#45;helpers.ts</title>
<path fill="none" stroke="#757575" d="M752.46,-166C672.42,-166 442.17,-166 442.17,-166 442.17,-166 442.17,-139.36 442.17,-139.36"/>
<polygon fill="#757575" stroke="#757575" points="445.67,-139.36 442.17,-129.36 438.67,-139.36 445.67,-139.36"/>
</g>
<!-- validation.ts&#45;&gt;let&#45;binding.ts -->
<g id="edge91" class="edge">
<title>validation.ts&#45;&gt;let&#45;binding.ts</title>
<path fill="none" stroke="#757575" d="M768.8,-232C753.07,-232 737.94,-232 737.94,-232 737.94,-232 737.94,-175 737.94,-175 737.94,-175 443.61,-175 443.61,-175"/>
<polygon fill="#757575" stroke="#757575" points="443.61,-171.5 433.61,-175 443.61,-178.5 443.61,-171.5"/>
</g>
<!-- validation.ts&#45;&gt;parser.ts -->
<g id="edge92" class="edge">
<title>validation.ts&#45;&gt;parser.ts</title>
<path fill="none" stroke="#757575" d="M838.32,-234C893.12,-234 993.33,-234 993.33,-234 993.33,-234 993.33,-84.1 993.33,-84.1"/>
<polygon fill="#757575" stroke="#757575" points="996.83,-84.1 993.33,-74.1 989.83,-84.1 996.83,-84.1"/>
</g>
<!-- validation.ts&#45;&gt;types.ts -->
<g id="edge94" class="edge">
<title>validation.ts&#45;&gt;types.ts</title>
<path fill="none" stroke="#757575" d="M794,-219.92C794,-219.92 794,-194.34 794,-194.34"/>
<polygon fill="#757575" stroke="#757575" points="797.5,-194.34 794,-184.34 790.5,-194.34 797.5,-194.34"/>
</g>
<!-- validation.ts&#45;&gt;variable&#45;types.ts -->
<g id="edge95" class="edge">
<title>validation.ts&#45;&gt;variable&#45;types.ts</title>
<path fill="none" stroke="#757575" d="M781.5,-219.88C781.5,-210.61 781.5,-198 781.5,-198 781.5,-198 151.2,-198 151.2,-198 151.2,-198 151.2,-84.1 151.2,-84.1"/>
<polygon fill="#757575" stroke="#757575" points="154.7,-84.1 151.2,-74.1 147.7,-84.1 154.7,-84.1"/>
</g>
<!-- validation.ts&#45;&gt;type&#45;inference&#45;helpers.ts -->
<g id="edge93" class="edge">
<title>validation.ts&#45;&gt;type&#45;inference&#45;helpers.ts</title>
<path fill="none" stroke="#757575" d="M822.25,-219.74C822.25,-219.74 822.25,-139.08 822.25,-139.08"/>
<polygon fill="#757575" stroke="#757575" points="825.75,-139.08 822.25,-129.08 818.75,-139.08 825.75,-139.08"/>
</g>
<!-- helpers.ts&#45;&gt;vm.ts -->
<g id="edge55" class="edge">
<title>helpers.ts&#45;&gt;vm.ts</title>
<path fill="none" stroke="#757575" d="M1718.62,-109.74C1718.62,-109.74 1718.62,-29.08 1718.62,-29.08"/>
<polygon fill="#757575" stroke="#757575" points="1722.13,-29.08 1718.62,-19.08 1715.13,-29.08 1722.13,-29.08"/>
</g>
<!-- helpers.ts&#45;&gt;instruction&#45;primitives.ts -->
<g id="edge54" class="edge">
<title>helpers.ts&#45;&gt;instruction&#45;primitives.ts</title>
<path fill="none" stroke="#757575" d="M1678.25,-109.92C1678.25,-109.92 1678.25,-84.34 1678.25,-84.34"/>
<polygon fill="#757575" stroke="#757575" points="1681.75,-84.34 1678.25,-74.34 1674.75,-84.34 1681.75,-84.34"/>
</g>
<!-- operator&#45;parsing.ts&#45;&gt;parser.ts -->
<g id="edge70" class="edge">
<title>operator&#45;parsing.ts&#45;&gt;parser.ts</title>
<path fill="none" stroke="#757575" d="M1160.06,-122C1104.85,-122 1023.17,-122 1023.17,-122 1023.17,-122 1023.17,-84.25 1023.17,-84.25"/>
<polygon fill="#757575" stroke="#757575" points="1026.67,-84.25 1023.17,-74.25 1019.67,-84.25 1026.67,-84.25"/>
</g>
<!-- array&#45;compilation.ts -->
<g id="node19" class="node">
<title>array&#45;compilation.ts</title>
<path fill="none" stroke="#c6c5fe" d="M1881.17,-129C1881.17,-129 1791.83,-129 1791.83,-129 1788.67,-129 1785.5,-125.83 1785.5,-122.67 1785.5,-122.67 1785.5,-116.33 1785.5,-116.33 1785.5,-113.17 1788.67,-110 1791.83,-110 1791.83,-110 1881.17,-110 1881.17,-110 1884.33,-110 1887.5,-113.17 1887.5,-116.33 1887.5,-116.33 1887.5,-122.67 1887.5,-122.67 1887.5,-125.83 1884.33,-129 1881.17,-129"/>
<text text-anchor="middle" x="1836.5" y="-117" font-family="Arial" font-size="10.00" fill="#c6c5fe">array&#45;compilation.ts</text>
</g>
<!-- array&#45;compilation.ts&#45;&gt;vm.ts -->
<g id="edge22" class="edge">
<title>array&#45;compilation.ts&#45;&gt;vm.ts</title>
<path fill="none" stroke="#757575" d="M1785.47,-119C1761.88,-119 1739,-119 1739,-119 1739,-119 1739,-29.22 1739,-29.22"/>
<polygon fill="#757575" stroke="#757575" points="1742.5,-29.22 1739,-19.22 1735.5,-29.22 1742.5,-29.22"/>
</g>
<!-- array&#45;compilation.ts&#45;&gt;instruction&#45;primitives.ts -->
<g id="edge21" class="edge">
<title>array&#45;compilation.ts&#45;&gt;instruction&#45;primitives.ts</title>
<path fill="none" stroke="#757575" d="M1836.5,-109.87C1836.5,-94.71 1836.5,-67 1836.5,-67 1836.5,-67 1696.55,-67 1696.55,-67"/>
<polygon fill="#757575" stroke="#757575" points="1696.55,-63.5 1686.55,-67 1696.55,-70.5 1696.55,-63.5"/>
</g>
<!-- instruction&#45;primitives.ts&#45;&gt;vm.ts -->
<g id="edge58" class="edge">
<title>instruction&#45;primitives.ts&#45;&gt;vm.ts</title>
<path fill="none" stroke="#757575" d="M1686.57,-61C1693.34,-61 1697.88,-61 1697.88,-61 1697.88,-61 1697.88,-29.43 1697.88,-29.43"/>
<polygon fill="#757575" stroke="#757575" points="1701.38,-29.43 1697.88,-19.43 1694.38,-29.43 1701.38,-29.43"/>
</g>
<!-- array&#45;helpers.ts&#45;&gt;parser.ts -->
<g id="edge24" class="edge">
<title>array&#45;helpers.ts&#45;&gt;parser.ts</title>
<path fill="none" stroke="#757575" d="M411.5,-109.89C411.5,-92.59 411.5,-58 411.5,-58 411.5,-58 961.93,-58 961.93,-58"/>
<polygon fill="#757575" stroke="#757575" points="961.93,-61.5 971.93,-58 961.93,-54.5 961.93,-61.5"/>
</g>
<!-- array&#45;helpers.ts&#45;&gt;variable&#45;types.ts -->
<g id="edge25" class="edge">
<title>array&#45;helpers.ts&#45;&gt;variable&#45;types.ts</title>
<path fill="none" stroke="#757575" d="M362.29,-119C293.62,-119 165.3,-119 165.3,-119 165.3,-119 165.3,-84.24 165.3,-84.24"/>
<polygon fill="#757575" stroke="#757575" points="168.8,-84.24 165.3,-74.24 161.8,-84.24 168.8,-84.24"/>
</g>
<!-- array&#45;helpers.ts&#45;&gt;array&#45;parsing.ts -->
<g id="edge23" class="edge">
<title>array&#45;helpers.ts&#45;&gt;array&#45;parsing.ts</title>
<path fill="none" stroke="#757575" d="M369.5,-109.92C369.5,-109.92 369.5,-84.34 369.5,-84.34"/>
<polygon fill="#757575" stroke="#757575" points="373,-84.34 369.5,-74.34 366,-84.34 373,-84.34"/>
</g>
<!-- comparison&#45;parsing.ts -->
<g id="node23" class="node">
<title>comparison&#45;parsing.ts</title>
<path fill="none" stroke="#c6c5fe" d="M1459.67,-184C1459.67,-184 1359.33,-184 1359.33,-184 1356.17,-184 1353,-180.83 1353,-177.67 1353,-177.67 1353,-171.33 1353,-171.33 1353,-168.17 1356.17,-165 1359.33,-165 1359.33,-165 1459.67,-165 1459.67,-165 1462.83,-165 1466,-168.17 1466,-171.33 1466,-171.33 1466,-177.67 1466,-177.67 1466,-180.83 1462.83,-184 1459.67,-184"/>
<text text-anchor="middle" x="1409.5" y="-172" font-family="Arial" font-size="10.00" fill="#c6c5fe">comparison&#45;parsing.ts</text>
</g>
<!-- comparison&#45;parsing.ts&#45;&gt;parser.ts -->
<g id="edge28" class="edge">
<title>comparison&#45;parsing.ts&#45;&gt;parser.ts</title>
<path fill="none" stroke="#757575" d="M1352.77,-174C1244.55,-174 1019.33,-174 1019.33,-174 1019.33,-174 1019.33,-84.22 1019.33,-84.22"/>
<polygon fill="#757575" stroke="#757575" points="1022.83,-84.22 1019.33,-74.22 1015.83,-84.22 1022.83,-84.22"/>
</g>
<!-- comparison&#45;parsing.ts&#45;&gt;vm.ts -->
<g id="edge29" class="edge">
<title>comparison&#45;parsing.ts&#45;&gt;vm.ts</title>
<path fill="none" stroke="#757575" d="M1466.33,-177C1558.77,-177 1731.5,-177 1731.5,-177 1731.5,-177 1731.5,-29.48 1731.5,-29.48"/>
<polygon fill="#757575" stroke="#757575" points="1735,-29.48 1731.5,-19.48 1728,-29.48 1735,-29.48"/>
</g>
<!-- comparison&#45;parsing.ts&#45;&gt;helpers.ts -->
<g id="edge26" class="edge">
<title>comparison&#45;parsing.ts&#45;&gt;helpers.ts</title>
<path fill="none" stroke="#757575" d="M1466.1,-171C1546.11,-171 1682.67,-171 1682.67,-171 1682.67,-171 1682.67,-139.43 1682.67,-139.43"/>
<polygon fill="#757575" stroke="#757575" points="1686.17,-139.43 1682.67,-129.43 1679.17,-139.43 1686.17,-139.43"/>
</g>
<!-- comparison&#45;parsing.ts&#45;&gt;operator&#45;parsing.ts -->
<g id="edge27" class="edge">
<title>comparison&#45;parsing.ts&#45;&gt;operator&#45;parsing.ts</title>
<path fill="none" stroke="#757575" d="M1352.77,-168C1307.77,-168 1252.38,-168 1252.38,-168 1252.38,-168 1252.38,-139.31 1252.38,-139.31"/>
<polygon fill="#757575" stroke="#757575" points="1255.88,-139.31 1252.38,-129.31 1248.88,-139.31 1255.88,-139.31"/>
</g>
<!-- expression&#45;with&#45;context.ts&#45;&gt;arithmetic&#45;parsing.ts -->
<g id="edge40" class="edge">
<title>expression&#45;with&#45;context.ts&#45;&gt;arithmetic&#45;parsing.ts</title>
<path fill="none" stroke="#757575" d="M1172.17,-274.83C1172.17,-258.93 1172.17,-229 1172.17,-229 1172.17,-229 1223.68,-229 1223.68,-229"/>
<polygon fill="#757575" stroke="#757575" points="1223.68,-232.5 1233.68,-229 1223.68,-225.5 1223.68,-232.5"/>
</g>
<!-- expression&#45;with&#45;context.ts&#45;&gt;let&#45;binding.ts -->
<g id="edge41" class="edge">
<title>expression&#45;with&#45;context.ts&#45;&gt;let&#45;binding.ts</title>
<path fill="none" stroke="#757575" d="M1046.93,-286C936.03,-286 723.38,-286 723.38,-286 723.38,-286 723.38,-177 723.38,-177 723.38,-177 443.62,-177 443.62,-177"/>
<polygon fill="#757575" stroke="#757575" points="443.62,-173.5 433.62,-177 443.62,-180.5 443.62,-173.5"/>
</g>
<!-- expression&#45;with&#45;context.ts&#45;&gt;parser.ts -->
<g id="edge43" class="edge">
<title>expression&#45;with&#45;context.ts&#45;&gt;parser.ts</title>
<path fill="none" stroke="#757575" d="M1046.93,-278C1027.67,-278 1011.67,-278 1011.67,-278 1011.67,-278 1011.67,-84.23 1011.67,-84.23"/>
<polygon fill="#757575" stroke="#757575" points="1015.17,-84.23 1011.67,-74.23 1008.17,-84.23 1015.17,-84.23"/>
</g>
<!-- expression&#45;with&#45;context.ts&#45;&gt;types.ts -->
<g id="edge44" class="edge">
<title>expression&#45;with&#45;context.ts&#45;&gt;types.ts</title>
<path fill="none" stroke="#757575" d="M1046.71,-282C945.93,-282 764.88,-282 764.88,-282 764.88,-282 764.88,-194.04 764.88,-194.04"/>
<polygon fill="#757575" stroke="#757575" points="768.38,-194.04 764.88,-184.04 761.38,-194.04 768.38,-194.04"/>
</g>
<!-- expression&#45;with&#45;context.ts&#45;&gt;variable&#45;types.ts -->
<g id="edge45" class="edge">
<title>expression&#45;with&#45;context.ts&#45;&gt;variable&#45;types.ts</title>
<path fill="none" stroke="#757575" d="M1046.99,-290C828.29,-290 137.1,-290 137.1,-290 137.1,-290 137.1,-84.19 137.1,-84.19"/>
<polygon fill="#757575" stroke="#757575" points="140.6,-84.19 137.1,-74.19 133.6,-84.19 140.6,-84.19"/>
</g>
<!-- expression&#45;with&#45;context.ts&#45;&gt;vm.ts -->
<g id="edge46" class="edge">
<title>expression&#45;with&#45;context.ts&#45;&gt;vm.ts</title>
<path fill="none" stroke="#757575" d="M1178.13,-281C1337.89,-281 1734,-281 1734,-281 1734,-281 1734,-29.16 1734,-29.16"/>
<polygon fill="#757575" stroke="#757575" points="1737.5,-29.16 1734,-19.16 1730.5,-29.16 1737.5,-29.16"/>
</g>
<!-- expression&#45;with&#45;context.ts&#45;&gt;operator&#45;parsing.ts -->
<g id="edge42" class="edge">
<title>expression&#45;with&#45;context.ts&#45;&gt;operator&#45;parsing.ts</title>
<path fill="none" stroke="#757575" d="M1166.33,-274.67C1166.33,-274.67 1166.33,-139.07 1166.33,-139.07"/>
<polygon fill="#757575" stroke="#757575" points="1169.83,-139.07 1166.33,-129.07 1162.83,-139.07 1169.83,-139.07"/>
</g>
<!-- reassignment&#45;parsing.ts&#45;&gt;parser.ts -->
<g id="edge77" class="edge">
<title>reassignment&#45;parsing.ts&#45;&gt;parser.ts</title>
<path fill="none" stroke="#757575" d="M1421.25,-109.69C1421.25,-95.51 1421.25,-71 1421.25,-71 1421.25,-71 1037.17,-71 1037.17,-71"/>
<polygon fill="#757575" stroke="#757575" points="1037.17,-67.5 1027.17,-71 1037.17,-74.5 1037.17,-67.5"/>
</g>
<!-- reassignment&#45;parsing.ts&#45;&gt;vm.ts -->
<g id="edge78" class="edge">
<title>reassignment&#45;parsing.ts&#45;&gt;vm.ts</title>
<path fill="none" stroke="#757575" d="M1451.5,-109.67C1451.5,-84.02 1451.5,-17 1451.5,-17 1451.5,-17 1677.34,-17 1677.34,-17"/>
<polygon fill="#757575" stroke="#757575" points="1677.34,-20.5 1687.34,-17 1677.34,-13.5 1677.34,-20.5"/>
</g>
<!-- reassignment&#45;parsing.ts&#45;&gt;instruction&#45;primitives.ts -->
<g id="edge76" class="edge">
<title>reassignment&#45;parsing.ts&#45;&gt;instruction&#45;primitives.ts</title>
<path fill="none" stroke="#757575" d="M1481.75,-109.57C1481.75,-94.6 1481.75,-68 1481.75,-68 1481.75,-68 1558.22,-68 1558.22,-68"/>
<polygon fill="#757575" stroke="#757575" points="1558.22,-71.5 1568.22,-68 1558.22,-64.5 1558.22,-71.5"/>
</g>
<!-- slice&#45;parsing.ts&#45;&gt;parser.ts -->
<g id="edge84" class="edge">
<title>slice&#45;parsing.ts&#45;&gt;parser.ts</title>
<path fill="none" stroke="#757575" d="M1568.91,-119C1558.22,-119 1549.67,-119 1549.67,-119 1549.67,-119 1549.67,-57 1549.67,-57 1549.67,-57 1037.16,-57 1037.16,-57"/>
<polygon fill="#757575" stroke="#757575" points="1037.16,-53.5 1027.16,-57 1037.16,-60.5 1037.16,-53.5"/>
</g>
<!-- slice&#45;parsing.ts&#45;&gt;vm.ts -->
<g id="edge85" class="edge">
<title>slice&#45;parsing.ts&#45;&gt;vm.ts</title>
<path fill="none" stroke="#757575" d="M1624.33,-109.88C1624.33,-101.95 1624.33,-92 1624.33,-92 1624.33,-92 1708.25,-92 1708.25,-92 1708.25,-92 1708.25,-29.29 1708.25,-29.29"/>
<polygon fill="#757575" stroke="#757575" points="1711.75,-29.29 1708.25,-19.29 1704.75,-29.29 1711.75,-29.29"/>
</g>
<!-- slice&#45;parsing.ts&#45;&gt;instruction&#45;primitives.ts -->
<g id="edge83" class="edge">
<title>slice&#45;parsing.ts&#45;&gt;instruction&#45;primitives.ts</title>
<path fill="none" stroke="#757575" d="M1596.67,-109.92C1596.67,-109.92 1596.67,-84.34 1596.67,-84.34"/>
<polygon fill="#757575" stroke="#757575" points="1600.17,-84.34 1596.67,-74.34 1593.17,-84.34 1600.17,-84.34"/>
</g>
<!-- function&#45;parsing.ts&#45;&gt;parser.ts -->
<g id="edge53" class="edge">
<title>function&#45;parsing.ts&#45;&gt;parser.ts</title>
<path fill="none" stroke="#757575" d="M1823.91,-287C1729.58,-287 1530.83,-287 1530.83,-287 1530.83,-287 1530.83,-63 1530.83,-63 1530.83,-63 1037.32,-63 1037.32,-63"/>
<polygon fill="#757575" stroke="#757575" points="1037.32,-59.5 1027.32,-63 1037.32,-66.5 1037.32,-59.5"/>
</g>
<!-- if&#45;expression&#45;parsing.ts -->
<g id="node28" class="node">
<title>if&#45;expression&#45;parsing.ts</title>
<path fill="none" stroke="#c6c5fe" d="M614.17,-129C614.17,-129 508.83,-129 508.83,-129 505.67,-129 502.5,-125.83 502.5,-122.67 502.5,-122.67 502.5,-116.33 502.5,-116.33 502.5,-113.17 505.67,-110 508.83,-110 508.83,-110 614.17,-110 614.17,-110 617.33,-110 620.5,-113.17 620.5,-116.33 620.5,-116.33 620.5,-122.67 620.5,-122.67 620.5,-125.83 617.33,-129 614.17,-129"/>
<text text-anchor="middle" x="561.5" y="-117" font-family="Arial" font-size="10.00" fill="#c6c5fe">if&#45;expression&#45;parsing.ts</text>
</g>
<!-- if&#45;expression&#45;parsing.ts&#45;&gt;parser.ts -->
<g id="edge56" class="edge">
<title>if&#45;expression&#45;parsing.ts&#45;&gt;parser.ts</title>
<path fill="none" stroke="#757575" d="M581.17,-109.69C581.17,-94.24 581.17,-66 581.17,-66 581.17,-66 961.73,-66 961.73,-66"/>
<polygon fill="#757575" stroke="#757575" points="961.73,-69.5 971.73,-66 961.73,-62.5 961.73,-69.5"/>
</g>
<!-- if&#45;expression&#45;parsing.ts&#45;&gt;vm.ts -->
<g id="edge57" class="edge">
<title>if&#45;expression&#45;parsing.ts&#45;&gt;vm.ts</title>
<path fill="none" stroke="#757575" d="M541.83,-109.97C541.83,-82.14 541.83,-3 541.83,-3 541.83,-3 1677.24,-3 1677.24,-3"/>
<polygon fill="#757575" stroke="#757575" points="1677.24,-6.5 1687.24,-3 1677.24,0.5 1677.24,-6.5"/>
</g>
<!-- type&#45;inference&#45;helpers.ts&#45;&gt;parser.ts -->
<g id="edge86" class="edge">
<title>type&#45;inference&#45;helpers.ts&#45;&gt;parser.ts</title>
<path fill="none" stroke="#757575" d="M914.55,-116C945.88,-116 977.33,-116 977.33,-116 977.33,-116 977.33,-84.43 977.33,-84.43"/>
<polygon fill="#757575" stroke="#757575" points="980.83,-84.43 977.33,-74.43 973.83,-84.43 980.83,-84.43"/>
</g>
</g>
</svg>
