<?xml version="1.0" encoding="UTF-8" standalone="no"?>
<!DOCTYPE svg PUBLIC "-//W3C//DTD SVG 1.1//EN"
 "http://www.w3.org/Graphics/SVG/1.1/DTD/svg11.dtd">
<!-- Generated by graphviz version 2.43.0 (0)
 -->
<!-- Title: G Pages: 1 -->
<svg width="97pt" height="66pt"
 viewBox="0.00 0.00 97.20 66.20" xmlns="http://www.w3.org/2000/svg" xmlns:xlink="http://www.w3.org/1999/xlink">
<g id="graph0" class="graph" transform="scale(1 1) rotate(0) translate(21.6 44.6)">
<title>G</title>
<polygon fill="#111111" stroke="transparent" points="-21.6,21.6 -21.6,-44.6 75.6,-44.6 75.6,21.6 -21.6,21.6"/>
<!-- app.ts -->
<g id="node1" class="node">
<title>app.ts</title>
<path fill="none" stroke="#cfffac" d="M46.33,-23C46.33,-23 7.67,-23 7.67,-23 3.83,-23 0,-19.17 0,-15.33 0,-15.33 0,-7.67 0,-7.67 0,-3.83 3.83,0 7.67,0 7.67,0 46.33,0 46.33,0 50.17,0 54,-3.83 54,-7.67 54,-7.67 54,-15.33 54,-15.33 54,-19.17 50.17,-23 46.33,-23"/>
<text text-anchor="middle" x="27" y="-7.8" font-family="Arial" font-size="14.00" fill="#cfffac">app.ts</text>
</g>
</g>
</svg>
