<?xml version="1.0" encoding="UTF-8" standalone="no"?>
<!DOCTYPE svg PUBLIC "-//W3C//DTD SVG 1.1//EN"
 "http://www.w3.org/Graphics/SVG/1.1/DTD/svg11.dtd">
<!-- Generated by graphviz version 2.43.0 (0)
 -->
<!-- Title: G Pages: 1 -->
<svg width="2771pt" height="715pt"
 viewBox="0.00 0.00 2770.70 715.20" xmlns="http://www.w3.org/2000/svg" xmlns:xlink="http://www.w3.org/1999/xlink">
<g id="graph0" class="graph" transform="scale(1 1) rotate(0) translate(21.6 693.6)">
<title>G</title>
<polygon fill="#111111" stroke="transparent" points="-21.6,21.6 -21.6,-693.6 2749.1,-693.6 2749.1,21.6 -21.6,21.6"/>
<!-- src/app.ts -->
<g id="node1" class="node">
<title>src/app.ts</title>
<path fill="none" stroke="#c6c5fe" d="M1687.33,-554C1687.33,-554 1627.67,-554 1627.67,-554 1623.83,-554 1620,-550.17 1620,-546.33 1620,-546.33 1620,-538.67 1620,-538.67 1620,-534.83 1623.83,-531 1627.67,-531 1627.67,-531 1687.33,-531 1687.33,-531 1691.17,-531 1695,-534.83 1695,-538.67 1695,-538.67 1695,-546.33 1695,-546.33 1695,-550.17 1691.17,-554 1687.33,-554"/>
<text text-anchor="middle" x="1657.5" y="-538.8" font-family="Arial" font-size="14.00" fill="#c6c5fe">src/app.ts</text>
</g>
<!-- src/expressions/binary&#45;operation.ts -->
<g id="node2" class="node">
<title>src/expressions/binary&#45;operation.ts</title>
<path fill="none" stroke="#c6c5fe" d="M2258.83,-436C2258.83,-436 2048.17,-436 2048.17,-436 2044.33,-436 2040.5,-432.17 2040.5,-428.33 2040.5,-428.33 2040.5,-420.67 2040.5,-420.67 2040.5,-416.83 2044.33,-413 2048.17,-413 2048.17,-413 2258.83,-413 2258.83,-413 2262.67,-413 2266.5,-416.83 2266.5,-420.67 2266.5,-420.67 2266.5,-428.33 2266.5,-428.33 2266.5,-432.17 2262.67,-436 2258.83,-436"/>
<text text-anchor="middle" x="2153.5" y="-420.8" font-family="Arial" font-size="14.00" fill="#c6c5fe">src/expressions/binary&#45;operation.ts</text>
</g>
<!-- src/app.ts&#45;&gt;src/expressions/binary&#45;operation.ts -->
<g id="edge1" class="edge">
<title>src/app.ts&#45;&gt;src/expressions/binary&#45;operation.ts</title>
<path fill="none" stroke="#757575" d="M1670,-530.88C1670,-502.14 1670,-430 1670,-430 1670,-430 2030.45,-430 2030.45,-430"/>
<polygon fill="#757575" stroke="#757575" points="2030.45,-433.5 2040.45,-430 2030.45,-426.5 2030.45,-433.5"/>
</g>
<!-- src/expressions/grouped&#45;expressions.ts -->
<g id="node3" class="node">
<title>src/expressions/grouped&#45;expressions.ts</title>
<path fill="none" stroke="#c6c5fe" d="M1098.83,-377C1098.83,-377 860.17,-377 860.17,-377 856.33,-377 852.5,-373.17 852.5,-369.33 852.5,-369.33 852.5,-361.67 852.5,-361.67 852.5,-357.83 856.33,-354 860.17,-354 860.17,-354 1098.83,-354 1098.83,-354 1102.67,-354 1106.5,-357.83 1106.5,-361.67 1106.5,-361.67 1106.5,-369.33 1106.5,-369.33 1106.5,-373.17 1102.67,-377 1098.83,-377"/>
<text text-anchor="middle" x="979.5" y="-361.8" font-family="Arial" font-size="14.00" fill="#c6c5fe">src/expressions/grouped&#45;expressions.ts</text>
</g>
<!-- src/app.ts&#45;&gt;src/expressions/grouped&#45;expressions.ts -->
<g id="edge2" class="edge">
<title>src/app.ts&#45;&gt;src/expressions/grouped&#45;expressions.ts</title>
<path fill="none" stroke="#757575" d="M1619.89,-534C1494.33,-534 1097.5,-534 1097.5,-534 1097.5,-534 1097.5,-387.08 1097.5,-387.08"/>
<polygon fill="#757575" stroke="#757575" points="1101,-387.08 1097.5,-377.08 1094,-387.08 1101,-387.08"/>
</g>
<!-- src/expressions/handlers.ts -->
<g id="node4" class="node">
<title>src/expressions/handlers.ts</title>
<path fill="none" stroke="#c6c5fe" d="M1569.83,-200C1569.83,-200 1405.17,-200 1405.17,-200 1401.33,-200 1397.5,-196.17 1397.5,-192.33 1397.5,-192.33 1397.5,-184.67 1397.5,-184.67 1397.5,-180.83 1401.33,-177 1405.17,-177 1405.17,-177 1569.83,-177 1569.83,-177 1573.67,-177 1577.5,-180.83 1577.5,-184.67 1577.5,-184.67 1577.5,-192.33 1577.5,-192.33 1577.5,-196.17 1573.67,-200 1569.83,-200"/>
<text text-anchor="middle" x="1487.5" y="-184.8" font-family="Arial" font-size="14.00" fill="#c6c5fe">src/expressions/handlers.ts</text>
</g>
<!-- src/app.ts&#45;&gt;src/expressions/handlers.ts -->
<g id="edge3" class="edge">
<title>src/app.ts&#45;&gt;src/expressions/handlers.ts</title>
<path fill="none" stroke="#757575" d="M1645,-530.93C1645,-506.94 1645,-454 1645,-454 1645,-454 1486.75,-454 1486.75,-454 1486.75,-454 1486.75,-210.25 1486.75,-210.25"/>
<polygon fill="#757575" stroke="#757575" points="1490.25,-210.25 1486.75,-200.25 1483.25,-210.25 1490.25,-210.25"/>
</g>
<!-- src/handlers/dereference&#45;assignment.ts -->
<g id="node5" class="node">
<title>src/handlers/dereference&#45;assignment.ts</title>
<path fill="none" stroke="#c6c5fe" d="M2117.83,-377C2117.83,-377 1879.17,-377 1879.17,-377 1875.33,-377 1871.5,-373.17 1871.5,-369.33 1871.5,-369.33 1871.5,-361.67 1871.5,-361.67 1871.5,-357.83 1875.33,-354 1879.17,-354 1879.17,-354 2117.83,-354 2117.83,-354 2121.67,-354 2125.5,-357.83 2125.5,-361.67 2125.5,-361.67 2125.5,-369.33 2125.5,-369.33 2125.5,-373.17 2121.67,-377 2117.83,-377"/>
<text text-anchor="middle" x="1998.5" y="-361.8" font-family="Arial" font-size="14.00" fill="#c6c5fe">src/handlers/dereference&#45;assignment.ts</text>
</g>
<!-- src/app.ts&#45;&gt;src/handlers/dereference&#45;assignment.ts -->
<g id="edge4" class="edge">
<title>src/app.ts&#45;&gt;src/handlers/dereference&#45;assignment.ts</title>
<path fill="none" stroke="#757575" d="M1695.24,-542C1758.36,-542 1878.5,-542 1878.5,-542 1878.5,-542 1878.5,-387.08 1878.5,-387.08"/>
<polygon fill="#757575" stroke="#757575" points="1882,-387.08 1878.5,-377.08 1875,-387.08 1882,-387.08"/>
</g>
<!-- src/handlers/lambda&#45;expressions.ts -->
<g id="node6" class="node">
<title>src/handlers/lambda&#45;expressions.ts</title>
<path fill="none" stroke="#c6c5fe" d="M572.83,-436C572.83,-436 358.17,-436 358.17,-436 354.33,-436 350.5,-432.17 350.5,-428.33 350.5,-428.33 350.5,-420.67 350.5,-420.67 350.5,-416.83 354.33,-413 358.17,-413 358.17,-413 572.83,-413 572.83,-413 576.67,-413 580.5,-416.83 580.5,-420.67 580.5,-420.67 580.5,-428.33 580.5,-428.33 580.5,-432.17 576.67,-436 572.83,-436"/>
<text text-anchor="middle" x="465.5" y="-420.8" font-family="Arial" font-size="14.00" fill="#c6c5fe">src/handlers/lambda&#45;expressions.ts</text>
</g>
<!-- src/app.ts&#45;&gt;src/handlers/lambda&#45;expressions.ts -->
<g id="edge5" class="edge">
<title>src/app.ts&#45;&gt;src/handlers/lambda&#45;expressions.ts</title>
<path fill="none" stroke="#757575" d="M1619.77,-547C1420.94,-547 503.83,-547 503.83,-547 503.83,-547 503.83,-446.25 503.83,-446.25"/>
<polygon fill="#757575" stroke="#757575" points="507.33,-446.25 503.83,-436.25 500.33,-446.25 507.33,-446.25"/>
</g>
<!-- src/handlers/module&#45;access.ts -->
<g id="node7" class="node">
<title>src/handlers/module&#45;access.ts</title>
<path fill="none" stroke="#c6c5fe" d="M750.83,-377C750.83,-377 566.17,-377 566.17,-377 562.33,-377 558.5,-373.17 558.5,-369.33 558.5,-369.33 558.5,-361.67 558.5,-361.67 558.5,-357.83 562.33,-354 566.17,-354 566.17,-354 750.83,-354 750.83,-354 754.67,-354 758.5,-357.83 758.5,-361.67 758.5,-361.67 758.5,-369.33 758.5,-369.33 758.5,-373.17 754.67,-377 750.83,-377"/>
<text text-anchor="middle" x="658.5" y="-361.8" font-family="Arial" font-size="14.00" fill="#c6c5fe">src/handlers/module&#45;access.ts</text>
</g>
<!-- src/app.ts&#45;&gt;src/handlers/module&#45;access.ts -->
<g id="edge6" class="edge">
<title>src/app.ts&#45;&gt;src/handlers/module&#45;access.ts</title>
<path fill="none" stroke="#757575" d="M1619.98,-544C1439.51,-544 669.5,-544 669.5,-544 669.5,-544 669.5,-387.21 669.5,-387.21"/>
<polygon fill="#757575" stroke="#757575" points="673,-387.21 669.5,-377.21 666,-387.21 673,-387.21"/>
</g>
<!-- src/handlers/pointer&#45;operations.ts -->
<g id="node8" class="node">
<title>src/handlers/pointer&#45;operations.ts</title>
<path fill="none" stroke="#c6c5fe" d="M2043.33,-318C2043.33,-318 1841.67,-318 1841.67,-318 1837.83,-318 1834,-314.17 1834,-310.33 1834,-310.33 1834,-302.67 1834,-302.67 1834,-298.83 1837.83,-295 1841.67,-295 1841.67,-295 2043.33,-295 2043.33,-295 2047.17,-295 2051,-298.83 2051,-302.67 2051,-302.67 2051,-310.33 2051,-310.33 2051,-314.17 2047.17,-318 2043.33,-318"/>
<text text-anchor="middle" x="1942.5" y="-302.8" font-family="Arial" font-size="14.00" fill="#c6c5fe">src/handlers/pointer&#45;operations.ts</text>
</g>
<!-- src/app.ts&#45;&gt;src/handlers/pointer&#45;operations.ts -->
<g id="edge7" class="edge">
<title>src/app.ts&#45;&gt;src/handlers/pointer&#45;operations.ts</title>
<path fill="none" stroke="#757575" d="M1695.15,-538C1751.88,-538 1852.75,-538 1852.75,-538 1852.75,-538 1852.75,-328.3 1852.75,-328.3"/>
<polygon fill="#757575" stroke="#757575" points="1856.25,-328.3 1852.75,-318.3 1849.25,-328.3 1856.25,-328.3"/>
</g>
<!-- src/loops/for.ts -->
<g id="node9" class="node">
<title>src/loops/for.ts</title>
<path fill="none" stroke="#c6c5fe" d="M2568.83,-495C2568.83,-495 2480.17,-495 2480.17,-495 2476.33,-495 2472.5,-491.17 2472.5,-487.33 2472.5,-487.33 2472.5,-479.67 2472.5,-479.67 2472.5,-475.83 2476.33,-472 2480.17,-472 2480.17,-472 2568.83,-472 2568.83,-472 2572.67,-472 2576.5,-475.83 2576.5,-479.67 2576.5,-479.67 2576.5,-487.33 2576.5,-487.33 2576.5,-491.17 2572.67,-495 2568.83,-495"/>
<text text-anchor="middle" x="2524.5" y="-479.8" font-family="Arial" font-size="14.00" fill="#c6c5fe">src/loops/for.ts</text>
</g>
<!-- src/app.ts&#45;&gt;src/loops/for.ts -->
<g id="edge8" class="edge">
<title>src/app.ts&#45;&gt;src/loops/for.ts</title>
<path fill="none" stroke="#757575" d="M1695.03,-546C1861.44,-546 2524.5,-546 2524.5,-546 2524.5,-546 2524.5,-505.26 2524.5,-505.26"/>
<polygon fill="#757575" stroke="#757575" points="2528,-505.26 2524.5,-495.26 2521,-505.26 2528,-505.26"/>
</g>
<!-- src/loops/loop.ts -->
<g id="node10" class="node">
<title>src/loops/loop.ts</title>
<path fill="none" stroke="#cfffac" d="M2719.83,-436C2719.83,-436 2621.17,-436 2621.17,-436 2617.33,-436 2613.5,-432.17 2613.5,-428.33 2613.5,-428.33 2613.5,-420.67 2613.5,-420.67 2613.5,-416.83 2617.33,-413 2621.17,-413 2621.17,-413 2719.83,-413 2719.83,-413 2723.67,-413 2727.5,-416.83 2727.5,-420.67 2727.5,-420.67 2727.5,-428.33 2727.5,-428.33 2727.5,-432.17 2723.67,-436 2719.83,-436"/>
<text text-anchor="middle" x="2670.5" y="-420.8" font-family="Arial" font-size="14.00" fill="#cfffac">src/loops/loop.ts</text>
</g>
<!-- src/app.ts&#45;&gt;src/loops/loop.ts -->
<g id="edge9" class="edge">
<title>src/app.ts&#45;&gt;src/loops/loop.ts</title>
<path fill="none" stroke="#757575" d="M1695.18,-550C1881.9,-550 2699,-550 2699,-550 2699,-550 2699,-446.08 2699,-446.08"/>
<polygon fill="#757575" stroke="#757575" points="2702.5,-446.08 2699,-436.08 2695.5,-446.08 2702.5,-446.08"/>
</g>
<!-- src/loops/while.ts -->
<g id="node11" class="node">
<title>src/loops/while.ts</title>
<path fill="none" stroke="#c6c5fe" d="M2439.33,-495C2439.33,-495 2335.67,-495 2335.67,-495 2331.83,-495 2328,-491.17 2328,-487.33 2328,-487.33 2328,-479.67 2328,-479.67 2328,-475.83 2331.83,-472 2335.67,-472 2335.67,-472 2439.33,-472 2439.33,-472 2443.17,-472 2447,-475.83 2447,-479.67 2447,-479.67 2447,-487.33 2447,-487.33 2447,-491.17 2443.17,-495 2439.33,-495"/>
<text text-anchor="middle" x="2387.5" y="-479.8" font-family="Arial" font-size="14.00" fill="#c6c5fe">src/loops/while.ts</text>
</g>
<!-- src/app.ts&#45;&gt;src/loops/while.ts -->
<g id="edge10" class="edge">
<title>src/app.ts&#45;&gt;src/loops/while.ts</title>
<path fill="none" stroke="#757575" d="M1682.5,-530.73C1682.5,-514.44 1682.5,-487 1682.5,-487 1682.5,-487 2318,-487 2318,-487"/>
<polygon fill="#757575" stroke="#757575" points="2318,-490.5 2328,-487 2318,-483.5 2318,-490.5"/>
</g>
<!-- src/match.ts -->
<g id="node12" class="node">
<title>src/match.ts</title>
<path fill="none" stroke="#cfffac" d="M844.83,-318C844.83,-318 770.17,-318 770.17,-318 766.33,-318 762.5,-314.17 762.5,-310.33 762.5,-310.33 762.5,-302.67 762.5,-302.67 762.5,-298.83 766.33,-295 770.17,-295 770.17,-295 844.83,-295 844.83,-295 848.67,-295 852.5,-298.83 852.5,-302.67 852.5,-302.67 852.5,-310.33 852.5,-310.33 852.5,-314.17 848.67,-318 844.83,-318"/>
<text text-anchor="middle" x="807.5" y="-302.8" font-family="Arial" font-size="14.00" fill="#cfffac">src/match.ts</text>
</g>
<!-- src/app.ts&#45;&gt;src/match.ts -->
<g id="edge11" class="edge">
<title>src/app.ts&#45;&gt;src/match.ts</title>
<path fill="none" stroke="#757575" d="M1619.88,-540C1455.38,-540 807.5,-540 807.5,-540 807.5,-540 807.5,-328.08 807.5,-328.08"/>
<polygon fill="#757575" stroke="#757575" points="811,-328.08 807.5,-318.08 804,-328.08 811,-328.08"/>
</g>
<!-- src/parser.ts -->
<g id="node13" class="node">
<title>src/parser.ts</title>
<path fill="none" stroke="#c6c5fe" d="M1879.83,-82C1879.83,-82 1805.17,-82 1805.17,-82 1801.33,-82 1797.5,-78.17 1797.5,-74.33 1797.5,-74.33 1797.5,-66.67 1797.5,-66.67 1797.5,-62.83 1801.33,-59 1805.17,-59 1805.17,-59 1879.83,-59 1879.83,-59 1883.67,-59 1887.5,-62.83 1887.5,-66.67 1887.5,-66.67 1887.5,-74.33 1887.5,-74.33 1887.5,-78.17 1883.67,-82 1879.83,-82"/>
<text text-anchor="middle" x="1842.5" y="-66.8" font-family="Arial" font-size="14.00" fill="#c6c5fe">src/parser.ts</text>
</g>
<!-- src/app.ts&#45;&gt;src/parser.ts -->
<g id="edge12" class="edge">
<title>src/app.ts&#45;&gt;src/parser.ts</title>
<path fill="none" stroke="#757575" d="M1695.05,-534C1742.88,-534 1819.4,-534 1819.4,-534 1819.4,-534 1819.4,-92.42 1819.4,-92.42"/>
<polygon fill="#757575" stroke="#757575" points="1822.9,-92.42 1819.4,-82.42 1815.9,-92.42 1822.9,-92.42"/>
</g>
<!-- src/scope.ts -->
<g id="node14" class="node">
<title>src/scope.ts</title>
<path fill="none" stroke="#c6c5fe" d="M81.33,-495C81.33,-495 7.67,-495 7.67,-495 3.83,-495 0,-491.17 0,-487.33 0,-487.33 0,-479.67 0,-479.67 0,-475.83 3.83,-472 7.67,-472 7.67,-472 81.33,-472 81.33,-472 85.17,-472 89,-475.83 89,-479.67 89,-479.67 89,-487.33 89,-487.33 89,-491.17 85.17,-495 81.33,-495"/>
<text text-anchor="middle" x="44.5" y="-479.8" font-family="Arial" font-size="14.00" fill="#c6c5fe">src/scope.ts</text>
</g>
<!-- src/app.ts&#45;&gt;src/scope.ts -->
<g id="edge13" class="edge">
<title>src/app.ts&#45;&gt;src/scope.ts</title>
<path fill="none" stroke="#757575" d="M1619.61,-550C1376.39,-550 44.5,-550 44.5,-550 44.5,-550 44.5,-505.08 44.5,-505.08"/>
<polygon fill="#757575" stroke="#757575" points="48,-505.08 44.5,-495.08 41,-505.08 48,-505.08"/>
</g>
<!-- src/utils/app&#45;handlers.ts -->
<g id="node15" class="node">
<title>src/utils/app&#45;handlers.ts</title>
<path fill="none" stroke="#c6c5fe" d="M1500.33,-495C1500.33,-495 1356.67,-495 1356.67,-495 1352.83,-495 1349,-491.17 1349,-487.33 1349,-487.33 1349,-479.67 1349,-479.67 1349,-475.83 1352.83,-472 1356.67,-472 1356.67,-472 1500.33,-472 1500.33,-472 1504.17,-472 1508,-475.83 1508,-479.67 1508,-479.67 1508,-487.33 1508,-487.33 1508,-491.17 1504.17,-495 1500.33,-495"/>
<text text-anchor="middle" x="1428.5" y="-479.8" font-family="Arial" font-size="14.00" fill="#c6c5fe">src/utils/app&#45;handlers.ts</text>
</g>
<!-- src/app.ts&#45;&gt;src/utils/app&#45;handlers.ts -->
<g id="edge14" class="edge">
<title>src/app.ts&#45;&gt;src/utils/app&#45;handlers.ts</title>
<path fill="none" stroke="#757575" d="M1632.5,-530.85C1632.5,-512.52 1632.5,-479 1632.5,-479 1632.5,-479 1518.25,-479 1518.25,-479"/>
<polygon fill="#757575" stroke="#757575" points="1518.25,-475.5 1508.25,-479 1518.25,-482.5 1518.25,-475.5"/>
</g>
<!-- src/utils/array.ts -->
<g id="node16" class="node">
<title>src/utils/array.ts</title>
<path fill="none" stroke="#cfffac" d="M858.83,-82C858.83,-82 764.17,-82 764.17,-82 760.33,-82 756.5,-78.17 756.5,-74.33 756.5,-74.33 756.5,-66.67 756.5,-66.67 756.5,-62.83 760.33,-59 764.17,-59 764.17,-59 858.83,-59 858.83,-59 862.67,-59 866.5,-62.83 866.5,-66.67 866.5,-66.67 866.5,-74.33 866.5,-74.33 866.5,-78.17 862.67,-82 858.83,-82"/>
<text text-anchor="middle" x="811.5" y="-66.8" font-family="Arial" font-size="14.00" fill="#cfffac">src/utils/array.ts</text>
</g>
<!-- src/app.ts&#45;&gt;src/utils/array.ts -->
<g id="edge15" class="edge">
<title>src/app.ts&#45;&gt;src/utils/array.ts</title>
<path fill="none" stroke="#757575" d="M1657.5,-530.85C1657.5,-488.06 1657.5,-342 1657.5,-342 1657.5,-342 860.5,-342 860.5,-342 860.5,-342 860.5,-92.17 860.5,-92.17"/>
<polygon fill="#757575" stroke="#757575" points="864,-92.17 860.5,-82.17 857,-92.17 864,-92.17"/>
</g>
<!-- src/utils/this&#45;keyword.ts -->
<g id="node17" class="node">
<title>src/utils/this&#45;keyword.ts</title>
<path fill="none" stroke="#c6c5fe" d="M1080.83,-436C1080.83,-436 940.17,-436 940.17,-436 936.33,-436 932.5,-432.17 932.5,-428.33 932.5,-428.33 932.5,-420.67 932.5,-420.67 932.5,-416.83 936.33,-413 940.17,-413 940.17,-413 1080.83,-413 1080.83,-413 1084.67,-413 1088.5,-416.83 1088.5,-420.67 1088.5,-420.67 1088.5,-428.33 1088.5,-428.33 1088.5,-432.17 1084.67,-436 1080.83,-436"/>
<text text-anchor="middle" x="1010.5" y="-420.8" font-family="Arial" font-size="14.00" fill="#c6c5fe">src/utils/this&#45;keyword.ts</text>
</g>
<!-- src/app.ts&#45;&gt;src/utils/this&#45;keyword.ts -->
<g id="edge16" class="edge">
<title>src/app.ts&#45;&gt;src/utils/this&#45;keyword.ts</title>
<path fill="none" stroke="#757575" d="M1619.8,-537C1481.29,-537 1008.5,-537 1008.5,-537 1008.5,-537 1008.5,-446.12 1008.5,-446.12"/>
<polygon fill="#757575" stroke="#757575" points="1012,-446.12 1008.5,-436.12 1005,-446.12 1012,-446.12"/>
</g>
<!-- src/expressions/binary&#45;operation.ts&#45;&gt;src/expressions/handlers.ts -->
<g id="edge18" class="edge">
<title>src/expressions/binary&#45;operation.ts&#45;&gt;src/expressions/handlers.ts</title>
<path fill="none" stroke="#757575" d="M2040.4,-424C1850.71,-424 1489,-424 1489,-424 1489,-424 1489,-210.18 1489,-210.18"/>
<polygon fill="#757575" stroke="#757575" points="1492.5,-210.18 1489,-200.18 1485.5,-210.18 1492.5,-210.18"/>
</g>
<!-- src/expressions/binary&#45;operation.ts&#45;&gt;src/parser.ts -->
<g id="edge20" class="edge">
<title>src/expressions/binary&#45;operation.ts&#45;&gt;src/parser.ts</title>
<path fill="none" stroke="#757575" d="M2040.12,-418C1945.73,-418 1826.7,-418 1826.7,-418 1826.7,-418 1826.7,-92.06 1826.7,-92.06"/>
<polygon fill="#757575" stroke="#757575" points="1830.2,-92.06 1826.7,-82.06 1823.2,-92.06 1830.2,-92.06"/>
</g>
<!-- src/expressions/operators.ts -->
<g id="node19" class="node">
<title>src/expressions/operators.ts</title>
<path fill="none" stroke="#c6c5fe" d="M2358.33,-377C2358.33,-377 2188.67,-377 2188.67,-377 2184.83,-377 2181,-373.17 2181,-369.33 2181,-369.33 2181,-361.67 2181,-361.67 2181,-357.83 2184.83,-354 2188.67,-354 2188.67,-354 2358.33,-354 2358.33,-354 2362.17,-354 2366,-357.83 2366,-361.67 2366,-361.67 2366,-369.33 2366,-369.33 2366,-373.17 2362.17,-377 2358.33,-377"/>
<text text-anchor="middle" x="2273.5" y="-361.8" font-family="Arial" font-size="14.00" fill="#c6c5fe">src/expressions/operators.ts</text>
</g>
<!-- src/expressions/binary&#45;operation.ts&#45;&gt;src/expressions/operators.ts -->
<g id="edge19" class="edge">
<title>src/expressions/binary&#45;operation.ts&#45;&gt;src/expressions/operators.ts</title>
<path fill="none" stroke="#757575" d="M2223.75,-412.84C2223.75,-412.84 2223.75,-387.13 2223.75,-387.13"/>
<polygon fill="#757575" stroke="#757575" points="2227.25,-387.13 2223.75,-377.13 2220.25,-387.13 2227.25,-387.13"/>
</g>
<!-- src/expressions/grouped&#45;expressions.ts&#45;&gt;src/expressions/handlers.ts -->
<g id="edge21" class="edge">
<title>src/expressions/grouped&#45;expressions.ts&#45;&gt;src/expressions/handlers.ts</title>
<path fill="none" stroke="#757575" d="M1106.69,-365C1255.63,-365 1482.25,-365 1482.25,-365 1482.25,-365 1482.25,-210.08 1482.25,-210.08"/>
<polygon fill="#757575" stroke="#757575" points="1485.75,-210.08 1482.25,-200.08 1478.75,-210.08 1485.75,-210.08"/>
</g>
<!-- src/expressions/grouped&#45;expressions.ts&#45;&gt;src/match.ts -->
<g id="edge22" class="edge">
<title>src/expressions/grouped&#45;expressions.ts&#45;&gt;src/match.ts</title>
<path fill="none" stroke="#757575" d="M854.5,-353.74C854.5,-336.4 854.5,-306 854.5,-306 854.5,-306 854.34,-306 854.34,-306"/>
<polygon fill="#757575" stroke="#757575" points="862.94,-302.5 852.94,-306 862.94,-309.5 862.94,-302.5"/>
</g>
<!-- src/expressions/grouped&#45;expressions.ts&#45;&gt;src/utils/array.ts -->
<g id="edge24" class="edge">
<title>src/expressions/grouped&#45;expressions.ts&#45;&gt;src/utils/array.ts</title>
<path fill="none" stroke="#757575" d="M858.5,-353.94C858.5,-353.94 858.5,-92.3 858.5,-92.3"/>
<polygon fill="#757575" stroke="#757575" points="862,-92.3 858.5,-82.3 855,-92.31 862,-92.3"/>
</g>
<!-- src/types/structs.ts -->
<g id="node20" class="node">
<title>src/types/structs.ts</title>
<path fill="none" stroke="#c6c5fe" d="M1262.83,-318C1262.83,-318 1150.17,-318 1150.17,-318 1146.33,-318 1142.5,-314.17 1142.5,-310.33 1142.5,-310.33 1142.5,-302.67 1142.5,-302.67 1142.5,-298.83 1146.33,-295 1150.17,-295 1150.17,-295 1262.83,-295 1262.83,-295 1266.67,-295 1270.5,-298.83 1270.5,-302.67 1270.5,-302.67 1270.5,-310.33 1270.5,-310.33 1270.5,-314.17 1266.67,-318 1262.83,-318"/>
<text text-anchor="middle" x="1206.5" y="-302.8" font-family="Arial" font-size="14.00" fill="#c6c5fe">src/types/structs.ts</text>
</g>
<!-- src/expressions/grouped&#45;expressions.ts&#45;&gt;src/types/structs.ts -->
<g id="edge23" class="edge">
<title>src/expressions/grouped&#45;expressions.ts&#45;&gt;src/types/structs.ts</title>
<path fill="none" stroke="#757575" d="M1106.61,-359C1140.6,-359 1168.1,-359 1168.1,-359 1168.1,-359 1168.1,-328.15 1168.1,-328.15"/>
<polygon fill="#757575" stroke="#757575" points="1171.6,-328.15 1168.1,-318.15 1164.6,-328.15 1171.6,-328.15"/>
</g>
<!-- src/utils/identifier&#45;utils.ts -->
<g id="node21" class="node">
<title>src/utils/identifier&#45;utils.ts</title>
<path fill="none" stroke="#cfffac" d="M838.83,-259C838.83,-259 694.17,-259 694.17,-259 690.33,-259 686.5,-255.17 686.5,-251.33 686.5,-251.33 686.5,-243.67 686.5,-243.67 686.5,-239.83 690.33,-236 694.17,-236 694.17,-236 838.83,-236 838.83,-236 842.67,-236 846.5,-239.83 846.5,-243.67 846.5,-243.67 846.5,-251.33 846.5,-251.33 846.5,-255.17 842.67,-259 838.83,-259"/>
<text text-anchor="middle" x="766.5" y="-243.8" font-family="Arial" font-size="14.00" fill="#cfffac">src/utils/identifier&#45;utils.ts</text>
</g>
<!-- src/expressions/grouped&#45;expressions.ts&#45;&gt;src/utils/identifier&#45;utils.ts -->
<g id="edge25" class="edge">
<title>src/expressions/grouped&#45;expressions.ts&#45;&gt;src/utils/identifier&#45;utils.ts</title>
<path fill="none" stroke="#757575" d="M856.5,-353.68C856.5,-324.42 856.5,-251 856.5,-251 856.5,-251 855.5,-251 855.5,-251"/>
<polygon fill="#757575" stroke="#757575" points="856.52,-247.5 846.52,-251 856.52,-254.5 856.52,-247.5"/>
</g>
<!-- src/handlers/assignment.ts -->
<g id="node22" class="node">
<title>src/handlers/assignment.ts</title>
<path fill="none" stroke="#c6c5fe" d="M1434.83,-141C1434.83,-141 1272.17,-141 1272.17,-141 1268.33,-141 1264.5,-137.17 1264.5,-133.33 1264.5,-133.33 1264.5,-125.67 1264.5,-125.67 1264.5,-121.83 1268.33,-118 1272.17,-118 1272.17,-118 1434.83,-118 1434.83,-118 1438.67,-118 1442.5,-121.83 1442.5,-125.67 1442.5,-125.67 1442.5,-133.33 1442.5,-133.33 1442.5,-137.17 1438.67,-141 1434.83,-141"/>
<text text-anchor="middle" x="1353.5" y="-125.8" font-family="Arial" font-size="14.00" fill="#c6c5fe">src/handlers/assignment.ts</text>
</g>
<!-- src/expressions/handlers.ts&#45;&gt;src/handlers/assignment.ts -->
<g id="edge26" class="edge">
<title>src/expressions/handlers.ts&#45;&gt;src/handlers/assignment.ts</title>
<path fill="none" stroke="#757575" d="M1420,-176.84C1420,-176.84 1420,-151.13 1420,-151.13"/>
<polygon fill="#757575" stroke="#757575" points="1423.5,-151.13 1420,-141.13 1416.5,-151.13 1423.5,-151.13"/>
</g>
<!-- src/types/interpreter.ts -->
<g id="node23" class="node">
<title>src/types/interpreter.ts</title>
<path fill="none" stroke="#cfffac" d="M1595.33,-82C1595.33,-82 1461.67,-82 1461.67,-82 1457.83,-82 1454,-78.17 1454,-74.33 1454,-74.33 1454,-66.67 1454,-66.67 1454,-62.83 1457.83,-59 1461.67,-59 1461.67,-59 1595.33,-59 1595.33,-59 1599.17,-59 1603,-62.83 1603,-66.67 1603,-66.67 1603,-74.33 1603,-74.33 1603,-78.17 1599.17,-82 1595.33,-82"/>
<text text-anchor="middle" x="1528.5" y="-66.8" font-family="Arial" font-size="14.00" fill="#cfffac">src/types/interpreter.ts</text>
</g>
<!-- src/expressions/handlers.ts&#45;&gt;src/types/interpreter.ts -->
<g id="edge27" class="edge">
<title>src/expressions/handlers.ts&#45;&gt;src/types/interpreter.ts</title>
<path fill="none" stroke="#757575" d="M1536.33,-176.75C1536.33,-176.75 1536.33,-92.2 1536.33,-92.2"/>
<polygon fill="#757575" stroke="#757575" points="1539.83,-92.2 1536.33,-82.2 1532.83,-92.2 1539.83,-92.2"/>
</g>
<!-- src/utils/scope&#45;helpers.ts -->
<g id="node24" class="node">
<title>src/utils/scope&#45;helpers.ts</title>
<path fill="none" stroke="#c6c5fe" d="M779.33,-141C779.33,-141 629.67,-141 629.67,-141 625.83,-141 622,-137.17 622,-133.33 622,-133.33 622,-125.67 622,-125.67 622,-121.83 625.83,-118 629.67,-118 629.67,-118 779.33,-118 779.33,-118 783.17,-118 787,-121.83 787,-125.67 787,-125.67 787,-133.33 787,-133.33 787,-137.17 783.17,-141 779.33,-141"/>
<text text-anchor="middle" x="704.5" y="-125.8" font-family="Arial" font-size="14.00" fill="#c6c5fe">src/utils/scope&#45;helpers.ts</text>
</g>
<!-- src/expressions/handlers.ts&#45;&gt;src/utils/scope&#45;helpers.ts -->
<g id="edge28" class="edge">
<title>src/expressions/handlers.ts&#45;&gt;src/utils/scope&#45;helpers.ts</title>
<path fill="none" stroke="#757575" d="M1397.32,-180C1197.84,-180 736.75,-180 736.75,-180 736.75,-180 736.75,-151.21 736.75,-151.21"/>
<polygon fill="#757575" stroke="#757575" points="740.25,-151.21 736.75,-141.21 733.25,-151.21 740.25,-151.21"/>
</g>
<!-- src/handlers/dereference&#45;assignment.ts&#45;&gt;src/expressions/handlers.ts -->
<g id="edge49" class="edge">
<title>src/handlers/dereference&#45;assignment.ts&#45;&gt;src/expressions/handlers.ts</title>
<path fill="none" stroke="#757575" d="M1871.39,-371C1721.8,-371 1493.5,-371 1493.5,-371 1493.5,-371 1493.5,-210.19 1493.5,-210.19"/>
<polygon fill="#757575" stroke="#757575" points="1497,-210.19 1493.5,-200.19 1490,-210.19 1497,-210.19"/>
</g>
<!-- src/handlers/dereference&#45;assignment.ts&#45;&gt;src/handlers/pointer&#45;operations.ts -->
<g id="edge50" class="edge">
<title>src/handlers/dereference&#45;assignment.ts&#45;&gt;src/handlers/pointer&#45;operations.ts</title>
<path fill="none" stroke="#757575" d="M1961.25,-353.84C1961.25,-353.84 1961.25,-328.13 1961.25,-328.13"/>
<polygon fill="#757575" stroke="#757575" points="1964.75,-328.13 1961.25,-318.13 1957.75,-328.13 1964.75,-328.13"/>
</g>
<!-- src/functions.ts -->
<g id="node30" class="node">
<title>src/functions.ts</title>
<path fill="none" stroke="#c6c5fe" d="M525.33,-377C525.33,-377 433.67,-377 433.67,-377 429.83,-377 426,-373.17 426,-369.33 426,-369.33 426,-361.67 426,-361.67 426,-357.83 429.83,-354 433.67,-354 433.67,-354 525.33,-354 525.33,-354 529.17,-354 533,-357.83 533,-361.67 533,-361.67 533,-369.33 533,-369.33 533,-373.17 529.17,-377 525.33,-377"/>
<text text-anchor="middle" x="479.5" y="-361.8" font-family="Arial" font-size="14.00" fill="#c6c5fe">src/functions.ts</text>
</g>
<!-- src/handlers/lambda&#45;expressions.ts&#45;&gt;src/functions.ts -->
<g id="edge55" class="edge">
<title>src/handlers/lambda&#45;expressions.ts&#45;&gt;src/functions.ts</title>
<path fill="none" stroke="#757575" d="M447.4,-412.84C447.4,-412.84 447.4,-387.13 447.4,-387.13"/>
<polygon fill="#757575" stroke="#757575" points="450.9,-387.13 447.4,-377.13 443.9,-387.13 450.9,-387.13"/>
</g>
<!-- src/handlers/anonymous&#45;functions.ts -->
<g id="node31" class="node">
<title>src/handlers/anonymous&#45;functions.ts</title>
<path fill="none" stroke="#c6c5fe" d="M302.33,-318C302.33,-318 80.67,-318 80.67,-318 76.83,-318 73,-314.17 73,-310.33 73,-310.33 73,-302.67 73,-302.67 73,-298.83 76.83,-295 80.67,-295 80.67,-295 302.33,-295 302.33,-295 306.17,-295 310,-298.83 310,-302.67 310,-302.67 310,-310.33 310,-310.33 310,-314.17 306.17,-318 302.33,-318"/>
<text text-anchor="middle" x="191.5" y="-302.8" font-family="Arial" font-size="14.00" fill="#c6c5fe">src/handlers/anonymous&#45;functions.ts</text>
</g>
<!-- src/handlers/lambda&#45;expressions.ts&#45;&gt;src/handlers/anonymous&#45;functions.ts -->
<g id="edge56" class="edge">
<title>src/handlers/lambda&#45;expressions.ts&#45;&gt;src/handlers/anonymous&#45;functions.ts</title>
<path fill="none" stroke="#757575" d="M355.83,-412.7C355.83,-382.73 355.83,-306 355.83,-306 355.83,-306 320.06,-306 320.06,-306"/>
<polygon fill="#757575" stroke="#757575" points="320.06,-302.5 310.06,-306 320.06,-309.5 320.06,-302.5"/>
</g>
<!-- src/handlers/module&#45;access.ts&#45;&gt;src/expressions/handlers.ts -->
<g id="edge60" class="edge">
<title>src/handlers/module&#45;access.ts&#45;&gt;src/expressions/handlers.ts</title>
<path fill="none" stroke="#757575" d="M654.25,-354C654.25,-314.38 654.25,-186 654.25,-186 654.25,-186 1387.14,-186 1387.14,-186"/>
<polygon fill="#757575" stroke="#757575" points="1387.14,-189.5 1397.14,-186 1387.14,-182.5 1387.14,-189.5"/>
</g>
<!-- src/handlers/module&#45;access.ts&#45;&gt;src/utils/identifier&#45;utils.ts -->
<g id="edge62" class="edge">
<title>src/handlers/module&#45;access.ts&#45;&gt;src/utils/identifier&#45;utils.ts</title>
<path fill="none" stroke="#757575" d="M740.5,-353.75C740.5,-353.75 740.5,-269.2 740.5,-269.2"/>
<polygon fill="#757575" stroke="#757575" points="744,-269.2 740.5,-259.2 737,-269.2 744,-269.2"/>
</g>
<!-- src/types/modules.ts -->
<g id="node36" class="node">
<title>src/types/modules.ts</title>
<path fill="none" stroke="#c6c5fe" d="M1116.83,-318C1116.83,-318 992.17,-318 992.17,-318 988.33,-318 984.5,-314.17 984.5,-310.33 984.5,-310.33 984.5,-302.67 984.5,-302.67 984.5,-298.83 988.33,-295 992.17,-295 992.17,-295 1116.83,-295 1116.83,-295 1120.67,-295 1124.5,-298.83 1124.5,-302.67 1124.5,-302.67 1124.5,-310.33 1124.5,-310.33 1124.5,-314.17 1120.67,-318 1116.83,-318"/>
<text text-anchor="middle" x="1054.5" y="-302.8" font-family="Arial" font-size="14.00" fill="#c6c5fe">src/types/modules.ts</text>
</g>
<!-- src/handlers/module&#45;access.ts&#45;&gt;src/types/modules.ts -->
<g id="edge61" class="edge">
<title>src/handlers/module&#45;access.ts&#45;&gt;src/types/modules.ts</title>
<path fill="none" stroke="#757575" d="M722.5,-353.88C722.5,-343.52 722.5,-330 722.5,-330 722.5,-330 1045.5,-330 1045.5,-330 1045.5,-330 1045.5,-328.25 1045.5,-328.25"/>
<polygon fill="#757575" stroke="#757575" points="1049,-328.25 1045.5,-318.25 1042,-328.25 1049,-328.25"/>
</g>
<!-- src/handlers/pointer&#45;operations.ts&#45;&gt;src/utils/identifier&#45;utils.ts -->
<g id="edge63" class="edge">
<title>src/handlers/pointer&#45;operations.ts&#45;&gt;src/utils/identifier&#45;utils.ts</title>
<path fill="none" stroke="#757575" d="M1860.75,-294.57C1860.75,-282.62 1860.75,-266 1860.75,-266 1860.75,-266 818.5,-266 818.5,-266 818.5,-266 818.5,-265.33 818.5,-265.33"/>
<polygon fill="#757575" stroke="#757575" points="822,-269.32 818.5,-259.32 815,-269.32 822,-269.32"/>
</g>
<!-- src/loops/for.ts&#45;&gt;src/loops/loop.ts -->
<g id="edge65" class="edge">
<title>src/loops/for.ts&#45;&gt;src/loops/loop.ts</title>
<path fill="none" stroke="#757575" d="M2576.8,-483C2618.69,-483 2670.5,-483 2670.5,-483 2670.5,-483 2670.5,-446.06 2670.5,-446.06"/>
<polygon fill="#757575" stroke="#757575" points="2674,-446.06 2670.5,-436.06 2667,-446.06 2674,-446.06"/>
</g>
<!-- src/loops/helpers.ts -->
<g id="node37" class="node">
<title>src/loops/helpers.ts</title>
<path fill="none" stroke="#cfffac" d="M2587.33,-436C2587.33,-436 2469.67,-436 2469.67,-436 2465.83,-436 2462,-432.17 2462,-428.33 2462,-428.33 2462,-420.67 2462,-420.67 2462,-416.83 2465.83,-413 2469.67,-413 2469.67,-413 2587.33,-413 2587.33,-413 2591.17,-413 2595,-416.83 2595,-420.67 2595,-420.67 2595,-428.33 2595,-428.33 2595,-432.17 2591.17,-436 2587.33,-436"/>
<text text-anchor="middle" x="2528.5" y="-420.8" font-family="Arial" font-size="14.00" fill="#cfffac">src/loops/helpers.ts</text>
</g>
<!-- src/loops/for.ts&#45;&gt;src/loops/helpers.ts -->
<g id="edge64" class="edge">
<title>src/loops/for.ts&#45;&gt;src/loops/helpers.ts</title>
<path fill="none" stroke="#757575" d="M2524.5,-471.84C2524.5,-471.84 2524.5,-446.13 2524.5,-446.13"/>
<polygon fill="#757575" stroke="#757575" points="2528,-446.13 2524.5,-436.13 2521,-446.13 2528,-446.13"/>
</g>
<!-- src/loops/types.ts -->
<g id="node38" class="node">
<title>src/loops/types.ts</title>
<path fill="none" stroke="#c6c5fe" d="M2436.33,-436C2436.33,-436 2330.67,-436 2330.67,-436 2326.83,-436 2323,-432.17 2323,-428.33 2323,-428.33 2323,-420.67 2323,-420.67 2323,-416.83 2326.83,-413 2330.67,-413 2330.67,-413 2436.33,-413 2436.33,-413 2440.17,-413 2444,-416.83 2444,-420.67 2444,-420.67 2444,-428.33 2444,-428.33 2444,-432.17 2440.17,-436 2436.33,-436"/>
<text text-anchor="middle" x="2383.5" y="-420.8" font-family="Arial" font-size="14.00" fill="#c6c5fe">src/loops/types.ts</text>
</g>
<!-- src/loops/for.ts&#45;&gt;src/loops/types.ts -->
<g id="edge66" class="edge">
<title>src/loops/for.ts&#45;&gt;src/loops/types.ts</title>
<path fill="none" stroke="#757575" d="M2472.16,-479C2462.04,-479 2454.5,-479 2454.5,-479 2454.5,-479 2454.5,-424 2454.5,-424 2454.5,-424 2453.45,-424 2453.45,-424"/>
<polygon fill="#757575" stroke="#757575" points="2454.02,-420.5 2444.02,-424 2454.02,-427.5 2454.02,-420.5"/>
</g>
<!-- src/loops/while.ts&#45;&gt;src/loops/loop.ts -->
<g id="edge69" class="edge">
<title>src/loops/while.ts&#45;&gt;src/loops/loop.ts</title>
<path fill="none" stroke="#757575" d="M2405.33,-471.74C2405.33,-460.42 2405.33,-445 2405.33,-445 2405.33,-445 2642,-445 2642,-445 2642,-445 2642,-444.12 2642,-444.12"/>
<polygon fill="#757575" stroke="#757575" points="2645.5,-446.19 2642,-436.19 2638.5,-446.19 2645.5,-446.19"/>
</g>
<!-- src/loops/while.ts&#45;&gt;src/loops/helpers.ts -->
<g id="edge68" class="edge">
<title>src/loops/while.ts&#45;&gt;src/loops/helpers.ts</title>
<path fill="none" stroke="#757575" d="M2447.13,-487C2458.66,-487 2467.25,-487 2467.25,-487 2467.25,-487 2467.25,-446.26 2467.25,-446.26"/>
<polygon fill="#757575" stroke="#757575" points="2470.75,-446.26 2467.25,-436.26 2463.75,-446.26 2470.75,-446.26"/>
</g>
<!-- src/loops/while.ts&#45;&gt;src/loops/types.ts -->
<g id="edge70" class="edge">
<title>src/loops/while.ts&#45;&gt;src/loops/types.ts</title>
<path fill="none" stroke="#757575" d="M2366.67,-471.84C2366.67,-471.84 2366.67,-446.13 2366.67,-446.13"/>
<polygon fill="#757575" stroke="#757575" points="2370.17,-446.13 2366.67,-436.13 2363.17,-446.13 2370.17,-446.13"/>
</g>
<!-- src/type&#45;utils.ts -->
<g id="node27" class="node">
<title>src/type&#45;utils.ts</title>
<path fill="none" stroke="#cfffac" d="M570.33,-23C570.33,-23 478.67,-23 478.67,-23 474.83,-23 471,-19.17 471,-15.33 471,-15.33 471,-7.67 471,-7.67 471,-3.83 474.83,0 478.67,0 478.67,0 570.33,0 570.33,0 574.17,0 578,-3.83 578,-7.67 578,-7.67 578,-15.33 578,-15.33 578,-19.17 574.17,-23 570.33,-23"/>
<text text-anchor="middle" x="524.5" y="-7.8" font-family="Arial" font-size="14.00" fill="#cfffac">src/type&#45;utils.ts</text>
</g>
<!-- src/parser.ts&#45;&gt;src/type&#45;utils.ts -->
<g id="edge71" class="edge">
<title>src/parser.ts&#45;&gt;src/type&#45;utils.ts</title>
<path fill="none" stroke="#757575" d="M1842.5,-58.73C1842.5,-42.44 1842.5,-15 1842.5,-15 1842.5,-15 588.21,-15 588.21,-15"/>
<polygon fill="#757575" stroke="#757575" points="588.21,-11.5 578.21,-15 588.21,-18.5 588.21,-11.5"/>
</g>
<!-- src/scope.ts&#45;&gt;src/expressions/handlers.ts -->
<g id="edge72" class="edge">
<title>src/scope.ts&#45;&gt;src/expressions/handlers.ts</title>
<path fill="none" stroke="#757575" d="M52.14,-471.72C52.14,-416.16 52.14,-183 52.14,-183 52.14,-183 1387.44,-183 1387.44,-183"/>
<polygon fill="#757575" stroke="#757575" points="1387.44,-186.5 1397.44,-183 1387.44,-179.5 1387.44,-186.5"/>
</g>
<!-- src/scope.ts&#45;&gt;src/handlers/lambda&#45;expressions.ts -->
<g id="edge75" class="edge">
<title>src/scope.ts&#45;&gt;src/handlers/lambda&#45;expressions.ts</title>
<path fill="none" stroke="#757575" d="M89.15,-487C190.09,-487 427.17,-487 427.17,-487 427.17,-487 427.17,-446.26 427.17,-446.26"/>
<polygon fill="#757575" stroke="#757575" points="430.67,-446.26 427.17,-436.26 423.67,-446.26 430.67,-446.26"/>
</g>
<!-- src/scope.ts&#45;&gt;src/parser.ts -->
<g id="edge76" class="edge">
<title>src/scope.ts&#45;&gt;src/parser.ts</title>
<path fill="none" stroke="#757575" d="M83.67,-471.81C83.67,-467.21 83.67,-463 83.67,-463 83.67,-463 1812.1,-463 1812.1,-463 1812.1,-463 1812.1,-92.25 1812.1,-92.25"/>
<polygon fill="#757575" stroke="#757575" points="1815.6,-92.25 1812.1,-82.25 1808.6,-92.25 1815.6,-92.25"/>
</g>
<!-- src/scope.ts&#45;&gt;src/utils/array.ts -->
<g id="edge77" class="edge">
<title>src/scope.ts&#45;&gt;src/utils/array.ts</title>
<path fill="none" stroke="#757575" d="M31.29,-471.84C31.29,-407.04 31.29,-94 31.29,-94 31.29,-94 764.12,-94 764.12,-94 764.12,-94 764.12,-92.25 764.12,-92.25"/>
<polygon fill="#757575" stroke="#757575" points="767.63,-92.25 764.12,-82.25 760.63,-92.25 767.63,-92.25"/>
</g>
<!-- src/scope.ts&#45;&gt;src/utils/scope&#45;helpers.ts -->
<g id="edge79" class="edge">
<title>src/scope.ts&#45;&gt;src/utils/scope&#45;helpers.ts</title>
<path fill="none" stroke="#757575" d="M41.71,-471.9C41.71,-411.43 41.71,-135 41.71,-135 41.71,-135 611.9,-135 611.9,-135"/>
<polygon fill="#757575" stroke="#757575" points="611.9,-138.5 621.9,-135 611.9,-131.5 611.9,-138.5"/>
</g>
<!-- src/function&#45;type&#45;handler.ts -->
<g id="node29" class="node">
<title>src/function&#45;type&#45;handler.ts</title>
<path fill="none" stroke="#c6c5fe" d="M244.33,-436C244.33,-436 80.67,-436 80.67,-436 76.83,-436 73,-432.17 73,-428.33 73,-428.33 73,-420.67 73,-420.67 73,-416.83 76.83,-413 80.67,-413 80.67,-413 244.33,-413 244.33,-413 248.17,-413 252,-416.83 252,-420.67 252,-420.67 252,-428.33 252,-428.33 252,-432.17 248.17,-436 244.33,-436"/>
<text text-anchor="middle" x="162.5" y="-420.8" font-family="Arial" font-size="14.00" fill="#c6c5fe">src/function&#45;type&#45;handler.ts</text>
</g>
<!-- src/scope.ts&#45;&gt;src/function&#45;type&#45;handler.ts -->
<g id="edge73" class="edge">
<title>src/scope.ts&#45;&gt;src/function&#45;type&#45;handler.ts</title>
<path fill="none" stroke="#757575" d="M78.33,-471.84C78.33,-471.84 78.33,-446.13 78.33,-446.13"/>
<polygon fill="#757575" stroke="#757575" points="81.83,-446.13 78.33,-436.13 74.83,-446.13 81.83,-446.13"/>
</g>
<!-- src/scope.ts&#45;&gt;src/functions.ts -->
<g id="edge74" class="edge">
<title>src/scope.ts&#45;&gt;src/functions.ts</title>
<path fill="none" stroke="#757575" d="M62.57,-471.9C62.57,-442.44 62.57,-367 62.57,-367 62.57,-367 415.85,-367 415.85,-367"/>
<polygon fill="#757575" stroke="#757575" points="415.85,-370.5 425.85,-367 415.85,-363.5 415.85,-370.5"/>
</g>
<!-- src/utils/function&#45;utils.ts -->
<g id="node34" class="node">
<title>src/utils/function&#45;utils.ts</title>
<path fill="none" stroke="#c6c5fe" d="M412.83,-82C412.83,-82 272.17,-82 272.17,-82 268.33,-82 264.5,-78.17 264.5,-74.33 264.5,-74.33 264.5,-66.67 264.5,-66.67 264.5,-62.83 268.33,-59 272.17,-59 272.17,-59 412.83,-59 412.83,-59 416.67,-59 420.5,-62.83 420.5,-66.67 420.5,-66.67 420.5,-74.33 420.5,-74.33 420.5,-78.17 416.67,-82 412.83,-82"/>
<text text-anchor="middle" x="342.5" y="-66.8" font-family="Arial" font-size="14.00" fill="#c6c5fe">src/utils/function&#45;utils.ts</text>
</g>
<!-- src/scope.ts&#45;&gt;src/utils/function&#45;utils.ts -->
<g id="edge78" class="edge">
<title>src/scope.ts&#45;&gt;src/utils/function&#45;utils.ts</title>
<path fill="none" stroke="#757575" d="M20.86,-471.57C20.86,-403.77 20.86,-70 20.86,-70 20.86,-70 254.23,-70 254.23,-70"/>
<polygon fill="#757575" stroke="#757575" points="254.23,-73.5 264.23,-70 254.23,-66.5 254.23,-73.5"/>
</g>
<!-- src/utils/app&#45;handlers.ts&#45;&gt;src/expressions/handlers.ts -->
<g id="edge87" class="edge">
<title>src/utils/app&#45;handlers.ts&#45;&gt;src/expressions/handlers.ts</title>
<path fill="none" stroke="#757575" d="M1484.5,-471.94C1484.5,-471.94 1484.5,-210.3 1484.5,-210.3"/>
<polygon fill="#757575" stroke="#757575" points="1488,-210.3 1484.5,-200.3 1481,-210.31 1488,-210.3"/>
</g>
<!-- src/utils/app&#45;handlers.ts&#45;&gt;src/types/structs.ts -->
<g id="edge92" class="edge">
<title>src/utils/app&#45;handlers.ts&#45;&gt;src/types/structs.ts</title>
<path fill="none" stroke="#757575" d="M1427.6,-471.93C1427.6,-446.11 1427.6,-386 1427.6,-386 1427.6,-386 1219.3,-386 1219.3,-386 1219.3,-386 1219.3,-328.23 1219.3,-328.23"/>
<polygon fill="#757575" stroke="#757575" points="1222.8,-328.23 1219.3,-318.23 1215.8,-328.23 1222.8,-328.23"/>
</g>
<!-- src/expressions/unary&#45;operation.ts -->
<g id="node28" class="node">
<title>src/expressions/unary&#45;operation.ts</title>
<path fill="none" stroke="#c6c5fe" d="M1769.33,-259C1769.33,-259 1561.67,-259 1561.67,-259 1557.83,-259 1554,-255.17 1554,-251.33 1554,-251.33 1554,-243.67 1554,-243.67 1554,-239.83 1557.83,-236 1561.67,-236 1561.67,-236 1769.33,-236 1769.33,-236 1773.17,-236 1777,-239.83 1777,-243.67 1777,-243.67 1777,-251.33 1777,-251.33 1777,-255.17 1773.17,-259 1769.33,-259"/>
<text text-anchor="middle" x="1665.5" y="-243.8" font-family="Arial" font-size="14.00" fill="#c6c5fe">src/expressions/unary&#45;operation.ts</text>
</g>
<!-- src/utils/app&#45;handlers.ts&#45;&gt;src/expressions/unary&#45;operation.ts -->
<g id="edge88" class="edge">
<title>src/utils/app&#45;handlers.ts&#45;&gt;src/expressions/unary&#45;operation.ts</title>
<path fill="none" stroke="#757575" d="M1495.75,-471.75C1495.75,-424.78 1495.75,-253 1495.75,-253 1495.75,-253 1543.69,-253 1543.69,-253"/>
<polygon fill="#757575" stroke="#757575" points="1543.69,-256.5 1553.69,-253 1543.69,-249.5 1543.69,-256.5"/>
</g>
<!-- src/utils/app&#45;handlers.ts&#45;&gt;src/functions.ts -->
<g id="edge89" class="edge">
<title>src/utils/app&#45;handlers.ts&#45;&gt;src/functions.ts</title>
<path fill="none" stroke="#757575" d="M1375.2,-471.93C1375.2,-447.94 1375.2,-395 1375.2,-395 1375.2,-395 511.6,-395 511.6,-395 511.6,-395 511.6,-387.16 511.6,-387.16"/>
<polygon fill="#757575" stroke="#757575" points="515.1,-387.16 511.6,-377.16 508.1,-387.16 515.1,-387.16"/>
</g>
<!-- src/utils/function&#45;call&#45;params.ts -->
<g id="node33" class="node">
<title>src/utils/function&#45;call&#45;params.ts</title>
<path fill="none" stroke="#c6c5fe" d="M1693.33,-318C1693.33,-318 1505.67,-318 1505.67,-318 1501.83,-318 1498,-314.17 1498,-310.33 1498,-310.33 1498,-302.67 1498,-302.67 1498,-298.83 1501.83,-295 1505.67,-295 1505.67,-295 1693.33,-295 1693.33,-295 1697.17,-295 1701,-298.83 1701,-302.67 1701,-302.67 1701,-310.33 1701,-310.33 1701,-314.17 1697.17,-318 1693.33,-318"/>
<text text-anchor="middle" x="1599.5" y="-302.8" font-family="Arial" font-size="14.00" fill="#c6c5fe">src/utils/function&#45;call&#45;params.ts</text>
</g>
<!-- src/utils/app&#45;handlers.ts&#45;&gt;src/utils/function&#45;call&#45;params.ts -->
<g id="edge94" class="edge">
<title>src/utils/app&#45;handlers.ts&#45;&gt;src/utils/function&#45;call&#45;params.ts</title>
<path fill="none" stroke="#757575" d="M1504.67,-471.89C1504.67,-471.89 1504.67,-328.39 1504.67,-328.39"/>
<polygon fill="#757575" stroke="#757575" points="1508.17,-328.39 1504.67,-318.39 1501.17,-328.39 1508.17,-328.39"/>
</g>
<!-- src/handlers/method&#45;call.ts -->
<g id="node35" class="node">
<title>src/handlers/method&#45;call.ts</title>
<path fill="none" stroke="#c6c5fe" d="M1278.33,-436C1278.33,-436 1114.67,-436 1114.67,-436 1110.83,-436 1107,-432.17 1107,-428.33 1107,-428.33 1107,-420.67 1107,-420.67 1107,-416.83 1110.83,-413 1114.67,-413 1114.67,-413 1278.33,-413 1278.33,-413 1282.17,-413 1286,-416.83 1286,-420.67 1286,-420.67 1286,-428.33 1286,-428.33 1286,-432.17 1282.17,-436 1278.33,-436"/>
<text text-anchor="middle" x="1196.5" y="-420.8" font-family="Arial" font-size="14.00" fill="#c6c5fe">src/handlers/method&#45;call.ts</text>
</g>
<!-- src/utils/app&#45;handlers.ts&#45;&gt;src/handlers/method&#45;call.ts -->
<g id="edge90" class="edge">
<title>src/utils/app&#45;handlers.ts&#45;&gt;src/handlers/method&#45;call.ts</title>
<path fill="none" stroke="#757575" d="M1348.97,-479C1308.81,-479 1268.5,-479 1268.5,-479 1268.5,-479 1268.5,-446.06 1268.5,-446.06"/>
<polygon fill="#757575" stroke="#757575" points="1272,-446.06 1268.5,-436.06 1265,-446.06 1272,-446.06"/>
</g>
<!-- src/utils/app&#45;handlers.ts&#45;&gt;src/types/modules.ts -->
<g id="edge91" class="edge">
<title>src/utils/app&#45;handlers.ts&#45;&gt;src/types/modules.ts</title>
<path fill="none" stroke="#757575" d="M1401.4,-471.66C1401.4,-446.5 1401.4,-390 1401.4,-390 1401.4,-390 1118.67,-390 1118.67,-390 1118.67,-390 1118.67,-328.11 1118.67,-328.11"/>
<polygon fill="#757575" stroke="#757575" points="1122.17,-328.11 1118.67,-318.11 1115.17,-328.11 1122.17,-328.11"/>
</g>
<!-- src/types/type&#45;declarations.ts -->
<g id="node39" class="node">
<title>src/types/type&#45;declarations.ts</title>
<path fill="none" stroke="#c6c5fe" d="M1472.33,-318C1472.33,-318 1296.67,-318 1296.67,-318 1292.83,-318 1289,-314.17 1289,-310.33 1289,-310.33 1289,-302.67 1289,-302.67 1289,-298.83 1292.83,-295 1296.67,-295 1296.67,-295 1472.33,-295 1472.33,-295 1476.17,-295 1480,-298.83 1480,-302.67 1480,-302.67 1480,-310.33 1480,-310.33 1480,-314.17 1476.17,-318 1472.33,-318"/>
<text text-anchor="middle" x="1384.5" y="-302.8" font-family="Arial" font-size="14.00" fill="#c6c5fe">src/types/type&#45;declarations.ts</text>
</g>
<!-- src/utils/app&#45;handlers.ts&#45;&gt;src/types/type&#45;declarations.ts -->
<g id="edge93" class="edge">
<title>src/utils/app&#45;handlers.ts&#45;&gt;src/types/type&#45;declarations.ts</title>
<path fill="none" stroke="#757575" d="M1453.8,-471.89C1453.8,-471.89 1453.8,-328.39 1453.8,-328.39"/>
<polygon fill="#757575" stroke="#757575" points="1457.3,-328.39 1453.8,-318.39 1450.3,-328.39 1457.3,-328.39"/>
</g>
<!-- src/utils/this&#45;keyword.ts&#45;&gt;src/types/structs.ts -->
<g id="edge103" class="edge">
<title>src/utils/this&#45;keyword.ts&#45;&gt;src/types/structs.ts</title>
<path fill="none" stroke="#757575" d="M1036.5,-412.61C1036.5,-399.73 1036.5,-381 1036.5,-381 1036.5,-381 1193.7,-381 1193.7,-381 1193.7,-381 1193.7,-328.14 1193.7,-328.14"/>
<polygon fill="#757575" stroke="#757575" points="1197.2,-328.14 1193.7,-318.14 1190.2,-328.14 1197.2,-328.14"/>
</g>
<!-- src/utils/this&#45;keyword.ts&#45;&gt;src/functions.ts -->
<g id="edge102" class="edge">
<title>src/utils/this&#45;keyword.ts&#45;&gt;src/functions.ts</title>
<path fill="none" stroke="#757575" d="M984.5,-412.81C984.5,-408.21 984.5,-404 984.5,-404 984.5,-404 468.8,-404 468.8,-404 468.8,-404 468.8,-387.26 468.8,-387.26"/>
<polygon fill="#757575" stroke="#757575" points="472.3,-387.26 468.8,-377.26 465.3,-387.26 472.3,-387.26"/>
</g>
<!-- src/declarations.ts -->
<g id="node18" class="node">
<title>src/declarations.ts</title>
<path fill="none" stroke="#c6c5fe" d="M1200.33,-259C1200.33,-259 1090.67,-259 1090.67,-259 1086.83,-259 1083,-255.17 1083,-251.33 1083,-251.33 1083,-243.67 1083,-243.67 1083,-239.83 1086.83,-236 1090.67,-236 1090.67,-236 1200.33,-236 1200.33,-236 1204.17,-236 1208,-239.83 1208,-243.67 1208,-243.67 1208,-251.33 1208,-251.33 1208,-255.17 1204.17,-259 1200.33,-259"/>
<text text-anchor="middle" x="1145.5" y="-243.8" font-family="Arial" font-size="14.00" fill="#c6c5fe">src/declarations.ts</text>
</g>
<!-- src/declarations.ts&#45;&gt;src/expressions/handlers.ts -->
<g id="edge17" class="edge">
<title>src/declarations.ts&#45;&gt;src/expressions/handlers.ts</title>
<path fill="none" stroke="#757575" d="M1208.05,-241C1294.17,-241 1438.75,-241 1438.75,-241 1438.75,-241 1438.75,-210.15 1438.75,-210.15"/>
<polygon fill="#757575" stroke="#757575" points="1442.25,-210.15 1438.75,-200.15 1435.25,-210.15 1442.25,-210.15"/>
</g>
<!-- src/expressions/operators.ts&#45;&gt;src/handlers/pointer&#45;operations.ts -->
<g id="edge31" class="edge">
<title>src/expressions/operators.ts&#45;&gt;src/handlers/pointer&#45;operations.ts</title>
<path fill="none" stroke="#757575" d="M2194.5,-353.74C2194.5,-336.4 2194.5,-306 2194.5,-306 2194.5,-306 2061.2,-306 2061.2,-306"/>
<polygon fill="#757575" stroke="#757575" points="2061.2,-302.5 2051.2,-306 2061.2,-309.5 2061.2,-302.5"/>
</g>
<!-- src/expressions/operators.ts&#45;&gt;src/parser.ts -->
<g id="edge32" class="edge">
<title>src/expressions/operators.ts&#45;&gt;src/parser.ts</title>
<path fill="none" stroke="#757575" d="M2208,-353.92C2208,-299.28 2208,-70 2208,-70 2208,-70 1897.68,-70 1897.68,-70"/>
<polygon fill="#757575" stroke="#757575" points="1897.68,-66.5 1887.68,-70 1897.68,-73.5 1897.68,-66.5"/>
</g>
<!-- src/expressions/operators.ts&#45;&gt;src/utils/array.ts -->
<g id="edge35" class="edge">
<title>src/expressions/operators.ts&#45;&gt;src/utils/array.ts</title>
<path fill="none" stroke="#757575" d="M2201.25,-353.93C2201.25,-319.15 2201.25,-218 2201.25,-218 2201.25,-218 862.5,-218 862.5,-218 862.5,-218 862.5,-92.07 862.5,-92.07"/>
<polygon fill="#757575" stroke="#757575" points="866,-92.07 862.5,-82.07 859,-92.07 866,-92.07"/>
</g>
<!-- src/expressions/operators.ts&#45;&gt;src/types/structs.ts -->
<g id="edge34" class="edge">
<title>src/expressions/operators.ts&#45;&gt;src/types/structs.ts</title>
<path fill="none" stroke="#757575" d="M2187.75,-353.84C2187.75,-345.6 2187.75,-336 2187.75,-336 2187.75,-336 1244.9,-336 1244.9,-336 1244.9,-336 1244.9,-328.16 1244.9,-328.16"/>
<polygon fill="#757575" stroke="#757575" points="1248.4,-328.16 1244.9,-318.16 1241.4,-328.16 1248.4,-328.16"/>
</g>
<!-- src/expressions/operator&#45;finder.ts -->
<g id="node25" class="node">
<title>src/expressions/operator&#45;finder.ts</title>
<path fill="none" stroke="#c6c5fe" d="M2429.83,-318C2429.83,-318 2229.17,-318 2229.17,-318 2225.33,-318 2221.5,-314.17 2221.5,-310.33 2221.5,-310.33 2221.5,-302.67 2221.5,-302.67 2221.5,-298.83 2225.33,-295 2229.17,-295 2229.17,-295 2429.83,-295 2429.83,-295 2433.67,-295 2437.5,-298.83 2437.5,-302.67 2437.5,-302.67 2437.5,-310.33 2437.5,-310.33 2437.5,-314.17 2433.67,-318 2429.83,-318"/>
<text text-anchor="middle" x="2329.5" y="-302.8" font-family="Arial" font-size="14.00" fill="#c6c5fe">src/expressions/operator&#45;finder.ts</text>
</g>
<!-- src/expressions/operators.ts&#45;&gt;src/expressions/operator&#45;finder.ts -->
<g id="edge30" class="edge">
<title>src/expressions/operators.ts&#45;&gt;src/expressions/operator&#45;finder.ts</title>
<path fill="none" stroke="#757575" d="M2293.75,-353.84C2293.75,-353.84 2293.75,-328.13 2293.75,-328.13"/>
<polygon fill="#757575" stroke="#757575" points="2297.25,-328.13 2293.75,-318.13 2290.25,-328.13 2297.25,-328.13"/>
</g>
<!-- src/expressions/operators.ts&#45;&gt;src/type&#45;utils.ts -->
<g id="edge33" class="edge">
<title>src/expressions/operators.ts&#45;&gt;src/type&#45;utils.ts</title>
<path fill="none" stroke="#757575" d="M2214.75,-353.98C2214.75,-292.62 2214.75,-7 2214.75,-7 2214.75,-7 588.35,-7 588.35,-7"/>
<polygon fill="#757575" stroke="#757575" points="588.35,-3.5 578.35,-7 588.35,-10.5 588.35,-3.5"/>
</g>
<!-- src/types/structs.ts&#45;&gt;src/expressions/handlers.ts -->
<g id="edge84" class="edge">
<title>src/types/structs.ts&#45;&gt;src/expressions/handlers.ts</title>
<path fill="none" stroke="#757575" d="M1236.25,-294.78C1236.25,-265.78 1236.25,-193 1236.25,-193 1236.25,-193 1387.15,-193 1387.15,-193"/>
<polygon fill="#757575" stroke="#757575" points="1387.15,-196.5 1397.15,-193 1387.15,-189.5 1387.15,-196.5"/>
</g>
<!-- src/types/structs.ts&#45;&gt;src/declarations.ts -->
<g id="edge83" class="edge">
<title>src/types/structs.ts&#45;&gt;src/declarations.ts</title>
<path fill="none" stroke="#757575" d="M1175.25,-294.84C1175.25,-294.84 1175.25,-269.13 1175.25,-269.13"/>
<polygon fill="#757575" stroke="#757575" points="1178.75,-269.13 1175.25,-259.13 1171.75,-269.13 1178.75,-269.13"/>
</g>
<!-- src/handlers/assignment.ts&#45;&gt;src/utils/array.ts -->
<g id="edge48" class="edge">
<title>src/handlers/assignment.ts&#45;&gt;src/utils/array.ts</title>
<path fill="none" stroke="#757575" d="M1264.38,-129C1123.33,-129 864.5,-129 864.5,-129 864.5,-129 864.5,-92.06 864.5,-92.06"/>
<polygon fill="#757575" stroke="#757575" points="868,-92.06 864.5,-82.06 861,-92.06 868,-92.06"/>
</g>
<!-- src/handlers/assignment.ts&#45;&gt;src/types/interpreter.ts -->
<g id="edge47" class="edge">
<title>src/handlers/assignment.ts&#45;&gt;src/types/interpreter.ts</title>
<path fill="none" stroke="#757575" d="M1442.82,-129C1471.11,-129 1495.17,-129 1495.17,-129 1495.17,-129 1495.17,-92.06 1495.17,-92.06"/>
<polygon fill="#757575" stroke="#757575" points="1498.67,-92.06 1495.17,-82.06 1491.67,-92.06 1498.67,-92.06"/>
</g>
<!-- src/utils/scope&#45;helpers.ts&#45;&gt;src/parser.ts -->
<g id="edge98" class="edge">
<title>src/utils/scope&#45;helpers.ts&#45;&gt;src/parser.ts</title>
<path fill="none" stroke="#757575" d="M779.38,-117.75C779.38,-111.88 779.38,-106 779.38,-106 779.38,-106 1804.8,-106 1804.8,-106 1804.8,-106 1804.8,-92.12 1804.8,-92.12"/>
<polygon fill="#757575" stroke="#757575" points="1808.3,-92.12 1804.8,-82.12 1801.3,-92.12 1808.3,-92.12"/>
</g>
<!-- src/utils/scope&#45;helpers.ts&#45;&gt;src/utils/array.ts -->
<g id="edge100" class="edge">
<title>src/utils/scope&#45;helpers.ts&#45;&gt;src/utils/array.ts</title>
<path fill="none" stroke="#757575" d="M771.75,-117.84C771.75,-117.84 771.75,-92.13 771.75,-92.13"/>
<polygon fill="#757575" stroke="#757575" points="775.25,-92.13 771.75,-82.13 768.25,-92.13 775.25,-92.13"/>
</g>
<!-- src/utils/scope&#45;helpers.ts&#45;&gt;src/type&#45;utils.ts -->
<g id="edge99" class="edge">
<title>src/utils/scope&#45;helpers.ts&#45;&gt;src/type&#45;utils.ts</title>
<path fill="none" stroke="#757575" d="M621.9,-123C588.02,-123 556.6,-123 556.6,-123 556.6,-123 556.6,-33.01 556.6,-33.01"/>
<polygon fill="#757575" stroke="#757575" points="560.1,-33.01 556.6,-23.01 553.1,-33.01 560.1,-33.01"/>
</g>
<!-- src/utils/scope&#45;helpers.ts&#45;&gt;src/utils/function&#45;utils.ts -->
<g id="edge101" class="edge">
<title>src/utils/scope&#45;helpers.ts&#45;&gt;src/utils/function&#45;utils.ts</title>
<path fill="none" stroke="#757575" d="M621.98,-129C532.56,-129 402.5,-129 402.5,-129 402.5,-129 402.5,-92.06 402.5,-92.06"/>
<polygon fill="#757575" stroke="#757575" points="406,-92.06 402.5,-82.06 399,-92.06 406,-92.06"/>
</g>
<!-- src/expressions/operator&#45;utils.ts -->
<g id="node26" class="node">
<title>src/expressions/operator&#45;utils.ts</title>
<path fill="none" stroke="#cfffac" d="M2421.33,-259C2421.33,-259 2229.67,-259 2229.67,-259 2225.83,-259 2222,-255.17 2222,-251.33 2222,-251.33 2222,-243.67 2222,-243.67 2222,-239.83 2225.83,-236 2229.67,-236 2229.67,-236 2421.33,-236 2421.33,-236 2425.17,-236 2429,-239.83 2429,-243.67 2429,-243.67 2429,-251.33 2429,-251.33 2429,-255.17 2425.17,-259 2421.33,-259"/>
<text text-anchor="middle" x="2325.5" y="-243.8" font-family="Arial" font-size="14.00" fill="#cfffac">src/expressions/operator&#45;utils.ts</text>
</g>
<!-- src/expressions/operator&#45;finder.ts&#45;&gt;src/expressions/operator&#45;utils.ts -->
<g id="edge29" class="edge">
<title>src/expressions/operator&#45;finder.ts&#45;&gt;src/expressions/operator&#45;utils.ts</title>
<path fill="none" stroke="#757575" d="M2325.5,-294.84C2325.5,-294.84 2325.5,-269.13 2325.5,-269.13"/>
<polygon fill="#757575" stroke="#757575" points="2329,-269.13 2325.5,-259.13 2322,-269.13 2329,-269.13"/>
</g>
<!-- src/expressions/unary&#45;operation.ts&#45;&gt;src/expressions/handlers.ts -->
<g id="edge36" class="edge">
<title>src/expressions/unary&#45;operation.ts&#45;&gt;src/expressions/handlers.ts</title>
<path fill="none" stroke="#757575" d="M1565.75,-235.84C1565.75,-235.84 1565.75,-210.13 1565.75,-210.13"/>
<polygon fill="#757575" stroke="#757575" points="1569.25,-210.13 1565.75,-200.13 1562.25,-210.13 1569.25,-210.13"/>
</g>
<!-- src/function&#45;type&#45;handler.ts&#45;&gt;src/type&#45;utils.ts -->
<g id="edge38" class="edge">
<title>src/function&#45;type&#45;handler.ts&#45;&gt;src/type&#45;utils.ts</title>
<path fill="none" stroke="#757575" d="M72.72,-424C39.8,-424 10.43,-424 10.43,-424 10.43,-424 10.43,-7 10.43,-7 10.43,-7 460.94,-7 460.94,-7"/>
<polygon fill="#757575" stroke="#757575" points="460.94,-10.5 470.94,-7 460.94,-3.5 460.94,-10.5"/>
</g>
<!-- src/function&#45;type&#45;handler.ts&#45;&gt;src/functions.ts -->
<g id="edge37" class="edge">
<title>src/function&#45;type&#45;handler.ts&#45;&gt;src/functions.ts</title>
<path fill="none" stroke="#757575" d="M162.5,-412.85C162.5,-397.38 162.5,-372 162.5,-372 162.5,-372 415.73,-372 415.73,-372"/>
<polygon fill="#757575" stroke="#757575" points="415.73,-375.5 425.73,-372 415.73,-368.5 415.73,-375.5"/>
</g>
<!-- src/functions.ts&#45;&gt;src/utils/identifier&#45;utils.ts -->
<g id="edge43" class="edge">
<title>src/functions.ts&#45;&gt;src/utils/identifier&#45;utils.ts</title>
<path fill="none" stroke="#757575" d="M479.5,-353.72C479.5,-341.45 479.5,-324 479.5,-324 479.5,-324 704.5,-324 704.5,-324 704.5,-324 704.5,-269.12 704.5,-269.12"/>
<polygon fill="#757575" stroke="#757575" points="708,-269.12 704.5,-259.12 701,-269.12 708,-269.12"/>
</g>
<!-- src/functions.ts&#45;&gt;src/handlers/anonymous&#45;functions.ts -->
<g id="edge39" class="edge">
<title>src/functions.ts&#45;&gt;src/handlers/anonymous&#45;functions.ts</title>
<path fill="none" stroke="#757575" d="M425.78,-363C367,-363 281,-363 281,-363 281,-363 281,-328.21 281,-328.21"/>
<polygon fill="#757575" stroke="#757575" points="284.5,-328.21 281,-318.21 277.5,-328.21 284.5,-328.21"/>
</g>
<!-- src/handlers/function&#45;declaration.ts -->
<g id="node32" class="node">
<title>src/handlers/function&#45;declaration.ts</title>
<path fill="none" stroke="#c6c5fe" d="M584.83,-318C584.83,-318 374.17,-318 374.17,-318 370.33,-318 366.5,-314.17 366.5,-310.33 366.5,-310.33 366.5,-302.67 366.5,-302.67 366.5,-298.83 370.33,-295 374.17,-295 374.17,-295 584.83,-295 584.83,-295 588.67,-295 592.5,-298.83 592.5,-302.67 592.5,-302.67 592.5,-310.33 592.5,-310.33 592.5,-314.17 588.67,-318 584.83,-318"/>
<text text-anchor="middle" x="479.5" y="-302.8" font-family="Arial" font-size="14.00" fill="#c6c5fe">src/handlers/function&#45;declaration.ts</text>
</g>
<!-- src/functions.ts&#45;&gt;src/handlers/function&#45;declaration.ts -->
<g id="edge40" class="edge">
<title>src/functions.ts&#45;&gt;src/handlers/function&#45;declaration.ts</title>
<path fill="none" stroke="#757575" d="M452.75,-353.84C452.75,-353.84 452.75,-328.13 452.75,-328.13"/>
<polygon fill="#757575" stroke="#757575" points="456.25,-328.13 452.75,-318.13 449.25,-328.13 456.25,-328.13"/>
</g>
<!-- src/functions.ts&#45;&gt;src/utils/function&#45;call&#45;params.ts -->
<g id="edge41" class="edge">
<title>src/functions.ts&#45;&gt;src/utils/function&#45;call&#45;params.ts</title>
<path fill="none" stroke="#757575" d="M506.25,-353.92C506.25,-350.67 506.25,-348 506.25,-348 506.25,-348 1501.33,-348 1501.33,-348 1501.33,-348 1501.33,-328.28 1501.33,-328.28"/>
<polygon fill="#757575" stroke="#757575" points="1504.83,-328.28 1501.33,-318.28 1497.83,-328.28 1504.83,-328.28"/>
</g>
<!-- src/functions.ts&#45;&gt;src/utils/function&#45;utils.ts -->
<g id="edge42" class="edge">
<title>src/functions.ts&#45;&gt;src/utils/function&#45;utils.ts</title>
<path fill="none" stroke="#757575" d="M425.87,-358C394.56,-358 361.17,-358 361.17,-358 361.17,-358 361.17,-92.13 361.17,-92.13"/>
<polygon fill="#757575" stroke="#757575" points="364.67,-92.13 361.17,-82.13 357.67,-92.13 364.67,-92.13"/>
</g>
<!-- src/handlers/anonymous&#45;functions.ts&#45;&gt;src/utils/identifier&#45;utils.ts -->
<g id="edge46" class="edge">
<title>src/handlers/anonymous&#45;functions.ts&#45;&gt;src/utils/identifier&#45;utils.ts</title>
<path fill="none" stroke="#757575" d="M294.83,-294.85C294.83,-276.52 294.83,-243 294.83,-243 294.83,-243 676.49,-243 676.49,-243"/>
<polygon fill="#757575" stroke="#757575" points="676.49,-246.5 686.49,-243 676.49,-239.5 676.49,-246.5"/>
</g>
<!-- src/handlers/anonymous&#45;functions.ts&#45;&gt;src/type&#45;utils.ts -->
<g id="edge44" class="edge">
<title>src/handlers/anonymous&#45;functions.ts&#45;&gt;src/type&#45;utils.ts</title>
<path fill="none" stroke="#757575" d="M168.75,-294.71C168.75,-240.18 168.75,-15 168.75,-15 168.75,-15 460.86,-15 460.86,-15"/>
<polygon fill="#757575" stroke="#757575" points="460.86,-18.5 470.86,-15 460.86,-11.5 460.86,-18.5"/>
</g>
<!-- src/handlers/anonymous&#45;functions.ts&#45;&gt;src/utils/function&#45;utils.ts -->
<g id="edge45" class="edge">
<title>src/handlers/anonymous&#45;functions.ts&#45;&gt;src/utils/function&#45;utils.ts</title>
<path fill="none" stroke="#757575" d="M279.67,-294.8C279.67,-294.8 279.67,-92.27 279.67,-92.27"/>
<polygon fill="#757575" stroke="#757575" points="283.17,-92.27 279.67,-82.27 276.17,-92.27 283.17,-92.27"/>
</g>
<!-- src/handlers/function&#45;declaration.ts&#45;&gt;src/declarations.ts -->
<g id="edge51" class="edge">
<title>src/handlers/function&#45;declaration.ts&#45;&gt;src/declarations.ts</title>
<path fill="none" stroke="#757575" d="M582.83,-294.8C582.83,-287.7 582.83,-280 582.83,-280 582.83,-280 1096.83,-280 1096.83,-280 1096.83,-280 1096.83,-269.23 1096.83,-269.23"/>
<polygon fill="#757575" stroke="#757575" points="1100.33,-269.23 1096.83,-259.23 1093.33,-269.23 1100.33,-269.23"/>
</g>
<!-- src/handlers/function&#45;declaration.ts&#45;&gt;src/utils/identifier&#45;utils.ts -->
<g id="edge54" class="edge">
<title>src/handlers/function&#45;declaration.ts&#45;&gt;src/utils/identifier&#45;utils.ts</title>
<path fill="none" stroke="#757575" d="M587.67,-294.73C587.67,-278.44 587.67,-251 587.67,-251 587.67,-251 676.5,-251 676.5,-251"/>
<polygon fill="#757575" stroke="#757575" points="676.5,-254.5 686.5,-251 676.5,-247.5 676.5,-254.5"/>
</g>
<!-- src/handlers/function&#45;declaration.ts&#45;&gt;src/type&#45;utils.ts -->
<g id="edge52" class="edge">
<title>src/handlers/function&#45;declaration.ts&#45;&gt;src/type&#45;utils.ts</title>
<path fill="none" stroke="#757575" d="M513.8,-294.94C513.8,-294.94 513.8,-33.3 513.8,-33.3"/>
<polygon fill="#757575" stroke="#757575" points="517.3,-33.3 513.8,-23.3 510.3,-33.31 517.3,-33.3"/>
</g>
<!-- src/handlers/function&#45;declaration.ts&#45;&gt;src/utils/function&#45;utils.ts -->
<g id="edge53" class="edge">
<title>src/handlers/function&#45;declaration.ts&#45;&gt;src/utils/function&#45;utils.ts</title>
<path fill="none" stroke="#757575" d="M384.5,-294.8C384.5,-294.8 384.5,-92.27 384.5,-92.27"/>
<polygon fill="#757575" stroke="#757575" points="388,-92.27 384.5,-82.27 381,-92.27 388,-92.27"/>
</g>
<!-- src/utils/function&#45;call&#45;params.ts&#45;&gt;src/expressions/handlers.ts -->
<g id="edge95" class="edge">
<title>src/utils/function&#45;call&#45;params.ts&#45;&gt;src/expressions/handlers.ts</title>
<path fill="none" stroke="#757575" d="M1526,-294.75C1526,-294.75 1526,-210.2 1526,-210.2"/>
<polygon fill="#757575" stroke="#757575" points="1529.5,-210.2 1526,-200.2 1522.5,-210.2 1529.5,-210.2"/>
</g>
<!-- src/utils/function&#45;utils.ts&#45;&gt;src/type&#45;utils.ts -->
<g id="edge96" class="edge">
<title>src/utils/function&#45;utils.ts&#45;&gt;src/type&#45;utils.ts</title>
<path fill="none" stroke="#757575" d="M420.52,-70C456.95,-70 492.4,-70 492.4,-70 492.4,-70 492.4,-33.06 492.4,-33.06"/>
<polygon fill="#757575" stroke="#757575" points="495.9,-33.06 492.4,-23.06 488.9,-33.06 495.9,-33.06"/>
</g>
<!-- src/handlers/method&#45;call.ts&#45;&gt;src/expressions/handlers.ts -->
<g id="edge57" class="edge">
<title>src/handlers/method&#45;call.ts&#45;&gt;src/expressions/handlers.ts</title>
<path fill="none" stroke="#757575" d="M1278.25,-412.85C1278.25,-366.29 1278.25,-196 1278.25,-196 1278.25,-196 1387.24,-196 1387.24,-196"/>
<polygon fill="#757575" stroke="#757575" points="1387.24,-199.5 1397.24,-196 1387.24,-192.5 1387.24,-199.5"/>
</g>
<!-- src/handlers/method&#45;call.ts&#45;&gt;src/utils/identifier&#45;utils.ts -->
<g id="edge59" class="edge">
<title>src/handlers/method&#45;call.ts&#45;&gt;src/utils/identifier&#45;utils.ts</title>
<path fill="none" stroke="#757575" d="M1133.5,-412.61C1133.5,-376.9 1133.5,-273 1133.5,-273 1133.5,-273 790.5,-273 790.5,-273 790.5,-273 790.5,-269.06 790.5,-269.06"/>
<polygon fill="#757575" stroke="#757575" points="794,-269.06 790.5,-259.06 787,-269.06 794,-269.06"/>
</g>
<!-- src/handlers/method&#45;call.ts&#45;&gt;src/functions.ts -->
<g id="edge58" class="edge">
<title>src/handlers/method&#45;call.ts&#45;&gt;src/functions.ts</title>
<path fill="none" stroke="#757575" d="M1112.83,-412.94C1112.83,-406.2 1112.83,-399 1112.83,-399 1112.83,-399 490.2,-399 490.2,-399 490.2,-399 490.2,-387.22 490.2,-387.22"/>
<polygon fill="#757575" stroke="#757575" points="493.7,-387.22 490.2,-377.22 486.7,-387.22 493.7,-387.22"/>
</g>
<!-- src/types/modules.ts&#45;&gt;src/expressions/handlers.ts -->
<g id="edge81" class="edge">
<title>src/types/modules.ts&#45;&gt;src/expressions/handlers.ts</title>
<path fill="none" stroke="#757575" d="M1050.17,-294.9C1050.17,-265.44 1050.17,-190 1050.17,-190 1050.17,-190 1387.41,-190 1387.41,-190"/>
<polygon fill="#757575" stroke="#757575" points="1387.41,-193.5 1397.41,-190 1387.41,-186.5 1387.41,-193.5"/>
</g>
<!-- src/types/modules.ts&#45;&gt;src/declarations.ts -->
<g id="edge80" class="edge">
<title>src/types/modules.ts&#45;&gt;src/declarations.ts</title>
<path fill="none" stroke="#757575" d="M1110.67,-294.84C1110.67,-294.84 1110.67,-269.13 1110.67,-269.13"/>
<polygon fill="#757575" stroke="#757575" points="1114.17,-269.13 1110.67,-259.13 1107.17,-269.13 1114.17,-269.13"/>
</g>
<!-- src/types/modules.ts&#45;&gt;src/utils/identifier&#45;utils.ts -->
<g id="edge82" class="edge">
<title>src/types/modules.ts&#45;&gt;src/utils/identifier&#45;utils.ts</title>
<path fill="none" stroke="#757575" d="M1017.33,-294.85C1017.33,-276.52 1017.33,-243 1017.33,-243 1017.33,-243 856.55,-243 856.55,-243"/>
<polygon fill="#757575" stroke="#757575" points="856.55,-239.5 846.55,-243 856.55,-246.5 856.55,-239.5"/>
</g>
<!-- src/loops/types.ts&#45;&gt;src/expressions/handlers.ts -->
<g id="edge67" class="edge">
<title>src/loops/types.ts&#45;&gt;src/expressions/handlers.ts</title>
<path fill="none" stroke="#757575" d="M2344.5,-412.86C2344.5,-410.13 2344.5,-408 2344.5,-408 2344.5,-408 1491.25,-408 1491.25,-408 1491.25,-408 1491.25,-210.3 1491.25,-210.3"/>
<polygon fill="#757575" stroke="#757575" points="1494.75,-210.3 1491.25,-200.3 1487.75,-210.3 1494.75,-210.3"/>
</g>
<!-- src/types/type&#45;declarations.ts&#45;&gt;src/declarations.ts -->
<g id="edge85" class="edge">
<title>src/types/type&#45;declarations.ts&#45;&gt;src/declarations.ts</title>
<path fill="none" stroke="#757575" d="M1361.33,-294.74C1361.33,-277.4 1361.33,-247 1361.33,-247 1361.33,-247 1218.22,-247 1218.22,-247"/>
<polygon fill="#757575" stroke="#757575" points="1218.22,-243.5 1208.22,-247 1218.22,-250.5 1218.22,-243.5"/>
</g>
<!-- src/types/type&#45;declarations.ts&#45;&gt;src/type&#45;utils.ts -->
<g id="edge86" class="edge">
<title>src/types/type&#45;declarations.ts&#45;&gt;src/type&#45;utils.ts</title>
<path fill="none" stroke="#757575" d="M1325.17,-294.93C1325.17,-290.73 1325.17,-287 1325.17,-287 1325.17,-287 535.2,-287 535.2,-287 535.2,-287 535.2,-33.34 535.2,-33.34"/>
<polygon fill="#757575" stroke="#757575" points="538.7,-33.34 535.2,-23.34 531.7,-33.34 538.7,-33.34"/>
</g>
<!-- src/utils/interpret.ts -->
<g id="node40" class="node">
<title>src/utils/interpret.ts</title>
<path fill="none" stroke="#c6c5fe" d="M1714.83,-613C1714.83,-613 1600.17,-613 1600.17,-613 1596.33,-613 1592.5,-609.17 1592.5,-605.33 1592.5,-605.33 1592.5,-597.67 1592.5,-597.67 1592.5,-593.83 1596.33,-590 1600.17,-590 1600.17,-590 1714.83,-590 1714.83,-590 1718.67,-590 1722.5,-593.83 1722.5,-597.67 1722.5,-597.67 1722.5,-605.33 1722.5,-605.33 1722.5,-609.17 1718.67,-613 1714.83,-613"/>
<text text-anchor="middle" x="1657.5" y="-597.8" font-family="Arial" font-size="14.00" fill="#c6c5fe">src/utils/interpret.ts</text>
</g>
<!-- src/utils/interpret.ts&#45;&gt;src/app.ts -->
<g id="edge97" class="edge">
<title>src/utils/interpret.ts&#45;&gt;src/app.ts</title>
<path fill="none" stroke="#757575" d="M1657.5,-589.84C1657.5,-589.84 1657.5,-564.13 1657.5,-564.13"/>
<polygon fill="#757575" stroke="#757575" points="1661,-564.13 1657.5,-554.13 1654,-564.13 1661,-564.13"/>
</g>
<!-- tests/arithmetic.test.ts -->
<g id="node41" class="node">
<title>tests/arithmetic.test.ts</title>
<path fill="none" stroke="#c6c5fe" d="M1224.83,-672C1224.83,-672 1092.17,-672 1092.17,-672 1088.33,-672 1084.5,-668.17 1084.5,-664.33 1084.5,-664.33 1084.5,-656.67 1084.5,-656.67 1084.5,-652.83 1088.33,-649 1092.17,-649 1092.17,-649 1224.83,-649 1224.83,-649 1228.67,-649 1232.5,-652.83 1232.5,-656.67 1232.5,-656.67 1232.5,-664.33 1232.5,-664.33 1232.5,-668.17 1228.67,-672 1224.83,-672"/>
<text text-anchor="middle" x="1158.5" y="-656.8" font-family="Arial" font-size="14.00" fill="#c6c5fe">tests/arithmetic.test.ts</text>
</g>
<!-- tests/arithmetic.test.ts&#45;&gt;src/utils/interpret.ts -->
<g id="edge104" class="edge">
<title>tests/arithmetic.test.ts&#45;&gt;src/utils/interpret.ts</title>
<path fill="none" stroke="#757575" d="M1169.75,-648.79C1169.75,-629.95 1169.75,-595 1169.75,-595 1169.75,-595 1582.48,-595 1582.48,-595"/>
<polygon fill="#757575" stroke="#757575" points="1582.48,-598.5 1592.48,-595 1582.48,-591.5 1582.48,-598.5"/>
</g>
<!-- tests/control&#45;flow.test.ts -->
<g id="node42" class="node">
<title>tests/control&#45;flow.test.ts</title>
<path fill="none" stroke="#c6c5fe" d="M1400.33,-672C1400.33,-672 1258.67,-672 1258.67,-672 1254.83,-672 1251,-668.17 1251,-664.33 1251,-664.33 1251,-656.67 1251,-656.67 1251,-652.83 1254.83,-649 1258.67,-649 1258.67,-649 1400.33,-649 1400.33,-649 1404.17,-649 1408,-652.83 1408,-656.67 1408,-656.67 1408,-664.33 1408,-664.33 1408,-668.17 1404.17,-672 1400.33,-672"/>
<text text-anchor="middle" x="1329.5" y="-656.8" font-family="Arial" font-size="14.00" fill="#c6c5fe">tests/control&#45;flow.test.ts</text>
</g>
<!-- tests/control&#45;flow.test.ts&#45;&gt;src/utils/interpret.ts -->
<g id="edge105" class="edge">
<title>tests/control&#45;flow.test.ts&#45;&gt;src/utils/interpret.ts</title>
<path fill="none" stroke="#757575" d="M1378.5,-648.74C1378.5,-631.4 1378.5,-601 1378.5,-601 1378.5,-601 1582.44,-601 1582.44,-601"/>
<polygon fill="#757575" stroke="#757575" points="1582.44,-604.5 1592.44,-601 1582.44,-597.5 1582.44,-604.5"/>
</g>
<!-- tests/functions.test.ts -->
<g id="node43" class="node">
<title>tests/functions.test.ts</title>
<path fill="none" stroke="#c6c5fe" d="M1561.33,-672C1561.33,-672 1433.67,-672 1433.67,-672 1429.83,-672 1426,-668.17 1426,-664.33 1426,-664.33 1426,-656.67 1426,-656.67 1426,-652.83 1429.83,-649 1433.67,-649 1433.67,-649 1561.33,-649 1561.33,-649 1565.17,-649 1569,-652.83 1569,-656.67 1569,-656.67 1569,-664.33 1569,-664.33 1569,-668.17 1565.17,-672 1561.33,-672"/>
<text text-anchor="middle" x="1497.5" y="-656.8" font-family="Arial" font-size="14.00" fill="#c6c5fe">tests/functions.test.ts</text>
</g>
<!-- tests/functions.test.ts&#45;&gt;src/utils/interpret.ts -->
<g id="edge106" class="edge">
<title>tests/functions.test.ts&#45;&gt;src/utils/interpret.ts</title>
<path fill="none" stroke="#757575" d="M1538.5,-648.89C1538.5,-633.16 1538.5,-607 1538.5,-607 1538.5,-607 1582.43,-607 1582.43,-607"/>
<polygon fill="#757575" stroke="#757575" points="1582.43,-610.5 1592.43,-607 1582.43,-603.5 1582.43,-610.5"/>
</g>
<!-- tests/generics.test.ts -->
<g id="node44" class="node">
<title>tests/generics.test.ts</title>
<path fill="none" stroke="#c6c5fe" d="M1719.83,-672C1719.83,-672 1595.17,-672 1595.17,-672 1591.33,-672 1587.5,-668.17 1587.5,-664.33 1587.5,-664.33 1587.5,-656.67 1587.5,-656.67 1587.5,-652.83 1591.33,-649 1595.17,-649 1595.17,-649 1719.83,-649 1719.83,-649 1723.67,-649 1727.5,-652.83 1727.5,-656.67 1727.5,-656.67 1727.5,-664.33 1727.5,-664.33 1727.5,-668.17 1723.67,-672 1719.83,-672"/>
<text text-anchor="middle" x="1657.5" y="-656.8" font-family="Arial" font-size="14.00" fill="#c6c5fe">tests/generics.test.ts</text>
</g>
<!-- tests/generics.test.ts&#45;&gt;src/utils/interpret.ts -->
<g id="edge107" class="edge">
<title>tests/generics.test.ts&#45;&gt;src/utils/interpret.ts</title>
<path fill="none" stroke="#757575" d="M1657.5,-648.84C1657.5,-648.84 1657.5,-623.13 1657.5,-623.13"/>
<polygon fill="#757575" stroke="#757575" points="1661,-623.13 1657.5,-613.13 1654,-623.13 1661,-623.13"/>
</g>
<!-- tests/modules.test.ts -->
<g id="node45" class="node">
<title>tests/modules.test.ts</title>
<path fill="none" stroke="#c6c5fe" d="M1877.83,-672C1877.83,-672 1753.17,-672 1753.17,-672 1749.33,-672 1745.5,-668.17 1745.5,-664.33 1745.5,-664.33 1745.5,-656.67 1745.5,-656.67 1745.5,-652.83 1749.33,-649 1753.17,-649 1753.17,-649 1877.83,-649 1877.83,-649 1881.67,-649 1885.5,-652.83 1885.5,-656.67 1885.5,-656.67 1885.5,-664.33 1885.5,-664.33 1885.5,-668.17 1881.67,-672 1877.83,-672"/>
<text text-anchor="middle" x="1815.5" y="-656.8" font-family="Arial" font-size="14.00" fill="#c6c5fe">tests/modules.test.ts</text>
</g>
<!-- tests/modules.test.ts&#45;&gt;src/utils/interpret.ts -->
<g id="edge108" class="edge">
<title>tests/modules.test.ts&#45;&gt;src/utils/interpret.ts</title>
<path fill="none" stroke="#757575" d="M1761.25,-648.89C1761.25,-633.16 1761.25,-607 1761.25,-607 1761.25,-607 1732.62,-607 1732.62,-607"/>
<polygon fill="#757575" stroke="#757575" points="1732.62,-603.5 1722.62,-607 1732.62,-610.5 1732.62,-603.5"/>
</g>
<!-- tests/types.test.ts -->
<g id="node46" class="node">
<title>tests/types.test.ts</title>
<path fill="none" stroke="#c6c5fe" d="M2017.33,-672C2017.33,-672 1911.67,-672 1911.67,-672 1907.83,-672 1904,-668.17 1904,-664.33 1904,-664.33 1904,-656.67 1904,-656.67 1904,-652.83 1907.83,-649 1911.67,-649 1911.67,-649 2017.33,-649 2017.33,-649 2021.17,-649 2025,-652.83 2025,-656.67 2025,-656.67 2025,-664.33 2025,-664.33 2025,-668.17 2021.17,-672 2017.33,-672"/>
<text text-anchor="middle" x="1964.5" y="-656.8" font-family="Arial" font-size="14.00" fill="#c6c5fe">tests/types.test.ts</text>
</g>
<!-- tests/types.test.ts&#45;&gt;src/utils/interpret.ts -->
<g id="edge109" class="edge">
<title>tests/types.test.ts&#45;&gt;src/utils/interpret.ts</title>
<path fill="none" stroke="#757575" d="M1964.5,-648.74C1964.5,-631.4 1964.5,-601 1964.5,-601 1964.5,-601 1732.61,-601 1732.61,-601"/>
<polygon fill="#757575" stroke="#757575" points="1732.61,-597.5 1722.61,-601 1732.61,-604.5 1732.61,-597.5"/>
</g>
<!-- tests/variables.test.ts -->
<g id="node47" class="node">
<title>tests/variables.test.ts</title>
<path fill="none" stroke="#c6c5fe" d="M2178.33,-672C2178.33,-672 2050.67,-672 2050.67,-672 2046.83,-672 2043,-668.17 2043,-664.33 2043,-664.33 2043,-656.67 2043,-656.67 2043,-652.83 2046.83,-649 2050.67,-649 2050.67,-649 2178.33,-649 2178.33,-649 2182.17,-649 2186,-652.83 2186,-656.67 2186,-656.67 2186,-664.33 2186,-664.33 2186,-668.17 2182.17,-672 2178.33,-672"/>
<text text-anchor="middle" x="2114.5" y="-656.8" font-family="Arial" font-size="14.00" fill="#c6c5fe">tests/variables.test.ts</text>
</g>
<!-- tests/variables.test.ts&#45;&gt;src/utils/interpret.ts -->
<g id="edge110" class="edge">
<title>tests/variables.test.ts&#45;&gt;src/utils/interpret.ts</title>
<path fill="none" stroke="#757575" d="M2114.5,-648.79C2114.5,-629.95 2114.5,-595 2114.5,-595 2114.5,-595 1732.98,-595 1732.98,-595"/>
<polygon fill="#757575" stroke="#757575" points="1732.98,-591.5 1722.98,-595 1732.98,-598.5 1732.98,-591.5"/>
</g>
</g>
</svg>
