<?xml version="1.0" encoding="UTF-8" standalone="no"?>
<!DOCTYPE svg PUBLIC "-//W3C//DTD SVG 1.1//EN"
 "http://www.w3.org/Graphics/SVG/1.1/DTD/svg11.dtd">
<!-- Generated by graphviz version 2.43.0 (0)
 -->
<!-- Title: G Pages: 1 -->
<svg width="1224pt" height="447pt"
 viewBox="0.00 0.00 1224.20 447.20" xmlns="http://www.w3.org/2000/svg" xmlns:xlink="http://www.w3.org/1999/xlink">
<g id="graph0" class="graph" transform="scale(1 1) rotate(0) translate(21.6 425.6)">
<title>G</title>
<polygon fill="#111111" stroke="transparent" points="-21.6,21.6 -21.6,-425.6 1202.6,-425.6 1202.6,21.6 -21.6,21.6"/>
<!-- app.ts -->
<g id="node1" class="node">
<title>app.ts</title>
<path fill="none" stroke="#c6c5fe" d="M725.17,-404C725.17,-404 683.83,-404 683.83,-404 680.67,-404 677.5,-400.83 677.5,-397.67 677.5,-397.67 677.5,-391.33 677.5,-391.33 677.5,-388.17 680.67,-385 683.83,-385 683.83,-385 725.17,-385 725.17,-385 728.33,-385 731.5,-388.17 731.5,-391.33 731.5,-391.33 731.5,-397.67 731.5,-397.67 731.5,-400.83 728.33,-404 725.17,-404"/>
<text text-anchor="middle" x="704.5" y="-392" font-family="Arial" font-size="10.00" fill="#c6c5fe">app.ts</text>
</g>
<!-- arithmetic&#45;parsing.ts -->
<g id="node2" class="node">
<title>arithmetic&#45;parsing.ts</title>
<path fill="none" stroke="#c6c5fe" d="M418.67,-349C418.67,-349 326.33,-349 326.33,-349 323.17,-349 320,-345.83 320,-342.67 320,-342.67 320,-336.33 320,-336.33 320,-333.17 323.17,-330 326.33,-330 326.33,-330 418.67,-330 418.67,-330 421.83,-330 425,-333.17 425,-336.33 425,-336.33 425,-342.67 425,-342.67 425,-345.83 421.83,-349 418.67,-349"/>
<text text-anchor="middle" x="372.5" y="-337" font-family="Arial" font-size="10.00" fill="#c6c5fe">arithmetic&#45;parsing.ts</text>
</g>
<!-- app.ts&#45;&gt;arithmetic&#45;parsing.ts -->
<g id="edge1" class="edge">
<title>app.ts&#45;&gt;arithmetic&#45;parsing.ts</title>
<path fill="none" stroke="#757575" d="M677.33,-395C598.04,-395 372.5,-395 372.5,-395 372.5,-395 372.5,-359.17 372.5,-359.17"/>
<polygon fill="#757575" stroke="#757575" points="376,-359.17 372.5,-349.17 369,-359.17 376,-359.17"/>
</g>
<!-- array&#45;parsing.ts -->
<g id="node3" class="node">
<title>array&#45;parsing.ts</title>
<path fill="none" stroke="#cfffac" d="M883.17,-129C883.17,-129 811.83,-129 811.83,-129 808.67,-129 805.5,-125.83 805.5,-122.67 805.5,-122.67 805.5,-116.33 805.5,-116.33 805.5,-113.17 808.67,-110 811.83,-110 811.83,-110 883.17,-110 883.17,-110 886.33,-110 889.5,-113.17 889.5,-116.33 889.5,-116.33 889.5,-122.67 889.5,-122.67 889.5,-125.83 886.33,-129 883.17,-129"/>
<text text-anchor="middle" x="847.5" y="-117" font-family="Arial" font-size="10.00" fill="#cfffac">array&#45;parsing.ts</text>
</g>
<!-- app.ts&#45;&gt;array&#45;parsing.ts -->
<g id="edge2" class="edge">
<title>app.ts&#45;&gt;array&#45;parsing.ts</title>
<path fill="none" stroke="#757575" d="M731.82,-393C757.11,-393 790.83,-393 790.83,-393 790.83,-393 790.83,-116 790.83,-116 790.83,-116 795.43,-116 795.43,-116"/>
<polygon fill="#757575" stroke="#757575" points="795.43,-119.5 805.43,-116 795.43,-112.5 795.43,-119.5"/>
</g>
<!-- expression&#45;with&#45;context.ts -->
<g id="node4" class="node">
<title>expression&#45;with&#45;context.ts</title>
<path fill="none" stroke="#c6c5fe" d="M580.67,-349C580.67,-349 462.33,-349 462.33,-349 459.17,-349 456,-345.83 456,-342.67 456,-342.67 456,-336.33 456,-336.33 456,-333.17 459.17,-330 462.33,-330 462.33,-330 580.67,-330 580.67,-330 583.83,-330 587,-333.17 587,-336.33 587,-336.33 587,-342.67 587,-342.67 587,-345.83 583.83,-349 580.67,-349"/>
<text text-anchor="middle" x="521.5" y="-337" font-family="Arial" font-size="10.00" fill="#c6c5fe">expression&#45;with&#45;context.ts</text>
</g>
<!-- app.ts&#45;&gt;expression&#45;with&#45;context.ts -->
<g id="edge3" class="edge">
<title>app.ts&#45;&gt;expression&#45;with&#45;context.ts</title>
<path fill="none" stroke="#757575" d="M677.5,-390C626.59,-390 521.5,-390 521.5,-390 521.5,-390 521.5,-359.24 521.5,-359.24"/>
<polygon fill="#757575" stroke="#757575" points="525,-359.24 521.5,-349.24 518,-359.24 525,-359.24"/>
</g>
<!-- instruction&#45;primitives.ts -->
<g id="node5" class="node">
<title>instruction&#45;primitives.ts</title>
<path fill="none" stroke="#c6c5fe" d="M335.17,-129C335.17,-129 229.83,-129 229.83,-129 226.67,-129 223.5,-125.83 223.5,-122.67 223.5,-122.67 223.5,-116.33 223.5,-116.33 223.5,-113.17 226.67,-110 229.83,-110 229.83,-110 335.17,-110 335.17,-110 338.33,-110 341.5,-113.17 341.5,-116.33 341.5,-116.33 341.5,-122.67 341.5,-122.67 341.5,-125.83 338.33,-129 335.17,-129"/>
<text text-anchor="middle" x="282.5" y="-117" font-family="Arial" font-size="10.00" fill="#c6c5fe">instruction&#45;primitives.ts</text>
</g>
<!-- app.ts&#45;&gt;instruction&#45;primitives.ts -->
<g id="edge4" class="edge">
<title>app.ts&#45;&gt;instruction&#45;primitives.ts</title>
<path fill="none" stroke="#757575" d="M677.19,-398C587.42,-398 307.17,-398 307.17,-398 307.17,-398 307.17,-139.09 307.17,-139.09"/>
<polygon fill="#757575" stroke="#757575" points="310.67,-139.09 307.17,-129.09 303.67,-139.09 310.67,-139.09"/>
</g>
<!-- let&#45;binding.ts -->
<g id="node6" class="node">
<title>let&#45;binding.ts</title>
<path fill="none" stroke="#ff6c60" d="M679.17,-184C679.17,-184 619.83,-184 619.83,-184 616.67,-184 613.5,-180.83 613.5,-177.67 613.5,-177.67 613.5,-171.33 613.5,-171.33 613.5,-168.17 616.67,-165 619.83,-165 619.83,-165 679.17,-165 679.17,-165 682.33,-165 685.5,-168.17 685.5,-171.33 685.5,-171.33 685.5,-177.67 685.5,-177.67 685.5,-180.83 682.33,-184 679.17,-184"/>
<text text-anchor="middle" x="649.5" y="-172" font-family="Arial" font-size="10.00" fill="#ff6c60">let&#45;binding.ts</text>
</g>
<!-- app.ts&#45;&gt;let&#45;binding.ts -->
<g id="edge5" class="edge">
<title>app.ts&#45;&gt;let&#45;binding.ts</title>
<path fill="none" stroke="#757575" d="M677.38,-387C661.24,-387 643.88,-387 643.88,-387 643.88,-387 643.88,-194.18 643.88,-194.18"/>
<polygon fill="#757575" stroke="#757575" points="647.38,-194.18 643.88,-184.18 640.38,-194.18 647.38,-194.18"/>
</g>
<!-- let&#45;expression&#45;parsing.ts -->
<g id="node7" class="node">
<title>let&#45;expression&#45;parsing.ts</title>
<path fill="none" stroke="#c6c5fe" d="M116.67,-239C116.67,-239 6.33,-239 6.33,-239 3.17,-239 0,-235.83 0,-232.67 0,-232.67 0,-226.33 0,-226.33 0,-223.17 3.17,-220 6.33,-220 6.33,-220 116.67,-220 116.67,-220 119.83,-220 123,-223.17 123,-226.33 123,-226.33 123,-232.67 123,-232.67 123,-235.83 119.83,-239 116.67,-239"/>
<text text-anchor="middle" x="61.5" y="-227" font-family="Arial" font-size="10.00" fill="#c6c5fe">let&#45;expression&#45;parsing.ts</text>
</g>
<!-- app.ts&#45;&gt;let&#45;expression&#45;parsing.ts -->
<g id="edge6" class="edge">
<title>app.ts&#45;&gt;let&#45;expression&#45;parsing.ts</title>
<path fill="none" stroke="#757575" d="M677.28,-401C554.9,-401 61.5,-401 61.5,-401 61.5,-401 61.5,-249.21 61.5,-249.21"/>
<polygon fill="#757575" stroke="#757575" points="65,-249.21 61.5,-239.21 58,-249.21 65,-249.21"/>
</g>
<!-- parser.ts -->
<g id="node8" class="node">
<title>parser.ts</title>
<path fill="none" stroke="#c6c5fe" d="M715.67,-74C715.67,-74 673.33,-74 673.33,-74 670.17,-74 667,-70.83 667,-67.67 667,-67.67 667,-61.33 667,-61.33 667,-58.17 670.17,-55 673.33,-55 673.33,-55 715.67,-55 715.67,-55 718.83,-55 722,-58.17 722,-61.33 722,-61.33 722,-67.67 722,-67.67 722,-70.83 718.83,-74 715.67,-74"/>
<text text-anchor="middle" x="694.5" y="-62" font-family="Arial" font-size="10.00" fill="#c6c5fe">parser.ts</text>
</g>
<!-- app.ts&#45;&gt;parser.ts -->
<g id="edge7" class="edge">
<title>app.ts&#45;&gt;parser.ts</title>
<path fill="none" stroke="#757575" d="M731.57,-390C755.68,-390 787.17,-390 787.17,-390 787.17,-390 787.17,-70 787.17,-70 787.17,-70 732.05,-70 732.05,-70"/>
<polygon fill="#757575" stroke="#757575" points="732.05,-66.5 722.05,-70 732.05,-73.5 732.05,-66.5"/>
</g>
<!-- pointer&#45;validation.ts -->
<g id="node9" class="node">
<title>pointer&#45;validation.ts</title>
<path fill="none" stroke="#c6c5fe" d="M748.67,-349C748.67,-349 660.33,-349 660.33,-349 657.17,-349 654,-345.83 654,-342.67 654,-342.67 654,-336.33 654,-336.33 654,-333.17 657.17,-330 660.33,-330 660.33,-330 748.67,-330 748.67,-330 751.83,-330 755,-333.17 755,-336.33 755,-336.33 755,-342.67 755,-342.67 755,-345.83 751.83,-349 748.67,-349"/>
<text text-anchor="middle" x="704.5" y="-337" font-family="Arial" font-size="10.00" fill="#c6c5fe">pointer&#45;validation.ts</text>
</g>
<!-- app.ts&#45;&gt;pointer&#45;validation.ts -->
<g id="edge8" class="edge">
<title>app.ts&#45;&gt;pointer&#45;validation.ts</title>
<path fill="none" stroke="#757575" d="M704.5,-384.92C704.5,-384.92 704.5,-359.34 704.5,-359.34"/>
<polygon fill="#757575" stroke="#757575" points="708,-359.34 704.5,-349.34 701,-359.34 708,-359.34"/>
</g>
<!-- reassignment&#45;parsing.ts -->
<g id="node10" class="node">
<title>reassignment&#45;parsing.ts</title>
<path fill="none" stroke="#c6c5fe" d="M1174.67,-184C1174.67,-184 1066.33,-184 1066.33,-184 1063.17,-184 1060,-180.83 1060,-177.67 1060,-177.67 1060,-171.33 1060,-171.33 1060,-168.17 1063.17,-165 1066.33,-165 1066.33,-165 1174.67,-165 1174.67,-165 1177.83,-165 1181,-168.17 1181,-171.33 1181,-171.33 1181,-177.67 1181,-177.67 1181,-180.83 1177.83,-184 1174.67,-184"/>
<text text-anchor="middle" x="1120.5" y="-172" font-family="Arial" font-size="10.00" fill="#c6c5fe">reassignment&#45;parsing.ts</text>
</g>
<!-- app.ts&#45;&gt;reassignment&#45;parsing.ts -->
<g id="edge9" class="edge">
<title>app.ts&#45;&gt;reassignment&#45;parsing.ts</title>
<path fill="none" stroke="#757575" d="M731.78,-401C827.27,-401 1140.67,-401 1140.67,-401 1140.67,-401 1140.67,-194.23 1140.67,-194.23"/>
<polygon fill="#757575" stroke="#757575" points="1144.17,-194.23 1140.67,-184.23 1137.17,-194.23 1144.17,-194.23"/>
</g>
<!-- reassignment&#45;validation.ts -->
<g id="node11" class="node">
<title>reassignment&#45;validation.ts</title>
<path fill="none" stroke="#c6c5fe" d="M1048.67,-349C1048.67,-349 930.33,-349 930.33,-349 927.17,-349 924,-345.83 924,-342.67 924,-342.67 924,-336.33 924,-336.33 924,-333.17 927.17,-330 930.33,-330 930.33,-330 1048.67,-330 1048.67,-330 1051.83,-330 1055,-333.17 1055,-336.33 1055,-336.33 1055,-342.67 1055,-342.67 1055,-345.83 1051.83,-349 1048.67,-349"/>
<text text-anchor="middle" x="989.5" y="-337" font-family="Arial" font-size="10.00" fill="#c6c5fe">reassignment&#45;validation.ts</text>
</g>
<!-- app.ts&#45;&gt;reassignment&#45;validation.ts -->
<g id="edge10" class="edge">
<title>app.ts&#45;&gt;reassignment&#45;validation.ts</title>
<path fill="none" stroke="#757575" d="M731.57,-398C802.71,-398 989.5,-398 989.5,-398 989.5,-398 989.5,-359.16 989.5,-359.16"/>
<polygon fill="#757575" stroke="#757575" points="993,-359.16 989.5,-349.16 986,-359.16 993,-359.16"/>
</g>
<!-- types.ts -->
<g id="node12" class="node">
<title>types.ts</title>
<path fill="none" stroke="#c6c5fe" d="M777.17,-294C777.17,-294 735.83,-294 735.83,-294 732.67,-294 729.5,-290.83 729.5,-287.67 729.5,-287.67 729.5,-281.33 729.5,-281.33 729.5,-278.17 732.67,-275 735.83,-275 735.83,-275 777.17,-275 777.17,-275 780.33,-275 783.5,-278.17 783.5,-281.33 783.5,-281.33 783.5,-287.67 783.5,-287.67 783.5,-290.83 780.33,-294 777.17,-294"/>
<text text-anchor="middle" x="756.5" y="-282" font-family="Arial" font-size="10.00" fill="#c6c5fe">types.ts</text>
</g>
<!-- app.ts&#45;&gt;types.ts -->
<g id="edge11" class="edge">
<title>app.ts&#45;&gt;types.ts</title>
<path fill="none" stroke="#757575" d="M731.69,-387C747.57,-387 764.5,-387 764.5,-387 764.5,-387 764.5,-304.33 764.5,-304.33"/>
<polygon fill="#757575" stroke="#757575" points="768,-304.33 764.5,-294.33 761,-304.33 768,-304.33"/>
</g>
<!-- validation.ts -->
<g id="node13" class="node">
<title>validation.ts</title>
<path fill="none" stroke="#c6c5fe" d="M874.67,-349C874.67,-349 818.33,-349 818.33,-349 815.17,-349 812,-345.83 812,-342.67 812,-342.67 812,-336.33 812,-336.33 812,-333.17 815.17,-330 818.33,-330 818.33,-330 874.67,-330 874.67,-330 877.83,-330 881,-333.17 881,-336.33 881,-336.33 881,-342.67 881,-342.67 881,-345.83 877.83,-349 874.67,-349"/>
<text text-anchor="middle" x="846.5" y="-337" font-family="Arial" font-size="10.00" fill="#c6c5fe">validation.ts</text>
</g>
<!-- app.ts&#45;&gt;validation.ts -->
<g id="edge12" class="edge">
<title>app.ts&#45;&gt;validation.ts</title>
<path fill="none" stroke="#757575" d="M731.54,-395C772.74,-395 846.5,-395 846.5,-395 846.5,-395 846.5,-359.17 846.5,-359.17"/>
<polygon fill="#757575" stroke="#757575" points="850,-359.17 846.5,-349.17 843,-359.17 850,-359.17"/>
</g>
<!-- vm.ts -->
<g id="node14" class="node">
<title>vm.ts</title>
<path fill="none" stroke="#cfffac" d="M303.17,-19C303.17,-19 261.83,-19 261.83,-19 258.67,-19 255.5,-15.83 255.5,-12.67 255.5,-12.67 255.5,-6.33 255.5,-6.33 255.5,-3.17 258.67,0 261.83,0 261.83,0 303.17,0 303.17,0 306.33,0 309.5,-3.17 309.5,-6.33 309.5,-6.33 309.5,-12.67 309.5,-12.67 309.5,-15.83 306.33,-19 303.17,-19"/>
<text text-anchor="middle" x="282.5" y="-7" font-family="Arial" font-size="10.00" fill="#cfffac">vm.ts</text>
</g>
<!-- app.ts&#45;&gt;vm.ts -->
<g id="edge13" class="edge">
<title>app.ts&#45;&gt;vm.ts</title>
<path fill="none" stroke="#757575" d="M677.46,-393C609.2,-393 435.33,-393 435.33,-393 435.33,-393 435.33,-14 435.33,-14 435.33,-14 319.82,-14 319.82,-14"/>
<polygon fill="#757575" stroke="#757575" points="319.82,-10.5 309.82,-14 319.82,-17.5 319.82,-10.5"/>
</g>
<!-- arithmetic&#45;parsing.ts&#45;&gt;parser.ts -->
<g id="edge16" class="edge">
<title>arithmetic&#45;parsing.ts&#45;&gt;parser.ts</title>
<path fill="none" stroke="#757575" d="M425.29,-339C436.82,-339 445.67,-339 445.67,-339 445.67,-339 445.67,-67 445.67,-67 445.67,-67 656.92,-67 656.92,-67"/>
<polygon fill="#757575" stroke="#757575" points="656.92,-70.5 666.92,-67 656.92,-63.5 656.92,-70.5"/>
</g>
<!-- arithmetic&#45;parsing.ts&#45;&gt;types.ts -->
<g id="edge17" class="edge">
<title>arithmetic&#45;parsing.ts&#45;&gt;types.ts</title>
<path fill="none" stroke="#757575" d="M422.5,-329.69C422.5,-314.24 422.5,-286 422.5,-286 422.5,-286 719.45,-286 719.45,-286"/>
<polygon fill="#757575" stroke="#757575" points="719.45,-289.5 729.45,-286 719.45,-282.5 719.45,-289.5"/>
</g>
<!-- arithmetic&#45;parsing.ts&#45;&gt;vm.ts -->
<g id="edge18" class="edge">
<title>arithmetic&#45;parsing.ts&#45;&gt;vm.ts</title>
<path fill="none" stroke="#757575" d="M420,-329.82C420,-275.99 420,-16 420,-16 420,-16 319.67,-16 319.67,-16"/>
<polygon fill="#757575" stroke="#757575" points="319.67,-12.5 309.67,-16 319.67,-19.5 319.67,-12.5"/>
</g>
<!-- helpers.ts -->
<g id="node15" class="node">
<title>helpers.ts</title>
<path fill="none" stroke="#c6c5fe" d="M294.67,-184C294.67,-184 248.33,-184 248.33,-184 245.17,-184 242,-180.83 242,-177.67 242,-177.67 242,-171.33 242,-171.33 242,-168.17 245.17,-165 248.33,-165 248.33,-165 294.67,-165 294.67,-165 297.83,-165 301,-168.17 301,-171.33 301,-171.33 301,-177.67 301,-177.67 301,-180.83 297.83,-184 294.67,-184"/>
<text text-anchor="middle" x="271.5" y="-172" font-family="Arial" font-size="10.00" fill="#c6c5fe">helpers.ts</text>
</g>
<!-- arithmetic&#45;parsing.ts&#45;&gt;helpers.ts -->
<g id="edge14" class="edge">
<title>arithmetic&#45;parsing.ts&#45;&gt;helpers.ts</title>
<path fill="none" stroke="#757575" d="M319.65,-339C306.96,-339 297,-339 297,-339 297,-339 297,-194.3 297,-194.3"/>
<polygon fill="#757575" stroke="#757575" points="300.5,-194.3 297,-184.3 293.5,-194.3 300.5,-194.3"/>
</g>
<!-- operator&#45;parsing.ts -->
<g id="node16" class="node">
<title>operator&#45;parsing.ts</title>
<path fill="none" stroke="#c6c5fe" d="M411.17,-184C411.17,-184 325.83,-184 325.83,-184 322.67,-184 319.5,-180.83 319.5,-177.67 319.5,-177.67 319.5,-171.33 319.5,-171.33 319.5,-168.17 322.67,-165 325.83,-165 325.83,-165 411.17,-165 411.17,-165 414.33,-165 417.5,-168.17 417.5,-171.33 417.5,-171.33 417.5,-177.67 417.5,-177.67 417.5,-180.83 414.33,-184 411.17,-184"/>
<text text-anchor="middle" x="368.5" y="-172" font-family="Arial" font-size="10.00" fill="#c6c5fe">operator&#45;parsing.ts</text>
</g>
<!-- arithmetic&#45;parsing.ts&#45;&gt;operator&#45;parsing.ts -->
<g id="edge15" class="edge">
<title>arithmetic&#45;parsing.ts&#45;&gt;operator&#45;parsing.ts</title>
<path fill="none" stroke="#757575" d="M385,-329.67C385,-329.67 385,-194.07 385,-194.07"/>
<polygon fill="#757575" stroke="#757575" points="388.5,-194.07 385,-184.07 381.5,-194.07 388.5,-194.07"/>
</g>
<!-- expression&#45;with&#45;context.ts&#45;&gt;let&#45;binding.ts -->
<g id="edge28" class="edge">
<title>expression&#45;with&#45;context.ts&#45;&gt;let&#45;binding.ts</title>
<path fill="none" stroke="#757575" d="M587.12,-339C611.69,-339 633.75,-339 633.75,-339 633.75,-339 633.75,-194.3 633.75,-194.3"/>
<polygon fill="#757575" stroke="#757575" points="637.25,-194.3 633.75,-184.3 630.25,-194.3 637.25,-194.3"/>
</g>
<!-- expression&#45;with&#45;context.ts&#45;&gt;parser.ts -->
<g id="edge30" class="edge">
<title>expression&#45;with&#45;context.ts&#45;&gt;parser.ts</title>
<path fill="none" stroke="#757575" d="M549.57,-329.91C549.57,-281.9 549.57,-70 549.57,-70 549.57,-70 656.9,-70 656.9,-70"/>
<polygon fill="#757575" stroke="#757575" points="656.9,-73.5 666.9,-70 656.9,-66.5 656.9,-73.5"/>
</g>
<!-- expression&#45;with&#45;context.ts&#45;&gt;types.ts -->
<g id="edge31" class="edge">
<title>expression&#45;with&#45;context.ts&#45;&gt;types.ts</title>
<path fill="none" stroke="#757575" d="M568.29,-329.96C568.29,-315.57 568.29,-290 568.29,-290 568.29,-290 719.13,-290 719.13,-290"/>
<polygon fill="#757575" stroke="#757575" points="719.13,-293.5 729.13,-290 719.13,-286.5 719.13,-293.5"/>
</g>
<!-- expression&#45;with&#45;context.ts&#45;&gt;vm.ts -->
<g id="edge32" class="edge">
<title>expression&#45;with&#45;context.ts&#45;&gt;vm.ts</title>
<path fill="none" stroke="#757575" d="M493.43,-329.67C493.43,-275.01 493.43,-11 493.43,-11 493.43,-11 319.64,-11 319.64,-11"/>
<polygon fill="#757575" stroke="#757575" points="319.64,-7.5 309.64,-11 319.64,-14.5 319.64,-7.5"/>
</g>
<!-- expression&#45;with&#45;context.ts&#45;&gt;operator&#45;parsing.ts -->
<g id="edge29" class="edge">
<title>expression&#45;with&#45;context.ts&#45;&gt;operator&#45;parsing.ts</title>
<path fill="none" stroke="#757575" d="M474.71,-329.94C474.71,-295.39 474.71,-179 474.71,-179 474.71,-179 427.57,-179 427.57,-179"/>
<polygon fill="#757575" stroke="#757575" points="427.57,-175.5 417.57,-179 427.57,-182.5 427.57,-175.5"/>
</g>
<!-- instruction&#45;primitives.ts&#45;&gt;vm.ts -->
<g id="edge37" class="edge">
<title>instruction&#45;primitives.ts&#45;&gt;vm.ts</title>
<path fill="none" stroke="#757575" d="M273.5,-109.74C273.5,-109.74 273.5,-29.08 273.5,-29.08"/>
<polygon fill="#757575" stroke="#757575" points="277,-29.08 273.5,-19.08 270,-29.08 277,-29.08"/>
</g>
<!-- let&#45;binding.ts&#45;&gt;array&#45;parsing.ts -->
<g id="edge39" class="edge">
<title>let&#45;binding.ts&#45;&gt;array&#45;parsing.ts</title>
<path fill="none" stroke="#757575" d="M685.85,-170C739.48,-170 833.5,-170 833.5,-170 833.5,-170 833.5,-139.24 833.5,-139.24"/>
<polygon fill="#757575" stroke="#757575" points="837,-139.24 833.5,-129.24 830,-139.24 837,-139.24"/>
</g>
<!-- let&#45;binding.ts&#45;&gt;instruction&#45;primitives.ts -->
<g id="edge40" class="edge">
<title>let&#45;binding.ts&#45;&gt;instruction&#45;primitives.ts</title>
<path fill="none" stroke="#757575" d="M613.41,-174C572.71,-174 512.14,-174 512.14,-174 512.14,-174 512.14,-119 512.14,-119 512.14,-119 351.64,-119 351.64,-119"/>
<polygon fill="#757575" stroke="#757575" points="351.64,-115.5 341.64,-119 351.64,-122.5 351.64,-115.5"/>
</g>
<!-- let&#45;binding.ts&#45;&gt;parser.ts -->
<g id="edge41" class="edge">
<title>let&#45;binding.ts&#45;&gt;parser.ts</title>
<path fill="none" stroke="#757575" d="M685.67,-167C700.21,-167 713.6,-167 713.6,-167 713.6,-167 713.6,-84.33 713.6,-84.33"/>
<polygon fill="#757575" stroke="#757575" points="717.1,-84.33 713.6,-74.33 710.1,-84.33 717.1,-84.33"/>
</g>
<!-- let&#45;binding.ts&#45;&gt;vm.ts -->
<g id="edge43" class="edge">
<title>let&#45;binding.ts&#45;&gt;vm.ts</title>
<path fill="none" stroke="#757575" d="M613.26,-169C578.37,-169 530.86,-169 530.86,-169 530.86,-169 530.86,-9 530.86,-9 530.86,-9 319.55,-9 319.55,-9"/>
<polygon fill="#757575" stroke="#757575" points="319.55,-5.5 309.55,-9 319.55,-12.5 319.55,-5.5"/>
</g>
<!-- array&#45;helpers.ts -->
<g id="node18" class="node">
<title>array&#45;helpers.ts</title>
<path fill="none" stroke="#ff6c60" d="M883.17,-239C883.17,-239 811.83,-239 811.83,-239 808.67,-239 805.5,-235.83 805.5,-232.67 805.5,-232.67 805.5,-226.33 805.5,-226.33 805.5,-223.17 808.67,-220 811.83,-220 811.83,-220 883.17,-220 883.17,-220 886.33,-220 889.5,-223.17 889.5,-226.33 889.5,-226.33 889.5,-232.67 889.5,-232.67 889.5,-235.83 886.33,-239 883.17,-239"/>
<text text-anchor="middle" x="847.5" y="-227" font-family="Arial" font-size="10.00" fill="#ff6c60">array&#45;helpers.ts</text>
</g>
<!-- let&#45;binding.ts&#45;&gt;array&#45;helpers.ts -->
<g id="edge38" class="edge">
<title>let&#45;binding.ts&#45;&gt;array&#45;helpers.ts</title>
<path fill="none" stroke="#757575" d="M669.75,-184.24C669.75,-199.92 669.75,-229 669.75,-229 669.75,-229 795.38,-229 795.38,-229"/>
<polygon fill="#757575" stroke="#757575" points="795.38,-232.5 805.38,-229 795.38,-225.5 795.38,-232.5"/>
</g>
<!-- type&#45;inference&#45;helpers.ts -->
<g id="node21" class="node">
<title>type&#45;inference&#45;helpers.ts</title>
<path fill="none" stroke="#c6c5fe" d="M705.17,-129C705.17,-129 593.83,-129 593.83,-129 590.67,-129 587.5,-125.83 587.5,-122.67 587.5,-122.67 587.5,-116.33 587.5,-116.33 587.5,-113.17 590.67,-110 593.83,-110 593.83,-110 705.17,-110 705.17,-110 708.33,-110 711.5,-113.17 711.5,-116.33 711.5,-116.33 711.5,-122.67 711.5,-122.67 711.5,-125.83 708.33,-129 705.17,-129"/>
<text text-anchor="middle" x="649.5" y="-117" font-family="Arial" font-size="10.00" fill="#c6c5fe">type&#45;inference&#45;helpers.ts</text>
</g>
<!-- let&#45;binding.ts&#45;&gt;type&#45;inference&#45;helpers.ts -->
<g id="edge42" class="edge">
<title>let&#45;binding.ts&#45;&gt;type&#45;inference&#45;helpers.ts</title>
<path fill="none" stroke="#757575" d="M649.5,-164.92C649.5,-164.92 649.5,-139.34 649.5,-139.34"/>
<polygon fill="#757575" stroke="#757575" points="653,-139.34 649.5,-129.34 646,-139.34 653,-139.34"/>
</g>
<!-- let&#45;expression&#45;parsing.ts&#45;&gt;let&#45;binding.ts -->
<g id="edge44" class="edge">
<title>let&#45;expression&#45;parsing.ts&#45;&gt;let&#45;binding.ts</title>
<path fill="none" stroke="#757575" d="M103.25,-219.88C103.25,-211.95 103.25,-202 103.25,-202 103.25,-202 623.62,-202 623.62,-202 623.62,-202 623.62,-194.12 623.62,-194.12"/>
<polygon fill="#757575" stroke="#757575" points="627.13,-194.12 623.62,-184.12 620.13,-194.12 627.13,-194.12"/>
</g>
<!-- let&#45;expression&#45;parsing.ts&#45;&gt;vm.ts -->
<g id="edge45" class="edge">
<title>let&#45;expression&#45;parsing.ts&#45;&gt;vm.ts</title>
<path fill="none" stroke="#757575" d="M41.75,-219.77C41.75,-176.41 41.75,-3 41.75,-3 41.75,-3 245.35,-3 245.35,-3"/>
<polygon fill="#757575" stroke="#757575" points="245.35,-6.5 255.35,-3 245.35,0.5 245.35,-6.5"/>
</g>
<!-- parser.ts&#45;&gt;vm.ts -->
<g id="edge47" class="edge">
<title>parser.ts&#45;&gt;vm.ts</title>
<path fill="none" stroke="#757575" d="M666.8,-58C575.75,-58 291.5,-58 291.5,-58 291.5,-58 291.5,-29.31 291.5,-29.31"/>
<polygon fill="#757575" stroke="#757575" points="295,-29.31 291.5,-19.31 288,-29.31 295,-29.31"/>
</g>
<!-- pointer&#45;validation.ts&#45;&gt;let&#45;binding.ts -->
<g id="edge48" class="edge">
<title>pointer&#45;validation.ts&#45;&gt;let&#45;binding.ts</title>
<path fill="none" stroke="#757575" d="M661.88,-329.67C661.88,-329.67 661.88,-194.07 661.88,-194.07"/>
<polygon fill="#757575" stroke="#757575" points="665.38,-194.07 661.88,-184.07 658.38,-194.07 665.38,-194.07"/>
</g>
<!-- pointer&#45;validation.ts&#45;&gt;parser.ts -->
<g id="edge49" class="edge">
<title>pointer&#45;validation.ts&#45;&gt;parser.ts</title>
<path fill="none" stroke="#757575" d="M715.7,-329.71C715.7,-329.71 715.7,-84.17 715.7,-84.17"/>
<polygon fill="#757575" stroke="#757575" points="719.2,-84.17 715.7,-74.17 712.2,-84.17 719.2,-84.17"/>
</g>
<!-- pointer&#45;validation.ts&#45;&gt;types.ts -->
<g id="edge50" class="edge">
<title>pointer&#45;validation.ts&#45;&gt;types.ts</title>
<path fill="none" stroke="#757575" d="M742.25,-329.92C742.25,-329.92 742.25,-304.34 742.25,-304.34"/>
<polygon fill="#757575" stroke="#757575" points="745.75,-304.34 742.25,-294.34 738.75,-304.34 745.75,-304.34"/>
</g>
<!-- reassignment&#45;parsing.ts&#45;&gt;instruction&#45;primitives.ts -->
<g id="edge51" class="edge">
<title>reassignment&#45;parsing.ts&#45;&gt;instruction&#45;primitives.ts</title>
<path fill="none" stroke="#757575" d="M1118.75,-164.88C1118.75,-156.95 1118.75,-147 1118.75,-147 1118.75,-147 330.5,-147 330.5,-147 330.5,-147 330.5,-139.12 330.5,-139.12"/>
<polygon fill="#757575" stroke="#757575" points="334,-139.12 330.5,-129.12 327,-139.12 334,-139.12"/>
</g>
<!-- reassignment&#45;parsing.ts&#45;&gt;parser.ts -->
<g id="edge52" class="edge">
<title>reassignment&#45;parsing.ts&#45;&gt;parser.ts</title>
<path fill="none" stroke="#757575" d="M1059.94,-175C994.97,-175 901,-175 901,-175 901,-175 901,-62 901,-62 901,-62 732.35,-62 732.35,-62"/>
<polygon fill="#757575" stroke="#757575" points="732.35,-58.5 722.35,-62 732.35,-65.5 732.35,-58.5"/>
</g>
<!-- reassignment&#45;parsing.ts&#45;&gt;vm.ts -->
<g id="edge53" class="edge">
<title>reassignment&#45;parsing.ts&#45;&gt;vm.ts</title>
<path fill="none" stroke="#757575" d="M1059.78,-173C998.38,-173 912.5,-173 912.5,-173 912.5,-173 912.5,-4 912.5,-4 912.5,-4 319.57,-4 319.57,-4"/>
<polygon fill="#757575" stroke="#757575" points="319.57,-0.5 309.57,-4 319.57,-7.5 319.57,-0.5"/>
</g>
<!-- reassignment&#45;validation.ts&#45;&gt;let&#45;binding.ts -->
<g id="edge54" class="edge">
<title>reassignment&#45;validation.ts&#45;&gt;let&#45;binding.ts</title>
<path fill="none" stroke="#757575" d="M1011.33,-329.88C1011.33,-295.11 1011.33,-178 1011.33,-178 1011.33,-178 695.52,-178 695.52,-178"/>
<polygon fill="#757575" stroke="#757575" points="695.52,-174.5 685.52,-178 695.52,-181.5 695.52,-174.5"/>
</g>
<!-- reassignment&#45;validation.ts&#45;&gt;reassignment&#45;parsing.ts -->
<g id="edge55" class="edge">
<title>reassignment&#45;validation.ts&#45;&gt;reassignment&#45;parsing.ts</title>
<path fill="none" stroke="#757575" d="M1055.25,-339C1079.12,-339 1100.33,-339 1100.33,-339 1100.33,-339 1100.33,-194.3 1100.33,-194.3"/>
<polygon fill="#757575" stroke="#757575" points="1103.83,-194.3 1100.33,-184.3 1096.83,-194.3 1103.83,-194.3"/>
</g>
<!-- reassignment&#45;validation.ts&#45;&gt;types.ts -->
<g id="edge56" class="edge">
<title>reassignment&#45;validation.ts&#45;&gt;types.ts</title>
<path fill="none" stroke="#757575" d="M967.67,-329.83C967.67,-313.93 967.67,-284 967.67,-284 967.67,-284 793.67,-284 793.67,-284"/>
<polygon fill="#757575" stroke="#757575" points="793.67,-280.5 783.67,-284 793.67,-287.5 793.67,-280.5"/>
</g>
<!-- types.ts&#45;&gt;instruction&#45;primitives.ts -->
<g id="edge59" class="edge">
<title>types.ts&#45;&gt;instruction&#45;primitives.ts</title>
<path fill="none" stroke="#757575" d="M729.45,-282C633.23,-282 313.33,-282 313.33,-282 313.33,-282 313.33,-139.18 313.33,-139.18"/>
<polygon fill="#757575" stroke="#757575" points="316.83,-139.18 313.33,-129.18 309.83,-139.18 316.83,-139.18"/>
</g>
<!-- types.ts&#45;&gt;parser.ts -->
<g id="edge60" class="edge">
<title>types.ts&#45;&gt;parser.ts</title>
<path fill="none" stroke="#757575" d="M729.2,-278C722.8,-278 717.8,-278 717.8,-278 717.8,-278 717.8,-84.23 717.8,-84.23"/>
<polygon fill="#757575" stroke="#757575" points="721.3,-84.23 717.8,-74.23 714.3,-84.23 721.3,-84.23"/>
</g>
<!-- types.ts&#45;&gt;vm.ts -->
<g id="edge61" class="edge">
<title>types.ts&#45;&gt;vm.ts</title>
<path fill="none" stroke="#757575" d="M747.5,-274.95C747.5,-226.15 747.5,-7 747.5,-7 747.5,-7 319.51,-7 319.51,-7"/>
<polygon fill="#757575" stroke="#757575" points="319.51,-3.5 309.51,-7 319.51,-10.5 319.51,-3.5"/>
</g>
<!-- types.ts&#45;&gt;array&#45;helpers.ts -->
<g id="edge58" class="edge">
<title>types.ts&#45;&gt;array&#45;helpers.ts</title>
<path fill="none" stroke="#757575" d="M765.5,-274.87C765.5,-259.71 765.5,-232 765.5,-232 765.5,-232 795.06,-232 795.06,-232"/>
<polygon fill="#757575" stroke="#757575" points="795.06,-235.5 805.06,-232 795.06,-228.5 795.06,-235.5"/>
</g>
<!-- validation.ts&#45;&gt;let&#45;binding.ts -->
<g id="edge62" class="edge">
<title>validation.ts&#45;&gt;let&#45;binding.ts</title>
<path fill="none" stroke="#757575" d="M811.82,-341C802.28,-341 794.5,-341 794.5,-341 794.5,-341 794.5,-181 794.5,-181 794.5,-181 695.72,-181 695.72,-181"/>
<polygon fill="#757575" stroke="#757575" points="695.72,-177.5 685.72,-181 695.72,-184.5 695.72,-177.5"/>
</g>
<!-- validation.ts&#45;&gt;parser.ts -->
<g id="edge63" class="edge">
<title>validation.ts&#45;&gt;parser.ts</title>
<path fill="none" stroke="#757575" d="M811.75,-333C805.98,-333 801.83,-333 801.83,-333 801.83,-333 801.83,-66 801.83,-66 801.83,-66 732.14,-66 732.14,-66"/>
<polygon fill="#757575" stroke="#757575" points="732.14,-62.5 722.14,-66 732.14,-69.5 732.14,-62.5"/>
</g>
<!-- validation.ts&#45;&gt;types.ts -->
<g id="edge65" class="edge">
<title>validation.ts&#45;&gt;types.ts</title>
<path fill="none" stroke="#757575" d="M811.95,-345C793.28,-345 774,-345 774,-345 774,-345 774,-304.22 774,-304.22"/>
<polygon fill="#757575" stroke="#757575" points="777.5,-304.22 774,-294.22 770.5,-304.22 777.5,-304.22"/>
</g>
<!-- validation.ts&#45;&gt;type&#45;inference&#45;helpers.ts -->
<g id="edge64" class="edge">
<title>validation.ts&#45;&gt;type&#45;inference&#45;helpers.ts</title>
<path fill="none" stroke="#757575" d="M811.89,-337C804.14,-337 798.17,-337 798.17,-337 798.17,-337 798.17,-122 798.17,-122 798.17,-122 721.69,-122 721.69,-122"/>
<polygon fill="#757575" stroke="#757575" points="721.69,-118.5 711.69,-122 721.69,-125.5 721.69,-118.5"/>
</g>
<!-- helpers.ts&#45;&gt;instruction&#45;primitives.ts -->
<g id="edge33" class="edge">
<title>helpers.ts&#45;&gt;instruction&#45;primitives.ts</title>
<path fill="none" stroke="#757575" d="M271.5,-164.92C271.5,-164.92 271.5,-139.34 271.5,-139.34"/>
<polygon fill="#757575" stroke="#757575" points="275,-139.34 271.5,-129.34 268,-139.34 275,-139.34"/>
</g>
<!-- helpers.ts&#45;&gt;vm.ts -->
<g id="edge34" class="edge">
<title>helpers.ts&#45;&gt;vm.ts</title>
<path fill="none" stroke="#757575" d="M241.74,-177C227.71,-177 214,-177 214,-177 214,-177 214,-15 214,-15 214,-15 245.43,-15 245.43,-15"/>
<polygon fill="#757575" stroke="#757575" points="245.43,-18.5 255.43,-15 245.43,-11.5 245.43,-18.5"/>
</g>
<!-- operator&#45;parsing.ts&#45;&gt;parser.ts -->
<g id="edge46" class="edge">
<title>operator&#45;parsing.ts&#45;&gt;parser.ts</title>
<path fill="none" stroke="#757575" d="M379.5,-164.69C379.5,-137.65 379.5,-64 379.5,-64 379.5,-64 656.82,-64 656.82,-64"/>
<polygon fill="#757575" stroke="#757575" points="656.82,-67.5 666.82,-64 656.82,-60.5 656.82,-67.5"/>
</g>
<!-- array&#45;compilation.ts -->
<g id="node17" class="node">
<title>array&#45;compilation.ts</title>
<path fill="none" stroke="#c6c5fe" d="M179.17,-184C179.17,-184 89.83,-184 89.83,-184 86.67,-184 83.5,-180.83 83.5,-177.67 83.5,-177.67 83.5,-171.33 83.5,-171.33 83.5,-168.17 86.67,-165 89.83,-165 89.83,-165 179.17,-165 179.17,-165 182.33,-165 185.5,-168.17 185.5,-171.33 185.5,-171.33 185.5,-177.67 185.5,-177.67 185.5,-180.83 182.33,-184 179.17,-184"/>
<text text-anchor="middle" x="134.5" y="-172" font-family="Arial" font-size="10.00" fill="#c6c5fe">array&#45;compilation.ts</text>
</g>
<!-- array&#45;compilation.ts&#45;&gt;instruction&#45;primitives.ts -->
<g id="edge19" class="edge">
<title>array&#45;compilation.ts&#45;&gt;instruction&#45;primitives.ts</title>
<path fill="none" stroke="#757575" d="M185.64,-171C209.51,-171 232.75,-171 232.75,-171 232.75,-171 232.75,-139.43 232.75,-139.43"/>
<polygon fill="#757575" stroke="#757575" points="236.25,-139.43 232.75,-129.43 229.25,-139.43 236.25,-139.43"/>
</g>
<!-- array&#45;compilation.ts&#45;&gt;vm.ts -->
<g id="edge20" class="edge">
<title>array&#45;compilation.ts&#45;&gt;vm.ts</title>
<path fill="none" stroke="#757575" d="M134.5,-164.52C134.5,-128.46 134.5,-7 134.5,-7 134.5,-7 245.35,-7 245.35,-7"/>
<polygon fill="#757575" stroke="#757575" points="245.35,-10.5 255.35,-7 245.35,-3.5 245.35,-10.5"/>
</g>
<!-- array&#45;helpers.ts&#45;&gt;array&#45;parsing.ts -->
<g id="edge21" class="edge">
<title>array&#45;helpers.ts&#45;&gt;array&#45;parsing.ts</title>
<path fill="none" stroke="#757575" d="M861.5,-219.74C861.5,-219.74 861.5,-139.08 861.5,-139.08"/>
<polygon fill="#757575" stroke="#757575" points="865,-139.08 861.5,-129.08 858,-139.08 865,-139.08"/>
</g>
<!-- array&#45;helpers.ts&#45;&gt;let&#45;binding.ts -->
<g id="edge22" class="edge">
<title>array&#45;helpers.ts&#45;&gt;let&#45;binding.ts</title>
<path fill="none" stroke="#757575" d="M805.07,-226C754.76,-226 677.62,-226 677.62,-226 677.62,-226 677.62,-194.43 677.62,-194.43"/>
<polygon fill="#757575" stroke="#757575" points="681.13,-194.43 677.62,-184.43 674.13,-194.43 681.13,-194.43"/>
</g>
<!-- array&#45;helpers.ts&#45;&gt;parser.ts -->
<g id="edge23" class="edge">
<title>array&#45;helpers.ts&#45;&gt;parser.ts</title>
<path fill="none" stroke="#757575" d="M805.37,-223C768.2,-223 719.9,-223 719.9,-223 719.9,-223 719.9,-84.41 719.9,-84.41"/>
<polygon fill="#757575" stroke="#757575" points="723.4,-84.41 719.9,-74.41 716.4,-84.41 723.4,-84.41"/>
</g>
<!-- comparison&#45;parsing.ts -->
<g id="node19" class="node">
<title>comparison&#45;parsing.ts</title>
<path fill="none" stroke="#c6c5fe" d="M286.67,-239C286.67,-239 186.33,-239 186.33,-239 183.17,-239 180,-235.83 180,-232.67 180,-232.67 180,-226.33 180,-226.33 180,-223.17 183.17,-220 186.33,-220 186.33,-220 286.67,-220 286.67,-220 289.83,-220 293,-223.17 293,-226.33 293,-226.33 293,-232.67 293,-232.67 293,-235.83 289.83,-239 286.67,-239"/>
<text text-anchor="middle" x="236.5" y="-227" font-family="Arial" font-size="10.00" fill="#c6c5fe">comparison&#45;parsing.ts</text>
</g>
<!-- comparison&#45;parsing.ts&#45;&gt;parser.ts -->
<g id="edge26" class="edge">
<title>comparison&#45;parsing.ts&#45;&gt;parser.ts</title>
<path fill="none" stroke="#757575" d="M204.5,-219.96C204.5,-184.31 204.5,-61 204.5,-61 204.5,-61 656.75,-61 656.75,-61"/>
<polygon fill="#757575" stroke="#757575" points="656.75,-64.5 666.75,-61 656.75,-57.5 656.75,-64.5"/>
</g>
<!-- comparison&#45;parsing.ts&#45;&gt;vm.ts -->
<g id="edge27" class="edge">
<title>comparison&#45;parsing.ts&#45;&gt;vm.ts</title>
<path fill="none" stroke="#757575" d="M195,-219.83C195,-177.54 195,-11 195,-11 195,-11 245.29,-11 245.29,-11"/>
<polygon fill="#757575" stroke="#757575" points="245.29,-14.5 255.29,-11 245.29,-7.5 245.29,-14.5"/>
</g>
<!-- comparison&#45;parsing.ts&#45;&gt;helpers.ts -->
<g id="edge24" class="edge">
<title>comparison&#45;parsing.ts&#45;&gt;helpers.ts</title>
<path fill="none" stroke="#757575" d="M267.5,-219.92C267.5,-219.92 267.5,-194.34 267.5,-194.34"/>
<polygon fill="#757575" stroke="#757575" points="271,-194.34 267.5,-184.34 264,-194.34 271,-194.34"/>
</g>
<!-- comparison&#45;parsing.ts&#45;&gt;operator&#45;parsing.ts -->
<g id="edge25" class="edge">
<title>comparison&#45;parsing.ts&#45;&gt;operator&#45;parsing.ts</title>
<path fill="none" stroke="#757575" d="M293.14,-235C322.59,-235 352.5,-235 352.5,-235 352.5,-235 352.5,-194.22 352.5,-194.22"/>
<polygon fill="#757575" stroke="#757575" points="356,-194.22 352.5,-184.22 349,-194.22 356,-194.22"/>
</g>
<!-- if&#45;expression&#45;parsing.ts -->
<g id="node20" class="node">
<title>if&#45;expression&#45;parsing.ts</title>
<path fill="none" stroke="#c6c5fe" d="M1171.17,-129C1171.17,-129 1065.83,-129 1065.83,-129 1062.67,-129 1059.5,-125.83 1059.5,-122.67 1059.5,-122.67 1059.5,-116.33 1059.5,-116.33 1059.5,-113.17 1062.67,-110 1065.83,-110 1065.83,-110 1171.17,-110 1171.17,-110 1174.33,-110 1177.5,-113.17 1177.5,-116.33 1177.5,-116.33 1177.5,-122.67 1177.5,-122.67 1177.5,-125.83 1174.33,-129 1171.17,-129"/>
<text text-anchor="middle" x="1118.5" y="-117" font-family="Arial" font-size="10.00" fill="#c6c5fe">if&#45;expression&#45;parsing.ts</text>
</g>
<!-- if&#45;expression&#45;parsing.ts&#45;&gt;parser.ts -->
<g id="edge35" class="edge">
<title>if&#45;expression&#45;parsing.ts&#45;&gt;parser.ts</title>
<path fill="none" stroke="#757575" d="M1098.83,-109.89C1098.83,-92.59 1098.83,-58 1098.83,-58 1098.83,-58 732.29,-58 732.29,-58"/>
<polygon fill="#757575" stroke="#757575" points="732.29,-54.5 722.29,-58 732.29,-61.5 732.29,-54.5"/>
</g>
<!-- if&#45;expression&#45;parsing.ts&#45;&gt;vm.ts -->
<g id="edge36" class="edge">
<title>if&#45;expression&#45;parsing.ts&#45;&gt;vm.ts</title>
<path fill="none" stroke="#757575" d="M1138.17,-109.88C1138.17,-81.82 1138.17,-2 1138.17,-2 1138.17,-2 319.52,-2 319.52,-2"/>
<polygon fill="#757575" stroke="#757575" points="319.52,1.5 309.52,-2 319.52,-5.5 319.52,1.5"/>
</g>
<!-- type&#45;inference&#45;helpers.ts&#45;&gt;parser.ts -->
<g id="edge57" class="edge">
<title>type&#45;inference&#45;helpers.ts&#45;&gt;parser.ts</title>
<path fill="none" stroke="#757575" d="M689.25,-109.92C689.25,-109.92 689.25,-84.34 689.25,-84.34"/>
<polygon fill="#757575" stroke="#757575" points="692.75,-84.34 689.25,-74.34 685.75,-84.34 692.75,-84.34"/>
</g>
</g>
</svg>
