<?xml version="1.0" encoding="UTF-8" standalone="no"?>
<!DOCTYPE svg PUBLIC "-//W3C//DTD SVG 1.1//EN"
 "http://www.w3.org/Graphics/SVG/1.1/DTD/svg11.dtd">
<!-- Generated by graphviz version 2.43.0 (0)
 -->
<!-- Title: G Pages: 1 -->
<svg width="1509pt" height="447pt"
 viewBox="0.00 0.00 1509.20 447.20" xmlns="http://www.w3.org/2000/svg" xmlns:xlink="http://www.w3.org/1999/xlink">
<g id="graph0" class="graph" transform="scale(1 1) rotate(0) translate(21.6 425.6)">
<title>G</title>
<polygon fill="#111111" stroke="transparent" points="-21.6,21.6 -21.6,-425.6 1487.6,-425.6 1487.6,21.6 -21.6,21.6"/>
<!-- app.ts -->
<g id="node1" class="node">
<title>app.ts</title>
<path fill="none" stroke="#c6c5fe" d="M681.67,-404C681.67,-404 640.33,-404 640.33,-404 637.17,-404 634,-400.83 634,-397.67 634,-397.67 634,-391.33 634,-391.33 634,-388.17 637.17,-385 640.33,-385 640.33,-385 681.67,-385 681.67,-385 684.83,-385 688,-388.17 688,-391.33 688,-391.33 688,-397.67 688,-397.67 688,-400.83 684.83,-404 681.67,-404"/>
<text text-anchor="middle" x="661" y="-392" font-family="Arial" font-size="10.00" fill="#c6c5fe">app.ts</text>
</g>
<!-- arithmetic&#45;parsing.ts -->
<g id="node2" class="node">
<title>arithmetic&#45;parsing.ts</title>
<path fill="none" stroke="#c6c5fe" d="M707.17,-349C707.17,-349 614.83,-349 614.83,-349 611.67,-349 608.5,-345.83 608.5,-342.67 608.5,-342.67 608.5,-336.33 608.5,-336.33 608.5,-333.17 611.67,-330 614.83,-330 614.83,-330 707.17,-330 707.17,-330 710.33,-330 713.5,-333.17 713.5,-336.33 713.5,-336.33 713.5,-342.67 713.5,-342.67 713.5,-345.83 710.33,-349 707.17,-349"/>
<text text-anchor="middle" x="661" y="-337" font-family="Arial" font-size="10.00" fill="#c6c5fe">arithmetic&#45;parsing.ts</text>
</g>
<!-- app.ts&#45;&gt;arithmetic&#45;parsing.ts -->
<g id="edge1" class="edge">
<title>app.ts&#45;&gt;arithmetic&#45;parsing.ts</title>
<path fill="none" stroke="#757575" d="M661,-384.92C661,-384.92 661,-359.34 661,-359.34"/>
<polygon fill="#757575" stroke="#757575" points="664.5,-359.34 661,-349.34 657.5,-359.34 664.5,-359.34"/>
</g>
<!-- array&#45;parsing.ts -->
<g id="node3" class="node">
<title>array&#45;parsing.ts</title>
<path fill="none" stroke="#cfffac" d="M278.67,-129C278.67,-129 207.33,-129 207.33,-129 204.17,-129 201,-125.83 201,-122.67 201,-122.67 201,-116.33 201,-116.33 201,-113.17 204.17,-110 207.33,-110 207.33,-110 278.67,-110 278.67,-110 281.83,-110 285,-113.17 285,-116.33 285,-116.33 285,-122.67 285,-122.67 285,-125.83 281.83,-129 278.67,-129"/>
<text text-anchor="middle" x="243" y="-117" font-family="Arial" font-size="10.00" fill="#cfffac">array&#45;parsing.ts</text>
</g>
<!-- app.ts&#45;&gt;array&#45;parsing.ts -->
<g id="edge2" class="edge">
<title>app.ts&#45;&gt;array&#45;parsing.ts</title>
<path fill="none" stroke="#757575" d="M633.92,-401C538.37,-401 222.75,-401 222.75,-401 222.75,-401 222.75,-139.19 222.75,-139.19"/>
<polygon fill="#757575" stroke="#757575" points="226.25,-139.19 222.75,-129.19 219.25,-139.19 226.25,-139.19"/>
</g>
<!-- expression&#45;with&#45;context.ts -->
<g id="node4" class="node">
<title>expression&#45;with&#45;context.ts</title>
<path fill="none" stroke="#c6c5fe" d="M1224.17,-349C1224.17,-349 1105.83,-349 1105.83,-349 1102.67,-349 1099.5,-345.83 1099.5,-342.67 1099.5,-342.67 1099.5,-336.33 1099.5,-336.33 1099.5,-333.17 1102.67,-330 1105.83,-330 1105.83,-330 1224.17,-330 1224.17,-330 1227.33,-330 1230.5,-333.17 1230.5,-336.33 1230.5,-336.33 1230.5,-342.67 1230.5,-342.67 1230.5,-345.83 1227.33,-349 1224.17,-349"/>
<text text-anchor="middle" x="1165" y="-337" font-family="Arial" font-size="10.00" fill="#c6c5fe">expression&#45;with&#45;context.ts</text>
</g>
<!-- app.ts&#45;&gt;expression&#45;with&#45;context.ts -->
<g id="edge3" class="edge">
<title>app.ts&#45;&gt;expression&#45;with&#45;context.ts</title>
<path fill="none" stroke="#757575" d="M688.1,-400C792.78,-400 1165,-400 1165,-400 1165,-400 1165,-359.22 1165,-359.22"/>
<polygon fill="#757575" stroke="#757575" points="1168.5,-359.22 1165,-349.22 1161.5,-359.22 1168.5,-359.22"/>
</g>
<!-- instruction&#45;primitives.ts -->
<g id="node5" class="node">
<title>instruction&#45;primitives.ts</title>
<path fill="none" stroke="#c6c5fe" d="M455.67,-74C455.67,-74 350.33,-74 350.33,-74 347.17,-74 344,-70.83 344,-67.67 344,-67.67 344,-61.33 344,-61.33 344,-58.17 347.17,-55 350.33,-55 350.33,-55 455.67,-55 455.67,-55 458.83,-55 462,-58.17 462,-61.33 462,-61.33 462,-67.67 462,-67.67 462,-70.83 458.83,-74 455.67,-74"/>
<text text-anchor="middle" x="403" y="-62" font-family="Arial" font-size="10.00" fill="#c6c5fe">instruction&#45;primitives.ts</text>
</g>
<!-- app.ts&#45;&gt;instruction&#45;primitives.ts -->
<g id="edge4" class="edge">
<title>app.ts&#45;&gt;instruction&#45;primitives.ts</title>
<path fill="none" stroke="#757575" d="M633.68,-394C572.67,-394 430.7,-394 430.7,-394 430.7,-394 430.7,-84.01 430.7,-84.01"/>
<polygon fill="#757575" stroke="#757575" points="434.2,-84.01 430.7,-74.01 427.2,-84.01 434.2,-84.01"/>
</g>
<!-- let&#45;binding.ts -->
<g id="node6" class="node">
<title>let&#45;binding.ts</title>
<path fill="none" stroke="#ff6c60" d="M787.67,-184C787.67,-184 728.33,-184 728.33,-184 725.17,-184 722,-180.83 722,-177.67 722,-177.67 722,-171.33 722,-171.33 722,-168.17 725.17,-165 728.33,-165 728.33,-165 787.67,-165 787.67,-165 790.83,-165 794,-168.17 794,-171.33 794,-171.33 794,-177.67 794,-177.67 794,-180.83 790.83,-184 787.67,-184"/>
<text text-anchor="middle" x="758" y="-172" font-family="Arial" font-size="10.00" fill="#ff6c60">let&#45;binding.ts</text>
</g>
<!-- app.ts&#45;&gt;let&#45;binding.ts -->
<g id="edge5" class="edge">
<title>app.ts&#45;&gt;let&#45;binding.ts</title>
<path fill="none" stroke="#757575" d="M633.81,-387C618.53,-387 602.5,-387 602.5,-387 602.5,-387 602.5,-181 602.5,-181 602.5,-181 711.93,-181 711.93,-181"/>
<polygon fill="#757575" stroke="#757575" points="711.93,-184.5 721.93,-181 711.93,-177.5 711.93,-184.5"/>
</g>
<!-- let&#45;expression&#45;parsing.ts -->
<g id="node7" class="node">
<title>let&#45;expression&#45;parsing.ts</title>
<path fill="none" stroke="#c6c5fe" d="M361.17,-239C361.17,-239 250.83,-239 250.83,-239 247.67,-239 244.5,-235.83 244.5,-232.67 244.5,-232.67 244.5,-226.33 244.5,-226.33 244.5,-223.17 247.67,-220 250.83,-220 250.83,-220 361.17,-220 361.17,-220 364.33,-220 367.5,-223.17 367.5,-226.33 367.5,-226.33 367.5,-232.67 367.5,-232.67 367.5,-235.83 364.33,-239 361.17,-239"/>
<text text-anchor="middle" x="306" y="-227" font-family="Arial" font-size="10.00" fill="#c6c5fe">let&#45;expression&#45;parsing.ts</text>
</g>
<!-- app.ts&#45;&gt;let&#45;expression&#45;parsing.ts -->
<g id="edge6" class="edge">
<title>app.ts&#45;&gt;let&#45;expression&#45;parsing.ts</title>
<path fill="none" stroke="#757575" d="M633.73,-399C550.61,-399 306,-399 306,-399 306,-399 306,-249.1 306,-249.1"/>
<polygon fill="#757575" stroke="#757575" points="309.5,-249.1 306,-239.1 302.5,-249.1 309.5,-249.1"/>
</g>
<!-- parser.ts -->
<g id="node8" class="node">
<title>parser.ts</title>
<path fill="none" stroke="#c6c5fe" d="M1054.17,-74C1054.17,-74 1011.83,-74 1011.83,-74 1008.67,-74 1005.5,-70.83 1005.5,-67.67 1005.5,-67.67 1005.5,-61.33 1005.5,-61.33 1005.5,-58.17 1008.67,-55 1011.83,-55 1011.83,-55 1054.17,-55 1054.17,-55 1057.33,-55 1060.5,-58.17 1060.5,-61.33 1060.5,-61.33 1060.5,-67.67 1060.5,-67.67 1060.5,-70.83 1057.33,-74 1054.17,-74"/>
<text text-anchor="middle" x="1033" y="-62" font-family="Arial" font-size="10.00" fill="#c6c5fe">parser.ts</text>
</g>
<!-- app.ts&#45;&gt;parser.ts -->
<g id="edge7" class="edge">
<title>app.ts&#45;&gt;parser.ts</title>
<path fill="none" stroke="#757575" d="M688.28,-397C775.93,-397 1044.64,-397 1044.64,-397 1044.64,-397 1044.64,-84.09 1044.64,-84.09"/>
<polygon fill="#757575" stroke="#757575" points="1048.14,-84.09 1044.64,-74.09 1041.14,-84.09 1048.14,-84.09"/>
</g>
<!-- pointer&#45;validation.ts -->
<g id="node9" class="node">
<title>pointer&#45;validation.ts</title>
<path fill="none" stroke="#c6c5fe" d="M865.17,-349C865.17,-349 776.83,-349 776.83,-349 773.67,-349 770.5,-345.83 770.5,-342.67 770.5,-342.67 770.5,-336.33 770.5,-336.33 770.5,-333.17 773.67,-330 776.83,-330 776.83,-330 865.17,-330 865.17,-330 868.33,-330 871.5,-333.17 871.5,-336.33 871.5,-336.33 871.5,-342.67 871.5,-342.67 871.5,-345.83 868.33,-349 865.17,-349"/>
<text text-anchor="middle" x="821" y="-337" font-family="Arial" font-size="10.00" fill="#c6c5fe">pointer&#45;validation.ts</text>
</g>
<!-- app.ts&#45;&gt;pointer&#45;validation.ts -->
<g id="edge8" class="edge">
<title>app.ts&#45;&gt;pointer&#45;validation.ts</title>
<path fill="none" stroke="#757575" d="M688.14,-391C733.79,-391 821,-391 821,-391 821,-391 821,-359.43 821,-359.43"/>
<polygon fill="#757575" stroke="#757575" points="824.5,-359.43 821,-349.43 817.5,-359.43 824.5,-359.43"/>
</g>
<!-- reassignment&#45;parsing.ts -->
<g id="node10" class="node">
<title>reassignment&#45;parsing.ts</title>
<path fill="none" stroke="#c6c5fe" d="M417.17,-129C417.17,-129 308.83,-129 308.83,-129 305.67,-129 302.5,-125.83 302.5,-122.67 302.5,-122.67 302.5,-116.33 302.5,-116.33 302.5,-113.17 305.67,-110 308.83,-110 308.83,-110 417.17,-110 417.17,-110 420.33,-110 423.5,-113.17 423.5,-116.33 423.5,-116.33 423.5,-122.67 423.5,-122.67 423.5,-125.83 420.33,-129 417.17,-129"/>
<text text-anchor="middle" x="363" y="-117" font-family="Arial" font-size="10.00" fill="#c6c5fe">reassignment&#45;parsing.ts</text>
</g>
<!-- app.ts&#45;&gt;reassignment&#45;parsing.ts -->
<g id="edge9" class="edge">
<title>app.ts&#45;&gt;reassignment&#45;parsing.ts</title>
<path fill="none" stroke="#757575" d="M633.59,-396C565.75,-396 395.5,-396 395.5,-396 395.5,-396 395.5,-139.02 395.5,-139.02"/>
<polygon fill="#757575" stroke="#757575" points="399,-139.02 395.5,-129.02 392,-139.02 399,-139.02"/>
</g>
<!-- reassignment&#45;validation.ts -->
<g id="node11" class="node">
<title>reassignment&#45;validation.ts</title>
<path fill="none" stroke="#c6c5fe" d="M584.17,-349C584.17,-349 465.83,-349 465.83,-349 462.67,-349 459.5,-345.83 459.5,-342.67 459.5,-342.67 459.5,-336.33 459.5,-336.33 459.5,-333.17 462.67,-330 465.83,-330 465.83,-330 584.17,-330 584.17,-330 587.33,-330 590.5,-333.17 590.5,-336.33 590.5,-336.33 590.5,-342.67 590.5,-342.67 590.5,-345.83 587.33,-349 584.17,-349"/>
<text text-anchor="middle" x="525" y="-337" font-family="Arial" font-size="10.00" fill="#c6c5fe">reassignment&#45;validation.ts</text>
</g>
<!-- app.ts&#45;&gt;reassignment&#45;validation.ts -->
<g id="edge10" class="edge">
<title>app.ts&#45;&gt;reassignment&#45;validation.ts</title>
<path fill="none" stroke="#757575" d="M633.81,-392C594.12,-392 525,-392 525,-392 525,-392 525,-359.13 525,-359.13"/>
<polygon fill="#757575" stroke="#757575" points="528.5,-359.13 525,-349.13 521.5,-359.13 528.5,-359.13"/>
</g>
<!-- types.ts -->
<g id="node12" class="node">
<title>types.ts</title>
<path fill="none" stroke="#c6c5fe" d="M786.67,-294C786.67,-294 745.33,-294 745.33,-294 742.17,-294 739,-290.83 739,-287.67 739,-287.67 739,-281.33 739,-281.33 739,-278.17 742.17,-275 745.33,-275 745.33,-275 786.67,-275 786.67,-275 789.83,-275 793,-278.17 793,-281.33 793,-281.33 793,-287.67 793,-287.67 793,-290.83 789.83,-294 786.67,-294"/>
<text text-anchor="middle" x="766" y="-282" font-family="Arial" font-size="10.00" fill="#c6c5fe">types.ts</text>
</g>
<!-- app.ts&#45;&gt;types.ts -->
<g id="edge11" class="edge">
<title>app.ts&#45;&gt;types.ts</title>
<path fill="none" stroke="#757575" d="M688.05,-388C717.36,-388 760,-388 760,-388 760,-388 760,-304.05 760,-304.05"/>
<polygon fill="#757575" stroke="#757575" points="763.5,-304.05 760,-294.05 756.5,-304.05 763.5,-304.05"/>
</g>
<!-- validation.ts -->
<g id="node13" class="node">
<title>validation.ts</title>
<path fill="none" stroke="#c6c5fe" d="M991.17,-349C991.17,-349 934.83,-349 934.83,-349 931.67,-349 928.5,-345.83 928.5,-342.67 928.5,-342.67 928.5,-336.33 928.5,-336.33 928.5,-333.17 931.67,-330 934.83,-330 934.83,-330 991.17,-330 991.17,-330 994.33,-330 997.5,-333.17 997.5,-336.33 997.5,-336.33 997.5,-342.67 997.5,-342.67 997.5,-345.83 994.33,-349 991.17,-349"/>
<text text-anchor="middle" x="963" y="-337" font-family="Arial" font-size="10.00" fill="#c6c5fe">validation.ts</text>
</g>
<!-- app.ts&#45;&gt;validation.ts -->
<g id="edge12" class="edge">
<title>app.ts&#45;&gt;validation.ts</title>
<path fill="none" stroke="#757575" d="M688.07,-394C762.19,-394 963,-394 963,-394 963,-394 963,-359.24 963,-359.24"/>
<polygon fill="#757575" stroke="#757575" points="966.5,-359.24 963,-349.24 959.5,-359.24 966.5,-359.24"/>
</g>
<!-- vm.ts -->
<g id="node14" class="node">
<title>vm.ts</title>
<path fill="none" stroke="#cfffac" d="M543.67,-19C543.67,-19 502.33,-19 502.33,-19 499.17,-19 496,-15.83 496,-12.67 496,-12.67 496,-6.33 496,-6.33 496,-3.17 499.17,0 502.33,0 502.33,0 543.67,0 543.67,0 546.83,0 550,-3.17 550,-6.33 550,-6.33 550,-12.67 550,-12.67 550,-15.83 546.83,-19 543.67,-19"/>
<text text-anchor="middle" x="523" y="-7" font-family="Arial" font-size="10.00" fill="#cfffac">vm.ts</text>
</g>
<!-- app.ts&#45;&gt;vm.ts -->
<g id="edge13" class="edge">
<title>app.ts&#45;&gt;vm.ts</title>
<path fill="none" stroke="#757575" d="M633.65,-389C616.07,-389 596.5,-389 596.5,-389 596.5,-389 596.5,-290 596.5,-290 596.5,-290 520,-290 520,-290 520,-290 520,-29.16 520,-29.16"/>
<polygon fill="#757575" stroke="#757575" points="523.5,-29.16 520,-19.16 516.5,-29.16 523.5,-29.16"/>
</g>
<!-- arithmetic&#45;parsing.ts&#45;&gt;parser.ts -->
<g id="edge16" class="edge">
<title>arithmetic&#45;parsing.ts&#45;&gt;parser.ts</title>
<path fill="none" stroke="#757575" d="M652.5,-329.8C652.5,-281.26 652.5,-67 652.5,-67 652.5,-67 995.33,-67 995.33,-67"/>
<polygon fill="#757575" stroke="#757575" points="995.33,-70.5 1005.33,-67 995.33,-63.5 995.33,-70.5"/>
</g>
<!-- arithmetic&#45;parsing.ts&#45;&gt;types.ts -->
<g id="edge17" class="edge">
<title>arithmetic&#45;parsing.ts&#45;&gt;types.ts</title>
<path fill="none" stroke="#757575" d="M713.5,-339C732.56,-339 749.5,-339 749.5,-339 749.5,-339 749.5,-304.24 749.5,-304.24"/>
<polygon fill="#757575" stroke="#757575" points="753,-304.24 749.5,-294.24 746,-304.24 753,-304.24"/>
</g>
<!-- arithmetic&#45;parsing.ts&#45;&gt;vm.ts -->
<g id="edge18" class="edge">
<title>arithmetic&#45;parsing.ts&#45;&gt;vm.ts</title>
<path fill="none" stroke="#757575" d="M634,-329.79C634,-275.8 634,-15 634,-15 634,-15 560.15,-15 560.15,-15"/>
<polygon fill="#757575" stroke="#757575" points="560.15,-11.5 550.15,-15 560.15,-18.5 560.15,-11.5"/>
</g>
<!-- helpers.ts -->
<g id="node15" class="node">
<title>helpers.ts</title>
<path fill="none" stroke="#c6c5fe" d="M609.17,-129C609.17,-129 562.83,-129 562.83,-129 559.67,-129 556.5,-125.83 556.5,-122.67 556.5,-122.67 556.5,-116.33 556.5,-116.33 556.5,-113.17 559.67,-110 562.83,-110 562.83,-110 609.17,-110 609.17,-110 612.33,-110 615.5,-113.17 615.5,-116.33 615.5,-116.33 615.5,-122.67 615.5,-122.67 615.5,-125.83 612.33,-129 609.17,-129"/>
<text text-anchor="middle" x="586" y="-117" font-family="Arial" font-size="10.00" fill="#c6c5fe">helpers.ts</text>
</g>
<!-- arithmetic&#45;parsing.ts&#45;&gt;helpers.ts -->
<g id="edge14" class="edge">
<title>arithmetic&#45;parsing.ts&#45;&gt;helpers.ts</title>
<path fill="none" stroke="#757575" d="M610.83,-329.76C610.83,-329.76 610.83,-139.12 610.83,-139.12"/>
<polygon fill="#757575" stroke="#757575" points="614.33,-139.12 610.83,-129.12 607.33,-139.12 614.33,-139.12"/>
</g>
<!-- operator&#45;parsing.ts -->
<g id="node16" class="node">
<title>operator&#45;parsing.ts</title>
<path fill="none" stroke="#c6c5fe" d="M1171.67,-129C1171.67,-129 1086.33,-129 1086.33,-129 1083.17,-129 1080,-125.83 1080,-122.67 1080,-122.67 1080,-116.33 1080,-116.33 1080,-113.17 1083.17,-110 1086.33,-110 1086.33,-110 1171.67,-110 1171.67,-110 1174.83,-110 1178,-113.17 1178,-116.33 1178,-116.33 1178,-122.67 1178,-122.67 1178,-125.83 1174.83,-129 1171.67,-129"/>
<text text-anchor="middle" x="1129" y="-117" font-family="Arial" font-size="10.00" fill="#c6c5fe">operator&#45;parsing.ts</text>
</g>
<!-- arithmetic&#45;parsing.ts&#45;&gt;operator&#45;parsing.ts -->
<g id="edge15" class="edge">
<title>arithmetic&#45;parsing.ts&#45;&gt;operator&#45;parsing.ts</title>
<path fill="none" stroke="#757575" d="M692.25,-329.88C692.25,-321.95 692.25,-312 692.25,-312 692.25,-312 1089.75,-312 1089.75,-312 1089.75,-312 1089.75,-139.05 1089.75,-139.05"/>
<polygon fill="#757575" stroke="#757575" points="1093.25,-139.05 1089.75,-129.05 1086.25,-139.05 1093.25,-139.05"/>
</g>
<!-- expression&#45;with&#45;context.ts&#45;&gt;let&#45;binding.ts -->
<g id="edge32" class="edge">
<title>expression&#45;with&#45;context.ts&#45;&gt;let&#45;binding.ts</title>
<path fill="none" stroke="#757575" d="M1138.75,-329.96C1138.75,-303.65 1138.75,-232 1138.75,-232 1138.75,-232 774,-232 774,-232 774,-232 774,-194.25 774,-194.25"/>
<polygon fill="#757575" stroke="#757575" points="777.5,-194.25 774,-184.25 770.5,-194.25 777.5,-194.25"/>
</g>
<!-- expression&#45;with&#45;context.ts&#45;&gt;parser.ts -->
<g id="edge34" class="edge">
<title>expression&#45;with&#45;context.ts&#45;&gt;parser.ts</title>
<path fill="none" stroke="#757575" d="M1099.4,-342C1073.56,-342 1049.93,-342 1049.93,-342 1049.93,-342 1049.93,-84.05 1049.93,-84.05"/>
<polygon fill="#757575" stroke="#757575" points="1053.43,-84.05 1049.93,-74.05 1046.43,-84.05 1053.43,-84.05"/>
</g>
<!-- expression&#45;with&#45;context.ts&#45;&gt;types.ts -->
<g id="edge35" class="edge">
<title>expression&#45;with&#45;context.ts&#45;&gt;types.ts</title>
<path fill="none" stroke="#757575" d="M1119.12,-329.83C1119.12,-313.93 1119.12,-284 1119.12,-284 1119.12,-284 803.12,-284 803.12,-284"/>
<polygon fill="#757575" stroke="#757575" points="803.12,-280.5 793.12,-284 803.12,-287.5 803.12,-280.5"/>
</g>
<!-- expression&#45;with&#45;context.ts&#45;&gt;vm.ts -->
<g id="edge36" class="edge">
<title>expression&#45;with&#45;context.ts&#45;&gt;vm.ts</title>
<path fill="none" stroke="#757575" d="M1204.25,-329.91C1204.25,-275.39 1204.25,-7 1204.25,-7 1204.25,-7 560.13,-7 560.13,-7"/>
<polygon fill="#757575" stroke="#757575" points="560.13,-3.5 550.13,-7 560.13,-10.5 560.13,-3.5"/>
</g>
<!-- expression&#45;with&#45;context.ts&#45;&gt;operator&#45;parsing.ts -->
<g id="edge33" class="edge">
<title>expression&#45;with&#45;context.ts&#45;&gt;operator&#45;parsing.ts</title>
<path fill="none" stroke="#757575" d="M1158.38,-329.76C1158.38,-329.76 1158.38,-139.12 1158.38,-139.12"/>
<polygon fill="#757575" stroke="#757575" points="1161.88,-139.12 1158.38,-129.12 1154.88,-139.12 1161.88,-139.12"/>
</g>
<!-- instruction&#45;primitives.ts&#45;&gt;vm.ts -->
<g id="edge41" class="edge">
<title>instruction&#45;primitives.ts&#45;&gt;vm.ts</title>
<path fill="none" stroke="#757575" d="M462.02,-58C483.22,-58 502,-58 502,-58 502,-58 502,-29.31 502,-29.31"/>
<polygon fill="#757575" stroke="#757575" points="505.5,-29.31 502,-19.31 498.5,-29.31 505.5,-29.31"/>
</g>
<!-- let&#45;binding.ts&#45;&gt;array&#45;parsing.ts -->
<g id="edge43" class="edge">
<title>let&#45;binding.ts&#45;&gt;array&#45;parsing.ts</title>
<path fill="none" stroke="#757575" d="M721.83,-173C609.08,-173 271.5,-173 271.5,-173 271.5,-173 271.5,-139.31 271.5,-139.31"/>
<polygon fill="#757575" stroke="#757575" points="275,-139.31 271.5,-129.31 268,-139.31 275,-139.31"/>
</g>
<!-- let&#45;binding.ts&#45;&gt;instruction&#45;primitives.ts -->
<g id="edge44" class="edge">
<title>let&#45;binding.ts&#45;&gt;instruction&#45;primitives.ts</title>
<path fill="none" stroke="#757575" d="M721.8,-170C639.44,-170 445.1,-170 445.1,-170 445.1,-170 445.1,-84.24 445.1,-84.24"/>
<polygon fill="#757575" stroke="#757575" points="448.6,-84.24 445.1,-74.24 441.6,-84.24 448.6,-84.24"/>
</g>
<!-- let&#45;binding.ts&#45;&gt;parser.ts -->
<g id="edge45" class="edge">
<title>let&#45;binding.ts&#45;&gt;parser.ts</title>
<path fill="none" stroke="#757575" d="M754,-164.86C754,-138.99 754,-70 754,-70 754,-70 995.48,-70 995.48,-70"/>
<polygon fill="#757575" stroke="#757575" points="995.48,-73.5 1005.48,-70 995.48,-66.5 995.48,-73.5"/>
</g>
<!-- let&#45;binding.ts&#45;&gt;vm.ts -->
<g id="edge47" class="edge">
<title>let&#45;binding.ts&#45;&gt;vm.ts</title>
<path fill="none" stroke="#757575" d="M721.94,-167C658.13,-167 532,-167 532,-167 532,-167 532,-29.35 532,-29.35"/>
<polygon fill="#757575" stroke="#757575" points="535.5,-29.35 532,-19.35 528.5,-29.35 535.5,-29.35"/>
</g>
<!-- array&#45;helpers.ts -->
<g id="node19" class="node">
<title>array&#45;helpers.ts</title>
<path fill="none" stroke="#ff6c60" d="M748.67,-239C748.67,-239 677.33,-239 677.33,-239 674.17,-239 671,-235.83 671,-232.67 671,-232.67 671,-226.33 671,-226.33 671,-223.17 674.17,-220 677.33,-220 677.33,-220 748.67,-220 748.67,-220 751.83,-220 755,-223.17 755,-226.33 755,-226.33 755,-232.67 755,-232.67 755,-235.83 751.83,-239 748.67,-239"/>
<text text-anchor="middle" x="713" y="-227" font-family="Arial" font-size="10.00" fill="#ff6c60">array&#45;helpers.ts</text>
</g>
<!-- let&#45;binding.ts&#45;&gt;array&#45;helpers.ts -->
<g id="edge42" class="edge">
<title>let&#45;binding.ts&#45;&gt;array&#45;helpers.ts</title>
<path fill="none" stroke="#757575" d="M733,-184.08C733,-184.08 733,-209.66 733,-209.66"/>
<polygon fill="#757575" stroke="#757575" points="729.5,-209.66 733,-219.66 736.5,-209.66 729.5,-209.66"/>
</g>
<!-- type&#45;inference&#45;helpers.ts -->
<g id="node22" class="node">
<title>type&#45;inference&#45;helpers.ts</title>
<path fill="none" stroke="#c6c5fe" d="M903.67,-129C903.67,-129 792.33,-129 792.33,-129 789.17,-129 786,-125.83 786,-122.67 786,-122.67 786,-116.33 786,-116.33 786,-113.17 789.17,-110 792.33,-110 792.33,-110 903.67,-110 903.67,-110 906.83,-110 910,-113.17 910,-116.33 910,-116.33 910,-122.67 910,-122.67 910,-125.83 906.83,-129 903.67,-129"/>
<text text-anchor="middle" x="848" y="-117" font-family="Arial" font-size="10.00" fill="#c6c5fe">type&#45;inference&#45;helpers.ts</text>
</g>
<!-- let&#45;binding.ts&#45;&gt;type&#45;inference&#45;helpers.ts -->
<g id="edge46" class="edge">
<title>let&#45;binding.ts&#45;&gt;type&#45;inference&#45;helpers.ts</title>
<path fill="none" stroke="#757575" d="M790,-164.92C790,-164.92 790,-139.34 790,-139.34"/>
<polygon fill="#757575" stroke="#757575" points="793.5,-139.34 790,-129.34 786.5,-139.34 793.5,-139.34"/>
</g>
<!-- let&#45;expression&#45;parsing.ts&#45;&gt;let&#45;binding.ts -->
<g id="edge48" class="edge">
<title>let&#45;expression&#45;parsing.ts&#45;&gt;let&#45;binding.ts</title>
<path fill="none" stroke="#757575" d="M335,-219.76C335,-204.08 335,-175 335,-175 335,-175 711.94,-175 711.94,-175"/>
<polygon fill="#757575" stroke="#757575" points="711.94,-178.5 721.94,-175 711.94,-171.5 711.94,-178.5"/>
</g>
<!-- let&#45;expression&#45;parsing.ts&#45;&gt;vm.ts -->
<g id="edge49" class="edge">
<title>let&#45;expression&#45;parsing.ts&#45;&gt;vm.ts</title>
<path fill="none" stroke="#757575" d="M367.56,-229C428.9,-229 514,-229 514,-229 514,-229 514,-29.21 514,-29.21"/>
<polygon fill="#757575" stroke="#757575" points="517.5,-29.21 514,-19.21 510.5,-29.21 517.5,-29.21"/>
</g>
<!-- parser.ts&#45;&gt;vm.ts -->
<g id="edge51" class="edge">
<title>parser.ts&#45;&gt;vm.ts</title>
<path fill="none" stroke="#757575" d="M1005.31,-61C901.86,-61 544,-61 544,-61 544,-61 544,-29.43 544,-29.43"/>
<polygon fill="#757575" stroke="#757575" points="547.5,-29.43 544,-19.43 540.5,-29.43 547.5,-29.43"/>
</g>
<!-- pointer&#45;validation.ts&#45;&gt;let&#45;binding.ts -->
<g id="edge52" class="edge">
<title>pointer&#45;validation.ts&#45;&gt;let&#45;binding.ts</title>
<path fill="none" stroke="#757575" d="M819.83,-329.82C819.83,-294.84 819.83,-177 819.83,-177 819.83,-177 804.33,-177 804.33,-177"/>
<polygon fill="#757575" stroke="#757575" points="804.33,-173.5 794.33,-177 804.33,-180.5 804.33,-173.5"/>
</g>
<!-- pointer&#45;validation.ts&#45;&gt;parser.ts -->
<g id="edge53" class="edge">
<title>pointer&#45;validation.ts&#45;&gt;parser.ts</title>
<path fill="none" stroke="#757575" d="M845.67,-329.93C845.67,-290.27 845.67,-141 845.67,-141 845.67,-141 1012.7,-141 1012.7,-141 1012.7,-141 1012.7,-84.19 1012.7,-84.19"/>
<polygon fill="#757575" stroke="#757575" points="1016.2,-84.19 1012.7,-74.19 1009.2,-84.19 1016.2,-84.19"/>
</g>
<!-- pointer&#45;validation.ts&#45;&gt;types.ts -->
<g id="edge54" class="edge">
<title>pointer&#45;validation.ts&#45;&gt;types.ts</title>
<path fill="none" stroke="#757575" d="M781.75,-329.92C781.75,-329.92 781.75,-304.34 781.75,-304.34"/>
<polygon fill="#757575" stroke="#757575" points="785.25,-304.34 781.75,-294.34 778.25,-304.34 785.25,-304.34"/>
</g>
<!-- reassignment&#45;parsing.ts&#45;&gt;instruction&#45;primitives.ts -->
<g id="edge55" class="edge">
<title>reassignment&#45;parsing.ts&#45;&gt;instruction&#45;primitives.ts</title>
<path fill="none" stroke="#757575" d="M383.75,-109.92C383.75,-109.92 383.75,-84.34 383.75,-84.34"/>
<polygon fill="#757575" stroke="#757575" points="387.25,-84.34 383.75,-74.34 380.25,-84.34 387.25,-84.34"/>
</g>
<!-- reassignment&#45;parsing.ts&#45;&gt;parser.ts -->
<g id="edge56" class="edge">
<title>reassignment&#45;parsing.ts&#45;&gt;parser.ts</title>
<path fill="none" stroke="#757575" d="M423.65,-116C449.29,-116 473.33,-116 473.33,-116 473.33,-116 473.33,-64 473.33,-64 473.33,-64 995.25,-64 995.25,-64"/>
<polygon fill="#757575" stroke="#757575" points="995.25,-67.5 1005.25,-64 995.25,-60.5 995.25,-67.5"/>
</g>
<!-- reassignment&#45;parsing.ts&#45;&gt;vm.ts -->
<g id="edge57" class="edge">
<title>reassignment&#45;parsing.ts&#45;&gt;vm.ts</title>
<path fill="none" stroke="#757575" d="M423.65,-119C463.39,-119 508,-119 508,-119 508,-119 508,-29.22 508,-29.22"/>
<polygon fill="#757575" stroke="#757575" points="511.5,-29.22 508,-19.22 504.5,-29.22 511.5,-29.22"/>
</g>
<!-- reassignment&#45;validation.ts&#45;&gt;let&#45;binding.ts -->
<g id="edge58" class="edge">
<title>reassignment&#45;validation.ts&#45;&gt;let&#45;binding.ts</title>
<path fill="none" stroke="#757575" d="M567.83,-329.88C567.83,-295.11 567.83,-178 567.83,-178 567.83,-178 711.78,-178 711.78,-178"/>
<polygon fill="#757575" stroke="#757575" points="711.78,-181.5 721.78,-178 711.78,-174.5 711.78,-181.5"/>
</g>
<!-- reassignment&#45;validation.ts&#45;&gt;reassignment&#45;parsing.ts -->
<g id="edge59" class="edge">
<title>reassignment&#45;validation.ts&#45;&gt;reassignment&#45;parsing.ts</title>
<path fill="none" stroke="#757575" d="M484.67,-329.73C484.67,-287.76 484.67,-125 484.67,-125 484.67,-125 433.83,-125 433.83,-125"/>
<polygon fill="#757575" stroke="#757575" points="433.83,-121.5 423.83,-125 433.83,-128.5 433.83,-121.5"/>
</g>
<!-- reassignment&#45;validation.ts&#45;&gt;types.ts -->
<g id="edge60" class="edge">
<title>reassignment&#45;validation.ts&#45;&gt;types.ts</title>
<path fill="none" stroke="#757575" d="M579.17,-329.69C579.17,-314.24 579.17,-286 579.17,-286 579.17,-286 728.83,-286 728.83,-286"/>
<polygon fill="#757575" stroke="#757575" points="728.83,-289.5 738.83,-286 728.83,-282.5 728.83,-289.5"/>
</g>
<!-- types.ts&#45;&gt;instruction&#45;primitives.ts -->
<g id="edge63" class="edge">
<title>types.ts&#45;&gt;instruction&#45;primitives.ts</title>
<path fill="none" stroke="#757575" d="M738.87,-282C660.26,-282 437.9,-282 437.9,-282 437.9,-282 437.9,-84.13 437.9,-84.13"/>
<polygon fill="#757575" stroke="#757575" points="441.4,-84.13 437.9,-74.13 434.4,-84.13 441.4,-84.13"/>
</g>
<!-- types.ts&#45;&gt;parser.ts -->
<g id="edge64" class="edge">
<title>types.ts&#45;&gt;parser.ts</title>
<path fill="none" stroke="#757575" d="M793.18,-279C861.33,-279 1034.07,-279 1034.07,-279 1034.07,-279 1034.07,-84.27 1034.07,-84.27"/>
<polygon fill="#757575" stroke="#757575" points="1037.57,-84.27 1034.07,-74.27 1030.57,-84.27 1037.57,-84.27"/>
</g>
<!-- types.ts&#45;&gt;vm.ts -->
<g id="edge65" class="edge">
<title>types.ts&#45;&gt;vm.ts</title>
<path fill="none" stroke="#757575" d="M738.94,-278C676.17,-278 526,-278 526,-278 526,-278 526,-29.06 526,-29.06"/>
<polygon fill="#757575" stroke="#757575" points="529.5,-29.06 526,-19.06 522.5,-29.06 529.5,-29.06"/>
</g>
<!-- types.ts&#45;&gt;array&#45;helpers.ts -->
<g id="edge62" class="edge">
<title>types.ts&#45;&gt;array&#45;helpers.ts</title>
<path fill="none" stroke="#757575" d="M747,-274.92C747,-274.92 747,-249.34 747,-249.34"/>
<polygon fill="#757575" stroke="#757575" points="750.5,-249.34 747,-239.34 743.5,-249.34 750.5,-249.34"/>
</g>
<!-- validation.ts&#45;&gt;let&#45;binding.ts -->
<g id="edge66" class="edge">
<title>validation.ts&#45;&gt;let&#45;binding.ts</title>
<path fill="none" stroke="#757575" d="M928.27,-342C907.19,-342 884.33,-342 884.33,-342 884.33,-342 884.33,-171 884.33,-171 884.33,-171 804.2,-171 804.2,-171"/>
<polygon fill="#757575" stroke="#757575" points="804.2,-167.5 794.2,-171 804.2,-174.5 804.2,-167.5"/>
</g>
<!-- validation.ts&#45;&gt;parser.ts -->
<g id="edge67" class="edge">
<title>validation.ts&#45;&gt;parser.ts</title>
<path fill="none" stroke="#757575" d="M997.6,-336C1017.81,-336 1039.36,-336 1039.36,-336 1039.36,-336 1039.36,-84.16 1039.36,-84.16"/>
<polygon fill="#757575" stroke="#757575" points="1042.86,-84.16 1039.36,-74.16 1035.86,-84.16 1042.86,-84.16"/>
</g>
<!-- validation.ts&#45;&gt;types.ts -->
<g id="edge69" class="edge">
<title>validation.ts&#45;&gt;types.ts</title>
<path fill="none" stroke="#757575" d="M963,-329.76C963,-315.09 963,-289 963,-289 963,-289 803.39,-289 803.39,-289"/>
<polygon fill="#757575" stroke="#757575" points="803.39,-285.5 793.39,-289 803.39,-292.5 803.39,-285.5"/>
</g>
<!-- validation.ts&#45;&gt;type&#45;inference&#45;helpers.ts -->
<g id="edge68" class="edge">
<title>validation.ts&#45;&gt;type&#45;inference&#45;helpers.ts</title>
<path fill="none" stroke="#757575" d="M928.16,-336C912.36,-336 897.17,-336 897.17,-336 897.17,-336 897.17,-139.08 897.17,-139.08"/>
<polygon fill="#757575" stroke="#757575" points="900.67,-139.08 897.17,-129.08 893.67,-139.08 900.67,-139.08"/>
</g>
<!-- helpers.ts&#45;&gt;instruction&#45;primitives.ts -->
<g id="edge37" class="edge">
<title>helpers.ts&#45;&gt;instruction&#45;primitives.ts</title>
<path fill="none" stroke="#757575" d="M556.33,-122C516.94,-122 452.3,-122 452.3,-122 452.3,-122 452.3,-84.25 452.3,-84.25"/>
<polygon fill="#757575" stroke="#757575" points="455.8,-84.25 452.3,-74.25 448.8,-84.25 455.8,-84.25"/>
</g>
<!-- helpers.ts&#45;&gt;vm.ts -->
<g id="edge38" class="edge">
<title>helpers.ts&#45;&gt;vm.ts</title>
<path fill="none" stroke="#757575" d="M556.42,-113C546.54,-113 538,-113 538,-113 538,-113 538,-29.05 538,-29.05"/>
<polygon fill="#757575" stroke="#757575" points="541.5,-29.05 538,-19.05 534.5,-29.05 541.5,-29.05"/>
</g>
<!-- operator&#45;parsing.ts&#45;&gt;parser.ts -->
<g id="edge50" class="edge">
<title>operator&#45;parsing.ts&#45;&gt;parser.ts</title>
<path fill="none" stroke="#757575" d="M1079.78,-114C1066.25,-114 1055.21,-114 1055.21,-114 1055.21,-114 1055.21,-84.04 1055.21,-84.04"/>
<polygon fill="#757575" stroke="#757575" points="1058.71,-84.04 1055.21,-74.04 1051.71,-84.04 1058.71,-84.04"/>
</g>
<!-- array&#45;compilation.ts -->
<g id="node17" class="node">
<title>array&#45;compilation.ts</title>
<path fill="none" stroke="#c6c5fe" d="M100.67,-129C100.67,-129 11.33,-129 11.33,-129 8.17,-129 5,-125.83 5,-122.67 5,-122.67 5,-116.33 5,-116.33 5,-113.17 8.17,-110 11.33,-110 11.33,-110 100.67,-110 100.67,-110 103.83,-110 107,-113.17 107,-116.33 107,-116.33 107,-122.67 107,-122.67 107,-125.83 103.83,-129 100.67,-129"/>
<text text-anchor="middle" x="56" y="-117" font-family="Arial" font-size="10.00" fill="#c6c5fe">array&#45;compilation.ts</text>
</g>
<!-- array&#45;compilation.ts&#45;&gt;instruction&#45;primitives.ts -->
<g id="edge19" class="edge">
<title>array&#45;compilation.ts&#45;&gt;instruction&#45;primitives.ts</title>
<path fill="none" stroke="#757575" d="M73,-109.84C73,-93.22 73,-61 73,-61 73,-61 333.62,-61 333.62,-61"/>
<polygon fill="#757575" stroke="#757575" points="333.62,-64.5 343.62,-61 333.62,-57.5 333.62,-64.5"/>
</g>
<!-- array&#45;compilation.ts&#45;&gt;vm.ts -->
<g id="edge20" class="edge">
<title>array&#45;compilation.ts&#45;&gt;vm.ts</title>
<path fill="none" stroke="#757575" d="M39,-109.82C39,-82.38 39,-6 39,-6 39,-6 485.94,-6 485.94,-6"/>
<polygon fill="#757575" stroke="#757575" points="485.94,-9.5 495.94,-6 485.94,-2.5 485.94,-9.5"/>
</g>
<!-- array&#45;expression&#45;parsing.ts -->
<g id="node18" class="node">
<title>array&#45;expression&#45;parsing.ts</title>
<path fill="none" stroke="#c6c5fe" d="M127.67,-184C127.67,-184 6.33,-184 6.33,-184 3.17,-184 0,-180.83 0,-177.67 0,-177.67 0,-171.33 0,-171.33 0,-168.17 3.17,-165 6.33,-165 6.33,-165 127.67,-165 127.67,-165 130.83,-165 134,-168.17 134,-171.33 134,-171.33 134,-177.67 134,-177.67 134,-180.83 130.83,-184 127.67,-184"/>
<text text-anchor="middle" x="67" y="-172" font-family="Arial" font-size="10.00" fill="#c6c5fe">array&#45;expression&#45;parsing.ts</text>
</g>
<!-- array&#45;expression&#45;parsing.ts&#45;&gt;array&#45;parsing.ts -->
<g id="edge22" class="edge">
<title>array&#45;expression&#45;parsing.ts&#45;&gt;array&#45;parsing.ts</title>
<path fill="none" stroke="#757575" d="M127.25,-164.83C127.25,-148.93 127.25,-119 127.25,-119 127.25,-119 190.88,-119 190.88,-119"/>
<polygon fill="#757575" stroke="#757575" points="190.88,-122.5 200.88,-119 190.88,-115.5 190.88,-122.5"/>
</g>
<!-- array&#45;expression&#45;parsing.ts&#45;&gt;instruction&#45;primitives.ts -->
<g id="edge23" class="edge">
<title>array&#45;expression&#45;parsing.ts&#45;&gt;instruction&#45;primitives.ts</title>
<path fill="none" stroke="#757575" d="M120.5,-164.96C120.5,-138.65 120.5,-67 120.5,-67 120.5,-67 333.78,-67 333.78,-67"/>
<polygon fill="#757575" stroke="#757575" points="333.78,-70.5 343.78,-67 333.78,-63.5 333.78,-70.5"/>
</g>
<!-- array&#45;expression&#45;parsing.ts&#45;&gt;vm.ts -->
<g id="edge24" class="edge">
<title>array&#45;expression&#45;parsing.ts&#45;&gt;vm.ts</title>
<path fill="none" stroke="#757575" d="M113.75,-164.82C113.75,-129.84 113.75,-12 113.75,-12 113.75,-12 485.83,-12 485.83,-12"/>
<polygon fill="#757575" stroke="#757575" points="485.83,-15.5 495.83,-12 485.83,-8.5 485.83,-15.5"/>
</g>
<!-- array&#45;expression&#45;parsing.ts&#45;&gt;array&#45;compilation.ts -->
<g id="edge21" class="edge">
<title>array&#45;expression&#45;parsing.ts&#45;&gt;array&#45;compilation.ts</title>
<path fill="none" stroke="#757575" d="M56,-164.92C56,-164.92 56,-139.34 56,-139.34"/>
<polygon fill="#757575" stroke="#757575" points="59.5,-139.34 56,-129.34 52.5,-139.34 59.5,-139.34"/>
</g>
<!-- array&#45;helpers.ts&#45;&gt;array&#45;parsing.ts -->
<g id="edge25" class="edge">
<title>array&#45;helpers.ts&#45;&gt;array&#45;parsing.ts</title>
<path fill="none" stroke="#757575" d="M696.5,-219.88C696.5,-211.95 696.5,-202 696.5,-202 696.5,-202 258,-202 258,-202 258,-202 258,-139.29 258,-139.29"/>
<polygon fill="#757575" stroke="#757575" points="261.5,-139.29 258,-129.29 254.5,-139.29 261.5,-139.29"/>
</g>
<!-- array&#45;helpers.ts&#45;&gt;let&#45;binding.ts -->
<g id="edge26" class="edge">
<title>array&#45;helpers.ts&#45;&gt;let&#45;binding.ts</title>
<path fill="none" stroke="#757575" d="M744,-219.92C744,-219.92 744,-194.34 744,-194.34"/>
<polygon fill="#757575" stroke="#757575" points="747.5,-194.34 744,-184.34 740.5,-194.34 747.5,-194.34"/>
</g>
<!-- array&#45;helpers.ts&#45;&gt;parser.ts -->
<g id="edge27" class="edge">
<title>array&#45;helpers.ts&#45;&gt;parser.ts</title>
<path fill="none" stroke="#757575" d="M755.26,-226C841.31,-226 1028.79,-226 1028.79,-226 1028.79,-226 1028.79,-84.12 1028.79,-84.12"/>
<polygon fill="#757575" stroke="#757575" points="1032.29,-84.12 1028.79,-74.12 1025.29,-84.12 1032.29,-84.12"/>
</g>
<!-- comparison&#45;parsing.ts -->
<g id="node20" class="node">
<title>comparison&#45;parsing.ts</title>
<path fill="none" stroke="#c6c5fe" d="M1017.17,-184C1017.17,-184 916.83,-184 916.83,-184 913.67,-184 910.5,-180.83 910.5,-177.67 910.5,-177.67 910.5,-171.33 910.5,-171.33 910.5,-168.17 913.67,-165 916.83,-165 916.83,-165 1017.17,-165 1017.17,-165 1020.33,-165 1023.5,-168.17 1023.5,-171.33 1023.5,-171.33 1023.5,-177.67 1023.5,-177.67 1023.5,-180.83 1020.33,-184 1017.17,-184"/>
<text text-anchor="middle" x="967" y="-172" font-family="Arial" font-size="10.00" fill="#c6c5fe">comparison&#45;parsing.ts</text>
</g>
<!-- comparison&#45;parsing.ts&#45;&gt;parser.ts -->
<g id="edge30" class="edge">
<title>comparison&#45;parsing.ts&#45;&gt;parser.ts</title>
<path fill="none" stroke="#757575" d="M1016.3,-164.74C1016.3,-164.74 1016.3,-84.08 1016.3,-84.08"/>
<polygon fill="#757575" stroke="#757575" points="1019.8,-84.08 1016.3,-74.08 1012.8,-84.08 1019.8,-84.08"/>
</g>
<!-- comparison&#45;parsing.ts&#45;&gt;vm.ts -->
<g id="edge31" class="edge">
<title>comparison&#45;parsing.ts&#45;&gt;vm.ts</title>
<path fill="none" stroke="#757575" d="M973.83,-164.76C973.83,-129.56 973.83,-11 973.83,-11 973.83,-11 560.19,-11 560.19,-11"/>
<polygon fill="#757575" stroke="#757575" points="560.19,-7.5 550.19,-11 560.19,-14.5 560.19,-7.5"/>
</g>
<!-- comparison&#45;parsing.ts&#45;&gt;helpers.ts -->
<g id="edge28" class="edge">
<title>comparison&#45;parsing.ts&#45;&gt;helpers.ts</title>
<path fill="none" stroke="#757575" d="M942.17,-164.76C942.17,-159.07 942.17,-153 942.17,-153 942.17,-153 613.17,-153 613.17,-153 613.17,-153 613.17,-139.01 613.17,-139.01"/>
<polygon fill="#757575" stroke="#757575" points="616.67,-139.01 613.17,-129.01 609.67,-139.01 616.67,-139.01"/>
</g>
<!-- comparison&#45;parsing.ts&#45;&gt;operator&#45;parsing.ts -->
<g id="edge29" class="edge">
<title>comparison&#45;parsing.ts&#45;&gt;operator&#45;parsing.ts</title>
<path fill="none" stroke="#757575" d="M1019.9,-164.76C1019.9,-150.09 1019.9,-124 1019.9,-124 1019.9,-124 1069.88,-124 1069.88,-124"/>
<polygon fill="#757575" stroke="#757575" points="1069.88,-127.5 1079.88,-124 1069.88,-120.5 1069.88,-127.5"/>
</g>
<!-- if&#45;expression&#45;parsing.ts -->
<g id="node21" class="node">
<title>if&#45;expression&#45;parsing.ts</title>
<path fill="none" stroke="#c6c5fe" d="M1459.67,-129C1459.67,-129 1354.33,-129 1354.33,-129 1351.17,-129 1348,-125.83 1348,-122.67 1348,-122.67 1348,-116.33 1348,-116.33 1348,-113.17 1351.17,-110 1354.33,-110 1354.33,-110 1459.67,-110 1459.67,-110 1462.83,-110 1466,-113.17 1466,-116.33 1466,-116.33 1466,-122.67 1466,-122.67 1466,-125.83 1462.83,-129 1459.67,-129"/>
<text text-anchor="middle" x="1407" y="-117" font-family="Arial" font-size="10.00" fill="#c6c5fe">if&#45;expression&#45;parsing.ts</text>
</g>
<!-- if&#45;expression&#45;parsing.ts&#45;&gt;parser.ts -->
<g id="edge39" class="edge">
<title>if&#45;expression&#45;parsing.ts&#45;&gt;parser.ts</title>
<path fill="none" stroke="#757575" d="M1387.33,-109.83C1387.33,-93.93 1387.33,-64 1387.33,-64 1387.33,-64 1070.51,-64 1070.51,-64"/>
<polygon fill="#757575" stroke="#757575" points="1070.51,-60.5 1060.51,-64 1070.51,-67.5 1070.51,-60.5"/>
</g>
<!-- if&#45;expression&#45;parsing.ts&#45;&gt;vm.ts -->
<g id="edge40" class="edge">
<title>if&#45;expression&#45;parsing.ts&#45;&gt;vm.ts</title>
<path fill="none" stroke="#757575" d="M1426.67,-109.97C1426.67,-82.14 1426.67,-3 1426.67,-3 1426.67,-3 560.04,-3 560.04,-3"/>
<polygon fill="#757575" stroke="#757575" points="560.04,0.5 550.04,-3 560.04,-6.5 560.04,0.5"/>
</g>
<!-- type&#45;inference&#45;helpers.ts&#45;&gt;parser.ts -->
<g id="edge61" class="edge">
<title>type&#45;inference&#45;helpers.ts&#45;&gt;parser.ts</title>
<path fill="none" stroke="#757575" d="M910.29,-119C955.62,-119 1009.1,-119 1009.1,-119 1009.1,-119 1009.1,-84.24 1009.1,-84.24"/>
<polygon fill="#757575" stroke="#757575" points="1012.6,-84.24 1009.1,-74.24 1005.6,-84.24 1012.6,-84.24"/>
</g>
</g>
</svg>
