<?xml version="1.0" encoding="UTF-8" standalone="no"?>
<!DOCTYPE svg PUBLIC "-//W3C//DTD SVG 1.1//EN"
 "http://www.w3.org/Graphics/SVG/1.1/DTD/svg11.dtd">
<!-- Generated by graphviz version 2.43.0 (0)
 -->
<!-- Title: G Pages: 1 -->
<svg width="2840pt" height="774pt"
 viewBox="0.00 0.00 2840.20 774.20" xmlns="http://www.w3.org/2000/svg" xmlns:xlink="http://www.w3.org/1999/xlink">
<g id="graph0" class="graph" transform="scale(1 1) rotate(0) translate(21.6 752.6)">
<title>G</title>
<polygon fill="#111111" stroke="transparent" points="-21.6,21.6 -21.6,-752.6 2818.6,-752.6 2818.6,21.6 -21.6,21.6"/>
<!-- src/app.ts -->
<g id="node1" class="node">
<title>src/app.ts</title>
<path fill="none" stroke="#c6c5fe" d="M1113.33,-613C1113.33,-613 1053.67,-613 1053.67,-613 1049.83,-613 1046,-609.17 1046,-605.33 1046,-605.33 1046,-597.67 1046,-597.67 1046,-593.83 1049.83,-590 1053.67,-590 1053.67,-590 1113.33,-590 1113.33,-590 1117.17,-590 1121,-593.83 1121,-597.67 1121,-597.67 1121,-605.33 1121,-605.33 1121,-609.17 1117.17,-613 1113.33,-613"/>
<text text-anchor="middle" x="1083.5" y="-597.8" font-family="Arial" font-size="14.00" fill="#c6c5fe">src/app.ts</text>
</g>
<!-- src/expressions/binary&#45;operation.ts -->
<g id="node2" class="node">
<title>src/expressions/binary&#45;operation.ts</title>
<path fill="none" stroke="#c6c5fe" d="M444.83,-436C444.83,-436 234.17,-436 234.17,-436 230.33,-436 226.5,-432.17 226.5,-428.33 226.5,-428.33 226.5,-420.67 226.5,-420.67 226.5,-416.83 230.33,-413 234.17,-413 234.17,-413 444.83,-413 444.83,-413 448.67,-413 452.5,-416.83 452.5,-420.67 452.5,-420.67 452.5,-428.33 452.5,-428.33 452.5,-432.17 448.67,-436 444.83,-436"/>
<text text-anchor="middle" x="339.5" y="-420.8" font-family="Arial" font-size="14.00" fill="#c6c5fe">src/expressions/binary&#45;operation.ts</text>
</g>
<!-- src/app.ts&#45;&gt;src/expressions/binary&#45;operation.ts -->
<g id="edge1" class="edge">
<title>src/app.ts&#45;&gt;src/expressions/binary&#45;operation.ts</title>
<path fill="none" stroke="#757575" d="M1045.77,-609C907.15,-609 434,-609 434,-609 434,-609 434,-446.04 434,-446.04"/>
<polygon fill="#757575" stroke="#757575" points="437.5,-446.04 434,-436.04 430.5,-446.04 437.5,-446.04"/>
</g>
<!-- src/expressions/grouped&#45;expressions.ts -->
<g id="node3" class="node">
<title>src/expressions/grouped&#45;expressions.ts</title>
<path fill="none" stroke="#c6c5fe" d="M1329.83,-377C1329.83,-377 1091.17,-377 1091.17,-377 1087.33,-377 1083.5,-373.17 1083.5,-369.33 1083.5,-369.33 1083.5,-361.67 1083.5,-361.67 1083.5,-357.83 1087.33,-354 1091.17,-354 1091.17,-354 1329.83,-354 1329.83,-354 1333.67,-354 1337.5,-357.83 1337.5,-361.67 1337.5,-361.67 1337.5,-369.33 1337.5,-369.33 1337.5,-373.17 1333.67,-377 1329.83,-377"/>
<text text-anchor="middle" x="1210.5" y="-361.8" font-family="Arial" font-size="14.00" fill="#c6c5fe">src/expressions/grouped&#45;expressions.ts</text>
</g>
<!-- src/app.ts&#45;&gt;src/expressions/grouped&#45;expressions.ts -->
<g id="edge2" class="edge">
<title>src/app.ts&#45;&gt;src/expressions/grouped&#45;expressions.ts</title>
<path fill="none" stroke="#757575" d="M1112.75,-589.8C1112.75,-589.8 1112.75,-387.27 1112.75,-387.27"/>
<polygon fill="#757575" stroke="#757575" points="1116.25,-387.27 1112.75,-377.27 1109.25,-387.27 1116.25,-387.27"/>
</g>
<!-- src/expressions/handlers.ts -->
<g id="node4" class="node">
<title>src/expressions/handlers.ts</title>
<path fill="none" stroke="#c6c5fe" d="M1383.83,-200C1383.83,-200 1219.17,-200 1219.17,-200 1215.33,-200 1211.5,-196.17 1211.5,-192.33 1211.5,-192.33 1211.5,-184.67 1211.5,-184.67 1211.5,-180.83 1215.33,-177 1219.17,-177 1219.17,-177 1383.83,-177 1383.83,-177 1387.67,-177 1391.5,-180.83 1391.5,-184.67 1391.5,-184.67 1391.5,-192.33 1391.5,-192.33 1391.5,-196.17 1387.67,-200 1383.83,-200"/>
<text text-anchor="middle" x="1301.5" y="-184.8" font-family="Arial" font-size="14.00" fill="#c6c5fe">src/expressions/handlers.ts</text>
</g>
<!-- src/app.ts&#45;&gt;src/expressions/handlers.ts -->
<g id="edge3" class="edge">
<title>src/app.ts&#45;&gt;src/expressions/handlers.ts</title>
<path fill="none" stroke="#757575" d="M1121.09,-595C1199.51,-595 1373.31,-595 1373.31,-595 1373.31,-595 1373.31,-210.23 1373.31,-210.23"/>
<polygon fill="#757575" stroke="#757575" points="1376.81,-210.23 1373.31,-200.23 1369.81,-210.23 1376.81,-210.23"/>
</g>
<!-- src/handlers/dereference&#45;assignment.ts -->
<g id="node5" class="node">
<title>src/handlers/dereference&#45;assignment.ts</title>
<path fill="none" stroke="#c6c5fe" d="M1019.83,-377C1019.83,-377 781.17,-377 781.17,-377 777.33,-377 773.5,-373.17 773.5,-369.33 773.5,-369.33 773.5,-361.67 773.5,-361.67 773.5,-357.83 777.33,-354 781.17,-354 781.17,-354 1019.83,-354 1019.83,-354 1023.67,-354 1027.5,-357.83 1027.5,-361.67 1027.5,-361.67 1027.5,-369.33 1027.5,-369.33 1027.5,-373.17 1023.67,-377 1019.83,-377"/>
<text text-anchor="middle" x="900.5" y="-361.8" font-family="Arial" font-size="14.00" fill="#c6c5fe">src/handlers/dereference&#45;assignment.ts</text>
</g>
<!-- src/app.ts&#45;&gt;src/handlers/dereference&#45;assignment.ts -->
<g id="edge4" class="edge">
<title>src/app.ts&#45;&gt;src/handlers/dereference&#45;assignment.ts</title>
<path fill="none" stroke="#757575" d="M1045.67,-593C1006.67,-593 951.5,-593 951.5,-593 951.5,-593 951.5,-387.09 951.5,-387.09"/>
<polygon fill="#757575" stroke="#757575" points="955,-387.09 951.5,-377.09 948,-387.09 955,-387.09"/>
</g>
<!-- src/handlers/lambda&#45;expressions.ts -->
<g id="node6" class="node">
<title>src/handlers/lambda&#45;expressions.ts</title>
<path fill="none" stroke="#c6c5fe" d="M2468.83,-436C2468.83,-436 2254.17,-436 2254.17,-436 2250.33,-436 2246.5,-432.17 2246.5,-428.33 2246.5,-428.33 2246.5,-420.67 2246.5,-420.67 2246.5,-416.83 2250.33,-413 2254.17,-413 2254.17,-413 2468.83,-413 2468.83,-413 2472.67,-413 2476.5,-416.83 2476.5,-420.67 2476.5,-420.67 2476.5,-428.33 2476.5,-428.33 2476.5,-432.17 2472.67,-436 2468.83,-436"/>
<text text-anchor="middle" x="2361.5" y="-420.8" font-family="Arial" font-size="14.00" fill="#c6c5fe">src/handlers/lambda&#45;expressions.ts</text>
</g>
<!-- src/app.ts&#45;&gt;src/handlers/lambda&#45;expressions.ts -->
<g id="edge5" class="edge">
<title>src/app.ts&#45;&gt;src/handlers/lambda&#45;expressions.ts</title>
<path fill="none" stroke="#757575" d="M1121.28,-601C1329.04,-601 2323.17,-601 2323.17,-601 2323.17,-601 2323.17,-446.08 2323.17,-446.08"/>
<polygon fill="#757575" stroke="#757575" points="2326.67,-446.08 2323.17,-436.08 2319.67,-446.08 2326.67,-446.08"/>
</g>
<!-- src/handlers/module&#45;access.ts -->
<g id="node7" class="node">
<title>src/handlers/module&#45;access.ts</title>
<path fill="none" stroke="#c6c5fe" d="M709.83,-377C709.83,-377 525.17,-377 525.17,-377 521.33,-377 517.5,-373.17 517.5,-369.33 517.5,-369.33 517.5,-361.67 517.5,-361.67 517.5,-357.83 521.33,-354 525.17,-354 525.17,-354 709.83,-354 709.83,-354 713.67,-354 717.5,-357.83 717.5,-361.67 717.5,-361.67 717.5,-369.33 717.5,-369.33 717.5,-373.17 713.67,-377 709.83,-377"/>
<text text-anchor="middle" x="617.5" y="-361.8" font-family="Arial" font-size="14.00" fill="#c6c5fe">src/handlers/module&#45;access.ts</text>
</g>
<!-- src/app.ts&#45;&gt;src/handlers/module&#45;access.ts -->
<g id="edge6" class="edge">
<title>src/app.ts&#45;&gt;src/handlers/module&#45;access.ts</title>
<path fill="none" stroke="#757575" d="M1045.73,-605C937.85,-605 636,-605 636,-605 636,-605 636,-387.05 636,-387.05"/>
<polygon fill="#757575" stroke="#757575" points="639.5,-387.05 636,-377.05 632.5,-387.05 639.5,-387.05"/>
</g>
<!-- src/handlers/pointer&#45;operations.ts -->
<g id="node8" class="node">
<title>src/handlers/pointer&#45;operations.ts</title>
<path fill="none" stroke="#c6c5fe" d="M879.33,-318C879.33,-318 677.67,-318 677.67,-318 673.83,-318 670,-314.17 670,-310.33 670,-310.33 670,-302.67 670,-302.67 670,-298.83 673.83,-295 677.67,-295 677.67,-295 879.33,-295 879.33,-295 883.17,-295 887,-298.83 887,-302.67 887,-302.67 887,-310.33 887,-310.33 887,-314.17 883.17,-318 879.33,-318"/>
<text text-anchor="middle" x="778.5" y="-302.8" font-family="Arial" font-size="14.00" fill="#c6c5fe">src/handlers/pointer&#45;operations.ts</text>
</g>
<!-- src/app.ts&#45;&gt;src/handlers/pointer&#45;operations.ts -->
<g id="edge7" class="edge">
<title>src/app.ts&#45;&gt;src/handlers/pointer&#45;operations.ts</title>
<path fill="none" stroke="#757575" d="M1101.75,-589.92C1101.75,-551.85 1101.75,-433 1101.75,-433 1101.75,-433 745.5,-433 745.5,-433 745.5,-433 745.5,-328.17 745.5,-328.17"/>
<polygon fill="#757575" stroke="#757575" points="749,-328.17 745.5,-318.17 742,-328.17 749,-328.17"/>
</g>
<!-- src/loops/for.ts -->
<g id="node9" class="node">
<title>src/loops/for.ts</title>
<path fill="none" stroke="#c6c5fe" d="M935.83,-554C935.83,-554 847.17,-554 847.17,-554 843.33,-554 839.5,-550.17 839.5,-546.33 839.5,-546.33 839.5,-538.67 839.5,-538.67 839.5,-534.83 843.33,-531 847.17,-531 847.17,-531 935.83,-531 935.83,-531 939.67,-531 943.5,-534.83 943.5,-538.67 943.5,-538.67 943.5,-546.33 943.5,-546.33 943.5,-550.17 939.67,-554 935.83,-554"/>
<text text-anchor="middle" x="891.5" y="-538.8" font-family="Arial" font-size="14.00" fill="#c6c5fe">src/loops/for.ts</text>
</g>
<!-- src/app.ts&#45;&gt;src/loops/for.ts -->
<g id="edge8" class="edge">
<title>src/app.ts&#45;&gt;src/loops/for.ts</title>
<path fill="none" stroke="#757575" d="M1045.57,-597C989.61,-597 891.5,-597 891.5,-597 891.5,-597 891.5,-564.06 891.5,-564.06"/>
<polygon fill="#757575" stroke="#757575" points="895,-564.06 891.5,-554.06 888,-564.06 895,-564.06"/>
</g>
<!-- src/loops/loop.ts -->
<g id="node10" class="node">
<title>src/loops/loop.ts</title>
<path fill="none" stroke="#cfffac" d="M800.83,-495C800.83,-495 702.17,-495 702.17,-495 698.33,-495 694.5,-491.17 694.5,-487.33 694.5,-487.33 694.5,-479.67 694.5,-479.67 694.5,-475.83 698.33,-472 702.17,-472 702.17,-472 800.83,-472 800.83,-472 804.67,-472 808.5,-475.83 808.5,-479.67 808.5,-479.67 808.5,-487.33 808.5,-487.33 808.5,-491.17 804.67,-495 800.83,-495"/>
<text text-anchor="middle" x="751.5" y="-479.8" font-family="Arial" font-size="14.00" fill="#cfffac">src/loops/loop.ts</text>
</g>
<!-- src/app.ts&#45;&gt;src/loops/loop.ts -->
<g id="edge9" class="edge">
<title>src/app.ts&#45;&gt;src/loops/loop.ts</title>
<path fill="none" stroke="#757575" d="M1045.98,-601C962.21,-601 767.25,-601 767.25,-601 767.25,-601 767.25,-505.2 767.25,-505.2"/>
<polygon fill="#757575" stroke="#757575" points="770.75,-505.2 767.25,-495.2 763.75,-505.2 770.75,-505.2"/>
</g>
<!-- src/loops/while.ts -->
<g id="node11" class="node">
<title>src/loops/while.ts</title>
<path fill="none" stroke="#c6c5fe" d="M1080.33,-554C1080.33,-554 976.67,-554 976.67,-554 972.83,-554 969,-550.17 969,-546.33 969,-546.33 969,-538.67 969,-538.67 969,-534.83 972.83,-531 976.67,-531 976.67,-531 1080.33,-531 1080.33,-531 1084.17,-531 1088,-534.83 1088,-538.67 1088,-538.67 1088,-546.33 1088,-546.33 1088,-550.17 1084.17,-554 1080.33,-554"/>
<text text-anchor="middle" x="1028.5" y="-538.8" font-family="Arial" font-size="14.00" fill="#c6c5fe">src/loops/while.ts</text>
</g>
<!-- src/app.ts&#45;&gt;src/loops/while.ts -->
<g id="edge10" class="edge">
<title>src/app.ts&#45;&gt;src/loops/while.ts</title>
<path fill="none" stroke="#757575" d="M1067,-589.84C1067,-589.84 1067,-564.13 1067,-564.13"/>
<polygon fill="#757575" stroke="#757575" points="1070.5,-564.13 1067,-554.13 1063.5,-564.13 1070.5,-564.13"/>
</g>
<!-- src/match.ts -->
<g id="node12" class="node">
<title>src/match.ts</title>
<path fill="none" stroke="#cfffac" d="M1025.83,-318C1025.83,-318 951.17,-318 951.17,-318 947.33,-318 943.5,-314.17 943.5,-310.33 943.5,-310.33 943.5,-302.67 943.5,-302.67 943.5,-298.83 947.33,-295 951.17,-295 951.17,-295 1025.83,-295 1025.83,-295 1029.67,-295 1033.5,-298.83 1033.5,-302.67 1033.5,-302.67 1033.5,-310.33 1033.5,-310.33 1033.5,-314.17 1029.67,-318 1025.83,-318"/>
<text text-anchor="middle" x="988.5" y="-302.8" font-family="Arial" font-size="14.00" fill="#cfffac">src/match.ts</text>
</g>
<!-- src/app.ts&#45;&gt;src/match.ts -->
<g id="edge11" class="edge">
<title>src/app.ts&#45;&gt;src/match.ts</title>
<path fill="none" stroke="#757575" d="M1104.5,-589.98C1104.5,-551.53 1104.5,-430 1104.5,-430 1104.5,-430 1046,-430 1046,-430 1046,-430 1046,-310 1046,-310 1046,-310 1043.52,-310 1043.52,-310"/>
<polygon fill="#757575" stroke="#757575" points="1043.52,-306.5 1033.52,-310 1043.52,-313.5 1043.52,-306.5"/>
</g>
<!-- src/parser.ts -->
<g id="node13" class="node">
<title>src/parser.ts</title>
<path fill="none" stroke="#c6c5fe" d="M841.83,-82C841.83,-82 767.17,-82 767.17,-82 763.33,-82 759.5,-78.17 759.5,-74.33 759.5,-74.33 759.5,-66.67 759.5,-66.67 759.5,-62.83 763.33,-59 767.17,-59 767.17,-59 841.83,-59 841.83,-59 845.67,-59 849.5,-62.83 849.5,-66.67 849.5,-66.67 849.5,-74.33 849.5,-74.33 849.5,-78.17 845.67,-82 841.83,-82"/>
<text text-anchor="middle" x="804.5" y="-66.8" font-family="Arial" font-size="14.00" fill="#c6c5fe">src/parser.ts</text>
</g>
<!-- src/app.ts&#45;&gt;src/parser.ts -->
<g id="edge12" class="edge">
<title>src/app.ts&#45;&gt;src/parser.ts</title>
<path fill="none" stroke="#757575" d="M1107.25,-589.78C1107.25,-550.65 1107.25,-427 1107.25,-427 1107.25,-427 1058.5,-427 1058.5,-427 1058.5,-427 1058.5,-74 1058.5,-74 1058.5,-74 859.62,-74 859.62,-74"/>
<polygon fill="#757575" stroke="#757575" points="859.62,-70.5 849.62,-74 859.62,-77.5 859.62,-70.5"/>
</g>
<!-- src/scope.ts -->
<g id="node14" class="node">
<title>src/scope.ts</title>
<path fill="none" stroke="#c6c5fe" d="M2789.33,-495C2789.33,-495 2715.67,-495 2715.67,-495 2711.83,-495 2708,-491.17 2708,-487.33 2708,-487.33 2708,-479.67 2708,-479.67 2708,-475.83 2711.83,-472 2715.67,-472 2715.67,-472 2789.33,-472 2789.33,-472 2793.17,-472 2797,-475.83 2797,-479.67 2797,-479.67 2797,-487.33 2797,-487.33 2797,-491.17 2793.17,-495 2789.33,-495"/>
<text text-anchor="middle" x="2752.5" y="-479.8" font-family="Arial" font-size="14.00" fill="#c6c5fe">src/scope.ts</text>
</g>
<!-- src/app.ts&#45;&gt;src/scope.ts -->
<g id="edge13" class="edge">
<title>src/app.ts&#45;&gt;src/scope.ts</title>
<path fill="none" stroke="#757575" d="M1121.1,-607C1368.44,-607 2752.5,-607 2752.5,-607 2752.5,-607 2752.5,-505.34 2752.5,-505.34"/>
<polygon fill="#757575" stroke="#757575" points="2756,-505.34 2752.5,-495.34 2749,-505.34 2756,-505.34"/>
</g>
<!-- src/utils/app&#45;handlers.ts -->
<g id="node15" class="node">
<title>src/utils/app&#45;handlers.ts</title>
<path fill="none" stroke="#c6c5fe" d="M1551.33,-554C1551.33,-554 1407.67,-554 1407.67,-554 1403.83,-554 1400,-550.17 1400,-546.33 1400,-546.33 1400,-538.67 1400,-538.67 1400,-534.83 1403.83,-531 1407.67,-531 1407.67,-531 1551.33,-531 1551.33,-531 1555.17,-531 1559,-534.83 1559,-538.67 1559,-538.67 1559,-546.33 1559,-546.33 1559,-550.17 1555.17,-554 1551.33,-554"/>
<text text-anchor="middle" x="1479.5" y="-538.8" font-family="Arial" font-size="14.00" fill="#c6c5fe">src/utils/app&#45;handlers.ts</text>
</g>
<!-- src/app.ts&#45;&gt;src/utils/app&#45;handlers.ts -->
<g id="edge14" class="edge">
<title>src/app.ts&#45;&gt;src/utils/app&#45;handlers.ts</title>
<path fill="none" stroke="#757575" d="M1118.25,-589.85C1118.25,-574.38 1118.25,-549 1118.25,-549 1118.25,-549 1389.77,-549 1389.77,-549"/>
<polygon fill="#757575" stroke="#757575" points="1389.77,-552.5 1399.77,-549 1389.77,-545.5 1389.77,-552.5"/>
</g>
<!-- src/utils/array.ts -->
<g id="node16" class="node">
<title>src/utils/array.ts</title>
<path fill="none" stroke="#cfffac" d="M924.83,-23C924.83,-23 830.17,-23 830.17,-23 826.33,-23 822.5,-19.17 822.5,-15.33 822.5,-15.33 822.5,-7.67 822.5,-7.67 822.5,-3.83 826.33,0 830.17,0 830.17,0 924.83,0 924.83,0 928.67,0 932.5,-3.83 932.5,-7.67 932.5,-7.67 932.5,-15.33 932.5,-15.33 932.5,-19.17 928.67,-23 924.83,-23"/>
<text text-anchor="middle" x="877.5" y="-7.8" font-family="Arial" font-size="14.00" fill="#cfffac">src/utils/array.ts</text>
</g>
<!-- src/app.ts&#45;&gt;src/utils/array.ts -->
<g id="edge15" class="edge">
<title>src/app.ts&#45;&gt;src/utils/array.ts</title>
<path fill="none" stroke="#757575" d="M1110,-589.85C1110,-550.36 1110,-424 1110,-424 1110,-424 1071,-424 1071,-424 1071,-424 1071,-13 1071,-13 1071,-13 942.69,-13 942.69,-13"/>
<polygon fill="#757575" stroke="#757575" points="942.69,-9.5 932.69,-13 942.69,-16.5 942.69,-9.5"/>
</g>
<!-- src/utils/this&#45;keyword.ts -->
<g id="node17" class="node">
<title>src/utils/this&#45;keyword.ts</title>
<path fill="none" stroke="#c6c5fe" d="M1929.83,-436C1929.83,-436 1789.17,-436 1789.17,-436 1785.33,-436 1781.5,-432.17 1781.5,-428.33 1781.5,-428.33 1781.5,-420.67 1781.5,-420.67 1781.5,-416.83 1785.33,-413 1789.17,-413 1789.17,-413 1929.83,-413 1929.83,-413 1933.67,-413 1937.5,-416.83 1937.5,-420.67 1937.5,-420.67 1937.5,-428.33 1937.5,-428.33 1937.5,-432.17 1933.67,-436 1929.83,-436"/>
<text text-anchor="middle" x="1859.5" y="-420.8" font-family="Arial" font-size="14.00" fill="#c6c5fe">src/utils/this&#45;keyword.ts</text>
</g>
<!-- src/app.ts&#45;&gt;src/utils/this&#45;keyword.ts -->
<g id="edge16" class="edge">
<title>src/app.ts&#45;&gt;src/utils/this&#45;keyword.ts</title>
<path fill="none" stroke="#757575" d="M1115.5,-589.74C1115.5,-549.24 1115.5,-418 1115.5,-418 1115.5,-418 1771.29,-418 1771.29,-418"/>
<polygon fill="#757575" stroke="#757575" points="1771.29,-421.5 1781.29,-418 1771.29,-414.5 1771.29,-421.5"/>
</g>
<!-- src/expressions/binary&#45;operation.ts&#45;&gt;src/expressions/handlers.ts -->
<g id="edge18" class="edge">
<title>src/expressions/binary&#45;operation.ts&#45;&gt;src/expressions/handlers.ts</title>
<path fill="none" stroke="#757575" d="M443,-412.8C443,-364.36 443,-182 443,-182 443,-182 1201.25,-182 1201.25,-182"/>
<polygon fill="#757575" stroke="#757575" points="1201.25,-185.5 1211.25,-182 1201.25,-178.5 1201.25,-185.5"/>
</g>
<!-- src/expressions/binary&#45;operation.ts&#45;&gt;src/parser.ts -->
<g id="edge20" class="edge">
<title>src/expressions/binary&#45;operation.ts&#45;&gt;src/parser.ts</title>
<path fill="none" stroke="#757575" d="M438.25,-412.84C438.25,-352.02 438.25,-74 438.25,-74 438.25,-74 749.22,-74 749.22,-74"/>
<polygon fill="#757575" stroke="#757575" points="749.22,-77.5 759.22,-74 749.22,-70.5 749.22,-77.5"/>
</g>
<!-- src/expressions/operators.ts -->
<g id="node19" class="node">
<title>src/expressions/operators.ts</title>
<path fill="none" stroke="#c6c5fe" d="M416.33,-377C416.33,-377 246.67,-377 246.67,-377 242.83,-377 239,-373.17 239,-369.33 239,-369.33 239,-361.67 239,-361.67 239,-357.83 242.83,-354 246.67,-354 246.67,-354 416.33,-354 416.33,-354 420.17,-354 424,-357.83 424,-361.67 424,-361.67 424,-369.33 424,-369.33 424,-373.17 420.17,-377 416.33,-377"/>
<text text-anchor="middle" x="331.5" y="-361.8" font-family="Arial" font-size="14.00" fill="#c6c5fe">src/expressions/operators.ts</text>
</g>
<!-- src/expressions/binary&#45;operation.ts&#45;&gt;src/expressions/operators.ts -->
<g id="edge19" class="edge">
<title>src/expressions/binary&#45;operation.ts&#45;&gt;src/expressions/operators.ts</title>
<path fill="none" stroke="#757575" d="M331.5,-412.84C331.5,-412.84 331.5,-387.13 331.5,-387.13"/>
<polygon fill="#757575" stroke="#757575" points="335,-387.13 331.5,-377.13 328,-387.13 335,-387.13"/>
</g>
<!-- src/expressions/grouped&#45;expressions.ts&#45;&gt;src/expressions/handlers.ts -->
<g id="edge21" class="edge">
<title>src/expressions/grouped&#45;expressions.ts&#45;&gt;src/expressions/handlers.ts</title>
<path fill="none" stroke="#757575" d="M1337.64,-357C1351.77,-357 1361.19,-357 1361.19,-357 1361.19,-357 1361.19,-210.08 1361.19,-210.08"/>
<polygon fill="#757575" stroke="#757575" points="1364.69,-210.08 1361.19,-200.08 1357.69,-210.08 1364.69,-210.08"/>
</g>
<!-- src/expressions/grouped&#45;expressions.ts&#45;&gt;src/match.ts -->
<g id="edge22" class="edge">
<title>src/expressions/grouped&#45;expressions.ts&#45;&gt;src/match.ts</title>
<path fill="none" stroke="#757575" d="M1087.5,-353.85C1087.5,-335.52 1087.5,-302 1087.5,-302 1087.5,-302 1043.65,-302 1043.65,-302"/>
<polygon fill="#757575" stroke="#757575" points="1043.65,-298.5 1033.65,-302 1043.65,-305.5 1043.65,-298.5"/>
</g>
<!-- src/expressions/grouped&#45;expressions.ts&#45;&gt;src/utils/array.ts -->
<g id="edge24" class="edge">
<title>src/expressions/grouped&#45;expressions.ts&#45;&gt;src/utils/array.ts</title>
<path fill="none" stroke="#757575" d="M1091.5,-353.64C1091.5,-291.78 1091.5,-9 1091.5,-9 1091.5,-9 942.61,-9 942.61,-9"/>
<polygon fill="#757575" stroke="#757575" points="942.61,-5.5 932.61,-9 942.61,-12.5 942.61,-5.5"/>
</g>
<!-- src/types/structs.ts -->
<g id="node20" class="node">
<title>src/types/structs.ts</title>
<path fill="none" stroke="#c6c5fe" d="M1519.83,-318C1519.83,-318 1407.17,-318 1407.17,-318 1403.33,-318 1399.5,-314.17 1399.5,-310.33 1399.5,-310.33 1399.5,-302.67 1399.5,-302.67 1399.5,-298.83 1403.33,-295 1407.17,-295 1407.17,-295 1519.83,-295 1519.83,-295 1523.67,-295 1527.5,-298.83 1527.5,-302.67 1527.5,-302.67 1527.5,-310.33 1527.5,-310.33 1527.5,-314.17 1523.67,-318 1519.83,-318"/>
<text text-anchor="middle" x="1463.5" y="-302.8" font-family="Arial" font-size="14.00" fill="#c6c5fe">src/types/structs.ts</text>
</g>
<!-- src/expressions/grouped&#45;expressions.ts&#45;&gt;src/types/structs.ts -->
<g id="edge23" class="edge">
<title>src/expressions/grouped&#45;expressions.ts&#45;&gt;src/types/structs.ts</title>
<path fill="none" stroke="#757575" d="M1302.5,-353.86C1302.5,-337.06 1302.5,-308 1302.5,-308 1302.5,-308 1389.41,-308 1389.41,-308"/>
<polygon fill="#757575" stroke="#757575" points="1389.41,-311.5 1399.41,-308 1389.41,-304.5 1389.41,-311.5"/>
</g>
<!-- src/utils/identifier&#45;utils.ts -->
<g id="node21" class="node">
<title>src/utils/identifier&#45;utils.ts</title>
<path fill="none" stroke="#cfffac" d="M1589.83,-259C1589.83,-259 1445.17,-259 1445.17,-259 1441.33,-259 1437.5,-255.17 1437.5,-251.33 1437.5,-251.33 1437.5,-243.67 1437.5,-243.67 1437.5,-239.83 1441.33,-236 1445.17,-236 1445.17,-236 1589.83,-236 1589.83,-236 1593.67,-236 1597.5,-239.83 1597.5,-243.67 1597.5,-243.67 1597.5,-251.33 1597.5,-251.33 1597.5,-255.17 1593.67,-259 1589.83,-259"/>
<text text-anchor="middle" x="1517.5" y="-243.8" font-family="Arial" font-size="14.00" fill="#cfffac">src/utils/identifier&#45;utils.ts</text>
</g>
<!-- src/expressions/grouped&#45;expressions.ts&#45;&gt;src/utils/identifier&#45;utils.ts -->
<g id="edge25" class="edge">
<title>src/expressions/grouped&#45;expressions.ts&#45;&gt;src/utils/identifier&#45;utils.ts</title>
<path fill="none" stroke="#757575" d="M1337.91,-363C1433.34,-363 1547.5,-363 1547.5,-363 1547.5,-363 1547.5,-269.43 1547.5,-269.43"/>
<polygon fill="#757575" stroke="#757575" points="1551,-269.43 1547.5,-259.43 1544,-269.43 1551,-269.43"/>
</g>
<!-- src/handlers/assignment.ts -->
<g id="node22" class="node">
<title>src/handlers/assignment.ts</title>
<path fill="none" stroke="#c6c5fe" d="M1265.83,-141C1265.83,-141 1103.17,-141 1103.17,-141 1099.33,-141 1095.5,-137.17 1095.5,-133.33 1095.5,-133.33 1095.5,-125.67 1095.5,-125.67 1095.5,-121.83 1099.33,-118 1103.17,-118 1103.17,-118 1265.83,-118 1265.83,-118 1269.67,-118 1273.5,-121.83 1273.5,-125.67 1273.5,-125.67 1273.5,-133.33 1273.5,-133.33 1273.5,-137.17 1269.67,-141 1265.83,-141"/>
<text text-anchor="middle" x="1184.5" y="-125.8" font-family="Arial" font-size="14.00" fill="#c6c5fe">src/handlers/assignment.ts</text>
</g>
<!-- src/expressions/handlers.ts&#45;&gt;src/handlers/assignment.ts -->
<g id="edge26" class="edge">
<title>src/expressions/handlers.ts&#45;&gt;src/handlers/assignment.ts</title>
<path fill="none" stroke="#757575" d="M1242.5,-176.84C1242.5,-176.84 1242.5,-151.13 1242.5,-151.13"/>
<polygon fill="#757575" stroke="#757575" points="1246,-151.13 1242.5,-141.13 1239,-151.13 1246,-151.13"/>
</g>
<!-- src/types/interpreter.ts -->
<g id="node23" class="node">
<title>src/types/interpreter.ts</title>
<path fill="none" stroke="#cfffac" d="M1310.33,-82C1310.33,-82 1176.67,-82 1176.67,-82 1172.83,-82 1169,-78.17 1169,-74.33 1169,-74.33 1169,-66.67 1169,-66.67 1169,-62.83 1172.83,-59 1176.67,-59 1176.67,-59 1310.33,-59 1310.33,-59 1314.17,-59 1318,-62.83 1318,-66.67 1318,-66.67 1318,-74.33 1318,-74.33 1318,-78.17 1314.17,-82 1310.33,-82"/>
<text text-anchor="middle" x="1243.5" y="-66.8" font-family="Arial" font-size="14.00" fill="#cfffac">src/types/interpreter.ts</text>
</g>
<!-- src/expressions/handlers.ts&#45;&gt;src/types/interpreter.ts -->
<g id="edge27" class="edge">
<title>src/expressions/handlers.ts&#45;&gt;src/types/interpreter.ts</title>
<path fill="none" stroke="#757575" d="M1295.75,-176.75C1295.75,-176.75 1295.75,-92.2 1295.75,-92.2"/>
<polygon fill="#757575" stroke="#757575" points="1299.25,-92.2 1295.75,-82.2 1292.25,-92.2 1299.25,-92.2"/>
</g>
<!-- src/utils/scope&#45;helpers.ts -->
<g id="node24" class="node">
<title>src/utils/scope&#45;helpers.ts</title>
<path fill="none" stroke="#c6c5fe" d="M2251.33,-141C2251.33,-141 2101.67,-141 2101.67,-141 2097.83,-141 2094,-137.17 2094,-133.33 2094,-133.33 2094,-125.67 2094,-125.67 2094,-121.83 2097.83,-118 2101.67,-118 2101.67,-118 2251.33,-118 2251.33,-118 2255.17,-118 2259,-121.83 2259,-125.67 2259,-125.67 2259,-133.33 2259,-133.33 2259,-137.17 2255.17,-141 2251.33,-141"/>
<text text-anchor="middle" x="2176.5" y="-125.8" font-family="Arial" font-size="14.00" fill="#c6c5fe">src/utils/scope&#45;helpers.ts</text>
</g>
<!-- src/expressions/handlers.ts&#45;&gt;src/utils/scope&#45;helpers.ts -->
<g id="edge28" class="edge">
<title>src/expressions/handlers.ts&#45;&gt;src/utils/scope&#45;helpers.ts</title>
<path fill="none" stroke="#757575" d="M1391.64,-180C1601.34,-180 2104.25,-180 2104.25,-180 2104.25,-180 2104.25,-151.21 2104.25,-151.21"/>
<polygon fill="#757575" stroke="#757575" points="2107.75,-151.21 2104.25,-141.21 2100.75,-151.21 2107.75,-151.21"/>
</g>
<!-- src/handlers/dereference&#45;assignment.ts&#45;&gt;src/expressions/handlers.ts -->
<g id="edge50" class="edge">
<title>src/handlers/dereference&#45;assignment.ts&#45;&gt;src/expressions/handlers.ts</title>
<path fill="none" stroke="#757575" d="M938,-353.98C938,-315.53 938,-194 938,-194 938,-194 1201.18,-194 1201.18,-194"/>
<polygon fill="#757575" stroke="#757575" points="1201.18,-197.5 1211.18,-194 1201.18,-190.5 1201.18,-197.5"/>
</g>
<!-- src/handlers/dereference&#45;assignment.ts&#45;&gt;src/handlers/pointer&#45;operations.ts -->
<g id="edge51" class="edge">
<title>src/handlers/dereference&#45;assignment.ts&#45;&gt;src/handlers/pointer&#45;operations.ts</title>
<path fill="none" stroke="#757575" d="M830.25,-353.84C830.25,-353.84 830.25,-328.13 830.25,-328.13"/>
<polygon fill="#757575" stroke="#757575" points="833.75,-328.13 830.25,-318.13 826.75,-328.13 833.75,-328.13"/>
</g>
<!-- src/functions.ts -->
<g id="node30" class="node">
<title>src/functions.ts</title>
<path fill="none" stroke="#c6c5fe" d="M2234.33,-377C2234.33,-377 2142.67,-377 2142.67,-377 2138.83,-377 2135,-373.17 2135,-369.33 2135,-369.33 2135,-361.67 2135,-361.67 2135,-357.83 2138.83,-354 2142.67,-354 2142.67,-354 2234.33,-354 2234.33,-354 2238.17,-354 2242,-357.83 2242,-361.67 2242,-361.67 2242,-369.33 2242,-369.33 2242,-373.17 2238.17,-377 2234.33,-377"/>
<text text-anchor="middle" x="2188.5" y="-361.8" font-family="Arial" font-size="14.00" fill="#c6c5fe">src/functions.ts</text>
</g>
<!-- src/handlers/lambda&#45;expressions.ts&#45;&gt;src/functions.ts -->
<g id="edge57" class="edge">
<title>src/handlers/lambda&#45;expressions.ts&#45;&gt;src/functions.ts</title>
<path fill="none" stroke="#757575" d="M2246.38,-420C2222.11,-420 2203.67,-420 2203.67,-420 2203.67,-420 2203.67,-387.06 2203.67,-387.06"/>
<polygon fill="#757575" stroke="#757575" points="2207.17,-387.06 2203.67,-377.06 2200.17,-387.06 2207.17,-387.06"/>
</g>
<!-- src/handlers/anonymous&#45;functions.ts -->
<g id="node31" class="node">
<title>src/handlers/anonymous&#45;functions.ts</title>
<path fill="none" stroke="#c6c5fe" d="M2678.33,-318C2678.33,-318 2456.67,-318 2456.67,-318 2452.83,-318 2449,-314.17 2449,-310.33 2449,-310.33 2449,-302.67 2449,-302.67 2449,-298.83 2452.83,-295 2456.67,-295 2456.67,-295 2678.33,-295 2678.33,-295 2682.17,-295 2686,-298.83 2686,-302.67 2686,-302.67 2686,-310.33 2686,-310.33 2686,-314.17 2682.17,-318 2678.33,-318"/>
<text text-anchor="middle" x="2567.5" y="-302.8" font-family="Arial" font-size="14.00" fill="#c6c5fe">src/handlers/anonymous&#45;functions.ts</text>
</g>
<!-- src/handlers/lambda&#45;expressions.ts&#45;&gt;src/handlers/anonymous&#45;functions.ts -->
<g id="edge58" class="edge">
<title>src/handlers/lambda&#45;expressions.ts&#45;&gt;src/handlers/anonymous&#45;functions.ts</title>
<path fill="none" stroke="#757575" d="M2467.33,-412.75C2467.33,-412.75 2467.33,-328.2 2467.33,-328.2"/>
<polygon fill="#757575" stroke="#757575" points="2470.83,-328.2 2467.33,-318.2 2463.83,-328.2 2470.83,-328.2"/>
</g>
<!-- src/handlers/module&#45;access.ts&#45;&gt;src/expressions/handlers.ts -->
<g id="edge64" class="edge">
<title>src/handlers/module&#45;access.ts&#45;&gt;src/expressions/handlers.ts</title>
<path fill="none" stroke="#757575" d="M593.75,-353.85C593.75,-314.36 593.75,-188 593.75,-188 593.75,-188 1201.14,-188 1201.14,-188"/>
<polygon fill="#757575" stroke="#757575" points="1201.14,-191.5 1211.14,-188 1201.14,-184.5 1201.14,-191.5"/>
</g>
<!-- src/handlers/module&#45;access.ts&#45;&gt;src/utils/identifier&#45;utils.ts -->
<g id="edge66" class="edge">
<title>src/handlers/module&#45;access.ts&#45;&gt;src/utils/identifier&#45;utils.ts</title>
<path fill="none" stroke="#757575" d="M701.67,-353.8C701.67,-346.7 701.67,-339 701.67,-339 701.67,-339 1537.5,-339 1537.5,-339 1537.5,-339 1537.5,-269.09 1537.5,-269.09"/>
<polygon fill="#757575" stroke="#757575" points="1541,-269.09 1537.5,-259.09 1534,-269.09 1541,-269.09"/>
</g>
<!-- src/types/modules.ts -->
<g id="node36" class="node">
<title>src/types/modules.ts</title>
<path fill="none" stroke="#c6c5fe" d="M1259.83,-318C1259.83,-318 1135.17,-318 1135.17,-318 1131.33,-318 1127.5,-314.17 1127.5,-310.33 1127.5,-310.33 1127.5,-302.67 1127.5,-302.67 1127.5,-298.83 1131.33,-295 1135.17,-295 1135.17,-295 1259.83,-295 1259.83,-295 1263.67,-295 1267.5,-298.83 1267.5,-302.67 1267.5,-302.67 1267.5,-310.33 1267.5,-310.33 1267.5,-314.17 1263.67,-318 1259.83,-318"/>
<text text-anchor="middle" x="1197.5" y="-302.8" font-family="Arial" font-size="14.00" fill="#c6c5fe">src/types/modules.ts</text>
</g>
<!-- src/handlers/module&#45;access.ts&#45;&gt;src/types/modules.ts -->
<g id="edge65" class="edge">
<title>src/handlers/module&#45;access.ts&#45;&gt;src/types/modules.ts</title>
<path fill="none" stroke="#757575" d="M685.83,-353.57C685.83,-341.62 685.83,-325 685.83,-325 685.83,-325 1197.5,-325 1197.5,-325 1197.5,-325 1197.5,-324.33 1197.5,-324.33"/>
<polygon fill="#757575" stroke="#757575" points="1201,-328.32 1197.5,-318.32 1194,-328.32 1201,-328.32"/>
</g>
<!-- src/handlers/pointer&#45;operations.ts&#45;&gt;src/utils/identifier&#45;utils.ts -->
<g id="edge67" class="edge">
<title>src/handlers/pointer&#45;operations.ts&#45;&gt;src/utils/identifier&#45;utils.ts</title>
<path fill="none" stroke="#757575" d="M868.25,-294.72C868.25,-282.45 868.25,-265 868.25,-265 868.25,-265 1482.5,-265 1482.5,-265 1482.5,-265 1482.5,-264.41 1482.5,-264.41"/>
<polygon fill="#757575" stroke="#757575" points="1486,-269.08 1482.5,-259.08 1479,-269.08 1486,-269.08"/>
</g>
<!-- src/loops/for.ts&#45;&gt;src/loops/loop.ts -->
<g id="edge69" class="edge">
<title>src/loops/for.ts&#45;&gt;src/loops/loop.ts</title>
<path fill="none" stroke="#757575" d="M839.49,-542C810.83,-542 781,-542 781,-542 781,-542 781,-505.06 781,-505.06"/>
<polygon fill="#757575" stroke="#757575" points="784.5,-505.06 781,-495.06 777.5,-505.06 784.5,-505.06"/>
</g>
<!-- src/loops/helpers.ts -->
<g id="node37" class="node">
<title>src/loops/helpers.ts</title>
<path fill="none" stroke="#cfffac" d="M1091.33,-495C1091.33,-495 973.67,-495 973.67,-495 969.83,-495 966,-491.17 966,-487.33 966,-487.33 966,-479.67 966,-479.67 966,-475.83 969.83,-472 973.67,-472 973.67,-472 1091.33,-472 1091.33,-472 1095.17,-472 1099,-475.83 1099,-479.67 1099,-479.67 1099,-487.33 1099,-487.33 1099,-491.17 1095.17,-495 1091.33,-495"/>
<text text-anchor="middle" x="1032.5" y="-479.8" font-family="Arial" font-size="14.00" fill="#cfffac">src/loops/helpers.ts</text>
</g>
<!-- src/loops/for.ts&#45;&gt;src/loops/helpers.ts -->
<g id="edge68" class="edge">
<title>src/loops/for.ts&#45;&gt;src/loops/helpers.ts</title>
<path fill="none" stroke="#757575" d="M943.84,-538C954.23,-538 962,-538 962,-538 962,-538 962,-479 962,-479 962,-479 962.38,-479 962.38,-479"/>
<polygon fill="#757575" stroke="#757575" points="955.79,-482.5 965.79,-479 955.79,-475.5 955.79,-482.5"/>
</g>
<!-- src/loops/types.ts -->
<g id="node38" class="node">
<title>src/loops/types.ts</title>
<path fill="none" stroke="#c6c5fe" d="M940.33,-495C940.33,-495 834.67,-495 834.67,-495 830.83,-495 827,-491.17 827,-487.33 827,-487.33 827,-479.67 827,-479.67 827,-475.83 830.83,-472 834.67,-472 834.67,-472 940.33,-472 940.33,-472 944.17,-472 948,-475.83 948,-479.67 948,-479.67 948,-487.33 948,-487.33 948,-491.17 944.17,-495 940.33,-495"/>
<text text-anchor="middle" x="887.5" y="-479.8" font-family="Arial" font-size="14.00" fill="#c6c5fe">src/loops/types.ts</text>
</g>
<!-- src/loops/for.ts&#45;&gt;src/loops/types.ts -->
<g id="edge70" class="edge">
<title>src/loops/for.ts&#45;&gt;src/loops/types.ts</title>
<path fill="none" stroke="#757575" d="M891.5,-530.84C891.5,-530.84 891.5,-505.13 891.5,-505.13"/>
<polygon fill="#757575" stroke="#757575" points="895,-505.13 891.5,-495.13 888,-505.13 895,-505.13"/>
</g>
<!-- src/loops/while.ts&#45;&gt;src/loops/loop.ts -->
<g id="edge73" class="edge">
<title>src/loops/while.ts&#45;&gt;src/loops/loop.ts</title>
<path fill="none" stroke="#757575" d="M1008.67,-530.84C1008.67,-522.6 1008.67,-513 1008.67,-513 1008.67,-513 794.75,-513 794.75,-513 794.75,-513 794.75,-505.16 794.75,-505.16"/>
<polygon fill="#757575" stroke="#757575" points="798.25,-505.16 794.75,-495.16 791.25,-505.16 798.25,-505.16"/>
</g>
<!-- src/loops/while.ts&#45;&gt;src/loops/helpers.ts -->
<g id="edge72" class="edge">
<title>src/loops/while.ts&#45;&gt;src/loops/helpers.ts</title>
<path fill="none" stroke="#757575" d="M1048.33,-530.84C1048.33,-530.84 1048.33,-505.13 1048.33,-505.13"/>
<polygon fill="#757575" stroke="#757575" points="1051.83,-505.13 1048.33,-495.13 1044.83,-505.13 1051.83,-505.13"/>
</g>
<!-- src/loops/while.ts&#45;&gt;src/loops/types.ts -->
<g id="edge74" class="edge">
<title>src/loops/while.ts&#45;&gt;src/loops/types.ts</title>
<path fill="none" stroke="#757575" d="M968.83,-546C962.61,-546 958.5,-546 958.5,-546 958.5,-546 958.5,-487 958.5,-487 958.5,-487 957.45,-487 957.45,-487"/>
<polygon fill="#757575" stroke="#757575" points="958.02,-483.5 948.02,-487 958.02,-490.5 958.02,-483.5"/>
</g>
<!-- src/parser.ts&#45;&gt;src/utils/array.ts -->
<g id="edge76" class="edge">
<title>src/parser.ts&#45;&gt;src/utils/array.ts</title>
<path fill="none" stroke="#757575" d="M836,-58.84C836,-58.84 836,-33.13 836,-33.13"/>
<polygon fill="#757575" stroke="#757575" points="839.5,-33.13 836,-23.13 832.5,-33.13 839.5,-33.13"/>
</g>
<!-- src/type&#45;utils.ts -->
<g id="node27" class="node">
<title>src/type&#45;utils.ts</title>
<path fill="none" stroke="#cfffac" d="M2467.33,-23C2467.33,-23 2375.67,-23 2375.67,-23 2371.83,-23 2368,-19.17 2368,-15.33 2368,-15.33 2368,-7.67 2368,-7.67 2368,-3.83 2371.83,0 2375.67,0 2375.67,0 2467.33,0 2467.33,0 2471.17,0 2475,-3.83 2475,-7.67 2475,-7.67 2475,-15.33 2475,-15.33 2475,-19.17 2471.17,-23 2467.33,-23"/>
<text text-anchor="middle" x="2421.5" y="-7.8" font-family="Arial" font-size="14.00" fill="#cfffac">src/type&#45;utils.ts</text>
</g>
<!-- src/parser.ts&#45;&gt;src/type&#45;utils.ts -->
<g id="edge75" class="edge">
<title>src/parser.ts&#45;&gt;src/type&#45;utils.ts</title>
<path fill="none" stroke="#757575" d="M849.51,-66C903.98,-66 988.5,-66 988.5,-66 988.5,-66 988.5,-16 988.5,-16 988.5,-16 2357.94,-16 2357.94,-16"/>
<polygon fill="#757575" stroke="#757575" points="2357.94,-19.5 2367.94,-16 2357.94,-12.5 2357.94,-19.5"/>
</g>
<!-- src/scope.ts&#45;&gt;src/expressions/handlers.ts -->
<g id="edge77" class="edge">
<title>src/scope.ts&#45;&gt;src/expressions/handlers.ts</title>
<path fill="none" stroke="#757575" d="M2760.5,-471.76C2760.5,-416.39 2760.5,-184 2760.5,-184 2760.5,-184 1401.67,-184 1401.67,-184"/>
<polygon fill="#757575" stroke="#757575" points="1401.67,-180.5 1391.67,-184 1401.67,-187.5 1401.67,-180.5"/>
</g>
<!-- src/scope.ts&#45;&gt;src/handlers/lambda&#45;expressions.ts -->
<g id="edge80" class="edge">
<title>src/scope.ts&#45;&gt;src/handlers/lambda&#45;expressions.ts</title>
<path fill="none" stroke="#757575" d="M2707.83,-479C2612.94,-479 2399.83,-479 2399.83,-479 2399.83,-479 2399.83,-446.06 2399.83,-446.06"/>
<polygon fill="#757575" stroke="#757575" points="2403.33,-446.06 2399.83,-436.06 2396.33,-446.06 2403.33,-446.06"/>
</g>
<!-- src/scope.ts&#45;&gt;src/parser.ts -->
<g id="edge81" class="edge">
<title>src/scope.ts&#45;&gt;src/parser.ts</title>
<path fill="none" stroke="#757575" d="M2748.33,-471.92C2748.33,-430.04 2748.33,-289 2748.33,-289 2748.33,-289 789.5,-289 789.5,-289 789.5,-289 789.5,-92.25 789.5,-92.25"/>
<polygon fill="#757575" stroke="#757575" points="793,-92.25 789.5,-82.25 786,-92.25 793,-92.25"/>
</g>
<!-- src/scope.ts&#45;&gt;src/utils/array.ts -->
<g id="edge82" class="edge">
<title>src/scope.ts&#45;&gt;src/utils/array.ts</title>
<path fill="none" stroke="#757575" d="M2707.79,-487C2557.97,-487 2083,-487 2083,-487 2083,-487 2083,-6 2083,-6 2083,-6 942.83,-6 942.83,-6"/>
<polygon fill="#757575" stroke="#757575" points="942.83,-2.5 932.83,-6 942.83,-9.5 942.83,-2.5"/>
</g>
<!-- src/scope.ts&#45;&gt;src/utils/scope&#45;helpers.ts -->
<g id="edge84" class="edge">
<title>src/scope.ts&#45;&gt;src/utils/scope&#45;helpers.ts</title>
<path fill="none" stroke="#757575" d="M2772.67,-471.9C2772.67,-411.43 2772.67,-135 2772.67,-135 2772.67,-135 2269.08,-135 2269.08,-135"/>
<polygon fill="#757575" stroke="#757575" points="2269.08,-131.5 2259.08,-135 2269.08,-138.5 2269.08,-131.5"/>
</g>
<!-- src/function&#45;type&#45;handler.ts -->
<g id="node29" class="node">
<title>src/function&#45;type&#45;handler.ts</title>
<path fill="none" stroke="#c6c5fe" d="M2716.33,-436C2716.33,-436 2552.67,-436 2552.67,-436 2548.83,-436 2545,-432.17 2545,-428.33 2545,-428.33 2545,-420.67 2545,-420.67 2545,-416.83 2548.83,-413 2552.67,-413 2552.67,-413 2716.33,-413 2716.33,-413 2720.17,-413 2724,-416.83 2724,-420.67 2724,-420.67 2724,-428.33 2724,-428.33 2724,-432.17 2720.17,-436 2716.33,-436"/>
<text text-anchor="middle" x="2634.5" y="-420.8" font-family="Arial" font-size="14.00" fill="#c6c5fe">src/function&#45;type&#45;handler.ts</text>
</g>
<!-- src/scope.ts&#45;&gt;src/function&#45;type&#45;handler.ts -->
<g id="edge78" class="edge">
<title>src/scope.ts&#45;&gt;src/function&#45;type&#45;handler.ts</title>
<path fill="none" stroke="#757575" d="M2716,-471.84C2716,-471.84 2716,-446.13 2716,-446.13"/>
<polygon fill="#757575" stroke="#757575" points="2719.5,-446.13 2716,-436.13 2712.5,-446.13 2719.5,-446.13"/>
</g>
<!-- src/scope.ts&#45;&gt;src/functions.ts -->
<g id="edge79" class="edge">
<title>src/scope.ts&#45;&gt;src/functions.ts</title>
<path fill="none" stroke="#757575" d="M2736.17,-471.9C2736.17,-442.44 2736.17,-367 2736.17,-367 2736.17,-367 2252.01,-367 2252.01,-367"/>
<polygon fill="#757575" stroke="#757575" points="2252.01,-363.5 2242.01,-367 2252.01,-370.5 2252.01,-363.5"/>
</g>
<!-- src/utils/function&#45;utils.ts -->
<g id="node34" class="node">
<title>src/utils/function&#45;utils.ts</title>
<path fill="none" stroke="#c6c5fe" d="M2692.83,-82C2692.83,-82 2552.17,-82 2552.17,-82 2548.33,-82 2544.5,-78.17 2544.5,-74.33 2544.5,-74.33 2544.5,-66.67 2544.5,-66.67 2544.5,-62.83 2548.33,-59 2552.17,-59 2552.17,-59 2692.83,-59 2692.83,-59 2696.67,-59 2700.5,-62.83 2700.5,-66.67 2700.5,-66.67 2700.5,-74.33 2700.5,-74.33 2700.5,-78.17 2696.67,-82 2692.83,-82"/>
<text text-anchor="middle" x="2622.5" y="-66.8" font-family="Arial" font-size="14.00" fill="#c6c5fe">src/utils/function&#45;utils.ts</text>
</g>
<!-- src/scope.ts&#45;&gt;src/utils/function&#45;utils.ts -->
<g id="edge83" class="edge">
<title>src/scope.ts&#45;&gt;src/utils/function&#45;utils.ts</title>
<path fill="none" stroke="#757575" d="M2784.83,-471.57C2784.83,-403.77 2784.83,-70 2784.83,-70 2784.83,-70 2710.81,-70 2710.81,-70"/>
<polygon fill="#757575" stroke="#757575" points="2710.81,-66.5 2700.81,-70 2710.81,-73.5 2710.81,-66.5"/>
</g>
<!-- src/utils/app&#45;handlers.ts&#45;&gt;src/expressions/handlers.ts -->
<g id="edge92" class="edge">
<title>src/utils/app&#45;handlers.ts&#45;&gt;src/expressions/handlers.ts</title>
<path fill="none" stroke="#757575" d="M1399.64,-544C1387.74,-544 1379.38,-544 1379.38,-544 1379.38,-544 1379.38,-210.33 1379.38,-210.33"/>
<polygon fill="#757575" stroke="#757575" points="1382.88,-210.33 1379.38,-200.33 1375.88,-210.33 1382.88,-210.33"/>
</g>
<!-- src/utils/app&#45;handlers.ts&#45;&gt;src/types/structs.ts -->
<g id="edge97" class="edge">
<title>src/utils/app&#45;handlers.ts&#45;&gt;src/types/structs.ts</title>
<path fill="none" stroke="#757575" d="M1472,-530.8C1472,-530.8 1472,-328.27 1472,-328.27"/>
<polygon fill="#757575" stroke="#757575" points="1475.5,-328.27 1472,-318.27 1468.5,-328.27 1475.5,-328.27"/>
</g>
<!-- src/expressions/unary&#45;operation.ts -->
<g id="node28" class="node">
<title>src/expressions/unary&#45;operation.ts</title>
<path fill="none" stroke="#c6c5fe" d="M1335.33,-259C1335.33,-259 1127.67,-259 1127.67,-259 1123.83,-259 1120,-255.17 1120,-251.33 1120,-251.33 1120,-243.67 1120,-243.67 1120,-239.83 1123.83,-236 1127.67,-236 1127.67,-236 1335.33,-236 1335.33,-236 1339.17,-236 1343,-239.83 1343,-243.67 1343,-243.67 1343,-251.33 1343,-251.33 1343,-255.17 1339.17,-259 1335.33,-259"/>
<text text-anchor="middle" x="1231.5" y="-243.8" font-family="Arial" font-size="14.00" fill="#c6c5fe">src/expressions/unary&#45;operation.ts</text>
</g>
<!-- src/utils/app&#45;handlers.ts&#45;&gt;src/expressions/unary&#45;operation.ts -->
<g id="edge93" class="edge">
<title>src/utils/app&#45;handlers.ts&#45;&gt;src/expressions/unary&#45;operation.ts</title>
<path fill="none" stroke="#757575" d="M1399.97,-535C1397.97,-535 1396.83,-535 1396.83,-535 1396.83,-535 1396.83,-251 1396.83,-251 1396.83,-251 1353.15,-251 1353.15,-251"/>
<polygon fill="#757575" stroke="#757575" points="1353.15,-247.5 1343.15,-251 1353.15,-254.5 1353.15,-247.5"/>
</g>
<!-- src/utils/app&#45;handlers.ts&#45;&gt;src/functions.ts -->
<g id="edge94" class="edge">
<title>src/utils/app&#45;handlers.ts&#45;&gt;src/functions.ts</title>
<path fill="none" stroke="#757575" d="M1559.31,-548C1740.89,-548 2169.33,-548 2169.33,-548 2169.33,-548 2169.33,-387.19 2169.33,-387.19"/>
<polygon fill="#757575" stroke="#757575" points="2172.83,-387.19 2169.33,-377.19 2165.83,-387.19 2172.83,-387.19"/>
</g>
<!-- src/utils/function&#45;call&#45;params.ts -->
<g id="node33" class="node">
<title>src/utils/function&#45;call&#45;params.ts</title>
<path fill="none" stroke="#c6c5fe" d="M2064.33,-318C2064.33,-318 1876.67,-318 1876.67,-318 1872.83,-318 1869,-314.17 1869,-310.33 1869,-310.33 1869,-302.67 1869,-302.67 1869,-298.83 1872.83,-295 1876.67,-295 1876.67,-295 2064.33,-295 2064.33,-295 2068.17,-295 2072,-298.83 2072,-302.67 2072,-302.67 2072,-310.33 2072,-310.33 2072,-314.17 2068.17,-318 2064.33,-318"/>
<text text-anchor="middle" x="1970.5" y="-302.8" font-family="Arial" font-size="14.00" fill="#c6c5fe">src/utils/function&#45;call&#45;params.ts</text>
</g>
<!-- src/utils/app&#45;handlers.ts&#45;&gt;src/utils/function&#45;call&#45;params.ts -->
<g id="edge99" class="edge">
<title>src/utils/app&#45;handlers.ts&#45;&gt;src/utils/function&#45;call&#45;params.ts</title>
<path fill="none" stroke="#757575" d="M1559.24,-542C1701.94,-542 1986.25,-542 1986.25,-542 1986.25,-542 1986.25,-328.18 1986.25,-328.18"/>
<polygon fill="#757575" stroke="#757575" points="1989.75,-328.18 1986.25,-318.18 1982.75,-328.18 1989.75,-328.18"/>
</g>
<!-- src/handlers/method&#45;call.ts -->
<g id="node35" class="node">
<title>src/handlers/method&#45;call.ts</title>
<path fill="none" stroke="#c6c5fe" d="M1679.33,-495C1679.33,-495 1515.67,-495 1515.67,-495 1511.83,-495 1508,-491.17 1508,-487.33 1508,-487.33 1508,-479.67 1508,-479.67 1508,-475.83 1511.83,-472 1515.67,-472 1515.67,-472 1679.33,-472 1679.33,-472 1683.17,-472 1687,-475.83 1687,-479.67 1687,-479.67 1687,-487.33 1687,-487.33 1687,-491.17 1683.17,-495 1679.33,-495"/>
<text text-anchor="middle" x="1597.5" y="-479.8" font-family="Arial" font-size="14.00" fill="#c6c5fe">src/handlers/method&#45;call.ts</text>
</g>
<!-- src/utils/app&#45;handlers.ts&#45;&gt;src/handlers/method&#45;call.ts -->
<g id="edge95" class="edge">
<title>src/utils/app&#45;handlers.ts&#45;&gt;src/handlers/method&#45;call.ts</title>
<path fill="none" stroke="#757575" d="M1533.5,-530.84C1533.5,-530.84 1533.5,-505.13 1533.5,-505.13"/>
<polygon fill="#757575" stroke="#757575" points="1537,-505.13 1533.5,-495.13 1530,-505.13 1537,-505.13"/>
</g>
<!-- src/utils/app&#45;handlers.ts&#45;&gt;src/types/modules.ts -->
<g id="edge96" class="edge">
<title>src/utils/app&#45;handlers.ts&#45;&gt;src/types/modules.ts</title>
<path fill="none" stroke="#757575" d="M1399.77,-540C1396.25,-540 1394.17,-540 1394.17,-540 1394.17,-540 1394.17,-313 1394.17,-313 1394.17,-313 1277.67,-313 1277.67,-313"/>
<polygon fill="#757575" stroke="#757575" points="1277.67,-309.5 1267.67,-313 1277.67,-316.5 1277.67,-309.5"/>
</g>
<!-- src/types/type&#45;declarations.ts -->
<g id="node39" class="node">
<title>src/types/type&#45;declarations.ts</title>
<path fill="none" stroke="#c6c5fe" d="M1843.33,-318C1843.33,-318 1667.67,-318 1667.67,-318 1663.83,-318 1660,-314.17 1660,-310.33 1660,-310.33 1660,-302.67 1660,-302.67 1660,-298.83 1663.83,-295 1667.67,-295 1667.67,-295 1843.33,-295 1843.33,-295 1847.17,-295 1851,-298.83 1851,-302.67 1851,-302.67 1851,-310.33 1851,-310.33 1851,-314.17 1847.17,-318 1843.33,-318"/>
<text text-anchor="middle" x="1755.5" y="-302.8" font-family="Arial" font-size="14.00" fill="#c6c5fe">src/types/type&#45;declarations.ts</text>
</g>
<!-- src/utils/app&#45;handlers.ts&#45;&gt;src/types/type&#45;declarations.ts -->
<g id="edge98" class="edge">
<title>src/utils/app&#45;handlers.ts&#45;&gt;src/types/type&#45;declarations.ts</title>
<path fill="none" stroke="#757575" d="M1559.2,-536C1638.99,-536 1750,-536 1750,-536 1750,-536 1750,-328.2 1750,-328.2"/>
<polygon fill="#757575" stroke="#757575" points="1753.5,-328.2 1750,-318.2 1746.5,-328.2 1753.5,-328.2"/>
</g>
<!-- src/utils/this&#45;keyword.ts&#45;&gt;src/types/structs.ts -->
<g id="edge108" class="edge">
<title>src/utils/this&#45;keyword.ts&#45;&gt;src/types/structs.ts</title>
<path fill="none" stroke="#757575" d="M1781.42,-415C1681.45,-415 1521,-415 1521,-415 1521,-415 1521,-328.11 1521,-328.11"/>
<polygon fill="#757575" stroke="#757575" points="1524.5,-328.11 1521,-318.11 1517.5,-328.11 1524.5,-328.11"/>
</g>
<!-- src/utils/this&#45;keyword.ts&#45;&gt;src/utils/scope&#45;helpers.ts -->
<g id="edge109" class="edge">
<title>src/utils/this&#45;keyword.ts&#45;&gt;src/utils/scope&#45;helpers.ts</title>
<path fill="none" stroke="#757575" d="M1937.74,-428C2012.7,-428 2114.5,-428 2114.5,-428 2114.5,-428 2114.5,-151.2 2114.5,-151.2"/>
<polygon fill="#757575" stroke="#757575" points="2118,-151.2 2114.5,-141.2 2111,-151.2 2118,-151.2"/>
</g>
<!-- src/utils/this&#45;keyword.ts&#45;&gt;src/functions.ts -->
<g id="edge107" class="edge">
<title>src/utils/this&#45;keyword.ts&#45;&gt;src/functions.ts</title>
<path fill="none" stroke="#757575" d="M1903.25,-412.81C1903.25,-397.62 1903.25,-373 1903.25,-373 1903.25,-373 2124.85,-373 2124.85,-373"/>
<polygon fill="#757575" stroke="#757575" points="2124.85,-376.5 2134.85,-373 2124.85,-369.5 2124.85,-376.5"/>
</g>
<!-- src/declarations.ts -->
<g id="node18" class="node">
<title>src/declarations.ts</title>
<path fill="none" stroke="#c6c5fe" d="M1733.33,-259C1733.33,-259 1623.67,-259 1623.67,-259 1619.83,-259 1616,-255.17 1616,-251.33 1616,-251.33 1616,-243.67 1616,-243.67 1616,-239.83 1619.83,-236 1623.67,-236 1623.67,-236 1733.33,-236 1733.33,-236 1737.17,-236 1741,-239.83 1741,-243.67 1741,-243.67 1741,-251.33 1741,-251.33 1741,-255.17 1737.17,-259 1733.33,-259"/>
<text text-anchor="middle" x="1678.5" y="-243.8" font-family="Arial" font-size="14.00" fill="#c6c5fe">src/declarations.ts</text>
</g>
<!-- src/declarations.ts&#45;&gt;src/expressions/handlers.ts -->
<g id="edge17" class="edge">
<title>src/declarations.ts&#45;&gt;src/expressions/handlers.ts</title>
<path fill="none" stroke="#757575" d="M1678.5,-235.73C1678.5,-219.44 1678.5,-192 1678.5,-192 1678.5,-192 1401.8,-192 1401.8,-192"/>
<polygon fill="#757575" stroke="#757575" points="1401.8,-188.5 1391.8,-192 1401.8,-195.5 1401.8,-188.5"/>
</g>
<!-- src/expressions/operators.ts&#45;&gt;src/handlers/pointer&#45;operations.ts -->
<g id="edge31" class="edge">
<title>src/expressions/operators.ts&#45;&gt;src/handlers/pointer&#45;operations.ts</title>
<path fill="none" stroke="#757575" d="M424.23,-371C438.04,-371 447.75,-371 447.75,-371 447.75,-371 447.75,-306 447.75,-306 447.75,-306 659.74,-306 659.74,-306"/>
<polygon fill="#757575" stroke="#757575" points="659.74,-309.5 669.74,-306 659.74,-302.5 659.74,-309.5"/>
</g>
<!-- src/expressions/operators.ts&#45;&gt;src/parser.ts -->
<g id="edge32" class="edge">
<title>src/expressions/operators.ts&#45;&gt;src/parser.ts</title>
<path fill="none" stroke="#757575" d="M424.09,-365C429.91,-365 433.5,-365 433.5,-365 433.5,-365 433.5,-66 433.5,-66 433.5,-66 749.38,-66 749.38,-66"/>
<polygon fill="#757575" stroke="#757575" points="749.38,-69.5 759.38,-66 749.38,-62.5 749.38,-69.5"/>
</g>
<!-- src/expressions/operators.ts&#45;&gt;src/utils/array.ts -->
<g id="edge35" class="edge">
<title>src/expressions/operators.ts&#45;&gt;src/utils/array.ts</title>
<path fill="none" stroke="#757575" d="M424.06,-359C427.03,-359 428.75,-359 428.75,-359 428.75,-359 428.75,-11 428.75,-11 428.75,-11 812.47,-11 812.47,-11"/>
<polygon fill="#757575" stroke="#757575" points="812.47,-14.5 822.47,-11 812.47,-7.5 812.47,-14.5"/>
</g>
<!-- src/expressions/operators.ts&#45;&gt;src/types/structs.ts -->
<g id="edge34" class="edge">
<title>src/expressions/operators.ts&#45;&gt;src/types/structs.ts</title>
<path fill="none" stroke="#757575" d="M331.25,-353.78C331.25,-344.12 331.25,-332 331.25,-332 331.25,-332 1436,-332 1436,-332 1436,-332 1436,-328.06 1436,-328.06"/>
<polygon fill="#757575" stroke="#757575" points="1439.5,-328.06 1436,-318.06 1432.5,-328.06 1439.5,-328.06"/>
</g>
<!-- src/expressions/operator&#45;finder.ts -->
<g id="node25" class="node">
<title>src/expressions/operator&#45;finder.ts</title>
<path fill="none" stroke="#c6c5fe" d="M415.83,-318C415.83,-318 215.17,-318 215.17,-318 211.33,-318 207.5,-314.17 207.5,-310.33 207.5,-310.33 207.5,-302.67 207.5,-302.67 207.5,-298.83 211.33,-295 215.17,-295 215.17,-295 415.83,-295 415.83,-295 419.67,-295 423.5,-298.83 423.5,-302.67 423.5,-302.67 423.5,-310.33 423.5,-310.33 423.5,-314.17 419.67,-318 415.83,-318"/>
<text text-anchor="middle" x="315.5" y="-302.8" font-family="Arial" font-size="14.00" fill="#c6c5fe">src/expressions/operator&#45;finder.ts</text>
</g>
<!-- src/expressions/operators.ts&#45;&gt;src/expressions/operator&#45;finder.ts -->
<g id="edge30" class="edge">
<title>src/expressions/operators.ts&#45;&gt;src/expressions/operator&#45;finder.ts</title>
<path fill="none" stroke="#757575" d="M285.12,-353.84C285.12,-353.84 285.12,-328.13 285.12,-328.13"/>
<polygon fill="#757575" stroke="#757575" points="288.63,-328.13 285.12,-318.13 281.63,-328.13 288.63,-328.13"/>
</g>
<!-- src/expressions/operators.ts&#45;&gt;src/type&#45;utils.ts -->
<g id="edge33" class="edge">
<title>src/expressions/operators.ts&#45;&gt;src/type&#45;utils.ts</title>
<path fill="none" stroke="#757575" d="M377.38,-353.93C377.38,-349.73 377.38,-346 377.38,-346 377.38,-346 2420.75,-346 2420.75,-346 2420.75,-346 2420.75,-33.01 2420.75,-33.01"/>
<polygon fill="#757575" stroke="#757575" points="2424.25,-33.01 2420.75,-23.01 2417.25,-33.01 2424.25,-33.01"/>
</g>
<!-- src/types/structs.ts&#45;&gt;src/expressions/handlers.ts -->
<g id="edge89" class="edge">
<title>src/types/structs.ts&#45;&gt;src/expressions/handlers.ts</title>
<path fill="none" stroke="#757575" d="M1418.5,-294.67C1418.5,-266.17 1418.5,-196 1418.5,-196 1418.5,-196 1401.66,-196 1401.66,-196"/>
<polygon fill="#757575" stroke="#757575" points="1401.66,-192.5 1391.66,-196 1401.66,-199.5 1401.66,-192.5"/>
</g>
<!-- src/types/structs.ts&#45;&gt;src/declarations.ts -->
<g id="edge88" class="edge">
<title>src/types/structs.ts&#45;&gt;src/declarations.ts</title>
<path fill="none" stroke="#757575" d="M1527.61,-306C1579.96,-306 1645.33,-306 1645.33,-306 1645.33,-306 1645.33,-269.06 1645.33,-269.06"/>
<polygon fill="#757575" stroke="#757575" points="1648.83,-269.06 1645.33,-259.06 1641.83,-269.06 1648.83,-269.06"/>
</g>
<!-- src/handlers/assignment.ts&#45;&gt;src/utils/array.ts -->
<g id="edge49" class="edge">
<title>src/handlers/assignment.ts&#45;&gt;src/utils/array.ts</title>
<path fill="none" stroke="#757575" d="M1095.3,-129C1015.07,-129 909.75,-129 909.75,-129 909.75,-129 909.75,-33.2 909.75,-33.2"/>
<polygon fill="#757575" stroke="#757575" points="913.25,-33.2 909.75,-23.2 906.25,-33.2 913.25,-33.2"/>
</g>
<!-- src/handlers/assignment.ts&#45;&gt;src/types/interpreter.ts -->
<g id="edge48" class="edge">
<title>src/handlers/assignment.ts&#45;&gt;src/types/interpreter.ts</title>
<path fill="none" stroke="#757575" d="M1221.25,-117.84C1221.25,-117.84 1221.25,-92.13 1221.25,-92.13"/>
<polygon fill="#757575" stroke="#757575" points="1224.75,-92.13 1221.25,-82.13 1217.75,-92.13 1224.75,-92.13"/>
</g>
<!-- src/utils/scope&#45;helpers.ts&#45;&gt;src/parser.ts -->
<g id="edge103" class="edge">
<title>src/utils/scope&#45;helpers.ts&#45;&gt;src/parser.ts</title>
<path fill="none" stroke="#757575" d="M2124.75,-141.16C2124.75,-149.4 2124.75,-159 2124.75,-159 2124.75,-159 819.5,-159 819.5,-159 819.5,-159 819.5,-92.07 819.5,-92.07"/>
<polygon fill="#757575" stroke="#757575" points="823,-92.07 819.5,-82.07 816,-92.07 823,-92.07"/>
</g>
<!-- src/utils/scope&#45;helpers.ts&#45;&gt;src/utils/array.ts -->
<g id="edge105" class="edge">
<title>src/utils/scope&#45;helpers.ts&#45;&gt;src/utils/array.ts</title>
<path fill="none" stroke="#757575" d="M2176.5,-117.83C2176.5,-86.51 2176.5,-3 2176.5,-3 2176.5,-3 942.9,-3 942.9,-3"/>
<polygon fill="#757575" stroke="#757575" points="942.9,0.5 932.9,-3 942.9,-6.5 942.9,0.5"/>
</g>
<!-- src/utils/scope&#45;helpers.ts&#45;&gt;src/type&#45;utils.ts -->
<g id="edge104" class="edge">
<title>src/utils/scope&#45;helpers.ts&#45;&gt;src/type&#45;utils.ts</title>
<path fill="none" stroke="#757575" d="M2259.17,-123C2313.32,-123 2374.12,-123 2374.12,-123 2374.12,-123 2374.12,-33.01 2374.12,-33.01"/>
<polygon fill="#757575" stroke="#757575" points="2377.63,-33.01 2374.12,-23.01 2370.63,-33.01 2377.63,-33.01"/>
</g>
<!-- src/utils/scope&#45;helpers.ts&#45;&gt;src/utils/function&#45;utils.ts -->
<g id="edge106" class="edge">
<title>src/utils/scope&#45;helpers.ts&#45;&gt;src/utils/function&#45;utils.ts</title>
<path fill="none" stroke="#757575" d="M2259.02,-129C2380.1,-129 2591.67,-129 2591.67,-129 2591.67,-129 2591.67,-92.06 2591.67,-92.06"/>
<polygon fill="#757575" stroke="#757575" points="2595.17,-92.06 2591.67,-82.06 2588.17,-92.06 2595.17,-92.06"/>
</g>
<!-- src/expressions/operator&#45;utils.ts -->
<g id="node26" class="node">
<title>src/expressions/operator&#45;utils.ts</title>
<path fill="none" stroke="#cfffac" d="M411.33,-259C411.33,-259 219.67,-259 219.67,-259 215.83,-259 212,-255.17 212,-251.33 212,-251.33 212,-243.67 212,-243.67 212,-239.83 215.83,-236 219.67,-236 219.67,-236 411.33,-236 411.33,-236 415.17,-236 419,-239.83 419,-243.67 419,-243.67 419,-251.33 419,-251.33 419,-255.17 415.17,-259 411.33,-259"/>
<text text-anchor="middle" x="315.5" y="-243.8" font-family="Arial" font-size="14.00" fill="#cfffac">src/expressions/operator&#45;utils.ts</text>
</g>
<!-- src/expressions/operator&#45;finder.ts&#45;&gt;src/expressions/operator&#45;utils.ts -->
<g id="edge29" class="edge">
<title>src/expressions/operator&#45;finder.ts&#45;&gt;src/expressions/operator&#45;utils.ts</title>
<path fill="none" stroke="#757575" d="M315.5,-294.84C315.5,-294.84 315.5,-269.13 315.5,-269.13"/>
<polygon fill="#757575" stroke="#757575" points="319,-269.13 315.5,-259.13 312,-269.13 319,-269.13"/>
</g>
<!-- src/expressions/unary&#45;operation.ts&#45;&gt;src/expressions/handlers.ts -->
<g id="edge36" class="edge">
<title>src/expressions/unary&#45;operation.ts&#45;&gt;src/expressions/handlers.ts</title>
<path fill="none" stroke="#757575" d="M1277.25,-235.84C1277.25,-235.84 1277.25,-210.13 1277.25,-210.13"/>
<polygon fill="#757575" stroke="#757575" points="1280.75,-210.13 1277.25,-200.13 1273.75,-210.13 1280.75,-210.13"/>
</g>
<!-- src/function&#45;type&#45;handler.ts&#45;&gt;src/type&#45;utils.ts -->
<g id="edge38" class="edge">
<title>src/function&#45;type&#45;handler.ts&#45;&gt;src/type&#45;utils.ts</title>
<path fill="none" stroke="#757575" d="M2712.25,-412.57C2712.25,-344.77 2712.25,-11 2712.25,-11 2712.25,-11 2485.17,-11 2485.17,-11"/>
<polygon fill="#757575" stroke="#757575" points="2485.17,-7.5 2475.17,-11 2485.17,-14.5 2485.17,-7.5"/>
</g>
<!-- src/function&#45;type&#45;handler.ts&#45;&gt;src/functions.ts -->
<g id="edge37" class="edge">
<title>src/function&#45;type&#45;handler.ts&#45;&gt;src/functions.ts</title>
<path fill="none" stroke="#757575" d="M2615.5,-412.85C2615.5,-397.38 2615.5,-372 2615.5,-372 2615.5,-372 2252.15,-372 2252.15,-372"/>
<polygon fill="#757575" stroke="#757575" points="2252.15,-368.5 2242.15,-372 2252.15,-375.5 2252.15,-368.5"/>
</g>
<!-- src/functions.ts&#45;&gt;src/utils/identifier&#45;utils.ts -->
<g id="edge43" class="edge">
<title>src/functions.ts&#45;&gt;src/utils/identifier&#45;utils.ts</title>
<path fill="none" stroke="#757575" d="M2134.75,-367C1983.89,-367 1567.5,-367 1567.5,-367 1567.5,-367 1567.5,-269.4 1567.5,-269.4"/>
<polygon fill="#757575" stroke="#757575" points="1571,-269.39 1567.5,-259.4 1564,-269.4 1571,-269.39"/>
</g>
<!-- src/functions.ts&#45;&gt;src/utils/scope&#45;helpers.ts -->
<g id="edge44" class="edge">
<title>src/functions.ts&#45;&gt;src/utils/scope&#45;helpers.ts</title>
<path fill="none" stroke="#757575" d="M2150.75,-353.8C2150.75,-353.8 2150.75,-151.27 2150.75,-151.27"/>
<polygon fill="#757575" stroke="#757575" points="2154.25,-151.27 2150.75,-141.27 2147.25,-151.27 2154.25,-151.27"/>
</g>
<!-- src/functions.ts&#45;&gt;src/handlers/anonymous&#45;functions.ts -->
<g id="edge39" class="edge">
<title>src/functions.ts&#45;&gt;src/handlers/anonymous&#45;functions.ts</title>
<path fill="none" stroke="#757575" d="M2242.1,-358C2320.74,-358 2458.17,-358 2458.17,-358 2458.17,-358 2458.17,-328.19 2458.17,-328.19"/>
<polygon fill="#757575" stroke="#757575" points="2461.67,-328.19 2458.17,-318.19 2454.67,-328.19 2461.67,-328.19"/>
</g>
<!-- src/handlers/function&#45;declaration.ts -->
<g id="node32" class="node">
<title>src/handlers/function&#45;declaration.ts</title>
<path fill="none" stroke="#c6c5fe" d="M2384.83,-318C2384.83,-318 2174.17,-318 2174.17,-318 2170.33,-318 2166.5,-314.17 2166.5,-310.33 2166.5,-310.33 2166.5,-302.67 2166.5,-302.67 2166.5,-298.83 2170.33,-295 2174.17,-295 2174.17,-295 2384.83,-295 2384.83,-295 2388.67,-295 2392.5,-298.83 2392.5,-302.67 2392.5,-302.67 2392.5,-310.33 2392.5,-310.33 2392.5,-314.17 2388.67,-318 2384.83,-318"/>
<text text-anchor="middle" x="2279.5" y="-302.8" font-family="Arial" font-size="14.00" fill="#c6c5fe">src/handlers/function&#45;declaration.ts</text>
</g>
<!-- src/functions.ts&#45;&gt;src/handlers/function&#45;declaration.ts -->
<g id="edge40" class="edge">
<title>src/functions.ts&#45;&gt;src/handlers/function&#45;declaration.ts</title>
<path fill="none" stroke="#757575" d="M2204.25,-353.84C2204.25,-353.84 2204.25,-328.13 2204.25,-328.13"/>
<polygon fill="#757575" stroke="#757575" points="2207.75,-328.13 2204.25,-318.13 2200.75,-328.13 2207.75,-328.13"/>
</g>
<!-- src/functions.ts&#45;&gt;src/utils/function&#45;call&#45;params.ts -->
<g id="edge41" class="edge">
<title>src/functions.ts&#45;&gt;src/utils/function&#45;call&#45;params.ts</title>
<path fill="none" stroke="#757575" d="M2134.98,-360C2101.88,-360 2065.67,-360 2065.67,-360 2065.67,-360 2065.67,-328.11 2065.67,-328.11"/>
<polygon fill="#757575" stroke="#757575" points="2069.17,-328.11 2065.67,-318.11 2062.17,-328.11 2069.17,-328.11"/>
</g>
<!-- src/functions.ts&#45;&gt;src/utils/function&#45;utils.ts -->
<g id="edge42" class="edge">
<title>src/functions.ts&#45;&gt;src/utils/function&#45;utils.ts</title>
<path fill="none" stroke="#757575" d="M2242.04,-363C2371.94,-363 2693.25,-363 2693.25,-363 2693.25,-363 2693.25,-92.33 2693.25,-92.33"/>
<polygon fill="#757575" stroke="#757575" points="2696.75,-92.33 2693.25,-82.33 2689.75,-92.33 2696.75,-92.33"/>
</g>
<!-- src/handlers/anonymous&#45;functions.ts&#45;&gt;src/utils/identifier&#45;utils.ts -->
<g id="edge47" class="edge">
<title>src/handlers/anonymous&#45;functions.ts&#45;&gt;src/utils/identifier&#45;utils.ts</title>
<path fill="none" stroke="#757575" d="M2455.5,-294.84C2455.5,-286.6 2455.5,-277 2455.5,-277 2455.5,-277 1587.5,-277 1587.5,-277 1587.5,-277 1587.5,-269.16 1587.5,-269.16"/>
<polygon fill="#757575" stroke="#757575" points="1591,-269.16 1587.5,-259.16 1584,-269.16 1591,-269.16"/>
</g>
<!-- src/handlers/anonymous&#45;functions.ts&#45;&gt;src/type&#45;utils.ts -->
<g id="edge45" class="edge">
<title>src/handlers/anonymous&#45;functions.ts&#45;&gt;src/type&#45;utils.ts</title>
<path fill="none" stroke="#757575" d="M2462,-294.94C2462,-294.94 2462,-33.3 2462,-33.3"/>
<polygon fill="#757575" stroke="#757575" points="2465.5,-33.3 2462,-23.3 2458.5,-33.31 2465.5,-33.3"/>
</g>
<!-- src/handlers/anonymous&#45;functions.ts&#45;&gt;src/utils/function&#45;utils.ts -->
<g id="edge46" class="edge">
<title>src/handlers/anonymous&#45;functions.ts&#45;&gt;src/utils/function&#45;utils.ts</title>
<path fill="none" stroke="#757575" d="M2638.83,-294.8C2638.83,-294.8 2638.83,-92.27 2638.83,-92.27"/>
<polygon fill="#757575" stroke="#757575" points="2642.33,-92.27 2638.83,-82.27 2635.33,-92.27 2642.33,-92.27"/>
</g>
<!-- src/handlers/function&#45;declaration.ts&#45;&gt;src/declarations.ts -->
<g id="edge52" class="edge">
<title>src/handlers/function&#45;declaration.ts&#45;&gt;src/declarations.ts</title>
<path fill="none" stroke="#757575" d="M2212.75,-294.74C2212.75,-277.4 2212.75,-247 2212.75,-247 2212.75,-247 1751.09,-247 1751.09,-247"/>
<polygon fill="#757575" stroke="#757575" points="1751.09,-243.5 1741.09,-247 1751.09,-250.5 1751.09,-243.5"/>
</g>
<!-- src/handlers/function&#45;declaration.ts&#45;&gt;src/utils/identifier&#45;utils.ts -->
<g id="edge55" class="edge">
<title>src/handlers/function&#45;declaration.ts&#45;&gt;src/utils/identifier&#45;utils.ts</title>
<path fill="none" stroke="#757575" d="M2189.62,-294.75C2189.62,-288.88 2189.62,-283 2189.62,-283 2189.62,-283 1577.5,-283 1577.5,-283 1577.5,-283 1577.5,-269.12 1577.5,-269.12"/>
<polygon fill="#757575" stroke="#757575" points="1581,-269.12 1577.5,-259.12 1574,-269.12 1581,-269.12"/>
</g>
<!-- src/handlers/function&#45;declaration.ts&#45;&gt;src/utils/scope&#45;helpers.ts -->
<g id="edge56" class="edge">
<title>src/handlers/function&#45;declaration.ts&#45;&gt;src/utils/scope&#45;helpers.ts</title>
<path fill="none" stroke="#757575" d="M2235.88,-294.89C2235.88,-294.89 2235.88,-151.39 2235.88,-151.39"/>
<polygon fill="#757575" stroke="#757575" points="2239.38,-151.39 2235.88,-141.39 2232.38,-151.39 2239.38,-151.39"/>
</g>
<!-- src/handlers/function&#45;declaration.ts&#45;&gt;src/type&#45;utils.ts -->
<g id="edge53" class="edge">
<title>src/handlers/function&#45;declaration.ts&#45;&gt;src/type&#45;utils.ts</title>
<path fill="none" stroke="#757575" d="M2380.25,-294.94C2380.25,-294.94 2380.25,-33.3 2380.25,-33.3"/>
<polygon fill="#757575" stroke="#757575" points="2383.75,-33.3 2380.25,-23.3 2376.75,-33.31 2383.75,-33.3"/>
</g>
<!-- src/handlers/function&#45;declaration.ts&#45;&gt;src/utils/function&#45;utils.ts -->
<g id="edge54" class="edge">
<title>src/handlers/function&#45;declaration.ts&#45;&gt;src/utils/function&#45;utils.ts</title>
<path fill="none" stroke="#757575" d="M2386.38,-294.97C2386.38,-248.06 2386.38,-74 2386.38,-74 2386.38,-74 2534.2,-74 2534.2,-74"/>
<polygon fill="#757575" stroke="#757575" points="2534.2,-77.5 2544.2,-74 2534.2,-70.5 2534.2,-77.5"/>
</g>
<!-- src/utils/function&#45;call&#45;params.ts&#45;&gt;src/expressions/handlers.ts -->
<g id="edge100" class="edge">
<title>src/utils/function&#45;call&#45;params.ts&#45;&gt;src/expressions/handlers.ts</title>
<path fill="none" stroke="#757575" d="M1970.5,-294.7C1970.5,-264.73 1970.5,-188 1970.5,-188 1970.5,-188 1401.72,-188 1401.72,-188"/>
<polygon fill="#757575" stroke="#757575" points="1401.72,-184.5 1391.72,-188 1401.72,-191.5 1401.72,-184.5"/>
</g>
<!-- src/utils/function&#45;utils.ts&#45;&gt;src/type&#45;utils.ts -->
<g id="edge101" class="edge">
<title>src/utils/function&#45;utils.ts&#45;&gt;src/type&#45;utils.ts</title>
<path fill="none" stroke="#757575" d="M2544.15,-66C2506.1,-66 2468.5,-66 2468.5,-66 2468.5,-66 2468.5,-33.06 2468.5,-33.06"/>
<polygon fill="#757575" stroke="#757575" points="2472,-33.06 2468.5,-23.06 2465,-33.06 2472,-33.06"/>
</g>
<!-- src/handlers/method&#45;call.ts&#45;&gt;src/expressions/handlers.ts -->
<g id="edge59" class="edge">
<title>src/handlers/method&#45;call.ts&#45;&gt;src/expressions/handlers.ts</title>
<path fill="none" stroke="#757575" d="M1507.87,-483C1450,-483 1385.44,-483 1385.44,-483 1385.44,-483 1385.44,-210.04 1385.44,-210.04"/>
<polygon fill="#757575" stroke="#757575" points="1388.94,-210.04 1385.44,-200.04 1381.94,-210.04 1388.94,-210.04"/>
</g>
<!-- src/handlers/method&#45;call.ts&#45;&gt;src/utils/this&#45;keyword.ts -->
<g id="edge63" class="edge">
<title>src/handlers/method&#45;call.ts&#45;&gt;src/utils/this&#45;keyword.ts</title>
<path fill="none" stroke="#757575" d="M1678,-471.74C1678,-453.64 1678,-421 1678,-421 1678,-421 1771.47,-421 1771.47,-421"/>
<polygon fill="#757575" stroke="#757575" points="1771.47,-424.5 1781.47,-421 1771.47,-417.5 1771.47,-424.5"/>
</g>
<!-- src/handlers/method&#45;call.ts&#45;&gt;src/types/structs.ts -->
<g id="edge61" class="edge">
<title>src/handlers/method&#45;call.ts&#45;&gt;src/types/structs.ts</title>
<path fill="none" stroke="#757575" d="M1514.5,-471.89C1514.5,-471.89 1514.5,-328.39 1514.5,-328.39"/>
<polygon fill="#757575" stroke="#757575" points="1518,-328.39 1514.5,-318.39 1511,-328.39 1518,-328.39"/>
</g>
<!-- src/handlers/method&#45;call.ts&#45;&gt;src/utils/identifier&#45;utils.ts -->
<g id="edge62" class="edge">
<title>src/handlers/method&#45;call.ts&#45;&gt;src/utils/identifier&#45;utils.ts</title>
<path fill="none" stroke="#757575" d="M1557.5,-471.8C1557.5,-471.8 1557.5,-269.27 1557.5,-269.27"/>
<polygon fill="#757575" stroke="#757575" points="1561,-269.27 1557.5,-259.27 1554,-269.27 1561,-269.27"/>
</g>
<!-- src/handlers/method&#45;call.ts&#45;&gt;src/functions.ts -->
<g id="edge60" class="edge">
<title>src/handlers/method&#45;call.ts&#45;&gt;src/functions.ts</title>
<path fill="none" stroke="#757575" d="M1669,-471.78C1669,-442.78 1669,-370 1669,-370 1669,-370 2124.86,-370 2124.86,-370"/>
<polygon fill="#757575" stroke="#757575" points="2124.86,-373.5 2134.86,-370 2124.86,-366.5 2124.86,-373.5"/>
</g>
<!-- src/types/modules.ts&#45;&gt;src/expressions/handlers.ts -->
<g id="edge86" class="edge">
<title>src/types/modules.ts&#45;&gt;src/expressions/handlers.ts</title>
<path fill="none" stroke="#757575" d="M1267.51,-299C1307.23,-299 1349.06,-299 1349.06,-299 1349.06,-299 1349.06,-210.33 1349.06,-210.33"/>
<polygon fill="#757575" stroke="#757575" points="1352.56,-210.33 1349.06,-200.33 1345.56,-210.33 1352.56,-210.33"/>
</g>
<!-- src/types/modules.ts&#45;&gt;src/declarations.ts -->
<g id="edge85" class="edge">
<title>src/types/modules.ts&#45;&gt;src/declarations.ts</title>
<path fill="none" stroke="#757575" d="M1197.5,-294.88C1197.5,-284.52 1197.5,-271 1197.5,-271 1197.5,-271 1630.67,-271 1630.67,-271 1630.67,-271 1630.67,-269.25 1630.67,-269.25"/>
<polygon fill="#757575" stroke="#757575" points="1634.17,-269.25 1630.67,-259.25 1627.17,-269.25 1634.17,-269.25"/>
</g>
<!-- src/types/modules.ts&#45;&gt;src/utils/identifier&#45;utils.ts -->
<g id="edge87" class="edge">
<title>src/types/modules.ts&#45;&gt;src/utils/identifier&#45;utils.ts</title>
<path fill="none" stroke="#757575" d="M1267.55,-304C1309.65,-304 1355.12,-304 1355.12,-304 1355.12,-304 1355.12,-243 1355.12,-243 1355.12,-243 1427.26,-243 1427.26,-243"/>
<polygon fill="#757575" stroke="#757575" points="1427.26,-246.5 1437.26,-243 1427.26,-239.5 1427.26,-246.5"/>
</g>
<!-- src/loops/types.ts&#45;&gt;src/expressions/handlers.ts -->
<g id="edge71" class="edge">
<title>src/loops/types.ts&#45;&gt;src/expressions/handlers.ts</title>
<path fill="none" stroke="#757575" d="M887.5,-471.84C887.5,-463.6 887.5,-454 887.5,-454 887.5,-454 1367.25,-454 1367.25,-454 1367.25,-454 1367.25,-210.25 1367.25,-210.25"/>
<polygon fill="#757575" stroke="#757575" points="1370.75,-210.25 1367.25,-200.25 1363.75,-210.25 1370.75,-210.25"/>
</g>
<!-- src/types/type&#45;declarations.ts&#45;&gt;src/declarations.ts -->
<g id="edge90" class="edge">
<title>src/types/type&#45;declarations.ts&#45;&gt;src/declarations.ts</title>
<path fill="none" stroke="#757575" d="M1700.5,-294.84C1700.5,-294.84 1700.5,-269.13 1700.5,-269.13"/>
<polygon fill="#757575" stroke="#757575" points="1704,-269.13 1700.5,-259.13 1697,-269.13 1704,-269.13"/>
</g>
<!-- src/types/type&#45;declarations.ts&#45;&gt;src/type&#45;utils.ts -->
<g id="edge91" class="edge">
<title>src/types/type&#45;declarations.ts&#45;&gt;src/type&#45;utils.ts</title>
<path fill="none" stroke="#757575" d="M1796,-294.87C1796,-241.09 1796,-19 1796,-19 1796,-19 2357.9,-19 2357.9,-19"/>
<polygon fill="#757575" stroke="#757575" points="2357.9,-22.5 2367.9,-19 2357.9,-15.5 2357.9,-22.5"/>
</g>
<!-- src/utils/interpret.ts -->
<g id="node40" class="node">
<title>src/utils/interpret.ts</title>
<path fill="none" stroke="#c6c5fe" d="M1140.83,-672C1140.83,-672 1026.17,-672 1026.17,-672 1022.33,-672 1018.5,-668.17 1018.5,-664.33 1018.5,-664.33 1018.5,-656.67 1018.5,-656.67 1018.5,-652.83 1022.33,-649 1026.17,-649 1026.17,-649 1140.83,-649 1140.83,-649 1144.67,-649 1148.5,-652.83 1148.5,-656.67 1148.5,-656.67 1148.5,-664.33 1148.5,-664.33 1148.5,-668.17 1144.67,-672 1140.83,-672"/>
<text text-anchor="middle" x="1083.5" y="-656.8" font-family="Arial" font-size="14.00" fill="#c6c5fe">src/utils/interpret.ts</text>
</g>
<!-- src/utils/interpret.ts&#45;&gt;src/app.ts -->
<g id="edge102" class="edge">
<title>src/utils/interpret.ts&#45;&gt;src/app.ts</title>
<path fill="none" stroke="#757575" d="M1083.5,-648.84C1083.5,-648.84 1083.5,-623.13 1083.5,-623.13"/>
<polygon fill="#757575" stroke="#757575" points="1087,-623.13 1083.5,-613.13 1080,-623.13 1087,-623.13"/>
</g>
<!-- tests/control/control&#45;flow.test.ts -->
<g id="node41" class="node">
<title>tests/control/control&#45;flow.test.ts</title>
<path fill="none" stroke="#c6c5fe" d="M193.33,-731C193.33,-731 7.67,-731 7.67,-731 3.83,-731 0,-727.17 0,-723.33 0,-723.33 0,-715.67 0,-715.67 0,-711.83 3.83,-708 7.67,-708 7.67,-708 193.33,-708 193.33,-708 197.17,-708 201,-711.83 201,-715.67 201,-715.67 201,-723.33 201,-723.33 201,-727.17 197.17,-731 193.33,-731"/>
<text text-anchor="middle" x="100.5" y="-715.8" font-family="Arial" font-size="14.00" fill="#c6c5fe">tests/control/control&#45;flow.test.ts</text>
</g>
<!-- tests/control/control&#45;flow.test.ts&#45;&gt;src/utils/interpret.ts -->
<g id="edge110" class="edge">
<title>tests/control/control&#45;flow.test.ts&#45;&gt;src/utils/interpret.ts</title>
<path fill="none" stroke="#757575" d="M100.5,-707.74C100.5,-688.4 100.5,-652 100.5,-652 100.5,-652 1008.24,-652 1008.24,-652"/>
<polygon fill="#757575" stroke="#757575" points="1008.24,-655.5 1018.24,-652 1008.24,-648.5 1008.24,-655.5"/>
</g>
<!-- tests/core/arithmetic.test.ts -->
<g id="node42" class="node">
<title>tests/core/arithmetic.test.ts</title>
<path fill="none" stroke="#c6c5fe" d="M389.83,-731C389.83,-731 227.17,-731 227.17,-731 223.33,-731 219.5,-727.17 219.5,-723.33 219.5,-723.33 219.5,-715.67 219.5,-715.67 219.5,-711.83 223.33,-708 227.17,-708 227.17,-708 389.83,-708 389.83,-708 393.67,-708 397.5,-711.83 397.5,-715.67 397.5,-715.67 397.5,-723.33 397.5,-723.33 397.5,-727.17 393.67,-731 389.83,-731"/>
<text text-anchor="middle" x="308.5" y="-715.8" font-family="Arial" font-size="14.00" fill="#c6c5fe">tests/core/arithmetic.test.ts</text>
</g>
<!-- tests/core/arithmetic.test.ts&#45;&gt;src/utils/interpret.ts -->
<g id="edge111" class="edge">
<title>tests/core/arithmetic.test.ts&#45;&gt;src/utils/interpret.ts</title>
<path fill="none" stroke="#757575" d="M312,-707.85C312,-689.52 312,-656 312,-656 312,-656 1008.39,-656 1008.39,-656"/>
<polygon fill="#757575" stroke="#757575" points="1008.39,-659.5 1018.39,-656 1008.39,-652.5 1008.39,-659.5"/>
</g>
<!-- tests/core/char.test.ts -->
<g id="node43" class="node">
<title>tests/core/char.test.ts</title>
<path fill="none" stroke="#c6c5fe" d="M551.83,-731C551.83,-731 423.17,-731 423.17,-731 419.33,-731 415.5,-727.17 415.5,-723.33 415.5,-723.33 415.5,-715.67 415.5,-715.67 415.5,-711.83 419.33,-708 423.17,-708 423.17,-708 551.83,-708 551.83,-708 555.67,-708 559.5,-711.83 559.5,-715.67 559.5,-715.67 559.5,-723.33 559.5,-723.33 559.5,-727.17 555.67,-731 551.83,-731"/>
<text text-anchor="middle" x="487.5" y="-715.8" font-family="Arial" font-size="14.00" fill="#c6c5fe">tests/core/char.test.ts</text>
</g>
<!-- tests/core/char.test.ts&#45;&gt;src/utils/interpret.ts -->
<g id="edge112" class="edge">
<title>tests/core/char.test.ts&#45;&gt;src/utils/interpret.ts</title>
<path fill="none" stroke="#757575" d="M538.5,-707.74C538.5,-690.4 538.5,-660 538.5,-660 538.5,-660 1008.3,-660 1008.3,-660"/>
<polygon fill="#757575" stroke="#757575" points="1008.3,-663.5 1018.3,-660 1008.3,-656.5 1008.3,-663.5"/>
</g>
<!-- tests/core/strings.test.ts -->
<g id="node44" class="node">
<title>tests/core/strings.test.ts</title>
<path fill="none" stroke="#c6c5fe" d="M727.83,-731C727.83,-731 585.17,-731 585.17,-731 581.33,-731 577.5,-727.17 577.5,-723.33 577.5,-723.33 577.5,-715.67 577.5,-715.67 577.5,-711.83 581.33,-708 585.17,-708 585.17,-708 727.83,-708 727.83,-708 731.67,-708 735.5,-711.83 735.5,-715.67 735.5,-715.67 735.5,-723.33 735.5,-723.33 735.5,-727.17 731.67,-731 727.83,-731"/>
<text text-anchor="middle" x="656.5" y="-715.8" font-family="Arial" font-size="14.00" fill="#c6c5fe">tests/core/strings.test.ts</text>
</g>
<!-- tests/core/strings.test.ts&#45;&gt;src/utils/interpret.ts -->
<g id="edge113" class="edge">
<title>tests/core/strings.test.ts&#45;&gt;src/utils/interpret.ts</title>
<path fill="none" stroke="#757575" d="M715,-707.73C715,-691.44 715,-664 715,-664 715,-664 1008.47,-664 1008.47,-664"/>
<polygon fill="#757575" stroke="#757575" points="1008.47,-667.5 1018.47,-664 1008.47,-660.5 1008.47,-667.5"/>
</g>
<!-- tests/functions/constructor.test.ts -->
<g id="node45" class="node">
<title>tests/functions/constructor.test.ts</title>
<path fill="none" stroke="#c6c5fe" d="M957.83,-731C957.83,-731 761.17,-731 761.17,-731 757.33,-731 753.5,-727.17 753.5,-723.33 753.5,-723.33 753.5,-715.67 753.5,-715.67 753.5,-711.83 757.33,-708 761.17,-708 761.17,-708 957.83,-708 957.83,-708 961.67,-708 965.5,-711.83 965.5,-715.67 965.5,-715.67 965.5,-723.33 965.5,-723.33 965.5,-727.17 961.67,-731 957.83,-731"/>
<text text-anchor="middle" x="859.5" y="-715.8" font-family="Arial" font-size="14.00" fill="#c6c5fe">tests/functions/constructor.test.ts</text>
</g>
<!-- tests/functions/constructor.test.ts&#45;&gt;src/utils/interpret.ts -->
<g id="edge114" class="edge">
<title>tests/functions/constructor.test.ts&#45;&gt;src/utils/interpret.ts</title>
<path fill="none" stroke="#757575" d="M955,-707.81C955,-692.62 955,-668 955,-668 955,-668 1008.5,-668 1008.5,-668"/>
<polygon fill="#757575" stroke="#757575" points="1008.5,-671.5 1018.5,-668 1008.5,-664.5 1008.5,-671.5"/>
</g>
<!-- tests/functions/functions.test.ts -->
<g id="node46" class="node">
<title>tests/functions/functions.test.ts</title>
<path fill="none" stroke="#c6c5fe" d="M1175.83,-731C1175.83,-731 991.17,-731 991.17,-731 987.33,-731 983.5,-727.17 983.5,-723.33 983.5,-723.33 983.5,-715.67 983.5,-715.67 983.5,-711.83 987.33,-708 991.17,-708 991.17,-708 1175.83,-708 1175.83,-708 1179.67,-708 1183.5,-711.83 1183.5,-715.67 1183.5,-715.67 1183.5,-723.33 1183.5,-723.33 1183.5,-727.17 1179.67,-731 1175.83,-731"/>
<text text-anchor="middle" x="1083.5" y="-715.8" font-family="Arial" font-size="14.00" fill="#c6c5fe">tests/functions/functions.test.ts</text>
</g>
<!-- tests/functions/functions.test.ts&#45;&gt;src/utils/interpret.ts -->
<g id="edge115" class="edge">
<title>tests/functions/functions.test.ts&#45;&gt;src/utils/interpret.ts</title>
<path fill="none" stroke="#757575" d="M1083.5,-707.84C1083.5,-707.84 1083.5,-682.13 1083.5,-682.13"/>
<polygon fill="#757575" stroke="#757575" points="1087,-682.13 1083.5,-672.13 1080,-682.13 1087,-682.13"/>
</g>
<!-- tests/functions/generic&#45;functions.test.ts -->
<g id="node47" class="node">
<title>tests/functions/generic&#45;functions.test.ts</title>
<path fill="none" stroke="#c6c5fe" d="M1443.33,-731C1443.33,-731 1209.67,-731 1209.67,-731 1205.83,-731 1202,-727.17 1202,-723.33 1202,-723.33 1202,-715.67 1202,-715.67 1202,-711.83 1205.83,-708 1209.67,-708 1209.67,-708 1443.33,-708 1443.33,-708 1447.17,-708 1451,-711.83 1451,-715.67 1451,-715.67 1451,-723.33 1451,-723.33 1451,-727.17 1447.17,-731 1443.33,-731"/>
<text text-anchor="middle" x="1326.5" y="-715.8" font-family="Arial" font-size="14.00" fill="#c6c5fe">tests/functions/generic&#45;functions.test.ts</text>
</g>
<!-- tests/functions/generic&#45;functions.test.ts&#45;&gt;src/utils/interpret.ts -->
<g id="edge116" class="edge">
<title>tests/functions/generic&#45;functions.test.ts&#45;&gt;src/utils/interpret.ts</title>
<path fill="none" stroke="#757575" d="M1269.75,-707.81C1269.75,-692.62 1269.75,-668 1269.75,-668 1269.75,-668 1158.64,-668 1158.64,-668"/>
<polygon fill="#757575" stroke="#757575" points="1158.64,-664.5 1148.64,-668 1158.64,-671.5 1158.64,-664.5"/>
</g>
<!-- tests/modules/modules.test.ts -->
<g id="node48" class="node">
<title>tests/modules/modules.test.ts</title>
<path fill="none" stroke="#c6c5fe" d="M1657.83,-731C1657.83,-731 1477.17,-731 1477.17,-731 1473.33,-731 1469.5,-727.17 1469.5,-723.33 1469.5,-723.33 1469.5,-715.67 1469.5,-715.67 1469.5,-711.83 1473.33,-708 1477.17,-708 1477.17,-708 1657.83,-708 1657.83,-708 1661.67,-708 1665.5,-711.83 1665.5,-715.67 1665.5,-715.67 1665.5,-723.33 1665.5,-723.33 1665.5,-727.17 1661.67,-731 1657.83,-731"/>
<text text-anchor="middle" x="1567.5" y="-715.8" font-family="Arial" font-size="14.00" fill="#c6c5fe">tests/modules/modules.test.ts</text>
</g>
<!-- tests/modules/modules.test.ts&#45;&gt;src/utils/interpret.ts -->
<g id="edge117" class="edge">
<title>tests/modules/modules.test.ts&#45;&gt;src/utils/interpret.ts</title>
<path fill="none" stroke="#757575" d="M1514.25,-707.73C1514.25,-691.44 1514.25,-664 1514.25,-664 1514.25,-664 1158.92,-664 1158.92,-664"/>
<polygon fill="#757575" stroke="#757575" points="1158.92,-660.5 1148.92,-664 1158.92,-667.5 1158.92,-660.5"/>
</g>
<!-- tests/types/generics.test.ts -->
<g id="node49" class="node">
<title>tests/types/generics.test.ts</title>
<path fill="none" stroke="#c6c5fe" d="M1851.83,-731C1851.83,-731 1691.17,-731 1691.17,-731 1687.33,-731 1683.5,-727.17 1683.5,-723.33 1683.5,-723.33 1683.5,-715.67 1683.5,-715.67 1683.5,-711.83 1687.33,-708 1691.17,-708 1691.17,-708 1851.83,-708 1851.83,-708 1855.67,-708 1859.5,-711.83 1859.5,-715.67 1859.5,-715.67 1859.5,-723.33 1859.5,-723.33 1859.5,-727.17 1855.67,-731 1851.83,-731"/>
<text text-anchor="middle" x="1771.5" y="-715.8" font-family="Arial" font-size="14.00" fill="#c6c5fe">tests/types/generics.test.ts</text>
</g>
<!-- tests/types/generics.test.ts&#45;&gt;src/utils/interpret.ts -->
<g id="edge118" class="edge">
<title>tests/types/generics.test.ts&#45;&gt;src/utils/interpret.ts</title>
<path fill="none" stroke="#757575" d="M1718.5,-707.74C1718.5,-690.4 1718.5,-660 1718.5,-660 1718.5,-660 1158.77,-660 1158.77,-660"/>
<polygon fill="#757575" stroke="#757575" points="1158.77,-656.5 1148.77,-660 1158.77,-663.5 1158.77,-656.5"/>
</g>
<!-- tests/types/types.test.ts -->
<g id="node50" class="node">
<title>tests/types/types.test.ts</title>
<path fill="none" stroke="#c6c5fe" d="M2027.33,-731C2027.33,-731 1885.67,-731 1885.67,-731 1881.83,-731 1878,-727.17 1878,-723.33 1878,-723.33 1878,-715.67 1878,-715.67 1878,-711.83 1881.83,-708 1885.67,-708 1885.67,-708 2027.33,-708 2027.33,-708 2031.17,-708 2035,-711.83 2035,-715.67 2035,-715.67 2035,-723.33 2035,-723.33 2035,-727.17 2031.17,-731 2027.33,-731"/>
<text text-anchor="middle" x="1956.5" y="-715.8" font-family="Arial" font-size="14.00" fill="#c6c5fe">tests/types/types.test.ts</text>
</g>
<!-- tests/types/types.test.ts&#45;&gt;src/utils/interpret.ts -->
<g id="edge119" class="edge">
<title>tests/types/types.test.ts&#45;&gt;src/utils/interpret.ts</title>
<path fill="none" stroke="#757575" d="M1907.75,-707.85C1907.75,-689.52 1907.75,-656 1907.75,-656 1907.75,-656 1158.52,-656 1158.52,-656"/>
<polygon fill="#757575" stroke="#757575" points="1158.52,-652.5 1148.52,-656 1158.52,-659.5 1158.52,-652.5"/>
</g>
<!-- tests/values/variables.test.ts -->
<g id="node51" class="node">
<title>tests/values/variables.test.ts</title>
<path fill="none" stroke="#c6c5fe" d="M2230.33,-731C2230.33,-731 2060.67,-731 2060.67,-731 2056.83,-731 2053,-727.17 2053,-723.33 2053,-723.33 2053,-715.67 2053,-715.67 2053,-711.83 2056.83,-708 2060.67,-708 2060.67,-708 2230.33,-708 2230.33,-708 2234.17,-708 2238,-711.83 2238,-715.67 2238,-715.67 2238,-723.33 2238,-723.33 2238,-727.17 2234.17,-731 2230.33,-731"/>
<text text-anchor="middle" x="2145.5" y="-715.8" font-family="Arial" font-size="14.00" fill="#c6c5fe">tests/values/variables.test.ts</text>
</g>
<!-- tests/values/variables.test.ts&#45;&gt;src/utils/interpret.ts -->
<g id="edge120" class="edge">
<title>tests/values/variables.test.ts&#45;&gt;src/utils/interpret.ts</title>
<path fill="none" stroke="#757575" d="M2059.33,-707.74C2059.33,-688.4 2059.33,-652 2059.33,-652 2059.33,-652 1158.66,-652 1158.66,-652"/>
<polygon fill="#757575" stroke="#757575" points="1158.66,-648.5 1148.66,-652 1158.66,-655.5 1158.66,-648.5"/>
</g>
</g>
</svg>
