<?xml version="1.0" encoding="UTF-8" standalone="no"?>
<!DOCTYPE svg PUBLIC "-//W3C//DTD SVG 1.1//EN"
 "http://www.w3.org/Graphics/SVG/1.1/DTD/svg11.dtd">
<!-- Generated by graphviz version 2.43.0 (0)
 -->
<!-- Title: G Pages: 1 -->
<svg width="297pt" height="282pt"
 viewBox="0.00 0.00 297.20 282.20" xmlns="http://www.w3.org/2000/svg" xmlns:xlink="http://www.w3.org/1999/xlink">
<g id="graph0" class="graph" transform="scale(1 1) rotate(0) translate(21.6 260.6)">
<title>G</title>
<polygon fill="#111111" stroke="transparent" points="-21.6,21.6 -21.6,-260.6 275.6,-260.6 275.6,21.6 -21.6,21.6"/>
<!-- arithmetic.ts -->
<g id="node1" class="node">
<title>arithmetic.ts</title>
<path fill="none" stroke="#c6c5fe" d="M192.17,-74C192.17,-74 133.83,-74 133.83,-74 130.67,-74 127.5,-70.83 127.5,-67.67 127.5,-67.67 127.5,-61.33 127.5,-61.33 127.5,-58.17 130.67,-55 133.83,-55 133.83,-55 192.17,-55 192.17,-55 195.33,-55 198.5,-58.17 198.5,-61.33 198.5,-61.33 198.5,-67.67 198.5,-67.67 198.5,-70.83 195.33,-74 192.17,-74"/>
<text text-anchor="middle" x="163" y="-62" font-family="Arial" font-size="10.00" fill="#c6c5fe">arithmetic.ts</text>
</g>
<!-- error.ts -->
<g id="node2" class="node">
<title>error.ts</title>
<path fill="none" stroke="#cfffac" d="M47.67,-19C47.67,-19 6.33,-19 6.33,-19 3.17,-19 0,-15.83 0,-12.67 0,-12.67 0,-6.33 0,-6.33 0,-3.17 3.17,0 6.33,0 6.33,0 47.67,0 47.67,0 50.83,0 54,-3.17 54,-6.33 54,-6.33 54,-12.67 54,-12.67 54,-15.83 50.83,-19 47.67,-19"/>
<text text-anchor="middle" x="27" y="-7" font-family="Arial" font-size="10.00" fill="#cfffac">error.ts</text>
</g>
<!-- arithmetic.ts&#45;&gt;error.ts -->
<g id="edge1" class="edge">
<title>arithmetic.ts&#45;&gt;error.ts</title>
<path fill="none" stroke="#757575" d="M163,-54.89C163,-37.59 163,-3 163,-3 163,-3 64.19,-3 64.19,-3"/>
<polygon fill="#757575" stroke="#757575" points="64.19,0.5 54.19,-3 64.19,-6.5 64.19,0.5"/>
</g>
<!-- result.ts -->
<g id="node3" class="node">
<title>result.ts</title>
<path fill="none" stroke="#cfffac" d="M247.67,-19C247.67,-19 206.33,-19 206.33,-19 203.17,-19 200,-15.83 200,-12.67 200,-12.67 200,-6.33 200,-6.33 200,-3.17 203.17,0 206.33,0 206.33,0 247.67,0 247.67,0 250.83,0 254,-3.17 254,-6.33 254,-6.33 254,-12.67 254,-12.67 254,-15.83 250.83,-19 247.67,-19"/>
<text text-anchor="middle" x="227" y="-7" font-family="Arial" font-size="10.00" fill="#cfffac">result.ts</text>
</g>
<!-- arithmetic.ts&#45;&gt;result.ts -->
<g id="edge2" class="edge">
<title>arithmetic.ts&#45;&gt;result.ts</title>
<path fill="none" stroke="#757575" d="M198.74,-64C205.65,-64 210.8,-64 210.8,-64 210.8,-64 210.8,-29.24 210.8,-29.24"/>
<polygon fill="#757575" stroke="#757575" points="214.3,-29.24 210.8,-19.24 207.3,-29.24 214.3,-29.24"/>
</g>
<!-- intepret.ts -->
<g id="node4" class="node">
<title>intepret.ts</title>
<path fill="none" stroke="#c6c5fe" d="M136.67,-239C136.67,-239 89.33,-239 89.33,-239 86.17,-239 83,-235.83 83,-232.67 83,-232.67 83,-226.33 83,-226.33 83,-223.17 86.17,-220 89.33,-220 89.33,-220 136.67,-220 136.67,-220 139.83,-220 143,-223.17 143,-226.33 143,-226.33 143,-232.67 143,-232.67 143,-235.83 139.83,-239 136.67,-239"/>
<text text-anchor="middle" x="113" y="-227" font-family="Arial" font-size="10.00" fill="#c6c5fe">intepret.ts</text>
</g>
<!-- intepret.ts&#45;&gt;error.ts -->
<g id="edge3" class="edge">
<title>intepret.ts&#45;&gt;error.ts</title>
<path fill="none" stroke="#757575" d="M82.89,-229C54.47,-229 16.17,-229 16.17,-229 16.17,-229 16.17,-29.21 16.17,-29.21"/>
<polygon fill="#757575" stroke="#757575" points="19.67,-29.21 16.17,-19.21 12.67,-29.21 19.67,-29.21"/>
</g>
<!-- intepret.ts&#45;&gt;result.ts -->
<g id="edge5" class="edge">
<title>intepret.ts&#45;&gt;result.ts</title>
<path fill="none" stroke="#757575" d="M143.2,-229C181.66,-229 243.2,-229 243.2,-229 243.2,-229 243.2,-29.21 243.2,-29.21"/>
<polygon fill="#757575" stroke="#757575" points="246.7,-29.21 243.2,-19.21 239.7,-29.21 246.7,-29.21"/>
</g>
<!-- parser.ts -->
<g id="node5" class="node">
<title>parser.ts</title>
<path fill="none" stroke="#c6c5fe" d="M162.17,-129C162.17,-129 119.83,-129 119.83,-129 116.67,-129 113.5,-125.83 113.5,-122.67 113.5,-122.67 113.5,-116.33 113.5,-116.33 113.5,-113.17 116.67,-110 119.83,-110 119.83,-110 162.17,-110 162.17,-110 165.33,-110 168.5,-113.17 168.5,-116.33 168.5,-116.33 168.5,-122.67 168.5,-122.67 168.5,-125.83 165.33,-129 162.17,-129"/>
<text text-anchor="middle" x="141" y="-117" font-family="Arial" font-size="10.00" fill="#c6c5fe">parser.ts</text>
</g>
<!-- intepret.ts&#45;&gt;parser.ts -->
<g id="edge4" class="edge">
<title>intepret.ts&#45;&gt;parser.ts</title>
<path fill="none" stroke="#757575" d="M133.83,-219.74C133.83,-219.74 133.83,-139.08 133.83,-139.08"/>
<polygon fill="#757575" stroke="#757575" points="137.33,-139.08 133.83,-129.08 130.33,-139.08 137.33,-139.08"/>
</g>
<!-- variables.ts -->
<g id="node6" class="node">
<title>variables.ts</title>
<path fill="none" stroke="#c6c5fe" d="M109.17,-184C109.17,-184 54.83,-184 54.83,-184 51.67,-184 48.5,-180.83 48.5,-177.67 48.5,-177.67 48.5,-171.33 48.5,-171.33 48.5,-168.17 51.67,-165 54.83,-165 54.83,-165 109.17,-165 109.17,-165 112.33,-165 115.5,-168.17 115.5,-171.33 115.5,-171.33 115.5,-177.67 115.5,-177.67 115.5,-180.83 112.33,-184 109.17,-184"/>
<text text-anchor="middle" x="82" y="-172" font-family="Arial" font-size="10.00" fill="#c6c5fe">variables.ts</text>
</g>
<!-- intepret.ts&#45;&gt;variables.ts -->
<g id="edge6" class="edge">
<title>intepret.ts&#45;&gt;variables.ts</title>
<path fill="none" stroke="#757575" d="M99.25,-219.92C99.25,-219.92 99.25,-194.34 99.25,-194.34"/>
<polygon fill="#757575" stroke="#757575" points="102.75,-194.34 99.25,-184.34 95.75,-194.34 102.75,-194.34"/>
</g>
<!-- parser.ts&#45;&gt;arithmetic.ts -->
<g id="edge7" class="edge">
<title>parser.ts&#45;&gt;arithmetic.ts</title>
<path fill="none" stroke="#757575" d="M148,-109.92C148,-109.92 148,-84.34 148,-84.34"/>
<polygon fill="#757575" stroke="#757575" points="151.5,-84.34 148,-74.34 144.5,-84.34 151.5,-84.34"/>
</g>
<!-- parser.ts&#45;&gt;error.ts -->
<g id="edge8" class="edge">
<title>parser.ts&#45;&gt;error.ts</title>
<path fill="none" stroke="#757575" d="M122.83,-109.91C122.83,-82.7 122.83,-7 122.83,-7 122.83,-7 64.21,-7 64.21,-7"/>
<polygon fill="#757575" stroke="#757575" points="64.21,-3.5 54.21,-7 64.21,-10.5 64.21,-3.5"/>
</g>
<!-- parser.ts&#45;&gt;result.ts -->
<g id="edge9" class="edge">
<title>parser.ts&#45;&gt;result.ts</title>
<path fill="none" stroke="#757575" d="M168.74,-119C192.05,-119 221.6,-119 221.6,-119 221.6,-119 221.6,-29.22 221.6,-29.22"/>
<polygon fill="#757575" stroke="#757575" points="225.1,-29.22 221.6,-19.22 218.1,-29.22 225.1,-29.22"/>
</g>
<!-- types.ts -->
<g id="node7" class="node">
<title>types.ts</title>
<path fill="none" stroke="#c6c5fe" d="M102.67,-74C102.67,-74 61.33,-74 61.33,-74 58.17,-74 55,-70.83 55,-67.67 55,-67.67 55,-61.33 55,-61.33 55,-58.17 58.17,-55 61.33,-55 61.33,-55 102.67,-55 102.67,-55 105.83,-55 109,-58.17 109,-61.33 109,-61.33 109,-67.67 109,-67.67 109,-70.83 105.83,-74 102.67,-74"/>
<text text-anchor="middle" x="82" y="-62" font-family="Arial" font-size="10.00" fill="#c6c5fe">types.ts</text>
</g>
<!-- parser.ts&#45;&gt;types.ts -->
<g id="edge10" class="edge">
<title>parser.ts&#45;&gt;types.ts</title>
<path fill="none" stroke="#757575" d="M118.17,-109.83C118.17,-93.93 118.17,-64 118.17,-64 118.17,-64 117.25,-64 117.25,-64"/>
<polygon fill="#757575" stroke="#757575" points="119.04,-60.5 109.04,-64 119.04,-67.5 119.04,-60.5"/>
</g>
<!-- variables.ts&#45;&gt;error.ts -->
<g id="edge13" class="edge">
<title>variables.ts&#45;&gt;error.ts</title>
<path fill="none" stroke="#757575" d="M48.32,-174C39.46,-174 32.33,-174 32.33,-174 32.33,-174 32.33,-29.3 32.33,-29.3"/>
<polygon fill="#757575" stroke="#757575" points="35.83,-29.3 32.33,-19.3 28.83,-29.3 35.83,-29.3"/>
</g>
<!-- variables.ts&#45;&gt;result.ts -->
<g id="edge15" class="edge">
<title>variables.ts&#45;&gt;result.ts</title>
<path fill="none" stroke="#757575" d="M115.75,-177C160.1,-177 232.4,-177 232.4,-177 232.4,-177 232.4,-29.48 232.4,-29.48"/>
<polygon fill="#757575" stroke="#757575" points="235.9,-29.48 232.4,-19.48 228.9,-29.48 235.9,-29.48"/>
</g>
<!-- variables.ts&#45;&gt;parser.ts -->
<g id="edge14" class="edge">
<title>variables.ts&#45;&gt;parser.ts</title>
<path fill="none" stroke="#757575" d="M115.62,-171C120.91,-171 124.67,-171 124.67,-171 124.67,-171 124.67,-139.43 124.67,-139.43"/>
<polygon fill="#757575" stroke="#757575" points="128.17,-139.43 124.67,-129.43 121.17,-139.43 128.17,-139.43"/>
</g>
<!-- variables.ts&#45;&gt;types.ts -->
<g id="edge16" class="edge">
<title>variables.ts&#45;&gt;types.ts</title>
<path fill="none" stroke="#757575" d="M82,-164.74C82,-164.74 82,-84.08 82,-84.08"/>
<polygon fill="#757575" stroke="#757575" points="85.5,-84.08 82,-74.08 78.5,-84.08 85.5,-84.08"/>
</g>
<!-- types.ts&#45;&gt;error.ts -->
<g id="edge11" class="edge">
<title>types.ts&#45;&gt;error.ts</title>
<path fill="none" stroke="#757575" d="M73,-54.69C73,-39.24 73,-11 73,-11 73,-11 64.02,-11 64.02,-11"/>
<polygon fill="#757575" stroke="#757575" points="64.02,-7.5 54.02,-11 64.02,-14.5 64.02,-7.5"/>
</g>
<!-- types.ts&#45;&gt;result.ts -->
<g id="edge12" class="edge">
<title>types.ts&#45;&gt;result.ts</title>
<path fill="none" stroke="#757575" d="M91,-54.96C91,-40.57 91,-15 91,-15 91,-15 189.81,-15 189.81,-15"/>
<polygon fill="#757575" stroke="#757575" points="189.81,-18.5 199.81,-15 189.81,-11.5 189.81,-18.5"/>
</g>
</g>
</svg>
