<?xml version="1.0" encoding="UTF-8" standalone="no"?>
<!DOCTYPE svg PUBLIC "-//W3C//DTD SVG 1.1//EN"
 "http://www.w3.org/Graphics/SVG/1.1/DTD/svg11.dtd">
<!-- Generated by graphviz version 2.43.0 (0)
 -->
<!-- Title: G Pages: 1 -->
<svg width="1223pt" height="395pt"
 viewBox="0.00 0.00 1223.20 395.20" xmlns="http://www.w3.org/2000/svg" xmlns:xlink="http://www.w3.org/1999/xlink">
<g id="graph0" class="graph" transform="scale(1 1) rotate(0) translate(21.6 373.6)">
<title>G</title>
<polygon fill="#111111" stroke="transparent" points="-21.6,21.6 -21.6,-373.6 1201.6,-373.6 1201.6,21.6 -21.6,21.6"/>
<!-- core/arithmetic.ts -->
<g id="node1" class="node">
<title>core/arithmetic.ts</title>
<path fill="none" stroke="#c6c5fe" d="M1042.33,-175C1042.33,-175 937.67,-175 937.67,-175 933.83,-175 930,-171.17 930,-167.33 930,-167.33 930,-159.67 930,-159.67 930,-155.83 933.83,-152 937.67,-152 937.67,-152 1042.33,-152 1042.33,-152 1046.17,-152 1050,-155.83 1050,-159.67 1050,-159.67 1050,-167.33 1050,-167.33 1050,-171.17 1046.17,-175 1042.33,-175"/>
<text text-anchor="middle" x="990" y="-159.8" font-family="Arial" font-size="14.00" fill="#c6c5fe">core/arithmetic.ts</text>
</g>
<!-- core/error.ts -->
<g id="node2" class="node">
<title>core/error.ts</title>
<path fill="none" stroke="#cfffac" d="M1169.83,-40C1169.83,-40 1096.17,-40 1096.17,-40 1092.33,-40 1088.5,-36.17 1088.5,-32.33 1088.5,-32.33 1088.5,-24.67 1088.5,-24.67 1088.5,-20.83 1092.33,-17 1096.17,-17 1096.17,-17 1169.83,-17 1169.83,-17 1173.67,-17 1177.5,-20.83 1177.5,-24.67 1177.5,-24.67 1177.5,-32.33 1177.5,-32.33 1177.5,-36.17 1173.67,-40 1169.83,-40"/>
<text text-anchor="middle" x="1133" y="-24.8" font-family="Arial" font-size="14.00" fill="#cfffac">core/error.ts</text>
</g>
<!-- core/arithmetic.ts&#45;&gt;core/error.ts -->
<g id="edge1" class="edge">
<title>core/arithmetic.ts&#45;&gt;core/error.ts</title>
<path fill="none" stroke="#757575" d="M1050.21,-163.5C1090.81,-163.5 1137,-163.5 1137,-163.5 1137,-163.5 1137,-50.01 1137,-50.01"/>
<polygon fill="#757575" stroke="#757575" points="1140.5,-50.01 1137,-40.01 1133.5,-50.01 1140.5,-50.01"/>
</g>
<!-- core/result.ts -->
<g id="node3" class="node">
<title>core/result.ts</title>
<path fill="none" stroke="#cfffac" d="M1172.33,-352C1172.33,-352 1093.67,-352 1093.67,-352 1089.83,-352 1086,-348.17 1086,-344.33 1086,-344.33 1086,-336.67 1086,-336.67 1086,-332.83 1089.83,-329 1093.67,-329 1093.67,-329 1172.33,-329 1172.33,-329 1176.17,-329 1180,-332.83 1180,-336.67 1180,-336.67 1180,-344.33 1180,-344.33 1180,-348.17 1176.17,-352 1172.33,-352"/>
<text text-anchor="middle" x="1133" y="-336.8" font-family="Arial" font-size="14.00" fill="#cfffac">core/result.ts</text>
</g>
<!-- core/arithmetic.ts&#45;&gt;core/result.ts -->
<g id="edge2" class="edge">
<title>core/arithmetic.ts&#45;&gt;core/result.ts</title>
<path fill="none" stroke="#757575" d="M1043,-175.14C1043,-213.4 1043,-332.83 1043,-332.83 1043,-332.83 1075.89,-332.83 1075.89,-332.83"/>
<polygon fill="#757575" stroke="#757575" points="1075.89,-336.33 1085.89,-332.83 1075.89,-329.33 1075.89,-336.33"/>
</g>
<!-- eval/ifelse&#45;branch.ts -->
<g id="node4" class="node">
<title>eval/ifelse&#45;branch.ts</title>
<path fill="none" stroke="#c6c5fe" d="M396.33,-233C396.33,-233 274.67,-233 274.67,-233 270.83,-233 267,-229.17 267,-225.33 267,-225.33 267,-217.67 267,-217.67 267,-213.83 270.83,-210 274.67,-210 274.67,-210 396.33,-210 396.33,-210 400.17,-210 404,-213.83 404,-217.67 404,-217.67 404,-225.33 404,-225.33 404,-229.17 400.17,-233 396.33,-233"/>
<text text-anchor="middle" x="335.5" y="-217.8" font-family="Arial" font-size="14.00" fill="#c6c5fe">eval/ifelse&#45;branch.ts</text>
</g>
<!-- eval/ifelse&#45;branch.ts&#45;&gt;core/error.ts -->
<g id="edge3" class="edge">
<title>eval/ifelse&#45;branch.ts&#45;&gt;core/error.ts</title>
<path fill="none" stroke="#757575" d="M404.33,-221C600.93,-221 1151,-221 1151,-221 1151,-221 1151,-50.25 1151,-50.25"/>
<polygon fill="#757575" stroke="#757575" points="1154.5,-50.25 1151,-40.25 1147.5,-50.25 1154.5,-50.25"/>
</g>
<!-- eval/ifelse&#45;branch.ts&#45;&gt;core/result.ts -->
<g id="edge4" class="edge">
<title>eval/ifelse&#45;branch.ts&#45;&gt;core/result.ts</title>
<path fill="none" stroke="#757575" d="M404.29,-224.67C592.67,-224.67 1103,-224.67 1103,-224.67 1103,-224.67 1103,-318.97 1103,-318.97"/>
<polygon fill="#757575" stroke="#757575" points="1099.5,-318.97 1103,-328.97 1106.5,-318.97 1099.5,-318.97"/>
</g>
<!-- eval/ifelse&#45;helpers.ts -->
<g id="node5" class="node">
<title>eval/ifelse&#45;helpers.ts</title>
<path fill="none" stroke="#c6c5fe" d="M578.83,-311C578.83,-311 454.17,-311 454.17,-311 450.33,-311 446.5,-307.17 446.5,-303.33 446.5,-303.33 446.5,-295.67 446.5,-295.67 446.5,-291.83 450.33,-288 454.17,-288 454.17,-288 578.83,-288 578.83,-288 582.67,-288 586.5,-291.83 586.5,-295.67 586.5,-295.67 586.5,-303.33 586.5,-303.33 586.5,-307.17 582.67,-311 578.83,-311"/>
<text text-anchor="middle" x="516.5" y="-295.8" font-family="Arial" font-size="14.00" fill="#c6c5fe">eval/ifelse&#45;helpers.ts</text>
</g>
<!-- eval/ifelse&#45;branch.ts&#45;&gt;eval/ifelse&#45;helpers.ts -->
<g id="edge5" class="edge">
<title>eval/ifelse&#45;branch.ts&#45;&gt;eval/ifelse&#45;helpers.ts</title>
<path fill="none" stroke="#757575" d="M336,-233.09C336,-253.95 336,-295.67 336,-295.67 336,-295.67 436.46,-295.67 436.46,-295.67"/>
<polygon fill="#757575" stroke="#757575" points="436.46,-299.17 446.46,-295.67 436.46,-292.17 436.46,-299.17"/>
</g>
<!-- eval/variables.ts -->
<g id="node6" class="node">
<title>eval/variables.ts</title>
<path fill="none" stroke="#c6c5fe" d="M734.33,-193C734.33,-193 636.67,-193 636.67,-193 632.83,-193 629,-189.17 629,-185.33 629,-185.33 629,-177.67 629,-177.67 629,-173.83 632.83,-170 636.67,-170 636.67,-170 734.33,-170 734.33,-170 738.17,-170 742,-173.83 742,-177.67 742,-177.67 742,-185.33 742,-185.33 742,-189.17 738.17,-193 734.33,-193"/>
<text text-anchor="middle" x="685.5" y="-177.8" font-family="Arial" font-size="14.00" fill="#c6c5fe">eval/variables.ts</text>
</g>
<!-- eval/ifelse&#45;branch.ts&#45;&gt;eval/variables.ts -->
<g id="edge6" class="edge">
<title>eval/ifelse&#45;branch.ts&#45;&gt;eval/variables.ts</title>
<path fill="none" stroke="#757575" d="M404.19,-213.67C501.29,-213.67 667,-213.67 667,-213.67 667,-213.67 667,-203.11 667,-203.11"/>
<polygon fill="#757575" stroke="#757575" points="670.5,-203.11 667,-193.11 663.5,-203.11 670.5,-203.11"/>
</g>
<!-- parse/parser.ts -->
<g id="node7" class="node">
<title>parse/parser.ts</title>
<path fill="none" stroke="#c6c5fe" d="M881.33,-155C881.33,-155 790.67,-155 790.67,-155 786.83,-155 783,-151.17 783,-147.33 783,-147.33 783,-139.67 783,-139.67 783,-135.83 786.83,-132 790.67,-132 790.67,-132 881.33,-132 881.33,-132 885.17,-132 889,-135.83 889,-139.67 889,-139.67 889,-147.33 889,-147.33 889,-151.17 885.17,-155 881.33,-155"/>
<text text-anchor="middle" x="836" y="-139.8" font-family="Arial" font-size="14.00" fill="#c6c5fe">parse/parser.ts</text>
</g>
<!-- eval/ifelse&#45;branch.ts&#45;&gt;parse/parser.ts -->
<g id="edge7" class="edge">
<title>eval/ifelse&#45;branch.ts&#45;&gt;parse/parser.ts</title>
<path fill="none" stroke="#757575" d="M404.22,-217.33C543.72,-217.33 847,-217.33 847,-217.33 847,-217.33 847,-165.04 847,-165.04"/>
<polygon fill="#757575" stroke="#757575" points="850.5,-165.04 847,-155.04 843.5,-165.04 850.5,-165.04"/>
</g>
<!-- utils/types.ts -->
<g id="node8" class="node">
<title>utils/types.ts</title>
<path fill="none" stroke="#c6c5fe" d="M1027.83,-255C1027.83,-255 952.17,-255 952.17,-255 948.33,-255 944.5,-251.17 944.5,-247.33 944.5,-247.33 944.5,-239.67 944.5,-239.67 944.5,-235.83 948.33,-232 952.17,-232 952.17,-232 1027.83,-232 1027.83,-232 1031.67,-232 1035.5,-235.83 1035.5,-239.67 1035.5,-239.67 1035.5,-247.33 1035.5,-247.33 1035.5,-251.17 1031.67,-255 1027.83,-255"/>
<text text-anchor="middle" x="990" y="-239.8" font-family="Arial" font-size="14.00" fill="#c6c5fe">utils/types.ts</text>
</g>
<!-- eval/ifelse&#45;branch.ts&#45;&gt;utils/types.ts -->
<g id="edge8" class="edge">
<title>eval/ifelse&#45;branch.ts&#45;&gt;utils/types.ts</title>
<path fill="none" stroke="#757575" d="M404.24,-228.33C569.41,-228.33 975,-228.33 975,-228.33 975,-228.33 975,-228.69 975,-228.69"/>
<polygon fill="#757575" stroke="#757575" points="971.5,-221.85 975,-231.85 978.5,-221.85 971.5,-221.85"/>
</g>
<!-- eval/ifelse&#45;helpers.ts&#45;&gt;core/error.ts -->
<g id="edge9" class="edge">
<title>eval/ifelse&#45;helpers.ts&#45;&gt;core/error.ts</title>
<path fill="none" stroke="#757575" d="M586.72,-299.5C754.34,-299.5 1164,-299.5 1164,-299.5 1164,-299.5 1164,-50.14 1164,-50.14"/>
<polygon fill="#757575" stroke="#757575" points="1167.5,-50.14 1164,-40.14 1160.5,-50.14 1167.5,-50.14"/>
</g>
<!-- eval/ifelse&#45;helpers.ts&#45;&gt;core/result.ts -->
<g id="edge10" class="edge">
<title>eval/ifelse&#45;helpers.ts&#45;&gt;core/result.ts</title>
<path fill="none" stroke="#757575" d="M586.69,-305.25C740.97,-305.25 1096,-305.25 1096,-305.25 1096,-305.25 1096,-318.96 1096,-318.96"/>
<polygon fill="#757575" stroke="#757575" points="1092.5,-318.96 1096,-328.96 1099.5,-318.96 1092.5,-318.96"/>
</g>
<!-- eval/ifelse&#45;helpers.ts&#45;&gt;eval/variables.ts -->
<g id="edge11" class="edge">
<title>eval/ifelse&#45;helpers.ts&#45;&gt;eval/variables.ts</title>
<path fill="none" stroke="#757575" d="M586.69,-293.75C640.28,-293.75 705,-293.75 705,-293.75 705,-293.75 705,-203.09 705,-203.09"/>
<polygon fill="#757575" stroke="#757575" points="708.5,-203.09 705,-193.09 701.5,-203.09 708.5,-203.09"/>
</g>
<!-- eval/variables.ts&#45;&gt;core/error.ts -->
<g id="edge29" class="edge">
<title>eval/variables.ts&#45;&gt;core/error.ts</title>
<path fill="none" stroke="#757575" d="M742.18,-182.2C864.85,-182.2 1144,-182.2 1144,-182.2 1144,-182.2 1144,-50.05 1144,-50.05"/>
<polygon fill="#757575" stroke="#757575" points="1147.5,-50.05 1144,-40.05 1140.5,-50.05 1147.5,-50.05"/>
</g>
<!-- eval/variables.ts&#45;&gt;core/result.ts -->
<g id="edge30" class="edge">
<title>eval/variables.ts&#45;&gt;core/result.ts</title>
<path fill="none" stroke="#757575" d="M742.22,-185.8C859.12,-185.8 1116,-185.8 1116,-185.8 1116,-185.8 1116,-318.87 1116,-318.87"/>
<polygon fill="#757575" stroke="#757575" points="1112.5,-318.87 1116,-328.87 1119.5,-318.87 1112.5,-318.87"/>
</g>
<!-- eval/variables.ts&#45;&gt;parse/parser.ts -->
<g id="edge31" class="edge">
<title>eval/variables.ts&#45;&gt;parse/parser.ts</title>
<path fill="none" stroke="#757575" d="M742.24,-178.6C781.24,-178.6 826,-178.6 826,-178.6 826,-178.6 826,-165.38 826,-165.38"/>
<polygon fill="#757575" stroke="#757575" points="829.5,-165.38 826,-155.38 822.5,-165.38 829.5,-165.38"/>
</g>
<!-- eval/variables.ts&#45;&gt;utils/types.ts -->
<g id="edge32" class="edge">
<title>eval/variables.ts&#45;&gt;utils/types.ts</title>
<path fill="none" stroke="#757575" d="M742.06,-189.4C834.07,-189.4 1006,-189.4 1006,-189.4 1006,-189.4 1006,-221.76 1006,-221.76"/>
<polygon fill="#757575" stroke="#757575" points="1002.5,-221.76 1006,-231.76 1009.5,-221.76 1002.5,-221.76"/>
</g>
<!-- utils/validation.ts -->
<g id="node11" class="node">
<title>utils/validation.ts</title>
<path fill="none" stroke="#c6c5fe" d="M886.33,-23C886.33,-23 785.67,-23 785.67,-23 781.83,-23 778,-19.17 778,-15.33 778,-15.33 778,-7.67 778,-7.67 778,-3.83 781.83,0 785.67,0 785.67,0 886.33,0 886.33,0 890.17,0 894,-3.83 894,-7.67 894,-7.67 894,-15.33 894,-15.33 894,-19.17 890.17,-23 886.33,-23"/>
<text text-anchor="middle" x="836" y="-7.8" font-family="Arial" font-size="14.00" fill="#c6c5fe">utils/validation.ts</text>
</g>
<!-- eval/variables.ts&#45;&gt;utils/validation.ts -->
<g id="edge33" class="edge">
<title>eval/variables.ts&#45;&gt;utils/validation.ts</title>
<path fill="none" stroke="#757575" d="M714,-169.94C714,-131.95 714,-13.33 714,-13.33 714,-13.33 767.86,-13.33 767.86,-13.33"/>
<polygon fill="#757575" stroke="#757575" points="767.86,-16.83 777.86,-13.33 767.86,-9.83 767.86,-16.83"/>
</g>
<!-- parse/parser.ts&#45;&gt;core/arithmetic.ts -->
<g id="edge34" class="edge">
<title>parse/parser.ts&#45;&gt;core/arithmetic.ts</title>
<path fill="none" stroke="#757575" d="M805,-155.21C805,-159.12 805,-162.5 805,-162.5 805,-162.5 919.94,-162.5 919.94,-162.5"/>
<polygon fill="#757575" stroke="#757575" points="919.94,-166 929.94,-162.5 919.94,-159 919.94,-166"/>
</g>
<!-- parse/parser.ts&#45;&gt;core/error.ts -->
<g id="edge35" class="edge">
<title>parse/parser.ts&#45;&gt;core/error.ts</title>
<path fill="none" stroke="#757575" d="M889.24,-138.67C973.96,-138.67 1130,-138.67 1130,-138.67 1130,-138.67 1130,-50.29 1130,-50.29"/>
<polygon fill="#757575" stroke="#757575" points="1133.5,-50.29 1130,-40.29 1126.5,-50.29 1133.5,-50.29"/>
</g>
<!-- parse/parser.ts&#45;&gt;core/result.ts -->
<g id="edge36" class="edge">
<title>parse/parser.ts&#45;&gt;core/result.ts</title>
<path fill="none" stroke="#757575" d="M889.31,-145.33C972.31,-145.33 1123,-145.33 1123,-145.33 1123,-145.33 1123,-318.88 1123,-318.88"/>
<polygon fill="#757575" stroke="#757575" points="1119.5,-318.88 1123,-328.88 1126.5,-318.88 1119.5,-318.88"/>
</g>
<!-- parse/parser.ts&#45;&gt;utils/types.ts -->
<g id="edge37" class="edge">
<title>parse/parser.ts&#45;&gt;utils/types.ts</title>
<path fill="none" stroke="#757575" d="M868,-155.03C868,-181.43 868,-244 868,-244 868,-244 934.22,-244 934.22,-244"/>
<polygon fill="#757575" stroke="#757575" points="934.22,-247.5 944.22,-244 934.22,-240.5 934.22,-247.5"/>
</g>
<!-- utils/types.ts&#45;&gt;core/error.ts -->
<g id="edge38" class="edge">
<title>utils/types.ts&#45;&gt;core/error.ts</title>
<path fill="none" stroke="#757575" d="M1035.63,-243.5C1085.08,-243.5 1157,-243.5 1157,-243.5 1157,-243.5 1157,-50.06 1157,-50.06"/>
<polygon fill="#757575" stroke="#757575" points="1160.5,-50.06 1157,-40.06 1153.5,-50.06 1160.5,-50.06"/>
</g>
<!-- utils/types.ts&#45;&gt;core/result.ts -->
<g id="edge39" class="edge">
<title>utils/types.ts&#45;&gt;core/result.ts</title>
<path fill="none" stroke="#757575" d="M990,-255.3C990,-280.37 990,-336.67 990,-336.67 990,-336.67 1075.78,-336.67 1075.78,-336.67"/>
<polygon fill="#757575" stroke="#757575" points="1075.78,-340.17 1085.78,-336.67 1075.78,-333.17 1075.78,-340.17"/>
</g>
<!-- eval/ifelse.ts -->
<g id="node9" class="node">
<title>eval/ifelse.ts</title>
<path fill="none" stroke="#c6c5fe" d="M223.33,-195C223.33,-195 147.67,-195 147.67,-195 143.83,-195 140,-191.17 140,-187.33 140,-187.33 140,-179.67 140,-179.67 140,-175.83 143.83,-172 147.67,-172 147.67,-172 223.33,-172 223.33,-172 227.17,-172 231,-175.83 231,-179.67 231,-179.67 231,-187.33 231,-187.33 231,-191.17 227.17,-195 223.33,-195"/>
<text text-anchor="middle" x="185.5" y="-179.8" font-family="Arial" font-size="14.00" fill="#c6c5fe">eval/ifelse.ts</text>
</g>
<!-- eval/ifelse.ts&#45;&gt;core/error.ts -->
<g id="edge12" class="edge">
<title>eval/ifelse.ts&#45;&gt;core/error.ts</title>
<path fill="none" stroke="#757575" d="M201,-171.92C201,-136.11 201,-29.5 201,-29.5 201,-29.5 1078.36,-29.5 1078.36,-29.5"/>
<polygon fill="#757575" stroke="#757575" points="1078.36,-33 1088.36,-29.5 1078.36,-26 1078.36,-33"/>
</g>
<!-- eval/ifelse.ts&#45;&gt;core/result.ts -->
<g id="edge13" class="edge">
<title>eval/ifelse.ts&#45;&gt;core/result.ts</title>
<path fill="none" stroke="#757575" d="M163,-195.07C163,-231.94 163,-344.33 163,-344.33 163,-344.33 1075.89,-344.33 1075.89,-344.33"/>
<polygon fill="#757575" stroke="#757575" points="1075.89,-347.83 1085.89,-344.33 1075.89,-340.83 1075.89,-347.83"/>
</g>
<!-- eval/ifelse.ts&#45;&gt;eval/ifelse&#45;branch.ts -->
<g id="edge14" class="edge">
<title>eval/ifelse.ts&#45;&gt;eval/ifelse&#45;branch.ts</title>
<path fill="none" stroke="#757575" d="M209,-195.11C209,-206.28 209,-221.5 209,-221.5 209,-221.5 256.7,-221.5 256.7,-221.5"/>
<polygon fill="#757575" stroke="#757575" points="256.7,-225 266.7,-221.5 256.7,-218 256.7,-225"/>
</g>
<!-- eval/ifelse.ts&#45;&gt;eval/ifelse&#45;helpers.ts -->
<g id="edge15" class="edge">
<title>eval/ifelse.ts&#45;&gt;eval/ifelse&#45;helpers.ts</title>
<path fill="none" stroke="#757575" d="M186,-195.43C186,-225.74 186,-303.33 186,-303.33 186,-303.33 436.41,-303.33 436.41,-303.33"/>
<polygon fill="#757575" stroke="#757575" points="436.41,-306.83 446.41,-303.33 436.41,-299.83 436.41,-306.83"/>
</g>
<!-- eval/ifelse.ts&#45;&gt;eval/variables.ts -->
<g id="edge16" class="edge">
<title>eval/ifelse.ts&#45;&gt;eval/variables.ts</title>
<path fill="none" stroke="#757575" d="M231.2,-182.5C231.2,-182.5 618.75,-182.5 618.75,-182.5"/>
<polygon fill="#757575" stroke="#757575" points="618.75,-186 628.75,-182.5 618.75,-179 618.75,-186"/>
</g>
<!-- eval/intepret&#45;helpers.ts -->
<g id="node10" class="node">
<title>eval/intepret&#45;helpers.ts</title>
<path fill="none" stroke="#c6c5fe" d="M585.33,-59C585.33,-59 447.67,-59 447.67,-59 443.83,-59 440,-55.17 440,-51.33 440,-51.33 440,-43.67 440,-43.67 440,-39.83 443.83,-36 447.67,-36 447.67,-36 585.33,-36 585.33,-36 589.17,-36 593,-39.83 593,-43.67 593,-43.67 593,-51.33 593,-51.33 593,-55.17 589.17,-59 585.33,-59"/>
<text text-anchor="middle" x="516.5" y="-43.8" font-family="Arial" font-size="14.00" fill="#c6c5fe">eval/intepret&#45;helpers.ts</text>
</g>
<!-- eval/intepret&#45;helpers.ts&#45;&gt;core/error.ts -->
<g id="edge17" class="edge">
<title>eval/intepret&#45;helpers.ts&#45;&gt;core/error.ts</title>
<path fill="none" stroke="#757575" d="M593.18,-46.33C753.62,-46.33 1110,-46.33 1110,-46.33 1110,-46.33 1110,-45.73 1110,-45.73"/>
<polygon fill="#757575" stroke="#757575" points="1113.5,-50.3 1110,-40.3 1106.5,-50.3 1113.5,-50.3"/>
</g>
<!-- eval/intepret&#45;helpers.ts&#45;&gt;core/result.ts -->
<g id="edge18" class="edge">
<title>eval/intepret&#45;helpers.ts&#45;&gt;core/result.ts</title>
<path fill="none" stroke="#757575" d="M593.18,-49.5C766.01,-49.5 1171,-49.5 1171,-49.5 1171,-49.5 1171,-318.73 1171,-318.73"/>
<polygon fill="#757575" stroke="#757575" points="1167.5,-318.73 1171,-328.73 1174.5,-318.73 1167.5,-318.73"/>
</g>
<!-- eval/intepret&#45;helpers.ts&#45;&gt;eval/variables.ts -->
<g id="edge19" class="edge">
<title>eval/intepret&#45;helpers.ts&#45;&gt;eval/variables.ts</title>
<path fill="none" stroke="#757575" d="M593.05,-55.83C626.39,-55.83 658,-55.83 658,-55.83 658,-55.83 658,-159.9 658,-159.9"/>
<polygon fill="#757575" stroke="#757575" points="654.5,-159.9 658,-169.9 661.5,-159.9 654.5,-159.9"/>
</g>
<!-- eval/intepret&#45;helpers.ts&#45;&gt;parse/parser.ts -->
<g id="edge20" class="edge">
<title>eval/intepret&#45;helpers.ts&#45;&gt;parse/parser.ts</title>
<path fill="none" stroke="#757575" d="M593.22,-52.67C682.84,-52.67 819,-52.67 819,-52.67 819,-52.67 819,-122 819,-122"/>
<polygon fill="#757575" stroke="#757575" points="815.5,-122 819,-132 822.5,-122 815.5,-122"/>
</g>
<!-- eval/intepret&#45;helpers.ts&#45;&gt;utils/validation.ts -->
<g id="edge21" class="edge">
<title>eval/intepret&#45;helpers.ts&#45;&gt;utils/validation.ts</title>
<path fill="none" stroke="#757575" d="M593.08,-43.17C692.66,-43.17 854,-43.17 854,-43.17 854,-43.17 854,-33.29 854,-33.29"/>
<polygon fill="#757575" stroke="#757575" points="857.5,-33.29 854,-23.29 850.5,-33.29 857.5,-33.29"/>
</g>
<!-- utils/validation.ts&#45;&gt;core/error.ts -->
<g id="edge40" class="edge">
<title>utils/validation.ts&#45;&gt;core/error.ts</title>
<path fill="none" stroke="#757575" d="M894.32,-11.33C980.82,-11.33 1133,-11.33 1133,-11.33 1133,-11.33 1133,-11.88 1133,-11.88"/>
<polygon fill="#757575" stroke="#757575" points="1129.5,-6.76 1133,-16.76 1136.5,-6.77 1129.5,-6.76"/>
</g>
<!-- utils/validation.ts&#45;&gt;core/result.ts -->
<g id="edge41" class="edge">
<title>utils/validation.ts&#45;&gt;core/result.ts</title>
<path fill="none" stroke="#757575" d="M894.37,-5.67C904.58,-5.67 912,-5.67 912,-5.67 912,-5.67 912,-340.5 912,-340.5 912,-340.5 1075.86,-340.5 1075.86,-340.5"/>
<polygon fill="#757575" stroke="#757575" points="1075.86,-344 1085.86,-340.5 1075.86,-337 1075.86,-344"/>
</g>
<!-- eval/intepret.ts -->
<g id="node12" class="node">
<title>eval/intepret.ts</title>
<path fill="none" stroke="#c6c5fe" d="M96.33,-43C96.33,-43 7.67,-43 7.67,-43 3.83,-43 0,-39.17 0,-35.33 0,-35.33 0,-27.67 0,-27.67 0,-23.83 3.83,-20 7.67,-20 7.67,-20 96.33,-20 96.33,-20 100.17,-20 104,-23.83 104,-27.67 104,-27.67 104,-35.33 104,-35.33 104,-39.17 100.17,-43 96.33,-43"/>
<text text-anchor="middle" x="52" y="-27.8" font-family="Arial" font-size="14.00" fill="#c6c5fe">eval/intepret.ts</text>
</g>
<!-- eval/intepret.ts&#45;&gt;core/error.ts -->
<g id="edge22" class="edge">
<title>eval/intepret.ts&#45;&gt;core/error.ts</title>
<path fill="none" stroke="#757575" d="M104.14,-26.25C104.14,-26.25 1078.4,-26.25 1078.4,-26.25"/>
<polygon fill="#757575" stroke="#757575" points="1078.4,-29.75 1088.4,-26.25 1078.4,-22.75 1078.4,-29.75"/>
</g>
<!-- eval/intepret.ts&#45;&gt;core/result.ts -->
<g id="edge23" class="edge">
<title>eval/intepret.ts&#45;&gt;core/result.ts</title>
<path fill="none" stroke="#757575" d="M35,-43.15C35,-100.28 35,-348.17 35,-348.17 35,-348.17 1075.82,-348.17 1075.82,-348.17"/>
<polygon fill="#757575" stroke="#757575" points="1075.82,-351.67 1085.82,-348.17 1075.82,-344.67 1075.82,-351.67"/>
</g>
<!-- eval/intepret.ts&#45;&gt;eval/variables.ts -->
<g id="edge26" class="edge">
<title>eval/intepret.ts&#45;&gt;eval/variables.ts</title>
<path fill="none" stroke="#757575" d="M104.15,-32.75C255.81,-32.75 686,-32.75 686,-32.75 686,-32.75 686,-159.83 686,-159.83"/>
<polygon fill="#757575" stroke="#757575" points="682.5,-159.83 686,-169.83 689.5,-159.83 682.5,-159.83"/>
</g>
<!-- eval/intepret.ts&#45;&gt;parse/parser.ts -->
<g id="edge27" class="edge">
<title>eval/intepret.ts&#45;&gt;parse/parser.ts</title>
<path fill="none" stroke="#757575" d="M70,-43.06C70,-71.68 70,-143.5 70,-143.5 70,-143.5 772.74,-143.5 772.74,-143.5"/>
<polygon fill="#757575" stroke="#757575" points="772.74,-147 782.74,-143.5 772.74,-140 772.74,-147"/>
</g>
<!-- eval/intepret.ts&#45;&gt;eval/ifelse.ts -->
<g id="edge24" class="edge">
<title>eval/intepret.ts&#45;&gt;eval/ifelse.ts</title>
<path fill="none" stroke="#757575" d="M104.2,-40.67C136.17,-40.67 171,-40.67 171,-40.67 171,-40.67 171,-161.81 171,-161.81"/>
<polygon fill="#757575" stroke="#757575" points="167.5,-161.81 171,-171.81 174.5,-161.81 167.5,-161.81"/>
</g>
<!-- eval/intepret.ts&#45;&gt;eval/intepret&#45;helpers.ts -->
<g id="edge25" class="edge">
<title>eval/intepret.ts&#45;&gt;eval/intepret&#45;helpers.ts</title>
<path fill="none" stroke="#757575" d="M104.38,-38.33C104.38,-38.33 429.69,-38.33 429.69,-38.33"/>
<polygon fill="#757575" stroke="#757575" points="429.69,-41.83 439.69,-38.33 429.69,-34.83 429.69,-41.83"/>
</g>
<!-- eval/intepret.ts&#45;&gt;utils/validation.ts -->
<g id="edge28" class="edge">
<title>eval/intepret.ts&#45;&gt;utils/validation.ts</title>
<path fill="none" stroke="#757575" d="M52,-19.96C52,-13.47 52,-6.67 52,-6.67 52,-6.67 767.71,-6.67 767.71,-6.67"/>
<polygon fill="#757575" stroke="#757575" points="767.71,-10.17 777.71,-6.67 767.71,-3.17 767.71,-10.17"/>
</g>
</g>
</svg>
