<?xml version="1.0" encoding="UTF-8" standalone="no"?>
<!DOCTYPE svg PUBLIC "-//W3C//DTD SVG 1.1//EN"
 "http://www.w3.org/Graphics/SVG/1.1/DTD/svg11.dtd">
<!-- Generated by graphviz version 2.43.0 (0)
 -->
<!-- Title: G Pages: 1 -->
<svg width="1428pt" height="420pt"
 viewBox="0.00 0.00 1428.20 420.20" xmlns="http://www.w3.org/2000/svg" xmlns:xlink="http://www.w3.org/1999/xlink">
<g id="graph0" class="graph" transform="scale(1 1) rotate(0) translate(21.6 398.6)">
<title>G</title>
<polygon fill="#111111" stroke="transparent" points="-21.6,21.6 -21.6,-398.6 1406.6,-398.6 1406.6,21.6 -21.6,21.6"/>
<!-- src/app.ts -->
<g id="node1" class="node">
<title>src/app.ts</title>
<path fill="none" stroke="#c6c5fe" d="M716.83,-318C716.83,-318 657.17,-318 657.17,-318 653.33,-318 649.5,-314.17 649.5,-310.33 649.5,-310.33 649.5,-302.67 649.5,-302.67 649.5,-298.83 653.33,-295 657.17,-295 657.17,-295 716.83,-295 716.83,-295 720.67,-295 724.5,-298.83 724.5,-302.67 724.5,-302.67 724.5,-310.33 724.5,-310.33 724.5,-314.17 720.67,-318 716.83,-318"/>
<text text-anchor="middle" x="687" y="-302.8" font-family="Arial" font-size="14.00" fill="#c6c5fe">src/app.ts</text>
</g>
<!-- src/expressions/binary&#45;operation.ts -->
<g id="node2" class="node">
<title>src/expressions/binary&#45;operation.ts</title>
<path fill="none" stroke="#c6c5fe" d="M792.33,-259C792.33,-259 581.67,-259 581.67,-259 577.83,-259 574,-255.17 574,-251.33 574,-251.33 574,-243.67 574,-243.67 574,-239.83 577.83,-236 581.67,-236 581.67,-236 792.33,-236 792.33,-236 796.17,-236 800,-239.83 800,-243.67 800,-243.67 800,-251.33 800,-251.33 800,-255.17 796.17,-259 792.33,-259"/>
<text text-anchor="middle" x="687" y="-243.8" font-family="Arial" font-size="14.00" fill="#c6c5fe">src/expressions/binary&#45;operation.ts</text>
</g>
<!-- src/app.ts&#45;&gt;src/expressions/binary&#45;operation.ts -->
<g id="edge1" class="edge">
<title>src/app.ts&#45;&gt;src/expressions/binary&#45;operation.ts</title>
<path fill="none" stroke="#757575" d="M687,-294.84C687,-294.84 687,-269.13 687,-269.13"/>
<polygon fill="#757575" stroke="#757575" points="690.5,-269.13 687,-259.13 683.5,-269.13 690.5,-269.13"/>
</g>
<!-- src/expressions/grouped&#45;expressions.ts -->
<g id="node3" class="node">
<title>src/expressions/grouped&#45;expressions.ts</title>
<path fill="none" stroke="#c6c5fe" d="M246.33,-259C246.33,-259 7.67,-259 7.67,-259 3.83,-259 0,-255.17 0,-251.33 0,-251.33 0,-243.67 0,-243.67 0,-239.83 3.83,-236 7.67,-236 7.67,-236 246.33,-236 246.33,-236 250.17,-236 254,-239.83 254,-243.67 254,-243.67 254,-251.33 254,-251.33 254,-255.17 250.17,-259 246.33,-259"/>
<text text-anchor="middle" x="127" y="-243.8" font-family="Arial" font-size="14.00" fill="#c6c5fe">src/expressions/grouped&#45;expressions.ts</text>
</g>
<!-- src/app.ts&#45;&gt;src/expressions/grouped&#45;expressions.ts -->
<g id="edge2" class="edge">
<title>src/app.ts&#45;&gt;src/expressions/grouped&#45;expressions.ts</title>
<path fill="none" stroke="#757575" d="M649.39,-314C523.83,-314 127,-314 127,-314 127,-314 127,-269.08 127,-269.08"/>
<polygon fill="#757575" stroke="#757575" points="130.5,-269.08 127,-259.08 123.5,-269.08 130.5,-269.08"/>
</g>
<!-- src/expressions/handlers.ts -->
<g id="node4" class="node">
<title>src/expressions/handlers.ts</title>
<path fill="none" stroke="#cfffac" d="M500.33,-23C500.33,-23 335.67,-23 335.67,-23 331.83,-23 328,-19.17 328,-15.33 328,-15.33 328,-7.67 328,-7.67 328,-3.83 331.83,0 335.67,0 335.67,0 500.33,0 500.33,0 504.17,0 508,-3.83 508,-7.67 508,-7.67 508,-15.33 508,-15.33 508,-19.17 504.17,-23 500.33,-23"/>
<text text-anchor="middle" x="418" y="-7.8" font-family="Arial" font-size="14.00" fill="#cfffac">src/expressions/handlers.ts</text>
</g>
<!-- src/app.ts&#45;&gt;src/expressions/handlers.ts -->
<g id="edge3" class="edge">
<title>src/app.ts&#45;&gt;src/expressions/handlers.ts</title>
<path fill="none" stroke="#757575" d="M649.17,-302C558.57,-302 336.62,-302 336.62,-302 336.62,-302 336.62,-33.25 336.62,-33.25"/>
<polygon fill="#757575" stroke="#757575" points="340.13,-33.25 336.62,-23.25 333.13,-33.25 340.13,-33.25"/>
</g>
<!-- src/loops/for.ts -->
<g id="node5" class="node">
<title>src/loops/for.ts</title>
<path fill="none" stroke="#c6c5fe" d="M1226.33,-259C1226.33,-259 1137.67,-259 1137.67,-259 1133.83,-259 1130,-255.17 1130,-251.33 1130,-251.33 1130,-243.67 1130,-243.67 1130,-239.83 1133.83,-236 1137.67,-236 1137.67,-236 1226.33,-236 1226.33,-236 1230.17,-236 1234,-239.83 1234,-243.67 1234,-243.67 1234,-251.33 1234,-251.33 1234,-255.17 1230.17,-259 1226.33,-259"/>
<text text-anchor="middle" x="1182" y="-243.8" font-family="Arial" font-size="14.00" fill="#c6c5fe">src/loops/for.ts</text>
</g>
<!-- src/app.ts&#45;&gt;src/loops/for.ts -->
<g id="edge4" class="edge">
<title>src/app.ts&#45;&gt;src/loops/for.ts</title>
<path fill="none" stroke="#757575" d="M724.61,-310C840.13,-310 1182,-310 1182,-310 1182,-310 1182,-269.26 1182,-269.26"/>
<polygon fill="#757575" stroke="#757575" points="1185.5,-269.26 1182,-259.26 1178.5,-269.26 1185.5,-269.26"/>
</g>
<!-- src/loops/loop.ts -->
<g id="node6" class="node">
<title>src/loops/loop.ts</title>
<path fill="none" stroke="#cfffac" d="M1377.33,-200C1377.33,-200 1278.67,-200 1278.67,-200 1274.83,-200 1271,-196.17 1271,-192.33 1271,-192.33 1271,-184.67 1271,-184.67 1271,-180.83 1274.83,-177 1278.67,-177 1278.67,-177 1377.33,-177 1377.33,-177 1381.17,-177 1385,-180.83 1385,-184.67 1385,-184.67 1385,-192.33 1385,-192.33 1385,-196.17 1381.17,-200 1377.33,-200"/>
<text text-anchor="middle" x="1328" y="-184.8" font-family="Arial" font-size="14.00" fill="#cfffac">src/loops/loop.ts</text>
</g>
<!-- src/app.ts&#45;&gt;src/loops/loop.ts -->
<g id="edge5" class="edge">
<title>src/app.ts&#45;&gt;src/loops/loop.ts</title>
<path fill="none" stroke="#757575" d="M724.91,-314C866.54,-314 1356.5,-314 1356.5,-314 1356.5,-314 1356.5,-210.08 1356.5,-210.08"/>
<polygon fill="#757575" stroke="#757575" points="1360,-210.08 1356.5,-200.08 1353,-210.08 1360,-210.08"/>
</g>
<!-- src/loops/while.ts -->
<g id="node7" class="node">
<title>src/loops/while.ts</title>
<path fill="none" stroke="#c6c5fe" d="M1096.83,-259C1096.83,-259 993.17,-259 993.17,-259 989.33,-259 985.5,-255.17 985.5,-251.33 985.5,-251.33 985.5,-243.67 985.5,-243.67 985.5,-239.83 989.33,-236 993.17,-236 993.17,-236 1096.83,-236 1096.83,-236 1100.67,-236 1104.5,-239.83 1104.5,-243.67 1104.5,-243.67 1104.5,-251.33 1104.5,-251.33 1104.5,-255.17 1100.67,-259 1096.83,-259"/>
<text text-anchor="middle" x="1045" y="-243.8" font-family="Arial" font-size="14.00" fill="#c6c5fe">src/loops/while.ts</text>
</g>
<!-- src/app.ts&#45;&gt;src/loops/while.ts -->
<g id="edge6" class="edge">
<title>src/app.ts&#45;&gt;src/loops/while.ts</title>
<path fill="none" stroke="#757575" d="M724.64,-306C816.55,-306 1045,-306 1045,-306 1045,-306 1045,-269.06 1045,-269.06"/>
<polygon fill="#757575" stroke="#757575" points="1048.5,-269.06 1045,-259.06 1041.5,-269.06 1048.5,-269.06"/>
</g>
<!-- src/match.ts -->
<g id="node8" class="node">
<title>src/match.ts</title>
<path fill="none" stroke="#cfffac" d="M282.33,-200C282.33,-200 207.67,-200 207.67,-200 203.83,-200 200,-196.17 200,-192.33 200,-192.33 200,-184.67 200,-184.67 200,-180.83 203.83,-177 207.67,-177 207.67,-177 282.33,-177 282.33,-177 286.17,-177 290,-180.83 290,-184.67 290,-184.67 290,-192.33 290,-192.33 290,-196.17 286.17,-200 282.33,-200"/>
<text text-anchor="middle" x="245" y="-184.8" font-family="Arial" font-size="14.00" fill="#cfffac">src/match.ts</text>
</g>
<!-- src/app.ts&#45;&gt;src/match.ts -->
<g id="edge7" class="edge">
<title>src/app.ts&#45;&gt;src/match.ts</title>
<path fill="none" stroke="#757575" d="M649.44,-310C547.28,-310 272,-310 272,-310 272,-310 272,-210.15 272,-210.15"/>
<polygon fill="#757575" stroke="#757575" points="275.5,-210.15 272,-200.15 268.5,-210.15 275.5,-210.15"/>
</g>
<!-- src/parser.ts -->
<g id="node9" class="node">
<title>src/parser.ts</title>
<path fill="none" stroke="#c6c5fe" d="M941.33,-141C941.33,-141 866.67,-141 866.67,-141 862.83,-141 859,-137.17 859,-133.33 859,-133.33 859,-125.67 859,-125.67 859,-121.83 862.83,-118 866.67,-118 866.67,-118 941.33,-118 941.33,-118 945.17,-118 949,-121.83 949,-125.67 949,-125.67 949,-133.33 949,-133.33 949,-137.17 945.17,-141 941.33,-141"/>
<text text-anchor="middle" x="904" y="-125.8" font-family="Arial" font-size="14.00" fill="#c6c5fe">src/parser.ts</text>
</g>
<!-- src/app.ts&#45;&gt;src/parser.ts -->
<g id="edge8" class="edge">
<title>src/app.ts&#45;&gt;src/parser.ts</title>
<path fill="none" stroke="#757575" d="M724.89,-298C778.46,-298 869.88,-298 869.88,-298 869.88,-298 869.88,-151.08 869.88,-151.08"/>
<polygon fill="#757575" stroke="#757575" points="873.38,-151.08 869.88,-141.08 866.38,-151.08 873.38,-151.08"/>
</g>
<!-- src/scope.ts -->
<g id="node10" class="node">
<title>src/scope.ts</title>
<path fill="none" stroke="#c6c5fe" d="M954.83,-200C954.83,-200 881.17,-200 881.17,-200 877.33,-200 873.5,-196.17 873.5,-192.33 873.5,-192.33 873.5,-184.67 873.5,-184.67 873.5,-180.83 877.33,-177 881.17,-177 881.17,-177 954.83,-177 954.83,-177 958.67,-177 962.5,-180.83 962.5,-184.67 962.5,-184.67 962.5,-192.33 962.5,-192.33 962.5,-196.17 958.67,-200 954.83,-200"/>
<text text-anchor="middle" x="918" y="-184.8" font-family="Arial" font-size="14.00" fill="#c6c5fe">src/scope.ts</text>
</g>
<!-- src/app.ts&#45;&gt;src/scope.ts -->
<g id="edge9" class="edge">
<title>src/app.ts&#45;&gt;src/scope.ts</title>
<path fill="none" stroke="#757575" d="M724.63,-302C790.08,-302 918,-302 918,-302 918,-302 918,-210.22 918,-210.22"/>
<polygon fill="#757575" stroke="#757575" points="921.5,-210.22 918,-200.22 914.5,-210.22 921.5,-210.22"/>
</g>
<!-- src/types/structs.ts -->
<g id="node11" class="node">
<title>src/types/structs.ts</title>
<path fill="none" stroke="#c6c5fe" d="M275.33,-141C275.33,-141 162.67,-141 162.67,-141 158.83,-141 155,-137.17 155,-133.33 155,-133.33 155,-125.67 155,-125.67 155,-121.83 158.83,-118 162.67,-118 162.67,-118 275.33,-118 275.33,-118 279.17,-118 283,-121.83 283,-125.67 283,-125.67 283,-133.33 283,-133.33 283,-137.17 279.17,-141 275.33,-141"/>
<text text-anchor="middle" x="219" y="-125.8" font-family="Arial" font-size="14.00" fill="#c6c5fe">src/types/structs.ts</text>
</g>
<!-- src/app.ts&#45;&gt;src/types/structs.ts -->
<g id="edge10" class="edge">
<title>src/app.ts&#45;&gt;src/types/structs.ts</title>
<path fill="none" stroke="#757575" d="M649.45,-306C552.74,-306 302.67,-306 302.67,-306 302.67,-306 302.67,-135 302.67,-135 302.67,-135 293.26,-135 293.26,-135"/>
<polygon fill="#757575" stroke="#757575" points="293.26,-131.5 283.26,-135 293.26,-138.5 293.26,-131.5"/>
</g>
<!-- src/types/type&#45;declarations.ts -->
<g id="node12" class="node">
<title>src/types/type&#45;declarations.ts</title>
<path fill="none" stroke="#c6c5fe" d="M522.83,-141C522.83,-141 347.17,-141 347.17,-141 343.33,-141 339.5,-137.17 339.5,-133.33 339.5,-133.33 339.5,-125.67 339.5,-125.67 339.5,-121.83 343.33,-118 347.17,-118 347.17,-118 522.83,-118 522.83,-118 526.67,-118 530.5,-121.83 530.5,-125.67 530.5,-125.67 530.5,-133.33 530.5,-133.33 530.5,-137.17 526.67,-141 522.83,-141"/>
<text text-anchor="middle" x="435" y="-125.8" font-family="Arial" font-size="14.00" fill="#c6c5fe">src/types/type&#45;declarations.ts</text>
</g>
<!-- src/app.ts&#45;&gt;src/types/type&#45;declarations.ts -->
<g id="edge11" class="edge">
<title>src/app.ts&#45;&gt;src/types/type&#45;declarations.ts</title>
<path fill="none" stroke="#757575" d="M649.27,-298C578.97,-298 435,-298 435,-298 435,-298 435,-151.08 435,-151.08"/>
<polygon fill="#757575" stroke="#757575" points="438.5,-151.08 435,-141.08 431.5,-151.08 438.5,-151.08"/>
</g>
<!-- src/expressions/binary&#45;operation.ts&#45;&gt;src/expressions/handlers.ts -->
<g id="edge13" class="edge">
<title>src/expressions/binary&#45;operation.ts&#45;&gt;src/expressions/handlers.ts</title>
<path fill="none" stroke="#757575" d="M580.5,-235.75C580.5,-188.78 580.5,-17 580.5,-17 580.5,-17 518.28,-17 518.28,-17"/>
<polygon fill="#757575" stroke="#757575" points="518.28,-13.5 508.28,-17 518.28,-20.5 518.28,-13.5"/>
</g>
<!-- src/expressions/binary&#45;operation.ts&#45;&gt;src/parser.ts -->
<g id="edge15" class="edge">
<title>src/expressions/binary&#45;operation.ts&#45;&gt;src/parser.ts</title>
<path fill="none" stroke="#757575" d="M800.01,-247C835.81,-247 866.25,-247 866.25,-247 866.25,-247 866.25,-151.2 866.25,-151.2"/>
<polygon fill="#757575" stroke="#757575" points="869.75,-151.2 866.25,-141.2 862.75,-151.2 869.75,-151.2"/>
</g>
<!-- src/expressions/operators.ts -->
<g id="node14" class="node">
<title>src/expressions/operators.ts</title>
<path fill="none" stroke="#c6c5fe" d="M771.83,-200C771.83,-200 602.17,-200 602.17,-200 598.33,-200 594.5,-196.17 594.5,-192.33 594.5,-192.33 594.5,-184.67 594.5,-184.67 594.5,-180.83 598.33,-177 602.17,-177 602.17,-177 771.83,-177 771.83,-177 775.67,-177 779.5,-180.83 779.5,-184.67 779.5,-184.67 779.5,-192.33 779.5,-192.33 779.5,-196.17 775.67,-200 771.83,-200"/>
<text text-anchor="middle" x="687" y="-184.8" font-family="Arial" font-size="14.00" fill="#c6c5fe">src/expressions/operators.ts</text>
</g>
<!-- src/expressions/binary&#45;operation.ts&#45;&gt;src/expressions/operators.ts -->
<g id="edge14" class="edge">
<title>src/expressions/binary&#45;operation.ts&#45;&gt;src/expressions/operators.ts</title>
<path fill="none" stroke="#757575" d="M687,-235.84C687,-235.84 687,-210.13 687,-210.13"/>
<polygon fill="#757575" stroke="#757575" points="690.5,-210.13 687,-200.13 683.5,-210.13 690.5,-210.13"/>
</g>
<!-- src/expressions/grouped&#45;expressions.ts&#45;&gt;src/expressions/handlers.ts -->
<g id="edge16" class="edge">
<title>src/expressions/grouped&#45;expressions.ts&#45;&gt;src/expressions/handlers.ts</title>
<path fill="none" stroke="#757575" d="M254.11,-247C296.78,-247 333.75,-247 333.75,-247 333.75,-247 333.75,-33.18 333.75,-33.18"/>
<polygon fill="#757575" stroke="#757575" points="337.25,-33.18 333.75,-23.18 330.25,-33.18 337.25,-33.18"/>
</g>
<!-- src/expressions/grouped&#45;expressions.ts&#45;&gt;src/match.ts -->
<g id="edge17" class="edge">
<title>src/expressions/grouped&#45;expressions.ts&#45;&gt;src/match.ts</title>
<path fill="none" stroke="#757575" d="M227,-235.84C227,-235.84 227,-210.13 227,-210.13"/>
<polygon fill="#757575" stroke="#757575" points="230.5,-210.13 227,-200.13 223.5,-210.13 230.5,-210.13"/>
</g>
<!-- src/expressions/grouped&#45;expressions.ts&#45;&gt;src/types/structs.ts -->
<g id="edge18" class="edge">
<title>src/expressions/grouped&#45;expressions.ts&#45;&gt;src/types/structs.ts</title>
<path fill="none" stroke="#757575" d="M177.5,-235.75C177.5,-235.75 177.5,-151.2 177.5,-151.2"/>
<polygon fill="#757575" stroke="#757575" points="181,-151.2 177.5,-141.2 174,-151.2 181,-151.2"/>
</g>
<!-- src/loops/for.ts&#45;&gt;src/loops/loop.ts -->
<g id="edge25" class="edge">
<title>src/loops/for.ts&#45;&gt;src/loops/loop.ts</title>
<path fill="none" stroke="#757575" d="M1234.3,-247C1276.19,-247 1328,-247 1328,-247 1328,-247 1328,-210.06 1328,-210.06"/>
<polygon fill="#757575" stroke="#757575" points="1331.5,-210.06 1328,-200.06 1324.5,-210.06 1331.5,-210.06"/>
</g>
<!-- src/loops/helpers.ts -->
<g id="node18" class="node">
<title>src/loops/helpers.ts</title>
<path fill="none" stroke="#cfffac" d="M1244.83,-200C1244.83,-200 1127.17,-200 1127.17,-200 1123.33,-200 1119.5,-196.17 1119.5,-192.33 1119.5,-192.33 1119.5,-184.67 1119.5,-184.67 1119.5,-180.83 1123.33,-177 1127.17,-177 1127.17,-177 1244.83,-177 1244.83,-177 1248.67,-177 1252.5,-180.83 1252.5,-184.67 1252.5,-184.67 1252.5,-192.33 1252.5,-192.33 1252.5,-196.17 1248.67,-200 1244.83,-200"/>
<text text-anchor="middle" x="1186" y="-184.8" font-family="Arial" font-size="14.00" fill="#cfffac">src/loops/helpers.ts</text>
</g>
<!-- src/loops/for.ts&#45;&gt;src/loops/helpers.ts -->
<g id="edge24" class="edge">
<title>src/loops/for.ts&#45;&gt;src/loops/helpers.ts</title>
<path fill="none" stroke="#757575" d="M1182,-235.84C1182,-235.84 1182,-210.13 1182,-210.13"/>
<polygon fill="#757575" stroke="#757575" points="1185.5,-210.13 1182,-200.13 1178.5,-210.13 1185.5,-210.13"/>
</g>
<!-- src/loops/types.ts -->
<g id="node19" class="node">
<title>src/loops/types.ts</title>
<path fill="none" stroke="#c6c5fe" d="M1093.83,-200C1093.83,-200 988.17,-200 988.17,-200 984.33,-200 980.5,-196.17 980.5,-192.33 980.5,-192.33 980.5,-184.67 980.5,-184.67 980.5,-180.83 984.33,-177 988.17,-177 988.17,-177 1093.83,-177 1093.83,-177 1097.67,-177 1101.5,-180.83 1101.5,-184.67 1101.5,-184.67 1101.5,-192.33 1101.5,-192.33 1101.5,-196.17 1097.67,-200 1093.83,-200"/>
<text text-anchor="middle" x="1041" y="-184.8" font-family="Arial" font-size="14.00" fill="#c6c5fe">src/loops/types.ts</text>
</g>
<!-- src/loops/for.ts&#45;&gt;src/loops/types.ts -->
<g id="edge26" class="edge">
<title>src/loops/for.ts&#45;&gt;src/loops/types.ts</title>
<path fill="none" stroke="#757575" d="M1129.66,-243C1119.54,-243 1112,-243 1112,-243 1112,-243 1112,-188 1112,-188 1112,-188 1110.95,-188 1110.95,-188"/>
<polygon fill="#757575" stroke="#757575" points="1111.52,-184.5 1101.52,-188 1111.52,-191.5 1111.52,-184.5"/>
</g>
<!-- src/loops/while.ts&#45;&gt;src/loops/loop.ts -->
<g id="edge29" class="edge">
<title>src/loops/while.ts&#45;&gt;src/loops/loop.ts</title>
<path fill="none" stroke="#757575" d="M1062.83,-235.84C1062.83,-227.6 1062.83,-218 1062.83,-218 1062.83,-218 1299.5,-218 1299.5,-218 1299.5,-218 1299.5,-210.16 1299.5,-210.16"/>
<polygon fill="#757575" stroke="#757575" points="1303,-210.16 1299.5,-200.16 1296,-210.16 1303,-210.16"/>
</g>
<!-- src/loops/while.ts&#45;&gt;src/loops/helpers.ts -->
<g id="edge28" class="edge">
<title>src/loops/while.ts&#45;&gt;src/loops/helpers.ts</title>
<path fill="none" stroke="#757575" d="M1104.63,-251C1116.16,-251 1124.75,-251 1124.75,-251 1124.75,-251 1124.75,-210.26 1124.75,-210.26"/>
<polygon fill="#757575" stroke="#757575" points="1128.25,-210.26 1124.75,-200.26 1121.25,-210.26 1128.25,-210.26"/>
</g>
<!-- src/loops/while.ts&#45;&gt;src/loops/types.ts -->
<g id="edge30" class="edge">
<title>src/loops/while.ts&#45;&gt;src/loops/types.ts</title>
<path fill="none" stroke="#757575" d="M1024.17,-235.84C1024.17,-235.84 1024.17,-210.13 1024.17,-210.13"/>
<polygon fill="#757575" stroke="#757575" points="1027.67,-210.13 1024.17,-200.13 1020.67,-210.13 1027.67,-210.13"/>
</g>
<!-- src/type&#45;utils.ts -->
<g id="node17" class="node">
<title>src/type&#45;utils.ts</title>
<path fill="none" stroke="#cfffac" d="M932.83,-82C932.83,-82 841.17,-82 841.17,-82 837.33,-82 833.5,-78.17 833.5,-74.33 833.5,-74.33 833.5,-66.67 833.5,-66.67 833.5,-62.83 837.33,-59 841.17,-59 841.17,-59 932.83,-59 932.83,-59 936.67,-59 940.5,-62.83 940.5,-66.67 940.5,-66.67 940.5,-74.33 940.5,-74.33 940.5,-78.17 936.67,-82 932.83,-82"/>
<text text-anchor="middle" x="887" y="-66.8" font-family="Arial" font-size="14.00" fill="#cfffac">src/type&#45;utils.ts</text>
</g>
<!-- src/parser.ts&#45;&gt;src/type&#45;utils.ts -->
<g id="edge31" class="edge">
<title>src/parser.ts&#45;&gt;src/type&#45;utils.ts</title>
<path fill="none" stroke="#757575" d="M899.75,-117.84C899.75,-117.84 899.75,-92.13 899.75,-92.13"/>
<polygon fill="#757575" stroke="#757575" points="903.25,-92.13 899.75,-82.13 896.25,-92.13 903.25,-92.13"/>
</g>
<!-- src/scope.ts&#45;&gt;src/expressions/handlers.ts -->
<g id="edge32" class="edge">
<title>src/scope.ts&#45;&gt;src/expressions/handlers.ts</title>
<path fill="none" stroke="#757575" d="M958,-176.85C958,-137.36 958,-11 958,-11 958,-11 518.08,-11 518.08,-11"/>
<polygon fill="#757575" stroke="#757575" points="518.08,-7.5 508.08,-11 518.08,-14.5 518.08,-7.5"/>
</g>
<!-- src/scope.ts&#45;&gt;src/parser.ts -->
<g id="edge33" class="edge">
<title>src/scope.ts&#45;&gt;src/parser.ts</title>
<path fill="none" stroke="#757575" d="M911.25,-176.84C911.25,-176.84 911.25,-151.13 911.25,-151.13"/>
<polygon fill="#757575" stroke="#757575" points="914.75,-151.13 911.25,-141.13 907.75,-151.13 914.75,-151.13"/>
</g>
<!-- src/scope.ts&#45;&gt;src/type&#45;utils.ts -->
<g id="edge34" class="edge">
<title>src/scope.ts&#45;&gt;src/type&#45;utils.ts</title>
<path fill="none" stroke="#757575" d="M953.5,-176.7C953.5,-146.73 953.5,-70 953.5,-70 953.5,-70 950.68,-70 950.68,-70"/>
<polygon fill="#757575" stroke="#757575" points="950.68,-66.5 940.68,-70 950.68,-73.5 950.68,-66.5"/>
</g>
<!-- src/types/structs.ts&#45;&gt;src/expressions/handlers.ts -->
<g id="edge36" class="edge">
<title>src/types/structs.ts&#45;&gt;src/expressions/handlers.ts</title>
<path fill="none" stroke="#757575" d="M283.11,-123C308.1,-123 330.88,-123 330.88,-123 330.88,-123 330.88,-33.01 330.88,-33.01"/>
<polygon fill="#757575" stroke="#757575" points="334.38,-33.01 330.88,-23.01 327.38,-33.01 334.38,-33.01"/>
</g>
<!-- src/declarations.ts -->
<g id="node13" class="node">
<title>src/declarations.ts</title>
<path fill="none" stroke="#c6c5fe" d="M472.83,-82C472.83,-82 363.17,-82 363.17,-82 359.33,-82 355.5,-78.17 355.5,-74.33 355.5,-74.33 355.5,-66.67 355.5,-66.67 355.5,-62.83 359.33,-59 363.17,-59 363.17,-59 472.83,-59 472.83,-59 476.67,-59 480.5,-62.83 480.5,-66.67 480.5,-66.67 480.5,-74.33 480.5,-74.33 480.5,-78.17 476.67,-82 472.83,-82"/>
<text text-anchor="middle" x="418" y="-66.8" font-family="Arial" font-size="14.00" fill="#c6c5fe">src/declarations.ts</text>
</g>
<!-- src/types/structs.ts&#45;&gt;src/declarations.ts -->
<g id="edge35" class="edge">
<title>src/types/structs.ts&#45;&gt;src/declarations.ts</title>
<path fill="none" stroke="#757575" d="M219,-117.74C219,-100.4 219,-70 219,-70 219,-70 345.31,-70 345.31,-70"/>
<polygon fill="#757575" stroke="#757575" points="345.31,-73.5 355.31,-70 345.31,-66.5 345.31,-73.5"/>
</g>
<!-- src/types/type&#45;declarations.ts&#45;&gt;src/declarations.ts -->
<g id="edge37" class="edge">
<title>src/types/type&#45;declarations.ts&#45;&gt;src/declarations.ts</title>
<path fill="none" stroke="#757575" d="M418,-117.84C418,-117.84 418,-92.13 418,-92.13"/>
<polygon fill="#757575" stroke="#757575" points="421.5,-92.13 418,-82.13 414.5,-92.13 421.5,-92.13"/>
</g>
<!-- src/types/type&#45;declarations.ts&#45;&gt;src/type&#45;utils.ts -->
<g id="edge38" class="edge">
<title>src/types/type&#45;declarations.ts&#45;&gt;src/type&#45;utils.ts</title>
<path fill="none" stroke="#757575" d="M519.25,-117.84C519.25,-109.6 519.25,-100 519.25,-100 519.25,-100 842,-100 842,-100 842,-100 842,-92.16 842,-92.16"/>
<polygon fill="#757575" stroke="#757575" points="845.5,-92.16 842,-82.16 838.5,-92.16 845.5,-92.16"/>
</g>
<!-- src/declarations.ts&#45;&gt;src/expressions/handlers.ts -->
<g id="edge12" class="edge">
<title>src/declarations.ts&#45;&gt;src/expressions/handlers.ts</title>
<path fill="none" stroke="#757575" d="M418,-58.84C418,-58.84 418,-33.13 418,-33.13"/>
<polygon fill="#757575" stroke="#757575" points="421.5,-33.13 418,-23.13 414.5,-33.13 421.5,-33.13"/>
</g>
<!-- src/expressions/operators.ts&#45;&gt;src/parser.ts -->
<g id="edge21" class="edge">
<title>src/expressions/operators.ts&#45;&gt;src/parser.ts</title>
<path fill="none" stroke="#757575" d="M779.7,-192C821.92,-192 862.62,-192 862.62,-192 862.62,-192 862.62,-151.26 862.62,-151.26"/>
<polygon fill="#757575" stroke="#757575" points="866.13,-151.26 862.62,-141.26 859.13,-151.26 866.13,-151.26"/>
</g>
<!-- src/expressions/operators.ts&#45;&gt;src/types/structs.ts -->
<g id="edge23" class="edge">
<title>src/expressions/operators.ts&#45;&gt;src/types/structs.ts</title>
<path fill="none" stroke="#757575" d="M594.17,-188C484.09,-188 315.33,-188 315.33,-188 315.33,-188 315.33,-129 315.33,-129 315.33,-129 293.26,-129 293.26,-129"/>
<polygon fill="#757575" stroke="#757575" points="293.26,-125.5 283.26,-129 293.26,-132.5 293.26,-125.5"/>
</g>
<!-- src/expressions/operator&#45;finder.ts -->
<g id="node15" class="node">
<title>src/expressions/operator&#45;finder.ts</title>
<path fill="none" stroke="#c6c5fe" d="M795.33,-141C795.33,-141 594.67,-141 594.67,-141 590.83,-141 587,-137.17 587,-133.33 587,-133.33 587,-125.67 587,-125.67 587,-121.83 590.83,-118 594.67,-118 594.67,-118 795.33,-118 795.33,-118 799.17,-118 803,-121.83 803,-125.67 803,-125.67 803,-133.33 803,-133.33 803,-137.17 799.17,-141 795.33,-141"/>
<text text-anchor="middle" x="695" y="-125.8" font-family="Arial" font-size="14.00" fill="#c6c5fe">src/expressions/operator&#45;finder.ts</text>
</g>
<!-- src/expressions/operators.ts&#45;&gt;src/expressions/operator&#45;finder.ts -->
<g id="edge20" class="edge">
<title>src/expressions/operators.ts&#45;&gt;src/expressions/operator&#45;finder.ts</title>
<path fill="none" stroke="#757575" d="M687,-176.84C687,-176.84 687,-151.13 687,-151.13"/>
<polygon fill="#757575" stroke="#757575" points="690.5,-151.13 687,-141.13 683.5,-151.13 690.5,-151.13"/>
</g>
<!-- src/expressions/operators.ts&#45;&gt;src/type&#45;utils.ts -->
<g id="edge22" class="edge">
<title>src/expressions/operators.ts&#45;&gt;src/type&#45;utils.ts</title>
<path fill="none" stroke="#757575" d="M779.74,-184C816.64,-184 850.5,-184 850.5,-184 850.5,-184 850.5,-92.22 850.5,-92.22"/>
<polygon fill="#757575" stroke="#757575" points="854,-92.22 850.5,-82.22 847,-92.22 854,-92.22"/>
</g>
<!-- src/expressions/operator&#45;utils.ts -->
<g id="node16" class="node">
<title>src/expressions/operator&#45;utils.ts</title>
<path fill="none" stroke="#cfffac" d="M790.83,-82C790.83,-82 599.17,-82 599.17,-82 595.33,-82 591.5,-78.17 591.5,-74.33 591.5,-74.33 591.5,-66.67 591.5,-66.67 591.5,-62.83 595.33,-59 599.17,-59 599.17,-59 790.83,-59 790.83,-59 794.67,-59 798.5,-62.83 798.5,-66.67 798.5,-66.67 798.5,-74.33 798.5,-74.33 798.5,-78.17 794.67,-82 790.83,-82"/>
<text text-anchor="middle" x="695" y="-66.8" font-family="Arial" font-size="14.00" fill="#cfffac">src/expressions/operator&#45;utils.ts</text>
</g>
<!-- src/expressions/operator&#45;finder.ts&#45;&gt;src/expressions/operator&#45;utils.ts -->
<g id="edge19" class="edge">
<title>src/expressions/operator&#45;finder.ts&#45;&gt;src/expressions/operator&#45;utils.ts</title>
<path fill="none" stroke="#757575" d="M695,-117.84C695,-117.84 695,-92.13 695,-92.13"/>
<polygon fill="#757575" stroke="#757575" points="698.5,-92.13 695,-82.13 691.5,-92.13 698.5,-92.13"/>
</g>
<!-- src/loops/types.ts&#45;&gt;src/expressions/handlers.ts -->
<g id="edge27" class="edge">
<title>src/loops/types.ts&#45;&gt;src/expressions/handlers.ts</title>
<path fill="none" stroke="#757575" d="M1041,-176.74C1041,-136.24 1041,-5 1041,-5 1041,-5 518.26,-5 518.26,-5"/>
<polygon fill="#757575" stroke="#757575" points="518.26,-1.5 508.26,-5 518.26,-8.5 518.26,-1.5"/>
</g>
<!-- tests/app.test.ts -->
<g id="node20" class="node">
<title>tests/app.test.ts</title>
<path fill="none" stroke="#c6c5fe" d="M734.83,-377C734.83,-377 639.17,-377 639.17,-377 635.33,-377 631.5,-373.17 631.5,-369.33 631.5,-369.33 631.5,-361.67 631.5,-361.67 631.5,-357.83 635.33,-354 639.17,-354 639.17,-354 734.83,-354 734.83,-354 738.67,-354 742.5,-357.83 742.5,-361.67 742.5,-361.67 742.5,-369.33 742.5,-369.33 742.5,-373.17 738.67,-377 734.83,-377"/>
<text text-anchor="middle" x="687" y="-361.8" font-family="Arial" font-size="14.00" fill="#c6c5fe">tests/app.test.ts</text>
</g>
<!-- tests/app.test.ts&#45;&gt;src/app.ts -->
<g id="edge39" class="edge">
<title>tests/app.test.ts&#45;&gt;src/app.ts</title>
<path fill="none" stroke="#757575" d="M687,-353.84C687,-353.84 687,-328.13 687,-328.13"/>
<polygon fill="#757575" stroke="#757575" points="690.5,-328.13 687,-318.13 683.5,-328.13 690.5,-328.13"/>
</g>
</g>
</svg>
