<?xml version="1.0" encoding="UTF-8" standalone="no"?>
<!DOCTYPE svg PUBLIC "-//W3C//DTD SVG 1.1//EN"
 "http://www.w3.org/Graphics/SVG/1.1/DTD/svg11.dtd">
<!-- Generated by graphviz version 2.43.0 (0)
 -->
<!-- Title: G Pages: 1 -->
<svg width="1879pt" height="538pt"
 viewBox="0.00 0.00 1879.20 538.20" xmlns="http://www.w3.org/2000/svg" xmlns:xlink="http://www.w3.org/1999/xlink">
<g id="graph0" class="graph" transform="scale(1 1) rotate(0) translate(21.6 516.6)">
<title>G</title>
<polygon fill="#111111" stroke="transparent" points="-21.6,21.6 -21.6,-516.6 1857.6,-516.6 1857.6,21.6 -21.6,21.6"/>
<!-- src/app.ts -->
<g id="node1" class="node">
<title>src/app.ts</title>
<path fill="none" stroke="#c6c5fe" d="M731.83,-377C731.83,-377 672.17,-377 672.17,-377 668.33,-377 664.5,-373.17 664.5,-369.33 664.5,-369.33 664.5,-361.67 664.5,-361.67 664.5,-357.83 668.33,-354 672.17,-354 672.17,-354 731.83,-354 731.83,-354 735.67,-354 739.5,-357.83 739.5,-361.67 739.5,-361.67 739.5,-369.33 739.5,-369.33 739.5,-373.17 735.67,-377 731.83,-377"/>
<text text-anchor="middle" x="702" y="-361.8" font-family="Arial" font-size="14.00" fill="#c6c5fe">src/app.ts</text>
</g>
<!-- src/expressions/binary&#45;operation.ts -->
<g id="node2" class="node">
<title>src/expressions/binary&#45;operation.ts</title>
<path fill="none" stroke="#c6c5fe" d="M638.33,-259C638.33,-259 427.67,-259 427.67,-259 423.83,-259 420,-255.17 420,-251.33 420,-251.33 420,-243.67 420,-243.67 420,-239.83 423.83,-236 427.67,-236 427.67,-236 638.33,-236 638.33,-236 642.17,-236 646,-239.83 646,-243.67 646,-243.67 646,-251.33 646,-251.33 646,-255.17 642.17,-259 638.33,-259"/>
<text text-anchor="middle" x="533" y="-243.8" font-family="Arial" font-size="14.00" fill="#c6c5fe">src/expressions/binary&#45;operation.ts</text>
</g>
<!-- src/app.ts&#45;&gt;src/expressions/binary&#45;operation.ts -->
<g id="edge1" class="edge">
<title>src/app.ts&#45;&gt;src/expressions/binary&#45;operation.ts</title>
<path fill="none" stroke="#757575" d="M664.37,-358C652.07,-358 641.5,-358 641.5,-358 641.5,-358 641.5,-269.33 641.5,-269.33"/>
<polygon fill="#757575" stroke="#757575" points="645,-269.33 641.5,-259.33 638,-269.33 645,-269.33"/>
</g>
<!-- src/expressions/grouped&#45;expressions.ts -->
<g id="node3" class="node">
<title>src/expressions/grouped&#45;expressions.ts</title>
<path fill="none" stroke="#c6c5fe" d="M306.33,-200C306.33,-200 67.67,-200 67.67,-200 63.83,-200 60,-196.17 60,-192.33 60,-192.33 60,-184.67 60,-184.67 60,-180.83 63.83,-177 67.67,-177 67.67,-177 306.33,-177 306.33,-177 310.17,-177 314,-180.83 314,-184.67 314,-184.67 314,-192.33 314,-192.33 314,-196.17 310.17,-200 306.33,-200"/>
<text text-anchor="middle" x="187" y="-184.8" font-family="Arial" font-size="14.00" fill="#c6c5fe">src/expressions/grouped&#45;expressions.ts</text>
</g>
<!-- src/app.ts&#45;&gt;src/expressions/grouped&#45;expressions.ts -->
<g id="edge2" class="edge">
<title>src/app.ts&#45;&gt;src/expressions/grouped&#45;expressions.ts</title>
<path fill="none" stroke="#757575" d="M664.32,-367C564.62,-367 301.5,-367 301.5,-367 301.5,-367 301.5,-210.21 301.5,-210.21"/>
<polygon fill="#757575" stroke="#757575" points="305,-210.21 301.5,-200.21 298,-210.21 305,-210.21"/>
</g>
<!-- src/expressions/handlers.ts -->
<g id="node4" class="node">
<title>src/expressions/handlers.ts</title>
<path fill="none" stroke="#cfffac" d="M600.33,-23C600.33,-23 435.67,-23 435.67,-23 431.83,-23 428,-19.17 428,-15.33 428,-15.33 428,-7.67 428,-7.67 428,-3.83 431.83,0 435.67,0 435.67,0 600.33,0 600.33,0 604.17,0 608,-3.83 608,-7.67 608,-7.67 608,-15.33 608,-15.33 608,-19.17 604.17,-23 600.33,-23"/>
<text text-anchor="middle" x="518" y="-7.8" font-family="Arial" font-size="14.00" fill="#cfffac">src/expressions/handlers.ts</text>
</g>
<!-- src/app.ts&#45;&gt;src/expressions/handlers.ts -->
<g id="edge3" class="edge">
<title>src/app.ts&#45;&gt;src/expressions/handlers.ts</title>
<path fill="none" stroke="#757575" d="M731.9,-353.98C731.9,-292.62 731.9,-7 731.9,-7 731.9,-7 618.09,-7 618.09,-7"/>
<polygon fill="#757575" stroke="#757575" points="618.09,-3.5 608.09,-7 618.09,-10.5 618.09,-3.5"/>
</g>
<!-- src/functions.ts -->
<g id="node5" class="node">
<title>src/functions.ts</title>
<path fill="none" stroke="#c6c5fe" d="M1259.83,-200C1259.83,-200 1168.17,-200 1168.17,-200 1164.33,-200 1160.5,-196.17 1160.5,-192.33 1160.5,-192.33 1160.5,-184.67 1160.5,-184.67 1160.5,-180.83 1164.33,-177 1168.17,-177 1168.17,-177 1259.83,-177 1259.83,-177 1263.67,-177 1267.5,-180.83 1267.5,-184.67 1267.5,-184.67 1267.5,-192.33 1267.5,-192.33 1267.5,-196.17 1263.67,-200 1259.83,-200"/>
<text text-anchor="middle" x="1214" y="-184.8" font-family="Arial" font-size="14.00" fill="#c6c5fe">src/functions.ts</text>
</g>
<!-- src/app.ts&#45;&gt;src/functions.ts -->
<g id="edge4" class="edge">
<title>src/app.ts&#45;&gt;src/functions.ts</title>
<path fill="none" stroke="#757575" d="M735.7,-353.98C735.7,-314.94 735.7,-190 735.7,-190 735.7,-190 1150.06,-190 1150.06,-190"/>
<polygon fill="#757575" stroke="#757575" points="1150.06,-193.5 1160.06,-190 1150.06,-186.5 1150.06,-193.5"/>
</g>
<!-- src/loops/for.ts -->
<g id="node6" class="node">
<title>src/loops/for.ts</title>
<path fill="none" stroke="#c6c5fe" d="M1677.33,-318C1677.33,-318 1588.67,-318 1588.67,-318 1584.83,-318 1581,-314.17 1581,-310.33 1581,-310.33 1581,-302.67 1581,-302.67 1581,-298.83 1584.83,-295 1588.67,-295 1588.67,-295 1677.33,-295 1677.33,-295 1681.17,-295 1685,-298.83 1685,-302.67 1685,-302.67 1685,-310.33 1685,-310.33 1685,-314.17 1681.17,-318 1677.33,-318"/>
<text text-anchor="middle" x="1633" y="-302.8" font-family="Arial" font-size="14.00" fill="#c6c5fe">src/loops/for.ts</text>
</g>
<!-- src/app.ts&#45;&gt;src/loops/for.ts -->
<g id="edge5" class="edge">
<title>src/app.ts&#45;&gt;src/loops/for.ts</title>
<path fill="none" stroke="#757575" d="M739.65,-365C913.82,-365 1633,-365 1633,-365 1633,-365 1633,-328.06 1633,-328.06"/>
<polygon fill="#757575" stroke="#757575" points="1636.5,-328.06 1633,-318.06 1629.5,-328.06 1636.5,-328.06"/>
</g>
<!-- src/loops/loop.ts -->
<g id="node7" class="node">
<title>src/loops/loop.ts</title>
<path fill="none" stroke="#cfffac" d="M1828.33,-259C1828.33,-259 1729.67,-259 1729.67,-259 1725.83,-259 1722,-255.17 1722,-251.33 1722,-251.33 1722,-243.67 1722,-243.67 1722,-239.83 1725.83,-236 1729.67,-236 1729.67,-236 1828.33,-236 1828.33,-236 1832.17,-236 1836,-239.83 1836,-243.67 1836,-243.67 1836,-251.33 1836,-251.33 1836,-255.17 1832.17,-259 1828.33,-259"/>
<text text-anchor="middle" x="1779" y="-243.8" font-family="Arial" font-size="14.00" fill="#cfffac">src/loops/loop.ts</text>
</g>
<!-- src/app.ts&#45;&gt;src/loops/loop.ts -->
<g id="edge6" class="edge">
<title>src/app.ts&#45;&gt;src/loops/loop.ts</title>
<path fill="none" stroke="#757575" d="M739.73,-371C933.49,-371 1807.5,-371 1807.5,-371 1807.5,-371 1807.5,-269.34 1807.5,-269.34"/>
<polygon fill="#757575" stroke="#757575" points="1811,-269.34 1807.5,-259.34 1804,-269.34 1811,-269.34"/>
</g>
<!-- src/loops/while.ts -->
<g id="node8" class="node">
<title>src/loops/while.ts</title>
<path fill="none" stroke="#c6c5fe" d="M1547.83,-318C1547.83,-318 1444.17,-318 1444.17,-318 1440.33,-318 1436.5,-314.17 1436.5,-310.33 1436.5,-310.33 1436.5,-302.67 1436.5,-302.67 1436.5,-298.83 1440.33,-295 1444.17,-295 1444.17,-295 1547.83,-295 1547.83,-295 1551.67,-295 1555.5,-298.83 1555.5,-302.67 1555.5,-302.67 1555.5,-310.33 1555.5,-310.33 1555.5,-314.17 1551.67,-318 1547.83,-318"/>
<text text-anchor="middle" x="1496" y="-302.8" font-family="Arial" font-size="14.00" fill="#c6c5fe">src/loops/while.ts</text>
</g>
<!-- src/app.ts&#45;&gt;src/loops/while.ts -->
<g id="edge7" class="edge">
<title>src/app.ts&#45;&gt;src/loops/while.ts</title>
<path fill="none" stroke="#757575" d="M739.76,-359C897.56,-359 1496,-359 1496,-359 1496,-359 1496,-328.15 1496,-328.15"/>
<polygon fill="#757575" stroke="#757575" points="1499.5,-328.15 1496,-318.15 1492.5,-328.15 1499.5,-328.15"/>
</g>
<!-- src/match.ts -->
<g id="node9" class="node">
<title>src/match.ts</title>
<path fill="none" stroke="#cfffac" d="M82.33,-141C82.33,-141 7.67,-141 7.67,-141 3.83,-141 0,-137.17 0,-133.33 0,-133.33 0,-125.67 0,-125.67 0,-121.83 3.83,-118 7.67,-118 7.67,-118 82.33,-118 82.33,-118 86.17,-118 90,-121.83 90,-125.67 90,-125.67 90,-133.33 90,-133.33 90,-137.17 86.17,-141 82.33,-141"/>
<text text-anchor="middle" x="45" y="-125.8" font-family="Arial" font-size="14.00" fill="#cfffac">src/match.ts</text>
</g>
<!-- src/app.ts&#45;&gt;src/match.ts -->
<g id="edge8" class="edge">
<title>src/app.ts&#45;&gt;src/match.ts</title>
<path fill="none" stroke="#757575" d="M664.43,-372C522.91,-372 30,-372 30,-372 30,-372 30,-151.2 30,-151.2"/>
<polygon fill="#757575" stroke="#757575" points="33.5,-151.2 30,-141.2 26.5,-151.2 33.5,-151.2"/>
</g>
<!-- src/parser.ts -->
<g id="node10" class="node">
<title>src/parser.ts</title>
<path fill="none" stroke="#c6c5fe" d="M722.33,-141C722.33,-141 647.67,-141 647.67,-141 643.83,-141 640,-137.17 640,-133.33 640,-133.33 640,-125.67 640,-125.67 640,-121.83 643.83,-118 647.67,-118 647.67,-118 722.33,-118 722.33,-118 726.17,-118 730,-121.83 730,-125.67 730,-125.67 730,-133.33 730,-133.33 730,-137.17 726.17,-141 722.33,-141"/>
<text text-anchor="middle" x="685" y="-125.8" font-family="Arial" font-size="14.00" fill="#c6c5fe">src/parser.ts</text>
</g>
<!-- src/app.ts&#45;&gt;src/parser.ts -->
<g id="edge9" class="edge">
<title>src/app.ts&#45;&gt;src/parser.ts</title>
<path fill="none" stroke="#757575" d="M686.33,-353.8C686.33,-353.8 686.33,-151.27 686.33,-151.27"/>
<polygon fill="#757575" stroke="#757575" points="689.83,-151.27 686.33,-141.27 682.83,-151.27 689.83,-151.27"/>
</g>
<!-- src/scope.ts -->
<g id="node11" class="node">
<title>src/scope.ts</title>
<path fill="none" stroke="#c6c5fe" d="M1080.83,-318C1080.83,-318 1007.17,-318 1007.17,-318 1003.33,-318 999.5,-314.17 999.5,-310.33 999.5,-310.33 999.5,-302.67 999.5,-302.67 999.5,-298.83 1003.33,-295 1007.17,-295 1007.17,-295 1080.83,-295 1080.83,-295 1084.67,-295 1088.5,-298.83 1088.5,-302.67 1088.5,-302.67 1088.5,-310.33 1088.5,-310.33 1088.5,-314.17 1084.67,-318 1080.83,-318"/>
<text text-anchor="middle" x="1044" y="-302.8" font-family="Arial" font-size="14.00" fill="#c6c5fe">src/scope.ts</text>
</g>
<!-- src/app.ts&#45;&gt;src/scope.ts -->
<g id="edge10" class="edge">
<title>src/app.ts&#45;&gt;src/scope.ts</title>
<path fill="none" stroke="#757575" d="M737.6,-353.73C737.6,-337.44 737.6,-310 737.6,-310 737.6,-310 989.45,-310 989.45,-310"/>
<polygon fill="#757575" stroke="#757575" points="989.45,-313.5 999.45,-310 989.45,-306.5 989.45,-313.5"/>
</g>
<!-- src/types/structs.ts -->
<g id="node12" class="node">
<title>src/types/structs.ts</title>
<path fill="none" stroke="#c6c5fe" d="M342.33,-141C342.33,-141 229.67,-141 229.67,-141 225.83,-141 222,-137.17 222,-133.33 222,-133.33 222,-125.67 222,-125.67 222,-121.83 225.83,-118 229.67,-118 229.67,-118 342.33,-118 342.33,-118 346.17,-118 350,-121.83 350,-125.67 350,-125.67 350,-133.33 350,-133.33 350,-137.17 346.17,-141 342.33,-141"/>
<text text-anchor="middle" x="286" y="-125.8" font-family="Arial" font-size="14.00" fill="#c6c5fe">src/types/structs.ts</text>
</g>
<!-- src/app.ts&#45;&gt;src/types/structs.ts -->
<g id="edge11" class="edge">
<title>src/app.ts&#45;&gt;src/types/structs.ts</title>
<path fill="none" stroke="#757575" d="M664.23,-363C568.88,-363 326,-363 326,-363 326,-363 326,-151.08 326,-151.08"/>
<polygon fill="#757575" stroke="#757575" points="329.5,-151.08 326,-141.08 322.5,-151.08 329.5,-151.08"/>
</g>
<!-- src/types/type&#45;declarations.ts -->
<g id="node13" class="node">
<title>src/types/type&#45;declarations.ts</title>
<path fill="none" stroke="#c6c5fe" d="M1007.83,-141C1007.83,-141 832.17,-141 832.17,-141 828.33,-141 824.5,-137.17 824.5,-133.33 824.5,-133.33 824.5,-125.67 824.5,-125.67 824.5,-121.83 828.33,-118 832.17,-118 832.17,-118 1007.83,-118 1007.83,-118 1011.67,-118 1015.5,-121.83 1015.5,-125.67 1015.5,-125.67 1015.5,-133.33 1015.5,-133.33 1015.5,-137.17 1011.67,-141 1007.83,-141"/>
<text text-anchor="middle" x="920" y="-125.8" font-family="Arial" font-size="14.00" fill="#c6c5fe">src/types/type&#45;declarations.ts</text>
</g>
<!-- src/app.ts&#45;&gt;src/types/type&#45;declarations.ts -->
<g id="edge12" class="edge">
<title>src/app.ts&#45;&gt;src/types/type&#45;declarations.ts</title>
<path fill="none" stroke="#757575" d="M733.8,-353.77C733.8,-306.05 733.8,-129 733.8,-129 733.8,-129 814.45,-129 814.45,-129"/>
<polygon fill="#757575" stroke="#757575" points="814.45,-132.5 824.45,-129 814.45,-125.5 814.45,-132.5"/>
</g>
<!-- src/expressions/binary&#45;operation.ts&#45;&gt;src/expressions/handlers.ts -->
<g id="edge14" class="edge">
<title>src/expressions/binary&#45;operation.ts&#45;&gt;src/expressions/handlers.ts</title>
<path fill="none" stroke="#757575" d="M625,-235.82C625,-188.3 625,-12 625,-12 625,-12 618.28,-12 618.28,-12"/>
<polygon fill="#757575" stroke="#757575" points="618.28,-8.5 608.28,-12 618.28,-15.5 618.28,-8.5"/>
</g>
<!-- src/expressions/binary&#45;operation.ts&#45;&gt;src/parser.ts -->
<g id="edge16" class="edge">
<title>src/expressions/binary&#45;operation.ts&#45;&gt;src/parser.ts</title>
<path fill="none" stroke="#757575" d="M646.06,-243C651.8,-243 655.25,-243 655.25,-243 655.25,-243 655.25,-151.22 655.25,-151.22"/>
<polygon fill="#757575" stroke="#757575" points="658.75,-151.22 655.25,-141.22 651.75,-151.22 658.75,-151.22"/>
</g>
<!-- src/expressions/operators.ts -->
<g id="node15" class="node">
<title>src/expressions/operators.ts</title>
<path fill="none" stroke="#c6c5fe" d="M609.83,-200C609.83,-200 440.17,-200 440.17,-200 436.33,-200 432.5,-196.17 432.5,-192.33 432.5,-192.33 432.5,-184.67 432.5,-184.67 432.5,-180.83 436.33,-177 440.17,-177 440.17,-177 609.83,-177 609.83,-177 613.67,-177 617.5,-180.83 617.5,-184.67 617.5,-184.67 617.5,-192.33 617.5,-192.33 617.5,-196.17 613.67,-200 609.83,-200"/>
<text text-anchor="middle" x="525" y="-184.8" font-family="Arial" font-size="14.00" fill="#c6c5fe">src/expressions/operators.ts</text>
</g>
<!-- src/expressions/binary&#45;operation.ts&#45;&gt;src/expressions/operators.ts -->
<g id="edge15" class="edge">
<title>src/expressions/binary&#45;operation.ts&#45;&gt;src/expressions/operators.ts</title>
<path fill="none" stroke="#757575" d="M525,-235.84C525,-235.84 525,-210.13 525,-210.13"/>
<polygon fill="#757575" stroke="#757575" points="528.5,-210.13 525,-200.13 521.5,-210.13 528.5,-210.13"/>
</g>
<!-- src/expressions/grouped&#45;expressions.ts&#45;&gt;src/expressions/handlers.ts -->
<g id="edge17" class="edge">
<title>src/expressions/grouped&#45;expressions.ts&#45;&gt;src/expressions/handlers.ts</title>
<path fill="none" stroke="#757575" d="M156,-176.87C156,-136.81 156,-7 156,-7 156,-7 417.59,-7 417.59,-7"/>
<polygon fill="#757575" stroke="#757575" points="417.59,-10.5 427.59,-7 417.59,-3.5 417.59,-10.5"/>
</g>
<!-- src/expressions/grouped&#45;expressions.ts&#45;&gt;src/match.ts -->
<g id="edge18" class="edge">
<title>src/expressions/grouped&#45;expressions.ts&#45;&gt;src/match.ts</title>
<path fill="none" stroke="#757575" d="M75,-176.84C75,-176.84 75,-151.13 75,-151.13"/>
<polygon fill="#757575" stroke="#757575" points="78.5,-151.13 75,-141.13 71.5,-151.13 78.5,-151.13"/>
</g>
<!-- src/expressions/grouped&#45;expressions.ts&#45;&gt;src/types/structs.ts -->
<g id="edge19" class="edge">
<title>src/expressions/grouped&#45;expressions.ts&#45;&gt;src/types/structs.ts</title>
<path fill="none" stroke="#757575" d="M252.67,-176.84C252.67,-176.84 252.67,-151.13 252.67,-151.13"/>
<polygon fill="#757575" stroke="#757575" points="256.17,-151.13 252.67,-141.13 249.17,-151.13 256.17,-151.13"/>
</g>
<!-- src/utils/identifier&#45;utils.ts -->
<g id="node16" class="node">
<title>src/utils/identifier&#45;utils.ts</title>
<path fill="none" stroke="#cfffac" d="M1224.33,-82C1224.33,-82 1079.67,-82 1079.67,-82 1075.83,-82 1072,-78.17 1072,-74.33 1072,-74.33 1072,-66.67 1072,-66.67 1072,-62.83 1075.83,-59 1079.67,-59 1079.67,-59 1224.33,-59 1224.33,-59 1228.17,-59 1232,-62.83 1232,-66.67 1232,-66.67 1232,-74.33 1232,-74.33 1232,-78.17 1228.17,-82 1224.33,-82"/>
<text text-anchor="middle" x="1152" y="-66.8" font-family="Arial" font-size="14.00" fill="#cfffac">src/utils/identifier&#45;utils.ts</text>
</g>
<!-- src/expressions/grouped&#45;expressions.ts&#45;&gt;src/utils/identifier&#45;utils.ts -->
<g id="edge20" class="edge">
<title>src/expressions/grouped&#45;expressions.ts&#45;&gt;src/utils/identifier&#45;utils.ts</title>
<path fill="none" stroke="#757575" d="M283.33,-176.88C283.33,-166.52 283.33,-153 283.33,-153 283.33,-153 1075.3,-153 1075.3,-153 1075.3,-153 1075.3,-92.32 1075.3,-92.32"/>
<polygon fill="#757575" stroke="#757575" points="1078.8,-92.32 1075.3,-82.32 1071.8,-92.32 1078.8,-92.32"/>
</g>
<!-- src/functions.ts&#45;&gt;src/expressions/handlers.ts -->
<g id="edge28" class="edge">
<title>src/functions.ts&#45;&gt;src/expressions/handlers.ts</title>
<path fill="none" stroke="#757575" d="M1160.34,-186C1016.38,-186 632.5,-186 632.5,-186 632.5,-186 632.5,-10 632.5,-10 632.5,-10 618.22,-10 618.22,-10"/>
<polygon fill="#757575" stroke="#757575" points="618.22,-6.5 608.22,-10 618.22,-13.5 618.22,-6.5"/>
</g>
<!-- src/functions.ts&#45;&gt;src/utils/identifier&#45;utils.ts -->
<g id="edge32" class="edge">
<title>src/functions.ts&#45;&gt;src/utils/identifier&#45;utils.ts</title>
<path fill="none" stroke="#757575" d="M1160.32,-181C1130.46,-181 1099.25,-181 1099.25,-181 1099.25,-181 1099.25,-92.33 1099.25,-92.33"/>
<polygon fill="#757575" stroke="#757575" points="1102.75,-92.33 1099.25,-82.33 1095.75,-92.33 1102.75,-92.33"/>
</g>
<!-- src/handlers/anonymous&#45;functions.ts -->
<g id="node21" class="node">
<title>src/handlers/anonymous&#45;functions.ts</title>
<path fill="none" stroke="#c6c5fe" d="M1583.83,-141C1583.83,-141 1362.17,-141 1362.17,-141 1358.33,-141 1354.5,-137.17 1354.5,-133.33 1354.5,-133.33 1354.5,-125.67 1354.5,-125.67 1354.5,-121.83 1358.33,-118 1362.17,-118 1362.17,-118 1583.83,-118 1583.83,-118 1587.67,-118 1591.5,-121.83 1591.5,-125.67 1591.5,-125.67 1591.5,-133.33 1591.5,-133.33 1591.5,-137.17 1587.67,-141 1583.83,-141"/>
<text text-anchor="middle" x="1473" y="-125.8" font-family="Arial" font-size="14.00" fill="#c6c5fe">src/handlers/anonymous&#45;functions.ts</text>
</g>
<!-- src/functions.ts&#45;&gt;src/handlers/anonymous&#45;functions.ts -->
<g id="edge29" class="edge">
<title>src/functions.ts&#45;&gt;src/handlers/anonymous&#45;functions.ts</title>
<path fill="none" stroke="#757575" d="M1267.79,-192C1317.59,-192 1384,-192 1384,-192 1384,-192 1384,-151.26 1384,-151.26"/>
<polygon fill="#757575" stroke="#757575" points="1387.5,-151.26 1384,-141.26 1380.5,-151.26 1387.5,-151.26"/>
</g>
<!-- src/handlers/function&#45;declaration.ts -->
<g id="node22" class="node">
<title>src/handlers/function&#45;declaration.ts</title>
<path fill="none" stroke="#c6c5fe" d="M1328.33,-141C1328.33,-141 1117.67,-141 1117.67,-141 1113.83,-141 1110,-137.17 1110,-133.33 1110,-133.33 1110,-125.67 1110,-125.67 1110,-121.83 1113.83,-118 1117.67,-118 1117.67,-118 1328.33,-118 1328.33,-118 1332.17,-118 1336,-121.83 1336,-125.67 1336,-125.67 1336,-133.33 1336,-133.33 1336,-137.17 1332.17,-141 1328.33,-141"/>
<text text-anchor="middle" x="1223" y="-125.8" font-family="Arial" font-size="14.00" fill="#c6c5fe">src/handlers/function&#45;declaration.ts</text>
</g>
<!-- src/functions.ts&#45;&gt;src/handlers/function&#45;declaration.ts -->
<g id="edge30" class="edge">
<title>src/functions.ts&#45;&gt;src/handlers/function&#45;declaration.ts</title>
<path fill="none" stroke="#757575" d="M1214,-176.84C1214,-176.84 1214,-151.13 1214,-151.13"/>
<polygon fill="#757575" stroke="#757575" points="1217.5,-151.13 1214,-141.13 1210.5,-151.13 1217.5,-151.13"/>
</g>
<!-- src/utils/function&#45;utils.ts -->
<g id="node23" class="node">
<title>src/utils/function&#45;utils.ts</title>
<path fill="none" stroke="#c6c5fe" d="M1543.33,-82C1543.33,-82 1402.67,-82 1402.67,-82 1398.83,-82 1395,-78.17 1395,-74.33 1395,-74.33 1395,-66.67 1395,-66.67 1395,-62.83 1398.83,-59 1402.67,-59 1402.67,-59 1543.33,-59 1543.33,-59 1547.17,-59 1551,-62.83 1551,-66.67 1551,-66.67 1551,-74.33 1551,-74.33 1551,-78.17 1547.17,-82 1543.33,-82"/>
<text text-anchor="middle" x="1473" y="-66.8" font-family="Arial" font-size="14.00" fill="#c6c5fe">src/utils/function&#45;utils.ts</text>
</g>
<!-- src/functions.ts&#45;&gt;src/utils/function&#45;utils.ts -->
<g id="edge31" class="edge">
<title>src/functions.ts&#45;&gt;src/utils/function&#45;utils.ts</title>
<path fill="none" stroke="#757575" d="M1267.86,-184C1305.24,-184 1348.33,-184 1348.33,-184 1348.33,-184 1348.33,-76 1348.33,-76 1348.33,-76 1384.75,-76 1384.75,-76"/>
<polygon fill="#757575" stroke="#757575" points="1384.75,-79.5 1394.75,-76 1384.75,-72.5 1384.75,-79.5"/>
</g>
<!-- src/loops/for.ts&#45;&gt;src/loops/loop.ts -->
<g id="edge41" class="edge">
<title>src/loops/for.ts&#45;&gt;src/loops/loop.ts</title>
<path fill="none" stroke="#757575" d="M1685.3,-306C1727.19,-306 1779,-306 1779,-306 1779,-306 1779,-269.06 1779,-269.06"/>
<polygon fill="#757575" stroke="#757575" points="1782.5,-269.06 1779,-259.06 1775.5,-269.06 1782.5,-269.06"/>
</g>
<!-- src/loops/helpers.ts -->
<g id="node24" class="node">
<title>src/loops/helpers.ts</title>
<path fill="none" stroke="#cfffac" d="M1695.83,-259C1695.83,-259 1578.17,-259 1578.17,-259 1574.33,-259 1570.5,-255.17 1570.5,-251.33 1570.5,-251.33 1570.5,-243.67 1570.5,-243.67 1570.5,-239.83 1574.33,-236 1578.17,-236 1578.17,-236 1695.83,-236 1695.83,-236 1699.67,-236 1703.5,-239.83 1703.5,-243.67 1703.5,-243.67 1703.5,-251.33 1703.5,-251.33 1703.5,-255.17 1699.67,-259 1695.83,-259"/>
<text text-anchor="middle" x="1637" y="-243.8" font-family="Arial" font-size="14.00" fill="#cfffac">src/loops/helpers.ts</text>
</g>
<!-- src/loops/for.ts&#45;&gt;src/loops/helpers.ts -->
<g id="edge40" class="edge">
<title>src/loops/for.ts&#45;&gt;src/loops/helpers.ts</title>
<path fill="none" stroke="#757575" d="M1633,-294.84C1633,-294.84 1633,-269.13 1633,-269.13"/>
<polygon fill="#757575" stroke="#757575" points="1636.5,-269.13 1633,-259.13 1629.5,-269.13 1636.5,-269.13"/>
</g>
<!-- src/loops/types.ts -->
<g id="node25" class="node">
<title>src/loops/types.ts</title>
<path fill="none" stroke="#c6c5fe" d="M1544.83,-259C1544.83,-259 1439.17,-259 1439.17,-259 1435.33,-259 1431.5,-255.17 1431.5,-251.33 1431.5,-251.33 1431.5,-243.67 1431.5,-243.67 1431.5,-239.83 1435.33,-236 1439.17,-236 1439.17,-236 1544.83,-236 1544.83,-236 1548.67,-236 1552.5,-239.83 1552.5,-243.67 1552.5,-243.67 1552.5,-251.33 1552.5,-251.33 1552.5,-255.17 1548.67,-259 1544.83,-259"/>
<text text-anchor="middle" x="1492" y="-243.8" font-family="Arial" font-size="14.00" fill="#c6c5fe">src/loops/types.ts</text>
</g>
<!-- src/loops/for.ts&#45;&gt;src/loops/types.ts -->
<g id="edge42" class="edge">
<title>src/loops/for.ts&#45;&gt;src/loops/types.ts</title>
<path fill="none" stroke="#757575" d="M1580.66,-302C1570.54,-302 1563,-302 1563,-302 1563,-302 1563,-247 1563,-247 1563,-247 1561.95,-247 1561.95,-247"/>
<polygon fill="#757575" stroke="#757575" points="1562.52,-243.5 1552.52,-247 1562.52,-250.5 1562.52,-243.5"/>
</g>
<!-- src/loops/while.ts&#45;&gt;src/loops/loop.ts -->
<g id="edge45" class="edge">
<title>src/loops/while.ts&#45;&gt;src/loops/loop.ts</title>
<path fill="none" stroke="#757575" d="M1513.83,-294.84C1513.83,-286.6 1513.83,-277 1513.83,-277 1513.83,-277 1750.5,-277 1750.5,-277 1750.5,-277 1750.5,-269.16 1750.5,-269.16"/>
<polygon fill="#757575" stroke="#757575" points="1754,-269.16 1750.5,-259.16 1747,-269.16 1754,-269.16"/>
</g>
<!-- src/loops/while.ts&#45;&gt;src/loops/helpers.ts -->
<g id="edge44" class="edge">
<title>src/loops/while.ts&#45;&gt;src/loops/helpers.ts</title>
<path fill="none" stroke="#757575" d="M1555.63,-310C1567.16,-310 1575.75,-310 1575.75,-310 1575.75,-310 1575.75,-269.26 1575.75,-269.26"/>
<polygon fill="#757575" stroke="#757575" points="1579.25,-269.26 1575.75,-259.26 1572.25,-269.26 1579.25,-269.26"/>
</g>
<!-- src/loops/while.ts&#45;&gt;src/loops/types.ts -->
<g id="edge46" class="edge">
<title>src/loops/while.ts&#45;&gt;src/loops/types.ts</title>
<path fill="none" stroke="#757575" d="M1475.17,-294.84C1475.17,-294.84 1475.17,-269.13 1475.17,-269.13"/>
<polygon fill="#757575" stroke="#757575" points="1478.67,-269.13 1475.17,-259.13 1471.67,-269.13 1478.67,-269.13"/>
</g>
<!-- src/type&#45;utils.ts -->
<g id="node19" class="node">
<title>src/type&#45;utils.ts</title>
<path fill="none" stroke="#cfffac" d="M1197.83,-23C1197.83,-23 1106.17,-23 1106.17,-23 1102.33,-23 1098.5,-19.17 1098.5,-15.33 1098.5,-15.33 1098.5,-7.67 1098.5,-7.67 1098.5,-3.83 1102.33,0 1106.17,0 1106.17,0 1197.83,0 1197.83,0 1201.67,0 1205.5,-3.83 1205.5,-7.67 1205.5,-7.67 1205.5,-15.33 1205.5,-15.33 1205.5,-19.17 1201.67,-23 1197.83,-23"/>
<text text-anchor="middle" x="1152" y="-7.8" font-family="Arial" font-size="14.00" fill="#cfffac">src/type&#45;utils.ts</text>
</g>
<!-- src/parser.ts&#45;&gt;src/type&#45;utils.ts -->
<g id="edge47" class="edge">
<title>src/parser.ts&#45;&gt;src/type&#45;utils.ts</title>
<path fill="none" stroke="#757575" d="M685,-117.68C685,-88.42 685,-15 685,-15 685,-15 1088.43,-15 1088.43,-15"/>
<polygon fill="#757575" stroke="#757575" points="1088.43,-18.5 1098.43,-15 1088.43,-11.5 1088.43,-18.5"/>
</g>
<!-- src/scope.ts&#45;&gt;src/expressions/handlers.ts -->
<g id="edge48" class="edge">
<title>src/scope.ts&#45;&gt;src/expressions/handlers.ts</title>
<path fill="none" stroke="#757575" d="M1029.62,-294.68C1029.62,-238.94 1029.62,-5 1029.62,-5 1029.62,-5 618.29,-5 618.29,-5"/>
<polygon fill="#757575" stroke="#757575" points="618.29,-1.5 608.29,-5 618.29,-8.5 618.29,-1.5"/>
</g>
<!-- src/scope.ts&#45;&gt;src/functions.ts -->
<g id="edge50" class="edge">
<title>src/scope.ts&#45;&gt;src/functions.ts</title>
<path fill="none" stroke="#757575" d="M1081.9,-294.99C1081.9,-266.5 1081.9,-195 1081.9,-195 1081.9,-195 1150.27,-195 1150.27,-195"/>
<polygon fill="#757575" stroke="#757575" points="1150.27,-198.5 1160.27,-195 1150.27,-191.5 1150.27,-198.5"/>
</g>
<!-- src/scope.ts&#45;&gt;src/parser.ts -->
<g id="edge51" class="edge">
<title>src/scope.ts&#45;&gt;src/parser.ts</title>
<path fill="none" stroke="#757575" d="M999.4,-302C908.05,-302 708.17,-302 708.17,-302 708.17,-302 708.17,-151.09 708.17,-151.09"/>
<polygon fill="#757575" stroke="#757575" points="711.67,-151.09 708.17,-141.09 704.67,-151.09 711.67,-151.09"/>
</g>
<!-- src/scope.ts&#45;&gt;src/type&#45;utils.ts -->
<g id="edge52" class="edge">
<title>src/scope.ts&#45;&gt;src/type&#45;utils.ts</title>
<path fill="none" stroke="#757575" d="M1057.88,-294.91C1057.88,-241.31 1057.88,-20 1057.88,-20 1057.88,-20 1088.34,-20 1088.34,-20"/>
<polygon fill="#757575" stroke="#757575" points="1088.34,-23.5 1098.34,-20 1088.34,-16.5 1088.34,-23.5"/>
</g>
<!-- src/function&#45;type&#45;handler.ts -->
<g id="node20" class="node">
<title>src/function&#45;type&#45;handler.ts</title>
<path fill="none" stroke="#c6c5fe" d="M1405.83,-259C1405.83,-259 1242.17,-259 1242.17,-259 1238.33,-259 1234.5,-255.17 1234.5,-251.33 1234.5,-251.33 1234.5,-243.67 1234.5,-243.67 1234.5,-239.83 1238.33,-236 1242.17,-236 1242.17,-236 1405.83,-236 1405.83,-236 1409.67,-236 1413.5,-239.83 1413.5,-243.67 1413.5,-243.67 1413.5,-251.33 1413.5,-251.33 1413.5,-255.17 1409.67,-259 1405.83,-259"/>
<text text-anchor="middle" x="1324" y="-243.8" font-family="Arial" font-size="14.00" fill="#c6c5fe">src/function&#45;type&#45;handler.ts</text>
</g>
<!-- src/scope.ts&#45;&gt;src/function&#45;type&#45;handler.ts -->
<g id="edge49" class="edge">
<title>src/scope.ts&#45;&gt;src/function&#45;type&#45;handler.ts</title>
<path fill="none" stroke="#757575" d="M1085.2,-294.73C1085.2,-278.44 1085.2,-251 1085.2,-251 1085.2,-251 1224.4,-251 1224.4,-251"/>
<polygon fill="#757575" stroke="#757575" points="1224.4,-254.5 1234.4,-251 1224.4,-247.5 1224.4,-254.5"/>
</g>
<!-- src/scope.ts&#45;&gt;src/utils/function&#45;utils.ts -->
<g id="edge53" class="edge">
<title>src/scope.ts&#45;&gt;src/utils/function&#45;utils.ts</title>
<path fill="none" stroke="#757575" d="M1078.6,-294.77C1078.6,-250.22 1078.6,-94 1078.6,-94 1078.6,-94 1447,-94 1447,-94 1447,-94 1447,-92.25 1447,-92.25"/>
<polygon fill="#757575" stroke="#757575" points="1450.5,-92.25 1447,-82.25 1443.5,-92.25 1450.5,-92.25"/>
</g>
<!-- src/types/structs.ts&#45;&gt;src/expressions/handlers.ts -->
<g id="edge55" class="edge">
<title>src/types/structs.ts&#45;&gt;src/expressions/handlers.ts</title>
<path fill="none" stroke="#757575" d="M307.33,-117.68C307.33,-88.42 307.33,-15 307.33,-15 307.33,-15 417.74,-15 417.74,-15"/>
<polygon fill="#757575" stroke="#757575" points="417.74,-18.5 427.74,-15 417.74,-11.5 417.74,-18.5"/>
</g>
<!-- src/declarations.ts -->
<g id="node14" class="node">
<title>src/declarations.ts</title>
<path fill="none" stroke="#c6c5fe" d="M955.83,-82C955.83,-82 846.17,-82 846.17,-82 842.33,-82 838.5,-78.17 838.5,-74.33 838.5,-74.33 838.5,-66.67 838.5,-66.67 838.5,-62.83 842.33,-59 846.17,-59 846.17,-59 955.83,-59 955.83,-59 959.67,-59 963.5,-62.83 963.5,-66.67 963.5,-66.67 963.5,-74.33 963.5,-74.33 963.5,-78.17 959.67,-82 955.83,-82"/>
<text text-anchor="middle" x="901" y="-66.8" font-family="Arial" font-size="14.00" fill="#c6c5fe">src/declarations.ts</text>
</g>
<!-- src/types/structs.ts&#45;&gt;src/declarations.ts -->
<g id="edge54" class="edge">
<title>src/types/structs.ts&#45;&gt;src/declarations.ts</title>
<path fill="none" stroke="#757575" d="M264.67,-117.75C264.67,-111.88 264.67,-106 264.67,-106 264.67,-106 880.17,-106 880.17,-106 880.17,-106 880.17,-92.12 880.17,-92.12"/>
<polygon fill="#757575" stroke="#757575" points="883.67,-92.12 880.17,-82.12 876.67,-92.12 883.67,-92.12"/>
</g>
<!-- src/types/type&#45;declarations.ts&#45;&gt;src/declarations.ts -->
<g id="edge56" class="edge">
<title>src/types/type&#45;declarations.ts&#45;&gt;src/declarations.ts</title>
<path fill="none" stroke="#757575" d="M921.83,-117.84C921.83,-117.84 921.83,-92.13 921.83,-92.13"/>
<polygon fill="#757575" stroke="#757575" points="925.33,-92.13 921.83,-82.13 918.33,-92.13 925.33,-92.13"/>
</g>
<!-- src/types/type&#45;declarations.ts&#45;&gt;src/type&#45;utils.ts -->
<g id="edge57" class="edge">
<title>src/types/type&#45;declarations.ts&#45;&gt;src/type&#45;utils.ts</title>
<path fill="none" stroke="#757575" d="M989.5,-117.88C989.5,-89.14 989.5,-17 989.5,-17 989.5,-17 1088.34,-17 1088.34,-17"/>
<polygon fill="#757575" stroke="#757575" points="1088.34,-20.5 1098.34,-17 1088.34,-13.5 1088.34,-20.5"/>
</g>
<!-- src/declarations.ts&#45;&gt;src/expressions/handlers.ts -->
<g id="edge13" class="edge">
<title>src/declarations.ts&#45;&gt;src/expressions/handlers.ts</title>
<path fill="none" stroke="#757575" d="M838.27,-70C750.05,-70 600,-70 600,-70 600,-70 600,-33.06 600,-33.06"/>
<polygon fill="#757575" stroke="#757575" points="603.5,-33.06 600,-23.06 596.5,-33.06 603.5,-33.06"/>
</g>
<!-- src/expressions/operators.ts&#45;&gt;src/parser.ts -->
<g id="edge23" class="edge">
<title>src/expressions/operators.ts&#45;&gt;src/parser.ts</title>
<path fill="none" stroke="#757575" d="M614.33,-176.74C614.33,-159.4 614.33,-129 614.33,-129 614.33,-129 629.85,-129 629.85,-129"/>
<polygon fill="#757575" stroke="#757575" points="629.85,-132.5 639.85,-129 629.85,-125.5 629.85,-132.5"/>
</g>
<!-- src/expressions/operators.ts&#45;&gt;src/types/structs.ts -->
<g id="edge25" class="edge">
<title>src/expressions/operators.ts&#45;&gt;src/types/structs.ts</title>
<path fill="none" stroke="#757575" d="M432.32,-188C385.3,-188 338,-188 338,-188 338,-188 338,-151.06 338,-151.06"/>
<polygon fill="#757575" stroke="#757575" points="341.5,-151.06 338,-141.06 334.5,-151.06 341.5,-151.06"/>
</g>
<!-- src/expressions/operator&#45;finder.ts -->
<g id="node17" class="node">
<title>src/expressions/operator&#45;finder.ts</title>
<path fill="none" stroke="#c6c5fe" d="M576.33,-141C576.33,-141 375.67,-141 375.67,-141 371.83,-141 368,-137.17 368,-133.33 368,-133.33 368,-125.67 368,-125.67 368,-121.83 371.83,-118 375.67,-118 375.67,-118 576.33,-118 576.33,-118 580.17,-118 584,-121.83 584,-125.67 584,-125.67 584,-133.33 584,-133.33 584,-137.17 580.17,-141 576.33,-141"/>
<text text-anchor="middle" x="476" y="-125.8" font-family="Arial" font-size="14.00" fill="#c6c5fe">src/expressions/operator&#45;finder.ts</text>
</g>
<!-- src/expressions/operators.ts&#45;&gt;src/expressions/operator&#45;finder.ts -->
<g id="edge22" class="edge">
<title>src/expressions/operators.ts&#45;&gt;src/expressions/operator&#45;finder.ts</title>
<path fill="none" stroke="#757575" d="M508.25,-176.84C508.25,-176.84 508.25,-151.13 508.25,-151.13"/>
<polygon fill="#757575" stroke="#757575" points="511.75,-151.13 508.25,-141.13 504.75,-151.13 511.75,-151.13"/>
</g>
<!-- src/expressions/operators.ts&#45;&gt;src/type&#45;utils.ts -->
<g id="edge24" class="edge">
<title>src/expressions/operators.ts&#45;&gt;src/type&#45;utils.ts</title>
<path fill="none" stroke="#757575" d="M611.17,-176.83C611.17,-136 611.17,-2 611.17,-2 611.17,-2 1088.17,-2 1088.17,-2"/>
<polygon fill="#757575" stroke="#757575" points="1088.17,-5.5 1098.17,-2 1088.17,1.5 1088.17,-5.5"/>
</g>
<!-- src/expressions/operator&#45;utils.ts -->
<g id="node18" class="node">
<title>src/expressions/operator&#45;utils.ts</title>
<path fill="none" stroke="#cfffac" d="M571.83,-82C571.83,-82 380.17,-82 380.17,-82 376.33,-82 372.5,-78.17 372.5,-74.33 372.5,-74.33 372.5,-66.67 372.5,-66.67 372.5,-62.83 376.33,-59 380.17,-59 380.17,-59 571.83,-59 571.83,-59 575.67,-59 579.5,-62.83 579.5,-66.67 579.5,-66.67 579.5,-74.33 579.5,-74.33 579.5,-78.17 575.67,-82 571.83,-82"/>
<text text-anchor="middle" x="476" y="-66.8" font-family="Arial" font-size="14.00" fill="#cfffac">src/expressions/operator&#45;utils.ts</text>
</g>
<!-- src/expressions/operator&#45;finder.ts&#45;&gt;src/expressions/operator&#45;utils.ts -->
<g id="edge21" class="edge">
<title>src/expressions/operator&#45;finder.ts&#45;&gt;src/expressions/operator&#45;utils.ts</title>
<path fill="none" stroke="#757575" d="M476,-117.84C476,-117.84 476,-92.13 476,-92.13"/>
<polygon fill="#757575" stroke="#757575" points="479.5,-92.13 476,-82.13 472.5,-92.13 479.5,-92.13"/>
</g>
<!-- src/function&#45;type&#45;handler.ts&#45;&gt;src/functions.ts -->
<g id="edge26" class="edge">
<title>src/function&#45;type&#45;handler.ts&#45;&gt;src/functions.ts</title>
<path fill="none" stroke="#757575" d="M1251,-235.84C1251,-235.84 1251,-210.13 1251,-210.13"/>
<polygon fill="#757575" stroke="#757575" points="1254.5,-210.13 1251,-200.13 1247.5,-210.13 1254.5,-210.13"/>
</g>
<!-- src/function&#45;type&#45;handler.ts&#45;&gt;src/type&#45;utils.ts -->
<g id="edge27" class="edge">
<title>src/function&#45;type&#45;handler.ts&#45;&gt;src/type&#45;utils.ts</title>
<path fill="none" stroke="#757575" d="M1342.17,-235.87C1342.17,-188.55 1342.17,-13 1342.17,-13 1342.17,-13 1215.73,-13 1215.73,-13"/>
<polygon fill="#757575" stroke="#757575" points="1215.73,-9.5 1205.73,-13 1215.73,-16.5 1215.73,-9.5"/>
</g>
<!-- src/handlers/anonymous&#45;functions.ts&#45;&gt;src/utils/identifier&#45;utils.ts -->
<g id="edge35" class="edge">
<title>src/handlers/anonymous&#45;functions.ts&#45;&gt;src/utils/identifier&#45;utils.ts</title>
<path fill="none" stroke="#757575" d="M1368,-117.74C1368,-100.4 1368,-70 1368,-70 1368,-70 1242.12,-70 1242.12,-70"/>
<polygon fill="#757575" stroke="#757575" points="1242.12,-66.5 1232.12,-70 1242.12,-73.5 1242.12,-66.5"/>
</g>
<!-- src/handlers/anonymous&#45;functions.ts&#45;&gt;src/type&#45;utils.ts -->
<g id="edge33" class="edge">
<title>src/handlers/anonymous&#45;functions.ts&#45;&gt;src/type&#45;utils.ts</title>
<path fill="none" stroke="#757575" d="M1381.5,-117.95C1381.5,-87.79 1381.5,-9 1381.5,-9 1381.5,-9 1215.52,-9 1215.52,-9"/>
<polygon fill="#757575" stroke="#757575" points="1215.52,-5.5 1205.52,-9 1215.52,-12.5 1215.52,-5.5"/>
</g>
<!-- src/handlers/anonymous&#45;functions.ts&#45;&gt;src/utils/function&#45;utils.ts -->
<g id="edge34" class="edge">
<title>src/handlers/anonymous&#45;functions.ts&#45;&gt;src/utils/function&#45;utils.ts</title>
<path fill="none" stroke="#757575" d="M1499,-117.84C1499,-117.84 1499,-92.13 1499,-92.13"/>
<polygon fill="#757575" stroke="#757575" points="1502.5,-92.13 1499,-82.13 1495.5,-92.13 1502.5,-92.13"/>
</g>
<!-- src/handlers/function&#45;declaration.ts&#45;&gt;src/declarations.ts -->
<g id="edge36" class="edge">
<title>src/handlers/function&#45;declaration.ts&#45;&gt;src/declarations.ts</title>
<path fill="none" stroke="#757575" d="M1109.99,-129C1074.19,-129 1043.75,-129 1043.75,-129 1043.75,-129 1043.75,-70 1043.75,-70 1043.75,-70 973.61,-70 973.61,-70"/>
<polygon fill="#757575" stroke="#757575" points="973.61,-66.5 963.61,-70 973.61,-73.5 973.61,-66.5"/>
</g>
<!-- src/handlers/function&#45;declaration.ts&#45;&gt;src/utils/identifier&#45;utils.ts -->
<g id="edge39" class="edge">
<title>src/handlers/function&#45;declaration.ts&#45;&gt;src/utils/identifier&#45;utils.ts</title>
<path fill="none" stroke="#757575" d="M1171,-117.84C1171,-117.84 1171,-92.13 1171,-92.13"/>
<polygon fill="#757575" stroke="#757575" points="1174.5,-92.13 1171,-82.13 1167.5,-92.13 1174.5,-92.13"/>
</g>
<!-- src/handlers/function&#45;declaration.ts&#45;&gt;src/type&#45;utils.ts -->
<g id="edge37" class="edge">
<title>src/handlers/function&#45;declaration.ts&#45;&gt;src/type&#45;utils.ts</title>
<path fill="none" stroke="#757575" d="M1266.67,-117.99C1266.67,-89.5 1266.67,-18 1266.67,-18 1266.67,-18 1215.64,-18 1215.64,-18"/>
<polygon fill="#757575" stroke="#757575" points="1215.64,-14.5 1205.64,-18 1215.64,-21.5 1215.64,-14.5"/>
</g>
<!-- src/handlers/function&#45;declaration.ts&#45;&gt;src/utils/function&#45;utils.ts -->
<g id="edge38" class="edge">
<title>src/handlers/function&#45;declaration.ts&#45;&gt;src/utils/function&#45;utils.ts</title>
<path fill="none" stroke="#757575" d="M1301.33,-117.79C1301.33,-98.95 1301.33,-64 1301.33,-64 1301.33,-64 1384.95,-64 1384.95,-64"/>
<polygon fill="#757575" stroke="#757575" points="1384.95,-67.5 1394.95,-64 1384.95,-60.5 1384.95,-67.5"/>
</g>
<!-- src/utils/function&#45;utils.ts&#45;&gt;src/type&#45;utils.ts -->
<g id="edge58" class="edge">
<title>src/utils/function&#45;utils.ts&#45;&gt;src/type&#45;utils.ts</title>
<path fill="none" stroke="#757575" d="M1473,-58.92C1473,-39.86 1473,-4 1473,-4 1473,-4 1215.73,-4 1215.73,-4"/>
<polygon fill="#757575" stroke="#757575" points="1215.73,-0.5 1205.73,-4 1215.73,-7.5 1215.73,-0.5"/>
</g>
<!-- src/loops/types.ts&#45;&gt;src/expressions/handlers.ts -->
<g id="edge43" class="edge">
<title>src/loops/types.ts&#45;&gt;src/expressions/handlers.ts</title>
<path fill="none" stroke="#757575" d="M1492,-235.68C1492,-212.87 1492,-165 1492,-165 1492,-165 592,-165 592,-165 592,-165 592,-33.04 592,-33.04"/>
<polygon fill="#757575" stroke="#757575" points="595.5,-33.04 592,-23.04 588.5,-33.04 595.5,-33.04"/>
</g>
<!-- src/utils/interpret.ts -->
<g id="node26" class="node">
<title>src/utils/interpret.ts</title>
<path fill="none" stroke="#c6c5fe" d="M759.33,-436C759.33,-436 644.67,-436 644.67,-436 640.83,-436 637,-432.17 637,-428.33 637,-428.33 637,-420.67 637,-420.67 637,-416.83 640.83,-413 644.67,-413 644.67,-413 759.33,-413 759.33,-413 763.17,-413 767,-416.83 767,-420.67 767,-420.67 767,-428.33 767,-428.33 767,-432.17 763.17,-436 759.33,-436"/>
<text text-anchor="middle" x="702" y="-420.8" font-family="Arial" font-size="14.00" fill="#c6c5fe">src/utils/interpret.ts</text>
</g>
<!-- src/utils/interpret.ts&#45;&gt;src/app.ts -->
<g id="edge59" class="edge">
<title>src/utils/interpret.ts&#45;&gt;src/app.ts</title>
<path fill="none" stroke="#757575" d="M702,-412.84C702,-412.84 702,-387.13 702,-387.13"/>
<polygon fill="#757575" stroke="#757575" points="705.5,-387.13 702,-377.13 698.5,-387.13 705.5,-387.13"/>
</g>
<!-- tests/arithmetic.test.ts -->
<g id="node27" class="node">
<title>tests/arithmetic.test.ts</title>
<path fill="none" stroke="#c6c5fe" d="M429.33,-495C429.33,-495 296.67,-495 296.67,-495 292.83,-495 289,-491.17 289,-487.33 289,-487.33 289,-479.67 289,-479.67 289,-475.83 292.83,-472 296.67,-472 296.67,-472 429.33,-472 429.33,-472 433.17,-472 437,-475.83 437,-479.67 437,-479.67 437,-487.33 437,-487.33 437,-491.17 433.17,-495 429.33,-495"/>
<text text-anchor="middle" x="363" y="-479.8" font-family="Arial" font-size="14.00" fill="#c6c5fe">tests/arithmetic.test.ts</text>
</g>
<!-- tests/arithmetic.test.ts&#45;&gt;src/utils/interpret.ts -->
<g id="edge60" class="edge">
<title>tests/arithmetic.test.ts&#45;&gt;src/utils/interpret.ts</title>
<path fill="none" stroke="#757575" d="M428.5,-471.85C428.5,-453.52 428.5,-420 428.5,-420 428.5,-420 626.84,-420 626.84,-420"/>
<polygon fill="#757575" stroke="#757575" points="626.84,-423.5 636.84,-420 626.84,-416.5 626.84,-423.5"/>
</g>
<!-- tests/control&#45;flow.test.ts -->
<g id="node28" class="node">
<title>tests/control&#45;flow.test.ts</title>
<path fill="none" stroke="#c6c5fe" d="M604.83,-495C604.83,-495 463.17,-495 463.17,-495 459.33,-495 455.5,-491.17 455.5,-487.33 455.5,-487.33 455.5,-479.67 455.5,-479.67 455.5,-475.83 459.33,-472 463.17,-472 463.17,-472 604.83,-472 604.83,-472 608.67,-472 612.5,-475.83 612.5,-479.67 612.5,-479.67 612.5,-487.33 612.5,-487.33 612.5,-491.17 608.67,-495 604.83,-495"/>
<text text-anchor="middle" x="534" y="-479.8" font-family="Arial" font-size="14.00" fill="#c6c5fe">tests/control&#45;flow.test.ts</text>
</g>
<!-- tests/control&#45;flow.test.ts&#45;&gt;src/utils/interpret.ts -->
<g id="edge61" class="edge">
<title>tests/control&#45;flow.test.ts&#45;&gt;src/utils/interpret.ts</title>
<path fill="none" stroke="#757575" d="M534,-471.73C534,-455.44 534,-428 534,-428 534,-428 626.57,-428 626.57,-428"/>
<polygon fill="#757575" stroke="#757575" points="626.57,-431.5 636.57,-428 626.57,-424.5 626.57,-431.5"/>
</g>
<!-- tests/functions.test.ts -->
<g id="node29" class="node">
<title>tests/functions.test.ts</title>
<path fill="none" stroke="#c6c5fe" d="M765.83,-495C765.83,-495 638.17,-495 638.17,-495 634.33,-495 630.5,-491.17 630.5,-487.33 630.5,-487.33 630.5,-479.67 630.5,-479.67 630.5,-475.83 634.33,-472 638.17,-472 638.17,-472 765.83,-472 765.83,-472 769.67,-472 773.5,-475.83 773.5,-479.67 773.5,-479.67 773.5,-487.33 773.5,-487.33 773.5,-491.17 769.67,-495 765.83,-495"/>
<text text-anchor="middle" x="702" y="-479.8" font-family="Arial" font-size="14.00" fill="#c6c5fe">tests/functions.test.ts</text>
</g>
<!-- tests/functions.test.ts&#45;&gt;src/utils/interpret.ts -->
<g id="edge62" class="edge">
<title>tests/functions.test.ts&#45;&gt;src/utils/interpret.ts</title>
<path fill="none" stroke="#757575" d="M702,-471.84C702,-471.84 702,-446.13 702,-446.13"/>
<polygon fill="#757575" stroke="#757575" points="705.5,-446.13 702,-436.13 698.5,-446.13 705.5,-446.13"/>
</g>
<!-- tests/types.test.ts -->
<g id="node30" class="node">
<title>tests/types.test.ts</title>
<path fill="none" stroke="#c6c5fe" d="M904.83,-495C904.83,-495 799.17,-495 799.17,-495 795.33,-495 791.5,-491.17 791.5,-487.33 791.5,-487.33 791.5,-479.67 791.5,-479.67 791.5,-475.83 795.33,-472 799.17,-472 799.17,-472 904.83,-472 904.83,-472 908.67,-472 912.5,-475.83 912.5,-479.67 912.5,-479.67 912.5,-487.33 912.5,-487.33 912.5,-491.17 908.67,-495 904.83,-495"/>
<text text-anchor="middle" x="852" y="-479.8" font-family="Arial" font-size="14.00" fill="#c6c5fe">tests/types.test.ts</text>
</g>
<!-- tests/types.test.ts&#45;&gt;src/utils/interpret.ts -->
<g id="edge63" class="edge">
<title>tests/types.test.ts&#45;&gt;src/utils/interpret.ts</title>
<path fill="none" stroke="#757575" d="M808,-471.73C808,-455.44 808,-428 808,-428 808,-428 777.02,-428 777.02,-428"/>
<polygon fill="#757575" stroke="#757575" points="777.02,-424.5 767.02,-428 777.02,-431.5 777.02,-424.5"/>
</g>
<!-- tests/variables.test.ts -->
<g id="node31" class="node">
<title>tests/variables.test.ts</title>
<path fill="none" stroke="#c6c5fe" d="M1065.83,-495C1065.83,-495 938.17,-495 938.17,-495 934.33,-495 930.5,-491.17 930.5,-487.33 930.5,-487.33 930.5,-479.67 930.5,-479.67 930.5,-475.83 934.33,-472 938.17,-472 938.17,-472 1065.83,-472 1065.83,-472 1069.67,-472 1073.5,-475.83 1073.5,-479.67 1073.5,-479.67 1073.5,-487.33 1073.5,-487.33 1073.5,-491.17 1069.67,-495 1065.83,-495"/>
<text text-anchor="middle" x="1002" y="-479.8" font-family="Arial" font-size="14.00" fill="#c6c5fe">tests/variables.test.ts</text>
</g>
<!-- tests/variables.test.ts&#45;&gt;src/utils/interpret.ts -->
<g id="edge64" class="edge">
<title>tests/variables.test.ts&#45;&gt;src/utils/interpret.ts</title>
<path fill="none" stroke="#757575" d="M965,-471.85C965,-453.52 965,-420 965,-420 965,-420 777.01,-420 777.01,-420"/>
<polygon fill="#757575" stroke="#757575" points="777.01,-416.5 767.01,-420 777.01,-423.5 777.01,-416.5"/>
</g>
</g>
</svg>
