<?xml version="1.0" encoding="UTF-8" standalone="no"?>
<!DOCTYPE svg PUBLIC "-//W3C//DTD SVG 1.1//EN"
 "http://www.w3.org/Graphics/SVG/1.1/DTD/svg11.dtd">
<!-- Generated by graphviz version 2.43.0 (0)
 -->
<!-- Title: G Pages: 1 -->
<svg width="1299pt" height="493pt"
 viewBox="0.00 0.00 1299.20 493.20" xmlns="http://www.w3.org/2000/svg" xmlns:xlink="http://www.w3.org/1999/xlink">
<g id="graph0" class="graph" transform="scale(1 1) rotate(0) translate(21.6 471.6)">
<title>G</title>
<polygon fill="#111111" stroke="transparent" points="-21.6,21.6 -21.6,-471.6 1277.6,-471.6 1277.6,21.6 -21.6,21.6"/>
<!-- core/arithmetic.ts -->
<g id="node1" class="node">
<title>core/arithmetic.ts</title>
<path fill="none" stroke="#c6c5fe" d="M1103.33,-101C1103.33,-101 998.67,-101 998.67,-101 994.83,-101 991,-97.17 991,-93.33 991,-93.33 991,-85.67 991,-85.67 991,-81.83 994.83,-78 998.67,-78 998.67,-78 1103.33,-78 1103.33,-78 1107.17,-78 1111,-81.83 1111,-85.67 1111,-85.67 1111,-93.33 1111,-93.33 1111,-97.17 1107.17,-101 1103.33,-101"/>
<text text-anchor="middle" x="1051" y="-85.8" font-family="Arial" font-size="14.00" fill="#c6c5fe">core/arithmetic.ts</text>
</g>
<!-- core/error.ts -->
<g id="node2" class="node">
<title>core/error.ts</title>
<path fill="none" stroke="#cfffac" d="M1245.83,-414C1245.83,-414 1172.17,-414 1172.17,-414 1168.33,-414 1164.5,-410.17 1164.5,-406.33 1164.5,-406.33 1164.5,-398.67 1164.5,-398.67 1164.5,-394.83 1168.33,-391 1172.17,-391 1172.17,-391 1245.83,-391 1245.83,-391 1249.67,-391 1253.5,-394.83 1253.5,-398.67 1253.5,-398.67 1253.5,-406.33 1253.5,-406.33 1253.5,-410.17 1249.67,-414 1245.83,-414"/>
<text text-anchor="middle" x="1209" y="-398.8" font-family="Arial" font-size="14.00" fill="#cfffac">core/error.ts</text>
</g>
<!-- core/arithmetic.ts&#45;&gt;core/error.ts -->
<g id="edge1" class="edge">
<title>core/arithmetic.ts&#45;&gt;core/error.ts</title>
<path fill="none" stroke="#757575" d="M1111.18,-93.33C1155.83,-93.33 1209,-93.33 1209,-93.33 1209,-93.33 1209,-380.76 1209,-380.76"/>
<polygon fill="#757575" stroke="#757575" points="1205.5,-380.76 1209,-390.76 1212.5,-380.76 1205.5,-380.76"/>
</g>
<!-- core/result.ts -->
<g id="node3" class="node">
<title>core/result.ts</title>
<path fill="none" stroke="#cfffac" d="M1248.33,-23C1248.33,-23 1169.67,-23 1169.67,-23 1165.83,-23 1162,-19.17 1162,-15.33 1162,-15.33 1162,-7.67 1162,-7.67 1162,-3.83 1165.83,0 1169.67,0 1169.67,0 1248.33,0 1248.33,0 1252.17,0 1256,-3.83 1256,-7.67 1256,-7.67 1256,-15.33 1256,-15.33 1256,-19.17 1252.17,-23 1248.33,-23"/>
<text text-anchor="middle" x="1209" y="-7.8" font-family="Arial" font-size="14.00" fill="#cfffac">core/result.ts</text>
</g>
<!-- core/arithmetic.ts&#45;&gt;core/result.ts -->
<g id="edge2" class="edge">
<title>core/arithmetic.ts&#45;&gt;core/result.ts</title>
<path fill="none" stroke="#757575" d="M1111.4,-85.67C1158.86,-85.67 1217,-85.67 1217,-85.67 1217,-85.67 1217,-33.09 1217,-33.09"/>
<polygon fill="#757575" stroke="#757575" points="1220.5,-33.09 1217,-23.09 1213.5,-33.09 1220.5,-33.09"/>
</g>
<!-- eval/ifelse&#45;branch.ts -->
<g id="node4" class="node">
<title>eval/ifelse&#45;branch.ts</title>
<path fill="none" stroke="#c6c5fe" d="M396.33,-208C396.33,-208 274.67,-208 274.67,-208 270.83,-208 267,-204.17 267,-200.33 267,-200.33 267,-192.67 267,-192.67 267,-188.83 270.83,-185 274.67,-185 274.67,-185 396.33,-185 396.33,-185 400.17,-185 404,-188.83 404,-192.67 404,-192.67 404,-200.33 404,-200.33 404,-204.17 400.17,-208 396.33,-208"/>
<text text-anchor="middle" x="335.5" y="-192.8" font-family="Arial" font-size="14.00" fill="#c6c5fe">eval/ifelse&#45;branch.ts</text>
</g>
<!-- eval/ifelse&#45;branch.ts&#45;&gt;core/error.ts -->
<g id="edge3" class="edge">
<title>eval/ifelse&#45;branch.ts&#45;&gt;core/error.ts</title>
<path fill="none" stroke="#757575" d="M313,-208.3C313,-252.36 313,-404.8 313,-404.8 313,-404.8 1154.26,-404.8 1154.26,-404.8"/>
<polygon fill="#757575" stroke="#757575" points="1154.26,-408.3 1164.26,-404.8 1154.26,-401.3 1154.26,-408.3"/>
</g>
<!-- eval/ifelse&#45;branch.ts&#45;&gt;core/result.ts -->
<g id="edge4" class="edge">
<title>eval/ifelse&#45;branch.ts&#45;&gt;core/result.ts</title>
<path fill="none" stroke="#757575" d="M302,-184.82C302,-143.96 302,-9.86 302,-9.86 302,-9.86 1151.83,-9.86 1151.83,-9.86"/>
<polygon fill="#757575" stroke="#757575" points="1151.83,-13.36 1161.83,-9.86 1151.83,-6.36 1151.83,-13.36"/>
</g>
<!-- eval/ifelse&#45;helpers.ts -->
<g id="node5" class="node">
<title>eval/ifelse&#45;helpers.ts</title>
<path fill="none" stroke="#c6c5fe" d="M578.83,-208C578.83,-208 454.17,-208 454.17,-208 450.33,-208 446.5,-204.17 446.5,-200.33 446.5,-200.33 446.5,-192.67 446.5,-192.67 446.5,-188.83 450.33,-185 454.17,-185 454.17,-185 578.83,-185 578.83,-185 582.67,-185 586.5,-188.83 586.5,-192.67 586.5,-192.67 586.5,-200.33 586.5,-200.33 586.5,-204.17 582.67,-208 578.83,-208"/>
<text text-anchor="middle" x="516.5" y="-192.8" font-family="Arial" font-size="14.00" fill="#c6c5fe">eval/ifelse&#45;helpers.ts</text>
</g>
<!-- eval/ifelse&#45;branch.ts&#45;&gt;eval/ifelse&#45;helpers.ts -->
<g id="edge5" class="edge">
<title>eval/ifelse&#45;branch.ts&#45;&gt;eval/ifelse&#45;helpers.ts</title>
<path fill="none" stroke="#757575" d="M404.19,-196.5C404.19,-196.5 436.36,-196.5 436.36,-196.5"/>
<polygon fill="#757575" stroke="#757575" points="436.36,-200 446.36,-196.5 436.36,-193 436.36,-200"/>
</g>
<!-- eval/variables.ts -->
<g id="node6" class="node">
<title>eval/variables.ts</title>
<path fill="none" stroke="#c6c5fe" d="M734.33,-296C734.33,-296 636.67,-296 636.67,-296 632.83,-296 629,-292.17 629,-288.33 629,-288.33 629,-280.67 629,-280.67 629,-276.83 632.83,-273 636.67,-273 636.67,-273 734.33,-273 734.33,-273 738.17,-273 742,-276.83 742,-280.67 742,-280.67 742,-288.33 742,-288.33 742,-292.17 738.17,-296 734.33,-296"/>
<text text-anchor="middle" x="685.5" y="-280.8" font-family="Arial" font-size="14.00" fill="#c6c5fe">eval/variables.ts</text>
</g>
<!-- eval/ifelse&#45;branch.ts&#45;&gt;eval/variables.ts -->
<g id="edge6" class="edge">
<title>eval/ifelse&#45;branch.ts&#45;&gt;eval/variables.ts</title>
<path fill="none" stroke="#757575" d="M359,-208.2C359,-231.33 359,-280.67 359,-280.67 359,-280.67 618.63,-280.67 618.63,-280.67"/>
<polygon fill="#757575" stroke="#757575" points="618.63,-284.17 628.63,-280.67 618.63,-277.17 618.63,-284.17"/>
</g>
<!-- parse/parser.ts -->
<g id="node7" class="node">
<title>parse/parser.ts</title>
<path fill="none" stroke="#c6c5fe" d="M904.33,-168C904.33,-168 813.67,-168 813.67,-168 809.83,-168 806,-164.17 806,-160.33 806,-160.33 806,-152.67 806,-152.67 806,-148.83 809.83,-145 813.67,-145 813.67,-145 904.33,-145 904.33,-145 908.17,-145 912,-148.83 912,-152.67 912,-152.67 912,-160.33 912,-160.33 912,-164.17 908.17,-168 904.33,-168"/>
<text text-anchor="middle" x="859" y="-152.8" font-family="Arial" font-size="14.00" fill="#c6c5fe">parse/parser.ts</text>
</g>
<!-- eval/ifelse&#45;branch.ts&#45;&gt;parse/parser.ts -->
<g id="edge7" class="edge">
<title>eval/ifelse&#45;branch.ts&#45;&gt;parse/parser.ts</title>
<path fill="none" stroke="#757575" d="M370,-184.94C370,-172.42 370,-154.2 370,-154.2 370,-154.2 795.74,-154.2 795.74,-154.2"/>
<polygon fill="#757575" stroke="#757575" points="795.74,-157.7 805.74,-154.2 795.74,-150.7 795.74,-157.7"/>
</g>
<!-- utils/types.ts -->
<g id="node8" class="node">
<title>utils/types.ts</title>
<path fill="none" stroke="#c6c5fe" d="M1088.83,-142C1088.83,-142 1013.17,-142 1013.17,-142 1009.33,-142 1005.5,-138.17 1005.5,-134.33 1005.5,-134.33 1005.5,-126.67 1005.5,-126.67 1005.5,-122.83 1009.33,-119 1013.17,-119 1013.17,-119 1088.83,-119 1088.83,-119 1092.67,-119 1096.5,-122.83 1096.5,-126.67 1096.5,-126.67 1096.5,-134.33 1096.5,-134.33 1096.5,-138.17 1092.67,-142 1088.83,-142"/>
<text text-anchor="middle" x="1051" y="-126.8" font-family="Arial" font-size="14.00" fill="#c6c5fe">utils/types.ts</text>
</g>
<!-- eval/ifelse&#45;branch.ts&#45;&gt;utils/types.ts -->
<g id="edge8" class="edge">
<title>eval/ifelse&#45;branch.ts&#45;&gt;utils/types.ts</title>
<path fill="none" stroke="#757575" d="M336,-184.97C336,-165.13 336,-126.67 336,-126.67 336,-126.67 995.46,-126.67 995.46,-126.67"/>
<polygon fill="#757575" stroke="#757575" points="995.46,-130.17 1005.46,-126.67 995.46,-123.17 995.46,-130.17"/>
</g>
<!-- eval/ifelse&#45;helpers.ts&#45;&gt;core/error.ts -->
<g id="edge9" class="edge">
<title>eval/ifelse&#45;helpers.ts&#45;&gt;core/error.ts</title>
<path fill="none" stroke="#757575" d="M586.67,-196.5C758.61,-196.5 1187,-196.5 1187,-196.5 1187,-196.5 1187,-380.83 1187,-380.83"/>
<polygon fill="#757575" stroke="#757575" points="1183.5,-380.83 1187,-390.83 1190.5,-380.83 1183.5,-380.83"/>
</g>
<!-- eval/ifelse&#45;helpers.ts&#45;&gt;core/result.ts -->
<g id="edge10" class="edge">
<title>eval/ifelse&#45;helpers.ts&#45;&gt;core/result.ts</title>
<path fill="none" stroke="#757575" d="M586.76,-190.75C768.32,-190.75 1239,-190.75 1239,-190.75 1239,-190.75 1239,-33.26 1239,-33.26"/>
<polygon fill="#757575" stroke="#757575" points="1242.5,-33.26 1239,-23.26 1235.5,-33.26 1242.5,-33.26"/>
</g>
<!-- eval/ifelse&#45;helpers.ts&#45;&gt;eval/variables.ts -->
<g id="edge11" class="edge">
<title>eval/ifelse&#45;helpers.ts&#45;&gt;eval/variables.ts</title>
<path fill="none" stroke="#757575" d="M586.84,-202.25C622.35,-202.25 658,-202.25 658,-202.25 658,-202.25 658,-262.72 658,-262.72"/>
<polygon fill="#757575" stroke="#757575" points="654.5,-262.72 658,-272.72 661.5,-262.72 654.5,-262.72"/>
</g>
<!-- eval/variables.ts&#45;&gt;core/error.ts -->
<g id="edge33" class="edge">
<title>eval/variables.ts&#45;&gt;core/error.ts</title>
<path fill="none" stroke="#757575" d="M705,-296.02C705,-325.28 705,-400.2 705,-400.2 705,-400.2 1154.27,-400.2 1154.27,-400.2"/>
<polygon fill="#757575" stroke="#757575" points="1154.27,-403.7 1164.27,-400.2 1154.27,-396.7 1154.27,-403.7"/>
</g>
<!-- eval/variables.ts&#45;&gt;core/result.ts -->
<g id="edge34" class="edge">
<title>eval/variables.ts&#45;&gt;core/result.ts</title>
<path fill="none" stroke="#757575" d="M686,-272.84C686,-220.9 686,-13.14 686,-13.14 686,-13.14 1151.66,-13.14 1151.66,-13.14"/>
<polygon fill="#757575" stroke="#757575" points="1151.66,-16.64 1161.66,-13.14 1151.66,-9.64 1151.66,-16.64"/>
</g>
<!-- eval/variables.ts&#45;&gt;parse/parser.ts -->
<g id="edge37" class="edge">
<title>eval/variables.ts&#45;&gt;parse/parser.ts</title>
<path fill="none" stroke="#757575" d="M714,-272.89C714,-242.58 714,-163.4 714,-163.4 714,-163.4 795.83,-163.4 795.83,-163.4"/>
<polygon fill="#757575" stroke="#757575" points="795.83,-166.9 805.83,-163.4 795.83,-159.9 795.83,-166.9"/>
</g>
<!-- utils/validation.ts -->
<g id="node11" class="node">
<title>utils/validation.ts</title>
<path fill="none" stroke="#c6c5fe" d="M909.33,-450C909.33,-450 808.67,-450 808.67,-450 804.83,-450 801,-446.17 801,-442.33 801,-442.33 801,-434.67 801,-434.67 801,-430.83 804.83,-427 808.67,-427 808.67,-427 909.33,-427 909.33,-427 913.17,-427 917,-430.83 917,-434.67 917,-434.67 917,-442.33 917,-442.33 917,-446.17 913.17,-450 909.33,-450"/>
<text text-anchor="middle" x="859" y="-434.8" font-family="Arial" font-size="14.00" fill="#c6c5fe">utils/validation.ts</text>
</g>
<!-- eval/variables.ts&#45;&gt;utils/validation.ts -->
<g id="edge38" class="edge">
<title>eval/variables.ts&#45;&gt;utils/validation.ts</title>
<path fill="none" stroke="#757575" d="M686,-296.08C686,-331.89 686,-438.5 686,-438.5 686,-438.5 790.91,-438.5 790.91,-438.5"/>
<polygon fill="#757575" stroke="#757575" points="790.91,-442 800.91,-438.5 790.91,-435 790.91,-442"/>
</g>
<!-- eval/variables&#45;helpers.ts -->
<g id="node13" class="node">
<title>eval/variables&#45;helpers.ts</title>
<path fill="none" stroke="#c6c5fe" d="M932.33,-296C932.33,-296 785.67,-296 785.67,-296 781.83,-296 778,-292.17 778,-288.33 778,-288.33 778,-280.67 778,-280.67 778,-276.83 781.83,-273 785.67,-273 785.67,-273 932.33,-273 932.33,-273 936.17,-273 940,-276.83 940,-280.67 940,-280.67 940,-288.33 940,-288.33 940,-292.17 936.17,-296 932.33,-296"/>
<text text-anchor="middle" x="859" y="-280.8" font-family="Arial" font-size="14.00" fill="#c6c5fe">eval/variables&#45;helpers.ts</text>
</g>
<!-- eval/variables.ts&#45;&gt;eval/variables&#45;helpers.ts -->
<g id="edge35" class="edge">
<title>eval/variables.ts&#45;&gt;eval/variables&#45;helpers.ts</title>
<path fill="none" stroke="#757575" d="M742.31,-284.5C742.31,-284.5 767.83,-284.5 767.83,-284.5"/>
<polygon fill="#757575" stroke="#757575" points="767.83,-288 777.83,-284.5 767.83,-281 767.83,-288"/>
</g>
<!-- eval/variables&#45;types.ts -->
<g id="node14" class="node">
<title>eval/variables&#45;types.ts</title>
<path fill="none" stroke="#cfffac" d="M1118.33,-336C1118.33,-336 983.67,-336 983.67,-336 979.83,-336 976,-332.17 976,-328.33 976,-328.33 976,-320.67 976,-320.67 976,-316.83 979.83,-313 983.67,-313 983.67,-313 1118.33,-313 1118.33,-313 1122.17,-313 1126,-316.83 1126,-320.67 1126,-320.67 1126,-328.33 1126,-328.33 1126,-332.17 1122.17,-336 1118.33,-336"/>
<text text-anchor="middle" x="1051" y="-320.8" font-family="Arial" font-size="14.00" fill="#cfffac">eval/variables&#45;types.ts</text>
</g>
<!-- eval/variables.ts&#45;&gt;eval/variables&#45;types.ts -->
<g id="edge36" class="edge">
<title>eval/variables.ts&#45;&gt;eval/variables&#45;types.ts</title>
<path fill="none" stroke="#757575" d="M724,-296.01C724,-305.87 724,-318.5 724,-318.5 724,-318.5 965.98,-318.5 965.98,-318.5"/>
<polygon fill="#757575" stroke="#757575" points="965.98,-322 975.98,-318.5 965.98,-315 965.98,-322"/>
</g>
<!-- parse/parser.ts&#45;&gt;core/arithmetic.ts -->
<g id="edge39" class="edge">
<title>parse/parser.ts&#45;&gt;core/arithmetic.ts</title>
<path fill="none" stroke="#757575" d="M912.33,-149.6C951.89,-149.6 999,-149.6 999,-149.6 999,-149.6 999,-111.09 999,-111.09"/>
<polygon fill="#757575" stroke="#757575" points="1002.5,-111.09 999,-101.09 995.5,-111.09 1002.5,-111.09"/>
</g>
<!-- parse/parser.ts&#45;&gt;core/error.ts -->
<g id="edge40" class="edge">
<title>parse/parser.ts&#45;&gt;core/error.ts</title>
<path fill="none" stroke="#757575" d="M912.24,-163.4C1006.98,-163.4 1195,-163.4 1195,-163.4 1195,-163.4 1195,-380.97 1195,-380.97"/>
<polygon fill="#757575" stroke="#757575" points="1191.5,-380.97 1195,-390.97 1198.5,-380.97 1191.5,-380.97"/>
</g>
<!-- parse/parser.ts&#45;&gt;core/result.ts -->
<g id="edge41" class="edge">
<title>parse/parser.ts&#45;&gt;core/result.ts</title>
<path fill="none" stroke="#757575" d="M912.05,-158.8C1015.02,-158.8 1232,-158.8 1232,-158.8 1232,-158.8 1232,-33.06 1232,-33.06"/>
<polygon fill="#757575" stroke="#757575" points="1235.5,-33.06 1232,-23.06 1228.5,-33.06 1235.5,-33.06"/>
</g>
<!-- parse/parser.ts&#45;&gt;utils/types.ts -->
<g id="edge42" class="edge">
<title>parse/parser.ts&#45;&gt;utils/types.ts</title>
<path fill="none" stroke="#757575" d="M912.23,-154.2C969.05,-154.2 1051,-154.2 1051,-154.2 1051,-154.2 1051,-152.07 1051,-152.07"/>
<polygon fill="#757575" stroke="#757575" points="1054.5,-152.07 1051,-142.07 1047.5,-152.07 1054.5,-152.07"/>
</g>
<!-- utils/types.ts&#45;&gt;core/error.ts -->
<g id="edge43" class="edge">
<title>utils/types.ts&#45;&gt;core/error.ts</title>
<path fill="none" stroke="#757575" d="M1096.71,-134.33C1141.16,-134.33 1202,-134.33 1202,-134.33 1202,-134.33 1202,-380.98 1202,-380.98"/>
<polygon fill="#757575" stroke="#757575" points="1198.5,-380.98 1202,-390.98 1205.5,-380.98 1198.5,-380.98"/>
</g>
<!-- utils/types.ts&#45;&gt;core/result.ts -->
<g id="edge44" class="edge">
<title>utils/types.ts&#45;&gt;core/result.ts</title>
<path fill="none" stroke="#757575" d="M1096.91,-126.67C1148.16,-126.67 1224,-126.67 1224,-126.67 1224,-126.67 1224,-33.39 1224,-33.39"/>
<polygon fill="#757575" stroke="#757575" points="1227.5,-33.39 1224,-23.39 1220.5,-33.39 1227.5,-33.39"/>
</g>
<!-- eval/ifelse.ts -->
<g id="node9" class="node">
<title>eval/ifelse.ts</title>
<path fill="none" stroke="#c6c5fe" d="M223.33,-266C223.33,-266 147.67,-266 147.67,-266 143.83,-266 140,-262.17 140,-258.33 140,-258.33 140,-250.67 140,-250.67 140,-246.83 143.83,-243 147.67,-243 147.67,-243 223.33,-243 223.33,-243 227.17,-243 231,-246.83 231,-250.67 231,-250.67 231,-258.33 231,-258.33 231,-262.17 227.17,-266 223.33,-266"/>
<text text-anchor="middle" x="185.5" y="-250.8" font-family="Arial" font-size="14.00" fill="#c6c5fe">eval/ifelse.ts</text>
</g>
<!-- eval/ifelse.ts&#45;&gt;core/error.ts -->
<g id="edge12" class="edge">
<title>eval/ifelse.ts&#45;&gt;core/error.ts</title>
<path fill="none" stroke="#757575" d="M231.14,-258.33C426.21,-258.33 1180,-258.33 1180,-258.33 1180,-258.33 1180,-380.7 1180,-380.7"/>
<polygon fill="#757575" stroke="#757575" points="1176.5,-380.7 1180,-390.7 1183.5,-380.7 1176.5,-380.7"/>
</g>
<!-- eval/ifelse.ts&#45;&gt;core/result.ts -->
<g id="edge13" class="edge">
<title>eval/ifelse.ts&#45;&gt;core/result.ts</title>
<path fill="none" stroke="#757575" d="M171,-242.87C171,-193.86 171,-6.57 171,-6.57 171,-6.57 1151.7,-6.57 1151.7,-6.57"/>
<polygon fill="#757575" stroke="#757575" points="1151.7,-10.07 1161.7,-6.57 1151.7,-3.07 1151.7,-10.07"/>
</g>
<!-- eval/ifelse.ts&#45;&gt;eval/ifelse&#45;branch.ts -->
<g id="edge14" class="edge">
<title>eval/ifelse.ts&#45;&gt;eval/ifelse&#45;branch.ts</title>
<path fill="none" stroke="#757575" d="M201,-242.76C201,-225.82 201,-196.5 201,-196.5 201,-196.5 256.67,-196.5 256.67,-196.5"/>
<polygon fill="#757575" stroke="#757575" points="256.67,-200 266.67,-196.5 256.67,-193 256.67,-200"/>
</g>
<!-- eval/ifelse.ts&#45;&gt;eval/ifelse&#45;helpers.ts -->
<g id="edge15" class="edge">
<title>eval/ifelse.ts&#45;&gt;eval/ifelse&#45;helpers.ts</title>
<path fill="none" stroke="#757575" d="M231.25,-250.67C322.18,-250.67 517,-250.67 517,-250.67 517,-250.67 517,-218.25 517,-218.25"/>
<polygon fill="#757575" stroke="#757575" points="520.5,-218.25 517,-208.25 513.5,-218.25 520.5,-218.25"/>
</g>
<!-- eval/ifelse.ts&#45;&gt;eval/variables.ts -->
<g id="edge16" class="edge">
<title>eval/ifelse.ts&#45;&gt;eval/variables.ts</title>
<path fill="none" stroke="#757575" d="M201,-266.33C201,-276.09 201,-288.33 201,-288.33 201,-288.33 618.97,-288.33 618.97,-288.33"/>
<polygon fill="#757575" stroke="#757575" points="618.97,-291.83 628.97,-288.33 618.97,-284.83 618.97,-291.83"/>
</g>
<!-- eval/intepret&#45;helpers.ts -->
<g id="node10" class="node">
<title>eval/intepret&#45;helpers.ts</title>
<path fill="none" stroke="#c6c5fe" d="M585.33,-364C585.33,-364 447.67,-364 447.67,-364 443.83,-364 440,-360.17 440,-356.33 440,-356.33 440,-348.67 440,-348.67 440,-344.83 443.83,-341 447.67,-341 447.67,-341 585.33,-341 585.33,-341 589.17,-341 593,-344.83 593,-348.67 593,-348.67 593,-356.33 593,-356.33 593,-360.17 589.17,-364 585.33,-364"/>
<text text-anchor="middle" x="516.5" y="-348.8" font-family="Arial" font-size="14.00" fill="#c6c5fe">eval/intepret&#45;helpers.ts</text>
</g>
<!-- eval/intepret&#45;helpers.ts&#45;&gt;core/error.ts -->
<g id="edge17" class="edge">
<title>eval/intepret&#45;helpers.ts&#45;&gt;core/error.ts</title>
<path fill="none" stroke="#757575" d="M593.3,-356.33C766.39,-356.33 1172,-356.33 1172,-356.33 1172,-356.33 1172,-380.85 1172,-380.85"/>
<polygon fill="#757575" stroke="#757575" points="1168.5,-380.85 1172,-390.85 1175.5,-380.85 1168.5,-380.85"/>
</g>
<!-- eval/intepret&#45;helpers.ts&#45;&gt;core/result.ts -->
<g id="edge18" class="edge">
<title>eval/intepret&#45;helpers.ts&#45;&gt;core/result.ts</title>
<path fill="none" stroke="#757575" d="M593.3,-352.5C780.85,-352.5 1247,-352.5 1247,-352.5 1247,-352.5 1247,-33.24 1247,-33.24"/>
<polygon fill="#757575" stroke="#757575" points="1250.5,-33.24 1247,-23.24 1243.5,-33.24 1250.5,-33.24"/>
</g>
<!-- eval/intepret&#45;helpers.ts&#45;&gt;eval/variables.ts -->
<g id="edge19" class="edge">
<title>eval/intepret&#45;helpers.ts&#45;&gt;eval/variables.ts</title>
<path fill="none" stroke="#757575" d="M593.07,-348.67C630.25,-348.67 667,-348.67 667,-348.67 667,-348.67 667,-306.27 667,-306.27"/>
<polygon fill="#757575" stroke="#757575" points="670.5,-306.27 667,-296.27 663.5,-306.27 670.5,-306.27"/>
</g>
<!-- eval/intepret&#45;helpers.ts&#45;&gt;parse/parser.ts -->
<g id="edge20" class="edge">
<title>eval/intepret&#45;helpers.ts&#45;&gt;parse/parser.ts</title>
<path fill="none" stroke="#757575" d="M593.23,-344.83C603.73,-344.83 611,-344.83 611,-344.83 611,-344.83 611,-158.8 611,-158.8 611,-158.8 795.8,-158.8 795.8,-158.8"/>
<polygon fill="#757575" stroke="#757575" points="795.8,-162.3 805.8,-158.8 795.8,-155.3 795.8,-162.3"/>
</g>
<!-- eval/intepret&#45;helpers.ts&#45;&gt;utils/validation.ts -->
<g id="edge21" class="edge">
<title>eval/intepret&#45;helpers.ts&#45;&gt;utils/validation.ts</title>
<path fill="none" stroke="#757575" d="M593.16,-360.17C688.83,-360.17 840,-360.17 840,-360.17 840,-360.17 840,-416.94 840,-416.94"/>
<polygon fill="#757575" stroke="#757575" points="836.5,-416.94 840,-426.94 843.5,-416.94 836.5,-416.94"/>
</g>
<!-- utils/validation.ts&#45;&gt;core/error.ts -->
<g id="edge45" class="edge">
<title>utils/validation.ts&#45;&gt;core/error.ts</title>
<path fill="none" stroke="#757575" d="M917.19,-442.33C1016.71,-442.33 1209,-442.33 1209,-442.33 1209,-442.33 1209,-424.24 1209,-424.24"/>
<polygon fill="#757575" stroke="#757575" points="1212.5,-424.24 1209,-414.24 1205.5,-424.24 1212.5,-424.24"/>
</g>
<!-- utils/validation.ts&#45;&gt;core/result.ts -->
<g id="edge46" class="edge">
<title>utils/validation.ts&#45;&gt;core/result.ts</title>
<path fill="none" stroke="#757575" d="M917.16,-434.67C938.71,-434.67 958,-434.67 958,-434.67 958,-434.67 958,-19.71 958,-19.71 958,-19.71 1151.79,-19.71 1151.79,-19.71"/>
<polygon fill="#757575" stroke="#757575" points="1151.79,-23.21 1161.79,-19.71 1151.79,-16.21 1151.79,-23.21"/>
</g>
<!-- eval/intepret.ts -->
<g id="node12" class="node">
<title>eval/intepret.ts</title>
<path fill="none" stroke="#c6c5fe" d="M96.33,-324C96.33,-324 7.67,-324 7.67,-324 3.83,-324 0,-320.17 0,-316.33 0,-316.33 0,-308.67 0,-308.67 0,-304.83 3.83,-301 7.67,-301 7.67,-301 96.33,-301 96.33,-301 100.17,-301 104,-304.83 104,-308.67 104,-308.67 104,-316.33 104,-316.33 104,-320.17 100.17,-324 96.33,-324"/>
<text text-anchor="middle" x="52" y="-308.8" font-family="Arial" font-size="14.00" fill="#c6c5fe">eval/intepret.ts</text>
</g>
<!-- eval/intepret.ts&#45;&gt;core/error.ts -->
<g id="edge22" class="edge">
<title>eval/intepret.ts&#45;&gt;core/error.ts</title>
<path fill="none" stroke="#757575" d="M35,-324.38C35,-350.26 35,-409.4 35,-409.4 35,-409.4 1154.41,-409.4 1154.41,-409.4"/>
<polygon fill="#757575" stroke="#757575" points="1154.41,-412.9 1164.41,-409.4 1154.41,-405.9 1154.41,-412.9"/>
</g>
<!-- eval/intepret.ts&#45;&gt;core/result.ts -->
<g id="edge23" class="edge">
<title>eval/intepret.ts&#45;&gt;core/result.ts</title>
<path fill="none" stroke="#757575" d="M35,-300.76C35,-244.27 35,-3.29 35,-3.29 35,-3.29 1151.89,-3.29 1151.89,-3.29"/>
<polygon fill="#757575" stroke="#757575" points="1151.89,-6.79 1161.89,-3.29 1151.89,0.21 1151.89,-6.79"/>
</g>
<!-- eval/intepret.ts&#45;&gt;eval/variables.ts -->
<g id="edge26" class="edge">
<title>eval/intepret.ts&#45;&gt;eval/variables.ts</title>
<path fill="none" stroke="#757575" d="M104.11,-309C249.33,-309 648,-309 648,-309 648,-309 648,-306.18 648,-306.18"/>
<polygon fill="#757575" stroke="#757575" points="651.5,-306.18 648,-296.18 644.5,-306.18 651.5,-306.18"/>
</g>
<!-- eval/intepret.ts&#45;&gt;parse/parser.ts -->
<g id="edge27" class="edge">
<title>eval/intepret.ts&#45;&gt;parse/parser.ts</title>
<path fill="none" stroke="#757575" d="M70,-300.78C70,-263.43 70,-149.6 70,-149.6 70,-149.6 795.7,-149.6 795.7,-149.6"/>
<polygon fill="#757575" stroke="#757575" points="795.7,-153.1 805.7,-149.6 795.7,-146.1 795.7,-153.1"/>
</g>
<!-- eval/intepret.ts&#45;&gt;eval/ifelse.ts -->
<g id="edge24" class="edge">
<title>eval/intepret.ts&#45;&gt;eval/ifelse.ts</title>
<path fill="none" stroke="#757575" d="M104.2,-305C136.17,-305 171,-305 171,-305 171,-305 171,-276.21 171,-276.21"/>
<polygon fill="#757575" stroke="#757575" points="174.5,-276.21 171,-266.21 167.5,-276.21 174.5,-276.21"/>
</g>
<!-- eval/intepret.ts&#45;&gt;eval/intepret&#45;helpers.ts -->
<g id="edge25" class="edge">
<title>eval/intepret.ts&#45;&gt;eval/intepret&#45;helpers.ts</title>
<path fill="none" stroke="#757575" d="M70,-324.28C70,-336.08 70,-352.5 70,-352.5 70,-352.5 430,-352.5 430,-352.5"/>
<polygon fill="#757575" stroke="#757575" points="430,-356 440,-352.5 430,-349 430,-356"/>
</g>
<!-- eval/intepret.ts&#45;&gt;utils/validation.ts -->
<g id="edge28" class="edge">
<title>eval/intepret.ts&#45;&gt;utils/validation.ts</title>
<path fill="none" stroke="#757575" d="M104.05,-321.25C285.47,-321.25 879,-321.25 879,-321.25 879,-321.25 879,-416.83 879,-416.83"/>
<polygon fill="#757575" stroke="#757575" points="875.5,-416.83 879,-426.83 882.5,-416.83 875.5,-416.83"/>
</g>
<!-- eval/variables&#45;helpers.ts&#45;&gt;core/error.ts -->
<g id="edge29" class="edge">
<title>eval/variables&#45;helpers.ts&#45;&gt;core/error.ts</title>
<path fill="none" stroke="#757575" d="M925,-296.39C925,-325.05 925,-395.6 925,-395.6 925,-395.6 1154.31,-395.6 1154.31,-395.6"/>
<polygon fill="#757575" stroke="#757575" points="1154.31,-399.1 1164.31,-395.6 1154.31,-392.1 1154.31,-399.1"/>
</g>
<!-- eval/variables&#45;helpers.ts&#45;&gt;core/result.ts -->
<g id="edge30" class="edge">
<title>eval/variables&#45;helpers.ts&#45;&gt;core/result.ts</title>
<path fill="none" stroke="#757575" d="M922,-272.98C922,-221.67 922,-16.43 922,-16.43 922,-16.43 1151.93,-16.43 1151.93,-16.43"/>
<polygon fill="#757575" stroke="#757575" points="1151.93,-19.93 1161.93,-16.43 1151.93,-12.93 1151.93,-19.93"/>
</g>
<!-- eval/variables&#45;helpers.ts&#45;&gt;utils/types.ts -->
<g id="edge32" class="edge">
<title>eval/variables&#45;helpers.ts&#45;&gt;utils/types.ts</title>
<path fill="none" stroke="#757575" d="M931,-272.72C931,-237.32 931,-134.33 931,-134.33 931,-134.33 995.29,-134.33 995.29,-134.33"/>
<polygon fill="#757575" stroke="#757575" points="995.29,-137.83 1005.29,-134.33 995.29,-130.83 995.29,-137.83"/>
</g>
<!-- eval/variables&#45;helpers.ts&#45;&gt;eval/variables&#45;types.ts -->
<g id="edge31" class="edge">
<title>eval/variables&#45;helpers.ts&#45;&gt;eval/variables&#45;types.ts</title>
<path fill="none" stroke="#757575" d="M933,-296.14C933,-305.02 933,-315.75 933,-315.75 933,-315.75 965.93,-315.75 965.93,-315.75"/>
<polygon fill="#757575" stroke="#757575" points="965.93,-319.25 975.93,-315.75 965.93,-312.25 965.93,-319.25"/>
</g>
</g>
</svg>
