<?xml version="1.0" encoding="UTF-8" standalone="no"?>
<!DOCTYPE svg PUBLIC "-//W3C//DTD SVG 1.1//EN"
 "http://www.w3.org/Graphics/SVG/1.1/DTD/svg11.dtd">
<!-- Generated by graphviz version 2.43.0 (0)
 -->
<!-- Title: G Pages: 1 -->
<svg width="175pt" height="62pt"
 viewBox="0.00 0.00 175.20 62.20" xmlns="http://www.w3.org/2000/svg" xmlns:xlink="http://www.w3.org/1999/xlink">
<g id="graph0" class="graph" transform="scale(1 1) rotate(0) translate(21.6 40.6)">
<title>G</title>
<polygon fill="#111111" stroke="transparent" points="-21.6,21.6 -21.6,-40.6 153.6,-40.6 153.6,21.6 -21.6,21.6"/>
<!-- intepret.ts -->
<g id="node1" class="node">
<title>intepret.ts</title>
<path fill="none" stroke="#cfffac" d="M53.67,-19C53.67,-19 6.33,-19 6.33,-19 3.17,-19 0,-15.83 0,-12.67 0,-12.67 0,-6.33 0,-6.33 0,-3.17 3.17,0 6.33,0 6.33,0 53.67,0 53.67,0 56.83,0 60,-3.17 60,-6.33 60,-6.33 60,-12.67 60,-12.67 60,-15.83 56.83,-19 53.67,-19"/>
<text text-anchor="middle" x="30" y="-7" font-family="Arial" font-size="10.00" fill="#cfffac">intepret.ts</text>
</g>
<!-- result.ts -->
<g id="node2" class="node">
<title>result.ts</title>
<path fill="none" stroke="#cfffac" d="M125.67,-19C125.67,-19 84.33,-19 84.33,-19 81.17,-19 78,-15.83 78,-12.67 78,-12.67 78,-6.33 78,-6.33 78,-3.17 81.17,0 84.33,0 84.33,0 125.67,0 125.67,0 128.83,0 132,-3.17 132,-6.33 132,-6.33 132,-12.67 132,-12.67 132,-15.83 128.83,-19 125.67,-19"/>
<text text-anchor="middle" x="105" y="-7" font-family="Arial" font-size="10.00" fill="#cfffac">result.ts</text>
</g>
</g>
</svg>
