<?xml version="1.0" encoding="UTF-8" standalone="no"?>
<!DOCTYPE svg PUBLIC "-//W3C//DTD SVG 1.1//EN"
 "http://www.w3.org/Graphics/SVG/1.1/DTD/svg11.dtd">
<!-- Generated by graphviz version 2.43.0 (0)
 -->
<!-- Title: G Pages: 1 -->
<svg width="581pt" height="337pt"
 viewBox="0.00 0.00 581.20 337.20" xmlns="http://www.w3.org/2000/svg" xmlns:xlink="http://www.w3.org/1999/xlink">
<g id="graph0" class="graph" transform="scale(1 1) rotate(0) translate(21.6 315.6)">
<title>G</title>
<polygon fill="#111111" stroke="transparent" points="-21.6,21.6 -21.6,-315.6 559.6,-315.6 559.6,21.6 -21.6,21.6"/>
<!-- core/arithmetic.ts -->
<g id="node1" class="node">
<title>core/arithmetic.ts</title>
<path fill="none" stroke="#c6c5fe" d="M215.67,-74C215.67,-74 136.33,-74 136.33,-74 133.17,-74 130,-70.83 130,-67.67 130,-67.67 130,-61.33 130,-61.33 130,-58.17 133.17,-55 136.33,-55 136.33,-55 215.67,-55 215.67,-55 218.83,-55 222,-58.17 222,-61.33 222,-61.33 222,-67.67 222,-67.67 222,-70.83 218.83,-74 215.67,-74"/>
<text text-anchor="middle" x="176" y="-62" font-family="Arial" font-size="10.00" fill="#c6c5fe">core/arithmetic.ts</text>
</g>
<!-- core/error.ts -->
<g id="node2" class="node">
<title>core/error.ts</title>
<path fill="none" stroke="#cfffac" d="M480.17,-19C480.17,-19 423.83,-19 423.83,-19 420.67,-19 417.5,-15.83 417.5,-12.67 417.5,-12.67 417.5,-6.33 417.5,-6.33 417.5,-3.17 420.67,0 423.83,0 423.83,0 480.17,0 480.17,0 483.33,0 486.5,-3.17 486.5,-6.33 486.5,-6.33 486.5,-12.67 486.5,-12.67 486.5,-15.83 483.33,-19 480.17,-19"/>
<text text-anchor="middle" x="452" y="-7" font-family="Arial" font-size="10.00" fill="#cfffac">core/error.ts</text>
</g>
<!-- core/arithmetic.ts&#45;&gt;core/error.ts -->
<g id="edge1" class="edge">
<title>core/arithmetic.ts&#45;&gt;core/error.ts</title>
<path fill="none" stroke="#757575" d="M191.33,-54.96C191.33,-40.57 191.33,-15 191.33,-15 191.33,-15 407.39,-15 407.39,-15"/>
<polygon fill="#757575" stroke="#757575" points="407.39,-18.5 417.39,-15 407.39,-11.5 407.39,-18.5"/>
</g>
<!-- core/result.ts -->
<g id="node3" class="node">
<title>core/result.ts</title>
<path fill="none" stroke="#cfffac" d="M67.67,-19C67.67,-19 6.33,-19 6.33,-19 3.17,-19 0,-15.83 0,-12.67 0,-12.67 0,-6.33 0,-6.33 0,-3.17 3.17,0 6.33,0 6.33,0 67.67,0 67.67,0 70.83,0 74,-3.17 74,-6.33 74,-6.33 74,-12.67 74,-12.67 74,-15.83 70.83,-19 67.67,-19"/>
<text text-anchor="middle" x="37" y="-7" font-family="Arial" font-size="10.00" fill="#cfffac">core/result.ts</text>
</g>
<!-- core/arithmetic.ts&#45;&gt;core/result.ts -->
<g id="edge2" class="edge">
<title>core/arithmetic.ts&#45;&gt;core/result.ts</title>
<path fill="none" stroke="#757575" d="M160.67,-54.69C160.67,-39.24 160.67,-11 160.67,-11 160.67,-11 84.1,-11 84.1,-11"/>
<polygon fill="#757575" stroke="#757575" points="84.1,-7.5 74.1,-11 84.1,-14.5 84.1,-7.5"/>
</g>
<!-- eval/ifelse&#45;helpers.ts -->
<g id="node4" class="node">
<title>eval/ifelse&#45;helpers.ts</title>
<path fill="none" stroke="#c6c5fe" d="M341.17,-74C341.17,-74 246.83,-74 246.83,-74 243.67,-74 240.5,-70.83 240.5,-67.67 240.5,-67.67 240.5,-61.33 240.5,-61.33 240.5,-58.17 243.67,-55 246.83,-55 246.83,-55 341.17,-55 341.17,-55 344.33,-55 347.5,-58.17 347.5,-61.33 347.5,-61.33 347.5,-67.67 347.5,-67.67 347.5,-70.83 344.33,-74 341.17,-74"/>
<text text-anchor="middle" x="294" y="-62" font-family="Arial" font-size="10.00" fill="#c6c5fe">eval/ifelse&#45;helpers.ts</text>
</g>
<!-- eval/ifelse&#45;helpers.ts&#45;&gt;core/error.ts -->
<g id="edge3" class="edge">
<title>eval/ifelse&#45;helpers.ts&#45;&gt;core/error.ts</title>
<path fill="none" stroke="#757575" d="M347.85,-64C382.79,-64 421.86,-64 421.86,-64 421.86,-64 421.86,-29.24 421.86,-29.24"/>
<polygon fill="#757575" stroke="#757575" points="425.36,-29.24 421.86,-19.24 418.36,-29.24 425.36,-29.24"/>
</g>
<!-- eval/ifelse&#45;helpers.ts&#45;&gt;core/result.ts -->
<g id="edge4" class="edge">
<title>eval/ifelse&#45;helpers.ts&#45;&gt;core/result.ts</title>
<path fill="none" stroke="#757575" d="M294,-54.84C294,-38.22 294,-6 294,-6 294,-6 84.1,-6 84.1,-6"/>
<polygon fill="#757575" stroke="#757575" points="84.1,-2.5 74.1,-6 84.1,-9.5 84.1,-2.5"/>
</g>
<!-- eval/ifelse.ts -->
<g id="node5" class="node">
<title>eval/ifelse.ts</title>
<path fill="none" stroke="#c6c5fe" d="M304.67,-239C304.67,-239 245.33,-239 245.33,-239 242.17,-239 239,-235.83 239,-232.67 239,-232.67 239,-226.33 239,-226.33 239,-223.17 242.17,-220 245.33,-220 245.33,-220 304.67,-220 304.67,-220 307.83,-220 311,-223.17 311,-226.33 311,-226.33 311,-232.67 311,-232.67 311,-235.83 307.83,-239 304.67,-239"/>
<text text-anchor="middle" x="275" y="-227" font-family="Arial" font-size="10.00" fill="#c6c5fe">eval/ifelse.ts</text>
</g>
<!-- eval/ifelse.ts&#45;&gt;core/error.ts -->
<g id="edge5" class="edge">
<title>eval/ifelse.ts&#45;&gt;core/error.ts</title>
<path fill="none" stroke="#757575" d="M293.38,-219.96C293.38,-205.57 293.38,-180 293.38,-180 293.38,-180 434.93,-180 434.93,-180 434.93,-180 434.93,-29.16 434.93,-29.16"/>
<polygon fill="#757575" stroke="#757575" points="438.43,-29.16 434.93,-19.16 431.43,-29.16 438.43,-29.16"/>
</g>
<!-- eval/ifelse.ts&#45;&gt;core/result.ts -->
<g id="edge6" class="edge">
<title>eval/ifelse.ts&#45;&gt;core/result.ts</title>
<path fill="none" stroke="#757575" d="M238.72,-229C234.69,-229 232,-229 232,-229 232,-229 232,-7 232,-7 232,-7 84.14,-7 84.14,-7"/>
<polygon fill="#757575" stroke="#757575" points="84.14,-3.5 74.14,-7 84.14,-10.5 84.14,-3.5"/>
</g>
<!-- eval/ifelse.ts&#45;&gt;eval/ifelse&#45;helpers.ts -->
<g id="edge7" class="edge">
<title>eval/ifelse.ts&#45;&gt;eval/ifelse&#45;helpers.ts</title>
<path fill="none" stroke="#757575" d="M275.75,-219.67C275.75,-219.67 275.75,-84.07 275.75,-84.07"/>
<polygon fill="#757575" stroke="#757575" points="279.25,-84.07 275.75,-74.07 272.25,-84.07 279.25,-84.07"/>
</g>
<!-- eval/variables.ts -->
<g id="node6" class="node">
<title>eval/variables.ts</title>
<path fill="none" stroke="#c6c5fe" d="M215.67,-184C215.67,-184 140.33,-184 140.33,-184 137.17,-184 134,-180.83 134,-177.67 134,-177.67 134,-171.33 134,-171.33 134,-168.17 137.17,-165 140.33,-165 140.33,-165 215.67,-165 215.67,-165 218.83,-165 222,-168.17 222,-171.33 222,-171.33 222,-177.67 222,-177.67 222,-180.83 218.83,-184 215.67,-184"/>
<text text-anchor="middle" x="178" y="-172" font-family="Arial" font-size="10.00" fill="#c6c5fe">eval/variables.ts</text>
</g>
<!-- eval/ifelse.ts&#45;&gt;eval/variables.ts -->
<g id="edge8" class="edge">
<title>eval/ifelse.ts&#45;&gt;eval/variables.ts</title>
<path fill="none" stroke="#757575" d="M258.12,-219.69C258.12,-204.24 258.12,-176 258.12,-176 258.12,-176 232.28,-176 232.28,-176"/>
<polygon fill="#757575" stroke="#757575" points="232.28,-172.5 222.28,-176 232.28,-179.5 232.28,-172.5"/>
</g>
<!-- eval/variables.ts&#45;&gt;core/error.ts -->
<g id="edge21" class="edge">
<title>eval/variables.ts&#45;&gt;core/error.ts</title>
<path fill="none" stroke="#757575" d="M222.28,-168C294.72,-168 430.57,-168 430.57,-168 430.57,-168 430.57,-29.41 430.57,-29.41"/>
<polygon fill="#757575" stroke="#757575" points="434.07,-29.41 430.57,-19.41 427.07,-29.41 434.07,-29.41"/>
</g>
<!-- eval/variables.ts&#45;&gt;core/result.ts -->
<g id="edge22" class="edge">
<title>eval/variables.ts&#45;&gt;core/result.ts</title>
<path fill="none" stroke="#757575" d="M133.79,-171C117.07,-171 102,-171 102,-171 102,-171 102,-14 102,-14 102,-14 84.06,-14 84.06,-14"/>
<polygon fill="#757575" stroke="#757575" points="84.06,-10.5 74.06,-14 84.06,-17.5 84.06,-10.5"/>
</g>
<!-- parse/parser.ts -->
<g id="node8" class="node">
<title>parse/parser.ts</title>
<path fill="none" stroke="#c6c5fe" d="M210.67,-129C210.67,-129 141.33,-129 141.33,-129 138.17,-129 135,-125.83 135,-122.67 135,-122.67 135,-116.33 135,-116.33 135,-113.17 138.17,-110 141.33,-110 141.33,-110 210.67,-110 210.67,-110 213.83,-110 217,-113.17 217,-116.33 217,-116.33 217,-122.67 217,-122.67 217,-125.83 213.83,-129 210.67,-129"/>
<text text-anchor="middle" x="176" y="-117" font-family="Arial" font-size="10.00" fill="#c6c5fe">parse/parser.ts</text>
</g>
<!-- eval/variables.ts&#45;&gt;parse/parser.ts -->
<g id="edge23" class="edge">
<title>eval/variables.ts&#45;&gt;parse/parser.ts</title>
<path fill="none" stroke="#757575" d="M176,-164.92C176,-164.92 176,-139.34 176,-139.34"/>
<polygon fill="#757575" stroke="#757575" points="179.5,-139.34 176,-129.34 172.5,-139.34 179.5,-139.34"/>
</g>
<!-- utils/types.ts -->
<g id="node11" class="node">
<title>utils/types.ts</title>
<path fill="none" stroke="#c6c5fe" d="M67.17,-74C67.17,-74 6.83,-74 6.83,-74 3.67,-74 0.5,-70.83 0.5,-67.67 0.5,-67.67 0.5,-61.33 0.5,-61.33 0.5,-58.17 3.67,-55 6.83,-55 6.83,-55 67.17,-55 67.17,-55 70.33,-55 73.5,-58.17 73.5,-61.33 73.5,-61.33 73.5,-67.67 73.5,-67.67 73.5,-70.83 70.33,-74 67.17,-74"/>
<text text-anchor="middle" x="37" y="-62" font-family="Arial" font-size="10.00" fill="#c6c5fe">utils/types.ts</text>
</g>
<!-- eval/variables.ts&#45;&gt;utils/types.ts -->
<g id="edge24" class="edge">
<title>eval/variables.ts&#45;&gt;utils/types.ts</title>
<path fill="none" stroke="#757575" d="M133.7,-177C88.46,-177 24.83,-177 24.83,-177 24.83,-177 24.83,-84.09 24.83,-84.09"/>
<polygon fill="#757575" stroke="#757575" points="28.33,-84.09 24.83,-74.09 21.33,-84.09 28.33,-84.09"/>
</g>
<!-- eval/intepret&#45;helpers.ts -->
<g id="node7" class="node">
<title>eval/intepret&#45;helpers.ts</title>
<path fill="none" stroke="#c6c5fe" d="M444.67,-239C444.67,-239 341.33,-239 341.33,-239 338.17,-239 335,-235.83 335,-232.67 335,-232.67 335,-226.33 335,-226.33 335,-223.17 338.17,-220 341.33,-220 341.33,-220 444.67,-220 444.67,-220 447.83,-220 451,-223.17 451,-226.33 451,-226.33 451,-232.67 451,-232.67 451,-235.83 447.83,-239 444.67,-239"/>
<text text-anchor="middle" x="393" y="-227" font-family="Arial" font-size="10.00" fill="#c6c5fe">eval/intepret&#45;helpers.ts</text>
</g>
<!-- eval/intepret&#45;helpers.ts&#45;&gt;core/error.ts -->
<g id="edge9" class="edge">
<title>eval/intepret&#45;helpers.ts&#45;&gt;core/error.ts</title>
<path fill="none" stroke="#757575" d="M439.29,-219.76C439.29,-219.76 439.29,-29.12 439.29,-29.12"/>
<polygon fill="#757575" stroke="#757575" points="442.79,-29.12 439.29,-19.12 435.79,-29.12 442.79,-29.12"/>
</g>
<!-- eval/intepret&#45;helpers.ts&#45;&gt;core/result.ts -->
<g id="edge10" class="edge">
<title>eval/intepret&#45;helpers.ts&#45;&gt;core/result.ts</title>
<path fill="none" stroke="#757575" d="M370.83,-219.77C370.83,-176.41 370.83,-3 370.83,-3 370.83,-3 84,-3 84,-3"/>
<polygon fill="#757575" stroke="#757575" points="84,0.5 74,-3 84,-6.5 84,0.5"/>
</g>
<!-- eval/intepret&#45;helpers.ts&#45;&gt;eval/variables.ts -->
<g id="edge11" class="edge">
<title>eval/intepret&#45;helpers.ts&#45;&gt;eval/variables.ts</title>
<path fill="none" stroke="#757575" d="M339.17,-219.75C339.17,-203.34 339.17,-172 339.17,-172 339.17,-172 232.04,-172 232.04,-172"/>
<polygon fill="#757575" stroke="#757575" points="232.04,-168.5 222.04,-172 232.04,-175.5 232.04,-168.5"/>
</g>
<!-- eval/intepret&#45;helpers.ts&#45;&gt;parse/parser.ts -->
<g id="edge12" class="edge">
<title>eval/intepret&#45;helpers.ts&#45;&gt;parse/parser.ts</title>
<path fill="none" stroke="#757575" d="M343.33,-219.69C343.33,-192.65 343.33,-119 343.33,-119 343.33,-119 227.36,-119 227.36,-119"/>
<polygon fill="#757575" stroke="#757575" points="227.36,-115.5 217.36,-119 227.36,-122.5 227.36,-115.5"/>
</g>
<!-- utils/validation.ts -->
<g id="node9" class="node">
<title>utils/validation.ts</title>
<path fill="none" stroke="#c6c5fe" d="M531.67,-129C531.67,-129 454.33,-129 454.33,-129 451.17,-129 448,-125.83 448,-122.67 448,-122.67 448,-116.33 448,-116.33 448,-113.17 451.17,-110 454.33,-110 454.33,-110 531.67,-110 531.67,-110 534.83,-110 538,-113.17 538,-116.33 538,-116.33 538,-122.67 538,-122.67 538,-125.83 534.83,-129 531.67,-129"/>
<text text-anchor="middle" x="493" y="-117" font-family="Arial" font-size="10.00" fill="#c6c5fe">utils/validation.ts</text>
</g>
<!-- eval/intepret&#45;helpers.ts&#45;&gt;utils/validation.ts -->
<g id="edge13" class="edge">
<title>eval/intepret&#45;helpers.ts&#45;&gt;utils/validation.ts</title>
<path fill="none" stroke="#757575" d="M443.64,-219.97C443.64,-192.14 443.64,-113 443.64,-113 443.64,-113 444.06,-113 444.06,-113"/>
<polygon fill="#757575" stroke="#757575" points="437.85,-116.5 447.85,-113 437.85,-109.5 437.85,-116.5"/>
</g>
<!-- parse/parser.ts&#45;&gt;core/arithmetic.ts -->
<g id="edge25" class="edge">
<title>parse/parser.ts&#45;&gt;core/arithmetic.ts</title>
<path fill="none" stroke="#757575" d="M176,-109.92C176,-109.92 176,-84.34 176,-84.34"/>
<polygon fill="#757575" stroke="#757575" points="179.5,-84.34 176,-74.34 172.5,-84.34 179.5,-84.34"/>
</g>
<!-- parse/parser.ts&#45;&gt;core/error.ts -->
<g id="edge26" class="edge">
<title>parse/parser.ts&#45;&gt;core/error.ts</title>
<path fill="none" stroke="#757575" d="M217.04,-116C288.02,-116 426.21,-116 426.21,-116 426.21,-116 426.21,-29.33 426.21,-29.33"/>
<polygon fill="#757575" stroke="#757575" points="429.71,-29.33 426.21,-19.33 422.71,-29.33 429.71,-29.33"/>
</g>
<!-- parse/parser.ts&#45;&gt;core/result.ts -->
<g id="edge27" class="edge">
<title>parse/parser.ts&#45;&gt;core/result.ts</title>
<path fill="none" stroke="#757575" d="M134.98,-116C124.44,-116 116,-116 116,-116 116,-116 116,-12 116,-12 116,-12 84.19,-12 84.19,-12"/>
<polygon fill="#757575" stroke="#757575" points="84.19,-8.5 74.19,-12 84.19,-15.5 84.19,-8.5"/>
</g>
<!-- parse/parser.ts&#45;&gt;utils/types.ts -->
<g id="edge28" class="edge">
<title>parse/parser.ts&#45;&gt;utils/types.ts</title>
<path fill="none" stroke="#757575" d="M134.82,-122C97.79,-122 49.17,-122 49.17,-122 49.17,-122 49.17,-84.25 49.17,-84.25"/>
<polygon fill="#757575" stroke="#757575" points="52.67,-84.25 49.17,-74.25 45.67,-84.25 52.67,-84.25"/>
</g>
<!-- utils/validation.ts&#45;&gt;core/error.ts -->
<g id="edge31" class="edge">
<title>utils/validation.ts&#45;&gt;core/error.ts</title>
<path fill="none" stroke="#757575" d="M467.25,-109.74C467.25,-109.74 467.25,-29.08 467.25,-29.08"/>
<polygon fill="#757575" stroke="#757575" points="470.75,-29.08 467.25,-19.08 463.75,-29.08 470.75,-29.08"/>
</g>
<!-- utils/validation.ts&#45;&gt;core/result.ts -->
<g id="edge32" class="edge">
<title>utils/validation.ts&#45;&gt;core/result.ts</title>
<path fill="none" stroke="#757575" d="M447.92,-125C421.86,-125 394.17,-125 394.17,-125 394.17,-125 394.17,-1 394.17,-1 394.17,-1 84.21,-1 84.21,-1"/>
<polygon fill="#757575" stroke="#757575" points="84.21,2.5 74.21,-1 84.21,-4.5 84.21,2.5"/>
</g>
<!-- eval/intepret.ts -->
<g id="node10" class="node">
<title>eval/intepret.ts</title>
<path fill="none" stroke="#c6c5fe" d="M309.17,-294C309.17,-294 240.83,-294 240.83,-294 237.67,-294 234.5,-290.83 234.5,-287.67 234.5,-287.67 234.5,-281.33 234.5,-281.33 234.5,-278.17 237.67,-275 240.83,-275 240.83,-275 309.17,-275 309.17,-275 312.33,-275 315.5,-278.17 315.5,-281.33 315.5,-281.33 315.5,-287.67 315.5,-287.67 315.5,-290.83 312.33,-294 309.17,-294"/>
<text text-anchor="middle" x="275" y="-282" font-family="Arial" font-size="10.00" fill="#c6c5fe">eval/intepret.ts</text>
</g>
<!-- eval/intepret.ts&#45;&gt;core/error.ts -->
<g id="edge14" class="edge">
<title>eval/intepret.ts&#45;&gt;core/error.ts</title>
<path fill="none" stroke="#757575" d="M234.37,-282C231.38,-282 229.5,-282 229.5,-282 229.5,-282 229.5,-17 229.5,-17 229.5,-17 407.23,-17 407.23,-17"/>
<polygon fill="#757575" stroke="#757575" points="407.23,-20.5 417.23,-17 407.23,-13.5 407.23,-20.5"/>
</g>
<!-- eval/intepret.ts&#45;&gt;core/result.ts -->
<g id="edge15" class="edge">
<title>eval/intepret.ts&#45;&gt;core/result.ts</title>
<path fill="none" stroke="#757575" d="M234.08,-286C229.82,-286 227,-286 227,-286 227,-286 227,-9 227,-9 227,-9 84.08,-9 84.08,-9"/>
<polygon fill="#757575" stroke="#757575" points="84.08,-5.5 74.08,-9 84.08,-12.5 84.08,-5.5"/>
</g>
<!-- eval/intepret.ts&#45;&gt;eval/ifelse.ts -->
<g id="edge16" class="edge">
<title>eval/intepret.ts&#45;&gt;eval/ifelse.ts</title>
<path fill="none" stroke="#757575" d="M275,-274.92C275,-274.92 275,-249.34 275,-249.34"/>
<polygon fill="#757575" stroke="#757575" points="278.5,-249.34 275,-239.34 271.5,-249.34 278.5,-249.34"/>
</g>
<!-- eval/intepret.ts&#45;&gt;eval/variables.ts -->
<g id="edge18" class="edge">
<title>eval/intepret.ts&#45;&gt;eval/variables.ts</title>
<path fill="none" stroke="#757575" d="M234.43,-278C207.84,-278 178,-278 178,-278 178,-278 178,-194.05 178,-194.05"/>
<polygon fill="#757575" stroke="#757575" points="181.5,-194.05 178,-184.05 174.5,-194.05 181.5,-194.05"/>
</g>
<!-- eval/intepret.ts&#45;&gt;eval/intepret&#45;helpers.ts -->
<g id="edge17" class="edge">
<title>eval/intepret.ts&#45;&gt;eval/intepret&#45;helpers.ts</title>
<path fill="none" stroke="#757575" d="M315.61,-281C349.74,-281 393,-281 393,-281 393,-281 393,-249.43 393,-249.43"/>
<polygon fill="#757575" stroke="#757575" points="396.5,-249.43 393,-239.43 389.5,-249.43 396.5,-249.43"/>
</g>
<!-- eval/intepret.ts&#45;&gt;parse/parser.ts -->
<g id="edge19" class="edge">
<title>eval/intepret.ts&#45;&gt;parse/parser.ts</title>
<path fill="none" stroke="#757575" d="M234.24,-290C228.49,-290 224.5,-290 224.5,-290 224.5,-290 224.5,-122 224.5,-122 224.5,-122 223.78,-122 223.78,-122"/>
<polygon fill="#757575" stroke="#757575" points="227.34,-118.5 217.34,-122 227.34,-125.5 227.34,-118.5"/>
</g>
<!-- eval/intepret.ts&#45;&gt;utils/validation.ts -->
<g id="edge20" class="edge">
<title>eval/intepret.ts&#45;&gt;utils/validation.ts</title>
<path fill="none" stroke="#757575" d="M315.52,-287C378.94,-287 494.5,-287 494.5,-287 494.5,-287 494.5,-139.48 494.5,-139.48"/>
<polygon fill="#757575" stroke="#757575" points="498,-139.48 494.5,-129.48 491,-139.48 498,-139.48"/>
</g>
<!-- utils/types.ts&#45;&gt;core/error.ts -->
<g id="edge29" class="edge">
<title>utils/types.ts&#45;&gt;core/error.ts</title>
<path fill="none" stroke="#757575" d="M73.52,-64C81.7,-64 88,-64 88,-64 88,-64 88,-4 88,-4 88,-4 407.43,-4 407.43,-4"/>
<polygon fill="#757575" stroke="#757575" points="407.43,-7.5 417.43,-4 407.43,-0.5 407.43,-7.5"/>
</g>
<!-- utils/types.ts&#45;&gt;core/result.ts -->
<g id="edge30" class="edge">
<title>utils/types.ts&#45;&gt;core/result.ts</title>
<path fill="none" stroke="#757575" d="M37,-54.92C37,-54.92 37,-29.34 37,-29.34"/>
<polygon fill="#757575" stroke="#757575" points="40.5,-29.34 37,-19.34 33.5,-29.34 40.5,-29.34"/>
</g>
</g>
</svg>
