<?xml version="1.0" encoding="UTF-8" standalone="no"?>
<!DOCTYPE svg PUBLIC "-//W3C//DTD SVG 1.1//EN"
 "http://www.w3.org/Graphics/SVG/1.1/DTD/svg11.dtd">
<!-- Generated by graphviz version 2.43.0 (0)
 -->
<!-- Title: G Pages: 1 -->
<svg width="1202pt" height="361pt"
 viewBox="0.00 0.00 1201.70 361.20" xmlns="http://www.w3.org/2000/svg" xmlns:xlink="http://www.w3.org/1999/xlink">
<g id="graph0" class="graph" transform="scale(1 1) rotate(0) translate(21.6 339.6)">
<title>G</title>
<polygon fill="#111111" stroke="transparent" points="-21.6,21.6 -21.6,-339.6 1180.1,-339.6 1180.1,21.6 -21.6,21.6"/>
<!-- src/app.ts -->
<g id="node1" class="node">
<title>src/app.ts</title>
<path fill="none" stroke="#c6c5fe" d="M621.83,-259C621.83,-259 562.17,-259 562.17,-259 558.33,-259 554.5,-255.17 554.5,-251.33 554.5,-251.33 554.5,-243.67 554.5,-243.67 554.5,-239.83 558.33,-236 562.17,-236 562.17,-236 621.83,-236 621.83,-236 625.67,-236 629.5,-239.83 629.5,-243.67 629.5,-243.67 629.5,-251.33 629.5,-251.33 629.5,-255.17 625.67,-259 621.83,-259"/>
<text text-anchor="middle" x="592" y="-243.8" font-family="Arial" font-size="14.00" fill="#c6c5fe">src/app.ts</text>
</g>
<!-- src/expressions/binary&#45;operation.ts -->
<g id="node2" class="node">
<title>src/expressions/binary&#45;operation.ts</title>
<path fill="none" stroke="#c6c5fe" d="M286.33,-200C286.33,-200 75.67,-200 75.67,-200 71.83,-200 68,-196.17 68,-192.33 68,-192.33 68,-184.67 68,-184.67 68,-180.83 71.83,-177 75.67,-177 75.67,-177 286.33,-177 286.33,-177 290.17,-177 294,-180.83 294,-184.67 294,-184.67 294,-192.33 294,-192.33 294,-196.17 290.17,-200 286.33,-200"/>
<text text-anchor="middle" x="181" y="-184.8" font-family="Arial" font-size="14.00" fill="#c6c5fe">src/expressions/binary&#45;operation.ts</text>
</g>
<!-- src/app.ts&#45;&gt;src/expressions/binary&#45;operation.ts -->
<g id="edge1" class="edge">
<title>src/app.ts&#45;&gt;src/expressions/binary&#45;operation.ts</title>
<path fill="none" stroke="#757575" d="M554.44,-254C452.98,-254 181,-254 181,-254 181,-254 181,-210.21 181,-210.21"/>
<polygon fill="#757575" stroke="#757575" points="184.5,-210.21 181,-200.21 177.5,-210.21 184.5,-210.21"/>
</g>
<!-- src/expressions/grouped&#45;expressions.ts -->
<g id="node3" class="node">
<title>src/expressions/grouped&#45;expressions.ts</title>
<path fill="none" stroke="#c6c5fe" d="M634.33,-200C634.33,-200 395.67,-200 395.67,-200 391.83,-200 388,-196.17 388,-192.33 388,-192.33 388,-184.67 388,-184.67 388,-180.83 391.83,-177 395.67,-177 395.67,-177 634.33,-177 634.33,-177 638.17,-177 642,-180.83 642,-184.67 642,-184.67 642,-192.33 642,-192.33 642,-196.17 638.17,-200 634.33,-200"/>
<text text-anchor="middle" x="515" y="-184.8" font-family="Arial" font-size="14.00" fill="#c6c5fe">src/expressions/grouped&#45;expressions.ts</text>
</g>
<!-- src/app.ts&#45;&gt;src/expressions/grouped&#45;expressions.ts -->
<g id="edge2" class="edge">
<title>src/app.ts&#45;&gt;src/expressions/grouped&#45;expressions.ts</title>
<path fill="none" stroke="#757575" d="M592,-235.84C592,-235.84 592,-210.13 592,-210.13"/>
<polygon fill="#757575" stroke="#757575" points="595.5,-210.13 592,-200.13 588.5,-210.13 595.5,-210.13"/>
</g>
<!-- src/expressions/handlers.ts -->
<g id="node4" class="node">
<title>src/expressions/handlers.ts</title>
<path fill="none" stroke="#cfffac" d="M706.33,-82C706.33,-82 541.67,-82 541.67,-82 537.83,-82 534,-78.17 534,-74.33 534,-74.33 534,-66.67 534,-66.67 534,-62.83 537.83,-59 541.67,-59 541.67,-59 706.33,-59 706.33,-59 710.17,-59 714,-62.83 714,-66.67 714,-66.67 714,-74.33 714,-74.33 714,-78.17 710.17,-82 706.33,-82"/>
<text text-anchor="middle" x="624" y="-66.8" font-family="Arial" font-size="14.00" fill="#cfffac">src/expressions/handlers.ts</text>
</g>
<!-- src/app.ts&#45;&gt;src/expressions/handlers.ts -->
<g id="edge3" class="edge">
<title>src/app.ts&#45;&gt;src/expressions/handlers.ts</title>
<path fill="none" stroke="#757575" d="M629.91,-243C647.79,-243 665.25,-243 665.25,-243 665.25,-243 665.25,-92.09 665.25,-92.09"/>
<polygon fill="#757575" stroke="#757575" points="668.75,-92.09 665.25,-82.09 661.75,-92.09 668.75,-92.09"/>
</g>
<!-- src/loops/for.ts -->
<g id="node5" class="node">
<title>src/loops/for.ts</title>
<path fill="none" stroke="#c6c5fe" d="M794.33,-200C794.33,-200 705.67,-200 705.67,-200 701.83,-200 698,-196.17 698,-192.33 698,-192.33 698,-184.67 698,-184.67 698,-180.83 701.83,-177 705.67,-177 705.67,-177 794.33,-177 794.33,-177 798.17,-177 802,-180.83 802,-184.67 802,-184.67 802,-192.33 802,-192.33 802,-196.17 798.17,-200 794.33,-200"/>
<text text-anchor="middle" x="750" y="-184.8" font-family="Arial" font-size="14.00" fill="#c6c5fe">src/loops/for.ts</text>
</g>
<!-- src/app.ts&#45;&gt;src/loops/for.ts -->
<g id="edge4" class="edge">
<title>src/app.ts&#45;&gt;src/loops/for.ts</title>
<path fill="none" stroke="#757575" d="M629.84,-247C676.59,-247 750,-247 750,-247 750,-247 750,-210.06 750,-210.06"/>
<polygon fill="#757575" stroke="#757575" points="753.5,-210.06 750,-200.06 746.5,-210.06 753.5,-210.06"/>
</g>
<!-- src/loops/loop.ts -->
<g id="node6" class="node">
<title>src/loops/loop.ts</title>
<path fill="none" stroke="#cfffac" d="M648.33,-141C648.33,-141 549.67,-141 549.67,-141 545.83,-141 542,-137.17 542,-133.33 542,-133.33 542,-125.67 542,-125.67 542,-121.83 545.83,-118 549.67,-118 549.67,-118 648.33,-118 648.33,-118 652.17,-118 656,-121.83 656,-125.67 656,-125.67 656,-133.33 656,-133.33 656,-137.17 652.17,-141 648.33,-141"/>
<text text-anchor="middle" x="599" y="-125.8" font-family="Arial" font-size="14.00" fill="#cfffac">src/loops/loop.ts</text>
</g>
<!-- src/app.ts&#45;&gt;src/loops/loop.ts -->
<g id="edge5" class="edge">
<title>src/app.ts&#45;&gt;src/loops/loop.ts</title>
<path fill="none" stroke="#757575" d="M629.79,-239C640.66,-239 649.62,-239 649.62,-239 649.62,-239 649.62,-151.22 649.62,-151.22"/>
<polygon fill="#757575" stroke="#757575" points="653.13,-151.22 649.62,-141.22 646.13,-151.22 653.13,-151.22"/>
</g>
<!-- src/loops/while.ts -->
<g id="node7" class="node">
<title>src/loops/while.ts</title>
<path fill="none" stroke="#c6c5fe" d="M931.83,-200C931.83,-200 828.17,-200 828.17,-200 824.33,-200 820.5,-196.17 820.5,-192.33 820.5,-192.33 820.5,-184.67 820.5,-184.67 820.5,-180.83 824.33,-177 828.17,-177 828.17,-177 931.83,-177 931.83,-177 935.67,-177 939.5,-180.83 939.5,-184.67 939.5,-184.67 939.5,-192.33 939.5,-192.33 939.5,-196.17 935.67,-200 931.83,-200"/>
<text text-anchor="middle" x="880" y="-184.8" font-family="Arial" font-size="14.00" fill="#c6c5fe">src/loops/while.ts</text>
</g>
<!-- src/app.ts&#45;&gt;src/loops/while.ts -->
<g id="edge6" class="edge">
<title>src/app.ts&#45;&gt;src/loops/while.ts</title>
<path fill="none" stroke="#757575" d="M629.65,-251C707.72,-251 880,-251 880,-251 880,-251 880,-210.26 880,-210.26"/>
<polygon fill="#757575" stroke="#757575" points="883.5,-210.26 880,-200.26 876.5,-210.26 883.5,-210.26"/>
</g>
<!-- src/match.ts -->
<g id="node8" class="node">
<title>src/match.ts</title>
<path fill="none" stroke="#cfffac" d="M455.33,-141C455.33,-141 380.67,-141 380.67,-141 376.83,-141 373,-137.17 373,-133.33 373,-133.33 373,-125.67 373,-125.67 373,-121.83 376.83,-118 380.67,-118 380.67,-118 455.33,-118 455.33,-118 459.17,-118 463,-121.83 463,-125.67 463,-125.67 463,-133.33 463,-133.33 463,-137.17 459.17,-141 455.33,-141"/>
<text text-anchor="middle" x="418" y="-125.8" font-family="Arial" font-size="14.00" fill="#cfffac">src/match.ts</text>
</g>
<!-- src/app.ts&#45;&gt;src/match.ts -->
<g id="edge7" class="edge">
<title>src/app.ts&#45;&gt;src/match.ts</title>
<path fill="none" stroke="#757575" d="M554.19,-240C493.35,-240 380.5,-240 380.5,-240 380.5,-240 380.5,-151.33 380.5,-151.33"/>
<polygon fill="#757575" stroke="#757575" points="384,-151.33 380.5,-141.33 377,-151.33 384,-151.33"/>
</g>
<!-- src/parser.ts -->
<g id="node9" class="node">
<title>src/parser.ts</title>
<path fill="none" stroke="#c6c5fe" d="M283.33,-82C283.33,-82 208.67,-82 208.67,-82 204.83,-82 201,-78.17 201,-74.33 201,-74.33 201,-66.67 201,-66.67 201,-62.83 204.83,-59 208.67,-59 208.67,-59 283.33,-59 283.33,-59 287.17,-59 291,-62.83 291,-66.67 291,-66.67 291,-74.33 291,-74.33 291,-78.17 287.17,-82 283.33,-82"/>
<text text-anchor="middle" x="246" y="-66.8" font-family="Arial" font-size="14.00" fill="#c6c5fe">src/parser.ts</text>
</g>
<!-- src/app.ts&#45;&gt;src/parser.ts -->
<g id="edge8" class="edge">
<title>src/app.ts&#45;&gt;src/parser.ts</title>
<path fill="none" stroke="#757575" d="M554.43,-245C487.2,-245 353.25,-245 353.25,-245 353.25,-245 353.25,-66 353.25,-66 353.25,-66 301.17,-66 301.17,-66"/>
<polygon fill="#757575" stroke="#757575" points="301.17,-62.5 291.17,-66 301.17,-69.5 301.17,-62.5"/>
</g>
<!-- src/scope.ts -->
<g id="node10" class="node">
<title>src/scope.ts</title>
<path fill="none" stroke="#c6c5fe" d="M209.83,-141C209.83,-141 136.17,-141 136.17,-141 132.33,-141 128.5,-137.17 128.5,-133.33 128.5,-133.33 128.5,-125.67 128.5,-125.67 128.5,-121.83 132.33,-118 136.17,-118 136.17,-118 209.83,-118 209.83,-118 213.67,-118 217.5,-121.83 217.5,-125.67 217.5,-125.67 217.5,-133.33 217.5,-133.33 217.5,-137.17 213.67,-141 209.83,-141"/>
<text text-anchor="middle" x="173" y="-125.8" font-family="Arial" font-size="14.00" fill="#c6c5fe">src/scope.ts</text>
</g>
<!-- src/app.ts&#45;&gt;src/scope.ts -->
<g id="edge9" class="edge">
<title>src/app.ts&#45;&gt;src/scope.ts</title>
<path fill="none" stroke="#757575" d="M554.41,-249C482.72,-249 333.5,-249 333.5,-249 333.5,-249 333.5,-129 333.5,-129 333.5,-129 227.71,-129 227.71,-129"/>
<polygon fill="#757575" stroke="#757575" points="227.71,-125.5 217.71,-129 227.71,-132.5 227.71,-125.5"/>
</g>
<!-- src/type&#45;declarations.ts -->
<g id="node11" class="node">
<title>src/type&#45;declarations.ts</title>
<path fill="none" stroke="#c6c5fe" d="M1150.83,-141C1150.83,-141 1011.17,-141 1011.17,-141 1007.33,-141 1003.5,-137.17 1003.5,-133.33 1003.5,-133.33 1003.5,-125.67 1003.5,-125.67 1003.5,-121.83 1007.33,-118 1011.17,-118 1011.17,-118 1150.83,-118 1150.83,-118 1154.67,-118 1158.5,-121.83 1158.5,-125.67 1158.5,-125.67 1158.5,-133.33 1158.5,-133.33 1158.5,-137.17 1154.67,-141 1150.83,-141"/>
<text text-anchor="middle" x="1081" y="-125.8" font-family="Arial" font-size="14.00" fill="#c6c5fe">src/type&#45;declarations.ts</text>
</g>
<!-- src/app.ts&#45;&gt;src/type&#45;declarations.ts -->
<g id="edge10" class="edge">
<title>src/app.ts&#45;&gt;src/type&#45;declarations.ts</title>
<path fill="none" stroke="#757575" d="M629.56,-255C744.06,-255 1081,-255 1081,-255 1081,-255 1081,-151.08 1081,-151.08"/>
<polygon fill="#757575" stroke="#757575" points="1084.5,-151.08 1081,-141.08 1077.5,-151.08 1084.5,-151.08"/>
</g>
<!-- src/expressions/binary&#45;operation.ts&#45;&gt;src/expressions/handlers.ts -->
<g id="edge11" class="edge">
<title>src/expressions/binary&#45;operation.ts&#45;&gt;src/expressions/handlers.ts</title>
<path fill="none" stroke="#757575" d="M294.16,-188C305.96,-188 313.75,-188 313.75,-188 313.75,-188 313.75,-74 313.75,-74 313.75,-74 523.85,-74 523.85,-74"/>
<polygon fill="#757575" stroke="#757575" points="523.85,-77.5 533.85,-74 523.85,-70.5 523.85,-77.5"/>
</g>
<!-- src/expressions/binary&#45;operation.ts&#45;&gt;src/parser.ts -->
<g id="edge13" class="edge">
<title>src/expressions/binary&#45;operation.ts&#45;&gt;src/parser.ts</title>
<path fill="none" stroke="#757575" d="M254.25,-176.75C254.25,-176.75 254.25,-92.2 254.25,-92.2"/>
<polygon fill="#757575" stroke="#757575" points="257.75,-92.2 254.25,-82.2 250.75,-92.2 257.75,-92.2"/>
</g>
<!-- src/operators.ts -->
<g id="node12" class="node">
<title>src/operators.ts</title>
<path fill="none" stroke="#c6c5fe" d="M102.33,-141C102.33,-141 7.67,-141 7.67,-141 3.83,-141 0,-137.17 0,-133.33 0,-133.33 0,-125.67 0,-125.67 0,-121.83 3.83,-118 7.67,-118 7.67,-118 102.33,-118 102.33,-118 106.17,-118 110,-121.83 110,-125.67 110,-125.67 110,-133.33 110,-133.33 110,-137.17 106.17,-141 102.33,-141"/>
<text text-anchor="middle" x="55" y="-125.8" font-family="Arial" font-size="14.00" fill="#c6c5fe">src/operators.ts</text>
</g>
<!-- src/expressions/binary&#45;operation.ts&#45;&gt;src/operators.ts -->
<g id="edge12" class="edge">
<title>src/expressions/binary&#45;operation.ts&#45;&gt;src/operators.ts</title>
<path fill="none" stroke="#757575" d="M89,-176.84C89,-176.84 89,-151.13 89,-151.13"/>
<polygon fill="#757575" stroke="#757575" points="92.5,-151.13 89,-141.13 85.5,-151.13 92.5,-151.13"/>
</g>
<!-- src/expressions/grouped&#45;expressions.ts&#45;&gt;src/expressions/handlers.ts -->
<g id="edge14" class="edge">
<title>src/expressions/grouped&#45;expressions.ts&#45;&gt;src/expressions/handlers.ts</title>
<path fill="none" stroke="#757575" d="M539.33,-176.75C539.33,-176.75 539.33,-92.2 539.33,-92.2"/>
<polygon fill="#757575" stroke="#757575" points="542.83,-92.2 539.33,-82.2 535.83,-92.2 542.83,-92.2"/>
</g>
<!-- src/expressions/grouped&#45;expressions.ts&#45;&gt;src/match.ts -->
<g id="edge15" class="edge">
<title>src/expressions/grouped&#45;expressions.ts&#45;&gt;src/match.ts</title>
<path fill="none" stroke="#757575" d="M425.5,-176.84C425.5,-176.84 425.5,-151.13 425.5,-151.13"/>
<polygon fill="#757575" stroke="#757575" points="429,-151.13 425.5,-141.13 422,-151.13 429,-151.13"/>
</g>
<!-- src/loops/for.ts&#45;&gt;src/loops/loop.ts -->
<g id="edge17" class="edge">
<title>src/loops/for.ts&#45;&gt;src/loops/loop.ts</title>
<path fill="none" stroke="#757575" d="M698,-188C674.43,-188 651.75,-188 651.75,-188 651.75,-188 651.75,-151.06 651.75,-151.06"/>
<polygon fill="#757575" stroke="#757575" points="655.25,-151.06 651.75,-141.06 648.25,-151.06 655.25,-151.06"/>
</g>
<!-- src/loops/helpers.ts -->
<g id="node13" class="node">
<title>src/loops/helpers.ts</title>
<path fill="none" stroke="#cfffac" d="M938.83,-141C938.83,-141 821.17,-141 821.17,-141 817.33,-141 813.5,-137.17 813.5,-133.33 813.5,-133.33 813.5,-125.67 813.5,-125.67 813.5,-121.83 817.33,-118 821.17,-118 821.17,-118 938.83,-118 938.83,-118 942.67,-118 946.5,-121.83 946.5,-125.67 946.5,-125.67 946.5,-133.33 946.5,-133.33 946.5,-137.17 942.67,-141 938.83,-141"/>
<text text-anchor="middle" x="880" y="-125.8" font-family="Arial" font-size="14.00" fill="#cfffac">src/loops/helpers.ts</text>
</g>
<!-- src/loops/for.ts&#45;&gt;src/loops/helpers.ts -->
<g id="edge16" class="edge">
<title>src/loops/for.ts&#45;&gt;src/loops/helpers.ts</title>
<path fill="none" stroke="#757575" d="M802.13,-184C810.78,-184 817,-184 817,-184 817,-184 817,-151.06 817,-151.06"/>
<polygon fill="#757575" stroke="#757575" points="820.5,-151.06 817,-141.06 813.5,-151.06 820.5,-151.06"/>
</g>
<!-- src/loops/types.ts -->
<g id="node14" class="node">
<title>src/loops/types.ts</title>
<path fill="none" stroke="#c6c5fe" d="M787.83,-141C787.83,-141 682.17,-141 682.17,-141 678.33,-141 674.5,-137.17 674.5,-133.33 674.5,-133.33 674.5,-125.67 674.5,-125.67 674.5,-121.83 678.33,-118 682.17,-118 682.17,-118 787.83,-118 787.83,-118 791.67,-118 795.5,-121.83 795.5,-125.67 795.5,-125.67 795.5,-133.33 795.5,-133.33 795.5,-137.17 791.67,-141 787.83,-141"/>
<text text-anchor="middle" x="735" y="-125.8" font-family="Arial" font-size="14.00" fill="#c6c5fe">src/loops/types.ts</text>
</g>
<!-- src/loops/for.ts&#45;&gt;src/loops/types.ts -->
<g id="edge18" class="edge">
<title>src/loops/for.ts&#45;&gt;src/loops/types.ts</title>
<path fill="none" stroke="#757575" d="M746.75,-176.84C746.75,-176.84 746.75,-151.13 746.75,-151.13"/>
<polygon fill="#757575" stroke="#757575" points="750.25,-151.13 746.75,-141.13 743.25,-151.13 750.25,-151.13"/>
</g>
<!-- src/loops/while.ts&#45;&gt;src/loops/loop.ts -->
<g id="edge21" class="edge">
<title>src/loops/while.ts&#45;&gt;src/loops/loop.ts</title>
<path fill="none" stroke="#757575" d="M860.17,-176.84C860.17,-168.6 860.17,-159 860.17,-159 860.17,-159 653.88,-159 653.88,-159 653.88,-159 653.88,-151.16 653.88,-151.16"/>
<polygon fill="#757575" stroke="#757575" points="657.38,-151.16 653.88,-141.16 650.38,-151.16 657.38,-151.16"/>
</g>
<!-- src/loops/while.ts&#45;&gt;src/loops/helpers.ts -->
<g id="edge20" class="edge">
<title>src/loops/while.ts&#45;&gt;src/loops/helpers.ts</title>
<path fill="none" stroke="#757575" d="M899.83,-176.84C899.83,-176.84 899.83,-151.13 899.83,-151.13"/>
<polygon fill="#757575" stroke="#757575" points="903.33,-151.13 899.83,-141.13 896.33,-151.13 903.33,-151.13"/>
</g>
<!-- src/loops/while.ts&#45;&gt;src/loops/types.ts -->
<g id="edge22" class="edge">
<title>src/loops/while.ts&#45;&gt;src/loops/types.ts</title>
<path fill="none" stroke="#757575" d="M820.33,-192C812.85,-192 807.75,-192 807.75,-192 807.75,-192 807.75,-129 807.75,-129 807.75,-129 805.74,-129 805.74,-129"/>
<polygon fill="#757575" stroke="#757575" points="805.74,-125.5 795.74,-129 805.74,-132.5 805.74,-125.5"/>
</g>
<!-- src/types.ts -->
<g id="node15" class="node">
<title>src/types.ts</title>
<path fill="none" stroke="#cfffac" d="M243.83,-23C243.83,-23 174.17,-23 174.17,-23 170.33,-23 166.5,-19.17 166.5,-15.33 166.5,-15.33 166.5,-7.67 166.5,-7.67 166.5,-3.83 170.33,0 174.17,0 174.17,0 243.83,0 243.83,0 247.67,0 251.5,-3.83 251.5,-7.67 251.5,-7.67 251.5,-15.33 251.5,-15.33 251.5,-19.17 247.67,-23 243.83,-23"/>
<text text-anchor="middle" x="209" y="-7.8" font-family="Arial" font-size="14.00" fill="#cfffac">src/types.ts</text>
</g>
<!-- src/parser.ts&#45;&gt;src/types.ts -->
<g id="edge25" class="edge">
<title>src/parser.ts&#45;&gt;src/types.ts</title>
<path fill="none" stroke="#757575" d="M226.25,-58.84C226.25,-58.84 226.25,-33.13 226.25,-33.13"/>
<polygon fill="#757575" stroke="#757575" points="229.75,-33.13 226.25,-23.13 222.75,-33.13 229.75,-33.13"/>
</g>
<!-- src/scope.ts&#45;&gt;src/expressions/handlers.ts -->
<g id="edge26" class="edge">
<title>src/scope.ts&#45;&gt;src/expressions/handlers.ts</title>
<path fill="none" stroke="#757575" d="M212,-117.84C212,-109.6 212,-100 212,-100 212,-100 536.67,-100 536.67,-100 536.67,-100 536.67,-92.16 536.67,-92.16"/>
<polygon fill="#757575" stroke="#757575" points="540.17,-92.16 536.67,-82.16 533.17,-92.16 540.17,-92.16"/>
</g>
<!-- src/scope.ts&#45;&gt;src/parser.ts -->
<g id="edge27" class="edge">
<title>src/scope.ts&#45;&gt;src/parser.ts</title>
<path fill="none" stroke="#757575" d="M206.5,-117.84C206.5,-117.84 206.5,-92.13 206.5,-92.13"/>
<polygon fill="#757575" stroke="#757575" points="210,-92.13 206.5,-82.13 203,-92.13 210,-92.13"/>
</g>
<!-- src/scope.ts&#45;&gt;src/types.ts -->
<g id="edge28" class="edge">
<title>src/scope.ts&#45;&gt;src/types.ts</title>
<path fill="none" stroke="#757575" d="M183.75,-117.75C183.75,-117.75 183.75,-33.2 183.75,-33.2"/>
<polygon fill="#757575" stroke="#757575" points="187.25,-33.2 183.75,-23.2 180.25,-33.2 187.25,-33.2"/>
</g>
<!-- src/type&#45;declarations.ts&#45;&gt;src/expressions/handlers.ts -->
<g id="edge29" class="edge">
<title>src/type&#45;declarations.ts&#45;&gt;src/expressions/handlers.ts</title>
<path fill="none" stroke="#757575" d="M1055.17,-117.74C1055.17,-100.4 1055.17,-70 1055.17,-70 1055.17,-70 724.12,-70 724.12,-70"/>
<polygon fill="#757575" stroke="#757575" points="724.12,-66.5 714.12,-70 724.12,-73.5 724.12,-66.5"/>
</g>
<!-- src/type&#45;declarations.ts&#45;&gt;src/types.ts -->
<g id="edge30" class="edge">
<title>src/type&#45;declarations.ts&#45;&gt;src/types.ts</title>
<path fill="none" stroke="#757575" d="M1106.83,-117.7C1106.83,-87.73 1106.83,-11 1106.83,-11 1106.83,-11 261.7,-11 261.7,-11"/>
<polygon fill="#757575" stroke="#757575" points="261.7,-7.5 251.7,-11 261.7,-14.5 261.7,-7.5"/>
</g>
<!-- src/operators.ts&#45;&gt;src/parser.ts -->
<g id="edge23" class="edge">
<title>src/operators.ts&#45;&gt;src/parser.ts</title>
<path fill="none" stroke="#757575" d="M73.33,-117.74C73.33,-100.4 73.33,-70 73.33,-70 73.33,-70 190.63,-70 190.63,-70"/>
<polygon fill="#757575" stroke="#757575" points="190.63,-73.5 200.63,-70 190.63,-66.5 190.63,-73.5"/>
</g>
<!-- src/operators.ts&#45;&gt;src/types.ts -->
<g id="edge24" class="edge">
<title>src/operators.ts&#45;&gt;src/types.ts</title>
<path fill="none" stroke="#757575" d="M36.67,-117.7C36.67,-87.73 36.67,-11 36.67,-11 36.67,-11 156.4,-11 156.4,-11"/>
<polygon fill="#757575" stroke="#757575" points="156.4,-14.5 166.4,-11 156.4,-7.5 156.4,-14.5"/>
</g>
<!-- src/loops/types.ts&#45;&gt;src/expressions/handlers.ts -->
<g id="edge19" class="edge">
<title>src/loops/types.ts&#45;&gt;src/expressions/handlers.ts</title>
<path fill="none" stroke="#757575" d="M694.25,-117.84C694.25,-117.84 694.25,-92.13 694.25,-92.13"/>
<polygon fill="#757575" stroke="#757575" points="697.75,-92.13 694.25,-82.13 690.75,-92.13 697.75,-92.13"/>
</g>
<!-- tests/app.test.ts -->
<g id="node16" class="node">
<title>tests/app.test.ts</title>
<path fill="none" stroke="#c6c5fe" d="M639.83,-318C639.83,-318 544.17,-318 544.17,-318 540.33,-318 536.5,-314.17 536.5,-310.33 536.5,-310.33 536.5,-302.67 536.5,-302.67 536.5,-298.83 540.33,-295 544.17,-295 544.17,-295 639.83,-295 639.83,-295 643.67,-295 647.5,-298.83 647.5,-302.67 647.5,-302.67 647.5,-310.33 647.5,-310.33 647.5,-314.17 643.67,-318 639.83,-318"/>
<text text-anchor="middle" x="592" y="-302.8" font-family="Arial" font-size="14.00" fill="#c6c5fe">tests/app.test.ts</text>
</g>
<!-- tests/app.test.ts&#45;&gt;src/app.ts -->
<g id="edge31" class="edge">
<title>tests/app.test.ts&#45;&gt;src/app.ts</title>
<path fill="none" stroke="#757575" d="M592,-294.84C592,-294.84 592,-269.13 592,-269.13"/>
<polygon fill="#757575" stroke="#757575" points="595.5,-269.13 592,-259.13 588.5,-269.13 595.5,-269.13"/>
</g>
</g>
</svg>
