<?xml version="1.0" encoding="UTF-8" standalone="no"?>
<!DOCTYPE svg PUBLIC "-//W3C//DTD SVG 1.1//EN"
 "http://www.w3.org/Graphics/SVG/1.1/DTD/svg11.dtd">
<!-- Generated by graphviz version 2.43.0 (0)
 -->
<!-- Title: G Pages: 1 -->
<svg width="2124pt" height="392pt"
 viewBox="0.00 0.00 2124.20 392.20" xmlns="http://www.w3.org/2000/svg" xmlns:xlink="http://www.w3.org/1999/xlink">
<g id="graph0" class="graph" transform="scale(1 1) rotate(0) translate(21.6 370.6)">
<title>G</title>
<polygon fill="#111111" stroke="transparent" points="-21.6,21.6 -21.6,-370.6 2102.6,-370.6 2102.6,21.6 -21.6,21.6"/>
<!-- app.ts -->
<g id="node1" class="node">
<title>app.ts</title>
<path fill="none" stroke="#c6c5fe" d="M1022.17,-349C1022.17,-349 980.83,-349 980.83,-349 977.67,-349 974.5,-345.83 974.5,-342.67 974.5,-342.67 974.5,-336.33 974.5,-336.33 974.5,-333.17 977.67,-330 980.83,-330 980.83,-330 1022.17,-330 1022.17,-330 1025.33,-330 1028.5,-333.17 1028.5,-336.33 1028.5,-336.33 1028.5,-342.67 1028.5,-342.67 1028.5,-345.83 1025.33,-349 1022.17,-349"/>
<text text-anchor="middle" x="1001.5" y="-337" font-family="Arial" font-size="10.00" fill="#c6c5fe">app.ts</text>
</g>
<!-- arithmetic&#45;parsing.ts -->
<g id="node2" class="node">
<title>arithmetic&#45;parsing.ts</title>
<path fill="none" stroke="#c6c5fe" d="M265.67,-239C265.67,-239 173.33,-239 173.33,-239 170.17,-239 167,-235.83 167,-232.67 167,-232.67 167,-226.33 167,-226.33 167,-223.17 170.17,-220 173.33,-220 173.33,-220 265.67,-220 265.67,-220 268.83,-220 272,-223.17 272,-226.33 272,-226.33 272,-232.67 272,-232.67 272,-235.83 268.83,-239 265.67,-239"/>
<text text-anchor="middle" x="219.5" y="-227" font-family="Arial" font-size="10.00" fill="#c6c5fe">arithmetic&#45;parsing.ts</text>
</g>
<!-- app.ts&#45;&gt;arithmetic&#45;parsing.ts -->
<g id="edge1" class="edge">
<title>app.ts&#45;&gt;arithmetic&#45;parsing.ts</title>
<path fill="none" stroke="#757575" d="M974.13,-346C835.72,-346 219.5,-346 219.5,-346 219.5,-346 219.5,-249.03 219.5,-249.03"/>
<polygon fill="#757575" stroke="#757575" points="223,-249.03 219.5,-239.03 216,-249.03 223,-249.03"/>
</g>
<!-- compilation&#45;strategies.ts -->
<g id="node3" class="node">
<title>compilation&#45;strategies.ts</title>
<path fill="none" stroke="#c6c5fe" d="M1009.67,-294C1009.67,-294 899.33,-294 899.33,-294 896.17,-294 893,-290.83 893,-287.67 893,-287.67 893,-281.33 893,-281.33 893,-278.17 896.17,-275 899.33,-275 899.33,-275 1009.67,-275 1009.67,-275 1012.83,-275 1016,-278.17 1016,-281.33 1016,-281.33 1016,-287.67 1016,-287.67 1016,-290.83 1012.83,-294 1009.67,-294"/>
<text text-anchor="middle" x="954.5" y="-282" font-family="Arial" font-size="10.00" fill="#c6c5fe">compilation&#45;strategies.ts</text>
</g>
<!-- app.ts&#45;&gt;compilation&#45;strategies.ts -->
<g id="edge2" class="edge">
<title>app.ts&#45;&gt;compilation&#45;strategies.ts</title>
<path fill="none" stroke="#757575" d="M995.25,-329.92C995.25,-329.92 995.25,-304.34 995.25,-304.34"/>
<polygon fill="#757575" stroke="#757575" points="998.75,-304.34 995.25,-294.34 991.75,-304.34 998.75,-304.34"/>
</g>
<!-- debug&#45;dump.ts -->
<g id="node4" class="node">
<title>debug&#45;dump.ts</title>
<path fill="none" stroke="#c6c5fe" d="M2074.67,-294C2074.67,-294 2006.33,-294 2006.33,-294 2003.17,-294 2000,-290.83 2000,-287.67 2000,-287.67 2000,-281.33 2000,-281.33 2000,-278.17 2003.17,-275 2006.33,-275 2006.33,-275 2074.67,-275 2074.67,-275 2077.83,-275 2081,-278.17 2081,-281.33 2081,-281.33 2081,-287.67 2081,-287.67 2081,-290.83 2077.83,-294 2074.67,-294"/>
<text text-anchor="middle" x="2040.5" y="-282" font-family="Arial" font-size="10.00" fill="#c6c5fe">debug&#45;dump.ts</text>
</g>
<!-- app.ts&#45;&gt;debug&#45;dump.ts -->
<g id="edge3" class="edge">
<title>app.ts&#45;&gt;debug&#45;dump.ts</title>
<path fill="none" stroke="#757575" d="M1024.33,-329.96C1024.33,-315.57 1024.33,-290 1024.33,-290 1024.33,-290 1989.72,-290 1989.72,-290"/>
<polygon fill="#757575" stroke="#757575" points="1989.72,-293.5 1999.72,-290 1989.72,-286.5 1989.72,-293.5"/>
</g>
<!-- let&#45;binding.ts -->
<g id="node5" class="node">
<title>let&#45;binding.ts</title>
<path fill="none" stroke="#c6c5fe" d="M1156.17,-184C1156.17,-184 1096.83,-184 1096.83,-184 1093.67,-184 1090.5,-180.83 1090.5,-177.67 1090.5,-177.67 1090.5,-171.33 1090.5,-171.33 1090.5,-168.17 1093.67,-165 1096.83,-165 1096.83,-165 1156.17,-165 1156.17,-165 1159.33,-165 1162.5,-168.17 1162.5,-171.33 1162.5,-171.33 1162.5,-177.67 1162.5,-177.67 1162.5,-180.83 1159.33,-184 1156.17,-184"/>
<text text-anchor="middle" x="1126.5" y="-172" font-family="Arial" font-size="10.00" fill="#c6c5fe">let&#45;binding.ts</text>
</g>
<!-- app.ts&#45;&gt;let&#45;binding.ts -->
<g id="edge4" class="edge">
<title>app.ts&#45;&gt;let&#45;binding.ts</title>
<path fill="none" stroke="#757575" d="M1028.74,-334C1068.51,-334 1137.75,-334 1137.75,-334 1137.75,-334 1137.75,-194.48 1137.75,-194.48"/>
<polygon fill="#757575" stroke="#757575" points="1141.25,-194.48 1137.75,-184.48 1134.25,-194.48 1141.25,-194.48"/>
</g>
<!-- let&#45;expression&#45;parsing.ts -->
<g id="node6" class="node">
<title>let&#45;expression&#45;parsing.ts</title>
<path fill="none" stroke="#c6c5fe" d="M1860.67,-239C1860.67,-239 1750.33,-239 1750.33,-239 1747.17,-239 1744,-235.83 1744,-232.67 1744,-232.67 1744,-226.33 1744,-226.33 1744,-223.17 1747.17,-220 1750.33,-220 1750.33,-220 1860.67,-220 1860.67,-220 1863.83,-220 1867,-223.17 1867,-226.33 1867,-226.33 1867,-232.67 1867,-232.67 1867,-235.83 1863.83,-239 1860.67,-239"/>
<text text-anchor="middle" x="1805.5" y="-227" font-family="Arial" font-size="10.00" fill="#c6c5fe">let&#45;expression&#45;parsing.ts</text>
</g>
<!-- app.ts&#45;&gt;let&#45;expression&#45;parsing.ts -->
<g id="edge5" class="edge">
<title>app.ts&#45;&gt;let&#45;expression&#45;parsing.ts</title>
<path fill="none" stroke="#757575" d="M1028.71,-344C1169.15,-344 1805.5,-344 1805.5,-344 1805.5,-344 1805.5,-249.26 1805.5,-249.26"/>
<polygon fill="#757575" stroke="#757575" points="1809,-249.26 1805.5,-239.26 1802,-249.26 1809,-249.26"/>
</g>
<!-- parser.ts -->
<g id="node7" class="node">
<title>parser.ts</title>
<path fill="none" stroke="#c6c5fe" d="M594.67,-74C594.67,-74 552.33,-74 552.33,-74 549.17,-74 546,-70.83 546,-67.67 546,-67.67 546,-61.33 546,-61.33 546,-58.17 549.17,-55 552.33,-55 552.33,-55 594.67,-55 594.67,-55 597.83,-55 601,-58.17 601,-61.33 601,-61.33 601,-67.67 601,-67.67 601,-70.83 597.83,-74 594.67,-74"/>
<text text-anchor="middle" x="573.5" y="-62" font-family="Arial" font-size="10.00" fill="#c6c5fe">parser.ts</text>
</g>
<!-- app.ts&#45;&gt;parser.ts -->
<g id="edge6" class="edge">
<title>app.ts&#45;&gt;parser.ts</title>
<path fill="none" stroke="#757575" d="M974.44,-340C878.98,-340 563.67,-340 563.67,-340 563.67,-340 563.67,-84.31 563.67,-84.31"/>
<polygon fill="#757575" stroke="#757575" points="567.17,-84.31 563.67,-74.31 560.17,-84.31 567.17,-84.31"/>
</g>
<!-- pointer&#45;validation.ts -->
<g id="node8" class="node">
<title>pointer&#45;validation.ts</title>
<path fill="none" stroke="#c6c5fe" d="M842.67,-239C842.67,-239 754.33,-239 754.33,-239 751.17,-239 748,-235.83 748,-232.67 748,-232.67 748,-226.33 748,-226.33 748,-223.17 751.17,-220 754.33,-220 754.33,-220 842.67,-220 842.67,-220 845.83,-220 849,-223.17 849,-226.33 849,-226.33 849,-232.67 849,-232.67 849,-235.83 845.83,-239 842.67,-239"/>
<text text-anchor="middle" x="798.5" y="-227" font-family="Arial" font-size="10.00" fill="#c6c5fe">pointer&#45;validation.ts</text>
</g>
<!-- app.ts&#45;&gt;pointer&#45;validation.ts -->
<g id="edge7" class="edge">
<title>app.ts&#45;&gt;pointer&#45;validation.ts</title>
<path fill="none" stroke="#757575" d="M974.12,-335C918.71,-335 798.5,-335 798.5,-335 798.5,-335 798.5,-249.24 798.5,-249.24"/>
<polygon fill="#757575" stroke="#757575" points="802,-249.24 798.5,-239.24 795,-249.24 802,-249.24"/>
</g>
<!-- reassignment&#45;validation.ts -->
<g id="node9" class="node">
<title>reassignment&#45;validation.ts</title>
<path fill="none" stroke="#c6c5fe" d="M1106.67,-239C1106.67,-239 988.33,-239 988.33,-239 985.17,-239 982,-235.83 982,-232.67 982,-232.67 982,-226.33 982,-226.33 982,-223.17 985.17,-220 988.33,-220 988.33,-220 1106.67,-220 1106.67,-220 1109.83,-220 1113,-223.17 1113,-226.33 1113,-226.33 1113,-232.67 1113,-232.67 1113,-235.83 1109.83,-239 1106.67,-239"/>
<text text-anchor="middle" x="1047.5" y="-227" font-family="Arial" font-size="10.00" fill="#c6c5fe">reassignment&#45;validation.ts</text>
</g>
<!-- app.ts&#45;&gt;reassignment&#45;validation.ts -->
<g id="edge8" class="edge">
<title>app.ts&#45;&gt;reassignment&#45;validation.ts</title>
<path fill="none" stroke="#757575" d="M1020.17,-329.74C1020.17,-329.74 1020.17,-249.08 1020.17,-249.08"/>
<polygon fill="#757575" stroke="#757575" points="1023.67,-249.08 1020.17,-239.08 1016.67,-249.08 1023.67,-249.08"/>
</g>
<!-- types.ts -->
<g id="node10" class="node">
<title>types.ts</title>
<path fill="none" stroke="#c6c5fe" d="M539.17,-184C539.17,-184 497.83,-184 497.83,-184 494.67,-184 491.5,-180.83 491.5,-177.67 491.5,-177.67 491.5,-171.33 491.5,-171.33 491.5,-168.17 494.67,-165 497.83,-165 497.83,-165 539.17,-165 539.17,-165 542.33,-165 545.5,-168.17 545.5,-171.33 545.5,-171.33 545.5,-177.67 545.5,-177.67 545.5,-180.83 542.33,-184 539.17,-184"/>
<text text-anchor="middle" x="518.5" y="-172" font-family="Arial" font-size="10.00" fill="#c6c5fe">types.ts</text>
</g>
<!-- app.ts&#45;&gt;types.ts -->
<g id="edge9" class="edge">
<title>app.ts&#45;&gt;types.ts</title>
<path fill="none" stroke="#757575" d="M974.2,-332C934.78,-332 866.6,-332 866.6,-332 866.6,-332 866.6,-176 866.6,-176 866.6,-176 555.53,-176 555.53,-176"/>
<polygon fill="#757575" stroke="#757575" points="555.53,-172.5 545.53,-176 555.53,-179.5 555.53,-172.5"/>
</g>
<!-- validation.ts -->
<g id="node11" class="node">
<title>validation.ts</title>
<path fill="none" stroke="#c6c5fe" d="M535.67,-239C535.67,-239 479.33,-239 479.33,-239 476.17,-239 473,-235.83 473,-232.67 473,-232.67 473,-226.33 473,-226.33 473,-223.17 476.17,-220 479.33,-220 479.33,-220 535.67,-220 535.67,-220 538.83,-220 542,-223.17 542,-226.33 542,-226.33 542,-232.67 542,-232.67 542,-235.83 538.83,-239 535.67,-239"/>
<text text-anchor="middle" x="507.5" y="-227" font-family="Arial" font-size="10.00" fill="#c6c5fe">validation.ts</text>
</g>
<!-- app.ts&#45;&gt;validation.ts -->
<g id="edge10" class="edge">
<title>app.ts&#45;&gt;validation.ts</title>
<path fill="none" stroke="#757575" d="M974.24,-343C870.68,-343 507.5,-343 507.5,-343 507.5,-343 507.5,-249.18 507.5,-249.18"/>
<polygon fill="#757575" stroke="#757575" points="511,-249.18 507.5,-239.18 504,-249.18 511,-249.18"/>
</g>
<!-- variable&#45;types.ts -->
<g id="node12" class="node">
<title>variable&#45;types.ts</title>
<path fill="none" stroke="#cfffac" d="M1705.67,-74C1705.67,-74 1629.33,-74 1629.33,-74 1626.17,-74 1623,-70.83 1623,-67.67 1623,-67.67 1623,-61.33 1623,-61.33 1623,-58.17 1626.17,-55 1629.33,-55 1629.33,-55 1705.67,-55 1705.67,-55 1708.83,-55 1712,-58.17 1712,-61.33 1712,-61.33 1712,-67.67 1712,-67.67 1712,-70.83 1708.83,-74 1705.67,-74"/>
<text text-anchor="middle" x="1667.5" y="-62" font-family="Arial" font-size="10.00" fill="#cfffac">variable&#45;types.ts</text>
</g>
<!-- app.ts&#45;&gt;variable&#45;types.ts -->
<g id="edge11" class="edge">
<title>app.ts&#45;&gt;variable&#45;types.ts</title>
<path fill="none" stroke="#757575" d="M1028.65,-339C1156.72,-339 1694.2,-339 1694.2,-339 1694.2,-339 1694.2,-84.27 1694.2,-84.27"/>
<polygon fill="#757575" stroke="#757575" points="1697.7,-84.27 1694.2,-74.27 1690.7,-84.27 1697.7,-84.27"/>
</g>
<!-- vm.ts -->
<g id="node13" class="node">
<title>vm.ts</title>
<path fill="none" stroke="#cfffac" d="M968.17,-19C968.17,-19 926.83,-19 926.83,-19 923.67,-19 920.5,-15.83 920.5,-12.67 920.5,-12.67 920.5,-6.33 920.5,-6.33 920.5,-3.17 923.67,0 926.83,0 926.83,0 968.17,0 968.17,0 971.33,0 974.5,-3.17 974.5,-6.33 974.5,-6.33 974.5,-12.67 974.5,-12.67 974.5,-15.83 971.33,-19 968.17,-19"/>
<text text-anchor="middle" x="947.5" y="-7" font-family="Arial" font-size="10.00" fill="#cfffac">vm.ts</text>
</g>
<!-- app.ts&#45;&gt;vm.ts -->
<g id="edge12" class="edge">
<title>app.ts&#45;&gt;vm.ts</title>
<path fill="none" stroke="#757575" d="M974.38,-338C908.14,-338 743.5,-338 743.5,-338 743.5,-338 743.5,-14 743.5,-14 743.5,-14 910.41,-14 910.41,-14"/>
<polygon fill="#757575" stroke="#757575" points="910.41,-17.5 920.41,-14 910.41,-10.5 910.41,-17.5"/>
</g>
<!-- arithmetic&#45;parsing.ts&#45;&gt;parser.ts -->
<g id="edge15" class="edge">
<title>arithmetic&#45;parsing.ts&#45;&gt;parser.ts</title>
<path fill="none" stroke="#757575" d="M242.75,-219.94C242.75,-185.39 242.75,-69 242.75,-69 242.75,-69 535.87,-69 535.87,-69"/>
<polygon fill="#757575" stroke="#757575" points="535.87,-72.5 545.87,-69 535.87,-65.5 535.87,-72.5"/>
</g>
<!-- arithmetic&#45;parsing.ts&#45;&gt;types.ts -->
<g id="edge16" class="edge">
<title>arithmetic&#45;parsing.ts&#45;&gt;types.ts</title>
<path fill="none" stroke="#757575" d="M257.38,-219.83C257.38,-203.93 257.38,-174 257.38,-174 257.38,-174 481.05,-174 481.05,-174"/>
<polygon fill="#757575" stroke="#757575" points="481.05,-177.5 491.05,-174 481.05,-170.5 481.05,-177.5"/>
</g>
<!-- arithmetic&#45;parsing.ts&#45;&gt;vm.ts -->
<g id="edge17" class="edge">
<title>arithmetic&#45;parsing.ts&#45;&gt;vm.ts</title>
<path fill="none" stroke="#757575" d="M228.12,-219.9C228.12,-177.12 228.12,-6 228.12,-6 228.12,-6 910.18,-6 910.18,-6"/>
<polygon fill="#757575" stroke="#757575" points="910.18,-9.5 920.18,-6 910.18,-2.5 910.18,-9.5"/>
</g>
<!-- helpers.ts -->
<g id="node14" class="node">
<title>helpers.ts</title>
<path fill="none" stroke="#c6c5fe" d="M52.67,-129C52.67,-129 6.33,-129 6.33,-129 3.17,-129 0,-125.83 0,-122.67 0,-122.67 0,-116.33 0,-116.33 0,-113.17 3.17,-110 6.33,-110 6.33,-110 52.67,-110 52.67,-110 55.83,-110 59,-113.17 59,-116.33 59,-116.33 59,-122.67 59,-122.67 59,-125.83 55.83,-129 52.67,-129"/>
<text text-anchor="middle" x="29.5" y="-117" font-family="Arial" font-size="10.00" fill="#c6c5fe">helpers.ts</text>
</g>
<!-- arithmetic&#45;parsing.ts&#45;&gt;helpers.ts -->
<g id="edge13" class="edge">
<title>arithmetic&#45;parsing.ts&#45;&gt;helpers.ts</title>
<path fill="none" stroke="#757575" d="M166.83,-229C110.6,-229 29.5,-229 29.5,-229 29.5,-229 29.5,-139.22 29.5,-139.22"/>
<polygon fill="#757575" stroke="#757575" points="33,-139.22 29.5,-129.22 26,-139.22 33,-139.22"/>
</g>
<!-- operator&#45;parsing.ts -->
<g id="node15" class="node">
<title>operator&#45;parsing.ts</title>
<path fill="none" stroke="#c6c5fe" d="M207.17,-129C207.17,-129 121.83,-129 121.83,-129 118.67,-129 115.5,-125.83 115.5,-122.67 115.5,-122.67 115.5,-116.33 115.5,-116.33 115.5,-113.17 118.67,-110 121.83,-110 121.83,-110 207.17,-110 207.17,-110 210.33,-110 213.5,-113.17 213.5,-116.33 213.5,-116.33 213.5,-122.67 213.5,-122.67 213.5,-125.83 210.33,-129 207.17,-129"/>
<text text-anchor="middle" x="164.5" y="-117" font-family="Arial" font-size="10.00" fill="#c6c5fe">operator&#45;parsing.ts</text>
</g>
<!-- arithmetic&#45;parsing.ts&#45;&gt;operator&#45;parsing.ts -->
<g id="edge14" class="edge">
<title>arithmetic&#45;parsing.ts&#45;&gt;operator&#45;parsing.ts</title>
<path fill="none" stroke="#757575" d="M185.83,-219.74C185.83,-219.74 185.83,-139.08 185.83,-139.08"/>
<polygon fill="#757575" stroke="#757575" points="189.33,-139.08 185.83,-129.08 182.33,-139.08 189.33,-139.08"/>
</g>
<!-- compilation&#45;strategies.ts&#45;&gt;let&#45;binding.ts -->
<g id="edge30" class="edge">
<title>compilation&#45;strategies.ts&#45;&gt;let&#45;binding.ts</title>
<path fill="none" stroke="#757575" d="M1016.19,-278C1065.13,-278 1125.38,-278 1125.38,-278 1125.38,-278 1125.38,-194.05 1125.38,-194.05"/>
<polygon fill="#757575" stroke="#757575" points="1128.88,-194.05 1125.38,-184.05 1121.88,-194.05 1128.88,-194.05"/>
</g>
<!-- compilation&#45;strategies.ts&#45;&gt;parser.ts -->
<g id="edge31" class="edge">
<title>compilation&#45;strategies.ts&#45;&gt;parser.ts</title>
<path fill="none" stroke="#757575" d="M892.84,-287C783.75,-287 568.08,-287 568.08,-287 568.08,-287 568.08,-84.06 568.08,-84.06"/>
<polygon fill="#757575" stroke="#757575" points="571.58,-84.06 568.08,-74.06 564.58,-84.06 571.58,-84.06"/>
</g>
<!-- compilation&#45;strategies.ts&#45;&gt;variable&#45;types.ts -->
<g id="edge34" class="edge">
<title>compilation&#45;strategies.ts&#45;&gt;variable&#45;types.ts</title>
<path fill="none" stroke="#757575" d="M1016.18,-286C1192.36,-286 1685.3,-286 1685.3,-286 1685.3,-286 1685.3,-84.02 1685.3,-84.02"/>
<polygon fill="#757575" stroke="#757575" points="1688.8,-84.02 1685.3,-74.02 1681.8,-84.02 1688.8,-84.02"/>
</g>
<!-- compilation&#45;strategies.ts&#45;&gt;vm.ts -->
<g id="edge35" class="edge">
<title>compilation&#45;strategies.ts&#45;&gt;vm.ts</title>
<path fill="none" stroke="#757575" d="M922.25,-274.91C922.25,-234.48 922.25,-80 922.25,-80 922.25,-80 966.5,-80 966.5,-80 966.5,-80 966.5,-29.01 966.5,-29.01"/>
<polygon fill="#757575" stroke="#757575" points="970,-29.01 966.5,-19.01 963,-29.01 970,-29.01"/>
</g>
<!-- instruction&#45;primitives.ts -->
<g id="node17" class="node">
<title>instruction&#45;primitives.ts</title>
<path fill="none" stroke="#c6c5fe" d="M956.17,-74C956.17,-74 850.83,-74 850.83,-74 847.67,-74 844.5,-70.83 844.5,-67.67 844.5,-67.67 844.5,-61.33 844.5,-61.33 844.5,-58.17 847.67,-55 850.83,-55 850.83,-55 956.17,-55 956.17,-55 959.33,-55 962.5,-58.17 962.5,-61.33 962.5,-61.33 962.5,-67.67 962.5,-67.67 962.5,-70.83 959.33,-74 956.17,-74"/>
<text text-anchor="middle" x="903.5" y="-62" font-family="Arial" font-size="10.00" fill="#c6c5fe">instruction&#45;primitives.ts</text>
</g>
<!-- compilation&#45;strategies.ts&#45;&gt;instruction&#45;primitives.ts -->
<g id="edge29" class="edge">
<title>compilation&#45;strategies.ts&#45;&gt;instruction&#45;primitives.ts</title>
<path fill="none" stroke="#757575" d="M912.5,-274.76C912.5,-274.76 912.5,-84.12 912.5,-84.12"/>
<polygon fill="#757575" stroke="#757575" points="916,-84.12 912.5,-74.12 909,-84.12 916,-84.12"/>
</g>
<!-- array&#45;parsing.ts -->
<g id="node19" class="node">
<title>array&#45;parsing.ts</title>
<path fill="none" stroke="#cfffac" d="M1583.17,-74C1583.17,-74 1511.83,-74 1511.83,-74 1508.67,-74 1505.5,-70.83 1505.5,-67.67 1505.5,-67.67 1505.5,-61.33 1505.5,-61.33 1505.5,-58.17 1508.67,-55 1511.83,-55 1511.83,-55 1583.17,-55 1583.17,-55 1586.33,-55 1589.5,-58.17 1589.5,-61.33 1589.5,-61.33 1589.5,-67.67 1589.5,-67.67 1589.5,-70.83 1586.33,-74 1583.17,-74"/>
<text text-anchor="middle" x="1547.5" y="-62" font-family="Arial" font-size="10.00" fill="#cfffac">array&#45;parsing.ts</text>
</g>
<!-- compilation&#45;strategies.ts&#45;&gt;array&#45;parsing.ts -->
<g id="edge27" class="edge">
<title>compilation&#45;strategies.ts&#45;&gt;array&#45;parsing.ts</title>
<path fill="none" stroke="#757575" d="M1016.18,-282C1171.89,-282 1568.5,-282 1568.5,-282 1568.5,-282 1568.5,-84.13 1568.5,-84.13"/>
<polygon fill="#757575" stroke="#757575" points="1572,-84.13 1568.5,-74.13 1565,-84.13 1572,-84.13"/>
</g>
<!-- expression&#45;with&#45;context.ts -->
<g id="node21" class="node">
<title>expression&#45;with&#45;context.ts</title>
<path fill="none" stroke="#c6c5fe" d="M723.67,-239C723.67,-239 605.33,-239 605.33,-239 602.17,-239 599,-235.83 599,-232.67 599,-232.67 599,-226.33 599,-226.33 599,-223.17 602.17,-220 605.33,-220 605.33,-220 723.67,-220 723.67,-220 726.83,-220 730,-223.17 730,-226.33 730,-226.33 730,-232.67 730,-232.67 730,-235.83 726.83,-239 723.67,-239"/>
<text text-anchor="middle" x="664.5" y="-227" font-family="Arial" font-size="10.00" fill="#c6c5fe">expression&#45;with&#45;context.ts</text>
</g>
<!-- compilation&#45;strategies.ts&#45;&gt;expression&#45;with&#45;context.ts -->
<g id="edge28" class="edge">
<title>compilation&#45;strategies.ts&#45;&gt;expression&#45;with&#45;context.ts</title>
<path fill="none" stroke="#757575" d="M893,-281C807.87,-281 664.5,-281 664.5,-281 664.5,-281 664.5,-249.43 664.5,-249.43"/>
<polygon fill="#757575" stroke="#757575" points="668,-249.43 664.5,-239.43 661,-249.43 668,-249.43"/>
</g>
<!-- reassignment&#45;parsing.ts -->
<g id="node22" class="node">
<title>reassignment&#45;parsing.ts</title>
<path fill="none" stroke="#c6c5fe" d="M1046.67,-129C1046.67,-129 938.33,-129 938.33,-129 935.17,-129 932,-125.83 932,-122.67 932,-122.67 932,-116.33 932,-116.33 932,-113.17 935.17,-110 938.33,-110 938.33,-110 1046.67,-110 1046.67,-110 1049.83,-110 1053,-113.17 1053,-116.33 1053,-116.33 1053,-122.67 1053,-122.67 1053,-125.83 1049.83,-129 1046.67,-129"/>
<text text-anchor="middle" x="992.5" y="-117" font-family="Arial" font-size="10.00" fill="#c6c5fe">reassignment&#45;parsing.ts</text>
</g>
<!-- compilation&#45;strategies.ts&#45;&gt;reassignment&#45;parsing.ts -->
<g id="edge32" class="edge">
<title>compilation&#45;strategies.ts&#45;&gt;reassignment&#45;parsing.ts</title>
<path fill="none" stroke="#757575" d="M957,-274.67C957,-274.67 957,-139.07 957,-139.07"/>
<polygon fill="#757575" stroke="#757575" points="960.5,-139.07 957,-129.07 953.5,-139.07 960.5,-139.07"/>
</g>
<!-- slice&#45;parsing.ts -->
<g id="node23" class="node">
<title>slice&#45;parsing.ts</title>
<path fill="none" stroke="#c6c5fe" d="M830.67,-129C830.67,-129 760.33,-129 760.33,-129 757.17,-129 754,-125.83 754,-122.67 754,-122.67 754,-116.33 754,-116.33 754,-113.17 757.17,-110 760.33,-110 760.33,-110 830.67,-110 830.67,-110 833.83,-110 837,-113.17 837,-116.33 837,-116.33 837,-122.67 837,-122.67 837,-125.83 833.83,-129 830.67,-129"/>
<text text-anchor="middle" x="795.5" y="-117" font-family="Arial" font-size="10.00" fill="#c6c5fe">slice&#45;parsing.ts</text>
</g>
<!-- compilation&#45;strategies.ts&#45;&gt;slice&#45;parsing.ts -->
<g id="edge33" class="edge">
<title>compilation&#45;strategies.ts&#45;&gt;slice&#45;parsing.ts</title>
<path fill="none" stroke="#757575" d="M902.75,-274.82C902.75,-239.84 902.75,-122 902.75,-122 902.75,-122 847.27,-122 847.27,-122"/>
<polygon fill="#757575" stroke="#757575" points="847.27,-118.5 837.27,-122 847.27,-125.5 847.27,-118.5"/>
</g>
<!-- debug&#45;dump.ts&#45;&gt;vm.ts -->
<g id="edge36" class="edge">
<title>debug&#45;dump.ts&#45;&gt;vm.ts</title>
<path fill="none" stroke="#757575" d="M2040.5,-274.81C2040.5,-225.31 2040.5,-3 2040.5,-3 2040.5,-3 984.52,-3 984.52,-3"/>
<polygon fill="#757575" stroke="#757575" points="984.52,0.5 974.52,-3 984.52,-6.5 984.52,0.5"/>
</g>
<!-- let&#45;binding.ts&#45;&gt;parser.ts -->
<g id="edge51" class="edge">
<title>let&#45;binding.ts&#45;&gt;parser.ts</title>
<path fill="none" stroke="#757575" d="M1090.32,-171C993.28,-171 734.5,-171 734.5,-171 734.5,-171 734.5,-67 734.5,-67 734.5,-67 611.18,-67 611.18,-67"/>
<polygon fill="#757575" stroke="#757575" points="611.18,-63.5 601.18,-67 611.18,-70.5 611.18,-63.5"/>
</g>
<!-- let&#45;binding.ts&#45;&gt;variable&#45;types.ts -->
<g id="edge53" class="edge">
<title>let&#45;binding.ts&#45;&gt;variable&#45;types.ts</title>
<path fill="none" stroke="#757575" d="M1162.88,-179C1281.53,-179 1649.7,-179 1649.7,-179 1649.7,-179 1649.7,-84.26 1649.7,-84.26"/>
<polygon fill="#757575" stroke="#757575" points="1653.2,-84.26 1649.7,-74.26 1646.2,-84.26 1653.2,-84.26"/>
</g>
<!-- let&#45;binding.ts&#45;&gt;vm.ts -->
<g id="edge54" class="edge">
<title>let&#45;binding.ts&#45;&gt;vm.ts</title>
<path fill="none" stroke="#757575" d="M1103.17,-164.52C1103.17,-129.6 1103.17,-15 1103.17,-15 1103.17,-15 984.62,-15 984.62,-15"/>
<polygon fill="#757575" stroke="#757575" points="984.62,-11.5 974.62,-15 984.62,-18.5 984.62,-11.5"/>
</g>
<!-- let&#45;binding.ts&#45;&gt;instruction&#45;primitives.ts -->
<g id="edge50" class="edge">
<title>let&#45;binding.ts&#45;&gt;instruction&#45;primitives.ts</title>
<path fill="none" stroke="#757575" d="M1096.83,-164.96C1096.83,-138.65 1096.83,-67 1096.83,-67 1096.83,-67 972.56,-67 972.56,-67"/>
<polygon fill="#757575" stroke="#757575" points="972.56,-63.5 962.56,-67 972.56,-70.5 972.56,-63.5"/>
</g>
<!-- array&#45;helpers.ts -->
<g id="node18" class="node">
<title>array&#45;helpers.ts</title>
<path fill="none" stroke="#c6c5fe" d="M1443.17,-129C1443.17,-129 1371.83,-129 1371.83,-129 1368.67,-129 1365.5,-125.83 1365.5,-122.67 1365.5,-122.67 1365.5,-116.33 1365.5,-116.33 1365.5,-113.17 1368.67,-110 1371.83,-110 1371.83,-110 1443.17,-110 1443.17,-110 1446.33,-110 1449.5,-113.17 1449.5,-116.33 1449.5,-116.33 1449.5,-122.67 1449.5,-122.67 1449.5,-125.83 1446.33,-129 1443.17,-129"/>
<text text-anchor="middle" x="1407.5" y="-117" font-family="Arial" font-size="10.00" fill="#c6c5fe">array&#45;helpers.ts</text>
</g>
<!-- let&#45;binding.ts&#45;&gt;array&#45;helpers.ts -->
<g id="edge48" class="edge">
<title>let&#45;binding.ts&#45;&gt;array&#45;helpers.ts</title>
<path fill="none" stroke="#757575" d="M1162.67,-169C1241.45,-169 1421.5,-169 1421.5,-169 1421.5,-169 1421.5,-139.04 1421.5,-139.04"/>
<polygon fill="#757575" stroke="#757575" points="1425,-139.04 1421.5,-129.04 1418,-139.04 1425,-139.04"/>
</g>
<!-- let&#45;binding.ts&#45;&gt;array&#45;parsing.ts -->
<g id="edge49" class="edge">
<title>let&#45;binding.ts&#45;&gt;array&#45;parsing.ts</title>
<path fill="none" stroke="#757575" d="M1162.76,-174C1264.88,-174 1547.5,-174 1547.5,-174 1547.5,-174 1547.5,-84.22 1547.5,-84.22"/>
<polygon fill="#757575" stroke="#757575" points="1551,-84.22 1547.5,-74.22 1544,-84.22 1551,-84.22"/>
</g>
<!-- type&#45;inference&#45;helpers.ts -->
<g id="node25" class="node">
<title>type&#45;inference&#45;helpers.ts</title>
<path fill="none" stroke="#c6c5fe" d="M539.17,-129C539.17,-129 427.83,-129 427.83,-129 424.67,-129 421.5,-125.83 421.5,-122.67 421.5,-122.67 421.5,-116.33 421.5,-116.33 421.5,-113.17 424.67,-110 427.83,-110 427.83,-110 539.17,-110 539.17,-110 542.33,-110 545.5,-113.17 545.5,-116.33 545.5,-116.33 545.5,-122.67 545.5,-122.67 545.5,-125.83 542.33,-129 539.17,-129"/>
<text text-anchor="middle" x="483.5" y="-117" font-family="Arial" font-size="10.00" fill="#c6c5fe">type&#45;inference&#45;helpers.ts</text>
</g>
<!-- let&#45;binding.ts&#45;&gt;type&#45;inference&#45;helpers.ts -->
<g id="edge52" class="edge">
<title>let&#45;binding.ts&#45;&gt;type&#45;inference&#45;helpers.ts</title>
<path fill="none" stroke="#757575" d="M1090.29,-172C983.09,-172 674.71,-172 674.71,-172 674.71,-172 674.71,-124 674.71,-124 674.71,-124 555.58,-124 555.58,-124"/>
<polygon fill="#757575" stroke="#757575" points="555.58,-120.5 545.58,-124 555.58,-127.5 555.58,-120.5"/>
</g>
<!-- let&#45;expression&#45;parsing.ts&#45;&gt;let&#45;binding.ts -->
<g id="edge55" class="edge">
<title>let&#45;expression&#45;parsing.ts&#45;&gt;let&#45;binding.ts</title>
<path fill="none" stroke="#757575" d="M1743.84,-234C1580.7,-234 1150.12,-234 1150.12,-234 1150.12,-234 1150.12,-194.06 1150.12,-194.06"/>
<polygon fill="#757575" stroke="#757575" points="1153.63,-194.06 1150.12,-184.06 1146.63,-194.06 1153.63,-194.06"/>
</g>
<!-- let&#45;expression&#45;parsing.ts&#45;&gt;parser.ts -->
<g id="edge56" class="edge">
<title>let&#45;expression&#45;parsing.ts&#45;&gt;parser.ts</title>
<path fill="none" stroke="#757575" d="M1785,-219.94C1785,-208.25 1785,-190 1785,-190 1785,-190 576.92,-190 576.92,-190 576.92,-190 576.92,-84.35 576.92,-84.35"/>
<polygon fill="#757575" stroke="#757575" points="580.42,-84.35 576.92,-74.35 573.42,-84.35 580.42,-84.35"/>
</g>
<!-- let&#45;expression&#45;parsing.ts&#45;&gt;variable&#45;types.ts -->
<g id="edge57" class="edge">
<title>let&#45;expression&#45;parsing.ts&#45;&gt;variable&#45;types.ts</title>
<path fill="none" stroke="#757575" d="M1743.87,-224C1722.18,-224 1703.1,-224 1703.1,-224 1703.1,-224 1703.1,-84.48 1703.1,-84.48"/>
<polygon fill="#757575" stroke="#757575" points="1706.6,-84.48 1703.1,-74.48 1699.6,-84.48 1706.6,-84.48"/>
</g>
<!-- let&#45;expression&#45;parsing.ts&#45;&gt;vm.ts -->
<g id="edge58" class="edge">
<title>let&#45;expression&#45;parsing.ts&#45;&gt;vm.ts</title>
<path fill="none" stroke="#757575" d="M1826,-219.9C1826,-177.12 1826,-6 1826,-6 1826,-6 984.76,-6 984.76,-6"/>
<polygon fill="#757575" stroke="#757575" points="984.76,-2.5 974.76,-6 984.76,-9.5 984.76,-2.5"/>
</g>
<!-- parser.ts&#45;&gt;vm.ts -->
<g id="edge60" class="edge">
<title>parser.ts&#45;&gt;vm.ts</title>
<path fill="none" stroke="#757575" d="M573.5,-54.92C573.5,-38.8 573.5,-8 573.5,-8 573.5,-8 910.3,-8 910.3,-8"/>
<polygon fill="#757575" stroke="#757575" points="910.3,-11.5 920.3,-8 910.3,-4.5 910.3,-11.5"/>
</g>
<!-- pointer&#45;validation.ts&#45;&gt;let&#45;binding.ts -->
<g id="edge61" class="edge">
<title>pointer&#45;validation.ts&#45;&gt;let&#45;binding.ts</title>
<path fill="none" stroke="#757575" d="M842.62,-219.89C842.62,-206.01 842.62,-182 842.62,-182 842.62,-182 1080.26,-182 1080.26,-182"/>
<polygon fill="#757575" stroke="#757575" points="1080.26,-185.5 1090.26,-182 1080.26,-178.5 1080.26,-185.5"/>
</g>
<!-- pointer&#45;validation.ts&#45;&gt;parser.ts -->
<g id="edge62" class="edge">
<title>pointer&#45;validation.ts&#45;&gt;parser.ts</title>
<path fill="none" stroke="#757575" d="M838.88,-219.96C838.88,-184.31 838.88,-61 838.88,-61 838.88,-61 611.4,-61 611.4,-61"/>
<polygon fill="#757575" stroke="#757575" points="611.4,-57.5 601.4,-61 611.4,-64.5 611.4,-57.5"/>
</g>
<!-- pointer&#45;validation.ts&#45;&gt;types.ts -->
<g id="edge63" class="edge">
<title>pointer&#45;validation.ts&#45;&gt;types.ts</title>
<path fill="none" stroke="#757575" d="M795.5,-219.87C795.5,-204.71 795.5,-177 795.5,-177 795.5,-177 555.56,-177 555.56,-177"/>
<polygon fill="#757575" stroke="#757575" points="555.56,-173.5 545.56,-177 555.56,-180.5 555.56,-173.5"/>
</g>
<!-- pointer&#45;validation.ts&#45;&gt;variable&#45;types.ts -->
<g id="edge64" class="edge">
<title>pointer&#45;validation.ts&#45;&gt;variable&#45;types.ts</title>
<path fill="none" stroke="#757575" d="M840.75,-219.81C840.75,-199.23 840.75,-153 840.75,-153 840.75,-153 1640.8,-153 1640.8,-153 1640.8,-153 1640.8,-84.31 1640.8,-84.31"/>
<polygon fill="#757575" stroke="#757575" points="1644.3,-84.31 1640.8,-74.31 1637.3,-84.31 1644.3,-84.31"/>
</g>
<!-- reassignment&#45;validation.ts&#45;&gt;let&#45;binding.ts -->
<g id="edge68" class="edge">
<title>reassignment&#45;validation.ts&#45;&gt;let&#45;binding.ts</title>
<path fill="none" stroke="#757575" d="M1105.5,-219.92C1105.5,-219.92 1105.5,-194.34 1105.5,-194.34"/>
<polygon fill="#757575" stroke="#757575" points="1109,-194.34 1105.5,-184.34 1102,-194.34 1109,-194.34"/>
</g>
<!-- reassignment&#45;validation.ts&#45;&gt;types.ts -->
<g id="edge70" class="edge">
<title>reassignment&#45;validation.ts&#45;&gt;types.ts</title>
<path fill="none" stroke="#757575" d="M1005.67,-219.83C1005.67,-203.93 1005.67,-174 1005.67,-174 1005.67,-174 555.74,-174 555.74,-174"/>
<polygon fill="#757575" stroke="#757575" points="555.74,-170.5 545.74,-174 555.74,-177.5 555.74,-170.5"/>
</g>
<!-- reassignment&#45;validation.ts&#45;&gt;variable&#45;types.ts -->
<g id="edge71" class="edge">
<title>reassignment&#45;validation.ts&#45;&gt;variable&#45;types.ts</title>
<path fill="none" stroke="#757575" d="M1113.02,-229C1274.1,-229 1676.4,-229 1676.4,-229 1676.4,-229 1676.4,-84.3 1676.4,-84.3"/>
<polygon fill="#757575" stroke="#757575" points="1679.9,-84.3 1676.4,-74.3 1672.9,-84.3 1679.9,-84.3"/>
</g>
<!-- reassignment&#45;validation.ts&#45;&gt;reassignment&#45;parsing.ts -->
<g id="edge69" class="edge">
<title>reassignment&#45;validation.ts&#45;&gt;reassignment&#45;parsing.ts</title>
<path fill="none" stroke="#757575" d="M1029.33,-219.74C1029.33,-219.74 1029.33,-139.08 1029.33,-139.08"/>
<polygon fill="#757575" stroke="#757575" points="1032.83,-139.08 1029.33,-129.08 1025.83,-139.08 1032.83,-139.08"/>
</g>
<!-- types.ts&#45;&gt;parser.ts -->
<g id="edge78" class="edge">
<title>types.ts&#45;&gt;parser.ts</title>
<path fill="none" stroke="#757575" d="M545.66,-166C550.92,-166 554.83,-166 554.83,-166 554.83,-166 554.83,-84.23 554.83,-84.23"/>
<polygon fill="#757575" stroke="#757575" points="558.33,-84.23 554.83,-74.23 551.33,-84.23 558.33,-84.23"/>
</g>
<!-- types.ts&#45;&gt;vm.ts -->
<g id="edge79" class="edge">
<title>types.ts&#45;&gt;vm.ts</title>
<path fill="none" stroke="#757575" d="M545.54,-168C604.42,-168 739,-168 739,-168 739,-168 739,-12 739,-12 739,-12 910.24,-12 910.24,-12"/>
<polygon fill="#757575" stroke="#757575" points="910.24,-15.5 920.24,-12 910.24,-8.5 910.24,-15.5"/>
</g>
<!-- types.ts&#45;&gt;instruction&#45;primitives.ts -->
<g id="edge77" class="edge">
<title>types.ts&#45;&gt;instruction&#45;primitives.ts</title>
<path fill="none" stroke="#757575" d="M545.69,-169C630.44,-169 884.2,-169 884.2,-169 884.2,-169 884.2,-84.14 884.2,-84.14"/>
<polygon fill="#757575" stroke="#757575" points="887.7,-84.14 884.2,-74.14 880.7,-84.14 887.7,-84.14"/>
</g>
<!-- types.ts&#45;&gt;array&#45;helpers.ts -->
<g id="edge76" class="edge">
<title>types.ts&#45;&gt;array&#45;helpers.ts</title>
<path fill="none" stroke="#757575" d="M518.5,-164.99C518.5,-155.09 518.5,-141 518.5,-141 518.5,-141 1393.5,-141 1393.5,-141 1393.5,-141 1393.5,-139.24 1393.5,-139.24"/>
<polygon fill="#757575" stroke="#757575" points="1397,-139.24 1393.5,-129.24 1390,-139.24 1397,-139.24"/>
</g>
<!-- validation.ts&#45;&gt;let&#45;binding.ts -->
<g id="edge80" class="edge">
<title>validation.ts&#45;&gt;let&#45;binding.ts</title>
<path fill="none" stroke="#757575" d="M516.75,-219.88C516.75,-211.95 516.75,-202 516.75,-202 516.75,-202 1098,-202 1098,-202 1098,-202 1098,-194.12 1098,-194.12"/>
<polygon fill="#757575" stroke="#757575" points="1101.5,-194.12 1098,-184.12 1094.5,-194.12 1101.5,-194.12"/>
</g>
<!-- validation.ts&#45;&gt;parser.ts -->
<g id="edge81" class="edge">
<title>validation.ts&#45;&gt;parser.ts</title>
<path fill="none" stroke="#757575" d="M542.02,-226C551.51,-226 559.25,-226 559.25,-226 559.25,-226 559.25,-84.12 559.25,-84.12"/>
<polygon fill="#757575" stroke="#757575" points="562.75,-84.12 559.25,-74.12 555.75,-84.12 562.75,-84.12"/>
</g>
<!-- validation.ts&#45;&gt;types.ts -->
<g id="edge83" class="edge">
<title>validation.ts&#45;&gt;types.ts</title>
<path fill="none" stroke="#757575" d="M504.12,-219.92C504.12,-219.92 504.12,-194.34 504.12,-194.34"/>
<polygon fill="#757575" stroke="#757575" points="507.63,-194.34 504.12,-184.34 500.63,-194.34 507.63,-194.34"/>
</g>
<!-- validation.ts&#45;&gt;variable&#45;types.ts -->
<g id="edge84" class="edge">
<title>validation.ts&#45;&gt;variable&#45;types.ts</title>
<path fill="none" stroke="#757575" d="M529.38,-219.76C529.38,-214.07 529.38,-208 529.38,-208 529.38,-208 1658.6,-208 1658.6,-208 1658.6,-208 1658.6,-84.36 1658.6,-84.36"/>
<polygon fill="#757575" stroke="#757575" points="1662.1,-84.36 1658.6,-74.36 1655.1,-84.36 1662.1,-84.36"/>
</g>
<!-- validation.ts&#45;&gt;type&#45;inference&#45;helpers.ts -->
<g id="edge82" class="edge">
<title>validation.ts&#45;&gt;type&#45;inference&#45;helpers.ts</title>
<path fill="none" stroke="#757575" d="M482.25,-219.74C482.25,-219.74 482.25,-139.08 482.25,-139.08"/>
<polygon fill="#757575" stroke="#757575" points="485.75,-139.08 482.25,-129.08 478.75,-139.08 485.75,-139.08"/>
</g>
<!-- helpers.ts&#45;&gt;vm.ts -->
<g id="edge44" class="edge">
<title>helpers.ts&#45;&gt;vm.ts</title>
<path fill="none" stroke="#757575" d="M19.67,-109.88C19.67,-81.82 19.67,-2 19.67,-2 19.67,-2 910.48,-2 910.48,-2"/>
<polygon fill="#757575" stroke="#757575" points="910.48,-5.5 920.48,-2 910.48,1.5 910.48,-5.5"/>
</g>
<!-- helpers.ts&#45;&gt;instruction&#45;primitives.ts -->
<g id="edge43" class="edge">
<title>helpers.ts&#45;&gt;instruction&#45;primitives.ts</title>
<path fill="none" stroke="#757575" d="M39.33,-109.95C39.33,-106.76 39.33,-104 39.33,-104 39.33,-104 857.8,-104 857.8,-104 857.8,-104 857.8,-84.06 857.8,-84.06"/>
<polygon fill="#757575" stroke="#757575" points="861.3,-84.06 857.8,-74.06 854.3,-84.06 861.3,-84.06"/>
</g>
<!-- operator&#45;parsing.ts&#45;&gt;parser.ts -->
<g id="edge59" class="edge">
<title>operator&#45;parsing.ts&#45;&gt;parser.ts</title>
<path fill="none" stroke="#757575" d="M164.5,-109.83C164.5,-93.93 164.5,-64 164.5,-64 164.5,-64 535.71,-64 535.71,-64"/>
<polygon fill="#757575" stroke="#757575" points="535.71,-67.5 545.71,-64 535.71,-60.5 535.71,-67.5"/>
</g>
<!-- array&#45;compilation.ts -->
<g id="node16" class="node">
<title>array&#45;compilation.ts</title>
<path fill="none" stroke="#c6c5fe" d="M1341.17,-129C1341.17,-129 1251.83,-129 1251.83,-129 1248.67,-129 1245.5,-125.83 1245.5,-122.67 1245.5,-122.67 1245.5,-116.33 1245.5,-116.33 1245.5,-113.17 1248.67,-110 1251.83,-110 1251.83,-110 1341.17,-110 1341.17,-110 1344.33,-110 1347.5,-113.17 1347.5,-116.33 1347.5,-116.33 1347.5,-122.67 1347.5,-122.67 1347.5,-125.83 1344.33,-129 1341.17,-129"/>
<text text-anchor="middle" x="1296.5" y="-117" font-family="Arial" font-size="10.00" fill="#c6c5fe">array&#45;compilation.ts</text>
</g>
<!-- array&#45;compilation.ts&#45;&gt;vm.ts -->
<g id="edge19" class="edge">
<title>array&#45;compilation.ts&#45;&gt;vm.ts</title>
<path fill="none" stroke="#757575" d="M1313.5,-109.69C1313.5,-82.65 1313.5,-9 1313.5,-9 1313.5,-9 984.71,-9 984.71,-9"/>
<polygon fill="#757575" stroke="#757575" points="984.71,-5.5 974.71,-9 984.71,-12.5 984.71,-5.5"/>
</g>
<!-- array&#45;compilation.ts&#45;&gt;instruction&#45;primitives.ts -->
<g id="edge18" class="edge">
<title>array&#45;compilation.ts&#45;&gt;instruction&#45;primitives.ts</title>
<path fill="none" stroke="#757575" d="M1279.5,-109.84C1279.5,-93.22 1279.5,-61 1279.5,-61 1279.5,-61 972.66,-61 972.66,-61"/>
<polygon fill="#757575" stroke="#757575" points="972.66,-57.5 962.66,-61 972.66,-64.5 972.66,-57.5"/>
</g>
<!-- instruction&#45;primitives.ts&#45;&gt;vm.ts -->
<g id="edge47" class="edge">
<title>instruction&#45;primitives.ts&#45;&gt;vm.ts</title>
<path fill="none" stroke="#757575" d="M941.5,-54.92C941.5,-54.92 941.5,-29.34 941.5,-29.34"/>
<polygon fill="#757575" stroke="#757575" points="945,-29.34 941.5,-19.34 938,-29.34 945,-29.34"/>
</g>
<!-- array&#45;helpers.ts&#45;&gt;parser.ts -->
<g id="edge21" class="edge">
<title>array&#45;helpers.ts&#45;&gt;parser.ts</title>
<path fill="none" stroke="#757575" d="M1407.5,-109.99C1407.5,-100.09 1407.5,-86 1407.5,-86 1407.5,-86 594.58,-86 594.58,-86 594.58,-86 594.58,-84.24 594.58,-84.24"/>
<polygon fill="#757575" stroke="#757575" points="598.08,-84.24 594.58,-74.24 591.08,-84.24 598.08,-84.24"/>
</g>
<!-- array&#45;helpers.ts&#45;&gt;variable&#45;types.ts -->
<g id="edge22" class="edge">
<title>array&#45;helpers.ts&#45;&gt;variable&#45;types.ts</title>
<path fill="none" stroke="#757575" d="M1449.71,-122C1514.71,-122 1631.9,-122 1631.9,-122 1631.9,-122 1631.9,-84.25 1631.9,-84.25"/>
<polygon fill="#757575" stroke="#757575" points="1635.4,-84.25 1631.9,-74.25 1628.4,-84.25 1635.4,-84.25"/>
</g>
<!-- array&#45;helpers.ts&#45;&gt;array&#45;parsing.ts -->
<g id="edge20" class="edge">
<title>array&#45;helpers.ts&#45;&gt;array&#45;parsing.ts</title>
<path fill="none" stroke="#757575" d="M1449.79,-116C1483.99,-116 1526.5,-116 1526.5,-116 1526.5,-116 1526.5,-84.43 1526.5,-84.43"/>
<polygon fill="#757575" stroke="#757575" points="1530,-84.43 1526.5,-74.43 1523,-84.43 1530,-84.43"/>
</g>
<!-- comparison&#45;parsing.ts -->
<g id="node20" class="node">
<title>comparison&#45;parsing.ts</title>
<path fill="none" stroke="#c6c5fe" d="M165.67,-184C165.67,-184 65.33,-184 65.33,-184 62.17,-184 59,-180.83 59,-177.67 59,-177.67 59,-171.33 59,-171.33 59,-168.17 62.17,-165 65.33,-165 65.33,-165 165.67,-165 165.67,-165 168.83,-165 172,-168.17 172,-171.33 172,-171.33 172,-177.67 172,-177.67 172,-180.83 168.83,-184 165.67,-184"/>
<text text-anchor="middle" x="115.5" y="-172" font-family="Arial" font-size="10.00" fill="#c6c5fe">comparison&#45;parsing.ts</text>
</g>
<!-- comparison&#45;parsing.ts&#45;&gt;parser.ts -->
<g id="edge25" class="edge">
<title>comparison&#45;parsing.ts&#45;&gt;parser.ts</title>
<path fill="none" stroke="#757575" d="M101.38,-164.65C101.38,-136.72 101.38,-59 101.38,-59 101.38,-59 535.73,-59 535.73,-59"/>
<polygon fill="#757575" stroke="#757575" points="535.73,-62.5 545.73,-59 535.73,-55.5 535.73,-62.5"/>
</g>
<!-- comparison&#45;parsing.ts&#45;&gt;vm.ts -->
<g id="edge26" class="edge">
<title>comparison&#45;parsing.ts&#45;&gt;vm.ts</title>
<path fill="none" stroke="#757575" d="M87.25,-164.84C87.25,-128.78 87.25,-4 87.25,-4 87.25,-4 910.33,-4 910.33,-4"/>
<polygon fill="#757575" stroke="#757575" points="910.33,-7.5 920.33,-4 910.33,-0.5 910.33,-7.5"/>
</g>
<!-- comparison&#45;parsing.ts&#45;&gt;helpers.ts -->
<g id="edge23" class="edge">
<title>comparison&#45;parsing.ts&#45;&gt;helpers.ts</title>
<path fill="none" stroke="#757575" d="M73.12,-164.83C73.12,-148.93 73.12,-119 73.12,-119 73.12,-119 69.32,-119 69.32,-119"/>
<polygon fill="#757575" stroke="#757575" points="69.32,-115.5 59.32,-119 69.32,-122.5 69.32,-115.5"/>
</g>
<!-- comparison&#45;parsing.ts&#45;&gt;operator&#45;parsing.ts -->
<g id="edge24" class="edge">
<title>comparison&#45;parsing.ts&#45;&gt;operator&#45;parsing.ts</title>
<path fill="none" stroke="#757575" d="M143.75,-164.92C143.75,-164.92 143.75,-139.34 143.75,-139.34"/>
<polygon fill="#757575" stroke="#757575" points="147.25,-139.34 143.75,-129.34 140.25,-139.34 147.25,-139.34"/>
</g>
<!-- expression&#45;with&#45;context.ts&#45;&gt;let&#45;binding.ts -->
<g id="edge37" class="edge">
<title>expression&#45;with&#45;context.ts&#45;&gt;let&#45;binding.ts</title>
<path fill="none" stroke="#757575" d="M711.57,-219.96C711.57,-205.57 711.57,-180 711.57,-180 711.57,-180 1080.4,-180 1080.4,-180"/>
<polygon fill="#757575" stroke="#757575" points="1080.4,-183.5 1090.4,-180 1080.4,-176.5 1080.4,-183.5"/>
</g>
<!-- expression&#45;with&#45;context.ts&#45;&gt;parser.ts -->
<g id="edge39" class="edge">
<title>expression&#45;with&#45;context.ts&#45;&gt;parser.ts</title>
<path fill="none" stroke="#757575" d="M598.62,-232C583.87,-232 572.5,-232 572.5,-232 572.5,-232 572.5,-84.48 572.5,-84.48"/>
<polygon fill="#757575" stroke="#757575" points="576,-84.48 572.5,-74.48 569,-84.48 576,-84.48"/>
</g>
<!-- expression&#45;with&#45;context.ts&#45;&gt;types.ts -->
<g id="edge40" class="edge">
<title>expression&#45;with&#45;context.ts&#45;&gt;types.ts</title>
<path fill="none" stroke="#757575" d="M656.29,-219.76C656.29,-205.09 656.29,-179 656.29,-179 656.29,-179 555.72,-179 555.72,-179"/>
<polygon fill="#757575" stroke="#757575" points="555.72,-175.5 545.72,-179 555.72,-182.5 555.72,-175.5"/>
</g>
<!-- expression&#45;with&#45;context.ts&#45;&gt;variable&#45;types.ts -->
<g id="edge41" class="edge">
<title>expression&#45;with&#45;context.ts&#45;&gt;variable&#45;types.ts</title>
<path fill="none" stroke="#757575" d="M637.86,-219.95C637.86,-216.76 637.86,-214 637.86,-214 637.86,-214 1667.5,-214 1667.5,-214 1667.5,-214 1667.5,-84.31 1667.5,-84.31"/>
<polygon fill="#757575" stroke="#757575" points="1671,-84.31 1667.5,-74.31 1664,-84.31 1671,-84.31"/>
</g>
<!-- expression&#45;with&#45;context.ts&#45;&gt;vm.ts -->
<g id="edge42" class="edge">
<title>expression&#45;with&#45;context.ts&#45;&gt;vm.ts</title>
<path fill="none" stroke="#757575" d="M693.14,-219.79C693.14,-177.31 693.14,-10 693.14,-10 693.14,-10 910.28,-10 910.28,-10"/>
<polygon fill="#757575" stroke="#757575" points="910.28,-13.5 920.28,-10 910.28,-6.5 910.28,-13.5"/>
</g>
<!-- expression&#45;with&#45;context.ts&#45;&gt;operator&#45;parsing.ts -->
<g id="edge38" class="edge">
<title>expression&#45;with&#45;context.ts&#45;&gt;operator&#45;parsing.ts</title>
<path fill="none" stroke="#757575" d="M619.43,-219.99C619.43,-210.09 619.43,-196 619.43,-196 619.43,-196 199.67,-196 199.67,-196 199.67,-196 199.67,-139.19 199.67,-139.19"/>
<polygon fill="#757575" stroke="#757575" points="203.17,-139.19 199.67,-129.19 196.17,-139.19 203.17,-139.19"/>
</g>
<!-- reassignment&#45;parsing.ts&#45;&gt;parser.ts -->
<g id="edge66" class="edge">
<title>reassignment&#45;parsing.ts&#45;&gt;parser.ts</title>
<path fill="none" stroke="#757575" d="M942.17,-109.76C942.17,-104.07 942.17,-98 942.17,-98 942.17,-98 585.75,-98 585.75,-98 585.75,-98 585.75,-84.01 585.75,-84.01"/>
<polygon fill="#757575" stroke="#757575" points="589.25,-84.01 585.75,-74.01 582.25,-84.01 589.25,-84.01"/>
</g>
<!-- reassignment&#45;parsing.ts&#45;&gt;vm.ts -->
<g id="edge67" class="edge">
<title>reassignment&#45;parsing.ts&#45;&gt;vm.ts</title>
<path fill="none" stroke="#757575" d="M970.5,-109.74C970.5,-109.74 970.5,-29.08 970.5,-29.08"/>
<polygon fill="#757575" stroke="#757575" points="974,-29.08 970.5,-19.08 967,-29.08 974,-29.08"/>
</g>
<!-- reassignment&#45;parsing.ts&#45;&gt;instruction&#45;primitives.ts -->
<g id="edge65" class="edge">
<title>reassignment&#45;parsing.ts&#45;&gt;instruction&#45;primitives.ts</title>
<path fill="none" stroke="#757575" d="M952.33,-109.92C952.33,-109.92 952.33,-84.34 952.33,-84.34"/>
<polygon fill="#757575" stroke="#757575" points="955.83,-84.34 952.33,-74.34 948.83,-84.34 955.83,-84.34"/>
</g>
<!-- slice&#45;parsing.ts&#45;&gt;parser.ts -->
<g id="edge73" class="edge">
<title>slice&#45;parsing.ts&#45;&gt;parser.ts</title>
<path fill="none" stroke="#757575" d="M753.95,-119C691.67,-119 581.33,-119 581.33,-119 581.33,-119 581.33,-84.24 581.33,-84.24"/>
<polygon fill="#757575" stroke="#757575" points="584.83,-84.24 581.33,-74.24 577.83,-84.24 584.83,-84.24"/>
</g>
<!-- slice&#45;parsing.ts&#45;&gt;vm.ts -->
<g id="edge74" class="edge">
<title>slice&#45;parsing.ts&#45;&gt;vm.ts</title>
<path fill="none" stroke="#757575" d="M795.5,-109.95C795.5,-84.33 795.5,-16 795.5,-16 795.5,-16 910.33,-16 910.33,-16"/>
<polygon fill="#757575" stroke="#757575" points="910.33,-19.5 920.33,-16 910.33,-12.5 910.33,-19.5"/>
</g>
<!-- slice&#45;parsing.ts&#45;&gt;instruction&#45;primitives.ts -->
<g id="edge72" class="edge">
<title>slice&#45;parsing.ts&#45;&gt;instruction&#45;primitives.ts</title>
<path fill="none" stroke="#757575" d="M837.32,-116C856.65,-116 875.4,-116 875.4,-116 875.4,-116 875.4,-84.43 875.4,-84.43"/>
<polygon fill="#757575" stroke="#757575" points="878.9,-84.43 875.4,-74.43 871.9,-84.43 878.9,-84.43"/>
</g>
<!-- if&#45;expression&#45;parsing.ts -->
<g id="node24" class="node">
<title>if&#45;expression&#45;parsing.ts</title>
<path fill="none" stroke="#c6c5fe" d="M1221.17,-129C1221.17,-129 1115.83,-129 1115.83,-129 1112.67,-129 1109.5,-125.83 1109.5,-122.67 1109.5,-122.67 1109.5,-116.33 1109.5,-116.33 1109.5,-113.17 1112.67,-110 1115.83,-110 1115.83,-110 1221.17,-110 1221.17,-110 1224.33,-110 1227.5,-113.17 1227.5,-116.33 1227.5,-116.33 1227.5,-122.67 1227.5,-122.67 1227.5,-125.83 1224.33,-129 1221.17,-129"/>
<text text-anchor="middle" x="1168.5" y="-117" font-family="Arial" font-size="10.00" fill="#c6c5fe">if&#45;expression&#45;parsing.ts</text>
</g>
<!-- if&#45;expression&#45;parsing.ts&#45;&gt;parser.ts -->
<g id="edge45" class="edge">
<title>if&#45;expression&#45;parsing.ts&#45;&gt;parser.ts</title>
<path fill="none" stroke="#757575" d="M1148.83,-109.88C1148.83,-101.95 1148.83,-92 1148.83,-92 1148.83,-92 590.17,-92 590.17,-92 590.17,-92 590.17,-84.12 590.17,-84.12"/>
<polygon fill="#757575" stroke="#757575" points="593.67,-84.12 590.17,-74.12 586.67,-84.12 593.67,-84.12"/>
</g>
<!-- if&#45;expression&#45;parsing.ts&#45;&gt;vm.ts -->
<g id="edge46" class="edge">
<title>if&#45;expression&#45;parsing.ts&#45;&gt;vm.ts</title>
<path fill="none" stroke="#757575" d="M1188.17,-109.96C1188.17,-83.65 1188.17,-12 1188.17,-12 1188.17,-12 984.64,-12 984.64,-12"/>
<polygon fill="#757575" stroke="#757575" points="984.64,-8.5 974.64,-12 984.64,-15.5 984.64,-8.5"/>
</g>
<!-- type&#45;inference&#45;helpers.ts&#45;&gt;parser.ts -->
<g id="edge75" class="edge">
<title>type&#45;inference&#45;helpers.ts&#45;&gt;parser.ts</title>
<path fill="none" stroke="#757575" d="M545.6,-114C548.62,-114 550.42,-114 550.42,-114 550.42,-114 550.42,-84.04 550.42,-84.04"/>
<polygon fill="#757575" stroke="#757575" points="553.92,-84.04 550.42,-74.04 546.92,-84.04 553.92,-84.04"/>
</g>
</g>
</svg>
