<?xml version="1.0" encoding="UTF-8" standalone="no"?>
<!DOCTYPE svg PUBLIC "-//W3C//DTD SVG 1.1//EN"
 "http://www.w3.org/Graphics/SVG/1.1/DTD/svg11.dtd">
<!-- Generated by graphviz version 2.43.0 (0)
 -->
<!-- Title: G Pages: 1 -->
<svg width="937pt" height="361pt"
 viewBox="0.00 0.00 936.70 361.20" xmlns="http://www.w3.org/2000/svg" xmlns:xlink="http://www.w3.org/1999/xlink">
<g id="graph0" class="graph" transform="scale(1 1) rotate(0) translate(21.6 339.6)">
<title>G</title>
<polygon fill="#111111" stroke="transparent" points="-21.6,21.6 -21.6,-339.6 915.1,-339.6 915.1,21.6 -21.6,21.6"/>
<!-- src/app.ts -->
<g id="node1" class="node">
<title>src/app.ts</title>
<path fill="none" stroke="#c6c5fe" d="M476.83,-259C476.83,-259 417.17,-259 417.17,-259 413.33,-259 409.5,-255.17 409.5,-251.33 409.5,-251.33 409.5,-243.67 409.5,-243.67 409.5,-239.83 413.33,-236 417.17,-236 417.17,-236 476.83,-236 476.83,-236 480.67,-236 484.5,-239.83 484.5,-243.67 484.5,-243.67 484.5,-251.33 484.5,-251.33 484.5,-255.17 480.67,-259 476.83,-259"/>
<text text-anchor="middle" x="447" y="-243.8" font-family="Arial" font-size="14.00" fill="#c6c5fe">src/app.ts</text>
</g>
<!-- src/expressions/binary&#45;operation.ts -->
<g id="node2" class="node">
<title>src/expressions/binary&#45;operation.ts</title>
<path fill="none" stroke="#c6c5fe" d="M218.33,-200C218.33,-200 7.67,-200 7.67,-200 3.83,-200 0,-196.17 0,-192.33 0,-192.33 0,-184.67 0,-184.67 0,-180.83 3.83,-177 7.67,-177 7.67,-177 218.33,-177 218.33,-177 222.17,-177 226,-180.83 226,-184.67 226,-184.67 226,-192.33 226,-192.33 226,-196.17 222.17,-200 218.33,-200"/>
<text text-anchor="middle" x="113" y="-184.8" font-family="Arial" font-size="14.00" fill="#c6c5fe">src/expressions/binary&#45;operation.ts</text>
</g>
<!-- src/app.ts&#45;&gt;src/expressions/binary&#45;operation.ts -->
<g id="edge1" class="edge">
<title>src/app.ts&#45;&gt;src/expressions/binary&#45;operation.ts</title>
<path fill="none" stroke="#757575" d="M409.34,-255C321.99,-255 113,-255 113,-255 113,-255 113,-210.08 113,-210.08"/>
<polygon fill="#757575" stroke="#757575" points="116.5,-210.08 113,-200.08 109.5,-210.08 116.5,-210.08"/>
</g>
<!-- src/expressions/grouped&#45;expressions.ts -->
<g id="node3" class="node">
<title>src/expressions/grouped&#45;expressions.ts</title>
<path fill="none" stroke="#c6c5fe" d="M566.33,-200C566.33,-200 327.67,-200 327.67,-200 323.83,-200 320,-196.17 320,-192.33 320,-192.33 320,-184.67 320,-184.67 320,-180.83 323.83,-177 327.67,-177 327.67,-177 566.33,-177 566.33,-177 570.17,-177 574,-180.83 574,-184.67 574,-184.67 574,-192.33 574,-192.33 574,-196.17 570.17,-200 566.33,-200"/>
<text text-anchor="middle" x="447" y="-184.8" font-family="Arial" font-size="14.00" fill="#c6c5fe">src/expressions/grouped&#45;expressions.ts</text>
</g>
<!-- src/app.ts&#45;&gt;src/expressions/grouped&#45;expressions.ts -->
<g id="edge2" class="edge">
<title>src/app.ts&#45;&gt;src/expressions/grouped&#45;expressions.ts</title>
<path fill="none" stroke="#757575" d="M447,-235.84C447,-235.84 447,-210.13 447,-210.13"/>
<polygon fill="#757575" stroke="#757575" points="450.5,-210.13 447,-200.13 443.5,-210.13 450.5,-210.13"/>
</g>
<!-- src/expressions/handlers.ts -->
<g id="node4" class="node">
<title>src/expressions/handlers.ts</title>
<path fill="none" stroke="#cfffac" d="M534.33,-82C534.33,-82 369.67,-82 369.67,-82 365.83,-82 362,-78.17 362,-74.33 362,-74.33 362,-66.67 362,-66.67 362,-62.83 365.83,-59 369.67,-59 369.67,-59 534.33,-59 534.33,-59 538.17,-59 542,-62.83 542,-66.67 542,-66.67 542,-74.33 542,-74.33 542,-78.17 538.17,-82 534.33,-82"/>
<text text-anchor="middle" x="452" y="-66.8" font-family="Arial" font-size="14.00" fill="#cfffac">src/expressions/handlers.ts</text>
</g>
<!-- src/app.ts&#45;&gt;src/expressions/handlers.ts -->
<g id="edge3" class="edge">
<title>src/app.ts&#45;&gt;src/expressions/handlers.ts</title>
<path fill="none" stroke="#757575" d="M409.21,-243C365.28,-243 298.75,-243 298.75,-243 298.75,-243 298.75,-78 298.75,-78 298.75,-78 351.97,-78 351.97,-78"/>
<polygon fill="#757575" stroke="#757575" points="351.97,-81.5 361.97,-78 351.97,-74.5 351.97,-81.5"/>
</g>
<!-- src/loops/for.ts -->
<g id="node5" class="node">
<title>src/loops/for.ts</title>
<path fill="none" stroke="#c6c5fe" d="M864.33,-200C864.33,-200 775.67,-200 775.67,-200 771.83,-200 768,-196.17 768,-192.33 768,-192.33 768,-184.67 768,-184.67 768,-180.83 771.83,-177 775.67,-177 775.67,-177 864.33,-177 864.33,-177 868.17,-177 872,-180.83 872,-184.67 872,-184.67 872,-192.33 872,-192.33 872,-196.17 868.17,-200 864.33,-200"/>
<text text-anchor="middle" x="820" y="-184.8" font-family="Arial" font-size="14.00" fill="#c6c5fe">src/loops/for.ts</text>
</g>
<!-- src/app.ts&#45;&gt;src/loops/for.ts -->
<g id="edge4" class="edge">
<title>src/app.ts&#45;&gt;src/loops/for.ts</title>
<path fill="none" stroke="#757575" d="M484.82,-253C579.65,-253 820,-253 820,-253 820,-253 820,-210.03 820,-210.03"/>
<polygon fill="#757575" stroke="#757575" points="823.5,-210.03 820,-200.03 816.5,-210.03 823.5,-210.03"/>
</g>
<!-- src/loops/loop.ts -->
<g id="node6" class="node">
<title>src/loops/loop.ts</title>
<path fill="none" stroke="#cfffac" d="M595.33,-141C595.33,-141 496.67,-141 496.67,-141 492.83,-141 489,-137.17 489,-133.33 489,-133.33 489,-125.67 489,-125.67 489,-121.83 492.83,-118 496.67,-118 496.67,-118 595.33,-118 595.33,-118 599.17,-118 603,-121.83 603,-125.67 603,-125.67 603,-133.33 603,-133.33 603,-137.17 599.17,-141 595.33,-141"/>
<text text-anchor="middle" x="546" y="-125.8" font-family="Arial" font-size="14.00" fill="#cfffac">src/loops/loop.ts</text>
</g>
<!-- src/app.ts&#45;&gt;src/loops/loop.ts -->
<g id="edge5" class="edge">
<title>src/app.ts&#45;&gt;src/loops/loop.ts</title>
<path fill="none" stroke="#757575" d="M484.75,-241C524.46,-241 581.25,-241 581.25,-241 581.25,-241 581.25,-151.01 581.25,-151.01"/>
<polygon fill="#757575" stroke="#757575" points="584.75,-151.01 581.25,-141.01 577.75,-151.01 584.75,-151.01"/>
</g>
<!-- src/loops/while.ts -->
<g id="node7" class="node">
<title>src/loops/while.ts</title>
<path fill="none" stroke="#c6c5fe" d="M741.83,-200C741.83,-200 638.17,-200 638.17,-200 634.33,-200 630.5,-196.17 630.5,-192.33 630.5,-192.33 630.5,-184.67 630.5,-184.67 630.5,-180.83 634.33,-177 638.17,-177 638.17,-177 741.83,-177 741.83,-177 745.67,-177 749.5,-180.83 749.5,-184.67 749.5,-184.67 749.5,-192.33 749.5,-192.33 749.5,-196.17 745.67,-200 741.83,-200"/>
<text text-anchor="middle" x="690" y="-184.8" font-family="Arial" font-size="14.00" fill="#c6c5fe">src/loops/while.ts</text>
</g>
<!-- src/app.ts&#45;&gt;src/loops/while.ts -->
<g id="edge6" class="edge">
<title>src/app.ts&#45;&gt;src/loops/while.ts</title>
<path fill="none" stroke="#757575" d="M484.7,-247C552.96,-247 690,-247 690,-247 690,-247 690,-210.06 690,-210.06"/>
<polygon fill="#757575" stroke="#757575" points="693.5,-210.06 690,-200.06 686.5,-210.06 693.5,-210.06"/>
</g>
<!-- src/match.ts -->
<g id="node8" class="node">
<title>src/match.ts</title>
<path fill="none" stroke="#cfffac" d="M416.33,-141C416.33,-141 341.67,-141 341.67,-141 337.83,-141 334,-137.17 334,-133.33 334,-133.33 334,-125.67 334,-125.67 334,-121.83 337.83,-118 341.67,-118 341.67,-118 416.33,-118 416.33,-118 420.17,-118 424,-121.83 424,-125.67 424,-125.67 424,-133.33 424,-133.33 424,-137.17 420.17,-141 416.33,-141"/>
<text text-anchor="middle" x="379" y="-125.8" font-family="Arial" font-size="14.00" fill="#cfffac">src/match.ts</text>
</g>
<!-- src/app.ts&#45;&gt;src/match.ts -->
<g id="edge7" class="edge">
<title>src/app.ts&#45;&gt;src/match.ts</title>
<path fill="none" stroke="#757575" d="M409.39,-239C368.65,-239 309.38,-239 309.38,-239 309.38,-239 309.38,-129 309.38,-129 309.38,-129 323.73,-129 323.73,-129"/>
<polygon fill="#757575" stroke="#757575" points="323.73,-132.5 333.73,-129 323.73,-125.5 323.73,-132.5"/>
</g>
<!-- src/parser.ts -->
<g id="node9" class="node">
<title>src/parser.ts</title>
<path fill="none" stroke="#c6c5fe" d="M115.33,-82C115.33,-82 40.67,-82 40.67,-82 36.83,-82 33,-78.17 33,-74.33 33,-74.33 33,-66.67 33,-66.67 33,-62.83 36.83,-59 40.67,-59 40.67,-59 115.33,-59 115.33,-59 119.17,-59 123,-62.83 123,-66.67 123,-66.67 123,-74.33 123,-74.33 123,-78.17 119.17,-82 115.33,-82"/>
<text text-anchor="middle" x="78" y="-66.8" font-family="Arial" font-size="14.00" fill="#c6c5fe">src/parser.ts</text>
</g>
<!-- src/app.ts&#45;&gt;src/parser.ts -->
<g id="edge8" class="edge">
<title>src/app.ts&#45;&gt;src/parser.ts</title>
<path fill="none" stroke="#757575" d="M409.35,-247C362.37,-247 288.12,-247 288.12,-247 288.12,-247 288.12,-62 288.12,-62 288.12,-62 133.08,-62 133.08,-62"/>
<polygon fill="#757575" stroke="#757575" points="133.08,-58.5 123.08,-62 133.08,-65.5 133.08,-58.5"/>
</g>
<!-- src/scope.ts -->
<g id="node10" class="node">
<title>src/scope.ts</title>
<path fill="none" stroke="#c6c5fe" d="M269.83,-141C269.83,-141 196.17,-141 196.17,-141 192.33,-141 188.5,-137.17 188.5,-133.33 188.5,-133.33 188.5,-125.67 188.5,-125.67 188.5,-121.83 192.33,-118 196.17,-118 196.17,-118 269.83,-118 269.83,-118 273.67,-118 277.5,-121.83 277.5,-125.67 277.5,-125.67 277.5,-133.33 277.5,-133.33 277.5,-137.17 273.67,-141 269.83,-141"/>
<text text-anchor="middle" x="233" y="-125.8" font-family="Arial" font-size="14.00" fill="#c6c5fe">src/scope.ts</text>
</g>
<!-- src/app.ts&#45;&gt;src/scope.ts -->
<g id="edge9" class="edge">
<title>src/app.ts&#45;&gt;src/scope.ts</title>
<path fill="none" stroke="#757575" d="M409.35,-251C352.62,-251 251.75,-251 251.75,-251 251.75,-251 251.75,-151.15 251.75,-151.15"/>
<polygon fill="#757575" stroke="#757575" points="255.25,-151.15 251.75,-141.15 248.25,-151.15 255.25,-151.15"/>
</g>
<!-- src/expressions/binary&#45;operation.ts&#45;&gt;src/expressions/handlers.ts -->
<g id="edge10" class="edge">
<title>src/expressions/binary&#45;operation.ts&#45;&gt;src/expressions/handlers.ts</title>
<path fill="none" stroke="#757575" d="M176.17,-176.7C176.17,-146.73 176.17,-70 176.17,-70 176.17,-70 351.68,-70 351.68,-70"/>
<polygon fill="#757575" stroke="#757575" points="351.68,-73.5 361.68,-70 351.68,-66.5 351.68,-73.5"/>
</g>
<!-- src/expressions/binary&#45;operation.ts&#45;&gt;src/parser.ts -->
<g id="edge12" class="edge">
<title>src/expressions/binary&#45;operation.ts&#45;&gt;src/parser.ts</title>
<path fill="none" stroke="#757575" d="M46.5,-176.75C46.5,-176.75 46.5,-92.2 46.5,-92.2"/>
<polygon fill="#757575" stroke="#757575" points="50,-92.2 46.5,-82.2 43,-92.2 50,-92.2"/>
</g>
<!-- src/operators.ts -->
<g id="node11" class="node">
<title>src/operators.ts</title>
<path fill="none" stroke="#c6c5fe" d="M162.33,-141C162.33,-141 67.67,-141 67.67,-141 63.83,-141 60,-137.17 60,-133.33 60,-133.33 60,-125.67 60,-125.67 60,-121.83 63.83,-118 67.67,-118 67.67,-118 162.33,-118 162.33,-118 166.17,-118 170,-121.83 170,-125.67 170,-125.67 170,-133.33 170,-133.33 170,-137.17 166.17,-141 162.33,-141"/>
<text text-anchor="middle" x="115" y="-125.8" font-family="Arial" font-size="14.00" fill="#c6c5fe">src/operators.ts</text>
</g>
<!-- src/expressions/binary&#45;operation.ts&#45;&gt;src/operators.ts -->
<g id="edge11" class="edge">
<title>src/expressions/binary&#45;operation.ts&#45;&gt;src/operators.ts</title>
<path fill="none" stroke="#757575" d="M115,-176.84C115,-176.84 115,-151.13 115,-151.13"/>
<polygon fill="#757575" stroke="#757575" points="118.5,-151.13 115,-141.13 111.5,-151.13 118.5,-151.13"/>
</g>
<!-- src/expressions/grouped&#45;expressions.ts&#45;&gt;src/expressions/handlers.ts -->
<g id="edge13" class="edge">
<title>src/expressions/grouped&#45;expressions.ts&#45;&gt;src/expressions/handlers.ts</title>
<path fill="none" stroke="#757575" d="M456.5,-176.75C456.5,-176.75 456.5,-92.2 456.5,-92.2"/>
<polygon fill="#757575" stroke="#757575" points="460,-92.2 456.5,-82.2 453,-92.2 460,-92.2"/>
</g>
<!-- src/expressions/grouped&#45;expressions.ts&#45;&gt;src/match.ts -->
<g id="edge14" class="edge">
<title>src/expressions/grouped&#45;expressions.ts&#45;&gt;src/match.ts</title>
<path fill="none" stroke="#757575" d="M379,-176.84C379,-176.84 379,-151.13 379,-151.13"/>
<polygon fill="#757575" stroke="#757575" points="382.5,-151.13 379,-141.13 375.5,-151.13 382.5,-151.13"/>
</g>
<!-- src/loops/for.ts&#45;&gt;src/loops/loop.ts -->
<g id="edge16" class="edge">
<title>src/loops/for.ts&#45;&gt;src/loops/loop.ts</title>
<path fill="none" stroke="#757575" d="M802.67,-176.84C802.67,-168.6 802.67,-159 802.67,-159 802.67,-159 595.75,-159 595.75,-159 595.75,-159 595.75,-151.16 595.75,-151.16"/>
<polygon fill="#757575" stroke="#757575" points="599.25,-151.16 595.75,-141.16 592.25,-151.16 599.25,-151.16"/>
</g>
<!-- src/loops/helpers.ts -->
<g id="node12" class="node">
<title>src/loops/helpers.ts</title>
<path fill="none" stroke="#cfffac" d="M885.83,-141C885.83,-141 768.17,-141 768.17,-141 764.33,-141 760.5,-137.17 760.5,-133.33 760.5,-133.33 760.5,-125.67 760.5,-125.67 760.5,-121.83 764.33,-118 768.17,-118 768.17,-118 885.83,-118 885.83,-118 889.67,-118 893.5,-121.83 893.5,-125.67 893.5,-125.67 893.5,-133.33 893.5,-133.33 893.5,-137.17 889.67,-141 885.83,-141"/>
<text text-anchor="middle" x="827" y="-125.8" font-family="Arial" font-size="14.00" fill="#cfffac">src/loops/helpers.ts</text>
</g>
<!-- src/loops/for.ts&#45;&gt;src/loops/helpers.ts -->
<g id="edge15" class="edge">
<title>src/loops/for.ts&#45;&gt;src/loops/helpers.ts</title>
<path fill="none" stroke="#757575" d="M837.33,-176.84C837.33,-176.84 837.33,-151.13 837.33,-151.13"/>
<polygon fill="#757575" stroke="#757575" points="840.83,-151.13 837.33,-141.13 833.83,-151.13 840.83,-151.13"/>
</g>
<!-- src/loops/types.ts -->
<g id="node13" class="node">
<title>src/loops/types.ts</title>
<path fill="none" stroke="#c6c5fe" d="M734.83,-141C734.83,-141 629.17,-141 629.17,-141 625.33,-141 621.5,-137.17 621.5,-133.33 621.5,-133.33 621.5,-125.67 621.5,-125.67 621.5,-121.83 625.33,-118 629.17,-118 629.17,-118 734.83,-118 734.83,-118 738.67,-118 742.5,-121.83 742.5,-125.67 742.5,-125.67 742.5,-133.33 742.5,-133.33 742.5,-137.17 738.67,-141 734.83,-141"/>
<text text-anchor="middle" x="682" y="-125.8" font-family="Arial" font-size="14.00" fill="#c6c5fe">src/loops/types.ts</text>
</g>
<!-- src/loops/for.ts&#45;&gt;src/loops/types.ts -->
<g id="edge17" class="edge">
<title>src/loops/for.ts&#45;&gt;src/loops/types.ts</title>
<path fill="none" stroke="#757575" d="M767.84,-192C760.29,-192 755,-192 755,-192 755,-192 755,-129 755,-129 755,-129 752.62,-129 752.62,-129"/>
<polygon fill="#757575" stroke="#757575" points="752.62,-125.5 742.62,-129 752.62,-132.5 752.62,-125.5"/>
</g>
<!-- src/loops/while.ts&#45;&gt;src/loops/loop.ts -->
<g id="edge20" class="edge">
<title>src/loops/while.ts&#45;&gt;src/loops/loop.ts</title>
<path fill="none" stroke="#757575" d="M630.37,-188C608.28,-188 588.5,-188 588.5,-188 588.5,-188 588.5,-151.06 588.5,-151.06"/>
<polygon fill="#757575" stroke="#757575" points="592,-151.06 588.5,-141.06 585,-151.06 592,-151.06"/>
</g>
<!-- src/loops/while.ts&#45;&gt;src/loops/helpers.ts -->
<g id="edge19" class="edge">
<title>src/loops/while.ts&#45;&gt;src/loops/helpers.ts</title>
<path fill="none" stroke="#757575" d="M749.58,-184C758.21,-184 764.25,-184 764.25,-184 764.25,-184 764.25,-151.06 764.25,-151.06"/>
<polygon fill="#757575" stroke="#757575" points="767.75,-151.06 764.25,-141.06 760.75,-151.06 767.75,-151.06"/>
</g>
<!-- src/loops/while.ts&#45;&gt;src/loops/types.ts -->
<g id="edge21" class="edge">
<title>src/loops/while.ts&#45;&gt;src/loops/types.ts</title>
<path fill="none" stroke="#757575" d="M686.5,-176.84C686.5,-176.84 686.5,-151.13 686.5,-151.13"/>
<polygon fill="#757575" stroke="#757575" points="690,-151.13 686.5,-141.13 683,-151.13 690,-151.13"/>
</g>
<!-- src/types.ts -->
<g id="node14" class="node">
<title>src/types.ts</title>
<path fill="none" stroke="#cfffac" d="M185.83,-23C185.83,-23 116.17,-23 116.17,-23 112.33,-23 108.5,-19.17 108.5,-15.33 108.5,-15.33 108.5,-7.67 108.5,-7.67 108.5,-3.83 112.33,0 116.17,0 116.17,0 185.83,0 185.83,0 189.67,0 193.5,-3.83 193.5,-7.67 193.5,-7.67 193.5,-15.33 193.5,-15.33 193.5,-19.17 189.67,-23 185.83,-23"/>
<text text-anchor="middle" x="151" y="-7.8" font-family="Arial" font-size="14.00" fill="#cfffac">src/types.ts</text>
</g>
<!-- src/parser.ts&#45;&gt;src/types.ts -->
<g id="edge24" class="edge">
<title>src/parser.ts&#45;&gt;src/types.ts</title>
<path fill="none" stroke="#757575" d="M115.75,-58.84C115.75,-58.84 115.75,-33.13 115.75,-33.13"/>
<polygon fill="#757575" stroke="#757575" points="119.25,-33.13 115.75,-23.13 112.25,-33.13 119.25,-33.13"/>
</g>
<!-- src/scope.ts&#45;&gt;src/expressions/handlers.ts -->
<g id="edge25" class="edge">
<title>src/scope.ts&#45;&gt;src/expressions/handlers.ts</title>
<path fill="none" stroke="#757575" d="M249.5,-117.73C249.5,-101.44 249.5,-74 249.5,-74 249.5,-74 351.71,-74 351.71,-74"/>
<polygon fill="#757575" stroke="#757575" points="351.71,-77.5 361.71,-74 351.71,-70.5 351.71,-77.5"/>
</g>
<!-- src/scope.ts&#45;&gt;src/parser.ts -->
<g id="edge26" class="edge">
<title>src/scope.ts&#45;&gt;src/parser.ts</title>
<path fill="none" stroke="#757575" d="M221.5,-117.85C221.5,-99.52 221.5,-66 221.5,-66 221.5,-66 133.01,-66 133.01,-66"/>
<polygon fill="#757575" stroke="#757575" points="133.01,-62.5 123.01,-66 133.01,-69.5 133.01,-62.5"/>
</g>
<!-- src/scope.ts&#45;&gt;src/types.ts -->
<g id="edge27" class="edge">
<title>src/scope.ts&#45;&gt;src/types.ts</title>
<path fill="none" stroke="#757575" d="M188.15,-129C184.59,-129 182.33,-129 182.33,-129 182.33,-129 182.33,-33.2 182.33,-33.2"/>
<polygon fill="#757575" stroke="#757575" points="185.83,-33.2 182.33,-23.2 178.83,-33.2 185.83,-33.2"/>
</g>
<!-- src/operators.ts&#45;&gt;src/parser.ts -->
<g id="edge22" class="edge">
<title>src/operators.ts&#45;&gt;src/parser.ts</title>
<path fill="none" stroke="#757575" d="M91.5,-117.84C91.5,-117.84 91.5,-92.13 91.5,-92.13"/>
<polygon fill="#757575" stroke="#757575" points="95,-92.13 91.5,-82.13 88,-92.13 95,-92.13"/>
</g>
<!-- src/operators.ts&#45;&gt;src/types.ts -->
<g id="edge23" class="edge">
<title>src/operators.ts&#45;&gt;src/types.ts</title>
<path fill="none" stroke="#757575" d="M146.5,-117.75C146.5,-117.75 146.5,-33.2 146.5,-33.2"/>
<polygon fill="#757575" stroke="#757575" points="150,-33.2 146.5,-23.2 143,-33.2 150,-33.2"/>
</g>
<!-- src/loops/types.ts&#45;&gt;src/expressions/handlers.ts -->
<g id="edge18" class="edge">
<title>src/loops/types.ts&#45;&gt;src/expressions/handlers.ts</title>
<path fill="none" stroke="#757575" d="M682,-117.74C682,-100.4 682,-70 682,-70 682,-70 552.24,-70 552.24,-70"/>
<polygon fill="#757575" stroke="#757575" points="552.24,-66.5 542.24,-70 552.24,-73.5 552.24,-66.5"/>
</g>
<!-- tests/app.test.ts -->
<g id="node15" class="node">
<title>tests/app.test.ts</title>
<path fill="none" stroke="#c6c5fe" d="M494.83,-318C494.83,-318 399.17,-318 399.17,-318 395.33,-318 391.5,-314.17 391.5,-310.33 391.5,-310.33 391.5,-302.67 391.5,-302.67 391.5,-298.83 395.33,-295 399.17,-295 399.17,-295 494.83,-295 494.83,-295 498.67,-295 502.5,-298.83 502.5,-302.67 502.5,-302.67 502.5,-310.33 502.5,-310.33 502.5,-314.17 498.67,-318 494.83,-318"/>
<text text-anchor="middle" x="447" y="-302.8" font-family="Arial" font-size="14.00" fill="#c6c5fe">tests/app.test.ts</text>
</g>
<!-- tests/app.test.ts&#45;&gt;src/app.ts -->
<g id="edge28" class="edge">
<title>tests/app.test.ts&#45;&gt;src/app.ts</title>
<path fill="none" stroke="#757575" d="M447,-294.84C447,-294.84 447,-269.13 447,-269.13"/>
<polygon fill="#757575" stroke="#757575" points="450.5,-269.13 447,-259.13 443.5,-269.13 450.5,-269.13"/>
</g>
</g>
</svg>
