<?xml version="1.0" encoding="UTF-8" standalone="no"?>
<!DOCTYPE svg PUBLIC "-//W3C//DTD SVG 1.1//EN"
 "http://www.w3.org/Graphics/SVG/1.1/DTD/svg11.dtd">
<!-- Generated by graphviz version 2.43.0 (0)
 -->
<!-- Title: G Pages: 1 -->
<svg width="179pt" height="172pt"
 viewBox="0.00 0.00 179.20 172.20" xmlns="http://www.w3.org/2000/svg" xmlns:xlink="http://www.w3.org/1999/xlink">
<g id="graph0" class="graph" transform="scale(1 1) rotate(0) translate(21.6 150.6)">
<title>G</title>
<polygon fill="#111111" stroke="transparent" points="-21.6,21.6 -21.6,-150.6 157.6,-150.6 157.6,21.6 -21.6,21.6"/>
<!-- error.ts -->
<g id="node1" class="node">
<title>error.ts</title>
<path fill="none" stroke="#cfffac" d="M47.67,-19C47.67,-19 6.33,-19 6.33,-19 3.17,-19 0,-15.83 0,-12.67 0,-12.67 0,-6.33 0,-6.33 0,-3.17 3.17,0 6.33,0 6.33,0 47.67,0 47.67,0 50.83,0 54,-3.17 54,-6.33 54,-6.33 54,-12.67 54,-12.67 54,-15.83 50.83,-19 47.67,-19"/>
<text text-anchor="middle" x="27" y="-7" font-family="Arial" font-size="10.00" fill="#cfffac">error.ts</text>
</g>
<!-- intepret.ts -->
<g id="node2" class="node">
<title>intepret.ts</title>
<path fill="none" stroke="#c6c5fe" d="M86.67,-129C86.67,-129 39.33,-129 39.33,-129 36.17,-129 33,-125.83 33,-122.67 33,-122.67 33,-116.33 33,-116.33 33,-113.17 36.17,-110 39.33,-110 39.33,-110 86.67,-110 86.67,-110 89.83,-110 93,-113.17 93,-116.33 93,-116.33 93,-122.67 93,-122.67 93,-125.83 89.83,-129 86.67,-129"/>
<text text-anchor="middle" x="63" y="-117" font-family="Arial" font-size="10.00" fill="#c6c5fe">intepret.ts</text>
</g>
<!-- intepret.ts&#45;&gt;error.ts -->
<g id="edge1" class="edge">
<title>intepret.ts&#45;&gt;error.ts</title>
<path fill="none" stroke="#757575" d="M32.76,-119C23.88,-119 16.5,-119 16.5,-119 16.5,-119 16.5,-29.22 16.5,-29.22"/>
<polygon fill="#757575" stroke="#757575" points="20,-29.22 16.5,-19.22 13,-29.22 20,-29.22"/>
</g>
<!-- parser.ts -->
<g id="node3" class="node">
<title>parser.ts</title>
<path fill="none" stroke="#c6c5fe" d="M84.17,-74C84.17,-74 41.83,-74 41.83,-74 38.67,-74 35.5,-70.83 35.5,-67.67 35.5,-67.67 35.5,-61.33 35.5,-61.33 35.5,-58.17 38.67,-55 41.83,-55 41.83,-55 84.17,-55 84.17,-55 87.33,-55 90.5,-58.17 90.5,-61.33 90.5,-61.33 90.5,-67.67 90.5,-67.67 90.5,-70.83 87.33,-74 84.17,-74"/>
<text text-anchor="middle" x="63" y="-62" font-family="Arial" font-size="10.00" fill="#c6c5fe">parser.ts</text>
</g>
<!-- intepret.ts&#45;&gt;parser.ts -->
<g id="edge2" class="edge">
<title>intepret.ts&#45;&gt;parser.ts</title>
<path fill="none" stroke="#757575" d="M63,-109.92C63,-109.92 63,-84.34 63,-84.34"/>
<polygon fill="#757575" stroke="#757575" points="66.5,-84.34 63,-74.34 59.5,-84.34 66.5,-84.34"/>
</g>
<!-- result.ts -->
<g id="node4" class="node">
<title>result.ts</title>
<path fill="none" stroke="#cfffac" d="M129.67,-19C129.67,-19 88.33,-19 88.33,-19 85.17,-19 82,-15.83 82,-12.67 82,-12.67 82,-6.33 82,-6.33 82,-3.17 85.17,0 88.33,0 88.33,0 129.67,0 129.67,0 132.83,0 136,-3.17 136,-6.33 136,-6.33 136,-12.67 136,-12.67 136,-15.83 132.83,-19 129.67,-19"/>
<text text-anchor="middle" x="109" y="-7" font-family="Arial" font-size="10.00" fill="#cfffac">result.ts</text>
</g>
<!-- intepret.ts&#45;&gt;result.ts -->
<g id="edge3" class="edge">
<title>intepret.ts&#45;&gt;result.ts</title>
<path fill="none" stroke="#757575" d="M93.26,-119C104.47,-119 114.5,-119 114.5,-119 114.5,-119 114.5,-29.22 114.5,-29.22"/>
<polygon fill="#757575" stroke="#757575" points="118,-29.22 114.5,-19.22 111,-29.22 118,-29.22"/>
</g>
<!-- parser.ts&#45;&gt;error.ts -->
<g id="edge4" class="edge">
<title>parser.ts&#45;&gt;error.ts</title>
<path fill="none" stroke="#757575" d="M44.75,-54.92C44.75,-54.92 44.75,-29.34 44.75,-29.34"/>
<polygon fill="#757575" stroke="#757575" points="48.25,-29.34 44.75,-19.34 41.25,-29.34 48.25,-29.34"/>
</g>
<!-- parser.ts&#45;&gt;result.ts -->
<g id="edge5" class="edge">
<title>parser.ts&#45;&gt;result.ts</title>
<path fill="none" stroke="#757575" d="M86.25,-54.92C86.25,-54.92 86.25,-29.34 86.25,-29.34"/>
<polygon fill="#757575" stroke="#757575" points="89.75,-29.34 86.25,-19.34 82.75,-29.34 89.75,-29.34"/>
</g>
</g>
</svg>
