<?xml version="1.0" encoding="UTF-8" standalone="no"?>
<!DOCTYPE svg PUBLIC "-//W3C//DTD SVG 1.1//EN"
 "http://www.w3.org/Graphics/SVG/1.1/DTD/svg11.dtd">
<!-- Generated by graphviz version 2.43.0 (0)
 -->
<!-- Title: G Pages: 1 -->
<svg width="1645pt" height="479pt"
 viewBox="0.00 0.00 1644.70 479.20" xmlns="http://www.w3.org/2000/svg" xmlns:xlink="http://www.w3.org/1999/xlink">
<g id="graph0" class="graph" transform="scale(1 1) rotate(0) translate(21.6 457.6)">
<title>G</title>
<polygon fill="#111111" stroke="transparent" points="-21.6,21.6 -21.6,-457.6 1623.1,-457.6 1623.1,21.6 -21.6,21.6"/>
<!-- src/app.ts -->
<g id="node1" class="node">
<title>src/app.ts</title>
<path fill="none" stroke="#c6c5fe" d="M927.33,-318C927.33,-318 867.67,-318 867.67,-318 863.83,-318 860,-314.17 860,-310.33 860,-310.33 860,-302.67 860,-302.67 860,-298.83 863.83,-295 867.67,-295 867.67,-295 927.33,-295 927.33,-295 931.17,-295 935,-298.83 935,-302.67 935,-302.67 935,-310.33 935,-310.33 935,-314.17 931.17,-318 927.33,-318"/>
<text text-anchor="middle" x="897.5" y="-302.8" font-family="Arial" font-size="14.00" fill="#c6c5fe">src/app.ts</text>
</g>
<!-- src/expressions/binary&#45;operation.ts -->
<g id="node2" class="node">
<title>src/expressions/binary&#45;operation.ts</title>
<path fill="none" stroke="#c6c5fe" d="M865.83,-259C865.83,-259 655.17,-259 655.17,-259 651.33,-259 647.5,-255.17 647.5,-251.33 647.5,-251.33 647.5,-243.67 647.5,-243.67 647.5,-239.83 651.33,-236 655.17,-236 655.17,-236 865.83,-236 865.83,-236 869.67,-236 873.5,-239.83 873.5,-243.67 873.5,-243.67 873.5,-251.33 873.5,-251.33 873.5,-255.17 869.67,-259 865.83,-259"/>
<text text-anchor="middle" x="760.5" y="-243.8" font-family="Arial" font-size="14.00" fill="#c6c5fe">src/expressions/binary&#45;operation.ts</text>
</g>
<!-- src/app.ts&#45;&gt;src/expressions/binary&#45;operation.ts -->
<g id="edge1" class="edge">
<title>src/app.ts&#45;&gt;src/expressions/binary&#45;operation.ts</title>
<path fill="none" stroke="#757575" d="M866.75,-294.84C866.75,-294.84 866.75,-269.13 866.75,-269.13"/>
<polygon fill="#757575" stroke="#757575" points="870.25,-269.13 866.75,-259.13 863.25,-269.13 870.25,-269.13"/>
</g>
<!-- src/expressions/grouped&#45;expressions.ts -->
<g id="node3" class="node">
<title>src/expressions/grouped&#45;expressions.ts</title>
<path fill="none" stroke="#c6c5fe" d="M1094.83,-200C1094.83,-200 856.17,-200 856.17,-200 852.33,-200 848.5,-196.17 848.5,-192.33 848.5,-192.33 848.5,-184.67 848.5,-184.67 848.5,-180.83 852.33,-177 856.17,-177 856.17,-177 1094.83,-177 1094.83,-177 1098.67,-177 1102.5,-180.83 1102.5,-184.67 1102.5,-184.67 1102.5,-192.33 1102.5,-192.33 1102.5,-196.17 1098.67,-200 1094.83,-200"/>
<text text-anchor="middle" x="975.5" y="-184.8" font-family="Arial" font-size="14.00" fill="#c6c5fe">src/expressions/grouped&#45;expressions.ts</text>
</g>
<!-- src/app.ts&#45;&gt;src/expressions/grouped&#45;expressions.ts -->
<g id="edge2" class="edge">
<title>src/app.ts&#45;&gt;src/expressions/grouped&#45;expressions.ts</title>
<path fill="none" stroke="#757575" d="M904.25,-294.75C904.25,-294.75 904.25,-210.2 904.25,-210.2"/>
<polygon fill="#757575" stroke="#757575" points="907.75,-210.2 904.25,-200.2 900.75,-210.2 907.75,-210.2"/>
</g>
<!-- src/expressions/handlers.ts -->
<g id="node4" class="node">
<title>src/expressions/handlers.ts</title>
<path fill="none" stroke="#cfffac" d="M1009.83,-23C1009.83,-23 845.17,-23 845.17,-23 841.33,-23 837.5,-19.17 837.5,-15.33 837.5,-15.33 837.5,-7.67 837.5,-7.67 837.5,-3.83 841.33,0 845.17,0 845.17,0 1009.83,0 1009.83,0 1013.67,0 1017.5,-3.83 1017.5,-7.67 1017.5,-7.67 1017.5,-15.33 1017.5,-15.33 1017.5,-19.17 1013.67,-23 1009.83,-23"/>
<text text-anchor="middle" x="927.5" y="-7.8" font-family="Arial" font-size="14.00" fill="#cfffac">src/expressions/handlers.ts</text>
</g>
<!-- src/app.ts&#45;&gt;src/expressions/handlers.ts -->
<g id="edge3" class="edge">
<title>src/app.ts&#45;&gt;src/expressions/handlers.ts</title>
<path fill="none" stroke="#757575" d="M935.22,-304C1009.75,-304 1168.75,-304 1168.75,-304 1168.75,-304 1168.75,-15 1168.75,-15 1168.75,-15 1027.68,-15 1027.68,-15"/>
<polygon fill="#757575" stroke="#757575" points="1027.68,-11.5 1017.68,-15 1027.68,-18.5 1027.68,-11.5"/>
</g>
<!-- src/functions.ts -->
<g id="node5" class="node">
<title>src/functions.ts</title>
<path fill="none" stroke="#c6c5fe" d="M308.33,-141C308.33,-141 216.67,-141 216.67,-141 212.83,-141 209,-137.17 209,-133.33 209,-133.33 209,-125.67 209,-125.67 209,-121.83 212.83,-118 216.67,-118 216.67,-118 308.33,-118 308.33,-118 312.17,-118 316,-121.83 316,-125.67 316,-125.67 316,-133.33 316,-133.33 316,-137.17 312.17,-141 308.33,-141"/>
<text text-anchor="middle" x="262.5" y="-125.8" font-family="Arial" font-size="14.00" fill="#c6c5fe">src/functions.ts</text>
</g>
<!-- src/app.ts&#45;&gt;src/functions.ts -->
<g id="edge4" class="edge">
<title>src/app.ts&#45;&gt;src/functions.ts</title>
<path fill="none" stroke="#757575" d="M859.77,-304C740.36,-304 378.62,-304 378.62,-304 378.62,-304 378.62,-129 378.62,-129 378.62,-129 326.14,-129 326.14,-129"/>
<polygon fill="#757575" stroke="#757575" points="326.14,-125.5 316.14,-129 326.14,-132.5 326.14,-125.5"/>
</g>
<!-- src/loops/for.ts -->
<g id="node6" class="node">
<title>src/loops/for.ts</title>
<path fill="none" stroke="#c6c5fe" d="M1448.83,-259C1448.83,-259 1360.17,-259 1360.17,-259 1356.33,-259 1352.5,-255.17 1352.5,-251.33 1352.5,-251.33 1352.5,-243.67 1352.5,-243.67 1352.5,-239.83 1356.33,-236 1360.17,-236 1360.17,-236 1448.83,-236 1448.83,-236 1452.67,-236 1456.5,-239.83 1456.5,-243.67 1456.5,-243.67 1456.5,-251.33 1456.5,-251.33 1456.5,-255.17 1452.67,-259 1448.83,-259"/>
<text text-anchor="middle" x="1404.5" y="-243.8" font-family="Arial" font-size="14.00" fill="#c6c5fe">src/loops/for.ts</text>
</g>
<!-- src/app.ts&#45;&gt;src/loops/for.ts -->
<g id="edge5" class="edge">
<title>src/app.ts&#45;&gt;src/loops/for.ts</title>
<path fill="none" stroke="#757575" d="M935.19,-308C1052.69,-308 1404.5,-308 1404.5,-308 1404.5,-308 1404.5,-269.17 1404.5,-269.17"/>
<polygon fill="#757575" stroke="#757575" points="1408,-269.16 1404.5,-259.17 1401,-269.17 1408,-269.16"/>
</g>
<!-- src/loops/loop.ts -->
<g id="node7" class="node">
<title>src/loops/loop.ts</title>
<path fill="none" stroke="#cfffac" d="M1593.83,-200C1593.83,-200 1495.17,-200 1495.17,-200 1491.33,-200 1487.5,-196.17 1487.5,-192.33 1487.5,-192.33 1487.5,-184.67 1487.5,-184.67 1487.5,-180.83 1491.33,-177 1495.17,-177 1495.17,-177 1593.83,-177 1593.83,-177 1597.67,-177 1601.5,-180.83 1601.5,-184.67 1601.5,-184.67 1601.5,-192.33 1601.5,-192.33 1601.5,-196.17 1597.67,-200 1593.83,-200"/>
<text text-anchor="middle" x="1544.5" y="-184.8" font-family="Arial" font-size="14.00" fill="#cfffac">src/loops/loop.ts</text>
</g>
<!-- src/app.ts&#45;&gt;src/loops/loop.ts -->
<g id="edge6" class="edge">
<title>src/app.ts&#45;&gt;src/loops/loop.ts</title>
<path fill="none" stroke="#757575" d="M935.27,-313C1077.52,-313 1573,-313 1573,-313 1573,-313 1573,-210.44 1573,-210.44"/>
<polygon fill="#757575" stroke="#757575" points="1576.5,-210.44 1573,-200.44 1569.5,-210.44 1576.5,-210.44"/>
</g>
<!-- src/loops/while.ts -->
<g id="node8" class="node">
<title>src/loops/while.ts</title>
<path fill="none" stroke="#c6c5fe" d="M1319.33,-259C1319.33,-259 1215.67,-259 1215.67,-259 1211.83,-259 1208,-255.17 1208,-251.33 1208,-251.33 1208,-243.67 1208,-243.67 1208,-239.83 1211.83,-236 1215.67,-236 1215.67,-236 1319.33,-236 1319.33,-236 1323.17,-236 1327,-239.83 1327,-243.67 1327,-243.67 1327,-251.33 1327,-251.33 1327,-255.17 1323.17,-259 1319.33,-259"/>
<text text-anchor="middle" x="1267.5" y="-243.8" font-family="Arial" font-size="14.00" fill="#c6c5fe">src/loops/while.ts</text>
</g>
<!-- src/app.ts&#45;&gt;src/loops/while.ts -->
<g id="edge7" class="edge">
<title>src/app.ts&#45;&gt;src/loops/while.ts</title>
<path fill="none" stroke="#757575" d="M919.62,-294.74C919.62,-277.4 919.62,-247 919.62,-247 919.62,-247 1197.7,-247 1197.7,-247"/>
<polygon fill="#757575" stroke="#757575" points="1197.7,-250.5 1207.7,-247 1197.7,-243.5 1197.7,-250.5"/>
</g>
<!-- src/match.ts -->
<g id="node9" class="node">
<title>src/match.ts</title>
<path fill="none" stroke="#cfffac" d="M1132.83,-141C1132.83,-141 1058.17,-141 1058.17,-141 1054.33,-141 1050.5,-137.17 1050.5,-133.33 1050.5,-133.33 1050.5,-125.67 1050.5,-125.67 1050.5,-121.83 1054.33,-118 1058.17,-118 1058.17,-118 1132.83,-118 1132.83,-118 1136.67,-118 1140.5,-121.83 1140.5,-125.67 1140.5,-125.67 1140.5,-133.33 1140.5,-133.33 1140.5,-137.17 1136.67,-141 1132.83,-141"/>
<text text-anchor="middle" x="1095.5" y="-125.8" font-family="Arial" font-size="14.00" fill="#cfffac">src/match.ts</text>
</g>
<!-- src/app.ts&#45;&gt;src/match.ts -->
<g id="edge8" class="edge">
<title>src/app.ts&#45;&gt;src/match.ts</title>
<path fill="none" stroke="#757575" d="M935.25,-299C999.08,-299 1121.5,-299 1121.5,-299 1121.5,-299 1121.5,-151.15 1121.5,-151.15"/>
<polygon fill="#757575" stroke="#757575" points="1125,-151.15 1121.5,-141.15 1118,-151.15 1125,-151.15"/>
</g>
<!-- src/parser.ts -->
<g id="node10" class="node">
<title>src/parser.ts</title>
<path fill="none" stroke="#c6c5fe" d="M492.83,-141C492.83,-141 418.17,-141 418.17,-141 414.33,-141 410.5,-137.17 410.5,-133.33 410.5,-133.33 410.5,-125.67 410.5,-125.67 410.5,-121.83 414.33,-118 418.17,-118 418.17,-118 492.83,-118 492.83,-118 496.67,-118 500.5,-121.83 500.5,-125.67 500.5,-125.67 500.5,-133.33 500.5,-133.33 500.5,-137.17 496.67,-141 492.83,-141"/>
<text text-anchor="middle" x="455.5" y="-125.8" font-family="Arial" font-size="14.00" fill="#c6c5fe">src/parser.ts</text>
</g>
<!-- src/app.ts&#45;&gt;src/parser.ts -->
<g id="edge9" class="edge">
<title>src/app.ts&#45;&gt;src/parser.ts</title>
<path fill="none" stroke="#757575" d="M859.88,-299C749.3,-299 433,-299 433,-299 433,-299 433,-151.15 433,-151.15"/>
<polygon fill="#757575" stroke="#757575" points="436.5,-151.15 433,-141.15 429.5,-151.15 436.5,-151.15"/>
</g>
<!-- src/scope.ts -->
<g id="node11" class="node">
<title>src/scope.ts</title>
<path fill="none" stroke="#c6c5fe" d="M360.33,-259C360.33,-259 286.67,-259 286.67,-259 282.83,-259 279,-255.17 279,-251.33 279,-251.33 279,-243.67 279,-243.67 279,-239.83 282.83,-236 286.67,-236 286.67,-236 360.33,-236 360.33,-236 364.17,-236 368,-239.83 368,-243.67 368,-243.67 368,-251.33 368,-251.33 368,-255.17 364.17,-259 360.33,-259"/>
<text text-anchor="middle" x="323.5" y="-243.8" font-family="Arial" font-size="14.00" fill="#c6c5fe">src/scope.ts</text>
</g>
<!-- src/app.ts&#45;&gt;src/scope.ts -->
<g id="edge10" class="edge">
<title>src/app.ts&#45;&gt;src/scope.ts</title>
<path fill="none" stroke="#757575" d="M859.84,-308C732.14,-308 323.5,-308 323.5,-308 323.5,-308 323.5,-269.17 323.5,-269.17"/>
<polygon fill="#757575" stroke="#757575" points="327,-269.16 323.5,-259.17 320,-269.17 327,-269.16"/>
</g>
<!-- src/types/structs.ts -->
<g id="node12" class="node">
<title>src/types/structs.ts</title>
<path fill="none" stroke="#c6c5fe" d="M910.83,-141C910.83,-141 798.17,-141 798.17,-141 794.33,-141 790.5,-137.17 790.5,-133.33 790.5,-133.33 790.5,-125.67 790.5,-125.67 790.5,-121.83 794.33,-118 798.17,-118 798.17,-118 910.83,-118 910.83,-118 914.67,-118 918.5,-121.83 918.5,-125.67 918.5,-125.67 918.5,-133.33 918.5,-133.33 918.5,-137.17 914.67,-141 910.83,-141"/>
<text text-anchor="middle" x="854.5" y="-125.8" font-family="Arial" font-size="14.00" fill="#c6c5fe">src/types/structs.ts</text>
</g>
<!-- src/app.ts&#45;&gt;src/types/structs.ts -->
<g id="edge11" class="edge">
<title>src/app.ts&#45;&gt;src/types/structs.ts</title>
<path fill="none" stroke="#757575" d="M888.88,-294.91C888.88,-269.68 888.88,-212 888.88,-212 888.88,-212 830,-212 830,-212 830,-212 830,-151.32 830,-151.32"/>
<polygon fill="#757575" stroke="#757575" points="833.5,-151.32 830,-141.32 826.5,-151.32 833.5,-151.32"/>
</g>
<!-- src/types/type&#45;declarations.ts -->
<g id="node13" class="node">
<title>src/types/type&#45;declarations.ts</title>
<path fill="none" stroke="#c6c5fe" d="M183.33,-141C183.33,-141 7.67,-141 7.67,-141 3.83,-141 0,-137.17 0,-133.33 0,-133.33 0,-125.67 0,-125.67 0,-121.83 3.83,-118 7.67,-118 7.67,-118 183.33,-118 183.33,-118 187.17,-118 191,-121.83 191,-125.67 191,-125.67 191,-133.33 191,-133.33 191,-137.17 187.17,-141 183.33,-141"/>
<text text-anchor="middle" x="95.5" y="-125.8" font-family="Arial" font-size="14.00" fill="#c6c5fe">src/types/type&#45;declarations.ts</text>
</g>
<!-- src/app.ts&#45;&gt;src/types/type&#45;declarations.ts -->
<g id="edge12" class="edge">
<title>src/app.ts&#45;&gt;src/types/type&#45;declarations.ts</title>
<path fill="none" stroke="#757575" d="M859.79,-313C700.07,-313 87.5,-313 87.5,-313 87.5,-313 87.5,-151.26 87.5,-151.26"/>
<polygon fill="#757575" stroke="#757575" points="91,-151.26 87.5,-141.26 84,-151.26 91,-151.26"/>
</g>
<!-- src/expressions/binary&#45;operation.ts&#45;&gt;src/expressions/handlers.ts -->
<g id="edge14" class="edge">
<title>src/expressions/binary&#45;operation.ts&#45;&gt;src/expressions/handlers.ts</title>
<path fill="none" stroke="#757575" d="M811.5,-235.91C811.5,-210.68 811.5,-153 811.5,-153 811.5,-153 968,-153 968,-153 968,-153 968,-33.08 968,-33.08"/>
<polygon fill="#757575" stroke="#757575" points="971.5,-33.08 968,-23.08 964.5,-33.08 971.5,-33.08"/>
</g>
<!-- src/expressions/binary&#45;operation.ts&#45;&gt;src/parser.ts -->
<g id="edge16" class="edge">
<title>src/expressions/binary&#45;operation.ts&#45;&gt;src/parser.ts</title>
<path fill="none" stroke="#757575" d="M647.36,-243C560.56,-243 455.5,-243 455.5,-243 455.5,-243 455.5,-151.22 455.5,-151.22"/>
<polygon fill="#757575" stroke="#757575" points="459,-151.22 455.5,-141.22 452,-151.22 459,-151.22"/>
</g>
<!-- src/expressions/operators.ts -->
<g id="node15" class="node">
<title>src/expressions/operators.ts</title>
<path fill="none" stroke="#c6c5fe" d="M785.33,-200C785.33,-200 615.67,-200 615.67,-200 611.83,-200 608,-196.17 608,-192.33 608,-192.33 608,-184.67 608,-184.67 608,-180.83 611.83,-177 615.67,-177 615.67,-177 785.33,-177 785.33,-177 789.17,-177 793,-180.83 793,-184.67 793,-184.67 793,-192.33 793,-192.33 793,-196.17 789.17,-200 785.33,-200"/>
<text text-anchor="middle" x="700.5" y="-184.8" font-family="Arial" font-size="14.00" fill="#c6c5fe">src/expressions/operators.ts</text>
</g>
<!-- src/expressions/binary&#45;operation.ts&#45;&gt;src/expressions/operators.ts -->
<g id="edge15" class="edge">
<title>src/expressions/binary&#45;operation.ts&#45;&gt;src/expressions/operators.ts</title>
<path fill="none" stroke="#757575" d="M720.25,-235.84C720.25,-235.84 720.25,-210.13 720.25,-210.13"/>
<polygon fill="#757575" stroke="#757575" points="723.75,-210.13 720.25,-200.13 716.75,-210.13 723.75,-210.13"/>
</g>
<!-- src/expressions/grouped&#45;expressions.ts&#45;&gt;src/expressions/handlers.ts -->
<g id="edge17" class="edge">
<title>src/expressions/grouped&#45;expressions.ts&#45;&gt;src/expressions/handlers.ts</title>
<path fill="none" stroke="#757575" d="M992.75,-176.89C992.75,-176.89 992.75,-33.39 992.75,-33.39"/>
<polygon fill="#757575" stroke="#757575" points="996.25,-33.39 992.75,-23.39 989.25,-33.39 996.25,-33.39"/>
</g>
<!-- src/expressions/grouped&#45;expressions.ts&#45;&gt;src/match.ts -->
<g id="edge18" class="edge">
<title>src/expressions/grouped&#45;expressions.ts&#45;&gt;src/match.ts</title>
<path fill="none" stroke="#757575" d="M1076.5,-176.84C1076.5,-176.84 1076.5,-151.13 1076.5,-151.13"/>
<polygon fill="#757575" stroke="#757575" points="1080,-151.13 1076.5,-141.13 1073,-151.13 1080,-151.13"/>
</g>
<!-- src/expressions/grouped&#45;expressions.ts&#45;&gt;src/types/structs.ts -->
<g id="edge19" class="edge">
<title>src/expressions/grouped&#45;expressions.ts&#45;&gt;src/types/structs.ts</title>
<path fill="none" stroke="#757575" d="M883.5,-176.84C883.5,-176.84 883.5,-151.13 883.5,-151.13"/>
<polygon fill="#757575" stroke="#757575" points="887,-151.13 883.5,-141.13 880,-151.13 887,-151.13"/>
</g>
<!-- src/utils/identifier&#45;utils.ts -->
<g id="node16" class="node">
<title>src/utils/identifier&#45;utils.ts</title>
<path fill="none" stroke="#cfffac" d="M872.83,-82C872.83,-82 728.17,-82 728.17,-82 724.33,-82 720.5,-78.17 720.5,-74.33 720.5,-74.33 720.5,-66.67 720.5,-66.67 720.5,-62.83 724.33,-59 728.17,-59 728.17,-59 872.83,-59 872.83,-59 876.67,-59 880.5,-62.83 880.5,-66.67 880.5,-66.67 880.5,-74.33 880.5,-74.33 880.5,-78.17 876.67,-82 872.83,-82"/>
<text text-anchor="middle" x="800.5" y="-66.8" font-family="Arial" font-size="14.00" fill="#cfffac">src/utils/identifier&#45;utils.ts</text>
</g>
<!-- src/expressions/grouped&#45;expressions.ts&#45;&gt;src/utils/identifier&#45;utils.ts -->
<g id="edge20" class="edge">
<title>src/expressions/grouped&#45;expressions.ts&#45;&gt;src/utils/identifier&#45;utils.ts</title>
<path fill="none" stroke="#757575" d="M943.25,-176.7C943.25,-146.73 943.25,-70 943.25,-70 943.25,-70 890.64,-70 890.64,-70"/>
<polygon fill="#757575" stroke="#757575" points="890.64,-66.5 880.64,-70 890.64,-73.5 890.64,-66.5"/>
</g>
<!-- src/functions.ts&#45;&gt;src/expressions/handlers.ts -->
<g id="edge29" class="edge">
<title>src/functions.ts&#45;&gt;src/expressions/handlers.ts</title>
<path fill="none" stroke="#757575" d="M316.33,-121C332.48,-121 346,-121 346,-121 346,-121 346,-15 346,-15 346,-15 827.28,-15 827.28,-15"/>
<polygon fill="#757575" stroke="#757575" points="827.28,-18.5 837.28,-15 827.28,-11.5 827.28,-18.5"/>
</g>
<!-- src/declarations.ts -->
<g id="node14" class="node">
<title>src/declarations.ts</title>
<path fill="none" stroke="#c6c5fe" d="M330.33,-82C330.33,-82 220.67,-82 220.67,-82 216.83,-82 213,-78.17 213,-74.33 213,-74.33 213,-66.67 213,-66.67 213,-62.83 216.83,-59 220.67,-59 220.67,-59 330.33,-59 330.33,-59 334.17,-59 338,-62.83 338,-66.67 338,-66.67 338,-74.33 338,-74.33 338,-78.17 334.17,-82 330.33,-82"/>
<text text-anchor="middle" x="275.5" y="-66.8" font-family="Arial" font-size="14.00" fill="#c6c5fe">src/declarations.ts</text>
</g>
<!-- src/functions.ts&#45;&gt;src/declarations.ts -->
<g id="edge28" class="edge">
<title>src/functions.ts&#45;&gt;src/declarations.ts</title>
<path fill="none" stroke="#757575" d="M247.33,-117.84C247.33,-117.84 247.33,-92.13 247.33,-92.13"/>
<polygon fill="#757575" stroke="#757575" points="250.83,-92.13 247.33,-82.13 243.83,-92.13 250.83,-92.13"/>
</g>
<!-- src/functions.ts&#45;&gt;src/utils/identifier&#45;utils.ts -->
<g id="edge31" class="edge">
<title>src/functions.ts&#45;&gt;src/utils/identifier&#45;utils.ts</title>
<path fill="none" stroke="#757575" d="M281.67,-117.74C281.67,-106.42 281.67,-91 281.67,-91 281.67,-91 746.5,-91 746.5,-91 746.5,-91 746.5,-90.12 746.5,-90.12"/>
<polygon fill="#757575" stroke="#757575" points="750,-92.19 746.5,-82.19 743,-92.19 750,-92.19"/>
</g>
<!-- src/type&#45;utils.ts -->
<g id="node19" class="node">
<title>src/type&#45;utils.ts</title>
<path fill="none" stroke="#cfffac" d="M455.33,-82C455.33,-82 363.67,-82 363.67,-82 359.83,-82 356,-78.17 356,-74.33 356,-74.33 356,-66.67 356,-66.67 356,-62.83 359.83,-59 363.67,-59 363.67,-59 455.33,-59 455.33,-59 459.17,-59 463,-62.83 463,-66.67 463,-66.67 463,-74.33 463,-74.33 463,-78.17 459.17,-82 455.33,-82"/>
<text text-anchor="middle" x="409.5" y="-66.8" font-family="Arial" font-size="14.00" fill="#cfffac">src/type&#45;utils.ts</text>
</g>
<!-- src/functions.ts&#45;&gt;src/type&#45;utils.ts -->
<g id="edge30" class="edge">
<title>src/functions.ts&#45;&gt;src/type&#45;utils.ts</title>
<path fill="none" stroke="#757575" d="M316.23,-125C337.83,-125 357.71,-125 357.71,-125 357.71,-125 357.71,-92.06 357.71,-92.06"/>
<polygon fill="#757575" stroke="#757575" points="361.21,-92.06 357.71,-82.06 354.21,-92.06 361.21,-92.06"/>
</g>
<!-- src/loops/for.ts&#45;&gt;src/loops/loop.ts -->
<g id="edge33" class="edge">
<title>src/loops/for.ts&#45;&gt;src/loops/loop.ts</title>
<path fill="none" stroke="#757575" d="M1456.63,-247C1496.43,-247 1544.5,-247 1544.5,-247 1544.5,-247 1544.5,-210.06 1544.5,-210.06"/>
<polygon fill="#757575" stroke="#757575" points="1548,-210.06 1544.5,-200.06 1541,-210.06 1548,-210.06"/>
</g>
<!-- src/loops/helpers.ts -->
<g id="node21" class="node">
<title>src/loops/helpers.ts</title>
<path fill="none" stroke="#cfffac" d="M1322.33,-200C1322.33,-200 1204.67,-200 1204.67,-200 1200.83,-200 1197,-196.17 1197,-192.33 1197,-192.33 1197,-184.67 1197,-184.67 1197,-180.83 1200.83,-177 1204.67,-177 1204.67,-177 1322.33,-177 1322.33,-177 1326.17,-177 1330,-180.83 1330,-184.67 1330,-184.67 1330,-192.33 1330,-192.33 1330,-196.17 1326.17,-200 1322.33,-200"/>
<text text-anchor="middle" x="1263.5" y="-184.8" font-family="Arial" font-size="14.00" fill="#cfffac">src/loops/helpers.ts</text>
</g>
<!-- src/loops/for.ts&#45;&gt;src/loops/helpers.ts -->
<g id="edge32" class="edge">
<title>src/loops/for.ts&#45;&gt;src/loops/helpers.ts</title>
<path fill="none" stroke="#757575" d="M1352.32,-243C1346.15,-243 1342,-243 1342,-243 1342,-243 1342,-192 1342,-192 1342,-192 1340.08,-192 1340.08,-192"/>
<polygon fill="#757575" stroke="#757575" points="1340.08,-188.5 1330.08,-192 1340.08,-195.5 1340.08,-188.5"/>
</g>
<!-- src/loops/types.ts -->
<g id="node22" class="node">
<title>src/loops/types.ts</title>
<path fill="none" stroke="#c6c5fe" d="M1461.33,-200C1461.33,-200 1355.67,-200 1355.67,-200 1351.83,-200 1348,-196.17 1348,-192.33 1348,-192.33 1348,-184.67 1348,-184.67 1348,-180.83 1351.83,-177 1355.67,-177 1355.67,-177 1461.33,-177 1461.33,-177 1465.17,-177 1469,-180.83 1469,-184.67 1469,-184.67 1469,-192.33 1469,-192.33 1469,-196.17 1465.17,-200 1461.33,-200"/>
<text text-anchor="middle" x="1408.5" y="-184.8" font-family="Arial" font-size="14.00" fill="#c6c5fe">src/loops/types.ts</text>
</g>
<!-- src/loops/for.ts&#45;&gt;src/loops/types.ts -->
<g id="edge34" class="edge">
<title>src/loops/for.ts&#45;&gt;src/loops/types.ts</title>
<path fill="none" stroke="#757575" d="M1404.5,-235.84C1404.5,-235.84 1404.5,-210.13 1404.5,-210.13"/>
<polygon fill="#757575" stroke="#757575" points="1408,-210.13 1404.5,-200.13 1401,-210.13 1408,-210.13"/>
</g>
<!-- src/loops/while.ts&#45;&gt;src/loops/loop.ts -->
<g id="edge37" class="edge">
<title>src/loops/while.ts&#45;&gt;src/loops/loop.ts</title>
<path fill="none" stroke="#757575" d="M1287.33,-235.75C1287.33,-229.88 1287.33,-224 1287.33,-224 1287.33,-224 1516,-224 1516,-224 1516,-224 1516,-210.12 1516,-210.12"/>
<polygon fill="#757575" stroke="#757575" points="1519.5,-210.12 1516,-200.12 1512.5,-210.12 1519.5,-210.12"/>
</g>
<!-- src/loops/while.ts&#45;&gt;src/loops/helpers.ts -->
<g id="edge36" class="edge">
<title>src/loops/while.ts&#45;&gt;src/loops/helpers.ts</title>
<path fill="none" stroke="#757575" d="M1247.67,-235.84C1247.67,-235.84 1247.67,-210.13 1247.67,-210.13"/>
<polygon fill="#757575" stroke="#757575" points="1251.17,-210.13 1247.67,-200.13 1244.17,-210.13 1251.17,-210.13"/>
</g>
<!-- src/loops/while.ts&#45;&gt;src/loops/types.ts -->
<g id="edge38" class="edge">
<title>src/loops/while.ts&#45;&gt;src/loops/types.ts</title>
<path fill="none" stroke="#757575" d="M1327.04,-251C1332.48,-251 1336,-251 1336,-251 1336,-251 1336,-184 1336,-184 1336,-184 1337.97,-184 1337.97,-184"/>
<polygon fill="#757575" stroke="#757575" points="1337.97,-187.5 1347.97,-184 1337.97,-180.5 1337.97,-187.5"/>
</g>
<!-- src/parser.ts&#45;&gt;src/type&#45;utils.ts -->
<g id="edge39" class="edge">
<title>src/parser.ts&#45;&gt;src/type&#45;utils.ts</title>
<path fill="none" stroke="#757575" d="M436.75,-117.84C436.75,-117.84 436.75,-92.13 436.75,-92.13"/>
<polygon fill="#757575" stroke="#757575" points="440.25,-92.13 436.75,-82.13 433.25,-92.13 440.25,-92.13"/>
</g>
<!-- src/scope.ts&#45;&gt;src/expressions/handlers.ts -->
<g id="edge40" class="edge">
<title>src/scope.ts&#45;&gt;src/expressions/handlers.ts</title>
<path fill="none" stroke="#757575" d="M368.08,-251C379.81,-251 389.25,-251 389.25,-251 389.25,-251 389.25,-109 389.25,-109 389.25,-109 893.17,-109 893.17,-109 893.17,-109 893.17,-33.07 893.17,-33.07"/>
<polygon fill="#757575" stroke="#757575" points="896.67,-33.07 893.17,-23.07 889.67,-33.07 896.67,-33.07"/>
</g>
<!-- src/scope.ts&#45;&gt;src/functions.ts -->
<g id="edge42" class="edge">
<title>src/scope.ts&#45;&gt;src/functions.ts</title>
<path fill="none" stroke="#757575" d="M362.86,-235.68C362.86,-206.42 362.86,-133 362.86,-133 362.86,-133 326.2,-133 326.2,-133"/>
<polygon fill="#757575" stroke="#757575" points="326.2,-129.5 316.2,-133 326.2,-136.5 326.2,-129.5"/>
</g>
<!-- src/scope.ts&#45;&gt;src/parser.ts -->
<g id="edge43" class="edge">
<title>src/scope.ts&#45;&gt;src/parser.ts</title>
<path fill="none" stroke="#757575" d="M366.29,-235.67C366.29,-207.17 366.29,-137 366.29,-137 366.29,-137 400.37,-137 400.37,-137"/>
<polygon fill="#757575" stroke="#757575" points="400.37,-140.5 410.37,-137 400.37,-133.5 400.37,-140.5"/>
</g>
<!-- src/scope.ts&#45;&gt;src/type&#45;utils.ts -->
<g id="edge44" class="edge">
<title>src/scope.ts&#45;&gt;src/type&#45;utils.ts</title>
<path fill="none" stroke="#757575" d="M364.57,-235.89C364.57,-235.89 364.57,-92.39 364.57,-92.39"/>
<polygon fill="#757575" stroke="#757575" points="368.07,-92.39 364.57,-82.39 361.07,-92.39 368.07,-92.39"/>
</g>
<!-- src/function&#45;type&#45;handler.ts -->
<g id="node20" class="node">
<title>src/function&#45;type&#45;handler.ts</title>
<path fill="none" stroke="#c6c5fe" d="M346.33,-200C346.33,-200 182.67,-200 182.67,-200 178.83,-200 175,-196.17 175,-192.33 175,-192.33 175,-184.67 175,-184.67 175,-180.83 178.83,-177 182.67,-177 182.67,-177 346.33,-177 346.33,-177 350.17,-177 354,-180.83 354,-184.67 354,-184.67 354,-192.33 354,-192.33 354,-196.17 350.17,-200 346.33,-200"/>
<text text-anchor="middle" x="264.5" y="-184.8" font-family="Arial" font-size="14.00" fill="#c6c5fe">src/function&#45;type&#45;handler.ts</text>
</g>
<!-- src/scope.ts&#45;&gt;src/function&#45;type&#45;handler.ts -->
<g id="edge41" class="edge">
<title>src/scope.ts&#45;&gt;src/function&#45;type&#45;handler.ts</title>
<path fill="none" stroke="#757575" d="M316.5,-235.84C316.5,-235.84 316.5,-210.13 316.5,-210.13"/>
<polygon fill="#757575" stroke="#757575" points="320,-210.13 316.5,-200.13 313,-210.13 320,-210.13"/>
</g>
<!-- src/types/structs.ts&#45;&gt;src/expressions/handlers.ts -->
<g id="edge46" class="edge">
<title>src/types/structs.ts&#45;&gt;src/expressions/handlers.ts</title>
<path fill="none" stroke="#757575" d="M905.83,-117.75C905.83,-117.75 905.83,-33.2 905.83,-33.2"/>
<polygon fill="#757575" stroke="#757575" points="909.33,-33.2 905.83,-23.2 902.33,-33.2 909.33,-33.2"/>
</g>
<!-- src/types/structs.ts&#45;&gt;src/declarations.ts -->
<g id="edge45" class="edge">
<title>src/types/structs.ts&#45;&gt;src/declarations.ts</title>
<path fill="none" stroke="#757575" d="M835.5,-117.84C835.5,-109.6 835.5,-100 835.5,-100 835.5,-100 327,-100 327,-100 327,-100 327,-92.16 327,-92.16"/>
<polygon fill="#757575" stroke="#757575" points="330.5,-92.16 327,-82.16 323.5,-92.16 330.5,-92.16"/>
</g>
<!-- src/types/type&#45;declarations.ts&#45;&gt;src/declarations.ts -->
<g id="edge47" class="edge">
<title>src/types/type&#45;declarations.ts&#45;&gt;src/declarations.ts</title>
<path fill="none" stroke="#757575" d="M95.5,-117.74C95.5,-100.4 95.5,-70 95.5,-70 95.5,-70 202.8,-70 202.8,-70"/>
<polygon fill="#757575" stroke="#757575" points="202.8,-73.5 212.8,-70 202.8,-66.5 202.8,-73.5"/>
</g>
<!-- src/types/type&#45;declarations.ts&#45;&gt;src/type&#45;utils.ts -->
<g id="edge48" class="edge">
<title>src/types/type&#45;declarations.ts&#45;&gt;src/type&#45;utils.ts</title>
<path fill="none" stroke="#757575" d="M183,-141.12C183,-151.48 183,-165 183,-165 183,-165 359.43,-165 359.43,-165 359.43,-165 359.43,-92.09 359.43,-92.09"/>
<polygon fill="#757575" stroke="#757575" points="362.93,-92.09 359.43,-82.09 355.93,-92.09 362.93,-92.09"/>
</g>
<!-- src/declarations.ts&#45;&gt;src/expressions/handlers.ts -->
<g id="edge13" class="edge">
<title>src/declarations.ts&#45;&gt;src/expressions/handlers.ts</title>
<path fill="none" stroke="#757575" d="M275.5,-58.85C275.5,-40.52 275.5,-7 275.5,-7 275.5,-7 827.18,-7 827.18,-7"/>
<polygon fill="#757575" stroke="#757575" points="827.18,-10.5 837.18,-7 827.18,-3.5 827.18,-10.5"/>
</g>
<!-- src/expressions/operators.ts&#45;&gt;src/parser.ts -->
<g id="edge23" class="edge">
<title>src/expressions/operators.ts&#45;&gt;src/parser.ts</title>
<path fill="none" stroke="#757575" d="M607.75,-188C546.7,-188 478,-188 478,-188 478,-188 478,-151.06 478,-151.06"/>
<polygon fill="#757575" stroke="#757575" points="481.5,-151.06 478,-141.06 474.5,-151.06 481.5,-151.06"/>
</g>
<!-- src/expressions/operators.ts&#45;&gt;src/types/structs.ts -->
<g id="edge25" class="edge">
<title>src/expressions/operators.ts&#45;&gt;src/types/structs.ts</title>
<path fill="none" stroke="#757575" d="M781.5,-176.74C781.5,-159.4 781.5,-129 781.5,-129 781.5,-129 782.4,-129 782.4,-129"/>
<polygon fill="#757575" stroke="#757575" points="780.45,-132.5 790.45,-129 780.45,-125.5 780.45,-132.5"/>
</g>
<!-- src/expressions/operator&#45;finder.ts -->
<g id="node17" class="node">
<title>src/expressions/operator&#45;finder.ts</title>
<path fill="none" stroke="#c6c5fe" d="M764.83,-141C764.83,-141 564.17,-141 564.17,-141 560.33,-141 556.5,-137.17 556.5,-133.33 556.5,-133.33 556.5,-125.67 556.5,-125.67 556.5,-121.83 560.33,-118 564.17,-118 564.17,-118 764.83,-118 764.83,-118 768.67,-118 772.5,-121.83 772.5,-125.67 772.5,-125.67 772.5,-133.33 772.5,-133.33 772.5,-137.17 768.67,-141 764.83,-141"/>
<text text-anchor="middle" x="664.5" y="-125.8" font-family="Arial" font-size="14.00" fill="#c6c5fe">src/expressions/operator&#45;finder.ts</text>
</g>
<!-- src/expressions/operators.ts&#45;&gt;src/expressions/operator&#45;finder.ts -->
<g id="edge22" class="edge">
<title>src/expressions/operators.ts&#45;&gt;src/expressions/operator&#45;finder.ts</title>
<path fill="none" stroke="#757575" d="M690.25,-176.84C690.25,-176.84 690.25,-151.13 690.25,-151.13"/>
<polygon fill="#757575" stroke="#757575" points="693.75,-151.13 690.25,-141.13 686.75,-151.13 693.75,-151.13"/>
</g>
<!-- src/expressions/operators.ts&#45;&gt;src/type&#45;utils.ts -->
<g id="edge24" class="edge">
<title>src/expressions/operators.ts&#45;&gt;src/type&#45;utils.ts</title>
<path fill="none" stroke="#757575" d="M607.85,-194C519.52,-194 399.88,-194 399.88,-194 399.88,-194 399.88,-92.34 399.88,-92.34"/>
<polygon fill="#757575" stroke="#757575" points="403.38,-92.34 399.88,-82.34 396.38,-92.34 403.38,-92.34"/>
</g>
<!-- src/expressions/operator&#45;utils.ts -->
<g id="node18" class="node">
<title>src/expressions/operator&#45;utils.ts</title>
<path fill="none" stroke="#cfffac" d="M694.33,-82C694.33,-82 502.67,-82 502.67,-82 498.83,-82 495,-78.17 495,-74.33 495,-74.33 495,-66.67 495,-66.67 495,-62.83 498.83,-59 502.67,-59 502.67,-59 694.33,-59 694.33,-59 698.17,-59 702,-62.83 702,-66.67 702,-66.67 702,-74.33 702,-74.33 702,-78.17 698.17,-82 694.33,-82"/>
<text text-anchor="middle" x="598.5" y="-66.8" font-family="Arial" font-size="14.00" fill="#cfffac">src/expressions/operator&#45;utils.ts</text>
</g>
<!-- src/expressions/operator&#45;finder.ts&#45;&gt;src/expressions/operator&#45;utils.ts -->
<g id="edge21" class="edge">
<title>src/expressions/operator&#45;finder.ts&#45;&gt;src/expressions/operator&#45;utils.ts</title>
<path fill="none" stroke="#757575" d="M629.25,-117.84C629.25,-117.84 629.25,-92.13 629.25,-92.13"/>
<polygon fill="#757575" stroke="#757575" points="632.75,-92.13 629.25,-82.13 625.75,-92.13 632.75,-92.13"/>
</g>
<!-- src/function&#45;type&#45;handler.ts&#45;&gt;src/functions.ts -->
<g id="edge26" class="edge">
<title>src/function&#45;type&#45;handler.ts&#45;&gt;src/functions.ts</title>
<path fill="none" stroke="#757575" d="M262.5,-176.84C262.5,-176.84 262.5,-151.13 262.5,-151.13"/>
<polygon fill="#757575" stroke="#757575" points="266,-151.13 262.5,-141.13 259,-151.13 266,-151.13"/>
</g>
<!-- src/function&#45;type&#45;handler.ts&#45;&gt;src/type&#45;utils.ts -->
<g id="edge27" class="edge">
<title>src/function&#45;type&#45;handler.ts&#45;&gt;src/type&#45;utils.ts</title>
<path fill="none" stroke="#757575" d="M354.19,-182C358.54,-182 361.14,-182 361.14,-182 361.14,-182 361.14,-92.01 361.14,-92.01"/>
<polygon fill="#757575" stroke="#757575" points="364.64,-92.01 361.14,-82.01 357.64,-92.01 364.64,-92.01"/>
</g>
<!-- src/loops/types.ts&#45;&gt;src/expressions/handlers.ts -->
<g id="edge35" class="edge">
<title>src/loops/types.ts&#45;&gt;src/expressions/handlers.ts</title>
<path fill="none" stroke="#757575" d="M1408.5,-176.87C1408.5,-136.81 1408.5,-7 1408.5,-7 1408.5,-7 1027.69,-7 1027.69,-7"/>
<polygon fill="#757575" stroke="#757575" points="1027.69,-3.5 1017.69,-7 1027.69,-10.5 1027.69,-3.5"/>
</g>
<!-- src/utils/interpret.ts -->
<g id="node23" class="node">
<title>src/utils/interpret.ts</title>
<path fill="none" stroke="#c6c5fe" d="M954.83,-377C954.83,-377 840.17,-377 840.17,-377 836.33,-377 832.5,-373.17 832.5,-369.33 832.5,-369.33 832.5,-361.67 832.5,-361.67 832.5,-357.83 836.33,-354 840.17,-354 840.17,-354 954.83,-354 954.83,-354 958.67,-354 962.5,-357.83 962.5,-361.67 962.5,-361.67 962.5,-369.33 962.5,-369.33 962.5,-373.17 958.67,-377 954.83,-377"/>
<text text-anchor="middle" x="897.5" y="-361.8" font-family="Arial" font-size="14.00" fill="#c6c5fe">src/utils/interpret.ts</text>
</g>
<!-- src/utils/interpret.ts&#45;&gt;src/app.ts -->
<g id="edge49" class="edge">
<title>src/utils/interpret.ts&#45;&gt;src/app.ts</title>
<path fill="none" stroke="#757575" d="M897.5,-353.84C897.5,-353.84 897.5,-328.13 897.5,-328.13"/>
<polygon fill="#757575" stroke="#757575" points="901,-328.13 897.5,-318.13 894,-328.13 901,-328.13"/>
</g>
<!-- tests/app.test.ts -->
<g id="node24" class="node">
<title>tests/app.test.ts</title>
<path fill="none" stroke="#c6c5fe" d="M945.33,-436C945.33,-436 849.67,-436 849.67,-436 845.83,-436 842,-432.17 842,-428.33 842,-428.33 842,-420.67 842,-420.67 842,-416.83 845.83,-413 849.67,-413 849.67,-413 945.33,-413 945.33,-413 949.17,-413 953,-416.83 953,-420.67 953,-420.67 953,-428.33 953,-428.33 953,-432.17 949.17,-436 945.33,-436"/>
<text text-anchor="middle" x="897.5" y="-420.8" font-family="Arial" font-size="14.00" fill="#c6c5fe">tests/app.test.ts</text>
</g>
<!-- tests/app.test.ts&#45;&gt;src/utils/interpret.ts -->
<g id="edge50" class="edge">
<title>tests/app.test.ts&#45;&gt;src/utils/interpret.ts</title>
<path fill="none" stroke="#757575" d="M897.5,-412.84C897.5,-412.84 897.5,-387.13 897.5,-387.13"/>
<polygon fill="#757575" stroke="#757575" points="901,-387.13 897.5,-377.13 894,-387.13 901,-387.13"/>
</g>
</g>
</svg>
