<?xml version="1.0" encoding="UTF-8" standalone="no"?>
<!DOCTYPE svg PUBLIC "-//W3C//DTD SVG 1.1//EN"
 "http://www.w3.org/Graphics/SVG/1.1/DTD/svg11.dtd">
<!-- Generated by graphviz version 2.43.0 (0)
 -->
<!-- Title: G Pages: 1 -->
<svg width="1485pt" height="337pt"
 viewBox="0.00 0.00 1485.20 337.20" xmlns="http://www.w3.org/2000/svg" xmlns:xlink="http://www.w3.org/1999/xlink">
<g id="graph0" class="graph" transform="scale(1 1) rotate(0) translate(21.6 315.6)">
<title>G</title>
<polygon fill="#111111" stroke="transparent" points="-21.6,21.6 -21.6,-315.6 1463.6,-315.6 1463.6,21.6 -21.6,21.6"/>
<!-- app.ts -->
<g id="node1" class="node">
<title>app.ts</title>
<path fill="none" stroke="#c6c5fe" d="M568.17,-294C568.17,-294 526.83,-294 526.83,-294 523.67,-294 520.5,-290.83 520.5,-287.67 520.5,-287.67 520.5,-281.33 520.5,-281.33 520.5,-278.17 523.67,-275 526.83,-275 526.83,-275 568.17,-275 568.17,-275 571.33,-275 574.5,-278.17 574.5,-281.33 574.5,-281.33 574.5,-287.67 574.5,-287.67 574.5,-290.83 571.33,-294 568.17,-294"/>
<text text-anchor="middle" x="547.5" y="-282" font-family="Arial" font-size="10.00" fill="#c6c5fe">app.ts</text>
</g>
<!-- arithmetic&#45;parsing.ts -->
<g id="node2" class="node">
<title>arithmetic&#45;parsing.ts</title>
<path fill="none" stroke="#c6c5fe" d="M984.67,-239C984.67,-239 892.33,-239 892.33,-239 889.17,-239 886,-235.83 886,-232.67 886,-232.67 886,-226.33 886,-226.33 886,-223.17 889.17,-220 892.33,-220 892.33,-220 984.67,-220 984.67,-220 987.83,-220 991,-223.17 991,-226.33 991,-226.33 991,-232.67 991,-232.67 991,-235.83 987.83,-239 984.67,-239"/>
<text text-anchor="middle" x="938.5" y="-227" font-family="Arial" font-size="10.00" fill="#c6c5fe">arithmetic&#45;parsing.ts</text>
</g>
<!-- app.ts&#45;&gt;arithmetic&#45;parsing.ts -->
<g id="edge1" class="edge">
<title>app.ts&#45;&gt;arithmetic&#45;parsing.ts</title>
<path fill="none" stroke="#757575" d="M574.68,-283C663.35,-283 938.5,-283 938.5,-283 938.5,-283 938.5,-249.31 938.5,-249.31"/>
<polygon fill="#757575" stroke="#757575" points="942,-249.31 938.5,-239.31 935,-249.31 942,-249.31"/>
</g>
<!-- array&#45;parsing.ts -->
<g id="node3" class="node">
<title>array&#45;parsing.ts</title>
<path fill="none" stroke="#cfffac" d="M396.17,-74C396.17,-74 324.83,-74 324.83,-74 321.67,-74 318.5,-70.83 318.5,-67.67 318.5,-67.67 318.5,-61.33 318.5,-61.33 318.5,-58.17 321.67,-55 324.83,-55 324.83,-55 396.17,-55 396.17,-55 399.33,-55 402.5,-58.17 402.5,-61.33 402.5,-61.33 402.5,-67.67 402.5,-67.67 402.5,-70.83 399.33,-74 396.17,-74"/>
<text text-anchor="middle" x="360.5" y="-62" font-family="Arial" font-size="10.00" fill="#cfffac">array&#45;parsing.ts</text>
</g>
<!-- app.ts&#45;&gt;array&#45;parsing.ts -->
<g id="edge2" class="edge">
<title>app.ts&#45;&gt;array&#45;parsing.ts</title>
<path fill="none" stroke="#757575" d="M520.49,-284C462.38,-284 330.75,-284 330.75,-284 330.75,-284 330.75,-84.21 330.75,-84.21"/>
<polygon fill="#757575" stroke="#757575" points="334.25,-84.21 330.75,-74.21 327.25,-84.21 334.25,-84.21"/>
</g>
<!-- expression&#45;with&#45;context.ts -->
<g id="node4" class="node">
<title>expression&#45;with&#45;context.ts</title>
<path fill="none" stroke="#c6c5fe" d="M822.67,-239C822.67,-239 704.33,-239 704.33,-239 701.17,-239 698,-235.83 698,-232.67 698,-232.67 698,-226.33 698,-226.33 698,-223.17 701.17,-220 704.33,-220 704.33,-220 822.67,-220 822.67,-220 825.83,-220 829,-223.17 829,-226.33 829,-226.33 829,-232.67 829,-232.67 829,-235.83 825.83,-239 822.67,-239"/>
<text text-anchor="middle" x="763.5" y="-227" font-family="Arial" font-size="10.00" fill="#c6c5fe">expression&#45;with&#45;context.ts</text>
</g>
<!-- app.ts&#45;&gt;expression&#45;with&#45;context.ts -->
<g id="edge3" class="edge">
<title>app.ts&#45;&gt;expression&#45;with&#45;context.ts</title>
<path fill="none" stroke="#757575" d="M574.86,-280C632.98,-280 763.5,-280 763.5,-280 763.5,-280 763.5,-249.24 763.5,-249.24"/>
<polygon fill="#757575" stroke="#757575" points="767,-249.24 763.5,-239.24 760,-249.24 767,-249.24"/>
</g>
<!-- instruction&#45;primitives.ts -->
<g id="node5" class="node">
<title>instruction&#45;primitives.ts</title>
<path fill="none" stroke="#c6c5fe" d="M1304.17,-129C1304.17,-129 1198.83,-129 1198.83,-129 1195.67,-129 1192.5,-125.83 1192.5,-122.67 1192.5,-122.67 1192.5,-116.33 1192.5,-116.33 1192.5,-113.17 1195.67,-110 1198.83,-110 1198.83,-110 1304.17,-110 1304.17,-110 1307.33,-110 1310.5,-113.17 1310.5,-116.33 1310.5,-116.33 1310.5,-122.67 1310.5,-122.67 1310.5,-125.83 1307.33,-129 1304.17,-129"/>
<text text-anchor="middle" x="1251.5" y="-117" font-family="Arial" font-size="10.00" fill="#c6c5fe">instruction&#45;primitives.ts</text>
</g>
<!-- app.ts&#45;&gt;instruction&#45;primitives.ts -->
<g id="edge4" class="edge">
<title>app.ts&#45;&gt;instruction&#45;primitives.ts</title>
<path fill="none" stroke="#757575" d="M574.62,-291C700.08,-291 1218.1,-291 1218.1,-291 1218.1,-291 1218.1,-139.21 1218.1,-139.21"/>
<polygon fill="#757575" stroke="#757575" points="1221.6,-139.21 1218.1,-129.21 1214.6,-139.21 1221.6,-139.21"/>
</g>
<!-- let&#45;binding.ts -->
<g id="node6" class="node">
<title>let&#45;binding.ts</title>
<path fill="none" stroke="#c6c5fe" d="M428.17,-184C428.17,-184 368.83,-184 368.83,-184 365.67,-184 362.5,-180.83 362.5,-177.67 362.5,-177.67 362.5,-171.33 362.5,-171.33 362.5,-168.17 365.67,-165 368.83,-165 368.83,-165 428.17,-165 428.17,-165 431.33,-165 434.5,-168.17 434.5,-171.33 434.5,-171.33 434.5,-177.67 434.5,-177.67 434.5,-180.83 431.33,-184 428.17,-184"/>
<text text-anchor="middle" x="398.5" y="-172" font-family="Arial" font-size="10.00" fill="#c6c5fe">let&#45;binding.ts</text>
</g>
<!-- app.ts&#45;&gt;let&#45;binding.ts -->
<g id="edge5" class="edge">
<title>app.ts&#45;&gt;let&#45;binding.ts</title>
<path fill="none" stroke="#757575" d="M520.35,-278C482.38,-278 418,-278 418,-278 418,-278 418,-194.05 418,-194.05"/>
<polygon fill="#757575" stroke="#757575" points="421.5,-194.05 418,-184.05 414.5,-194.05 421.5,-194.05"/>
</g>
<!-- let&#45;expression&#45;parsing.ts -->
<g id="node7" class="node">
<title>let&#45;expression&#45;parsing.ts</title>
<path fill="none" stroke="#c6c5fe" d="M117.67,-239C117.67,-239 7.33,-239 7.33,-239 4.17,-239 1,-235.83 1,-232.67 1,-232.67 1,-226.33 1,-226.33 1,-223.17 4.17,-220 7.33,-220 7.33,-220 117.67,-220 117.67,-220 120.83,-220 124,-223.17 124,-226.33 124,-226.33 124,-232.67 124,-232.67 124,-235.83 120.83,-239 117.67,-239"/>
<text text-anchor="middle" x="62.5" y="-227" font-family="Arial" font-size="10.00" fill="#c6c5fe">let&#45;expression&#45;parsing.ts</text>
</g>
<!-- app.ts&#45;&gt;let&#45;expression&#45;parsing.ts -->
<g id="edge6" class="edge">
<title>app.ts&#45;&gt;let&#45;expression&#45;parsing.ts</title>
<path fill="none" stroke="#757575" d="M520.39,-290C418.25,-290 62.5,-290 62.5,-290 62.5,-290 62.5,-249.22 62.5,-249.22"/>
<polygon fill="#757575" stroke="#757575" points="66,-249.22 62.5,-239.22 59,-249.22 66,-249.22"/>
</g>
<!-- parser.ts -->
<g id="node8" class="node">
<title>parser.ts</title>
<path fill="none" stroke="#c6c5fe" d="M764.67,-74C764.67,-74 722.33,-74 722.33,-74 719.17,-74 716,-70.83 716,-67.67 716,-67.67 716,-61.33 716,-61.33 716,-58.17 719.17,-55 722.33,-55 722.33,-55 764.67,-55 764.67,-55 767.83,-55 771,-58.17 771,-61.33 771,-61.33 771,-67.67 771,-67.67 771,-70.83 767.83,-74 764.67,-74"/>
<text text-anchor="middle" x="743.5" y="-62" font-family="Arial" font-size="10.00" fill="#c6c5fe">parser.ts</text>
</g>
<!-- app.ts&#45;&gt;parser.ts -->
<g id="edge7" class="edge">
<title>app.ts&#45;&gt;parser.ts</title>
<path fill="none" stroke="#757575" d="M574.68,-277C616.54,-277 692,-277 692,-277 692,-277 692,-69 692,-69 692,-69 705.94,-69 705.94,-69"/>
<polygon fill="#757575" stroke="#757575" points="705.94,-72.5 715.94,-69 705.94,-65.5 705.94,-72.5"/>
</g>
<!-- pointer&#45;validation.ts -->
<g id="node9" class="node">
<title>pointer&#45;validation.ts</title>
<path fill="none" stroke="#c6c5fe" d="M524.67,-239C524.67,-239 436.33,-239 436.33,-239 433.17,-239 430,-235.83 430,-232.67 430,-232.67 430,-226.33 430,-226.33 430,-223.17 433.17,-220 436.33,-220 436.33,-220 524.67,-220 524.67,-220 527.83,-220 531,-223.17 531,-226.33 531,-226.33 531,-232.67 531,-232.67 531,-235.83 527.83,-239 524.67,-239"/>
<text text-anchor="middle" x="480.5" y="-227" font-family="Arial" font-size="10.00" fill="#c6c5fe">pointer&#45;validation.ts</text>
</g>
<!-- app.ts&#45;&gt;pointer&#45;validation.ts -->
<g id="edge8" class="edge">
<title>app.ts&#45;&gt;pointer&#45;validation.ts</title>
<path fill="none" stroke="#757575" d="M525.75,-274.92C525.75,-274.92 525.75,-249.34 525.75,-249.34"/>
<polygon fill="#757575" stroke="#757575" points="529.25,-249.34 525.75,-239.34 522.25,-249.34 529.25,-249.34"/>
</g>
<!-- reassignment&#45;parsing.ts -->
<g id="node10" class="node">
<title>reassignment&#45;parsing.ts</title>
<path fill="none" stroke="#c6c5fe" d="M1115.67,-184C1115.67,-184 1007.33,-184 1007.33,-184 1004.17,-184 1001,-180.83 1001,-177.67 1001,-177.67 1001,-171.33 1001,-171.33 1001,-168.17 1004.17,-165 1007.33,-165 1007.33,-165 1115.67,-165 1115.67,-165 1118.83,-165 1122,-168.17 1122,-171.33 1122,-171.33 1122,-177.67 1122,-177.67 1122,-180.83 1118.83,-184 1115.67,-184"/>
<text text-anchor="middle" x="1061.5" y="-172" font-family="Arial" font-size="10.00" fill="#c6c5fe">reassignment&#45;parsing.ts</text>
</g>
<!-- app.ts&#45;&gt;reassignment&#45;parsing.ts -->
<g id="edge9" class="edge">
<title>app.ts&#45;&gt;reassignment&#45;parsing.ts</title>
<path fill="none" stroke="#757575" d="M574.68,-285C677.06,-285 1033.67,-285 1033.67,-285 1033.67,-285 1033.67,-194.31 1033.67,-194.31"/>
<polygon fill="#757575" stroke="#757575" points="1037.17,-194.31 1033.67,-184.31 1030.17,-194.31 1037.17,-194.31"/>
</g>
<!-- reassignment&#45;validation.ts -->
<g id="node11" class="node">
<title>reassignment&#45;validation.ts</title>
<path fill="none" stroke="#c6c5fe" d="M673.67,-239C673.67,-239 555.33,-239 555.33,-239 552.17,-239 549,-235.83 549,-232.67 549,-232.67 549,-226.33 549,-226.33 549,-223.17 552.17,-220 555.33,-220 555.33,-220 673.67,-220 673.67,-220 676.83,-220 680,-223.17 680,-226.33 680,-226.33 680,-232.67 680,-232.67 680,-235.83 676.83,-239 673.67,-239"/>
<text text-anchor="middle" x="614.5" y="-227" font-family="Arial" font-size="10.00" fill="#c6c5fe">reassignment&#45;validation.ts</text>
</g>
<!-- app.ts&#45;&gt;reassignment&#45;validation.ts -->
<g id="edge10" class="edge">
<title>app.ts&#45;&gt;reassignment&#45;validation.ts</title>
<path fill="none" stroke="#757575" d="M561.75,-274.92C561.75,-274.92 561.75,-249.34 561.75,-249.34"/>
<polygon fill="#757575" stroke="#757575" points="565.25,-249.34 561.75,-239.34 558.25,-249.34 565.25,-249.34"/>
</g>
<!-- types.ts -->
<g id="node12" class="node">
<title>types.ts</title>
<path fill="none" stroke="#c6c5fe" d="M784.17,-184C784.17,-184 742.83,-184 742.83,-184 739.67,-184 736.5,-180.83 736.5,-177.67 736.5,-177.67 736.5,-171.33 736.5,-171.33 736.5,-168.17 739.67,-165 742.83,-165 742.83,-165 784.17,-165 784.17,-165 787.33,-165 790.5,-168.17 790.5,-171.33 790.5,-171.33 790.5,-177.67 790.5,-177.67 790.5,-180.83 787.33,-184 784.17,-184"/>
<text text-anchor="middle" x="763.5" y="-172" font-family="Arial" font-size="10.00" fill="#c6c5fe">types.ts</text>
</g>
<!-- app.ts&#45;&gt;types.ts -->
<g id="edge11" class="edge">
<title>app.ts&#45;&gt;types.ts</title>
<path fill="none" stroke="#757575" d="M540,-274.87C540,-248.32 540,-176 540,-176 540,-176 726.09,-176 726.09,-176"/>
<polygon fill="#757575" stroke="#757575" points="726.09,-179.5 736.09,-176 726.09,-172.5 726.09,-179.5"/>
</g>
<!-- validation.ts -->
<g id="node13" class="node">
<title>validation.ts</title>
<path fill="none" stroke="#c6c5fe" d="M405.67,-239C405.67,-239 349.33,-239 349.33,-239 346.17,-239 343,-235.83 343,-232.67 343,-232.67 343,-226.33 343,-226.33 343,-223.17 346.17,-220 349.33,-220 349.33,-220 405.67,-220 405.67,-220 408.83,-220 412,-223.17 412,-226.33 412,-226.33 412,-232.67 412,-232.67 412,-235.83 408.83,-239 405.67,-239"/>
<text text-anchor="middle" x="377.5" y="-227" font-family="Arial" font-size="10.00" fill="#c6c5fe">validation.ts</text>
</g>
<!-- app.ts&#45;&gt;validation.ts -->
<g id="edge12" class="edge">
<title>app.ts&#45;&gt;validation.ts</title>
<path fill="none" stroke="#757575" d="M520.19,-281C472.13,-281 377.5,-281 377.5,-281 377.5,-281 377.5,-249.43 377.5,-249.43"/>
<polygon fill="#757575" stroke="#757575" points="381,-249.43 377.5,-239.43 374,-249.43 381,-249.43"/>
</g>
<!-- variable&#45;types.ts -->
<g id="node14" class="node">
<title>variable&#45;types.ts</title>
<path fill="none" stroke="#cfffac" d="M82.67,-74C82.67,-74 6.33,-74 6.33,-74 3.17,-74 0,-70.83 0,-67.67 0,-67.67 0,-61.33 0,-61.33 0,-58.17 3.17,-55 6.33,-55 6.33,-55 82.67,-55 82.67,-55 85.83,-55 89,-58.17 89,-61.33 89,-61.33 89,-67.67 89,-67.67 89,-70.83 85.83,-74 82.67,-74"/>
<text text-anchor="middle" x="44.5" y="-62" font-family="Arial" font-size="10.00" fill="#cfffac">variable&#45;types.ts</text>
</g>
<!-- app.ts&#45;&gt;variable&#45;types.ts -->
<g id="edge13" class="edge">
<title>app.ts&#45;&gt;variable&#45;types.ts</title>
<path fill="none" stroke="#757575" d="M520.25,-287C436.55,-287 188.83,-287 188.83,-287 188.83,-287 188.83,-67 188.83,-67 188.83,-67 99.38,-67 99.38,-67"/>
<polygon fill="#757575" stroke="#757575" points="99.38,-63.5 89.38,-67 99.38,-70.5 99.38,-63.5"/>
</g>
<!-- vm.ts -->
<g id="node15" class="node">
<title>vm.ts</title>
<path fill="none" stroke="#cfffac" d="M1185.17,-19C1185.17,-19 1143.83,-19 1143.83,-19 1140.67,-19 1137.5,-15.83 1137.5,-12.67 1137.5,-12.67 1137.5,-6.33 1137.5,-6.33 1137.5,-3.17 1140.67,0 1143.83,0 1143.83,0 1185.17,0 1185.17,0 1188.33,0 1191.5,-3.17 1191.5,-6.33 1191.5,-6.33 1191.5,-12.67 1191.5,-12.67 1191.5,-15.83 1188.33,-19 1185.17,-19"/>
<text text-anchor="middle" x="1164.5" y="-7" font-family="Arial" font-size="10.00" fill="#cfffac">vm.ts</text>
</g>
<!-- app.ts&#45;&gt;vm.ts -->
<g id="edge14" class="edge">
<title>app.ts&#45;&gt;vm.ts</title>
<path fill="none" stroke="#757575" d="M574.65,-288C694.49,-288 1170.12,-288 1170.12,-288 1170.12,-288 1170.12,-29.09 1170.12,-29.09"/>
<polygon fill="#757575" stroke="#757575" points="1173.63,-29.09 1170.12,-19.09 1166.63,-29.09 1173.63,-29.09"/>
</g>
<!-- arithmetic&#45;parsing.ts&#45;&gt;parser.ts -->
<g id="edge17" class="edge">
<title>arithmetic&#45;parsing.ts&#45;&gt;parser.ts</title>
<path fill="none" stroke="#757575" d="M918.5,-219.82C918.5,-184.84 918.5,-67 918.5,-67 918.5,-67 781.23,-67 781.23,-67"/>
<polygon fill="#757575" stroke="#757575" points="781.23,-63.5 771.23,-67 781.23,-70.5 781.23,-63.5"/>
</g>
<!-- arithmetic&#45;parsing.ts&#45;&gt;types.ts -->
<g id="edge18" class="edge">
<title>arithmetic&#45;parsing.ts&#45;&gt;types.ts</title>
<path fill="none" stroke="#757575" d="M892.83,-219.64C892.83,-207.09 892.83,-187 892.83,-187 892.83,-187 777,-187 777,-187 777,-187 777,-186.71 777,-186.71"/>
<polygon fill="#757575" stroke="#757575" points="780.5,-194.1 777,-184.1 773.5,-194.1 780.5,-194.1"/>
</g>
<!-- arithmetic&#45;parsing.ts&#45;&gt;vm.ts -->
<g id="edge19" class="edge">
<title>arithmetic&#45;parsing.ts&#45;&gt;vm.ts</title>
<path fill="none" stroke="#757575" d="M930.5,-219.73C930.5,-177.76 930.5,-15 930.5,-15 930.5,-15 1127.2,-15 1127.2,-15"/>
<polygon fill="#757575" stroke="#757575" points="1127.2,-18.5 1137.2,-15 1127.2,-11.5 1127.2,-18.5"/>
</g>
<!-- helpers.ts -->
<g id="node16" class="node">
<title>helpers.ts</title>
<path fill="none" stroke="#c6c5fe" d="M1435.67,-184C1435.67,-184 1389.33,-184 1389.33,-184 1386.17,-184 1383,-180.83 1383,-177.67 1383,-177.67 1383,-171.33 1383,-171.33 1383,-168.17 1386.17,-165 1389.33,-165 1389.33,-165 1435.67,-165 1435.67,-165 1438.83,-165 1442,-168.17 1442,-171.33 1442,-171.33 1442,-177.67 1442,-177.67 1442,-180.83 1438.83,-184 1435.67,-184"/>
<text text-anchor="middle" x="1412.5" y="-172" font-family="Arial" font-size="10.00" fill="#c6c5fe">helpers.ts</text>
</g>
<!-- arithmetic&#45;parsing.ts&#45;&gt;helpers.ts -->
<g id="edge15" class="edge">
<title>arithmetic&#45;parsing.ts&#45;&gt;helpers.ts</title>
<path fill="none" stroke="#757575" d="M966.75,-219.98C966.75,-217.74 966.75,-216 966.75,-216 966.75,-216 1402.67,-216 1402.67,-216 1402.67,-216 1402.67,-194.13 1402.67,-194.13"/>
<polygon fill="#757575" stroke="#757575" points="1406.17,-194.13 1402.67,-184.13 1399.17,-194.13 1406.17,-194.13"/>
</g>
<!-- operator&#45;parsing.ts -->
<g id="node17" class="node">
<title>operator&#45;parsing.ts</title>
<path fill="none" stroke="#c6c5fe" d="M900.17,-184C900.17,-184 814.83,-184 814.83,-184 811.67,-184 808.5,-180.83 808.5,-177.67 808.5,-177.67 808.5,-171.33 808.5,-171.33 808.5,-168.17 811.67,-165 814.83,-165 814.83,-165 900.17,-165 900.17,-165 903.33,-165 906.5,-168.17 906.5,-171.33 906.5,-171.33 906.5,-177.67 906.5,-177.67 906.5,-180.83 903.33,-184 900.17,-184"/>
<text text-anchor="middle" x="857.5" y="-172" font-family="Arial" font-size="10.00" fill="#c6c5fe">operator&#45;parsing.ts</text>
</g>
<!-- arithmetic&#45;parsing.ts&#45;&gt;operator&#45;parsing.ts -->
<g id="edge16" class="edge">
<title>arithmetic&#45;parsing.ts&#45;&gt;operator&#45;parsing.ts</title>
<path fill="none" stroke="#757575" d="M899.67,-219.92C899.67,-219.92 899.67,-194.34 899.67,-194.34"/>
<polygon fill="#757575" stroke="#757575" points="903.17,-194.34 899.67,-184.34 896.17,-194.34 903.17,-194.34"/>
</g>
<!-- expression&#45;with&#45;context.ts&#45;&gt;let&#45;binding.ts -->
<g id="edge29" class="edge">
<title>expression&#45;with&#45;context.ts&#45;&gt;let&#45;binding.ts</title>
<path fill="none" stroke="#757575" d="M710,-219.96C710,-205.57 710,-180 710,-180 710,-180 444.54,-180 444.54,-180"/>
<polygon fill="#757575" stroke="#757575" points="444.54,-176.5 434.54,-180 444.54,-183.5 444.54,-176.5"/>
</g>
<!-- expression&#45;with&#45;context.ts&#45;&gt;parser.ts -->
<g id="edge31" class="edge">
<title>expression&#45;with&#45;context.ts&#45;&gt;parser.ts</title>
<path fill="none" stroke="#757575" d="M732.4,-219.67C732.4,-219.67 732.4,-84.07 732.4,-84.07"/>
<polygon fill="#757575" stroke="#757575" points="735.9,-84.07 732.4,-74.07 728.9,-84.07 735.9,-84.07"/>
</g>
<!-- expression&#45;with&#45;context.ts&#45;&gt;types.ts -->
<g id="edge32" class="edge">
<title>expression&#45;with&#45;context.ts&#45;&gt;types.ts</title>
<path fill="none" stroke="#757575" d="M763.5,-219.92C763.5,-219.92 763.5,-194.34 763.5,-194.34"/>
<polygon fill="#757575" stroke="#757575" points="767,-194.34 763.5,-184.34 760,-194.34 767,-194.34"/>
</g>
<!-- expression&#45;with&#45;context.ts&#45;&gt;variable&#45;types.ts -->
<g id="edge33" class="edge">
<title>expression&#45;with&#45;context.ts&#45;&gt;variable&#45;types.ts</title>
<path fill="none" stroke="#757575" d="M704,-219.82C704,-212.97 704,-205 704,-205 704,-205 51.29,-205 51.29,-205 51.29,-205 51.29,-84.16 51.29,-84.16"/>
<polygon fill="#757575" stroke="#757575" points="54.79,-84.16 51.29,-74.16 47.79,-84.16 54.79,-84.16"/>
</g>
<!-- expression&#45;with&#45;context.ts&#45;&gt;vm.ts -->
<g id="edge34" class="edge">
<title>expression&#45;with&#45;context.ts&#45;&gt;vm.ts</title>
<path fill="none" stroke="#757575" d="M799.5,-219.87C799.5,-177.78 799.5,-12 799.5,-12 799.5,-12 1127.36,-12 1127.36,-12"/>
<polygon fill="#757575" stroke="#757575" points="1127.36,-15.5 1137.36,-12 1127.36,-8.5 1127.36,-15.5"/>
</g>
<!-- expression&#45;with&#45;context.ts&#45;&gt;operator&#45;parsing.ts -->
<g id="edge30" class="edge">
<title>expression&#45;with&#45;context.ts&#45;&gt;operator&#45;parsing.ts</title>
<path fill="none" stroke="#757575" d="M818.75,-219.92C818.75,-219.92 818.75,-194.34 818.75,-194.34"/>
<polygon fill="#757575" stroke="#757575" points="822.25,-194.34 818.75,-184.34 815.25,-194.34 822.25,-194.34"/>
</g>
<!-- instruction&#45;primitives.ts&#45;&gt;vm.ts -->
<g id="edge39" class="edge">
<title>instruction&#45;primitives.ts&#45;&gt;vm.ts</title>
<path fill="none" stroke="#757575" d="M1192.34,-116C1187.47,-116 1184.38,-116 1184.38,-116 1184.38,-116 1184.38,-29.33 1184.38,-29.33"/>
<polygon fill="#757575" stroke="#757575" points="1187.88,-29.33 1184.38,-19.33 1180.88,-29.33 1187.88,-29.33"/>
</g>
<!-- let&#45;binding.ts&#45;&gt;array&#45;parsing.ts -->
<g id="edge41" class="edge">
<title>let&#45;binding.ts&#45;&gt;array&#45;parsing.ts</title>
<path fill="none" stroke="#757575" d="M362.3,-169C355.12,-169 349.75,-169 349.75,-169 349.75,-169 349.75,-84.14 349.75,-84.14"/>
<polygon fill="#757575" stroke="#757575" points="353.25,-84.14 349.75,-74.14 346.25,-84.14 353.25,-84.14"/>
</g>
<!-- let&#45;binding.ts&#45;&gt;instruction&#45;primitives.ts -->
<g id="edge42" class="edge">
<title>let&#45;binding.ts&#45;&gt;instruction&#45;primitives.ts</title>
<path fill="none" stroke="#757575" d="M410.5,-164.99C410.5,-155.09 410.5,-141 410.5,-141 410.5,-141 1198.9,-141 1198.9,-141 1198.9,-141 1198.9,-139.24 1198.9,-139.24"/>
<polygon fill="#757575" stroke="#757575" points="1202.4,-139.24 1198.9,-129.24 1195.4,-139.24 1202.4,-139.24"/>
</g>
<!-- let&#45;binding.ts&#45;&gt;parser.ts -->
<g id="edge43" class="edge">
<title>let&#45;binding.ts&#45;&gt;parser.ts</title>
<path fill="none" stroke="#757575" d="M434.6,-170C519.4,-170 724.2,-170 724.2,-170 724.2,-170 724.2,-84.24 724.2,-84.24"/>
<polygon fill="#757575" stroke="#757575" points="727.7,-84.24 724.2,-74.24 720.7,-84.24 727.7,-84.24"/>
</g>
<!-- let&#45;binding.ts&#45;&gt;variable&#45;types.ts -->
<g id="edge45" class="edge">
<title>let&#45;binding.ts&#45;&gt;variable&#45;types.ts</title>
<path fill="none" stroke="#757575" d="M362.37,-174C275.84,-174 63.86,-174 63.86,-174 63.86,-174 63.86,-84.22 63.86,-84.22"/>
<polygon fill="#757575" stroke="#757575" points="67.36,-84.22 63.86,-74.22 60.36,-84.22 67.36,-84.22"/>
</g>
<!-- let&#45;binding.ts&#45;&gt;vm.ts -->
<g id="edge46" class="edge">
<title>let&#45;binding.ts&#45;&gt;vm.ts</title>
<path fill="none" stroke="#757575" d="M434.62,-168C511.84,-168 686,-168 686,-168 686,-168 686,-6 686,-6 686,-6 1127.4,-6 1127.4,-6"/>
<polygon fill="#757575" stroke="#757575" points="1127.4,-9.5 1137.4,-6 1127.4,-2.5 1127.4,-9.5"/>
</g>
<!-- array&#45;helpers.ts -->
<g id="node19" class="node">
<title>array&#45;helpers.ts</title>
<path fill="none" stroke="#c6c5fe" d="M434.17,-129C434.17,-129 362.83,-129 362.83,-129 359.67,-129 356.5,-125.83 356.5,-122.67 356.5,-122.67 356.5,-116.33 356.5,-116.33 356.5,-113.17 359.67,-110 362.83,-110 362.83,-110 434.17,-110 434.17,-110 437.33,-110 440.5,-113.17 440.5,-116.33 440.5,-116.33 440.5,-122.67 440.5,-122.67 440.5,-125.83 437.33,-129 434.17,-129"/>
<text text-anchor="middle" x="398.5" y="-117" font-family="Arial" font-size="10.00" fill="#c6c5fe">array&#45;helpers.ts</text>
</g>
<!-- let&#45;binding.ts&#45;&gt;array&#45;helpers.ts -->
<g id="edge40" class="edge">
<title>let&#45;binding.ts&#45;&gt;array&#45;helpers.ts</title>
<path fill="none" stroke="#757575" d="M386.5,-164.92C386.5,-164.92 386.5,-139.34 386.5,-139.34"/>
<polygon fill="#757575" stroke="#757575" points="390,-139.34 386.5,-129.34 383,-139.34 390,-139.34"/>
</g>
<!-- type&#45;inference&#45;helpers.ts -->
<g id="node22" class="node">
<title>type&#45;inference&#45;helpers.ts</title>
<path fill="none" stroke="#c6c5fe" d="M614.17,-129C614.17,-129 502.83,-129 502.83,-129 499.67,-129 496.5,-125.83 496.5,-122.67 496.5,-122.67 496.5,-116.33 496.5,-116.33 496.5,-113.17 499.67,-110 502.83,-110 502.83,-110 614.17,-110 614.17,-110 617.33,-110 620.5,-113.17 620.5,-116.33 620.5,-116.33 620.5,-122.67 620.5,-122.67 620.5,-125.83 617.33,-129 614.17,-129"/>
<text text-anchor="middle" x="558.5" y="-117" font-family="Arial" font-size="10.00" fill="#c6c5fe">type&#45;inference&#45;helpers.ts</text>
</g>
<!-- let&#45;binding.ts&#45;&gt;type&#45;inference&#45;helpers.ts -->
<g id="edge44" class="edge">
<title>let&#45;binding.ts&#45;&gt;type&#45;inference&#45;helpers.ts</title>
<path fill="none" stroke="#757575" d="M434.6,-166C465.53,-166 505.12,-166 505.12,-166 505.12,-166 505.12,-139.36 505.12,-139.36"/>
<polygon fill="#757575" stroke="#757575" points="508.63,-139.36 505.12,-129.36 501.63,-139.36 508.63,-139.36"/>
</g>
<!-- let&#45;expression&#45;parsing.ts&#45;&gt;let&#45;binding.ts -->
<g id="edge47" class="edge">
<title>let&#45;expression&#45;parsing.ts&#45;&gt;let&#45;binding.ts</title>
<path fill="none" stroke="#757575" d="M112.33,-219.76C112.33,-205.09 112.33,-179 112.33,-179 112.33,-179 352.26,-179 352.26,-179"/>
<polygon fill="#757575" stroke="#757575" points="352.26,-182.5 362.26,-179 352.26,-175.5 352.26,-182.5"/>
</g>
<!-- let&#45;expression&#45;parsing.ts&#45;&gt;variable&#45;types.ts -->
<g id="edge48" class="edge">
<title>let&#45;expression&#45;parsing.ts&#45;&gt;variable&#45;types.ts</title>
<path fill="none" stroke="#757575" d="M13.57,-219.67C13.57,-219.67 13.57,-84.07 13.57,-84.07"/>
<polygon fill="#757575" stroke="#757575" points="17.07,-84.07 13.57,-74.07 10.07,-84.07 17.07,-84.07"/>
</g>
<!-- let&#45;expression&#45;parsing.ts&#45;&gt;vm.ts -->
<g id="edge49" class="edge">
<title>let&#45;expression&#45;parsing.ts&#45;&gt;vm.ts</title>
<path fill="none" stroke="#757575" d="M100.67,-219.77C100.67,-176.41 100.67,-3 100.67,-3 100.67,-3 1127.4,-3 1127.4,-3"/>
<polygon fill="#757575" stroke="#757575" points="1127.4,-6.5 1137.4,-3 1127.4,0.5 1127.4,-6.5"/>
</g>
<!-- parser.ts&#45;&gt;vm.ts -->
<g id="edge51" class="edge">
<title>parser.ts&#45;&gt;vm.ts</title>
<path fill="none" stroke="#757575" d="M771.25,-58C861.75,-58 1142.6,-58 1142.6,-58 1142.6,-58 1142.6,-29.31 1142.6,-29.31"/>
<polygon fill="#757575" stroke="#757575" points="1146.1,-29.31 1142.6,-19.31 1139.1,-29.31 1146.1,-29.31"/>
</g>
<!-- pointer&#45;validation.ts&#45;&gt;let&#45;binding.ts -->
<g id="edge52" class="edge">
<title>pointer&#45;validation.ts&#45;&gt;let&#45;binding.ts</title>
<path fill="none" stroke="#757575" d="M429.62,-229C426.16,-229 424,-229 424,-229 424,-229 424,-194.24 424,-194.24"/>
<polygon fill="#757575" stroke="#757575" points="427.5,-194.24 424,-184.24 420.5,-194.24 427.5,-194.24"/>
</g>
<!-- pointer&#45;validation.ts&#45;&gt;parser.ts -->
<g id="edge53" class="edge">
<title>pointer&#45;validation.ts&#45;&gt;parser.ts</title>
<path fill="none" stroke="#757575" d="M482.5,-219.64C482.5,-184.01 482.5,-64 482.5,-64 482.5,-64 705.57,-64 705.57,-64"/>
<polygon fill="#757575" stroke="#757575" points="705.57,-67.5 715.57,-64 705.57,-60.5 705.57,-67.5"/>
</g>
<!-- pointer&#45;validation.ts&#45;&gt;types.ts -->
<g id="edge54" class="edge">
<title>pointer&#45;validation.ts&#45;&gt;types.ts</title>
<path fill="none" stroke="#757575" d="M522.38,-219.83C522.38,-203.93 522.38,-174 522.38,-174 522.38,-174 726.31,-174 726.31,-174"/>
<polygon fill="#757575" stroke="#757575" points="726.31,-177.5 736.31,-174 726.31,-170.5 726.31,-177.5"/>
</g>
<!-- pointer&#45;validation.ts&#45;&gt;variable&#45;types.ts -->
<g id="edge55" class="edge">
<title>pointer&#45;validation.ts&#45;&gt;variable&#45;types.ts</title>
<path fill="none" stroke="#757575" d="M454.5,-219.93C454.5,-215.85 454.5,-212 454.5,-212 454.5,-212 26.14,-212 26.14,-212 26.14,-212 26.14,-84.18 26.14,-84.18"/>
<polygon fill="#757575" stroke="#757575" points="29.64,-84.18 26.14,-74.18 22.64,-84.18 29.64,-84.18"/>
</g>
<!-- reassignment&#45;parsing.ts&#45;&gt;instruction&#45;primitives.ts -->
<g id="edge56" class="edge">
<title>reassignment&#45;parsing.ts&#45;&gt;instruction&#45;primitives.ts</title>
<path fill="none" stroke="#757575" d="M1122.16,-174C1163.85,-174 1211.7,-174 1211.7,-174 1211.7,-174 1211.7,-139.24 1211.7,-139.24"/>
<polygon fill="#757575" stroke="#757575" points="1215.2,-139.24 1211.7,-129.24 1208.2,-139.24 1215.2,-139.24"/>
</g>
<!-- reassignment&#45;parsing.ts&#45;&gt;parser.ts -->
<g id="edge57" class="edge">
<title>reassignment&#45;parsing.ts&#45;&gt;parser.ts</title>
<path fill="none" stroke="#757575" d="M1091.25,-164.69C1091.25,-137.65 1091.25,-64 1091.25,-64 1091.25,-64 781.08,-64 781.08,-64"/>
<polygon fill="#757575" stroke="#757575" points="781.08,-60.5 771.08,-64 781.08,-67.5 781.08,-60.5"/>
</g>
<!-- reassignment&#45;parsing.ts&#45;&gt;vm.ts -->
<g id="edge58" class="edge">
<title>reassignment&#45;parsing.ts&#45;&gt;vm.ts</title>
<path fill="none" stroke="#757575" d="M1122.14,-169C1139.01,-169 1152.8,-169 1152.8,-169 1152.8,-169 1152.8,-29.48 1152.8,-29.48"/>
<polygon fill="#757575" stroke="#757575" points="1156.3,-29.48 1152.8,-19.48 1149.3,-29.48 1156.3,-29.48"/>
</g>
<!-- reassignment&#45;validation.ts&#45;&gt;let&#45;binding.ts -->
<g id="edge59" class="edge">
<title>reassignment&#45;validation.ts&#45;&gt;let&#45;binding.ts</title>
<path fill="none" stroke="#757575" d="M596.67,-219.89C596.67,-206.01 596.67,-182 596.67,-182 596.67,-182 444.85,-182 444.85,-182"/>
<polygon fill="#757575" stroke="#757575" points="444.85,-178.5 434.85,-182 444.85,-185.5 444.85,-178.5"/>
</g>
<!-- reassignment&#45;validation.ts&#45;&gt;reassignment&#45;parsing.ts -->
<g id="edge60" class="edge">
<title>reassignment&#45;validation.ts&#45;&gt;reassignment&#45;parsing.ts</title>
<path fill="none" stroke="#757575" d="M640.33,-219.88C640.33,-211.95 640.33,-202 640.33,-202 640.33,-202 1017.33,-202 1017.33,-202 1017.33,-202 1017.33,-194.12 1017.33,-194.12"/>
<polygon fill="#757575" stroke="#757575" points="1020.83,-194.12 1017.33,-184.12 1013.83,-194.12 1020.83,-194.12"/>
</g>
<!-- reassignment&#45;validation.ts&#45;&gt;types.ts -->
<g id="edge61" class="edge">
<title>reassignment&#45;validation.ts&#45;&gt;types.ts</title>
<path fill="none" stroke="#757575" d="M660.17,-219.57C660.17,-204.6 660.17,-178 660.17,-178 660.17,-178 726.35,-178 726.35,-178"/>
<polygon fill="#757575" stroke="#757575" points="726.35,-181.5 736.35,-178 726.35,-174.5 726.35,-181.5"/>
</g>
<!-- reassignment&#45;validation.ts&#45;&gt;variable&#45;types.ts -->
<g id="edge62" class="edge">
<title>reassignment&#45;validation.ts&#45;&gt;variable&#45;types.ts</title>
<path fill="none" stroke="#757575" d="M572.83,-219.73C572.83,-214.45 572.83,-209 572.83,-209 572.83,-209 38.71,-209 38.71,-209 38.71,-209 38.71,-84.43 38.71,-84.43"/>
<polygon fill="#757575" stroke="#757575" points="42.21,-84.43 38.71,-74.43 35.21,-84.43 42.21,-84.43"/>
</g>
<!-- types.ts&#45;&gt;instruction&#45;primitives.ts -->
<g id="edge65" class="edge">
<title>types.ts&#45;&gt;instruction&#45;primitives.ts</title>
<path fill="none" stroke="#757575" d="M777.5,-164.76C777.5,-159.07 777.5,-153 777.5,-153 777.5,-153 1205.3,-153 1205.3,-153 1205.3,-153 1205.3,-139.01 1205.3,-139.01"/>
<polygon fill="#757575" stroke="#757575" points="1208.8,-139.01 1205.3,-129.01 1201.8,-139.01 1208.8,-139.01"/>
</g>
<!-- types.ts&#45;&gt;parser.ts -->
<g id="edge66" class="edge">
<title>types.ts&#45;&gt;parser.ts</title>
<path fill="none" stroke="#757575" d="M748,-164.74C748,-164.74 748,-84.08 748,-84.08"/>
<polygon fill="#757575" stroke="#757575" points="751.5,-84.08 748,-74.08 744.5,-84.08 751.5,-84.08"/>
</g>
<!-- types.ts&#45;&gt;vm.ts -->
<g id="edge67" class="edge">
<title>types.ts&#45;&gt;vm.ts</title>
<path fill="none" stroke="#757575" d="M784,-164.64C784,-129.01 784,-9 784,-9 784,-9 1127.44,-9 1127.44,-9"/>
<polygon fill="#757575" stroke="#757575" points="1127.44,-12.5 1137.44,-9 1127.44,-5.5 1127.44,-12.5"/>
</g>
<!-- types.ts&#45;&gt;array&#45;helpers.ts -->
<g id="edge64" class="edge">
<title>types.ts&#45;&gt;array&#45;helpers.ts</title>
<path fill="none" stroke="#757575" d="M736.28,-172C663.25,-172 468.5,-172 468.5,-172 468.5,-172 468.5,-119 468.5,-119 468.5,-119 450.83,-119 450.83,-119"/>
<polygon fill="#757575" stroke="#757575" points="450.83,-115.5 440.83,-119 450.83,-122.5 450.83,-115.5"/>
</g>
<!-- validation.ts&#45;&gt;let&#45;binding.ts -->
<g id="edge68" class="edge">
<title>validation.ts&#45;&gt;let&#45;binding.ts</title>
<path fill="none" stroke="#757575" d="M372.4,-219.92C372.4,-219.92 372.4,-194.34 372.4,-194.34"/>
<polygon fill="#757575" stroke="#757575" points="375.9,-194.34 372.4,-184.34 368.9,-194.34 375.9,-194.34"/>
</g>
<!-- validation.ts&#45;&gt;parser.ts -->
<g id="edge69" class="edge">
<title>validation.ts&#45;&gt;parser.ts</title>
<path fill="none" stroke="#757575" d="M392.2,-219.8C392.2,-209.29 392.2,-194 392.2,-194 392.2,-194 728.3,-194 728.3,-194 728.3,-194 728.3,-84.23 728.3,-84.23"/>
<polygon fill="#757575" stroke="#757575" points="731.8,-84.23 728.3,-74.23 724.8,-84.23 731.8,-84.23"/>
</g>
<!-- validation.ts&#45;&gt;types.ts -->
<g id="edge71" class="edge">
<title>validation.ts&#45;&gt;types.ts</title>
<path fill="none" stroke="#757575" d="M402.1,-219.88C402.1,-210.61 402.1,-198 402.1,-198 402.1,-198 750,-198 750,-198 750,-198 750,-194.06 750,-194.06"/>
<polygon fill="#757575" stroke="#757575" points="753.5,-194.06 750,-184.06 746.5,-194.06 753.5,-194.06"/>
</g>
<!-- validation.ts&#45;&gt;variable&#45;types.ts -->
<g id="edge72" class="edge">
<title>validation.ts&#45;&gt;variable&#45;types.ts</title>
<path fill="none" stroke="#757575" d="M342.68,-229C306.05,-229 253.67,-229 253.67,-229 253.67,-229 253.67,-61 253.67,-61 253.67,-61 99.11,-61 99.11,-61"/>
<polygon fill="#757575" stroke="#757575" points="99.11,-57.5 89.11,-61 99.11,-64.5 99.11,-57.5"/>
</g>
<!-- validation.ts&#45;&gt;type&#45;inference&#45;helpers.ts -->
<g id="edge70" class="edge">
<title>validation.ts&#45;&gt;type&#45;inference&#45;helpers.ts</title>
<path fill="none" stroke="#757575" d="M382.3,-219.78C382.3,-208.38 382.3,-191 382.3,-191 382.3,-191 513.75,-191 513.75,-191 513.75,-191 513.75,-139.14 513.75,-139.14"/>
<polygon fill="#757575" stroke="#757575" points="517.25,-139.14 513.75,-129.14 510.25,-139.14 517.25,-139.14"/>
</g>
<!-- helpers.ts&#45;&gt;instruction&#45;primitives.ts -->
<g id="edge35" class="edge">
<title>helpers.ts&#45;&gt;instruction&#45;primitives.ts</title>
<path fill="none" stroke="#757575" d="M1402.67,-164.83C1402.67,-148.93 1402.67,-119 1402.67,-119 1402.67,-119 1320.81,-119 1320.81,-119"/>
<polygon fill="#757575" stroke="#757575" points="1320.81,-115.5 1310.81,-119 1320.81,-122.5 1320.81,-115.5"/>
</g>
<!-- helpers.ts&#45;&gt;vm.ts -->
<g id="edge36" class="edge">
<title>helpers.ts&#45;&gt;vm.ts</title>
<path fill="none" stroke="#757575" d="M1422.33,-164.64C1422.33,-129.01 1422.33,-9 1422.33,-9 1422.33,-9 1201.61,-9 1201.61,-9"/>
<polygon fill="#757575" stroke="#757575" points="1201.61,-5.5 1191.61,-9 1201.61,-12.5 1201.61,-5.5"/>
</g>
<!-- operator&#45;parsing.ts&#45;&gt;parser.ts -->
<g id="edge50" class="edge">
<title>operator&#45;parsing.ts&#45;&gt;parser.ts</title>
<path fill="none" stroke="#757575" d="M857.5,-164.86C857.5,-138.99 857.5,-70 857.5,-70 857.5,-70 781.1,-70 781.1,-70"/>
<polygon fill="#757575" stroke="#757575" points="781.1,-66.5 771.1,-70 781.1,-73.5 781.1,-66.5"/>
</g>
<!-- array&#45;compilation.ts -->
<g id="node18" class="node">
<title>array&#45;compilation.ts</title>
<path fill="none" stroke="#c6c5fe" d="M1320.17,-184C1320.17,-184 1230.83,-184 1230.83,-184 1227.67,-184 1224.5,-180.83 1224.5,-177.67 1224.5,-177.67 1224.5,-171.33 1224.5,-171.33 1224.5,-168.17 1227.67,-165 1230.83,-165 1230.83,-165 1320.17,-165 1320.17,-165 1323.33,-165 1326.5,-168.17 1326.5,-171.33 1326.5,-171.33 1326.5,-177.67 1326.5,-177.67 1326.5,-180.83 1323.33,-184 1320.17,-184"/>
<text text-anchor="middle" x="1275.5" y="-172" font-family="Arial" font-size="10.00" fill="#c6c5fe">array&#45;compilation.ts</text>
</g>
<!-- array&#45;compilation.ts&#45;&gt;instruction&#45;primitives.ts -->
<g id="edge20" class="edge">
<title>array&#45;compilation.ts&#45;&gt;instruction&#45;primitives.ts</title>
<path fill="none" stroke="#757575" d="M1267.5,-164.92C1267.5,-164.92 1267.5,-139.34 1267.5,-139.34"/>
<polygon fill="#757575" stroke="#757575" points="1271,-139.34 1267.5,-129.34 1264,-139.34 1271,-139.34"/>
</g>
<!-- array&#45;compilation.ts&#45;&gt;vm.ts -->
<g id="edge21" class="edge">
<title>array&#45;compilation.ts&#45;&gt;vm.ts</title>
<path fill="none" stroke="#757575" d="M1224.36,-179C1200.49,-179 1177.25,-179 1177.25,-179 1177.25,-179 1177.25,-29.1 1177.25,-29.1"/>
<polygon fill="#757575" stroke="#757575" points="1180.75,-29.1 1177.25,-19.1 1173.75,-29.1 1180.75,-29.1"/>
</g>
<!-- array&#45;helpers.ts&#45;&gt;array&#45;parsing.ts -->
<g id="edge22" class="edge">
<title>array&#45;helpers.ts&#45;&gt;array&#45;parsing.ts</title>
<path fill="none" stroke="#757575" d="M379.5,-109.92C379.5,-109.92 379.5,-84.34 379.5,-84.34"/>
<polygon fill="#757575" stroke="#757575" points="383,-84.34 379.5,-74.34 376,-84.34 383,-84.34"/>
</g>
<!-- array&#45;helpers.ts&#45;&gt;parser.ts -->
<g id="edge23" class="edge">
<title>array&#45;helpers.ts&#45;&gt;parser.ts</title>
<path fill="none" stroke="#757575" d="M421.5,-109.78C421.5,-92.68 421.5,-59 421.5,-59 421.5,-59 705.77,-59 705.77,-59"/>
<polygon fill="#757575" stroke="#757575" points="705.77,-62.5 715.77,-59 705.77,-55.5 705.77,-62.5"/>
</g>
<!-- array&#45;helpers.ts&#45;&gt;variable&#45;types.ts -->
<g id="edge24" class="edge">
<title>array&#45;helpers.ts&#45;&gt;variable&#45;types.ts</title>
<path fill="none" stroke="#757575" d="M356.39,-119C269.09,-119 76.43,-119 76.43,-119 76.43,-119 76.43,-84.24 76.43,-84.24"/>
<polygon fill="#757575" stroke="#757575" points="79.93,-84.24 76.43,-74.24 72.93,-84.24 79.93,-84.24"/>
</g>
<!-- comparison&#45;parsing.ts -->
<g id="node20" class="node">
<title>comparison&#45;parsing.ts</title>
<path fill="none" stroke="#c6c5fe" d="M1156.67,-239C1156.67,-239 1056.33,-239 1056.33,-239 1053.17,-239 1050,-235.83 1050,-232.67 1050,-232.67 1050,-226.33 1050,-226.33 1050,-223.17 1053.17,-220 1056.33,-220 1056.33,-220 1156.67,-220 1156.67,-220 1159.83,-220 1163,-223.17 1163,-226.33 1163,-226.33 1163,-232.67 1163,-232.67 1163,-235.83 1159.83,-239 1156.67,-239"/>
<text text-anchor="middle" x="1106.5" y="-227" font-family="Arial" font-size="10.00" fill="#c6c5fe">comparison&#45;parsing.ts</text>
</g>
<!-- comparison&#45;parsing.ts&#45;&gt;parser.ts -->
<g id="edge27" class="edge">
<title>comparison&#45;parsing.ts&#45;&gt;parser.ts</title>
<path fill="none" stroke="#757575" d="M1129.75,-219.96C1129.75,-184.31 1129.75,-61 1129.75,-61 1129.75,-61 781.28,-61 781.28,-61"/>
<polygon fill="#757575" stroke="#757575" points="781.28,-57.5 771.28,-61 781.28,-64.5 781.28,-57.5"/>
</g>
<!-- comparison&#45;parsing.ts&#45;&gt;vm.ts -->
<g id="edge28" class="edge">
<title>comparison&#45;parsing.ts&#45;&gt;vm.ts</title>
<path fill="none" stroke="#757575" d="M1157.9,-219.76C1157.9,-219.76 1157.9,-29.12 1157.9,-29.12"/>
<polygon fill="#757575" stroke="#757575" points="1161.4,-29.12 1157.9,-19.12 1154.4,-29.12 1161.4,-29.12"/>
</g>
<!-- comparison&#45;parsing.ts&#45;&gt;helpers.ts -->
<g id="edge25" class="edge">
<title>comparison&#45;parsing.ts&#45;&gt;helpers.ts</title>
<path fill="none" stroke="#757575" d="M1163.33,-229C1254.26,-229 1422.33,-229 1422.33,-229 1422.33,-229 1422.33,-194.24 1422.33,-194.24"/>
<polygon fill="#757575" stroke="#757575" points="1425.83,-194.24 1422.33,-184.24 1418.83,-194.24 1425.83,-194.24"/>
</g>
<!-- comparison&#45;parsing.ts&#45;&gt;operator&#45;parsing.ts -->
<g id="edge26" class="edge">
<title>comparison&#45;parsing.ts&#45;&gt;operator&#45;parsing.ts</title>
<path fill="none" stroke="#757575" d="M1049.96,-229C1022.77,-229 996,-229 996,-229 996,-229 996,-174 996,-174 996,-174 916.72,-174 916.72,-174"/>
<polygon fill="#757575" stroke="#757575" points="916.72,-170.5 906.72,-174 916.72,-177.5 916.72,-170.5"/>
</g>
<!-- if&#45;expression&#45;parsing.ts -->
<g id="node21" class="node">
<title>if&#45;expression&#45;parsing.ts</title>
<path fill="none" stroke="#c6c5fe" d="M1054.17,-129C1054.17,-129 948.83,-129 948.83,-129 945.67,-129 942.5,-125.83 942.5,-122.67 942.5,-122.67 942.5,-116.33 942.5,-116.33 942.5,-113.17 945.67,-110 948.83,-110 948.83,-110 1054.17,-110 1054.17,-110 1057.33,-110 1060.5,-113.17 1060.5,-116.33 1060.5,-116.33 1060.5,-122.67 1060.5,-122.67 1060.5,-125.83 1057.33,-129 1054.17,-129"/>
<text text-anchor="middle" x="1001.5" y="-117" font-family="Arial" font-size="10.00" fill="#c6c5fe">if&#45;expression&#45;parsing.ts</text>
</g>
<!-- if&#45;expression&#45;parsing.ts&#45;&gt;parser.ts -->
<g id="edge37" class="edge">
<title>if&#45;expression&#45;parsing.ts&#45;&gt;parser.ts</title>
<path fill="none" stroke="#757575" d="M942.3,-122C870.66,-122 759.5,-122 759.5,-122 759.5,-122 759.5,-84.25 759.5,-84.25"/>
<polygon fill="#757575" stroke="#757575" points="763,-84.25 759.5,-74.25 756,-84.25 763,-84.25"/>
</g>
<!-- if&#45;expression&#45;parsing.ts&#45;&gt;vm.ts -->
<g id="edge38" class="edge">
<title>if&#45;expression&#45;parsing.ts&#45;&gt;vm.ts</title>
<path fill="none" stroke="#757575" d="M1060.54,-122C1101.12,-122 1147.7,-122 1147.7,-122 1147.7,-122 1147.7,-29.09 1147.7,-29.09"/>
<polygon fill="#757575" stroke="#757575" points="1151.2,-29.09 1147.7,-19.09 1144.2,-29.09 1151.2,-29.09"/>
</g>
<!-- type&#45;inference&#45;helpers.ts&#45;&gt;parser.ts -->
<g id="edge63" class="edge">
<title>type&#45;inference&#45;helpers.ts&#45;&gt;parser.ts</title>
<path fill="none" stroke="#757575" d="M620.52,-116C666.09,-116 720.1,-116 720.1,-116 720.1,-116 720.1,-84.43 720.1,-84.43"/>
<polygon fill="#757575" stroke="#757575" points="723.6,-84.43 720.1,-74.43 716.6,-84.43 723.6,-84.43"/>
</g>
</g>
</svg>
