<?xml version="1.0" encoding="UTF-8" standalone="no"?>
<!DOCTYPE svg PUBLIC "-//W3C//DTD SVG 1.1//EN"
 "http://www.w3.org/Graphics/SVG/1.1/DTD/svg11.dtd">
<!-- Generated by graphviz version 2.43.0 (0)
 -->
<!-- Title: G Pages: 1 -->
<svg width="2364pt" height="538pt"
 viewBox="0.00 0.00 2364.20 538.20" xmlns="http://www.w3.org/2000/svg" xmlns:xlink="http://www.w3.org/1999/xlink">
<g id="graph0" class="graph" transform="scale(1 1) rotate(0) translate(21.6 516.6)">
<title>G</title>
<polygon fill="#111111" stroke="transparent" points="-21.6,21.6 -21.6,-516.6 2342.6,-516.6 2342.6,21.6 -21.6,21.6"/>
<!-- src/app.ts -->
<g id="node1" class="node">
<title>src/app.ts</title>
<path fill="none" stroke="#c6c5fe" d="M852.83,-377C852.83,-377 793.17,-377 793.17,-377 789.33,-377 785.5,-373.17 785.5,-369.33 785.5,-369.33 785.5,-361.67 785.5,-361.67 785.5,-357.83 789.33,-354 793.17,-354 793.17,-354 852.83,-354 852.83,-354 856.67,-354 860.5,-357.83 860.5,-361.67 860.5,-361.67 860.5,-369.33 860.5,-369.33 860.5,-373.17 856.67,-377 852.83,-377"/>
<text text-anchor="middle" x="823" y="-361.8" font-family="Arial" font-size="14.00" fill="#c6c5fe">src/app.ts</text>
</g>
<!-- src/expressions/binary&#45;operation.ts -->
<g id="node2" class="node">
<title>src/expressions/binary&#45;operation.ts</title>
<path fill="none" stroke="#c6c5fe" d="M2034.33,-259C2034.33,-259 1823.67,-259 1823.67,-259 1819.83,-259 1816,-255.17 1816,-251.33 1816,-251.33 1816,-243.67 1816,-243.67 1816,-239.83 1819.83,-236 1823.67,-236 1823.67,-236 2034.33,-236 2034.33,-236 2038.17,-236 2042,-239.83 2042,-243.67 2042,-243.67 2042,-251.33 2042,-251.33 2042,-255.17 2038.17,-259 2034.33,-259"/>
<text text-anchor="middle" x="1929" y="-243.8" font-family="Arial" font-size="14.00" fill="#c6c5fe">src/expressions/binary&#45;operation.ts</text>
</g>
<!-- src/app.ts&#45;&gt;src/expressions/binary&#45;operation.ts -->
<g id="edge1" class="edge">
<title>src/app.ts&#45;&gt;src/expressions/binary&#45;operation.ts</title>
<path fill="none" stroke="#757575" d="M860.75,-370C1054.59,-370 1929,-370 1929,-370 1929,-370 1929,-269.25 1929,-269.25"/>
<polygon fill="#757575" stroke="#757575" points="1932.5,-269.25 1929,-259.25 1925.5,-269.25 1932.5,-269.25"/>
</g>
<!-- src/expressions/grouped&#45;expressions.ts -->
<g id="node3" class="node">
<title>src/expressions/grouped&#45;expressions.ts</title>
<path fill="none" stroke="#c6c5fe" d="M745.33,-200C745.33,-200 506.67,-200 506.67,-200 502.83,-200 499,-196.17 499,-192.33 499,-192.33 499,-184.67 499,-184.67 499,-180.83 502.83,-177 506.67,-177 506.67,-177 745.33,-177 745.33,-177 749.17,-177 753,-180.83 753,-184.67 753,-184.67 753,-192.33 753,-192.33 753,-196.17 749.17,-200 745.33,-200"/>
<text text-anchor="middle" x="626" y="-184.8" font-family="Arial" font-size="14.00" fill="#c6c5fe">src/expressions/grouped&#45;expressions.ts</text>
</g>
<!-- src/app.ts&#45;&gt;src/expressions/grouped&#45;expressions.ts -->
<g id="edge2" class="edge">
<title>src/app.ts&#45;&gt;src/expressions/grouped&#45;expressions.ts</title>
<path fill="none" stroke="#757575" d="M785.2,-357C762.7,-357 738.5,-357 738.5,-357 738.5,-357 738.5,-210.08 738.5,-210.08"/>
<polygon fill="#757575" stroke="#757575" points="742,-210.08 738.5,-200.08 735,-210.08 742,-210.08"/>
</g>
<!-- src/expressions/handlers.ts -->
<g id="node4" class="node">
<title>src/expressions/handlers.ts</title>
<path fill="none" stroke="#cfffac" d="M761.33,-23C761.33,-23 596.67,-23 596.67,-23 592.83,-23 589,-19.17 589,-15.33 589,-15.33 589,-7.67 589,-7.67 589,-3.83 592.83,0 596.67,0 596.67,0 761.33,0 761.33,0 765.17,0 769,-3.83 769,-7.67 769,-7.67 769,-15.33 769,-15.33 769,-19.17 765.17,-23 761.33,-23"/>
<text text-anchor="middle" x="679" y="-7.8" font-family="Arial" font-size="14.00" fill="#cfffac">src/expressions/handlers.ts</text>
</g>
<!-- src/app.ts&#45;&gt;src/expressions/handlers.ts -->
<g id="edge3" class="edge">
<title>src/app.ts&#45;&gt;src/expressions/handlers.ts</title>
<path fill="none" stroke="#757575" d="M785.5,-365C685.57,-365 420.5,-365 420.5,-365 420.5,-365 420.5,-15 420.5,-15 420.5,-15 578.95,-15 578.95,-15"/>
<polygon fill="#757575" stroke="#757575" points="578.95,-18.5 588.95,-15 578.95,-11.5 578.95,-18.5"/>
</g>
<!-- src/functions.ts -->
<g id="node5" class="node">
<title>src/functions.ts</title>
<path fill="none" stroke="#c6c5fe" d="M1299.83,-200C1299.83,-200 1208.17,-200 1208.17,-200 1204.33,-200 1200.5,-196.17 1200.5,-192.33 1200.5,-192.33 1200.5,-184.67 1200.5,-184.67 1200.5,-180.83 1204.33,-177 1208.17,-177 1208.17,-177 1299.83,-177 1299.83,-177 1303.67,-177 1307.5,-180.83 1307.5,-184.67 1307.5,-184.67 1307.5,-192.33 1307.5,-192.33 1307.5,-196.17 1303.67,-200 1299.83,-200"/>
<text text-anchor="middle" x="1254" y="-184.8" font-family="Arial" font-size="14.00" fill="#c6c5fe">src/functions.ts</text>
</g>
<!-- src/app.ts&#45;&gt;src/functions.ts -->
<g id="edge4" class="edge">
<title>src/app.ts&#45;&gt;src/functions.ts</title>
<path fill="none" stroke="#757575" d="M860.61,-360C944.58,-360 1140,-360 1140,-360 1140,-360 1140,-196 1140,-196 1140,-196 1190.34,-196 1190.34,-196"/>
<polygon fill="#757575" stroke="#757575" points="1190.34,-199.5 1200.34,-196 1190.34,-192.5 1190.34,-199.5"/>
</g>
<!-- src/handlers/lambda&#45;expressions.ts -->
<g id="node6" class="node">
<title>src/handlers/lambda&#45;expressions.ts</title>
<path fill="none" stroke="#c6c5fe" d="M1379.33,-259C1379.33,-259 1164.67,-259 1164.67,-259 1160.83,-259 1157,-255.17 1157,-251.33 1157,-251.33 1157,-243.67 1157,-243.67 1157,-239.83 1160.83,-236 1164.67,-236 1164.67,-236 1379.33,-236 1379.33,-236 1383.17,-236 1387,-239.83 1387,-243.67 1387,-243.67 1387,-251.33 1387,-251.33 1387,-255.17 1383.17,-259 1379.33,-259"/>
<text text-anchor="middle" x="1272" y="-243.8" font-family="Arial" font-size="14.00" fill="#c6c5fe">src/handlers/lambda&#45;expressions.ts</text>
</g>
<!-- src/app.ts&#45;&gt;src/handlers/lambda&#45;expressions.ts -->
<g id="edge5" class="edge">
<title>src/app.ts&#45;&gt;src/handlers/lambda&#45;expressions.ts</title>
<path fill="none" stroke="#757575" d="M860.75,-363C951.75,-363 1175.75,-363 1175.75,-363 1175.75,-363 1175.75,-269.43 1175.75,-269.43"/>
<polygon fill="#757575" stroke="#757575" points="1179.25,-269.43 1175.75,-259.43 1172.25,-269.43 1179.25,-269.43"/>
</g>
<!-- src/handlers/pointer&#45;operations.ts -->
<g id="node7" class="node">
<title>src/handlers/pointer&#45;operations.ts</title>
<path fill="none" stroke="#c6c5fe" d="M1063.83,-318C1063.83,-318 862.17,-318 862.17,-318 858.33,-318 854.5,-314.17 854.5,-310.33 854.5,-310.33 854.5,-302.67 854.5,-302.67 854.5,-298.83 858.33,-295 862.17,-295 862.17,-295 1063.83,-295 1063.83,-295 1067.67,-295 1071.5,-298.83 1071.5,-302.67 1071.5,-302.67 1071.5,-310.33 1071.5,-310.33 1071.5,-314.17 1067.67,-318 1063.83,-318"/>
<text text-anchor="middle" x="963" y="-302.8" font-family="Arial" font-size="14.00" fill="#c6c5fe">src/handlers/pointer&#45;operations.ts</text>
</g>
<!-- src/app.ts&#45;&gt;src/handlers/pointer&#45;operations.ts -->
<g id="edge6" class="edge">
<title>src/app.ts&#45;&gt;src/handlers/pointer&#45;operations.ts</title>
<path fill="none" stroke="#757575" d="M860.52,-357C868.33,-357 874.25,-357 874.25,-357 874.25,-357 874.25,-328.21 874.25,-328.21"/>
<polygon fill="#757575" stroke="#757575" points="877.75,-328.21 874.25,-318.21 870.75,-328.21 877.75,-328.21"/>
</g>
<!-- src/loops/for.ts -->
<g id="node8" class="node">
<title>src/loops/for.ts</title>
<path fill="none" stroke="#c6c5fe" d="M384.33,-318C384.33,-318 295.67,-318 295.67,-318 291.83,-318 288,-314.17 288,-310.33 288,-310.33 288,-302.67 288,-302.67 288,-298.83 291.83,-295 295.67,-295 295.67,-295 384.33,-295 384.33,-295 388.17,-295 392,-298.83 392,-302.67 392,-302.67 392,-310.33 392,-310.33 392,-314.17 388.17,-318 384.33,-318"/>
<text text-anchor="middle" x="340" y="-302.8" font-family="Arial" font-size="14.00" fill="#c6c5fe">src/loops/for.ts</text>
</g>
<!-- src/app.ts&#45;&gt;src/loops/for.ts -->
<g id="edge7" class="edge">
<title>src/app.ts&#45;&gt;src/loops/for.ts</title>
<path fill="none" stroke="#757575" d="M808.5,-353.74C808.5,-336.4 808.5,-306 808.5,-306 808.5,-306 402.38,-306 402.38,-306"/>
<polygon fill="#757575" stroke="#757575" points="402.38,-302.5 392.38,-306 402.38,-309.5 402.38,-302.5"/>
</g>
<!-- src/loops/loop.ts -->
<g id="node9" class="node">
<title>src/loops/loop.ts</title>
<path fill="none" stroke="#cfffac" d="M106.33,-259C106.33,-259 7.67,-259 7.67,-259 3.83,-259 0,-255.17 0,-251.33 0,-251.33 0,-243.67 0,-243.67 0,-239.83 3.83,-236 7.67,-236 7.67,-236 106.33,-236 106.33,-236 110.17,-236 114,-239.83 114,-243.67 114,-243.67 114,-251.33 114,-251.33 114,-255.17 110.17,-259 106.33,-259"/>
<text text-anchor="middle" x="57" y="-243.8" font-family="Arial" font-size="14.00" fill="#cfffac">src/loops/loop.ts</text>
</g>
<!-- src/app.ts&#45;&gt;src/loops/loop.ts -->
<g id="edge8" class="edge">
<title>src/app.ts&#45;&gt;src/loops/loop.ts</title>
<path fill="none" stroke="#757575" d="M785.48,-373C628,-373 28.5,-373 28.5,-373 28.5,-373 28.5,-269.08 28.5,-269.08"/>
<polygon fill="#757575" stroke="#757575" points="32,-269.08 28.5,-259.08 25,-269.08 32,-269.08"/>
</g>
<!-- src/loops/while.ts -->
<g id="node10" class="node">
<title>src/loops/while.ts</title>
<path fill="none" stroke="#c6c5fe" d="M254.83,-318C254.83,-318 151.17,-318 151.17,-318 147.33,-318 143.5,-314.17 143.5,-310.33 143.5,-310.33 143.5,-302.67 143.5,-302.67 143.5,-298.83 147.33,-295 151.17,-295 151.17,-295 254.83,-295 254.83,-295 258.67,-295 262.5,-298.83 262.5,-302.67 262.5,-302.67 262.5,-310.33 262.5,-310.33 262.5,-314.17 258.67,-318 254.83,-318"/>
<text text-anchor="middle" x="203" y="-302.8" font-family="Arial" font-size="14.00" fill="#c6c5fe">src/loops/while.ts</text>
</g>
<!-- src/app.ts&#45;&gt;src/loops/while.ts -->
<g id="edge9" class="edge">
<title>src/app.ts&#45;&gt;src/loops/while.ts</title>
<path fill="none" stroke="#757575" d="M785.15,-369C650.54,-369 203,-369 203,-369 203,-369 203,-328.26 203,-328.26"/>
<polygon fill="#757575" stroke="#757575" points="206.5,-328.26 203,-318.26 199.5,-328.26 206.5,-328.26"/>
</g>
<!-- src/match.ts -->
<g id="node11" class="node">
<title>src/match.ts</title>
<path fill="none" stroke="#cfffac" d="M513.33,-141C513.33,-141 438.67,-141 438.67,-141 434.83,-141 431,-137.17 431,-133.33 431,-133.33 431,-125.67 431,-125.67 431,-121.83 434.83,-118 438.67,-118 438.67,-118 513.33,-118 513.33,-118 517.17,-118 521,-121.83 521,-125.67 521,-125.67 521,-133.33 521,-133.33 521,-137.17 517.17,-141 513.33,-141"/>
<text text-anchor="middle" x="476" y="-125.8" font-family="Arial" font-size="14.00" fill="#cfffac">src/match.ts</text>
</g>
<!-- src/app.ts&#45;&gt;src/match.ts -->
<g id="edge10" class="edge">
<title>src/app.ts&#45;&gt;src/match.ts</title>
<path fill="none" stroke="#757575" d="M785.36,-361C693.45,-361 465,-361 465,-361 465,-361 465,-151.3 465,-151.3"/>
<polygon fill="#757575" stroke="#757575" points="468.5,-151.3 465,-141.3 461.5,-151.3 468.5,-151.3"/>
</g>
<!-- src/parser.ts -->
<g id="node12" class="node">
<title>src/parser.ts</title>
<path fill="none" stroke="#c6c5fe" d="M2041.33,-141C2041.33,-141 1966.67,-141 1966.67,-141 1962.83,-141 1959,-137.17 1959,-133.33 1959,-133.33 1959,-125.67 1959,-125.67 1959,-121.83 1962.83,-118 1966.67,-118 1966.67,-118 2041.33,-118 2041.33,-118 2045.17,-118 2049,-121.83 2049,-125.67 2049,-125.67 2049,-133.33 2049,-133.33 2049,-137.17 2045.17,-141 2041.33,-141"/>
<text text-anchor="middle" x="2004" y="-125.8" font-family="Arial" font-size="14.00" fill="#c6c5fe">src/parser.ts</text>
</g>
<!-- src/app.ts&#45;&gt;src/parser.ts -->
<g id="edge11" class="edge">
<title>src/app.ts&#45;&gt;src/parser.ts</title>
<path fill="none" stroke="#757575" d="M860.55,-373C1065.97,-373 2044.33,-373 2044.33,-373 2044.33,-373 2044.33,-151.24 2044.33,-151.24"/>
<polygon fill="#757575" stroke="#757575" points="2047.83,-151.24 2044.33,-141.24 2040.83,-151.24 2047.83,-151.24"/>
</g>
<!-- src/scope.ts -->
<g id="node13" class="node">
<title>src/scope.ts</title>
<path fill="none" stroke="#c6c5fe" d="M1648.83,-318C1648.83,-318 1575.17,-318 1575.17,-318 1571.33,-318 1567.5,-314.17 1567.5,-310.33 1567.5,-310.33 1567.5,-302.67 1567.5,-302.67 1567.5,-298.83 1571.33,-295 1575.17,-295 1575.17,-295 1648.83,-295 1648.83,-295 1652.67,-295 1656.5,-298.83 1656.5,-302.67 1656.5,-302.67 1656.5,-310.33 1656.5,-310.33 1656.5,-314.17 1652.67,-318 1648.83,-318"/>
<text text-anchor="middle" x="1612" y="-302.8" font-family="Arial" font-size="14.00" fill="#c6c5fe">src/scope.ts</text>
</g>
<!-- src/app.ts&#45;&gt;src/scope.ts -->
<g id="edge12" class="edge">
<title>src/app.ts&#45;&gt;src/scope.ts</title>
<path fill="none" stroke="#757575" d="M860.52,-367C1017.32,-367 1612,-367 1612,-367 1612,-367 1612,-328.17 1612,-328.17"/>
<polygon fill="#757575" stroke="#757575" points="1615.5,-328.16 1612,-318.17 1608.5,-328.17 1615.5,-328.16"/>
</g>
<!-- src/utils/app&#45;handlers.ts -->
<g id="node14" class="node">
<title>src/utils/app&#45;handlers.ts</title>
<path fill="none" stroke="#c6c5fe" d="M894.83,-259C894.83,-259 751.17,-259 751.17,-259 747.33,-259 743.5,-255.17 743.5,-251.33 743.5,-251.33 743.5,-243.67 743.5,-243.67 743.5,-239.83 747.33,-236 751.17,-236 751.17,-236 894.83,-236 894.83,-236 898.67,-236 902.5,-239.83 902.5,-243.67 902.5,-243.67 902.5,-251.33 902.5,-251.33 902.5,-255.17 898.67,-259 894.83,-259"/>
<text text-anchor="middle" x="823" y="-243.8" font-family="Arial" font-size="14.00" fill="#c6c5fe">src/utils/app&#45;handlers.ts</text>
</g>
<!-- src/app.ts&#45;&gt;src/utils/app&#45;handlers.ts -->
<g id="edge13" class="edge">
<title>src/app.ts&#45;&gt;src/utils/app&#45;handlers.ts</title>
<path fill="none" stroke="#757575" d="M831.5,-353.75C831.5,-353.75 831.5,-269.2 831.5,-269.2"/>
<polygon fill="#757575" stroke="#757575" points="835,-269.2 831.5,-259.2 828,-269.2 835,-269.2"/>
</g>
<!-- src/expressions/binary&#45;operation.ts&#45;&gt;src/expressions/handlers.ts -->
<g id="edge15" class="edge">
<title>src/expressions/binary&#45;operation.ts&#45;&gt;src/expressions/handlers.ts</title>
<path fill="none" stroke="#757575" d="M1930.75,-235.81C1930.75,-192.12 1930.75,-41 1930.75,-41 1930.75,-41 762.83,-41 762.83,-41 762.83,-41 762.83,-33.16 762.83,-33.16"/>
<polygon fill="#757575" stroke="#757575" points="766.33,-33.16 762.83,-23.16 759.33,-33.16 766.33,-33.16"/>
</g>
<!-- src/expressions/binary&#45;operation.ts&#45;&gt;src/parser.ts -->
<g id="edge17" class="edge">
<title>src/expressions/binary&#45;operation.ts&#45;&gt;src/parser.ts</title>
<path fill="none" stroke="#757575" d="M2000.5,-235.75C2000.5,-235.75 2000.5,-151.2 2000.5,-151.2"/>
<polygon fill="#757575" stroke="#757575" points="2004,-151.2 2000.5,-141.2 1997,-151.2 2004,-151.2"/>
</g>
<!-- src/expressions/operators.ts -->
<g id="node16" class="node">
<title>src/expressions/operators.ts</title>
<path fill="none" stroke="#c6c5fe" d="M2261.83,-200C2261.83,-200 2092.17,-200 2092.17,-200 2088.33,-200 2084.5,-196.17 2084.5,-192.33 2084.5,-192.33 2084.5,-184.67 2084.5,-184.67 2084.5,-180.83 2088.33,-177 2092.17,-177 2092.17,-177 2261.83,-177 2261.83,-177 2265.67,-177 2269.5,-180.83 2269.5,-184.67 2269.5,-184.67 2269.5,-192.33 2269.5,-192.33 2269.5,-196.17 2265.67,-200 2261.83,-200"/>
<text text-anchor="middle" x="2177" y="-184.8" font-family="Arial" font-size="14.00" fill="#c6c5fe">src/expressions/operators.ts</text>
</g>
<!-- src/expressions/binary&#45;operation.ts&#45;&gt;src/expressions/operators.ts -->
<g id="edge16" class="edge">
<title>src/expressions/binary&#45;operation.ts&#45;&gt;src/expressions/operators.ts</title>
<path fill="none" stroke="#757575" d="M2021.25,-235.89C2021.25,-220.16 2021.25,-194 2021.25,-194 2021.25,-194 2074.15,-194 2074.15,-194"/>
<polygon fill="#757575" stroke="#757575" points="2074.15,-197.5 2084.15,-194 2074.15,-190.5 2074.15,-197.5"/>
</g>
<!-- src/expressions/grouped&#45;expressions.ts&#45;&gt;src/expressions/handlers.ts -->
<g id="edge18" class="edge">
<title>src/expressions/grouped&#45;expressions.ts&#45;&gt;src/expressions/handlers.ts</title>
<path fill="none" stroke="#757575" d="M602,-176.89C602,-176.89 602,-33.39 602,-33.39"/>
<polygon fill="#757575" stroke="#757575" points="605.5,-33.39 602,-23.39 598.5,-33.39 605.5,-33.39"/>
</g>
<!-- src/expressions/grouped&#45;expressions.ts&#45;&gt;src/match.ts -->
<g id="edge19" class="edge">
<title>src/expressions/grouped&#45;expressions.ts&#45;&gt;src/match.ts</title>
<path fill="none" stroke="#757575" d="M510,-176.84C510,-176.84 510,-151.13 510,-151.13"/>
<polygon fill="#757575" stroke="#757575" points="513.5,-151.13 510,-141.13 506.5,-151.13 513.5,-151.13"/>
</g>
<!-- src/types/structs.ts -->
<g id="node17" class="node">
<title>src/types/structs.ts</title>
<path fill="none" stroke="#c6c5fe" d="M735.33,-141C735.33,-141 622.67,-141 622.67,-141 618.83,-141 615,-137.17 615,-133.33 615,-133.33 615,-125.67 615,-125.67 615,-121.83 618.83,-118 622.67,-118 622.67,-118 735.33,-118 735.33,-118 739.17,-118 743,-121.83 743,-125.67 743,-125.67 743,-133.33 743,-133.33 743,-137.17 739.17,-141 735.33,-141"/>
<text text-anchor="middle" x="679" y="-125.8" font-family="Arial" font-size="14.00" fill="#c6c5fe">src/types/structs.ts</text>
</g>
<!-- src/expressions/grouped&#45;expressions.ts&#45;&gt;src/types/structs.ts -->
<g id="edge20" class="edge">
<title>src/expressions/grouped&#45;expressions.ts&#45;&gt;src/types/structs.ts</title>
<path fill="none" stroke="#757575" d="M657.67,-176.84C657.67,-176.84 657.67,-151.13 657.67,-151.13"/>
<polygon fill="#757575" stroke="#757575" points="661.17,-151.13 657.67,-141.13 654.17,-151.13 661.17,-151.13"/>
</g>
<!-- src/utils/identifier&#45;utils.ts -->
<g id="node18" class="node">
<title>src/utils/identifier&#45;utils.ts</title>
<path fill="none" stroke="#cfffac" d="M1199.33,-82C1199.33,-82 1054.67,-82 1054.67,-82 1050.83,-82 1047,-78.17 1047,-74.33 1047,-74.33 1047,-66.67 1047,-66.67 1047,-62.83 1050.83,-59 1054.67,-59 1054.67,-59 1199.33,-59 1199.33,-59 1203.17,-59 1207,-62.83 1207,-66.67 1207,-66.67 1207,-74.33 1207,-74.33 1207,-78.17 1203.17,-82 1199.33,-82"/>
<text text-anchor="middle" x="1127" y="-66.8" font-family="Arial" font-size="14.00" fill="#cfffac">src/utils/identifier&#45;utils.ts</text>
</g>
<!-- src/expressions/grouped&#45;expressions.ts&#45;&gt;src/utils/identifier&#45;utils.ts -->
<g id="edge21" class="edge">
<title>src/expressions/grouped&#45;expressions.ts&#45;&gt;src/utils/identifier&#45;utils.ts</title>
<path fill="none" stroke="#757575" d="M753.02,-184C879.57,-184 1055.17,-184 1055.17,-184 1055.17,-184 1055.17,-92.22 1055.17,-92.22"/>
<polygon fill="#757575" stroke="#757575" points="1058.67,-92.22 1055.17,-82.22 1051.67,-92.22 1058.67,-92.22"/>
</g>
<!-- src/functions.ts&#45;&gt;src/expressions/handlers.ts -->
<g id="edge29" class="edge">
<title>src/functions.ts&#45;&gt;src/expressions/handlers.ts</title>
<path fill="none" stroke="#757575" d="M1200.33,-188C1121.59,-188 984,-188 984,-188 984,-188 984,-17 984,-17 984,-17 779.27,-17 779.27,-17"/>
<polygon fill="#757575" stroke="#757575" points="779.27,-13.5 769.27,-17 779.27,-20.5 779.27,-13.5"/>
</g>
<!-- src/functions.ts&#45;&gt;src/utils/identifier&#45;utils.ts -->
<g id="edge33" class="edge">
<title>src/functions.ts&#45;&gt;src/utils/identifier&#45;utils.ts</title>
<path fill="none" stroke="#757575" d="M1200.49,-180C1155.08,-180 1097.25,-180 1097.25,-180 1097.25,-180 1097.25,-92.22 1097.25,-92.22"/>
<polygon fill="#757575" stroke="#757575" points="1100.75,-92.22 1097.25,-82.22 1093.75,-92.22 1100.75,-92.22"/>
</g>
<!-- src/handlers/anonymous&#45;functions.ts -->
<g id="node23" class="node">
<title>src/handlers/anonymous&#45;functions.ts</title>
<path fill="none" stroke="#c6c5fe" d="M1596.83,-141C1596.83,-141 1375.17,-141 1375.17,-141 1371.33,-141 1367.5,-137.17 1367.5,-133.33 1367.5,-133.33 1367.5,-125.67 1367.5,-125.67 1367.5,-121.83 1371.33,-118 1375.17,-118 1375.17,-118 1596.83,-118 1596.83,-118 1600.67,-118 1604.5,-121.83 1604.5,-125.67 1604.5,-125.67 1604.5,-133.33 1604.5,-133.33 1604.5,-137.17 1600.67,-141 1596.83,-141"/>
<text text-anchor="middle" x="1486" y="-125.8" font-family="Arial" font-size="14.00" fill="#c6c5fe">src/handlers/anonymous&#45;functions.ts</text>
</g>
<!-- src/functions.ts&#45;&gt;src/handlers/anonymous&#45;functions.ts -->
<g id="edge30" class="edge">
<title>src/functions.ts&#45;&gt;src/handlers/anonymous&#45;functions.ts</title>
<path fill="none" stroke="#757575" d="M1307.68,-184C1339.63,-184 1374,-184 1374,-184 1374,-184 1374,-151.06 1374,-151.06"/>
<polygon fill="#757575" stroke="#757575" points="1377.5,-151.06 1374,-141.06 1370.5,-151.06 1377.5,-151.06"/>
</g>
<!-- src/handlers/function&#45;declaration.ts -->
<g id="node24" class="node">
<title>src/handlers/function&#45;declaration.ts</title>
<path fill="none" stroke="#c6c5fe" d="M1341.33,-141C1341.33,-141 1130.67,-141 1130.67,-141 1126.83,-141 1123,-137.17 1123,-133.33 1123,-133.33 1123,-125.67 1123,-125.67 1123,-121.83 1126.83,-118 1130.67,-118 1130.67,-118 1341.33,-118 1341.33,-118 1345.17,-118 1349,-121.83 1349,-125.67 1349,-125.67 1349,-133.33 1349,-133.33 1349,-137.17 1345.17,-141 1341.33,-141"/>
<text text-anchor="middle" x="1236" y="-125.8" font-family="Arial" font-size="14.00" fill="#c6c5fe">src/handlers/function&#45;declaration.ts</text>
</g>
<!-- src/functions.ts&#45;&gt;src/handlers/function&#45;declaration.ts -->
<g id="edge31" class="edge">
<title>src/functions.ts&#45;&gt;src/handlers/function&#45;declaration.ts</title>
<path fill="none" stroke="#757575" d="M1254,-176.84C1254,-176.84 1254,-151.13 1254,-151.13"/>
<polygon fill="#757575" stroke="#757575" points="1257.5,-151.13 1254,-141.13 1250.5,-151.13 1257.5,-151.13"/>
</g>
<!-- src/utils/function&#45;utils.ts -->
<g id="node25" class="node">
<title>src/utils/function&#45;utils.ts</title>
<path fill="none" stroke="#c6c5fe" d="M1707.33,-82C1707.33,-82 1566.67,-82 1566.67,-82 1562.83,-82 1559,-78.17 1559,-74.33 1559,-74.33 1559,-66.67 1559,-66.67 1559,-62.83 1562.83,-59 1566.67,-59 1566.67,-59 1707.33,-59 1707.33,-59 1711.17,-59 1715,-62.83 1715,-66.67 1715,-66.67 1715,-74.33 1715,-74.33 1715,-78.17 1711.17,-82 1707.33,-82"/>
<text text-anchor="middle" x="1637" y="-66.8" font-family="Arial" font-size="14.00" fill="#c6c5fe">src/utils/function&#45;utils.ts</text>
</g>
<!-- src/functions.ts&#45;&gt;src/utils/function&#45;utils.ts -->
<g id="edge32" class="edge">
<title>src/functions.ts&#45;&gt;src/utils/function&#45;utils.ts</title>
<path fill="none" stroke="#757575" d="M1307.73,-188C1410.21,-188 1623.5,-188 1623.5,-188 1623.5,-188 1623.5,-92.2 1623.5,-92.2"/>
<polygon fill="#757575" stroke="#757575" points="1627,-92.2 1623.5,-82.2 1620,-92.2 1627,-92.2"/>
</g>
<!-- src/handlers/lambda&#45;expressions.ts&#45;&gt;src/functions.ts -->
<g id="edge41" class="edge">
<title>src/handlers/lambda&#45;expressions.ts&#45;&gt;src/functions.ts</title>
<path fill="none" stroke="#757575" d="M1254,-235.84C1254,-235.84 1254,-210.13 1254,-210.13"/>
<polygon fill="#757575" stroke="#757575" points="1257.5,-210.13 1254,-200.13 1250.5,-210.13 1257.5,-210.13"/>
</g>
<!-- src/handlers/lambda&#45;expressions.ts&#45;&gt;src/handlers/anonymous&#45;functions.ts -->
<g id="edge42" class="edge">
<title>src/handlers/lambda&#45;expressions.ts&#45;&gt;src/handlers/anonymous&#45;functions.ts</title>
<path fill="none" stroke="#757575" d="M1380.5,-235.75C1380.5,-235.75 1380.5,-151.2 1380.5,-151.2"/>
<polygon fill="#757575" stroke="#757575" points="1384,-151.2 1380.5,-141.2 1377,-151.2 1384,-151.2"/>
</g>
<!-- src/handlers/pointer&#45;operations.ts&#45;&gt;src/utils/identifier&#45;utils.ts -->
<g id="edge43" class="edge">
<title>src/handlers/pointer&#45;operations.ts&#45;&gt;src/utils/identifier&#45;utils.ts</title>
<path fill="none" stroke="#757575" d="M1063.33,-294.8C1063.33,-294.8 1063.33,-92.27 1063.33,-92.27"/>
<polygon fill="#757575" stroke="#757575" points="1066.83,-92.27 1063.33,-82.27 1059.83,-92.27 1066.83,-92.27"/>
</g>
<!-- src/loops/for.ts&#45;&gt;src/loops/loop.ts -->
<g id="edge45" class="edge">
<title>src/loops/for.ts&#45;&gt;src/loops/loop.ts</title>
<path fill="none" stroke="#757575" d="M322.67,-294.84C322.67,-286.6 322.67,-277 322.67,-277 322.67,-277 85.5,-277 85.5,-277 85.5,-277 85.5,-269.16 85.5,-269.16"/>
<polygon fill="#757575" stroke="#757575" points="89,-269.16 85.5,-259.16 82,-269.16 89,-269.16"/>
</g>
<!-- src/loops/helpers.ts -->
<g id="node26" class="node">
<title>src/loops/helpers.ts</title>
<path fill="none" stroke="#cfffac" d="M257.83,-259C257.83,-259 140.17,-259 140.17,-259 136.33,-259 132.5,-255.17 132.5,-251.33 132.5,-251.33 132.5,-243.67 132.5,-243.67 132.5,-239.83 136.33,-236 140.17,-236 140.17,-236 257.83,-236 257.83,-236 261.67,-236 265.5,-239.83 265.5,-243.67 265.5,-243.67 265.5,-251.33 265.5,-251.33 265.5,-255.17 261.67,-259 257.83,-259"/>
<text text-anchor="middle" x="199" y="-243.8" font-family="Arial" font-size="14.00" fill="#cfffac">src/loops/helpers.ts</text>
</g>
<!-- src/loops/for.ts&#45;&gt;src/loops/helpers.ts -->
<g id="edge44" class="edge">
<title>src/loops/for.ts&#45;&gt;src/loops/helpers.ts</title>
<path fill="none" stroke="#757575" d="M287.82,-302C281.65,-302 277.5,-302 277.5,-302 277.5,-302 277.5,-251 277.5,-251 277.5,-251 275.58,-251 275.58,-251"/>
<polygon fill="#757575" stroke="#757575" points="275.58,-247.5 265.58,-251 275.58,-254.5 275.58,-247.5"/>
</g>
<!-- src/loops/types.ts -->
<g id="node27" class="node">
<title>src/loops/types.ts</title>
<path fill="none" stroke="#c6c5fe" d="M396.83,-259C396.83,-259 291.17,-259 291.17,-259 287.33,-259 283.5,-255.17 283.5,-251.33 283.5,-251.33 283.5,-243.67 283.5,-243.67 283.5,-239.83 287.33,-236 291.17,-236 291.17,-236 396.83,-236 396.83,-236 400.67,-236 404.5,-239.83 404.5,-243.67 404.5,-243.67 404.5,-251.33 404.5,-251.33 404.5,-255.17 400.67,-259 396.83,-259"/>
<text text-anchor="middle" x="344" y="-243.8" font-family="Arial" font-size="14.00" fill="#c6c5fe">src/loops/types.ts</text>
</g>
<!-- src/loops/for.ts&#45;&gt;src/loops/types.ts -->
<g id="edge46" class="edge">
<title>src/loops/for.ts&#45;&gt;src/loops/types.ts</title>
<path fill="none" stroke="#757575" d="M357.33,-294.84C357.33,-294.84 357.33,-269.13 357.33,-269.13"/>
<polygon fill="#757575" stroke="#757575" points="360.83,-269.13 357.33,-259.13 353.83,-269.13 360.83,-269.13"/>
</g>
<!-- src/loops/while.ts&#45;&gt;src/loops/loop.ts -->
<g id="edge49" class="edge">
<title>src/loops/while.ts&#45;&gt;src/loops/loop.ts</title>
<path fill="none" stroke="#757575" d="M143.19,-306C102.88,-306 57,-306 57,-306 57,-306 57,-269.06 57,-269.06"/>
<polygon fill="#757575" stroke="#757575" points="60.5,-269.06 57,-259.06 53.5,-269.06 60.5,-269.06"/>
</g>
<!-- src/loops/while.ts&#45;&gt;src/loops/helpers.ts -->
<g id="edge48" class="edge">
<title>src/loops/while.ts&#45;&gt;src/loops/helpers.ts</title>
<path fill="none" stroke="#757575" d="M203,-294.84C203,-294.84 203,-269.13 203,-269.13"/>
<polygon fill="#757575" stroke="#757575" points="206.5,-269.13 203,-259.13 199.5,-269.13 206.5,-269.13"/>
</g>
<!-- src/loops/while.ts&#45;&gt;src/loops/types.ts -->
<g id="edge50" class="edge">
<title>src/loops/while.ts&#45;&gt;src/loops/types.ts</title>
<path fill="none" stroke="#757575" d="M262.54,-310C267.98,-310 271.5,-310 271.5,-310 271.5,-310 271.5,-243 271.5,-243 271.5,-243 273.47,-243 273.47,-243"/>
<polygon fill="#757575" stroke="#757575" points="273.47,-246.5 283.47,-243 273.47,-239.5 273.47,-246.5"/>
</g>
<!-- src/type&#45;utils.ts -->
<g id="node21" class="node">
<title>src/type&#45;utils.ts</title>
<path fill="none" stroke="#cfffac" d="M1739.83,-23C1739.83,-23 1648.17,-23 1648.17,-23 1644.33,-23 1640.5,-19.17 1640.5,-15.33 1640.5,-15.33 1640.5,-7.67 1640.5,-7.67 1640.5,-3.83 1644.33,0 1648.17,0 1648.17,0 1739.83,0 1739.83,0 1743.67,0 1747.5,-3.83 1747.5,-7.67 1747.5,-7.67 1747.5,-15.33 1747.5,-15.33 1747.5,-19.17 1743.67,-23 1739.83,-23"/>
<text text-anchor="middle" x="1694" y="-7.8" font-family="Arial" font-size="14.00" fill="#cfffac">src/type&#45;utils.ts</text>
</g>
<!-- src/parser.ts&#45;&gt;src/type&#45;utils.ts -->
<g id="edge51" class="edge">
<title>src/parser.ts&#45;&gt;src/type&#45;utils.ts</title>
<path fill="none" stroke="#757575" d="M1958.89,-129C1884.68,-129 1745,-129 1745,-129 1745,-129 1745,-33.2 1745,-33.2"/>
<polygon fill="#757575" stroke="#757575" points="1748.5,-33.2 1745,-23.2 1741.5,-33.2 1748.5,-33.2"/>
</g>
<!-- src/scope.ts&#45;&gt;src/expressions/handlers.ts -->
<g id="edge52" class="edge">
<title>src/scope.ts&#45;&gt;src/expressions/handlers.ts</title>
<path fill="none" stroke="#757575" d="M1647.17,-294.99C1647.17,-258.85 1647.17,-150 1647.17,-150 1647.17,-150 748,-150 748,-150 748,-150 748,-33.31 748,-33.31"/>
<polygon fill="#757575" stroke="#757575" points="751.5,-33.31 748,-23.31 744.5,-33.31 751.5,-33.31"/>
</g>
<!-- src/scope.ts&#45;&gt;src/functions.ts -->
<g id="edge54" class="edge">
<title>src/scope.ts&#45;&gt;src/functions.ts</title>
<path fill="none" stroke="#757575" d="M1644.83,-294.68C1644.83,-265.42 1644.83,-192 1644.83,-192 1644.83,-192 1317.52,-192 1317.52,-192"/>
<polygon fill="#757575" stroke="#757575" points="1317.52,-188.5 1307.52,-192 1317.52,-195.5 1317.52,-188.5"/>
</g>
<!-- src/scope.ts&#45;&gt;src/handlers/lambda&#45;expressions.ts -->
<g id="edge55" class="edge">
<title>src/scope.ts&#45;&gt;src/handlers/lambda&#45;expressions.ts</title>
<path fill="none" stroke="#757575" d="M1567.33,-306C1479.06,-306 1290.75,-306 1290.75,-306 1290.75,-306 1290.75,-269.06 1290.75,-269.06"/>
<polygon fill="#757575" stroke="#757575" points="1294.25,-269.06 1290.75,-259.06 1287.25,-269.06 1294.25,-269.06"/>
</g>
<!-- src/scope.ts&#45;&gt;src/parser.ts -->
<g id="edge56" class="edge">
<title>src/scope.ts&#45;&gt;src/parser.ts</title>
<path fill="none" stroke="#757575" d="M1651.83,-294.98C1651.83,-256.53 1651.83,-135 1651.83,-135 1651.83,-135 1948.68,-135 1948.68,-135"/>
<polygon fill="#757575" stroke="#757575" points="1948.68,-138.5 1958.68,-135 1948.68,-131.5 1948.68,-138.5"/>
</g>
<!-- src/function&#45;type&#45;handler.ts -->
<g id="node22" class="node">
<title>src/function&#45;type&#45;handler.ts</title>
<path fill="none" stroke="#c6c5fe" d="M1634.83,-259C1634.83,-259 1471.17,-259 1471.17,-259 1467.33,-259 1463.5,-255.17 1463.5,-251.33 1463.5,-251.33 1463.5,-243.67 1463.5,-243.67 1463.5,-239.83 1467.33,-236 1471.17,-236 1471.17,-236 1634.83,-236 1634.83,-236 1638.67,-236 1642.5,-239.83 1642.5,-243.67 1642.5,-243.67 1642.5,-251.33 1642.5,-251.33 1642.5,-255.17 1638.67,-259 1634.83,-259"/>
<text text-anchor="middle" x="1553" y="-243.8" font-family="Arial" font-size="14.00" fill="#c6c5fe">src/function&#45;type&#45;handler.ts</text>
</g>
<!-- src/scope.ts&#45;&gt;src/function&#45;type&#45;handler.ts -->
<g id="edge53" class="edge">
<title>src/scope.ts&#45;&gt;src/function&#45;type&#45;handler.ts</title>
<path fill="none" stroke="#757575" d="M1605,-294.84C1605,-294.84 1605,-269.13 1605,-269.13"/>
<polygon fill="#757575" stroke="#757575" points="1608.5,-269.13 1605,-259.13 1601.5,-269.13 1608.5,-269.13"/>
</g>
<!-- src/scope.ts&#45;&gt;src/utils/function&#45;utils.ts -->
<g id="edge57" class="edge">
<title>src/scope.ts&#45;&gt;src/utils/function&#45;utils.ts</title>
<path fill="none" stroke="#757575" d="M1649.5,-294.8C1649.5,-294.8 1649.5,-92.27 1649.5,-92.27"/>
<polygon fill="#757575" stroke="#757575" points="1653,-92.27 1649.5,-82.27 1646,-92.27 1653,-92.27"/>
</g>
<!-- src/utils/scope&#45;helpers.ts -->
<g id="node28" class="node">
<title>src/utils/scope&#45;helpers.ts</title>
<path fill="none" stroke="#c6c5fe" d="M1894.83,-200C1894.83,-200 1745.17,-200 1745.17,-200 1741.33,-200 1737.5,-196.17 1737.5,-192.33 1737.5,-192.33 1737.5,-184.67 1737.5,-184.67 1737.5,-180.83 1741.33,-177 1745.17,-177 1745.17,-177 1894.83,-177 1894.83,-177 1898.67,-177 1902.5,-180.83 1902.5,-184.67 1902.5,-184.67 1902.5,-192.33 1902.5,-192.33 1902.5,-196.17 1898.67,-200 1894.83,-200"/>
<text text-anchor="middle" x="1820" y="-184.8" font-family="Arial" font-size="14.00" fill="#c6c5fe">src/utils/scope&#45;helpers.ts</text>
</g>
<!-- src/scope.ts&#45;&gt;src/utils/scope&#45;helpers.ts -->
<g id="edge58" class="edge">
<title>src/scope.ts&#45;&gt;src/utils/scope&#45;helpers.ts</title>
<path fill="none" stroke="#757575" d="M1654.17,-294.83C1654.17,-263.51 1654.17,-180 1654.17,-180 1654.17,-180 1727.08,-180 1727.08,-180"/>
<polygon fill="#757575" stroke="#757575" points="1727.08,-183.5 1737.08,-180 1727.08,-176.5 1727.08,-183.5"/>
</g>
<!-- src/utils/app&#45;handlers.ts&#45;&gt;src/expressions/handlers.ts -->
<g id="edge63" class="edge">
<title>src/utils/app&#45;handlers.ts&#45;&gt;src/expressions/handlers.ts</title>
<path fill="none" stroke="#757575" d="M755.12,-235.93C755.12,-211.94 755.12,-159 755.12,-159 755.12,-159 745.5,-159 745.5,-159 745.5,-159 745.5,-33.07 745.5,-33.07"/>
<polygon fill="#757575" stroke="#757575" points="749,-33.07 745.5,-23.07 742,-33.07 749,-33.07"/>
</g>
<!-- src/utils/app&#45;handlers.ts&#45;&gt;src/functions.ts -->
<g id="edge64" class="edge">
<title>src/utils/app&#45;handlers.ts&#45;&gt;src/functions.ts</title>
<path fill="none" stroke="#757575" d="M855.5,-235.73C855.5,-219.44 855.5,-192 855.5,-192 855.5,-192 1190.26,-192 1190.26,-192"/>
<polygon fill="#757575" stroke="#757575" points="1190.26,-195.5 1200.26,-192 1190.26,-188.5 1190.26,-195.5"/>
</g>
<!-- src/utils/app&#45;handlers.ts&#45;&gt;src/types/structs.ts -->
<g id="edge65" class="edge">
<title>src/utils/app&#45;handlers.ts&#45;&gt;src/types/structs.ts</title>
<path fill="none" stroke="#757575" d="M757.25,-235.68C757.25,-206.42 757.25,-133 757.25,-133 757.25,-133 753.26,-133 753.26,-133"/>
<polygon fill="#757575" stroke="#757575" points="753.26,-129.5 743.26,-133 753.26,-136.5 753.26,-129.5"/>
</g>
<!-- src/types/type&#45;declarations.ts -->
<g id="node29" class="node">
<title>src/types/type&#45;declarations.ts</title>
<path fill="none" stroke="#c6c5fe" d="M944.83,-141C944.83,-141 769.17,-141 769.17,-141 765.33,-141 761.5,-137.17 761.5,-133.33 761.5,-133.33 761.5,-125.67 761.5,-125.67 761.5,-121.83 765.33,-118 769.17,-118 769.17,-118 944.83,-118 944.83,-118 948.67,-118 952.5,-121.83 952.5,-125.67 952.5,-125.67 952.5,-133.33 952.5,-133.33 952.5,-137.17 948.67,-141 944.83,-141"/>
<text text-anchor="middle" x="857" y="-125.8" font-family="Arial" font-size="14.00" fill="#c6c5fe">src/types/type&#45;declarations.ts</text>
</g>
<!-- src/utils/app&#45;handlers.ts&#45;&gt;src/types/type&#45;declarations.ts -->
<g id="edge66" class="edge">
<title>src/utils/app&#45;handlers.ts&#45;&gt;src/types/type&#45;declarations.ts</title>
<path fill="none" stroke="#757575" d="M808.5,-235.75C808.5,-235.75 808.5,-151.2 808.5,-151.2"/>
<polygon fill="#757575" stroke="#757575" points="812,-151.2 808.5,-141.2 805,-151.2 812,-151.2"/>
</g>
<!-- src/declarations.ts -->
<g id="node15" class="node">
<title>src/declarations.ts</title>
<path fill="none" stroke="#c6c5fe" d="M867.83,-82C867.83,-82 758.17,-82 758.17,-82 754.33,-82 750.5,-78.17 750.5,-74.33 750.5,-74.33 750.5,-66.67 750.5,-66.67 750.5,-62.83 754.33,-59 758.17,-59 758.17,-59 867.83,-59 867.83,-59 871.67,-59 875.5,-62.83 875.5,-66.67 875.5,-66.67 875.5,-74.33 875.5,-74.33 875.5,-78.17 871.67,-82 867.83,-82"/>
<text text-anchor="middle" x="813" y="-66.8" font-family="Arial" font-size="14.00" fill="#c6c5fe">src/declarations.ts</text>
</g>
<!-- src/declarations.ts&#45;&gt;src/expressions/handlers.ts -->
<g id="edge14" class="edge">
<title>src/declarations.ts&#45;&gt;src/expressions/handlers.ts</title>
<path fill="none" stroke="#757575" d="M756.67,-58.84C756.67,-58.84 756.67,-33.13 756.67,-33.13"/>
<polygon fill="#757575" stroke="#757575" points="760.17,-33.13 756.67,-23.13 753.17,-33.13 760.17,-33.13"/>
</g>
<!-- src/expressions/operators.ts&#45;&gt;src/parser.ts -->
<g id="edge24" class="edge">
<title>src/expressions/operators.ts&#45;&gt;src/parser.ts</title>
<path fill="none" stroke="#757575" d="M2084.36,-182C2063.14,-182 2046.67,-182 2046.67,-182 2046.67,-182 2046.67,-151.15 2046.67,-151.15"/>
<polygon fill="#757575" stroke="#757575" points="2050.17,-151.15 2046.67,-141.15 2043.17,-151.15 2050.17,-151.15"/>
</g>
<!-- src/expressions/operators.ts&#45;&gt;src/types/structs.ts -->
<g id="edge26" class="edge">
<title>src/expressions/operators.ts&#45;&gt;src/types/structs.ts</title>
<path fill="none" stroke="#757575" d="M2091.33,-176.81C2091.33,-172.21 2091.33,-168 2091.33,-168 2091.33,-168 700.33,-168 700.33,-168 700.33,-168 700.33,-151.26 700.33,-151.26"/>
<polygon fill="#757575" stroke="#757575" points="703.83,-151.26 700.33,-141.26 696.83,-151.26 703.83,-151.26"/>
</g>
<!-- src/expressions/operator&#45;finder.ts -->
<g id="node19" class="node">
<title>src/expressions/operator&#45;finder.ts</title>
<path fill="none" stroke="#c6c5fe" d="M2313.33,-141C2313.33,-141 2112.67,-141 2112.67,-141 2108.83,-141 2105,-137.17 2105,-133.33 2105,-133.33 2105,-125.67 2105,-125.67 2105,-121.83 2108.83,-118 2112.67,-118 2112.67,-118 2313.33,-118 2313.33,-118 2317.17,-118 2321,-121.83 2321,-125.67 2321,-125.67 2321,-133.33 2321,-133.33 2321,-137.17 2317.17,-141 2313.33,-141"/>
<text text-anchor="middle" x="2213" y="-125.8" font-family="Arial" font-size="14.00" fill="#c6c5fe">src/expressions/operator&#45;finder.ts</text>
</g>
<!-- src/expressions/operators.ts&#45;&gt;src/expressions/operator&#45;finder.ts -->
<g id="edge23" class="edge">
<title>src/expressions/operators.ts&#45;&gt;src/expressions/operator&#45;finder.ts</title>
<path fill="none" stroke="#757575" d="M2187.25,-176.84C2187.25,-176.84 2187.25,-151.13 2187.25,-151.13"/>
<polygon fill="#757575" stroke="#757575" points="2190.75,-151.13 2187.25,-141.13 2183.75,-151.13 2190.75,-151.13"/>
</g>
<!-- src/expressions/operators.ts&#45;&gt;src/type&#45;utils.ts -->
<g id="edge25" class="edge">
<title>src/expressions/operators.ts&#45;&gt;src/type&#45;utils.ts</title>
<path fill="none" stroke="#757575" d="M2098.17,-176.85C2098.17,-137.36 2098.17,-11 2098.17,-11 2098.17,-11 1757.67,-11 1757.67,-11"/>
<polygon fill="#757575" stroke="#757575" points="1757.67,-7.5 1747.67,-11 1757.67,-14.5 1757.67,-7.5"/>
</g>
<!-- src/types/structs.ts&#45;&gt;src/expressions/handlers.ts -->
<g id="edge60" class="edge">
<title>src/types/structs.ts&#45;&gt;src/expressions/handlers.ts</title>
<path fill="none" stroke="#757575" d="M679,-117.75C679,-117.75 679,-33.2 679,-33.2"/>
<polygon fill="#757575" stroke="#757575" points="682.5,-33.2 679,-23.2 675.5,-33.2 682.5,-33.2"/>
</g>
<!-- src/types/structs.ts&#45;&gt;src/declarations.ts -->
<g id="edge59" class="edge">
<title>src/types/structs.ts&#45;&gt;src/declarations.ts</title>
<path fill="none" stroke="#757575" d="M743.11,-125C752.66,-125 759.38,-125 759.38,-125 759.38,-125 759.38,-92.06 759.38,-92.06"/>
<polygon fill="#757575" stroke="#757575" points="762.88,-92.06 759.38,-82.06 755.88,-92.06 762.88,-92.06"/>
</g>
<!-- src/expressions/operator&#45;utils.ts -->
<g id="node20" class="node">
<title>src/expressions/operator&#45;utils.ts</title>
<path fill="none" stroke="#cfffac" d="M2308.83,-82C2308.83,-82 2117.17,-82 2117.17,-82 2113.33,-82 2109.5,-78.17 2109.5,-74.33 2109.5,-74.33 2109.5,-66.67 2109.5,-66.67 2109.5,-62.83 2113.33,-59 2117.17,-59 2117.17,-59 2308.83,-59 2308.83,-59 2312.67,-59 2316.5,-62.83 2316.5,-66.67 2316.5,-66.67 2316.5,-74.33 2316.5,-74.33 2316.5,-78.17 2312.67,-82 2308.83,-82"/>
<text text-anchor="middle" x="2213" y="-66.8" font-family="Arial" font-size="14.00" fill="#cfffac">src/expressions/operator&#45;utils.ts</text>
</g>
<!-- src/expressions/operator&#45;finder.ts&#45;&gt;src/expressions/operator&#45;utils.ts -->
<g id="edge22" class="edge">
<title>src/expressions/operator&#45;finder.ts&#45;&gt;src/expressions/operator&#45;utils.ts</title>
<path fill="none" stroke="#757575" d="M2213,-117.84C2213,-117.84 2213,-92.13 2213,-92.13"/>
<polygon fill="#757575" stroke="#757575" points="2216.5,-92.13 2213,-82.13 2209.5,-92.13 2216.5,-92.13"/>
</g>
<!-- src/function&#45;type&#45;handler.ts&#45;&gt;src/functions.ts -->
<g id="edge27" class="edge">
<title>src/function&#45;type&#45;handler.ts&#45;&gt;src/functions.ts</title>
<path fill="none" stroke="#757575" d="M1534,-235.81C1534,-220.62 1534,-196 1534,-196 1534,-196 1317.66,-196 1317.66,-196"/>
<polygon fill="#757575" stroke="#757575" points="1317.66,-192.5 1307.66,-196 1317.66,-199.5 1317.66,-192.5"/>
</g>
<!-- src/function&#45;type&#45;handler.ts&#45;&gt;src/type&#45;utils.ts -->
<g id="edge28" class="edge">
<title>src/function&#45;type&#45;handler.ts&#45;&gt;src/type&#45;utils.ts</title>
<path fill="none" stroke="#757575" d="M1642.54,-247C1686.44,-247 1730,-247 1730,-247 1730,-247 1730,-33.18 1730,-33.18"/>
<polygon fill="#757575" stroke="#757575" points="1733.5,-33.18 1730,-23.18 1726.5,-33.18 1733.5,-33.18"/>
</g>
<!-- src/handlers/anonymous&#45;functions.ts&#45;&gt;src/utils/identifier&#45;utils.ts -->
<g id="edge36" class="edge">
<title>src/handlers/anonymous&#45;functions.ts&#45;&gt;src/utils/identifier&#45;utils.ts</title>
<path fill="none" stroke="#757575" d="M1463.25,-117.85C1463.25,-99.52 1463.25,-66 1463.25,-66 1463.25,-66 1217.11,-66 1217.11,-66"/>
<polygon fill="#757575" stroke="#757575" points="1217.11,-62.5 1207.11,-66 1217.11,-69.5 1217.11,-62.5"/>
</g>
<!-- src/handlers/anonymous&#45;functions.ts&#45;&gt;src/type&#45;utils.ts -->
<g id="edge34" class="edge">
<title>src/handlers/anonymous&#45;functions.ts&#45;&gt;src/type&#45;utils.ts</title>
<path fill="none" stroke="#757575" d="M1604.6,-123C1663.61,-123 1722.5,-123 1722.5,-123 1722.5,-123 1722.5,-33.01 1722.5,-33.01"/>
<polygon fill="#757575" stroke="#757575" points="1726,-33.01 1722.5,-23.01 1719,-33.01 1726,-33.01"/>
</g>
<!-- src/handlers/anonymous&#45;functions.ts&#45;&gt;src/utils/function&#45;utils.ts -->
<g id="edge35" class="edge">
<title>src/handlers/anonymous&#45;functions.ts&#45;&gt;src/utils/function&#45;utils.ts</title>
<path fill="none" stroke="#757575" d="M1581.75,-117.84C1581.75,-117.84 1581.75,-92.13 1581.75,-92.13"/>
<polygon fill="#757575" stroke="#757575" points="1585.25,-92.13 1581.75,-82.13 1578.25,-92.13 1585.25,-92.13"/>
</g>
<!-- src/handlers/function&#45;declaration.ts&#45;&gt;src/declarations.ts -->
<g id="edge37" class="edge">
<title>src/handlers/function&#45;declaration.ts&#45;&gt;src/declarations.ts</title>
<path fill="none" stroke="#757575" d="M1122.84,-129C1068.7,-129 1015.5,-129 1015.5,-129 1015.5,-129 1015.5,-70 1015.5,-70 1015.5,-70 885.69,-70 885.69,-70"/>
<polygon fill="#757575" stroke="#757575" points="885.69,-66.5 875.69,-70 885.69,-73.5 885.69,-66.5"/>
</g>
<!-- src/handlers/function&#45;declaration.ts&#45;&gt;src/utils/identifier&#45;utils.ts -->
<g id="edge40" class="edge">
<title>src/handlers/function&#45;declaration.ts&#45;&gt;src/utils/identifier&#45;utils.ts</title>
<path fill="none" stroke="#757575" d="M1165,-117.84C1165,-117.84 1165,-92.13 1165,-92.13"/>
<polygon fill="#757575" stroke="#757575" points="1168.5,-92.13 1165,-82.13 1161.5,-92.13 1168.5,-92.13"/>
</g>
<!-- src/handlers/function&#45;declaration.ts&#45;&gt;src/type&#45;utils.ts -->
<g id="edge38" class="edge">
<title>src/handlers/function&#45;declaration.ts&#45;&gt;src/type&#45;utils.ts</title>
<path fill="none" stroke="#757575" d="M1254.33,-117.7C1254.33,-87.73 1254.33,-11 1254.33,-11 1254.33,-11 1630.09,-11 1630.09,-11"/>
<polygon fill="#757575" stroke="#757575" points="1630.09,-14.5 1640.09,-11 1630.09,-7.5 1630.09,-14.5"/>
</g>
<!-- src/handlers/function&#45;declaration.ts&#45;&gt;src/utils/function&#45;utils.ts -->
<g id="edge39" class="edge">
<title>src/handlers/function&#45;declaration.ts&#45;&gt;src/utils/function&#45;utils.ts</title>
<path fill="none" stroke="#757575" d="M1301.67,-117.73C1301.67,-101.44 1301.67,-74 1301.67,-74 1301.67,-74 1548.8,-74 1548.8,-74"/>
<polygon fill="#757575" stroke="#757575" points="1548.8,-77.5 1558.8,-74 1548.8,-70.5 1548.8,-77.5"/>
</g>
<!-- src/utils/function&#45;utils.ts&#45;&gt;src/type&#45;utils.ts -->
<g id="edge67" class="edge">
<title>src/utils/function&#45;utils.ts&#45;&gt;src/type&#45;utils.ts</title>
<path fill="none" stroke="#757575" d="M1677.75,-58.84C1677.75,-58.84 1677.75,-33.13 1677.75,-33.13"/>
<polygon fill="#757575" stroke="#757575" points="1681.25,-33.13 1677.75,-23.13 1674.25,-33.13 1681.25,-33.13"/>
</g>
<!-- src/loops/types.ts&#45;&gt;src/expressions/handlers.ts -->
<g id="edge47" class="edge">
<title>src/loops/types.ts&#45;&gt;src/expressions/handlers.ts</title>
<path fill="none" stroke="#757575" d="M344,-235.9C344,-187.86 344,-7 344,-7 344,-7 578.79,-7 578.79,-7"/>
<polygon fill="#757575" stroke="#757575" points="578.79,-10.5 588.79,-7 578.79,-3.5 578.79,-10.5"/>
</g>
<!-- src/utils/scope&#45;helpers.ts&#45;&gt;src/parser.ts -->
<g id="edge69" class="edge">
<title>src/utils/scope&#45;helpers.ts&#45;&gt;src/parser.ts</title>
<path fill="none" stroke="#757575" d="M1902.68,-188C1941.66,-188 1979.75,-188 1979.75,-188 1979.75,-188 1979.75,-151.06 1979.75,-151.06"/>
<polygon fill="#757575" stroke="#757575" points="1983.25,-151.06 1979.75,-141.06 1976.25,-151.06 1983.25,-151.06"/>
</g>
<!-- src/utils/scope&#45;helpers.ts&#45;&gt;src/type&#45;utils.ts -->
<g id="edge70" class="edge">
<title>src/utils/scope&#45;helpers.ts&#45;&gt;src/type&#45;utils.ts</title>
<path fill="none" stroke="#757575" d="M1742.5,-176.89C1742.5,-176.89 1742.5,-33.39 1742.5,-33.39"/>
<polygon fill="#757575" stroke="#757575" points="1746,-33.39 1742.5,-23.39 1739,-33.39 1746,-33.39"/>
</g>
<!-- src/utils/scope&#45;helpers.ts&#45;&gt;src/utils/function&#45;utils.ts -->
<g id="edge71" class="edge">
<title>src/utils/scope&#45;helpers.ts&#45;&gt;src/utils/function&#45;utils.ts</title>
<path fill="none" stroke="#757575" d="M1740,-176.7C1740,-146.73 1740,-70 1740,-70 1740,-70 1725.07,-70 1725.07,-70"/>
<polygon fill="#757575" stroke="#757575" points="1725.07,-66.5 1715.07,-70 1725.07,-73.5 1725.07,-66.5"/>
</g>
<!-- src/types/type&#45;declarations.ts&#45;&gt;src/declarations.ts -->
<g id="edge61" class="edge">
<title>src/types/type&#45;declarations.ts&#45;&gt;src/declarations.ts</title>
<path fill="none" stroke="#757575" d="M818.5,-117.84C818.5,-117.84 818.5,-92.13 818.5,-92.13"/>
<polygon fill="#757575" stroke="#757575" points="822,-92.13 818.5,-82.13 815,-92.13 822,-92.13"/>
</g>
<!-- src/types/type&#45;declarations.ts&#45;&gt;src/type&#45;utils.ts -->
<g id="edge62" class="edge">
<title>src/types/type&#45;declarations.ts&#45;&gt;src/type&#45;utils.ts</title>
<path fill="none" stroke="#757575" d="M914,-117.56C914,-86.4 914,-5 914,-5 914,-5 1630.39,-5 1630.39,-5"/>
<polygon fill="#757575" stroke="#757575" points="1630.39,-8.5 1640.39,-5 1630.39,-1.5 1630.39,-8.5"/>
</g>
<!-- src/utils/interpret.ts -->
<g id="node30" class="node">
<title>src/utils/interpret.ts</title>
<path fill="none" stroke="#c6c5fe" d="M880.33,-436C880.33,-436 765.67,-436 765.67,-436 761.83,-436 758,-432.17 758,-428.33 758,-428.33 758,-420.67 758,-420.67 758,-416.83 761.83,-413 765.67,-413 765.67,-413 880.33,-413 880.33,-413 884.17,-413 888,-416.83 888,-420.67 888,-420.67 888,-428.33 888,-428.33 888,-432.17 884.17,-436 880.33,-436"/>
<text text-anchor="middle" x="823" y="-420.8" font-family="Arial" font-size="14.00" fill="#c6c5fe">src/utils/interpret.ts</text>
</g>
<!-- src/utils/interpret.ts&#45;&gt;src/app.ts -->
<g id="edge68" class="edge">
<title>src/utils/interpret.ts&#45;&gt;src/app.ts</title>
<path fill="none" stroke="#757575" d="M823,-412.84C823,-412.84 823,-387.13 823,-387.13"/>
<polygon fill="#757575" stroke="#757575" points="826.5,-387.13 823,-377.13 819.5,-387.13 826.5,-387.13"/>
</g>
<!-- tests/arithmetic.test.ts -->
<g id="node31" class="node">
<title>tests/arithmetic.test.ts</title>
<path fill="none" stroke="#c6c5fe" d="M550.33,-495C550.33,-495 417.67,-495 417.67,-495 413.83,-495 410,-491.17 410,-487.33 410,-487.33 410,-479.67 410,-479.67 410,-475.83 413.83,-472 417.67,-472 417.67,-472 550.33,-472 550.33,-472 554.17,-472 558,-475.83 558,-479.67 558,-479.67 558,-487.33 558,-487.33 558,-491.17 554.17,-495 550.33,-495"/>
<text text-anchor="middle" x="484" y="-479.8" font-family="Arial" font-size="14.00" fill="#c6c5fe">tests/arithmetic.test.ts</text>
</g>
<!-- tests/arithmetic.test.ts&#45;&gt;src/utils/interpret.ts -->
<g id="edge72" class="edge">
<title>tests/arithmetic.test.ts&#45;&gt;src/utils/interpret.ts</title>
<path fill="none" stroke="#757575" d="M528.5,-471.85C528.5,-453.52 528.5,-420 528.5,-420 528.5,-420 747.64,-420 747.64,-420"/>
<polygon fill="#757575" stroke="#757575" points="747.64,-423.5 757.64,-420 747.64,-416.5 747.64,-423.5"/>
</g>
<!-- tests/control&#45;flow.test.ts -->
<g id="node32" class="node">
<title>tests/control&#45;flow.test.ts</title>
<path fill="none" stroke="#c6c5fe" d="M725.83,-495C725.83,-495 584.17,-495 584.17,-495 580.33,-495 576.5,-491.17 576.5,-487.33 576.5,-487.33 576.5,-479.67 576.5,-479.67 576.5,-475.83 580.33,-472 584.17,-472 584.17,-472 725.83,-472 725.83,-472 729.67,-472 733.5,-475.83 733.5,-479.67 733.5,-479.67 733.5,-487.33 733.5,-487.33 733.5,-491.17 729.67,-495 725.83,-495"/>
<text text-anchor="middle" x="655" y="-479.8" font-family="Arial" font-size="14.00" fill="#c6c5fe">tests/control&#45;flow.test.ts</text>
</g>
<!-- tests/control&#45;flow.test.ts&#45;&gt;src/utils/interpret.ts -->
<g id="edge73" class="edge">
<title>tests/control&#45;flow.test.ts&#45;&gt;src/utils/interpret.ts</title>
<path fill="none" stroke="#757575" d="M655,-471.73C655,-455.44 655,-428 655,-428 655,-428 747.57,-428 747.57,-428"/>
<polygon fill="#757575" stroke="#757575" points="747.57,-431.5 757.57,-428 747.57,-424.5 747.57,-431.5"/>
</g>
<!-- tests/functions.test.ts -->
<g id="node33" class="node">
<title>tests/functions.test.ts</title>
<path fill="none" stroke="#c6c5fe" d="M886.83,-495C886.83,-495 759.17,-495 759.17,-495 755.33,-495 751.5,-491.17 751.5,-487.33 751.5,-487.33 751.5,-479.67 751.5,-479.67 751.5,-475.83 755.33,-472 759.17,-472 759.17,-472 886.83,-472 886.83,-472 890.67,-472 894.5,-475.83 894.5,-479.67 894.5,-479.67 894.5,-487.33 894.5,-487.33 894.5,-491.17 890.67,-495 886.83,-495"/>
<text text-anchor="middle" x="823" y="-479.8" font-family="Arial" font-size="14.00" fill="#c6c5fe">tests/functions.test.ts</text>
</g>
<!-- tests/functions.test.ts&#45;&gt;src/utils/interpret.ts -->
<g id="edge74" class="edge">
<title>tests/functions.test.ts&#45;&gt;src/utils/interpret.ts</title>
<path fill="none" stroke="#757575" d="M823,-471.84C823,-471.84 823,-446.13 823,-446.13"/>
<polygon fill="#757575" stroke="#757575" points="826.5,-446.13 823,-436.13 819.5,-446.13 826.5,-446.13"/>
</g>
<!-- tests/types.test.ts -->
<g id="node34" class="node">
<title>tests/types.test.ts</title>
<path fill="none" stroke="#c6c5fe" d="M1025.83,-495C1025.83,-495 920.17,-495 920.17,-495 916.33,-495 912.5,-491.17 912.5,-487.33 912.5,-487.33 912.5,-479.67 912.5,-479.67 912.5,-475.83 916.33,-472 920.17,-472 920.17,-472 1025.83,-472 1025.83,-472 1029.67,-472 1033.5,-475.83 1033.5,-479.67 1033.5,-479.67 1033.5,-487.33 1033.5,-487.33 1033.5,-491.17 1029.67,-495 1025.83,-495"/>
<text text-anchor="middle" x="973" y="-479.8" font-family="Arial" font-size="14.00" fill="#c6c5fe">tests/types.test.ts</text>
</g>
<!-- tests/types.test.ts&#45;&gt;src/utils/interpret.ts -->
<g id="edge75" class="edge">
<title>tests/types.test.ts&#45;&gt;src/utils/interpret.ts</title>
<path fill="none" stroke="#757575" d="M973,-471.73C973,-455.44 973,-428 973,-428 973,-428 898.36,-428 898.36,-428"/>
<polygon fill="#757575" stroke="#757575" points="898.36,-424.5 888.36,-428 898.36,-431.5 898.36,-424.5"/>
</g>
<!-- tests/variables.test.ts -->
<g id="node35" class="node">
<title>tests/variables.test.ts</title>
<path fill="none" stroke="#c6c5fe" d="M1186.83,-495C1186.83,-495 1059.17,-495 1059.17,-495 1055.33,-495 1051.5,-491.17 1051.5,-487.33 1051.5,-487.33 1051.5,-479.67 1051.5,-479.67 1051.5,-475.83 1055.33,-472 1059.17,-472 1059.17,-472 1186.83,-472 1186.83,-472 1190.67,-472 1194.5,-475.83 1194.5,-479.67 1194.5,-479.67 1194.5,-487.33 1194.5,-487.33 1194.5,-491.17 1190.67,-495 1186.83,-495"/>
<text text-anchor="middle" x="1123" y="-479.8" font-family="Arial" font-size="14.00" fill="#c6c5fe">tests/variables.test.ts</text>
</g>
<!-- tests/variables.test.ts&#45;&gt;src/utils/interpret.ts -->
<g id="edge76" class="edge">
<title>tests/variables.test.ts&#45;&gt;src/utils/interpret.ts</title>
<path fill="none" stroke="#757575" d="M1061.5,-471.85C1061.5,-453.52 1061.5,-420 1061.5,-420 1061.5,-420 898.17,-420 898.17,-420"/>
<polygon fill="#757575" stroke="#757575" points="898.17,-416.5 888.17,-420 898.17,-423.5 898.17,-416.5"/>
</g>
</g>
</svg>
