<?xml version="1.0" encoding="UTF-8" standalone="no"?>
<!DOCTYPE svg PUBLIC "-//W3C//DTD SVG 1.1//EN"
 "http://www.w3.org/Graphics/SVG/1.1/DTD/svg11.dtd">
<!-- Generated by graphviz version 2.43.0 (0)
 -->
<!-- Title: G Pages: 1 -->
<svg width="154pt" height="125pt"
 viewBox="0.00 0.00 154.20 125.20" xmlns="http://www.w3.org/2000/svg" xmlns:xlink="http://www.w3.org/1999/xlink">
<g id="graph0" class="graph" transform="scale(1 1) rotate(0) translate(21.6 103.6)">
<title>G</title>
<polygon fill="#111111" stroke="transparent" points="-21.6,21.6 -21.6,-103.6 132.6,-103.6 132.6,21.6 -21.6,21.6"/>
<!-- src/app.ts -->
<g id="node1" class="node">
<title>src/app.ts</title>
<path fill="none" stroke="#cfffac" d="M85.33,-23C85.33,-23 25.67,-23 25.67,-23 21.83,-23 18,-19.17 18,-15.33 18,-15.33 18,-7.67 18,-7.67 18,-3.83 21.83,0 25.67,0 25.67,0 85.33,0 85.33,0 89.17,0 93,-3.83 93,-7.67 93,-7.67 93,-15.33 93,-15.33 93,-19.17 89.17,-23 85.33,-23"/>
<text text-anchor="middle" x="55.5" y="-7.8" font-family="Arial" font-size="14.00" fill="#cfffac">src/app.ts</text>
</g>
<!-- tests/app.test.ts -->
<g id="node2" class="node">
<title>tests/app.test.ts</title>
<path fill="none" stroke="#c6c5fe" d="M103.33,-82C103.33,-82 7.67,-82 7.67,-82 3.83,-82 0,-78.17 0,-74.33 0,-74.33 0,-66.67 0,-66.67 0,-62.83 3.83,-59 7.67,-59 7.67,-59 103.33,-59 103.33,-59 107.17,-59 111,-62.83 111,-66.67 111,-66.67 111,-74.33 111,-74.33 111,-78.17 107.17,-82 103.33,-82"/>
<text text-anchor="middle" x="55.5" y="-66.8" font-family="Arial" font-size="14.00" fill="#c6c5fe">tests/app.test.ts</text>
</g>
<!-- tests/app.test.ts&#45;&gt;src/app.ts -->
<g id="edge1" class="edge">
<title>tests/app.test.ts&#45;&gt;src/app.ts</title>
<path fill="none" stroke="#757575" d="M55.5,-58.84C55.5,-58.84 55.5,-33.13 55.5,-33.13"/>
<polygon fill="#757575" stroke="#757575" points="59,-33.13 55.5,-23.13 52,-33.13 59,-33.13"/>
</g>
</g>
</svg>
