<?xml version="1.0" encoding="UTF-8" standalone="no"?>
<!DOCTYPE svg PUBLIC "-//W3C//DTD SVG 1.1//EN"
 "http://www.w3.org/Graphics/SVG/1.1/DTD/svg11.dtd">
<!-- Generated by graphviz version 2.43.0 (0)
 -->
<!-- Title: G Pages: 1 -->
<svg width="245pt" height="282pt"
 viewBox="0.00 0.00 245.20 282.20" xmlns="http://www.w3.org/2000/svg" xmlns:xlink="http://www.w3.org/1999/xlink">
<g id="graph0" class="graph" transform="scale(1 1) rotate(0) translate(21.6 260.6)">
<title>G</title>
<polygon fill="#111111" stroke="transparent" points="-21.6,21.6 -21.6,-260.6 223.6,-260.6 223.6,21.6 -21.6,21.6"/>
<!-- error.ts -->
<g id="node1" class="node">
<title>error.ts</title>
<path fill="none" stroke="#cfffac" d="M47.67,-19C47.67,-19 6.33,-19 6.33,-19 3.17,-19 0,-15.83 0,-12.67 0,-12.67 0,-6.33 0,-6.33 0,-3.17 3.17,0 6.33,0 6.33,0 47.67,0 47.67,0 50.83,0 54,-3.17 54,-6.33 54,-6.33 54,-12.67 54,-12.67 54,-15.83 50.83,-19 47.67,-19"/>
<text text-anchor="middle" x="27" y="-7" font-family="Arial" font-size="10.00" fill="#cfffac">error.ts</text>
</g>
<!-- intepret.ts -->
<g id="node2" class="node">
<title>intepret.ts</title>
<path fill="none" stroke="#c6c5fe" d="M130.67,-239C130.67,-239 83.33,-239 83.33,-239 80.17,-239 77,-235.83 77,-232.67 77,-232.67 77,-226.33 77,-226.33 77,-223.17 80.17,-220 83.33,-220 83.33,-220 130.67,-220 130.67,-220 133.83,-220 137,-223.17 137,-226.33 137,-226.33 137,-232.67 137,-232.67 137,-235.83 133.83,-239 130.67,-239"/>
<text text-anchor="middle" x="107" y="-227" font-family="Arial" font-size="10.00" fill="#c6c5fe">intepret.ts</text>
</g>
<!-- intepret.ts&#45;&gt;error.ts -->
<g id="edge1" class="edge">
<title>intepret.ts&#45;&gt;error.ts</title>
<path fill="none" stroke="#757575" d="M76.87,-229C51.05,-229 18,-229 18,-229 18,-229 18,-29.21 18,-29.21"/>
<polygon fill="#757575" stroke="#757575" points="21.5,-29.21 18,-19.21 14.5,-29.21 21.5,-29.21"/>
</g>
<!-- parser.ts -->
<g id="node3" class="node">
<title>parser.ts</title>
<path fill="none" stroke="#c6c5fe" d="M103.17,-129C103.17,-129 60.83,-129 60.83,-129 57.67,-129 54.5,-125.83 54.5,-122.67 54.5,-122.67 54.5,-116.33 54.5,-116.33 54.5,-113.17 57.67,-110 60.83,-110 60.83,-110 103.17,-110 103.17,-110 106.33,-110 109.5,-113.17 109.5,-116.33 109.5,-116.33 109.5,-122.67 109.5,-122.67 109.5,-125.83 106.33,-129 103.17,-129"/>
<text text-anchor="middle" x="82" y="-117" font-family="Arial" font-size="10.00" fill="#c6c5fe">parser.ts</text>
</g>
<!-- intepret.ts&#45;&gt;parser.ts -->
<g id="edge2" class="edge">
<title>intepret.ts&#45;&gt;parser.ts</title>
<path fill="none" stroke="#757575" d="M90.75,-219.74C90.75,-219.74 90.75,-139.08 90.75,-139.08"/>
<polygon fill="#757575" stroke="#757575" points="94.25,-139.08 90.75,-129.08 87.25,-139.08 94.25,-139.08"/>
</g>
<!-- result.ts -->
<g id="node4" class="node">
<title>result.ts</title>
<path fill="none" stroke="#cfffac" d="M195.67,-19C195.67,-19 154.33,-19 154.33,-19 151.17,-19 148,-15.83 148,-12.67 148,-12.67 148,-6.33 148,-6.33 148,-3.17 151.17,0 154.33,0 154.33,0 195.67,0 195.67,0 198.83,0 202,-3.17 202,-6.33 202,-6.33 202,-12.67 202,-12.67 202,-15.83 198.83,-19 195.67,-19"/>
<text text-anchor="middle" x="175" y="-7" font-family="Arial" font-size="10.00" fill="#cfffac">result.ts</text>
</g>
<!-- intepret.ts&#45;&gt;result.ts -->
<g id="edge3" class="edge">
<title>intepret.ts&#45;&gt;result.ts</title>
<path fill="none" stroke="#757575" d="M137.15,-229C159.73,-229 186.75,-229 186.75,-229 186.75,-229 186.75,-29.21 186.75,-29.21"/>
<polygon fill="#757575" stroke="#757575" points="190.25,-29.21 186.75,-19.21 183.25,-29.21 190.25,-29.21"/>
</g>
<!-- variables.ts -->
<g id="node5" class="node">
<title>variables.ts</title>
<path fill="none" stroke="#c6c5fe" d="M165.17,-184C165.17,-184 110.83,-184 110.83,-184 107.67,-184 104.5,-180.83 104.5,-177.67 104.5,-177.67 104.5,-171.33 104.5,-171.33 104.5,-168.17 107.67,-165 110.83,-165 110.83,-165 165.17,-165 165.17,-165 168.33,-165 171.5,-168.17 171.5,-171.33 171.5,-171.33 171.5,-177.67 171.5,-177.67 171.5,-180.83 168.33,-184 165.17,-184"/>
<text text-anchor="middle" x="138" y="-172" font-family="Arial" font-size="10.00" fill="#c6c5fe">variables.ts</text>
</g>
<!-- intepret.ts&#45;&gt;variables.ts -->
<g id="edge4" class="edge">
<title>intepret.ts&#45;&gt;variables.ts</title>
<path fill="none" stroke="#757575" d="M120.75,-219.92C120.75,-219.92 120.75,-194.34 120.75,-194.34"/>
<polygon fill="#757575" stroke="#757575" points="124.25,-194.34 120.75,-184.34 117.25,-194.34 124.25,-194.34"/>
</g>
<!-- parser.ts&#45;&gt;error.ts -->
<g id="edge5" class="edge">
<title>parser.ts&#45;&gt;error.ts</title>
<path fill="none" stroke="#757575" d="M64.25,-109.96C64.25,-83.65 64.25,-12 64.25,-12 64.25,-12 63.23,-12 63.23,-12"/>
<polygon fill="#757575" stroke="#757575" points="64.07,-8.5 54.07,-12 64.07,-15.5 64.07,-8.5"/>
</g>
<!-- parser.ts&#45;&gt;result.ts -->
<g id="edge6" class="edge">
<title>parser.ts&#45;&gt;result.ts</title>
<path fill="none" stroke="#757575" d="M109.63,-116C131.98,-116 159.75,-116 159.75,-116 159.75,-116 159.75,-29.33 159.75,-29.33"/>
<polygon fill="#757575" stroke="#757575" points="163.25,-29.33 159.75,-19.33 156.25,-29.33 163.25,-29.33"/>
</g>
<!-- types.ts -->
<g id="node6" class="node">
<title>types.ts</title>
<path fill="none" stroke="#c6c5fe" d="M121.67,-74C121.67,-74 80.33,-74 80.33,-74 77.17,-74 74,-70.83 74,-67.67 74,-67.67 74,-61.33 74,-61.33 74,-58.17 77.17,-55 80.33,-55 80.33,-55 121.67,-55 121.67,-55 124.83,-55 128,-58.17 128,-61.33 128,-61.33 128,-67.67 128,-67.67 128,-70.83 124.83,-74 121.67,-74"/>
<text text-anchor="middle" x="101" y="-62" font-family="Arial" font-size="10.00" fill="#c6c5fe">types.ts</text>
</g>
<!-- parser.ts&#45;&gt;types.ts -->
<g id="edge7" class="edge">
<title>parser.ts&#45;&gt;types.ts</title>
<path fill="none" stroke="#757575" d="M91.75,-109.92C91.75,-109.92 91.75,-84.34 91.75,-84.34"/>
<polygon fill="#757575" stroke="#757575" points="95.25,-84.34 91.75,-74.34 88.25,-84.34 95.25,-84.34"/>
</g>
<!-- variables.ts&#45;&gt;error.ts -->
<g id="edge10" class="edge">
<title>variables.ts&#45;&gt;error.ts</title>
<path fill="none" stroke="#757575" d="M104.32,-174C74.61,-174 36,-174 36,-174 36,-174 36,-29.3 36,-29.3"/>
<polygon fill="#757575" stroke="#757575" points="39.5,-29.3 36,-19.3 32.5,-29.3 39.5,-29.3"/>
</g>
<!-- variables.ts&#45;&gt;parser.ts -->
<g id="edge11" class="edge">
<title>variables.ts&#45;&gt;parser.ts</title>
<path fill="none" stroke="#757575" d="M115.67,-164.87C115.67,-149.71 115.67,-122 115.67,-122 115.67,-122 115.08,-122 115.08,-122"/>
<polygon fill="#757575" stroke="#757575" points="119.8,-118.5 109.8,-122 119.8,-125.5 119.8,-118.5"/>
</g>
<!-- variables.ts&#45;&gt;result.ts -->
<g id="edge12" class="edge">
<title>variables.ts&#45;&gt;result.ts</title>
<path fill="none" stroke="#757575" d="M165.62,-164.67C165.62,-164.67 165.62,-29.07 165.62,-29.07"/>
<polygon fill="#757575" stroke="#757575" points="169.13,-29.07 165.62,-19.07 162.13,-29.07 169.13,-29.07"/>
</g>
<!-- variables.ts&#45;&gt;types.ts -->
<g id="edge13" class="edge">
<title>variables.ts&#45;&gt;types.ts</title>
<path fill="none" stroke="#757575" d="M121.83,-164.74C121.83,-164.74 121.83,-84.08 121.83,-84.08"/>
<polygon fill="#757575" stroke="#757575" points="125.33,-84.08 121.83,-74.08 118.33,-84.08 125.33,-84.08"/>
</g>
<!-- types.ts&#45;&gt;error.ts -->
<g id="edge8" class="edge">
<title>types.ts&#45;&gt;error.ts</title>
<path fill="none" stroke="#757575" d="M101,-54.84C101,-38.22 101,-6 101,-6 101,-6 64.13,-6 64.13,-6"/>
<polygon fill="#757575" stroke="#757575" points="64.13,-2.5 54.13,-6 64.13,-9.5 64.13,-2.5"/>
</g>
<!-- types.ts&#45;&gt;result.ts -->
<g id="edge9" class="edge">
<title>types.ts&#45;&gt;result.ts</title>
<path fill="none" stroke="#757575" d="M128.06,-64C141.07,-64 153.88,-64 153.88,-64 153.88,-64 153.88,-29.24 153.88,-29.24"/>
<polygon fill="#757575" stroke="#757575" points="157.38,-29.24 153.88,-19.24 150.38,-29.24 157.38,-29.24"/>
</g>
</g>
</svg>
