<?xml version="1.0" encoding="UTF-8" standalone="no"?>
<!DOCTYPE svg PUBLIC "-//W3C//DTD SVG 1.1//EN"
 "http://www.w3.org/Graphics/SVG/1.1/DTD/svg11.dtd">
<!-- Generated by graphviz version 2.43.0 (0)
 -->
<!-- Title: G Pages: 1 -->
<svg width="1187pt" height="538pt"
 viewBox="0.00 0.00 1186.70 538.20" xmlns="http://www.w3.org/2000/svg" xmlns:xlink="http://www.w3.org/1999/xlink">
<g id="graph0" class="graph" transform="scale(1 1) rotate(0) translate(21.6 516.6)">
<title>G</title>
<polygon fill="#111111" stroke="transparent" points="-21.6,21.6 -21.6,-516.6 1165.1,-516.6 1165.1,21.6 -21.6,21.6"/>
<!-- core/arithmetic.ts -->
<g id="node1" class="node">
<title>core/arithmetic.ts</title>
<path fill="none" stroke="#c6c5fe" d="M263.83,-141C263.83,-141 159.17,-141 159.17,-141 155.33,-141 151.5,-137.17 151.5,-133.33 151.5,-133.33 151.5,-125.67 151.5,-125.67 151.5,-121.83 155.33,-118 159.17,-118 159.17,-118 263.83,-118 263.83,-118 267.67,-118 271.5,-121.83 271.5,-125.67 271.5,-125.67 271.5,-133.33 271.5,-133.33 271.5,-137.17 267.67,-141 263.83,-141"/>
<text text-anchor="middle" x="211.5" y="-125.8" font-family="Arial" font-size="14.00" fill="#c6c5fe">core/arithmetic.ts</text>
</g>
<!-- core/error.ts -->
<g id="node2" class="node">
<title>core/error.ts</title>
<path fill="none" stroke="#cfffac" d="M256.33,-23C256.33,-23 182.67,-23 182.67,-23 178.83,-23 175,-19.17 175,-15.33 175,-15.33 175,-7.67 175,-7.67 175,-3.83 178.83,0 182.67,0 182.67,0 256.33,0 256.33,0 260.17,0 264,-3.83 264,-7.67 264,-7.67 264,-15.33 264,-15.33 264,-19.17 260.17,-23 256.33,-23"/>
<text text-anchor="middle" x="219.5" y="-7.8" font-family="Arial" font-size="14.00" fill="#cfffac">core/error.ts</text>
</g>
<!-- core/arithmetic.ts&#45;&gt;core/error.ts -->
<g id="edge1" class="edge">
<title>core/arithmetic.ts&#45;&gt;core/error.ts</title>
<path fill="none" stroke="#757575" d="M220.5,-117.75C220.5,-117.75 220.5,-33.2 220.5,-33.2"/>
<polygon fill="#757575" stroke="#757575" points="224,-33.2 220.5,-23.2 217,-33.2 224,-33.2"/>
</g>
<!-- core/result.ts -->
<g id="node3" class="node">
<title>core/result.ts</title>
<path fill="none" stroke="#cfffac" d="M708.83,-23C708.83,-23 630.17,-23 630.17,-23 626.33,-23 622.5,-19.17 622.5,-15.33 622.5,-15.33 622.5,-7.67 622.5,-7.67 622.5,-3.83 626.33,0 630.17,0 630.17,0 708.83,0 708.83,0 712.67,0 716.5,-3.83 716.5,-7.67 716.5,-7.67 716.5,-15.33 716.5,-15.33 716.5,-19.17 712.67,-23 708.83,-23"/>
<text text-anchor="middle" x="669.5" y="-7.8" font-family="Arial" font-size="14.00" fill="#cfffac">core/result.ts</text>
</g>
<!-- core/arithmetic.ts&#45;&gt;core/result.ts -->
<g id="edge2" class="edge">
<title>core/arithmetic.ts&#45;&gt;core/result.ts</title>
<path fill="none" stroke="#757575" d="M271.78,-129C279.35,-129 284.5,-129 284.5,-129 284.5,-129 284.5,-3 284.5,-3 284.5,-3 612.29,-3 612.29,-3"/>
<polygon fill="#757575" stroke="#757575" points="612.29,-6.5 622.29,-3 612.29,0.5 612.29,-6.5"/>
</g>
<!-- utils/validation.ts -->
<g id="node4" class="node">
<title>utils/validation.ts</title>
<path fill="none" stroke="#c6c5fe" d="M183.83,-82C183.83,-82 83.17,-82 83.17,-82 79.33,-82 75.5,-78.17 75.5,-74.33 75.5,-74.33 75.5,-66.67 75.5,-66.67 75.5,-62.83 79.33,-59 83.17,-59 83.17,-59 183.83,-59 183.83,-59 187.67,-59 191.5,-62.83 191.5,-66.67 191.5,-66.67 191.5,-74.33 191.5,-74.33 191.5,-78.17 187.67,-82 183.83,-82"/>
<text text-anchor="middle" x="133.5" y="-66.8" font-family="Arial" font-size="14.00" fill="#c6c5fe">utils/validation.ts</text>
</g>
<!-- core/arithmetic.ts&#45;&gt;utils/validation.ts -->
<g id="edge3" class="edge">
<title>core/arithmetic.ts&#45;&gt;utils/validation.ts</title>
<path fill="none" stroke="#757575" d="M171.5,-117.84C171.5,-117.84 171.5,-92.13 171.5,-92.13"/>
<polygon fill="#757575" stroke="#757575" points="175,-92.13 171.5,-82.13 168,-92.13 175,-92.13"/>
</g>
<!-- utils/validation.ts&#45;&gt;core/error.ts -->
<g id="edge54" class="edge">
<title>utils/validation.ts&#45;&gt;core/error.ts</title>
<path fill="none" stroke="#757575" d="M183.25,-58.84C183.25,-58.84 183.25,-33.13 183.25,-33.13"/>
<polygon fill="#757575" stroke="#757575" points="186.75,-33.13 183.25,-23.13 179.75,-33.13 186.75,-33.13"/>
</g>
<!-- utils/validation.ts&#45;&gt;core/result.ts -->
<g id="edge55" class="edge">
<title>utils/validation.ts&#45;&gt;core/result.ts</title>
<path fill="none" stroke="#757575" d="M191.86,-64C231.96,-64 278,-64 278,-64 278,-64 278,-1 278,-1 278,-1 612.28,-1 612.28,-1"/>
<polygon fill="#757575" stroke="#757575" points="612.28,-4.5 622.28,-1 612.28,2.5 612.28,-4.5"/>
</g>
<!-- eval/ifelse&#45;branch.ts -->
<g id="node5" class="node">
<title>eval/ifelse&#45;branch.ts</title>
<path fill="none" stroke="#c6c5fe" d="M551.33,-377C551.33,-377 429.67,-377 429.67,-377 425.83,-377 422,-373.17 422,-369.33 422,-369.33 422,-361.67 422,-361.67 422,-357.83 425.83,-354 429.67,-354 429.67,-354 551.33,-354 551.33,-354 555.17,-354 559,-357.83 559,-361.67 559,-361.67 559,-369.33 559,-369.33 559,-373.17 555.17,-377 551.33,-377"/>
<text text-anchor="middle" x="490.5" y="-361.8" font-family="Arial" font-size="14.00" fill="#c6c5fe">eval/ifelse&#45;branch.ts</text>
</g>
<!-- eval/ifelse&#45;branch.ts&#45;&gt;core/error.ts -->
<g id="edge4" class="edge">
<title>eval/ifelse&#45;branch.ts&#45;&gt;core/error.ts</title>
<path fill="none" stroke="#757575" d="M421.62,-365C384.75,-365 346.85,-365 346.85,-365 346.85,-365 346.85,-18 346.85,-18 346.85,-18 274.04,-18 274.04,-18"/>
<polygon fill="#757575" stroke="#757575" points="274.04,-14.5 264.04,-18 274.04,-21.5 274.04,-14.5"/>
</g>
<!-- eval/ifelse&#45;branch.ts&#45;&gt;core/result.ts -->
<g id="edge5" class="edge">
<title>eval/ifelse&#45;branch.ts&#45;&gt;core/result.ts</title>
<path fill="none" stroke="#757575" d="M559.24,-365C584.7,-365 607.5,-365 607.5,-365 607.5,-365 607.5,-13 607.5,-13 607.5,-13 612.19,-13 612.19,-13"/>
<polygon fill="#757575" stroke="#757575" points="612.19,-16.5 622.19,-13 612.19,-9.5 612.19,-16.5"/>
</g>
<!-- eval/ifelse&#45;helpers.ts -->
<g id="node6" class="node">
<title>eval/ifelse&#45;helpers.ts</title>
<path fill="none" stroke="#c6c5fe" d="M747.83,-318C747.83,-318 623.17,-318 623.17,-318 619.33,-318 615.5,-314.17 615.5,-310.33 615.5,-310.33 615.5,-302.67 615.5,-302.67 615.5,-298.83 619.33,-295 623.17,-295 623.17,-295 747.83,-295 747.83,-295 751.67,-295 755.5,-298.83 755.5,-302.67 755.5,-302.67 755.5,-310.33 755.5,-310.33 755.5,-314.17 751.67,-318 747.83,-318"/>
<text text-anchor="middle" x="685.5" y="-302.8" font-family="Arial" font-size="14.00" fill="#c6c5fe">eval/ifelse&#45;helpers.ts</text>
</g>
<!-- eval/ifelse&#45;branch.ts&#45;&gt;eval/ifelse&#45;helpers.ts -->
<g id="edge6" class="edge">
<title>eval/ifelse&#45;branch.ts&#45;&gt;eval/ifelse&#45;helpers.ts</title>
<path fill="none" stroke="#757575" d="M517.33,-353.85C517.33,-335.52 517.33,-302 517.33,-302 517.33,-302 605.16,-302 605.16,-302"/>
<polygon fill="#757575" stroke="#757575" points="605.16,-305.5 615.16,-302 605.16,-298.5 605.16,-305.5"/>
</g>
<!-- eval/variables.ts -->
<g id="node7" class="node">
<title>eval/variables.ts</title>
<path fill="none" stroke="#c6c5fe" d="M547.33,-259C547.33,-259 449.67,-259 449.67,-259 445.83,-259 442,-255.17 442,-251.33 442,-251.33 442,-243.67 442,-243.67 442,-239.83 445.83,-236 449.67,-236 449.67,-236 547.33,-236 547.33,-236 551.17,-236 555,-239.83 555,-243.67 555,-243.67 555,-251.33 555,-251.33 555,-255.17 551.17,-259 547.33,-259"/>
<text text-anchor="middle" x="498.5" y="-243.8" font-family="Arial" font-size="14.00" fill="#c6c5fe">eval/variables.ts</text>
</g>
<!-- eval/ifelse&#45;branch.ts&#45;&gt;eval/variables.ts -->
<g id="edge7" class="edge">
<title>eval/ifelse&#45;branch.ts&#45;&gt;eval/variables.ts</title>
<path fill="none" stroke="#757575" d="M479.67,-353.75C479.67,-353.75 479.67,-269.2 479.67,-269.2"/>
<polygon fill="#757575" stroke="#757575" points="483.17,-269.2 479.67,-259.2 476.17,-269.2 483.17,-269.2"/>
</g>
<!-- parse/parser.ts -->
<g id="node8" class="node">
<title>parse/parser.ts</title>
<path fill="none" stroke="#c6c5fe" d="M225.83,-200C225.83,-200 135.17,-200 135.17,-200 131.33,-200 127.5,-196.17 127.5,-192.33 127.5,-192.33 127.5,-184.67 127.5,-184.67 127.5,-180.83 131.33,-177 135.17,-177 135.17,-177 225.83,-177 225.83,-177 229.67,-177 233.5,-180.83 233.5,-184.67 233.5,-184.67 233.5,-192.33 233.5,-192.33 233.5,-196.17 229.67,-200 225.83,-200"/>
<text text-anchor="middle" x="180.5" y="-184.8" font-family="Arial" font-size="14.00" fill="#c6c5fe">parse/parser.ts</text>
</g>
<!-- eval/ifelse&#45;branch.ts&#45;&gt;parse/parser.ts -->
<g id="edge8" class="edge">
<title>eval/ifelse&#45;branch.ts&#45;&gt;parse/parser.ts</title>
<path fill="none" stroke="#757575" d="M428.5,-353.98C428.5,-314.94 428.5,-190 428.5,-190 428.5,-190 243.7,-190 243.7,-190"/>
<polygon fill="#757575" stroke="#757575" points="243.7,-186.5 233.7,-190 243.7,-193.5 243.7,-186.5"/>
</g>
<!-- utils/types.ts -->
<g id="node9" class="node">
<title>utils/types.ts</title>
<path fill="none" stroke="#c6c5fe" d="M451.33,-82C451.33,-82 375.67,-82 375.67,-82 371.83,-82 368,-78.17 368,-74.33 368,-74.33 368,-66.67 368,-66.67 368,-62.83 371.83,-59 375.67,-59 375.67,-59 451.33,-59 451.33,-59 455.17,-59 459,-62.83 459,-66.67 459,-66.67 459,-74.33 459,-74.33 459,-78.17 455.17,-82 451.33,-82"/>
<text text-anchor="middle" x="413.5" y="-66.8" font-family="Arial" font-size="14.00" fill="#c6c5fe">utils/types.ts</text>
</g>
<!-- eval/ifelse&#45;branch.ts&#45;&gt;utils/types.ts -->
<g id="edge9" class="edge">
<title>eval/ifelse&#45;branch.ts&#45;&gt;utils/types.ts</title>
<path fill="none" stroke="#757575" d="M435,-353.94C435,-353.94 435,-92.3 435,-92.3"/>
<polygon fill="#757575" stroke="#757575" points="438.5,-92.3 435,-82.3 431.5,-92.31 438.5,-92.3"/>
</g>
<!-- eval/ifelse&#45;helpers.ts&#45;&gt;core/error.ts -->
<g id="edge10" class="edge">
<title>eval/ifelse&#45;helpers.ts&#45;&gt;core/error.ts</title>
<path fill="none" stroke="#757575" d="M615.18,-298C517.84,-298 353.9,-298 353.9,-298 353.9,-298 353.9,-16 353.9,-16 353.9,-16 274.25,-16 274.25,-16"/>
<polygon fill="#757575" stroke="#757575" points="274.25,-12.5 264.25,-16 274.25,-19.5 274.25,-12.5"/>
</g>
<!-- eval/ifelse&#45;helpers.ts&#45;&gt;core/result.ts -->
<g id="edge11" class="edge">
<title>eval/ifelse&#45;helpers.ts&#45;&gt;core/result.ts</title>
<path fill="none" stroke="#757575" d="M685.17,-294.94C685.17,-294.94 685.17,-33.3 685.17,-33.3"/>
<polygon fill="#757575" stroke="#757575" points="688.67,-33.3 685.17,-23.3 681.67,-33.31 688.67,-33.3"/>
</g>
<!-- eval/ifelse&#45;helpers.ts&#45;&gt;eval/variables.ts -->
<g id="edge12" class="edge">
<title>eval/ifelse&#45;helpers.ts&#45;&gt;eval/variables.ts</title>
<path fill="none" stroke="#757575" d="M619,-294.86C619,-278.06 619,-249 619,-249 619,-249 565.22,-249 565.22,-249"/>
<polygon fill="#757575" stroke="#757575" points="565.22,-245.5 555.22,-249 565.22,-252.5 565.22,-245.5"/>
</g>
<!-- eval/variables.ts&#45;&gt;core/error.ts -->
<g id="edge42" class="edge">
<title>eval/variables.ts&#45;&gt;core/error.ts</title>
<path fill="none" stroke="#757575" d="M441.76,-239C403.87,-239 360.95,-239 360.95,-239 360.95,-239 360.95,-12 360.95,-12 360.95,-12 274.26,-12 274.26,-12"/>
<polygon fill="#757575" stroke="#757575" points="274.26,-8.5 264.26,-12 274.26,-15.5 274.26,-8.5"/>
</g>
<!-- eval/variables.ts&#45;&gt;core/result.ts -->
<g id="edge43" class="edge">
<title>eval/variables.ts&#45;&gt;core/result.ts</title>
<path fill="none" stroke="#757575" d="M555.44,-240C605.18,-240 669.5,-240 669.5,-240 669.5,-240 669.5,-33.15 669.5,-33.15"/>
<polygon fill="#757575" stroke="#757575" points="673,-33.15 669.5,-23.15 666,-33.15 673,-33.15"/>
</g>
<!-- eval/variables.ts&#45;&gt;utils/validation.ts -->
<g id="edge47" class="edge">
<title>eval/variables.ts&#45;&gt;utils/validation.ts</title>
<path fill="none" stroke="#757575" d="M441.62,-247C333.75,-247 110.17,-247 110.17,-247 110.17,-247 110.17,-92.08 110.17,-92.08"/>
<polygon fill="#757575" stroke="#757575" points="113.67,-92.08 110.17,-82.08 106.67,-92.08 113.67,-92.08"/>
</g>
<!-- eval/variables.ts&#45;&gt;parse/parser.ts -->
<g id="edge46" class="edge">
<title>eval/variables.ts&#45;&gt;parse/parser.ts</title>
<path fill="none" stroke="#757575" d="M441.8,-243C353.52,-243 193.25,-243 193.25,-243 193.25,-243 193.25,-210.06 193.25,-210.06"/>
<polygon fill="#757575" stroke="#757575" points="196.75,-210.06 193.25,-200.06 189.75,-210.06 196.75,-210.06"/>
</g>
<!-- eval/variables&#45;types.ts -->
<g id="node15" class="node">
<title>eval/variables&#45;types.ts</title>
<path fill="none" stroke="#cfffac" d="M1135.83,-23C1135.83,-23 1001.17,-23 1001.17,-23 997.33,-23 993.5,-19.17 993.5,-15.33 993.5,-15.33 993.5,-7.67 993.5,-7.67 993.5,-3.83 997.33,0 1001.17,0 1001.17,0 1135.83,0 1135.83,0 1139.67,0 1143.5,-3.83 1143.5,-7.67 1143.5,-7.67 1143.5,-15.33 1143.5,-15.33 1143.5,-19.17 1139.67,-23 1135.83,-23"/>
<text text-anchor="middle" x="1068.5" y="-7.8" font-family="Arial" font-size="14.00" fill="#cfffac">eval/variables&#45;types.ts</text>
</g>
<!-- eval/variables.ts&#45;&gt;eval/variables&#45;types.ts -->
<g id="edge45" class="edge">
<title>eval/variables.ts&#45;&gt;eval/variables&#45;types.ts</title>
<path fill="none" stroke="#757575" d="M555.03,-245C701.59,-245 1082.5,-245 1082.5,-245 1082.5,-245 1082.5,-33.08 1082.5,-33.08"/>
<polygon fill="#757575" stroke="#757575" points="1086,-33.08 1082.5,-23.08 1079,-33.08 1086,-33.08"/>
</g>
<!-- eval/variables&#45;helpers.ts -->
<g id="node16" class="node">
<title>eval/variables&#45;helpers.ts</title>
<path fill="none" stroke="#c6c5fe" d="M595.83,-141C595.83,-141 449.17,-141 449.17,-141 445.33,-141 441.5,-137.17 441.5,-133.33 441.5,-133.33 441.5,-125.67 441.5,-125.67 441.5,-121.83 445.33,-118 449.17,-118 449.17,-118 595.83,-118 595.83,-118 599.67,-118 603.5,-121.83 603.5,-125.67 603.5,-125.67 603.5,-133.33 603.5,-133.33 603.5,-137.17 599.67,-141 595.83,-141"/>
<text text-anchor="middle" x="522.5" y="-125.8" font-family="Arial" font-size="14.00" fill="#c6c5fe">eval/variables&#45;helpers.ts</text>
</g>
<!-- eval/variables.ts&#45;&gt;eval/variables&#45;helpers.ts -->
<g id="edge44" class="edge">
<title>eval/variables.ts&#45;&gt;eval/variables&#45;helpers.ts</title>
<path fill="none" stroke="#757575" d="M498.5,-235.75C498.5,-235.75 498.5,-151.2 498.5,-151.2"/>
<polygon fill="#757575" stroke="#757575" points="502,-151.2 498.5,-141.2 495,-151.2 502,-151.2"/>
</g>
<!-- parse/parser.ts&#45;&gt;core/arithmetic.ts -->
<g id="edge48" class="edge">
<title>parse/parser.ts&#45;&gt;core/arithmetic.ts</title>
<path fill="none" stroke="#757575" d="M192.5,-176.84C192.5,-176.84 192.5,-151.13 192.5,-151.13"/>
<polygon fill="#757575" stroke="#757575" points="196,-151.13 192.5,-141.13 189,-151.13 196,-151.13"/>
</g>
<!-- parse/parser.ts&#45;&gt;core/error.ts -->
<g id="edge49" class="edge">
<title>parse/parser.ts&#45;&gt;core/error.ts</title>
<path fill="none" stroke="#757575" d="M139.5,-176.91C139.5,-151.68 139.5,-94 139.5,-94 139.5,-94 206,-94 206,-94 206,-94 206,-33.32 206,-33.32"/>
<polygon fill="#757575" stroke="#757575" points="209.5,-33.32 206,-23.32 202.5,-33.32 209.5,-33.32"/>
</g>
<!-- parse/parser.ts&#45;&gt;core/result.ts -->
<g id="edge50" class="edge">
<title>parse/parser.ts&#45;&gt;core/result.ts</title>
<path fill="none" stroke="#757575" d="M233.88,-186C357.67,-186 653.83,-186 653.83,-186 653.83,-186 653.83,-33.22 653.83,-33.22"/>
<polygon fill="#757575" stroke="#757575" points="657.33,-33.22 653.83,-23.22 650.33,-33.22 657.33,-33.22"/>
</g>
<!-- parse/parser.ts&#45;&gt;utils/types.ts -->
<g id="edge51" class="edge">
<title>parse/parser.ts&#45;&gt;utils/types.ts</title>
<path fill="none" stroke="#757575" d="M233.63,-181C294.15,-181 384.75,-181 384.75,-181 384.75,-181 384.75,-92.33 384.75,-92.33"/>
<polygon fill="#757575" stroke="#757575" points="388.25,-92.33 384.75,-82.33 381.25,-92.33 388.25,-92.33"/>
</g>
<!-- utils/types.ts&#45;&gt;core/error.ts -->
<g id="edge52" class="edge">
<title>utils/types.ts&#45;&gt;core/error.ts</title>
<path fill="none" stroke="#757575" d="M367.82,-70C319.29,-70 249.5,-70 249.5,-70 249.5,-70 249.5,-33.06 249.5,-33.06"/>
<polygon fill="#757575" stroke="#757575" points="253,-33.06 249.5,-23.06 246,-33.06 253,-33.06"/>
</g>
<!-- utils/types.ts&#45;&gt;core/result.ts -->
<g id="edge53" class="edge">
<title>utils/types.ts&#45;&gt;core/result.ts</title>
<path fill="none" stroke="#757575" d="M413.5,-58.85C413.5,-40.52 413.5,-7 413.5,-7 413.5,-7 612.25,-7 612.25,-7"/>
<polygon fill="#757575" stroke="#757575" points="612.25,-10.5 622.25,-7 612.25,-3.5 612.25,-10.5"/>
</g>
<!-- eval/ifelse.ts -->
<g id="node10" class="node">
<title>eval/ifelse.ts</title>
<path fill="none" stroke="#c6c5fe" d="M577.33,-436C577.33,-436 501.67,-436 501.67,-436 497.83,-436 494,-432.17 494,-428.33 494,-428.33 494,-420.67 494,-420.67 494,-416.83 497.83,-413 501.67,-413 501.67,-413 577.33,-413 577.33,-413 581.17,-413 585,-416.83 585,-420.67 585,-420.67 585,-428.33 585,-428.33 585,-432.17 581.17,-436 577.33,-436"/>
<text text-anchor="middle" x="539.5" y="-420.8" font-family="Arial" font-size="14.00" fill="#c6c5fe">eval/ifelse.ts</text>
</g>
<!-- eval/ifelse.ts&#45;&gt;core/error.ts -->
<g id="edge13" class="edge">
<title>eval/ifelse.ts&#45;&gt;core/error.ts</title>
<path fill="none" stroke="#757575" d="M493.94,-420C435,-420 339.8,-420 339.8,-420 339.8,-420 339.8,-19 339.8,-19 339.8,-19 274.3,-19 274.3,-19"/>
<polygon fill="#757575" stroke="#757575" points="274.3,-15.5 264.3,-19 274.3,-22.5 274.3,-15.5"/>
</g>
<!-- eval/ifelse.ts&#45;&gt;core/result.ts -->
<g id="edge14" class="edge">
<title>eval/ifelse.ts&#45;&gt;core/result.ts</title>
<path fill="none" stroke="#757575" d="M585.1,-424C599.39,-424 611.5,-424 611.5,-424 611.5,-424 611.5,-15 611.5,-15 611.5,-15 612.59,-15 612.59,-15"/>
<polygon fill="#757575" stroke="#757575" points="612.41,-18.5 622.41,-15 612.41,-11.5 612.41,-18.5"/>
</g>
<!-- eval/ifelse.ts&#45;&gt;eval/ifelse&#45;branch.ts -->
<g id="edge15" class="edge">
<title>eval/ifelse.ts&#45;&gt;eval/ifelse&#45;branch.ts</title>
<path fill="none" stroke="#757575" d="M526.5,-412.84C526.5,-412.84 526.5,-387.13 526.5,-387.13"/>
<polygon fill="#757575" stroke="#757575" points="530,-387.13 526.5,-377.13 523,-387.13 530,-387.13"/>
</g>
<!-- eval/ifelse.ts&#45;&gt;eval/ifelse&#45;helpers.ts -->
<g id="edge16" class="edge">
<title>eval/ifelse.ts&#45;&gt;eval/ifelse&#45;helpers.ts</title>
<path fill="none" stroke="#757575" d="M576.33,-412.7C576.33,-382.73 576.33,-306 576.33,-306 576.33,-306 605.44,-306 605.44,-306"/>
<polygon fill="#757575" stroke="#757575" points="605.44,-309.5 615.44,-306 605.44,-302.5 605.44,-309.5"/>
</g>
<!-- eval/ifelse.ts&#45;&gt;eval/variables.ts -->
<g id="edge17" class="edge">
<title>eval/ifelse.ts&#45;&gt;eval/variables.ts</title>
<path fill="none" stroke="#757575" d="M567.67,-412.78C567.67,-374.26 567.67,-254 567.67,-254 567.67,-254 565.3,-254 565.3,-254"/>
<polygon fill="#757575" stroke="#757575" points="565.3,-250.5 555.3,-254 565.3,-257.5 565.3,-250.5"/>
</g>
<!-- eval/intepret&#45;helpers.ts -->
<g id="node11" class="node">
<title>eval/intepret&#45;helpers.ts</title>
<path fill="none" stroke="#c6c5fe" d="M145.33,-318C145.33,-318 7.67,-318 7.67,-318 3.83,-318 0,-314.17 0,-310.33 0,-310.33 0,-302.67 0,-302.67 0,-298.83 3.83,-295 7.67,-295 7.67,-295 145.33,-295 145.33,-295 149.17,-295 153,-298.83 153,-302.67 153,-302.67 153,-310.33 153,-310.33 153,-314.17 149.17,-318 145.33,-318"/>
<text text-anchor="middle" x="76.5" y="-302.8" font-family="Arial" font-size="14.00" fill="#c6c5fe">eval/intepret&#45;helpers.ts</text>
</g>
<!-- eval/intepret&#45;helpers.ts&#45;&gt;core/error.ts -->
<g id="edge18" class="edge">
<title>eval/intepret&#45;helpers.ts&#45;&gt;core/error.ts</title>
<path fill="none" stroke="#757575" d="M37.75,-294.92C37.75,-240.28 37.75,-11 37.75,-11 37.75,-11 164.57,-11 164.57,-11"/>
<polygon fill="#757575" stroke="#757575" points="164.57,-14.5 174.57,-11 164.57,-7.5 164.57,-14.5"/>
</g>
<!-- eval/intepret&#45;helpers.ts&#45;&gt;core/result.ts -->
<g id="edge19" class="edge">
<title>eval/intepret&#45;helpers.ts&#45;&gt;core/result.ts</title>
<path fill="none" stroke="#757575" d="M153.03,-310C214.63,-310 291,-310 291,-310 291,-310 291,-4 291,-4 291,-4 612.33,-4 612.33,-4"/>
<polygon fill="#757575" stroke="#757575" points="612.33,-7.5 622.33,-4 612.33,-0.5 612.33,-7.5"/>
</g>
<!-- eval/intepret&#45;helpers.ts&#45;&gt;utils/validation.ts -->
<g id="edge22" class="edge">
<title>eval/intepret&#45;helpers.ts&#45;&gt;utils/validation.ts</title>
<path fill="none" stroke="#757575" d="M92.83,-294.8C92.83,-294.8 92.83,-92.27 92.83,-92.27"/>
<polygon fill="#757575" stroke="#757575" points="96.33,-92.27 92.83,-82.27 89.33,-92.27 96.33,-92.27"/>
</g>
<!-- eval/intepret&#45;helpers.ts&#45;&gt;eval/variables.ts -->
<g id="edge20" class="edge">
<title>eval/intepret&#45;helpers.ts&#45;&gt;eval/variables.ts</title>
<path fill="none" stroke="#757575" d="M144.5,-294.73C144.5,-278.44 144.5,-251 144.5,-251 144.5,-251 431.62,-251 431.62,-251"/>
<polygon fill="#757575" stroke="#757575" points="431.62,-254.5 441.62,-251 431.62,-247.5 431.62,-254.5"/>
</g>
<!-- eval/intepret&#45;helpers.ts&#45;&gt;parse/parser.ts -->
<g id="edge21" class="edge">
<title>eval/intepret&#45;helpers.ts&#45;&gt;parse/parser.ts</title>
<path fill="none" stroke="#757575" d="M136,-294.75C136,-294.75 136,-210.2 136,-210.2"/>
<polygon fill="#757575" stroke="#757575" points="139.5,-210.2 136,-200.2 132.5,-210.2 139.5,-210.2"/>
</g>
<!-- eval/intepret.ts -->
<g id="node12" class="node">
<title>eval/intepret.ts</title>
<path fill="none" stroke="#c6c5fe" d="M393.83,-495C393.83,-495 305.17,-495 305.17,-495 301.33,-495 297.5,-491.17 297.5,-487.33 297.5,-487.33 297.5,-479.67 297.5,-479.67 297.5,-475.83 301.33,-472 305.17,-472 305.17,-472 393.83,-472 393.83,-472 397.67,-472 401.5,-475.83 401.5,-479.67 401.5,-479.67 401.5,-487.33 401.5,-487.33 401.5,-491.17 397.67,-495 393.83,-495"/>
<text text-anchor="middle" x="349.5" y="-479.8" font-family="Arial" font-size="14.00" fill="#c6c5fe">eval/intepret.ts</text>
</g>
<!-- eval/intepret.ts&#45;&gt;core/error.ts -->
<g id="edge23" class="edge">
<title>eval/intepret.ts&#45;&gt;core/error.ts</title>
<path fill="none" stroke="#757575" d="M325.7,-471.6C325.7,-399.21 325.7,-21 325.7,-21 325.7,-21 274.23,-21 274.23,-21"/>
<polygon fill="#757575" stroke="#757575" points="274.23,-17.5 264.23,-21 274.23,-24.5 274.23,-17.5"/>
</g>
<!-- eval/intepret.ts&#45;&gt;core/result.ts -->
<g id="edge24" class="edge">
<title>eval/intepret.ts&#45;&gt;core/result.ts</title>
<path fill="none" stroke="#757575" d="M332.75,-471.7C332.75,-398.17 332.75,-6 332.75,-6 332.75,-6 612.32,-6 612.32,-6"/>
<polygon fill="#757575" stroke="#757575" points="612.32,-9.5 622.32,-6 612.32,-2.5 612.32,-9.5"/>
</g>
<!-- eval/intepret.ts&#45;&gt;utils/validation.ts -->
<g id="edge30" class="edge">
<title>eval/intepret.ts&#45;&gt;utils/validation.ts</title>
<path fill="none" stroke="#757575" d="M318.65,-471.74C318.65,-404.93 318.65,-76 318.65,-76 318.65,-76 201.57,-76 201.57,-76"/>
<polygon fill="#757575" stroke="#757575" points="201.57,-72.5 191.57,-76 201.57,-79.5 201.57,-72.5"/>
</g>
<!-- eval/intepret.ts&#45;&gt;eval/variables.ts -->
<g id="edge28" class="edge">
<title>eval/intepret.ts&#45;&gt;eval/variables.ts</title>
<path fill="none" stroke="#757575" d="M376.38,-471.85C376.38,-425.29 376.38,-255 376.38,-255 376.38,-255 431.73,-255 431.73,-255"/>
<polygon fill="#757575" stroke="#757575" points="431.73,-258.5 441.73,-255 431.73,-251.5 431.73,-258.5"/>
</g>
<!-- eval/intepret.ts&#45;&gt;parse/parser.ts -->
<g id="edge29" class="edge">
<title>eval/intepret.ts&#45;&gt;parse/parser.ts</title>
<path fill="none" stroke="#757575" d="M311.6,-471.83C311.6,-417.86 311.6,-195 311.6,-195 311.6,-195 243.82,-195 243.82,-195"/>
<polygon fill="#757575" stroke="#757575" points="243.82,-191.5 233.82,-195 243.82,-198.5 243.82,-191.5"/>
</g>
<!-- eval/intepret.ts&#45;&gt;eval/ifelse.ts -->
<g id="edge25" class="edge">
<title>eval/intepret.ts&#45;&gt;eval/ifelse.ts</title>
<path fill="none" stroke="#757575" d="M393.12,-471.73C393.12,-455.44 393.12,-428 393.12,-428 393.12,-428 483.99,-428 483.99,-428"/>
<polygon fill="#757575" stroke="#757575" points="483.99,-431.5 493.99,-428 483.99,-424.5 483.99,-431.5"/>
</g>
<!-- eval/intepret.ts&#45;&gt;eval/intepret&#45;helpers.ts -->
<g id="edge26" class="edge">
<title>eval/intepret.ts&#45;&gt;eval/intepret&#45;helpers.ts</title>
<path fill="none" stroke="#757575" d="M304.55,-471.85C304.55,-433.55 304.55,-314 304.55,-314 304.55,-314 163.07,-314 163.07,-314"/>
<polygon fill="#757575" stroke="#757575" points="163.07,-310.5 153.07,-314 163.07,-317.5 163.07,-310.5"/>
</g>
<!-- eval/loop.ts -->
<g id="node13" class="node">
<title>eval/loop.ts</title>
<path fill="none" stroke="#c6c5fe" d="M894.33,-141C894.33,-141 824.67,-141 824.67,-141 820.83,-141 817,-137.17 817,-133.33 817,-133.33 817,-125.67 817,-125.67 817,-121.83 820.83,-118 824.67,-118 824.67,-118 894.33,-118 894.33,-118 898.17,-118 902,-121.83 902,-125.67 902,-125.67 902,-133.33 902,-133.33 902,-137.17 898.17,-141 894.33,-141"/>
<text text-anchor="middle" x="859.5" y="-125.8" font-family="Arial" font-size="14.00" fill="#c6c5fe">eval/loop.ts</text>
</g>
<!-- eval/intepret.ts&#45;&gt;eval/loop.ts -->
<g id="edge27" class="edge">
<title>eval/intepret.ts&#45;&gt;eval/loop.ts</title>
<path fill="none" stroke="#757575" d="M401.68,-483C531.66,-483 859.5,-483 859.5,-483 859.5,-483 859.5,-151.26 859.5,-151.26"/>
<polygon fill="#757575" stroke="#757575" points="863,-151.26 859.5,-141.26 856,-151.26 863,-151.26"/>
</g>
<!-- eval/loop.ts&#45;&gt;core/error.ts -->
<g id="edge34" class="edge">
<title>eval/loop.ts&#45;&gt;core/error.ts</title>
<path fill="none" stroke="#757575" d="M834.62,-117.75C834.62,-111.88 834.62,-106 834.62,-106 834.62,-106 235,-106 235,-106 235,-106 235,-33.09 235,-33.09"/>
<polygon fill="#757575" stroke="#757575" points="238.5,-33.09 235,-23.09 231.5,-33.09 238.5,-33.09"/>
</g>
<!-- eval/loop.ts&#45;&gt;core/result.ts -->
<g id="edge35" class="edge">
<title>eval/loop.ts&#45;&gt;core/result.ts</title>
<path fill="none" stroke="#757575" d="M852.25,-117.7C852.25,-87.73 852.25,-11 852.25,-11 852.25,-11 726.56,-11 726.56,-11"/>
<polygon fill="#757575" stroke="#757575" points="726.56,-7.5 716.56,-11 726.56,-14.5 726.56,-7.5"/>
</g>
<!-- eval/loop&#45;helpers.ts -->
<g id="node14" class="node">
<title>eval/loop&#45;helpers.ts</title>
<path fill="none" stroke="#c6c5fe" d="M1013.83,-82C1013.83,-82 895.17,-82 895.17,-82 891.33,-82 887.5,-78.17 887.5,-74.33 887.5,-74.33 887.5,-66.67 887.5,-66.67 887.5,-62.83 891.33,-59 895.17,-59 895.17,-59 1013.83,-59 1013.83,-59 1017.67,-59 1021.5,-62.83 1021.5,-66.67 1021.5,-66.67 1021.5,-74.33 1021.5,-74.33 1021.5,-78.17 1017.67,-82 1013.83,-82"/>
<text text-anchor="middle" x="954.5" y="-66.8" font-family="Arial" font-size="14.00" fill="#c6c5fe">eval/loop&#45;helpers.ts</text>
</g>
<!-- eval/loop.ts&#45;&gt;eval/loop&#45;helpers.ts -->
<g id="edge36" class="edge">
<title>eval/loop.ts&#45;&gt;eval/loop&#45;helpers.ts</title>
<path fill="none" stroke="#757575" d="M894.75,-117.84C894.75,-117.84 894.75,-92.13 894.75,-92.13"/>
<polygon fill="#757575" stroke="#757575" points="898.25,-92.13 894.75,-82.13 891.25,-92.13 898.25,-92.13"/>
</g>
<!-- eval/loop.ts&#45;&gt;eval/variables&#45;types.ts -->
<g id="edge37" class="edge">
<title>eval/loop.ts&#45;&gt;eval/variables&#45;types.ts</title>
<path fill="none" stroke="#757575" d="M869.88,-117.88C869.88,-89.14 869.88,-17 869.88,-17 869.88,-17 983.41,-17 983.41,-17"/>
<polygon fill="#757575" stroke="#757575" points="983.41,-20.5 993.41,-17 983.41,-13.5 983.41,-20.5"/>
</g>
<!-- eval/loop&#45;helpers.ts&#45;&gt;core/error.ts -->
<g id="edge31" class="edge">
<title>eval/loop&#45;helpers.ts&#45;&gt;core/error.ts</title>
<path fill="none" stroke="#757575" d="M887.24,-74C773.48,-74 555.33,-74 555.33,-74 555.33,-74 555.33,-9 555.33,-9 555.33,-9 274.1,-9 274.1,-9"/>
<polygon fill="#757575" stroke="#757575" points="274.1,-5.5 264.1,-9 274.1,-12.5 274.1,-5.5"/>
</g>
<!-- eval/loop&#45;helpers.ts&#45;&gt;core/result.ts -->
<g id="edge32" class="edge">
<title>eval/loop&#45;helpers.ts&#45;&gt;core/result.ts</title>
<path fill="none" stroke="#757575" d="M887.19,-66C812.04,-66 700.83,-66 700.83,-66 700.83,-66 700.83,-33.06 700.83,-33.06"/>
<polygon fill="#757575" stroke="#757575" points="704.33,-33.06 700.83,-23.06 697.33,-33.06 704.33,-33.06"/>
</g>
<!-- eval/loop&#45;helpers.ts&#45;&gt;eval/variables&#45;types.ts -->
<g id="edge33" class="edge">
<title>eval/loop&#45;helpers.ts&#45;&gt;eval/variables&#45;types.ts</title>
<path fill="none" stroke="#757575" d="M1007.5,-58.84C1007.5,-58.84 1007.5,-33.13 1007.5,-33.13"/>
<polygon fill="#757575" stroke="#757575" points="1011,-33.13 1007.5,-23.13 1004,-33.13 1011,-33.13"/>
</g>
<!-- eval/variables&#45;helpers.ts&#45;&gt;core/error.ts -->
<g id="edge38" class="edge">
<title>eval/variables&#45;helpers.ts&#45;&gt;core/error.ts</title>
<path fill="none" stroke="#757575" d="M507.17,-117.6C507.17,-87.38 507.17,-10 507.17,-10 507.17,-10 274.13,-10 274.13,-10"/>
<polygon fill="#757575" stroke="#757575" points="274.13,-6.5 264.13,-10 274.13,-13.5 274.13,-6.5"/>
</g>
<!-- eval/variables&#45;helpers.ts&#45;&gt;core/result.ts -->
<g id="edge39" class="edge">
<title>eval/variables&#45;helpers.ts&#45;&gt;core/result.ts</title>
<path fill="none" stroke="#757575" d="M603.78,-125C623.07,-125 638.17,-125 638.17,-125 638.17,-125 638.17,-33.22 638.17,-33.22"/>
<polygon fill="#757575" stroke="#757575" points="641.67,-33.22 638.17,-23.22 634.67,-33.22 641.67,-33.22"/>
</g>
<!-- eval/variables&#45;helpers.ts&#45;&gt;utils/types.ts -->
<g id="edge41" class="edge">
<title>eval/variables&#45;helpers.ts&#45;&gt;utils/types.ts</title>
<path fill="none" stroke="#757575" d="M450.25,-117.84C450.25,-117.84 450.25,-92.13 450.25,-92.13"/>
<polygon fill="#757575" stroke="#757575" points="453.75,-92.13 450.25,-82.13 446.75,-92.13 453.75,-92.13"/>
</g>
<!-- eval/variables&#45;helpers.ts&#45;&gt;eval/variables&#45;types.ts -->
<g id="edge40" class="edge">
<title>eval/variables&#45;helpers.ts&#45;&gt;eval/variables&#45;types.ts</title>
<path fill="none" stroke="#757575" d="M603.52,-133C663.92,-133 736,-133 736,-133 736,-133 736,-5 736,-5 736,-5 983.47,-5 983.47,-5"/>
<polygon fill="#757575" stroke="#757575" points="983.47,-8.5 993.47,-5 983.47,-1.5 983.47,-8.5"/>
</g>
</g>
</svg>
