<?xml version="1.0" encoding="UTF-8" standalone="no"?>
<!DOCTYPE svg PUBLIC "-//W3C//DTD SVG 1.1//EN"
 "http://www.w3.org/Graphics/SVG/1.1/DTD/svg11.dtd">
<!-- Generated by graphviz version 2.43.0 (0)
 -->
<!-- Title: G Pages: 1 -->
<svg width="2570pt" height="715pt"
 viewBox="0.00 0.00 2570.20 715.20" xmlns="http://www.w3.org/2000/svg" xmlns:xlink="http://www.w3.org/1999/xlink">
<g id="graph0" class="graph" transform="scale(1 1) rotate(0) translate(21.6 693.6)">
<title>G</title>
<polygon fill="#111111" stroke="transparent" points="-21.6,21.6 -21.6,-693.6 2548.6,-693.6 2548.6,21.6 -21.6,21.6"/>
<!-- src/app.ts -->
<g id="node1" class="node">
<title>src/app.ts</title>
<path fill="none" stroke="#c6c5fe" d="M876.83,-554C876.83,-554 817.17,-554 817.17,-554 813.33,-554 809.5,-550.17 809.5,-546.33 809.5,-546.33 809.5,-538.67 809.5,-538.67 809.5,-534.83 813.33,-531 817.17,-531 817.17,-531 876.83,-531 876.83,-531 880.67,-531 884.5,-534.83 884.5,-538.67 884.5,-538.67 884.5,-546.33 884.5,-546.33 884.5,-550.17 880.67,-554 876.83,-554"/>
<text text-anchor="middle" x="847" y="-538.8" font-family="Arial" font-size="14.00" fill="#c6c5fe">src/app.ts</text>
</g>
<!-- src/expressions/binary&#45;operation.ts -->
<g id="node2" class="node">
<title>src/expressions/binary&#45;operation.ts</title>
<path fill="none" stroke="#c6c5fe" d="M247.33,-436C247.33,-436 36.67,-436 36.67,-436 32.83,-436 29,-432.17 29,-428.33 29,-428.33 29,-420.67 29,-420.67 29,-416.83 32.83,-413 36.67,-413 36.67,-413 247.33,-413 247.33,-413 251.17,-413 255,-416.83 255,-420.67 255,-420.67 255,-428.33 255,-428.33 255,-432.17 251.17,-436 247.33,-436"/>
<text text-anchor="middle" x="142" y="-420.8" font-family="Arial" font-size="14.00" fill="#c6c5fe">src/expressions/binary&#45;operation.ts</text>
</g>
<!-- src/app.ts&#45;&gt;src/expressions/binary&#45;operation.ts -->
<g id="edge1" class="edge">
<title>src/app.ts&#45;&gt;src/expressions/binary&#45;operation.ts</title>
<path fill="none" stroke="#757575" d="M809.1,-550C662.66,-550 142,-550 142,-550 142,-550 142,-446.08 142,-446.08"/>
<polygon fill="#757575" stroke="#757575" points="145.5,-446.08 142,-436.08 138.5,-446.08 145.5,-446.08"/>
</g>
<!-- src/expressions/grouped&#45;expressions.ts -->
<g id="node3" class="node">
<title>src/expressions/grouped&#45;expressions.ts</title>
<path fill="none" stroke="#c6c5fe" d="M630.33,-377C630.33,-377 391.67,-377 391.67,-377 387.83,-377 384,-373.17 384,-369.33 384,-369.33 384,-361.67 384,-361.67 384,-357.83 387.83,-354 391.67,-354 391.67,-354 630.33,-354 630.33,-354 634.17,-354 638,-357.83 638,-361.67 638,-361.67 638,-369.33 638,-369.33 638,-373.17 634.17,-377 630.33,-377"/>
<text text-anchor="middle" x="511" y="-361.8" font-family="Arial" font-size="14.00" fill="#c6c5fe">src/expressions/grouped&#45;expressions.ts</text>
</g>
<!-- src/app.ts&#45;&gt;src/expressions/grouped&#45;expressions.ts -->
<g id="edge2" class="edge">
<title>src/app.ts&#45;&gt;src/expressions/grouped&#45;expressions.ts</title>
<path fill="none" stroke="#757575" d="M809.47,-538C717.81,-538 490,-538 490,-538 490,-538 490,-387.09 490,-387.09"/>
<polygon fill="#757575" stroke="#757575" points="493.5,-387.09 490,-377.09 486.5,-387.09 493.5,-387.09"/>
</g>
<!-- src/expressions/handlers.ts -->
<g id="node4" class="node">
<title>src/expressions/handlers.ts</title>
<path fill="none" stroke="#c6c5fe" d="M810.33,-200C810.33,-200 645.67,-200 645.67,-200 641.83,-200 638,-196.17 638,-192.33 638,-192.33 638,-184.67 638,-184.67 638,-180.83 641.83,-177 645.67,-177 645.67,-177 810.33,-177 810.33,-177 814.17,-177 818,-180.83 818,-184.67 818,-184.67 818,-192.33 818,-192.33 818,-196.17 814.17,-200 810.33,-200"/>
<text text-anchor="middle" x="728" y="-184.8" font-family="Arial" font-size="14.00" fill="#c6c5fe">src/expressions/handlers.ts</text>
</g>
<!-- src/app.ts&#45;&gt;src/expressions/handlers.ts -->
<g id="edge3" class="edge">
<title>src/app.ts&#45;&gt;src/expressions/handlers.ts</title>
<path fill="none" stroke="#757575" d="M884.73,-533C915.24,-533 953.17,-533 953.17,-533 953.17,-533 953.17,-395 953.17,-395 953.17,-395 804.33,-395 804.33,-395 804.33,-395 804.33,-210.19 804.33,-210.19"/>
<polygon fill="#757575" stroke="#757575" points="807.83,-210.19 804.33,-200.19 800.83,-210.19 807.83,-210.19"/>
</g>
<!-- src/handlers/dereference&#45;assignment.ts -->
<g id="node5" class="node">
<title>src/handlers/dereference&#45;assignment.ts</title>
<path fill="none" stroke="#c6c5fe" d="M792.33,-495C792.33,-495 553.67,-495 553.67,-495 549.83,-495 546,-491.17 546,-487.33 546,-487.33 546,-479.67 546,-479.67 546,-475.83 549.83,-472 553.67,-472 553.67,-472 792.33,-472 792.33,-472 796.17,-472 800,-475.83 800,-479.67 800,-479.67 800,-487.33 800,-487.33 800,-491.17 796.17,-495 792.33,-495"/>
<text text-anchor="middle" x="673" y="-479.8" font-family="Arial" font-size="14.00" fill="#c6c5fe">src/handlers/dereference&#45;assignment.ts</text>
</g>
<!-- src/app.ts&#45;&gt;src/handlers/dereference&#45;assignment.ts -->
<g id="edge4" class="edge">
<title>src/app.ts&#45;&gt;src/handlers/dereference&#45;assignment.ts</title>
<path fill="none" stroke="#757575" d="M809.34,-534C799.21,-534 791,-534 791,-534 791,-534 791,-505.21 791,-505.21"/>
<polygon fill="#757575" stroke="#757575" points="794.5,-505.21 791,-495.21 787.5,-505.21 794.5,-505.21"/>
</g>
<!-- src/handlers/lambda&#45;expressions.ts -->
<g id="node6" class="node">
<title>src/handlers/lambda&#45;expressions.ts</title>
<path fill="none" stroke="#c6c5fe" d="M1512.33,-436C1512.33,-436 1297.67,-436 1297.67,-436 1293.83,-436 1290,-432.17 1290,-428.33 1290,-428.33 1290,-420.67 1290,-420.67 1290,-416.83 1293.83,-413 1297.67,-413 1297.67,-413 1512.33,-413 1512.33,-413 1516.17,-413 1520,-416.83 1520,-420.67 1520,-420.67 1520,-428.33 1520,-428.33 1520,-432.17 1516.17,-436 1512.33,-436"/>
<text text-anchor="middle" x="1405" y="-420.8" font-family="Arial" font-size="14.00" fill="#c6c5fe">src/handlers/lambda&#45;expressions.ts</text>
</g>
<!-- src/app.ts&#45;&gt;src/handlers/lambda&#45;expressions.ts -->
<g id="edge5" class="edge">
<title>src/app.ts&#45;&gt;src/handlers/lambda&#45;expressions.ts</title>
<path fill="none" stroke="#757575" d="M884.79,-539C1004.38,-539 1366.67,-539 1366.67,-539 1366.67,-539 1366.67,-446.32 1366.67,-446.32"/>
<polygon fill="#757575" stroke="#757575" points="1370.17,-446.32 1366.67,-436.32 1363.17,-446.32 1370.17,-446.32"/>
</g>
<!-- src/handlers/pointer&#45;operations.ts -->
<g id="node7" class="node">
<title>src/handlers/pointer&#45;operations.ts</title>
<path fill="none" stroke="#c6c5fe" d="M755.83,-436C755.83,-436 554.17,-436 554.17,-436 550.33,-436 546.5,-432.17 546.5,-428.33 546.5,-428.33 546.5,-420.67 546.5,-420.67 546.5,-416.83 550.33,-413 554.17,-413 554.17,-413 755.83,-413 755.83,-413 759.67,-413 763.5,-416.83 763.5,-420.67 763.5,-420.67 763.5,-428.33 763.5,-428.33 763.5,-432.17 759.67,-436 755.83,-436"/>
<text text-anchor="middle" x="655" y="-420.8" font-family="Arial" font-size="14.00" fill="#c6c5fe">src/handlers/pointer&#45;operations.ts</text>
</g>
<!-- src/app.ts&#45;&gt;src/handlers/pointer&#45;operations.ts -->
<g id="edge6" class="edge">
<title>src/app.ts&#45;&gt;src/handlers/pointer&#45;operations.ts</title>
<path fill="none" stroke="#757575" d="M834.5,-530.91C834.5,-505.68 834.5,-448 834.5,-448 834.5,-448 691.17,-448 691.17,-448 691.17,-448 691.17,-446.25 691.17,-446.25"/>
<polygon fill="#757575" stroke="#757575" points="694.67,-446.25 691.17,-436.25 687.67,-446.25 694.67,-446.25"/>
</g>
<!-- src/loops/for.ts -->
<g id="node8" class="node">
<title>src/loops/for.ts</title>
<path fill="none" stroke="#c6c5fe" d="M2231.33,-495C2231.33,-495 2142.67,-495 2142.67,-495 2138.83,-495 2135,-491.17 2135,-487.33 2135,-487.33 2135,-479.67 2135,-479.67 2135,-475.83 2138.83,-472 2142.67,-472 2142.67,-472 2231.33,-472 2231.33,-472 2235.17,-472 2239,-475.83 2239,-479.67 2239,-479.67 2239,-487.33 2239,-487.33 2239,-491.17 2235.17,-495 2231.33,-495"/>
<text text-anchor="middle" x="2187" y="-479.8" font-family="Arial" font-size="14.00" fill="#c6c5fe">src/loops/for.ts</text>
</g>
<!-- src/app.ts&#45;&gt;src/loops/for.ts -->
<g id="edge7" class="edge">
<title>src/app.ts&#45;&gt;src/loops/for.ts</title>
<path fill="none" stroke="#757575" d="M884.59,-545C1101.84,-545 2187,-545 2187,-545 2187,-545 2187,-505.07 2187,-505.07"/>
<polygon fill="#757575" stroke="#757575" points="2190.5,-505.07 2187,-495.07 2183.5,-505.07 2190.5,-505.07"/>
</g>
<!-- src/loops/loop.ts -->
<g id="node9" class="node">
<title>src/loops/loop.ts</title>
<path fill="none" stroke="#cfffac" d="M2519.33,-436C2519.33,-436 2420.67,-436 2420.67,-436 2416.83,-436 2413,-432.17 2413,-428.33 2413,-428.33 2413,-420.67 2413,-420.67 2413,-416.83 2416.83,-413 2420.67,-413 2420.67,-413 2519.33,-413 2519.33,-413 2523.17,-413 2527,-416.83 2527,-420.67 2527,-420.67 2527,-428.33 2527,-428.33 2527,-432.17 2523.17,-436 2519.33,-436"/>
<text text-anchor="middle" x="2470" y="-420.8" font-family="Arial" font-size="14.00" fill="#cfffac">src/loops/loop.ts</text>
</g>
<!-- src/app.ts&#45;&gt;src/loops/loop.ts -->
<g id="edge8" class="edge">
<title>src/app.ts&#45;&gt;src/loops/loop.ts</title>
<path fill="none" stroke="#757575" d="M884.6,-551C1130.42,-551 2498.5,-551 2498.5,-551 2498.5,-551 2498.5,-446.17 2498.5,-446.17"/>
<polygon fill="#757575" stroke="#757575" points="2502,-446.17 2498.5,-436.17 2495,-446.17 2502,-446.17"/>
</g>
<!-- src/loops/while.ts -->
<g id="node10" class="node">
<title>src/loops/while.ts</title>
<path fill="none" stroke="#c6c5fe" d="M2375.83,-495C2375.83,-495 2272.17,-495 2272.17,-495 2268.33,-495 2264.5,-491.17 2264.5,-487.33 2264.5,-487.33 2264.5,-479.67 2264.5,-479.67 2264.5,-475.83 2268.33,-472 2272.17,-472 2272.17,-472 2375.83,-472 2375.83,-472 2379.67,-472 2383.5,-475.83 2383.5,-479.67 2383.5,-479.67 2383.5,-487.33 2383.5,-487.33 2383.5,-491.17 2379.67,-495 2375.83,-495"/>
<text text-anchor="middle" x="2324" y="-479.8" font-family="Arial" font-size="14.00" fill="#c6c5fe">src/loops/while.ts</text>
</g>
<!-- src/app.ts&#45;&gt;src/loops/while.ts -->
<g id="edge9" class="edge">
<title>src/app.ts&#45;&gt;src/loops/while.ts</title>
<path fill="none" stroke="#757575" d="M884.62,-548C1114.87,-548 2324,-548 2324,-548 2324,-548 2324,-505.03 2324,-505.03"/>
<polygon fill="#757575" stroke="#757575" points="2327.5,-505.03 2324,-495.03 2320.5,-505.03 2327.5,-505.03"/>
</g>
<!-- src/match.ts -->
<g id="node11" class="node">
<title>src/match.ts</title>
<path fill="none" stroke="#cfffac" d="M600.33,-318C600.33,-318 525.67,-318 525.67,-318 521.83,-318 518,-314.17 518,-310.33 518,-310.33 518,-302.67 518,-302.67 518,-298.83 521.83,-295 525.67,-295 525.67,-295 600.33,-295 600.33,-295 604.17,-295 608,-298.83 608,-302.67 608,-302.67 608,-310.33 608,-310.33 608,-314.17 604.17,-318 600.33,-318"/>
<text text-anchor="middle" x="563" y="-302.8" font-family="Arial" font-size="14.00" fill="#cfffac">src/match.ts</text>
</g>
<!-- src/app.ts&#45;&gt;src/match.ts -->
<g id="edge10" class="edge">
<title>src/app.ts&#45;&gt;src/match.ts</title>
<path fill="none" stroke="#757575" d="M809.29,-542C694.31,-542 356,-542 356,-542 356,-542 356,-306 356,-306 356,-306 507.83,-306 507.83,-306"/>
<polygon fill="#757575" stroke="#757575" points="507.83,-309.5 517.83,-306 507.83,-302.5 507.83,-309.5"/>
</g>
<!-- src/parser.ts -->
<g id="node12" class="node">
<title>src/parser.ts</title>
<path fill="none" stroke="#c6c5fe" d="M127.33,-82C127.33,-82 52.67,-82 52.67,-82 48.83,-82 45,-78.17 45,-74.33 45,-74.33 45,-66.67 45,-66.67 45,-62.83 48.83,-59 52.67,-59 52.67,-59 127.33,-59 127.33,-59 131.17,-59 135,-62.83 135,-66.67 135,-66.67 135,-74.33 135,-74.33 135,-78.17 131.17,-82 127.33,-82"/>
<text text-anchor="middle" x="90" y="-66.8" font-family="Arial" font-size="14.00" fill="#c6c5fe">src/parser.ts</text>
</g>
<!-- src/app.ts&#45;&gt;src/parser.ts -->
<g id="edge11" class="edge">
<title>src/app.ts&#45;&gt;src/parser.ts</title>
<path fill="none" stroke="#757575" d="M809.39,-546C682.87,-546 280.5,-546 280.5,-546 280.5,-546 280.5,-66 280.5,-66 280.5,-66 145.15,-66 145.15,-66"/>
<polygon fill="#757575" stroke="#757575" points="145.15,-62.5 135.15,-66 145.15,-69.5 145.15,-62.5"/>
</g>
<!-- src/scope.ts -->
<g id="node13" class="node">
<title>src/scope.ts</title>
<path fill="none" stroke="#c6c5fe" d="M1940.83,-495C1940.83,-495 1867.17,-495 1867.17,-495 1863.33,-495 1859.5,-491.17 1859.5,-487.33 1859.5,-487.33 1859.5,-479.67 1859.5,-479.67 1859.5,-475.83 1863.33,-472 1867.17,-472 1867.17,-472 1940.83,-472 1940.83,-472 1944.67,-472 1948.5,-475.83 1948.5,-479.67 1948.5,-479.67 1948.5,-487.33 1948.5,-487.33 1948.5,-491.17 1944.67,-495 1940.83,-495"/>
<text text-anchor="middle" x="1904" y="-479.8" font-family="Arial" font-size="14.00" fill="#c6c5fe">src/scope.ts</text>
</g>
<!-- src/app.ts&#45;&gt;src/scope.ts -->
<g id="edge12" class="edge">
<title>src/app.ts&#45;&gt;src/scope.ts</title>
<path fill="none" stroke="#757575" d="M884.62,-542C1072.91,-542 1904,-542 1904,-542 1904,-542 1904,-505.06 1904,-505.06"/>
<polygon fill="#757575" stroke="#757575" points="1907.5,-505.06 1904,-495.06 1900.5,-505.06 1907.5,-505.06"/>
</g>
<!-- src/utils/app&#45;handlers.ts -->
<g id="node14" class="node">
<title>src/utils/app&#45;handlers.ts</title>
<path fill="none" stroke="#c6c5fe" d="M1134.83,-495C1134.83,-495 991.17,-495 991.17,-495 987.33,-495 983.5,-491.17 983.5,-487.33 983.5,-487.33 983.5,-479.67 983.5,-479.67 983.5,-475.83 987.33,-472 991.17,-472 991.17,-472 1134.83,-472 1134.83,-472 1138.67,-472 1142.5,-475.83 1142.5,-479.67 1142.5,-479.67 1142.5,-487.33 1142.5,-487.33 1142.5,-491.17 1138.67,-495 1134.83,-495"/>
<text text-anchor="middle" x="1063" y="-479.8" font-family="Arial" font-size="14.00" fill="#c6c5fe">src/utils/app&#45;handlers.ts</text>
</g>
<!-- src/app.ts&#45;&gt;src/utils/app&#45;handlers.ts -->
<g id="edge13" class="edge">
<title>src/app.ts&#45;&gt;src/utils/app&#45;handlers.ts</title>
<path fill="none" stroke="#757575" d="M884.65,-536C935.67,-536 1020.5,-536 1020.5,-536 1020.5,-536 1020.5,-505.15 1020.5,-505.15"/>
<polygon fill="#757575" stroke="#757575" points="1024,-505.15 1020.5,-495.15 1017,-505.15 1024,-505.15"/>
</g>
<!-- src/utils/this&#45;keyword.ts -->
<g id="node15" class="node">
<title>src/utils/this&#45;keyword.ts</title>
<path fill="none" stroke="#c6c5fe" d="M930.33,-436C930.33,-436 789.67,-436 789.67,-436 785.83,-436 782,-432.17 782,-428.33 782,-428.33 782,-420.67 782,-420.67 782,-416.83 785.83,-413 789.67,-413 789.67,-413 930.33,-413 930.33,-413 934.17,-413 938,-416.83 938,-420.67 938,-420.67 938,-428.33 938,-428.33 938,-432.17 934.17,-436 930.33,-436"/>
<text text-anchor="middle" x="860" y="-420.8" font-family="Arial" font-size="14.00" fill="#c6c5fe">src/utils/this&#45;keyword.ts</text>
</g>
<!-- src/app.ts&#45;&gt;src/utils/this&#45;keyword.ts -->
<g id="edge14" class="edge">
<title>src/app.ts&#45;&gt;src/utils/this&#45;keyword.ts</title>
<path fill="none" stroke="#757575" d="M859.5,-530.75C859.5,-530.75 859.5,-446.2 859.5,-446.2"/>
<polygon fill="#757575" stroke="#757575" points="863,-446.2 859.5,-436.2 856,-446.2 863,-446.2"/>
</g>
<!-- src/expressions/binary&#45;operation.ts&#45;&gt;src/expressions/handlers.ts -->
<g id="edge16" class="edge">
<title>src/expressions/binary&#45;operation.ts&#45;&gt;src/expressions/handlers.ts</title>
<path fill="none" stroke="#757575" d="M255.32,-424C279.8,-424 298.5,-424 298.5,-424 298.5,-424 298.5,-195 298.5,-195 298.5,-195 627.96,-195 627.96,-195"/>
<polygon fill="#757575" stroke="#757575" points="627.96,-198.5 637.96,-195 627.96,-191.5 627.96,-198.5"/>
</g>
<!-- src/expressions/binary&#45;operation.ts&#45;&gt;src/parser.ts -->
<g id="edge18" class="edge">
<title>src/expressions/binary&#45;operation.ts&#45;&gt;src/parser.ts</title>
<path fill="none" stroke="#757575" d="M28.74,-424C11.87,-424 0,-424 0,-424 0,-424 0,-70 0,-70 0,-70 34.74,-70 34.74,-70"/>
<polygon fill="#757575" stroke="#757575" points="34.74,-73.5 44.74,-70 34.74,-66.5 34.74,-73.5"/>
</g>
<!-- src/expressions/operators.ts -->
<g id="node17" class="node">
<title>src/expressions/operators.ts</title>
<path fill="none" stroke="#c6c5fe" d="M254.83,-377C254.83,-377 85.17,-377 85.17,-377 81.33,-377 77.5,-373.17 77.5,-369.33 77.5,-369.33 77.5,-361.67 77.5,-361.67 77.5,-357.83 81.33,-354 85.17,-354 85.17,-354 254.83,-354 254.83,-354 258.67,-354 262.5,-357.83 262.5,-361.67 262.5,-361.67 262.5,-369.33 262.5,-369.33 262.5,-373.17 258.67,-377 254.83,-377"/>
<text text-anchor="middle" x="170" y="-361.8" font-family="Arial" font-size="14.00" fill="#c6c5fe">src/expressions/operators.ts</text>
</g>
<!-- src/expressions/binary&#45;operation.ts&#45;&gt;src/expressions/operators.ts -->
<g id="edge17" class="edge">
<title>src/expressions/binary&#45;operation.ts&#45;&gt;src/expressions/operators.ts</title>
<path fill="none" stroke="#757575" d="M166.25,-412.84C166.25,-412.84 166.25,-387.13 166.25,-387.13"/>
<polygon fill="#757575" stroke="#757575" points="169.75,-387.13 166.25,-377.13 162.75,-387.13 169.75,-387.13"/>
</g>
<!-- src/expressions/grouped&#45;expressions.ts&#45;&gt;src/expressions/handlers.ts -->
<g id="edge19" class="edge">
<title>src/expressions/grouped&#45;expressions.ts&#45;&gt;src/expressions/handlers.ts</title>
<path fill="none" stroke="#757575" d="M629.75,-353.96C629.75,-313.57 629.75,-181 629.75,-181 629.75,-181 630.55,-181 630.55,-181"/>
<polygon fill="#757575" stroke="#757575" points="627.79,-184.5 637.79,-181 627.79,-177.5 627.79,-184.5"/>
</g>
<!-- src/expressions/grouped&#45;expressions.ts&#45;&gt;src/match.ts -->
<g id="edge20" class="edge">
<title>src/expressions/grouped&#45;expressions.ts&#45;&gt;src/match.ts</title>
<path fill="none" stroke="#757575" d="M563,-353.84C563,-353.84 563,-328.13 563,-328.13"/>
<polygon fill="#757575" stroke="#757575" points="566.5,-328.13 563,-318.13 559.5,-328.13 566.5,-328.13"/>
</g>
<!-- src/types/structs.ts -->
<g id="node18" class="node">
<title>src/types/structs.ts</title>
<path fill="none" stroke="#c6c5fe" d="M784.33,-318C784.33,-318 671.67,-318 671.67,-318 667.83,-318 664,-314.17 664,-310.33 664,-310.33 664,-302.67 664,-302.67 664,-298.83 667.83,-295 671.67,-295 671.67,-295 784.33,-295 784.33,-295 788.17,-295 792,-298.83 792,-302.67 792,-302.67 792,-310.33 792,-310.33 792,-314.17 788.17,-318 784.33,-318"/>
<text text-anchor="middle" x="728" y="-302.8" font-family="Arial" font-size="14.00" fill="#c6c5fe">src/types/structs.ts</text>
</g>
<!-- src/expressions/grouped&#45;expressions.ts&#45;&gt;src/types/structs.ts -->
<g id="edge21" class="edge">
<title>src/expressions/grouped&#45;expressions.ts&#45;&gt;src/types/structs.ts</title>
<path fill="none" stroke="#757575" d="M635.25,-353.74C635.25,-336.4 635.25,-306 635.25,-306 635.25,-306 653.83,-306 653.83,-306"/>
<polygon fill="#757575" stroke="#757575" points="653.83,-309.5 663.83,-306 653.83,-302.5 653.83,-309.5"/>
</g>
<!-- src/utils/array.ts -->
<g id="node19" class="node">
<title>src/utils/array.ts</title>
<path fill="none" stroke="#cfffac" d="M619.33,-82C619.33,-82 524.67,-82 524.67,-82 520.83,-82 517,-78.17 517,-74.33 517,-74.33 517,-66.67 517,-66.67 517,-62.83 520.83,-59 524.67,-59 524.67,-59 619.33,-59 619.33,-59 623.17,-59 627,-62.83 627,-66.67 627,-66.67 627,-74.33 627,-74.33 627,-78.17 623.17,-82 619.33,-82"/>
<text text-anchor="middle" x="572" y="-66.8" font-family="Arial" font-size="14.00" fill="#cfffac">src/utils/array.ts</text>
</g>
<!-- src/expressions/grouped&#45;expressions.ts&#45;&gt;src/utils/array.ts -->
<g id="edge22" class="edge">
<title>src/expressions/grouped&#45;expressions.ts&#45;&gt;src/utils/array.ts</title>
<path fill="none" stroke="#757575" d="M612.75,-353.94C612.75,-353.94 612.75,-92.3 612.75,-92.3"/>
<polygon fill="#757575" stroke="#757575" points="616.25,-92.3 612.75,-82.3 609.25,-92.31 616.25,-92.3"/>
</g>
<!-- src/utils/identifier&#45;utils.ts -->
<g id="node20" class="node">
<title>src/utils/identifier&#45;utils.ts</title>
<path fill="none" stroke="#cfffac" d="M1190.33,-259C1190.33,-259 1045.67,-259 1045.67,-259 1041.83,-259 1038,-255.17 1038,-251.33 1038,-251.33 1038,-243.67 1038,-243.67 1038,-239.83 1041.83,-236 1045.67,-236 1045.67,-236 1190.33,-236 1190.33,-236 1194.17,-236 1198,-239.83 1198,-243.67 1198,-243.67 1198,-251.33 1198,-251.33 1198,-255.17 1194.17,-259 1190.33,-259"/>
<text text-anchor="middle" x="1118" y="-243.8" font-family="Arial" font-size="14.00" fill="#cfffac">src/utils/identifier&#45;utils.ts</text>
</g>
<!-- src/expressions/grouped&#45;expressions.ts&#45;&gt;src/utils/identifier&#45;utils.ts -->
<g id="edge23" class="edge">
<title>src/expressions/grouped&#45;expressions.ts&#45;&gt;src/utils/identifier&#45;utils.ts</title>
<path fill="none" stroke="#757575" d="M632.5,-353.56C632.5,-322.4 632.5,-241 632.5,-241 632.5,-241 1027.83,-241 1027.83,-241"/>
<polygon fill="#757575" stroke="#757575" points="1027.83,-244.5 1037.83,-241 1027.83,-237.5 1027.83,-244.5"/>
</g>
<!-- src/handlers/assignment.ts -->
<g id="node21" class="node">
<title>src/handlers/assignment.ts</title>
<path fill="none" stroke="#c6c5fe" d="M498.33,-141C498.33,-141 335.67,-141 335.67,-141 331.83,-141 328,-137.17 328,-133.33 328,-133.33 328,-125.67 328,-125.67 328,-121.83 331.83,-118 335.67,-118 335.67,-118 498.33,-118 498.33,-118 502.17,-118 506,-121.83 506,-125.67 506,-125.67 506,-133.33 506,-133.33 506,-137.17 502.17,-141 498.33,-141"/>
<text text-anchor="middle" x="417" y="-125.8" font-family="Arial" font-size="14.00" fill="#c6c5fe">src/handlers/assignment.ts</text>
</g>
<!-- src/expressions/handlers.ts&#45;&gt;src/handlers/assignment.ts -->
<g id="edge24" class="edge">
<title>src/expressions/handlers.ts&#45;&gt;src/handlers/assignment.ts</title>
<path fill="none" stroke="#757575" d="M637.68,-186C554.86,-186 445,-186 445,-186 445,-186 445,-151.21 445,-151.21"/>
<polygon fill="#757575" stroke="#757575" points="448.5,-151.21 445,-141.21 441.5,-151.21 448.5,-151.21"/>
</g>
<!-- src/types/interpreter.ts -->
<g id="node22" class="node">
<title>src/types/interpreter.ts</title>
<path fill="none" stroke="#cfffac" d="M457.83,-82C457.83,-82 324.17,-82 324.17,-82 320.33,-82 316.5,-78.17 316.5,-74.33 316.5,-74.33 316.5,-66.67 316.5,-66.67 316.5,-62.83 320.33,-59 324.17,-59 324.17,-59 457.83,-59 457.83,-59 461.67,-59 465.5,-62.83 465.5,-66.67 465.5,-66.67 465.5,-74.33 465.5,-74.33 465.5,-78.17 461.67,-82 457.83,-82"/>
<text text-anchor="middle" x="391" y="-66.8" font-family="Arial" font-size="14.00" fill="#cfffac">src/types/interpreter.ts</text>
</g>
<!-- src/expressions/handlers.ts&#45;&gt;src/types/interpreter.ts -->
<g id="edge25" class="edge">
<title>src/expressions/handlers.ts&#45;&gt;src/types/interpreter.ts</title>
<path fill="none" stroke="#757575" d="M637.95,-190C518.41,-190 322.25,-190 322.25,-190 322.25,-190 322.25,-92.4 322.25,-92.4"/>
<polygon fill="#757575" stroke="#757575" points="325.75,-92.39 322.25,-82.4 318.75,-92.4 325.75,-92.39"/>
</g>
<!-- src/utils/scope&#45;helpers.ts -->
<g id="node23" class="node">
<title>src/utils/scope&#45;helpers.ts</title>
<path fill="none" stroke="#c6c5fe" d="M1677.83,-141C1677.83,-141 1528.17,-141 1528.17,-141 1524.33,-141 1520.5,-137.17 1520.5,-133.33 1520.5,-133.33 1520.5,-125.67 1520.5,-125.67 1520.5,-121.83 1524.33,-118 1528.17,-118 1528.17,-118 1677.83,-118 1677.83,-118 1681.67,-118 1685.5,-121.83 1685.5,-125.67 1685.5,-125.67 1685.5,-133.33 1685.5,-133.33 1685.5,-137.17 1681.67,-141 1677.83,-141"/>
<text text-anchor="middle" x="1603" y="-125.8" font-family="Arial" font-size="14.00" fill="#c6c5fe">src/utils/scope&#45;helpers.ts</text>
</g>
<!-- src/expressions/handlers.ts&#45;&gt;src/utils/scope&#45;helpers.ts -->
<g id="edge26" class="edge">
<title>src/expressions/handlers.ts&#45;&gt;src/utils/scope&#45;helpers.ts</title>
<path fill="none" stroke="#757575" d="M818.14,-180C1036.12,-180 1574,-180 1574,-180 1574,-180 1574,-151.21 1574,-151.21"/>
<polygon fill="#757575" stroke="#757575" points="1577.5,-151.21 1574,-141.21 1570.5,-151.21 1577.5,-151.21"/>
</g>
<!-- src/handlers/dereference&#45;assignment.ts&#45;&gt;src/expressions/handlers.ts -->
<g id="edge45" class="edge">
<title>src/handlers/dereference&#45;assignment.ts&#45;&gt;src/expressions/handlers.ts</title>
<path fill="none" stroke="#757575" d="M772.75,-471.75C772.75,-441.09 772.75,-361 772.75,-361 772.75,-361 798.17,-361 798.17,-361 798.17,-361 798.17,-210.09 798.17,-210.09"/>
<polygon fill="#757575" stroke="#757575" points="801.67,-210.09 798.17,-200.09 794.67,-210.09 801.67,-210.09"/>
</g>
<!-- src/handlers/dereference&#45;assignment.ts&#45;&gt;src/handlers/pointer&#45;operations.ts -->
<g id="edge46" class="edge">
<title>src/handlers/dereference&#45;assignment.ts&#45;&gt;src/handlers/pointer&#45;operations.ts</title>
<path fill="none" stroke="#757575" d="M618.83,-471.84C618.83,-471.84 618.83,-446.13 618.83,-446.13"/>
<polygon fill="#757575" stroke="#757575" points="622.33,-446.13 618.83,-436.13 615.33,-446.13 622.33,-446.13"/>
</g>
<!-- src/functions.ts -->
<g id="node28" class="node">
<title>src/functions.ts</title>
<path fill="none" stroke="#c6c5fe" d="M1304.83,-377C1304.83,-377 1213.17,-377 1213.17,-377 1209.33,-377 1205.5,-373.17 1205.5,-369.33 1205.5,-369.33 1205.5,-361.67 1205.5,-361.67 1205.5,-357.83 1209.33,-354 1213.17,-354 1213.17,-354 1304.83,-354 1304.83,-354 1308.67,-354 1312.5,-357.83 1312.5,-361.67 1312.5,-361.67 1312.5,-369.33 1312.5,-369.33 1312.5,-373.17 1308.67,-377 1304.83,-377"/>
<text text-anchor="middle" x="1259" y="-361.8" font-family="Arial" font-size="14.00" fill="#c6c5fe">src/functions.ts</text>
</g>
<!-- src/handlers/lambda&#45;expressions.ts&#45;&gt;src/functions.ts -->
<g id="edge51" class="edge">
<title>src/handlers/lambda&#45;expressions.ts&#45;&gt;src/functions.ts</title>
<path fill="none" stroke="#757575" d="M1301.25,-412.84C1301.25,-412.84 1301.25,-387.13 1301.25,-387.13"/>
<polygon fill="#757575" stroke="#757575" points="1304.75,-387.13 1301.25,-377.13 1297.75,-387.13 1304.75,-387.13"/>
</g>
<!-- src/handlers/anonymous&#45;functions.ts -->
<g id="node29" class="node">
<title>src/handlers/anonymous&#45;functions.ts</title>
<path fill="none" stroke="#c6c5fe" d="M1619.83,-318C1619.83,-318 1398.17,-318 1398.17,-318 1394.33,-318 1390.5,-314.17 1390.5,-310.33 1390.5,-310.33 1390.5,-302.67 1390.5,-302.67 1390.5,-298.83 1394.33,-295 1398.17,-295 1398.17,-295 1619.83,-295 1619.83,-295 1623.67,-295 1627.5,-298.83 1627.5,-302.67 1627.5,-302.67 1627.5,-310.33 1627.5,-310.33 1627.5,-314.17 1623.67,-318 1619.83,-318"/>
<text text-anchor="middle" x="1509" y="-302.8" font-family="Arial" font-size="14.00" fill="#c6c5fe">src/handlers/anonymous&#45;functions.ts</text>
</g>
<!-- src/handlers/lambda&#45;expressions.ts&#45;&gt;src/handlers/anonymous&#45;functions.ts -->
<g id="edge52" class="edge">
<title>src/handlers/lambda&#45;expressions.ts&#45;&gt;src/handlers/anonymous&#45;functions.ts</title>
<path fill="none" stroke="#757575" d="M1476.83,-412.75C1476.83,-412.75 1476.83,-328.2 1476.83,-328.2"/>
<polygon fill="#757575" stroke="#757575" points="1480.33,-328.2 1476.83,-318.2 1473.33,-328.2 1480.33,-328.2"/>
</g>
<!-- src/handlers/pointer&#45;operations.ts&#45;&gt;src/utils/identifier&#45;utils.ts -->
<g id="edge56" class="edge">
<title>src/handlers/pointer&#45;operations.ts&#45;&gt;src/utils/identifier&#45;utils.ts</title>
<path fill="none" stroke="#757575" d="M651,-412.85C651,-373.36 651,-247 651,-247 651,-247 1027.99,-247 1027.99,-247"/>
<polygon fill="#757575" stroke="#757575" points="1027.99,-250.5 1037.99,-247 1027.99,-243.5 1027.99,-250.5"/>
</g>
<!-- src/loops/for.ts&#45;&gt;src/loops/loop.ts -->
<g id="edge58" class="edge">
<title>src/loops/for.ts&#45;&gt;src/loops/loop.ts</title>
<path fill="none" stroke="#757575" d="M2204.33,-471.75C2204.33,-465.88 2204.33,-460 2204.33,-460 2204.33,-460 2441.5,-460 2441.5,-460 2441.5,-460 2441.5,-446.12 2441.5,-446.12"/>
<polygon fill="#757575" stroke="#757575" points="2445,-446.12 2441.5,-436.12 2438,-446.12 2445,-446.12"/>
</g>
<!-- src/loops/helpers.ts -->
<g id="node34" class="node">
<title>src/loops/helpers.ts</title>
<path fill="none" stroke="#cfffac" d="M2386.83,-436C2386.83,-436 2269.17,-436 2269.17,-436 2265.33,-436 2261.5,-432.17 2261.5,-428.33 2261.5,-428.33 2261.5,-420.67 2261.5,-420.67 2261.5,-416.83 2265.33,-413 2269.17,-413 2269.17,-413 2386.83,-413 2386.83,-413 2390.67,-413 2394.5,-416.83 2394.5,-420.67 2394.5,-420.67 2394.5,-428.33 2394.5,-428.33 2394.5,-432.17 2390.67,-436 2386.83,-436"/>
<text text-anchor="middle" x="2328" y="-420.8" font-family="Arial" font-size="14.00" fill="#cfffac">src/loops/helpers.ts</text>
</g>
<!-- src/loops/for.ts&#45;&gt;src/loops/helpers.ts -->
<g id="edge57" class="edge">
<title>src/loops/for.ts&#45;&gt;src/loops/helpers.ts</title>
<path fill="none" stroke="#757575" d="M2239.27,-479C2248.64,-479 2255.5,-479 2255.5,-479 2255.5,-479 2255.5,-428 2255.5,-428 2255.5,-428 2256.07,-428 2256.07,-428"/>
<polygon fill="#757575" stroke="#757575" points="2251.19,-431.5 2261.19,-428 2251.19,-424.5 2251.19,-431.5"/>
</g>
<!-- src/loops/types.ts -->
<g id="node35" class="node">
<title>src/loops/types.ts</title>
<path fill="none" stroke="#c6c5fe" d="M2235.83,-436C2235.83,-436 2130.17,-436 2130.17,-436 2126.33,-436 2122.5,-432.17 2122.5,-428.33 2122.5,-428.33 2122.5,-420.67 2122.5,-420.67 2122.5,-416.83 2126.33,-413 2130.17,-413 2130.17,-413 2235.83,-413 2235.83,-413 2239.67,-413 2243.5,-416.83 2243.5,-420.67 2243.5,-420.67 2243.5,-428.33 2243.5,-428.33 2243.5,-432.17 2239.67,-436 2235.83,-436"/>
<text text-anchor="middle" x="2183" y="-420.8" font-family="Arial" font-size="14.00" fill="#c6c5fe">src/loops/types.ts</text>
</g>
<!-- src/loops/for.ts&#45;&gt;src/loops/types.ts -->
<g id="edge59" class="edge">
<title>src/loops/for.ts&#45;&gt;src/loops/types.ts</title>
<path fill="none" stroke="#757575" d="M2169.67,-471.84C2169.67,-471.84 2169.67,-446.13 2169.67,-446.13"/>
<polygon fill="#757575" stroke="#757575" points="2173.17,-446.13 2169.67,-436.13 2166.17,-446.13 2173.17,-446.13"/>
</g>
<!-- src/loops/while.ts&#45;&gt;src/loops/loop.ts -->
<g id="edge62" class="edge">
<title>src/loops/while.ts&#45;&gt;src/loops/loop.ts</title>
<path fill="none" stroke="#757575" d="M2383.81,-483C2424.12,-483 2470,-483 2470,-483 2470,-483 2470,-446.06 2470,-446.06"/>
<polygon fill="#757575" stroke="#757575" points="2473.5,-446.06 2470,-436.06 2466.5,-446.06 2473.5,-446.06"/>
</g>
<!-- src/loops/while.ts&#45;&gt;src/loops/helpers.ts -->
<g id="edge61" class="edge">
<title>src/loops/while.ts&#45;&gt;src/loops/helpers.ts</title>
<path fill="none" stroke="#757575" d="M2324,-471.84C2324,-471.84 2324,-446.13 2324,-446.13"/>
<polygon fill="#757575" stroke="#757575" points="2327.5,-446.13 2324,-436.13 2320.5,-446.13 2327.5,-446.13"/>
</g>
<!-- src/loops/while.ts&#45;&gt;src/loops/types.ts -->
<g id="edge63" class="edge">
<title>src/loops/while.ts&#45;&gt;src/loops/types.ts</title>
<path fill="none" stroke="#757575" d="M2264.22,-487C2255.56,-487 2249.5,-487 2249.5,-487 2249.5,-487 2249.5,-420 2249.5,-420 2249.5,-420 2248.93,-420 2248.93,-420"/>
<polygon fill="#757575" stroke="#757575" points="2253.83,-416.5 2243.83,-420 2253.83,-423.5 2253.83,-416.5"/>
</g>
<!-- src/type&#45;utils.ts -->
<g id="node26" class="node">
<title>src/type&#45;utils.ts</title>
<path fill="none" stroke="#cfffac" d="M1816.83,-23C1816.83,-23 1725.17,-23 1725.17,-23 1721.33,-23 1717.5,-19.17 1717.5,-15.33 1717.5,-15.33 1717.5,-7.67 1717.5,-7.67 1717.5,-3.83 1721.33,0 1725.17,0 1725.17,0 1816.83,0 1816.83,0 1820.67,0 1824.5,-3.83 1824.5,-7.67 1824.5,-7.67 1824.5,-15.33 1824.5,-15.33 1824.5,-19.17 1820.67,-23 1816.83,-23"/>
<text text-anchor="middle" x="1771" y="-7.8" font-family="Arial" font-size="14.00" fill="#cfffac">src/type&#45;utils.ts</text>
</g>
<!-- src/parser.ts&#45;&gt;src/type&#45;utils.ts -->
<g id="edge64" class="edge">
<title>src/parser.ts&#45;&gt;src/type&#45;utils.ts</title>
<path fill="none" stroke="#757575" d="M90,-58.92C90,-39.86 90,-4 90,-4 90,-4 1707.45,-4 1707.45,-4"/>
<polygon fill="#757575" stroke="#757575" points="1707.45,-7.5 1717.45,-4 1707.45,-0.5 1707.45,-7.5"/>
</g>
<!-- src/scope.ts&#45;&gt;src/expressions/handlers.ts -->
<g id="edge65" class="edge">
<title>src/scope.ts&#45;&gt;src/expressions/handlers.ts</title>
<path fill="none" stroke="#757575" d="M1927.64,-471.92C1927.64,-417.28 1927.64,-188 1927.64,-188 1927.64,-188 828.17,-188 828.17,-188"/>
<polygon fill="#757575" stroke="#757575" points="828.17,-184.5 818.17,-188 828.17,-191.5 828.17,-184.5"/>
</g>
<!-- src/scope.ts&#45;&gt;src/handlers/lambda&#45;expressions.ts -->
<g id="edge68" class="edge">
<title>src/scope.ts&#45;&gt;src/handlers/lambda&#45;expressions.ts</title>
<path fill="none" stroke="#757575" d="M1859.41,-485C1743.8,-485 1443.33,-485 1443.33,-485 1443.33,-485 1443.33,-446.17 1443.33,-446.17"/>
<polygon fill="#757575" stroke="#757575" points="1446.83,-446.16 1443.33,-436.17 1439.83,-446.17 1446.83,-446.16"/>
</g>
<!-- src/scope.ts&#45;&gt;src/parser.ts -->
<g id="edge69" class="edge">
<title>src/scope.ts&#45;&gt;src/parser.ts</title>
<path fill="none" stroke="#757575" d="M1917.21,-471.75C1917.21,-420.37 1917.21,-218 1917.21,-218 1917.21,-218 75,-218 75,-218 75,-218 75,-92.07 75,-92.07"/>
<polygon fill="#757575" stroke="#757575" points="78.5,-92.07 75,-82.07 71.5,-92.07 78.5,-92.07"/>
</g>
<!-- src/scope.ts&#45;&gt;src/utils/array.ts -->
<g id="edge70" class="edge">
<title>src/scope.ts&#45;&gt;src/utils/array.ts</title>
<path fill="none" stroke="#757575" d="M1906.79,-471.92C1906.79,-438.13 1906.79,-342 1906.79,-342 1906.79,-342 617.5,-342 617.5,-342 617.5,-342 617.5,-92.17 617.5,-92.17"/>
<polygon fill="#757575" stroke="#757575" points="621,-92.17 617.5,-82.17 614,-92.17 621,-92.17"/>
</g>
<!-- src/scope.ts&#45;&gt;src/utils/scope&#45;helpers.ts -->
<g id="edge72" class="edge">
<title>src/scope.ts&#45;&gt;src/utils/scope&#45;helpers.ts</title>
<path fill="none" stroke="#757575" d="M1859.38,-481C1787.98,-481 1656,-481 1656,-481 1656,-481 1656,-151.2 1656,-151.2"/>
<polygon fill="#757575" stroke="#757575" points="1659.5,-151.19 1656,-141.2 1652.5,-151.2 1659.5,-151.19"/>
</g>
<!-- src/function&#45;type&#45;handler.ts -->
<g id="node27" class="node">
<title>src/function&#45;type&#45;handler.ts</title>
<path fill="none" stroke="#c6c5fe" d="M1867.83,-436C1867.83,-436 1704.17,-436 1704.17,-436 1700.33,-436 1696.5,-432.17 1696.5,-428.33 1696.5,-428.33 1696.5,-420.67 1696.5,-420.67 1696.5,-416.83 1700.33,-413 1704.17,-413 1704.17,-413 1867.83,-413 1867.83,-413 1871.67,-413 1875.5,-416.83 1875.5,-420.67 1875.5,-420.67 1875.5,-428.33 1875.5,-428.33 1875.5,-432.17 1871.67,-436 1867.83,-436"/>
<text text-anchor="middle" x="1786" y="-420.8" font-family="Arial" font-size="14.00" fill="#c6c5fe">src/function&#45;type&#45;handler.ts</text>
</g>
<!-- src/scope.ts&#45;&gt;src/function&#45;type&#45;handler.ts -->
<g id="edge66" class="edge">
<title>src/scope.ts&#45;&gt;src/function&#45;type&#45;handler.ts</title>
<path fill="none" stroke="#757575" d="M1867.5,-471.84C1867.5,-471.84 1867.5,-446.13 1867.5,-446.13"/>
<polygon fill="#757575" stroke="#757575" points="1871,-446.13 1867.5,-436.13 1864,-446.13 1871,-446.13"/>
</g>
<!-- src/scope.ts&#45;&gt;src/functions.ts -->
<g id="edge67" class="edge">
<title>src/scope.ts&#45;&gt;src/functions.ts</title>
<path fill="none" stroke="#757575" d="M1896.36,-471.9C1896.36,-442.44 1896.36,-367 1896.36,-367 1896.36,-367 1322.52,-367 1322.52,-367"/>
<polygon fill="#757575" stroke="#757575" points="1322.52,-363.5 1312.52,-367 1322.52,-370.5 1322.52,-363.5"/>
</g>
<!-- src/utils/function&#45;utils.ts -->
<g id="node32" class="node">
<title>src/utils/function&#45;utils.ts</title>
<path fill="none" stroke="#c6c5fe" d="M1970.33,-82C1970.33,-82 1829.67,-82 1829.67,-82 1825.83,-82 1822,-78.17 1822,-74.33 1822,-74.33 1822,-66.67 1822,-66.67 1822,-62.83 1825.83,-59 1829.67,-59 1829.67,-59 1970.33,-59 1970.33,-59 1974.17,-59 1978,-62.83 1978,-66.67 1978,-66.67 1978,-74.33 1978,-74.33 1978,-78.17 1974.17,-82 1970.33,-82"/>
<text text-anchor="middle" x="1900" y="-66.8" font-family="Arial" font-size="14.00" fill="#c6c5fe">src/utils/function&#45;utils.ts</text>
</g>
<!-- src/scope.ts&#45;&gt;src/utils/function&#45;utils.ts -->
<g id="edge71" class="edge">
<title>src/scope.ts&#45;&gt;src/utils/function&#45;utils.ts</title>
<path fill="none" stroke="#757575" d="M1938.07,-471.59C1938.07,-471.59 1938.07,-92.07 1938.07,-92.07"/>
<polygon fill="#757575" stroke="#757575" points="1941.57,-92.07 1938.07,-82.07 1934.57,-92.07 1941.57,-92.07"/>
</g>
<!-- src/utils/app&#45;handlers.ts&#45;&gt;src/types/structs.ts -->
<g id="edge79" class="edge">
<title>src/utils/app&#45;handlers.ts&#45;&gt;src/types/structs.ts</title>
<path fill="none" stroke="#757575" d="M991,-471.68C991,-442.42 991,-369 991,-369 991,-369 788.67,-369 788.67,-369 788.67,-369 788.67,-328.26 788.67,-328.26"/>
<polygon fill="#757575" stroke="#757575" points="792.17,-328.26 788.67,-318.26 785.17,-328.26 792.17,-328.26"/>
</g>
<!-- src/utils/app&#45;handlers.ts&#45;&gt;src/functions.ts -->
<g id="edge77" class="edge">
<title>src/utils/app&#45;handlers.ts&#45;&gt;src/functions.ts</title>
<path fill="none" stroke="#757575" d="M1142.72,-476C1179.94,-476 1216.17,-476 1216.17,-476 1216.17,-476 1216.17,-387.33 1216.17,-387.33"/>
<polygon fill="#757575" stroke="#757575" points="1219.67,-387.33 1216.17,-377.33 1212.67,-387.33 1219.67,-387.33"/>
</g>
<!-- src/utils/function&#45;call&#45;params.ts -->
<g id="node31" class="node">
<title>src/utils/function&#45;call&#45;params.ts</title>
<path fill="none" stroke="#c6c5fe" d="M1005.83,-318C1005.83,-318 818.17,-318 818.17,-318 814.33,-318 810.5,-314.17 810.5,-310.33 810.5,-310.33 810.5,-302.67 810.5,-302.67 810.5,-298.83 814.33,-295 818.17,-295 818.17,-295 1005.83,-295 1005.83,-295 1009.67,-295 1013.5,-298.83 1013.5,-302.67 1013.5,-302.67 1013.5,-310.33 1013.5,-310.33 1013.5,-314.17 1009.67,-318 1005.83,-318"/>
<text text-anchor="middle" x="912" y="-302.8" font-family="Arial" font-size="14.00" fill="#c6c5fe">src/utils/function&#45;call&#45;params.ts</text>
</g>
<!-- src/utils/app&#45;handlers.ts&#45;&gt;src/utils/function&#45;call&#45;params.ts -->
<g id="edge81" class="edge">
<title>src/utils/app&#45;handlers.ts&#45;&gt;src/utils/function&#45;call&#45;params.ts</title>
<path fill="none" stroke="#757575" d="M998.5,-471.89C998.5,-471.89 998.5,-328.39 998.5,-328.39"/>
<polygon fill="#757575" stroke="#757575" points="1002,-328.39 998.5,-318.39 995,-328.39 1002,-328.39"/>
</g>
<!-- src/handlers/method&#45;call.ts -->
<g id="node33" class="node">
<title>src/handlers/method&#45;call.ts</title>
<path fill="none" stroke="#c6c5fe" d="M1203.83,-436C1203.83,-436 1040.17,-436 1040.17,-436 1036.33,-436 1032.5,-432.17 1032.5,-428.33 1032.5,-428.33 1032.5,-420.67 1032.5,-420.67 1032.5,-416.83 1036.33,-413 1040.17,-413 1040.17,-413 1203.83,-413 1203.83,-413 1207.67,-413 1211.5,-416.83 1211.5,-420.67 1211.5,-420.67 1211.5,-428.33 1211.5,-428.33 1211.5,-432.17 1207.67,-436 1203.83,-436"/>
<text text-anchor="middle" x="1122" y="-420.8" font-family="Arial" font-size="14.00" fill="#c6c5fe">src/handlers/method&#45;call.ts</text>
</g>
<!-- src/utils/app&#45;handlers.ts&#45;&gt;src/handlers/method&#45;call.ts -->
<g id="edge78" class="edge">
<title>src/utils/app&#45;handlers.ts&#45;&gt;src/handlers/method&#45;call.ts</title>
<path fill="none" stroke="#757575" d="M1087.5,-471.84C1087.5,-471.84 1087.5,-446.13 1087.5,-446.13"/>
<polygon fill="#757575" stroke="#757575" points="1091,-446.13 1087.5,-436.13 1084,-446.13 1091,-446.13"/>
</g>
<!-- src/types/type&#45;declarations.ts -->
<g id="node36" class="node">
<title>src/types/type&#45;declarations.ts</title>
<path fill="none" stroke="#c6c5fe" d="M1867.83,-318C1867.83,-318 1692.17,-318 1692.17,-318 1688.33,-318 1684.5,-314.17 1684.5,-310.33 1684.5,-310.33 1684.5,-302.67 1684.5,-302.67 1684.5,-298.83 1688.33,-295 1692.17,-295 1692.17,-295 1867.83,-295 1867.83,-295 1871.67,-295 1875.5,-298.83 1875.5,-302.67 1875.5,-302.67 1875.5,-310.33 1875.5,-310.33 1875.5,-314.17 1871.67,-318 1867.83,-318"/>
<text text-anchor="middle" x="1780" y="-302.8" font-family="Arial" font-size="14.00" fill="#c6c5fe">src/types/type&#45;declarations.ts</text>
</g>
<!-- src/utils/app&#45;handlers.ts&#45;&gt;src/types/type&#45;declarations.ts -->
<g id="edge80" class="edge">
<title>src/utils/app&#45;handlers.ts&#45;&gt;src/types/type&#45;declarations.ts</title>
<path fill="none" stroke="#757575" d="M1142.79,-490C1311.8,-490 1690.5,-490 1690.5,-490 1690.5,-490 1690.5,-328.26 1690.5,-328.26"/>
<polygon fill="#757575" stroke="#757575" points="1694,-328.26 1690.5,-318.26 1687,-328.26 1694,-328.26"/>
</g>
<!-- src/utils/this&#45;keyword.ts&#45;&gt;src/types/structs.ts -->
<g id="edge90" class="edge">
<title>src/utils/this&#45;keyword.ts&#45;&gt;src/types/structs.ts</title>
<path fill="none" stroke="#757575" d="M785.33,-412.75C785.33,-412.75 785.33,-328.2 785.33,-328.2"/>
<polygon fill="#757575" stroke="#757575" points="788.83,-328.2 785.33,-318.2 781.83,-328.2 788.83,-328.2"/>
</g>
<!-- src/utils/this&#45;keyword.ts&#45;&gt;src/functions.ts -->
<g id="edge89" class="edge">
<title>src/utils/this&#45;keyword.ts&#45;&gt;src/functions.ts</title>
<path fill="none" stroke="#757575" d="M874.25,-412.81C874.25,-397.62 874.25,-373 874.25,-373 874.25,-373 1195.1,-373 1195.1,-373"/>
<polygon fill="#757575" stroke="#757575" points="1195.1,-376.5 1205.1,-373 1195.1,-369.5 1195.1,-376.5"/>
</g>
<!-- src/declarations.ts -->
<g id="node16" class="node">
<title>src/declarations.ts</title>
<path fill="none" stroke="#c6c5fe" d="M1333.83,-259C1333.83,-259 1224.17,-259 1224.17,-259 1220.33,-259 1216.5,-255.17 1216.5,-251.33 1216.5,-251.33 1216.5,-243.67 1216.5,-243.67 1216.5,-239.83 1220.33,-236 1224.17,-236 1224.17,-236 1333.83,-236 1333.83,-236 1337.67,-236 1341.5,-239.83 1341.5,-243.67 1341.5,-243.67 1341.5,-251.33 1341.5,-251.33 1341.5,-255.17 1337.67,-259 1333.83,-259"/>
<text text-anchor="middle" x="1279" y="-243.8" font-family="Arial" font-size="14.00" fill="#c6c5fe">src/declarations.ts</text>
</g>
<!-- src/declarations.ts&#45;&gt;src/expressions/handlers.ts -->
<g id="edge15" class="edge">
<title>src/declarations.ts&#45;&gt;src/expressions/handlers.ts</title>
<path fill="none" stroke="#757575" d="M1279,-235.73C1279,-219.44 1279,-192 1279,-192 1279,-192 828.06,-192 828.06,-192"/>
<polygon fill="#757575" stroke="#757575" points="828.06,-188.5 818.06,-192 828.06,-195.5 828.06,-188.5"/>
</g>
<!-- src/expressions/operators.ts&#45;&gt;src/parser.ts -->
<g id="edge29" class="edge">
<title>src/expressions/operators.ts&#45;&gt;src/parser.ts</title>
<path fill="none" stroke="#757575" d="M239.7,-353.71C239.7,-299.18 239.7,-74 239.7,-74 239.7,-74 145.32,-74 145.32,-74"/>
<polygon fill="#757575" stroke="#757575" points="145.32,-70.5 135.32,-74 145.32,-77.5 145.32,-70.5"/>
</g>
<!-- src/expressions/operators.ts&#45;&gt;src/types/structs.ts -->
<g id="edge31" class="edge">
<title>src/expressions/operators.ts&#45;&gt;src/types/structs.ts</title>
<path fill="none" stroke="#757575" d="M251.1,-353.88C251.1,-343.52 251.1,-330 251.1,-330 251.1,-330 713.75,-330 713.75,-330 713.75,-330 713.75,-328.25 713.75,-328.25"/>
<polygon fill="#757575" stroke="#757575" points="717.25,-328.25 713.75,-318.25 710.25,-328.25 717.25,-328.25"/>
</g>
<!-- src/expressions/operators.ts&#45;&gt;src/utils/array.ts -->
<g id="edge32" class="edge">
<title>src/expressions/operators.ts&#45;&gt;src/utils/array.ts</title>
<path fill="none" stroke="#757575" d="M256.8,-353.88C256.8,-325.14 256.8,-253 256.8,-253 256.8,-253 563,-253 563,-253 563,-253 563,-92.19 563,-92.19"/>
<polygon fill="#757575" stroke="#757575" points="566.5,-92.19 563,-82.19 559.5,-92.19 566.5,-92.19"/>
</g>
<!-- src/expressions/operator&#45;finder.ts -->
<g id="node24" class="node">
<title>src/expressions/operator&#45;finder.ts</title>
<path fill="none" stroke="#c6c5fe" d="M226.33,-318C226.33,-318 25.67,-318 25.67,-318 21.83,-318 18,-314.17 18,-310.33 18,-310.33 18,-302.67 18,-302.67 18,-298.83 21.83,-295 25.67,-295 25.67,-295 226.33,-295 226.33,-295 230.17,-295 234,-298.83 234,-302.67 234,-302.67 234,-310.33 234,-310.33 234,-314.17 230.17,-318 226.33,-318"/>
<text text-anchor="middle" x="126" y="-302.8" font-family="Arial" font-size="14.00" fill="#c6c5fe">src/expressions/operator&#45;finder.ts</text>
</g>
<!-- src/expressions/operators.ts&#45;&gt;src/expressions/operator&#45;finder.ts -->
<g id="edge28" class="edge">
<title>src/expressions/operators.ts&#45;&gt;src/expressions/operator&#45;finder.ts</title>
<path fill="none" stroke="#757575" d="M155.75,-353.84C155.75,-353.84 155.75,-328.13 155.75,-328.13"/>
<polygon fill="#757575" stroke="#757575" points="159.25,-328.13 155.75,-318.13 152.25,-328.13 159.25,-328.13"/>
</g>
<!-- src/expressions/operators.ts&#45;&gt;src/type&#45;utils.ts -->
<g id="edge30" class="edge">
<title>src/expressions/operators.ts&#45;&gt;src/type&#45;utils.ts</title>
<path fill="none" stroke="#757575" d="M245.4,-353.64C245.4,-291.78 245.4,-9 245.4,-9 245.4,-9 1707.15,-9 1707.15,-9"/>
<polygon fill="#757575" stroke="#757575" points="1707.15,-12.5 1717.15,-9 1707.15,-5.5 1707.15,-12.5"/>
</g>
<!-- src/types/structs.ts&#45;&gt;src/expressions/handlers.ts -->
<g id="edge74" class="edge">
<title>src/types/structs.ts&#45;&gt;src/expressions/handlers.ts</title>
<path fill="none" stroke="#757575" d="M749.33,-294.75C749.33,-294.75 749.33,-210.2 749.33,-210.2"/>
<polygon fill="#757575" stroke="#757575" points="752.83,-210.2 749.33,-200.2 745.83,-210.2 752.83,-210.2"/>
</g>
<!-- src/types/structs.ts&#45;&gt;src/declarations.ts -->
<g id="edge73" class="edge">
<title>src/types/structs.ts&#45;&gt;src/declarations.ts</title>
<path fill="none" stroke="#757575" d="M706.67,-294.75C706.67,-288.88 706.67,-283 706.67,-283 706.67,-283 1258.17,-283 1258.17,-283 1258.17,-283 1258.17,-269.12 1258.17,-269.12"/>
<polygon fill="#757575" stroke="#757575" points="1261.67,-269.12 1258.17,-259.12 1254.67,-269.12 1261.67,-269.12"/>
</g>
<!-- src/handlers/assignment.ts&#45;&gt;src/utils/array.ts -->
<g id="edge44" class="edge">
<title>src/handlers/assignment.ts&#45;&gt;src/utils/array.ts</title>
<path fill="none" stroke="#757575" d="M485.75,-117.74C485.75,-100.4 485.75,-70 485.75,-70 485.75,-70 506.89,-70 506.89,-70"/>
<polygon fill="#757575" stroke="#757575" points="506.89,-73.5 516.89,-70 506.89,-66.5 506.89,-73.5"/>
</g>
<!-- src/handlers/assignment.ts&#45;&gt;src/types/interpreter.ts -->
<g id="edge43" class="edge">
<title>src/handlers/assignment.ts&#45;&gt;src/types/interpreter.ts</title>
<path fill="none" stroke="#757575" d="M396.75,-117.84C396.75,-117.84 396.75,-92.13 396.75,-92.13"/>
<polygon fill="#757575" stroke="#757575" points="400.25,-92.13 396.75,-82.13 393.25,-92.13 400.25,-92.13"/>
</g>
<!-- src/utils/scope&#45;helpers.ts&#45;&gt;src/parser.ts -->
<g id="edge85" class="edge">
<title>src/utils/scope&#45;helpers.ts&#45;&gt;src/parser.ts</title>
<path fill="none" stroke="#757575" d="M1603,-117.84C1603,-109.6 1603,-100 1603,-100 1603,-100 105,-100 105,-100 105,-100 105,-92.16 105,-92.16"/>
<polygon fill="#757575" stroke="#757575" points="108.5,-92.16 105,-82.16 101.5,-92.16 108.5,-92.16"/>
</g>
<!-- src/utils/scope&#45;helpers.ts&#45;&gt;src/utils/array.ts -->
<g id="edge87" class="edge">
<title>src/utils/scope&#45;helpers.ts&#45;&gt;src/utils/array.ts</title>
<path fill="none" stroke="#757575" d="M1520.23,-129C1283.78,-129 622.25,-129 622.25,-129 622.25,-129 622.25,-92.06 622.25,-92.06"/>
<polygon fill="#757575" stroke="#757575" points="625.75,-92.06 622.25,-82.06 618.75,-92.06 625.75,-92.06"/>
</g>
<!-- src/utils/scope&#45;helpers.ts&#45;&gt;src/type&#45;utils.ts -->
<g id="edge86" class="edge">
<title>src/utils/scope&#45;helpers.ts&#45;&gt;src/type&#45;utils.ts</title>
<path fill="none" stroke="#757575" d="M1685.62,-125C1716.23,-125 1743.62,-125 1743.62,-125 1743.62,-125 1743.62,-33.22 1743.62,-33.22"/>
<polygon fill="#757575" stroke="#757575" points="1747.13,-33.22 1743.62,-23.22 1740.13,-33.22 1747.13,-33.22"/>
</g>
<!-- src/utils/scope&#45;helpers.ts&#45;&gt;src/utils/function&#45;utils.ts -->
<g id="edge88" class="edge">
<title>src/utils/scope&#45;helpers.ts&#45;&gt;src/utils/function&#45;utils.ts</title>
<path fill="none" stroke="#757575" d="M1685.51,-133C1756.91,-133 1848.75,-133 1848.75,-133 1848.75,-133 1848.75,-92.26 1848.75,-92.26"/>
<polygon fill="#757575" stroke="#757575" points="1852.25,-92.26 1848.75,-82.26 1845.25,-92.26 1852.25,-92.26"/>
</g>
<!-- src/expressions/operator&#45;utils.ts -->
<g id="node25" class="node">
<title>src/expressions/operator&#45;utils.ts</title>
<path fill="none" stroke="#cfffac" d="M221.83,-259C221.83,-259 30.17,-259 30.17,-259 26.33,-259 22.5,-255.17 22.5,-251.33 22.5,-251.33 22.5,-243.67 22.5,-243.67 22.5,-239.83 26.33,-236 30.17,-236 30.17,-236 221.83,-236 221.83,-236 225.67,-236 229.5,-239.83 229.5,-243.67 229.5,-243.67 229.5,-251.33 229.5,-251.33 229.5,-255.17 225.67,-259 221.83,-259"/>
<text text-anchor="middle" x="126" y="-243.8" font-family="Arial" font-size="14.00" fill="#cfffac">src/expressions/operator&#45;utils.ts</text>
</g>
<!-- src/expressions/operator&#45;finder.ts&#45;&gt;src/expressions/operator&#45;utils.ts -->
<g id="edge27" class="edge">
<title>src/expressions/operator&#45;finder.ts&#45;&gt;src/expressions/operator&#45;utils.ts</title>
<path fill="none" stroke="#757575" d="M126,-294.84C126,-294.84 126,-269.13 126,-269.13"/>
<polygon fill="#757575" stroke="#757575" points="129.5,-269.13 126,-259.13 122.5,-269.13 129.5,-269.13"/>
</g>
<!-- src/function&#45;type&#45;handler.ts&#45;&gt;src/type&#45;utils.ts -->
<g id="edge34" class="edge">
<title>src/function&#45;type&#45;handler.ts&#45;&gt;src/type&#45;utils.ts</title>
<path fill="none" stroke="#757575" d="M1875.83,-424C1952.44,-424 2050.25,-424 2050.25,-424 2050.25,-424 2050.25,-11 2050.25,-11 2050.25,-11 1834.51,-11 1834.51,-11"/>
<polygon fill="#757575" stroke="#757575" points="1834.51,-7.5 1824.51,-11 1834.51,-14.5 1834.51,-7.5"/>
</g>
<!-- src/function&#45;type&#45;handler.ts&#45;&gt;src/functions.ts -->
<g id="edge33" class="edge">
<title>src/function&#45;type&#45;handler.ts&#45;&gt;src/functions.ts</title>
<path fill="none" stroke="#757575" d="M1786,-412.85C1786,-397.38 1786,-372 1786,-372 1786,-372 1322.92,-372 1322.92,-372"/>
<polygon fill="#757575" stroke="#757575" points="1322.92,-368.5 1312.92,-372 1322.92,-375.5 1322.92,-368.5"/>
</g>
<!-- src/functions.ts&#45;&gt;src/utils/identifier&#45;utils.ts -->
<g id="edge39" class="edge">
<title>src/functions.ts&#45;&gt;src/utils/identifier&#45;utils.ts</title>
<path fill="none" stroke="#757575" d="M1205.21,-357C1162.53,-357 1110,-357 1110,-357 1110,-357 1110,-269.22 1110,-269.22"/>
<polygon fill="#757575" stroke="#757575" points="1113.5,-269.22 1110,-259.22 1106.5,-269.22 1113.5,-269.22"/>
</g>
<!-- src/functions.ts&#45;&gt;src/handlers/anonymous&#45;functions.ts -->
<g id="edge35" class="edge">
<title>src/functions.ts&#45;&gt;src/handlers/anonymous&#45;functions.ts</title>
<path fill="none" stroke="#757575" d="M1312.83,-358C1364.15,-358 1433.67,-358 1433.67,-358 1433.67,-358 1433.67,-328.19 1433.67,-328.19"/>
<polygon fill="#757575" stroke="#757575" points="1437.17,-328.19 1433.67,-318.19 1430.17,-328.19 1437.17,-328.19"/>
</g>
<!-- src/handlers/function&#45;declaration.ts -->
<g id="node30" class="node">
<title>src/handlers/function&#45;declaration.ts</title>
<path fill="none" stroke="#c6c5fe" d="M1364.33,-318C1364.33,-318 1153.67,-318 1153.67,-318 1149.83,-318 1146,-314.17 1146,-310.33 1146,-310.33 1146,-302.67 1146,-302.67 1146,-298.83 1149.83,-295 1153.67,-295 1153.67,-295 1364.33,-295 1364.33,-295 1368.17,-295 1372,-298.83 1372,-302.67 1372,-302.67 1372,-310.33 1372,-310.33 1372,-314.17 1368.17,-318 1364.33,-318"/>
<text text-anchor="middle" x="1259" y="-302.8" font-family="Arial" font-size="14.00" fill="#c6c5fe">src/handlers/function&#45;declaration.ts</text>
</g>
<!-- src/functions.ts&#45;&gt;src/handlers/function&#45;declaration.ts -->
<g id="edge36" class="edge">
<title>src/functions.ts&#45;&gt;src/handlers/function&#45;declaration.ts</title>
<path fill="none" stroke="#757575" d="M1259,-353.84C1259,-353.84 1259,-328.13 1259,-328.13"/>
<polygon fill="#757575" stroke="#757575" points="1262.5,-328.13 1259,-318.13 1255.5,-328.13 1262.5,-328.13"/>
</g>
<!-- src/functions.ts&#45;&gt;src/utils/function&#45;call&#45;params.ts -->
<g id="edge37" class="edge">
<title>src/functions.ts&#45;&gt;src/utils/function&#45;call&#45;params.ts</title>
<path fill="none" stroke="#757575" d="M1205.35,-365C1131.08,-365 1006,-365 1006,-365 1006,-365 1006,-328.06 1006,-328.06"/>
<polygon fill="#757575" stroke="#757575" points="1009.5,-328.06 1006,-318.06 1002.5,-328.06 1009.5,-328.06"/>
</g>
<!-- src/functions.ts&#45;&gt;src/utils/function&#45;utils.ts -->
<g id="edge38" class="edge">
<title>src/functions.ts&#45;&gt;src/utils/function&#45;utils.ts</title>
<path fill="none" stroke="#757575" d="M1312.72,-363C1464.56,-363 1885.93,-363 1885.93,-363 1885.93,-363 1885.93,-92.33 1885.93,-92.33"/>
<polygon fill="#757575" stroke="#757575" points="1889.43,-92.33 1885.93,-82.33 1882.43,-92.33 1889.43,-92.33"/>
</g>
<!-- src/handlers/anonymous&#45;functions.ts&#45;&gt;src/utils/identifier&#45;utils.ts -->
<g id="edge42" class="edge">
<title>src/handlers/anonymous&#45;functions.ts&#45;&gt;src/utils/identifier&#45;utils.ts</title>
<path fill="none" stroke="#757575" d="M1423,-294.88C1423,-284.52 1423,-271 1423,-271 1423,-271 1180.67,-271 1180.67,-271 1180.67,-271 1180.67,-269.25 1180.67,-269.25"/>
<polygon fill="#757575" stroke="#757575" points="1184.17,-269.25 1180.67,-259.25 1177.17,-269.25 1184.17,-269.25"/>
</g>
<!-- src/handlers/anonymous&#45;functions.ts&#45;&gt;src/type&#45;utils.ts -->
<g id="edge40" class="edge">
<title>src/handlers/anonymous&#45;functions.ts&#45;&gt;src/type&#45;utils.ts</title>
<path fill="none" stroke="#757575" d="M1455.5,-294.83C1455.5,-240.86 1455.5,-18 1455.5,-18 1455.5,-18 1707.48,-18 1707.48,-18"/>
<polygon fill="#757575" stroke="#757575" points="1707.48,-21.5 1717.48,-18 1707.48,-14.5 1707.48,-21.5"/>
</g>
<!-- src/handlers/anonymous&#45;functions.ts&#45;&gt;src/utils/function&#45;utils.ts -->
<g id="edge41" class="edge">
<title>src/handlers/anonymous&#45;functions.ts&#45;&gt;src/utils/function&#45;utils.ts</title>
<path fill="none" stroke="#757575" d="M1488,-294.75C1488,-247.78 1488,-76 1488,-76 1488,-76 1811.54,-76 1811.54,-76"/>
<polygon fill="#757575" stroke="#757575" points="1811.54,-79.5 1821.54,-76 1811.54,-72.5 1811.54,-79.5"/>
</g>
<!-- src/handlers/function&#45;declaration.ts&#45;&gt;src/declarations.ts -->
<g id="edge47" class="edge">
<title>src/handlers/function&#45;declaration.ts&#45;&gt;src/declarations.ts</title>
<path fill="none" stroke="#757575" d="M1299.83,-294.84C1299.83,-294.84 1299.83,-269.13 1299.83,-269.13"/>
<polygon fill="#757575" stroke="#757575" points="1303.33,-269.13 1299.83,-259.13 1296.33,-269.13 1303.33,-269.13"/>
</g>
<!-- src/handlers/function&#45;declaration.ts&#45;&gt;src/utils/identifier&#45;utils.ts -->
<g id="edge50" class="edge">
<title>src/handlers/function&#45;declaration.ts&#45;&gt;src/utils/identifier&#45;utils.ts</title>
<path fill="none" stroke="#757575" d="M1163.33,-294.84C1163.33,-294.84 1163.33,-269.13 1163.33,-269.13"/>
<polygon fill="#757575" stroke="#757575" points="1166.83,-269.13 1163.33,-259.13 1159.83,-269.13 1166.83,-269.13"/>
</g>
<!-- src/handlers/function&#45;declaration.ts&#45;&gt;src/type&#45;utils.ts -->
<g id="edge48" class="edge">
<title>src/handlers/function&#45;declaration.ts&#45;&gt;src/type&#45;utils.ts</title>
<path fill="none" stroke="#757575" d="M1351.67,-294.99C1351.67,-240.73 1351.67,-13 1351.67,-13 1351.67,-13 1707.47,-13 1707.47,-13"/>
<polygon fill="#757575" stroke="#757575" points="1707.47,-16.5 1717.47,-13 1707.47,-9.5 1707.47,-16.5"/>
</g>
<!-- src/handlers/function&#45;declaration.ts&#45;&gt;src/utils/function&#45;utils.ts -->
<g id="edge49" class="edge">
<title>src/handlers/function&#45;declaration.ts&#45;&gt;src/utils/function&#45;utils.ts</title>
<path fill="none" stroke="#757575" d="M1361.83,-294.77C1361.83,-247.05 1361.83,-70 1361.83,-70 1361.83,-70 1811.75,-70 1811.75,-70"/>
<polygon fill="#757575" stroke="#757575" points="1811.75,-73.5 1821.75,-70 1811.75,-66.5 1811.75,-73.5"/>
</g>
<!-- src/utils/function&#45;call&#45;params.ts&#45;&gt;src/expressions/handlers.ts -->
<g id="edge82" class="edge">
<title>src/utils/function&#45;call&#45;params.ts&#45;&gt;src/expressions/handlers.ts</title>
<path fill="none" stroke="#757575" d="M814.25,-294.75C814.25,-294.75 814.25,-210.2 814.25,-210.2"/>
<polygon fill="#757575" stroke="#757575" points="817.75,-210.2 814.25,-200.2 810.75,-210.2 817.75,-210.2"/>
</g>
<!-- src/utils/function&#45;utils.ts&#45;&gt;src/type&#45;utils.ts -->
<g id="edge83" class="edge">
<title>src/utils/function&#45;utils.ts&#45;&gt;src/type&#45;utils.ts</title>
<path fill="none" stroke="#757575" d="M1821.88,-64C1806.95,-64 1795.88,-64 1795.88,-64 1795.88,-64 1795.88,-33.15 1795.88,-33.15"/>
<polygon fill="#757575" stroke="#757575" points="1799.38,-33.15 1795.88,-23.15 1792.38,-33.15 1799.38,-33.15"/>
</g>
<!-- src/handlers/method&#45;call.ts&#45;&gt;src/expressions/handlers.ts -->
<g id="edge53" class="edge">
<title>src/handlers/method&#45;call.ts&#45;&gt;src/expressions/handlers.ts</title>
<path fill="none" stroke="#757575" d="M1032.49,-424C1026.63,-424 1023,-424 1023,-424 1023,-424 1023,-196 1023,-196 1023,-196 828.11,-196 828.11,-196"/>
<polygon fill="#757575" stroke="#757575" points="828.11,-192.5 818.11,-196 828.11,-199.5 828.11,-192.5"/>
</g>
<!-- src/handlers/method&#45;call.ts&#45;&gt;src/utils/identifier&#45;utils.ts -->
<g id="edge55" class="edge">
<title>src/handlers/method&#45;call.ts&#45;&gt;src/utils/identifier&#45;utils.ts</title>
<path fill="none" stroke="#757575" d="M1074,-412.89C1074,-412.89 1074,-269.39 1074,-269.39"/>
<polygon fill="#757575" stroke="#757575" points="1077.5,-269.39 1074,-259.39 1070.5,-269.39 1077.5,-269.39"/>
</g>
<!-- src/handlers/method&#45;call.ts&#45;&gt;src/functions.ts -->
<g id="edge54" class="edge">
<title>src/handlers/method&#45;call.ts&#45;&gt;src/functions.ts</title>
<path fill="none" stroke="#757575" d="M1211.56,-424C1213.03,-424 1213.83,-424 1213.83,-424 1213.83,-424 1213.83,-387.06 1213.83,-387.06"/>
<polygon fill="#757575" stroke="#757575" points="1217.33,-387.06 1213.83,-377.06 1210.33,-387.06 1217.33,-387.06"/>
</g>
<!-- src/loops/types.ts&#45;&gt;src/expressions/handlers.ts -->
<g id="edge60" class="edge">
<title>src/loops/types.ts&#45;&gt;src/expressions/handlers.ts</title>
<path fill="none" stroke="#757575" d="M2183,-412.9C2183,-364.86 2183,-184 2183,-184 2183,-184 828.19,-184 828.19,-184"/>
<polygon fill="#757575" stroke="#757575" points="828.19,-180.5 818.19,-184 828.19,-187.5 828.19,-180.5"/>
</g>
<!-- src/types/type&#45;declarations.ts&#45;&gt;src/declarations.ts -->
<g id="edge75" class="edge">
<title>src/types/type&#45;declarations.ts&#45;&gt;src/declarations.ts</title>
<path fill="none" stroke="#757575" d="M1701.5,-294.74C1701.5,-277.4 1701.5,-247 1701.5,-247 1701.5,-247 1351.8,-247 1351.8,-247"/>
<polygon fill="#757575" stroke="#757575" points="1351.8,-243.5 1341.8,-247 1351.8,-250.5 1351.8,-243.5"/>
</g>
<!-- src/types/type&#45;declarations.ts&#45;&gt;src/type&#45;utils.ts -->
<g id="edge76" class="edge">
<title>src/types/type&#45;declarations.ts&#45;&gt;src/type&#45;utils.ts</title>
<path fill="none" stroke="#757575" d="M1769.75,-294.94C1769.75,-294.94 1769.75,-33.3 1769.75,-33.3"/>
<polygon fill="#757575" stroke="#757575" points="1773.25,-33.3 1769.75,-23.3 1766.25,-33.31 1773.25,-33.3"/>
</g>
<!-- src/utils/interpret.ts -->
<g id="node37" class="node">
<title>src/utils/interpret.ts</title>
<path fill="none" stroke="#c6c5fe" d="M904.33,-613C904.33,-613 789.67,-613 789.67,-613 785.83,-613 782,-609.17 782,-605.33 782,-605.33 782,-597.67 782,-597.67 782,-593.83 785.83,-590 789.67,-590 789.67,-590 904.33,-590 904.33,-590 908.17,-590 912,-593.83 912,-597.67 912,-597.67 912,-605.33 912,-605.33 912,-609.17 908.17,-613 904.33,-613"/>
<text text-anchor="middle" x="847" y="-597.8" font-family="Arial" font-size="14.00" fill="#c6c5fe">src/utils/interpret.ts</text>
</g>
<!-- src/utils/interpret.ts&#45;&gt;src/app.ts -->
<g id="edge84" class="edge">
<title>src/utils/interpret.ts&#45;&gt;src/app.ts</title>
<path fill="none" stroke="#757575" d="M847,-589.84C847,-589.84 847,-564.13 847,-564.13"/>
<polygon fill="#757575" stroke="#757575" points="850.5,-564.13 847,-554.13 843.5,-564.13 850.5,-564.13"/>
</g>
<!-- tests/arithmetic.test.ts -->
<g id="node38" class="node">
<title>tests/arithmetic.test.ts</title>
<path fill="none" stroke="#c6c5fe" d="M574.33,-672C574.33,-672 441.67,-672 441.67,-672 437.83,-672 434,-668.17 434,-664.33 434,-664.33 434,-656.67 434,-656.67 434,-652.83 437.83,-649 441.67,-649 441.67,-649 574.33,-649 574.33,-649 578.17,-649 582,-652.83 582,-656.67 582,-656.67 582,-664.33 582,-664.33 582,-668.17 578.17,-672 574.33,-672"/>
<text text-anchor="middle" x="508" y="-656.8" font-family="Arial" font-size="14.00" fill="#c6c5fe">tests/arithmetic.test.ts</text>
</g>
<!-- tests/arithmetic.test.ts&#45;&gt;src/utils/interpret.ts -->
<g id="edge91" class="edge">
<title>tests/arithmetic.test.ts&#45;&gt;src/utils/interpret.ts</title>
<path fill="none" stroke="#757575" d="M564,-648.85C564,-630.52 564,-597 564,-597 564,-597 771.72,-597 771.72,-597"/>
<polygon fill="#757575" stroke="#757575" points="771.72,-600.5 781.72,-597 771.72,-593.5 771.72,-600.5"/>
</g>
<!-- tests/control&#45;flow.test.ts -->
<g id="node39" class="node">
<title>tests/control&#45;flow.test.ts</title>
<path fill="none" stroke="#c6c5fe" d="M749.83,-672C749.83,-672 608.17,-672 608.17,-672 604.33,-672 600.5,-668.17 600.5,-664.33 600.5,-664.33 600.5,-656.67 600.5,-656.67 600.5,-652.83 604.33,-649 608.17,-649 608.17,-649 749.83,-649 749.83,-649 753.67,-649 757.5,-652.83 757.5,-656.67 757.5,-656.67 757.5,-664.33 757.5,-664.33 757.5,-668.17 753.67,-672 749.83,-672"/>
<text text-anchor="middle" x="679" y="-656.8" font-family="Arial" font-size="14.00" fill="#c6c5fe">tests/control&#45;flow.test.ts</text>
</g>
<!-- tests/control&#45;flow.test.ts&#45;&gt;src/utils/interpret.ts -->
<g id="edge92" class="edge">
<title>tests/control&#45;flow.test.ts&#45;&gt;src/utils/interpret.ts</title>
<path fill="none" stroke="#757575" d="M679,-648.73C679,-632.44 679,-605 679,-605 679,-605 771.57,-605 771.57,-605"/>
<polygon fill="#757575" stroke="#757575" points="771.57,-608.5 781.57,-605 771.57,-601.5 771.57,-608.5"/>
</g>
<!-- tests/functions.test.ts -->
<g id="node40" class="node">
<title>tests/functions.test.ts</title>
<path fill="none" stroke="#c6c5fe" d="M910.83,-672C910.83,-672 783.17,-672 783.17,-672 779.33,-672 775.5,-668.17 775.5,-664.33 775.5,-664.33 775.5,-656.67 775.5,-656.67 775.5,-652.83 779.33,-649 783.17,-649 783.17,-649 910.83,-649 910.83,-649 914.67,-649 918.5,-652.83 918.5,-656.67 918.5,-656.67 918.5,-664.33 918.5,-664.33 918.5,-668.17 914.67,-672 910.83,-672"/>
<text text-anchor="middle" x="847" y="-656.8" font-family="Arial" font-size="14.00" fill="#c6c5fe">tests/functions.test.ts</text>
</g>
<!-- tests/functions.test.ts&#45;&gt;src/utils/interpret.ts -->
<g id="edge93" class="edge">
<title>tests/functions.test.ts&#45;&gt;src/utils/interpret.ts</title>
<path fill="none" stroke="#757575" d="M847,-648.84C847,-648.84 847,-623.13 847,-623.13"/>
<polygon fill="#757575" stroke="#757575" points="850.5,-623.13 847,-613.13 843.5,-623.13 850.5,-623.13"/>
</g>
<!-- tests/types.test.ts -->
<g id="node41" class="node">
<title>tests/types.test.ts</title>
<path fill="none" stroke="#c6c5fe" d="M1049.83,-672C1049.83,-672 944.17,-672 944.17,-672 940.33,-672 936.5,-668.17 936.5,-664.33 936.5,-664.33 936.5,-656.67 936.5,-656.67 936.5,-652.83 940.33,-649 944.17,-649 944.17,-649 1049.83,-649 1049.83,-649 1053.67,-649 1057.5,-652.83 1057.5,-656.67 1057.5,-656.67 1057.5,-664.33 1057.5,-664.33 1057.5,-668.17 1053.67,-672 1049.83,-672"/>
<text text-anchor="middle" x="997" y="-656.8" font-family="Arial" font-size="14.00" fill="#c6c5fe">tests/types.test.ts</text>
</g>
<!-- tests/types.test.ts&#45;&gt;src/utils/interpret.ts -->
<g id="edge94" class="edge">
<title>tests/types.test.ts&#45;&gt;src/utils/interpret.ts</title>
<path fill="none" stroke="#757575" d="M968.33,-648.73C968.33,-632.44 968.33,-605 968.33,-605 968.33,-605 922.28,-605 922.28,-605"/>
<polygon fill="#757575" stroke="#757575" points="922.28,-601.5 912.28,-605 922.28,-608.5 922.28,-601.5"/>
</g>
<!-- tests/variables.test.ts -->
<g id="node42" class="node">
<title>tests/variables.test.ts</title>
<path fill="none" stroke="#c6c5fe" d="M1210.83,-672C1210.83,-672 1083.17,-672 1083.17,-672 1079.33,-672 1075.5,-668.17 1075.5,-664.33 1075.5,-664.33 1075.5,-656.67 1075.5,-656.67 1075.5,-652.83 1079.33,-649 1083.17,-649 1083.17,-649 1210.83,-649 1210.83,-649 1214.67,-649 1218.5,-652.83 1218.5,-656.67 1218.5,-656.67 1218.5,-664.33 1218.5,-664.33 1218.5,-668.17 1214.67,-672 1210.83,-672"/>
<text text-anchor="middle" x="1147" y="-656.8" font-family="Arial" font-size="14.00" fill="#c6c5fe">tests/variables.test.ts</text>
</g>
<!-- tests/variables.test.ts&#45;&gt;src/utils/interpret.ts -->
<g id="edge95" class="edge">
<title>tests/variables.test.ts&#45;&gt;src/utils/interpret.ts</title>
<path fill="none" stroke="#757575" d="M1109,-648.85C1109,-630.52 1109,-597 1109,-597 1109,-597 922.1,-597 922.1,-597"/>
<polygon fill="#757575" stroke="#757575" points="922.1,-593.5 912.1,-597 922.1,-600.5 922.1,-593.5"/>
</g>
</g>
</svg>
