<?xml version="1.0" encoding="UTF-8" standalone="no"?>
<!DOCTYPE svg PUBLIC "-//W3C//DTD SVG 1.1//EN"
 "http://www.w3.org/Graphics/SVG/1.1/DTD/svg11.dtd">
<!-- Generated by graphviz version 2.43.0 (0)
 -->
<!-- Title: G Pages: 1 -->
<svg width="324pt" height="282pt"
 viewBox="0.00 0.00 324.20 282.20" xmlns="http://www.w3.org/2000/svg" xmlns:xlink="http://www.w3.org/1999/xlink">
<g id="graph0" class="graph" transform="scale(1 1) rotate(0) translate(21.6 260.6)">
<title>G</title>
<polygon fill="#111111" stroke="transparent" points="-21.6,21.6 -21.6,-260.6 302.6,-260.6 302.6,21.6 -21.6,21.6"/>
<!-- arithmetic.ts -->
<g id="node1" class="node">
<title>arithmetic.ts</title>
<path fill="none" stroke="#c6c5fe" d="M175.17,-74C175.17,-74 116.83,-74 116.83,-74 113.67,-74 110.5,-70.83 110.5,-67.67 110.5,-67.67 110.5,-61.33 110.5,-61.33 110.5,-58.17 113.67,-55 116.83,-55 116.83,-55 175.17,-55 175.17,-55 178.33,-55 181.5,-58.17 181.5,-61.33 181.5,-61.33 181.5,-67.67 181.5,-67.67 181.5,-70.83 178.33,-74 175.17,-74"/>
<text text-anchor="middle" x="146" y="-62" font-family="Arial" font-size="10.00" fill="#c6c5fe">arithmetic.ts</text>
</g>
<!-- error.ts -->
<g id="node2" class="node">
<title>error.ts</title>
<path fill="none" stroke="#cfffac" d="M47.67,-19C47.67,-19 6.33,-19 6.33,-19 3.17,-19 0,-15.83 0,-12.67 0,-12.67 0,-6.33 0,-6.33 0,-3.17 3.17,0 6.33,0 6.33,0 47.67,0 47.67,0 50.83,0 54,-3.17 54,-6.33 54,-6.33 54,-12.67 54,-12.67 54,-15.83 50.83,-19 47.67,-19"/>
<text text-anchor="middle" x="27" y="-7" font-family="Arial" font-size="10.00" fill="#cfffac">error.ts</text>
</g>
<!-- arithmetic.ts&#45;&gt;error.ts -->
<g id="edge1" class="edge">
<title>arithmetic.ts&#45;&gt;error.ts</title>
<path fill="none" stroke="#757575" d="M134.17,-54.57C134.17,-39.6 134.17,-13 134.17,-13 134.17,-13 64.04,-13 64.04,-13"/>
<polygon fill="#757575" stroke="#757575" points="64.04,-9.5 54.04,-13 64.04,-16.5 64.04,-9.5"/>
</g>
<!-- result.ts -->
<g id="node3" class="node">
<title>result.ts</title>
<path fill="none" stroke="#cfffac" d="M274.67,-19C274.67,-19 233.33,-19 233.33,-19 230.17,-19 227,-15.83 227,-12.67 227,-12.67 227,-6.33 227,-6.33 227,-3.17 230.17,0 233.33,0 233.33,0 274.67,0 274.67,0 277.83,0 281,-3.17 281,-6.33 281,-6.33 281,-12.67 281,-12.67 281,-15.83 277.83,-19 274.67,-19"/>
<text text-anchor="middle" x="254" y="-7" font-family="Arial" font-size="10.00" fill="#cfffac">result.ts</text>
</g>
<!-- arithmetic.ts&#45;&gt;result.ts -->
<g id="edge2" class="edge">
<title>arithmetic.ts&#45;&gt;result.ts</title>
<path fill="none" stroke="#757575" d="M157.83,-54.92C157.83,-38.8 157.83,-8 157.83,-8 157.83,-8 216.96,-8 216.96,-8"/>
<polygon fill="#757575" stroke="#757575" points="216.96,-11.5 226.96,-8 216.96,-4.5 216.96,-11.5"/>
</g>
<!-- intepret.ts -->
<g id="node4" class="node">
<title>intepret.ts</title>
<path fill="none" stroke="#c6c5fe" d="M159.67,-239C159.67,-239 112.33,-239 112.33,-239 109.17,-239 106,-235.83 106,-232.67 106,-232.67 106,-226.33 106,-226.33 106,-223.17 109.17,-220 112.33,-220 112.33,-220 159.67,-220 159.67,-220 162.83,-220 166,-223.17 166,-226.33 166,-226.33 166,-232.67 166,-232.67 166,-235.83 162.83,-239 159.67,-239"/>
<text text-anchor="middle" x="136" y="-227" font-family="Arial" font-size="10.00" fill="#c6c5fe">intepret.ts</text>
</g>
<!-- intepret.ts&#45;&gt;error.ts -->
<g id="edge3" class="edge">
<title>intepret.ts&#45;&gt;error.ts</title>
<path fill="none" stroke="#757575" d="M105.95,-232C68.07,-232 7.83,-232 7.83,-232 7.83,-232 7.83,-29.06 7.83,-29.06"/>
<polygon fill="#757575" stroke="#757575" points="11.33,-29.06 7.83,-19.06 4.33,-29.06 11.33,-29.06"/>
</g>
<!-- intepret.ts&#45;&gt;result.ts -->
<g id="edge5" class="edge">
<title>intepret.ts&#45;&gt;result.ts</title>
<path fill="none" stroke="#757575" d="M166.18,-229C206.25,-229 272,-229 272,-229 272,-229 272,-29.21 272,-29.21"/>
<polygon fill="#757575" stroke="#757575" points="275.5,-29.21 272,-19.21 268.5,-29.21 275.5,-29.21"/>
</g>
<!-- parser.ts -->
<g id="node5" class="node">
<title>parser.ts</title>
<path fill="none" stroke="#c6c5fe" d="M173.17,-129C173.17,-129 130.83,-129 130.83,-129 127.67,-129 124.5,-125.83 124.5,-122.67 124.5,-122.67 124.5,-116.33 124.5,-116.33 124.5,-113.17 127.67,-110 130.83,-110 130.83,-110 173.17,-110 173.17,-110 176.33,-110 179.5,-113.17 179.5,-116.33 179.5,-116.33 179.5,-122.67 179.5,-122.67 179.5,-125.83 176.33,-129 173.17,-129"/>
<text text-anchor="middle" x="152" y="-117" font-family="Arial" font-size="10.00" fill="#c6c5fe">parser.ts</text>
</g>
<!-- intepret.ts&#45;&gt;parser.ts -->
<g id="edge4" class="edge">
<title>intepret.ts&#45;&gt;parser.ts</title>
<path fill="none" stroke="#757575" d="M137.83,-219.74C137.83,-219.74 137.83,-139.08 137.83,-139.08"/>
<polygon fill="#757575" stroke="#757575" points="141.33,-139.08 137.83,-129.08 134.33,-139.08 141.33,-139.08"/>
</g>
<!-- validation.ts -->
<g id="node6" class="node">
<title>validation.ts</title>
<path fill="none" stroke="#c6c5fe" d="M86.17,-74C86.17,-74 29.83,-74 29.83,-74 26.67,-74 23.5,-70.83 23.5,-67.67 23.5,-67.67 23.5,-61.33 23.5,-61.33 23.5,-58.17 26.67,-55 29.83,-55 29.83,-55 86.17,-55 86.17,-55 89.33,-55 92.5,-58.17 92.5,-61.33 92.5,-61.33 92.5,-67.67 92.5,-67.67 92.5,-70.83 89.33,-74 86.17,-74"/>
<text text-anchor="middle" x="58" y="-62" font-family="Arial" font-size="10.00" fill="#c6c5fe">validation.ts</text>
</g>
<!-- intepret.ts&#45;&gt;validation.ts -->
<g id="edge6" class="edge">
<title>intepret.ts&#45;&gt;validation.ts</title>
<path fill="none" stroke="#757575" d="M105.62,-226C83.72,-226 58,-226 58,-226 58,-226 58,-84.12 58,-84.12"/>
<polygon fill="#757575" stroke="#757575" points="61.5,-84.12 58,-74.12 54.5,-84.12 61.5,-84.12"/>
</g>
<!-- variables.ts -->
<g id="node7" class="node">
<title>variables.ts</title>
<path fill="none" stroke="#c6c5fe" d="M225.17,-184C225.17,-184 170.83,-184 170.83,-184 167.67,-184 164.5,-180.83 164.5,-177.67 164.5,-177.67 164.5,-171.33 164.5,-171.33 164.5,-168.17 167.67,-165 170.83,-165 170.83,-165 225.17,-165 225.17,-165 228.33,-165 231.5,-168.17 231.5,-171.33 231.5,-171.33 231.5,-177.67 231.5,-177.67 231.5,-180.83 228.33,-184 225.17,-184"/>
<text text-anchor="middle" x="198" y="-172" font-family="Arial" font-size="10.00" fill="#c6c5fe">variables.ts</text>
</g>
<!-- intepret.ts&#45;&gt;variables.ts -->
<g id="edge7" class="edge">
<title>intepret.ts&#45;&gt;variables.ts</title>
<path fill="none" stroke="#757575" d="M151.17,-219.83C151.17,-203.93 151.17,-174 151.17,-174 151.17,-174 154.46,-174 154.46,-174"/>
<polygon fill="#757575" stroke="#757575" points="154.46,-177.5 164.46,-174 154.46,-170.5 154.46,-177.5"/>
</g>
<!-- parser.ts&#45;&gt;arithmetic.ts -->
<g id="edge8" class="edge">
<title>parser.ts&#45;&gt;arithmetic.ts</title>
<path fill="none" stroke="#757575" d="M152,-109.92C152,-109.92 152,-84.34 152,-84.34"/>
<polygon fill="#757575" stroke="#757575" points="155.5,-84.34 152,-74.34 148.5,-84.34 155.5,-84.34"/>
</g>
<!-- parser.ts&#45;&gt;error.ts -->
<g id="edge9" class="edge">
<title>parser.ts&#45;&gt;error.ts</title>
<path fill="none" stroke="#757575" d="M124.41,-119C84.57,-119 15.67,-119 15.67,-119 15.67,-119 15.67,-29.22 15.67,-29.22"/>
<polygon fill="#757575" stroke="#757575" points="19.17,-29.22 15.67,-19.22 12.17,-29.22 19.17,-29.22"/>
</g>
<!-- parser.ts&#45;&gt;result.ts -->
<g id="edge10" class="edge">
<title>parser.ts&#45;&gt;result.ts</title>
<path fill="none" stroke="#757575" d="M179.72,-122C212.6,-122 263,-122 263,-122 263,-122 263,-29.09 263,-29.09"/>
<polygon fill="#757575" stroke="#757575" points="266.5,-29.09 263,-19.09 259.5,-29.09 266.5,-29.09"/>
</g>
<!-- types.ts -->
<g id="node8" class="node">
<title>types.ts</title>
<path fill="none" stroke="#c6c5fe" d="M247.67,-74C247.67,-74 206.33,-74 206.33,-74 203.17,-74 200,-70.83 200,-67.67 200,-67.67 200,-61.33 200,-61.33 200,-58.17 203.17,-55 206.33,-55 206.33,-55 247.67,-55 247.67,-55 250.83,-55 254,-58.17 254,-61.33 254,-61.33 254,-67.67 254,-67.67 254,-70.83 250.83,-74 247.67,-74"/>
<text text-anchor="middle" x="227" y="-62" font-family="Arial" font-size="10.00" fill="#c6c5fe">types.ts</text>
</g>
<!-- parser.ts&#45;&gt;types.ts -->
<g id="edge11" class="edge">
<title>parser.ts&#45;&gt;types.ts</title>
<path fill="none" stroke="#757575" d="M179.54,-116C194.71,-116 210.5,-116 210.5,-116 210.5,-116 210.5,-84.43 210.5,-84.43"/>
<polygon fill="#757575" stroke="#757575" points="214,-84.43 210.5,-74.43 207,-84.43 214,-84.43"/>
</g>
<!-- validation.ts&#45;&gt;error.ts -->
<g id="edge14" class="edge">
<title>validation.ts&#45;&gt;error.ts</title>
<path fill="none" stroke="#757575" d="M38.75,-54.92C38.75,-54.92 38.75,-29.34 38.75,-29.34"/>
<polygon fill="#757575" stroke="#757575" points="42.25,-29.34 38.75,-19.34 35.25,-29.34 42.25,-29.34"/>
</g>
<!-- validation.ts&#45;&gt;result.ts -->
<g id="edge15" class="edge">
<title>validation.ts&#45;&gt;result.ts</title>
<path fill="none" stroke="#757575" d="M73.25,-54.73C73.25,-37.16 73.25,-2 73.25,-2 73.25,-2 216.94,-2 216.94,-2"/>
<polygon fill="#757575" stroke="#757575" points="216.94,-5.5 226.94,-2 216.94,1.5 216.94,-5.5"/>
</g>
<!-- variables.ts&#45;&gt;error.ts -->
<g id="edge16" class="edge">
<title>variables.ts&#45;&gt;error.ts</title>
<path fill="none" stroke="#757575" d="M187.67,-164.7C187.67,-129.29 187.67,-10 187.67,-10 187.67,-10 64.25,-10 64.25,-10"/>
<polygon fill="#757575" stroke="#757575" points="64.25,-6.5 54.25,-10 64.25,-13.5 64.25,-6.5"/>
</g>
<!-- variables.ts&#45;&gt;result.ts -->
<g id="edge18" class="edge">
<title>variables.ts&#45;&gt;result.ts</title>
<path fill="none" stroke="#757575" d="M193.83,-164.59C193.83,-129.89 193.83,-16 193.83,-16 193.83,-16 216.73,-16 216.73,-16"/>
<polygon fill="#757575" stroke="#757575" points="216.73,-19.5 226.73,-16 216.73,-12.5 216.73,-19.5"/>
</g>
<!-- variables.ts&#45;&gt;parser.ts -->
<g id="edge17" class="edge">
<title>variables.ts&#45;&gt;parser.ts</title>
<path fill="none" stroke="#757575" d="M172,-164.92C172,-164.92 172,-139.34 172,-139.34"/>
<polygon fill="#757575" stroke="#757575" points="175.5,-139.34 172,-129.34 168.5,-139.34 175.5,-139.34"/>
</g>
<!-- variables.ts&#45;&gt;types.ts -->
<g id="edge19" class="edge">
<title>variables.ts&#45;&gt;types.ts</title>
<path fill="none" stroke="#757575" d="M221,-164.74C221,-164.74 221,-84.08 221,-84.08"/>
<polygon fill="#757575" stroke="#757575" points="224.5,-84.08 221,-74.08 217.5,-84.08 224.5,-84.08"/>
</g>
<!-- types.ts&#45;&gt;error.ts -->
<g id="edge12" class="edge">
<title>types.ts&#45;&gt;error.ts</title>
<path fill="none" stroke="#757575" d="M213.5,-54.94C213.5,-38.12 213.5,-5 213.5,-5 213.5,-5 64.12,-5 64.12,-5"/>
<polygon fill="#757575" stroke="#757575" points="64.12,-1.5 54.12,-5 64.12,-8.5 64.12,-1.5"/>
</g>
<!-- types.ts&#45;&gt;result.ts -->
<g id="edge13" class="edge">
<title>types.ts&#45;&gt;result.ts</title>
<path fill="none" stroke="#757575" d="M240.5,-54.92C240.5,-54.92 240.5,-29.34 240.5,-29.34"/>
<polygon fill="#757575" stroke="#757575" points="244,-29.34 240.5,-19.34 237,-29.34 244,-29.34"/>
</g>
</g>
</svg>
