<?xml version="1.0" encoding="UTF-8" standalone="no"?>
<!DOCTYPE svg PUBLIC "-//W3C//DTD SVG 1.1//EN"
 "http://www.w3.org/Graphics/SVG/1.1/DTD/svg11.dtd">
<!-- Generated by graphviz version 2.43.0 (0)
 -->
<!-- Title: G Pages: 1 -->
<svg width="221pt" height="282pt"
 viewBox="0.00 0.00 221.20 282.20" xmlns="http://www.w3.org/2000/svg" xmlns:xlink="http://www.w3.org/1999/xlink">
<g id="graph0" class="graph" transform="scale(1 1) rotate(0) translate(21.6 260.6)">
<title>G</title>
<polygon fill="#111111" stroke="transparent" points="-21.6,21.6 -21.6,-260.6 199.6,-260.6 199.6,21.6 -21.6,21.6"/>
<!-- error.ts -->
<g id="node1" class="node">
<title>error.ts</title>
<path fill="none" stroke="#cfffac" d="M74.67,-19C74.67,-19 33.33,-19 33.33,-19 30.17,-19 27,-15.83 27,-12.67 27,-12.67 27,-6.33 27,-6.33 27,-3.17 30.17,0 33.33,0 33.33,0 74.67,0 74.67,0 77.83,0 81,-3.17 81,-6.33 81,-6.33 81,-12.67 81,-12.67 81,-15.83 77.83,-19 74.67,-19"/>
<text text-anchor="middle" x="54" y="-7" font-family="Arial" font-size="10.00" fill="#cfffac">error.ts</text>
</g>
<!-- intepret.ts -->
<g id="node2" class="node">
<title>intepret.ts</title>
<path fill="none" stroke="#c6c5fe" d="M171.67,-239C171.67,-239 124.33,-239 124.33,-239 121.17,-239 118,-235.83 118,-232.67 118,-232.67 118,-226.33 118,-226.33 118,-223.17 121.17,-220 124.33,-220 124.33,-220 171.67,-220 171.67,-220 174.83,-220 178,-223.17 178,-226.33 178,-226.33 178,-232.67 178,-232.67 178,-235.83 174.83,-239 171.67,-239"/>
<text text-anchor="middle" x="148" y="-227" font-family="Arial" font-size="10.00" fill="#c6c5fe">intepret.ts</text>
</g>
<!-- intepret.ts&#45;&gt;error.ts -->
<g id="edge1" class="edge">
<title>intepret.ts&#45;&gt;error.ts</title>
<path fill="none" stroke="#757575" d="M171,-219.74C171,-177.07 171,-9 171,-9 171,-9 91.14,-9 91.14,-9"/>
<polygon fill="#757575" stroke="#757575" points="91.14,-5.5 81.14,-9 91.14,-12.5 91.14,-5.5"/>
</g>
<!-- parser.ts -->
<g id="node3" class="node">
<title>parser.ts</title>
<path fill="none" stroke="#c6c5fe" d="M94.17,-129C94.17,-129 51.83,-129 51.83,-129 48.67,-129 45.5,-125.83 45.5,-122.67 45.5,-122.67 45.5,-116.33 45.5,-116.33 45.5,-113.17 48.67,-110 51.83,-110 51.83,-110 94.17,-110 94.17,-110 97.33,-110 100.5,-113.17 100.5,-116.33 100.5,-116.33 100.5,-122.67 100.5,-122.67 100.5,-125.83 97.33,-129 94.17,-129"/>
<text text-anchor="middle" x="73" y="-117" font-family="Arial" font-size="10.00" fill="#c6c5fe">parser.ts</text>
</g>
<!-- intepret.ts&#45;&gt;parser.ts -->
<g id="edge2" class="edge">
<title>intepret.ts&#45;&gt;parser.ts</title>
<path fill="none" stroke="#757575" d="M141,-219.96C141,-193.65 141,-122 141,-122 141,-122 110.66,-122 110.66,-122"/>
<polygon fill="#757575" stroke="#757575" points="110.66,-118.5 100.66,-122 110.66,-125.5 110.66,-118.5"/>
</g>
<!-- result.ts -->
<g id="node4" class="node">
<title>result.ts</title>
<path fill="none" stroke="#cfffac" d="M157.67,-74C157.67,-74 116.33,-74 116.33,-74 113.17,-74 110,-70.83 110,-67.67 110,-67.67 110,-61.33 110,-61.33 110,-58.17 113.17,-55 116.33,-55 116.33,-55 157.67,-55 157.67,-55 160.83,-55 164,-58.17 164,-61.33 164,-61.33 164,-67.67 164,-67.67 164,-70.83 160.83,-74 157.67,-74"/>
<text text-anchor="middle" x="137" y="-62" font-family="Arial" font-size="10.00" fill="#cfffac">result.ts</text>
</g>
<!-- intepret.ts&#45;&gt;result.ts -->
<g id="edge3" class="edge">
<title>intepret.ts&#45;&gt;result.ts</title>
<path fill="none" stroke="#757575" d="M152.5,-219.67C152.5,-219.67 152.5,-84.07 152.5,-84.07"/>
<polygon fill="#757575" stroke="#757575" points="156,-84.07 152.5,-74.07 149,-84.07 156,-84.07"/>
</g>
<!-- variables.ts -->
<g id="node5" class="node">
<title>variables.ts</title>
<path fill="none" stroke="#c6c5fe" d="M94.17,-184C94.17,-184 39.83,-184 39.83,-184 36.67,-184 33.5,-180.83 33.5,-177.67 33.5,-177.67 33.5,-171.33 33.5,-171.33 33.5,-168.17 36.67,-165 39.83,-165 39.83,-165 94.17,-165 94.17,-165 97.33,-165 100.5,-168.17 100.5,-171.33 100.5,-171.33 100.5,-177.67 100.5,-177.67 100.5,-180.83 97.33,-184 94.17,-184"/>
<text text-anchor="middle" x="67" y="-172" font-family="Arial" font-size="10.00" fill="#c6c5fe">variables.ts</text>
</g>
<!-- intepret.ts&#45;&gt;variables.ts -->
<g id="edge4" class="edge">
<title>intepret.ts&#45;&gt;variables.ts</title>
<path fill="none" stroke="#757575" d="M129.5,-219.87C129.5,-204.71 129.5,-177 129.5,-177 129.5,-177 110.81,-177 110.81,-177"/>
<polygon fill="#757575" stroke="#757575" points="110.81,-173.5 100.81,-177 110.81,-180.5 110.81,-173.5"/>
</g>
<!-- parser.ts&#45;&gt;error.ts -->
<g id="edge5" class="edge">
<title>parser.ts&#45;&gt;error.ts</title>
<path fill="none" stroke="#757575" d="M72,-109.74C72,-109.74 72,-29.08 72,-29.08"/>
<polygon fill="#757575" stroke="#757575" points="75.5,-29.08 72,-19.08 68.5,-29.08 75.5,-29.08"/>
</g>
<!-- parser.ts&#45;&gt;result.ts -->
<g id="edge6" class="edge">
<title>parser.ts&#45;&gt;result.ts</title>
<path fill="none" stroke="#757575" d="M100.55,-116C107.32,-116 112.67,-116 112.67,-116 112.67,-116 112.67,-84.43 112.67,-84.43"/>
<polygon fill="#757575" stroke="#757575" points="116.17,-84.43 112.67,-74.43 109.17,-84.43 116.17,-84.43"/>
</g>
<!-- types.ts -->
<g id="node6" class="node">
<title>types.ts</title>
<path fill="none" stroke="#c6c5fe" d="M47.67,-74C47.67,-74 6.33,-74 6.33,-74 3.17,-74 0,-70.83 0,-67.67 0,-67.67 0,-61.33 0,-61.33 0,-58.17 3.17,-55 6.33,-55 6.33,-55 47.67,-55 47.67,-55 50.83,-55 54,-58.17 54,-61.33 54,-61.33 54,-67.67 54,-67.67 54,-70.83 50.83,-74 47.67,-74"/>
<text text-anchor="middle" x="27" y="-62" font-family="Arial" font-size="10.00" fill="#c6c5fe">types.ts</text>
</g>
<!-- parser.ts&#45;&gt;types.ts -->
<g id="edge7" class="edge">
<title>parser.ts&#45;&gt;types.ts</title>
<path fill="none" stroke="#757575" d="M49.75,-109.92C49.75,-109.92 49.75,-84.34 49.75,-84.34"/>
<polygon fill="#757575" stroke="#757575" points="53.25,-84.34 49.75,-74.34 46.25,-84.34 53.25,-84.34"/>
</g>
<!-- variables.ts&#45;&gt;error.ts -->
<g id="edge9" class="edge">
<title>variables.ts&#45;&gt;error.ts</title>
<path fill="none" stroke="#757575" d="M41.5,-164.71C41.5,-142.86 41.5,-92 41.5,-92 41.5,-92 63,-92 63,-92 63,-92 63,-29.29 63,-29.29"/>
<polygon fill="#757575" stroke="#757575" points="66.5,-29.29 63,-19.29 59.5,-29.29 66.5,-29.29"/>
</g>
<!-- variables.ts&#45;&gt;parser.ts -->
<g id="edge10" class="edge">
<title>variables.ts&#45;&gt;parser.ts</title>
<path fill="none" stroke="#757575" d="M73,-164.92C73,-164.92 73,-139.34 73,-139.34"/>
<polygon fill="#757575" stroke="#757575" points="76.5,-139.34 73,-129.34 69.5,-139.34 76.5,-139.34"/>
</g>
<!-- variables.ts&#45;&gt;result.ts -->
<g id="edge11" class="edge">
<title>variables.ts&#45;&gt;result.ts</title>
<path fill="none" stroke="#757575" d="M100.57,-171C108.82,-171 115.33,-171 115.33,-171 115.33,-171 115.33,-84.33 115.33,-84.33"/>
<polygon fill="#757575" stroke="#757575" points="118.83,-84.33 115.33,-74.33 111.83,-84.33 118.83,-84.33"/>
</g>
<!-- variables.ts&#45;&gt;types.ts -->
<g id="edge12" class="edge">
<title>variables.ts&#45;&gt;types.ts</title>
<path fill="none" stroke="#757575" d="M37.5,-164.74C37.5,-164.74 37.5,-84.08 37.5,-84.08"/>
<polygon fill="#757575" stroke="#757575" points="41,-84.08 37.5,-74.08 34,-84.08 41,-84.08"/>
</g>
<!-- types.ts&#45;&gt;error.ts -->
<g id="edge8" class="edge">
<title>types.ts&#45;&gt;error.ts</title>
<path fill="none" stroke="#757575" d="M40.5,-54.92C40.5,-54.92 40.5,-29.34 40.5,-29.34"/>
<polygon fill="#757575" stroke="#757575" points="44,-29.34 40.5,-19.34 37,-29.34 44,-29.34"/>
</g>
</g>
</svg>
