<?xml version="1.0" encoding="UTF-8" standalone="no"?>
<!DOCTYPE svg PUBLIC "-//W3C//DTD SVG 1.1//EN"
 "http://www.w3.org/Graphics/SVG/1.1/DTD/svg11.dtd">
<!-- Generated by graphviz version 2.43.0 (0)
 -->
<!-- Title: G Pages: 1 -->
<svg width="175pt" height="172pt"
 viewBox="0.00 0.00 175.20 172.20" xmlns="http://www.w3.org/2000/svg" xmlns:xlink="http://www.w3.org/1999/xlink">
<g id="graph0" class="graph" transform="scale(1 1) rotate(0) translate(21.6 150.6)">
<title>G</title>
<polygon fill="#111111" stroke="transparent" points="-21.6,21.6 -21.6,-150.6 153.6,-150.6 153.6,21.6 -21.6,21.6"/>
<!-- error.ts -->
<g id="node1" class="node">
<title>error.ts</title>
<path fill="none" stroke="#cfffac" d="M47.67,-129C47.67,-129 6.33,-129 6.33,-129 3.17,-129 0,-125.83 0,-122.67 0,-122.67 0,-116.33 0,-116.33 0,-113.17 3.17,-110 6.33,-110 6.33,-110 47.67,-110 47.67,-110 50.83,-110 54,-113.17 54,-116.33 54,-116.33 54,-122.67 54,-122.67 54,-125.83 50.83,-129 47.67,-129"/>
<text text-anchor="middle" x="27" y="-117" font-family="Arial" font-size="10.00" fill="#cfffac">error.ts</text>
</g>
<!-- intepret.ts -->
<g id="node2" class="node">
<title>intepret.ts</title>
<path fill="none" stroke="#c6c5fe" d="M125.67,-129C125.67,-129 78.33,-129 78.33,-129 75.17,-129 72,-125.83 72,-122.67 72,-122.67 72,-116.33 72,-116.33 72,-113.17 75.17,-110 78.33,-110 78.33,-110 125.67,-110 125.67,-110 128.83,-110 132,-113.17 132,-116.33 132,-116.33 132,-122.67 132,-122.67 132,-125.83 128.83,-129 125.67,-129"/>
<text text-anchor="middle" x="102" y="-117" font-family="Arial" font-size="10.00" fill="#c6c5fe">intepret.ts</text>
</g>
<!-- parser.ts -->
<g id="node3" class="node">
<title>parser.ts</title>
<path fill="none" stroke="#c6c5fe" d="M95.17,-74C95.17,-74 52.83,-74 52.83,-74 49.67,-74 46.5,-70.83 46.5,-67.67 46.5,-67.67 46.5,-61.33 46.5,-61.33 46.5,-58.17 49.67,-55 52.83,-55 52.83,-55 95.17,-55 95.17,-55 98.33,-55 101.5,-58.17 101.5,-61.33 101.5,-61.33 101.5,-67.67 101.5,-67.67 101.5,-70.83 98.33,-74 95.17,-74"/>
<text text-anchor="middle" x="74" y="-62" font-family="Arial" font-size="10.00" fill="#c6c5fe">parser.ts</text>
</g>
<!-- intepret.ts&#45;&gt;parser.ts -->
<g id="edge1" class="edge">
<title>intepret.ts&#45;&gt;parser.ts</title>
<path fill="none" stroke="#757575" d="M86.75,-109.92C86.75,-109.92 86.75,-84.34 86.75,-84.34"/>
<polygon fill="#757575" stroke="#757575" points="90.25,-84.34 86.75,-74.34 83.25,-84.34 90.25,-84.34"/>
</g>
<!-- result.ts -->
<g id="node4" class="node">
<title>result.ts</title>
<path fill="none" stroke="#cfffac" d="M122.67,-19C122.67,-19 81.33,-19 81.33,-19 78.17,-19 75,-15.83 75,-12.67 75,-12.67 75,-6.33 75,-6.33 75,-3.17 78.17,0 81.33,0 81.33,0 122.67,0 122.67,0 125.83,0 129,-3.17 129,-6.33 129,-6.33 129,-12.67 129,-12.67 129,-15.83 125.83,-19 122.67,-19"/>
<text text-anchor="middle" x="102" y="-7" font-family="Arial" font-size="10.00" fill="#cfffac">result.ts</text>
</g>
<!-- intepret.ts&#45;&gt;result.ts -->
<g id="edge2" class="edge">
<title>intepret.ts&#45;&gt;result.ts</title>
<path fill="none" stroke="#757575" d="M115.25,-109.74C115.25,-109.74 115.25,-29.08 115.25,-29.08"/>
<polygon fill="#757575" stroke="#757575" points="118.75,-29.08 115.25,-19.08 111.75,-29.08 118.75,-29.08"/>
</g>
<!-- parser.ts&#45;&gt;result.ts -->
<g id="edge3" class="edge">
<title>parser.ts&#45;&gt;result.ts</title>
<path fill="none" stroke="#757575" d="M88.25,-54.92C88.25,-54.92 88.25,-29.34 88.25,-29.34"/>
<polygon fill="#757575" stroke="#757575" points="91.75,-29.34 88.25,-19.34 84.75,-29.34 91.75,-29.34"/>
</g>
</g>
</svg>
