<?xml version="1.0" encoding="UTF-8" standalone="no"?>
<!DOCTYPE svg PUBLIC "-//W3C//DTD SVG 1.1//EN"
 "http://www.w3.org/Graphics/SVG/1.1/DTD/svg11.dtd">
<!-- Generated by graphviz version 2.43.0 (0)
 -->
<!-- Title: G Pages: 1 -->
<svg width="3077pt" height="833pt"
 viewBox="0.00 0.00 3077.20 833.20" xmlns="http://www.w3.org/2000/svg" xmlns:xlink="http://www.w3.org/1999/xlink">
<g id="graph0" class="graph" transform="scale(1 1) rotate(0) translate(21.6 811.6)">
<title>G</title>
<polygon fill="#111111" stroke="transparent" points="-21.6,21.6 -21.6,-811.6 3055.6,-811.6 3055.6,21.6 -21.6,21.6"/>
<!-- src/app.ts -->
<g id="node1" class="node">
<title>src/app.ts</title>
<path fill="none" stroke="#c6c5fe" d="M1113.33,-672C1113.33,-672 1053.67,-672 1053.67,-672 1049.83,-672 1046,-668.17 1046,-664.33 1046,-664.33 1046,-656.67 1046,-656.67 1046,-652.83 1049.83,-649 1053.67,-649 1053.67,-649 1113.33,-649 1113.33,-649 1117.17,-649 1121,-652.83 1121,-656.67 1121,-656.67 1121,-664.33 1121,-664.33 1121,-668.17 1117.17,-672 1113.33,-672"/>
<text text-anchor="middle" x="1083.5" y="-656.8" font-family="Arial" font-size="14.00" fill="#c6c5fe">src/app.ts</text>
</g>
<!-- src/expressions/binary&#45;operation.ts -->
<g id="node2" class="node">
<title>src/expressions/binary&#45;operation.ts</title>
<path fill="none" stroke="#c6c5fe" d="M501.83,-554C501.83,-554 291.17,-554 291.17,-554 287.33,-554 283.5,-550.17 283.5,-546.33 283.5,-546.33 283.5,-538.67 283.5,-538.67 283.5,-534.83 287.33,-531 291.17,-531 291.17,-531 501.83,-531 501.83,-531 505.67,-531 509.5,-534.83 509.5,-538.67 509.5,-538.67 509.5,-546.33 509.5,-546.33 509.5,-550.17 505.67,-554 501.83,-554"/>
<text text-anchor="middle" x="396.5" y="-538.8" font-family="Arial" font-size="14.00" fill="#c6c5fe">src/expressions/binary&#45;operation.ts</text>
</g>
<!-- src/app.ts&#45;&gt;src/expressions/binary&#45;operation.ts -->
<g id="edge1" class="edge">
<title>src/app.ts&#45;&gt;src/expressions/binary&#45;operation.ts</title>
<path fill="none" stroke="#757575" d="M1045.59,-668C910.76,-668 462.5,-668 462.5,-668 462.5,-668 462.5,-564.08 462.5,-564.08"/>
<polygon fill="#757575" stroke="#757575" points="466,-564.08 462.5,-554.08 459,-564.08 466,-564.08"/>
</g>
<!-- src/expressions/grouped&#45;expressions.ts -->
<g id="node3" class="node">
<title>src/expressions/grouped&#45;expressions.ts</title>
<path fill="none" stroke="#c6c5fe" d="M1140.83,-436C1140.83,-436 902.17,-436 902.17,-436 898.33,-436 894.5,-432.17 894.5,-428.33 894.5,-428.33 894.5,-420.67 894.5,-420.67 894.5,-416.83 898.33,-413 902.17,-413 902.17,-413 1140.83,-413 1140.83,-413 1144.67,-413 1148.5,-416.83 1148.5,-420.67 1148.5,-420.67 1148.5,-428.33 1148.5,-428.33 1148.5,-432.17 1144.67,-436 1140.83,-436"/>
<text text-anchor="middle" x="1021.5" y="-420.8" font-family="Arial" font-size="14.00" fill="#c6c5fe">src/expressions/grouped&#45;expressions.ts</text>
</g>
<!-- src/app.ts&#45;&gt;src/expressions/grouped&#45;expressions.ts -->
<g id="edge2" class="edge">
<title>src/app.ts&#45;&gt;src/expressions/grouped&#45;expressions.ts</title>
<path fill="none" stroke="#757575" d="M1083.5,-648.8C1083.5,-648.8 1083.5,-446.27 1083.5,-446.27"/>
<polygon fill="#757575" stroke="#757575" points="1087,-446.27 1083.5,-436.27 1080,-446.27 1087,-446.27"/>
</g>
<!-- src/expressions/handlers.ts -->
<g id="node4" class="node">
<title>src/expressions/handlers.ts</title>
<path fill="none" stroke="#c6c5fe" d="M1527.83,-259C1527.83,-259 1363.17,-259 1363.17,-259 1359.33,-259 1355.5,-255.17 1355.5,-251.33 1355.5,-251.33 1355.5,-243.67 1355.5,-243.67 1355.5,-239.83 1359.33,-236 1363.17,-236 1363.17,-236 1527.83,-236 1527.83,-236 1531.67,-236 1535.5,-239.83 1535.5,-243.67 1535.5,-243.67 1535.5,-251.33 1535.5,-251.33 1535.5,-255.17 1531.67,-259 1527.83,-259"/>
<text text-anchor="middle" x="1445.5" y="-243.8" font-family="Arial" font-size="14.00" fill="#c6c5fe">src/expressions/handlers.ts</text>
</g>
<!-- src/app.ts&#45;&gt;src/expressions/handlers.ts -->
<g id="edge3" class="edge">
<title>src/app.ts&#45;&gt;src/expressions/handlers.ts</title>
<path fill="none" stroke="#757575" d="M1121.02,-659C1217.64,-659 1467.5,-659 1467.5,-659 1467.5,-659 1467.5,-269.37 1467.5,-269.37"/>
<polygon fill="#757575" stroke="#757575" points="1471,-269.37 1467.5,-259.37 1464,-269.37 1471,-269.37"/>
</g>
<!-- src/handlers/dereference&#45;assignment.ts -->
<g id="node5" class="node">
<title>src/handlers/dereference&#45;assignment.ts</title>
<path fill="none" stroke="#c6c5fe" d="M1414.83,-495C1414.83,-495 1176.17,-495 1176.17,-495 1172.33,-495 1168.5,-491.17 1168.5,-487.33 1168.5,-487.33 1168.5,-479.67 1168.5,-479.67 1168.5,-475.83 1172.33,-472 1176.17,-472 1176.17,-472 1414.83,-472 1414.83,-472 1418.67,-472 1422.5,-475.83 1422.5,-479.67 1422.5,-479.67 1422.5,-487.33 1422.5,-487.33 1422.5,-491.17 1418.67,-495 1414.83,-495"/>
<text text-anchor="middle" x="1295.5" y="-479.8" font-family="Arial" font-size="14.00" fill="#c6c5fe">src/handlers/dereference&#45;assignment.ts</text>
</g>
<!-- src/app.ts&#45;&gt;src/handlers/dereference&#45;assignment.ts -->
<g id="edge4" class="edge">
<title>src/app.ts&#45;&gt;src/handlers/dereference&#45;assignment.ts</title>
<path fill="none" stroke="#757575" d="M1121.12,-657C1146.73,-657 1176,-657 1176,-657 1176,-657 1176,-505.15 1176,-505.15"/>
<polygon fill="#757575" stroke="#757575" points="1179.5,-505.15 1176,-495.15 1172.5,-505.15 1179.5,-505.15"/>
</g>
<!-- src/handlers/lambda&#45;expressions.ts -->
<g id="node6" class="node">
<title>src/handlers/lambda&#45;expressions.ts</title>
<path fill="none" stroke="#c6c5fe" d="M2700.83,-495C2700.83,-495 2486.17,-495 2486.17,-495 2482.33,-495 2478.5,-491.17 2478.5,-487.33 2478.5,-487.33 2478.5,-479.67 2478.5,-479.67 2478.5,-475.83 2482.33,-472 2486.17,-472 2486.17,-472 2700.83,-472 2700.83,-472 2704.67,-472 2708.5,-475.83 2708.5,-479.67 2708.5,-479.67 2708.5,-487.33 2708.5,-487.33 2708.5,-491.17 2704.67,-495 2700.83,-495"/>
<text text-anchor="middle" x="2593.5" y="-479.8" font-family="Arial" font-size="14.00" fill="#c6c5fe">src/handlers/lambda&#45;expressions.ts</text>
</g>
<!-- src/app.ts&#45;&gt;src/handlers/lambda&#45;expressions.ts -->
<g id="edge5" class="edge">
<title>src/app.ts&#45;&gt;src/handlers/lambda&#45;expressions.ts</title>
<path fill="none" stroke="#757575" d="M1121.36,-667C1351.71,-667 2555.17,-667 2555.17,-667 2555.17,-667 2555.17,-505.26 2555.17,-505.26"/>
<polygon fill="#757575" stroke="#757575" points="2558.67,-505.26 2555.17,-495.26 2551.67,-505.26 2558.67,-505.26"/>
</g>
<!-- src/handlers/module&#45;access.ts -->
<g id="node7" class="node">
<title>src/handlers/module&#45;access.ts</title>
<path fill="none" stroke="#c6c5fe" d="M2058.83,-495C2058.83,-495 1874.17,-495 1874.17,-495 1870.33,-495 1866.5,-491.17 1866.5,-487.33 1866.5,-487.33 1866.5,-479.67 1866.5,-479.67 1866.5,-475.83 1870.33,-472 1874.17,-472 1874.17,-472 2058.83,-472 2058.83,-472 2062.67,-472 2066.5,-475.83 2066.5,-479.67 2066.5,-479.67 2066.5,-487.33 2066.5,-487.33 2066.5,-491.17 2062.67,-495 2058.83,-495"/>
<text text-anchor="middle" x="1966.5" y="-479.8" font-family="Arial" font-size="14.00" fill="#c6c5fe">src/handlers/module&#45;access.ts</text>
</g>
<!-- src/app.ts&#45;&gt;src/handlers/module&#45;access.ts -->
<g id="edge6" class="edge">
<title>src/app.ts&#45;&gt;src/handlers/module&#45;access.ts</title>
<path fill="none" stroke="#757575" d="M1121.01,-663C1277.76,-663 1872.25,-663 1872.25,-663 1872.25,-663 1872.25,-505 1872.25,-505"/>
<polygon fill="#757575" stroke="#757575" points="1875.75,-505 1872.25,-495 1868.75,-505 1875.75,-505"/>
</g>
<!-- src/handlers/pointer&#45;operations.ts -->
<g id="node8" class="node">
<title>src/handlers/pointer&#45;operations.ts</title>
<path fill="none" stroke="#c6c5fe" d="M1376.33,-436C1376.33,-436 1174.67,-436 1174.67,-436 1170.83,-436 1167,-432.17 1167,-428.33 1167,-428.33 1167,-420.67 1167,-420.67 1167,-416.83 1170.83,-413 1174.67,-413 1174.67,-413 1376.33,-413 1376.33,-413 1380.17,-413 1384,-416.83 1384,-420.67 1384,-420.67 1384,-428.33 1384,-428.33 1384,-432.17 1380.17,-436 1376.33,-436"/>
<text text-anchor="middle" x="1275.5" y="-420.8" font-family="Arial" font-size="14.00" fill="#c6c5fe">src/handlers/pointer&#45;operations.ts</text>
</g>
<!-- src/app.ts&#45;&gt;src/handlers/pointer&#45;operations.ts -->
<g id="edge7" class="edge">
<title>src/app.ts&#45;&gt;src/handlers/pointer&#45;operations.ts</title>
<path fill="none" stroke="#757575" d="M1121.35,-655C1142.21,-655 1163.92,-655 1163.92,-655 1163.92,-655 1163.92,-428 1163.92,-428 1163.92,-428 1164.19,-428 1164.19,-428"/>
<polygon fill="#757575" stroke="#757575" points="1156.68,-431.5 1166.67,-428 1156.67,-424.5 1156.68,-431.5"/>
</g>
<!-- src/loops/for.ts -->
<g id="node9" class="node">
<title>src/loops/for.ts</title>
<path fill="none" stroke="#c6c5fe" d="M1009.83,-613C1009.83,-613 921.17,-613 921.17,-613 917.33,-613 913.5,-609.17 913.5,-605.33 913.5,-605.33 913.5,-597.67 913.5,-597.67 913.5,-593.83 917.33,-590 921.17,-590 921.17,-590 1009.83,-590 1009.83,-590 1013.67,-590 1017.5,-593.83 1017.5,-597.67 1017.5,-597.67 1017.5,-605.33 1017.5,-605.33 1017.5,-609.17 1013.67,-613 1009.83,-613"/>
<text text-anchor="middle" x="965.5" y="-597.8" font-family="Arial" font-size="14.00" fill="#c6c5fe">src/loops/for.ts</text>
</g>
<!-- src/app.ts&#45;&gt;src/loops/for.ts -->
<g id="edge8" class="edge">
<title>src/app.ts&#45;&gt;src/loops/for.ts</title>
<path fill="none" stroke="#757575" d="M1045.89,-652C1023.92,-652 1000.5,-652 1000.5,-652 1000.5,-652 1000.5,-623.21 1000.5,-623.21"/>
<polygon fill="#757575" stroke="#757575" points="1004,-623.21 1000.5,-613.21 997,-623.21 1004,-623.21"/>
</g>
<!-- src/loops/loop.ts -->
<g id="node10" class="node">
<title>src/loops/loop.ts</title>
<path fill="none" stroke="#cfffac" d="M737.83,-554C737.83,-554 639.17,-554 639.17,-554 635.33,-554 631.5,-550.17 631.5,-546.33 631.5,-546.33 631.5,-538.67 631.5,-538.67 631.5,-534.83 635.33,-531 639.17,-531 639.17,-531 737.83,-531 737.83,-531 741.67,-531 745.5,-534.83 745.5,-538.67 745.5,-538.67 745.5,-546.33 745.5,-546.33 745.5,-550.17 741.67,-554 737.83,-554"/>
<text text-anchor="middle" x="688.5" y="-538.8" font-family="Arial" font-size="14.00" fill="#cfffac">src/loops/loop.ts</text>
</g>
<!-- src/app.ts&#45;&gt;src/loops/loop.ts -->
<g id="edge9" class="edge">
<title>src/app.ts&#45;&gt;src/loops/loop.ts</title>
<path fill="none" stroke="#757575" d="M1045.87,-664C956.32,-664 738,-664 738,-664 738,-664 738,-564.15 738,-564.15"/>
<polygon fill="#757575" stroke="#757575" points="741.5,-564.15 738,-554.15 734.5,-564.15 741.5,-564.15"/>
</g>
<!-- src/loops/while.ts -->
<g id="node11" class="node">
<title>src/loops/while.ts</title>
<path fill="none" stroke="#c6c5fe" d="M880.33,-613C880.33,-613 776.67,-613 776.67,-613 772.83,-613 769,-609.17 769,-605.33 769,-605.33 769,-597.67 769,-597.67 769,-593.83 772.83,-590 776.67,-590 776.67,-590 880.33,-590 880.33,-590 884.17,-590 888,-593.83 888,-597.67 888,-597.67 888,-605.33 888,-605.33 888,-609.17 884.17,-613 880.33,-613"/>
<text text-anchor="middle" x="828.5" y="-597.8" font-family="Arial" font-size="14.00" fill="#c6c5fe">src/loops/while.ts</text>
</g>
<!-- src/app.ts&#45;&gt;src/loops/while.ts -->
<g id="edge10" class="edge">
<title>src/app.ts&#45;&gt;src/loops/while.ts</title>
<path fill="none" stroke="#757575" d="M1045.87,-656C974.94,-656 828.5,-656 828.5,-656 828.5,-656 828.5,-623.06 828.5,-623.06"/>
<polygon fill="#757575" stroke="#757575" points="832,-623.06 828.5,-613.06 825,-623.06 832,-623.06"/>
</g>
<!-- src/match.ts -->
<g id="node12" class="node">
<title>src/match.ts</title>
<path fill="none" stroke="#cfffac" d="M963.83,-377C963.83,-377 889.17,-377 889.17,-377 885.33,-377 881.5,-373.17 881.5,-369.33 881.5,-369.33 881.5,-361.67 881.5,-361.67 881.5,-357.83 885.33,-354 889.17,-354 889.17,-354 963.83,-354 963.83,-354 967.67,-354 971.5,-357.83 971.5,-361.67 971.5,-361.67 971.5,-369.33 971.5,-369.33 971.5,-373.17 967.67,-377 963.83,-377"/>
<text text-anchor="middle" x="926.5" y="-361.8" font-family="Arial" font-size="14.00" fill="#cfffac">src/match.ts</text>
</g>
<!-- src/app.ts&#45;&gt;src/match.ts -->
<g id="edge11" class="edge">
<title>src/app.ts&#45;&gt;src/match.ts</title>
<path fill="none" stroke="#757575" d="M1121.06,-651C1139.48,-651 1157.75,-651 1157.75,-651 1157.75,-651 1157.75,-369 1157.75,-369 1157.75,-369 981.64,-369 981.64,-369"/>
<polygon fill="#757575" stroke="#757575" points="981.64,-365.5 971.64,-369 981.64,-372.5 981.64,-365.5"/>
</g>
<!-- src/parser.ts -->
<g id="node13" class="node">
<title>src/parser.ts</title>
<path fill="none" stroke="#c6c5fe" d="M640.83,-141C640.83,-141 566.17,-141 566.17,-141 562.33,-141 558.5,-137.17 558.5,-133.33 558.5,-133.33 558.5,-125.67 558.5,-125.67 558.5,-121.83 562.33,-118 566.17,-118 566.17,-118 640.83,-118 640.83,-118 644.67,-118 648.5,-121.83 648.5,-125.67 648.5,-125.67 648.5,-133.33 648.5,-133.33 648.5,-137.17 644.67,-141 640.83,-141"/>
<text text-anchor="middle" x="603.5" y="-125.8" font-family="Arial" font-size="14.00" fill="#c6c5fe">src/parser.ts</text>
</g>
<!-- src/app.ts&#45;&gt;src/parser.ts -->
<g id="edge12" class="edge">
<title>src/app.ts&#45;&gt;src/parser.ts</title>
<path fill="none" stroke="#757575" d="M1045.93,-660C960.45,-660 758.75,-660 758.75,-660 758.75,-660 758.75,-129 758.75,-129 758.75,-129 658.82,-129 658.82,-129"/>
<polygon fill="#757575" stroke="#757575" points="658.82,-125.5 648.82,-129 658.82,-132.5 658.82,-125.5"/>
</g>
<!-- src/scope.ts -->
<g id="node14" class="node">
<title>src/scope.ts</title>
<path fill="none" stroke="#c6c5fe" d="M3026.33,-554C3026.33,-554 2952.67,-554 2952.67,-554 2948.83,-554 2945,-550.17 2945,-546.33 2945,-546.33 2945,-538.67 2945,-538.67 2945,-534.83 2948.83,-531 2952.67,-531 2952.67,-531 3026.33,-531 3026.33,-531 3030.17,-531 3034,-534.83 3034,-538.67 3034,-538.67 3034,-546.33 3034,-546.33 3034,-550.17 3030.17,-554 3026.33,-554"/>
<text text-anchor="middle" x="2989.5" y="-538.8" font-family="Arial" font-size="14.00" fill="#c6c5fe">src/scope.ts</text>
</g>
<!-- src/app.ts&#45;&gt;src/scope.ts -->
<g id="edge13" class="edge">
<title>src/app.ts&#45;&gt;src/scope.ts</title>
<path fill="none" stroke="#757575" d="M1121.14,-669C1388.5,-669 2989.5,-669 2989.5,-669 2989.5,-669 2989.5,-564.17 2989.5,-564.17"/>
<polygon fill="#757575" stroke="#757575" points="2993,-564.17 2989.5,-554.17 2986,-564.17 2993,-564.17"/>
</g>
<!-- src/utils/app&#45;handlers.ts -->
<g id="node15" class="node">
<title>src/utils/app&#45;handlers.ts</title>
<path fill="none" stroke="#c6c5fe" d="M1775.33,-613C1775.33,-613 1631.67,-613 1631.67,-613 1627.83,-613 1624,-609.17 1624,-605.33 1624,-605.33 1624,-597.67 1624,-597.67 1624,-593.83 1627.83,-590 1631.67,-590 1631.67,-590 1775.33,-590 1775.33,-590 1779.17,-590 1783,-593.83 1783,-597.67 1783,-597.67 1783,-605.33 1783,-605.33 1783,-609.17 1779.17,-613 1775.33,-613"/>
<text text-anchor="middle" x="1703.5" y="-597.8" font-family="Arial" font-size="14.00" fill="#c6c5fe">src/utils/app&#45;handlers.ts</text>
</g>
<!-- src/app.ts&#45;&gt;src/utils/app&#45;handlers.ts -->
<g id="edge14" class="edge">
<title>src/app.ts&#45;&gt;src/utils/app&#45;handlers.ts</title>
<path fill="none" stroke="#757575" d="M1121.2,-661C1247.04,-661 1644.75,-661 1644.75,-661 1644.75,-661 1644.75,-623.26 1644.75,-623.26"/>
<polygon fill="#757575" stroke="#757575" points="1648.25,-623.26 1644.75,-613.26 1641.25,-623.26 1648.25,-623.26"/>
</g>
<!-- src/utils/array.ts -->
<g id="node16" class="node">
<title>src/utils/array.ts</title>
<path fill="none" stroke="#c6c5fe" d="M1303.83,-82C1303.83,-82 1209.17,-82 1209.17,-82 1205.33,-82 1201.5,-78.17 1201.5,-74.33 1201.5,-74.33 1201.5,-66.67 1201.5,-66.67 1201.5,-62.83 1205.33,-59 1209.17,-59 1209.17,-59 1303.83,-59 1303.83,-59 1307.67,-59 1311.5,-62.83 1311.5,-66.67 1311.5,-66.67 1311.5,-74.33 1311.5,-74.33 1311.5,-78.17 1307.67,-82 1303.83,-82"/>
<text text-anchor="middle" x="1256.5" y="-66.8" font-family="Arial" font-size="14.00" fill="#c6c5fe">src/utils/array.ts</text>
</g>
<!-- src/app.ts&#45;&gt;src/utils/array.ts -->
<g id="edge15" class="edge">
<title>src/app.ts&#45;&gt;src/utils/array.ts</title>
<path fill="none" stroke="#757575" d="M1121.26,-653C1140.89,-653 1160.83,-653 1160.83,-653 1160.83,-653 1160.83,-76 1160.83,-76 1160.83,-76 1191.4,-76 1191.4,-76"/>
<polygon fill="#757575" stroke="#757575" points="1191.4,-79.5 1201.4,-76 1191.4,-72.5 1191.4,-79.5"/>
</g>
<!-- src/utils/this&#45;keyword.ts -->
<g id="node17" class="node">
<title>src/utils/this&#45;keyword.ts</title>
<path fill="none" stroke="#c6c5fe" d="M2303.83,-495C2303.83,-495 2163.17,-495 2163.17,-495 2159.33,-495 2155.5,-491.17 2155.5,-487.33 2155.5,-487.33 2155.5,-479.67 2155.5,-479.67 2155.5,-475.83 2159.33,-472 2163.17,-472 2163.17,-472 2303.83,-472 2303.83,-472 2307.67,-472 2311.5,-475.83 2311.5,-479.67 2311.5,-479.67 2311.5,-487.33 2311.5,-487.33 2311.5,-491.17 2307.67,-495 2303.83,-495"/>
<text text-anchor="middle" x="2233.5" y="-479.8" font-family="Arial" font-size="14.00" fill="#c6c5fe">src/utils/this&#45;keyword.ts</text>
</g>
<!-- src/app.ts&#45;&gt;src/utils/this&#45;keyword.ts -->
<g id="edge16" class="edge">
<title>src/app.ts&#45;&gt;src/utils/this&#45;keyword.ts</title>
<path fill="none" stroke="#757575" d="M1121.32,-665C1317.53,-665 2210.5,-665 2210.5,-665 2210.5,-665 2210.5,-505.13 2210.5,-505.13"/>
<polygon fill="#757575" stroke="#757575" points="2214,-505.13 2210.5,-495.13 2207,-505.13 2214,-505.13"/>
</g>
<!-- src/expressions/binary&#45;operation.ts&#45;&gt;src/expressions/handlers.ts -->
<g id="edge18" class="edge">
<title>src/expressions/binary&#45;operation.ts&#45;&gt;src/expressions/handlers.ts</title>
<path fill="none" stroke="#757575" d="M499.5,-530.84C499.5,-522.6 499.5,-513 499.5,-513 499.5,-513 1465.5,-513 1465.5,-513 1465.5,-513 1465.5,-269.25 1465.5,-269.25"/>
<polygon fill="#757575" stroke="#757575" points="1469,-269.25 1465.5,-259.25 1462,-269.25 1469,-269.25"/>
</g>
<!-- src/expressions/binary&#45;operation.ts&#45;&gt;src/parser.ts -->
<g id="edge20" class="edge">
<title>src/expressions/binary&#45;operation.ts&#45;&gt;src/parser.ts</title>
<path fill="none" stroke="#757575" d="M485.5,-530.67C485.5,-496.16 485.5,-398 485.5,-398 485.5,-398 582.12,-398 582.12,-398 582.12,-398 582.12,-151.04 582.12,-151.04"/>
<polygon fill="#757575" stroke="#757575" points="585.63,-151.04 582.12,-141.04 578.63,-151.04 585.63,-151.04"/>
</g>
<!-- src/expressions/operators.ts -->
<g id="node19" class="node">
<title>src/expressions/operators.ts</title>
<path fill="none" stroke="#c6c5fe" d="M467.33,-495C467.33,-495 297.67,-495 297.67,-495 293.83,-495 290,-491.17 290,-487.33 290,-487.33 290,-479.67 290,-479.67 290,-475.83 293.83,-472 297.67,-472 297.67,-472 467.33,-472 467.33,-472 471.17,-472 475,-475.83 475,-479.67 475,-479.67 475,-487.33 475,-487.33 475,-491.17 471.17,-495 467.33,-495"/>
<text text-anchor="middle" x="382.5" y="-479.8" font-family="Arial" font-size="14.00" fill="#c6c5fe">src/expressions/operators.ts</text>
</g>
<!-- src/expressions/binary&#45;operation.ts&#45;&gt;src/expressions/operators.ts -->
<g id="edge19" class="edge">
<title>src/expressions/binary&#45;operation.ts&#45;&gt;src/expressions/operators.ts</title>
<path fill="none" stroke="#757575" d="M382.5,-530.84C382.5,-530.84 382.5,-505.13 382.5,-505.13"/>
<polygon fill="#757575" stroke="#757575" points="386,-505.13 382.5,-495.13 379,-505.13 386,-505.13"/>
</g>
<!-- src/expressions/grouped&#45;expressions.ts&#45;&gt;src/expressions/handlers.ts -->
<g id="edge21" class="edge">
<title>src/expressions/grouped&#45;expressions.ts&#45;&gt;src/expressions/handlers.ts</title>
<path fill="none" stroke="#757575" d="M1077.7,-412.98C1077.7,-374.53 1077.7,-253 1077.7,-253 1077.7,-253 1345.05,-253 1345.05,-253"/>
<polygon fill="#757575" stroke="#757575" points="1345.05,-256.5 1355.05,-253 1345.05,-249.5 1345.05,-256.5"/>
</g>
<!-- src/expressions/grouped&#45;expressions.ts&#45;&gt;src/match.ts -->
<g id="edge22" class="edge">
<title>src/expressions/grouped&#45;expressions.ts&#45;&gt;src/match.ts</title>
<path fill="none" stroke="#757575" d="M933,-412.84C933,-412.84 933,-387.13 933,-387.13"/>
<polygon fill="#757575" stroke="#757575" points="936.5,-387.13 933,-377.13 929.5,-387.13 936.5,-387.13"/>
</g>
<!-- src/expressions/grouped&#45;expressions.ts&#45;&gt;src/utils/array.ts -->
<g id="edge24" class="edge">
<title>src/expressions/grouped&#45;expressions.ts&#45;&gt;src/utils/array.ts</title>
<path fill="none" stroke="#757575" d="M1042.3,-412.71C1042.3,-351.19 1042.3,-70 1042.3,-70 1042.3,-70 1191.34,-70 1191.34,-70"/>
<polygon fill="#757575" stroke="#757575" points="1191.34,-73.5 1201.34,-70 1191.34,-66.5 1191.34,-73.5"/>
</g>
<!-- src/types/structs.ts -->
<g id="node20" class="node">
<title>src/types/structs.ts</title>
<path fill="none" stroke="#c6c5fe" d="M1453.83,-377C1453.83,-377 1341.17,-377 1341.17,-377 1337.33,-377 1333.5,-373.17 1333.5,-369.33 1333.5,-369.33 1333.5,-361.67 1333.5,-361.67 1333.5,-357.83 1337.33,-354 1341.17,-354 1341.17,-354 1453.83,-354 1453.83,-354 1457.67,-354 1461.5,-357.83 1461.5,-361.67 1461.5,-361.67 1461.5,-369.33 1461.5,-369.33 1461.5,-373.17 1457.67,-377 1453.83,-377"/>
<text text-anchor="middle" x="1397.5" y="-361.8" font-family="Arial" font-size="14.00" fill="#c6c5fe">src/types/structs.ts</text>
</g>
<!-- src/expressions/grouped&#45;expressions.ts&#45;&gt;src/types/structs.ts -->
<g id="edge23" class="edge">
<title>src/expressions/grouped&#45;expressions.ts&#45;&gt;src/types/structs.ts</title>
<path fill="none" stroke="#757575" d="M1113.1,-412.85C1113.1,-394.52 1113.1,-361 1113.1,-361 1113.1,-361 1323.32,-361 1323.32,-361"/>
<polygon fill="#757575" stroke="#757575" points="1323.32,-364.5 1333.32,-361 1323.32,-357.5 1323.32,-364.5"/>
</g>
<!-- src/utils/identifier&#45;utils.ts -->
<g id="node21" class="node">
<title>src/utils/identifier&#45;utils.ts</title>
<path fill="none" stroke="#cfffac" d="M1909.83,-318C1909.83,-318 1765.17,-318 1765.17,-318 1761.33,-318 1757.5,-314.17 1757.5,-310.33 1757.5,-310.33 1757.5,-302.67 1757.5,-302.67 1757.5,-298.83 1761.33,-295 1765.17,-295 1765.17,-295 1909.83,-295 1909.83,-295 1913.67,-295 1917.5,-298.83 1917.5,-302.67 1917.5,-302.67 1917.5,-310.33 1917.5,-310.33 1917.5,-314.17 1913.67,-318 1909.83,-318"/>
<text text-anchor="middle" x="1837.5" y="-302.8" font-family="Arial" font-size="14.00" fill="#cfffac">src/utils/identifier&#45;utils.ts</text>
</g>
<!-- src/expressions/grouped&#45;expressions.ts&#45;&gt;src/utils/identifier&#45;utils.ts -->
<g id="edge25" class="edge">
<title>src/expressions/grouped&#45;expressions.ts&#45;&gt;src/utils/identifier&#45;utils.ts</title>
<path fill="none" stroke="#757575" d="M1006.9,-412.78C1006.9,-403.12 1006.9,-391 1006.9,-391 1006.9,-391 1770.3,-391 1770.3,-391 1770.3,-391 1770.3,-328.25 1770.3,-328.25"/>
<polygon fill="#757575" stroke="#757575" points="1773.8,-328.25 1770.3,-318.25 1766.8,-328.25 1773.8,-328.25"/>
</g>
<!-- src/handlers/assignment.ts -->
<g id="node22" class="node">
<title>src/handlers/assignment.ts</title>
<path fill="none" stroke="#c6c5fe" d="M1526.83,-200C1526.83,-200 1364.17,-200 1364.17,-200 1360.33,-200 1356.5,-196.17 1356.5,-192.33 1356.5,-192.33 1356.5,-184.67 1356.5,-184.67 1356.5,-180.83 1360.33,-177 1364.17,-177 1364.17,-177 1526.83,-177 1526.83,-177 1530.67,-177 1534.5,-180.83 1534.5,-184.67 1534.5,-184.67 1534.5,-192.33 1534.5,-192.33 1534.5,-196.17 1530.67,-200 1526.83,-200"/>
<text text-anchor="middle" x="1445.5" y="-184.8" font-family="Arial" font-size="14.00" fill="#c6c5fe">src/handlers/assignment.ts</text>
</g>
<!-- src/expressions/handlers.ts&#45;&gt;src/handlers/assignment.ts -->
<g id="edge26" class="edge">
<title>src/expressions/handlers.ts&#45;&gt;src/handlers/assignment.ts</title>
<path fill="none" stroke="#757575" d="M1445.5,-235.84C1445.5,-235.84 1445.5,-210.13 1445.5,-210.13"/>
<polygon fill="#757575" stroke="#757575" points="1449,-210.13 1445.5,-200.13 1442,-210.13 1449,-210.13"/>
</g>
<!-- src/types/interpreter.ts -->
<g id="node23" class="node">
<title>src/types/interpreter.ts</title>
<path fill="none" stroke="#cfffac" d="M1399.33,-141C1399.33,-141 1265.67,-141 1265.67,-141 1261.83,-141 1258,-137.17 1258,-133.33 1258,-133.33 1258,-125.67 1258,-125.67 1258,-121.83 1261.83,-118 1265.67,-118 1265.67,-118 1399.33,-118 1399.33,-118 1403.17,-118 1407,-121.83 1407,-125.67 1407,-125.67 1407,-133.33 1407,-133.33 1407,-137.17 1403.17,-141 1399.33,-141"/>
<text text-anchor="middle" x="1332.5" y="-125.8" font-family="Arial" font-size="14.00" fill="#cfffac">src/types/interpreter.ts</text>
</g>
<!-- src/expressions/handlers.ts&#45;&gt;src/types/interpreter.ts -->
<g id="edge27" class="edge">
<title>src/expressions/handlers.ts&#45;&gt;src/types/interpreter.ts</title>
<path fill="none" stroke="#757575" d="M1355.28,-241C1328.78,-241 1306.75,-241 1306.75,-241 1306.75,-241 1306.75,-151.01 1306.75,-151.01"/>
<polygon fill="#757575" stroke="#757575" points="1310.25,-151.01 1306.75,-141.01 1303.25,-151.01 1310.25,-151.01"/>
</g>
<!-- src/utils/scope&#45;helpers.ts -->
<g id="node24" class="node">
<title>src/utils/scope&#45;helpers.ts</title>
<path fill="none" stroke="#c6c5fe" d="M2477.33,-200C2477.33,-200 2327.67,-200 2327.67,-200 2323.83,-200 2320,-196.17 2320,-192.33 2320,-192.33 2320,-184.67 2320,-184.67 2320,-180.83 2323.83,-177 2327.67,-177 2327.67,-177 2477.33,-177 2477.33,-177 2481.17,-177 2485,-180.83 2485,-184.67 2485,-184.67 2485,-192.33 2485,-192.33 2485,-196.17 2481.17,-200 2477.33,-200"/>
<text text-anchor="middle" x="2402.5" y="-184.8" font-family="Arial" font-size="14.00" fill="#c6c5fe">src/utils/scope&#45;helpers.ts</text>
</g>
<!-- src/expressions/handlers.ts&#45;&gt;src/utils/scope&#45;helpers.ts -->
<g id="edge28" class="edge">
<title>src/expressions/handlers.ts&#45;&gt;src/utils/scope&#45;helpers.ts</title>
<path fill="none" stroke="#757575" d="M1535.53,-240C1761.29,-240 2333.5,-240 2333.5,-240 2333.5,-240 2333.5,-210.19 2333.5,-210.19"/>
<polygon fill="#757575" stroke="#757575" points="2337,-210.19 2333.5,-200.19 2330,-210.19 2337,-210.19"/>
</g>
<!-- src/handlers/dereference&#45;assignment.ts&#45;&gt;src/expressions/handlers.ts -->
<g id="edge52" class="edge">
<title>src/handlers/dereference&#45;assignment.ts&#45;&gt;src/expressions/handlers.ts</title>
<path fill="none" stroke="#757575" d="M1422.83,-479C1446.26,-479 1463.5,-479 1463.5,-479 1463.5,-479 1463.5,-269.3 1463.5,-269.3"/>
<polygon fill="#757575" stroke="#757575" points="1467,-269.3 1463.5,-259.3 1460,-269.3 1467,-269.3"/>
</g>
<!-- src/handlers/dereference&#45;assignment.ts&#45;&gt;src/handlers/pointer&#45;operations.ts -->
<g id="edge53" class="edge">
<title>src/handlers/dereference&#45;assignment.ts&#45;&gt;src/handlers/pointer&#45;operations.ts</title>
<path fill="none" stroke="#757575" d="M1276.25,-471.84C1276.25,-471.84 1276.25,-446.13 1276.25,-446.13"/>
<polygon fill="#757575" stroke="#757575" points="1279.75,-446.13 1276.25,-436.13 1272.75,-446.13 1279.75,-446.13"/>
</g>
<!-- src/functions.ts -->
<g id="node31" class="node">
<title>src/functions.ts</title>
<path fill="none" stroke="#c6c5fe" d="M2552.33,-436C2552.33,-436 2460.67,-436 2460.67,-436 2456.83,-436 2453,-432.17 2453,-428.33 2453,-428.33 2453,-420.67 2453,-420.67 2453,-416.83 2456.83,-413 2460.67,-413 2460.67,-413 2552.33,-413 2552.33,-413 2556.17,-413 2560,-416.83 2560,-420.67 2560,-420.67 2560,-428.33 2560,-428.33 2560,-432.17 2556.17,-436 2552.33,-436"/>
<text text-anchor="middle" x="2506.5" y="-420.8" font-family="Arial" font-size="14.00" fill="#c6c5fe">src/functions.ts</text>
</g>
<!-- src/handlers/lambda&#45;expressions.ts&#45;&gt;src/functions.ts -->
<g id="edge59" class="edge">
<title>src/handlers/lambda&#45;expressions.ts&#45;&gt;src/functions.ts</title>
<path fill="none" stroke="#757575" d="M2519.25,-471.84C2519.25,-471.84 2519.25,-446.13 2519.25,-446.13"/>
<polygon fill="#757575" stroke="#757575" points="2522.75,-446.13 2519.25,-436.13 2515.75,-446.13 2522.75,-446.13"/>
</g>
<!-- src/handlers/anonymous&#45;functions.ts -->
<g id="node32" class="node">
<title>src/handlers/anonymous&#45;functions.ts</title>
<path fill="none" stroke="#c6c5fe" d="M2953.33,-377C2953.33,-377 2731.67,-377 2731.67,-377 2727.83,-377 2724,-373.17 2724,-369.33 2724,-369.33 2724,-361.67 2724,-361.67 2724,-357.83 2727.83,-354 2731.67,-354 2731.67,-354 2953.33,-354 2953.33,-354 2957.17,-354 2961,-357.83 2961,-361.67 2961,-361.67 2961,-369.33 2961,-369.33 2961,-373.17 2957.17,-377 2953.33,-377"/>
<text text-anchor="middle" x="2842.5" y="-361.8" font-family="Arial" font-size="14.00" fill="#c6c5fe">src/handlers/anonymous&#45;functions.ts</text>
</g>
<!-- src/handlers/lambda&#45;expressions.ts&#45;&gt;src/handlers/anonymous&#45;functions.ts -->
<g id="edge60" class="edge">
<title>src/handlers/lambda&#45;expressions.ts&#45;&gt;src/handlers/anonymous&#45;functions.ts</title>
<path fill="none" stroke="#757575" d="M2694.83,-471.7C2694.83,-441.73 2694.83,-365 2694.83,-365 2694.83,-365 2713.66,-365 2713.66,-365"/>
<polygon fill="#757575" stroke="#757575" points="2713.66,-368.5 2723.66,-365 2713.66,-361.5 2713.66,-368.5"/>
</g>
<!-- src/handlers/module&#45;access.ts&#45;&gt;src/expressions/handlers.ts -->
<g id="edge66" class="edge">
<title>src/handlers/module&#45;access.ts&#45;&gt;src/expressions/handlers.ts</title>
<path fill="none" stroke="#757575" d="M1866.45,-487C1733.64,-487 1515.7,-487 1515.7,-487 1515.7,-487 1515.7,-269.05 1515.7,-269.05"/>
<polygon fill="#757575" stroke="#757575" points="1519.2,-269.05 1515.7,-259.05 1512.2,-269.05 1519.2,-269.05"/>
</g>
<!-- src/handlers/module&#45;access.ts&#45;&gt;src/utils/identifier&#45;utils.ts -->
<g id="edge69" class="edge">
<title>src/handlers/module&#45;access.ts&#45;&gt;src/utils/identifier&#45;utils.ts</title>
<path fill="none" stroke="#757575" d="M1877.83,-471.7C1877.83,-445.34 1877.83,-384 1877.83,-384 1877.83,-384 1792.9,-384 1792.9,-384 1792.9,-384 1792.9,-328.27 1792.9,-328.27"/>
<polygon fill="#757575" stroke="#757575" points="1796.4,-328.27 1792.9,-318.27 1789.4,-328.27 1796.4,-328.27"/>
</g>
<!-- src/types/modules.ts -->
<g id="node37" class="node">
<title>src/types/modules.ts</title>
<path fill="none" stroke="#c6c5fe" d="M2015.83,-436C2015.83,-436 1891.17,-436 1891.17,-436 1887.33,-436 1883.5,-432.17 1883.5,-428.33 1883.5,-428.33 1883.5,-420.67 1883.5,-420.67 1883.5,-416.83 1887.33,-413 1891.17,-413 1891.17,-413 2015.83,-413 2015.83,-413 2019.67,-413 2023.5,-416.83 2023.5,-420.67 2023.5,-420.67 2023.5,-428.33 2023.5,-428.33 2023.5,-432.17 2019.67,-436 2015.83,-436"/>
<text text-anchor="middle" x="1953.5" y="-420.8" font-family="Arial" font-size="14.00" fill="#c6c5fe">src/types/modules.ts</text>
</g>
<!-- src/handlers/module&#45;access.ts&#45;&gt;src/types/modules.ts -->
<g id="edge67" class="edge">
<title>src/handlers/module&#45;access.ts&#45;&gt;src/types/modules.ts</title>
<path fill="none" stroke="#757575" d="M1976.83,-471.84C1976.83,-471.84 1976.83,-446.13 1976.83,-446.13"/>
<polygon fill="#757575" stroke="#757575" points="1980.33,-446.13 1976.83,-436.13 1973.33,-446.13 1980.33,-446.13"/>
</g>
<!-- src/types/objects.ts -->
<g id="node38" class="node">
<title>src/types/objects.ts</title>
<path fill="none" stroke="#c6c5fe" d="M1857.33,-436C1857.33,-436 1741.67,-436 1741.67,-436 1737.83,-436 1734,-432.17 1734,-428.33 1734,-428.33 1734,-420.67 1734,-420.67 1734,-416.83 1737.83,-413 1741.67,-413 1741.67,-413 1857.33,-413 1857.33,-413 1861.17,-413 1865,-416.83 1865,-420.67 1865,-420.67 1865,-428.33 1865,-428.33 1865,-432.17 1861.17,-436 1857.33,-436"/>
<text text-anchor="middle" x="1799.5" y="-420.8" font-family="Arial" font-size="14.00" fill="#c6c5fe">src/types/objects.ts</text>
</g>
<!-- src/handlers/module&#45;access.ts&#45;&gt;src/types/objects.ts -->
<g id="edge68" class="edge">
<title>src/handlers/module&#45;access.ts&#45;&gt;src/types/objects.ts</title>
<path fill="none" stroke="#757575" d="M1872.17,-471.74C1872.17,-454.4 1872.17,-424 1872.17,-424 1872.17,-424 1871.47,-424 1871.47,-424"/>
<polygon fill="#757575" stroke="#757575" points="1875.2,-420.5 1865.2,-424 1875.2,-427.5 1875.2,-420.5"/>
</g>
<!-- src/handlers/pointer&#45;operations.ts&#45;&gt;src/utils/identifier&#45;utils.ts -->
<g id="edge70" class="edge">
<title>src/handlers/pointer&#45;operations.ts&#45;&gt;src/utils/identifier&#45;utils.ts</title>
<path fill="none" stroke="#757575" d="M1384.09,-428C1439.72,-428 1495.9,-428 1495.9,-428 1495.9,-428 1495.9,-310 1495.9,-310 1495.9,-310 1747.41,-310 1747.41,-310"/>
<polygon fill="#757575" stroke="#757575" points="1747.41,-313.5 1757.41,-310 1747.41,-306.5 1747.41,-313.5"/>
</g>
<!-- src/loops/for.ts&#45;&gt;src/loops/loop.ts -->
<g id="edge72" class="edge">
<title>src/loops/for.ts&#45;&gt;src/loops/loop.ts</title>
<path fill="none" stroke="#757575" d="M948.17,-589.84C948.17,-581.6 948.17,-572 948.17,-572 948.17,-572 743,-572 743,-572 743,-572 743,-564.16 743,-564.16"/>
<polygon fill="#757575" stroke="#757575" points="746.5,-564.16 743,-554.16 739.5,-564.16 746.5,-564.16"/>
</g>
<!-- src/loops/helpers.ts -->
<g id="node39" class="node">
<title>src/loops/helpers.ts</title>
<path fill="none" stroke="#cfffac" d="M1028.33,-554C1028.33,-554 910.67,-554 910.67,-554 906.83,-554 903,-550.17 903,-546.33 903,-546.33 903,-538.67 903,-538.67 903,-534.83 906.83,-531 910.67,-531 910.67,-531 1028.33,-531 1028.33,-531 1032.17,-531 1036,-534.83 1036,-538.67 1036,-538.67 1036,-546.33 1036,-546.33 1036,-550.17 1032.17,-554 1028.33,-554"/>
<text text-anchor="middle" x="969.5" y="-538.8" font-family="Arial" font-size="14.00" fill="#cfffac">src/loops/helpers.ts</text>
</g>
<!-- src/loops/for.ts&#45;&gt;src/loops/helpers.ts -->
<g id="edge71" class="edge">
<title>src/loops/for.ts&#45;&gt;src/loops/helpers.ts</title>
<path fill="none" stroke="#757575" d="M982.83,-589.84C982.83,-589.84 982.83,-564.13 982.83,-564.13"/>
<polygon fill="#757575" stroke="#757575" points="986.33,-564.13 982.83,-554.13 979.33,-564.13 986.33,-564.13"/>
</g>
<!-- src/loops/types.ts -->
<g id="node40" class="node">
<title>src/loops/types.ts</title>
<path fill="none" stroke="#c6c5fe" d="M877.33,-554C877.33,-554 771.67,-554 771.67,-554 767.83,-554 764,-550.17 764,-546.33 764,-546.33 764,-538.67 764,-538.67 764,-534.83 767.83,-531 771.67,-531 771.67,-531 877.33,-531 877.33,-531 881.17,-531 885,-534.83 885,-538.67 885,-538.67 885,-546.33 885,-546.33 885,-550.17 881.17,-554 877.33,-554"/>
<text text-anchor="middle" x="824.5" y="-538.8" font-family="Arial" font-size="14.00" fill="#c6c5fe">src/loops/types.ts</text>
</g>
<!-- src/loops/for.ts&#45;&gt;src/loops/types.ts -->
<g id="edge73" class="edge">
<title>src/loops/for.ts&#45;&gt;src/loops/types.ts</title>
<path fill="none" stroke="#757575" d="M913.23,-597C904.79,-597 898.75,-597 898.75,-597 898.75,-597 898.75,-542 898.75,-542 898.75,-542 895.13,-542 895.13,-542"/>
<polygon fill="#757575" stroke="#757575" points="895.13,-538.5 885.13,-542 895.13,-545.5 895.13,-538.5"/>
</g>
<!-- src/loops/while.ts&#45;&gt;src/loops/loop.ts -->
<g id="edge76" class="edge">
<title>src/loops/while.ts&#45;&gt;src/loops/loop.ts</title>
<path fill="none" stroke="#757575" d="M768.83,-601C753.13,-601 740.5,-601 740.5,-601 740.5,-601 740.5,-564.06 740.5,-564.06"/>
<polygon fill="#757575" stroke="#757575" points="744,-564.06 740.5,-554.06 737,-564.06 744,-564.06"/>
</g>
<!-- src/loops/while.ts&#45;&gt;src/loops/helpers.ts -->
<g id="edge75" class="edge">
<title>src/loops/while.ts&#45;&gt;src/loops/helpers.ts</title>
<path fill="none" stroke="#757575" d="M888.13,-605C899.66,-605 908.25,-605 908.25,-605 908.25,-605 908.25,-564.26 908.25,-564.26"/>
<polygon fill="#757575" stroke="#757575" points="911.75,-564.26 908.25,-554.26 904.75,-564.26 911.75,-564.26"/>
</g>
<!-- src/loops/while.ts&#45;&gt;src/loops/types.ts -->
<g id="edge77" class="edge">
<title>src/loops/while.ts&#45;&gt;src/loops/types.ts</title>
<path fill="none" stroke="#757575" d="M827,-589.84C827,-589.84 827,-564.13 827,-564.13"/>
<polygon fill="#757575" stroke="#757575" points="830.5,-564.13 827,-554.13 823.5,-564.13 830.5,-564.13"/>
</g>
<!-- src/parser.ts&#45;&gt;src/utils/array.ts -->
<g id="edge79" class="edge">
<title>src/parser.ts&#45;&gt;src/utils/array.ts</title>
<path fill="none" stroke="#757575" d="M648.86,-123C791.31,-123 1220.33,-123 1220.33,-123 1220.33,-123 1220.33,-92.15 1220.33,-92.15"/>
<polygon fill="#757575" stroke="#757575" points="1223.83,-92.15 1220.33,-82.15 1216.83,-92.15 1223.83,-92.15"/>
</g>
<!-- src/type&#45;utils.ts -->
<g id="node28" class="node">
<title>src/type&#45;utils.ts</title>
<path fill="none" stroke="#cfffac" d="M2448.33,-23C2448.33,-23 2356.67,-23 2356.67,-23 2352.83,-23 2349,-19.17 2349,-15.33 2349,-15.33 2349,-7.67 2349,-7.67 2349,-3.83 2352.83,0 2356.67,0 2356.67,0 2448.33,0 2448.33,0 2452.17,0 2456,-3.83 2456,-7.67 2456,-7.67 2456,-15.33 2456,-15.33 2456,-19.17 2452.17,-23 2448.33,-23"/>
<text text-anchor="middle" x="2402.5" y="-7.8" font-family="Arial" font-size="14.00" fill="#cfffac">src/type&#45;utils.ts</text>
</g>
<!-- src/parser.ts&#45;&gt;src/type&#45;utils.ts -->
<g id="edge78" class="edge">
<title>src/parser.ts&#45;&gt;src/type&#45;utils.ts</title>
<path fill="none" stroke="#757575" d="M603.5,-117.56C603.5,-86.4 603.5,-5 603.5,-5 603.5,-5 2338.66,-5 2338.66,-5"/>
<polygon fill="#757575" stroke="#757575" points="2338.66,-8.5 2348.66,-5 2338.66,-1.5 2338.66,-8.5"/>
</g>
<!-- src/scope.ts&#45;&gt;src/expressions/handlers.ts -->
<g id="edge80" class="edge">
<title>src/scope.ts&#45;&gt;src/expressions/handlers.ts</title>
<path fill="none" stroke="#757575" d="M2997.5,-530.84C2997.5,-475.83 2997.5,-245 2997.5,-245 2997.5,-245 1545.65,-245 1545.65,-245"/>
<polygon fill="#757575" stroke="#757575" points="1545.65,-241.5 1535.65,-245 1545.65,-248.5 1545.65,-241.5"/>
</g>
<!-- src/scope.ts&#45;&gt;src/handlers/lambda&#45;expressions.ts -->
<g id="edge83" class="edge">
<title>src/scope.ts&#45;&gt;src/handlers/lambda&#45;expressions.ts</title>
<path fill="none" stroke="#757575" d="M2944.92,-536C2849.05,-536 2631.83,-536 2631.83,-536 2631.83,-536 2631.83,-505.15 2631.83,-505.15"/>
<polygon fill="#757575" stroke="#757575" points="2635.33,-505.15 2631.83,-495.15 2628.33,-505.15 2635.33,-505.15"/>
</g>
<!-- src/scope.ts&#45;&gt;src/parser.ts -->
<g id="edge84" class="edge">
<title>src/scope.ts&#45;&gt;src/parser.ts</title>
<path fill="none" stroke="#757575" d="M2988.38,-530.65C2988.38,-497.98 2988.38,-409 2988.38,-409 2988.38,-409 604.25,-409 604.25,-409 604.25,-409 604.25,-151.15 604.25,-151.15"/>
<polygon fill="#757575" stroke="#757575" points="607.75,-151.15 604.25,-141.15 600.75,-151.15 607.75,-151.15"/>
</g>
<!-- src/scope.ts&#45;&gt;src/utils/array.ts -->
<g id="edge85" class="edge">
<title>src/scope.ts&#45;&gt;src/utils/array.ts</title>
<path fill="none" stroke="#757575" d="M3024.88,-530.82C3024.88,-458.06 3024.88,-70 3024.88,-70 3024.88,-70 1321.85,-70 1321.85,-70"/>
<polygon fill="#757575" stroke="#757575" points="1321.85,-66.5 1311.85,-70 1321.85,-73.5 1321.85,-66.5"/>
</g>
<!-- src/scope.ts&#45;&gt;src/utils/scope&#45;helpers.ts -->
<g id="edge87" class="edge">
<title>src/scope.ts&#45;&gt;src/utils/scope&#45;helpers.ts</title>
<path fill="none" stroke="#757575" d="M3006.62,-530.71C3006.62,-469.19 3006.62,-188 3006.62,-188 3006.62,-188 2495.23,-188 2495.23,-188"/>
<polygon fill="#757575" stroke="#757575" points="2495.23,-184.5 2485.23,-188 2495.23,-191.5 2495.23,-184.5"/>
</g>
<!-- src/function&#45;type&#45;handler.ts -->
<g id="node30" class="node">
<title>src/function&#45;type&#45;handler.ts</title>
<path fill="none" stroke="#c6c5fe" d="M2953.33,-495C2953.33,-495 2789.67,-495 2789.67,-495 2785.83,-495 2782,-491.17 2782,-487.33 2782,-487.33 2782,-479.67 2782,-479.67 2782,-475.83 2785.83,-472 2789.67,-472 2789.67,-472 2953.33,-472 2953.33,-472 2957.17,-472 2961,-475.83 2961,-479.67 2961,-479.67 2961,-487.33 2961,-487.33 2961,-491.17 2957.17,-495 2953.33,-495"/>
<text text-anchor="middle" x="2871.5" y="-479.8" font-family="Arial" font-size="14.00" fill="#c6c5fe">src/function&#45;type&#45;handler.ts</text>
</g>
<!-- src/scope.ts&#45;&gt;src/function&#45;type&#45;handler.ts -->
<g id="edge81" class="edge">
<title>src/scope.ts&#45;&gt;src/function&#45;type&#45;handler.ts</title>
<path fill="none" stroke="#757575" d="M2953,-530.84C2953,-530.84 2953,-505.13 2953,-505.13"/>
<polygon fill="#757575" stroke="#757575" points="2956.5,-505.13 2953,-495.13 2949.5,-505.13 2956.5,-505.13"/>
</g>
<!-- src/scope.ts&#45;&gt;src/functions.ts -->
<g id="edge82" class="edge">
<title>src/scope.ts&#45;&gt;src/functions.ts</title>
<path fill="none" stroke="#757575" d="M2979.25,-530.9C2979.25,-501.44 2979.25,-426 2979.25,-426 2979.25,-426 2570.27,-426 2570.27,-426"/>
<polygon fill="#757575" stroke="#757575" points="2570.27,-422.5 2560.27,-426 2570.27,-429.5 2570.27,-422.5"/>
</g>
<!-- src/utils/function&#45;utils.ts -->
<g id="node35" class="node">
<title>src/utils/function&#45;utils.ts</title>
<path fill="none" stroke="#c6c5fe" d="M2761.83,-141C2761.83,-141 2621.17,-141 2621.17,-141 2617.33,-141 2613.5,-137.17 2613.5,-133.33 2613.5,-133.33 2613.5,-125.67 2613.5,-125.67 2613.5,-121.83 2617.33,-118 2621.17,-118 2621.17,-118 2761.83,-118 2761.83,-118 2765.67,-118 2769.5,-121.83 2769.5,-125.67 2769.5,-125.67 2769.5,-133.33 2769.5,-133.33 2769.5,-137.17 2765.67,-141 2761.83,-141"/>
<text text-anchor="middle" x="2691.5" y="-125.8" font-family="Arial" font-size="14.00" fill="#c6c5fe">src/utils/function&#45;utils.ts</text>
</g>
<!-- src/scope.ts&#45;&gt;src/utils/function&#45;utils.ts -->
<g id="edge86" class="edge">
<title>src/scope.ts&#45;&gt;src/utils/function&#45;utils.ts</title>
<path fill="none" stroke="#757575" d="M3015.75,-530.57C3015.75,-462.77 3015.75,-129 3015.75,-129 3015.75,-129 2779.58,-129 2779.58,-129"/>
<polygon fill="#757575" stroke="#757575" points="2779.58,-125.5 2769.58,-129 2779.58,-132.5 2779.58,-125.5"/>
</g>
<!-- src/utils/app&#45;handlers.ts&#45;&gt;src/expressions/handlers.ts -->
<g id="edge99" class="edge">
<title>src/utils/app&#45;handlers.ts&#45;&gt;src/expressions/handlers.ts</title>
<path fill="none" stroke="#757575" d="M1623.87,-599C1570.18,-599 1509.1,-599 1509.1,-599 1509.1,-599 1509.1,-269.2 1509.1,-269.2"/>
<polygon fill="#757575" stroke="#757575" points="1512.6,-269.19 1509.1,-259.2 1505.6,-269.2 1512.6,-269.19"/>
</g>
<!-- src/utils/app&#45;handlers.ts&#45;&gt;src/types/structs.ts -->
<g id="edge105" class="edge">
<title>src/utils/app&#45;handlers.ts&#45;&gt;src/types/structs.ts</title>
<path fill="none" stroke="#757575" d="M1623.75,-608C1550.62,-608 1453.62,-608 1453.62,-608 1453.62,-608 1453.62,-387.2 1453.62,-387.2"/>
<polygon fill="#757575" stroke="#757575" points="1457.13,-387.2 1453.62,-377.2 1450.13,-387.2 1457.13,-387.2"/>
</g>
<!-- src/expressions/unary&#45;operation.ts -->
<g id="node29" class="node">
<title>src/expressions/unary&#45;operation.ts</title>
<path fill="none" stroke="#c6c5fe" d="M1390.33,-318C1390.33,-318 1182.67,-318 1182.67,-318 1178.83,-318 1175,-314.17 1175,-310.33 1175,-310.33 1175,-302.67 1175,-302.67 1175,-298.83 1178.83,-295 1182.67,-295 1182.67,-295 1390.33,-295 1390.33,-295 1394.17,-295 1398,-298.83 1398,-302.67 1398,-302.67 1398,-310.33 1398,-310.33 1398,-314.17 1394.17,-318 1390.33,-318"/>
<text text-anchor="middle" x="1286.5" y="-302.8" font-family="Arial" font-size="14.00" fill="#c6c5fe">src/expressions/unary&#45;operation.ts</text>
</g>
<!-- src/utils/app&#45;handlers.ts&#45;&gt;src/expressions/unary&#45;operation.ts -->
<g id="edge100" class="edge">
<title>src/utils/app&#45;handlers.ts&#45;&gt;src/expressions/unary&#45;operation.ts</title>
<path fill="none" stroke="#757575" d="M1623.77,-603C1567.65,-603 1502.5,-603 1502.5,-603 1502.5,-603 1502.5,-302 1502.5,-302 1502.5,-302 1408.3,-302 1408.3,-302"/>
<polygon fill="#757575" stroke="#757575" points="1408.3,-298.5 1398.3,-302 1408.3,-305.5 1408.3,-298.5"/>
</g>
<!-- src/utils/app&#45;handlers.ts&#45;&gt;src/functions.ts -->
<g id="edge101" class="edge">
<title>src/utils/app&#45;handlers.ts&#45;&gt;src/functions.ts</title>
<path fill="none" stroke="#757575" d="M1783.22,-605C1979.84,-605 2472.12,-605 2472.12,-605 2472.12,-605 2472.12,-446.07 2472.12,-446.07"/>
<polygon fill="#757575" stroke="#757575" points="2475.63,-446.07 2472.12,-436.07 2468.63,-446.07 2475.63,-446.07"/>
</g>
<!-- src/utils/function&#45;call&#45;params.ts -->
<g id="node34" class="node">
<title>src/utils/function&#45;call&#45;params.ts</title>
<path fill="none" stroke="#c6c5fe" d="M1751.33,-377C1751.33,-377 1563.67,-377 1563.67,-377 1559.83,-377 1556,-373.17 1556,-369.33 1556,-369.33 1556,-361.67 1556,-361.67 1556,-357.83 1559.83,-354 1563.67,-354 1563.67,-354 1751.33,-354 1751.33,-354 1755.17,-354 1759,-357.83 1759,-361.67 1759,-361.67 1759,-369.33 1759,-369.33 1759,-373.17 1755.17,-377 1751.33,-377"/>
<text text-anchor="middle" x="1657.5" y="-361.8" font-family="Arial" font-size="14.00" fill="#c6c5fe">src/utils/function&#45;call&#45;params.ts</text>
</g>
<!-- src/utils/app&#45;handlers.ts&#45;&gt;src/utils/function&#45;call&#45;params.ts -->
<g id="edge107" class="edge">
<title>src/utils/app&#45;handlers.ts&#45;&gt;src/utils/function&#45;call&#45;params.ts</title>
<path fill="none" stroke="#757575" d="M1623.91,-594C1584.5,-594 1545.25,-594 1545.25,-594 1545.25,-594 1545.25,-369 1545.25,-369 1545.25,-369 1546.29,-369 1546.29,-369"/>
<polygon fill="#757575" stroke="#757575" points="1545.61,-372.5 1555.61,-369 1545.61,-365.5 1545.61,-372.5"/>
</g>
<!-- src/handlers/method&#45;call.ts -->
<g id="node36" class="node">
<title>src/handlers/method&#45;call.ts</title>
<path fill="none" stroke="#c6c5fe" d="M1726.33,-554C1726.33,-554 1562.67,-554 1562.67,-554 1558.83,-554 1555,-550.17 1555,-546.33 1555,-546.33 1555,-538.67 1555,-538.67 1555,-534.83 1558.83,-531 1562.67,-531 1562.67,-531 1726.33,-531 1726.33,-531 1730.17,-531 1734,-534.83 1734,-538.67 1734,-538.67 1734,-546.33 1734,-546.33 1734,-550.17 1730.17,-554 1726.33,-554"/>
<text text-anchor="middle" x="1644.5" y="-538.8" font-family="Arial" font-size="14.00" fill="#c6c5fe">src/handlers/method&#45;call.ts</text>
</g>
<!-- src/utils/app&#45;handlers.ts&#45;&gt;src/handlers/method&#45;call.ts -->
<g id="edge102" class="edge">
<title>src/utils/app&#45;handlers.ts&#45;&gt;src/handlers/method&#45;call.ts</title>
<path fill="none" stroke="#757575" d="M1679,-589.84C1679,-589.84 1679,-564.13 1679,-564.13"/>
<polygon fill="#757575" stroke="#757575" points="1682.5,-564.13 1679,-554.13 1675.5,-564.13 1682.5,-564.13"/>
</g>
<!-- src/utils/app&#45;handlers.ts&#45;&gt;src/types/modules.ts -->
<g id="edge103" class="edge">
<title>src/utils/app&#45;handlers.ts&#45;&gt;src/types/modules.ts</title>
<path fill="none" stroke="#757575" d="M1766.67,-589.96C1766.67,-554.26 1766.67,-448 1766.67,-448 1766.67,-448 1930.17,-448 1930.17,-448 1930.17,-448 1930.17,-446.25 1930.17,-446.25"/>
<polygon fill="#757575" stroke="#757575" points="1933.67,-446.25 1930.17,-436.25 1926.67,-446.25 1933.67,-446.25"/>
</g>
<!-- src/utils/app&#45;handlers.ts&#45;&gt;src/types/objects.ts -->
<g id="edge104" class="edge">
<title>src/utils/app&#45;handlers.ts&#45;&gt;src/types/objects.ts</title>
<path fill="none" stroke="#757575" d="M1750.33,-589.89C1750.33,-589.89 1750.33,-446.39 1750.33,-446.39"/>
<polygon fill="#757575" stroke="#757575" points="1753.83,-446.39 1750.33,-436.39 1746.83,-446.39 1753.83,-446.39"/>
</g>
<!-- src/types/type&#45;declarations.ts -->
<g id="node42" class="node">
<title>src/types/type&#45;declarations.ts</title>
<path fill="none" stroke="#c6c5fe" d="M2339.33,-377C2339.33,-377 2163.67,-377 2163.67,-377 2159.83,-377 2156,-373.17 2156,-369.33 2156,-369.33 2156,-361.67 2156,-361.67 2156,-357.83 2159.83,-354 2163.67,-354 2163.67,-354 2339.33,-354 2339.33,-354 2343.17,-354 2347,-357.83 2347,-361.67 2347,-361.67 2347,-369.33 2347,-369.33 2347,-373.17 2343.17,-377 2339.33,-377"/>
<text text-anchor="middle" x="2251.5" y="-361.8" font-family="Arial" font-size="14.00" fill="#c6c5fe">src/types/type&#45;declarations.ts</text>
</g>
<!-- src/utils/app&#45;handlers.ts&#45;&gt;src/types/type&#45;declarations.ts -->
<g id="edge106" class="edge">
<title>src/utils/app&#45;handlers.ts&#45;&gt;src/types/type&#45;declarations.ts</title>
<path fill="none" stroke="#757575" d="M1783.07,-597C1951.61,-597 2329.25,-597 2329.25,-597 2329.25,-597 2329.25,-387.3 2329.25,-387.3"/>
<polygon fill="#757575" stroke="#757575" points="2332.75,-387.3 2329.25,-377.3 2325.75,-387.3 2332.75,-387.3"/>
</g>
<!-- src/utils/array.ts&#45;&gt;src/type&#45;utils.ts -->
<g id="edge108" class="edge">
<title>src/utils/array.ts&#45;&gt;src/type&#45;utils.ts</title>
<path fill="none" stroke="#757575" d="M1311.62,-64C1536.9,-64 2375.75,-64 2375.75,-64 2375.75,-64 2375.75,-33.15 2375.75,-33.15"/>
<polygon fill="#757575" stroke="#757575" points="2379.25,-33.15 2375.75,-23.15 2372.25,-33.15 2379.25,-33.15"/>
</g>
<!-- src/utils/this&#45;keyword.ts&#45;&gt;src/types/structs.ts -->
<g id="edge117" class="edge">
<title>src/utils/this&#45;keyword.ts&#45;&gt;src/types/structs.ts</title>
<path fill="none" stroke="#757575" d="M2233.75,-471.75C2233.75,-465.88 2233.75,-460 2233.75,-460 2233.75,-460 1458.88,-460 1458.88,-460 1458.88,-460 1458.88,-387.09 1458.88,-387.09"/>
<polygon fill="#757575" stroke="#757575" points="1462.38,-387.09 1458.88,-377.09 1455.38,-387.09 1462.38,-387.09"/>
</g>
<!-- src/utils/this&#45;keyword.ts&#45;&gt;src/utils/scope&#45;helpers.ts -->
<g id="edge118" class="edge">
<title>src/utils/this&#45;keyword.ts&#45;&gt;src/utils/scope&#45;helpers.ts</title>
<path fill="none" stroke="#757575" d="M2311.52,-479C2345.84,-479 2378.5,-479 2378.5,-479 2378.5,-479 2378.5,-210.25 2378.5,-210.25"/>
<polygon fill="#757575" stroke="#757575" points="2382,-210.25 2378.5,-200.25 2375,-210.25 2382,-210.25"/>
</g>
<!-- src/utils/this&#45;keyword.ts&#45;&gt;src/functions.ts -->
<g id="edge116" class="edge">
<title>src/utils/this&#45;keyword.ts&#45;&gt;src/functions.ts</title>
<path fill="none" stroke="#757575" d="M2311.55,-487C2376.84,-487 2459.38,-487 2459.38,-487 2459.38,-487 2459.38,-446.26 2459.38,-446.26"/>
<polygon fill="#757575" stroke="#757575" points="2462.88,-446.26 2459.38,-436.26 2455.88,-446.26 2462.88,-446.26"/>
</g>
<!-- src/declarations.ts -->
<g id="node18" class="node">
<title>src/declarations.ts</title>
<path fill="none" stroke="#c6c5fe" d="M2053.33,-318C2053.33,-318 1943.67,-318 1943.67,-318 1939.83,-318 1936,-314.17 1936,-310.33 1936,-310.33 1936,-302.67 1936,-302.67 1936,-298.83 1939.83,-295 1943.67,-295 1943.67,-295 2053.33,-295 2053.33,-295 2057.17,-295 2061,-298.83 2061,-302.67 2061,-302.67 2061,-310.33 2061,-310.33 2061,-314.17 2057.17,-318 2053.33,-318"/>
<text text-anchor="middle" x="1998.5" y="-302.8" font-family="Arial" font-size="14.00" fill="#c6c5fe">src/declarations.ts</text>
</g>
<!-- src/declarations.ts&#45;&gt;src/expressions/handlers.ts -->
<g id="edge17" class="edge">
<title>src/declarations.ts&#45;&gt;src/expressions/handlers.ts</title>
<path fill="none" stroke="#757575" d="M1998.5,-294.86C1998.5,-278.06 1998.5,-249 1998.5,-249 1998.5,-249 1545.58,-249 1545.58,-249"/>
<polygon fill="#757575" stroke="#757575" points="1545.58,-245.5 1535.58,-249 1545.58,-252.5 1545.58,-245.5"/>
</g>
<!-- src/expressions/operators.ts&#45;&gt;src/handlers/pointer&#45;operations.ts -->
<g id="edge35" class="edge">
<title>src/expressions/operators.ts&#45;&gt;src/handlers/pointer&#45;operations.ts</title>
<path fill="none" stroke="#757575" d="M475.26,-490C680.42,-490 1154.67,-490 1154.67,-490 1154.67,-490 1154.67,-420 1154.67,-420 1154.67,-420 1156.69,-420 1156.69,-420"/>
<polygon fill="#757575" stroke="#757575" points="1156.69,-423.5 1166.69,-420 1156.69,-416.5 1156.69,-423.5"/>
</g>
<!-- src/expressions/operators.ts&#45;&gt;src/parser.ts -->
<g id="edge36" class="edge">
<title>src/expressions/operators.ts&#45;&gt;src/parser.ts</title>
<path fill="none" stroke="#757575" d="M475.4,-481C574.08,-481 716,-481 716,-481 716,-481 716,-135 716,-135 716,-135 658.61,-135 658.61,-135"/>
<polygon fill="#757575" stroke="#757575" points="658.61,-131.5 648.61,-135 658.61,-138.5 658.61,-131.5"/>
</g>
<!-- src/expressions/op&#45;helpers.ts -->
<g id="node25" class="node">
<title>src/expressions/op&#45;helpers.ts</title>
<path fill="none" stroke="#c6c5fe" d="M678.83,-436C678.83,-436 502.17,-436 502.17,-436 498.33,-436 494.5,-432.17 494.5,-428.33 494.5,-428.33 494.5,-420.67 494.5,-420.67 494.5,-416.83 498.33,-413 502.17,-413 502.17,-413 678.83,-413 678.83,-413 682.67,-413 686.5,-416.83 686.5,-420.67 686.5,-420.67 686.5,-428.33 686.5,-428.33 686.5,-432.17 682.67,-436 678.83,-436"/>
<text text-anchor="middle" x="590.5" y="-420.8" font-family="Arial" font-size="14.00" fill="#c6c5fe">src/expressions/op&#45;helpers.ts</text>
</g>
<!-- src/expressions/operators.ts&#45;&gt;src/expressions/op&#45;helpers.ts -->
<g id="edge33" class="edge">
<title>src/expressions/operators.ts&#45;&gt;src/expressions/op&#45;helpers.ts</title>
<path fill="none" stroke="#757575" d="M475.28,-476C492.13,-476 504.5,-476 504.5,-476 504.5,-476 504.5,-446.19 504.5,-446.19"/>
<polygon fill="#757575" stroke="#757575" points="508,-446.19 504.5,-436.19 501,-446.19 508,-446.19"/>
</g>
<!-- src/expressions/operator&#45;finder.ts -->
<g id="node27" class="node">
<title>src/expressions/operator&#45;finder.ts</title>
<path fill="none" stroke="#c6c5fe" d="M468.83,-436C468.83,-436 268.17,-436 268.17,-436 264.33,-436 260.5,-432.17 260.5,-428.33 260.5,-428.33 260.5,-420.67 260.5,-420.67 260.5,-416.83 264.33,-413 268.17,-413 268.17,-413 468.83,-413 468.83,-413 472.67,-413 476.5,-416.83 476.5,-420.67 476.5,-420.67 476.5,-428.33 476.5,-428.33 476.5,-432.17 472.67,-436 468.83,-436"/>
<text text-anchor="middle" x="368.5" y="-420.8" font-family="Arial" font-size="14.00" fill="#c6c5fe">src/expressions/operator&#45;finder.ts</text>
</g>
<!-- src/expressions/operators.ts&#45;&gt;src/expressions/operator&#45;finder.ts -->
<g id="edge34" class="edge">
<title>src/expressions/operators.ts&#45;&gt;src/expressions/operator&#45;finder.ts</title>
<path fill="none" stroke="#757575" d="M382.5,-471.84C382.5,-471.84 382.5,-446.13 382.5,-446.13"/>
<polygon fill="#757575" stroke="#757575" points="386,-446.13 382.5,-436.13 379,-446.13 386,-446.13"/>
</g>
<!-- src/expressions/operators.ts&#45;&gt;src/type&#45;utils.ts -->
<g id="edge37" class="edge">
<title>src/expressions/operators.ts&#45;&gt;src/type&#45;utils.ts</title>
<path fill="none" stroke="#757575" d="M475.27,-485C679.82,-485 1151.58,-485 1151.58,-485 1151.58,-485 1151.58,-11 1151.58,-11 1151.58,-11 2338.75,-11 2338.75,-11"/>
<polygon fill="#757575" stroke="#757575" points="2338.75,-14.5 2348.75,-11 2338.75,-7.5 2338.75,-14.5"/>
</g>
<!-- src/types/structs.ts&#45;&gt;src/expressions/handlers.ts -->
<g id="edge96" class="edge">
<title>src/types/structs.ts&#45;&gt;src/expressions/handlers.ts</title>
<path fill="none" stroke="#757575" d="M1440.33,-353.75C1440.33,-353.75 1440.33,-269.2 1440.33,-269.2"/>
<polygon fill="#757575" stroke="#757575" points="1443.83,-269.2 1440.33,-259.2 1436.83,-269.2 1443.83,-269.2"/>
</g>
<!-- src/types/structs.ts&#45;&gt;src/declarations.ts -->
<g id="edge95" class="edge">
<title>src/types/structs.ts&#45;&gt;src/declarations.ts</title>
<path fill="none" stroke="#757575" d="M1419.17,-353.74C1419.17,-342.42 1419.17,-327 1419.17,-327 1419.17,-327 1965.17,-327 1965.17,-327 1965.17,-327 1965.17,-326.12 1965.17,-326.12"/>
<polygon fill="#757575" stroke="#757575" points="1968.67,-328.19 1965.17,-318.19 1961.67,-328.19 1968.67,-328.19"/>
</g>
<!-- src/handlers/assignment.ts&#45;&gt;src/utils/array.ts -->
<g id="edge51" class="edge">
<title>src/handlers/assignment.ts&#45;&gt;src/utils/array.ts</title>
<path fill="none" stroke="#757575" d="M1356.5,-188C1300.66,-188 1239.17,-188 1239.17,-188 1239.17,-188 1239.17,-92.2 1239.17,-92.2"/>
<polygon fill="#757575" stroke="#757575" points="1242.67,-92.2 1239.17,-82.2 1235.67,-92.2 1242.67,-92.2"/>
</g>
<!-- src/handlers/assignment.ts&#45;&gt;src/types/interpreter.ts -->
<g id="edge50" class="edge">
<title>src/handlers/assignment.ts&#45;&gt;src/types/interpreter.ts</title>
<path fill="none" stroke="#757575" d="M1381.75,-176.84C1381.75,-176.84 1381.75,-151.13 1381.75,-151.13"/>
<polygon fill="#757575" stroke="#757575" points="1385.25,-151.13 1381.75,-141.13 1378.25,-151.13 1385.25,-151.13"/>
</g>
<!-- src/utils/scope&#45;helpers.ts&#45;&gt;src/parser.ts -->
<g id="edge112" class="edge">
<title>src/utils/scope&#45;helpers.ts&#45;&gt;src/parser.ts</title>
<path fill="none" stroke="#757575" d="M2329.67,-176.84C2329.67,-168.6 2329.67,-159 2329.67,-159 2329.67,-159 626.38,-159 626.38,-159 626.38,-159 626.38,-151.16 626.38,-151.16"/>
<polygon fill="#757575" stroke="#757575" points="629.88,-151.16 626.38,-141.16 622.88,-151.16 629.88,-151.16"/>
</g>
<!-- src/utils/scope&#45;helpers.ts&#45;&gt;src/utils/array.ts -->
<g id="edge114" class="edge">
<title>src/utils/scope&#45;helpers.ts&#45;&gt;src/utils/array.ts</title>
<path fill="none" stroke="#757575" d="M2339.33,-176.88C2339.33,-148.14 2339.33,-76 2339.33,-76 2339.33,-76 1321.69,-76 1321.69,-76"/>
<polygon fill="#757575" stroke="#757575" points="1321.69,-72.5 1311.69,-76 1321.69,-79.5 1321.69,-72.5"/>
</g>
<!-- src/utils/scope&#45;helpers.ts&#45;&gt;src/type&#45;utils.ts -->
<g id="edge113" class="edge">
<title>src/utils/scope&#45;helpers.ts&#45;&gt;src/type&#45;utils.ts</title>
<path fill="none" stroke="#757575" d="M2402.5,-176.89C2402.5,-176.89 2402.5,-33.39 2402.5,-33.39"/>
<polygon fill="#757575" stroke="#757575" points="2406,-33.39 2402.5,-23.39 2399,-33.39 2406,-33.39"/>
</g>
<!-- src/utils/scope&#45;helpers.ts&#45;&gt;src/utils/function&#45;utils.ts -->
<g id="edge115" class="edge">
<title>src/utils/scope&#45;helpers.ts&#45;&gt;src/utils/function&#45;utils.ts</title>
<path fill="none" stroke="#757575" d="M2470.5,-176.73C2470.5,-160.44 2470.5,-133 2470.5,-133 2470.5,-133 2603.27,-133 2603.27,-133"/>
<polygon fill="#757575" stroke="#757575" points="2603.27,-136.5 2613.27,-133 2603.27,-129.5 2603.27,-136.5"/>
</g>
<!-- src/expressions/op&#45;helpers.ts&#45;&gt;src/utils/array.ts -->
<g id="edge31" class="edge">
<title>src/expressions/op&#45;helpers.ts&#45;&gt;src/utils/array.ts</title>
<path fill="none" stroke="#757575" d="M673.83,-412.91C673.83,-351.21 673.83,-64 673.83,-64 673.83,-64 1191.42,-64 1191.42,-64"/>
<polygon fill="#757575" stroke="#757575" points="1191.42,-67.5 1201.42,-64 1191.42,-60.5 1191.42,-67.5"/>
</g>
<!-- src/expressions/op&#45;helpers.ts&#45;&gt;src/types/structs.ts -->
<g id="edge30" class="edge">
<title>src/expressions/op&#45;helpers.ts&#45;&gt;src/types/structs.ts</title>
<path fill="none" stroke="#757575" d="M661.17,-412.63C661.17,-401.65 661.17,-387 661.17,-387 661.17,-387 1358.75,-387 1358.75,-387 1358.75,-387 1358.75,-386 1358.75,-386"/>
<polygon fill="#757575" stroke="#757575" points="1362.25,-387.01 1358.75,-377.01 1355.25,-387.01 1362.25,-387.01"/>
</g>
<!-- src/expressions/operator&#45;utils.ts -->
<g id="node26" class="node">
<title>src/expressions/operator&#45;utils.ts</title>
<path fill="none" stroke="#cfffac" d="M552.33,-377C552.33,-377 360.67,-377 360.67,-377 356.83,-377 353,-373.17 353,-369.33 353,-369.33 353,-361.67 353,-361.67 353,-357.83 356.83,-354 360.67,-354 360.67,-354 552.33,-354 552.33,-354 556.17,-354 560,-357.83 560,-361.67 560,-361.67 560,-369.33 560,-369.33 560,-373.17 556.17,-377 552.33,-377"/>
<text text-anchor="middle" x="456.5" y="-361.8" font-family="Arial" font-size="14.00" fill="#cfffac">src/expressions/operator&#45;utils.ts</text>
</g>
<!-- src/expressions/op&#45;helpers.ts&#45;&gt;src/expressions/operator&#45;utils.ts -->
<g id="edge29" class="edge">
<title>src/expressions/op&#45;helpers.ts&#45;&gt;src/expressions/operator&#45;utils.ts</title>
<path fill="none" stroke="#757575" d="M527.25,-412.84C527.25,-412.84 527.25,-387.13 527.25,-387.13"/>
<polygon fill="#757575" stroke="#757575" points="530.75,-387.13 527.25,-377.13 523.75,-387.13 530.75,-387.13"/>
</g>
<!-- src/expressions/operator&#45;finder.ts&#45;&gt;src/expressions/operator&#45;utils.ts -->
<g id="edge32" class="edge">
<title>src/expressions/operator&#45;finder.ts&#45;&gt;src/expressions/operator&#45;utils.ts</title>
<path fill="none" stroke="#757575" d="M414.75,-412.84C414.75,-412.84 414.75,-387.13 414.75,-387.13"/>
<polygon fill="#757575" stroke="#757575" points="418.25,-387.13 414.75,-377.13 411.25,-387.13 418.25,-387.13"/>
</g>
<!-- src/expressions/unary&#45;operation.ts&#45;&gt;src/expressions/handlers.ts -->
<g id="edge38" class="edge">
<title>src/expressions/unary&#45;operation.ts&#45;&gt;src/expressions/handlers.ts</title>
<path fill="none" stroke="#757575" d="M1376.75,-294.84C1376.75,-294.84 1376.75,-269.13 1376.75,-269.13"/>
<polygon fill="#757575" stroke="#757575" points="1380.25,-269.13 1376.75,-259.13 1373.25,-269.13 1380.25,-269.13"/>
</g>
<!-- src/function&#45;type&#45;handler.ts&#45;&gt;src/type&#45;utils.ts -->
<g id="edge40" class="edge">
<title>src/function&#45;type&#45;handler.ts&#45;&gt;src/type&#45;utils.ts</title>
<path fill="none" stroke="#757575" d="M2961.02,-483C2966.66,-483 2970.12,-483 2970.12,-483 2970.12,-483 2970.12,-5 2970.12,-5 2970.12,-5 2466.16,-5 2466.16,-5"/>
<polygon fill="#757575" stroke="#757575" points="2466.16,-1.5 2456.16,-5 2466.16,-8.5 2466.16,-1.5"/>
</g>
<!-- src/function&#45;type&#45;handler.ts&#45;&gt;src/functions.ts -->
<g id="edge39" class="edge">
<title>src/function&#45;type&#45;handler.ts&#45;&gt;src/functions.ts</title>
<path fill="none" stroke="#757575" d="M2871.5,-471.85C2871.5,-456.38 2871.5,-431 2871.5,-431 2871.5,-431 2570.36,-431 2570.36,-431"/>
<polygon fill="#757575" stroke="#757575" points="2570.36,-427.5 2560.36,-431 2570.36,-434.5 2570.36,-427.5"/>
</g>
<!-- src/functions.ts&#45;&gt;src/utils/identifier&#45;utils.ts -->
<g id="edge45" class="edge">
<title>src/functions.ts&#45;&gt;src/utils/identifier&#45;utils.ts</title>
<path fill="none" stroke="#757575" d="M2506.5,-412.81C2506.5,-399.62 2506.5,-380 2506.5,-380 2506.5,-380 1804.2,-380 1804.2,-380 1804.2,-380 1804.2,-328.31 1804.2,-328.31"/>
<polygon fill="#757575" stroke="#757575" points="1807.7,-328.31 1804.2,-318.31 1800.7,-328.31 1807.7,-328.31"/>
</g>
<!-- src/functions.ts&#45;&gt;src/utils/scope&#45;helpers.ts -->
<g id="edge46" class="edge">
<title>src/functions.ts&#45;&gt;src/utils/scope&#45;helpers.ts</title>
<path fill="none" stroke="#757575" d="M2452.89,-424C2430.68,-424 2410,-424 2410,-424 2410,-424 2410,-210.18 2410,-210.18"/>
<polygon fill="#757575" stroke="#757575" points="2413.5,-210.18 2410,-200.18 2406.5,-210.18 2413.5,-210.18"/>
</g>
<!-- src/functions.ts&#45;&gt;src/handlers/anonymous&#45;functions.ts -->
<g id="edge41" class="edge">
<title>src/functions.ts&#45;&gt;src/handlers/anonymous&#45;functions.ts</title>
<path fill="none" stroke="#757575" d="M2560.29,-422C2632.82,-422 2753,-422 2753,-422 2753,-422 2753,-387.21 2753,-387.21"/>
<polygon fill="#757575" stroke="#757575" points="2756.5,-387.21 2753,-377.21 2749.5,-387.21 2756.5,-387.21"/>
</g>
<!-- src/handlers/function&#45;declaration.ts -->
<g id="node33" class="node">
<title>src/handlers/function&#45;declaration.ts</title>
<path fill="none" stroke="#c6c5fe" d="M2659.83,-377C2659.83,-377 2449.17,-377 2449.17,-377 2445.33,-377 2441.5,-373.17 2441.5,-369.33 2441.5,-369.33 2441.5,-361.67 2441.5,-361.67 2441.5,-357.83 2445.33,-354 2449.17,-354 2449.17,-354 2659.83,-354 2659.83,-354 2663.67,-354 2667.5,-357.83 2667.5,-361.67 2667.5,-361.67 2667.5,-369.33 2667.5,-369.33 2667.5,-373.17 2663.67,-377 2659.83,-377"/>
<text text-anchor="middle" x="2554.5" y="-361.8" font-family="Arial" font-size="14.00" fill="#c6c5fe">src/handlers/function&#45;declaration.ts</text>
</g>
<!-- src/functions.ts&#45;&gt;src/handlers/function&#45;declaration.ts -->
<g id="edge42" class="edge">
<title>src/functions.ts&#45;&gt;src/handlers/function&#45;declaration.ts</title>
<path fill="none" stroke="#757575" d="M2533.25,-412.84C2533.25,-412.84 2533.25,-387.13 2533.25,-387.13"/>
<polygon fill="#757575" stroke="#757575" points="2536.75,-387.13 2533.25,-377.13 2529.75,-387.13 2536.75,-387.13"/>
</g>
<!-- src/functions.ts&#45;&gt;src/utils/function&#45;call&#45;params.ts -->
<g id="edge43" class="edge">
<title>src/functions.ts&#45;&gt;src/utils/function&#45;call&#45;params.ts</title>
<path fill="none" stroke="#757575" d="M2479.75,-412.99C2479.75,-407.45 2479.75,-402 2479.75,-402 2479.75,-402 1746.5,-402 1746.5,-402 1746.5,-402 1746.5,-387.05 1746.5,-387.05"/>
<polygon fill="#757575" stroke="#757575" points="1750,-387.05 1746.5,-377.05 1743,-387.05 1750,-387.05"/>
</g>
<!-- src/functions.ts&#45;&gt;src/utils/function&#45;utils.ts -->
<g id="edge44" class="edge">
<title>src/functions.ts&#45;&gt;src/utils/function&#45;utils.ts</title>
<path fill="none" stroke="#757575" d="M2560.33,-417C2611.65,-417 2681.17,-417 2681.17,-417 2681.17,-417 2681.17,-151.13 2681.17,-151.13"/>
<polygon fill="#757575" stroke="#757575" points="2684.67,-151.13 2681.17,-141.13 2677.67,-151.13 2684.67,-151.13"/>
</g>
<!-- src/handlers/anonymous&#45;functions.ts&#45;&gt;src/utils/identifier&#45;utils.ts -->
<g id="edge49" class="edge">
<title>src/handlers/anonymous&#45;functions.ts&#45;&gt;src/utils/identifier&#45;utils.ts</title>
<path fill="none" stroke="#757575" d="M2739.17,-353.84C2739.17,-345.6 2739.17,-336 2739.17,-336 2739.17,-336 1892,-336 1892,-336 1892,-336 1892,-328.16 1892,-328.16"/>
<polygon fill="#757575" stroke="#757575" points="1895.5,-328.16 1892,-318.16 1888.5,-328.16 1895.5,-328.16"/>
</g>
<!-- src/handlers/anonymous&#45;functions.ts&#45;&gt;src/type&#45;utils.ts -->
<g id="edge47" class="edge">
<title>src/handlers/anonymous&#45;functions.ts&#45;&gt;src/type&#45;utils.ts</title>
<path fill="none" stroke="#757575" d="M2865.25,-353.71C2865.25,-292.19 2865.25,-11 2865.25,-11 2865.25,-11 2466.04,-11 2466.04,-11"/>
<polygon fill="#757575" stroke="#757575" points="2466.04,-7.5 2456.04,-11 2466.04,-14.5 2466.04,-7.5"/>
</g>
<!-- src/handlers/anonymous&#45;functions.ts&#45;&gt;src/utils/function&#45;utils.ts -->
<g id="edge48" class="edge">
<title>src/handlers/anonymous&#45;functions.ts&#45;&gt;src/utils/function&#45;utils.ts</title>
<path fill="none" stroke="#757575" d="M2754.33,-353.8C2754.33,-353.8 2754.33,-151.27 2754.33,-151.27"/>
<polygon fill="#757575" stroke="#757575" points="2757.83,-151.27 2754.33,-141.27 2750.83,-151.27 2757.83,-151.27"/>
</g>
<!-- src/handlers/function&#45;declaration.ts&#45;&gt;src/declarations.ts -->
<g id="edge54" class="edge">
<title>src/handlers/function&#45;declaration.ts&#45;&gt;src/declarations.ts</title>
<path fill="none" stroke="#757575" d="M2463.25,-353.74C2463.25,-336.4 2463.25,-306 2463.25,-306 2463.25,-306 2071.18,-306 2071.18,-306"/>
<polygon fill="#757575" stroke="#757575" points="2071.18,-302.5 2061.18,-306 2071.18,-309.5 2071.18,-302.5"/>
</g>
<!-- src/handlers/function&#45;declaration.ts&#45;&gt;src/utils/identifier&#45;utils.ts -->
<g id="edge57" class="edge">
<title>src/handlers/function&#45;declaration.ts&#45;&gt;src/utils/identifier&#45;utils.ts</title>
<path fill="none" stroke="#757575" d="M2452.38,-353.81C2452.38,-349.21 2452.38,-345 2452.38,-345 2452.38,-345 1866.5,-345 1866.5,-345 1866.5,-345 1866.5,-328.26 1866.5,-328.26"/>
<polygon fill="#757575" stroke="#757575" points="1870,-328.26 1866.5,-318.26 1863,-328.26 1870,-328.26"/>
</g>
<!-- src/handlers/function&#45;declaration.ts&#45;&gt;src/utils/scope&#45;helpers.ts -->
<g id="edge58" class="edge">
<title>src/handlers/function&#45;declaration.ts&#45;&gt;src/utils/scope&#45;helpers.ts</title>
<path fill="none" stroke="#757575" d="M2474.12,-353.89C2474.12,-353.89 2474.12,-210.39 2474.12,-210.39"/>
<polygon fill="#757575" stroke="#757575" points="2477.63,-210.39 2474.12,-200.39 2470.63,-210.39 2477.63,-210.39"/>
</g>
<!-- src/handlers/function&#45;declaration.ts&#45;&gt;src/type&#45;utils.ts -->
<g id="edge55" class="edge">
<title>src/handlers/function&#45;declaration.ts&#45;&gt;src/type&#45;utils.ts</title>
<path fill="none" stroke="#757575" d="M2549.25,-353.9C2549.25,-293.43 2549.25,-17 2549.25,-17 2549.25,-17 2466.31,-17 2466.31,-17"/>
<polygon fill="#757575" stroke="#757575" points="2466.31,-13.5 2456.31,-17 2466.31,-20.5 2466.31,-13.5"/>
</g>
<!-- src/handlers/function&#45;declaration.ts&#45;&gt;src/utils/function&#45;utils.ts -->
<g id="edge56" class="edge">
<title>src/handlers/function&#45;declaration.ts&#45;&gt;src/utils/function&#45;utils.ts</title>
<path fill="none" stroke="#757575" d="M2640.5,-353.8C2640.5,-353.8 2640.5,-151.27 2640.5,-151.27"/>
<polygon fill="#757575" stroke="#757575" points="2644,-151.27 2640.5,-141.27 2637,-151.27 2644,-151.27"/>
</g>
<!-- src/utils/function&#45;call&#45;params.ts&#45;&gt;src/expressions/handlers.ts -->
<g id="edge109" class="edge">
<title>src/utils/function&#45;call&#45;params.ts&#45;&gt;src/expressions/handlers.ts</title>
<path fill="none" stroke="#757575" d="M1555.86,-361C1540.09,-361 1528.9,-361 1528.9,-361 1528.9,-361 1528.9,-269.22 1528.9,-269.22"/>
<polygon fill="#757575" stroke="#757575" points="1532.4,-269.22 1528.9,-259.22 1525.4,-269.22 1532.4,-269.22"/>
</g>
<!-- src/utils/function&#45;utils.ts&#45;&gt;src/type&#45;utils.ts -->
<g id="edge110" class="edge">
<title>src/utils/function&#45;utils.ts&#45;&gt;src/type&#45;utils.ts</title>
<path fill="none" stroke="#757575" d="M2613.17,-125C2535.9,-125 2429.25,-125 2429.25,-125 2429.25,-125 2429.25,-33.22 2429.25,-33.22"/>
<polygon fill="#757575" stroke="#757575" points="2432.75,-33.22 2429.25,-23.22 2425.75,-33.22 2432.75,-33.22"/>
</g>
<!-- src/handlers/method&#45;call.ts&#45;&gt;src/expressions/handlers.ts -->
<g id="edge61" class="edge">
<title>src/handlers/method&#45;call.ts&#45;&gt;src/expressions/handlers.ts</title>
<path fill="none" stroke="#757575" d="M1554.61,-538C1517.37,-538 1482.7,-538 1482.7,-538 1482.7,-538 1482.7,-269.25 1482.7,-269.25"/>
<polygon fill="#757575" stroke="#757575" points="1486.2,-269.25 1482.7,-259.25 1479.2,-269.25 1486.2,-269.25"/>
</g>
<!-- src/handlers/method&#45;call.ts&#45;&gt;src/utils/this&#45;keyword.ts -->
<g id="edge65" class="edge">
<title>src/handlers/method&#45;call.ts&#45;&gt;src/utils/this&#45;keyword.ts</title>
<path fill="none" stroke="#757575" d="M1734.03,-542C1887.15,-542 2183,-542 2183,-542 2183,-542 2183,-505.06 2183,-505.06"/>
<polygon fill="#757575" stroke="#757575" points="2186.5,-505.06 2183,-495.06 2179.5,-505.06 2186.5,-505.06"/>
</g>
<!-- src/handlers/method&#45;call.ts&#45;&gt;src/types/structs.ts -->
<g id="edge63" class="edge">
<title>src/handlers/method&#45;call.ts&#45;&gt;src/types/structs.ts</title>
<path fill="none" stroke="#757575" d="M1554.79,-546C1506.3,-546 1456.25,-546 1456.25,-546 1456.25,-546 1456.25,-387.07 1456.25,-387.07"/>
<polygon fill="#757575" stroke="#757575" points="1459.75,-387.07 1456.25,-377.07 1452.75,-387.07 1459.75,-387.07"/>
</g>
<!-- src/handlers/method&#45;call.ts&#45;&gt;src/utils/identifier&#45;utils.ts -->
<g id="edge64" class="edge">
<title>src/handlers/method&#45;call.ts&#45;&gt;src/utils/identifier&#45;utils.ts</title>
<path fill="none" stroke="#757575" d="M1645,-530.93C1645,-496.15 1645,-395 1645,-395 1645,-395 1781.6,-395 1781.6,-395 1781.6,-395 1781.6,-328.07 1781.6,-328.07"/>
<polygon fill="#757575" stroke="#757575" points="1785.1,-328.07 1781.6,-318.07 1778.1,-328.07 1785.1,-328.07"/>
</g>
<!-- src/handlers/method&#45;call.ts&#45;&gt;src/functions.ts -->
<g id="edge62" class="edge">
<title>src/handlers/method&#45;call.ts&#45;&gt;src/functions.ts</title>
<path fill="none" stroke="#757575" d="M1734.34,-548C1947.44,-548 2465.75,-548 2465.75,-548 2465.75,-548 2465.75,-446.34 2465.75,-446.34"/>
<polygon fill="#757575" stroke="#757575" points="2469.25,-446.34 2465.75,-436.34 2462.25,-446.34 2469.25,-446.34"/>
</g>
<!-- src/types/modules.ts&#45;&gt;src/expressions/handlers.ts -->
<g id="edge88" class="edge">
<title>src/types/modules.ts&#45;&gt;src/expressions/handlers.ts</title>
<path fill="none" stroke="#757575" d="M1930.17,-412.93C1930.17,-408.73 1930.17,-405 1930.17,-405 1930.17,-405 1522.3,-405 1522.3,-405 1522.3,-405 1522.3,-269.08 1522.3,-269.08"/>
<polygon fill="#757575" stroke="#757575" points="1525.8,-269.08 1522.3,-259.08 1518.8,-269.08 1525.8,-269.08"/>
</g>
<!-- src/types/namespace&#45;handler.ts -->
<g id="node41" class="node">
<title>src/types/namespace&#45;handler.ts</title>
<path fill="none" stroke="#c6c5fe" d="M2015.83,-377C2015.83,-377 1823.17,-377 1823.17,-377 1819.33,-377 1815.5,-373.17 1815.5,-369.33 1815.5,-369.33 1815.5,-361.67 1815.5,-361.67 1815.5,-357.83 1819.33,-354 1823.17,-354 1823.17,-354 2015.83,-354 2015.83,-354 2019.67,-354 2023.5,-357.83 2023.5,-361.67 2023.5,-361.67 2023.5,-369.33 2023.5,-369.33 2023.5,-373.17 2019.67,-377 2015.83,-377"/>
<text text-anchor="middle" x="1919.5" y="-361.8" font-family="Arial" font-size="14.00" fill="#c6c5fe">src/types/namespace&#45;handler.ts</text>
</g>
<!-- src/types/modules.ts&#45;&gt;src/types/namespace&#45;handler.ts -->
<g id="edge89" class="edge">
<title>src/types/modules.ts&#45;&gt;src/types/namespace&#45;handler.ts</title>
<path fill="none" stroke="#757575" d="M1976.83,-412.84C1976.83,-412.84 1976.83,-387.13 1976.83,-387.13"/>
<polygon fill="#757575" stroke="#757575" points="1980.33,-387.13 1976.83,-377.13 1973.33,-387.13 1980.33,-387.13"/>
</g>
<!-- src/types/objects.ts&#45;&gt;src/expressions/handlers.ts -->
<g id="edge93" class="edge">
<title>src/types/objects.ts&#45;&gt;src/expressions/handlers.ts</title>
<path fill="none" stroke="#757575" d="M1733.71,-420C1642.66,-420 1489.3,-420 1489.3,-420 1489.3,-420 1489.3,-269.09 1489.3,-269.09"/>
<polygon fill="#757575" stroke="#757575" points="1492.8,-269.09 1489.3,-259.09 1485.8,-269.09 1492.8,-269.09"/>
</g>
<!-- src/types/objects.ts&#45;&gt;src/types/namespace&#45;handler.ts -->
<g id="edge94" class="edge">
<title>src/types/objects.ts&#45;&gt;src/types/namespace&#45;handler.ts</title>
<path fill="none" stroke="#757575" d="M1840.25,-412.84C1840.25,-412.84 1840.25,-387.13 1840.25,-387.13"/>
<polygon fill="#757575" stroke="#757575" points="1843.75,-387.13 1840.25,-377.13 1836.75,-387.13 1843.75,-387.13"/>
</g>
<!-- src/loops/types.ts&#45;&gt;src/expressions/handlers.ts -->
<g id="edge74" class="edge">
<title>src/loops/types.ts&#45;&gt;src/expressions/handlers.ts</title>
<path fill="none" stroke="#757575" d="M822.75,-530.92C822.75,-476.28 822.75,-247 822.75,-247 822.75,-247 1345.28,-247 1345.28,-247"/>
<polygon fill="#757575" stroke="#757575" points="1345.28,-250.5 1355.28,-247 1345.28,-243.5 1345.28,-250.5"/>
</g>
<!-- src/types/namespace&#45;handler.ts&#45;&gt;src/expressions/handlers.ts -->
<g id="edge91" class="edge">
<title>src/types/namespace&#45;handler.ts&#45;&gt;src/expressions/handlers.ts</title>
<path fill="none" stroke="#757575" d="M1926.75,-353.99C1926.75,-325.5 1926.75,-254 1926.75,-254 1926.75,-254 1545.74,-254 1545.74,-254"/>
<polygon fill="#757575" stroke="#757575" points="1545.74,-250.5 1535.74,-254 1545.74,-257.5 1545.74,-250.5"/>
</g>
<!-- src/types/namespace&#45;handler.ts&#45;&gt;src/declarations.ts -->
<g id="edge90" class="edge">
<title>src/types/namespace&#45;handler.ts&#45;&gt;src/declarations.ts</title>
<path fill="none" stroke="#757575" d="M1994.33,-353.84C1994.33,-353.84 1994.33,-328.13 1994.33,-328.13"/>
<polygon fill="#757575" stroke="#757575" points="1997.83,-328.13 1994.33,-318.13 1990.83,-328.13 1997.83,-328.13"/>
</g>
<!-- src/types/namespace&#45;handler.ts&#45;&gt;src/utils/identifier&#45;utils.ts -->
<g id="edge92" class="edge">
<title>src/types/namespace&#45;handler.ts&#45;&gt;src/utils/identifier&#45;utils.ts</title>
<path fill="none" stroke="#757575" d="M1841,-353.84C1841,-353.84 1841,-328.13 1841,-328.13"/>
<polygon fill="#757575" stroke="#757575" points="1844.5,-328.13 1841,-318.13 1837.5,-328.13 1844.5,-328.13"/>
</g>
<!-- src/types/type&#45;declarations.ts&#45;&gt;src/declarations.ts -->
<g id="edge97" class="edge">
<title>src/types/type&#45;declarations.ts&#45;&gt;src/declarations.ts</title>
<path fill="none" stroke="#757575" d="M2155.75,-365C2100.66,-365 2042.25,-365 2042.25,-365 2042.25,-365 2042.25,-328.06 2042.25,-328.06"/>
<polygon fill="#757575" stroke="#757575" points="2045.75,-328.06 2042.25,-318.06 2038.75,-328.06 2045.75,-328.06"/>
</g>
<!-- src/types/type&#45;declarations.ts&#45;&gt;src/type&#45;utils.ts -->
<g id="edge98" class="edge">
<title>src/types/type&#45;declarations.ts&#45;&gt;src/type&#45;utils.ts</title>
<path fill="none" stroke="#757575" d="M2238,-353.9C2238,-293.43 2238,-17 2238,-17 2238,-17 2338.64,-17 2338.64,-17"/>
<polygon fill="#757575" stroke="#757575" points="2338.64,-20.5 2348.64,-17 2338.64,-13.5 2338.64,-20.5"/>
</g>
<!-- src/utils/interpret.ts -->
<g id="node43" class="node">
<title>src/utils/interpret.ts</title>
<path fill="none" stroke="#c6c5fe" d="M1140.83,-731C1140.83,-731 1026.17,-731 1026.17,-731 1022.33,-731 1018.5,-727.17 1018.5,-723.33 1018.5,-723.33 1018.5,-715.67 1018.5,-715.67 1018.5,-711.83 1022.33,-708 1026.17,-708 1026.17,-708 1140.83,-708 1140.83,-708 1144.67,-708 1148.5,-711.83 1148.5,-715.67 1148.5,-715.67 1148.5,-723.33 1148.5,-723.33 1148.5,-727.17 1144.67,-731 1140.83,-731"/>
<text text-anchor="middle" x="1083.5" y="-715.8" font-family="Arial" font-size="14.00" fill="#c6c5fe">src/utils/interpret.ts</text>
</g>
<!-- src/utils/interpret.ts&#45;&gt;src/app.ts -->
<g id="edge111" class="edge">
<title>src/utils/interpret.ts&#45;&gt;src/app.ts</title>
<path fill="none" stroke="#757575" d="M1083.5,-707.84C1083.5,-707.84 1083.5,-682.13 1083.5,-682.13"/>
<polygon fill="#757575" stroke="#757575" points="1087,-682.13 1083.5,-672.13 1080,-682.13 1087,-682.13"/>
</g>
<!-- tests/control/control&#45;flow.test.ts -->
<g id="node44" class="node">
<title>tests/control/control&#45;flow.test.ts</title>
<path fill="none" stroke="#c6c5fe" d="M193.33,-790C193.33,-790 7.67,-790 7.67,-790 3.83,-790 0,-786.17 0,-782.33 0,-782.33 0,-774.67 0,-774.67 0,-770.83 3.83,-767 7.67,-767 7.67,-767 193.33,-767 193.33,-767 197.17,-767 201,-770.83 201,-774.67 201,-774.67 201,-782.33 201,-782.33 201,-786.17 197.17,-790 193.33,-790"/>
<text text-anchor="middle" x="100.5" y="-774.8" font-family="Arial" font-size="14.00" fill="#c6c5fe">tests/control/control&#45;flow.test.ts</text>
</g>
<!-- tests/control/control&#45;flow.test.ts&#45;&gt;src/utils/interpret.ts -->
<g id="edge119" class="edge">
<title>tests/control/control&#45;flow.test.ts&#45;&gt;src/utils/interpret.ts</title>
<path fill="none" stroke="#757575" d="M100.5,-766.74C100.5,-747.4 100.5,-711 100.5,-711 100.5,-711 1008.24,-711 1008.24,-711"/>
<polygon fill="#757575" stroke="#757575" points="1008.24,-714.5 1018.24,-711 1008.24,-707.5 1008.24,-714.5"/>
</g>
<!-- tests/core/arithmetic.test.ts -->
<g id="node45" class="node">
<title>tests/core/arithmetic.test.ts</title>
<path fill="none" stroke="#c6c5fe" d="M389.83,-790C389.83,-790 227.17,-790 227.17,-790 223.33,-790 219.5,-786.17 219.5,-782.33 219.5,-782.33 219.5,-774.67 219.5,-774.67 219.5,-770.83 223.33,-767 227.17,-767 227.17,-767 389.83,-767 389.83,-767 393.67,-767 397.5,-770.83 397.5,-774.67 397.5,-774.67 397.5,-782.33 397.5,-782.33 397.5,-786.17 393.67,-790 389.83,-790"/>
<text text-anchor="middle" x="308.5" y="-774.8" font-family="Arial" font-size="14.00" fill="#c6c5fe">tests/core/arithmetic.test.ts</text>
</g>
<!-- tests/core/arithmetic.test.ts&#45;&gt;src/utils/interpret.ts -->
<g id="edge120" class="edge">
<title>tests/core/arithmetic.test.ts&#45;&gt;src/utils/interpret.ts</title>
<path fill="none" stroke="#757575" d="M340.5,-766.85C340.5,-748.52 340.5,-715 340.5,-715 340.5,-715 1008.21,-715 1008.21,-715"/>
<polygon fill="#757575" stroke="#757575" points="1008.21,-718.5 1018.21,-715 1008.21,-711.5 1008.21,-718.5"/>
</g>
<!-- tests/core/char.test.ts -->
<g id="node46" class="node">
<title>tests/core/char.test.ts</title>
<path fill="none" stroke="#c6c5fe" d="M551.83,-790C551.83,-790 423.17,-790 423.17,-790 419.33,-790 415.5,-786.17 415.5,-782.33 415.5,-782.33 415.5,-774.67 415.5,-774.67 415.5,-770.83 419.33,-767 423.17,-767 423.17,-767 551.83,-767 551.83,-767 555.67,-767 559.5,-770.83 559.5,-774.67 559.5,-774.67 559.5,-782.33 559.5,-782.33 559.5,-786.17 555.67,-790 551.83,-790"/>
<text text-anchor="middle" x="487.5" y="-774.8" font-family="Arial" font-size="14.00" fill="#c6c5fe">tests/core/char.test.ts</text>
</g>
<!-- tests/core/char.test.ts&#45;&gt;src/utils/interpret.ts -->
<g id="edge121" class="edge">
<title>tests/core/char.test.ts&#45;&gt;src/utils/interpret.ts</title>
<path fill="none" stroke="#757575" d="M534.5,-766.74C534.5,-749.4 534.5,-719 534.5,-719 534.5,-719 1008.37,-719 1008.37,-719"/>
<polygon fill="#757575" stroke="#757575" points="1008.37,-722.5 1018.37,-719 1008.37,-715.5 1008.37,-722.5"/>
</g>
<!-- tests/core/strings.test.ts -->
<g id="node47" class="node">
<title>tests/core/strings.test.ts</title>
<path fill="none" stroke="#c6c5fe" d="M727.83,-790C727.83,-790 585.17,-790 585.17,-790 581.33,-790 577.5,-786.17 577.5,-782.33 577.5,-782.33 577.5,-774.67 577.5,-774.67 577.5,-770.83 581.33,-767 585.17,-767 585.17,-767 727.83,-767 727.83,-767 731.67,-767 735.5,-770.83 735.5,-774.67 735.5,-774.67 735.5,-782.33 735.5,-782.33 735.5,-786.17 731.67,-790 727.83,-790"/>
<text text-anchor="middle" x="656.5" y="-774.8" font-family="Arial" font-size="14.00" fill="#c6c5fe">tests/core/strings.test.ts</text>
</g>
<!-- tests/core/strings.test.ts&#45;&gt;src/utils/interpret.ts -->
<g id="edge122" class="edge">
<title>tests/core/strings.test.ts&#45;&gt;src/utils/interpret.ts</title>
<path fill="none" stroke="#757575" d="M683.5,-766.73C683.5,-750.44 683.5,-723 683.5,-723 683.5,-723 1008.34,-723 1008.34,-723"/>
<polygon fill="#757575" stroke="#757575" points="1008.34,-726.5 1018.34,-723 1008.34,-719.5 1008.34,-726.5"/>
</g>
<!-- tests/functions/constructor.test.ts -->
<g id="node48" class="node">
<title>tests/functions/constructor.test.ts</title>
<path fill="none" stroke="#c6c5fe" d="M957.83,-790C957.83,-790 761.17,-790 761.17,-790 757.33,-790 753.5,-786.17 753.5,-782.33 753.5,-782.33 753.5,-774.67 753.5,-774.67 753.5,-770.83 757.33,-767 761.17,-767 761.17,-767 957.83,-767 957.83,-767 961.67,-767 965.5,-770.83 965.5,-774.67 965.5,-774.67 965.5,-782.33 965.5,-782.33 965.5,-786.17 961.67,-790 957.83,-790"/>
<text text-anchor="middle" x="859.5" y="-774.8" font-family="Arial" font-size="14.00" fill="#c6c5fe">tests/functions/constructor.test.ts</text>
</g>
<!-- tests/functions/constructor.test.ts&#45;&gt;src/utils/interpret.ts -->
<g id="edge123" class="edge">
<title>tests/functions/constructor.test.ts&#45;&gt;src/utils/interpret.ts</title>
<path fill="none" stroke="#757575" d="M939.5,-766.81C939.5,-751.62 939.5,-727 939.5,-727 939.5,-727 1008.24,-727 1008.24,-727"/>
<polygon fill="#757575" stroke="#757575" points="1008.24,-730.5 1018.24,-727 1008.24,-723.5 1008.24,-730.5"/>
</g>
<!-- tests/functions/functions.test.ts -->
<g id="node49" class="node">
<title>tests/functions/functions.test.ts</title>
<path fill="none" stroke="#c6c5fe" d="M1175.83,-790C1175.83,-790 991.17,-790 991.17,-790 987.33,-790 983.5,-786.17 983.5,-782.33 983.5,-782.33 983.5,-774.67 983.5,-774.67 983.5,-770.83 987.33,-767 991.17,-767 991.17,-767 1175.83,-767 1175.83,-767 1179.67,-767 1183.5,-770.83 1183.5,-774.67 1183.5,-774.67 1183.5,-782.33 1183.5,-782.33 1183.5,-786.17 1179.67,-790 1175.83,-790"/>
<text text-anchor="middle" x="1083.5" y="-774.8" font-family="Arial" font-size="14.00" fill="#c6c5fe">tests/functions/functions.test.ts</text>
</g>
<!-- tests/functions/functions.test.ts&#45;&gt;src/utils/interpret.ts -->
<g id="edge124" class="edge">
<title>tests/functions/functions.test.ts&#45;&gt;src/utils/interpret.ts</title>
<path fill="none" stroke="#757575" d="M1083.5,-766.84C1083.5,-766.84 1083.5,-741.13 1083.5,-741.13"/>
<polygon fill="#757575" stroke="#757575" points="1087,-741.13 1083.5,-731.13 1080,-741.13 1087,-741.13"/>
</g>
<!-- tests/functions/generic&#45;functions.test.ts -->
<g id="node50" class="node">
<title>tests/functions/generic&#45;functions.test.ts</title>
<path fill="none" stroke="#c6c5fe" d="M1443.33,-790C1443.33,-790 1209.67,-790 1209.67,-790 1205.83,-790 1202,-786.17 1202,-782.33 1202,-782.33 1202,-774.67 1202,-774.67 1202,-770.83 1205.83,-767 1209.67,-767 1209.67,-767 1443.33,-767 1443.33,-767 1447.17,-767 1451,-770.83 1451,-774.67 1451,-774.67 1451,-782.33 1451,-782.33 1451,-786.17 1447.17,-790 1443.33,-790"/>
<text text-anchor="middle" x="1326.5" y="-774.8" font-family="Arial" font-size="14.00" fill="#c6c5fe">tests/functions/generic&#45;functions.test.ts</text>
</g>
<!-- tests/functions/generic&#45;functions.test.ts&#45;&gt;src/utils/interpret.ts -->
<g id="edge125" class="edge">
<title>tests/functions/generic&#45;functions.test.ts&#45;&gt;src/utils/interpret.ts</title>
<path fill="none" stroke="#757575" d="M1312.25,-766.81C1312.25,-751.62 1312.25,-727 1312.25,-727 1312.25,-727 1158.74,-727 1158.74,-727"/>
<polygon fill="#757575" stroke="#757575" points="1158.74,-723.5 1148.74,-727 1158.74,-730.5 1158.74,-723.5"/>
</g>
<!-- tests/modules/modules.test.ts -->
<g id="node51" class="node">
<title>tests/modules/modules.test.ts</title>
<path fill="none" stroke="#c6c5fe" d="M1657.83,-790C1657.83,-790 1477.17,-790 1477.17,-790 1473.33,-790 1469.5,-786.17 1469.5,-782.33 1469.5,-782.33 1469.5,-774.67 1469.5,-774.67 1469.5,-770.83 1473.33,-767 1477.17,-767 1477.17,-767 1657.83,-767 1657.83,-767 1661.67,-767 1665.5,-770.83 1665.5,-774.67 1665.5,-774.67 1665.5,-782.33 1665.5,-782.33 1665.5,-786.17 1661.67,-790 1657.83,-790"/>
<text text-anchor="middle" x="1567.5" y="-774.8" font-family="Arial" font-size="14.00" fill="#c6c5fe">tests/modules/modules.test.ts</text>
</g>
<!-- tests/modules/modules.test.ts&#45;&gt;src/utils/interpret.ts -->
<g id="edge126" class="edge">
<title>tests/modules/modules.test.ts&#45;&gt;src/utils/interpret.ts</title>
<path fill="none" stroke="#757575" d="M1476.1,-766.73C1476.1,-750.44 1476.1,-723 1476.1,-723 1476.1,-723 1158.77,-723 1158.77,-723"/>
<polygon fill="#757575" stroke="#757575" points="1158.77,-719.5 1148.77,-723 1158.77,-726.5 1158.77,-719.5"/>
</g>
<!-- tests/types/generics.test.ts -->
<g id="node52" class="node">
<title>tests/types/generics.test.ts</title>
<path fill="none" stroke="#c6c5fe" d="M1851.83,-790C1851.83,-790 1691.17,-790 1691.17,-790 1687.33,-790 1683.5,-786.17 1683.5,-782.33 1683.5,-782.33 1683.5,-774.67 1683.5,-774.67 1683.5,-770.83 1687.33,-767 1691.17,-767 1691.17,-767 1851.83,-767 1851.83,-767 1855.67,-767 1859.5,-770.83 1859.5,-774.67 1859.5,-774.67 1859.5,-782.33 1859.5,-782.33 1859.5,-786.17 1855.67,-790 1851.83,-790"/>
<text text-anchor="middle" x="1771.5" y="-774.8" font-family="Arial" font-size="14.00" fill="#c6c5fe">tests/types/generics.test.ts</text>
</g>
<!-- tests/types/generics.test.ts&#45;&gt;src/utils/interpret.ts -->
<g id="edge127" class="edge">
<title>tests/types/generics.test.ts&#45;&gt;src/utils/interpret.ts</title>
<path fill="none" stroke="#757575" d="M1733.25,-766.74C1733.25,-749.4 1733.25,-719 1733.25,-719 1733.25,-719 1158.78,-719 1158.78,-719"/>
<polygon fill="#757575" stroke="#757575" points="1158.78,-715.5 1148.78,-719 1158.78,-722.5 1158.78,-715.5"/>
</g>
<!-- tests/types/types.test.ts -->
<g id="node53" class="node">
<title>tests/types/types.test.ts</title>
<path fill="none" stroke="#c6c5fe" d="M2027.33,-790C2027.33,-790 1885.67,-790 1885.67,-790 1881.83,-790 1878,-786.17 1878,-782.33 1878,-782.33 1878,-774.67 1878,-774.67 1878,-770.83 1881.83,-767 1885.67,-767 1885.67,-767 2027.33,-767 2027.33,-767 2031.17,-767 2035,-770.83 2035,-774.67 2035,-774.67 2035,-782.33 2035,-782.33 2035,-786.17 2031.17,-790 2027.33,-790"/>
<text text-anchor="middle" x="1956.5" y="-774.8" font-family="Arial" font-size="14.00" fill="#c6c5fe">tests/types/types.test.ts</text>
</g>
<!-- tests/types/types.test.ts&#45;&gt;src/utils/interpret.ts -->
<g id="edge128" class="edge">
<title>tests/types/types.test.ts&#45;&gt;src/utils/interpret.ts</title>
<path fill="none" stroke="#757575" d="M1956.5,-766.85C1956.5,-748.52 1956.5,-715 1956.5,-715 1956.5,-715 1158.76,-715 1158.76,-715"/>
<polygon fill="#757575" stroke="#757575" points="1158.76,-711.5 1148.76,-715 1158.76,-718.5 1158.76,-711.5"/>
</g>
<!-- tests/values/variables.test.ts -->
<g id="node54" class="node">
<title>tests/values/variables.test.ts</title>
<path fill="none" stroke="#c6c5fe" d="M2230.33,-790C2230.33,-790 2060.67,-790 2060.67,-790 2056.83,-790 2053,-786.17 2053,-782.33 2053,-782.33 2053,-774.67 2053,-774.67 2053,-770.83 2056.83,-767 2060.67,-767 2060.67,-767 2230.33,-767 2230.33,-767 2234.17,-767 2238,-770.83 2238,-774.67 2238,-774.67 2238,-782.33 2238,-782.33 2238,-786.17 2234.17,-790 2230.33,-790"/>
<text text-anchor="middle" x="2145.5" y="-774.8" font-family="Arial" font-size="14.00" fill="#c6c5fe">tests/values/variables.test.ts</text>
</g>
<!-- tests/values/variables.test.ts&#45;&gt;src/utils/interpret.ts -->
<g id="edge129" class="edge">
<title>tests/values/variables.test.ts&#45;&gt;src/utils/interpret.ts</title>
<path fill="none" stroke="#757575" d="M2059.75,-766.74C2059.75,-747.4 2059.75,-711 2059.75,-711 2059.75,-711 1158.69,-711 1158.69,-711"/>
<polygon fill="#757575" stroke="#757575" points="1158.69,-707.5 1148.69,-711 1158.69,-714.5 1158.69,-707.5"/>
</g>
</g>
</svg>
