<?xml version="1.0" encoding="UTF-8" standalone="no"?>
<!DOCTYPE svg PUBLIC "-//W3C//DTD SVG 1.1//EN"
 "http://www.w3.org/Graphics/SVG/1.1/DTD/svg11.dtd">
<!-- Generated by graphviz version 2.43.0 (0)
 -->
<!-- Title: G Pages: 1 -->
<svg width="2160pt" height="538pt"
 viewBox="0.00 0.00 2160.20 538.20" xmlns="http://www.w3.org/2000/svg" xmlns:xlink="http://www.w3.org/1999/xlink">
<g id="graph0" class="graph" transform="scale(1 1) rotate(0) translate(21.6 516.6)">
<title>G</title>
<polygon fill="#111111" stroke="transparent" points="-21.6,21.6 -21.6,-516.6 2138.6,-516.6 2138.6,21.6 -21.6,21.6"/>
<!-- src/app.ts -->
<g id="node1" class="node">
<title>src/app.ts</title>
<path fill="none" stroke="#c6c5fe" d="M890.83,-377C890.83,-377 831.17,-377 831.17,-377 827.33,-377 823.5,-373.17 823.5,-369.33 823.5,-369.33 823.5,-361.67 823.5,-361.67 823.5,-357.83 827.33,-354 831.17,-354 831.17,-354 890.83,-354 890.83,-354 894.67,-354 898.5,-357.83 898.5,-361.67 898.5,-361.67 898.5,-369.33 898.5,-369.33 898.5,-373.17 894.67,-377 890.83,-377"/>
<text text-anchor="middle" x="861" y="-361.8" font-family="Arial" font-size="14.00" fill="#c6c5fe">src/app.ts</text>
</g>
<!-- src/expressions/binary&#45;operation.ts -->
<g id="node2" class="node">
<title>src/expressions/binary&#45;operation.ts</title>
<path fill="none" stroke="#c6c5fe" d="M2057.33,-259C2057.33,-259 1846.67,-259 1846.67,-259 1842.83,-259 1839,-255.17 1839,-251.33 1839,-251.33 1839,-243.67 1839,-243.67 1839,-239.83 1842.83,-236 1846.67,-236 1846.67,-236 2057.33,-236 2057.33,-236 2061.17,-236 2065,-239.83 2065,-243.67 2065,-243.67 2065,-251.33 2065,-251.33 2065,-255.17 2061.17,-259 2057.33,-259"/>
<text text-anchor="middle" x="1952" y="-243.8" font-family="Arial" font-size="14.00" fill="#c6c5fe">src/expressions/binary&#45;operation.ts</text>
</g>
<!-- src/app.ts&#45;&gt;src/expressions/binary&#45;operation.ts -->
<g id="edge1" class="edge">
<title>src/app.ts&#45;&gt;src/expressions/binary&#45;operation.ts</title>
<path fill="none" stroke="#757575" d="M898.55,-370C1090.4,-370 1952,-370 1952,-370 1952,-370 1952,-269.25 1952,-269.25"/>
<polygon fill="#757575" stroke="#757575" points="1955.5,-269.25 1952,-259.25 1948.5,-269.25 1955.5,-269.25"/>
</g>
<!-- src/expressions/grouped&#45;expressions.ts -->
<g id="node3" class="node">
<title>src/expressions/grouped&#45;expressions.ts</title>
<path fill="none" stroke="#c6c5fe" d="M246.33,-200C246.33,-200 7.67,-200 7.67,-200 3.83,-200 0,-196.17 0,-192.33 0,-192.33 0,-184.67 0,-184.67 0,-180.83 3.83,-177 7.67,-177 7.67,-177 246.33,-177 246.33,-177 250.17,-177 254,-180.83 254,-184.67 254,-184.67 254,-192.33 254,-192.33 254,-196.17 250.17,-200 246.33,-200"/>
<text text-anchor="middle" x="127" y="-184.8" font-family="Arial" font-size="14.00" fill="#c6c5fe">src/expressions/grouped&#45;expressions.ts</text>
</g>
<!-- src/app.ts&#45;&gt;src/expressions/grouped&#45;expressions.ts -->
<g id="edge2" class="edge">
<title>src/app.ts&#45;&gt;src/expressions/grouped&#45;expressions.ts</title>
<path fill="none" stroke="#757575" d="M823.34,-373C673.4,-373 127,-373 127,-373 127,-373 127,-210.04 127,-210.04"/>
<polygon fill="#757575" stroke="#757575" points="130.5,-210.04 127,-200.04 123.5,-210.04 130.5,-210.04"/>
</g>
<!-- src/expressions/handlers.ts -->
<g id="node4" class="node">
<title>src/expressions/handlers.ts</title>
<path fill="none" stroke="#cfffac" d="M663.33,-23C663.33,-23 498.67,-23 498.67,-23 494.83,-23 491,-19.17 491,-15.33 491,-15.33 491,-7.67 491,-7.67 491,-3.83 494.83,0 498.67,0 498.67,0 663.33,0 663.33,0 667.17,0 671,-3.83 671,-7.67 671,-7.67 671,-15.33 671,-15.33 671,-19.17 667.17,-23 663.33,-23"/>
<text text-anchor="middle" x="581" y="-7.8" font-family="Arial" font-size="14.00" fill="#cfffac">src/expressions/handlers.ts</text>
</g>
<!-- src/app.ts&#45;&gt;src/expressions/handlers.ts -->
<g id="edge3" class="edge">
<title>src/app.ts&#45;&gt;src/expressions/handlers.ts</title>
<path fill="none" stroke="#757575" d="M823.39,-357C789.88,-357 746.12,-357 746.12,-357 746.12,-357 746.12,-9 746.12,-9 746.12,-9 681.29,-9 681.29,-9"/>
<polygon fill="#757575" stroke="#757575" points="681.29,-5.5 671.29,-9 681.29,-12.5 681.29,-5.5"/>
</g>
<!-- src/functions.ts -->
<g id="node5" class="node">
<title>src/functions.ts</title>
<path fill="none" stroke="#c6c5fe" d="M1257.83,-200C1257.83,-200 1166.17,-200 1166.17,-200 1162.33,-200 1158.5,-196.17 1158.5,-192.33 1158.5,-192.33 1158.5,-184.67 1158.5,-184.67 1158.5,-180.83 1162.33,-177 1166.17,-177 1166.17,-177 1257.83,-177 1257.83,-177 1261.67,-177 1265.5,-180.83 1265.5,-184.67 1265.5,-184.67 1265.5,-192.33 1265.5,-192.33 1265.5,-196.17 1261.67,-200 1257.83,-200"/>
<text text-anchor="middle" x="1212" y="-184.8" font-family="Arial" font-size="14.00" fill="#c6c5fe">src/functions.ts</text>
</g>
<!-- src/app.ts&#45;&gt;src/functions.ts -->
<g id="edge4" class="edge">
<title>src/app.ts&#45;&gt;src/functions.ts</title>
<path fill="none" stroke="#757575" d="M898.73,-360C986.8,-360 1198.5,-360 1198.5,-360 1198.5,-360 1198.5,-210.02 1198.5,-210.02"/>
<polygon fill="#757575" stroke="#757575" points="1202,-210.02 1198.5,-200.02 1195,-210.02 1202,-210.02"/>
</g>
<!-- src/handlers/dereference&#45;assignment.ts -->
<g id="node6" class="node">
<title>src/handlers/dereference&#45;assignment.ts</title>
<path fill="none" stroke="#c6c5fe" d="M705.33,-318C705.33,-318 466.67,-318 466.67,-318 462.83,-318 459,-314.17 459,-310.33 459,-310.33 459,-302.67 459,-302.67 459,-298.83 462.83,-295 466.67,-295 466.67,-295 705.33,-295 705.33,-295 709.17,-295 713,-298.83 713,-302.67 713,-302.67 713,-310.33 713,-310.33 713,-314.17 709.17,-318 705.33,-318"/>
<text text-anchor="middle" x="586" y="-302.8" font-family="Arial" font-size="14.00" fill="#c6c5fe">src/handlers/dereference&#45;assignment.ts</text>
</g>
<!-- src/app.ts&#45;&gt;src/handlers/dereference&#45;assignment.ts -->
<g id="edge5" class="edge">
<title>src/app.ts&#45;&gt;src/handlers/dereference&#45;assignment.ts</title>
<path fill="none" stroke="#757575" d="M830.83,-353.74C830.83,-336.4 830.83,-306 830.83,-306 830.83,-306 723.08,-306 723.08,-306"/>
<polygon fill="#757575" stroke="#757575" points="723.08,-302.5 713.08,-306 723.08,-309.5 723.08,-302.5"/>
</g>
<!-- src/handlers/lambda&#45;expressions.ts -->
<g id="node7" class="node">
<title>src/handlers/lambda&#45;expressions.ts</title>
<path fill="none" stroke="#c6c5fe" d="M1481.33,-259C1481.33,-259 1266.67,-259 1266.67,-259 1262.83,-259 1259,-255.17 1259,-251.33 1259,-251.33 1259,-243.67 1259,-243.67 1259,-239.83 1262.83,-236 1266.67,-236 1266.67,-236 1481.33,-236 1481.33,-236 1485.17,-236 1489,-239.83 1489,-243.67 1489,-243.67 1489,-251.33 1489,-251.33 1489,-255.17 1485.17,-259 1481.33,-259"/>
<text text-anchor="middle" x="1374" y="-243.8" font-family="Arial" font-size="14.00" fill="#c6c5fe">src/handlers/lambda&#45;expressions.ts</text>
</g>
<!-- src/app.ts&#45;&gt;src/handlers/lambda&#45;expressions.ts -->
<g id="edge6" class="edge">
<title>src/app.ts&#45;&gt;src/handlers/lambda&#45;expressions.ts</title>
<path fill="none" stroke="#757575" d="M898.72,-363C1017.19,-363 1374,-363 1374,-363 1374,-363 1374,-269.43 1374,-269.43"/>
<polygon fill="#757575" stroke="#757575" points="1377.5,-269.43 1374,-259.43 1370.5,-269.43 1377.5,-269.43"/>
</g>
<!-- src/handlers/pointer&#45;operations.ts -->
<g id="node8" class="node">
<title>src/handlers/pointer&#45;operations.ts</title>
<path fill="none" stroke="#c6c5fe" d="M733.83,-259C733.83,-259 532.17,-259 532.17,-259 528.33,-259 524.5,-255.17 524.5,-251.33 524.5,-251.33 524.5,-243.67 524.5,-243.67 524.5,-239.83 528.33,-236 532.17,-236 532.17,-236 733.83,-236 733.83,-236 737.67,-236 741.5,-239.83 741.5,-243.67 741.5,-243.67 741.5,-251.33 741.5,-251.33 741.5,-255.17 737.67,-259 733.83,-259"/>
<text text-anchor="middle" x="633" y="-243.8" font-family="Arial" font-size="14.00" fill="#c6c5fe">src/handlers/pointer&#45;operations.ts</text>
</g>
<!-- src/app.ts&#45;&gt;src/handlers/pointer&#45;operations.ts -->
<g id="edge7" class="edge">
<title>src/app.ts&#45;&gt;src/handlers/pointer&#45;operations.ts</title>
<path fill="none" stroke="#757575" d="M823.39,-361C783.83,-361 727.25,-361 727.25,-361 727.25,-361 727.25,-269.22 727.25,-269.22"/>
<polygon fill="#757575" stroke="#757575" points="730.75,-269.22 727.25,-259.22 723.75,-269.22 730.75,-269.22"/>
</g>
<!-- src/loops/for.ts -->
<g id="node9" class="node">
<title>src/loops/for.ts</title>
<path fill="none" stroke="#c6c5fe" d="M1079.33,-318C1079.33,-318 990.67,-318 990.67,-318 986.83,-318 983,-314.17 983,-310.33 983,-310.33 983,-302.67 983,-302.67 983,-298.83 986.83,-295 990.67,-295 990.67,-295 1079.33,-295 1079.33,-295 1083.17,-295 1087,-298.83 1087,-302.67 1087,-302.67 1087,-310.33 1087,-310.33 1087,-314.17 1083.17,-318 1079.33,-318"/>
<text text-anchor="middle" x="1035" y="-302.8" font-family="Arial" font-size="14.00" fill="#c6c5fe">src/loops/for.ts</text>
</g>
<!-- src/app.ts&#45;&gt;src/loops/for.ts -->
<g id="edge8" class="edge">
<title>src/app.ts&#45;&gt;src/loops/for.ts</title>
<path fill="none" stroke="#757575" d="M898.72,-357C947.78,-357 1027.25,-357 1027.25,-357 1027.25,-357 1027.25,-328.21 1027.25,-328.21"/>
<polygon fill="#757575" stroke="#757575" points="1030.75,-328.21 1027.25,-318.21 1023.75,-328.21 1030.75,-328.21"/>
</g>
<!-- src/loops/loop.ts -->
<g id="node10" class="node">
<title>src/loops/loop.ts</title>
<path fill="none" stroke="#cfffac" d="M866.33,-259C866.33,-259 767.67,-259 767.67,-259 763.83,-259 760,-255.17 760,-251.33 760,-251.33 760,-243.67 760,-243.67 760,-239.83 763.83,-236 767.67,-236 767.67,-236 866.33,-236 866.33,-236 870.17,-236 874,-239.83 874,-243.67 874,-243.67 874,-251.33 874,-251.33 874,-255.17 870.17,-259 866.33,-259"/>
<text text-anchor="middle" x="817" y="-243.8" font-family="Arial" font-size="14.00" fill="#cfffac">src/loops/loop.ts</text>
</g>
<!-- src/app.ts&#45;&gt;src/loops/loop.ts -->
<g id="edge9" class="edge">
<title>src/app.ts&#45;&gt;src/loops/loop.ts</title>
<path fill="none" stroke="#757575" d="M838.17,-353.75C838.17,-353.75 838.17,-269.2 838.17,-269.2"/>
<polygon fill="#757575" stroke="#757575" points="841.67,-269.2 838.17,-259.2 834.67,-269.2 841.67,-269.2"/>
</g>
<!-- src/loops/while.ts -->
<g id="node11" class="node">
<title>src/loops/while.ts</title>
<path fill="none" stroke="#c6c5fe" d="M956.83,-318C956.83,-318 853.17,-318 853.17,-318 849.33,-318 845.5,-314.17 845.5,-310.33 845.5,-310.33 845.5,-302.67 845.5,-302.67 845.5,-298.83 849.33,-295 853.17,-295 853.17,-295 956.83,-295 956.83,-295 960.67,-295 964.5,-298.83 964.5,-302.67 964.5,-302.67 964.5,-310.33 964.5,-310.33 964.5,-314.17 960.67,-318 956.83,-318"/>
<text text-anchor="middle" x="905" y="-302.8" font-family="Arial" font-size="14.00" fill="#c6c5fe">src/loops/while.ts</text>
</g>
<!-- src/app.ts&#45;&gt;src/loops/while.ts -->
<g id="edge10" class="edge">
<title>src/app.ts&#45;&gt;src/loops/while.ts</title>
<path fill="none" stroke="#757575" d="M872,-353.84C872,-353.84 872,-328.13 872,-328.13"/>
<polygon fill="#757575" stroke="#757575" points="875.5,-328.13 872,-318.13 868.5,-328.13 875.5,-328.13"/>
</g>
<!-- src/match.ts -->
<g id="node12" class="node">
<title>src/match.ts</title>
<path fill="none" stroke="#cfffac" d="M282.33,-141C282.33,-141 207.67,-141 207.67,-141 203.83,-141 200,-137.17 200,-133.33 200,-133.33 200,-125.67 200,-125.67 200,-121.83 203.83,-118 207.67,-118 207.67,-118 282.33,-118 282.33,-118 286.17,-118 290,-121.83 290,-125.67 290,-125.67 290,-133.33 290,-133.33 290,-137.17 286.17,-141 282.33,-141"/>
<text text-anchor="middle" x="245" y="-125.8" font-family="Arial" font-size="14.00" fill="#cfffac">src/match.ts</text>
</g>
<!-- src/app.ts&#45;&gt;src/match.ts -->
<g id="edge11" class="edge">
<title>src/app.ts&#45;&gt;src/match.ts</title>
<path fill="none" stroke="#757575" d="M823.26,-369C693.26,-369 272,-369 272,-369 272,-369 272,-151.05 272,-151.05"/>
<polygon fill="#757575" stroke="#757575" points="275.5,-151.05 272,-141.05 268.5,-151.05 275.5,-151.05"/>
</g>
<!-- src/parser.ts -->
<g id="node13" class="node">
<title>src/parser.ts</title>
<path fill="none" stroke="#c6c5fe" d="M2109.33,-141C2109.33,-141 2034.67,-141 2034.67,-141 2030.83,-141 2027,-137.17 2027,-133.33 2027,-133.33 2027,-125.67 2027,-125.67 2027,-121.83 2030.83,-118 2034.67,-118 2034.67,-118 2109.33,-118 2109.33,-118 2113.17,-118 2117,-121.83 2117,-125.67 2117,-125.67 2117,-133.33 2117,-133.33 2117,-137.17 2113.17,-141 2109.33,-141"/>
<text text-anchor="middle" x="2072" y="-125.8" font-family="Arial" font-size="14.00" fill="#c6c5fe">src/parser.ts</text>
</g>
<!-- src/app.ts&#45;&gt;src/parser.ts -->
<g id="edge12" class="edge">
<title>src/app.ts&#45;&gt;src/parser.ts</title>
<path fill="none" stroke="#757575" d="M898.54,-373C1106.13,-373 2104.12,-373 2104.12,-373 2104.12,-373 2104.12,-151.24 2104.12,-151.24"/>
<polygon fill="#757575" stroke="#757575" points="2107.63,-151.24 2104.12,-141.24 2100.63,-151.24 2107.63,-151.24"/>
</g>
<!-- src/scope.ts -->
<g id="node14" class="node">
<title>src/scope.ts</title>
<path fill="none" stroke="#c6c5fe" d="M1612.83,-318C1612.83,-318 1539.17,-318 1539.17,-318 1535.33,-318 1531.5,-314.17 1531.5,-310.33 1531.5,-310.33 1531.5,-302.67 1531.5,-302.67 1531.5,-298.83 1535.33,-295 1539.17,-295 1539.17,-295 1612.83,-295 1612.83,-295 1616.67,-295 1620.5,-298.83 1620.5,-302.67 1620.5,-302.67 1620.5,-310.33 1620.5,-310.33 1620.5,-314.17 1616.67,-318 1612.83,-318"/>
<text text-anchor="middle" x="1576" y="-302.8" font-family="Arial" font-size="14.00" fill="#c6c5fe">src/scope.ts</text>
</g>
<!-- src/app.ts&#45;&gt;src/scope.ts -->
<g id="edge13" class="edge">
<title>src/app.ts&#45;&gt;src/scope.ts</title>
<path fill="none" stroke="#757575" d="M898.69,-367C1046.15,-367 1576,-367 1576,-367 1576,-367 1576,-328.17 1576,-328.17"/>
<polygon fill="#757575" stroke="#757575" points="1579.5,-328.16 1576,-318.17 1572.5,-328.17 1579.5,-328.16"/>
</g>
<!-- src/utils/app&#45;handlers.ts -->
<g id="node15" class="node">
<title>src/utils/app&#45;handlers.ts</title>
<path fill="none" stroke="#c6c5fe" d="M498.83,-259C498.83,-259 355.17,-259 355.17,-259 351.33,-259 347.5,-255.17 347.5,-251.33 347.5,-251.33 347.5,-243.67 347.5,-243.67 347.5,-239.83 351.33,-236 355.17,-236 355.17,-236 498.83,-236 498.83,-236 502.67,-236 506.5,-239.83 506.5,-243.67 506.5,-243.67 506.5,-251.33 506.5,-251.33 506.5,-255.17 502.67,-259 498.83,-259"/>
<text text-anchor="middle" x="427" y="-243.8" font-family="Arial" font-size="14.00" fill="#c6c5fe">src/utils/app&#45;handlers.ts</text>
</g>
<!-- src/app.ts&#45;&gt;src/utils/app&#45;handlers.ts -->
<g id="edge14" class="edge">
<title>src/app.ts&#45;&gt;src/utils/app&#45;handlers.ts</title>
<path fill="none" stroke="#757575" d="M823.39,-365C722.51,-365 453.5,-365 453.5,-365 453.5,-365 453.5,-269.2 453.5,-269.2"/>
<polygon fill="#757575" stroke="#757575" points="457,-269.2 453.5,-259.2 450,-269.2 457,-269.2"/>
</g>
<!-- src/expressions/binary&#45;operation.ts&#45;&gt;src/expressions/handlers.ts -->
<g id="edge16" class="edge">
<title>src/expressions/binary&#45;operation.ts&#45;&gt;src/expressions/handlers.ts</title>
<path fill="none" stroke="#757575" d="M1850.75,-235.84C1850.75,-227.6 1850.75,-218 1850.75,-218 1850.75,-218 536,-218 536,-218 536,-218 536,-33.19 536,-33.19"/>
<polygon fill="#757575" stroke="#757575" points="539.5,-33.19 536,-23.19 532.5,-33.19 539.5,-33.19"/>
</g>
<!-- src/expressions/binary&#45;operation.ts&#45;&gt;src/parser.ts -->
<g id="edge18" class="edge">
<title>src/expressions/binary&#45;operation.ts&#45;&gt;src/parser.ts</title>
<path fill="none" stroke="#757575" d="M2065.33,-247C2073.36,-247 2078.38,-247 2078.38,-247 2078.38,-247 2078.38,-151.2 2078.38,-151.2"/>
<polygon fill="#757575" stroke="#757575" points="2081.88,-151.2 2078.38,-141.2 2074.88,-151.2 2081.88,-151.2"/>
</g>
<!-- src/expressions/operators.ts -->
<g id="node17" class="node">
<title>src/expressions/operators.ts</title>
<path fill="none" stroke="#c6c5fe" d="M2057.83,-200C2057.83,-200 1888.17,-200 1888.17,-200 1884.33,-200 1880.5,-196.17 1880.5,-192.33 1880.5,-192.33 1880.5,-184.67 1880.5,-184.67 1880.5,-180.83 1884.33,-177 1888.17,-177 1888.17,-177 2057.83,-177 2057.83,-177 2061.67,-177 2065.5,-180.83 2065.5,-184.67 2065.5,-184.67 2065.5,-192.33 2065.5,-192.33 2065.5,-196.17 2061.67,-200 2057.83,-200"/>
<text text-anchor="middle" x="1973" y="-184.8" font-family="Arial" font-size="14.00" fill="#c6c5fe">src/expressions/operators.ts</text>
</g>
<!-- src/expressions/binary&#45;operation.ts&#45;&gt;src/expressions/operators.ts -->
<g id="edge17" class="edge">
<title>src/expressions/binary&#45;operation.ts&#45;&gt;src/expressions/operators.ts</title>
<path fill="none" stroke="#757575" d="M1972.75,-235.84C1972.75,-235.84 1972.75,-210.13 1972.75,-210.13"/>
<polygon fill="#757575" stroke="#757575" points="1976.25,-210.13 1972.75,-200.13 1969.25,-210.13 1976.25,-210.13"/>
</g>
<!-- src/expressions/grouped&#45;expressions.ts&#45;&gt;src/expressions/handlers.ts -->
<g id="edge19" class="edge">
<title>src/expressions/grouped&#45;expressions.ts&#45;&gt;src/expressions/handlers.ts</title>
<path fill="none" stroke="#757575" d="M254.05,-186C360.83,-186 496.17,-186 496.17,-186 496.17,-186 496.17,-33.22 496.17,-33.22"/>
<polygon fill="#757575" stroke="#757575" points="499.67,-33.22 496.17,-23.22 492.67,-33.22 499.67,-33.22"/>
</g>
<!-- src/expressions/grouped&#45;expressions.ts&#45;&gt;src/match.ts -->
<g id="edge20" class="edge">
<title>src/expressions/grouped&#45;expressions.ts&#45;&gt;src/match.ts</title>
<path fill="none" stroke="#757575" d="M227,-176.84C227,-176.84 227,-151.13 227,-151.13"/>
<polygon fill="#757575" stroke="#757575" points="230.5,-151.13 227,-141.13 223.5,-151.13 230.5,-151.13"/>
</g>
<!-- src/types/structs.ts -->
<g id="node18" class="node">
<title>src/types/structs.ts</title>
<path fill="none" stroke="#c6c5fe" d="M483.33,-141C483.33,-141 370.67,-141 370.67,-141 366.83,-141 363,-137.17 363,-133.33 363,-133.33 363,-125.67 363,-125.67 363,-121.83 366.83,-118 370.67,-118 370.67,-118 483.33,-118 483.33,-118 487.17,-118 491,-121.83 491,-125.67 491,-125.67 491,-133.33 491,-133.33 491,-137.17 487.17,-141 483.33,-141"/>
<text text-anchor="middle" x="427" y="-125.8" font-family="Arial" font-size="14.00" fill="#c6c5fe">src/types/structs.ts</text>
</g>
<!-- src/expressions/grouped&#45;expressions.ts&#45;&gt;src/types/structs.ts -->
<g id="edge21" class="edge">
<title>src/expressions/grouped&#45;expressions.ts&#45;&gt;src/types/structs.ts</title>
<path fill="none" stroke="#757575" d="M254.33,-181C323.48,-181 395,-181 395,-181 395,-181 395,-151.19 395,-151.19"/>
<polygon fill="#757575" stroke="#757575" points="398.5,-151.19 395,-141.19 391.5,-151.19 398.5,-151.19"/>
</g>
<!-- src/utils/identifier&#45;utils.ts -->
<g id="node19" class="node">
<title>src/utils/identifier&#45;utils.ts</title>
<path fill="none" stroke="#cfffac" d="M1023.33,-82C1023.33,-82 878.67,-82 878.67,-82 874.83,-82 871,-78.17 871,-74.33 871,-74.33 871,-66.67 871,-66.67 871,-62.83 874.83,-59 878.67,-59 878.67,-59 1023.33,-59 1023.33,-59 1027.17,-59 1031,-62.83 1031,-66.67 1031,-66.67 1031,-74.33 1031,-74.33 1031,-78.17 1027.17,-82 1023.33,-82"/>
<text text-anchor="middle" x="951" y="-66.8" font-family="Arial" font-size="14.00" fill="#cfffac">src/utils/identifier&#45;utils.ts</text>
</g>
<!-- src/expressions/grouped&#45;expressions.ts&#45;&gt;src/utils/identifier&#45;utils.ts -->
<g id="edge22" class="edge">
<title>src/expressions/grouped&#45;expressions.ts&#45;&gt;src/utils/identifier&#45;utils.ts</title>
<path fill="none" stroke="#757575" d="M254.01,-190C469.41,-190 883.25,-190 883.25,-190 883.25,-190 883.25,-92.4 883.25,-92.4"/>
<polygon fill="#757575" stroke="#757575" points="886.75,-92.39 883.25,-82.4 879.75,-92.4 886.75,-92.39"/>
</g>
<!-- src/functions.ts&#45;&gt;src/expressions/handlers.ts -->
<g id="edge30" class="edge">
<title>src/functions.ts&#45;&gt;src/expressions/handlers.ts</title>
<path fill="none" stroke="#757575" d="M1204.25,-176.96C1204.25,-136.57 1204.25,-4 1204.25,-4 1204.25,-4 681.29,-4 681.29,-4"/>
<polygon fill="#757575" stroke="#757575" points="681.29,-0.5 671.29,-4 681.29,-7.5 681.29,-0.5"/>
</g>
<!-- src/functions.ts&#45;&gt;src/utils/identifier&#45;utils.ts -->
<g id="edge34" class="edge">
<title>src/functions.ts&#45;&gt;src/utils/identifier&#45;utils.ts</title>
<path fill="none" stroke="#757575" d="M1199.62,-176.99C1199.62,-148.5 1199.62,-77 1199.62,-77 1199.62,-77 1041.04,-77 1041.04,-77"/>
<polygon fill="#757575" stroke="#757575" points="1041.04,-73.5 1031.04,-77 1041.04,-80.5 1041.04,-73.5"/>
</g>
<!-- src/handlers/anonymous&#45;functions.ts -->
<g id="node24" class="node">
<title>src/handlers/anonymous&#45;functions.ts</title>
<path fill="none" stroke="#c6c5fe" d="M1442.83,-141C1442.83,-141 1221.17,-141 1221.17,-141 1217.33,-141 1213.5,-137.17 1213.5,-133.33 1213.5,-133.33 1213.5,-125.67 1213.5,-125.67 1213.5,-121.83 1217.33,-118 1221.17,-118 1221.17,-118 1442.83,-118 1442.83,-118 1446.67,-118 1450.5,-121.83 1450.5,-125.67 1450.5,-125.67 1450.5,-133.33 1450.5,-133.33 1450.5,-137.17 1446.67,-141 1442.83,-141"/>
<text text-anchor="middle" x="1332" y="-125.8" font-family="Arial" font-size="14.00" fill="#c6c5fe">src/handlers/anonymous&#45;functions.ts</text>
</g>
<!-- src/functions.ts&#45;&gt;src/handlers/anonymous&#45;functions.ts -->
<g id="edge31" class="edge">
<title>src/functions.ts&#45;&gt;src/handlers/anonymous&#45;functions.ts</title>
<path fill="none" stroke="#757575" d="M1239.5,-176.84C1239.5,-176.84 1239.5,-151.13 1239.5,-151.13"/>
<polygon fill="#757575" stroke="#757575" points="1243,-151.13 1239.5,-141.13 1236,-151.13 1243,-151.13"/>
</g>
<!-- src/handlers/function&#45;declaration.ts -->
<g id="node25" class="node">
<title>src/handlers/function&#45;declaration.ts</title>
<path fill="none" stroke="#c6c5fe" d="M1187.33,-141C1187.33,-141 976.67,-141 976.67,-141 972.83,-141 969,-137.17 969,-133.33 969,-133.33 969,-125.67 969,-125.67 969,-121.83 972.83,-118 976.67,-118 976.67,-118 1187.33,-118 1187.33,-118 1191.17,-118 1195,-121.83 1195,-125.67 1195,-125.67 1195,-133.33 1195,-133.33 1195,-137.17 1191.17,-141 1187.33,-141"/>
<text text-anchor="middle" x="1082" y="-125.8" font-family="Arial" font-size="14.00" fill="#c6c5fe">src/handlers/function&#45;declaration.ts</text>
</g>
<!-- src/functions.ts&#45;&gt;src/handlers/function&#45;declaration.ts -->
<g id="edge32" class="edge">
<title>src/functions.ts&#45;&gt;src/handlers/function&#45;declaration.ts</title>
<path fill="none" stroke="#757575" d="M1176.75,-176.84C1176.75,-176.84 1176.75,-151.13 1176.75,-151.13"/>
<polygon fill="#757575" stroke="#757575" points="1180.25,-151.13 1176.75,-141.13 1173.25,-151.13 1180.25,-151.13"/>
</g>
<!-- src/utils/function&#45;utils.ts -->
<g id="node26" class="node">
<title>src/utils/function&#45;utils.ts</title>
<path fill="none" stroke="#c6c5fe" d="M1519.33,-82C1519.33,-82 1378.67,-82 1378.67,-82 1374.83,-82 1371,-78.17 1371,-74.33 1371,-74.33 1371,-66.67 1371,-66.67 1371,-62.83 1374.83,-59 1378.67,-59 1378.67,-59 1519.33,-59 1519.33,-59 1523.17,-59 1527,-62.83 1527,-66.67 1527,-66.67 1527,-74.33 1527,-74.33 1527,-78.17 1523.17,-82 1519.33,-82"/>
<text text-anchor="middle" x="1449" y="-66.8" font-family="Arial" font-size="14.00" fill="#c6c5fe">src/utils/function&#45;utils.ts</text>
</g>
<!-- src/functions.ts&#45;&gt;src/utils/function&#45;utils.ts -->
<g id="edge33" class="edge">
<title>src/functions.ts&#45;&gt;src/utils/function&#45;utils.ts</title>
<path fill="none" stroke="#757575" d="M1208.88,-176.9C1208.88,-147.44 1208.88,-72 1208.88,-72 1208.88,-72 1360.71,-72 1360.71,-72"/>
<polygon fill="#757575" stroke="#757575" points="1360.71,-75.5 1370.71,-72 1360.71,-68.5 1360.71,-75.5"/>
</g>
<!-- src/handlers/dereference&#45;assignment.ts&#45;&gt;src/expressions/handlers.ts -->
<g id="edge38" class="edge">
<title>src/handlers/dereference&#45;assignment.ts&#45;&gt;src/expressions/handlers.ts</title>
<path fill="none" stroke="#757575" d="M515.5,-294.94C515.5,-294.94 515.5,-33.3 515.5,-33.3"/>
<polygon fill="#757575" stroke="#757575" points="519,-33.3 515.5,-23.3 512,-33.31 519,-33.3"/>
</g>
<!-- src/handlers/dereference&#45;assignment.ts&#45;&gt;src/handlers/pointer&#45;operations.ts -->
<g id="edge39" class="edge">
<title>src/handlers/dereference&#45;assignment.ts&#45;&gt;src/handlers/pointer&#45;operations.ts</title>
<path fill="none" stroke="#757575" d="M618.75,-294.84C618.75,-294.84 618.75,-269.13 618.75,-269.13"/>
<polygon fill="#757575" stroke="#757575" points="622.25,-269.13 618.75,-259.13 615.25,-269.13 622.25,-269.13"/>
</g>
<!-- src/handlers/lambda&#45;expressions.ts&#45;&gt;src/functions.ts -->
<g id="edge44" class="edge">
<title>src/handlers/lambda&#45;expressions.ts&#45;&gt;src/functions.ts</title>
<path fill="none" stroke="#757575" d="M1258.99,-247C1250.84,-247 1245.75,-247 1245.75,-247 1245.75,-247 1245.75,-210.06 1245.75,-210.06"/>
<polygon fill="#757575" stroke="#757575" points="1249.25,-210.06 1245.75,-200.06 1242.25,-210.06 1249.25,-210.06"/>
</g>
<!-- src/handlers/lambda&#45;expressions.ts&#45;&gt;src/handlers/anonymous&#45;functions.ts -->
<g id="edge45" class="edge">
<title>src/handlers/lambda&#45;expressions.ts&#45;&gt;src/handlers/anonymous&#45;functions.ts</title>
<path fill="none" stroke="#757575" d="M1358,-235.75C1358,-235.75 1358,-151.2 1358,-151.2"/>
<polygon fill="#757575" stroke="#757575" points="1361.5,-151.2 1358,-141.2 1354.5,-151.2 1361.5,-151.2"/>
</g>
<!-- src/handlers/pointer&#45;operations.ts&#45;&gt;src/utils/identifier&#45;utils.ts -->
<g id="edge46" class="edge">
<title>src/handlers/pointer&#45;operations.ts&#45;&gt;src/utils/identifier&#45;utils.ts</title>
<path fill="none" stroke="#757575" d="M741.51,-247C747.27,-247 750.75,-247 750.75,-247 750.75,-247 750.75,-66 750.75,-66 750.75,-66 860.99,-66 860.99,-66"/>
<polygon fill="#757575" stroke="#757575" points="860.99,-69.5 870.99,-66 860.99,-62.5 860.99,-69.5"/>
</g>
<!-- src/loops/for.ts&#45;&gt;src/loops/loop.ts -->
<g id="edge48" class="edge">
<title>src/loops/for.ts&#45;&gt;src/loops/loop.ts</title>
<path fill="none" stroke="#757575" d="M993.17,-294.75C993.17,-288.88 993.17,-283 993.17,-283 993.17,-283 864.5,-283 864.5,-283 864.5,-283 864.5,-269.12 864.5,-269.12"/>
<polygon fill="#757575" stroke="#757575" points="868,-269.12 864.5,-259.12 861,-269.12 868,-269.12"/>
</g>
<!-- src/loops/helpers.ts -->
<g id="node27" class="node">
<title>src/loops/helpers.ts</title>
<path fill="none" stroke="#cfffac" d="M1156.83,-259C1156.83,-259 1039.17,-259 1039.17,-259 1035.33,-259 1031.5,-255.17 1031.5,-251.33 1031.5,-251.33 1031.5,-243.67 1031.5,-243.67 1031.5,-239.83 1035.33,-236 1039.17,-236 1039.17,-236 1156.83,-236 1156.83,-236 1160.67,-236 1164.5,-239.83 1164.5,-243.67 1164.5,-243.67 1164.5,-251.33 1164.5,-251.33 1164.5,-255.17 1160.67,-259 1156.83,-259"/>
<text text-anchor="middle" x="1098" y="-243.8" font-family="Arial" font-size="14.00" fill="#cfffac">src/loops/helpers.ts</text>
</g>
<!-- src/loops/for.ts&#45;&gt;src/loops/helpers.ts -->
<g id="edge47" class="edge">
<title>src/loops/for.ts&#45;&gt;src/loops/helpers.ts</title>
<path fill="none" stroke="#757575" d="M1068.5,-294.84C1068.5,-294.84 1068.5,-269.13 1068.5,-269.13"/>
<polygon fill="#757575" stroke="#757575" points="1072,-269.13 1068.5,-259.13 1065,-269.13 1072,-269.13"/>
</g>
<!-- src/loops/types.ts -->
<g id="node28" class="node">
<title>src/loops/types.ts</title>
<path fill="none" stroke="#c6c5fe" d="M1005.83,-259C1005.83,-259 900.17,-259 900.17,-259 896.33,-259 892.5,-255.17 892.5,-251.33 892.5,-251.33 892.5,-243.67 892.5,-243.67 892.5,-239.83 896.33,-236 900.17,-236 900.17,-236 1005.83,-236 1005.83,-236 1009.67,-236 1013.5,-239.83 1013.5,-243.67 1013.5,-243.67 1013.5,-251.33 1013.5,-251.33 1013.5,-255.17 1009.67,-259 1005.83,-259"/>
<text text-anchor="middle" x="953" y="-243.8" font-family="Arial" font-size="14.00" fill="#c6c5fe">src/loops/types.ts</text>
</g>
<!-- src/loops/for.ts&#45;&gt;src/loops/types.ts -->
<g id="edge49" class="edge">
<title>src/loops/for.ts&#45;&gt;src/loops/types.ts</title>
<path fill="none" stroke="#757575" d="M1003.33,-294.84C1003.33,-294.84 1003.33,-269.13 1003.33,-269.13"/>
<polygon fill="#757575" stroke="#757575" points="1006.83,-269.13 1003.33,-259.13 999.83,-269.13 1006.83,-269.13"/>
</g>
<!-- src/loops/while.ts&#45;&gt;src/loops/loop.ts -->
<g id="edge52" class="edge">
<title>src/loops/while.ts&#45;&gt;src/loops/loop.ts</title>
<path fill="none" stroke="#757575" d="M855,-294.84C855,-294.84 855,-269.13 855,-269.13"/>
<polygon fill="#757575" stroke="#757575" points="858.5,-269.13 855,-259.13 851.5,-269.13 858.5,-269.13"/>
</g>
<!-- src/loops/while.ts&#45;&gt;src/loops/helpers.ts -->
<g id="edge51" class="edge">
<title>src/loops/while.ts&#45;&gt;src/loops/helpers.ts</title>
<path fill="none" stroke="#757575" d="M940.5,-294.88C940.5,-284.52 940.5,-271 940.5,-271 940.5,-271 1050,-271 1050,-271 1050,-271 1050,-269.25 1050,-269.25"/>
<polygon fill="#757575" stroke="#757575" points="1053.5,-269.25 1050,-259.25 1046.5,-269.25 1053.5,-269.25"/>
</g>
<!-- src/loops/while.ts&#45;&gt;src/loops/types.ts -->
<g id="edge53" class="edge">
<title>src/loops/while.ts&#45;&gt;src/loops/types.ts</title>
<path fill="none" stroke="#757575" d="M916.5,-294.84C916.5,-294.84 916.5,-269.13 916.5,-269.13"/>
<polygon fill="#757575" stroke="#757575" points="920,-269.13 916.5,-259.13 913,-269.13 920,-269.13"/>
</g>
<!-- src/type&#45;utils.ts -->
<g id="node22" class="node">
<title>src/type&#45;utils.ts</title>
<path fill="none" stroke="#cfffac" d="M1585.83,-23C1585.83,-23 1494.17,-23 1494.17,-23 1490.33,-23 1486.5,-19.17 1486.5,-15.33 1486.5,-15.33 1486.5,-7.67 1486.5,-7.67 1486.5,-3.83 1490.33,0 1494.17,0 1494.17,0 1585.83,0 1585.83,0 1589.67,0 1593.5,-3.83 1593.5,-7.67 1593.5,-7.67 1593.5,-15.33 1593.5,-15.33 1593.5,-19.17 1589.67,-23 1585.83,-23"/>
<text text-anchor="middle" x="1540" y="-7.8" font-family="Arial" font-size="14.00" fill="#cfffac">src/type&#45;utils.ts</text>
</g>
<!-- src/parser.ts&#45;&gt;src/type&#45;utils.ts -->
<g id="edge54" class="edge">
<title>src/parser.ts&#45;&gt;src/type&#45;utils.ts</title>
<path fill="none" stroke="#757575" d="M2072,-117.56C2072,-86.4 2072,-5 2072,-5 2072,-5 1603.94,-5 1603.94,-5"/>
<polygon fill="#757575" stroke="#757575" points="1603.94,-1.5 1593.94,-5 1603.94,-8.5 1603.94,-1.5"/>
</g>
<!-- src/scope.ts&#45;&gt;src/expressions/handlers.ts -->
<g id="edge55" class="edge">
<title>src/scope.ts&#45;&gt;src/expressions/handlers.ts</title>
<path fill="none" stroke="#757575" d="M1541.5,-294.75C1541.5,-243.37 1541.5,-41 1541.5,-41 1541.5,-41 635.17,-41 635.17,-41 635.17,-41 635.17,-33.16 635.17,-33.16"/>
<polygon fill="#757575" stroke="#757575" points="638.67,-33.16 635.17,-23.16 631.67,-33.16 638.67,-33.16"/>
</g>
<!-- src/scope.ts&#45;&gt;src/functions.ts -->
<g id="edge57" class="edge">
<title>src/scope.ts&#45;&gt;src/functions.ts</title>
<path fill="none" stroke="#757575" d="M1537.5,-294.99C1537.5,-266.5 1537.5,-195 1537.5,-195 1537.5,-195 1275.75,-195 1275.75,-195"/>
<polygon fill="#757575" stroke="#757575" points="1275.75,-191.5 1265.75,-195 1275.75,-198.5 1275.75,-191.5"/>
</g>
<!-- src/scope.ts&#45;&gt;src/handlers/lambda&#45;expressions.ts -->
<g id="edge58" class="edge">
<title>src/scope.ts&#45;&gt;src/handlers/lambda&#45;expressions.ts</title>
<path fill="none" stroke="#757575" d="M1535.5,-294.74C1535.5,-277.4 1535.5,-247 1535.5,-247 1535.5,-247 1499.22,-247 1499.22,-247"/>
<polygon fill="#757575" stroke="#757575" points="1499.22,-243.5 1489.22,-247 1499.22,-250.5 1499.22,-243.5"/>
</g>
<!-- src/scope.ts&#45;&gt;src/parser.ts -->
<g id="edge59" class="edge">
<title>src/scope.ts&#45;&gt;src/parser.ts</title>
<path fill="none" stroke="#757575" d="M1620.82,-306C1746.18,-306 2091.25,-306 2091.25,-306 2091.25,-306 2091.25,-151.08 2091.25,-151.08"/>
<polygon fill="#757575" stroke="#757575" points="2094.75,-151.08 2091.25,-141.08 2087.75,-151.08 2094.75,-151.08"/>
</g>
<!-- src/function&#45;type&#45;handler.ts -->
<g id="node23" class="node">
<title>src/function&#45;type&#45;handler.ts</title>
<path fill="none" stroke="#c6c5fe" d="M1716.83,-259C1716.83,-259 1553.17,-259 1553.17,-259 1549.33,-259 1545.5,-255.17 1545.5,-251.33 1545.5,-251.33 1545.5,-243.67 1545.5,-243.67 1545.5,-239.83 1549.33,-236 1553.17,-236 1553.17,-236 1716.83,-236 1716.83,-236 1720.67,-236 1724.5,-239.83 1724.5,-243.67 1724.5,-243.67 1724.5,-251.33 1724.5,-251.33 1724.5,-255.17 1720.67,-259 1716.83,-259"/>
<text text-anchor="middle" x="1635" y="-243.8" font-family="Arial" font-size="14.00" fill="#c6c5fe">src/function&#45;type&#45;handler.ts</text>
</g>
<!-- src/scope.ts&#45;&gt;src/function&#45;type&#45;handler.ts -->
<g id="edge56" class="edge">
<title>src/scope.ts&#45;&gt;src/function&#45;type&#45;handler.ts</title>
<path fill="none" stroke="#757575" d="M1583,-294.84C1583,-294.84 1583,-269.13 1583,-269.13"/>
<polygon fill="#757575" stroke="#757575" points="1586.5,-269.13 1583,-259.13 1579.5,-269.13 1586.5,-269.13"/>
</g>
<!-- src/scope.ts&#45;&gt;src/utils/function&#45;utils.ts -->
<g id="edge60" class="edge">
<title>src/scope.ts&#45;&gt;src/utils/function&#45;utils.ts</title>
<path fill="none" stroke="#757575" d="M1539.5,-294.77C1539.5,-247.05 1539.5,-70 1539.5,-70 1539.5,-70 1537.29,-70 1537.29,-70"/>
<polygon fill="#757575" stroke="#757575" points="1537.29,-66.5 1527.29,-70 1537.29,-73.5 1537.29,-66.5"/>
</g>
<!-- src/utils/scope&#45;helpers.ts -->
<g id="node29" class="node">
<title>src/utils/scope&#45;helpers.ts</title>
<path fill="none" stroke="#c6c5fe" d="M1854.83,-200C1854.83,-200 1705.17,-200 1705.17,-200 1701.33,-200 1697.5,-196.17 1697.5,-192.33 1697.5,-192.33 1697.5,-184.67 1697.5,-184.67 1697.5,-180.83 1701.33,-177 1705.17,-177 1705.17,-177 1854.83,-177 1854.83,-177 1858.67,-177 1862.5,-180.83 1862.5,-184.67 1862.5,-184.67 1862.5,-192.33 1862.5,-192.33 1862.5,-196.17 1858.67,-200 1854.83,-200"/>
<text text-anchor="middle" x="1780" y="-184.8" font-family="Arial" font-size="14.00" fill="#c6c5fe">src/utils/scope&#45;helpers.ts</text>
</g>
<!-- src/scope.ts&#45;&gt;src/utils/scope&#45;helpers.ts -->
<g id="edge61" class="edge">
<title>src/scope.ts&#45;&gt;src/utils/scope&#45;helpers.ts</title>
<path fill="none" stroke="#757575" d="M1543.5,-294.95C1543.5,-264.79 1543.5,-186 1543.5,-186 1543.5,-186 1687.28,-186 1687.28,-186"/>
<polygon fill="#757575" stroke="#757575" points="1687.28,-189.5 1697.28,-186 1687.28,-182.5 1687.28,-189.5"/>
</g>
<!-- src/utils/app&#45;handlers.ts&#45;&gt;src/expressions/handlers.ts -->
<g id="edge66" class="edge">
<title>src/utils/app&#45;handlers.ts&#45;&gt;src/expressions/handlers.ts</title>
<path fill="none" stroke="#757575" d="M498.75,-235.8C498.75,-235.8 498.75,-33.27 498.75,-33.27"/>
<polygon fill="#757575" stroke="#757575" points="502.25,-33.27 498.75,-23.27 495.25,-33.27 502.25,-33.27"/>
</g>
<!-- src/utils/app&#45;handlers.ts&#45;&gt;src/functions.ts -->
<g id="edge67" class="edge">
<title>src/utils/app&#45;handlers.ts&#45;&gt;src/functions.ts</title>
<path fill="none" stroke="#757575" d="M503.92,-235.85C503.92,-220.38 503.92,-195 503.92,-195 503.92,-195 1148.49,-195 1148.49,-195"/>
<polygon fill="#757575" stroke="#757575" points="1148.49,-198.5 1158.49,-195 1148.49,-191.5 1148.49,-198.5"/>
</g>
<!-- src/utils/app&#45;handlers.ts&#45;&gt;src/types/structs.ts -->
<g id="edge68" class="edge">
<title>src/utils/app&#45;handlers.ts&#45;&gt;src/types/structs.ts</title>
<path fill="none" stroke="#757575" d="M427,-235.75C427,-235.75 427,-151.2 427,-151.2"/>
<polygon fill="#757575" stroke="#757575" points="430.5,-151.2 427,-141.2 423.5,-151.2 430.5,-151.2"/>
</g>
<!-- src/types/type&#45;declarations.ts -->
<g id="node30" class="node">
<title>src/types/type&#45;declarations.ts</title>
<path fill="none" stroke="#c6c5fe" d="M730.83,-141C730.83,-141 555.17,-141 555.17,-141 551.33,-141 547.5,-137.17 547.5,-133.33 547.5,-133.33 547.5,-125.67 547.5,-125.67 547.5,-121.83 551.33,-118 555.17,-118 555.17,-118 730.83,-118 730.83,-118 734.67,-118 738.5,-121.83 738.5,-125.67 738.5,-125.67 738.5,-133.33 738.5,-133.33 738.5,-137.17 734.67,-141 730.83,-141"/>
<text text-anchor="middle" x="643" y="-125.8" font-family="Arial" font-size="14.00" fill="#c6c5fe">src/types/type&#45;declarations.ts</text>
</g>
<!-- src/utils/app&#45;handlers.ts&#45;&gt;src/types/type&#45;declarations.ts -->
<g id="edge69" class="edge">
<title>src/utils/app&#45;handlers.ts&#45;&gt;src/types/type&#45;declarations.ts</title>
<path fill="none" stroke="#757575" d="M501.33,-235.75C501.33,-205.09 501.33,-125 501.33,-125 501.33,-125 537.33,-125 537.33,-125"/>
<polygon fill="#757575" stroke="#757575" points="537.33,-128.5 547.33,-125 537.33,-121.5 537.33,-128.5"/>
</g>
<!-- src/declarations.ts -->
<g id="node16" class="node">
<title>src/declarations.ts</title>
<path fill="none" stroke="#c6c5fe" d="M680.83,-82C680.83,-82 571.17,-82 571.17,-82 567.33,-82 563.5,-78.17 563.5,-74.33 563.5,-74.33 563.5,-66.67 563.5,-66.67 563.5,-62.83 567.33,-59 571.17,-59 571.17,-59 680.83,-59 680.83,-59 684.67,-59 688.5,-62.83 688.5,-66.67 688.5,-66.67 688.5,-74.33 688.5,-74.33 688.5,-78.17 684.67,-82 680.83,-82"/>
<text text-anchor="middle" x="626" y="-66.8" font-family="Arial" font-size="14.00" fill="#c6c5fe">src/declarations.ts</text>
</g>
<!-- src/declarations.ts&#45;&gt;src/expressions/handlers.ts -->
<g id="edge15" class="edge">
<title>src/declarations.ts&#45;&gt;src/expressions/handlers.ts</title>
<path fill="none" stroke="#757575" d="M599.33,-58.84C599.33,-58.84 599.33,-33.13 599.33,-33.13"/>
<polygon fill="#757575" stroke="#757575" points="602.83,-33.13 599.33,-23.13 595.83,-33.13 602.83,-33.13"/>
</g>
<!-- src/expressions/operators.ts&#45;&gt;src/parser.ts -->
<g id="edge25" class="edge">
<title>src/expressions/operators.ts&#45;&gt;src/parser.ts</title>
<path fill="none" stroke="#757575" d="M2052.67,-176.84C2052.67,-176.84 2052.67,-151.13 2052.67,-151.13"/>
<polygon fill="#757575" stroke="#757575" points="2056.17,-151.13 2052.67,-141.13 2049.17,-151.13 2056.17,-151.13"/>
</g>
<!-- src/expressions/operators.ts&#45;&gt;src/types/structs.ts -->
<g id="edge27" class="edge">
<title>src/expressions/operators.ts&#45;&gt;src/types/structs.ts</title>
<path fill="none" stroke="#757575" d="M1904,-176.75C1904,-170.88 1904,-165 1904,-165 1904,-165 459,-165 459,-165 459,-165 459,-151.12 459,-151.12"/>
<polygon fill="#757575" stroke="#757575" points="462.5,-151.12 459,-141.12 455.5,-151.12 462.5,-151.12"/>
</g>
<!-- src/expressions/operator&#45;finder.ts -->
<g id="node20" class="node">
<title>src/expressions/operator&#45;finder.ts</title>
<path fill="none" stroke="#c6c5fe" d="M1943.33,-141C1943.33,-141 1742.67,-141 1742.67,-141 1738.83,-141 1735,-137.17 1735,-133.33 1735,-133.33 1735,-125.67 1735,-125.67 1735,-121.83 1738.83,-118 1742.67,-118 1742.67,-118 1943.33,-118 1943.33,-118 1947.17,-118 1951,-121.83 1951,-125.67 1951,-125.67 1951,-133.33 1951,-133.33 1951,-137.17 1947.17,-141 1943.33,-141"/>
<text text-anchor="middle" x="1843" y="-125.8" font-family="Arial" font-size="14.00" fill="#c6c5fe">src/expressions/operator&#45;finder.ts</text>
</g>
<!-- src/expressions/operators.ts&#45;&gt;src/expressions/operator&#45;finder.ts -->
<g id="edge24" class="edge">
<title>src/expressions/operators.ts&#45;&gt;src/expressions/operator&#45;finder.ts</title>
<path fill="none" stroke="#757575" d="M1927.5,-176.84C1927.5,-176.84 1927.5,-151.13 1927.5,-151.13"/>
<polygon fill="#757575" stroke="#757575" points="1931,-151.13 1927.5,-141.13 1924,-151.13 1931,-151.13"/>
</g>
<!-- src/expressions/operators.ts&#45;&gt;src/type&#45;utils.ts -->
<g id="edge26" class="edge">
<title>src/expressions/operators.ts&#45;&gt;src/type&#45;utils.ts</title>
<path fill="none" stroke="#757575" d="M1989,-176.85C1989,-137.36 1989,-11 1989,-11 1989,-11 1603.71,-11 1603.71,-11"/>
<polygon fill="#757575" stroke="#757575" points="1603.71,-7.5 1593.71,-11 1603.71,-14.5 1603.71,-7.5"/>
</g>
<!-- src/types/structs.ts&#45;&gt;src/expressions/handlers.ts -->
<g id="edge63" class="edge">
<title>src/types/structs.ts&#45;&gt;src/expressions/handlers.ts</title>
<path fill="none" stroke="#757575" d="M491.05,-133C492.67,-133 493.58,-133 493.58,-133 493.58,-133 493.58,-33.15 493.58,-33.15"/>
<polygon fill="#757575" stroke="#757575" points="497.08,-33.15 493.58,-23.15 490.08,-33.15 497.08,-33.15"/>
</g>
<!-- src/types/structs.ts&#45;&gt;src/declarations.ts -->
<g id="edge62" class="edge">
<title>src/types/structs.ts&#45;&gt;src/declarations.ts</title>
<path fill="none" stroke="#757575" d="M427,-117.74C427,-100.4 427,-70 427,-70 427,-70 553.31,-70 553.31,-70"/>
<polygon fill="#757575" stroke="#757575" points="553.31,-73.5 563.31,-70 553.31,-66.5 553.31,-73.5"/>
</g>
<!-- src/expressions/operator&#45;utils.ts -->
<g id="node21" class="node">
<title>src/expressions/operator&#45;utils.ts</title>
<path fill="none" stroke="#cfffac" d="M1938.83,-82C1938.83,-82 1747.17,-82 1747.17,-82 1743.33,-82 1739.5,-78.17 1739.5,-74.33 1739.5,-74.33 1739.5,-66.67 1739.5,-66.67 1739.5,-62.83 1743.33,-59 1747.17,-59 1747.17,-59 1938.83,-59 1938.83,-59 1942.67,-59 1946.5,-62.83 1946.5,-66.67 1946.5,-66.67 1946.5,-74.33 1946.5,-74.33 1946.5,-78.17 1942.67,-82 1938.83,-82"/>
<text text-anchor="middle" x="1843" y="-66.8" font-family="Arial" font-size="14.00" fill="#cfffac">src/expressions/operator&#45;utils.ts</text>
</g>
<!-- src/expressions/operator&#45;finder.ts&#45;&gt;src/expressions/operator&#45;utils.ts -->
<g id="edge23" class="edge">
<title>src/expressions/operator&#45;finder.ts&#45;&gt;src/expressions/operator&#45;utils.ts</title>
<path fill="none" stroke="#757575" d="M1843,-117.84C1843,-117.84 1843,-92.13 1843,-92.13"/>
<polygon fill="#757575" stroke="#757575" points="1846.5,-92.13 1843,-82.13 1839.5,-92.13 1846.5,-92.13"/>
</g>
<!-- src/function&#45;type&#45;handler.ts&#45;&gt;src/functions.ts -->
<g id="edge28" class="edge">
<title>src/function&#45;type&#45;handler.ts&#45;&gt;src/functions.ts</title>
<path fill="none" stroke="#757575" d="M1561.5,-235.86C1561.5,-219.06 1561.5,-190 1561.5,-190 1561.5,-190 1275.84,-190 1275.84,-190"/>
<polygon fill="#757575" stroke="#757575" points="1275.84,-186.5 1265.84,-190 1275.84,-193.5 1275.84,-186.5"/>
</g>
<!-- src/function&#45;type&#45;handler.ts&#45;&gt;src/type&#45;utils.ts -->
<g id="edge29" class="edge">
<title>src/function&#45;type&#45;handler.ts&#45;&gt;src/type&#45;utils.ts</title>
<path fill="none" stroke="#757575" d="M1577.5,-235.8C1577.5,-235.8 1577.5,-33.27 1577.5,-33.27"/>
<polygon fill="#757575" stroke="#757575" points="1581,-33.27 1577.5,-23.27 1574,-33.27 1581,-33.27"/>
</g>
<!-- src/handlers/anonymous&#45;functions.ts&#45;&gt;src/utils/identifier&#45;utils.ts -->
<g id="edge37" class="edge">
<title>src/handlers/anonymous&#45;functions.ts&#45;&gt;src/utils/identifier&#45;utils.ts</title>
<path fill="none" stroke="#757575" d="M1292.25,-117.93C1292.25,-100.12 1292.25,-68 1292.25,-68 1292.25,-68 1041.01,-68 1041.01,-68"/>
<polygon fill="#757575" stroke="#757575" points="1041.01,-64.5 1031.01,-68 1041.01,-71.5 1041.01,-64.5"/>
</g>
<!-- src/handlers/anonymous&#45;functions.ts&#45;&gt;src/type&#45;utils.ts -->
<g id="edge35" class="edge">
<title>src/handlers/anonymous&#45;functions.ts&#45;&gt;src/type&#45;utils.ts</title>
<path fill="none" stroke="#757575" d="M1450.67,-129C1494.41,-129 1533.5,-129 1533.5,-129 1533.5,-129 1533.5,-33.2 1533.5,-33.2"/>
<polygon fill="#757575" stroke="#757575" points="1537,-33.2 1533.5,-23.2 1530,-33.2 1537,-33.2"/>
</g>
<!-- src/handlers/anonymous&#45;functions.ts&#45;&gt;src/utils/function&#45;utils.ts -->
<g id="edge36" class="edge">
<title>src/handlers/anonymous&#45;functions.ts&#45;&gt;src/utils/function&#45;utils.ts</title>
<path fill="none" stroke="#757575" d="M1410.75,-117.84C1410.75,-117.84 1410.75,-92.13 1410.75,-92.13"/>
<polygon fill="#757575" stroke="#757575" points="1414.25,-92.13 1410.75,-82.13 1407.25,-92.13 1414.25,-92.13"/>
</g>
<!-- src/handlers/function&#45;declaration.ts&#45;&gt;src/declarations.ts -->
<g id="edge40" class="edge">
<title>src/handlers/function&#45;declaration.ts&#45;&gt;src/declarations.ts</title>
<path fill="none" stroke="#757575" d="M968.68,-129C874.34,-129 755.38,-129 755.38,-129 755.38,-129 755.38,-74 755.38,-74 755.38,-74 698.79,-74 698.79,-74"/>
<polygon fill="#757575" stroke="#757575" points="698.79,-70.5 688.79,-74 698.79,-77.5 698.79,-70.5"/>
</g>
<!-- src/handlers/function&#45;declaration.ts&#45;&gt;src/utils/identifier&#45;utils.ts -->
<g id="edge43" class="edge">
<title>src/handlers/function&#45;declaration.ts&#45;&gt;src/utils/identifier&#45;utils.ts</title>
<path fill="none" stroke="#757575" d="M1000,-117.84C1000,-117.84 1000,-92.13 1000,-92.13"/>
<polygon fill="#757575" stroke="#757575" points="1003.5,-92.13 1000,-82.13 996.5,-92.13 1003.5,-92.13"/>
</g>
<!-- src/handlers/function&#45;declaration.ts&#45;&gt;src/type&#45;utils.ts -->
<g id="edge41" class="edge">
<title>src/handlers/function&#45;declaration.ts&#45;&gt;src/type&#45;utils.ts</title>
<path fill="none" stroke="#757575" d="M1085.67,-117.99C1085.67,-89.5 1085.67,-18 1085.67,-18 1085.67,-18 1476.1,-18 1476.1,-18"/>
<polygon fill="#757575" stroke="#757575" points="1476.1,-21.5 1486.1,-18 1476.1,-14.5 1476.1,-21.5"/>
</g>
<!-- src/handlers/function&#45;declaration.ts&#45;&gt;src/utils/function&#45;utils.ts -->
<g id="edge42" class="edge">
<title>src/handlers/function&#45;declaration.ts&#45;&gt;src/utils/function&#45;utils.ts</title>
<path fill="none" stroke="#757575" d="M1140.33,-117.92C1140.33,-98.86 1140.33,-63 1140.33,-63 1140.33,-63 1360.71,-63 1360.71,-63"/>
<polygon fill="#757575" stroke="#757575" points="1360.71,-66.5 1370.71,-63 1360.71,-59.5 1360.71,-66.5"/>
</g>
<!-- src/utils/function&#45;utils.ts&#45;&gt;src/type&#45;utils.ts -->
<g id="edge70" class="edge">
<title>src/utils/function&#45;utils.ts&#45;&gt;src/type&#45;utils.ts</title>
<path fill="none" stroke="#757575" d="M1506.75,-58.84C1506.75,-58.84 1506.75,-33.13 1506.75,-33.13"/>
<polygon fill="#757575" stroke="#757575" points="1510.25,-33.13 1506.75,-23.13 1503.25,-33.13 1510.25,-33.13"/>
</g>
<!-- src/loops/types.ts&#45;&gt;src/expressions/handlers.ts -->
<g id="edge50" class="edge">
<title>src/loops/types.ts&#45;&gt;src/expressions/handlers.ts</title>
<path fill="none" stroke="#757575" d="M930.75,-235.93C930.75,-201.15 930.75,-100 930.75,-100 930.75,-100 555.5,-100 555.5,-100 555.5,-100 555.5,-33.07 555.5,-33.07"/>
<polygon fill="#757575" stroke="#757575" points="559,-33.07 555.5,-23.07 552,-33.07 559,-33.07"/>
</g>
<!-- src/utils/scope&#45;helpers.ts&#45;&gt;src/parser.ts -->
<g id="edge72" class="edge">
<title>src/utils/scope&#45;helpers.ts&#45;&gt;src/parser.ts</title>
<path fill="none" stroke="#757575" d="M1798.75,-176.88C1798.75,-166.52 1798.75,-153 1798.75,-153 1798.75,-153 2039.83,-153 2039.83,-153 2039.83,-153 2039.83,-151.25 2039.83,-151.25"/>
<polygon fill="#757575" stroke="#757575" points="2043.33,-151.25 2039.83,-141.25 2036.33,-151.25 2043.33,-151.25"/>
</g>
<!-- src/utils/scope&#45;helpers.ts&#45;&gt;src/type&#45;utils.ts -->
<g id="edge73" class="edge">
<title>src/utils/scope&#45;helpers.ts&#45;&gt;src/type&#45;utils.ts</title>
<path fill="none" stroke="#757575" d="M1716.25,-176.98C1716.25,-138.53 1716.25,-17 1716.25,-17 1716.25,-17 1603.84,-17 1603.84,-17"/>
<polygon fill="#757575" stroke="#757575" points="1603.84,-13.5 1593.84,-17 1603.84,-20.5 1603.84,-13.5"/>
</g>
<!-- src/utils/scope&#45;helpers.ts&#45;&gt;src/utils/function&#45;utils.ts -->
<g id="edge74" class="edge">
<title>src/utils/scope&#45;helpers.ts&#45;&gt;src/utils/function&#45;utils.ts</title>
<path fill="none" stroke="#757575" d="M1697.28,-181C1617.26,-181 1508,-181 1508,-181 1508,-181 1508,-92.33 1508,-92.33"/>
<polygon fill="#757575" stroke="#757575" points="1511.5,-92.33 1508,-82.33 1504.5,-92.33 1511.5,-92.33"/>
</g>
<!-- src/types/type&#45;declarations.ts&#45;&gt;src/declarations.ts -->
<g id="edge64" class="edge">
<title>src/types/type&#45;declarations.ts&#45;&gt;src/declarations.ts</title>
<path fill="none" stroke="#757575" d="M626,-117.84C626,-117.84 626,-92.13 626,-92.13"/>
<polygon fill="#757575" stroke="#757575" points="629.5,-92.13 626,-82.13 622.5,-92.13 629.5,-92.13"/>
</g>
<!-- src/types/type&#45;declarations.ts&#45;&gt;src/type&#45;utils.ts -->
<g id="edge65" class="edge">
<title>src/types/type&#45;declarations.ts&#45;&gt;src/type&#45;utils.ts</title>
<path fill="none" stroke="#757575" d="M713.5,-117.9C713.5,-88.44 713.5,-13 713.5,-13 713.5,-13 1476.41,-13 1476.41,-13"/>
<polygon fill="#757575" stroke="#757575" points="1476.41,-16.5 1486.41,-13 1476.41,-9.5 1476.41,-16.5"/>
</g>
<!-- src/utils/interpret.ts -->
<g id="node31" class="node">
<title>src/utils/interpret.ts</title>
<path fill="none" stroke="#c6c5fe" d="M918.33,-436C918.33,-436 803.67,-436 803.67,-436 799.83,-436 796,-432.17 796,-428.33 796,-428.33 796,-420.67 796,-420.67 796,-416.83 799.83,-413 803.67,-413 803.67,-413 918.33,-413 918.33,-413 922.17,-413 926,-416.83 926,-420.67 926,-420.67 926,-428.33 926,-428.33 926,-432.17 922.17,-436 918.33,-436"/>
<text text-anchor="middle" x="861" y="-420.8" font-family="Arial" font-size="14.00" fill="#c6c5fe">src/utils/interpret.ts</text>
</g>
<!-- src/utils/interpret.ts&#45;&gt;src/app.ts -->
<g id="edge71" class="edge">
<title>src/utils/interpret.ts&#45;&gt;src/app.ts</title>
<path fill="none" stroke="#757575" d="M861,-412.84C861,-412.84 861,-387.13 861,-387.13"/>
<polygon fill="#757575" stroke="#757575" points="864.5,-387.13 861,-377.13 857.5,-387.13 864.5,-387.13"/>
</g>
<!-- tests/arithmetic.test.ts -->
<g id="node32" class="node">
<title>tests/arithmetic.test.ts</title>
<path fill="none" stroke="#c6c5fe" d="M588.33,-495C588.33,-495 455.67,-495 455.67,-495 451.83,-495 448,-491.17 448,-487.33 448,-487.33 448,-479.67 448,-479.67 448,-475.83 451.83,-472 455.67,-472 455.67,-472 588.33,-472 588.33,-472 592.17,-472 596,-475.83 596,-479.67 596,-479.67 596,-487.33 596,-487.33 596,-491.17 592.17,-495 588.33,-495"/>
<text text-anchor="middle" x="522" y="-479.8" font-family="Arial" font-size="14.00" fill="#c6c5fe">tests/arithmetic.test.ts</text>
</g>
<!-- tests/arithmetic.test.ts&#45;&gt;src/utils/interpret.ts -->
<g id="edge75" class="edge">
<title>tests/arithmetic.test.ts&#45;&gt;src/utils/interpret.ts</title>
<path fill="none" stroke="#757575" d="M527.5,-471.85C527.5,-453.52 527.5,-420 527.5,-420 527.5,-420 785.91,-420 785.91,-420"/>
<polygon fill="#757575" stroke="#757575" points="785.91,-423.5 795.91,-420 785.91,-416.5 785.91,-423.5"/>
</g>
<!-- tests/control&#45;flow.test.ts -->
<g id="node33" class="node">
<title>tests/control&#45;flow.test.ts</title>
<path fill="none" stroke="#c6c5fe" d="M763.83,-495C763.83,-495 622.17,-495 622.17,-495 618.33,-495 614.5,-491.17 614.5,-487.33 614.5,-487.33 614.5,-479.67 614.5,-479.67 614.5,-475.83 618.33,-472 622.17,-472 622.17,-472 763.83,-472 763.83,-472 767.67,-472 771.5,-475.83 771.5,-479.67 771.5,-479.67 771.5,-487.33 771.5,-487.33 771.5,-491.17 767.67,-495 763.83,-495"/>
<text text-anchor="middle" x="693" y="-479.8" font-family="Arial" font-size="14.00" fill="#c6c5fe">tests/control&#45;flow.test.ts</text>
</g>
<!-- tests/control&#45;flow.test.ts&#45;&gt;src/utils/interpret.ts -->
<g id="edge76" class="edge">
<title>tests/control&#45;flow.test.ts&#45;&gt;src/utils/interpret.ts</title>
<path fill="none" stroke="#757575" d="M765.75,-471.73C765.75,-455.44 765.75,-428 765.75,-428 765.75,-428 785.89,-428 785.89,-428"/>
<polygon fill="#757575" stroke="#757575" points="785.89,-431.5 795.89,-428 785.89,-424.5 785.89,-431.5"/>
</g>
<!-- tests/functions.test.ts -->
<g id="node34" class="node">
<title>tests/functions.test.ts</title>
<path fill="none" stroke="#c6c5fe" d="M924.83,-495C924.83,-495 797.17,-495 797.17,-495 793.33,-495 789.5,-491.17 789.5,-487.33 789.5,-487.33 789.5,-479.67 789.5,-479.67 789.5,-475.83 793.33,-472 797.17,-472 797.17,-472 924.83,-472 924.83,-472 928.67,-472 932.5,-475.83 932.5,-479.67 932.5,-479.67 932.5,-487.33 932.5,-487.33 932.5,-491.17 928.67,-495 924.83,-495"/>
<text text-anchor="middle" x="861" y="-479.8" font-family="Arial" font-size="14.00" fill="#c6c5fe">tests/functions.test.ts</text>
</g>
<!-- tests/functions.test.ts&#45;&gt;src/utils/interpret.ts -->
<g id="edge77" class="edge">
<title>tests/functions.test.ts&#45;&gt;src/utils/interpret.ts</title>
<path fill="none" stroke="#757575" d="M861,-471.84C861,-471.84 861,-446.13 861,-446.13"/>
<polygon fill="#757575" stroke="#757575" points="864.5,-446.13 861,-436.13 857.5,-446.13 864.5,-446.13"/>
</g>
<!-- tests/types.test.ts -->
<g id="node35" class="node">
<title>tests/types.test.ts</title>
<path fill="none" stroke="#c6c5fe" d="M1063.83,-495C1063.83,-495 958.17,-495 958.17,-495 954.33,-495 950.5,-491.17 950.5,-487.33 950.5,-487.33 950.5,-479.67 950.5,-479.67 950.5,-475.83 954.33,-472 958.17,-472 958.17,-472 1063.83,-472 1063.83,-472 1067.67,-472 1071.5,-475.83 1071.5,-479.67 1071.5,-479.67 1071.5,-487.33 1071.5,-487.33 1071.5,-491.17 1067.67,-495 1063.83,-495"/>
<text text-anchor="middle" x="1011" y="-479.8" font-family="Arial" font-size="14.00" fill="#c6c5fe">tests/types.test.ts</text>
</g>
<!-- tests/types.test.ts&#45;&gt;src/utils/interpret.ts -->
<g id="edge78" class="edge">
<title>tests/types.test.ts&#45;&gt;src/utils/interpret.ts</title>
<path fill="none" stroke="#757575" d="M957.5,-471.73C957.5,-455.44 957.5,-428 957.5,-428 957.5,-428 936.17,-428 936.17,-428"/>
<polygon fill="#757575" stroke="#757575" points="936.17,-424.5 926.17,-428 936.17,-431.5 936.17,-424.5"/>
</g>
<!-- tests/variables.test.ts -->
<g id="node36" class="node">
<title>tests/variables.test.ts</title>
<path fill="none" stroke="#c6c5fe" d="M1224.83,-495C1224.83,-495 1097.17,-495 1097.17,-495 1093.33,-495 1089.5,-491.17 1089.5,-487.33 1089.5,-487.33 1089.5,-479.67 1089.5,-479.67 1089.5,-475.83 1093.33,-472 1097.17,-472 1097.17,-472 1224.83,-472 1224.83,-472 1228.67,-472 1232.5,-475.83 1232.5,-479.67 1232.5,-479.67 1232.5,-487.33 1232.5,-487.33 1232.5,-491.17 1228.67,-495 1224.83,-495"/>
<text text-anchor="middle" x="1161" y="-479.8" font-family="Arial" font-size="14.00" fill="#c6c5fe">tests/variables.test.ts</text>
</g>
<!-- tests/variables.test.ts&#45;&gt;src/utils/interpret.ts -->
<g id="edge79" class="edge">
<title>tests/variables.test.ts&#45;&gt;src/utils/interpret.ts</title>
<path fill="none" stroke="#757575" d="M1127,-471.85C1127,-453.52 1127,-420 1127,-420 1127,-420 936.07,-420 936.07,-420"/>
<polygon fill="#757575" stroke="#757575" points="936.07,-416.5 926.07,-420 936.07,-423.5 936.07,-416.5"/>
</g>
</g>
</svg>
