<?xml version="1.0" encoding="UTF-8" standalone="no"?>
<!DOCTYPE svg PUBLIC "-//W3C//DTD SVG 1.1//EN"
 "http://www.w3.org/Graphics/SVG/1.1/DTD/svg11.dtd">
<!-- Generated by graphviz version 2.43.0 (0)
 -->
<!-- Title: G Pages: 1 -->
<svg width="106pt" height="62pt"
 viewBox="0.00 0.00 106.20 62.20" xmlns="http://www.w3.org/2000/svg" xmlns:xlink="http://www.w3.org/1999/xlink">
<g id="graph0" class="graph" transform="scale(1 1) rotate(0) translate(21.6 40.6)">
<title>G</title>
<polygon fill="#111111" stroke="transparent" points="-21.6,21.6 -21.6,-40.6 84.6,-40.6 84.6,21.6 -21.6,21.6"/>
<!-- interpret.ts -->
<g id="node1" class="node">
<title>interpret.ts</title>
<path fill="none" stroke="#cfffac" d="M56.67,-19C56.67,-19 6.33,-19 6.33,-19 3.17,-19 0,-15.83 0,-12.67 0,-12.67 0,-6.33 0,-6.33 0,-3.17 3.17,0 6.33,0 6.33,0 56.67,0 56.67,0 59.83,0 63,-3.17 63,-6.33 63,-6.33 63,-12.67 63,-12.67 63,-15.83 59.83,-19 56.67,-19"/>
<text text-anchor="middle" x="31.5" y="-7" font-family="Arial" font-size="10.00" fill="#cfffac">interpret.ts</text>
</g>
</g>
</svg>
