<?xml version="1.0" encoding="UTF-8" standalone="no"?>
<!DOCTYPE svg PUBLIC "-//W3C//DTD SVG 1.1//EN"
 "http://www.w3.org/Graphics/SVG/1.1/DTD/svg11.dtd">
<!-- Generated by graphviz version 2.43.0 (0)
 -->
<!-- Title: G Pages: 1 -->
<svg width="2842pt" height="715pt"
 viewBox="0.00 0.00 2842.20 715.20" xmlns="http://www.w3.org/2000/svg" xmlns:xlink="http://www.w3.org/1999/xlink">
<g id="graph0" class="graph" transform="scale(1 1) rotate(0) translate(21.6 693.6)">
<title>G</title>
<polygon fill="#111111" stroke="transparent" points="-21.6,21.6 -21.6,-693.6 2820.6,-693.6 2820.6,21.6 -21.6,21.6"/>
<!-- src/app.ts -->
<g id="node1" class="node">
<title>src/app.ts</title>
<path fill="none" stroke="#c6c5fe" d="M1192.83,-554C1192.83,-554 1133.17,-554 1133.17,-554 1129.33,-554 1125.5,-550.17 1125.5,-546.33 1125.5,-546.33 1125.5,-538.67 1125.5,-538.67 1125.5,-534.83 1129.33,-531 1133.17,-531 1133.17,-531 1192.83,-531 1192.83,-531 1196.67,-531 1200.5,-534.83 1200.5,-538.67 1200.5,-538.67 1200.5,-546.33 1200.5,-546.33 1200.5,-550.17 1196.67,-554 1192.83,-554"/>
<text text-anchor="middle" x="1163" y="-538.8" font-family="Arial" font-size="14.00" fill="#c6c5fe">src/app.ts</text>
</g>
<!-- src/expressions/binary&#45;operation.ts -->
<g id="node2" class="node">
<title>src/expressions/binary&#45;operation.ts</title>
<path fill="none" stroke="#c6c5fe" d="M422.33,-436C422.33,-436 211.67,-436 211.67,-436 207.83,-436 204,-432.17 204,-428.33 204,-428.33 204,-420.67 204,-420.67 204,-416.83 207.83,-413 211.67,-413 211.67,-413 422.33,-413 422.33,-413 426.17,-413 430,-416.83 430,-420.67 430,-420.67 430,-428.33 430,-428.33 430,-432.17 426.17,-436 422.33,-436"/>
<text text-anchor="middle" x="317" y="-420.8" font-family="Arial" font-size="14.00" fill="#c6c5fe">src/expressions/binary&#45;operation.ts</text>
</g>
<!-- src/app.ts&#45;&gt;src/expressions/binary&#45;operation.ts -->
<g id="edge1" class="edge">
<title>src/app.ts&#45;&gt;src/expressions/binary&#45;operation.ts</title>
<path fill="none" stroke="#757575" d="M1128.67,-530.7C1128.67,-500.73 1128.67,-424 1128.67,-424 1128.67,-424 440.29,-424 440.29,-424"/>
<polygon fill="#757575" stroke="#757575" points="440.29,-420.5 430.29,-424 440.29,-427.5 440.29,-420.5"/>
</g>
<!-- src/expressions/grouped&#45;expressions.ts -->
<g id="node3" class="node">
<title>src/expressions/grouped&#45;expressions.ts</title>
<path fill="none" stroke="#c6c5fe" d="M1127.33,-377C1127.33,-377 888.67,-377 888.67,-377 884.83,-377 881,-373.17 881,-369.33 881,-369.33 881,-361.67 881,-361.67 881,-357.83 884.83,-354 888.67,-354 888.67,-354 1127.33,-354 1127.33,-354 1131.17,-354 1135,-357.83 1135,-361.67 1135,-361.67 1135,-369.33 1135,-369.33 1135,-373.17 1131.17,-377 1127.33,-377"/>
<text text-anchor="middle" x="1008" y="-361.8" font-family="Arial" font-size="14.00" fill="#c6c5fe">src/expressions/grouped&#45;expressions.ts</text>
</g>
<!-- src/app.ts&#45;&gt;src/expressions/grouped&#45;expressions.ts -->
<g id="edge2" class="edge">
<title>src/app.ts&#45;&gt;src/expressions/grouped&#45;expressions.ts</title>
<path fill="none" stroke="#757575" d="M1131.83,-530.89C1131.83,-530.89 1131.83,-387.39 1131.83,-387.39"/>
<polygon fill="#757575" stroke="#757575" points="1135.33,-387.39 1131.83,-377.39 1128.33,-387.39 1135.33,-387.39"/>
</g>
<!-- src/expressions/handlers.ts -->
<g id="node4" class="node">
<title>src/expressions/handlers.ts</title>
<path fill="none" stroke="#c6c5fe" d="M1305.33,-200C1305.33,-200 1140.67,-200 1140.67,-200 1136.83,-200 1133,-196.17 1133,-192.33 1133,-192.33 1133,-184.67 1133,-184.67 1133,-180.83 1136.83,-177 1140.67,-177 1140.67,-177 1305.33,-177 1305.33,-177 1309.17,-177 1313,-180.83 1313,-184.67 1313,-184.67 1313,-192.33 1313,-192.33 1313,-196.17 1309.17,-200 1305.33,-200"/>
<text text-anchor="middle" x="1223" y="-184.8" font-family="Arial" font-size="14.00" fill="#c6c5fe">src/expressions/handlers.ts</text>
</g>
<!-- src/app.ts&#45;&gt;src/expressions/handlers.ts -->
<g id="edge3" class="edge">
<title>src/app.ts&#45;&gt;src/expressions/handlers.ts</title>
<path fill="none" stroke="#757575" d="M1200.7,-533C1205.71,-533 1209.17,-533 1209.17,-533 1209.17,-533 1209.17,-210.36 1209.17,-210.36"/>
<polygon fill="#757575" stroke="#757575" points="1212.67,-210.36 1209.17,-200.36 1205.67,-210.36 1212.67,-210.36"/>
</g>
<!-- src/handlers/dereference&#45;assignment.ts -->
<g id="node5" class="node">
<title>src/handlers/dereference&#45;assignment.ts</title>
<path fill="none" stroke="#c6c5fe" d="M817.33,-377C817.33,-377 578.67,-377 578.67,-377 574.83,-377 571,-373.17 571,-369.33 571,-369.33 571,-361.67 571,-361.67 571,-357.83 574.83,-354 578.67,-354 578.67,-354 817.33,-354 817.33,-354 821.17,-354 825,-357.83 825,-361.67 825,-361.67 825,-369.33 825,-369.33 825,-373.17 821.17,-377 817.33,-377"/>
<text text-anchor="middle" x="698" y="-361.8" font-family="Arial" font-size="14.00" fill="#c6c5fe">src/handlers/dereference&#45;assignment.ts</text>
</g>
<!-- src/app.ts&#45;&gt;src/handlers/dereference&#45;assignment.ts -->
<g id="edge4" class="edge">
<title>src/app.ts&#45;&gt;src/handlers/dereference&#45;assignment.ts</title>
<path fill="none" stroke="#757575" d="M1125.28,-540C1030.05,-540 787.5,-540 787.5,-540 787.5,-540 787.5,-387.22 787.5,-387.22"/>
<polygon fill="#757575" stroke="#757575" points="791,-387.22 787.5,-377.22 784,-387.22 791,-387.22"/>
</g>
<!-- src/handlers/lambda&#45;expressions.ts -->
<g id="node6" class="node">
<title>src/handlers/lambda&#45;expressions.ts</title>
<path fill="none" stroke="#c6c5fe" d="M2330.33,-436C2330.33,-436 2115.67,-436 2115.67,-436 2111.83,-436 2108,-432.17 2108,-428.33 2108,-428.33 2108,-420.67 2108,-420.67 2108,-416.83 2111.83,-413 2115.67,-413 2115.67,-413 2330.33,-413 2330.33,-413 2334.17,-413 2338,-416.83 2338,-420.67 2338,-420.67 2338,-428.33 2338,-428.33 2338,-432.17 2334.17,-436 2330.33,-436"/>
<text text-anchor="middle" x="2223" y="-420.8" font-family="Arial" font-size="14.00" fill="#c6c5fe">src/handlers/lambda&#45;expressions.ts</text>
</g>
<!-- src/app.ts&#45;&gt;src/handlers/lambda&#45;expressions.ts -->
<g id="edge5" class="edge">
<title>src/app.ts&#45;&gt;src/handlers/lambda&#45;expressions.ts</title>
<path fill="none" stroke="#757575" d="M1200.81,-542C1393.94,-542 2261.33,-542 2261.33,-542 2261.33,-542 2261.33,-446.2 2261.33,-446.2"/>
<polygon fill="#757575" stroke="#757575" points="2264.83,-446.2 2261.33,-436.2 2257.83,-446.2 2264.83,-446.2"/>
</g>
<!-- src/handlers/pointer&#45;operations.ts -->
<g id="node7" class="node">
<title>src/handlers/pointer&#45;operations.ts</title>
<path fill="none" stroke="#c6c5fe" d="M818.83,-318C818.83,-318 617.17,-318 617.17,-318 613.33,-318 609.5,-314.17 609.5,-310.33 609.5,-310.33 609.5,-302.67 609.5,-302.67 609.5,-298.83 613.33,-295 617.17,-295 617.17,-295 818.83,-295 818.83,-295 822.67,-295 826.5,-298.83 826.5,-302.67 826.5,-302.67 826.5,-310.33 826.5,-310.33 826.5,-314.17 822.67,-318 818.83,-318"/>
<text text-anchor="middle" x="718" y="-302.8" font-family="Arial" font-size="14.00" fill="#c6c5fe">src/handlers/pointer&#45;operations.ts</text>
</g>
<!-- src/app.ts&#45;&gt;src/handlers/pointer&#45;operations.ts -->
<g id="edge6" class="edge">
<title>src/app.ts&#45;&gt;src/handlers/pointer&#45;operations.ts</title>
<path fill="none" stroke="#757575" d="M1125.39,-535C1042.97,-535 853.75,-535 853.75,-535 853.75,-535 853.75,-306 853.75,-306 853.75,-306 836.61,-306 836.61,-306"/>
<polygon fill="#757575" stroke="#757575" points="836.61,-302.5 826.61,-306 836.61,-309.5 836.61,-302.5"/>
</g>
<!-- src/loops/for.ts -->
<g id="node8" class="node">
<title>src/loops/for.ts</title>
<path fill="none" stroke="#c6c5fe" d="M2646.33,-495C2646.33,-495 2557.67,-495 2557.67,-495 2553.83,-495 2550,-491.17 2550,-487.33 2550,-487.33 2550,-479.67 2550,-479.67 2550,-475.83 2553.83,-472 2557.67,-472 2557.67,-472 2646.33,-472 2646.33,-472 2650.17,-472 2654,-475.83 2654,-479.67 2654,-479.67 2654,-487.33 2654,-487.33 2654,-491.17 2650.17,-495 2646.33,-495"/>
<text text-anchor="middle" x="2602" y="-479.8" font-family="Arial" font-size="14.00" fill="#c6c5fe">src/loops/for.ts</text>
</g>
<!-- src/app.ts&#45;&gt;src/loops/for.ts -->
<g id="edge7" class="edge">
<title>src/app.ts&#45;&gt;src/loops/for.ts</title>
<path fill="none" stroke="#757575" d="M1200.75,-548C1427.79,-548 2602,-548 2602,-548 2602,-548 2602,-505.03 2602,-505.03"/>
<polygon fill="#757575" stroke="#757575" points="2605.5,-505.03 2602,-495.03 2598.5,-505.03 2605.5,-505.03"/>
</g>
<!-- src/loops/loop.ts -->
<g id="node9" class="node">
<title>src/loops/loop.ts</title>
<path fill="none" stroke="#cfffac" d="M2791.33,-436C2791.33,-436 2692.67,-436 2692.67,-436 2688.83,-436 2685,-432.17 2685,-428.33 2685,-428.33 2685,-420.67 2685,-420.67 2685,-416.83 2688.83,-413 2692.67,-413 2692.67,-413 2791.33,-413 2791.33,-413 2795.17,-413 2799,-416.83 2799,-420.67 2799,-420.67 2799,-428.33 2799,-428.33 2799,-432.17 2795.17,-436 2791.33,-436"/>
<text text-anchor="middle" x="2742" y="-420.8" font-family="Arial" font-size="14.00" fill="#cfffac">src/loops/loop.ts</text>
</g>
<!-- src/app.ts&#45;&gt;src/loops/loop.ts -->
<g id="edge8" class="edge">
<title>src/app.ts&#45;&gt;src/loops/loop.ts</title>
<path fill="none" stroke="#757575" d="M1200.76,-551C1443.15,-551 2770.5,-551 2770.5,-551 2770.5,-551 2770.5,-446.17 2770.5,-446.17"/>
<polygon fill="#757575" stroke="#757575" points="2774,-446.17 2770.5,-436.17 2767,-446.17 2774,-446.17"/>
</g>
<!-- src/loops/while.ts -->
<g id="node10" class="node">
<title>src/loops/while.ts</title>
<path fill="none" stroke="#c6c5fe" d="M2516.83,-495C2516.83,-495 2413.17,-495 2413.17,-495 2409.33,-495 2405.5,-491.17 2405.5,-487.33 2405.5,-487.33 2405.5,-479.67 2405.5,-479.67 2405.5,-475.83 2409.33,-472 2413.17,-472 2413.17,-472 2516.83,-472 2516.83,-472 2520.67,-472 2524.5,-475.83 2524.5,-479.67 2524.5,-479.67 2524.5,-487.33 2524.5,-487.33 2524.5,-491.17 2520.67,-495 2516.83,-495"/>
<text text-anchor="middle" x="2465" y="-479.8" font-family="Arial" font-size="14.00" fill="#c6c5fe">src/loops/while.ts</text>
</g>
<!-- src/app.ts&#45;&gt;src/loops/while.ts -->
<g id="edge9" class="edge">
<title>src/app.ts&#45;&gt;src/loops/while.ts</title>
<path fill="none" stroke="#757575" d="M1200.56,-545C1414.04,-545 2465,-545 2465,-545 2465,-545 2465,-505.07 2465,-505.07"/>
<polygon fill="#757575" stroke="#757575" points="2468.5,-505.07 2465,-495.07 2461.5,-505.07 2468.5,-505.07"/>
</g>
<!-- src/match.ts -->
<g id="node11" class="node">
<title>src/match.ts</title>
<path fill="none" stroke="#cfffac" d="M1041.33,-318C1041.33,-318 966.67,-318 966.67,-318 962.83,-318 959,-314.17 959,-310.33 959,-310.33 959,-302.67 959,-302.67 959,-298.83 962.83,-295 966.67,-295 966.67,-295 1041.33,-295 1041.33,-295 1045.17,-295 1049,-298.83 1049,-302.67 1049,-302.67 1049,-310.33 1049,-310.33 1049,-314.17 1045.17,-318 1041.33,-318"/>
<text text-anchor="middle" x="1004" y="-302.8" font-family="Arial" font-size="14.00" fill="#cfffac">src/match.ts</text>
</g>
<!-- src/app.ts&#45;&gt;src/match.ts -->
<g id="edge10" class="edge">
<title>src/app.ts&#45;&gt;src/match.ts</title>
<path fill="none" stroke="#757575" d="M1147,-530.77C1147,-486.22 1147,-330 1147,-330 1147,-330 1019,-330 1019,-330 1019,-330 1019,-328.25 1019,-328.25"/>
<polygon fill="#757575" stroke="#757575" points="1022.5,-328.25 1019,-318.25 1015.5,-328.25 1022.5,-328.25"/>
</g>
<!-- src/parser.ts -->
<g id="node12" class="node">
<title>src/parser.ts</title>
<path fill="none" stroke="#c6c5fe" d="M82.33,-82C82.33,-82 7.67,-82 7.67,-82 3.83,-82 0,-78.17 0,-74.33 0,-74.33 0,-66.67 0,-66.67 0,-62.83 3.83,-59 7.67,-59 7.67,-59 82.33,-59 82.33,-59 86.17,-59 90,-62.83 90,-66.67 90,-66.67 90,-74.33 90,-74.33 90,-78.17 86.17,-82 82.33,-82"/>
<text text-anchor="middle" x="45" y="-66.8" font-family="Arial" font-size="14.00" fill="#c6c5fe">src/parser.ts</text>
</g>
<!-- src/app.ts&#45;&gt;src/parser.ts -->
<g id="edge11" class="edge">
<title>src/app.ts&#45;&gt;src/parser.ts</title>
<path fill="none" stroke="#757575" d="M1125.46,-549C927.61,-549 15,-549 15,-549 15,-549 15,-92.33 15,-92.33"/>
<polygon fill="#757575" stroke="#757575" points="18.5,-92.33 15,-82.33 11.5,-92.33 18.5,-92.33"/>
</g>
<!-- src/scope.ts -->
<g id="node13" class="node">
<title>src/scope.ts</title>
<path fill="none" stroke="#c6c5fe" d="M1842.83,-495C1842.83,-495 1769.17,-495 1769.17,-495 1765.33,-495 1761.5,-491.17 1761.5,-487.33 1761.5,-487.33 1761.5,-479.67 1761.5,-479.67 1761.5,-475.83 1765.33,-472 1769.17,-472 1769.17,-472 1842.83,-472 1842.83,-472 1846.67,-472 1850.5,-475.83 1850.5,-479.67 1850.5,-479.67 1850.5,-487.33 1850.5,-487.33 1850.5,-491.17 1846.67,-495 1842.83,-495"/>
<text text-anchor="middle" x="1806" y="-479.8" font-family="Arial" font-size="14.00" fill="#c6c5fe">src/scope.ts</text>
</g>
<!-- src/app.ts&#45;&gt;src/scope.ts -->
<g id="edge12" class="edge">
<title>src/app.ts&#45;&gt;src/scope.ts</title>
<path fill="none" stroke="#757575" d="M1200.82,-539C1338.65,-539 1806,-539 1806,-539 1806,-539 1806,-505.27 1806,-505.27"/>
<polygon fill="#757575" stroke="#757575" points="1809.5,-505.27 1806,-495.27 1802.5,-505.27 1809.5,-505.27"/>
</g>
<!-- src/utils/app&#45;handlers.ts -->
<g id="node14" class="node">
<title>src/utils/app&#45;handlers.ts</title>
<path fill="none" stroke="#c6c5fe" d="M1449.83,-495C1449.83,-495 1306.17,-495 1306.17,-495 1302.33,-495 1298.5,-491.17 1298.5,-487.33 1298.5,-487.33 1298.5,-479.67 1298.5,-479.67 1298.5,-475.83 1302.33,-472 1306.17,-472 1306.17,-472 1449.83,-472 1449.83,-472 1453.67,-472 1457.5,-475.83 1457.5,-479.67 1457.5,-479.67 1457.5,-487.33 1457.5,-487.33 1457.5,-491.17 1453.67,-495 1449.83,-495"/>
<text text-anchor="middle" x="1378" y="-479.8" font-family="Arial" font-size="14.00" fill="#c6c5fe">src/utils/app&#45;handlers.ts</text>
</g>
<!-- src/app.ts&#45;&gt;src/utils/app&#45;handlers.ts -->
<g id="edge13" class="edge">
<title>src/app.ts&#45;&gt;src/utils/app&#45;handlers.ts</title>
<path fill="none" stroke="#757575" d="M1183,-530.73C1183,-514.44 1183,-487 1183,-487 1183,-487 1288.4,-487 1288.4,-487"/>
<polygon fill="#757575" stroke="#757575" points="1288.4,-490.5 1298.4,-487 1288.4,-483.5 1288.4,-490.5"/>
</g>
<!-- src/utils/array.ts -->
<g id="node15" class="node">
<title>src/utils/array.ts</title>
<path fill="none" stroke="#cfffac" d="M630.33,-82C630.33,-82 535.67,-82 535.67,-82 531.83,-82 528,-78.17 528,-74.33 528,-74.33 528,-66.67 528,-66.67 528,-62.83 531.83,-59 535.67,-59 535.67,-59 630.33,-59 630.33,-59 634.17,-59 638,-62.83 638,-66.67 638,-66.67 638,-74.33 638,-74.33 638,-78.17 634.17,-82 630.33,-82"/>
<text text-anchor="middle" x="583" y="-66.8" font-family="Arial" font-size="14.00" fill="#cfffac">src/utils/array.ts</text>
</g>
<!-- src/app.ts&#45;&gt;src/utils/array.ts -->
<g id="edge14" class="edge">
<title>src/app.ts&#45;&gt;src/utils/array.ts</title>
<path fill="none" stroke="#757575" d="M1125.09,-544C991.33,-544 549.5,-544 549.5,-544 549.5,-544 549.5,-92.2 549.5,-92.2"/>
<polygon fill="#757575" stroke="#757575" points="553,-92.2 549.5,-82.2 546,-92.2 553,-92.2"/>
</g>
<!-- src/utils/this&#45;keyword.ts -->
<g id="node16" class="node">
<title>src/utils/this&#45;keyword.ts</title>
<path fill="none" stroke="#c6c5fe" d="M1732.33,-436C1732.33,-436 1591.67,-436 1591.67,-436 1587.83,-436 1584,-432.17 1584,-428.33 1584,-428.33 1584,-420.67 1584,-420.67 1584,-416.83 1587.83,-413 1591.67,-413 1591.67,-413 1732.33,-413 1732.33,-413 1736.17,-413 1740,-416.83 1740,-420.67 1740,-420.67 1740,-428.33 1740,-428.33 1740,-432.17 1736.17,-436 1732.33,-436"/>
<text text-anchor="middle" x="1662" y="-420.8" font-family="Arial" font-size="14.00" fill="#c6c5fe">src/utils/this&#45;keyword.ts</text>
</g>
<!-- src/app.ts&#45;&gt;src/utils/this&#45;keyword.ts -->
<g id="edge15" class="edge">
<title>src/app.ts&#45;&gt;src/utils/this&#45;keyword.ts</title>
<path fill="none" stroke="#757575" d="M1200.51,-536C1316.55,-536 1662,-536 1662,-536 1662,-536 1662,-446.01 1662,-446.01"/>
<polygon fill="#757575" stroke="#757575" points="1665.5,-446.01 1662,-436.01 1658.5,-446.01 1665.5,-446.01"/>
</g>
<!-- src/expressions/binary&#45;operation.ts&#45;&gt;src/expressions/handlers.ts -->
<g id="edge17" class="edge">
<title>src/expressions/binary&#45;operation.ts&#45;&gt;src/expressions/handlers.ts</title>
<path fill="none" stroke="#757575" d="M415.75,-412.9C415.75,-364.86 415.75,-184 415.75,-184 415.75,-184 1122.75,-184 1122.75,-184"/>
<polygon fill="#757575" stroke="#757575" points="1122.75,-187.5 1132.75,-184 1122.75,-180.5 1122.75,-187.5"/>
</g>
<!-- src/expressions/binary&#45;operation.ts&#45;&gt;src/parser.ts -->
<g id="edge19" class="edge">
<title>src/expressions/binary&#45;operation.ts&#45;&gt;src/parser.ts</title>
<path fill="none" stroke="#757575" d="M203.98,-424C123.67,-424 30,-424 30,-424 30,-424 30,-92.26 30,-92.26"/>
<polygon fill="#757575" stroke="#757575" points="33.5,-92.26 30,-82.26 26.5,-92.26 33.5,-92.26"/>
</g>
<!-- src/expressions/operators.ts -->
<g id="node18" class="node">
<title>src/expressions/operators.ts</title>
<path fill="none" stroke="#c6c5fe" d="M393.83,-377C393.83,-377 224.17,-377 224.17,-377 220.33,-377 216.5,-373.17 216.5,-369.33 216.5,-369.33 216.5,-361.67 216.5,-361.67 216.5,-357.83 220.33,-354 224.17,-354 224.17,-354 393.83,-354 393.83,-354 397.67,-354 401.5,-357.83 401.5,-361.67 401.5,-361.67 401.5,-369.33 401.5,-369.33 401.5,-373.17 397.67,-377 393.83,-377"/>
<text text-anchor="middle" x="309" y="-361.8" font-family="Arial" font-size="14.00" fill="#c6c5fe">src/expressions/operators.ts</text>
</g>
<!-- src/expressions/binary&#45;operation.ts&#45;&gt;src/expressions/operators.ts -->
<g id="edge18" class="edge">
<title>src/expressions/binary&#45;operation.ts&#45;&gt;src/expressions/operators.ts</title>
<path fill="none" stroke="#757575" d="M309,-412.84C309,-412.84 309,-387.13 309,-387.13"/>
<polygon fill="#757575" stroke="#757575" points="312.5,-387.13 309,-377.13 305.5,-387.13 312.5,-387.13"/>
</g>
<!-- src/expressions/grouped&#45;expressions.ts&#45;&gt;src/expressions/handlers.ts -->
<g id="edge20" class="edge">
<title>src/expressions/grouped&#45;expressions.ts&#45;&gt;src/expressions/handlers.ts</title>
<path fill="none" stroke="#757575" d="M1135.16,-356C1173.12,-356 1204.83,-356 1204.83,-356 1204.83,-356 1204.83,-210.01 1204.83,-210.01"/>
<polygon fill="#757575" stroke="#757575" points="1208.33,-210.01 1204.83,-200.01 1201.33,-210.01 1208.33,-210.01"/>
</g>
<!-- src/expressions/grouped&#45;expressions.ts&#45;&gt;src/match.ts -->
<g id="edge21" class="edge">
<title>src/expressions/grouped&#45;expressions.ts&#45;&gt;src/match.ts</title>
<path fill="none" stroke="#757575" d="M989,-353.84C989,-353.84 989,-328.13 989,-328.13"/>
<polygon fill="#757575" stroke="#757575" points="992.5,-328.13 989,-318.13 985.5,-328.13 992.5,-328.13"/>
</g>
<!-- src/expressions/grouped&#45;expressions.ts&#45;&gt;src/utils/array.ts -->
<g id="edge23" class="edge">
<title>src/expressions/grouped&#45;expressions.ts&#45;&gt;src/utils/array.ts</title>
<path fill="none" stroke="#757575" d="M920,-353.92C920,-299.28 920,-70 920,-70 920,-70 648.27,-70 648.27,-70"/>
<polygon fill="#757575" stroke="#757575" points="648.27,-66.5 638.27,-70 648.27,-73.5 648.27,-66.5"/>
</g>
<!-- src/types/structs.ts -->
<g id="node19" class="node">
<title>src/types/structs.ts</title>
<path fill="none" stroke="#c6c5fe" d="M1187.33,-318C1187.33,-318 1074.67,-318 1074.67,-318 1070.83,-318 1067,-314.17 1067,-310.33 1067,-310.33 1067,-302.67 1067,-302.67 1067,-298.83 1070.83,-295 1074.67,-295 1074.67,-295 1187.33,-295 1187.33,-295 1191.17,-295 1195,-298.83 1195,-302.67 1195,-302.67 1195,-310.33 1195,-310.33 1195,-314.17 1191.17,-318 1187.33,-318"/>
<text text-anchor="middle" x="1131" y="-302.8" font-family="Arial" font-size="14.00" fill="#c6c5fe">src/types/structs.ts</text>
</g>
<!-- src/expressions/grouped&#45;expressions.ts&#45;&gt;src/types/structs.ts -->
<g id="edge22" class="edge">
<title>src/expressions/grouped&#45;expressions.ts&#45;&gt;src/types/structs.ts</title>
<path fill="none" stroke="#757575" d="M1112.33,-353.84C1112.33,-353.84 1112.33,-328.13 1112.33,-328.13"/>
<polygon fill="#757575" stroke="#757575" points="1115.83,-328.13 1112.33,-318.13 1108.83,-328.13 1115.83,-328.13"/>
</g>
<!-- src/utils/identifier&#45;utils.ts -->
<g id="node20" class="node">
<title>src/utils/identifier&#45;utils.ts</title>
<path fill="none" stroke="#cfffac" d="M1594.33,-259C1594.33,-259 1449.67,-259 1449.67,-259 1445.83,-259 1442,-255.17 1442,-251.33 1442,-251.33 1442,-243.67 1442,-243.67 1442,-239.83 1445.83,-236 1449.67,-236 1449.67,-236 1594.33,-236 1594.33,-236 1598.17,-236 1602,-239.83 1602,-243.67 1602,-243.67 1602,-251.33 1602,-251.33 1602,-255.17 1598.17,-259 1594.33,-259"/>
<text text-anchor="middle" x="1522" y="-243.8" font-family="Arial" font-size="14.00" fill="#cfffac">src/utils/identifier&#45;utils.ts</text>
</g>
<!-- src/expressions/grouped&#45;expressions.ts&#45;&gt;src/utils/identifier&#45;utils.ts -->
<g id="edge24" class="edge">
<title>src/expressions/grouped&#45;expressions.ts&#45;&gt;src/utils/identifier&#45;utils.ts</title>
<path fill="none" stroke="#757575" d="M1135.15,-362C1269.88,-362 1463.38,-362 1463.38,-362 1463.38,-362 1463.38,-269.32 1463.38,-269.32"/>
<polygon fill="#757575" stroke="#757575" points="1466.88,-269.32 1463.38,-259.32 1459.88,-269.32 1466.88,-269.32"/>
</g>
<!-- src/handlers/assignment.ts -->
<g id="node21" class="node">
<title>src/handlers/assignment.ts</title>
<path fill="none" stroke="#c6c5fe" d="M1187.33,-141C1187.33,-141 1024.67,-141 1024.67,-141 1020.83,-141 1017,-137.17 1017,-133.33 1017,-133.33 1017,-125.67 1017,-125.67 1017,-121.83 1020.83,-118 1024.67,-118 1024.67,-118 1187.33,-118 1187.33,-118 1191.17,-118 1195,-121.83 1195,-125.67 1195,-125.67 1195,-133.33 1195,-133.33 1195,-137.17 1191.17,-141 1187.33,-141"/>
<text text-anchor="middle" x="1106" y="-125.8" font-family="Arial" font-size="14.00" fill="#c6c5fe">src/handlers/assignment.ts</text>
</g>
<!-- src/expressions/handlers.ts&#45;&gt;src/handlers/assignment.ts -->
<g id="edge25" class="edge">
<title>src/expressions/handlers.ts&#45;&gt;src/handlers/assignment.ts</title>
<path fill="none" stroke="#757575" d="M1164,-176.84C1164,-176.84 1164,-151.13 1164,-151.13"/>
<polygon fill="#757575" stroke="#757575" points="1167.5,-151.13 1164,-141.13 1160.5,-151.13 1167.5,-151.13"/>
</g>
<!-- src/types/interpreter.ts -->
<g id="node22" class="node">
<title>src/types/interpreter.ts</title>
<path fill="none" stroke="#cfffac" d="M1230.83,-82C1230.83,-82 1097.17,-82 1097.17,-82 1093.33,-82 1089.5,-78.17 1089.5,-74.33 1089.5,-74.33 1089.5,-66.67 1089.5,-66.67 1089.5,-62.83 1093.33,-59 1097.17,-59 1097.17,-59 1230.83,-59 1230.83,-59 1234.67,-59 1238.5,-62.83 1238.5,-66.67 1238.5,-66.67 1238.5,-74.33 1238.5,-74.33 1238.5,-78.17 1234.67,-82 1230.83,-82"/>
<text text-anchor="middle" x="1164" y="-66.8" font-family="Arial" font-size="14.00" fill="#cfffac">src/types/interpreter.ts</text>
</g>
<!-- src/expressions/handlers.ts&#45;&gt;src/types/interpreter.ts -->
<g id="edge26" class="edge">
<title>src/expressions/handlers.ts&#45;&gt;src/types/interpreter.ts</title>
<path fill="none" stroke="#757575" d="M1216.75,-176.75C1216.75,-176.75 1216.75,-92.2 1216.75,-92.2"/>
<polygon fill="#757575" stroke="#757575" points="1220.25,-92.2 1216.75,-82.2 1213.25,-92.2 1220.25,-92.2"/>
</g>
<!-- src/utils/scope&#45;helpers.ts -->
<g id="node23" class="node">
<title>src/utils/scope&#45;helpers.ts</title>
<path fill="none" stroke="#c6c5fe" d="M1600.83,-141C1600.83,-141 1451.17,-141 1451.17,-141 1447.33,-141 1443.5,-137.17 1443.5,-133.33 1443.5,-133.33 1443.5,-125.67 1443.5,-125.67 1443.5,-121.83 1447.33,-118 1451.17,-118 1451.17,-118 1600.83,-118 1600.83,-118 1604.67,-118 1608.5,-121.83 1608.5,-125.67 1608.5,-125.67 1608.5,-133.33 1608.5,-133.33 1608.5,-137.17 1604.67,-141 1600.83,-141"/>
<text text-anchor="middle" x="1526" y="-125.8" font-family="Arial" font-size="14.00" fill="#c6c5fe">src/utils/scope&#45;helpers.ts</text>
</g>
<!-- src/expressions/handlers.ts&#45;&gt;src/utils/scope&#45;helpers.ts -->
<g id="edge27" class="edge">
<title>src/expressions/handlers.ts&#45;&gt;src/utils/scope&#45;helpers.ts</title>
<path fill="none" stroke="#757575" d="M1275.75,-176.74C1275.75,-159.4 1275.75,-129 1275.75,-129 1275.75,-129 1433.37,-129 1433.37,-129"/>
<polygon fill="#757575" stroke="#757575" points="1433.37,-132.5 1443.37,-129 1433.37,-125.5 1433.37,-132.5"/>
</g>
<!-- src/handlers/dereference&#45;assignment.ts&#45;&gt;src/expressions/handlers.ts -->
<g id="edge47" class="edge">
<title>src/handlers/dereference&#45;assignment.ts&#45;&gt;src/expressions/handlers.ts</title>
<path fill="none" stroke="#757575" d="M590.25,-353.85C590.25,-314.95 590.25,-192 590.25,-192 590.25,-192 1122.68,-192 1122.68,-192"/>
<polygon fill="#757575" stroke="#757575" points="1122.68,-195.5 1132.68,-192 1122.68,-188.5 1122.68,-195.5"/>
</g>
<!-- src/handlers/dereference&#45;assignment.ts&#45;&gt;src/handlers/pointer&#45;operations.ts -->
<g id="edge48" class="edge">
<title>src/handlers/dereference&#45;assignment.ts&#45;&gt;src/handlers/pointer&#45;operations.ts</title>
<path fill="none" stroke="#757575" d="M717.25,-353.84C717.25,-353.84 717.25,-328.13 717.25,-328.13"/>
<polygon fill="#757575" stroke="#757575" points="720.75,-328.13 717.25,-318.13 713.75,-328.13 720.75,-328.13"/>
</g>
<!-- src/functions.ts -->
<g id="node28" class="node">
<title>src/functions.ts</title>
<path fill="none" stroke="#c6c5fe" d="M1933.83,-377C1933.83,-377 1842.17,-377 1842.17,-377 1838.33,-377 1834.5,-373.17 1834.5,-369.33 1834.5,-369.33 1834.5,-361.67 1834.5,-361.67 1834.5,-357.83 1838.33,-354 1842.17,-354 1842.17,-354 1933.83,-354 1933.83,-354 1937.67,-354 1941.5,-357.83 1941.5,-361.67 1941.5,-361.67 1941.5,-369.33 1941.5,-369.33 1941.5,-373.17 1937.67,-377 1933.83,-377"/>
<text text-anchor="middle" x="1888" y="-361.8" font-family="Arial" font-size="14.00" fill="#c6c5fe">src/functions.ts</text>
</g>
<!-- src/handlers/lambda&#45;expressions.ts&#45;&gt;src/functions.ts -->
<g id="edge53" class="edge">
<title>src/handlers/lambda&#45;expressions.ts&#45;&gt;src/functions.ts</title>
<path fill="none" stroke="#757575" d="M2112.75,-412.89C2112.75,-397.16 2112.75,-371 2112.75,-371 2112.75,-371 1951.55,-371 1951.55,-371"/>
<polygon fill="#757575" stroke="#757575" points="1951.55,-367.5 1941.55,-371 1951.55,-374.5 1951.55,-367.5"/>
</g>
<!-- src/handlers/anonymous&#45;functions.ts -->
<g id="node29" class="node">
<title>src/handlers/anonymous&#45;functions.ts</title>
<path fill="none" stroke="#c6c5fe" d="M2346.83,-318C2346.83,-318 2125.17,-318 2125.17,-318 2121.33,-318 2117.5,-314.17 2117.5,-310.33 2117.5,-310.33 2117.5,-302.67 2117.5,-302.67 2117.5,-298.83 2121.33,-295 2125.17,-295 2125.17,-295 2346.83,-295 2346.83,-295 2350.67,-295 2354.5,-298.83 2354.5,-302.67 2354.5,-302.67 2354.5,-310.33 2354.5,-310.33 2354.5,-314.17 2350.67,-318 2346.83,-318"/>
<text text-anchor="middle" x="2236" y="-302.8" font-family="Arial" font-size="14.00" fill="#c6c5fe">src/handlers/anonymous&#45;functions.ts</text>
</g>
<!-- src/handlers/lambda&#45;expressions.ts&#45;&gt;src/handlers/anonymous&#45;functions.ts -->
<g id="edge54" class="edge">
<title>src/handlers/lambda&#45;expressions.ts&#45;&gt;src/handlers/anonymous&#45;functions.ts</title>
<path fill="none" stroke="#757575" d="M2264.5,-412.75C2264.5,-412.75 2264.5,-328.2 2264.5,-328.2"/>
<polygon fill="#757575" stroke="#757575" points="2268,-328.2 2264.5,-318.2 2261,-328.2 2268,-328.2"/>
</g>
<!-- src/handlers/pointer&#45;operations.ts&#45;&gt;src/utils/identifier&#45;utils.ts -->
<g id="edge58" class="edge">
<title>src/handlers/pointer&#45;operations.ts&#45;&gt;src/utils/identifier&#45;utils.ts</title>
<path fill="none" stroke="#757575" d="M732.25,-294.74C732.25,-277.4 732.25,-247 732.25,-247 732.25,-247 1431.93,-247 1431.93,-247"/>
<polygon fill="#757575" stroke="#757575" points="1431.93,-250.5 1441.93,-247 1431.93,-243.5 1431.93,-250.5"/>
</g>
<!-- src/loops/for.ts&#45;&gt;src/loops/loop.ts -->
<g id="edge60" class="edge">
<title>src/loops/for.ts&#45;&gt;src/loops/loop.ts</title>
<path fill="none" stroke="#757575" d="M2654.13,-483C2693.93,-483 2742,-483 2742,-483 2742,-483 2742,-446.06 2742,-446.06"/>
<polygon fill="#757575" stroke="#757575" points="2745.5,-446.06 2742,-436.06 2738.5,-446.06 2745.5,-446.06"/>
</g>
<!-- src/loops/helpers.ts -->
<g id="node34" class="node">
<title>src/loops/helpers.ts</title>
<path fill="none" stroke="#cfffac" d="M2519.83,-436C2519.83,-436 2402.17,-436 2402.17,-436 2398.33,-436 2394.5,-432.17 2394.5,-428.33 2394.5,-428.33 2394.5,-420.67 2394.5,-420.67 2394.5,-416.83 2398.33,-413 2402.17,-413 2402.17,-413 2519.83,-413 2519.83,-413 2523.67,-413 2527.5,-416.83 2527.5,-420.67 2527.5,-420.67 2527.5,-428.33 2527.5,-428.33 2527.5,-432.17 2523.67,-436 2519.83,-436"/>
<text text-anchor="middle" x="2461" y="-420.8" font-family="Arial" font-size="14.00" fill="#cfffac">src/loops/helpers.ts</text>
</g>
<!-- src/loops/for.ts&#45;&gt;src/loops/helpers.ts -->
<g id="edge59" class="edge">
<title>src/loops/for.ts&#45;&gt;src/loops/helpers.ts</title>
<path fill="none" stroke="#757575" d="M2549.82,-479C2543.65,-479 2539.5,-479 2539.5,-479 2539.5,-479 2539.5,-428 2539.5,-428 2539.5,-428 2537.58,-428 2537.58,-428"/>
<polygon fill="#757575" stroke="#757575" points="2537.58,-424.5 2527.58,-428 2537.58,-431.5 2537.58,-424.5"/>
</g>
<!-- src/loops/types.ts -->
<g id="node35" class="node">
<title>src/loops/types.ts</title>
<path fill="none" stroke="#c6c5fe" d="M2658.83,-436C2658.83,-436 2553.17,-436 2553.17,-436 2549.33,-436 2545.5,-432.17 2545.5,-428.33 2545.5,-428.33 2545.5,-420.67 2545.5,-420.67 2545.5,-416.83 2549.33,-413 2553.17,-413 2553.17,-413 2658.83,-413 2658.83,-413 2662.67,-413 2666.5,-416.83 2666.5,-420.67 2666.5,-420.67 2666.5,-428.33 2666.5,-428.33 2666.5,-432.17 2662.67,-436 2658.83,-436"/>
<text text-anchor="middle" x="2606" y="-420.8" font-family="Arial" font-size="14.00" fill="#c6c5fe">src/loops/types.ts</text>
</g>
<!-- src/loops/for.ts&#45;&gt;src/loops/types.ts -->
<g id="edge61" class="edge">
<title>src/loops/for.ts&#45;&gt;src/loops/types.ts</title>
<path fill="none" stroke="#757575" d="M2602,-471.84C2602,-471.84 2602,-446.13 2602,-446.13"/>
<polygon fill="#757575" stroke="#757575" points="2605.5,-446.13 2602,-436.13 2598.5,-446.13 2605.5,-446.13"/>
</g>
<!-- src/loops/while.ts&#45;&gt;src/loops/loop.ts -->
<g id="edge64" class="edge">
<title>src/loops/while.ts&#45;&gt;src/loops/loop.ts</title>
<path fill="none" stroke="#757575" d="M2484.83,-471.84C2484.83,-463.6 2484.83,-454 2484.83,-454 2484.83,-454 2713.5,-454 2713.5,-454 2713.5,-454 2713.5,-446.16 2713.5,-446.16"/>
<polygon fill="#757575" stroke="#757575" points="2717,-446.16 2713.5,-436.16 2710,-446.16 2717,-446.16"/>
</g>
<!-- src/loops/while.ts&#45;&gt;src/loops/helpers.ts -->
<g id="edge63" class="edge">
<title>src/loops/while.ts&#45;&gt;src/loops/helpers.ts</title>
<path fill="none" stroke="#757575" d="M2445.17,-471.84C2445.17,-471.84 2445.17,-446.13 2445.17,-446.13"/>
<polygon fill="#757575" stroke="#757575" points="2448.67,-446.13 2445.17,-436.13 2441.67,-446.13 2448.67,-446.13"/>
</g>
<!-- src/loops/while.ts&#45;&gt;src/loops/types.ts -->
<g id="edge65" class="edge">
<title>src/loops/while.ts&#45;&gt;src/loops/types.ts</title>
<path fill="none" stroke="#757575" d="M2524.54,-487C2529.98,-487 2533.5,-487 2533.5,-487 2533.5,-487 2533.5,-420 2533.5,-420 2533.5,-420 2535.47,-420 2535.47,-420"/>
<polygon fill="#757575" stroke="#757575" points="2535.47,-423.5 2545.47,-420 2535.47,-416.5 2535.47,-423.5"/>
</g>
<!-- src/type&#45;utils.ts -->
<g id="node26" class="node">
<title>src/type&#45;utils.ts</title>
<path fill="none" stroke="#cfffac" d="M1906.83,-23C1906.83,-23 1815.17,-23 1815.17,-23 1811.33,-23 1807.5,-19.17 1807.5,-15.33 1807.5,-15.33 1807.5,-7.67 1807.5,-7.67 1807.5,-3.83 1811.33,0 1815.17,0 1815.17,0 1906.83,0 1906.83,0 1910.67,0 1914.5,-3.83 1914.5,-7.67 1914.5,-7.67 1914.5,-15.33 1914.5,-15.33 1914.5,-19.17 1910.67,-23 1906.83,-23"/>
<text text-anchor="middle" x="1861" y="-7.8" font-family="Arial" font-size="14.00" fill="#cfffac">src/type&#45;utils.ts</text>
</g>
<!-- src/parser.ts&#45;&gt;src/type&#45;utils.ts -->
<g id="edge66" class="edge">
<title>src/parser.ts&#45;&gt;src/type&#45;utils.ts</title>
<path fill="none" stroke="#757575" d="M45,-58.85C45,-40.52 45,-7 45,-7 45,-7 1797.14,-7 1797.14,-7"/>
<polygon fill="#757575" stroke="#757575" points="1797.14,-10.5 1807.14,-7 1797.14,-3.5 1797.14,-10.5"/>
</g>
<!-- src/scope.ts&#45;&gt;src/expressions/handlers.ts -->
<g id="edge67" class="edge">
<title>src/scope.ts&#45;&gt;src/expressions/handlers.ts</title>
<path fill="none" stroke="#757575" d="M1793,-471.84C1793,-416.83 1793,-186 1793,-186 1793,-186 1323,-186 1323,-186"/>
<polygon fill="#757575" stroke="#757575" points="1323,-182.5 1313,-186 1323,-189.5 1323,-182.5"/>
</g>
<!-- src/scope.ts&#45;&gt;src/handlers/lambda&#45;expressions.ts -->
<g id="edge70" class="edge">
<title>src/scope.ts&#45;&gt;src/handlers/lambda&#45;expressions.ts</title>
<path fill="none" stroke="#757575" d="M1850.55,-483C1950.65,-483 2184.67,-483 2184.67,-483 2184.67,-483 2184.67,-446.06 2184.67,-446.06"/>
<polygon fill="#757575" stroke="#757575" points="2188.17,-446.06 2184.67,-436.06 2181.17,-446.06 2188.17,-446.06"/>
</g>
<!-- src/scope.ts&#45;&gt;src/parser.ts -->
<g id="edge71" class="edge">
<title>src/scope.ts&#45;&gt;src/parser.ts</title>
<path fill="none" stroke="#757575" d="M1770,-471.93C1770,-447.94 1770,-395 1770,-395 1770,-395 45,-395 45,-395 45,-395 45,-92.05 45,-92.05"/>
<polygon fill="#757575" stroke="#757575" points="48.5,-92.05 45,-82.05 41.5,-92.05 48.5,-92.05"/>
</g>
<!-- src/scope.ts&#45;&gt;src/utils/array.ts -->
<g id="edge72" class="edge">
<title>src/scope.ts&#45;&gt;src/utils/array.ts</title>
<path fill="none" stroke="#757575" d="M1785.75,-471.8C1785.75,-429.49 1785.75,-287 1785.75,-287 1785.75,-287 616.62,-287 616.62,-287 616.62,-287 616.62,-92.14 616.62,-92.14"/>
<polygon fill="#757575" stroke="#757575" points="620.13,-92.14 616.62,-82.14 613.13,-92.14 620.13,-92.14"/>
</g>
<!-- src/scope.ts&#45;&gt;src/utils/scope&#45;helpers.ts -->
<g id="edge74" class="edge">
<title>src/scope.ts&#45;&gt;src/utils/scope&#45;helpers.ts</title>
<path fill="none" stroke="#757575" d="M1800.25,-471.9C1800.25,-411.43 1800.25,-135 1800.25,-135 1800.25,-135 1618.66,-135 1618.66,-135"/>
<polygon fill="#757575" stroke="#757575" points="1618.66,-131.5 1608.66,-135 1618.66,-138.5 1618.66,-131.5"/>
</g>
<!-- src/function&#45;type&#45;handler.ts -->
<g id="node27" class="node">
<title>src/function&#45;type&#45;handler.ts</title>
<path fill="none" stroke="#c6c5fe" d="M2081.83,-436C2081.83,-436 1918.17,-436 1918.17,-436 1914.33,-436 1910.5,-432.17 1910.5,-428.33 1910.5,-428.33 1910.5,-420.67 1910.5,-420.67 1910.5,-416.83 1914.33,-413 1918.17,-413 1918.17,-413 2081.83,-413 2081.83,-413 2085.67,-413 2089.5,-416.83 2089.5,-420.67 2089.5,-420.67 2089.5,-428.33 2089.5,-428.33 2089.5,-432.17 2085.67,-436 2081.83,-436"/>
<text text-anchor="middle" x="2000" y="-420.8" font-family="Arial" font-size="14.00" fill="#c6c5fe">src/function&#45;type&#45;handler.ts</text>
</g>
<!-- src/scope.ts&#45;&gt;src/function&#45;type&#45;handler.ts -->
<g id="edge68" class="edge">
<title>src/scope.ts&#45;&gt;src/function&#45;type&#45;handler.ts</title>
<path fill="none" stroke="#757575" d="M1846.5,-471.89C1846.5,-456.16 1846.5,-430 1846.5,-430 1846.5,-430 1900.26,-430 1900.26,-430"/>
<polygon fill="#757575" stroke="#757575" points="1900.26,-433.5 1910.26,-430 1900.26,-426.5 1900.26,-433.5"/>
</g>
<!-- src/scope.ts&#45;&gt;src/functions.ts -->
<g id="edge69" class="edge">
<title>src/scope.ts&#45;&gt;src/functions.ts</title>
<path fill="none" stroke="#757575" d="M1842.5,-471.75C1842.5,-471.75 1842.5,-387.2 1842.5,-387.2"/>
<polygon fill="#757575" stroke="#757575" points="1846,-387.2 1842.5,-377.2 1839,-387.2 1846,-387.2"/>
</g>
<!-- src/utils/function&#45;utils.ts -->
<g id="node32" class="node">
<title>src/utils/function&#45;utils.ts</title>
<path fill="none" stroke="#c6c5fe" d="M2142.33,-82C2142.33,-82 2001.67,-82 2001.67,-82 1997.83,-82 1994,-78.17 1994,-74.33 1994,-74.33 1994,-66.67 1994,-66.67 1994,-62.83 1997.83,-59 2001.67,-59 2001.67,-59 2142.33,-59 2142.33,-59 2146.17,-59 2150,-62.83 2150,-66.67 2150,-66.67 2150,-74.33 2150,-74.33 2150,-78.17 2146.17,-82 2142.33,-82"/>
<text text-anchor="middle" x="2072" y="-66.8" font-family="Arial" font-size="14.00" fill="#c6c5fe">src/utils/function&#45;utils.ts</text>
</g>
<!-- src/scope.ts&#45;&gt;src/utils/function&#45;utils.ts -->
<g id="edge73" class="edge">
<title>src/scope.ts&#45;&gt;src/utils/function&#45;utils.ts</title>
<path fill="none" stroke="#757575" d="M1823.7,-471.69C1823.7,-404.54 1823.7,-74 1823.7,-74 1823.7,-74 1983.78,-74 1983.78,-74"/>
<polygon fill="#757575" stroke="#757575" points="1983.78,-77.5 1993.78,-74 1983.78,-70.5 1983.78,-77.5"/>
</g>
<!-- src/utils/app&#45;handlers.ts&#45;&gt;src/types/structs.ts -->
<g id="edge81" class="edge">
<title>src/utils/app&#45;handlers.ts&#45;&gt;src/types/structs.ts</title>
<path fill="none" stroke="#757575" d="M1298.32,-479C1235.7,-479 1159,-479 1159,-479 1159,-479 1159,-328.09 1159,-328.09"/>
<polygon fill="#757575" stroke="#757575" points="1162.5,-328.09 1159,-318.09 1155.5,-328.09 1162.5,-328.09"/>
</g>
<!-- src/utils/app&#45;handlers.ts&#45;&gt;src/functions.ts -->
<g id="edge79" class="edge">
<title>src/utils/app&#45;handlers.ts&#45;&gt;src/functions.ts</title>
<path fill="none" stroke="#757575" d="M1331.83,-471.57C1331.83,-442.06 1331.83,-368 1331.83,-368 1331.83,-368 1824.42,-368 1824.42,-368"/>
<polygon fill="#757575" stroke="#757575" points="1824.42,-371.5 1834.42,-368 1824.42,-364.5 1824.42,-371.5"/>
</g>
<!-- src/utils/function&#45;call&#45;params.ts -->
<g id="node31" class="node">
<title>src/utils/function&#45;call&#45;params.ts</title>
<path fill="none" stroke="#c6c5fe" d="M1408.83,-318C1408.83,-318 1221.17,-318 1221.17,-318 1217.33,-318 1213.5,-314.17 1213.5,-310.33 1213.5,-310.33 1213.5,-302.67 1213.5,-302.67 1213.5,-298.83 1217.33,-295 1221.17,-295 1221.17,-295 1408.83,-295 1408.83,-295 1412.67,-295 1416.5,-298.83 1416.5,-302.67 1416.5,-302.67 1416.5,-310.33 1416.5,-310.33 1416.5,-314.17 1412.67,-318 1408.83,-318"/>
<text text-anchor="middle" x="1315" y="-302.8" font-family="Arial" font-size="14.00" fill="#c6c5fe">src/utils/function&#45;call&#45;params.ts</text>
</g>
<!-- src/utils/app&#45;handlers.ts&#45;&gt;src/utils/function&#45;call&#45;params.ts -->
<g id="edge83" class="edge">
<title>src/utils/app&#45;handlers.ts&#45;&gt;src/utils/function&#45;call&#45;params.ts</title>
<path fill="none" stroke="#757575" d="M1315.17,-471.89C1315.17,-471.89 1315.17,-328.39 1315.17,-328.39"/>
<polygon fill="#757575" stroke="#757575" points="1318.67,-328.39 1315.17,-318.39 1311.67,-328.39 1318.67,-328.39"/>
</g>
<!-- src/handlers/method&#45;call.ts -->
<g id="node33" class="node">
<title>src/handlers/method&#45;call.ts</title>
<path fill="none" stroke="#c6c5fe" d="M1519.83,-436C1519.83,-436 1356.17,-436 1356.17,-436 1352.33,-436 1348.5,-432.17 1348.5,-428.33 1348.5,-428.33 1348.5,-420.67 1348.5,-420.67 1348.5,-416.83 1352.33,-413 1356.17,-413 1356.17,-413 1519.83,-413 1519.83,-413 1523.67,-413 1527.5,-416.83 1527.5,-420.67 1527.5,-420.67 1527.5,-428.33 1527.5,-428.33 1527.5,-432.17 1523.67,-436 1519.83,-436"/>
<text text-anchor="middle" x="1438" y="-420.8" font-family="Arial" font-size="14.00" fill="#c6c5fe">src/handlers/method&#45;call.ts</text>
</g>
<!-- src/utils/app&#45;handlers.ts&#45;&gt;src/handlers/method&#45;call.ts -->
<g id="edge80" class="edge">
<title>src/utils/app&#45;handlers.ts&#45;&gt;src/handlers/method&#45;call.ts</title>
<path fill="none" stroke="#757575" d="M1403,-471.84C1403,-471.84 1403,-446.13 1403,-446.13"/>
<polygon fill="#757575" stroke="#757575" points="1406.5,-446.13 1403,-436.13 1399.5,-446.13 1406.5,-446.13"/>
</g>
<!-- src/types/type&#45;declarations.ts -->
<g id="node36" class="node">
<title>src/types/type&#45;declarations.ts</title>
<path fill="none" stroke="#c6c5fe" d="M1770.83,-318C1770.83,-318 1595.17,-318 1595.17,-318 1591.33,-318 1587.5,-314.17 1587.5,-310.33 1587.5,-310.33 1587.5,-302.67 1587.5,-302.67 1587.5,-298.83 1591.33,-295 1595.17,-295 1595.17,-295 1770.83,-295 1770.83,-295 1774.67,-295 1778.5,-298.83 1778.5,-302.67 1778.5,-302.67 1778.5,-310.33 1778.5,-310.33 1778.5,-314.17 1774.67,-318 1770.83,-318"/>
<text text-anchor="middle" x="1683" y="-302.8" font-family="Arial" font-size="14.00" fill="#c6c5fe">src/types/type&#45;declarations.ts</text>
</g>
<!-- src/utils/app&#45;handlers.ts&#45;&gt;src/types/type&#45;declarations.ts -->
<g id="edge82" class="edge">
<title>src/utils/app&#45;handlers.ts&#45;&gt;src/types/type&#45;declarations.ts</title>
<path fill="none" stroke="#757575" d="M1457.51,-483C1566.98,-483 1750.75,-483 1750.75,-483 1750.75,-483 1750.75,-328.08 1750.75,-328.08"/>
<polygon fill="#757575" stroke="#757575" points="1754.25,-328.08 1750.75,-318.08 1747.25,-328.08 1754.25,-328.08"/>
</g>
<!-- src/utils/this&#45;keyword.ts&#45;&gt;src/types/structs.ts -->
<g id="edge92" class="edge">
<title>src/utils/this&#45;keyword.ts&#45;&gt;src/types/structs.ts</title>
<path fill="none" stroke="#757575" d="M1663.75,-412.79C1663.75,-397.87 1663.75,-374 1663.75,-374 1663.75,-374 1171,-374 1171,-374 1171,-374 1171,-328.26 1171,-328.26"/>
<polygon fill="#757575" stroke="#757575" points="1174.5,-328.26 1171,-318.26 1167.5,-328.26 1174.5,-328.26"/>
</g>
<!-- src/utils/this&#45;keyword.ts&#45;&gt;src/functions.ts -->
<g id="edge91" class="edge">
<title>src/utils/this&#45;keyword.ts&#45;&gt;src/functions.ts</title>
<path fill="none" stroke="#757575" d="M1740.19,-418C1787.4,-418 1838.5,-418 1838.5,-418 1838.5,-418 1838.5,-387.15 1838.5,-387.15"/>
<polygon fill="#757575" stroke="#757575" points="1842,-387.15 1838.5,-377.15 1835,-387.15 1842,-387.15"/>
</g>
<!-- src/declarations.ts -->
<g id="node17" class="node">
<title>src/declarations.ts</title>
<path fill="none" stroke="#c6c5fe" d="M1737.83,-259C1737.83,-259 1628.17,-259 1628.17,-259 1624.33,-259 1620.5,-255.17 1620.5,-251.33 1620.5,-251.33 1620.5,-243.67 1620.5,-243.67 1620.5,-239.83 1624.33,-236 1628.17,-236 1628.17,-236 1737.83,-236 1737.83,-236 1741.67,-236 1745.5,-239.83 1745.5,-243.67 1745.5,-243.67 1745.5,-251.33 1745.5,-251.33 1745.5,-255.17 1741.67,-259 1737.83,-259"/>
<text text-anchor="middle" x="1683" y="-243.8" font-family="Arial" font-size="14.00" fill="#c6c5fe">src/declarations.ts</text>
</g>
<!-- src/declarations.ts&#45;&gt;src/expressions/handlers.ts -->
<g id="edge16" class="edge">
<title>src/declarations.ts&#45;&gt;src/expressions/handlers.ts</title>
<path fill="none" stroke="#757575" d="M1683,-235.86C1683,-219.06 1683,-190 1683,-190 1683,-190 1323.06,-190 1323.06,-190"/>
<polygon fill="#757575" stroke="#757575" points="1323.06,-186.5 1313.06,-190 1323.06,-193.5 1323.06,-186.5"/>
</g>
<!-- src/expressions/operators.ts&#45;&gt;src/handlers/pointer&#45;operations.ts -->
<g id="edge30" class="edge">
<title>src/expressions/operators.ts&#45;&gt;src/handlers/pointer&#45;operations.ts</title>
<path fill="none" stroke="#757575" d="M393.8,-353.74C393.8,-336.4 393.8,-306 393.8,-306 393.8,-306 599.14,-306 599.14,-306"/>
<polygon fill="#757575" stroke="#757575" points="599.14,-309.5 609.14,-306 599.14,-302.5 599.14,-309.5"/>
</g>
<!-- src/expressions/operators.ts&#45;&gt;src/parser.ts -->
<g id="edge31" class="edge">
<title>src/expressions/operators.ts&#45;&gt;src/parser.ts</title>
<path fill="none" stroke="#757575" d="M216.28,-365C145.49,-365 60,-365 60,-365 60,-365 60,-92.04 60,-92.04"/>
<polygon fill="#757575" stroke="#757575" points="63.5,-92.04 60,-82.04 56.5,-92.04 63.5,-92.04"/>
</g>
<!-- src/expressions/operators.ts&#45;&gt;src/utils/array.ts -->
<g id="edge34" class="edge">
<title>src/expressions/operators.ts&#45;&gt;src/utils/array.ts</title>
<path fill="none" stroke="#757575" d="M386.1,-353.92C386.1,-299.28 386.1,-70 386.1,-70 386.1,-70 517.89,-70 517.89,-70"/>
<polygon fill="#757575" stroke="#757575" points="517.89,-73.5 527.89,-70 517.89,-66.5 517.89,-73.5"/>
</g>
<!-- src/expressions/operators.ts&#45;&gt;src/types/structs.ts -->
<g id="edge33" class="edge">
<title>src/expressions/operators.ts&#45;&gt;src/types/structs.ts</title>
<path fill="none" stroke="#757575" d="M378.4,-353.75C378.4,-347.88 378.4,-342 378.4,-342 378.4,-342 1089.67,-342 1089.67,-342 1089.67,-342 1089.67,-328.12 1089.67,-328.12"/>
<polygon fill="#757575" stroke="#757575" points="1093.17,-328.12 1089.67,-318.12 1086.17,-328.12 1093.17,-328.12"/>
</g>
<!-- src/expressions/operator&#45;finder.ts -->
<g id="node24" class="node">
<title>src/expressions/operator&#45;finder.ts</title>
<path fill="none" stroke="#c6c5fe" d="M355.33,-318C355.33,-318 154.67,-318 154.67,-318 150.83,-318 147,-314.17 147,-310.33 147,-310.33 147,-302.67 147,-302.67 147,-298.83 150.83,-295 154.67,-295 154.67,-295 355.33,-295 355.33,-295 359.17,-295 363,-298.83 363,-302.67 363,-302.67 363,-310.33 363,-310.33 363,-314.17 359.17,-318 355.33,-318"/>
<text text-anchor="middle" x="255" y="-302.8" font-family="Arial" font-size="14.00" fill="#c6c5fe">src/expressions/operator&#45;finder.ts</text>
</g>
<!-- src/expressions/operators.ts&#45;&gt;src/expressions/operator&#45;finder.ts -->
<g id="edge29" class="edge">
<title>src/expressions/operators.ts&#45;&gt;src/expressions/operator&#45;finder.ts</title>
<path fill="none" stroke="#757575" d="M289.75,-353.84C289.75,-353.84 289.75,-328.13 289.75,-328.13"/>
<polygon fill="#757575" stroke="#757575" points="293.25,-328.13 289.75,-318.13 286.25,-328.13 293.25,-328.13"/>
</g>
<!-- src/expressions/operators.ts&#45;&gt;src/type&#45;utils.ts -->
<g id="edge32" class="edge">
<title>src/expressions/operators.ts&#45;&gt;src/type&#45;utils.ts</title>
<path fill="none" stroke="#757575" d="M370.7,-353.84C370.7,-293.02 370.7,-15 370.7,-15 370.7,-15 1797.08,-15 1797.08,-15"/>
<polygon fill="#757575" stroke="#757575" points="1797.08,-18.5 1807.08,-15 1797.08,-11.5 1797.08,-18.5"/>
</g>
<!-- src/types/structs.ts&#45;&gt;src/expressions/handlers.ts -->
<g id="edge76" class="edge">
<title>src/types/structs.ts&#45;&gt;src/expressions/handlers.ts</title>
<path fill="none" stroke="#757575" d="M1174.33,-294.75C1174.33,-294.75 1174.33,-210.2 1174.33,-210.2"/>
<polygon fill="#757575" stroke="#757575" points="1177.83,-210.2 1174.33,-200.2 1170.83,-210.2 1177.83,-210.2"/>
</g>
<!-- src/types/structs.ts&#45;&gt;src/declarations.ts -->
<g id="edge75" class="edge">
<title>src/types/structs.ts&#45;&gt;src/declarations.ts</title>
<path fill="none" stroke="#757575" d="M1153.67,-294.8C1153.67,-287.7 1153.67,-280 1153.67,-280 1153.67,-280 1662.17,-280 1662.17,-280 1662.17,-280 1662.17,-269.23 1662.17,-269.23"/>
<polygon fill="#757575" stroke="#757575" points="1665.67,-269.23 1662.17,-259.23 1658.67,-269.23 1665.67,-269.23"/>
</g>
<!-- src/handlers/assignment.ts&#45;&gt;src/utils/array.ts -->
<g id="edge46" class="edge">
<title>src/handlers/assignment.ts&#45;&gt;src/utils/array.ts</title>
<path fill="none" stroke="#757575" d="M1016.99,-129C877.64,-129 623.75,-129 623.75,-129 623.75,-129 623.75,-92.06 623.75,-92.06"/>
<polygon fill="#757575" stroke="#757575" points="627.25,-92.06 623.75,-82.06 620.25,-92.06 627.25,-92.06"/>
</g>
<!-- src/handlers/assignment.ts&#45;&gt;src/types/interpreter.ts -->
<g id="edge45" class="edge">
<title>src/handlers/assignment.ts&#45;&gt;src/types/interpreter.ts</title>
<path fill="none" stroke="#757575" d="M1142.25,-117.84C1142.25,-117.84 1142.25,-92.13 1142.25,-92.13"/>
<polygon fill="#757575" stroke="#757575" points="1145.75,-92.13 1142.25,-82.13 1138.75,-92.13 1145.75,-92.13"/>
</g>
<!-- src/utils/scope&#45;helpers.ts&#45;&gt;src/parser.ts -->
<g id="edge87" class="edge">
<title>src/utils/scope&#45;helpers.ts&#45;&gt;src/parser.ts</title>
<path fill="none" stroke="#757575" d="M1498.5,-117.75C1498.5,-111.88 1498.5,-106 1498.5,-106 1498.5,-106 75,-106 75,-106 75,-106 75,-92.12 75,-92.12"/>
<polygon fill="#757575" stroke="#757575" points="78.5,-92.12 75,-82.12 71.5,-92.12 78.5,-92.12"/>
</g>
<!-- src/utils/scope&#45;helpers.ts&#45;&gt;src/utils/array.ts -->
<g id="edge89" class="edge">
<title>src/utils/scope&#45;helpers.ts&#45;&gt;src/utils/array.ts</title>
<path fill="none" stroke="#757575" d="M1553.5,-117.88C1553.5,-107.52 1553.5,-94 1553.5,-94 1553.5,-94 630.88,-94 630.88,-94 630.88,-94 630.88,-92.25 630.88,-92.25"/>
<polygon fill="#757575" stroke="#757575" points="634.38,-92.25 630.88,-82.25 627.38,-92.25 634.38,-92.25"/>
</g>
<!-- src/utils/scope&#45;helpers.ts&#45;&gt;src/type&#45;utils.ts -->
<g id="edge88" class="edge">
<title>src/utils/scope&#45;helpers.ts&#45;&gt;src/type&#45;utils.ts</title>
<path fill="none" stroke="#757575" d="M1608.6,-123C1693.35,-123 1812.9,-123 1812.9,-123 1812.9,-123 1812.9,-33.01 1812.9,-33.01"/>
<polygon fill="#757575" stroke="#757575" points="1816.4,-33.01 1812.9,-23.01 1809.4,-33.01 1816.4,-33.01"/>
</g>
<!-- src/utils/scope&#45;helpers.ts&#45;&gt;src/utils/function&#45;utils.ts -->
<g id="edge90" class="edge">
<title>src/utils/scope&#45;helpers.ts&#45;&gt;src/utils/function&#45;utils.ts</title>
<path fill="none" stroke="#757575" d="M1608.62,-129C1748.37,-129 2016.33,-129 2016.33,-129 2016.33,-129 2016.33,-92.06 2016.33,-92.06"/>
<polygon fill="#757575" stroke="#757575" points="2019.83,-92.06 2016.33,-82.06 2012.83,-92.06 2019.83,-92.06"/>
</g>
<!-- src/expressions/operator&#45;utils.ts -->
<g id="node25" class="node">
<title>src/expressions/operator&#45;utils.ts</title>
<path fill="none" stroke="#cfffac" d="M350.83,-259C350.83,-259 159.17,-259 159.17,-259 155.33,-259 151.5,-255.17 151.5,-251.33 151.5,-251.33 151.5,-243.67 151.5,-243.67 151.5,-239.83 155.33,-236 159.17,-236 159.17,-236 350.83,-236 350.83,-236 354.67,-236 358.5,-239.83 358.5,-243.67 358.5,-243.67 358.5,-251.33 358.5,-251.33 358.5,-255.17 354.67,-259 350.83,-259"/>
<text text-anchor="middle" x="255" y="-243.8" font-family="Arial" font-size="14.00" fill="#cfffac">src/expressions/operator&#45;utils.ts</text>
</g>
<!-- src/expressions/operator&#45;finder.ts&#45;&gt;src/expressions/operator&#45;utils.ts -->
<g id="edge28" class="edge">
<title>src/expressions/operator&#45;finder.ts&#45;&gt;src/expressions/operator&#45;utils.ts</title>
<path fill="none" stroke="#757575" d="M255,-294.84C255,-294.84 255,-269.13 255,-269.13"/>
<polygon fill="#757575" stroke="#757575" points="258.5,-269.13 255,-259.13 251.5,-269.13 258.5,-269.13"/>
</g>
<!-- src/function&#45;type&#45;handler.ts&#45;&gt;src/type&#45;utils.ts -->
<g id="edge36" class="edge">
<title>src/function&#45;type&#45;handler.ts&#45;&gt;src/type&#45;utils.ts</title>
<path fill="none" stroke="#757575" d="M1910.05,-424C1868.87,-424 1829.1,-424 1829.1,-424 1829.1,-424 1829.1,-33.4 1829.1,-33.4"/>
<polygon fill="#757575" stroke="#757575" points="1832.6,-33.4 1829.1,-23.4 1825.6,-33.4 1832.6,-33.4"/>
</g>
<!-- src/function&#45;type&#45;handler.ts&#45;&gt;src/functions.ts -->
<g id="edge35" class="edge">
<title>src/function&#45;type&#45;handler.ts&#45;&gt;src/functions.ts</title>
<path fill="none" stroke="#757575" d="M1926,-412.84C1926,-412.84 1926,-387.13 1926,-387.13"/>
<polygon fill="#757575" stroke="#757575" points="1929.5,-387.13 1926,-377.13 1922.5,-387.13 1929.5,-387.13"/>
</g>
<!-- src/functions.ts&#45;&gt;src/utils/identifier&#45;utils.ts -->
<g id="edge41" class="edge">
<title>src/functions.ts&#45;&gt;src/utils/identifier&#45;utils.ts</title>
<path fill="none" stroke="#757575" d="M1834.45,-359C1741.29,-359 1559.25,-359 1559.25,-359 1559.25,-359 1559.25,-269.01 1559.25,-269.01"/>
<polygon fill="#757575" stroke="#757575" points="1562.75,-269.01 1559.25,-259.01 1555.75,-269.01 1562.75,-269.01"/>
</g>
<!-- src/functions.ts&#45;&gt;src/handlers/anonymous&#45;functions.ts -->
<g id="edge37" class="edge">
<title>src/functions.ts&#45;&gt;src/handlers/anonymous&#45;functions.ts</title>
<path fill="none" stroke="#757575" d="M1941.82,-365C2028.89,-365 2191,-365 2191,-365 2191,-365 2191,-328.06 2191,-328.06"/>
<polygon fill="#757575" stroke="#757575" points="2194.5,-328.06 2191,-318.06 2187.5,-328.06 2194.5,-328.06"/>
</g>
<!-- src/handlers/function&#45;declaration.ts -->
<g id="node30" class="node">
<title>src/handlers/function&#45;declaration.ts</title>
<path fill="none" stroke="#c6c5fe" d="M2053.33,-318C2053.33,-318 1842.67,-318 1842.67,-318 1838.83,-318 1835,-314.17 1835,-310.33 1835,-310.33 1835,-302.67 1835,-302.67 1835,-298.83 1838.83,-295 1842.67,-295 1842.67,-295 2053.33,-295 2053.33,-295 2057.17,-295 2061,-298.83 2061,-302.67 2061,-302.67 2061,-310.33 2061,-310.33 2061,-314.17 2057.17,-318 2053.33,-318"/>
<text text-anchor="middle" x="1948" y="-302.8" font-family="Arial" font-size="14.00" fill="#c6c5fe">src/handlers/function&#45;declaration.ts</text>
</g>
<!-- src/functions.ts&#45;&gt;src/handlers/function&#45;declaration.ts -->
<g id="edge38" class="edge">
<title>src/functions.ts&#45;&gt;src/handlers/function&#45;declaration.ts</title>
<path fill="none" stroke="#757575" d="M1888.25,-353.84C1888.25,-353.84 1888.25,-328.13 1888.25,-328.13"/>
<polygon fill="#757575" stroke="#757575" points="1891.75,-328.13 1888.25,-318.13 1884.75,-328.13 1891.75,-328.13"/>
</g>
<!-- src/functions.ts&#45;&gt;src/utils/function&#45;call&#45;params.ts -->
<g id="edge39" class="edge">
<title>src/functions.ts&#45;&gt;src/utils/function&#45;call&#45;params.ts</title>
<path fill="none" stroke="#757575" d="M1834.38,-365C1704.28,-365 1382.5,-365 1382.5,-365 1382.5,-365 1382.5,-328.06 1382.5,-328.06"/>
<polygon fill="#757575" stroke="#757575" points="1386,-328.06 1382.5,-318.06 1379,-328.06 1386,-328.06"/>
</g>
<!-- src/functions.ts&#45;&gt;src/utils/function&#45;utils.ts -->
<g id="edge40" class="edge">
<title>src/functions.ts&#45;&gt;src/utils/function&#45;utils.ts</title>
<path fill="none" stroke="#757575" d="M1941.66,-359C1996.99,-359 2075.25,-359 2075.25,-359 2075.25,-359 2075.25,-92.17 2075.25,-92.17"/>
<polygon fill="#757575" stroke="#757575" points="2078.75,-92.17 2075.25,-82.17 2071.75,-92.17 2078.75,-92.17"/>
</g>
<!-- src/handlers/anonymous&#45;functions.ts&#45;&gt;src/utils/identifier&#45;utils.ts -->
<g id="edge44" class="edge">
<title>src/handlers/anonymous&#45;functions.ts&#45;&gt;src/utils/identifier&#45;utils.ts</title>
<path fill="none" stroke="#757575" d="M2128.33,-294.57C2128.33,-282.62 2128.33,-266 2128.33,-266 2128.33,-266 1597.17,-266 1597.17,-266 1597.17,-266 1597.17,-265.33 1597.17,-265.33"/>
<polygon fill="#757575" stroke="#757575" points="1600.67,-269.32 1597.17,-259.32 1593.67,-269.32 1600.67,-269.32"/>
</g>
<!-- src/handlers/anonymous&#45;functions.ts&#45;&gt;src/type&#45;utils.ts -->
<g id="edge42" class="edge">
<title>src/handlers/anonymous&#45;functions.ts&#45;&gt;src/type&#45;utils.ts</title>
<path fill="none" stroke="#757575" d="M2252.25,-294.92C2252.25,-240.28 2252.25,-11 2252.25,-11 2252.25,-11 1924.58,-11 1924.58,-11"/>
<polygon fill="#757575" stroke="#757575" points="1924.58,-7.5 1914.58,-11 1924.58,-14.5 1924.58,-7.5"/>
</g>
<!-- src/handlers/anonymous&#45;functions.ts&#45;&gt;src/utils/function&#45;utils.ts -->
<g id="edge43" class="edge">
<title>src/handlers/anonymous&#45;functions.ts&#45;&gt;src/utils/function&#45;utils.ts</title>
<path fill="none" stroke="#757575" d="M2139.17,-294.8C2139.17,-294.8 2139.17,-92.27 2139.17,-92.27"/>
<polygon fill="#757575" stroke="#757575" points="2142.67,-92.27 2139.17,-82.27 2135.67,-92.27 2142.67,-92.27"/>
</g>
<!-- src/handlers/function&#45;declaration.ts&#45;&gt;src/declarations.ts -->
<g id="edge49" class="edge">
<title>src/handlers/function&#45;declaration.ts&#45;&gt;src/declarations.ts</title>
<path fill="none" stroke="#757575" d="M1866.8,-294.74C1866.8,-277.4 1866.8,-247 1866.8,-247 1866.8,-247 1755.74,-247 1755.74,-247"/>
<polygon fill="#757575" stroke="#757575" points="1755.74,-243.5 1745.74,-247 1755.74,-250.5 1755.74,-243.5"/>
</g>
<!-- src/handlers/function&#45;declaration.ts&#45;&gt;src/utils/identifier&#45;utils.ts -->
<g id="edge52" class="edge">
<title>src/handlers/function&#45;declaration.ts&#45;&gt;src/utils/identifier&#45;utils.ts</title>
<path fill="none" stroke="#757575" d="M1850.9,-294.78C1850.9,-285.12 1850.9,-273 1850.9,-273 1850.9,-273 1592.33,-273 1592.33,-273 1592.33,-273 1592.33,-269.06 1592.33,-269.06"/>
<polygon fill="#757575" stroke="#757575" points="1595.83,-269.06 1592.33,-259.06 1588.83,-269.06 1595.83,-269.06"/>
</g>
<!-- src/handlers/function&#45;declaration.ts&#45;&gt;src/type&#45;utils.ts -->
<g id="edge50" class="edge">
<title>src/handlers/function&#45;declaration.ts&#45;&gt;src/type&#45;utils.ts</title>
<path fill="none" stroke="#757575" d="M1882.7,-294.94C1882.7,-294.94 1882.7,-33.3 1882.7,-33.3"/>
<polygon fill="#757575" stroke="#757575" points="1886.2,-33.3 1882.7,-23.3 1879.2,-33.31 1886.2,-33.3"/>
</g>
<!-- src/handlers/function&#45;declaration.ts&#45;&gt;src/utils/function&#45;utils.ts -->
<g id="edge51" class="edge">
<title>src/handlers/function&#45;declaration.ts&#45;&gt;src/utils/function&#45;utils.ts</title>
<path fill="none" stroke="#757575" d="M2038.67,-294.8C2038.67,-294.8 2038.67,-92.27 2038.67,-92.27"/>
<polygon fill="#757575" stroke="#757575" points="2042.17,-92.27 2038.67,-82.27 2035.17,-92.27 2042.17,-92.27"/>
</g>
<!-- src/utils/function&#45;call&#45;params.ts&#45;&gt;src/expressions/handlers.ts -->
<g id="edge84" class="edge">
<title>src/utils/function&#45;call&#45;params.ts&#45;&gt;src/expressions/handlers.ts</title>
<path fill="none" stroke="#757575" d="M1263.25,-294.75C1263.25,-294.75 1263.25,-210.2 1263.25,-210.2"/>
<polygon fill="#757575" stroke="#757575" points="1266.75,-210.2 1263.25,-200.2 1259.75,-210.2 1266.75,-210.2"/>
</g>
<!-- src/utils/function&#45;utils.ts&#45;&gt;src/type&#45;utils.ts -->
<g id="edge85" class="edge">
<title>src/utils/function&#45;utils.ts&#45;&gt;src/type&#45;utils.ts</title>
<path fill="none" stroke="#757575" d="M1993.92,-66C1947.9,-66 1898.6,-66 1898.6,-66 1898.6,-66 1898.6,-33.06 1898.6,-33.06"/>
<polygon fill="#757575" stroke="#757575" points="1902.1,-33.06 1898.6,-23.06 1895.1,-33.06 1902.1,-33.06"/>
</g>
<!-- src/handlers/method&#45;call.ts&#45;&gt;src/expressions/handlers.ts -->
<g id="edge55" class="edge">
<title>src/handlers/method&#45;call.ts&#45;&gt;src/expressions/handlers.ts</title>
<path fill="none" stroke="#757575" d="M1429.25,-412.8C1429.25,-366.04 1429.25,-195 1429.25,-195 1429.25,-195 1323.16,-195 1323.16,-195"/>
<polygon fill="#757575" stroke="#757575" points="1323.16,-191.5 1313.16,-195 1323.16,-198.5 1323.16,-191.5"/>
</g>
<!-- src/handlers/method&#45;call.ts&#45;&gt;src/utils/identifier&#45;utils.ts -->
<g id="edge57" class="edge">
<title>src/handlers/method&#45;call.ts&#45;&gt;src/utils/identifier&#45;utils.ts</title>
<path fill="none" stroke="#757575" d="M1484.75,-412.89C1484.75,-412.89 1484.75,-269.39 1484.75,-269.39"/>
<polygon fill="#757575" stroke="#757575" points="1488.25,-269.39 1484.75,-259.39 1481.25,-269.39 1488.25,-269.39"/>
</g>
<!-- src/handlers/method&#45;call.ts&#45;&gt;src/functions.ts -->
<g id="edge56" class="edge">
<title>src/handlers/method&#45;call.ts&#45;&gt;src/functions.ts</title>
<path fill="none" stroke="#757575" d="M1506.12,-412.89C1506.12,-397.16 1506.12,-371 1506.12,-371 1506.12,-371 1824.5,-371 1824.5,-371"/>
<polygon fill="#757575" stroke="#757575" points="1824.5,-374.5 1834.5,-371 1824.5,-367.5 1824.5,-374.5"/>
</g>
<!-- src/loops/types.ts&#45;&gt;src/expressions/handlers.ts -->
<g id="edge62" class="edge">
<title>src/loops/types.ts&#45;&gt;src/expressions/handlers.ts</title>
<path fill="none" stroke="#757575" d="M2606,-412.76C2606,-364.12 2606,-181 2606,-181 2606,-181 1323.21,-181 1323.21,-181"/>
<polygon fill="#757575" stroke="#757575" points="1323.21,-177.5 1313.21,-181 1323.21,-184.5 1323.21,-177.5"/>
</g>
<!-- src/types/type&#45;declarations.ts&#45;&gt;src/declarations.ts -->
<g id="edge77" class="edge">
<title>src/types/type&#45;declarations.ts&#45;&gt;src/declarations.ts</title>
<path fill="none" stroke="#757575" d="M1703.83,-294.84C1703.83,-294.84 1703.83,-269.13 1703.83,-269.13"/>
<polygon fill="#757575" stroke="#757575" points="1707.33,-269.13 1703.83,-259.13 1700.33,-269.13 1707.33,-269.13"/>
</g>
<!-- src/types/type&#45;declarations.ts&#45;&gt;src/type&#45;utils.ts -->
<g id="edge78" class="edge">
<title>src/types/type&#45;declarations.ts&#45;&gt;src/type&#45;utils.ts</title>
<path fill="none" stroke="#757575" d="M1778.8,-306C1801.02,-306 1818.3,-306 1818.3,-306 1818.3,-306 1818.3,-33.04 1818.3,-33.04"/>
<polygon fill="#757575" stroke="#757575" points="1821.8,-33.04 1818.3,-23.04 1814.8,-33.04 1821.8,-33.04"/>
</g>
<!-- src/utils/interpret.ts -->
<g id="node37" class="node">
<title>src/utils/interpret.ts</title>
<path fill="none" stroke="#c6c5fe" d="M1220.33,-613C1220.33,-613 1105.67,-613 1105.67,-613 1101.83,-613 1098,-609.17 1098,-605.33 1098,-605.33 1098,-597.67 1098,-597.67 1098,-593.83 1101.83,-590 1105.67,-590 1105.67,-590 1220.33,-590 1220.33,-590 1224.17,-590 1228,-593.83 1228,-597.67 1228,-597.67 1228,-605.33 1228,-605.33 1228,-609.17 1224.17,-613 1220.33,-613"/>
<text text-anchor="middle" x="1163" y="-597.8" font-family="Arial" font-size="14.00" fill="#c6c5fe">src/utils/interpret.ts</text>
</g>
<!-- src/utils/interpret.ts&#45;&gt;src/app.ts -->
<g id="edge86" class="edge">
<title>src/utils/interpret.ts&#45;&gt;src/app.ts</title>
<path fill="none" stroke="#757575" d="M1163,-589.84C1163,-589.84 1163,-564.13 1163,-564.13"/>
<polygon fill="#757575" stroke="#757575" points="1166.5,-564.13 1163,-554.13 1159.5,-564.13 1166.5,-564.13"/>
</g>
<!-- tests/arithmetic.test.ts -->
<g id="node38" class="node">
<title>tests/arithmetic.test.ts</title>
<path fill="none" stroke="#c6c5fe" d="M890.33,-672C890.33,-672 757.67,-672 757.67,-672 753.83,-672 750,-668.17 750,-664.33 750,-664.33 750,-656.67 750,-656.67 750,-652.83 753.83,-649 757.67,-649 757.67,-649 890.33,-649 890.33,-649 894.17,-649 898,-652.83 898,-656.67 898,-656.67 898,-664.33 898,-664.33 898,-668.17 894.17,-672 890.33,-672"/>
<text text-anchor="middle" x="824" y="-656.8" font-family="Arial" font-size="14.00" fill="#c6c5fe">tests/arithmetic.test.ts</text>
</g>
<!-- tests/arithmetic.test.ts&#45;&gt;src/utils/interpret.ts -->
<g id="edge93" class="edge">
<title>tests/arithmetic.test.ts&#45;&gt;src/utils/interpret.ts</title>
<path fill="none" stroke="#757575" d="M889.5,-648.85C889.5,-630.52 889.5,-597 889.5,-597 889.5,-597 1087.84,-597 1087.84,-597"/>
<polygon fill="#757575" stroke="#757575" points="1087.84,-600.5 1097.84,-597 1087.84,-593.5 1087.84,-600.5"/>
</g>
<!-- tests/control&#45;flow.test.ts -->
<g id="node39" class="node">
<title>tests/control&#45;flow.test.ts</title>
<path fill="none" stroke="#c6c5fe" d="M1065.83,-672C1065.83,-672 924.17,-672 924.17,-672 920.33,-672 916.5,-668.17 916.5,-664.33 916.5,-664.33 916.5,-656.67 916.5,-656.67 916.5,-652.83 920.33,-649 924.17,-649 924.17,-649 1065.83,-649 1065.83,-649 1069.67,-649 1073.5,-652.83 1073.5,-656.67 1073.5,-656.67 1073.5,-664.33 1073.5,-664.33 1073.5,-668.17 1069.67,-672 1065.83,-672"/>
<text text-anchor="middle" x="995" y="-656.8" font-family="Arial" font-size="14.00" fill="#c6c5fe">tests/control&#45;flow.test.ts</text>
</g>
<!-- tests/control&#45;flow.test.ts&#45;&gt;src/utils/interpret.ts -->
<g id="edge94" class="edge">
<title>tests/control&#45;flow.test.ts&#45;&gt;src/utils/interpret.ts</title>
<path fill="none" stroke="#757575" d="M995,-648.73C995,-632.44 995,-605 995,-605 995,-605 1087.57,-605 1087.57,-605"/>
<polygon fill="#757575" stroke="#757575" points="1087.57,-608.5 1097.57,-605 1087.57,-601.5 1087.57,-608.5"/>
</g>
<!-- tests/functions.test.ts -->
<g id="node40" class="node">
<title>tests/functions.test.ts</title>
<path fill="none" stroke="#c6c5fe" d="M1226.83,-672C1226.83,-672 1099.17,-672 1099.17,-672 1095.33,-672 1091.5,-668.17 1091.5,-664.33 1091.5,-664.33 1091.5,-656.67 1091.5,-656.67 1091.5,-652.83 1095.33,-649 1099.17,-649 1099.17,-649 1226.83,-649 1226.83,-649 1230.67,-649 1234.5,-652.83 1234.5,-656.67 1234.5,-656.67 1234.5,-664.33 1234.5,-664.33 1234.5,-668.17 1230.67,-672 1226.83,-672"/>
<text text-anchor="middle" x="1163" y="-656.8" font-family="Arial" font-size="14.00" fill="#c6c5fe">tests/functions.test.ts</text>
</g>
<!-- tests/functions.test.ts&#45;&gt;src/utils/interpret.ts -->
<g id="edge95" class="edge">
<title>tests/functions.test.ts&#45;&gt;src/utils/interpret.ts</title>
<path fill="none" stroke="#757575" d="M1163,-648.84C1163,-648.84 1163,-623.13 1163,-623.13"/>
<polygon fill="#757575" stroke="#757575" points="1166.5,-623.13 1163,-613.13 1159.5,-623.13 1166.5,-623.13"/>
</g>
<!-- tests/types.test.ts -->
<g id="node41" class="node">
<title>tests/types.test.ts</title>
<path fill="none" stroke="#c6c5fe" d="M1365.83,-672C1365.83,-672 1260.17,-672 1260.17,-672 1256.33,-672 1252.5,-668.17 1252.5,-664.33 1252.5,-664.33 1252.5,-656.67 1252.5,-656.67 1252.5,-652.83 1256.33,-649 1260.17,-649 1260.17,-649 1365.83,-649 1365.83,-649 1369.67,-649 1373.5,-652.83 1373.5,-656.67 1373.5,-656.67 1373.5,-664.33 1373.5,-664.33 1373.5,-668.17 1369.67,-672 1365.83,-672"/>
<text text-anchor="middle" x="1313" y="-656.8" font-family="Arial" font-size="14.00" fill="#c6c5fe">tests/types.test.ts</text>
</g>
<!-- tests/types.test.ts&#45;&gt;src/utils/interpret.ts -->
<g id="edge96" class="edge">
<title>tests/types.test.ts&#45;&gt;src/utils/interpret.ts</title>
<path fill="none" stroke="#757575" d="M1275.5,-648.73C1275.5,-632.44 1275.5,-605 1275.5,-605 1275.5,-605 1238.12,-605 1238.12,-605"/>
<polygon fill="#757575" stroke="#757575" points="1238.12,-601.5 1228.12,-605 1238.12,-608.5 1238.12,-601.5"/>
</g>
<!-- tests/variables.test.ts -->
<g id="node42" class="node">
<title>tests/variables.test.ts</title>
<path fill="none" stroke="#c6c5fe" d="M1526.83,-672C1526.83,-672 1399.17,-672 1399.17,-672 1395.33,-672 1391.5,-668.17 1391.5,-664.33 1391.5,-664.33 1391.5,-656.67 1391.5,-656.67 1391.5,-652.83 1395.33,-649 1399.17,-649 1399.17,-649 1526.83,-649 1526.83,-649 1530.67,-649 1534.5,-652.83 1534.5,-656.67 1534.5,-656.67 1534.5,-664.33 1534.5,-664.33 1534.5,-668.17 1530.67,-672 1526.83,-672"/>
<text text-anchor="middle" x="1463" y="-656.8" font-family="Arial" font-size="14.00" fill="#c6c5fe">tests/variables.test.ts</text>
</g>
<!-- tests/variables.test.ts&#45;&gt;src/utils/interpret.ts -->
<g id="edge97" class="edge">
<title>tests/variables.test.ts&#45;&gt;src/utils/interpret.ts</title>
<path fill="none" stroke="#757575" d="M1424.5,-648.85C1424.5,-630.52 1424.5,-597 1424.5,-597 1424.5,-597 1238.31,-597 1238.31,-597"/>
<polygon fill="#757575" stroke="#757575" points="1238.31,-593.5 1228.31,-597 1238.31,-600.5 1238.31,-593.5"/>
</g>
</g>
</svg>
