<?xml version="1.0" encoding="UTF-8" standalone="no"?>
<!DOCTYPE svg PUBLIC "-//W3C//DTD SVG 1.1//EN"
 "http://www.w3.org/Graphics/SVG/1.1/DTD/svg11.dtd">
<!-- Generated by graphviz version 2.43.0 (0)
 -->
<!-- Title: G Pages: 1 -->
<svg width="372pt" height="302pt"
 viewBox="0.00 0.00 372.20 302.20" xmlns="http://www.w3.org/2000/svg" xmlns:xlink="http://www.w3.org/1999/xlink">
<g id="graph0" class="graph" transform="scale(1 1) rotate(0) translate(21.6 280.6)">
<title>G</title>
<polygon fill="#111111" stroke="transparent" points="-21.6,21.6 -21.6,-280.6 350.6,-280.6 350.6,21.6 -21.6,21.6"/>
<!-- src/app.ts -->
<g id="node1" class="node">
<title>src/app.ts</title>
<path fill="none" stroke="#c6c5fe" d="M183.83,-200C183.83,-200 124.17,-200 124.17,-200 120.33,-200 116.5,-196.17 116.5,-192.33 116.5,-192.33 116.5,-184.67 116.5,-184.67 116.5,-180.83 120.33,-177 124.17,-177 124.17,-177 183.83,-177 183.83,-177 187.67,-177 191.5,-180.83 191.5,-184.67 191.5,-184.67 191.5,-192.33 191.5,-192.33 191.5,-196.17 187.67,-200 183.83,-200"/>
<text text-anchor="middle" x="154" y="-184.8" font-family="Arial" font-size="14.00" fill="#c6c5fe">src/app.ts</text>
</g>
<!-- src/match.ts -->
<g id="node2" class="node">
<title>src/match.ts</title>
<path fill="none" stroke="#cfffac" d="M82.33,-82C82.33,-82 7.67,-82 7.67,-82 3.83,-82 0,-78.17 0,-74.33 0,-74.33 0,-66.67 0,-66.67 0,-62.83 3.83,-59 7.67,-59 7.67,-59 82.33,-59 82.33,-59 86.17,-59 90,-62.83 90,-66.67 90,-66.67 90,-74.33 90,-74.33 90,-78.17 86.17,-82 82.33,-82"/>
<text text-anchor="middle" x="45" y="-66.8" font-family="Arial" font-size="14.00" fill="#cfffac">src/match.ts</text>
</g>
<!-- src/app.ts&#45;&gt;src/match.ts -->
<g id="edge1" class="edge">
<title>src/app.ts&#45;&gt;src/match.ts</title>
<path fill="none" stroke="#757575" d="M116.26,-188C81.98,-188 36.75,-188 36.75,-188 36.75,-188 36.75,-92.2 36.75,-92.2"/>
<polygon fill="#757575" stroke="#757575" points="40.25,-92.2 36.75,-82.2 33.25,-92.2 40.25,-92.2"/>
</g>
<!-- src/operators.ts -->
<g id="node3" class="node">
<title>src/operators.ts</title>
<path fill="none" stroke="#c6c5fe" d="M321.33,-141C321.33,-141 226.67,-141 226.67,-141 222.83,-141 219,-137.17 219,-133.33 219,-133.33 219,-125.67 219,-125.67 219,-121.83 222.83,-118 226.67,-118 226.67,-118 321.33,-118 321.33,-118 325.17,-118 329,-121.83 329,-125.67 329,-125.67 329,-133.33 329,-133.33 329,-137.17 325.17,-141 321.33,-141"/>
<text text-anchor="middle" x="274" y="-125.8" font-family="Arial" font-size="14.00" fill="#c6c5fe">src/operators.ts</text>
</g>
<!-- src/app.ts&#45;&gt;src/operators.ts -->
<g id="edge2" class="edge">
<title>src/app.ts&#45;&gt;src/operators.ts</title>
<path fill="none" stroke="#757575" d="M181.83,-176.74C181.83,-159.4 181.83,-129 181.83,-129 181.83,-129 208.79,-129 208.79,-129"/>
<polygon fill="#757575" stroke="#757575" points="208.79,-132.5 218.79,-129 208.79,-125.5 208.79,-132.5"/>
</g>
<!-- src/parser.ts -->
<g id="node4" class="node">
<title>src/parser.ts</title>
<path fill="none" stroke="#c6c5fe" d="M228.33,-82C228.33,-82 153.67,-82 153.67,-82 149.83,-82 146,-78.17 146,-74.33 146,-74.33 146,-66.67 146,-66.67 146,-62.83 149.83,-59 153.67,-59 153.67,-59 228.33,-59 228.33,-59 232.17,-59 236,-62.83 236,-66.67 236,-66.67 236,-74.33 236,-74.33 236,-78.17 232.17,-82 228.33,-82"/>
<text text-anchor="middle" x="191" y="-66.8" font-family="Arial" font-size="14.00" fill="#c6c5fe">src/parser.ts</text>
</g>
<!-- src/app.ts&#45;&gt;src/parser.ts -->
<g id="edge3" class="edge">
<title>src/app.ts&#45;&gt;src/parser.ts</title>
<path fill="none" stroke="#757575" d="M172.17,-176.75C172.17,-176.75 172.17,-92.2 172.17,-92.2"/>
<polygon fill="#757575" stroke="#757575" points="175.67,-92.2 172.17,-82.2 168.67,-92.2 175.67,-92.2"/>
</g>
<!-- src/scope.ts -->
<g id="node5" class="node">
<title>src/scope.ts</title>
<path fill="none" stroke="#c6c5fe" d="M154.83,-141C154.83,-141 81.17,-141 81.17,-141 77.33,-141 73.5,-137.17 73.5,-133.33 73.5,-133.33 73.5,-125.67 73.5,-125.67 73.5,-121.83 77.33,-118 81.17,-118 81.17,-118 154.83,-118 154.83,-118 158.67,-118 162.5,-121.83 162.5,-125.67 162.5,-125.67 162.5,-133.33 162.5,-133.33 162.5,-137.17 158.67,-141 154.83,-141"/>
<text text-anchor="middle" x="118" y="-125.8" font-family="Arial" font-size="14.00" fill="#c6c5fe">src/scope.ts</text>
</g>
<!-- src/app.ts&#45;&gt;src/scope.ts -->
<g id="edge4" class="edge">
<title>src/app.ts&#45;&gt;src/scope.ts</title>
<path fill="none" stroke="#757575" d="M139.5,-176.84C139.5,-176.84 139.5,-151.13 139.5,-151.13"/>
<polygon fill="#757575" stroke="#757575" points="143,-151.13 139.5,-141.13 136,-151.13 143,-151.13"/>
</g>
<!-- src/operators.ts&#45;&gt;src/parser.ts -->
<g id="edge5" class="edge">
<title>src/operators.ts&#45;&gt;src/parser.ts</title>
<path fill="none" stroke="#757575" d="M227.5,-117.84C227.5,-117.84 227.5,-92.13 227.5,-92.13"/>
<polygon fill="#757575" stroke="#757575" points="231,-92.13 227.5,-82.13 224,-92.13 231,-92.13"/>
</g>
<!-- src/types.ts -->
<g id="node6" class="node">
<title>src/types.ts</title>
<path fill="none" stroke="#cfffac" d="M225.83,-23C225.83,-23 156.17,-23 156.17,-23 152.33,-23 148.5,-19.17 148.5,-15.33 148.5,-15.33 148.5,-7.67 148.5,-7.67 148.5,-3.83 152.33,0 156.17,0 156.17,0 225.83,0 225.83,0 229.67,0 233.5,-3.83 233.5,-7.67 233.5,-7.67 233.5,-15.33 233.5,-15.33 233.5,-19.17 229.67,-23 225.83,-23"/>
<text text-anchor="middle" x="191" y="-7.8" font-family="Arial" font-size="14.00" fill="#cfffac">src/types.ts</text>
</g>
<!-- src/operators.ts&#45;&gt;src/types.ts -->
<g id="edge6" class="edge">
<title>src/operators.ts&#45;&gt;src/types.ts</title>
<path fill="none" stroke="#757575" d="M282.5,-117.7C282.5,-87.73 282.5,-11 282.5,-11 282.5,-11 243.54,-11 243.54,-11"/>
<polygon fill="#757575" stroke="#757575" points="243.54,-7.5 233.54,-11 243.54,-14.5 243.54,-7.5"/>
</g>
<!-- src/parser.ts&#45;&gt;src/types.ts -->
<g id="edge7" class="edge">
<title>src/parser.ts&#45;&gt;src/types.ts</title>
<path fill="none" stroke="#757575" d="M191,-58.84C191,-58.84 191,-33.13 191,-33.13"/>
<polygon fill="#757575" stroke="#757575" points="194.5,-33.13 191,-23.13 187.5,-33.13 194.5,-33.13"/>
</g>
<!-- src/scope.ts&#45;&gt;src/match.ts -->
<g id="edge8" class="edge">
<title>src/scope.ts&#45;&gt;src/match.ts</title>
<path fill="none" stroke="#757575" d="M81.75,-117.84C81.75,-117.84 81.75,-92.13 81.75,-92.13"/>
<polygon fill="#757575" stroke="#757575" points="85.25,-92.13 81.75,-82.13 78.25,-92.13 85.25,-92.13"/>
</g>
<!-- src/scope.ts&#45;&gt;src/parser.ts -->
<g id="edge9" class="edge">
<title>src/scope.ts&#45;&gt;src/parser.ts</title>
<path fill="none" stroke="#757575" d="M154.25,-117.84C154.25,-117.84 154.25,-92.13 154.25,-92.13"/>
<polygon fill="#757575" stroke="#757575" points="157.75,-92.13 154.25,-82.13 150.75,-92.13 157.75,-92.13"/>
</g>
<!-- src/scope.ts&#45;&gt;src/types.ts -->
<g id="edge10" class="edge">
<title>src/scope.ts&#45;&gt;src/types.ts</title>
<path fill="none" stroke="#757575" d="M118,-117.7C118,-87.73 118,-11 118,-11 118,-11 138.11,-11 138.11,-11"/>
<polygon fill="#757575" stroke="#757575" points="138.11,-14.5 148.11,-11 138.11,-7.5 138.11,-14.5"/>
</g>
<!-- tests/app.test.ts -->
<g id="node7" class="node">
<title>tests/app.test.ts</title>
<path fill="none" stroke="#c6c5fe" d="M201.83,-259C201.83,-259 106.17,-259 106.17,-259 102.33,-259 98.5,-255.17 98.5,-251.33 98.5,-251.33 98.5,-243.67 98.5,-243.67 98.5,-239.83 102.33,-236 106.17,-236 106.17,-236 201.83,-236 201.83,-236 205.67,-236 209.5,-239.83 209.5,-243.67 209.5,-243.67 209.5,-251.33 209.5,-251.33 209.5,-255.17 205.67,-259 201.83,-259"/>
<text text-anchor="middle" x="154" y="-243.8" font-family="Arial" font-size="14.00" fill="#c6c5fe">tests/app.test.ts</text>
</g>
<!-- tests/app.test.ts&#45;&gt;src/app.ts -->
<g id="edge11" class="edge">
<title>tests/app.test.ts&#45;&gt;src/app.ts</title>
<path fill="none" stroke="#757575" d="M154,-235.84C154,-235.84 154,-210.13 154,-210.13"/>
<polygon fill="#757575" stroke="#757575" points="157.5,-210.13 154,-200.13 150.5,-210.13 157.5,-210.13"/>
</g>
</g>
</svg>
