<?xml version="1.0" encoding="UTF-8" standalone="no"?>
<!DOCTYPE svg PUBLIC "-//W3C//DTD SVG 1.1//EN"
 "http://www.w3.org/Graphics/SVG/1.1/DTD/svg11.dtd">
<!-- Generated by graphviz version 2.43.0 (0)
 -->
<!-- Title: G Pages: 1 -->
<svg width="1768pt" height="420pt"
 viewBox="0.00 0.00 1768.20 420.20" xmlns="http://www.w3.org/2000/svg" xmlns:xlink="http://www.w3.org/1999/xlink">
<g id="graph0" class="graph" transform="scale(1 1) rotate(0) translate(21.6 398.6)">
<title>G</title>
<polygon fill="#111111" stroke="transparent" points="-21.6,21.6 -21.6,-398.6 1746.6,-398.6 1746.6,21.6 -21.6,21.6"/>
<!-- core/arithmetic.ts -->
<g id="node1" class="node">
<title>core/arithmetic.ts</title>
<path fill="none" stroke="#c6c5fe" d="M226.33,-141C226.33,-141 121.67,-141 121.67,-141 117.83,-141 114,-137.17 114,-133.33 114,-133.33 114,-125.67 114,-125.67 114,-121.83 117.83,-118 121.67,-118 121.67,-118 226.33,-118 226.33,-118 230.17,-118 234,-121.83 234,-125.67 234,-125.67 234,-133.33 234,-133.33 234,-137.17 230.17,-141 226.33,-141"/>
<text text-anchor="middle" x="174" y="-125.8" font-family="Arial" font-size="14.00" fill="#c6c5fe">core/arithmetic.ts</text>
</g>
<!-- core/error.ts -->
<g id="node2" class="node">
<title>core/error.ts</title>
<path fill="none" stroke="#cfffac" d="M862.83,-23C862.83,-23 789.17,-23 789.17,-23 785.33,-23 781.5,-19.17 781.5,-15.33 781.5,-15.33 781.5,-7.67 781.5,-7.67 781.5,-3.83 785.33,0 789.17,0 789.17,0 862.83,0 862.83,0 866.67,0 870.5,-3.83 870.5,-7.67 870.5,-7.67 870.5,-15.33 870.5,-15.33 870.5,-19.17 866.67,-23 862.83,-23"/>
<text text-anchor="middle" x="826" y="-7.8" font-family="Arial" font-size="14.00" fill="#cfffac">core/error.ts</text>
</g>
<!-- core/arithmetic.ts&#45;&gt;core/error.ts -->
<g id="edge1" class="edge">
<title>core/arithmetic.ts&#45;&gt;core/error.ts</title>
<path fill="none" stroke="#757575" d="M234.15,-125C311.55,-125 436.17,-125 436.17,-125 436.17,-125 436.17,-5 436.17,-5 436.17,-5 771.28,-5 771.28,-5"/>
<polygon fill="#757575" stroke="#757575" points="771.28,-8.5 781.28,-5 771.28,-1.5 771.28,-8.5"/>
</g>
<!-- core/result.ts -->
<g id="node3" class="node">
<title>core/result.ts</title>
<path fill="none" stroke="#cfffac" d="M411.33,-23C411.33,-23 332.67,-23 332.67,-23 328.83,-23 325,-19.17 325,-15.33 325,-15.33 325,-7.67 325,-7.67 325,-3.83 328.83,0 332.67,0 332.67,0 411.33,0 411.33,0 415.17,0 419,-3.83 419,-7.67 419,-7.67 419,-15.33 419,-15.33 419,-19.17 415.17,-23 411.33,-23"/>
<text text-anchor="middle" x="372" y="-7.8" font-family="Arial" font-size="14.00" fill="#cfffac">core/result.ts</text>
</g>
<!-- core/arithmetic.ts&#45;&gt;core/result.ts -->
<g id="edge2" class="edge">
<title>core/arithmetic.ts&#45;&gt;core/result.ts</title>
<path fill="none" stroke="#757575" d="M234.1,-121C286.61,-121 354.5,-121 354.5,-121 354.5,-121 354.5,-33.22 354.5,-33.22"/>
<polygon fill="#757575" stroke="#757575" points="358,-33.22 354.5,-23.22 351,-33.22 358,-33.22"/>
</g>
<!-- utils/validation.ts -->
<g id="node4" class="node">
<title>utils/validation.ts</title>
<path fill="none" stroke="#c6c5fe" d="M108.33,-82C108.33,-82 7.67,-82 7.67,-82 3.83,-82 0,-78.17 0,-74.33 0,-74.33 0,-66.67 0,-66.67 0,-62.83 3.83,-59 7.67,-59 7.67,-59 108.33,-59 108.33,-59 112.17,-59 116,-62.83 116,-66.67 116,-66.67 116,-74.33 116,-74.33 116,-78.17 112.17,-82 108.33,-82"/>
<text text-anchor="middle" x="58" y="-66.8" font-family="Arial" font-size="14.00" fill="#c6c5fe">utils/validation.ts</text>
</g>
<!-- core/arithmetic.ts&#45;&gt;utils/validation.ts -->
<g id="edge3" class="edge">
<title>core/arithmetic.ts&#45;&gt;utils/validation.ts</title>
<path fill="none" stroke="#757575" d="M113.99,-129C98.21,-129 85.5,-129 85.5,-129 85.5,-129 85.5,-92.06 85.5,-92.06"/>
<polygon fill="#757575" stroke="#757575" points="89,-92.06 85.5,-82.06 82,-92.06 89,-92.06"/>
</g>
<!-- utils/validation.ts&#45;&gt;core/error.ts -->
<g id="edge79" class="edge">
<title>utils/validation.ts&#45;&gt;core/error.ts</title>
<path fill="none" stroke="#757575" d="M116.15,-72C220.23,-72 427.58,-72 427.58,-72 427.58,-72 427.58,-3 427.58,-3 427.58,-3 771.46,-3 771.46,-3"/>
<polygon fill="#757575" stroke="#757575" points="771.46,-6.5 781.46,-3 771.46,0.5 771.46,-6.5"/>
</g>
<!-- utils/validation.ts&#45;&gt;core/result.ts -->
<g id="edge80" class="edge">
<title>utils/validation.ts&#45;&gt;core/result.ts</title>
<path fill="none" stroke="#757575" d="M116.04,-68C198.52,-68 339.75,-68 339.75,-68 339.75,-68 339.75,-33.21 339.75,-33.21"/>
<polygon fill="#757575" stroke="#757575" points="343.25,-33.21 339.75,-23.21 336.25,-33.21 343.25,-33.21"/>
</g>
<!-- eval/ifelse/ifelse&#45;branch.ts -->
<g id="node5" class="node">
<title>eval/ifelse/ifelse&#45;branch.ts</title>
<path fill="none" stroke="#c6c5fe" d="M653.33,-259C653.33,-259 496.67,-259 496.67,-259 492.83,-259 489,-255.17 489,-251.33 489,-251.33 489,-243.67 489,-243.67 489,-239.83 492.83,-236 496.67,-236 496.67,-236 653.33,-236 653.33,-236 657.17,-236 661,-239.83 661,-243.67 661,-243.67 661,-251.33 661,-251.33 661,-255.17 657.17,-259 653.33,-259"/>
<text text-anchor="middle" x="575" y="-243.8" font-family="Arial" font-size="14.00" fill="#c6c5fe">eval/ifelse/ifelse&#45;branch.ts</text>
</g>
<!-- eval/ifelse/ifelse&#45;branch.ts&#45;&gt;core/error.ts -->
<g id="edge4" class="edge">
<title>eval/ifelse/ifelse&#45;branch.ts&#45;&gt;core/error.ts</title>
<path fill="none" stroke="#757575" d="M661.29,-241C694.6,-241 724.83,-241 724.83,-241 724.83,-241 724.83,-15 724.83,-15 724.83,-15 771.33,-15 771.33,-15"/>
<polygon fill="#757575" stroke="#757575" points="771.33,-18.5 781.33,-15 771.33,-11.5 771.33,-18.5"/>
</g>
<!-- eval/ifelse/ifelse&#45;branch.ts&#45;&gt;core/result.ts -->
<g id="edge5" class="edge">
<title>eval/ifelse/ifelse&#45;branch.ts&#45;&gt;core/result.ts</title>
<path fill="none" stroke="#757575" d="M505.75,-235.88C505.75,-225.52 505.75,-212 505.75,-212 505.75,-212 394.77,-212 394.77,-212 394.77,-212 394.77,-33.15 394.77,-33.15"/>
<polygon fill="#757575" stroke="#757575" points="398.27,-33.15 394.77,-23.15 391.27,-33.15 398.27,-33.15"/>
</g>
<!-- eval/ifelse/ifelse&#45;helpers.ts -->
<g id="node6" class="node">
<title>eval/ifelse/ifelse&#45;helpers.ts</title>
<path fill="none" stroke="#c6c5fe" d="M905.83,-82C905.83,-82 746.17,-82 746.17,-82 742.33,-82 738.5,-78.17 738.5,-74.33 738.5,-74.33 738.5,-66.67 738.5,-66.67 738.5,-62.83 742.33,-59 746.17,-59 746.17,-59 905.83,-59 905.83,-59 909.67,-59 913.5,-62.83 913.5,-66.67 913.5,-66.67 913.5,-74.33 913.5,-74.33 913.5,-78.17 909.67,-82 905.83,-82"/>
<text text-anchor="middle" x="826" y="-66.8" font-family="Arial" font-size="14.00" fill="#c6c5fe">eval/ifelse/ifelse&#45;helpers.ts</text>
</g>
<!-- eval/ifelse/ifelse&#45;branch.ts&#45;&gt;eval/ifelse/ifelse&#45;helpers.ts -->
<g id="edge6" class="edge">
<title>eval/ifelse/ifelse&#45;branch.ts&#45;&gt;eval/ifelse/ifelse&#45;helpers.ts</title>
<path fill="none" stroke="#757575" d="M661.08,-247C723.44,-247 796.83,-247 796.83,-247 796.83,-247 796.83,-92.08 796.83,-92.08"/>
<polygon fill="#757575" stroke="#757575" points="800.33,-92.08 796.83,-82.08 793.33,-92.08 800.33,-92.08"/>
</g>
<!-- eval/variables&#45;types.ts -->
<g id="node7" class="node">
<title>eval/variables&#45;types.ts</title>
<path fill="none" stroke="#cfffac" d="M1717.33,-23C1717.33,-23 1582.67,-23 1582.67,-23 1578.83,-23 1575,-19.17 1575,-15.33 1575,-15.33 1575,-7.67 1575,-7.67 1575,-3.83 1578.83,0 1582.67,0 1582.67,0 1717.33,0 1717.33,0 1721.17,0 1725,-3.83 1725,-7.67 1725,-7.67 1725,-15.33 1725,-15.33 1725,-19.17 1721.17,-23 1717.33,-23"/>
<text text-anchor="middle" x="1650" y="-7.8" font-family="Arial" font-size="14.00" fill="#cfffac">eval/variables&#45;types.ts</text>
</g>
<!-- eval/ifelse/ifelse&#45;branch.ts&#45;&gt;eval/variables&#45;types.ts -->
<g id="edge7" class="edge">
<title>eval/ifelse/ifelse&#45;branch.ts&#45;&gt;eval/variables&#45;types.ts</title>
<path fill="none" stroke="#757575" d="M661.01,-253C784.54,-253 997.5,-253 997.5,-253 997.5,-253 997.5,-7 997.5,-7 997.5,-7 1564.83,-7 1564.83,-7"/>
<polygon fill="#757575" stroke="#757575" points="1564.83,-10.5 1574.83,-7 1564.83,-3.5 1564.83,-10.5"/>
</g>
<!-- parse/parser.ts -->
<g id="node8" class="node">
<title>parse/parser.ts</title>
<path fill="none" stroke="#c6c5fe" d="M376.33,-200C376.33,-200 285.67,-200 285.67,-200 281.83,-200 278,-196.17 278,-192.33 278,-192.33 278,-184.67 278,-184.67 278,-180.83 281.83,-177 285.67,-177 285.67,-177 376.33,-177 376.33,-177 380.17,-177 384,-180.83 384,-184.67 384,-184.67 384,-192.33 384,-192.33 384,-196.17 380.17,-200 376.33,-200"/>
<text text-anchor="middle" x="331" y="-184.8" font-family="Arial" font-size="14.00" fill="#c6c5fe">parse/parser.ts</text>
</g>
<!-- eval/ifelse/ifelse&#45;branch.ts&#45;&gt;parse/parser.ts -->
<g id="edge8" class="edge">
<title>eval/ifelse/ifelse&#45;branch.ts&#45;&gt;parse/parser.ts</title>
<path fill="none" stroke="#757575" d="M522.5,-235.81C522.5,-220.62 522.5,-196 522.5,-196 522.5,-196 394.09,-196 394.09,-196"/>
<polygon fill="#757575" stroke="#757575" points="394.09,-192.5 384.09,-196 394.09,-199.5 394.09,-192.5"/>
</g>
<!-- utils/types.ts -->
<g id="node9" class="node">
<title>utils/types.ts</title>
<path fill="none" stroke="#c6c5fe" d="M559.83,-82C559.83,-82 484.17,-82 484.17,-82 480.33,-82 476.5,-78.17 476.5,-74.33 476.5,-74.33 476.5,-66.67 476.5,-66.67 476.5,-62.83 480.33,-59 484.17,-59 484.17,-59 559.83,-59 559.83,-59 563.67,-59 567.5,-62.83 567.5,-66.67 567.5,-66.67 567.5,-74.33 567.5,-74.33 567.5,-78.17 563.67,-82 559.83,-82"/>
<text text-anchor="middle" x="522" y="-66.8" font-family="Arial" font-size="14.00" fill="#c6c5fe">utils/types.ts</text>
</g>
<!-- eval/ifelse/ifelse&#45;branch.ts&#45;&gt;utils/types.ts -->
<g id="edge9" class="edge">
<title>eval/ifelse/ifelse&#45;branch.ts&#45;&gt;utils/types.ts</title>
<path fill="none" stroke="#757575" d="M539.25,-235.89C539.25,-235.89 539.25,-92.39 539.25,-92.39"/>
<polygon fill="#757575" stroke="#757575" points="542.75,-92.39 539.25,-82.39 535.75,-92.39 542.75,-92.39"/>
</g>
<!-- eval/ifelse/ifelse&#45;helpers.ts&#45;&gt;core/error.ts -->
<g id="edge10" class="edge">
<title>eval/ifelse/ifelse&#45;helpers.ts&#45;&gt;core/error.ts</title>
<path fill="none" stroke="#757575" d="M840.83,-58.84C840.83,-58.84 840.83,-33.13 840.83,-33.13"/>
<polygon fill="#757575" stroke="#757575" points="844.33,-33.13 840.83,-23.13 837.33,-33.13 844.33,-33.13"/>
</g>
<!-- eval/ifelse/ifelse&#45;helpers.ts&#45;&gt;core/result.ts -->
<g id="edge11" class="edge">
<title>eval/ifelse/ifelse&#45;helpers.ts&#45;&gt;core/result.ts</title>
<path fill="none" stroke="#757575" d="M760,-58.71C760,-38.88 760,-1 760,-1 760,-1 429.19,-1 429.19,-1"/>
<polygon fill="#757575" stroke="#757575" points="429.19,2.5 419.19,-1 429.19,-4.5 429.19,2.5"/>
</g>
<!-- eval/ifelse/ifelse&#45;helpers.ts&#45;&gt;eval/variables&#45;types.ts -->
<g id="edge12" class="edge">
<title>eval/ifelse/ifelse&#45;helpers.ts&#45;&gt;eval/variables&#45;types.ts</title>
<path fill="none" stroke="#757575" d="M892,-58.92C892,-39.86 892,-4 892,-4 892,-4 1564.9,-4 1564.9,-4"/>
<polygon fill="#757575" stroke="#757575" points="1564.9,-7.5 1574.9,-4 1564.9,-0.5 1564.9,-7.5"/>
</g>
<!-- parse/parser.ts&#45;&gt;core/arithmetic.ts -->
<g id="edge73" class="edge">
<title>parse/parser.ts&#45;&gt;core/arithmetic.ts</title>
<path fill="none" stroke="#757575" d="M301.5,-176.74C301.5,-159.4 301.5,-129 301.5,-129 301.5,-129 244.02,-129 244.02,-129"/>
<polygon fill="#757575" stroke="#757575" points="244.02,-125.5 234.02,-129 244.02,-132.5 244.02,-125.5"/>
</g>
<!-- parse/parser.ts&#45;&gt;core/error.ts -->
<g id="edge74" class="edge">
<title>parse/parser.ts&#45;&gt;core/error.ts</title>
<path fill="none" stroke="#757575" d="M384.06,-183C490.81,-183 721.42,-183 721.42,-183 721.42,-183 721.42,-13 721.42,-13 721.42,-13 771.34,-13 771.34,-13"/>
<polygon fill="#757575" stroke="#757575" points="771.34,-16.5 781.34,-13 771.34,-9.5 771.34,-16.5"/>
</g>
<!-- parse/parser.ts&#45;&gt;core/result.ts -->
<g id="edge75" class="edge">
<title>parse/parser.ts&#45;&gt;core/result.ts</title>
<path fill="none" stroke="#757575" d="M369.25,-176.89C369.25,-176.89 369.25,-33.39 369.25,-33.39"/>
<polygon fill="#757575" stroke="#757575" points="372.75,-33.39 369.25,-23.39 365.75,-33.39 372.75,-33.39"/>
</g>
<!-- parse/parser.ts&#45;&gt;utils/types.ts -->
<g id="edge76" class="edge">
<title>parse/parser.ts&#45;&gt;utils/types.ts</title>
<path fill="none" stroke="#757575" d="M384.08,-180C427.02,-180 480.38,-180 480.38,-180 480.38,-180 480.38,-92.22 480.38,-92.22"/>
<polygon fill="#757575" stroke="#757575" points="483.88,-92.22 480.38,-82.22 476.88,-92.22 483.88,-92.22"/>
</g>
<!-- utils/types.ts&#45;&gt;core/error.ts -->
<g id="edge77" class="edge">
<title>utils/types.ts&#45;&gt;core/error.ts</title>
<path fill="none" stroke="#757575" d="M522,-58.93C522,-41.12 522,-9 522,-9 522,-9 771.47,-9 771.47,-9"/>
<polygon fill="#757575" stroke="#757575" points="771.47,-12.5 781.47,-9 771.47,-5.5 771.47,-12.5"/>
</g>
<!-- utils/types.ts&#45;&gt;core/result.ts -->
<g id="edge78" class="edge">
<title>utils/types.ts&#45;&gt;core/result.ts</title>
<path fill="none" stroke="#757575" d="M476.26,-63C447.69,-63 416.31,-63 416.31,-63 416.31,-63 416.31,-33.19 416.31,-33.19"/>
<polygon fill="#757575" stroke="#757575" points="419.81,-33.19 416.31,-23.19 412.81,-33.19 419.81,-33.19"/>
</g>
<!-- eval/ifelse/index.ts -->
<g id="node10" class="node">
<title>eval/ifelse/index.ts</title>
<path fill="none" stroke="#c6c5fe" d="M596.83,-318C596.83,-318 485.17,-318 485.17,-318 481.33,-318 477.5,-314.17 477.5,-310.33 477.5,-310.33 477.5,-302.67 477.5,-302.67 477.5,-298.83 481.33,-295 485.17,-295 485.17,-295 596.83,-295 596.83,-295 600.67,-295 604.5,-298.83 604.5,-302.67 604.5,-302.67 604.5,-310.33 604.5,-310.33 604.5,-314.17 600.67,-318 596.83,-318"/>
<text text-anchor="middle" x="541" y="-302.8" font-family="Arial" font-size="14.00" fill="#c6c5fe">eval/ifelse/index.ts</text>
</g>
<!-- eval/ifelse/index.ts&#45;&gt;core/error.ts -->
<g id="edge13" class="edge">
<title>eval/ifelse/index.ts&#45;&gt;core/error.ts</title>
<path fill="none" stroke="#757575" d="M604.66,-302C658.94,-302 728.25,-302 728.25,-302 728.25,-302 728.25,-19 728.25,-19 728.25,-19 771.42,-19 771.42,-19"/>
<polygon fill="#757575" stroke="#757575" points="771.42,-22.5 781.42,-19 771.42,-15.5 771.42,-22.5"/>
</g>
<!-- eval/ifelse/index.ts&#45;&gt;core/result.ts -->
<g id="edge14" class="edge">
<title>eval/ifelse/index.ts&#45;&gt;core/result.ts</title>
<path fill="none" stroke="#757575" d="M486.12,-294.68C486.12,-271.87 486.12,-224 486.12,-224 486.12,-224 392.08,-224 392.08,-224 392.08,-224 392.08,-33.23 392.08,-33.23"/>
<polygon fill="#757575" stroke="#757575" points="395.58,-33.23 392.08,-23.23 388.58,-33.23 395.58,-33.23"/>
</g>
<!-- eval/ifelse/index.ts&#45;&gt;eval/ifelse/ifelse&#45;branch.ts -->
<g id="edge15" class="edge">
<title>eval/ifelse/index.ts&#45;&gt;eval/ifelse/ifelse&#45;branch.ts</title>
<path fill="none" stroke="#757575" d="M546.75,-294.84C546.75,-294.84 546.75,-269.13 546.75,-269.13"/>
<polygon fill="#757575" stroke="#757575" points="550.25,-269.13 546.75,-259.13 543.25,-269.13 550.25,-269.13"/>
</g>
<!-- eval/ifelse/index.ts&#45;&gt;eval/ifelse/ifelse&#45;helpers.ts -->
<g id="edge16" class="edge">
<title>eval/ifelse/index.ts&#45;&gt;eval/ifelse/ifelse&#45;helpers.ts</title>
<path fill="none" stroke="#757575" d="M604.58,-310C696.38,-310 855.17,-310 855.17,-310 855.17,-310 855.17,-92.05 855.17,-92.05"/>
<polygon fill="#757575" stroke="#757575" points="858.67,-92.05 855.17,-82.05 851.67,-92.05 858.67,-92.05"/>
</g>
<!-- eval/variables.ts -->
<g id="node11" class="node">
<title>eval/variables.ts</title>
<path fill="none" stroke="#c6c5fe" d="M462.83,-259C462.83,-259 365.17,-259 365.17,-259 361.33,-259 357.5,-255.17 357.5,-251.33 357.5,-251.33 357.5,-243.67 357.5,-243.67 357.5,-239.83 361.33,-236 365.17,-236 365.17,-236 462.83,-236 462.83,-236 466.67,-236 470.5,-239.83 470.5,-243.67 470.5,-243.67 470.5,-251.33 470.5,-251.33 470.5,-255.17 466.67,-259 462.83,-259"/>
<text text-anchor="middle" x="414" y="-243.8" font-family="Arial" font-size="14.00" fill="#c6c5fe">eval/variables.ts</text>
</g>
<!-- eval/ifelse/index.ts&#45;&gt;eval/variables.ts -->
<g id="edge17" class="edge">
<title>eval/ifelse/index.ts&#45;&gt;eval/variables.ts</title>
<path fill="none" stroke="#757575" d="M483.25,-294.74C483.25,-277.4 483.25,-247 483.25,-247 483.25,-247 480.55,-247 480.55,-247"/>
<polygon fill="#757575" stroke="#757575" points="480.55,-243.5 470.55,-247 480.55,-250.5 480.55,-243.5"/>
</g>
<!-- eval/variables.ts&#45;&gt;core/error.ts -->
<g id="edge62" class="edge">
<title>eval/variables.ts&#45;&gt;core/error.ts</title>
<path fill="none" stroke="#757575" d="M444.75,-235.9C444.75,-187.86 444.75,-7 444.75,-7 444.75,-7 771.14,-7 771.14,-7"/>
<polygon fill="#757575" stroke="#757575" points="771.14,-10.5 781.14,-7 771.14,-3.5 771.14,-10.5"/>
</g>
<!-- eval/variables.ts&#45;&gt;core/result.ts -->
<g id="edge63" class="edge">
<title>eval/variables.ts&#45;&gt;core/result.ts</title>
<path fill="none" stroke="#757575" d="M389.38,-235.8C389.38,-235.8 389.38,-33.27 389.38,-33.27"/>
<polygon fill="#757575" stroke="#757575" points="392.88,-33.27 389.38,-23.27 385.88,-33.27 392.88,-33.27"/>
</g>
<!-- eval/variables.ts&#45;&gt;utils/validation.ts -->
<g id="edge67" class="edge">
<title>eval/variables.ts&#45;&gt;utils/validation.ts</title>
<path fill="none" stroke="#757575" d="M386.69,-235.78C386.69,-197.26 386.69,-77 386.69,-77 386.69,-77 126.01,-77 126.01,-77"/>
<polygon fill="#757575" stroke="#757575" points="126.01,-73.5 116.01,-77 126.01,-80.5 126.01,-73.5"/>
</g>
<!-- eval/variables.ts&#45;&gt;eval/variables&#45;types.ts -->
<g id="edge65" class="edge">
<title>eval/variables.ts&#45;&gt;eval/variables&#45;types.ts</title>
<path fill="none" stroke="#757575" d="M453.33,-235.85C453.33,-193.06 453.33,-47 453.33,-47 453.33,-47 1626.17,-47 1626.17,-47 1626.17,-47 1626.17,-33.12 1626.17,-33.12"/>
<polygon fill="#757575" stroke="#757575" points="1629.67,-33.12 1626.17,-23.12 1622.67,-33.12 1629.67,-33.12"/>
</g>
<!-- eval/variables.ts&#45;&gt;parse/parser.ts -->
<g id="edge66" class="edge">
<title>eval/variables.ts&#45;&gt;parse/parser.ts</title>
<path fill="none" stroke="#757575" d="M370.75,-235.84C370.75,-235.84 370.75,-210.13 370.75,-210.13"/>
<polygon fill="#757575" stroke="#757575" points="374.25,-210.13 370.75,-200.13 367.25,-210.13 374.25,-210.13"/>
</g>
<!-- eval/variables&#45;helpers.ts -->
<g id="node22" class="node">
<title>eval/variables&#45;helpers.ts</title>
<path fill="none" stroke="#c6c5fe" d="M710.33,-141C710.33,-141 563.67,-141 563.67,-141 559.83,-141 556,-137.17 556,-133.33 556,-133.33 556,-125.67 556,-125.67 556,-121.83 559.83,-118 563.67,-118 563.67,-118 710.33,-118 710.33,-118 714.17,-118 718,-121.83 718,-125.67 718,-125.67 718,-133.33 718,-133.33 718,-137.17 714.17,-141 710.33,-141"/>
<text text-anchor="middle" x="637" y="-125.8" font-family="Arial" font-size="14.00" fill="#c6c5fe">eval/variables&#45;helpers.ts</text>
</g>
<!-- eval/variables.ts&#45;&gt;eval/variables&#45;helpers.ts -->
<g id="edge64" class="edge">
<title>eval/variables.ts&#45;&gt;eval/variables&#45;helpers.ts</title>
<path fill="none" stroke="#757575" d="M461.92,-235.67C461.92,-207.17 461.92,-137 461.92,-137 461.92,-137 545.86,-137 545.86,-137"/>
<polygon fill="#757575" stroke="#757575" points="545.87,-140.5 555.86,-137 545.86,-133.5 545.87,-140.5"/>
</g>
<!-- eval/intepret&#45;helpers.ts -->
<g id="node12" class="node">
<title>eval/intepret&#45;helpers.ts</title>
<path fill="none" stroke="#c6c5fe" d="M286.83,-318C286.83,-318 149.17,-318 149.17,-318 145.33,-318 141.5,-314.17 141.5,-310.33 141.5,-310.33 141.5,-302.67 141.5,-302.67 141.5,-298.83 145.33,-295 149.17,-295 149.17,-295 286.83,-295 286.83,-295 290.67,-295 294.5,-298.83 294.5,-302.67 294.5,-302.67 294.5,-310.33 294.5,-310.33 294.5,-314.17 290.67,-318 286.83,-318"/>
<text text-anchor="middle" x="218" y="-302.8" font-family="Arial" font-size="14.00" fill="#c6c5fe">eval/intepret&#45;helpers.ts</text>
</g>
<!-- eval/intepret&#45;helpers.ts&#45;&gt;core/error.ts -->
<g id="edge18" class="edge">
<title>eval/intepret&#45;helpers.ts&#45;&gt;core/error.ts</title>
<path fill="none" stroke="#757575" d="M263.33,-294.83C263.33,-242.87 263.33,-35 263.33,-35 263.33,-35 811.17,-35 811.17,-35 811.17,-35 811.17,-33.25 811.17,-33.25"/>
<polygon fill="#757575" stroke="#757575" points="814.67,-33.25 811.17,-23.25 807.67,-33.25 814.67,-33.25"/>
</g>
<!-- eval/intepret&#45;helpers.ts&#45;&gt;core/result.ts -->
<g id="edge19" class="edge">
<title>eval/intepret&#45;helpers.ts&#45;&gt;core/result.ts</title>
<path fill="none" stroke="#757575" d="M248.67,-294.92C248.67,-240.28 248.67,-11 248.67,-11 248.67,-11 314.67,-11 314.67,-11"/>
<polygon fill="#757575" stroke="#757575" points="314.67,-14.5 324.67,-11 314.67,-7.5 314.67,-14.5"/>
</g>
<!-- eval/intepret&#45;helpers.ts&#45;&gt;utils/validation.ts -->
<g id="edge22" class="edge">
<title>eval/intepret&#45;helpers.ts&#45;&gt;utils/validation.ts</title>
<path fill="none" stroke="#757575" d="M141.27,-306C99.8,-306 57,-306 57,-306 57,-306 57,-92.18 57,-92.18"/>
<polygon fill="#757575" stroke="#757575" points="60.5,-92.18 57,-82.18 53.5,-92.18 60.5,-92.18"/>
</g>
<!-- eval/intepret&#45;helpers.ts&#45;&gt;parse/parser.ts -->
<g id="edge21" class="edge">
<title>eval/intepret&#45;helpers.ts&#45;&gt;parse/parser.ts</title>
<path fill="none" stroke="#757575" d="M283.5,-294.75C283.5,-294.75 283.5,-210.2 283.5,-210.2"/>
<polygon fill="#757575" stroke="#757575" points="287,-210.2 283.5,-200.2 280,-210.2 287,-210.2"/>
</g>
<!-- eval/intepret&#45;helpers.ts&#45;&gt;eval/variables.ts -->
<g id="edge20" class="edge">
<title>eval/intepret&#45;helpers.ts&#45;&gt;eval/variables.ts</title>
<path fill="none" stroke="#757575" d="M289,-294.74C289,-277.4 289,-247 289,-247 289,-247 347.35,-247 347.35,-247"/>
<polygon fill="#757575" stroke="#757575" points="347.35,-250.5 357.35,-247 347.35,-243.5 347.35,-250.5"/>
</g>
<!-- eval/intepret.ts -->
<g id="node13" class="node">
<title>eval/intepret.ts</title>
<path fill="none" stroke="#c6c5fe" d="M458.33,-377C458.33,-377 369.67,-377 369.67,-377 365.83,-377 362,-373.17 362,-369.33 362,-369.33 362,-361.67 362,-361.67 362,-357.83 365.83,-354 369.67,-354 369.67,-354 458.33,-354 458.33,-354 462.17,-354 466,-357.83 466,-361.67 466,-361.67 466,-369.33 466,-369.33 466,-373.17 462.17,-377 458.33,-377"/>
<text text-anchor="middle" x="414" y="-361.8" font-family="Arial" font-size="14.00" fill="#c6c5fe">eval/intepret.ts</text>
</g>
<!-- eval/intepret.ts&#45;&gt;core/error.ts -->
<g id="edge23" class="edge">
<title>eval/intepret.ts&#45;&gt;core/error.ts</title>
<path fill="none" stroke="#757575" d="M466.3,-363C557.28,-363 735.08,-363 735.08,-363 735.08,-363 735.08,-21 735.08,-21 735.08,-21 771.34,-21 771.34,-21"/>
<polygon fill="#757575" stroke="#757575" points="771.34,-24.5 781.34,-21 771.34,-17.5 771.34,-24.5"/>
</g>
<!-- eval/intepret.ts&#45;&gt;core/result.ts -->
<g id="edge24" class="edge">
<title>eval/intepret.ts&#45;&gt;core/result.ts</title>
<path fill="none" stroke="#757575" d="M466.1,-358C556.22,-358 731.67,-358 731.67,-358 731.67,-358 731.67,-17 731.67,-17 731.67,-17 429.02,-17 429.02,-17"/>
<polygon fill="#757575" stroke="#757575" points="429.02,-13.5 419.02,-17 429.02,-20.5 429.02,-13.5"/>
</g>
<!-- eval/intepret.ts&#45;&gt;utils/validation.ts -->
<g id="edge31" class="edge">
<title>eval/intepret.ts&#45;&gt;utils/validation.ts</title>
<path fill="none" stroke="#757575" d="M361.61,-369C256.21,-369 28.5,-369 28.5,-369 28.5,-369 28.5,-92.2 28.5,-92.2"/>
<polygon fill="#757575" stroke="#757575" points="32,-92.2 28.5,-82.2 25,-92.2 32,-92.2"/>
</g>
<!-- eval/intepret.ts&#45;&gt;parse/parser.ts -->
<g id="edge30" class="edge">
<title>eval/intepret.ts&#45;&gt;parse/parser.ts</title>
<path fill="none" stroke="#757575" d="M361.79,-361C342.84,-361 326,-361 326,-361 326,-361 326,-210.09 326,-210.09"/>
<polygon fill="#757575" stroke="#757575" points="329.5,-210.09 326,-200.09 322.5,-210.09 329.5,-210.09"/>
</g>
<!-- eval/intepret.ts&#45;&gt;eval/ifelse/index.ts -->
<g id="edge25" class="edge">
<title>eval/intepret.ts&#45;&gt;eval/ifelse/index.ts</title>
<path fill="none" stroke="#757575" d="M440,-353.85C440,-335.52 440,-302 440,-302 440,-302 467.32,-302 467.32,-302"/>
<polygon fill="#757575" stroke="#757575" points="467.32,-305.5 477.32,-302 467.32,-298.5 467.32,-305.5"/>
</g>
<!-- eval/intepret.ts&#45;&gt;eval/variables.ts -->
<g id="edge28" class="edge">
<title>eval/intepret.ts&#45;&gt;eval/variables.ts</title>
<path fill="none" stroke="#757575" d="M414,-353.75C414,-353.75 414,-269.2 414,-269.2"/>
<polygon fill="#757575" stroke="#757575" points="417.5,-269.2 414,-259.2 410.5,-269.2 417.5,-269.2"/>
</g>
<!-- eval/intepret.ts&#45;&gt;eval/intepret&#45;helpers.ts -->
<g id="edge26" class="edge">
<title>eval/intepret.ts&#45;&gt;eval/intepret&#45;helpers.ts</title>
<path fill="none" stroke="#757575" d="M388,-353.73C388,-337.44 388,-310 388,-310 388,-310 304.55,-310 304.55,-310"/>
<polygon fill="#757575" stroke="#757575" points="304.55,-306.5 294.55,-310 304.55,-313.5 304.55,-306.5"/>
</g>
<!-- eval/loop/index.ts -->
<g id="node14" class="node">
<title>eval/loop/index.ts</title>
<path fill="none" stroke="#c6c5fe" d="M1194.83,-259C1194.83,-259 1089.17,-259 1089.17,-259 1085.33,-259 1081.5,-255.17 1081.5,-251.33 1081.5,-251.33 1081.5,-243.67 1081.5,-243.67 1081.5,-239.83 1085.33,-236 1089.17,-236 1089.17,-236 1194.83,-236 1194.83,-236 1198.67,-236 1202.5,-239.83 1202.5,-243.67 1202.5,-243.67 1202.5,-251.33 1202.5,-251.33 1202.5,-255.17 1198.67,-259 1194.83,-259"/>
<text text-anchor="middle" x="1142" y="-243.8" font-family="Arial" font-size="14.00" fill="#c6c5fe">eval/loop/index.ts</text>
</g>
<!-- eval/intepret.ts&#45;&gt;eval/loop/index.ts -->
<g id="edge27" class="edge">
<title>eval/intepret.ts&#45;&gt;eval/loop/index.ts</title>
<path fill="none" stroke="#757575" d="M466.06,-367C632.69,-367 1142,-367 1142,-367 1142,-367 1142,-269.4 1142,-269.4"/>
<polygon fill="#757575" stroke="#757575" points="1145.5,-269.39 1142,-259.4 1138.5,-269.4 1145.5,-269.39"/>
</g>
<!-- eval/while&#45;helpers.ts -->
<g id="node15" class="node">
<title>eval/while&#45;helpers.ts</title>
<path fill="none" stroke="#c6c5fe" d="M1621.83,-200C1621.83,-200 1498.17,-200 1498.17,-200 1494.33,-200 1490.5,-196.17 1490.5,-192.33 1490.5,-192.33 1490.5,-184.67 1490.5,-184.67 1490.5,-180.83 1494.33,-177 1498.17,-177 1498.17,-177 1621.83,-177 1621.83,-177 1625.67,-177 1629.5,-180.83 1629.5,-184.67 1629.5,-184.67 1629.5,-192.33 1629.5,-192.33 1629.5,-196.17 1625.67,-200 1621.83,-200"/>
<text text-anchor="middle" x="1560" y="-184.8" font-family="Arial" font-size="14.00" fill="#c6c5fe">eval/while&#45;helpers.ts</text>
</g>
<!-- eval/intepret.ts&#45;&gt;eval/while&#45;helpers.ts -->
<g id="edge29" class="edge">
<title>eval/intepret.ts&#45;&gt;eval/while&#45;helpers.ts</title>
<path fill="none" stroke="#757575" d="M466.22,-372C690.41,-372 1560,-372 1560,-372 1560,-372 1560,-210.26 1560,-210.26"/>
<polygon fill="#757575" stroke="#757575" points="1563.5,-210.26 1560,-200.26 1556.5,-210.26 1563.5,-210.26"/>
</g>
<!-- eval/loop/index.ts&#45;&gt;core/error.ts -->
<g id="edge32" class="edge">
<title>eval/loop/index.ts&#45;&gt;core/error.ts</title>
<path fill="none" stroke="#757575" d="M1095.5,-235.91C1095.5,-189.55 1095.5,-20 1095.5,-20 1095.5,-20 880.5,-20 880.5,-20"/>
<polygon fill="#757575" stroke="#757575" points="880.5,-16.5 870.5,-20 880.5,-23.5 880.5,-16.5"/>
</g>
<!-- eval/loop/index.ts&#45;&gt;core/result.ts -->
<g id="edge33" class="edge">
<title>eval/loop/index.ts&#45;&gt;core/result.ts</title>
<path fill="none" stroke="#757575" d="M1088.5,-235.95C1088.5,-203.18 1088.5,-112 1088.5,-112 1088.5,-112 402.85,-112 402.85,-112 402.85,-112 402.85,-33.03 402.85,-33.03"/>
<polygon fill="#757575" stroke="#757575" points="406.35,-33.03 402.85,-23.03 399.35,-33.03 406.35,-33.03"/>
</g>
<!-- eval/loop/index.ts&#45;&gt;eval/variables&#45;types.ts -->
<g id="edge36" class="edge">
<title>eval/loop/index.ts&#45;&gt;eval/variables&#45;types.ts</title>
<path fill="none" stroke="#757575" d="M1102.5,-235.95C1102.5,-188.11 1102.5,-8 1102.5,-8 1102.5,-8 1564.73,-8 1564.73,-8"/>
<polygon fill="#757575" stroke="#757575" points="1564.73,-11.5 1574.73,-8 1564.73,-4.5 1564.73,-11.5"/>
</g>
<!-- eval/loop/loop&#45;helpers.ts -->
<g id="node16" class="node">
<title>eval/loop/loop&#45;helpers.ts</title>
<path fill="none" stroke="#c6c5fe" d="M1271.83,-200C1271.83,-200 1124.17,-200 1124.17,-200 1120.33,-200 1116.5,-196.17 1116.5,-192.33 1116.5,-192.33 1116.5,-184.67 1116.5,-184.67 1116.5,-180.83 1120.33,-177 1124.17,-177 1124.17,-177 1271.83,-177 1271.83,-177 1275.67,-177 1279.5,-180.83 1279.5,-184.67 1279.5,-184.67 1279.5,-192.33 1279.5,-192.33 1279.5,-196.17 1275.67,-200 1271.83,-200"/>
<text text-anchor="middle" x="1198" y="-184.8" font-family="Arial" font-size="14.00" fill="#c6c5fe">eval/loop/loop&#45;helpers.ts</text>
</g>
<!-- eval/loop/index.ts&#45;&gt;eval/loop/loop&#45;helpers.ts -->
<g id="edge34" class="edge">
<title>eval/loop/index.ts&#45;&gt;eval/loop/loop&#45;helpers.ts</title>
<path fill="none" stroke="#757575" d="M1159.5,-235.84C1159.5,-235.84 1159.5,-210.13 1159.5,-210.13"/>
<polygon fill="#757575" stroke="#757575" points="1163,-210.13 1159.5,-200.13 1156,-210.13 1163,-210.13"/>
</g>
<!-- eval/loop/loop&#45;utils.ts -->
<g id="node17" class="node">
<title>eval/loop/loop&#45;utils.ts</title>
<path fill="none" stroke="#c6c5fe" d="M1713.83,-82C1713.83,-82 1586.17,-82 1586.17,-82 1582.33,-82 1578.5,-78.17 1578.5,-74.33 1578.5,-74.33 1578.5,-66.67 1578.5,-66.67 1578.5,-62.83 1582.33,-59 1586.17,-59 1586.17,-59 1713.83,-59 1713.83,-59 1717.67,-59 1721.5,-62.83 1721.5,-66.67 1721.5,-66.67 1721.5,-74.33 1721.5,-74.33 1721.5,-78.17 1717.67,-82 1713.83,-82"/>
<text text-anchor="middle" x="1650" y="-66.8" font-family="Arial" font-size="14.00" fill="#c6c5fe">eval/loop/loop&#45;utils.ts</text>
</g>
<!-- eval/loop/index.ts&#45;&gt;eval/loop/loop&#45;utils.ts -->
<g id="edge35" class="edge">
<title>eval/loop/index.ts&#45;&gt;eval/loop/loop&#45;utils.ts</title>
<path fill="none" stroke="#757575" d="M1202.75,-247C1345.92,-247 1692.5,-247 1692.5,-247 1692.5,-247 1692.5,-92.08 1692.5,-92.08"/>
<polygon fill="#757575" stroke="#757575" points="1696,-92.08 1692.5,-82.08 1689,-92.08 1696,-92.08"/>
</g>
<!-- eval/while&#45;helpers.ts&#45;&gt;core/error.ts -->
<g id="edge68" class="edge">
<title>eval/while&#45;helpers.ts&#45;&gt;core/error.ts</title>
<path fill="none" stroke="#757575" d="M1512.1,-176.85C1512.1,-137.95 1512.1,-15 1512.1,-15 1512.1,-15 880.75,-15 880.75,-15"/>
<polygon fill="#757575" stroke="#757575" points="880.75,-11.5 870.75,-15 880.75,-18.5 880.75,-11.5"/>
</g>
<!-- eval/while&#45;helpers.ts&#45;&gt;core/result.ts -->
<g id="edge69" class="edge">
<title>eval/while&#45;helpers.ts&#45;&gt;core/result.ts</title>
<path fill="none" stroke="#757575" d="M1501.3,-176.93C1501.3,-152.94 1501.3,-100 1501.3,-100 1501.3,-100 408.23,-100 408.23,-100 408.23,-100 408.23,-33.07 408.23,-33.07"/>
<polygon fill="#757575" stroke="#757575" points="411.73,-33.07 408.23,-23.07 404.73,-33.07 411.73,-33.07"/>
</g>
<!-- eval/while&#45;helpers.ts&#45;&gt;eval/variables&#45;types.ts -->
<g id="edge72" class="edge">
<title>eval/while&#45;helpers.ts&#45;&gt;eval/variables&#45;types.ts</title>
<path fill="none" stroke="#757575" d="M1522.9,-176.78C1522.9,-137.65 1522.9,-14 1522.9,-14 1522.9,-14 1564.96,-14 1564.96,-14"/>
<polygon fill="#757575" stroke="#757575" points="1564.96,-17.5 1574.96,-14 1564.96,-10.5 1564.96,-17.5"/>
</g>
<!-- eval/while&#45;helpers.ts&#45;&gt;eval/loop/loop&#45;utils.ts -->
<g id="edge70" class="edge">
<title>eval/while&#45;helpers.ts&#45;&gt;eval/loop/loop&#45;utils.ts</title>
<path fill="none" stroke="#757575" d="M1533.7,-176.7C1533.7,-146.73 1533.7,-70 1533.7,-70 1533.7,-70 1568.33,-70 1568.33,-70"/>
<polygon fill="#757575" stroke="#757575" points="1568.33,-73.5 1578.33,-70 1568.33,-66.5 1568.33,-73.5"/>
</g>
<!-- eval/loop/while.ts -->
<g id="node21" class="node">
<title>eval/loop/while.ts</title>
<path fill="none" stroke="#c6c5fe" d="M1655.83,-141C1655.83,-141 1552.17,-141 1552.17,-141 1548.33,-141 1544.5,-137.17 1544.5,-133.33 1544.5,-133.33 1544.5,-125.67 1544.5,-125.67 1544.5,-121.83 1548.33,-118 1552.17,-118 1552.17,-118 1655.83,-118 1655.83,-118 1659.67,-118 1663.5,-121.83 1663.5,-125.67 1663.5,-125.67 1663.5,-133.33 1663.5,-133.33 1663.5,-137.17 1659.67,-141 1655.83,-141"/>
<text text-anchor="middle" x="1604" y="-125.8" font-family="Arial" font-size="14.00" fill="#c6c5fe">eval/loop/while.ts</text>
</g>
<!-- eval/while&#45;helpers.ts&#45;&gt;eval/loop/while.ts -->
<g id="edge71" class="edge">
<title>eval/while&#45;helpers.ts&#45;&gt;eval/loop/while.ts</title>
<path fill="none" stroke="#757575" d="M1587,-176.84C1587,-176.84 1587,-151.13 1587,-151.13"/>
<polygon fill="#757575" stroke="#757575" points="1590.5,-151.13 1587,-141.13 1583.5,-151.13 1590.5,-151.13"/>
</g>
<!-- eval/loop/loop&#45;helpers.ts&#45;&gt;core/error.ts -->
<g id="edge44" class="edge">
<title>eval/loop/loop&#45;helpers.ts&#45;&gt;core/error.ts</title>
<path fill="none" stroke="#757575" d="M1116.43,-186C1077.59,-186 1039.5,-186 1039.5,-186 1039.5,-186 1039.5,-21 1039.5,-21 1039.5,-21 880.76,-21 880.76,-21"/>
<polygon fill="#757575" stroke="#757575" points="880.76,-17.5 870.76,-21 880.76,-24.5 880.76,-17.5"/>
</g>
<!-- eval/loop/loop&#45;helpers.ts&#45;&gt;core/result.ts -->
<g id="edge45" class="edge">
<title>eval/loop/loop&#45;helpers.ts&#45;&gt;core/result.ts</title>
<path fill="none" stroke="#757575" d="M1116.46,-193C912.69,-193 397.46,-193 397.46,-193 397.46,-193 397.46,-33.13 397.46,-33.13"/>
<polygon fill="#757575" stroke="#757575" points="400.96,-33.13 397.46,-23.13 393.96,-33.13 400.96,-33.13"/>
</g>
<!-- eval/loop/loop&#45;helpers.ts&#45;&gt;eval/variables&#45;types.ts -->
<g id="edge49" class="edge">
<title>eval/loop/loop&#45;helpers.ts&#45;&gt;eval/variables&#45;types.ts</title>
<path fill="none" stroke="#757575" d="M1116.44,-190C1112.11,-190 1109.5,-190 1109.5,-190 1109.5,-190 1109.5,-10 1109.5,-10 1109.5,-10 1564.85,-10 1564.85,-10"/>
<polygon fill="#757575" stroke="#757575" points="1564.85,-13.5 1574.85,-10 1564.85,-6.5 1564.85,-13.5"/>
</g>
<!-- eval/loop/loop&#45;break.ts -->
<g id="node18" class="node">
<title>eval/loop/loop&#45;break.ts</title>
<path fill="none" stroke="#c6c5fe" d="M1266.33,-141C1266.33,-141 1129.67,-141 1129.67,-141 1125.83,-141 1122,-137.17 1122,-133.33 1122,-133.33 1122,-125.67 1122,-125.67 1122,-121.83 1125.83,-118 1129.67,-118 1129.67,-118 1266.33,-118 1266.33,-118 1270.17,-118 1274,-121.83 1274,-125.67 1274,-125.67 1274,-133.33 1274,-133.33 1274,-137.17 1270.17,-141 1266.33,-141"/>
<text text-anchor="middle" x="1198" y="-125.8" font-family="Arial" font-size="14.00" fill="#c6c5fe">eval/loop/loop&#45;break.ts</text>
</g>
<!-- eval/loop/loop&#45;helpers.ts&#45;&gt;eval/loop/loop&#45;break.ts -->
<g id="edge46" class="edge">
<title>eval/loop/loop&#45;helpers.ts&#45;&gt;eval/loop/loop&#45;break.ts</title>
<path fill="none" stroke="#757575" d="M1198,-176.84C1198,-176.84 1198,-151.13 1198,-151.13"/>
<polygon fill="#757575" stroke="#757575" points="1201.5,-151.13 1198,-141.13 1194.5,-151.13 1201.5,-151.13"/>
</g>
<!-- eval/loop/loop&#45;common.ts -->
<g id="node19" class="node">
<title>eval/loop/loop&#45;common.ts</title>
<path fill="none" stroke="#c6c5fe" d="M1400.33,-82C1400.33,-82 1243.67,-82 1243.67,-82 1239.83,-82 1236,-78.17 1236,-74.33 1236,-74.33 1236,-66.67 1236,-66.67 1236,-62.83 1239.83,-59 1243.67,-59 1243.67,-59 1400.33,-59 1400.33,-59 1404.17,-59 1408,-62.83 1408,-66.67 1408,-66.67 1408,-74.33 1408,-74.33 1408,-78.17 1404.17,-82 1400.33,-82"/>
<text text-anchor="middle" x="1322" y="-66.8" font-family="Arial" font-size="14.00" fill="#c6c5fe">eval/loop/loop&#45;common.ts</text>
</g>
<!-- eval/loop/loop&#45;helpers.ts&#45;&gt;eval/loop/loop&#45;common.ts -->
<g id="edge47" class="edge">
<title>eval/loop/loop&#45;helpers.ts&#45;&gt;eval/loop/loop&#45;common.ts</title>
<path fill="none" stroke="#757575" d="M1279.53,-184C1293.97,-184 1304.5,-184 1304.5,-184 1304.5,-184 1304.5,-92.22 1304.5,-92.22"/>
<polygon fill="#757575" stroke="#757575" points="1308,-92.22 1304.5,-82.22 1301,-92.22 1308,-92.22"/>
</g>
<!-- eval/loop/loop&#45;ifbreak.ts -->
<g id="node20" class="node">
<title>eval/loop/loop&#45;ifbreak.ts</title>
<path fill="none" stroke="#c6c5fe" d="M1480.83,-141C1480.83,-141 1337.17,-141 1337.17,-141 1333.33,-141 1329.5,-137.17 1329.5,-133.33 1329.5,-133.33 1329.5,-125.67 1329.5,-125.67 1329.5,-121.83 1333.33,-118 1337.17,-118 1337.17,-118 1480.83,-118 1480.83,-118 1484.67,-118 1488.5,-121.83 1488.5,-125.67 1488.5,-125.67 1488.5,-133.33 1488.5,-133.33 1488.5,-137.17 1484.67,-141 1480.83,-141"/>
<text text-anchor="middle" x="1409" y="-125.8" font-family="Arial" font-size="14.00" fill="#c6c5fe">eval/loop/loop&#45;ifbreak.ts</text>
</g>
<!-- eval/loop/loop&#45;helpers.ts&#45;&gt;eval/loop/loop&#45;ifbreak.ts -->
<g id="edge48" class="edge">
<title>eval/loop/loop&#45;helpers.ts&#45;&gt;eval/loop/loop&#45;ifbreak.ts</title>
<path fill="none" stroke="#757575" d="M1279.58,-192C1338.95,-192 1409,-192 1409,-192 1409,-192 1409,-151.26 1409,-151.26"/>
<polygon fill="#757575" stroke="#757575" points="1412.5,-151.26 1409,-141.26 1405.5,-151.26 1412.5,-151.26"/>
</g>
<!-- eval/loop/loop&#45;utils.ts&#45;&gt;eval/variables&#45;types.ts -->
<g id="edge52" class="edge">
<title>eval/loop/loop&#45;utils.ts&#45;&gt;eval/variables&#45;types.ts</title>
<path fill="none" stroke="#757575" d="M1673.83,-58.84C1673.83,-58.84 1673.83,-33.13 1673.83,-33.13"/>
<polygon fill="#757575" stroke="#757575" points="1677.33,-33.13 1673.83,-23.13 1670.33,-33.13 1677.33,-33.13"/>
</g>
<!-- eval/loop/loop&#45;break.ts&#45;&gt;core/error.ts -->
<g id="edge37" class="edge">
<title>eval/loop/loop&#45;break.ts&#45;&gt;core/error.ts</title>
<path fill="none" stroke="#757575" d="M1179,-117.99C1179,-89.5 1179,-18 1179,-18 1179,-18 880.71,-18 880.71,-18"/>
<polygon fill="#757575" stroke="#757575" points="880.71,-14.5 870.71,-18 880.71,-21.5 880.71,-14.5"/>
</g>
<!-- eval/loop/loop&#45;break.ts&#45;&gt;core/result.ts -->
<g id="edge38" class="edge">
<title>eval/loop/loop&#45;break.ts&#45;&gt;core/result.ts</title>
<path fill="none" stroke="#757575" d="M1150.5,-117.75C1150.5,-111.88 1150.5,-106 1150.5,-106 1150.5,-106 405.54,-106 405.54,-106 405.54,-106 405.54,-33.09 405.54,-33.09"/>
<polygon fill="#757575" stroke="#757575" points="409.04,-33.09 405.54,-23.09 402.04,-33.09 409.04,-33.09"/>
</g>
<!-- eval/loop/loop&#45;break.ts&#45;&gt;eval/variables&#45;types.ts -->
<g id="edge40" class="edge">
<title>eval/loop/loop&#45;break.ts&#45;&gt;eval/variables&#45;types.ts</title>
<path fill="none" stroke="#757575" d="M1207.5,-117.7C1207.5,-87.73 1207.5,-11 1207.5,-11 1207.5,-11 1564.94,-11 1564.94,-11"/>
<polygon fill="#757575" stroke="#757575" points="1564.94,-14.5 1574.94,-11 1564.94,-7.5 1564.94,-14.5"/>
</g>
<!-- eval/loop/loop&#45;break.ts&#45;&gt;eval/loop/loop&#45;common.ts -->
<g id="edge39" class="edge">
<title>eval/loop/loop&#45;break.ts&#45;&gt;eval/loop/loop&#45;common.ts</title>
<path fill="none" stroke="#757575" d="M1261.33,-117.84C1261.33,-117.84 1261.33,-92.13 1261.33,-92.13"/>
<polygon fill="#757575" stroke="#757575" points="1264.83,-92.13 1261.33,-82.13 1257.83,-92.13 1264.83,-92.13"/>
</g>
<!-- eval/loop/loop&#45;common.ts&#45;&gt;core/error.ts -->
<g id="edge41" class="edge">
<title>eval/loop/loop&#45;common.ts&#45;&gt;core/error.ts</title>
<path fill="none" stroke="#757575" d="M1293.33,-58.89C1293.33,-43.16 1293.33,-17 1293.33,-17 1293.33,-17 880.81,-17 880.81,-17"/>
<polygon fill="#757575" stroke="#757575" points="880.81,-13.5 870.81,-17 880.81,-20.5 880.81,-13.5"/>
</g>
<!-- eval/loop/loop&#45;common.ts&#45;&gt;core/result.ts -->
<g id="edge42" class="edge">
<title>eval/loop/loop&#45;common.ts&#45;&gt;core/result.ts</title>
<path fill="none" stroke="#757575" d="M1248.67,-82.08C1248.67,-85.33 1248.67,-88 1248.67,-88 1248.67,-88 413.62,-88 413.62,-88 413.62,-88 413.62,-33.12 413.62,-33.12"/>
<polygon fill="#757575" stroke="#757575" points="417.12,-33.12 413.62,-23.12 410.12,-33.12 417.12,-33.12"/>
</g>
<!-- eval/loop/loop&#45;common.ts&#45;&gt;eval/variables&#45;types.ts -->
<g id="edge43" class="edge">
<title>eval/loop/loop&#45;common.ts&#45;&gt;eval/variables&#45;types.ts</title>
<path fill="none" stroke="#757575" d="M1350.67,-58.94C1350.67,-41.89 1350.67,-12 1350.67,-12 1350.67,-12 1564.85,-12 1564.85,-12"/>
<polygon fill="#757575" stroke="#757575" points="1564.85,-15.5 1574.85,-12 1564.85,-8.5 1564.85,-15.5"/>
</g>
<!-- eval/loop/loop&#45;ifbreak.ts&#45;&gt;eval/loop/loop&#45;utils.ts -->
<g id="edge51" class="edge">
<title>eval/loop/loop&#45;ifbreak.ts&#45;&gt;eval/loop/loop&#45;utils.ts</title>
<path fill="none" stroke="#757575" d="M1448.25,-117.79C1448.25,-98.95 1448.25,-64 1448.25,-64 1448.25,-64 1568.3,-64 1568.3,-64"/>
<polygon fill="#757575" stroke="#757575" points="1568.3,-67.5 1578.3,-64 1568.3,-60.5 1568.3,-67.5"/>
</g>
<!-- eval/loop/loop&#45;ifbreak.ts&#45;&gt;eval/loop/loop&#45;common.ts -->
<g id="edge50" class="edge">
<title>eval/loop/loop&#45;ifbreak.ts&#45;&gt;eval/loop/loop&#45;common.ts</title>
<path fill="none" stroke="#757575" d="M1368.75,-117.84C1368.75,-117.84 1368.75,-92.13 1368.75,-92.13"/>
<polygon fill="#757575" stroke="#757575" points="1372.25,-92.13 1368.75,-82.13 1365.25,-92.13 1372.25,-92.13"/>
</g>
<!-- eval/loop/while.ts&#45;&gt;core/error.ts -->
<g id="edge53" class="edge">
<title>eval/loop/while.ts&#45;&gt;core/error.ts</title>
<path fill="none" stroke="#757575" d="M1562.8,-117.73C1562.8,-86.17 1562.8,-2 1562.8,-2 1562.8,-2 880.71,-2 880.71,-2"/>
<polygon fill="#757575" stroke="#757575" points="880.71,1.5 870.71,-2 880.71,-5.5 880.71,1.5"/>
</g>
<!-- eval/loop/while.ts&#45;&gt;core/result.ts -->
<g id="edge54" class="edge">
<title>eval/loop/while.ts&#45;&gt;core/result.ts</title>
<path fill="none" stroke="#757575" d="M1550.6,-117.88C1550.6,-107.52 1550.6,-94 1550.6,-94 1550.6,-94 410.92,-94 410.92,-94 410.92,-94 410.92,-33.32 410.92,-33.32"/>
<polygon fill="#757575" stroke="#757575" points="414.42,-33.32 410.92,-23.32 407.42,-33.32 414.42,-33.32"/>
</g>
<!-- eval/loop/while.ts&#45;&gt;eval/variables&#45;types.ts -->
<g id="edge57" class="edge">
<title>eval/loop/while.ts&#45;&gt;eval/variables&#45;types.ts</title>
<path fill="none" stroke="#757575" d="M1568.9,-117.64C1568.9,-85.83 1568.9,-1 1568.9,-1 1568.9,-1 1569.51,-1 1569.51,-1"/>
<polygon fill="#757575" stroke="#757575" points="1565,-4.5 1575,-1 1565,2.5 1565,-4.5"/>
</g>
<!-- eval/loop/while.ts&#45;&gt;eval/loop/loop&#45;utils.ts -->
<g id="edge56" class="edge">
<title>eval/loop/while.ts&#45;&gt;eval/loop/loop&#45;utils.ts</title>
<path fill="none" stroke="#757575" d="M1621,-117.84C1621,-117.84 1621,-92.13 1621,-92.13"/>
<polygon fill="#757575" stroke="#757575" points="1624.5,-92.13 1621,-82.13 1617.5,-92.13 1624.5,-92.13"/>
</g>
<!-- eval/loop/while.ts&#45;&gt;eval/loop/loop&#45;common.ts -->
<g id="edge55" class="edge">
<title>eval/loop/while.ts&#45;&gt;eval/loop/loop&#45;common.ts</title>
<path fill="none" stroke="#757575" d="M1556.7,-117.89C1556.7,-102.16 1556.7,-76 1556.7,-76 1556.7,-76 1418.06,-76 1418.06,-76"/>
<polygon fill="#757575" stroke="#757575" points="1418.06,-72.5 1408.06,-76 1418.06,-79.5 1418.06,-72.5"/>
</g>
<!-- eval/variables&#45;helpers.ts&#45;&gt;core/error.ts -->
<g id="edge58" class="edge">
<title>eval/variables&#45;helpers.ts&#45;&gt;core/error.ts</title>
<path fill="none" stroke="#757575" d="M642.75,-117.7C642.75,-87.73 642.75,-11 642.75,-11 642.75,-11 771.17,-11 771.17,-11"/>
<polygon fill="#757575" stroke="#757575" points="771.17,-14.5 781.17,-11 771.17,-7.5 771.17,-14.5"/>
</g>
<!-- eval/variables&#45;helpers.ts&#45;&gt;core/result.ts -->
<g id="edge59" class="edge">
<title>eval/variables&#45;helpers.ts&#45;&gt;core/result.ts</title>
<path fill="none" stroke="#757575" d="M555.82,-133C487.26,-133 400.15,-133 400.15,-133 400.15,-133 400.15,-33.15 400.15,-33.15"/>
<polygon fill="#757575" stroke="#757575" points="403.65,-33.15 400.15,-23.15 396.65,-33.15 403.65,-33.15"/>
</g>
<!-- eval/variables&#45;helpers.ts&#45;&gt;eval/variables&#45;types.ts -->
<g id="edge60" class="edge">
<title>eval/variables&#45;helpers.ts&#45;&gt;eval/variables&#45;types.ts</title>
<path fill="none" stroke="#757575" d="M718.2,-129C812.56,-129 955.5,-129 955.5,-129 955.5,-129 955.5,-5 955.5,-5 955.5,-5 1564.69,-5 1564.69,-5"/>
<polygon fill="#757575" stroke="#757575" points="1564.69,-8.5 1574.69,-5 1564.69,-1.5 1564.69,-8.5"/>
</g>
<!-- eval/variables&#45;helpers.ts&#45;&gt;utils/types.ts -->
<g id="edge61" class="edge">
<title>eval/variables&#45;helpers.ts&#45;&gt;utils/types.ts</title>
<path fill="none" stroke="#757575" d="M561.75,-117.84C561.75,-117.84 561.75,-92.13 561.75,-92.13"/>
<polygon fill="#757575" stroke="#757575" points="565.25,-92.13 561.75,-82.13 558.25,-92.13 565.25,-92.13"/>
</g>
</g>
</svg>
