<?xml version="1.0" encoding="UTF-8" standalone="no"?>
<!DOCTYPE svg PUBLIC "-//W3C//DTD SVG 1.1//EN"
 "http://www.w3.org/Graphics/SVG/1.1/DTD/svg11.dtd">
<!-- Generated by graphviz version 2.43.0 (0)
 -->
<!-- Title: G Pages: 1 -->
<svg width="433pt" height="302pt"
 viewBox="0.00 0.00 433.20 302.20" xmlns="http://www.w3.org/2000/svg" xmlns:xlink="http://www.w3.org/1999/xlink">
<g id="graph0" class="graph" transform="scale(1 1) rotate(0) translate(21.6 280.6)">
<title>G</title>
<polygon fill="#111111" stroke="transparent" points="-21.6,21.6 -21.6,-280.6 411.6,-280.6 411.6,21.6 -21.6,21.6"/>
<!-- src/app.ts -->
<g id="node1" class="node">
<title>src/app.ts</title>
<path fill="none" stroke="#c6c5fe" d="M208.83,-200C208.83,-200 149.17,-200 149.17,-200 145.33,-200 141.5,-196.17 141.5,-192.33 141.5,-192.33 141.5,-184.67 141.5,-184.67 141.5,-180.83 145.33,-177 149.17,-177 149.17,-177 208.83,-177 208.83,-177 212.67,-177 216.5,-180.83 216.5,-184.67 216.5,-184.67 216.5,-192.33 216.5,-192.33 216.5,-196.17 212.67,-200 208.83,-200"/>
<text text-anchor="middle" x="179" y="-184.8" font-family="Arial" font-size="14.00" fill="#c6c5fe">src/app.ts</text>
</g>
<!-- src/loop.ts -->
<g id="node2" class="node">
<title>src/loop.ts</title>
<path fill="none" stroke="#cfffac" d="M70.33,-141C70.33,-141 7.67,-141 7.67,-141 3.83,-141 0,-137.17 0,-133.33 0,-133.33 0,-125.67 0,-125.67 0,-121.83 3.83,-118 7.67,-118 7.67,-118 70.33,-118 70.33,-118 74.17,-118 78,-121.83 78,-125.67 78,-125.67 78,-133.33 78,-133.33 78,-137.17 74.17,-141 70.33,-141"/>
<text text-anchor="middle" x="39" y="-125.8" font-family="Arial" font-size="14.00" fill="#cfffac">src/loop.ts</text>
</g>
<!-- src/app.ts&#45;&gt;src/loop.ts -->
<g id="edge1" class="edge">
<title>src/app.ts&#45;&gt;src/loop.ts</title>
<path fill="none" stroke="#757575" d="M141.48,-192C100.01,-192 39,-192 39,-192 39,-192 39,-151.26 39,-151.26"/>
<polygon fill="#757575" stroke="#757575" points="42.5,-151.26 39,-141.26 35.5,-151.26 42.5,-151.26"/>
</g>
<!-- src/match.ts -->
<g id="node3" class="node">
<title>src/match.ts</title>
<path fill="none" stroke="#cfffac" d="M143.33,-82C143.33,-82 68.67,-82 68.67,-82 64.83,-82 61,-78.17 61,-74.33 61,-74.33 61,-66.67 61,-66.67 61,-62.83 64.83,-59 68.67,-59 68.67,-59 143.33,-59 143.33,-59 147.17,-59 151,-62.83 151,-66.67 151,-66.67 151,-74.33 151,-74.33 151,-78.17 147.17,-82 143.33,-82"/>
<text text-anchor="middle" x="106" y="-66.8" font-family="Arial" font-size="14.00" fill="#cfffac">src/match.ts</text>
</g>
<!-- src/app.ts&#45;&gt;src/match.ts -->
<g id="edge2" class="edge">
<title>src/app.ts&#45;&gt;src/match.ts</title>
<path fill="none" stroke="#757575" d="M141.36,-184C134.26,-184 129,-184 129,-184 129,-184 129,-92.22 129,-92.22"/>
<polygon fill="#757575" stroke="#757575" points="132.5,-92.22 129,-82.22 125.5,-92.22 132.5,-92.22"/>
</g>
<!-- src/operators.ts -->
<g id="node4" class="node">
<title>src/operators.ts</title>
<path fill="none" stroke="#c6c5fe" d="M382.33,-141C382.33,-141 287.67,-141 287.67,-141 283.83,-141 280,-137.17 280,-133.33 280,-133.33 280,-125.67 280,-125.67 280,-121.83 283.83,-118 287.67,-118 287.67,-118 382.33,-118 382.33,-118 386.17,-118 390,-121.83 390,-125.67 390,-125.67 390,-133.33 390,-133.33 390,-137.17 386.17,-141 382.33,-141"/>
<text text-anchor="middle" x="335" y="-125.8" font-family="Arial" font-size="14.00" fill="#c6c5fe">src/operators.ts</text>
</g>
<!-- src/app.ts&#45;&gt;src/operators.ts -->
<g id="edge3" class="edge">
<title>src/app.ts&#45;&gt;src/operators.ts</title>
<path fill="none" stroke="#757575" d="M216.76,-192C262.93,-192 335,-192 335,-192 335,-192 335,-151.26 335,-151.26"/>
<polygon fill="#757575" stroke="#757575" points="338.5,-151.26 335,-141.26 331.5,-151.26 338.5,-151.26"/>
</g>
<!-- src/parser.ts -->
<g id="node5" class="node">
<title>src/parser.ts</title>
<path fill="none" stroke="#c6c5fe" d="M289.33,-82C289.33,-82 214.67,-82 214.67,-82 210.83,-82 207,-78.17 207,-74.33 207,-74.33 207,-66.67 207,-66.67 207,-62.83 210.83,-59 214.67,-59 214.67,-59 289.33,-59 289.33,-59 293.17,-59 297,-62.83 297,-66.67 297,-66.67 297,-74.33 297,-74.33 297,-78.17 293.17,-82 289.33,-82"/>
<text text-anchor="middle" x="252" y="-66.8" font-family="Arial" font-size="14.00" fill="#c6c5fe">src/parser.ts</text>
</g>
<!-- src/app.ts&#45;&gt;src/parser.ts -->
<g id="edge4" class="edge">
<title>src/app.ts&#45;&gt;src/parser.ts</title>
<path fill="none" stroke="#757575" d="M216.64,-184C223.74,-184 229,-184 229,-184 229,-184 229,-92.22 229,-92.22"/>
<polygon fill="#757575" stroke="#757575" points="232.5,-92.22 229,-82.22 225.5,-92.22 232.5,-92.22"/>
</g>
<!-- src/scope.ts -->
<g id="node6" class="node">
<title>src/scope.ts</title>
<path fill="none" stroke="#c6c5fe" d="M215.83,-141C215.83,-141 142.17,-141 142.17,-141 138.33,-141 134.5,-137.17 134.5,-133.33 134.5,-133.33 134.5,-125.67 134.5,-125.67 134.5,-121.83 138.33,-118 142.17,-118 142.17,-118 215.83,-118 215.83,-118 219.67,-118 223.5,-121.83 223.5,-125.67 223.5,-125.67 223.5,-133.33 223.5,-133.33 223.5,-137.17 219.67,-141 215.83,-141"/>
<text text-anchor="middle" x="179" y="-125.8" font-family="Arial" font-size="14.00" fill="#c6c5fe">src/scope.ts</text>
</g>
<!-- src/app.ts&#45;&gt;src/scope.ts -->
<g id="edge5" class="edge">
<title>src/app.ts&#45;&gt;src/scope.ts</title>
<path fill="none" stroke="#757575" d="M179,-176.84C179,-176.84 179,-151.13 179,-151.13"/>
<polygon fill="#757575" stroke="#757575" points="182.5,-151.13 179,-141.13 175.5,-151.13 182.5,-151.13"/>
</g>
<!-- src/operators.ts&#45;&gt;src/parser.ts -->
<g id="edge6" class="edge">
<title>src/operators.ts&#45;&gt;src/parser.ts</title>
<path fill="none" stroke="#757575" d="M288.5,-117.84C288.5,-117.84 288.5,-92.13 288.5,-92.13"/>
<polygon fill="#757575" stroke="#757575" points="292,-92.13 288.5,-82.13 285,-92.13 292,-92.13"/>
</g>
<!-- src/types.ts -->
<g id="node7" class="node">
<title>src/types.ts</title>
<path fill="none" stroke="#cfffac" d="M286.83,-23C286.83,-23 217.17,-23 217.17,-23 213.33,-23 209.5,-19.17 209.5,-15.33 209.5,-15.33 209.5,-7.67 209.5,-7.67 209.5,-3.83 213.33,0 217.17,0 217.17,0 286.83,0 286.83,0 290.67,0 294.5,-3.83 294.5,-7.67 294.5,-7.67 294.5,-15.33 294.5,-15.33 294.5,-19.17 290.67,-23 286.83,-23"/>
<text text-anchor="middle" x="252" y="-7.8" font-family="Arial" font-size="14.00" fill="#cfffac">src/types.ts</text>
</g>
<!-- src/operators.ts&#45;&gt;src/types.ts -->
<g id="edge7" class="edge">
<title>src/operators.ts&#45;&gt;src/types.ts</title>
<path fill="none" stroke="#757575" d="M343.5,-117.7C343.5,-87.73 343.5,-11 343.5,-11 343.5,-11 304.54,-11 304.54,-11"/>
<polygon fill="#757575" stroke="#757575" points="304.54,-7.5 294.54,-11 304.54,-14.5 304.54,-7.5"/>
</g>
<!-- src/parser.ts&#45;&gt;src/types.ts -->
<g id="edge8" class="edge">
<title>src/parser.ts&#45;&gt;src/types.ts</title>
<path fill="none" stroke="#757575" d="M252,-58.84C252,-58.84 252,-33.13 252,-33.13"/>
<polygon fill="#757575" stroke="#757575" points="255.5,-33.13 252,-23.13 248.5,-33.13 255.5,-33.13"/>
</g>
<!-- src/scope.ts&#45;&gt;src/match.ts -->
<g id="edge9" class="edge">
<title>src/scope.ts&#45;&gt;src/match.ts</title>
<path fill="none" stroke="#757575" d="M142.75,-117.84C142.75,-117.84 142.75,-92.13 142.75,-92.13"/>
<polygon fill="#757575" stroke="#757575" points="146.25,-92.13 142.75,-82.13 139.25,-92.13 146.25,-92.13"/>
</g>
<!-- src/scope.ts&#45;&gt;src/parser.ts -->
<g id="edge10" class="edge">
<title>src/scope.ts&#45;&gt;src/parser.ts</title>
<path fill="none" stroke="#757575" d="M215.25,-117.84C215.25,-117.84 215.25,-92.13 215.25,-92.13"/>
<polygon fill="#757575" stroke="#757575" points="218.75,-92.13 215.25,-82.13 211.75,-92.13 218.75,-92.13"/>
</g>
<!-- src/scope.ts&#45;&gt;src/types.ts -->
<g id="edge11" class="edge">
<title>src/scope.ts&#45;&gt;src/types.ts</title>
<path fill="none" stroke="#757575" d="M179,-117.7C179,-87.73 179,-11 179,-11 179,-11 199.11,-11 199.11,-11"/>
<polygon fill="#757575" stroke="#757575" points="199.11,-14.5 209.11,-11 199.11,-7.5 199.11,-14.5"/>
</g>
<!-- tests/app.test.ts -->
<g id="node8" class="node">
<title>tests/app.test.ts</title>
<path fill="none" stroke="#c6c5fe" d="M226.83,-259C226.83,-259 131.17,-259 131.17,-259 127.33,-259 123.5,-255.17 123.5,-251.33 123.5,-251.33 123.5,-243.67 123.5,-243.67 123.5,-239.83 127.33,-236 131.17,-236 131.17,-236 226.83,-236 226.83,-236 230.67,-236 234.5,-239.83 234.5,-243.67 234.5,-243.67 234.5,-251.33 234.5,-251.33 234.5,-255.17 230.67,-259 226.83,-259"/>
<text text-anchor="middle" x="179" y="-243.8" font-family="Arial" font-size="14.00" fill="#c6c5fe">tests/app.test.ts</text>
</g>
<!-- tests/app.test.ts&#45;&gt;src/app.ts -->
<g id="edge12" class="edge">
<title>tests/app.test.ts&#45;&gt;src/app.ts</title>
<path fill="none" stroke="#757575" d="M179,-235.84C179,-235.84 179,-210.13 179,-210.13"/>
<polygon fill="#757575" stroke="#757575" points="182.5,-210.13 179,-200.13 175.5,-210.13 182.5,-210.13"/>
</g>
</g>
</svg>
