<?xml version="1.0" encoding="UTF-8" standalone="no"?>
<!DOCTYPE svg PUBLIC "-//W3C//DTD SVG 1.1//EN"
 "http://www.w3.org/Graphics/SVG/1.1/DTD/svg11.dtd">
<!-- Generated by graphviz version 2.43.0 (0)
 -->
<!-- Title: G Pages: 1 -->
<svg width="2508pt" height="715pt"
 viewBox="0.00 0.00 2507.70 715.20" xmlns="http://www.w3.org/2000/svg" xmlns:xlink="http://www.w3.org/1999/xlink">
<g id="graph0" class="graph" transform="scale(1 1) rotate(0) translate(21.6 693.6)">
<title>G</title>
<polygon fill="#111111" stroke="transparent" points="-21.6,21.6 -21.6,-693.6 2486.1,-693.6 2486.1,21.6 -21.6,21.6"/>
<!-- src/app.ts -->
<g id="node1" class="node">
<title>src/app.ts</title>
<path fill="none" stroke="#c6c5fe" d="M1505.33,-554C1505.33,-554 1445.67,-554 1445.67,-554 1441.83,-554 1438,-550.17 1438,-546.33 1438,-546.33 1438,-538.67 1438,-538.67 1438,-534.83 1441.83,-531 1445.67,-531 1445.67,-531 1505.33,-531 1505.33,-531 1509.17,-531 1513,-534.83 1513,-538.67 1513,-538.67 1513,-546.33 1513,-546.33 1513,-550.17 1509.17,-554 1505.33,-554"/>
<text text-anchor="middle" x="1475.5" y="-538.8" font-family="Arial" font-size="14.00" fill="#c6c5fe">src/app.ts</text>
</g>
<!-- src/expressions/binary&#45;operation.ts -->
<g id="node2" class="node">
<title>src/expressions/binary&#45;operation.ts</title>
<path fill="none" stroke="#c6c5fe" d="M1995.83,-436C1995.83,-436 1785.17,-436 1785.17,-436 1781.33,-436 1777.5,-432.17 1777.5,-428.33 1777.5,-428.33 1777.5,-420.67 1777.5,-420.67 1777.5,-416.83 1781.33,-413 1785.17,-413 1785.17,-413 1995.83,-413 1995.83,-413 1999.67,-413 2003.5,-416.83 2003.5,-420.67 2003.5,-420.67 2003.5,-428.33 2003.5,-428.33 2003.5,-432.17 1999.67,-436 1995.83,-436"/>
<text text-anchor="middle" x="1890.5" y="-420.8" font-family="Arial" font-size="14.00" fill="#c6c5fe">src/expressions/binary&#45;operation.ts</text>
</g>
<!-- src/app.ts&#45;&gt;src/expressions/binary&#45;operation.ts -->
<g id="edge1" class="edge">
<title>src/app.ts&#45;&gt;src/expressions/binary&#45;operation.ts</title>
<path fill="none" stroke="#757575" d="M1513.16,-534C1602.77,-534 1821.25,-534 1821.25,-534 1821.25,-534 1821.25,-446.22 1821.25,-446.22"/>
<polygon fill="#757575" stroke="#757575" points="1824.75,-446.22 1821.25,-436.22 1817.75,-446.22 1824.75,-446.22"/>
</g>
<!-- src/expressions/grouped&#45;expressions.ts -->
<g id="node3" class="node">
<title>src/expressions/grouped&#45;expressions.ts</title>
<path fill="none" stroke="#c6c5fe" d="M1401.83,-377C1401.83,-377 1163.17,-377 1163.17,-377 1159.33,-377 1155.5,-373.17 1155.5,-369.33 1155.5,-369.33 1155.5,-361.67 1155.5,-361.67 1155.5,-357.83 1159.33,-354 1163.17,-354 1163.17,-354 1401.83,-354 1401.83,-354 1405.67,-354 1409.5,-357.83 1409.5,-361.67 1409.5,-361.67 1409.5,-369.33 1409.5,-369.33 1409.5,-373.17 1405.67,-377 1401.83,-377"/>
<text text-anchor="middle" x="1282.5" y="-361.8" font-family="Arial" font-size="14.00" fill="#c6c5fe">src/expressions/grouped&#45;expressions.ts</text>
</g>
<!-- src/app.ts&#45;&gt;src/expressions/grouped&#45;expressions.ts -->
<g id="edge2" class="edge">
<title>src/app.ts&#45;&gt;src/expressions/grouped&#45;expressions.ts</title>
<path fill="none" stroke="#757575" d="M1437.61,-534C1416.73,-534 1395,-534 1395,-534 1395,-534 1395,-387.08 1395,-387.08"/>
<polygon fill="#757575" stroke="#757575" points="1398.5,-387.08 1395,-377.08 1391.5,-387.08 1398.5,-387.08"/>
</g>
<!-- src/expressions/handlers.ts -->
<g id="node4" class="node">
<title>src/expressions/handlers.ts</title>
<path fill="none" stroke="#c6c5fe" d="M1470.83,-200C1470.83,-200 1306.17,-200 1306.17,-200 1302.33,-200 1298.5,-196.17 1298.5,-192.33 1298.5,-192.33 1298.5,-184.67 1298.5,-184.67 1298.5,-180.83 1302.33,-177 1306.17,-177 1306.17,-177 1470.83,-177 1470.83,-177 1474.67,-177 1478.5,-180.83 1478.5,-184.67 1478.5,-184.67 1478.5,-192.33 1478.5,-192.33 1478.5,-196.17 1474.67,-200 1470.83,-200"/>
<text text-anchor="middle" x="1388.5" y="-184.8" font-family="Arial" font-size="14.00" fill="#c6c5fe">src/expressions/handlers.ts</text>
</g>
<!-- src/app.ts&#45;&gt;src/expressions/handlers.ts -->
<g id="edge3" class="edge">
<title>src/app.ts&#45;&gt;src/expressions/handlers.ts</title>
<path fill="none" stroke="#757575" d="M1471,-530.92C1471,-487.66 1471,-338 1471,-338 1471,-338 1366,-338 1366,-338 1366,-338 1366,-210.23 1366,-210.23"/>
<polygon fill="#757575" stroke="#757575" points="1369.5,-210.23 1366,-200.23 1362.5,-210.23 1369.5,-210.23"/>
</g>
<!-- src/handlers/dereference&#45;assignment.ts -->
<g id="node5" class="node">
<title>src/handlers/dereference&#45;assignment.ts</title>
<path fill="none" stroke="#c6c5fe" d="M1787.83,-495C1787.83,-495 1549.17,-495 1549.17,-495 1545.33,-495 1541.5,-491.17 1541.5,-487.33 1541.5,-487.33 1541.5,-479.67 1541.5,-479.67 1541.5,-475.83 1545.33,-472 1549.17,-472 1549.17,-472 1787.83,-472 1787.83,-472 1791.67,-472 1795.5,-475.83 1795.5,-479.67 1795.5,-479.67 1795.5,-487.33 1795.5,-487.33 1795.5,-491.17 1791.67,-495 1787.83,-495"/>
<text text-anchor="middle" x="1668.5" y="-479.8" font-family="Arial" font-size="14.00" fill="#c6c5fe">src/handlers/dereference&#45;assignment.ts</text>
</g>
<!-- src/app.ts&#45;&gt;src/handlers/dereference&#45;assignment.ts -->
<g id="edge4" class="edge">
<title>src/app.ts&#45;&gt;src/handlers/dereference&#45;assignment.ts</title>
<path fill="none" stroke="#757575" d="M1510,-530.74C1510,-513.4 1510,-483 1510,-483 1510,-483 1531.31,-483 1531.31,-483"/>
<polygon fill="#757575" stroke="#757575" points="1531.31,-486.5 1541.31,-483 1531.31,-479.5 1531.31,-486.5"/>
</g>
<!-- src/handlers/lambda&#45;expressions.ts -->
<g id="node6" class="node">
<title>src/handlers/lambda&#45;expressions.ts</title>
<path fill="none" stroke="#c6c5fe" d="M492.83,-436C492.83,-436 278.17,-436 278.17,-436 274.33,-436 270.5,-432.17 270.5,-428.33 270.5,-428.33 270.5,-420.67 270.5,-420.67 270.5,-416.83 274.33,-413 278.17,-413 278.17,-413 492.83,-413 492.83,-413 496.67,-413 500.5,-416.83 500.5,-420.67 500.5,-420.67 500.5,-428.33 500.5,-428.33 500.5,-432.17 496.67,-436 492.83,-436"/>
<text text-anchor="middle" x="385.5" y="-420.8" font-family="Arial" font-size="14.00" fill="#c6c5fe">src/handlers/lambda&#45;expressions.ts</text>
</g>
<!-- src/app.ts&#45;&gt;src/handlers/lambda&#45;expressions.ts -->
<g id="edge5" class="edge">
<title>src/app.ts&#45;&gt;src/handlers/lambda&#45;expressions.ts</title>
<path fill="none" stroke="#757575" d="M1437.76,-546C1249.82,-546 423.83,-546 423.83,-546 423.83,-546 423.83,-446.15 423.83,-446.15"/>
<polygon fill="#757575" stroke="#757575" points="427.33,-446.15 423.83,-436.15 420.33,-446.15 427.33,-446.15"/>
</g>
<!-- src/handlers/pointer&#45;operations.ts -->
<g id="node7" class="node">
<title>src/handlers/pointer&#45;operations.ts</title>
<path fill="none" stroke="#c6c5fe" d="M1713.33,-436C1713.33,-436 1511.67,-436 1511.67,-436 1507.83,-436 1504,-432.17 1504,-428.33 1504,-428.33 1504,-420.67 1504,-420.67 1504,-416.83 1507.83,-413 1511.67,-413 1511.67,-413 1713.33,-413 1713.33,-413 1717.17,-413 1721,-416.83 1721,-420.67 1721,-420.67 1721,-428.33 1721,-428.33 1721,-432.17 1717.17,-436 1713.33,-436"/>
<text text-anchor="middle" x="1612.5" y="-420.8" font-family="Arial" font-size="14.00" fill="#c6c5fe">src/handlers/pointer&#45;operations.ts</text>
</g>
<!-- src/app.ts&#45;&gt;src/handlers/pointer&#45;operations.ts -->
<g id="edge6" class="edge">
<title>src/app.ts&#45;&gt;src/handlers/pointer&#45;operations.ts</title>
<path fill="none" stroke="#757575" d="M1507,-530.75C1507,-530.75 1507,-446.2 1507,-446.2"/>
<polygon fill="#757575" stroke="#757575" points="1510.5,-446.2 1507,-436.2 1503.5,-446.2 1510.5,-446.2"/>
</g>
<!-- src/loops/for.ts -->
<g id="node8" class="node">
<title>src/loops/for.ts</title>
<path fill="none" stroke="#c6c5fe" d="M2311.83,-495C2311.83,-495 2223.17,-495 2223.17,-495 2219.33,-495 2215.5,-491.17 2215.5,-487.33 2215.5,-487.33 2215.5,-479.67 2215.5,-479.67 2215.5,-475.83 2219.33,-472 2223.17,-472 2223.17,-472 2311.83,-472 2311.83,-472 2315.67,-472 2319.5,-475.83 2319.5,-479.67 2319.5,-479.67 2319.5,-487.33 2319.5,-487.33 2319.5,-491.17 2315.67,-495 2311.83,-495"/>
<text text-anchor="middle" x="2267.5" y="-479.8" font-family="Arial" font-size="14.00" fill="#c6c5fe">src/loops/for.ts</text>
</g>
<!-- src/app.ts&#45;&gt;src/loops/for.ts -->
<g id="edge7" class="edge">
<title>src/app.ts&#45;&gt;src/loops/for.ts</title>
<path fill="none" stroke="#757575" d="M1513.17,-546C1670.56,-546 2267.5,-546 2267.5,-546 2267.5,-546 2267.5,-505.26 2267.5,-505.26"/>
<polygon fill="#757575" stroke="#757575" points="2271,-505.26 2267.5,-495.26 2264,-505.26 2271,-505.26"/>
</g>
<!-- src/loops/loop.ts -->
<g id="node9" class="node">
<title>src/loops/loop.ts</title>
<path fill="none" stroke="#cfffac" d="M2456.83,-436C2456.83,-436 2358.17,-436 2358.17,-436 2354.33,-436 2350.5,-432.17 2350.5,-428.33 2350.5,-428.33 2350.5,-420.67 2350.5,-420.67 2350.5,-416.83 2354.33,-413 2358.17,-413 2358.17,-413 2456.83,-413 2456.83,-413 2460.67,-413 2464.5,-416.83 2464.5,-420.67 2464.5,-420.67 2464.5,-428.33 2464.5,-428.33 2464.5,-432.17 2460.67,-436 2456.83,-436"/>
<text text-anchor="middle" x="2407.5" y="-420.8" font-family="Arial" font-size="14.00" fill="#cfffac">src/loops/loop.ts</text>
</g>
<!-- src/app.ts&#45;&gt;src/loops/loop.ts -->
<g id="edge8" class="edge">
<title>src/app.ts&#45;&gt;src/loops/loop.ts</title>
<path fill="none" stroke="#757575" d="M1513.15,-550C1690.74,-550 2436,-550 2436,-550 2436,-550 2436,-446.08 2436,-446.08"/>
<polygon fill="#757575" stroke="#757575" points="2439.5,-446.08 2436,-436.08 2432.5,-446.08 2439.5,-446.08"/>
</g>
<!-- src/loops/while.ts -->
<g id="node10" class="node">
<title>src/loops/while.ts</title>
<path fill="none" stroke="#c6c5fe" d="M2182.33,-495C2182.33,-495 2078.67,-495 2078.67,-495 2074.83,-495 2071,-491.17 2071,-487.33 2071,-487.33 2071,-479.67 2071,-479.67 2071,-475.83 2074.83,-472 2078.67,-472 2078.67,-472 2182.33,-472 2182.33,-472 2186.17,-472 2190,-475.83 2190,-479.67 2190,-479.67 2190,-487.33 2190,-487.33 2190,-491.17 2186.17,-495 2182.33,-495"/>
<text text-anchor="middle" x="2130.5" y="-479.8" font-family="Arial" font-size="14.00" fill="#c6c5fe">src/loops/while.ts</text>
</g>
<!-- src/app.ts&#45;&gt;src/loops/while.ts -->
<g id="edge9" class="edge">
<title>src/app.ts&#45;&gt;src/loops/while.ts</title>
<path fill="none" stroke="#757575" d="M1513.07,-542C1652.25,-542 2130.5,-542 2130.5,-542 2130.5,-542 2130.5,-505.06 2130.5,-505.06"/>
<polygon fill="#757575" stroke="#757575" points="2134,-505.06 2130.5,-495.06 2127,-505.06 2134,-505.06"/>
</g>
<!-- src/match.ts -->
<g id="node11" class="node">
<title>src/match.ts</title>
<path fill="none" stroke="#cfffac" d="M1498.83,-318C1498.83,-318 1424.17,-318 1424.17,-318 1420.33,-318 1416.5,-314.17 1416.5,-310.33 1416.5,-310.33 1416.5,-302.67 1416.5,-302.67 1416.5,-298.83 1420.33,-295 1424.17,-295 1424.17,-295 1498.83,-295 1498.83,-295 1502.67,-295 1506.5,-298.83 1506.5,-302.67 1506.5,-302.67 1506.5,-310.33 1506.5,-310.33 1506.5,-314.17 1502.67,-318 1498.83,-318"/>
<text text-anchor="middle" x="1461.5" y="-302.8" font-family="Arial" font-size="14.00" fill="#cfffac">src/match.ts</text>
</g>
<!-- src/app.ts&#45;&gt;src/match.ts -->
<g id="edge10" class="edge">
<title>src/app.ts&#45;&gt;src/match.ts</title>
<path fill="none" stroke="#757575" d="M1487.5,-530.8C1487.5,-530.8 1487.5,-328.27 1487.5,-328.27"/>
<polygon fill="#757575" stroke="#757575" points="1491,-328.27 1487.5,-318.27 1484,-328.27 1491,-328.27"/>
</g>
<!-- src/parser.ts -->
<g id="node12" class="node">
<title>src/parser.ts</title>
<path fill="none" stroke="#c6c5fe" d="M2068.83,-82C2068.83,-82 1994.17,-82 1994.17,-82 1990.33,-82 1986.5,-78.17 1986.5,-74.33 1986.5,-74.33 1986.5,-66.67 1986.5,-66.67 1986.5,-62.83 1990.33,-59 1994.17,-59 1994.17,-59 2068.83,-59 2068.83,-59 2072.67,-59 2076.5,-62.83 2076.5,-66.67 2076.5,-66.67 2076.5,-74.33 2076.5,-74.33 2076.5,-78.17 2072.67,-82 2068.83,-82"/>
<text text-anchor="middle" x="2031.5" y="-66.8" font-family="Arial" font-size="14.00" fill="#c6c5fe">src/parser.ts</text>
</g>
<!-- src/app.ts&#45;&gt;src/parser.ts -->
<g id="edge11" class="edge">
<title>src/app.ts&#45;&gt;src/parser.ts</title>
<path fill="none" stroke="#757575" d="M1513.3,-538C1638.49,-538 2031.75,-538 2031.75,-538 2031.75,-538 2031.75,-92.06 2031.75,-92.06"/>
<polygon fill="#757575" stroke="#757575" points="2035.25,-92.06 2031.75,-82.06 2028.25,-92.06 2035.25,-92.06"/>
</g>
<!-- src/scope.ts -->
<g id="node13" class="node">
<title>src/scope.ts</title>
<path fill="none" stroke="#c6c5fe" d="M81.33,-495C81.33,-495 7.67,-495 7.67,-495 3.83,-495 0,-491.17 0,-487.33 0,-487.33 0,-479.67 0,-479.67 0,-475.83 3.83,-472 7.67,-472 7.67,-472 81.33,-472 81.33,-472 85.17,-472 89,-475.83 89,-479.67 89,-479.67 89,-487.33 89,-487.33 89,-491.17 85.17,-495 81.33,-495"/>
<text text-anchor="middle" x="44.5" y="-479.8" font-family="Arial" font-size="14.00" fill="#c6c5fe">src/scope.ts</text>
</g>
<!-- src/app.ts&#45;&gt;src/scope.ts -->
<g id="edge12" class="edge">
<title>src/app.ts&#45;&gt;src/scope.ts</title>
<path fill="none" stroke="#757575" d="M1437.96,-550C1212.18,-550 44.5,-550 44.5,-550 44.5,-550 44.5,-505.08 44.5,-505.08"/>
<polygon fill="#757575" stroke="#757575" points="48,-505.08 44.5,-495.08 41,-505.08 48,-505.08"/>
</g>
<!-- src/utils/app&#45;handlers.ts -->
<g id="node14" class="node">
<title>src/utils/app&#45;handlers.ts</title>
<path fill="none" stroke="#c6c5fe" d="M1092.33,-495C1092.33,-495 948.67,-495 948.67,-495 944.83,-495 941,-491.17 941,-487.33 941,-487.33 941,-479.67 941,-479.67 941,-475.83 944.83,-472 948.67,-472 948.67,-472 1092.33,-472 1092.33,-472 1096.17,-472 1100,-475.83 1100,-479.67 1100,-479.67 1100,-487.33 1100,-487.33 1100,-491.17 1096.17,-495 1092.33,-495"/>
<text text-anchor="middle" x="1020.5" y="-479.8" font-family="Arial" font-size="14.00" fill="#c6c5fe">src/utils/app&#45;handlers.ts</text>
</g>
<!-- src/app.ts&#45;&gt;src/utils/app&#45;handlers.ts -->
<g id="edge13" class="edge">
<title>src/app.ts&#45;&gt;src/utils/app&#45;handlers.ts</title>
<path fill="none" stroke="#757575" d="M1437.7,-538C1339.02,-538 1081.25,-538 1081.25,-538 1081.25,-538 1081.25,-505.06 1081.25,-505.06"/>
<polygon fill="#757575" stroke="#757575" points="1084.75,-505.06 1081.25,-495.06 1077.75,-505.06 1084.75,-505.06"/>
</g>
<!-- src/utils/array.ts -->
<g id="node15" class="node">
<title>src/utils/array.ts</title>
<path fill="none" stroke="#cfffac" d="M1276.83,-82C1276.83,-82 1182.17,-82 1182.17,-82 1178.33,-82 1174.5,-78.17 1174.5,-74.33 1174.5,-74.33 1174.5,-66.67 1174.5,-66.67 1174.5,-62.83 1178.33,-59 1182.17,-59 1182.17,-59 1276.83,-59 1276.83,-59 1280.67,-59 1284.5,-62.83 1284.5,-66.67 1284.5,-66.67 1284.5,-74.33 1284.5,-74.33 1284.5,-78.17 1280.67,-82 1276.83,-82"/>
<text text-anchor="middle" x="1229.5" y="-66.8" font-family="Arial" font-size="14.00" fill="#cfffac">src/utils/array.ts</text>
</g>
<!-- src/app.ts&#45;&gt;src/utils/array.ts -->
<g id="edge14" class="edge">
<title>src/app.ts&#45;&gt;src/utils/array.ts</title>
<path fill="none" stroke="#757575" d="M1454.5,-530.68C1454.5,-507.87 1454.5,-460 1454.5,-460 1454.5,-460 969.75,-460 969.75,-460 969.75,-460 969.75,-74 969.75,-74 969.75,-74 1164.41,-74 1164.41,-74"/>
<polygon fill="#757575" stroke="#757575" points="1164.41,-77.5 1174.41,-74 1164.41,-70.5 1164.41,-77.5"/>
</g>
<!-- src/utils/this&#45;keyword.ts -->
<g id="node16" class="node">
<title>src/utils/this&#45;keyword.ts</title>
<path fill="none" stroke="#c6c5fe" d="M742.83,-436C742.83,-436 602.17,-436 602.17,-436 598.33,-436 594.5,-432.17 594.5,-428.33 594.5,-428.33 594.5,-420.67 594.5,-420.67 594.5,-416.83 598.33,-413 602.17,-413 602.17,-413 742.83,-413 742.83,-413 746.67,-413 750.5,-416.83 750.5,-420.67 750.5,-420.67 750.5,-428.33 750.5,-428.33 750.5,-432.17 746.67,-436 742.83,-436"/>
<text text-anchor="middle" x="672.5" y="-420.8" font-family="Arial" font-size="14.00" fill="#c6c5fe">src/utils/this&#45;keyword.ts</text>
</g>
<!-- src/app.ts&#45;&gt;src/utils/this&#45;keyword.ts -->
<g id="edge15" class="edge">
<title>src/app.ts&#45;&gt;src/utils/this&#45;keyword.ts</title>
<path fill="none" stroke="#757575" d="M1437.85,-542C1279.09,-542 672.5,-542 672.5,-542 672.5,-542 672.5,-446.2 672.5,-446.2"/>
<polygon fill="#757575" stroke="#757575" points="676,-446.2 672.5,-436.2 669,-446.2 676,-446.2"/>
</g>
<!-- src/expressions/binary&#45;operation.ts&#45;&gt;src/expressions/handlers.ts -->
<g id="edge17" class="edge">
<title>src/expressions/binary&#45;operation.ts&#45;&gt;src/expressions/handlers.ts</title>
<path fill="none" stroke="#757575" d="M1997.83,-412.75C1997.83,-365.78 1997.83,-194 1997.83,-194 1997.83,-194 1488.74,-194 1488.74,-194"/>
<polygon fill="#757575" stroke="#757575" points="1488.74,-190.5 1478.74,-194 1488.74,-197.5 1488.74,-190.5"/>
</g>
<!-- src/expressions/binary&#45;operation.ts&#45;&gt;src/parser.ts -->
<g id="edge19" class="edge">
<title>src/expressions/binary&#45;operation.ts&#45;&gt;src/parser.ts</title>
<path fill="none" stroke="#757575" d="M2000.67,-412.72C2000.67,-412.72 2000.67,-92.32 2000.67,-92.32"/>
<polygon fill="#757575" stroke="#757575" points="2004.17,-92.32 2000.67,-82.32 1997.17,-92.32 2004.17,-92.32"/>
</g>
<!-- src/expressions/operators.ts -->
<g id="node18" class="node">
<title>src/expressions/operators.ts</title>
<path fill="none" stroke="#c6c5fe" d="M1987.33,-377C1987.33,-377 1817.67,-377 1817.67,-377 1813.83,-377 1810,-373.17 1810,-369.33 1810,-369.33 1810,-361.67 1810,-361.67 1810,-357.83 1813.83,-354 1817.67,-354 1817.67,-354 1987.33,-354 1987.33,-354 1991.17,-354 1995,-357.83 1995,-361.67 1995,-361.67 1995,-369.33 1995,-369.33 1995,-373.17 1991.17,-377 1987.33,-377"/>
<text text-anchor="middle" x="1902.5" y="-361.8" font-family="Arial" font-size="14.00" fill="#c6c5fe">src/expressions/operators.ts</text>
</g>
<!-- src/expressions/binary&#45;operation.ts&#45;&gt;src/expressions/operators.ts -->
<g id="edge18" class="edge">
<title>src/expressions/binary&#45;operation.ts&#45;&gt;src/expressions/operators.ts</title>
<path fill="none" stroke="#757575" d="M1902.5,-412.84C1902.5,-412.84 1902.5,-387.13 1902.5,-387.13"/>
<polygon fill="#757575" stroke="#757575" points="1906,-387.13 1902.5,-377.13 1899,-387.13 1906,-387.13"/>
</g>
<!-- src/expressions/grouped&#45;expressions.ts&#45;&gt;src/expressions/handlers.ts -->
<g id="edge20" class="edge">
<title>src/expressions/grouped&#45;expressions.ts&#45;&gt;src/expressions/handlers.ts</title>
<path fill="none" stroke="#757575" d="M1344.25,-353.89C1344.25,-353.89 1344.25,-210.39 1344.25,-210.39"/>
<polygon fill="#757575" stroke="#757575" points="1347.75,-210.39 1344.25,-200.39 1340.75,-210.39 1347.75,-210.39"/>
</g>
<!-- src/expressions/grouped&#45;expressions.ts&#45;&gt;src/match.ts -->
<g id="edge21" class="edge">
<title>src/expressions/grouped&#45;expressions.ts&#45;&gt;src/match.ts</title>
<path fill="none" stroke="#757575" d="M1409.5,-365C1420.32,-365 1427.25,-365 1427.25,-365 1427.25,-365 1427.25,-328.06 1427.25,-328.06"/>
<polygon fill="#757575" stroke="#757575" points="1430.75,-328.06 1427.25,-318.06 1423.75,-328.06 1430.75,-328.06"/>
</g>
<!-- src/expressions/grouped&#45;expressions.ts&#45;&gt;src/utils/array.ts -->
<g id="edge23" class="edge">
<title>src/expressions/grouped&#45;expressions.ts&#45;&gt;src/utils/array.ts</title>
<path fill="none" stroke="#757575" d="M1181,-353.91C1181,-328.68 1181,-271 1181,-271 1181,-271 1217,-271 1217,-271 1217,-271 1217,-92.15 1217,-92.15"/>
<polygon fill="#757575" stroke="#757575" points="1220.5,-92.15 1217,-82.15 1213.5,-92.15 1220.5,-92.15"/>
</g>
<!-- src/types/structs.ts -->
<g id="node19" class="node">
<title>src/types/structs.ts</title>
<path fill="none" stroke="#c6c5fe" d="M1314.83,-318C1314.83,-318 1202.17,-318 1202.17,-318 1198.33,-318 1194.5,-314.17 1194.5,-310.33 1194.5,-310.33 1194.5,-302.67 1194.5,-302.67 1194.5,-298.83 1198.33,-295 1202.17,-295 1202.17,-295 1314.83,-295 1314.83,-295 1318.67,-295 1322.5,-298.83 1322.5,-302.67 1322.5,-302.67 1322.5,-310.33 1322.5,-310.33 1322.5,-314.17 1318.67,-318 1314.83,-318"/>
<text text-anchor="middle" x="1258.5" y="-302.8" font-family="Arial" font-size="14.00" fill="#c6c5fe">src/types/structs.ts</text>
</g>
<!-- src/expressions/grouped&#45;expressions.ts&#45;&gt;src/types/structs.ts -->
<g id="edge22" class="edge">
<title>src/expressions/grouped&#45;expressions.ts&#45;&gt;src/types/structs.ts</title>
<path fill="none" stroke="#757575" d="M1271.3,-353.84C1271.3,-353.84 1271.3,-328.13 1271.3,-328.13"/>
<polygon fill="#757575" stroke="#757575" points="1274.8,-328.13 1271.3,-318.13 1267.8,-328.13 1274.8,-328.13"/>
</g>
<!-- src/utils/identifier&#45;utils.ts -->
<g id="node20" class="node">
<title>src/utils/identifier&#45;utils.ts</title>
<path fill="none" stroke="#cfffac" d="M660.83,-259C660.83,-259 516.17,-259 516.17,-259 512.33,-259 508.5,-255.17 508.5,-251.33 508.5,-251.33 508.5,-243.67 508.5,-243.67 508.5,-239.83 512.33,-236 516.17,-236 516.17,-236 660.83,-236 660.83,-236 664.67,-236 668.5,-239.83 668.5,-243.67 668.5,-243.67 668.5,-251.33 668.5,-251.33 668.5,-255.17 664.67,-259 660.83,-259"/>
<text text-anchor="middle" x="588.5" y="-243.8" font-family="Arial" font-size="14.00" fill="#cfffac">src/utils/identifier&#45;utils.ts</text>
</g>
<!-- src/expressions/grouped&#45;expressions.ts&#45;&gt;src/utils/identifier&#45;utils.ts -->
<g id="edge24" class="edge">
<title>src/expressions/grouped&#45;expressions.ts&#45;&gt;src/utils/identifier&#45;utils.ts</title>
<path fill="none" stroke="#757575" d="M1155.27,-363C970.56,-363 650,-363 650,-363 650,-363 650,-269.43 650,-269.43"/>
<polygon fill="#757575" stroke="#757575" points="653.5,-269.43 650,-259.43 646.5,-269.43 653.5,-269.43"/>
</g>
<!-- src/handlers/assignment.ts -->
<g id="node21" class="node">
<title>src/handlers/assignment.ts</title>
<path fill="none" stroke="#c6c5fe" d="M1479.83,-141C1479.83,-141 1317.17,-141 1317.17,-141 1313.33,-141 1309.5,-137.17 1309.5,-133.33 1309.5,-133.33 1309.5,-125.67 1309.5,-125.67 1309.5,-121.83 1313.33,-118 1317.17,-118 1317.17,-118 1479.83,-118 1479.83,-118 1483.67,-118 1487.5,-121.83 1487.5,-125.67 1487.5,-125.67 1487.5,-133.33 1487.5,-133.33 1487.5,-137.17 1483.67,-141 1479.83,-141"/>
<text text-anchor="middle" x="1398.5" y="-125.8" font-family="Arial" font-size="14.00" fill="#c6c5fe">src/handlers/assignment.ts</text>
</g>
<!-- src/expressions/handlers.ts&#45;&gt;src/handlers/assignment.ts -->
<g id="edge25" class="edge">
<title>src/expressions/handlers.ts&#45;&gt;src/handlers/assignment.ts</title>
<path fill="none" stroke="#757575" d="M1394,-176.84C1394,-176.84 1394,-151.13 1394,-151.13"/>
<polygon fill="#757575" stroke="#757575" points="1397.5,-151.13 1394,-141.13 1390.5,-151.13 1397.5,-151.13"/>
</g>
<!-- src/types/interpreter.ts -->
<g id="node22" class="node">
<title>src/types/interpreter.ts</title>
<path fill="none" stroke="#cfffac" d="M1542.33,-82C1542.33,-82 1408.67,-82 1408.67,-82 1404.83,-82 1401,-78.17 1401,-74.33 1401,-74.33 1401,-66.67 1401,-66.67 1401,-62.83 1404.83,-59 1408.67,-59 1408.67,-59 1542.33,-59 1542.33,-59 1546.17,-59 1550,-62.83 1550,-66.67 1550,-66.67 1550,-74.33 1550,-74.33 1550,-78.17 1546.17,-82 1542.33,-82"/>
<text text-anchor="middle" x="1475.5" y="-66.8" font-family="Arial" font-size="14.00" fill="#cfffac">src/types/interpreter.ts</text>
</g>
<!-- src/expressions/handlers.ts&#45;&gt;src/types/interpreter.ts -->
<g id="edge26" class="edge">
<title>src/expressions/handlers.ts&#45;&gt;src/types/interpreter.ts</title>
<path fill="none" stroke="#757575" d="M1478.59,-182C1489.57,-182 1497,-182 1497,-182 1497,-182 1497,-92.01 1497,-92.01"/>
<polygon fill="#757575" stroke="#757575" points="1500.5,-92.01 1497,-82.01 1493.5,-92.01 1500.5,-92.01"/>
</g>
<!-- src/utils/scope&#45;helpers.ts -->
<g id="node23" class="node">
<title>src/utils/scope&#45;helpers.ts</title>
<path fill="none" stroke="#c6c5fe" d="M1134.33,-141C1134.33,-141 984.67,-141 984.67,-141 980.83,-141 977,-137.17 977,-133.33 977,-133.33 977,-125.67 977,-125.67 977,-121.83 980.83,-118 984.67,-118 984.67,-118 1134.33,-118 1134.33,-118 1138.17,-118 1142,-121.83 1142,-125.67 1142,-125.67 1142,-133.33 1142,-133.33 1142,-137.17 1138.17,-141 1134.33,-141"/>
<text text-anchor="middle" x="1059.5" y="-125.8" font-family="Arial" font-size="14.00" fill="#c6c5fe">src/utils/scope&#45;helpers.ts</text>
</g>
<!-- src/expressions/handlers.ts&#45;&gt;src/utils/scope&#45;helpers.ts -->
<g id="edge27" class="edge">
<title>src/expressions/handlers.ts&#45;&gt;src/utils/scope&#45;helpers.ts</title>
<path fill="none" stroke="#757575" d="M1304,-176.89C1304,-161.16 1304,-135 1304,-135 1304,-135 1152.28,-135 1152.28,-135"/>
<polygon fill="#757575" stroke="#757575" points="1152.28,-131.5 1142.28,-135 1152.28,-138.5 1152.28,-131.5"/>
</g>
<!-- src/handlers/dereference&#45;assignment.ts&#45;&gt;src/expressions/handlers.ts -->
<g id="edge46" class="edge">
<title>src/handlers/dereference&#45;assignment.ts&#45;&gt;src/expressions/handlers.ts</title>
<path fill="none" stroke="#757575" d="M1749.25,-471.69C1749.25,-436.21 1749.25,-333 1749.25,-333 1749.25,-333 1387.75,-333 1387.75,-333 1387.75,-333 1387.75,-210.33 1387.75,-210.33"/>
<polygon fill="#757575" stroke="#757575" points="1391.25,-210.33 1387.75,-200.33 1384.25,-210.33 1391.25,-210.33"/>
</g>
<!-- src/handlers/dereference&#45;assignment.ts&#45;&gt;src/handlers/pointer&#45;operations.ts -->
<g id="edge47" class="edge">
<title>src/handlers/dereference&#45;assignment.ts&#45;&gt;src/handlers/pointer&#45;operations.ts</title>
<path fill="none" stroke="#757575" d="M1631.25,-471.84C1631.25,-471.84 1631.25,-446.13 1631.25,-446.13"/>
<polygon fill="#757575" stroke="#757575" points="1634.75,-446.13 1631.25,-436.13 1627.75,-446.13 1634.75,-446.13"/>
</g>
<!-- src/functions.ts -->
<g id="node28" class="node">
<title>src/functions.ts</title>
<path fill="none" stroke="#c6c5fe" d="M574.33,-377C574.33,-377 482.67,-377 482.67,-377 478.83,-377 475,-373.17 475,-369.33 475,-369.33 475,-361.67 475,-361.67 475,-357.83 478.83,-354 482.67,-354 482.67,-354 574.33,-354 574.33,-354 578.17,-354 582,-357.83 582,-361.67 582,-361.67 582,-369.33 582,-369.33 582,-373.17 578.17,-377 574.33,-377"/>
<text text-anchor="middle" x="528.5" y="-361.8" font-family="Arial" font-size="14.00" fill="#c6c5fe">src/functions.ts</text>
</g>
<!-- src/handlers/lambda&#45;expressions.ts&#45;&gt;src/functions.ts -->
<g id="edge52" class="edge">
<title>src/handlers/lambda&#45;expressions.ts&#45;&gt;src/functions.ts</title>
<path fill="none" stroke="#757575" d="M487.75,-412.84C487.75,-412.84 487.75,-387.13 487.75,-387.13"/>
<polygon fill="#757575" stroke="#757575" points="491.25,-387.13 487.75,-377.13 484.25,-387.13 491.25,-387.13"/>
</g>
<!-- src/handlers/anonymous&#45;functions.ts -->
<g id="node29" class="node">
<title>src/handlers/anonymous&#45;functions.ts</title>
<path fill="none" stroke="#c6c5fe" d="M302.33,-318C302.33,-318 80.67,-318 80.67,-318 76.83,-318 73,-314.17 73,-310.33 73,-310.33 73,-302.67 73,-302.67 73,-298.83 76.83,-295 80.67,-295 80.67,-295 302.33,-295 302.33,-295 306.17,-295 310,-298.83 310,-302.67 310,-302.67 310,-310.33 310,-310.33 310,-314.17 306.17,-318 302.33,-318"/>
<text text-anchor="middle" x="191.5" y="-302.8" font-family="Arial" font-size="14.00" fill="#c6c5fe">src/handlers/anonymous&#45;functions.ts</text>
</g>
<!-- src/handlers/lambda&#45;expressions.ts&#45;&gt;src/handlers/anonymous&#45;functions.ts -->
<g id="edge53" class="edge">
<title>src/handlers/lambda&#45;expressions.ts&#45;&gt;src/handlers/anonymous&#45;functions.ts</title>
<path fill="none" stroke="#757575" d="M283.67,-412.75C283.67,-412.75 283.67,-328.2 283.67,-328.2"/>
<polygon fill="#757575" stroke="#757575" points="287.17,-328.2 283.67,-318.2 280.17,-328.2 287.17,-328.2"/>
</g>
<!-- src/handlers/pointer&#45;operations.ts&#45;&gt;src/utils/identifier&#45;utils.ts -->
<g id="edge57" class="edge">
<title>src/handlers/pointer&#45;operations.ts&#45;&gt;src/utils/identifier&#45;utils.ts</title>
<path fill="none" stroke="#757575" d="M1503.94,-424C1323.39,-424 981,-424 981,-424 981,-424 981,-247 981,-247 981,-247 678.88,-247 678.88,-247"/>
<polygon fill="#757575" stroke="#757575" points="678.88,-243.5 668.88,-247 678.88,-250.5 678.88,-243.5"/>
</g>
<!-- src/loops/for.ts&#45;&gt;src/loops/loop.ts -->
<g id="edge59" class="edge">
<title>src/loops/for.ts&#45;&gt;src/loops/loop.ts</title>
<path fill="none" stroke="#757575" d="M2319.63,-483C2359.43,-483 2407.5,-483 2407.5,-483 2407.5,-483 2407.5,-446.06 2407.5,-446.06"/>
<polygon fill="#757575" stroke="#757575" points="2411,-446.06 2407.5,-436.06 2404,-446.06 2411,-446.06"/>
</g>
<!-- src/loops/helpers.ts -->
<g id="node34" class="node">
<title>src/loops/helpers.ts</title>
<path fill="none" stroke="#cfffac" d="M2185.33,-436C2185.33,-436 2067.67,-436 2067.67,-436 2063.83,-436 2060,-432.17 2060,-428.33 2060,-428.33 2060,-420.67 2060,-420.67 2060,-416.83 2063.83,-413 2067.67,-413 2067.67,-413 2185.33,-413 2185.33,-413 2189.17,-413 2193,-416.83 2193,-420.67 2193,-420.67 2193,-428.33 2193,-428.33 2193,-432.17 2189.17,-436 2185.33,-436"/>
<text text-anchor="middle" x="2126.5" y="-420.8" font-family="Arial" font-size="14.00" fill="#cfffac">src/loops/helpers.ts</text>
</g>
<!-- src/loops/for.ts&#45;&gt;src/loops/helpers.ts -->
<g id="edge58" class="edge">
<title>src/loops/for.ts&#45;&gt;src/loops/helpers.ts</title>
<path fill="none" stroke="#757575" d="M2215.32,-479C2209.15,-479 2205,-479 2205,-479 2205,-479 2205,-428 2205,-428 2205,-428 2203.08,-428 2203.08,-428"/>
<polygon fill="#757575" stroke="#757575" points="2203.08,-424.5 2193.08,-428 2203.08,-431.5 2203.08,-424.5"/>
</g>
<!-- src/loops/types.ts -->
<g id="node35" class="node">
<title>src/loops/types.ts</title>
<path fill="none" stroke="#c6c5fe" d="M2324.33,-436C2324.33,-436 2218.67,-436 2218.67,-436 2214.83,-436 2211,-432.17 2211,-428.33 2211,-428.33 2211,-420.67 2211,-420.67 2211,-416.83 2214.83,-413 2218.67,-413 2218.67,-413 2324.33,-413 2324.33,-413 2328.17,-413 2332,-416.83 2332,-420.67 2332,-420.67 2332,-428.33 2332,-428.33 2332,-432.17 2328.17,-436 2324.33,-436"/>
<text text-anchor="middle" x="2271.5" y="-420.8" font-family="Arial" font-size="14.00" fill="#c6c5fe">src/loops/types.ts</text>
</g>
<!-- src/loops/for.ts&#45;&gt;src/loops/types.ts -->
<g id="edge60" class="edge">
<title>src/loops/for.ts&#45;&gt;src/loops/types.ts</title>
<path fill="none" stroke="#757575" d="M2267.5,-471.84C2267.5,-471.84 2267.5,-446.13 2267.5,-446.13"/>
<polygon fill="#757575" stroke="#757575" points="2271,-446.13 2267.5,-436.13 2264,-446.13 2271,-446.13"/>
</g>
<!-- src/loops/while.ts&#45;&gt;src/loops/loop.ts -->
<g id="edge63" class="edge">
<title>src/loops/while.ts&#45;&gt;src/loops/loop.ts</title>
<path fill="none" stroke="#757575" d="M2150.33,-471.88C2150.33,-461.52 2150.33,-448 2150.33,-448 2150.33,-448 2379,-448 2379,-448 2379,-448 2379,-446.25 2379,-446.25"/>
<polygon fill="#757575" stroke="#757575" points="2382.5,-446.25 2379,-436.25 2375.5,-446.25 2382.5,-446.25"/>
</g>
<!-- src/loops/while.ts&#45;&gt;src/loops/helpers.ts -->
<g id="edge62" class="edge">
<title>src/loops/while.ts&#45;&gt;src/loops/helpers.ts</title>
<path fill="none" stroke="#757575" d="M2110.67,-471.84C2110.67,-471.84 2110.67,-446.13 2110.67,-446.13"/>
<polygon fill="#757575" stroke="#757575" points="2114.17,-446.13 2110.67,-436.13 2107.17,-446.13 2114.17,-446.13"/>
</g>
<!-- src/loops/while.ts&#45;&gt;src/loops/types.ts -->
<g id="edge64" class="edge">
<title>src/loops/while.ts&#45;&gt;src/loops/types.ts</title>
<path fill="none" stroke="#757575" d="M2190.04,-487C2195.48,-487 2199,-487 2199,-487 2199,-487 2199,-420 2199,-420 2199,-420 2200.97,-420 2200.97,-420"/>
<polygon fill="#757575" stroke="#757575" points="2200.97,-423.5 2210.97,-420 2200.97,-416.5 2200.97,-423.5"/>
</g>
<!-- src/type&#45;utils.ts -->
<g id="node26" class="node">
<title>src/type&#45;utils.ts</title>
<path fill="none" stroke="#cfffac" d="M720.33,-23C720.33,-23 628.67,-23 628.67,-23 624.83,-23 621,-19.17 621,-15.33 621,-15.33 621,-7.67 621,-7.67 621,-3.83 624.83,0 628.67,0 628.67,0 720.33,0 720.33,0 724.17,0 728,-3.83 728,-7.67 728,-7.67 728,-15.33 728,-15.33 728,-19.17 724.17,-23 720.33,-23"/>
<text text-anchor="middle" x="674.5" y="-7.8" font-family="Arial" font-size="14.00" fill="#cfffac">src/type&#45;utils.ts</text>
</g>
<!-- src/parser.ts&#45;&gt;src/type&#45;utils.ts -->
<g id="edge65" class="edge">
<title>src/parser.ts&#45;&gt;src/type&#45;utils.ts</title>
<path fill="none" stroke="#757575" d="M2031.5,-58.79C2031.5,-39.95 2031.5,-5 2031.5,-5 2031.5,-5 738.11,-5 738.11,-5"/>
<polygon fill="#757575" stroke="#757575" points="738.11,-1.5 728.11,-5 738.11,-8.5 738.11,-1.5"/>
</g>
<!-- src/scope.ts&#45;&gt;src/expressions/handlers.ts -->
<g id="edge66" class="edge">
<title>src/scope.ts&#45;&gt;src/expressions/handlers.ts</title>
<path fill="none" stroke="#757575" d="M31.29,-471.64C31.29,-415.71 31.29,-181 31.29,-181 31.29,-181 1288.4,-181 1288.4,-181"/>
<polygon fill="#757575" stroke="#757575" points="1288.4,-184.5 1298.4,-181 1288.4,-177.5 1288.4,-184.5"/>
</g>
<!-- src/scope.ts&#45;&gt;src/handlers/lambda&#45;expressions.ts -->
<g id="edge69" class="edge">
<title>src/scope.ts&#45;&gt;src/handlers/lambda&#45;expressions.ts</title>
<path fill="none" stroke="#757575" d="M89.16,-483C173.35,-483 347.17,-483 347.17,-483 347.17,-483 347.17,-446.06 347.17,-446.06"/>
<polygon fill="#757575" stroke="#757575" points="350.67,-446.06 347.17,-436.06 343.67,-446.06 350.67,-446.06"/>
</g>
<!-- src/scope.ts&#45;&gt;src/parser.ts -->
<g id="edge70" class="edge">
<title>src/scope.ts&#45;&gt;src/parser.ts</title>
<path fill="none" stroke="#757575" d="M52.14,-471.95C52.14,-439.18 52.14,-348 52.14,-348 52.14,-348 1990.75,-348 1990.75,-348 1990.75,-348 1990.75,-92.07 1990.75,-92.07"/>
<polygon fill="#757575" stroke="#757575" points="1994.25,-92.07 1990.75,-82.07 1987.25,-92.07 1994.25,-92.07"/>
</g>
<!-- src/scope.ts&#45;&gt;src/utils/array.ts -->
<g id="edge71" class="edge">
<title>src/scope.ts&#45;&gt;src/utils/array.ts</title>
<path fill="none" stroke="#757575" d="M41.71,-471.75C41.71,-420.37 41.71,-218 41.71,-218 41.71,-218 1182.75,-218 1182.75,-218 1182.75,-218 1182.75,-92.07 1182.75,-92.07"/>
<polygon fill="#757575" stroke="#757575" points="1186.25,-92.07 1182.75,-82.07 1179.25,-92.07 1186.25,-92.07"/>
</g>
<!-- src/scope.ts&#45;&gt;src/utils/scope&#45;helpers.ts -->
<g id="edge73" class="edge">
<title>src/scope.ts&#45;&gt;src/utils/scope&#45;helpers.ts</title>
<path fill="none" stroke="#757575" d="M20.86,-471.9C20.86,-411.43 20.86,-135 20.86,-135 20.86,-135 966.7,-135 966.7,-135"/>
<polygon fill="#757575" stroke="#757575" points="966.7,-138.5 976.7,-135 966.7,-131.5 966.7,-138.5"/>
</g>
<!-- src/function&#45;type&#45;handler.ts -->
<g id="node27" class="node">
<title>src/function&#45;type&#45;handler.ts</title>
<path fill="none" stroke="#c6c5fe" d="M244.33,-436C244.33,-436 80.67,-436 80.67,-436 76.83,-436 73,-432.17 73,-428.33 73,-428.33 73,-420.67 73,-420.67 73,-416.83 76.83,-413 80.67,-413 80.67,-413 244.33,-413 244.33,-413 248.17,-413 252,-416.83 252,-420.67 252,-420.67 252,-428.33 252,-428.33 252,-432.17 248.17,-436 244.33,-436"/>
<text text-anchor="middle" x="162.5" y="-420.8" font-family="Arial" font-size="14.00" fill="#c6c5fe">src/function&#45;type&#45;handler.ts</text>
</g>
<!-- src/scope.ts&#45;&gt;src/function&#45;type&#45;handler.ts -->
<g id="edge67" class="edge">
<title>src/scope.ts&#45;&gt;src/function&#45;type&#45;handler.ts</title>
<path fill="none" stroke="#757575" d="M81,-471.84C81,-471.84 81,-446.13 81,-446.13"/>
<polygon fill="#757575" stroke="#757575" points="84.5,-446.13 81,-436.13 77.5,-446.13 84.5,-446.13"/>
</g>
<!-- src/scope.ts&#45;&gt;src/functions.ts -->
<g id="edge68" class="edge">
<title>src/scope.ts&#45;&gt;src/functions.ts</title>
<path fill="none" stroke="#757575" d="M62.57,-471.9C62.57,-442.44 62.57,-367 62.57,-367 62.57,-367 464.6,-367 464.6,-367"/>
<polygon fill="#757575" stroke="#757575" points="464.6,-370.5 474.6,-367 464.6,-363.5 464.6,-370.5"/>
</g>
<!-- src/utils/function&#45;utils.ts -->
<g id="node32" class="node">
<title>src/utils/function&#45;utils.ts</title>
<path fill="none" stroke="#c6c5fe" d="M425.83,-82C425.83,-82 285.17,-82 285.17,-82 281.33,-82 277.5,-78.17 277.5,-74.33 277.5,-74.33 277.5,-66.67 277.5,-66.67 277.5,-62.83 281.33,-59 285.17,-59 285.17,-59 425.83,-59 425.83,-59 429.67,-59 433.5,-62.83 433.5,-66.67 433.5,-66.67 433.5,-74.33 433.5,-74.33 433.5,-78.17 429.67,-82 425.83,-82"/>
<text text-anchor="middle" x="355.5" y="-66.8" font-family="Arial" font-size="14.00" fill="#c6c5fe">src/utils/function&#45;utils.ts</text>
</g>
<!-- src/scope.ts&#45;&gt;src/utils/function&#45;utils.ts -->
<g id="edge72" class="edge">
<title>src/scope.ts&#45;&gt;src/utils/function&#45;utils.ts</title>
<path fill="none" stroke="#757575" d="M10.43,-471.57C10.43,-403.77 10.43,-70 10.43,-70 10.43,-70 267.2,-70 267.2,-70"/>
<polygon fill="#757575" stroke="#757575" points="267.2,-73.5 277.2,-70 267.2,-66.5 267.2,-73.5"/>
</g>
<!-- src/utils/app&#45;handlers.ts&#45;&gt;src/types/structs.ts -->
<g id="edge80" class="edge">
<title>src/utils/app&#45;handlers.ts&#45;&gt;src/types/structs.ts</title>
<path fill="none" stroke="#757575" d="M1061.67,-471.81C1061.67,-435.65 1061.67,-328 1061.67,-328 1061.67,-328 1245.7,-328 1245.7,-328 1245.7,-328 1245.7,-327 1245.7,-327"/>
<polygon fill="#757575" stroke="#757575" points="1249.2,-328.01 1245.7,-318.01 1242.2,-328.01 1249.2,-328.01"/>
</g>
<!-- src/utils/app&#45;handlers.ts&#45;&gt;src/functions.ts -->
<g id="edge78" class="edge">
<title>src/utils/app&#45;handlers.ts&#45;&gt;src/functions.ts</title>
<path fill="none" stroke="#757575" d="M955.25,-471.9C955.25,-442.44 955.25,-367 955.25,-367 955.25,-367 592.12,-367 592.12,-367"/>
<polygon fill="#757575" stroke="#757575" points="592.12,-363.5 582.12,-367 592.12,-370.5 592.12,-363.5"/>
</g>
<!-- src/utils/function&#45;call&#45;params.ts -->
<g id="node31" class="node">
<title>src/utils/function&#45;call&#45;params.ts</title>
<path fill="none" stroke="#c6c5fe" d="M920.33,-318C920.33,-318 732.67,-318 732.67,-318 728.83,-318 725,-314.17 725,-310.33 725,-310.33 725,-302.67 725,-302.67 725,-298.83 728.83,-295 732.67,-295 732.67,-295 920.33,-295 920.33,-295 924.17,-295 928,-298.83 928,-302.67 928,-302.67 928,-310.33 928,-310.33 928,-314.17 924.17,-318 920.33,-318"/>
<text text-anchor="middle" x="826.5" y="-302.8" font-family="Arial" font-size="14.00" fill="#c6c5fe">src/utils/function&#45;call&#45;params.ts</text>
</g>
<!-- src/utils/app&#45;handlers.ts&#45;&gt;src/utils/function&#45;call&#45;params.ts -->
<g id="edge82" class="edge">
<title>src/utils/app&#45;handlers.ts&#45;&gt;src/utils/function&#45;call&#45;params.ts</title>
<path fill="none" stroke="#757575" d="M962.5,-471.85C962.5,-432.95 962.5,-310 962.5,-310 962.5,-310 938.18,-310 938.18,-310"/>
<polygon fill="#757575" stroke="#757575" points="938.18,-306.5 928.18,-310 938.18,-313.5 938.18,-306.5"/>
</g>
<!-- src/handlers/method&#45;call.ts -->
<g id="node33" class="node">
<title>src/handlers/method&#45;call.ts</title>
<path fill="none" stroke="#c6c5fe" d="M940.33,-436C940.33,-436 776.67,-436 776.67,-436 772.83,-436 769,-432.17 769,-428.33 769,-428.33 769,-420.67 769,-420.67 769,-416.83 772.83,-413 776.67,-413 776.67,-413 940.33,-413 940.33,-413 944.17,-413 948,-416.83 948,-420.67 948,-420.67 948,-428.33 948,-428.33 948,-432.17 944.17,-436 940.33,-436"/>
<text text-anchor="middle" x="858.5" y="-420.8" font-family="Arial" font-size="14.00" fill="#c6c5fe">src/handlers/method&#45;call.ts</text>
</g>
<!-- src/utils/app&#45;handlers.ts&#45;&gt;src/handlers/method&#45;call.ts -->
<g id="edge79" class="edge">
<title>src/utils/app&#45;handlers.ts&#45;&gt;src/handlers/method&#45;call.ts</title>
<path fill="none" stroke="#757575" d="M944.5,-471.84C944.5,-471.84 944.5,-446.13 944.5,-446.13"/>
<polygon fill="#757575" stroke="#757575" points="948,-446.13 944.5,-436.13 941,-446.13 948,-446.13"/>
</g>
<!-- src/types/type&#45;declarations.ts -->
<g id="node36" class="node">
<title>src/types/type&#45;declarations.ts</title>
<path fill="none" stroke="#c6c5fe" d="M1168.33,-318C1168.33,-318 992.67,-318 992.67,-318 988.83,-318 985,-314.17 985,-310.33 985,-310.33 985,-302.67 985,-302.67 985,-298.83 988.83,-295 992.67,-295 992.67,-295 1168.33,-295 1168.33,-295 1172.17,-295 1176,-298.83 1176,-302.67 1176,-302.67 1176,-310.33 1176,-310.33 1176,-314.17 1172.17,-318 1168.33,-318"/>
<text text-anchor="middle" x="1080.5" y="-302.8" font-family="Arial" font-size="14.00" fill="#c6c5fe">src/types/type&#45;declarations.ts</text>
</g>
<!-- src/utils/app&#45;handlers.ts&#45;&gt;src/types/type&#45;declarations.ts -->
<g id="edge81" class="edge">
<title>src/utils/app&#45;handlers.ts&#45;&gt;src/types/type&#45;declarations.ts</title>
<path fill="none" stroke="#757575" d="M1023.33,-471.89C1023.33,-471.89 1023.33,-328.39 1023.33,-328.39"/>
<polygon fill="#757575" stroke="#757575" points="1026.83,-328.39 1023.33,-318.39 1019.83,-328.39 1026.83,-328.39"/>
</g>
<!-- src/utils/this&#45;keyword.ts&#45;&gt;src/types/structs.ts -->
<g id="edge91" class="edge">
<title>src/utils/this&#45;keyword.ts&#45;&gt;src/types/structs.ts</title>
<path fill="none" stroke="#757575" d="M742,-412.86C742,-386.2 742,-323 742,-323 742,-323 1220.1,-323 1220.1,-323 1220.1,-323 1220.1,-322.51 1220.1,-322.51"/>
<polygon fill="#757575" stroke="#757575" points="1223.6,-328.14 1220.1,-318.14 1216.6,-328.14 1223.6,-328.14"/>
</g>
<!-- src/utils/this&#45;keyword.ts&#45;&gt;src/functions.ts -->
<g id="edge90" class="edge">
<title>src/utils/this&#45;keyword.ts&#45;&gt;src/functions.ts</title>
<path fill="none" stroke="#757575" d="M613,-412.81C613,-397.62 613,-373 613,-373 613,-373 592.02,-373 592.02,-373"/>
<polygon fill="#757575" stroke="#757575" points="592.02,-369.5 582.02,-373 592.02,-376.5 592.02,-369.5"/>
</g>
<!-- src/declarations.ts -->
<g id="node17" class="node">
<title>src/declarations.ts</title>
<path fill="none" stroke="#c6c5fe" d="M1183.33,-259C1183.33,-259 1073.67,-259 1073.67,-259 1069.83,-259 1066,-255.17 1066,-251.33 1066,-251.33 1066,-243.67 1066,-243.67 1066,-239.83 1069.83,-236 1073.67,-236 1073.67,-236 1183.33,-236 1183.33,-236 1187.17,-236 1191,-239.83 1191,-243.67 1191,-243.67 1191,-251.33 1191,-251.33 1191,-255.17 1187.17,-259 1183.33,-259"/>
<text text-anchor="middle" x="1128.5" y="-243.8" font-family="Arial" font-size="14.00" fill="#c6c5fe">src/declarations.ts</text>
</g>
<!-- src/declarations.ts&#45;&gt;src/expressions/handlers.ts -->
<g id="edge16" class="edge">
<title>src/declarations.ts&#45;&gt;src/expressions/handlers.ts</title>
<path fill="none" stroke="#757575" d="M1186.88,-235.85C1186.88,-220.38 1186.88,-195 1186.88,-195 1186.88,-195 1288.3,-195 1288.3,-195"/>
<polygon fill="#757575" stroke="#757575" points="1288.3,-198.5 1298.3,-195 1288.3,-191.5 1288.3,-198.5"/>
</g>
<!-- src/expressions/operators.ts&#45;&gt;src/parser.ts -->
<g id="edge30" class="edge">
<title>src/expressions/operators.ts&#45;&gt;src/parser.ts</title>
<path fill="none" stroke="#757575" d="M1992.88,-353.94C1992.88,-353.94 1992.88,-92.3 1992.88,-92.3"/>
<polygon fill="#757575" stroke="#757575" points="1996.38,-92.3 1992.88,-82.3 1989.38,-92.31 1996.38,-92.3"/>
</g>
<!-- src/expressions/operators.ts&#45;&gt;src/utils/array.ts -->
<g id="edge33" class="edge">
<title>src/expressions/operators.ts&#45;&gt;src/utils/array.ts</title>
<path fill="none" stroke="#757575" d="M1923.83,-353.68C1923.83,-330.87 1923.83,-283 1923.83,-283 1923.83,-283 1239.5,-283 1239.5,-283 1239.5,-283 1239.5,-92.23 1239.5,-92.23"/>
<polygon fill="#757575" stroke="#757575" points="1243,-92.23 1239.5,-82.23 1236,-92.23 1243,-92.23"/>
</g>
<!-- src/expressions/operators.ts&#45;&gt;src/types/structs.ts -->
<g id="edge32" class="edge">
<title>src/expressions/operators.ts&#45;&gt;src/types/structs.ts</title>
<path fill="none" stroke="#757575" d="M1837.5,-353.99C1837.5,-348.45 1837.5,-343 1837.5,-343 1837.5,-343 1296.9,-343 1296.9,-343 1296.9,-343 1296.9,-328.05 1296.9,-328.05"/>
<polygon fill="#757575" stroke="#757575" points="1300.4,-328.05 1296.9,-318.05 1293.4,-328.05 1300.4,-328.05"/>
</g>
<!-- src/expressions/operator&#45;finder.ts -->
<g id="node24" class="node">
<title>src/expressions/operator&#45;finder.ts</title>
<path fill="none" stroke="#c6c5fe" d="M1884.83,-318C1884.83,-318 1684.17,-318 1684.17,-318 1680.33,-318 1676.5,-314.17 1676.5,-310.33 1676.5,-310.33 1676.5,-302.67 1676.5,-302.67 1676.5,-298.83 1680.33,-295 1684.17,-295 1684.17,-295 1884.83,-295 1884.83,-295 1888.67,-295 1892.5,-298.83 1892.5,-302.67 1892.5,-302.67 1892.5,-310.33 1892.5,-310.33 1892.5,-314.17 1888.67,-318 1884.83,-318"/>
<text text-anchor="middle" x="1784.5" y="-302.8" font-family="Arial" font-size="14.00" fill="#c6c5fe">src/expressions/operator&#45;finder.ts</text>
</g>
<!-- src/expressions/operators.ts&#45;&gt;src/expressions/operator&#45;finder.ts -->
<g id="edge29" class="edge">
<title>src/expressions/operators.ts&#45;&gt;src/expressions/operator&#45;finder.ts</title>
<path fill="none" stroke="#757575" d="M1865,-353.84C1865,-353.84 1865,-328.13 1865,-328.13"/>
<polygon fill="#757575" stroke="#757575" points="1868.5,-328.13 1865,-318.13 1861.5,-328.13 1868.5,-328.13"/>
</g>
<!-- src/expressions/operators.ts&#45;&gt;src/type&#45;utils.ts -->
<g id="edge31" class="edge">
<title>src/expressions/operators.ts&#45;&gt;src/type&#45;utils.ts</title>
<path fill="none" stroke="#757575" d="M1955.17,-353.71C1955.17,-292.19 1955.17,-11 1955.17,-11 1955.17,-11 738.3,-11 738.3,-11"/>
<polygon fill="#757575" stroke="#757575" points="738.3,-7.5 728.3,-11 738.3,-14.5 738.3,-7.5"/>
</g>
<!-- src/types/structs.ts&#45;&gt;src/expressions/handlers.ts -->
<g id="edge75" class="edge">
<title>src/types/structs.ts&#45;&gt;src/expressions/handlers.ts</title>
<path fill="none" stroke="#757575" d="M1310.5,-294.75C1310.5,-294.75 1310.5,-210.2 1310.5,-210.2"/>
<polygon fill="#757575" stroke="#757575" points="1314,-210.2 1310.5,-200.2 1307,-210.2 1314,-210.2"/>
</g>
<!-- src/types/structs.ts&#45;&gt;src/declarations.ts -->
<g id="edge74" class="edge">
<title>src/types/structs.ts&#45;&gt;src/declarations.ts</title>
<path fill="none" stroke="#757575" d="M1194.32,-306C1189.23,-306 1186,-306 1186,-306 1186,-306 1186,-269.06 1186,-269.06"/>
<polygon fill="#757575" stroke="#757575" points="1189.5,-269.06 1186,-259.06 1182.5,-269.06 1189.5,-269.06"/>
</g>
<!-- src/handlers/assignment.ts&#45;&gt;src/utils/array.ts -->
<g id="edge45" class="edge">
<title>src/handlers/assignment.ts&#45;&gt;src/utils/array.ts</title>
<path fill="none" stroke="#757575" d="M1309.36,-123C1283.46,-123 1262,-123 1262,-123 1262,-123 1262,-92.15 1262,-92.15"/>
<polygon fill="#757575" stroke="#757575" points="1265.5,-92.15 1262,-82.15 1258.5,-92.15 1265.5,-92.15"/>
</g>
<!-- src/handlers/assignment.ts&#45;&gt;src/types/interpreter.ts -->
<g id="edge44" class="edge">
<title>src/handlers/assignment.ts&#45;&gt;src/types/interpreter.ts</title>
<path fill="none" stroke="#757575" d="M1444.25,-117.84C1444.25,-117.84 1444.25,-92.13 1444.25,-92.13"/>
<polygon fill="#757575" stroke="#757575" points="1447.75,-92.13 1444.25,-82.13 1440.75,-92.13 1447.75,-92.13"/>
</g>
<!-- src/utils/scope&#45;helpers.ts&#45;&gt;src/parser.ts -->
<g id="edge86" class="edge">
<title>src/utils/scope&#45;helpers.ts&#45;&gt;src/parser.ts</title>
<path fill="none" stroke="#757575" d="M1059.5,-117.84C1059.5,-109.6 1059.5,-100 1059.5,-100 1059.5,-100 1988.62,-100 1988.62,-100 1988.62,-100 1988.62,-92.16 1988.62,-92.16"/>
<polygon fill="#757575" stroke="#757575" points="1992.13,-92.16 1988.62,-82.16 1985.13,-92.16 1992.13,-92.16"/>
</g>
<!-- src/utils/scope&#45;helpers.ts&#45;&gt;src/utils/array.ts -->
<g id="edge88" class="edge">
<title>src/utils/scope&#45;helpers.ts&#45;&gt;src/utils/array.ts</title>
<path fill="none" stroke="#757575" d="M1142.24,-129C1162.56,-129 1178.62,-129 1178.62,-129 1178.62,-129 1178.62,-92.06 1178.62,-92.06"/>
<polygon fill="#757575" stroke="#757575" points="1182.13,-92.06 1178.62,-82.06 1175.13,-92.06 1182.13,-92.06"/>
</g>
<!-- src/utils/scope&#45;helpers.ts&#45;&gt;src/type&#45;utils.ts -->
<g id="edge87" class="edge">
<title>src/utils/scope&#45;helpers.ts&#45;&gt;src/type&#45;utils.ts</title>
<path fill="none" stroke="#757575" d="M976.67,-123C874.37,-123 713.7,-123 713.7,-123 713.7,-123 713.7,-33.01 713.7,-33.01"/>
<polygon fill="#757575" stroke="#757575" points="717.2,-33.01 713.7,-23.01 710.2,-33.01 717.2,-33.01"/>
</g>
<!-- src/utils/scope&#45;helpers.ts&#45;&gt;src/utils/function&#45;utils.ts -->
<g id="edge89" class="edge">
<title>src/utils/scope&#45;helpers.ts&#45;&gt;src/utils/function&#45;utils.ts</title>
<path fill="none" stroke="#757575" d="M976.73,-129C801.95,-129 411.17,-129 411.17,-129 411.17,-129 411.17,-92.06 411.17,-92.06"/>
<polygon fill="#757575" stroke="#757575" points="414.67,-92.06 411.17,-82.06 407.67,-92.06 414.67,-92.06"/>
</g>
<!-- src/expressions/operator&#45;utils.ts -->
<g id="node25" class="node">
<title>src/expressions/operator&#45;utils.ts</title>
<path fill="none" stroke="#cfffac" d="M1846.33,-259C1846.33,-259 1654.67,-259 1654.67,-259 1650.83,-259 1647,-255.17 1647,-251.33 1647,-251.33 1647,-243.67 1647,-243.67 1647,-239.83 1650.83,-236 1654.67,-236 1654.67,-236 1846.33,-236 1846.33,-236 1850.17,-236 1854,-239.83 1854,-243.67 1854,-243.67 1854,-251.33 1854,-251.33 1854,-255.17 1850.17,-259 1846.33,-259"/>
<text text-anchor="middle" x="1750.5" y="-243.8" font-family="Arial" font-size="14.00" fill="#cfffac">src/expressions/operator&#45;utils.ts</text>
</g>
<!-- src/expressions/operator&#45;finder.ts&#45;&gt;src/expressions/operator&#45;utils.ts -->
<g id="edge28" class="edge">
<title>src/expressions/operator&#45;finder.ts&#45;&gt;src/expressions/operator&#45;utils.ts</title>
<path fill="none" stroke="#757575" d="M1765.25,-294.84C1765.25,-294.84 1765.25,-269.13 1765.25,-269.13"/>
<polygon fill="#757575" stroke="#757575" points="1768.75,-269.13 1765.25,-259.13 1761.75,-269.13 1768.75,-269.13"/>
</g>
<!-- src/function&#45;type&#45;handler.ts&#45;&gt;src/type&#45;utils.ts -->
<g id="edge35" class="edge">
<title>src/function&#45;type&#45;handler.ts&#45;&gt;src/type&#45;utils.ts</title>
<path fill="none" stroke="#757575" d="M132.67,-412.84C132.67,-404.6 132.67,-395 132.67,-395 132.67,-395 691.1,-395 691.1,-395 691.1,-395 691.1,-33.4 691.1,-33.4"/>
<polygon fill="#757575" stroke="#757575" points="694.6,-33.4 691.1,-23.4 687.6,-33.4 694.6,-33.4"/>
</g>
<!-- src/function&#45;type&#45;handler.ts&#45;&gt;src/functions.ts -->
<g id="edge34" class="edge">
<title>src/function&#45;type&#45;handler.ts&#45;&gt;src/functions.ts</title>
<path fill="none" stroke="#757575" d="M192.33,-412.85C192.33,-397.38 192.33,-372 192.33,-372 192.33,-372 464.86,-372 464.86,-372"/>
<polygon fill="#757575" stroke="#757575" points="464.86,-375.5 474.86,-372 464.86,-368.5 464.86,-375.5"/>
</g>
<!-- src/functions.ts&#45;&gt;src/utils/identifier&#45;utils.ts -->
<g id="edge40" class="edge">
<title>src/functions.ts&#45;&gt;src/utils/identifier&#45;utils.ts</title>
<path fill="none" stroke="#757575" d="M582.11,-357C607.14,-357 631.5,-357 631.5,-357 631.5,-357 631.5,-269.22 631.5,-269.22"/>
<polygon fill="#757575" stroke="#757575" points="635,-269.22 631.5,-259.22 628,-269.22 635,-269.22"/>
</g>
<!-- src/functions.ts&#45;&gt;src/handlers/anonymous&#45;functions.ts -->
<g id="edge36" class="edge">
<title>src/functions.ts&#45;&gt;src/handlers/anonymous&#45;functions.ts</title>
<path fill="none" stroke="#757575" d="M474.77,-363C406.33,-363 296.83,-363 296.83,-363 296.83,-363 296.83,-328.21 296.83,-328.21"/>
<polygon fill="#757575" stroke="#757575" points="300.33,-328.21 296.83,-318.21 293.33,-328.21 300.33,-328.21"/>
</g>
<!-- src/handlers/function&#45;declaration.ts -->
<g id="node30" class="node">
<title>src/handlers/function&#45;declaration.ts</title>
<path fill="none" stroke="#c6c5fe" d="M584.83,-318C584.83,-318 374.17,-318 374.17,-318 370.33,-318 366.5,-314.17 366.5,-310.33 366.5,-310.33 366.5,-302.67 366.5,-302.67 366.5,-298.83 370.33,-295 374.17,-295 374.17,-295 584.83,-295 584.83,-295 588.67,-295 592.5,-298.83 592.5,-302.67 592.5,-302.67 592.5,-310.33 592.5,-310.33 592.5,-314.17 588.67,-318 584.83,-318"/>
<text text-anchor="middle" x="479.5" y="-302.8" font-family="Arial" font-size="14.00" fill="#c6c5fe">src/handlers/function&#45;declaration.ts</text>
</g>
<!-- src/functions.ts&#45;&gt;src/handlers/function&#45;declaration.ts -->
<g id="edge37" class="edge">
<title>src/functions.ts&#45;&gt;src/handlers/function&#45;declaration.ts</title>
<path fill="none" stroke="#757575" d="M528.5,-353.84C528.5,-353.84 528.5,-328.13 528.5,-328.13"/>
<polygon fill="#757575" stroke="#757575" points="532,-328.13 528.5,-318.13 525,-328.13 532,-328.13"/>
</g>
<!-- src/functions.ts&#45;&gt;src/utils/function&#45;call&#45;params.ts -->
<g id="edge38" class="edge">
<title>src/functions.ts&#45;&gt;src/utils/function&#45;call&#45;params.ts</title>
<path fill="none" stroke="#757575" d="M582.09,-360C642.83,-360 733.5,-360 733.5,-360 733.5,-360 733.5,-328.11 733.5,-328.11"/>
<polygon fill="#757575" stroke="#757575" points="737,-328.11 733.5,-318.11 730,-328.11 737,-328.11"/>
</g>
<!-- src/functions.ts&#45;&gt;src/utils/function&#45;utils.ts -->
<g id="edge39" class="edge">
<title>src/functions.ts&#45;&gt;src/utils/function&#45;utils.ts</title>
<path fill="none" stroke="#757575" d="M475,-358C418.73,-358 338.25,-358 338.25,-358 338.25,-358 338.25,-92.13 338.25,-92.13"/>
<polygon fill="#757575" stroke="#757575" points="341.75,-92.13 338.25,-82.13 334.75,-92.13 341.75,-92.13"/>
</g>
<!-- src/handlers/anonymous&#45;functions.ts&#45;&gt;src/utils/identifier&#45;utils.ts -->
<g id="edge43" class="edge">
<title>src/handlers/anonymous&#45;functions.ts&#45;&gt;src/utils/identifier&#45;utils.ts</title>
<path fill="none" stroke="#757575" d="M299.17,-294.74C299.17,-277.4 299.17,-247 299.17,-247 299.17,-247 498.29,-247 498.29,-247"/>
<polygon fill="#757575" stroke="#757575" points="498.29,-250.5 508.29,-247 498.29,-243.5 498.29,-250.5"/>
</g>
<!-- src/handlers/anonymous&#45;functions.ts&#45;&gt;src/type&#45;utils.ts -->
<g id="edge41" class="edge">
<title>src/handlers/anonymous&#45;functions.ts&#45;&gt;src/type&#45;utils.ts</title>
<path fill="none" stroke="#757575" d="M175.25,-294.92C175.25,-240.28 175.25,-11 175.25,-11 175.25,-11 610.6,-11 610.6,-11"/>
<polygon fill="#757575" stroke="#757575" points="610.6,-14.5 620.6,-11 610.6,-7.5 610.6,-14.5"/>
</g>
<!-- src/handlers/anonymous&#45;functions.ts&#45;&gt;src/utils/function&#45;utils.ts -->
<g id="edge42" class="edge">
<title>src/handlers/anonymous&#45;functions.ts&#45;&gt;src/utils/function&#45;utils.ts</title>
<path fill="none" stroke="#757575" d="M288.33,-294.8C288.33,-294.8 288.33,-92.27 288.33,-92.27"/>
<polygon fill="#757575" stroke="#757575" points="291.83,-92.27 288.33,-82.27 284.83,-92.27 291.83,-92.27"/>
</g>
<!-- src/handlers/function&#45;declaration.ts&#45;&gt;src/declarations.ts -->
<g id="edge48" class="edge">
<title>src/handlers/function&#45;declaration.ts&#45;&gt;src/declarations.ts</title>
<path fill="none" stroke="#757575" d="M592.58,-310C647.76,-310 702.4,-310 702.4,-310 702.4,-310 702.4,-241 702.4,-241 702.4,-241 1055.63,-241 1055.63,-241"/>
<polygon fill="#757575" stroke="#757575" points="1055.63,-244.5 1065.63,-241 1055.63,-237.5 1055.63,-244.5"/>
</g>
<!-- src/handlers/function&#45;declaration.ts&#45;&gt;src/utils/identifier&#45;utils.ts -->
<g id="edge51" class="edge">
<title>src/handlers/function&#45;declaration.ts&#45;&gt;src/utils/identifier&#45;utils.ts</title>
<path fill="none" stroke="#757575" d="M550.5,-294.84C550.5,-294.84 550.5,-269.13 550.5,-269.13"/>
<polygon fill="#757575" stroke="#757575" points="554,-269.13 550.5,-259.13 547,-269.13 554,-269.13"/>
</g>
<!-- src/handlers/function&#45;declaration.ts&#45;&gt;src/type&#45;utils.ts -->
<g id="edge49" class="edge">
<title>src/handlers/function&#45;declaration.ts&#45;&gt;src/type&#45;utils.ts</title>
<path fill="none" stroke="#757575" d="M592.53,-302C637.96,-302 679.8,-302 679.8,-302 679.8,-302 679.8,-33.25 679.8,-33.25"/>
<polygon fill="#757575" stroke="#757575" points="683.3,-33.25 679.8,-23.25 676.3,-33.25 683.3,-33.25"/>
</g>
<!-- src/handlers/function&#45;declaration.ts&#45;&gt;src/utils/function&#45;utils.ts -->
<g id="edge50" class="edge">
<title>src/handlers/function&#45;declaration.ts&#45;&gt;src/utils/function&#45;utils.ts</title>
<path fill="none" stroke="#757575" d="M388.83,-294.8C388.83,-294.8 388.83,-92.27 388.83,-92.27"/>
<polygon fill="#757575" stroke="#757575" points="392.33,-92.27 388.83,-82.27 385.33,-92.27 392.33,-92.27"/>
</g>
<!-- src/utils/function&#45;call&#45;params.ts&#45;&gt;src/expressions/handlers.ts -->
<g id="edge83" class="edge">
<title>src/utils/function&#45;call&#45;params.ts&#45;&gt;src/expressions/handlers.ts</title>
<path fill="none" stroke="#757575" d="M828,-294.95C828,-264.79 828,-186 828,-186 828,-186 1288.45,-186 1288.45,-186"/>
<polygon fill="#757575" stroke="#757575" points="1288.45,-189.5 1298.45,-186 1288.45,-182.5 1288.45,-189.5"/>
</g>
<!-- src/utils/function&#45;utils.ts&#45;&gt;src/type&#45;utils.ts -->
<g id="edge84" class="edge">
<title>src/utils/function&#45;utils.ts&#45;&gt;src/type&#45;utils.ts</title>
<path fill="none" stroke="#757575" d="M433.78,-66C519.44,-66 644.75,-66 644.75,-66 644.75,-66 644.75,-33.06 644.75,-33.06"/>
<polygon fill="#757575" stroke="#757575" points="648.25,-33.06 644.75,-23.06 641.25,-33.06 648.25,-33.06"/>
</g>
<!-- src/handlers/method&#45;call.ts&#45;&gt;src/expressions/handlers.ts -->
<g id="edge54" class="edge">
<title>src/handlers/method&#45;call.ts&#45;&gt;src/expressions/handlers.ts</title>
<path fill="none" stroke="#757575" d="M938,-412.87C938,-365.55 938,-190 938,-190 938,-190 1288.42,-190 1288.42,-190"/>
<polygon fill="#757575" stroke="#757575" points="1288.42,-193.5 1298.42,-190 1288.42,-186.5 1288.42,-193.5"/>
</g>
<!-- src/handlers/method&#45;call.ts&#45;&gt;src/utils/identifier&#45;utils.ts -->
<g id="edge56" class="edge">
<title>src/handlers/method&#45;call.ts&#45;&gt;src/utils/identifier&#45;utils.ts</title>
<path fill="none" stroke="#757575" d="M933,-412.98C933,-374.53 933,-253 933,-253 933,-253 678.84,-253 678.84,-253"/>
<polygon fill="#757575" stroke="#757575" points="678.84,-249.5 668.84,-253 678.84,-256.5 678.84,-249.5"/>
</g>
<!-- src/handlers/method&#45;call.ts&#45;&gt;src/functions.ts -->
<g id="edge55" class="edge">
<title>src/handlers/method&#45;call.ts&#45;&gt;src/functions.ts</title>
<path fill="none" stroke="#757575" d="M848.5,-412.94C848.5,-396.94 848.5,-370 848.5,-370 848.5,-370 592.06,-370 592.06,-370"/>
<polygon fill="#757575" stroke="#757575" points="592.06,-366.5 582.06,-370 592.06,-373.5 592.06,-366.5"/>
</g>
<!-- src/loops/types.ts&#45;&gt;src/expressions/handlers.ts -->
<g id="edge61" class="edge">
<title>src/loops/types.ts&#45;&gt;src/expressions/handlers.ts</title>
<path fill="none" stroke="#757575" d="M2271.5,-412.77C2271.5,-365.05 2271.5,-188 2271.5,-188 2271.5,-188 1488.85,-188 1488.85,-188"/>
<polygon fill="#757575" stroke="#757575" points="1488.85,-184.5 1478.85,-188 1488.85,-191.5 1488.85,-184.5"/>
</g>
<!-- src/types/type&#45;declarations.ts&#45;&gt;src/declarations.ts -->
<g id="edge76" class="edge">
<title>src/types/type&#45;declarations.ts&#45;&gt;src/declarations.ts</title>
<path fill="none" stroke="#757575" d="M1121,-294.84C1121,-294.84 1121,-269.13 1121,-269.13"/>
<polygon fill="#757575" stroke="#757575" points="1124.5,-269.13 1121,-259.13 1117.5,-269.13 1124.5,-269.13"/>
</g>
<!-- src/types/type&#45;declarations.ts&#45;&gt;src/type&#45;utils.ts -->
<g id="edge77" class="edge">
<title>src/types/type&#45;declarations.ts&#45;&gt;src/type&#45;utils.ts</title>
<path fill="none" stroke="#757575" d="M984.63,-302C961.34,-302 943,-302 943,-302 943,-302 943,-17 943,-17 943,-17 738.19,-17 738.19,-17"/>
<polygon fill="#757575" stroke="#757575" points="738.19,-13.5 728.19,-17 738.19,-20.5 738.19,-13.5"/>
</g>
<!-- src/utils/interpret.ts -->
<g id="node37" class="node">
<title>src/utils/interpret.ts</title>
<path fill="none" stroke="#c6c5fe" d="M1532.83,-613C1532.83,-613 1418.17,-613 1418.17,-613 1414.33,-613 1410.5,-609.17 1410.5,-605.33 1410.5,-605.33 1410.5,-597.67 1410.5,-597.67 1410.5,-593.83 1414.33,-590 1418.17,-590 1418.17,-590 1532.83,-590 1532.83,-590 1536.67,-590 1540.5,-593.83 1540.5,-597.67 1540.5,-597.67 1540.5,-605.33 1540.5,-605.33 1540.5,-609.17 1536.67,-613 1532.83,-613"/>
<text text-anchor="middle" x="1475.5" y="-597.8" font-family="Arial" font-size="14.00" fill="#c6c5fe">src/utils/interpret.ts</text>
</g>
<!-- src/utils/interpret.ts&#45;&gt;src/app.ts -->
<g id="edge85" class="edge">
<title>src/utils/interpret.ts&#45;&gt;src/app.ts</title>
<path fill="none" stroke="#757575" d="M1475.5,-589.84C1475.5,-589.84 1475.5,-564.13 1475.5,-564.13"/>
<polygon fill="#757575" stroke="#757575" points="1479,-564.13 1475.5,-554.13 1472,-564.13 1479,-564.13"/>
</g>
<!-- tests/arithmetic.test.ts -->
<g id="node38" class="node">
<title>tests/arithmetic.test.ts</title>
<path fill="none" stroke="#c6c5fe" d="M1202.83,-672C1202.83,-672 1070.17,-672 1070.17,-672 1066.33,-672 1062.5,-668.17 1062.5,-664.33 1062.5,-664.33 1062.5,-656.67 1062.5,-656.67 1062.5,-652.83 1066.33,-649 1070.17,-649 1070.17,-649 1202.83,-649 1202.83,-649 1206.67,-649 1210.5,-652.83 1210.5,-656.67 1210.5,-656.67 1210.5,-664.33 1210.5,-664.33 1210.5,-668.17 1206.67,-672 1202.83,-672"/>
<text text-anchor="middle" x="1136.5" y="-656.8" font-family="Arial" font-size="14.00" fill="#c6c5fe">tests/arithmetic.test.ts</text>
</g>
<!-- tests/arithmetic.test.ts&#45;&gt;src/utils/interpret.ts -->
<g id="edge92" class="edge">
<title>tests/arithmetic.test.ts&#45;&gt;src/utils/interpret.ts</title>
<path fill="none" stroke="#757575" d="M1183,-648.85C1183,-630.52 1183,-597 1183,-597 1183,-597 1400.22,-597 1400.22,-597"/>
<polygon fill="#757575" stroke="#757575" points="1400.22,-600.5 1410.22,-597 1400.22,-593.5 1400.22,-600.5"/>
</g>
<!-- tests/control&#45;flow.test.ts -->
<g id="node39" class="node">
<title>tests/control&#45;flow.test.ts</title>
<path fill="none" stroke="#c6c5fe" d="M1378.33,-672C1378.33,-672 1236.67,-672 1236.67,-672 1232.83,-672 1229,-668.17 1229,-664.33 1229,-664.33 1229,-656.67 1229,-656.67 1229,-652.83 1232.83,-649 1236.67,-649 1236.67,-649 1378.33,-649 1378.33,-649 1382.17,-649 1386,-652.83 1386,-656.67 1386,-656.67 1386,-664.33 1386,-664.33 1386,-668.17 1382.17,-672 1378.33,-672"/>
<text text-anchor="middle" x="1307.5" y="-656.8" font-family="Arial" font-size="14.00" fill="#c6c5fe">tests/control&#45;flow.test.ts</text>
</g>
<!-- tests/control&#45;flow.test.ts&#45;&gt;src/utils/interpret.ts -->
<g id="edge93" class="edge">
<title>tests/control&#45;flow.test.ts&#45;&gt;src/utils/interpret.ts</title>
<path fill="none" stroke="#757575" d="M1307.5,-648.73C1307.5,-632.44 1307.5,-605 1307.5,-605 1307.5,-605 1400.07,-605 1400.07,-605"/>
<polygon fill="#757575" stroke="#757575" points="1400.07,-608.5 1410.07,-605 1400.07,-601.5 1400.07,-608.5"/>
</g>
<!-- tests/functions.test.ts -->
<g id="node40" class="node">
<title>tests/functions.test.ts</title>
<path fill="none" stroke="#c6c5fe" d="M1539.33,-672C1539.33,-672 1411.67,-672 1411.67,-672 1407.83,-672 1404,-668.17 1404,-664.33 1404,-664.33 1404,-656.67 1404,-656.67 1404,-652.83 1407.83,-649 1411.67,-649 1411.67,-649 1539.33,-649 1539.33,-649 1543.17,-649 1547,-652.83 1547,-656.67 1547,-656.67 1547,-664.33 1547,-664.33 1547,-668.17 1543.17,-672 1539.33,-672"/>
<text text-anchor="middle" x="1475.5" y="-656.8" font-family="Arial" font-size="14.00" fill="#c6c5fe">tests/functions.test.ts</text>
</g>
<!-- tests/functions.test.ts&#45;&gt;src/utils/interpret.ts -->
<g id="edge94" class="edge">
<title>tests/functions.test.ts&#45;&gt;src/utils/interpret.ts</title>
<path fill="none" stroke="#757575" d="M1475.5,-648.84C1475.5,-648.84 1475.5,-623.13 1475.5,-623.13"/>
<polygon fill="#757575" stroke="#757575" points="1479,-623.13 1475.5,-613.13 1472,-623.13 1479,-623.13"/>
</g>
<!-- tests/types.test.ts -->
<g id="node41" class="node">
<title>tests/types.test.ts</title>
<path fill="none" stroke="#c6c5fe" d="M1678.33,-672C1678.33,-672 1572.67,-672 1572.67,-672 1568.83,-672 1565,-668.17 1565,-664.33 1565,-664.33 1565,-656.67 1565,-656.67 1565,-652.83 1568.83,-649 1572.67,-649 1572.67,-649 1678.33,-649 1678.33,-649 1682.17,-649 1686,-652.83 1686,-656.67 1686,-656.67 1686,-664.33 1686,-664.33 1686,-668.17 1682.17,-672 1678.33,-672"/>
<text text-anchor="middle" x="1625.5" y="-656.8" font-family="Arial" font-size="14.00" fill="#c6c5fe">tests/types.test.ts</text>
</g>
<!-- tests/types.test.ts&#45;&gt;src/utils/interpret.ts -->
<g id="edge95" class="edge">
<title>tests/types.test.ts&#45;&gt;src/utils/interpret.ts</title>
<path fill="none" stroke="#757575" d="M1625.5,-648.73C1625.5,-632.44 1625.5,-605 1625.5,-605 1625.5,-605 1550.86,-605 1550.86,-605"/>
<polygon fill="#757575" stroke="#757575" points="1550.86,-601.5 1540.86,-605 1550.86,-608.5 1550.86,-601.5"/>
</g>
<!-- tests/variables.test.ts -->
<g id="node42" class="node">
<title>tests/variables.test.ts</title>
<path fill="none" stroke="#c6c5fe" d="M1839.33,-672C1839.33,-672 1711.67,-672 1711.67,-672 1707.83,-672 1704,-668.17 1704,-664.33 1704,-664.33 1704,-656.67 1704,-656.67 1704,-652.83 1707.83,-649 1711.67,-649 1711.67,-649 1839.33,-649 1839.33,-649 1843.17,-649 1847,-652.83 1847,-656.67 1847,-656.67 1847,-664.33 1847,-664.33 1847,-668.17 1843.17,-672 1839.33,-672"/>
<text text-anchor="middle" x="1775.5" y="-656.8" font-family="Arial" font-size="14.00" fill="#c6c5fe">tests/variables.test.ts</text>
</g>
<!-- tests/variables.test.ts&#45;&gt;src/utils/interpret.ts -->
<g id="edge96" class="edge">
<title>tests/variables.test.ts&#45;&gt;src/utils/interpret.ts</title>
<path fill="none" stroke="#757575" d="M1749.75,-648.85C1749.75,-630.52 1749.75,-597 1749.75,-597 1749.75,-597 1550.84,-597 1550.84,-597"/>
<polygon fill="#757575" stroke="#757575" points="1550.84,-593.5 1540.84,-597 1550.84,-600.5 1550.84,-593.5"/>
</g>
</g>
</svg>
