<?xml version="1.0" encoding="UTF-8" standalone="no"?>
<!DOCTYPE svg PUBLIC "-//W3C//DTD SVG 1.1//EN"
 "http://www.w3.org/Graphics/SVG/1.1/DTD/svg11.dtd">
<!-- Generated by graphviz version 2.43.0 (0)
 -->
<!-- Title: G Pages: 1 -->
<svg width="3056pt" height="774pt"
 viewBox="0.00 0.00 3055.70 774.20" xmlns="http://www.w3.org/2000/svg" xmlns:xlink="http://www.w3.org/1999/xlink">
<g id="graph0" class="graph" transform="scale(1 1) rotate(0) translate(21.6 752.6)">
<title>G</title>
<polygon fill="#111111" stroke="transparent" points="-21.6,21.6 -21.6,-752.6 3034.1,-752.6 3034.1,21.6 -21.6,21.6"/>
<!-- src/app.ts -->
<g id="node1" class="node">
<title>src/app.ts</title>
<path fill="none" stroke="#c6c5fe" d="M1990.33,-613C1990.33,-613 1930.67,-613 1930.67,-613 1926.83,-613 1923,-609.17 1923,-605.33 1923,-605.33 1923,-597.67 1923,-597.67 1923,-593.83 1926.83,-590 1930.67,-590 1930.67,-590 1990.33,-590 1990.33,-590 1994.17,-590 1998,-593.83 1998,-597.67 1998,-597.67 1998,-605.33 1998,-605.33 1998,-609.17 1994.17,-613 1990.33,-613"/>
<text text-anchor="middle" x="1960.5" y="-597.8" font-family="Arial" font-size="14.00" fill="#c6c5fe">src/app.ts</text>
</g>
<!-- src/expressions/binary&#45;operation.ts -->
<g id="node2" class="node">
<title>src/expressions/binary&#45;operation.ts</title>
<path fill="none" stroke="#c6c5fe" d="M1847.83,-436C1847.83,-436 1637.17,-436 1637.17,-436 1633.33,-436 1629.5,-432.17 1629.5,-428.33 1629.5,-428.33 1629.5,-420.67 1629.5,-420.67 1629.5,-416.83 1633.33,-413 1637.17,-413 1637.17,-413 1847.83,-413 1847.83,-413 1851.67,-413 1855.5,-416.83 1855.5,-420.67 1855.5,-420.67 1855.5,-428.33 1855.5,-428.33 1855.5,-432.17 1851.67,-436 1847.83,-436"/>
<text text-anchor="middle" x="1742.5" y="-420.8" font-family="Arial" font-size="14.00" fill="#c6c5fe">src/expressions/binary&#45;operation.ts</text>
</g>
<!-- src/app.ts&#45;&gt;src/expressions/binary&#45;operation.ts -->
<g id="edge1" class="edge">
<title>src/app.ts&#45;&gt;src/expressions/binary&#45;operation.ts</title>
<path fill="none" stroke="#757575" d="M1953,-589.85C1953,-550.36 1953,-424 1953,-424 1953,-424 1865.76,-424 1865.76,-424"/>
<polygon fill="#757575" stroke="#757575" points="1865.76,-420.5 1855.76,-424 1865.76,-427.5 1865.76,-420.5"/>
</g>
<!-- src/expressions/grouped&#45;expressions.ts -->
<g id="node3" class="node">
<title>src/expressions/grouped&#45;expressions.ts</title>
<path fill="none" stroke="#c6c5fe" d="M2429.83,-377C2429.83,-377 2191.17,-377 2191.17,-377 2187.33,-377 2183.5,-373.17 2183.5,-369.33 2183.5,-369.33 2183.5,-361.67 2183.5,-361.67 2183.5,-357.83 2187.33,-354 2191.17,-354 2191.17,-354 2429.83,-354 2429.83,-354 2433.67,-354 2437.5,-357.83 2437.5,-361.67 2437.5,-361.67 2437.5,-369.33 2437.5,-369.33 2437.5,-373.17 2433.67,-377 2429.83,-377"/>
<text text-anchor="middle" x="2310.5" y="-361.8" font-family="Arial" font-size="14.00" fill="#c6c5fe">src/expressions/grouped&#45;expressions.ts</text>
</g>
<!-- src/app.ts&#45;&gt;src/expressions/grouped&#45;expressions.ts -->
<g id="edge2" class="edge">
<title>src/app.ts&#45;&gt;src/expressions/grouped&#45;expressions.ts</title>
<path fill="none" stroke="#757575" d="M1998.25,-597C2072.85,-597 2232,-597 2232,-597 2232,-597 2232,-387.3 2232,-387.3"/>
<polygon fill="#757575" stroke="#757575" points="2235.5,-387.3 2232,-377.3 2228.5,-387.3 2235.5,-387.3"/>
</g>
<!-- src/expressions/handlers.ts -->
<g id="node4" class="node">
<title>src/expressions/handlers.ts</title>
<path fill="none" stroke="#c6c5fe" d="M1169.83,-200C1169.83,-200 1005.17,-200 1005.17,-200 1001.33,-200 997.5,-196.17 997.5,-192.33 997.5,-192.33 997.5,-184.67 997.5,-184.67 997.5,-180.83 1001.33,-177 1005.17,-177 1005.17,-177 1169.83,-177 1169.83,-177 1173.67,-177 1177.5,-180.83 1177.5,-184.67 1177.5,-184.67 1177.5,-192.33 1177.5,-192.33 1177.5,-196.17 1173.67,-200 1169.83,-200"/>
<text text-anchor="middle" x="1087.5" y="-184.8" font-family="Arial" font-size="14.00" fill="#c6c5fe">src/expressions/handlers.ts</text>
</g>
<!-- src/app.ts&#45;&gt;src/expressions/handlers.ts -->
<g id="edge3" class="edge">
<title>src/app.ts&#45;&gt;src/expressions/handlers.ts</title>
<path fill="none" stroke="#757575" d="M1923,-598C1750.32,-598 1040.2,-598 1040.2,-598 1040.2,-598 1040.2,-210.31 1040.2,-210.31"/>
<polygon fill="#757575" stroke="#757575" points="1043.7,-210.31 1040.2,-200.31 1036.7,-210.31 1043.7,-210.31"/>
</g>
<!-- src/handlers/dereference&#45;assignment.ts -->
<g id="node5" class="node">
<title>src/handlers/dereference&#45;assignment.ts</title>
<path fill="none" stroke="#c6c5fe" d="M2157.83,-377C2157.83,-377 1919.17,-377 1919.17,-377 1915.33,-377 1911.5,-373.17 1911.5,-369.33 1911.5,-369.33 1911.5,-361.67 1911.5,-361.67 1911.5,-357.83 1915.33,-354 1919.17,-354 1919.17,-354 2157.83,-354 2157.83,-354 2161.67,-354 2165.5,-357.83 2165.5,-361.67 2165.5,-361.67 2165.5,-369.33 2165.5,-369.33 2165.5,-373.17 2161.67,-377 2157.83,-377"/>
<text text-anchor="middle" x="2038.5" y="-361.8" font-family="Arial" font-size="14.00" fill="#c6c5fe">src/handlers/dereference&#45;assignment.ts</text>
</g>
<!-- src/app.ts&#45;&gt;src/handlers/dereference&#45;assignment.ts -->
<g id="edge4" class="edge">
<title>src/app.ts&#45;&gt;src/handlers/dereference&#45;assignment.ts</title>
<path fill="none" stroke="#757575" d="M1968,-589.8C1968,-589.8 1968,-387.27 1968,-387.27"/>
<polygon fill="#757575" stroke="#757575" points="1971.5,-387.27 1968,-377.27 1964.5,-387.27 1971.5,-387.27"/>
</g>
<!-- src/handlers/lambda&#45;expressions.ts -->
<g id="node6" class="node">
<title>src/handlers/lambda&#45;expressions.ts</title>
<path fill="none" stroke="#c6c5fe" d="M492.83,-436C492.83,-436 278.17,-436 278.17,-436 274.33,-436 270.5,-432.17 270.5,-428.33 270.5,-428.33 270.5,-420.67 270.5,-420.67 270.5,-416.83 274.33,-413 278.17,-413 278.17,-413 492.83,-413 492.83,-413 496.67,-413 500.5,-416.83 500.5,-420.67 500.5,-420.67 500.5,-428.33 500.5,-428.33 500.5,-432.17 496.67,-436 492.83,-436"/>
<text text-anchor="middle" x="385.5" y="-420.8" font-family="Arial" font-size="14.00" fill="#c6c5fe">src/handlers/lambda&#45;expressions.ts</text>
</g>
<!-- src/app.ts&#45;&gt;src/handlers/lambda&#45;expressions.ts -->
<g id="edge5" class="edge">
<title>src/app.ts&#45;&gt;src/handlers/lambda&#45;expressions.ts</title>
<path fill="none" stroke="#757575" d="M1922.9,-607C1687.24,-607 423.83,-607 423.83,-607 423.83,-607 423.83,-446.19 423.83,-446.19"/>
<polygon fill="#757575" stroke="#757575" points="427.33,-446.19 423.83,-436.19 420.33,-446.19 427.33,-446.19"/>
</g>
<!-- src/handlers/module&#45;access.ts -->
<g id="node7" class="node">
<title>src/handlers/module&#45;access.ts</title>
<path fill="none" stroke="#c6c5fe" d="M1607.83,-377C1607.83,-377 1423.17,-377 1423.17,-377 1419.33,-377 1415.5,-373.17 1415.5,-369.33 1415.5,-369.33 1415.5,-361.67 1415.5,-361.67 1415.5,-357.83 1419.33,-354 1423.17,-354 1423.17,-354 1607.83,-354 1607.83,-354 1611.67,-354 1615.5,-357.83 1615.5,-361.67 1615.5,-361.67 1615.5,-369.33 1615.5,-369.33 1615.5,-373.17 1611.67,-377 1607.83,-377"/>
<text text-anchor="middle" x="1515.5" y="-361.8" font-family="Arial" font-size="14.00" fill="#c6c5fe">src/handlers/module&#45;access.ts</text>
</g>
<!-- src/app.ts&#45;&gt;src/handlers/module&#45;access.ts -->
<g id="edge6" class="edge">
<title>src/app.ts&#45;&gt;src/handlers/module&#45;access.ts</title>
<path fill="none" stroke="#757575" d="M1922.92,-595C1831.13,-595 1603,-595 1603,-595 1603,-595 1603,-387.2 1603,-387.2"/>
<polygon fill="#757575" stroke="#757575" points="1606.5,-387.2 1603,-377.2 1599.5,-387.2 1606.5,-387.2"/>
</g>
<!-- src/handlers/pointer&#45;operations.ts -->
<g id="node8" class="node">
<title>src/handlers/pointer&#45;operations.ts</title>
<path fill="none" stroke="#c6c5fe" d="M2207.33,-318C2207.33,-318 2005.67,-318 2005.67,-318 2001.83,-318 1998,-314.17 1998,-310.33 1998,-310.33 1998,-302.67 1998,-302.67 1998,-298.83 2001.83,-295 2005.67,-295 2005.67,-295 2207.33,-295 2207.33,-295 2211.17,-295 2215,-298.83 2215,-302.67 2215,-302.67 2215,-310.33 2215,-310.33 2215,-314.17 2211.17,-318 2207.33,-318"/>
<text text-anchor="middle" x="2106.5" y="-302.8" font-family="Arial" font-size="14.00" fill="#c6c5fe">src/handlers/pointer&#45;operations.ts</text>
</g>
<!-- src/app.ts&#45;&gt;src/handlers/pointer&#45;operations.ts -->
<g id="edge7" class="edge">
<title>src/app.ts&#45;&gt;src/handlers/pointer&#45;operations.ts</title>
<path fill="none" stroke="#757575" d="M1998.27,-593C2059.7,-593 2174.5,-593 2174.5,-593 2174.5,-593 2174.5,-328.09 2174.5,-328.09"/>
<polygon fill="#757575" stroke="#757575" points="2178,-328.09 2174.5,-318.09 2171,-328.09 2178,-328.09"/>
</g>
<!-- src/loops/for.ts -->
<g id="node9" class="node">
<title>src/loops/for.ts</title>
<path fill="none" stroke="#c6c5fe" d="M2859.83,-554C2859.83,-554 2771.17,-554 2771.17,-554 2767.33,-554 2763.5,-550.17 2763.5,-546.33 2763.5,-546.33 2763.5,-538.67 2763.5,-538.67 2763.5,-534.83 2767.33,-531 2771.17,-531 2771.17,-531 2859.83,-531 2859.83,-531 2863.67,-531 2867.5,-534.83 2867.5,-538.67 2867.5,-538.67 2867.5,-546.33 2867.5,-546.33 2867.5,-550.17 2863.67,-554 2859.83,-554"/>
<text text-anchor="middle" x="2815.5" y="-538.8" font-family="Arial" font-size="14.00" fill="#c6c5fe">src/loops/for.ts</text>
</g>
<!-- src/app.ts&#45;&gt;src/loops/for.ts -->
<g id="edge8" class="edge">
<title>src/app.ts&#45;&gt;src/loops/for.ts</title>
<path fill="none" stroke="#757575" d="M1998.06,-605C2163.08,-605 2815.5,-605 2815.5,-605 2815.5,-605 2815.5,-564.26 2815.5,-564.26"/>
<polygon fill="#757575" stroke="#757575" points="2819,-564.26 2815.5,-554.26 2812,-564.26 2819,-564.26"/>
</g>
<!-- src/loops/loop.ts -->
<g id="node10" class="node">
<title>src/loops/loop.ts</title>
<path fill="none" stroke="#cfffac" d="M3004.83,-495C3004.83,-495 2906.17,-495 2906.17,-495 2902.33,-495 2898.5,-491.17 2898.5,-487.33 2898.5,-487.33 2898.5,-479.67 2898.5,-479.67 2898.5,-475.83 2902.33,-472 2906.17,-472 2906.17,-472 3004.83,-472 3004.83,-472 3008.67,-472 3012.5,-475.83 3012.5,-479.67 3012.5,-479.67 3012.5,-487.33 3012.5,-487.33 3012.5,-491.17 3008.67,-495 3004.83,-495"/>
<text text-anchor="middle" x="2955.5" y="-479.8" font-family="Arial" font-size="14.00" fill="#cfffac">src/loops/loop.ts</text>
</g>
<!-- src/app.ts&#45;&gt;src/loops/loop.ts -->
<g id="edge9" class="edge">
<title>src/app.ts&#45;&gt;src/loops/loop.ts</title>
<path fill="none" stroke="#757575" d="M1998.14,-609C2182.79,-609 2984,-609 2984,-609 2984,-609 2984,-505.08 2984,-505.08"/>
<polygon fill="#757575" stroke="#757575" points="2987.5,-505.08 2984,-495.08 2980.5,-505.08 2987.5,-505.08"/>
</g>
<!-- src/loops/while.ts -->
<g id="node11" class="node">
<title>src/loops/while.ts</title>
<path fill="none" stroke="#c6c5fe" d="M2730.33,-554C2730.33,-554 2626.67,-554 2626.67,-554 2622.83,-554 2619,-550.17 2619,-546.33 2619,-546.33 2619,-538.67 2619,-538.67 2619,-534.83 2622.83,-531 2626.67,-531 2626.67,-531 2730.33,-531 2730.33,-531 2734.17,-531 2738,-534.83 2738,-538.67 2738,-538.67 2738,-546.33 2738,-546.33 2738,-550.17 2734.17,-554 2730.33,-554"/>
<text text-anchor="middle" x="2678.5" y="-538.8" font-family="Arial" font-size="14.00" fill="#c6c5fe">src/loops/while.ts</text>
</g>
<!-- src/app.ts&#45;&gt;src/loops/while.ts -->
<g id="edge10" class="edge">
<title>src/app.ts&#45;&gt;src/loops/while.ts</title>
<path fill="none" stroke="#757575" d="M1983,-589.86C1983,-573.06 1983,-544 1983,-544 1983,-544 2608.9,-544 2608.9,-544"/>
<polygon fill="#757575" stroke="#757575" points="2608.9,-547.5 2618.9,-544 2608.9,-540.5 2608.9,-547.5"/>
</g>
<!-- src/match.ts -->
<g id="node12" class="node">
<title>src/match.ts</title>
<path fill="none" stroke="#cfffac" d="M2467.83,-318C2467.83,-318 2393.17,-318 2393.17,-318 2389.33,-318 2385.5,-314.17 2385.5,-310.33 2385.5,-310.33 2385.5,-302.67 2385.5,-302.67 2385.5,-298.83 2389.33,-295 2393.17,-295 2393.17,-295 2467.83,-295 2467.83,-295 2471.67,-295 2475.5,-298.83 2475.5,-302.67 2475.5,-302.67 2475.5,-310.33 2475.5,-310.33 2475.5,-314.17 2471.67,-318 2467.83,-318"/>
<text text-anchor="middle" x="2430.5" y="-302.8" font-family="Arial" font-size="14.00" fill="#cfffac">src/match.ts</text>
</g>
<!-- src/app.ts&#45;&gt;src/match.ts -->
<g id="edge11" class="edge">
<title>src/app.ts&#45;&gt;src/match.ts</title>
<path fill="none" stroke="#757575" d="M1998.14,-601C2112.88,-601 2450.5,-601 2450.5,-601 2450.5,-601 2450.5,-328.04 2450.5,-328.04"/>
<polygon fill="#757575" stroke="#757575" points="2454,-328.04 2450.5,-318.04 2447,-328.04 2454,-328.04"/>
</g>
<!-- src/parser.ts -->
<g id="node13" class="node">
<title>src/parser.ts</title>
<path fill="none" stroke="#c6c5fe" d="M1562.83,-82C1562.83,-82 1488.17,-82 1488.17,-82 1484.33,-82 1480.5,-78.17 1480.5,-74.33 1480.5,-74.33 1480.5,-66.67 1480.5,-66.67 1480.5,-62.83 1484.33,-59 1488.17,-59 1488.17,-59 1562.83,-59 1562.83,-59 1566.67,-59 1570.5,-62.83 1570.5,-66.67 1570.5,-66.67 1570.5,-74.33 1570.5,-74.33 1570.5,-78.17 1566.67,-82 1562.83,-82"/>
<text text-anchor="middle" x="1525.5" y="-66.8" font-family="Arial" font-size="14.00" fill="#c6c5fe">src/parser.ts</text>
</g>
<!-- src/app.ts&#45;&gt;src/parser.ts -->
<g id="edge12" class="edge">
<title>src/app.ts&#45;&gt;src/parser.ts</title>
<path fill="none" stroke="#757575" d="M1922.71,-592C1834.51,-592 1622.5,-592 1622.5,-592 1622.5,-592 1622.5,-76 1622.5,-76 1622.5,-76 1580.59,-76 1580.59,-76"/>
<polygon fill="#757575" stroke="#757575" points="1580.59,-72.5 1570.59,-76 1580.59,-79.5 1580.59,-72.5"/>
</g>
<!-- src/scope.ts -->
<g id="node14" class="node">
<title>src/scope.ts</title>
<path fill="none" stroke="#c6c5fe" d="M81.33,-495C81.33,-495 7.67,-495 7.67,-495 3.83,-495 0,-491.17 0,-487.33 0,-487.33 0,-479.67 0,-479.67 0,-475.83 3.83,-472 7.67,-472 7.67,-472 81.33,-472 81.33,-472 85.17,-472 89,-475.83 89,-479.67 89,-479.67 89,-487.33 89,-487.33 89,-491.17 85.17,-495 81.33,-495"/>
<text text-anchor="middle" x="44.5" y="-479.8" font-family="Arial" font-size="14.00" fill="#c6c5fe">src/scope.ts</text>
</g>
<!-- src/app.ts&#45;&gt;src/scope.ts -->
<g id="edge13" class="edge">
<title>src/app.ts&#45;&gt;src/scope.ts</title>
<path fill="none" stroke="#757575" d="M1922.66,-610C1653.9,-610 44.5,-610 44.5,-610 44.5,-610 44.5,-505.17 44.5,-505.17"/>
<polygon fill="#757575" stroke="#757575" points="48,-505.17 44.5,-495.17 41,-505.17 48,-505.17"/>
</g>
<!-- src/utils/app&#45;handlers.ts -->
<g id="node15" class="node">
<title>src/utils/app&#45;handlers.ts</title>
<path fill="none" stroke="#c6c5fe" d="M1227.33,-554C1227.33,-554 1083.67,-554 1083.67,-554 1079.83,-554 1076,-550.17 1076,-546.33 1076,-546.33 1076,-538.67 1076,-538.67 1076,-534.83 1079.83,-531 1083.67,-531 1083.67,-531 1227.33,-531 1227.33,-531 1231.17,-531 1235,-534.83 1235,-538.67 1235,-538.67 1235,-546.33 1235,-546.33 1235,-550.17 1231.17,-554 1227.33,-554"/>
<text text-anchor="middle" x="1155.5" y="-538.8" font-family="Arial" font-size="14.00" fill="#c6c5fe">src/utils/app&#45;handlers.ts</text>
</g>
<!-- src/app.ts&#45;&gt;src/utils/app&#45;handlers.ts -->
<g id="edge14" class="edge">
<title>src/app.ts&#45;&gt;src/utils/app&#45;handlers.ts</title>
<path fill="none" stroke="#757575" d="M1938,-589.85C1938,-574.38 1938,-549 1938,-549 1938,-549 1245.2,-549 1245.2,-549"/>
<polygon fill="#757575" stroke="#757575" points="1245.2,-545.5 1235.2,-549 1245.2,-552.5 1245.2,-545.5"/>
</g>
<!-- src/utils/array.ts -->
<g id="node16" class="node">
<title>src/utils/array.ts</title>
<path fill="none" stroke="#cfffac" d="M827.83,-82C827.83,-82 733.17,-82 733.17,-82 729.33,-82 725.5,-78.17 725.5,-74.33 725.5,-74.33 725.5,-66.67 725.5,-66.67 725.5,-62.83 729.33,-59 733.17,-59 733.17,-59 827.83,-59 827.83,-59 831.67,-59 835.5,-62.83 835.5,-66.67 835.5,-66.67 835.5,-74.33 835.5,-74.33 835.5,-78.17 831.67,-82 827.83,-82"/>
<text text-anchor="middle" x="780.5" y="-66.8" font-family="Arial" font-size="14.00" fill="#cfffac">src/utils/array.ts</text>
</g>
<!-- src/app.ts&#45;&gt;src/utils/array.ts -->
<g id="edge15" class="edge">
<title>src/app.ts&#45;&gt;src/utils/array.ts</title>
<path fill="none" stroke="#757575" d="M1922.89,-604C1704.29,-604 607,-604 607,-604 607,-604 607,-76 607,-76 607,-76 715.13,-76 715.13,-76"/>
<polygon fill="#757575" stroke="#757575" points="715.13,-79.5 725.13,-76 715.13,-72.5 715.13,-79.5"/>
</g>
<!-- src/utils/this&#45;keyword.ts -->
<g id="node17" class="node">
<title>src/utils/this&#45;keyword.ts</title>
<path fill="none" stroke="#c6c5fe" d="M963.83,-436C963.83,-436 823.17,-436 823.17,-436 819.33,-436 815.5,-432.17 815.5,-428.33 815.5,-428.33 815.5,-420.67 815.5,-420.67 815.5,-416.83 819.33,-413 823.17,-413 823.17,-413 963.83,-413 963.83,-413 967.67,-413 971.5,-416.83 971.5,-420.67 971.5,-420.67 971.5,-428.33 971.5,-428.33 971.5,-432.17 967.67,-436 963.83,-436"/>
<text text-anchor="middle" x="893.5" y="-420.8" font-family="Arial" font-size="14.00" fill="#c6c5fe">src/utils/this&#45;keyword.ts</text>
</g>
<!-- src/app.ts&#45;&gt;src/utils/this&#45;keyword.ts -->
<g id="edge16" class="edge">
<title>src/app.ts&#45;&gt;src/utils/this&#45;keyword.ts</title>
<path fill="none" stroke="#757575" d="M1922.84,-601C1733.37,-601 893.5,-601 893.5,-601 893.5,-601 893.5,-446.08 893.5,-446.08"/>
<polygon fill="#757575" stroke="#757575" points="897,-446.08 893.5,-436.08 890,-446.08 897,-446.08"/>
</g>
<!-- src/expressions/binary&#45;operation.ts&#45;&gt;src/expressions/handlers.ts -->
<g id="edge18" class="edge">
<title>src/expressions/binary&#45;operation.ts&#45;&gt;src/expressions/handlers.ts</title>
<path fill="none" stroke="#757575" d="M1632.83,-412.97C1632.83,-366.06 1632.83,-192 1632.83,-192 1632.83,-192 1187.55,-192 1187.55,-192"/>
<polygon fill="#757575" stroke="#757575" points="1187.55,-188.5 1177.55,-192 1187.55,-195.5 1187.55,-188.5"/>
</g>
<!-- src/expressions/binary&#45;operation.ts&#45;&gt;src/parser.ts -->
<g id="edge20" class="edge">
<title>src/expressions/binary&#45;operation.ts&#45;&gt;src/parser.ts</title>
<path fill="none" stroke="#757575" d="M1639.5,-412.71C1639.5,-351.19 1639.5,-70 1639.5,-70 1639.5,-70 1580.56,-70 1580.56,-70"/>
<polygon fill="#757575" stroke="#757575" points="1580.56,-66.5 1570.56,-70 1580.56,-73.5 1580.56,-66.5"/>
</g>
<!-- src/expressions/operators.ts -->
<g id="node19" class="node">
<title>src/expressions/operators.ts</title>
<path fill="none" stroke="#c6c5fe" d="M1848.33,-377C1848.33,-377 1678.67,-377 1678.67,-377 1674.83,-377 1671,-373.17 1671,-369.33 1671,-369.33 1671,-361.67 1671,-361.67 1671,-357.83 1674.83,-354 1678.67,-354 1678.67,-354 1848.33,-354 1848.33,-354 1852.17,-354 1856,-357.83 1856,-361.67 1856,-361.67 1856,-369.33 1856,-369.33 1856,-373.17 1852.17,-377 1848.33,-377"/>
<text text-anchor="middle" x="1763.5" y="-361.8" font-family="Arial" font-size="14.00" fill="#c6c5fe">src/expressions/operators.ts</text>
</g>
<!-- src/expressions/binary&#45;operation.ts&#45;&gt;src/expressions/operators.ts -->
<g id="edge19" class="edge">
<title>src/expressions/binary&#45;operation.ts&#45;&gt;src/expressions/operators.ts</title>
<path fill="none" stroke="#757575" d="M1763.25,-412.84C1763.25,-412.84 1763.25,-387.13 1763.25,-387.13"/>
<polygon fill="#757575" stroke="#757575" points="1766.75,-387.13 1763.25,-377.13 1759.75,-387.13 1766.75,-387.13"/>
</g>
<!-- src/expressions/grouped&#45;expressions.ts&#45;&gt;src/expressions/handlers.ts -->
<g id="edge21" class="edge">
<title>src/expressions/grouped&#45;expressions.ts&#45;&gt;src/expressions/handlers.ts</title>
<path fill="none" stroke="#757575" d="M2271.83,-353.87C2271.83,-313.81 2271.83,-184 2271.83,-184 2271.83,-184 1187.98,-184 1187.98,-184"/>
<polygon fill="#757575" stroke="#757575" points="1187.98,-180.5 1177.98,-184 1187.98,-187.5 1187.98,-180.5"/>
</g>
<!-- src/expressions/grouped&#45;expressions.ts&#45;&gt;src/match.ts -->
<g id="edge22" class="edge">
<title>src/expressions/grouped&#45;expressions.ts&#45;&gt;src/match.ts</title>
<path fill="none" stroke="#757575" d="M2411.5,-353.84C2411.5,-353.84 2411.5,-328.13 2411.5,-328.13"/>
<polygon fill="#757575" stroke="#757575" points="2415,-328.13 2411.5,-318.13 2408,-328.13 2415,-328.13"/>
</g>
<!-- src/expressions/grouped&#45;expressions.ts&#45;&gt;src/utils/array.ts -->
<g id="edge24" class="edge">
<title>src/expressions/grouped&#45;expressions.ts&#45;&gt;src/utils/array.ts</title>
<path fill="none" stroke="#757575" d="M2328.67,-353.75C2328.67,-302.37 2328.67,-100 2328.67,-100 2328.67,-100 830.5,-100 830.5,-100 830.5,-100 830.5,-92.16 830.5,-92.16"/>
<polygon fill="#757575" stroke="#757575" points="834,-92.16 830.5,-82.16 827,-92.16 834,-92.16"/>
</g>
<!-- src/types/structs.ts -->
<g id="node20" class="node">
<title>src/types/structs.ts</title>
<path fill="none" stroke="#c6c5fe" d="M1199.83,-318C1199.83,-318 1087.17,-318 1087.17,-318 1083.33,-318 1079.5,-314.17 1079.5,-310.33 1079.5,-310.33 1079.5,-302.67 1079.5,-302.67 1079.5,-298.83 1083.33,-295 1087.17,-295 1087.17,-295 1199.83,-295 1199.83,-295 1203.67,-295 1207.5,-298.83 1207.5,-302.67 1207.5,-302.67 1207.5,-310.33 1207.5,-310.33 1207.5,-314.17 1203.67,-318 1199.83,-318"/>
<text text-anchor="middle" x="1143.5" y="-302.8" font-family="Arial" font-size="14.00" fill="#c6c5fe">src/types/structs.ts</text>
</g>
<!-- src/expressions/grouped&#45;expressions.ts&#45;&gt;src/types/structs.ts -->
<g id="edge23" class="edge">
<title>src/expressions/grouped&#45;expressions.ts&#45;&gt;src/types/structs.ts</title>
<path fill="none" stroke="#757575" d="M2194,-353.84C2194,-345.6 2194,-336 2194,-336 2194,-336 1181.9,-336 1181.9,-336 1181.9,-336 1181.9,-328.16 1181.9,-328.16"/>
<polygon fill="#757575" stroke="#757575" points="1185.4,-328.16 1181.9,-318.16 1178.4,-328.16 1185.4,-328.16"/>
</g>
<!-- src/utils/identifier&#45;utils.ts -->
<g id="node21" class="node">
<title>src/utils/identifier&#45;utils.ts</title>
<path fill="none" stroke="#cfffac" d="M1509.83,-259C1509.83,-259 1365.17,-259 1365.17,-259 1361.33,-259 1357.5,-255.17 1357.5,-251.33 1357.5,-251.33 1357.5,-243.67 1357.5,-243.67 1357.5,-239.83 1361.33,-236 1365.17,-236 1365.17,-236 1509.83,-236 1509.83,-236 1513.67,-236 1517.5,-239.83 1517.5,-243.67 1517.5,-243.67 1517.5,-251.33 1517.5,-251.33 1517.5,-255.17 1513.67,-259 1509.83,-259"/>
<text text-anchor="middle" x="1437.5" y="-243.8" font-family="Arial" font-size="14.00" fill="#cfffac">src/utils/identifier&#45;utils.ts</text>
</g>
<!-- src/expressions/grouped&#45;expressions.ts&#45;&gt;src/utils/identifier&#45;utils.ts -->
<g id="edge25" class="edge">
<title>src/expressions/grouped&#45;expressions.ts&#45;&gt;src/utils/identifier&#45;utils.ts</title>
<path fill="none" stroke="#757575" d="M2204.5,-353.74C2204.5,-342.42 2204.5,-327 2204.5,-327 2204.5,-327 1374.17,-327 1374.17,-327 1374.17,-327 1374.17,-269.23 1374.17,-269.23"/>
<polygon fill="#757575" stroke="#757575" points="1377.67,-269.23 1374.17,-259.23 1370.67,-269.23 1377.67,-269.23"/>
</g>
<!-- src/handlers/assignment.ts -->
<g id="node22" class="node">
<title>src/handlers/assignment.ts</title>
<path fill="none" stroke="#c6c5fe" d="M985.83,-141C985.83,-141 823.17,-141 823.17,-141 819.33,-141 815.5,-137.17 815.5,-133.33 815.5,-133.33 815.5,-125.67 815.5,-125.67 815.5,-121.83 819.33,-118 823.17,-118 823.17,-118 985.83,-118 985.83,-118 989.67,-118 993.5,-121.83 993.5,-125.67 993.5,-125.67 993.5,-133.33 993.5,-133.33 993.5,-137.17 989.67,-141 985.83,-141"/>
<text text-anchor="middle" x="904.5" y="-125.8" font-family="Arial" font-size="14.00" fill="#c6c5fe">src/handlers/assignment.ts</text>
</g>
<!-- src/expressions/handlers.ts&#45;&gt;src/handlers/assignment.ts -->
<g id="edge26" class="edge">
<title>src/expressions/handlers.ts&#45;&gt;src/handlers/assignment.ts</title>
<path fill="none" stroke="#757575" d="M997.41,-182C991.74,-182 988.25,-182 988.25,-182 988.25,-182 988.25,-151.15 988.25,-151.15"/>
<polygon fill="#757575" stroke="#757575" points="991.75,-151.15 988.25,-141.15 984.75,-151.15 991.75,-151.15"/>
</g>
<!-- src/types/interpreter.ts -->
<g id="node23" class="node">
<title>src/types/interpreter.ts</title>
<path fill="none" stroke="#cfffac" d="M1003.33,-82C1003.33,-82 869.67,-82 869.67,-82 865.83,-82 862,-78.17 862,-74.33 862,-74.33 862,-66.67 862,-66.67 862,-62.83 865.83,-59 869.67,-59 869.67,-59 1003.33,-59 1003.33,-59 1007.17,-59 1011,-62.83 1011,-66.67 1011,-66.67 1011,-74.33 1011,-74.33 1011,-78.17 1007.17,-82 1003.33,-82"/>
<text text-anchor="middle" x="936.5" y="-66.8" font-family="Arial" font-size="14.00" fill="#cfffac">src/types/interpreter.ts</text>
</g>
<!-- src/expressions/handlers.ts&#45;&gt;src/types/interpreter.ts -->
<g id="edge27" class="edge">
<title>src/expressions/handlers.ts&#45;&gt;src/types/interpreter.ts</title>
<path fill="none" stroke="#757575" d="M1004.25,-176.75C1004.25,-176.75 1004.25,-92.2 1004.25,-92.2"/>
<polygon fill="#757575" stroke="#757575" points="1007.75,-92.2 1004.25,-82.2 1000.75,-92.2 1007.75,-92.2"/>
</g>
<!-- src/utils/scope&#45;helpers.ts -->
<g id="node24" class="node">
<title>src/utils/scope&#45;helpers.ts</title>
<path fill="none" stroke="#c6c5fe" d="M789.33,-141C789.33,-141 639.67,-141 639.67,-141 635.83,-141 632,-137.17 632,-133.33 632,-133.33 632,-125.67 632,-125.67 632,-121.83 635.83,-118 639.67,-118 639.67,-118 789.33,-118 789.33,-118 793.17,-118 797,-121.83 797,-125.67 797,-125.67 797,-133.33 797,-133.33 797,-137.17 793.17,-141 789.33,-141"/>
<text text-anchor="middle" x="714.5" y="-125.8" font-family="Arial" font-size="14.00" fill="#c6c5fe">src/utils/scope&#45;helpers.ts</text>
</g>
<!-- src/expressions/handlers.ts&#45;&gt;src/utils/scope&#45;helpers.ts -->
<g id="edge28" class="edge">
<title>src/expressions/handlers.ts&#45;&gt;src/utils/scope&#45;helpers.ts</title>
<path fill="none" stroke="#757575" d="M997.21,-188C886.82,-188 714.5,-188 714.5,-188 714.5,-188 714.5,-151.06 714.5,-151.06"/>
<polygon fill="#757575" stroke="#757575" points="718,-151.06 714.5,-141.06 711,-151.06 718,-151.06"/>
</g>
<!-- src/handlers/dereference&#45;assignment.ts&#45;&gt;src/expressions/handlers.ts -->
<g id="edge49" class="edge">
<title>src/handlers/dereference&#45;assignment.ts&#45;&gt;src/expressions/handlers.ts</title>
<path fill="none" stroke="#757575" d="M1954.75,-353.85C1954.75,-314.36 1954.75,-188 1954.75,-188 1954.75,-188 1187.86,-188 1187.86,-188"/>
<polygon fill="#757575" stroke="#757575" points="1187.86,-184.5 1177.86,-188 1187.86,-191.5 1187.86,-184.5"/>
</g>
<!-- src/handlers/dereference&#45;assignment.ts&#45;&gt;src/handlers/pointer&#45;operations.ts -->
<g id="edge50" class="edge">
<title>src/handlers/dereference&#45;assignment.ts&#45;&gt;src/handlers/pointer&#45;operations.ts</title>
<path fill="none" stroke="#757575" d="M2081.75,-353.84C2081.75,-353.84 2081.75,-328.13 2081.75,-328.13"/>
<polygon fill="#757575" stroke="#757575" points="2085.25,-328.13 2081.75,-318.13 2078.25,-328.13 2085.25,-328.13"/>
</g>
<!-- src/functions.ts -->
<g id="node30" class="node">
<title>src/functions.ts</title>
<path fill="none" stroke="#c6c5fe" d="M574.33,-377C574.33,-377 482.67,-377 482.67,-377 478.83,-377 475,-373.17 475,-369.33 475,-369.33 475,-361.67 475,-361.67 475,-357.83 478.83,-354 482.67,-354 482.67,-354 574.33,-354 574.33,-354 578.17,-354 582,-357.83 582,-361.67 582,-361.67 582,-369.33 582,-369.33 582,-373.17 578.17,-377 574.33,-377"/>
<text text-anchor="middle" x="528.5" y="-361.8" font-family="Arial" font-size="14.00" fill="#c6c5fe">src/functions.ts</text>
</g>
<!-- src/handlers/lambda&#45;expressions.ts&#45;&gt;src/functions.ts -->
<g id="edge55" class="edge">
<title>src/handlers/lambda&#45;expressions.ts&#45;&gt;src/functions.ts</title>
<path fill="none" stroke="#757575" d="M487.75,-412.84C487.75,-412.84 487.75,-387.13 487.75,-387.13"/>
<polygon fill="#757575" stroke="#757575" points="491.25,-387.13 487.75,-377.13 484.25,-387.13 491.25,-387.13"/>
</g>
<!-- src/handlers/anonymous&#45;functions.ts -->
<g id="node31" class="node">
<title>src/handlers/anonymous&#45;functions.ts</title>
<path fill="none" stroke="#c6c5fe" d="M302.33,-318C302.33,-318 80.67,-318 80.67,-318 76.83,-318 73,-314.17 73,-310.33 73,-310.33 73,-302.67 73,-302.67 73,-298.83 76.83,-295 80.67,-295 80.67,-295 302.33,-295 302.33,-295 306.17,-295 310,-298.83 310,-302.67 310,-302.67 310,-310.33 310,-310.33 310,-314.17 306.17,-318 302.33,-318"/>
<text text-anchor="middle" x="191.5" y="-302.8" font-family="Arial" font-size="14.00" fill="#c6c5fe">src/handlers/anonymous&#45;functions.ts</text>
</g>
<!-- src/handlers/lambda&#45;expressions.ts&#45;&gt;src/handlers/anonymous&#45;functions.ts -->
<g id="edge56" class="edge">
<title>src/handlers/lambda&#45;expressions.ts&#45;&gt;src/handlers/anonymous&#45;functions.ts</title>
<path fill="none" stroke="#757575" d="M283.67,-412.75C283.67,-412.75 283.67,-328.2 283.67,-328.2"/>
<polygon fill="#757575" stroke="#757575" points="287.17,-328.2 283.67,-318.2 280.17,-328.2 287.17,-328.2"/>
</g>
<!-- src/handlers/module&#45;access.ts&#45;&gt;src/expressions/handlers.ts -->
<g id="edge62" class="edge">
<title>src/handlers/module&#45;access.ts&#45;&gt;src/expressions/handlers.ts</title>
<path fill="none" stroke="#757575" d="M1415.4,-361C1285.93,-361 1076.8,-361 1076.8,-361 1076.8,-361 1076.8,-210.09 1076.8,-210.09"/>
<polygon fill="#757575" stroke="#757575" points="1080.3,-210.09 1076.8,-200.09 1073.3,-210.09 1080.3,-210.09"/>
</g>
<!-- src/handlers/module&#45;access.ts&#45;&gt;src/utils/identifier&#45;utils.ts -->
<g id="edge64" class="edge">
<title>src/handlers/module&#45;access.ts&#45;&gt;src/utils/identifier&#45;utils.ts</title>
<path fill="none" stroke="#757575" d="M1544,-353.7C1544,-323.73 1544,-247 1544,-247 1544,-247 1527.67,-247 1527.67,-247"/>
<polygon fill="#757575" stroke="#757575" points="1527.67,-243.5 1517.67,-247 1527.67,-250.5 1527.67,-243.5"/>
</g>
<!-- src/types/modules.ts -->
<g id="node36" class="node">
<title>src/types/modules.ts</title>
<path fill="none" stroke="#c6c5fe" d="M1509.83,-318C1509.83,-318 1385.17,-318 1385.17,-318 1381.33,-318 1377.5,-314.17 1377.5,-310.33 1377.5,-310.33 1377.5,-302.67 1377.5,-302.67 1377.5,-298.83 1381.33,-295 1385.17,-295 1385.17,-295 1509.83,-295 1509.83,-295 1513.67,-295 1517.5,-298.83 1517.5,-302.67 1517.5,-302.67 1517.5,-310.33 1517.5,-310.33 1517.5,-314.17 1513.67,-318 1509.83,-318"/>
<text text-anchor="middle" x="1447.5" y="-302.8" font-family="Arial" font-size="14.00" fill="#c6c5fe">src/types/modules.ts</text>
</g>
<!-- src/handlers/module&#45;access.ts&#45;&gt;src/types/modules.ts -->
<g id="edge63" class="edge">
<title>src/handlers/module&#45;access.ts&#45;&gt;src/types/modules.ts</title>
<path fill="none" stroke="#757575" d="M1466.5,-353.84C1466.5,-353.84 1466.5,-328.13 1466.5,-328.13"/>
<polygon fill="#757575" stroke="#757575" points="1470,-328.13 1466.5,-318.13 1463,-328.13 1470,-328.13"/>
</g>
<!-- src/handlers/pointer&#45;operations.ts&#45;&gt;src/utils/identifier&#45;utils.ts -->
<g id="edge65" class="edge">
<title>src/handlers/pointer&#45;operations.ts&#45;&gt;src/utils/identifier&#45;utils.ts</title>
<path fill="none" stroke="#757575" d="M2106.5,-294.57C2106.5,-282.62 2106.5,-266 2106.5,-266 2106.5,-266 1482.5,-266 1482.5,-266 1482.5,-266 1482.5,-265.33 1482.5,-265.33"/>
<polygon fill="#757575" stroke="#757575" points="1486,-269.32 1482.5,-259.32 1479,-269.32 1486,-269.32"/>
</g>
<!-- src/loops/for.ts&#45;&gt;src/loops/loop.ts -->
<g id="edge67" class="edge">
<title>src/loops/for.ts&#45;&gt;src/loops/loop.ts</title>
<path fill="none" stroke="#757575" d="M2867.63,-542C2907.43,-542 2955.5,-542 2955.5,-542 2955.5,-542 2955.5,-505.06 2955.5,-505.06"/>
<polygon fill="#757575" stroke="#757575" points="2959,-505.06 2955.5,-495.06 2952,-505.06 2959,-505.06"/>
</g>
<!-- src/loops/helpers.ts -->
<g id="node37" class="node">
<title>src/loops/helpers.ts</title>
<path fill="none" stroke="#cfffac" d="M2733.33,-495C2733.33,-495 2615.67,-495 2615.67,-495 2611.83,-495 2608,-491.17 2608,-487.33 2608,-487.33 2608,-479.67 2608,-479.67 2608,-475.83 2611.83,-472 2615.67,-472 2615.67,-472 2733.33,-472 2733.33,-472 2737.17,-472 2741,-475.83 2741,-479.67 2741,-479.67 2741,-487.33 2741,-487.33 2741,-491.17 2737.17,-495 2733.33,-495"/>
<text text-anchor="middle" x="2674.5" y="-479.8" font-family="Arial" font-size="14.00" fill="#cfffac">src/loops/helpers.ts</text>
</g>
<!-- src/loops/for.ts&#45;&gt;src/loops/helpers.ts -->
<g id="edge66" class="edge">
<title>src/loops/for.ts&#45;&gt;src/loops/helpers.ts</title>
<path fill="none" stroke="#757575" d="M2763.32,-538C2757.15,-538 2753,-538 2753,-538 2753,-538 2753,-487 2753,-487 2753,-487 2751.08,-487 2751.08,-487"/>
<polygon fill="#757575" stroke="#757575" points="2751.08,-483.5 2741.08,-487 2751.08,-490.5 2751.08,-483.5"/>
</g>
<!-- src/loops/types.ts -->
<g id="node38" class="node">
<title>src/loops/types.ts</title>
<path fill="none" stroke="#c6c5fe" d="M2872.33,-495C2872.33,-495 2766.67,-495 2766.67,-495 2762.83,-495 2759,-491.17 2759,-487.33 2759,-487.33 2759,-479.67 2759,-479.67 2759,-475.83 2762.83,-472 2766.67,-472 2766.67,-472 2872.33,-472 2872.33,-472 2876.17,-472 2880,-475.83 2880,-479.67 2880,-479.67 2880,-487.33 2880,-487.33 2880,-491.17 2876.17,-495 2872.33,-495"/>
<text text-anchor="middle" x="2819.5" y="-479.8" font-family="Arial" font-size="14.00" fill="#c6c5fe">src/loops/types.ts</text>
</g>
<!-- src/loops/for.ts&#45;&gt;src/loops/types.ts -->
<g id="edge68" class="edge">
<title>src/loops/for.ts&#45;&gt;src/loops/types.ts</title>
<path fill="none" stroke="#757575" d="M2815.5,-530.84C2815.5,-530.84 2815.5,-505.13 2815.5,-505.13"/>
<polygon fill="#757575" stroke="#757575" points="2819,-505.13 2815.5,-495.13 2812,-505.13 2819,-505.13"/>
</g>
<!-- src/loops/while.ts&#45;&gt;src/loops/loop.ts -->
<g id="edge71" class="edge">
<title>src/loops/while.ts&#45;&gt;src/loops/loop.ts</title>
<path fill="none" stroke="#757575" d="M2698.33,-530.84C2698.33,-522.6 2698.33,-513 2698.33,-513 2698.33,-513 2927,-513 2927,-513 2927,-513 2927,-505.16 2927,-505.16"/>
<polygon fill="#757575" stroke="#757575" points="2930.5,-505.16 2927,-495.16 2923.5,-505.16 2930.5,-505.16"/>
</g>
<!-- src/loops/while.ts&#45;&gt;src/loops/helpers.ts -->
<g id="edge70" class="edge">
<title>src/loops/while.ts&#45;&gt;src/loops/helpers.ts</title>
<path fill="none" stroke="#757575" d="M2658.67,-530.84C2658.67,-530.84 2658.67,-505.13 2658.67,-505.13"/>
<polygon fill="#757575" stroke="#757575" points="2662.17,-505.13 2658.67,-495.13 2655.17,-505.13 2662.17,-505.13"/>
</g>
<!-- src/loops/while.ts&#45;&gt;src/loops/types.ts -->
<g id="edge72" class="edge">
<title>src/loops/while.ts&#45;&gt;src/loops/types.ts</title>
<path fill="none" stroke="#757575" d="M2738.04,-546C2743.48,-546 2747,-546 2747,-546 2747,-546 2747,-479 2747,-479 2747,-479 2748.97,-479 2748.97,-479"/>
<polygon fill="#757575" stroke="#757575" points="2748.97,-482.5 2758.97,-479 2748.97,-475.5 2748.97,-482.5"/>
</g>
<!-- src/type&#45;utils.ts -->
<g id="node27" class="node">
<title>src/type&#45;utils.ts</title>
<path fill="none" stroke="#cfffac" d="M591.33,-23C591.33,-23 499.67,-23 499.67,-23 495.83,-23 492,-19.17 492,-15.33 492,-15.33 492,-7.67 492,-7.67 492,-3.83 495.83,0 499.67,0 499.67,0 591.33,0 591.33,0 595.17,0 599,-3.83 599,-7.67 599,-7.67 599,-15.33 599,-15.33 599,-19.17 595.17,-23 591.33,-23"/>
<text text-anchor="middle" x="545.5" y="-7.8" font-family="Arial" font-size="14.00" fill="#cfffac">src/type&#45;utils.ts</text>
</g>
<!-- src/parser.ts&#45;&gt;src/type&#45;utils.ts -->
<g id="edge73" class="edge">
<title>src/parser.ts&#45;&gt;src/type&#45;utils.ts</title>
<path fill="none" stroke="#757575" d="M1525.5,-58.74C1525.5,-41.4 1525.5,-11 1525.5,-11 1525.5,-11 609.23,-11 609.23,-11"/>
<polygon fill="#757575" stroke="#757575" points="609.23,-7.5 599.23,-11 609.23,-14.5 609.23,-7.5"/>
</g>
<!-- src/scope.ts&#45;&gt;src/expressions/handlers.ts -->
<g id="edge74" class="edge">
<title>src/scope.ts&#45;&gt;src/expressions/handlers.ts</title>
<path fill="none" stroke="#757575" d="M89.15,-489C281.74,-489 1031.6,-489 1031.6,-489 1031.6,-489 1031.6,-210.28 1031.6,-210.28"/>
<polygon fill="#757575" stroke="#757575" points="1035.1,-210.28 1031.6,-200.28 1028.1,-210.28 1035.1,-210.28"/>
</g>
<!-- src/scope.ts&#45;&gt;src/handlers/lambda&#45;expressions.ts -->
<g id="edge77" class="edge">
<title>src/scope.ts&#45;&gt;src/handlers/lambda&#45;expressions.ts</title>
<path fill="none" stroke="#757575" d="M89.16,-477C173.35,-477 347.17,-477 347.17,-477 347.17,-477 347.17,-446.15 347.17,-446.15"/>
<polygon fill="#757575" stroke="#757575" points="350.67,-446.15 347.17,-436.15 343.67,-446.15 350.67,-446.15"/>
</g>
<!-- src/scope.ts&#45;&gt;src/parser.ts -->
<g id="edge78" class="edge">
<title>src/scope.ts&#45;&gt;src/parser.ts</title>
<path fill="none" stroke="#757575" d="M48.67,-471.75C48.67,-420.37 48.67,-218 48.67,-218 48.67,-218 1505.17,-218 1505.17,-218 1505.17,-218 1505.17,-92.07 1505.17,-92.07"/>
<polygon fill="#757575" stroke="#757575" points="1508.67,-92.07 1505.17,-82.07 1501.67,-92.07 1508.67,-92.07"/>
</g>
<!-- src/scope.ts&#45;&gt;src/utils/array.ts -->
<g id="edge79" class="edge">
<title>src/scope.ts&#45;&gt;src/utils/array.ts</title>
<path fill="none" stroke="#757575" d="M89.26,-483C221.79,-483 603,-483 603,-483 603,-483 603,-70 603,-70 603,-70 715.31,-70 715.31,-70"/>
<polygon fill="#757575" stroke="#757575" points="715.31,-73.5 725.31,-70 715.31,-66.5 715.31,-73.5"/>
</g>
<!-- src/scope.ts&#45;&gt;src/utils/scope&#45;helpers.ts -->
<g id="edge81" class="edge">
<title>src/scope.ts&#45;&gt;src/utils/scope&#45;helpers.ts</title>
<path fill="none" stroke="#757575" d="M36.5,-471.84C36.5,-411.02 36.5,-133 36.5,-133 36.5,-133 621.7,-133 621.7,-133"/>
<polygon fill="#757575" stroke="#757575" points="621.7,-136.5 631.7,-133 621.7,-129.5 621.7,-136.5"/>
</g>
<!-- src/function&#45;type&#45;handler.ts -->
<g id="node29" class="node">
<title>src/function&#45;type&#45;handler.ts</title>
<path fill="none" stroke="#c6c5fe" d="M244.33,-436C244.33,-436 80.67,-436 80.67,-436 76.83,-436 73,-432.17 73,-428.33 73,-428.33 73,-420.67 73,-420.67 73,-416.83 76.83,-413 80.67,-413 80.67,-413 244.33,-413 244.33,-413 248.17,-413 252,-416.83 252,-420.67 252,-420.67 252,-428.33 252,-428.33 252,-432.17 248.17,-436 244.33,-436"/>
<text text-anchor="middle" x="162.5" y="-420.8" font-family="Arial" font-size="14.00" fill="#c6c5fe">src/function&#45;type&#45;handler.ts</text>
</g>
<!-- src/scope.ts&#45;&gt;src/function&#45;type&#45;handler.ts -->
<g id="edge75" class="edge">
<title>src/scope.ts&#45;&gt;src/function&#45;type&#45;handler.ts</title>
<path fill="none" stroke="#757575" d="M81,-471.84C81,-471.84 81,-446.13 81,-446.13"/>
<polygon fill="#757575" stroke="#757575" points="84.5,-446.13 81,-436.13 77.5,-446.13 84.5,-446.13"/>
</g>
<!-- src/scope.ts&#45;&gt;src/functions.ts -->
<g id="edge76" class="edge">
<title>src/scope.ts&#45;&gt;src/functions.ts</title>
<path fill="none" stroke="#757575" d="M60.83,-471.9C60.83,-442.44 60.83,-367 60.83,-367 60.83,-367 464.85,-367 464.85,-367"/>
<polygon fill="#757575" stroke="#757575" points="464.85,-370.5 474.85,-367 464.85,-363.5 464.85,-370.5"/>
</g>
<!-- src/utils/function&#45;utils.ts -->
<g id="node34" class="node">
<title>src/utils/function&#45;utils.ts</title>
<path fill="none" stroke="#c6c5fe" d="M420.83,-82C420.83,-82 280.17,-82 280.17,-82 276.33,-82 272.5,-78.17 272.5,-74.33 272.5,-74.33 272.5,-66.67 272.5,-66.67 272.5,-62.83 276.33,-59 280.17,-59 280.17,-59 420.83,-59 420.83,-59 424.67,-59 428.5,-62.83 428.5,-66.67 428.5,-66.67 428.5,-74.33 428.5,-74.33 428.5,-78.17 424.67,-82 420.83,-82"/>
<text text-anchor="middle" x="350.5" y="-66.8" font-family="Arial" font-size="14.00" fill="#c6c5fe">src/utils/function&#45;utils.ts</text>
</g>
<!-- src/scope.ts&#45;&gt;src/utils/function&#45;utils.ts -->
<g id="edge80" class="edge">
<title>src/scope.ts&#45;&gt;src/utils/function&#45;utils.ts</title>
<path fill="none" stroke="#757575" d="M24.33,-471.57C24.33,-403.77 24.33,-70 24.33,-70 24.33,-70 262.37,-70 262.37,-70"/>
<polygon fill="#757575" stroke="#757575" points="262.37,-73.5 272.37,-70 262.37,-66.5 262.37,-73.5"/>
</g>
<!-- src/utils/app&#45;handlers.ts&#45;&gt;src/expressions/handlers.ts -->
<g id="edge89" class="edge">
<title>src/utils/app&#45;handlers.ts&#45;&gt;src/expressions/handlers.ts</title>
<path fill="none" stroke="#757575" d="M1075.72,-538C1060.29,-538 1048.8,-538 1048.8,-538 1048.8,-538 1048.8,-210.13 1048.8,-210.13"/>
<polygon fill="#757575" stroke="#757575" points="1052.3,-210.13 1048.8,-200.13 1045.3,-210.13 1052.3,-210.13"/>
</g>
<!-- src/utils/app&#45;handlers.ts&#45;&gt;src/types/structs.ts -->
<g id="edge94" class="edge">
<title>src/utils/app&#45;handlers.ts&#45;&gt;src/types/structs.ts</title>
<path fill="none" stroke="#757575" d="M1075.85,-534C1064.95,-534 1057.4,-534 1057.4,-534 1057.4,-534 1057.4,-306 1057.4,-306 1057.4,-306 1069.13,-306 1069.13,-306"/>
<polygon fill="#757575" stroke="#757575" points="1069.13,-309.5 1079.13,-306 1069.13,-302.5 1069.13,-309.5"/>
</g>
<!-- src/expressions/unary&#45;operation.ts -->
<g id="node28" class="node">
<title>src/expressions/unary&#45;operation.ts</title>
<path fill="none" stroke="#c6c5fe" d="M1331.33,-259C1331.33,-259 1123.67,-259 1123.67,-259 1119.83,-259 1116,-255.17 1116,-251.33 1116,-251.33 1116,-243.67 1116,-243.67 1116,-239.83 1119.83,-236 1123.67,-236 1123.67,-236 1331.33,-236 1331.33,-236 1335.17,-236 1339,-239.83 1339,-243.67 1339,-243.67 1339,-251.33 1339,-251.33 1339,-255.17 1335.17,-259 1331.33,-259"/>
<text text-anchor="middle" x="1227.5" y="-243.8" font-family="Arial" font-size="14.00" fill="#c6c5fe">src/expressions/unary&#45;operation.ts</text>
</g>
<!-- src/utils/app&#45;handlers.ts&#45;&gt;src/expressions/unary&#45;operation.ts -->
<g id="edge90" class="edge">
<title>src/utils/app&#45;handlers.ts&#45;&gt;src/expressions/unary&#45;operation.ts</title>
<path fill="none" stroke="#757575" d="M1235.06,-535C1248.26,-535 1257.75,-535 1257.75,-535 1257.75,-535 1257.75,-269.13 1257.75,-269.13"/>
<polygon fill="#757575" stroke="#757575" points="1261.25,-269.13 1257.75,-259.13 1254.25,-269.13 1261.25,-269.13"/>
</g>
<!-- src/utils/app&#45;handlers.ts&#45;&gt;src/functions.ts -->
<g id="edge91" class="edge">
<title>src/utils/app&#45;handlers.ts&#45;&gt;src/functions.ts</title>
<path fill="none" stroke="#757575" d="M1075.83,-550C909.63,-550 541.25,-550 541.25,-550 541.25,-550 541.25,-387.04 541.25,-387.04"/>
<polygon fill="#757575" stroke="#757575" points="544.75,-387.04 541.25,-377.04 537.75,-387.04 544.75,-387.04"/>
</g>
<!-- src/utils/function&#45;call&#45;params.ts -->
<g id="node33" class="node">
<title>src/utils/function&#45;call&#45;params.ts</title>
<path fill="none" stroke="#c6c5fe" d="M806.33,-318C806.33,-318 618.67,-318 618.67,-318 614.83,-318 611,-314.17 611,-310.33 611,-310.33 611,-302.67 611,-302.67 611,-298.83 614.83,-295 618.67,-295 618.67,-295 806.33,-295 806.33,-295 810.17,-295 814,-298.83 814,-302.67 814,-302.67 814,-310.33 814,-310.33 814,-314.17 810.17,-318 806.33,-318"/>
<text text-anchor="middle" x="712.5" y="-302.8" font-family="Arial" font-size="14.00" fill="#c6c5fe">src/utils/function&#45;call&#45;params.ts</text>
</g>
<!-- src/utils/app&#45;handlers.ts&#45;&gt;src/utils/function&#45;call&#45;params.ts -->
<g id="edge96" class="edge">
<title>src/utils/app&#45;handlers.ts&#45;&gt;src/utils/function&#45;call&#45;params.ts</title>
<path fill="none" stroke="#757575" d="M1075.64,-546C956.56,-546 746.33,-546 746.33,-546 746.33,-546 746.33,-328.05 746.33,-328.05"/>
<polygon fill="#757575" stroke="#757575" points="749.83,-328.05 746.33,-318.05 742.83,-328.05 749.83,-328.05"/>
</g>
<!-- src/handlers/method&#45;call.ts -->
<g id="node35" class="node">
<title>src/handlers/method&#45;call.ts</title>
<path fill="none" stroke="#c6c5fe" d="M1237.33,-495C1237.33,-495 1073.67,-495 1073.67,-495 1069.83,-495 1066,-491.17 1066,-487.33 1066,-487.33 1066,-479.67 1066,-479.67 1066,-475.83 1069.83,-472 1073.67,-472 1073.67,-472 1237.33,-472 1237.33,-472 1241.17,-472 1245,-475.83 1245,-479.67 1245,-479.67 1245,-487.33 1245,-487.33 1245,-491.17 1241.17,-495 1237.33,-495"/>
<text text-anchor="middle" x="1155.5" y="-479.8" font-family="Arial" font-size="14.00" fill="#c6c5fe">src/handlers/method&#45;call.ts</text>
</g>
<!-- src/utils/app&#45;handlers.ts&#45;&gt;src/handlers/method&#45;call.ts -->
<g id="edge92" class="edge">
<title>src/utils/app&#45;handlers.ts&#45;&gt;src/handlers/method&#45;call.ts</title>
<path fill="none" stroke="#757575" d="M1155.5,-530.84C1155.5,-530.84 1155.5,-505.13 1155.5,-505.13"/>
<polygon fill="#757575" stroke="#757575" points="1159,-505.13 1155.5,-495.13 1152,-505.13 1159,-505.13"/>
</g>
<!-- src/utils/app&#45;handlers.ts&#45;&gt;src/types/modules.ts -->
<g id="edge93" class="edge">
<title>src/utils/app&#45;handlers.ts&#45;&gt;src/types/modules.ts</title>
<path fill="none" stroke="#757575" d="M1235.12,-540C1307.42,-540 1402.83,-540 1402.83,-540 1402.83,-540 1402.83,-328.08 1402.83,-328.08"/>
<polygon fill="#757575" stroke="#757575" points="1406.33,-328.08 1402.83,-318.08 1399.33,-328.08 1406.33,-328.08"/>
</g>
<!-- src/types/type&#45;declarations.ts -->
<g id="node39" class="node">
<title>src/types/type&#45;declarations.ts</title>
<path fill="none" stroke="#c6c5fe" d="M1015.33,-318C1015.33,-318 839.67,-318 839.67,-318 835.83,-318 832,-314.17 832,-310.33 832,-310.33 832,-302.67 832,-302.67 832,-298.83 835.83,-295 839.67,-295 839.67,-295 1015.33,-295 1015.33,-295 1019.17,-295 1023,-298.83 1023,-302.67 1023,-302.67 1023,-310.33 1023,-310.33 1023,-314.17 1019.17,-318 1015.33,-318"/>
<text text-anchor="middle" x="927.5" y="-302.8" font-family="Arial" font-size="14.00" fill="#c6c5fe">src/types/type&#45;declarations.ts</text>
</g>
<!-- src/utils/app&#45;handlers.ts&#45;&gt;src/types/type&#45;declarations.ts -->
<g id="edge95" class="edge">
<title>src/utils/app&#45;handlers.ts&#45;&gt;src/types/type&#45;declarations.ts</title>
<path fill="none" stroke="#757575" d="M1075.91,-542C1036.5,-542 997.25,-542 997.25,-542 997.25,-542 997.25,-328.18 997.25,-328.18"/>
<polygon fill="#757575" stroke="#757575" points="1000.75,-328.18 997.25,-318.18 993.75,-328.18 1000.75,-328.18"/>
</g>
<!-- src/utils/this&#45;keyword.ts&#45;&gt;src/types/structs.ts -->
<g id="edge105" class="edge">
<title>src/utils/this&#45;keyword.ts&#45;&gt;src/types/structs.ts</title>
<path fill="none" stroke="#757575" d="M971.69,-420C1031.97,-420 1105.1,-420 1105.1,-420 1105.1,-420 1105.1,-328.22 1105.1,-328.22"/>
<polygon fill="#757575" stroke="#757575" points="1108.6,-328.22 1105.1,-318.22 1101.6,-328.22 1108.6,-328.22"/>
</g>
<!-- src/utils/this&#45;keyword.ts&#45;&gt;src/functions.ts -->
<g id="edge104" class="edge">
<title>src/utils/this&#45;keyword.ts&#45;&gt;src/functions.ts</title>
<path fill="none" stroke="#757575" d="M823.75,-412.81C823.75,-397.62 823.75,-373 823.75,-373 823.75,-373 592.31,-373 592.31,-373"/>
<polygon fill="#757575" stroke="#757575" points="592.31,-369.5 582.31,-373 592.31,-376.5 592.31,-369.5"/>
</g>
<!-- src/declarations.ts -->
<g id="node18" class="node">
<title>src/declarations.ts</title>
<path fill="none" stroke="#c6c5fe" d="M975.33,-259C975.33,-259 865.67,-259 865.67,-259 861.83,-259 858,-255.17 858,-251.33 858,-251.33 858,-243.67 858,-243.67 858,-239.83 861.83,-236 865.67,-236 865.67,-236 975.33,-236 975.33,-236 979.17,-236 983,-239.83 983,-243.67 983,-243.67 983,-251.33 983,-251.33 983,-255.17 979.17,-259 975.33,-259"/>
<text text-anchor="middle" x="920.5" y="-243.8" font-family="Arial" font-size="14.00" fill="#c6c5fe">src/declarations.ts</text>
</g>
<!-- src/declarations.ts&#45;&gt;src/expressions/handlers.ts -->
<g id="edge17" class="edge">
<title>src/declarations.ts&#45;&gt;src/expressions/handlers.ts</title>
<path fill="none" stroke="#757575" d="M983.32,-243C998.41,-243 1010.25,-243 1010.25,-243 1010.25,-243 1010.25,-210.06 1010.25,-210.06"/>
<polygon fill="#757575" stroke="#757575" points="1013.75,-210.06 1010.25,-200.06 1006.75,-210.06 1013.75,-210.06"/>
</g>
<!-- src/expressions/operators.ts&#45;&gt;src/handlers/pointer&#45;operations.ts -->
<g id="edge31" class="edge">
<title>src/expressions/operators.ts&#45;&gt;src/handlers/pointer&#45;operations.ts</title>
<path fill="none" stroke="#757575" d="M1856.26,-365C1870.46,-365 1880.5,-365 1880.5,-365 1880.5,-365 1880.5,-306 1880.5,-306 1880.5,-306 1987.8,-306 1987.8,-306"/>
<polygon fill="#757575" stroke="#757575" points="1987.8,-309.5 1997.8,-306 1987.8,-302.5 1987.8,-309.5"/>
</g>
<!-- src/expressions/operators.ts&#45;&gt;src/parser.ts -->
<g id="edge32" class="edge">
<title>src/expressions/operators.ts&#45;&gt;src/parser.ts</title>
<path fill="none" stroke="#757575" d="M1670.82,-365C1654.62,-365 1642.83,-365 1642.83,-365 1642.83,-365 1642.83,-64 1642.83,-64 1642.83,-64 1580.53,-64 1580.53,-64"/>
<polygon fill="#757575" stroke="#757575" points="1580.53,-60.5 1570.53,-64 1580.53,-67.5 1580.53,-60.5"/>
</g>
<!-- src/expressions/operators.ts&#45;&gt;src/utils/array.ts -->
<g id="edge35" class="edge">
<title>src/expressions/operators.ts&#45;&gt;src/utils/array.ts</title>
<path fill="none" stroke="#757575" d="M1670.96,-371C1651.21,-371 1636.17,-371 1636.17,-371 1636.17,-371 1636.17,-109 1636.17,-109 1636.17,-109 825.5,-109 825.5,-109 825.5,-109 825.5,-92.26 825.5,-92.26"/>
<polygon fill="#757575" stroke="#757575" points="829,-92.26 825.5,-82.26 822,-92.26 829,-92.26"/>
</g>
<!-- src/expressions/operators.ts&#45;&gt;src/types/structs.ts -->
<g id="edge34" class="edge">
<title>src/expressions/operators.ts&#45;&gt;src/types/structs.ts</title>
<path fill="none" stroke="#757575" d="M1732.67,-353.81C1732.67,-349.21 1732.67,-345 1732.67,-345 1732.67,-345 1156.3,-345 1156.3,-345 1156.3,-345 1156.3,-328.26 1156.3,-328.26"/>
<polygon fill="#757575" stroke="#757575" points="1159.8,-328.26 1156.3,-318.26 1152.8,-328.26 1159.8,-328.26"/>
</g>
<!-- src/expressions/operator&#45;finder.ts -->
<g id="node25" class="node">
<title>src/expressions/operator&#45;finder.ts</title>
<path fill="none" stroke="#c6c5fe" d="M1857.83,-318C1857.83,-318 1657.17,-318 1657.17,-318 1653.33,-318 1649.5,-314.17 1649.5,-310.33 1649.5,-310.33 1649.5,-302.67 1649.5,-302.67 1649.5,-298.83 1653.33,-295 1657.17,-295 1657.17,-295 1857.83,-295 1857.83,-295 1861.67,-295 1865.5,-298.83 1865.5,-302.67 1865.5,-302.67 1865.5,-310.33 1865.5,-310.33 1865.5,-314.17 1861.67,-318 1857.83,-318"/>
<text text-anchor="middle" x="1757.5" y="-302.8" font-family="Arial" font-size="14.00" fill="#c6c5fe">src/expressions/operator&#45;finder.ts</text>
</g>
<!-- src/expressions/operators.ts&#45;&gt;src/expressions/operator&#45;finder.ts -->
<g id="edge30" class="edge">
<title>src/expressions/operators.ts&#45;&gt;src/expressions/operator&#45;finder.ts</title>
<path fill="none" stroke="#757575" d="M1794.33,-353.84C1794.33,-353.84 1794.33,-328.13 1794.33,-328.13"/>
<polygon fill="#757575" stroke="#757575" points="1797.83,-328.13 1794.33,-318.13 1790.83,-328.13 1797.83,-328.13"/>
</g>
<!-- src/expressions/operators.ts&#45;&gt;src/type&#45;utils.ts -->
<g id="edge33" class="edge">
<title>src/expressions/operators.ts&#45;&gt;src/type&#45;utils.ts</title>
<path fill="none" stroke="#757575" d="M1670.76,-359C1656.37,-359 1646.17,-359 1646.17,-359 1646.17,-359 1646.17,-5 1646.17,-5 1646.17,-5 609.33,-5 609.33,-5"/>
<polygon fill="#757575" stroke="#757575" points="609.33,-1.5 599.33,-5 609.33,-8.5 609.33,-1.5"/>
</g>
<!-- src/types/structs.ts&#45;&gt;src/expressions/handlers.ts -->
<g id="edge86" class="edge">
<title>src/types/structs.ts&#45;&gt;src/expressions/handlers.ts</title>
<path fill="none" stroke="#757575" d="M1103.83,-294.75C1103.83,-294.75 1103.83,-210.2 1103.83,-210.2"/>
<polygon fill="#757575" stroke="#757575" points="1107.33,-210.2 1103.83,-200.2 1100.33,-210.2 1107.33,-210.2"/>
</g>
<!-- src/types/structs.ts&#45;&gt;src/declarations.ts -->
<g id="edge85" class="edge">
<title>src/types/structs.ts&#45;&gt;src/declarations.ts</title>
<path fill="none" stroke="#757575" d="M1091.67,-294.73C1091.67,-278.44 1091.67,-251 1091.67,-251 1091.67,-251 993.26,-251 993.26,-251"/>
<polygon fill="#757575" stroke="#757575" points="993.26,-247.5 983.26,-251 993.26,-254.5 993.26,-247.5"/>
</g>
<!-- src/handlers/assignment.ts&#45;&gt;src/utils/array.ts -->
<g id="edge48" class="edge">
<title>src/handlers/assignment.ts&#45;&gt;src/utils/array.ts</title>
<path fill="none" stroke="#757575" d="M820.5,-117.84C820.5,-117.84 820.5,-92.13 820.5,-92.13"/>
<polygon fill="#757575" stroke="#757575" points="824,-92.13 820.5,-82.13 817,-92.13 824,-92.13"/>
</g>
<!-- src/handlers/assignment.ts&#45;&gt;src/types/interpreter.ts -->
<g id="edge47" class="edge">
<title>src/handlers/assignment.ts&#45;&gt;src/types/interpreter.ts</title>
<path fill="none" stroke="#757575" d="M927.75,-117.84C927.75,-117.84 927.75,-92.13 927.75,-92.13"/>
<polygon fill="#757575" stroke="#757575" points="931.25,-92.13 927.75,-82.13 924.25,-92.13 931.25,-92.13"/>
</g>
<!-- src/utils/scope&#45;helpers.ts&#45;&gt;src/parser.ts -->
<g id="edge100" class="edge">
<title>src/utils/scope&#45;helpers.ts&#45;&gt;src/parser.ts</title>
<path fill="none" stroke="#757575" d="M773.17,-117.74C773.17,-106.42 773.17,-91 773.17,-91 773.17,-91 1492.83,-91 1492.83,-91 1492.83,-91 1492.83,-90.12 1492.83,-90.12"/>
<polygon fill="#757575" stroke="#757575" points="1496.33,-92.19 1492.83,-82.19 1489.33,-92.19 1496.33,-92.19"/>
</g>
<!-- src/utils/scope&#45;helpers.ts&#45;&gt;src/utils/array.ts -->
<g id="edge102" class="edge">
<title>src/utils/scope&#45;helpers.ts&#45;&gt;src/utils/array.ts</title>
<path fill="none" stroke="#757575" d="M749.33,-117.84C749.33,-117.84 749.33,-92.13 749.33,-92.13"/>
<polygon fill="#757575" stroke="#757575" points="752.83,-92.13 749.33,-82.13 745.83,-92.13 752.83,-92.13"/>
</g>
<!-- src/utils/scope&#45;helpers.ts&#45;&gt;src/type&#45;utils.ts -->
<g id="edge101" class="edge">
<title>src/utils/scope&#45;helpers.ts&#45;&gt;src/type&#45;utils.ts</title>
<path fill="none" stroke="#757575" d="M678.75,-117.88C678.75,-89.14 678.75,-17 678.75,-17 678.75,-17 609.31,-17 609.31,-17"/>
<polygon fill="#757575" stroke="#757575" points="609.31,-13.5 599.31,-17 609.31,-20.5 609.31,-13.5"/>
</g>
<!-- src/utils/scope&#45;helpers.ts&#45;&gt;src/utils/function&#45;utils.ts -->
<g id="edge103" class="edge">
<title>src/utils/scope&#45;helpers.ts&#45;&gt;src/utils/function&#45;utils.ts</title>
<path fill="none" stroke="#757575" d="M631.92,-125C541.09,-125 407.83,-125 407.83,-125 407.83,-125 407.83,-92.06 407.83,-92.06"/>
<polygon fill="#757575" stroke="#757575" points="411.33,-92.06 407.83,-82.06 404.33,-92.06 411.33,-92.06"/>
</g>
<!-- src/expressions/operator&#45;utils.ts -->
<g id="node26" class="node">
<title>src/expressions/operator&#45;utils.ts</title>
<path fill="none" stroke="#cfffac" d="M1849.33,-259C1849.33,-259 1657.67,-259 1657.67,-259 1653.83,-259 1650,-255.17 1650,-251.33 1650,-251.33 1650,-243.67 1650,-243.67 1650,-239.83 1653.83,-236 1657.67,-236 1657.67,-236 1849.33,-236 1849.33,-236 1853.17,-236 1857,-239.83 1857,-243.67 1857,-243.67 1857,-251.33 1857,-251.33 1857,-255.17 1853.17,-259 1849.33,-259"/>
<text text-anchor="middle" x="1753.5" y="-243.8" font-family="Arial" font-size="14.00" fill="#cfffac">src/expressions/operator&#45;utils.ts</text>
</g>
<!-- src/expressions/operator&#45;finder.ts&#45;&gt;src/expressions/operator&#45;utils.ts -->
<g id="edge29" class="edge">
<title>src/expressions/operator&#45;finder.ts&#45;&gt;src/expressions/operator&#45;utils.ts</title>
<path fill="none" stroke="#757575" d="M1753.5,-294.84C1753.5,-294.84 1753.5,-269.13 1753.5,-269.13"/>
<polygon fill="#757575" stroke="#757575" points="1757,-269.13 1753.5,-259.13 1750,-269.13 1757,-269.13"/>
</g>
<!-- src/expressions/unary&#45;operation.ts&#45;&gt;src/expressions/handlers.ts -->
<g id="edge36" class="edge">
<title>src/expressions/unary&#45;operation.ts&#45;&gt;src/expressions/handlers.ts</title>
<path fill="none" stroke="#757575" d="M1146.75,-235.84C1146.75,-235.84 1146.75,-210.13 1146.75,-210.13"/>
<polygon fill="#757575" stroke="#757575" points="1150.25,-210.13 1146.75,-200.13 1143.25,-210.13 1150.25,-210.13"/>
</g>
<!-- src/function&#45;type&#45;handler.ts&#45;&gt;src/type&#45;utils.ts -->
<g id="edge38" class="edge">
<title>src/function&#45;type&#45;handler.ts&#45;&gt;src/type&#45;utils.ts</title>
<path fill="none" stroke="#757575" d="M72.88,-424C40.69,-424 12.17,-424 12.17,-424 12.17,-424 12.17,-7 12.17,-7 12.17,-7 481.92,-7 481.92,-7"/>
<polygon fill="#757575" stroke="#757575" points="481.92,-10.5 491.92,-7 481.92,-3.5 481.92,-10.5"/>
</g>
<!-- src/function&#45;type&#45;handler.ts&#45;&gt;src/functions.ts -->
<g id="edge37" class="edge">
<title>src/function&#45;type&#45;handler.ts&#45;&gt;src/functions.ts</title>
<path fill="none" stroke="#757575" d="M162.5,-412.85C162.5,-397.38 162.5,-372 162.5,-372 162.5,-372 464.89,-372 464.89,-372"/>
<polygon fill="#757575" stroke="#757575" points="464.89,-375.5 474.89,-372 464.89,-368.5 464.89,-375.5"/>
</g>
<!-- src/functions.ts&#45;&gt;src/utils/identifier&#45;utils.ts -->
<g id="edge43" class="edge">
<title>src/functions.ts&#45;&gt;src/utils/identifier&#45;utils.ts</title>
<path fill="none" stroke="#757575" d="M582.26,-365C767.44,-365 1367.5,-365 1367.5,-365 1367.5,-365 1367.5,-269.2 1367.5,-269.2"/>
<polygon fill="#757575" stroke="#757575" points="1371,-269.2 1367.5,-259.2 1364,-269.2 1371,-269.2"/>
</g>
<!-- src/functions.ts&#45;&gt;src/handlers/anonymous&#45;functions.ts -->
<g id="edge39" class="edge">
<title>src/functions.ts&#45;&gt;src/handlers/anonymous&#45;functions.ts</title>
<path fill="none" stroke="#757575" d="M474.77,-363C406.33,-363 296.83,-363 296.83,-363 296.83,-363 296.83,-328.21 296.83,-328.21"/>
<polygon fill="#757575" stroke="#757575" points="300.33,-328.21 296.83,-318.21 293.33,-328.21 300.33,-328.21"/>
</g>
<!-- src/handlers/function&#45;declaration.ts -->
<g id="node32" class="node">
<title>src/handlers/function&#45;declaration.ts</title>
<path fill="none" stroke="#c6c5fe" d="M584.83,-318C584.83,-318 374.17,-318 374.17,-318 370.33,-318 366.5,-314.17 366.5,-310.33 366.5,-310.33 366.5,-302.67 366.5,-302.67 366.5,-298.83 370.33,-295 374.17,-295 374.17,-295 584.83,-295 584.83,-295 588.67,-295 592.5,-298.83 592.5,-302.67 592.5,-302.67 592.5,-310.33 592.5,-310.33 592.5,-314.17 588.67,-318 584.83,-318"/>
<text text-anchor="middle" x="479.5" y="-302.8" font-family="Arial" font-size="14.00" fill="#c6c5fe">src/handlers/function&#45;declaration.ts</text>
</g>
<!-- src/functions.ts&#45;&gt;src/handlers/function&#45;declaration.ts -->
<g id="edge40" class="edge">
<title>src/functions.ts&#45;&gt;src/handlers/function&#45;declaration.ts</title>
<path fill="none" stroke="#757575" d="M528.5,-353.84C528.5,-353.84 528.5,-328.13 528.5,-328.13"/>
<polygon fill="#757575" stroke="#757575" points="532,-328.13 528.5,-318.13 525,-328.13 532,-328.13"/>
</g>
<!-- src/functions.ts&#45;&gt;src/utils/function&#45;call&#45;params.ts -->
<g id="edge41" class="edge">
<title>src/functions.ts&#45;&gt;src/utils/function&#45;call&#45;params.ts</title>
<path fill="none" stroke="#757575" d="M582.29,-357C625.38,-357 678.67,-357 678.67,-357 678.67,-357 678.67,-328.21 678.67,-328.21"/>
<polygon fill="#757575" stroke="#757575" points="682.17,-328.21 678.67,-318.21 675.17,-328.21 682.17,-328.21"/>
</g>
<!-- src/functions.ts&#45;&gt;src/utils/function&#45;utils.ts -->
<g id="edge42" class="edge">
<title>src/functions.ts&#45;&gt;src/utils/function&#45;utils.ts</title>
<path fill="none" stroke="#757575" d="M475,-358C418.73,-358 338.25,-358 338.25,-358 338.25,-358 338.25,-92.13 338.25,-92.13"/>
<polygon fill="#757575" stroke="#757575" points="341.75,-92.13 338.25,-82.13 334.75,-92.13 341.75,-92.13"/>
</g>
<!-- src/handlers/anonymous&#45;functions.ts&#45;&gt;src/utils/identifier&#45;utils.ts -->
<g id="edge46" class="edge">
<title>src/handlers/anonymous&#45;functions.ts&#45;&gt;src/utils/identifier&#45;utils.ts</title>
<path fill="none" stroke="#757575" d="M285,-294.8C285,-287.7 285,-280 285,-280 285,-280 1360.83,-280 1360.83,-280 1360.83,-280 1360.83,-269.23 1360.83,-269.23"/>
<polygon fill="#757575" stroke="#757575" points="1364.33,-269.23 1360.83,-259.23 1357.33,-269.23 1364.33,-269.23"/>
</g>
<!-- src/handlers/anonymous&#45;functions.ts&#45;&gt;src/type&#45;utils.ts -->
<g id="edge44" class="edge">
<title>src/handlers/anonymous&#45;functions.ts&#45;&gt;src/type&#45;utils.ts</title>
<path fill="none" stroke="#757575" d="M172.75,-294.71C172.75,-240.18 172.75,-15 172.75,-15 172.75,-15 481.7,-15 481.7,-15"/>
<polygon fill="#757575" stroke="#757575" points="481.7,-18.5 491.7,-15 481.7,-11.5 481.7,-18.5"/>
</g>
<!-- src/handlers/anonymous&#45;functions.ts&#45;&gt;src/utils/function&#45;utils.ts -->
<g id="edge45" class="edge">
<title>src/handlers/anonymous&#45;functions.ts&#45;&gt;src/utils/function&#45;utils.ts</title>
<path fill="none" stroke="#757575" d="M297.5,-294.8C297.5,-294.8 297.5,-92.27 297.5,-92.27"/>
<polygon fill="#757575" stroke="#757575" points="301,-92.27 297.5,-82.27 294,-92.27 301,-92.27"/>
</g>
<!-- src/handlers/function&#45;declaration.ts&#45;&gt;src/declarations.ts -->
<g id="edge51" class="edge">
<title>src/handlers/function&#45;declaration.ts&#45;&gt;src/declarations.ts</title>
<path fill="none" stroke="#757575" d="M575.75,-294.85C575.75,-276.52 575.75,-243 575.75,-243 575.75,-243 847.67,-243 847.67,-243"/>
<polygon fill="#757575" stroke="#757575" points="847.67,-246.5 857.67,-243 847.67,-239.5 847.67,-246.5"/>
</g>
<!-- src/handlers/function&#45;declaration.ts&#45;&gt;src/utils/identifier&#45;utils.ts -->
<g id="edge54" class="edge">
<title>src/handlers/function&#45;declaration.ts&#45;&gt;src/utils/identifier&#45;utils.ts</title>
<path fill="none" stroke="#757575" d="M508.75,-294.93C508.75,-290.73 508.75,-287 508.75,-287 508.75,-287 1364.17,-287 1364.17,-287 1364.17,-287 1364.17,-269.14 1364.17,-269.14"/>
<polygon fill="#757575" stroke="#757575" points="1367.67,-269.14 1364.17,-259.14 1360.67,-269.14 1367.67,-269.14"/>
</g>
<!-- src/handlers/function&#45;declaration.ts&#45;&gt;src/type&#45;utils.ts -->
<g id="edge52" class="edge">
<title>src/handlers/function&#45;declaration.ts&#45;&gt;src/type&#45;utils.ts</title>
<path fill="none" stroke="#757575" d="M542.25,-294.94C542.25,-294.94 542.25,-33.3 542.25,-33.3"/>
<polygon fill="#757575" stroke="#757575" points="545.75,-33.3 542.25,-23.3 538.75,-33.31 545.75,-33.3"/>
</g>
<!-- src/handlers/function&#45;declaration.ts&#45;&gt;src/utils/function&#45;utils.ts -->
<g id="edge53" class="edge">
<title>src/handlers/function&#45;declaration.ts&#45;&gt;src/utils/function&#45;utils.ts</title>
<path fill="none" stroke="#757575" d="M387.17,-294.8C387.17,-294.8 387.17,-92.27 387.17,-92.27"/>
<polygon fill="#757575" stroke="#757575" points="390.67,-92.27 387.17,-82.27 383.67,-92.27 390.67,-92.27"/>
</g>
<!-- src/utils/function&#45;call&#45;params.ts&#45;&gt;src/expressions/handlers.ts -->
<g id="edge97" class="edge">
<title>src/utils/function&#45;call&#45;params.ts&#45;&gt;src/expressions/handlers.ts</title>
<path fill="none" stroke="#757575" d="M805.5,-294.88C805.5,-266.14 805.5,-194 805.5,-194 805.5,-194 987.5,-194 987.5,-194"/>
<polygon fill="#757575" stroke="#757575" points="987.5,-197.5 997.5,-194 987.5,-190.5 987.5,-197.5"/>
</g>
<!-- src/utils/function&#45;utils.ts&#45;&gt;src/type&#45;utils.ts -->
<g id="edge98" class="edge">
<title>src/utils/function&#45;utils.ts&#45;&gt;src/type&#45;utils.ts</title>
<path fill="none" stroke="#757575" d="M428.53,-64C475.2,-64 525.5,-64 525.5,-64 525.5,-64 525.5,-33.15 525.5,-33.15"/>
<polygon fill="#757575" stroke="#757575" points="529,-33.15 525.5,-23.15 522,-33.15 529,-33.15"/>
</g>
<!-- src/handlers/method&#45;call.ts&#45;&gt;src/expressions/handlers.ts -->
<g id="edge57" class="edge">
<title>src/handlers/method&#45;call.ts&#45;&gt;src/expressions/handlers.ts</title>
<path fill="none" stroke="#757575" d="M1074.1,-471.94C1074.1,-471.94 1074.1,-210.3 1074.1,-210.3"/>
<polygon fill="#757575" stroke="#757575" points="1077.6,-210.3 1074.1,-200.3 1070.6,-210.31 1077.6,-210.3"/>
</g>
<!-- src/handlers/method&#45;call.ts&#45;&gt;src/utils/this&#45;keyword.ts -->
<g id="edge61" class="edge">
<title>src/handlers/method&#45;call.ts&#45;&gt;src/utils/this&#45;keyword.ts</title>
<path fill="none" stroke="#757575" d="M1068.7,-471.73C1068.7,-455.44 1068.7,-428 1068.7,-428 1068.7,-428 981.62,-428 981.62,-428"/>
<polygon fill="#757575" stroke="#757575" points="981.62,-424.5 971.62,-428 981.62,-431.5 981.62,-424.5"/>
</g>
<!-- src/handlers/method&#45;call.ts&#45;&gt;src/types/structs.ts -->
<g id="edge59" class="edge">
<title>src/handlers/method&#45;call.ts&#45;&gt;src/types/structs.ts</title>
<path fill="none" stroke="#757575" d="M1130.7,-471.89C1130.7,-471.89 1130.7,-328.39 1130.7,-328.39"/>
<polygon fill="#757575" stroke="#757575" points="1134.2,-328.39 1130.7,-318.39 1127.2,-328.39 1134.2,-328.39"/>
</g>
<!-- src/handlers/method&#45;call.ts&#45;&gt;src/utils/identifier&#45;utils.ts -->
<g id="edge60" class="edge">
<title>src/handlers/method&#45;call.ts&#45;&gt;src/utils/identifier&#45;utils.ts</title>
<path fill="none" stroke="#757575" d="M1245.26,-483C1304.35,-483 1370.83,-483 1370.83,-483 1370.83,-483 1370.83,-269.18 1370.83,-269.18"/>
<polygon fill="#757575" stroke="#757575" points="1374.33,-269.18 1370.83,-259.18 1367.33,-269.18 1374.33,-269.18"/>
</g>
<!-- src/handlers/method&#45;call.ts&#45;&gt;src/functions.ts -->
<g id="edge58" class="edge">
<title>src/handlers/method&#45;call.ts&#45;&gt;src/functions.ts</title>
<path fill="none" stroke="#757575" d="M1071.4,-471.68C1071.4,-442.42 1071.4,-369 1071.4,-369 1071.4,-369 592.04,-369 592.04,-369"/>
<polygon fill="#757575" stroke="#757575" points="592.04,-365.5 582.04,-369 592.04,-372.5 592.04,-365.5"/>
</g>
<!-- src/types/modules.ts&#45;&gt;src/expressions/handlers.ts -->
<g id="edge83" class="edge">
<title>src/types/modules.ts&#45;&gt;src/expressions/handlers.ts</title>
<path fill="none" stroke="#757575" d="M1377.49,-306C1361.07,-306 1348.25,-306 1348.25,-306 1348.25,-306 1348.25,-196 1348.25,-196 1348.25,-196 1187.6,-196 1187.6,-196"/>
<polygon fill="#757575" stroke="#757575" points="1187.6,-192.5 1177.6,-196 1187.6,-199.5 1187.6,-192.5"/>
</g>
<!-- src/types/modules.ts&#45;&gt;src/declarations.ts -->
<g id="edge82" class="edge">
<title>src/types/modules.ts&#45;&gt;src/declarations.ts</title>
<path fill="none" stroke="#757575" d="M1412.5,-294.78C1412.5,-285.12 1412.5,-273 1412.5,-273 1412.5,-273 941.33,-273 941.33,-273 941.33,-273 941.33,-269.06 941.33,-269.06"/>
<polygon fill="#757575" stroke="#757575" points="944.83,-269.06 941.33,-259.06 937.83,-269.06 944.83,-269.06"/>
</g>
<!-- src/types/modules.ts&#45;&gt;src/utils/identifier&#45;utils.ts -->
<g id="edge84" class="edge">
<title>src/types/modules.ts&#45;&gt;src/utils/identifier&#45;utils.ts</title>
<path fill="none" stroke="#757575" d="M1447.5,-294.84C1447.5,-294.84 1447.5,-269.13 1447.5,-269.13"/>
<polygon fill="#757575" stroke="#757575" points="1451,-269.13 1447.5,-259.13 1444,-269.13 1451,-269.13"/>
</g>
<!-- src/loops/types.ts&#45;&gt;src/expressions/handlers.ts -->
<g id="edge69" class="edge">
<title>src/loops/types.ts&#45;&gt;src/expressions/handlers.ts</title>
<path fill="none" stroke="#757575" d="M2819.5,-471.97C2819.5,-416.54 2819.5,-180 2819.5,-180 2819.5,-180 1187.58,-180 1187.58,-180"/>
<polygon fill="#757575" stroke="#757575" points="1187.58,-176.5 1177.58,-180 1187.58,-183.5 1187.58,-176.5"/>
</g>
<!-- src/types/type&#45;declarations.ts&#45;&gt;src/declarations.ts -->
<g id="edge87" class="edge">
<title>src/types/type&#45;declarations.ts&#45;&gt;src/declarations.ts</title>
<path fill="none" stroke="#757575" d="M899.67,-294.84C899.67,-294.84 899.67,-269.13 899.67,-269.13"/>
<polygon fill="#757575" stroke="#757575" points="903.17,-269.13 899.67,-259.13 896.17,-269.13 903.17,-269.13"/>
</g>
<!-- src/types/type&#45;declarations.ts&#45;&gt;src/type&#45;utils.ts -->
<g id="edge88" class="edge">
<title>src/types/type&#45;declarations.ts&#45;&gt;src/type&#45;utils.ts</title>
<path fill="none" stroke="#757575" d="M845,-294.73C845,-278.44 845,-251 845,-251 845,-251 559,-251 559,-251 559,-251 559,-33.05 559,-33.05"/>
<polygon fill="#757575" stroke="#757575" points="562.5,-33.05 559,-23.05 555.5,-33.05 562.5,-33.05"/>
</g>
<!-- src/utils/interpret.ts -->
<g id="node40" class="node">
<title>src/utils/interpret.ts</title>
<path fill="none" stroke="#c6c5fe" d="M2017.83,-672C2017.83,-672 1903.17,-672 1903.17,-672 1899.33,-672 1895.5,-668.17 1895.5,-664.33 1895.5,-664.33 1895.5,-656.67 1895.5,-656.67 1895.5,-652.83 1899.33,-649 1903.17,-649 1903.17,-649 2017.83,-649 2017.83,-649 2021.67,-649 2025.5,-652.83 2025.5,-656.67 2025.5,-656.67 2025.5,-664.33 2025.5,-664.33 2025.5,-668.17 2021.67,-672 2017.83,-672"/>
<text text-anchor="middle" x="1960.5" y="-656.8" font-family="Arial" font-size="14.00" fill="#c6c5fe">src/utils/interpret.ts</text>
</g>
<!-- src/utils/interpret.ts&#45;&gt;src/app.ts -->
<g id="edge99" class="edge">
<title>src/utils/interpret.ts&#45;&gt;src/app.ts</title>
<path fill="none" stroke="#757575" d="M1960.5,-648.84C1960.5,-648.84 1960.5,-623.13 1960.5,-623.13"/>
<polygon fill="#757575" stroke="#757575" points="1964,-623.13 1960.5,-613.13 1957,-623.13 1964,-623.13"/>
</g>
<!-- tests/arithmetic.test.ts -->
<g id="node41" class="node">
<title>tests/arithmetic.test.ts</title>
<path fill="none" stroke="#c6c5fe" d="M1410.83,-731C1410.83,-731 1278.17,-731 1278.17,-731 1274.33,-731 1270.5,-727.17 1270.5,-723.33 1270.5,-723.33 1270.5,-715.67 1270.5,-715.67 1270.5,-711.83 1274.33,-708 1278.17,-708 1278.17,-708 1410.83,-708 1410.83,-708 1414.67,-708 1418.5,-711.83 1418.5,-715.67 1418.5,-715.67 1418.5,-723.33 1418.5,-723.33 1418.5,-727.17 1414.67,-731 1410.83,-731"/>
<text text-anchor="middle" x="1344.5" y="-715.8" font-family="Arial" font-size="14.00" fill="#c6c5fe">tests/arithmetic.test.ts</text>
</g>
<!-- tests/arithmetic.test.ts&#45;&gt;src/utils/interpret.ts -->
<g id="edge106" class="edge">
<title>tests/arithmetic.test.ts&#45;&gt;src/utils/interpret.ts</title>
<path fill="none" stroke="#757575" d="M1390.17,-707.79C1390.17,-688.95 1390.17,-654 1390.17,-654 1390.17,-654 1885.35,-654 1885.35,-654"/>
<polygon fill="#757575" stroke="#757575" points="1885.35,-657.5 1895.35,-654 1885.35,-650.5 1885.35,-657.5"/>
</g>
<!-- tests/control&#45;flow.test.ts -->
<g id="node42" class="node">
<title>tests/control&#45;flow.test.ts</title>
<path fill="none" stroke="#c6c5fe" d="M1586.33,-731C1586.33,-731 1444.67,-731 1444.67,-731 1440.83,-731 1437,-727.17 1437,-723.33 1437,-723.33 1437,-715.67 1437,-715.67 1437,-711.83 1440.83,-708 1444.67,-708 1444.67,-708 1586.33,-708 1586.33,-708 1590.17,-708 1594,-711.83 1594,-715.67 1594,-715.67 1594,-723.33 1594,-723.33 1594,-727.17 1590.17,-731 1586.33,-731"/>
<text text-anchor="middle" x="1515.5" y="-715.8" font-family="Arial" font-size="14.00" fill="#c6c5fe">tests/control&#45;flow.test.ts</text>
</g>
<!-- tests/control&#45;flow.test.ts&#45;&gt;src/utils/interpret.ts -->
<g id="edge107" class="edge">
<title>tests/control&#45;flow.test.ts&#45;&gt;src/utils/interpret.ts</title>
<path fill="none" stroke="#757575" d="M1515.5,-707.74C1515.5,-690.4 1515.5,-660 1515.5,-660 1515.5,-660 1885.32,-660 1885.32,-660"/>
<polygon fill="#757575" stroke="#757575" points="1885.32,-663.5 1895.32,-660 1885.32,-656.5 1885.32,-663.5"/>
</g>
<!-- tests/functions.test.ts -->
<g id="node43" class="node">
<title>tests/functions.test.ts</title>
<path fill="none" stroke="#c6c5fe" d="M1747.33,-731C1747.33,-731 1619.67,-731 1619.67,-731 1615.83,-731 1612,-727.17 1612,-723.33 1612,-723.33 1612,-715.67 1612,-715.67 1612,-711.83 1615.83,-708 1619.67,-708 1619.67,-708 1747.33,-708 1747.33,-708 1751.17,-708 1755,-711.83 1755,-715.67 1755,-715.67 1755,-723.33 1755,-723.33 1755,-727.17 1751.17,-731 1747.33,-731"/>
<text text-anchor="middle" x="1683.5" y="-715.8" font-family="Arial" font-size="14.00" fill="#c6c5fe">tests/functions.test.ts</text>
</g>
<!-- tests/functions.test.ts&#45;&gt;src/utils/interpret.ts -->
<g id="edge108" class="edge">
<title>tests/functions.test.ts&#45;&gt;src/utils/interpret.ts</title>
<path fill="none" stroke="#757575" d="M1692.25,-707.89C1692.25,-692.16 1692.25,-666 1692.25,-666 1692.25,-666 1885.22,-666 1885.22,-666"/>
<polygon fill="#757575" stroke="#757575" points="1885.22,-669.5 1895.22,-666 1885.22,-662.5 1885.22,-669.5"/>
</g>
<!-- tests/generic&#45;functions.test.ts -->
<g id="node44" class="node">
<title>tests/generic&#45;functions.test.ts</title>
<path fill="none" stroke="#c6c5fe" d="M1956.33,-731C1956.33,-731 1780.67,-731 1780.67,-731 1776.83,-731 1773,-727.17 1773,-723.33 1773,-723.33 1773,-715.67 1773,-715.67 1773,-711.83 1776.83,-708 1780.67,-708 1780.67,-708 1956.33,-708 1956.33,-708 1960.17,-708 1964,-711.83 1964,-715.67 1964,-715.67 1964,-723.33 1964,-723.33 1964,-727.17 1960.17,-731 1956.33,-731"/>
<text text-anchor="middle" x="1868.5" y="-715.8" font-family="Arial" font-size="14.00" fill="#c6c5fe">tests/generic&#45;functions.test.ts</text>
</g>
<!-- tests/generic&#45;functions.test.ts&#45;&gt;src/utils/interpret.ts -->
<g id="edge109" class="edge">
<title>tests/generic&#45;functions.test.ts&#45;&gt;src/utils/interpret.ts</title>
<path fill="none" stroke="#757575" d="M1929.75,-707.84C1929.75,-707.84 1929.75,-682.13 1929.75,-682.13"/>
<polygon fill="#757575" stroke="#757575" points="1933.25,-682.13 1929.75,-672.13 1926.25,-682.13 1933.25,-682.13"/>
</g>
<!-- tests/generics.test.ts -->
<g id="node45" class="node">
<title>tests/generics.test.ts</title>
<path fill="none" stroke="#c6c5fe" d="M2114.83,-731C2114.83,-731 1990.17,-731 1990.17,-731 1986.33,-731 1982.5,-727.17 1982.5,-723.33 1982.5,-723.33 1982.5,-715.67 1982.5,-715.67 1982.5,-711.83 1986.33,-708 1990.17,-708 1990.17,-708 2114.83,-708 2114.83,-708 2118.67,-708 2122.5,-711.83 2122.5,-715.67 2122.5,-715.67 2122.5,-723.33 2122.5,-723.33 2122.5,-727.17 2118.67,-731 2114.83,-731"/>
<text text-anchor="middle" x="2052.5" y="-715.8" font-family="Arial" font-size="14.00" fill="#c6c5fe">tests/generics.test.ts</text>
</g>
<!-- tests/generics.test.ts&#45;&gt;src/utils/interpret.ts -->
<g id="edge110" class="edge">
<title>tests/generics.test.ts&#45;&gt;src/utils/interpret.ts</title>
<path fill="none" stroke="#757575" d="M2004,-707.84C2004,-707.84 2004,-682.13 2004,-682.13"/>
<polygon fill="#757575" stroke="#757575" points="2007.5,-682.13 2004,-672.13 2000.5,-682.13 2007.5,-682.13"/>
</g>
<!-- tests/modules.test.ts -->
<g id="node46" class="node">
<title>tests/modules.test.ts</title>
<path fill="none" stroke="#c6c5fe" d="M2272.83,-731C2272.83,-731 2148.17,-731 2148.17,-731 2144.33,-731 2140.5,-727.17 2140.5,-723.33 2140.5,-723.33 2140.5,-715.67 2140.5,-715.67 2140.5,-711.83 2144.33,-708 2148.17,-708 2148.17,-708 2272.83,-708 2272.83,-708 2276.67,-708 2280.5,-711.83 2280.5,-715.67 2280.5,-715.67 2280.5,-723.33 2280.5,-723.33 2280.5,-727.17 2276.67,-731 2272.83,-731"/>
<text text-anchor="middle" x="2210.5" y="-715.8" font-family="Arial" font-size="14.00" fill="#c6c5fe">tests/modules.test.ts</text>
</g>
<!-- tests/modules.test.ts&#45;&gt;src/utils/interpret.ts -->
<g id="edge111" class="edge">
<title>tests/modules.test.ts&#45;&gt;src/utils/interpret.ts</title>
<path fill="none" stroke="#757575" d="M2153,-707.89C2153,-692.16 2153,-666 2153,-666 2153,-666 2035.67,-666 2035.67,-666"/>
<polygon fill="#757575" stroke="#757575" points="2035.67,-662.5 2025.67,-666 2035.67,-669.5 2035.67,-662.5"/>
</g>
<!-- tests/types.test.ts -->
<g id="node47" class="node">
<title>tests/types.test.ts</title>
<path fill="none" stroke="#c6c5fe" d="M2412.33,-731C2412.33,-731 2306.67,-731 2306.67,-731 2302.83,-731 2299,-727.17 2299,-723.33 2299,-723.33 2299,-715.67 2299,-715.67 2299,-711.83 2302.83,-708 2306.67,-708 2306.67,-708 2412.33,-708 2412.33,-708 2416.17,-708 2420,-711.83 2420,-715.67 2420,-715.67 2420,-723.33 2420,-723.33 2420,-727.17 2416.17,-731 2412.33,-731"/>
<text text-anchor="middle" x="2359.5" y="-715.8" font-family="Arial" font-size="14.00" fill="#c6c5fe">tests/types.test.ts</text>
</g>
<!-- tests/types.test.ts&#45;&gt;src/utils/interpret.ts -->
<g id="edge112" class="edge">
<title>tests/types.test.ts&#45;&gt;src/utils/interpret.ts</title>
<path fill="none" stroke="#757575" d="M2359.5,-707.74C2359.5,-690.4 2359.5,-660 2359.5,-660 2359.5,-660 2035.94,-660 2035.94,-660"/>
<polygon fill="#757575" stroke="#757575" points="2035.94,-656.5 2025.94,-660 2035.94,-663.5 2035.94,-656.5"/>
</g>
<!-- tests/variables.test.ts -->
<g id="node48" class="node">
<title>tests/variables.test.ts</title>
<path fill="none" stroke="#c6c5fe" d="M2573.33,-731C2573.33,-731 2445.67,-731 2445.67,-731 2441.83,-731 2438,-727.17 2438,-723.33 2438,-723.33 2438,-715.67 2438,-715.67 2438,-711.83 2441.83,-708 2445.67,-708 2445.67,-708 2573.33,-708 2573.33,-708 2577.17,-708 2581,-711.83 2581,-715.67 2581,-715.67 2581,-723.33 2581,-723.33 2581,-727.17 2577.17,-731 2573.33,-731"/>
<text text-anchor="middle" x="2509.5" y="-715.8" font-family="Arial" font-size="14.00" fill="#c6c5fe">tests/variables.test.ts</text>
</g>
<!-- tests/variables.test.ts&#45;&gt;src/utils/interpret.ts -->
<g id="edge113" class="edge">
<title>tests/variables.test.ts&#45;&gt;src/utils/interpret.ts</title>
<path fill="none" stroke="#757575" d="M2463,-707.79C2463,-688.95 2463,-654 2463,-654 2463,-654 2035.68,-654 2035.68,-654"/>
<polygon fill="#757575" stroke="#757575" points="2035.68,-650.5 2025.68,-654 2035.68,-657.5 2035.68,-650.5"/>
</g>
</g>
</svg>
