<?xml version="1.0" encoding="UTF-8" standalone="no"?>
<!DOCTYPE svg PUBLIC "-//W3C//DTD SVG 1.1//EN"
 "http://www.w3.org/Graphics/SVG/1.1/DTD/svg11.dtd">
<!-- Generated by graphviz version 2.43.0 (0)
 -->
<!-- Title: G Pages: 1 -->
<svg width="2710pt" height="538pt"
 viewBox="0.00 0.00 2710.20 538.20" xmlns="http://www.w3.org/2000/svg" xmlns:xlink="http://www.w3.org/1999/xlink">
<g id="graph0" class="graph" transform="scale(1 1) rotate(0) translate(21.6 516.6)">
<title>G</title>
<polygon fill="#111111" stroke="transparent" points="-21.6,21.6 -21.6,-516.6 2688.6,-516.6 2688.6,21.6 -21.6,21.6"/>
<!-- src/app.ts -->
<g id="node1" class="node">
<title>src/app.ts</title>
<path fill="none" stroke="#c6c5fe" d="M1081.83,-377C1081.83,-377 1022.17,-377 1022.17,-377 1018.33,-377 1014.5,-373.17 1014.5,-369.33 1014.5,-369.33 1014.5,-361.67 1014.5,-361.67 1014.5,-357.83 1018.33,-354 1022.17,-354 1022.17,-354 1081.83,-354 1081.83,-354 1085.67,-354 1089.5,-357.83 1089.5,-361.67 1089.5,-361.67 1089.5,-369.33 1089.5,-369.33 1089.5,-373.17 1085.67,-377 1081.83,-377"/>
<text text-anchor="middle" x="1052" y="-361.8" font-family="Arial" font-size="14.00" fill="#c6c5fe">src/app.ts</text>
</g>
<!-- src/expressions/binary&#45;operation.ts -->
<g id="node2" class="node">
<title>src/expressions/binary&#45;operation.ts</title>
<path fill="none" stroke="#c6c5fe" d="M2080.33,-318C2080.33,-318 1869.67,-318 1869.67,-318 1865.83,-318 1862,-314.17 1862,-310.33 1862,-310.33 1862,-302.67 1862,-302.67 1862,-298.83 1865.83,-295 1869.67,-295 1869.67,-295 2080.33,-295 2080.33,-295 2084.17,-295 2088,-298.83 2088,-302.67 2088,-302.67 2088,-310.33 2088,-310.33 2088,-314.17 2084.17,-318 2080.33,-318"/>
<text text-anchor="middle" x="1975" y="-302.8" font-family="Arial" font-size="14.00" fill="#c6c5fe">src/expressions/binary&#45;operation.ts</text>
</g>
<!-- src/app.ts&#45;&gt;src/expressions/binary&#45;operation.ts -->
<g id="edge1" class="edge">
<title>src/app.ts&#45;&gt;src/expressions/binary&#45;operation.ts</title>
<path fill="none" stroke="#757575" d="M1089.61,-358C1262.8,-358 1975,-358 1975,-358 1975,-358 1975,-328.19 1975,-328.19"/>
<polygon fill="#757575" stroke="#757575" points="1978.5,-328.19 1975,-318.19 1971.5,-328.19 1978.5,-328.19"/>
</g>
<!-- src/expressions/grouped&#45;expressions.ts -->
<g id="node3" class="node">
<title>src/expressions/grouped&#45;expressions.ts</title>
<path fill="none" stroke="#c6c5fe" d="M576.33,-259C576.33,-259 337.67,-259 337.67,-259 333.83,-259 330,-255.17 330,-251.33 330,-251.33 330,-243.67 330,-243.67 330,-239.83 333.83,-236 337.67,-236 337.67,-236 576.33,-236 576.33,-236 580.17,-236 584,-239.83 584,-243.67 584,-243.67 584,-251.33 584,-251.33 584,-255.17 580.17,-259 576.33,-259"/>
<text text-anchor="middle" x="457" y="-243.8" font-family="Arial" font-size="14.00" fill="#c6c5fe">src/expressions/grouped&#45;expressions.ts</text>
</g>
<!-- src/app.ts&#45;&gt;src/expressions/grouped&#45;expressions.ts -->
<g id="edge2" class="edge">
<title>src/app.ts&#45;&gt;src/expressions/grouped&#45;expressions.ts</title>
<path fill="none" stroke="#757575" d="M1014.33,-363C883.54,-363 457,-363 457,-363 457,-363 457,-269.43 457,-269.43"/>
<polygon fill="#757575" stroke="#757575" points="460.5,-269.43 457,-259.43 453.5,-269.43 460.5,-269.43"/>
</g>
<!-- src/expressions/handlers.ts -->
<g id="node4" class="node">
<title>src/expressions/handlers.ts</title>
<path fill="none" stroke="#cfffac" d="M629.33,-23C629.33,-23 464.67,-23 464.67,-23 460.83,-23 457,-19.17 457,-15.33 457,-15.33 457,-7.67 457,-7.67 457,-3.83 460.83,0 464.67,0 464.67,0 629.33,0 629.33,0 633.17,0 637,-3.83 637,-7.67 637,-7.67 637,-15.33 637,-15.33 637,-19.17 633.17,-23 629.33,-23"/>
<text text-anchor="middle" x="547" y="-7.8" font-family="Arial" font-size="14.00" fill="#cfffac">src/expressions/handlers.ts</text>
</g>
<!-- src/app.ts&#45;&gt;src/expressions/handlers.ts -->
<g id="edge3" class="edge">
<title>src/app.ts&#45;&gt;src/expressions/handlers.ts</title>
<path fill="none" stroke="#757575" d="M1076,-353.81C1076,-310.12 1076,-159 1076,-159 1076,-159 522.6,-159 522.6,-159 522.6,-159 522.6,-33.07 522.6,-33.07"/>
<polygon fill="#757575" stroke="#757575" points="526.1,-33.07 522.6,-23.07 519.1,-33.07 526.1,-33.07"/>
</g>
<!-- src/handlers/dereference&#45;assignment.ts -->
<g id="node5" class="node">
<title>src/handlers/dereference&#45;assignment.ts</title>
<path fill="none" stroke="#c6c5fe" d="M246.33,-318C246.33,-318 7.67,-318 7.67,-318 3.83,-318 0,-314.17 0,-310.33 0,-310.33 0,-302.67 0,-302.67 0,-298.83 3.83,-295 7.67,-295 7.67,-295 246.33,-295 246.33,-295 250.17,-295 254,-298.83 254,-302.67 254,-302.67 254,-310.33 254,-310.33 254,-314.17 250.17,-318 246.33,-318"/>
<text text-anchor="middle" x="127" y="-302.8" font-family="Arial" font-size="14.00" fill="#c6c5fe">src/handlers/dereference&#45;assignment.ts</text>
</g>
<!-- src/app.ts&#45;&gt;src/handlers/dereference&#45;assignment.ts -->
<g id="edge4" class="edge">
<title>src/app.ts&#45;&gt;src/handlers/dereference&#45;assignment.ts</title>
<path fill="none" stroke="#757575" d="M1014.3,-373C840.75,-373 127,-373 127,-373 127,-373 127,-328.08 127,-328.08"/>
<polygon fill="#757575" stroke="#757575" points="130.5,-328.08 127,-318.08 123.5,-328.08 130.5,-328.08"/>
</g>
<!-- src/handlers/lambda&#45;expressions.ts -->
<g id="node6" class="node">
<title>src/handlers/lambda&#45;expressions.ts</title>
<path fill="none" stroke="#c6c5fe" d="M1386.33,-259C1386.33,-259 1171.67,-259 1171.67,-259 1167.83,-259 1164,-255.17 1164,-251.33 1164,-251.33 1164,-243.67 1164,-243.67 1164,-239.83 1167.83,-236 1171.67,-236 1171.67,-236 1386.33,-236 1386.33,-236 1390.17,-236 1394,-239.83 1394,-243.67 1394,-243.67 1394,-251.33 1394,-251.33 1394,-255.17 1390.17,-259 1386.33,-259"/>
<text text-anchor="middle" x="1279" y="-243.8" font-family="Arial" font-size="14.00" fill="#c6c5fe">src/handlers/lambda&#45;expressions.ts</text>
</g>
<!-- src/app.ts&#45;&gt;src/handlers/lambda&#45;expressions.ts -->
<g id="edge5" class="edge">
<title>src/app.ts&#45;&gt;src/handlers/lambda&#45;expressions.ts</title>
<path fill="none" stroke="#757575" d="M1087.17,-353.68C1087.17,-324.42 1087.17,-251 1087.17,-251 1087.17,-251 1153.81,-251 1153.81,-251"/>
<polygon fill="#757575" stroke="#757575" points="1153.81,-254.5 1163.81,-251 1153.81,-247.5 1153.81,-254.5"/>
</g>
<!-- src/handlers/pointer&#45;operations.ts -->
<g id="node7" class="node">
<title>src/handlers/pointer&#45;operations.ts</title>
<path fill="none" stroke="#c6c5fe" d="M265.83,-259C265.83,-259 64.17,-259 64.17,-259 60.33,-259 56.5,-255.17 56.5,-251.33 56.5,-251.33 56.5,-243.67 56.5,-243.67 56.5,-239.83 60.33,-236 64.17,-236 64.17,-236 265.83,-236 265.83,-236 269.67,-236 273.5,-239.83 273.5,-243.67 273.5,-243.67 273.5,-251.33 273.5,-251.33 273.5,-255.17 269.67,-259 265.83,-259"/>
<text text-anchor="middle" x="165" y="-243.8" font-family="Arial" font-size="14.00" fill="#c6c5fe">src/handlers/pointer&#45;operations.ts</text>
</g>
<!-- src/app.ts&#45;&gt;src/handlers/pointer&#45;operations.ts -->
<g id="edge6" class="edge">
<title>src/app.ts&#45;&gt;src/handlers/pointer&#45;operations.ts</title>
<path fill="none" stroke="#757575" d="M1014.25,-370C857.19,-370 263.75,-370 263.75,-370 263.75,-370 263.75,-269.25 263.75,-269.25"/>
<polygon fill="#757575" stroke="#757575" points="267.25,-269.25 263.75,-259.25 260.25,-269.25 267.25,-269.25"/>
</g>
<!-- src/loops/for.ts -->
<g id="node8" class="node">
<title>src/loops/for.ts</title>
<path fill="none" stroke="#c6c5fe" d="M2508.33,-318C2508.33,-318 2419.67,-318 2419.67,-318 2415.83,-318 2412,-314.17 2412,-310.33 2412,-310.33 2412,-302.67 2412,-302.67 2412,-298.83 2415.83,-295 2419.67,-295 2419.67,-295 2508.33,-295 2508.33,-295 2512.17,-295 2516,-298.83 2516,-302.67 2516,-302.67 2516,-310.33 2516,-310.33 2516,-314.17 2512.17,-318 2508.33,-318"/>
<text text-anchor="middle" x="2464" y="-302.8" font-family="Arial" font-size="14.00" fill="#c6c5fe">src/loops/for.ts</text>
</g>
<!-- src/app.ts&#45;&gt;src/loops/for.ts -->
<g id="edge7" class="edge">
<title>src/app.ts&#45;&gt;src/loops/for.ts</title>
<path fill="none" stroke="#757575" d="M1089.77,-367C1314.32,-367 2464,-367 2464,-367 2464,-367 2464,-328.17 2464,-328.17"/>
<polygon fill="#757575" stroke="#757575" points="2467.5,-328.16 2464,-318.17 2460.5,-328.17 2467.5,-328.16"/>
</g>
<!-- src/loops/loop.ts -->
<g id="node9" class="node">
<title>src/loops/loop.ts</title>
<path fill="none" stroke="#cfffac" d="M2659.33,-259C2659.33,-259 2560.67,-259 2560.67,-259 2556.83,-259 2553,-255.17 2553,-251.33 2553,-251.33 2553,-243.67 2553,-243.67 2553,-239.83 2556.83,-236 2560.67,-236 2560.67,-236 2659.33,-236 2659.33,-236 2663.17,-236 2667,-239.83 2667,-243.67 2667,-243.67 2667,-251.33 2667,-251.33 2667,-255.17 2663.17,-259 2659.33,-259"/>
<text text-anchor="middle" x="2610" y="-243.8" font-family="Arial" font-size="14.00" fill="#cfffac">src/loops/loop.ts</text>
</g>
<!-- src/app.ts&#45;&gt;src/loops/loop.ts -->
<g id="edge8" class="edge">
<title>src/app.ts&#45;&gt;src/loops/loop.ts</title>
<path fill="none" stroke="#757575" d="M1089.65,-372C1329.9,-372 2638.5,-372 2638.5,-372 2638.5,-372 2638.5,-269.44 2638.5,-269.44"/>
<polygon fill="#757575" stroke="#757575" points="2642,-269.44 2638.5,-259.44 2635,-269.44 2642,-269.44"/>
</g>
<!-- src/loops/while.ts -->
<g id="node10" class="node">
<title>src/loops/while.ts</title>
<path fill="none" stroke="#c6c5fe" d="M2378.83,-318C2378.83,-318 2275.17,-318 2275.17,-318 2271.33,-318 2267.5,-314.17 2267.5,-310.33 2267.5,-310.33 2267.5,-302.67 2267.5,-302.67 2267.5,-298.83 2271.33,-295 2275.17,-295 2275.17,-295 2378.83,-295 2378.83,-295 2382.67,-295 2386.5,-298.83 2386.5,-302.67 2386.5,-302.67 2386.5,-310.33 2386.5,-310.33 2386.5,-314.17 2382.67,-318 2378.83,-318"/>
<text text-anchor="middle" x="2327" y="-302.8" font-family="Arial" font-size="14.00" fill="#c6c5fe">src/loops/while.ts</text>
</g>
<!-- src/app.ts&#45;&gt;src/loops/while.ts -->
<g id="edge9" class="edge">
<title>src/app.ts&#45;&gt;src/loops/while.ts</title>
<path fill="none" stroke="#757575" d="M1089.81,-363C1301.19,-363 2327,-363 2327,-363 2327,-363 2327,-328.21 2327,-328.21"/>
<polygon fill="#757575" stroke="#757575" points="2330.5,-328.21 2327,-318.21 2323.5,-328.21 2330.5,-328.21"/>
</g>
<!-- src/match.ts -->
<g id="node11" class="node">
<title>src/match.ts</title>
<path fill="none" stroke="#cfffac" d="M351.33,-200C351.33,-200 276.67,-200 276.67,-200 272.83,-200 269,-196.17 269,-192.33 269,-192.33 269,-184.67 269,-184.67 269,-180.83 272.83,-177 276.67,-177 276.67,-177 351.33,-177 351.33,-177 355.17,-177 359,-180.83 359,-184.67 359,-184.67 359,-192.33 359,-192.33 359,-196.17 355.17,-200 351.33,-200"/>
<text text-anchor="middle" x="314" y="-184.8" font-family="Arial" font-size="14.00" fill="#cfffac">src/match.ts</text>
</g>
<!-- src/app.ts&#45;&gt;src/match.ts -->
<g id="edge10" class="edge">
<title>src/app.ts&#45;&gt;src/match.ts</title>
<path fill="none" stroke="#757575" d="M1014.28,-367C862.14,-367 301.75,-367 301.75,-367 301.75,-367 301.75,-210.21 301.75,-210.21"/>
<polygon fill="#757575" stroke="#757575" points="305.25,-210.21 301.75,-200.21 298.25,-210.21 305.25,-210.21"/>
</g>
<!-- src/parser.ts -->
<g id="node12" class="node">
<title>src/parser.ts</title>
<path fill="none" stroke="#c6c5fe" d="M2010.33,-200C2010.33,-200 1935.67,-200 1935.67,-200 1931.83,-200 1928,-196.17 1928,-192.33 1928,-192.33 1928,-184.67 1928,-184.67 1928,-180.83 1931.83,-177 1935.67,-177 1935.67,-177 2010.33,-177 2010.33,-177 2014.17,-177 2018,-180.83 2018,-184.67 2018,-184.67 2018,-192.33 2018,-192.33 2018,-196.17 2014.17,-200 2010.33,-200"/>
<text text-anchor="middle" x="1973" y="-184.8" font-family="Arial" font-size="14.00" fill="#c6c5fe">src/parser.ts</text>
</g>
<!-- src/app.ts&#45;&gt;src/parser.ts -->
<g id="edge11" class="edge">
<title>src/app.ts&#45;&gt;src/parser.ts</title>
<path fill="none" stroke="#757575" d="M1086,-353.59C1086,-318.84 1086,-220 1086,-220 1086,-220 1946,-220 1946,-220 1946,-220 1946,-210.23 1946,-210.23"/>
<polygon fill="#757575" stroke="#757575" points="1949.5,-210.23 1946,-200.23 1942.5,-210.23 1949.5,-210.23"/>
</g>
<!-- src/scope.ts -->
<g id="node13" class="node">
<title>src/scope.ts</title>
<path fill="none" stroke="#c6c5fe" d="M1576.83,-318C1576.83,-318 1503.17,-318 1503.17,-318 1499.33,-318 1495.5,-314.17 1495.5,-310.33 1495.5,-310.33 1495.5,-302.67 1495.5,-302.67 1495.5,-298.83 1499.33,-295 1503.17,-295 1503.17,-295 1576.83,-295 1576.83,-295 1580.67,-295 1584.5,-298.83 1584.5,-302.67 1584.5,-302.67 1584.5,-310.33 1584.5,-310.33 1584.5,-314.17 1580.67,-318 1576.83,-318"/>
<text text-anchor="middle" x="1540" y="-302.8" font-family="Arial" font-size="14.00" fill="#c6c5fe">src/scope.ts</text>
</g>
<!-- src/app.ts&#45;&gt;src/scope.ts -->
<g id="edge12" class="edge">
<title>src/app.ts&#45;&gt;src/scope.ts</title>
<path fill="none" stroke="#757575" d="M1088.33,-353.81C1088.33,-338.62 1088.33,-314 1088.33,-314 1088.33,-314 1485.46,-314 1485.46,-314"/>
<polygon fill="#757575" stroke="#757575" points="1485.46,-317.5 1495.46,-314 1485.46,-310.5 1485.46,-317.5"/>
</g>
<!-- src/utils/app&#45;handlers.ts -->
<g id="node14" class="node">
<title>src/utils/app&#45;handlers.ts</title>
<path fill="none" stroke="#c6c5fe" d="M992.83,-318C992.83,-318 849.17,-318 849.17,-318 845.33,-318 841.5,-314.17 841.5,-310.33 841.5,-310.33 841.5,-302.67 841.5,-302.67 841.5,-298.83 845.33,-295 849.17,-295 849.17,-295 992.83,-295 992.83,-295 996.67,-295 1000.5,-298.83 1000.5,-302.67 1000.5,-302.67 1000.5,-310.33 1000.5,-310.33 1000.5,-314.17 996.67,-318 992.83,-318"/>
<text text-anchor="middle" x="921" y="-302.8" font-family="Arial" font-size="14.00" fill="#c6c5fe">src/utils/app&#45;handlers.ts</text>
</g>
<!-- src/app.ts&#45;&gt;src/utils/app&#45;handlers.ts -->
<g id="edge13" class="edge">
<title>src/app.ts&#45;&gt;src/utils/app&#45;handlers.ts</title>
<path fill="none" stroke="#757575" d="M1014.45,-357C1003.18,-357 993.75,-357 993.75,-357 993.75,-357 993.75,-328.21 993.75,-328.21"/>
<polygon fill="#757575" stroke="#757575" points="997.25,-328.21 993.75,-318.21 990.25,-328.21 997.25,-328.21"/>
</g>
<!-- src/utils/this&#45;keyword.ts -->
<g id="node15" class="node">
<title>src/utils/this&#45;keyword.ts</title>
<path fill="none" stroke="#c6c5fe" d="M750.33,-259C750.33,-259 609.67,-259 609.67,-259 605.83,-259 602,-255.17 602,-251.33 602,-251.33 602,-243.67 602,-243.67 602,-239.83 605.83,-236 609.67,-236 609.67,-236 750.33,-236 750.33,-236 754.17,-236 758,-239.83 758,-243.67 758,-243.67 758,-251.33 758,-251.33 758,-255.17 754.17,-259 750.33,-259"/>
<text text-anchor="middle" x="680" y="-243.8" font-family="Arial" font-size="14.00" fill="#c6c5fe">src/utils/this&#45;keyword.ts</text>
</g>
<!-- src/app.ts&#45;&gt;src/utils/this&#45;keyword.ts -->
<g id="edge14" class="edge">
<title>src/app.ts&#45;&gt;src/utils/this&#45;keyword.ts</title>
<path fill="none" stroke="#757575" d="M1014.17,-360C922.98,-360 698.5,-360 698.5,-360 698.5,-360 698.5,-269.12 698.5,-269.12"/>
<polygon fill="#757575" stroke="#757575" points="702,-269.12 698.5,-259.12 695,-269.12 702,-269.12"/>
</g>
<!-- src/expressions/binary&#45;operation.ts&#45;&gt;src/expressions/handlers.ts -->
<g id="edge16" class="edge">
<title>src/expressions/binary&#45;operation.ts&#45;&gt;src/expressions/handlers.ts</title>
<path fill="none" stroke="#757575" d="M1902.33,-294.81C1902.33,-251.12 1902.33,-100 1902.33,-100 1902.33,-100 589.75,-100 589.75,-100 589.75,-100 589.75,-33.07 589.75,-33.07"/>
<polygon fill="#757575" stroke="#757575" points="593.25,-33.07 589.75,-23.07 586.25,-33.07 593.25,-33.07"/>
</g>
<!-- src/expressions/binary&#45;operation.ts&#45;&gt;src/parser.ts -->
<g id="edge18" class="edge">
<title>src/expressions/binary&#45;operation.ts&#45;&gt;src/parser.ts</title>
<path fill="none" stroke="#757575" d="M2000,-294.75C2000,-294.75 2000,-210.2 2000,-210.2"/>
<polygon fill="#757575" stroke="#757575" points="2003.5,-210.2 2000,-200.2 1996.5,-210.2 2003.5,-210.2"/>
</g>
<!-- src/expressions/operators.ts -->
<g id="node17" class="node">
<title>src/expressions/operators.ts</title>
<path fill="none" stroke="#c6c5fe" d="M2198.83,-259C2198.83,-259 2029.17,-259 2029.17,-259 2025.33,-259 2021.5,-255.17 2021.5,-251.33 2021.5,-251.33 2021.5,-243.67 2021.5,-243.67 2021.5,-239.83 2025.33,-236 2029.17,-236 2029.17,-236 2198.83,-236 2198.83,-236 2202.67,-236 2206.5,-239.83 2206.5,-243.67 2206.5,-243.67 2206.5,-251.33 2206.5,-251.33 2206.5,-255.17 2202.67,-259 2198.83,-259"/>
<text text-anchor="middle" x="2114" y="-243.8" font-family="Arial" font-size="14.00" fill="#c6c5fe">src/expressions/operators.ts</text>
</g>
<!-- src/expressions/binary&#45;operation.ts&#45;&gt;src/expressions/operators.ts -->
<g id="edge17" class="edge">
<title>src/expressions/binary&#45;operation.ts&#45;&gt;src/expressions/operators.ts</title>
<path fill="none" stroke="#757575" d="M2054.75,-294.84C2054.75,-294.84 2054.75,-269.13 2054.75,-269.13"/>
<polygon fill="#757575" stroke="#757575" points="2058.25,-269.13 2054.75,-259.13 2051.25,-269.13 2058.25,-269.13"/>
</g>
<!-- src/expressions/grouped&#45;expressions.ts&#45;&gt;src/expressions/handlers.ts -->
<g id="edge19" class="edge">
<title>src/expressions/grouped&#45;expressions.ts&#45;&gt;src/expressions/handlers.ts</title>
<path fill="none" stroke="#757575" d="M473.4,-235.8C473.4,-235.8 473.4,-33.27 473.4,-33.27"/>
<polygon fill="#757575" stroke="#757575" points="476.9,-33.27 473.4,-23.27 469.9,-33.27 476.9,-33.27"/>
</g>
<!-- src/expressions/grouped&#45;expressions.ts&#45;&gt;src/match.ts -->
<g id="edge20" class="edge">
<title>src/expressions/grouped&#45;expressions.ts&#45;&gt;src/match.ts</title>
<path fill="none" stroke="#757575" d="M344.5,-235.84C344.5,-235.84 344.5,-210.13 344.5,-210.13"/>
<polygon fill="#757575" stroke="#757575" points="348,-210.13 344.5,-200.13 341,-210.13 348,-210.13"/>
</g>
<!-- src/types/structs.ts -->
<g id="node18" class="node">
<title>src/types/structs.ts</title>
<path fill="none" stroke="#c6c5fe" d="M659.33,-200C659.33,-200 546.67,-200 546.67,-200 542.83,-200 539,-196.17 539,-192.33 539,-192.33 539,-184.67 539,-184.67 539,-180.83 542.83,-177 546.67,-177 546.67,-177 659.33,-177 659.33,-177 663.17,-177 667,-180.83 667,-184.67 667,-184.67 667,-192.33 667,-192.33 667,-196.17 663.17,-200 659.33,-200"/>
<text text-anchor="middle" x="603" y="-184.8" font-family="Arial" font-size="14.00" fill="#c6c5fe">src/types/structs.ts</text>
</g>
<!-- src/expressions/grouped&#45;expressions.ts&#45;&gt;src/types/structs.ts -->
<g id="edge21" class="edge">
<title>src/expressions/grouped&#45;expressions.ts&#45;&gt;src/types/structs.ts</title>
<path fill="none" stroke="#757575" d="M550.25,-235.84C550.25,-235.84 550.25,-210.13 550.25,-210.13"/>
<polygon fill="#757575" stroke="#757575" points="553.75,-210.13 550.25,-200.13 546.75,-210.13 553.75,-210.13"/>
</g>
<!-- src/utils/array.ts -->
<g id="node19" class="node">
<title>src/utils/array.ts</title>
<path fill="none" stroke="#cfffac" d="M1788.33,-200C1788.33,-200 1693.67,-200 1693.67,-200 1689.83,-200 1686,-196.17 1686,-192.33 1686,-192.33 1686,-184.67 1686,-184.67 1686,-180.83 1689.83,-177 1693.67,-177 1693.67,-177 1788.33,-177 1788.33,-177 1792.17,-177 1796,-180.83 1796,-184.67 1796,-184.67 1796,-192.33 1796,-192.33 1796,-196.17 1792.17,-200 1788.33,-200"/>
<text text-anchor="middle" x="1741" y="-184.8" font-family="Arial" font-size="14.00" fill="#cfffac">src/utils/array.ts</text>
</g>
<!-- src/expressions/grouped&#45;expressions.ts&#45;&gt;src/utils/array.ts -->
<g id="edge22" class="edge">
<title>src/expressions/grouped&#45;expressions.ts&#45;&gt;src/utils/array.ts</title>
<path fill="none" stroke="#757575" d="M572.75,-235.77C572.75,-226.46 572.75,-215 572.75,-215 572.75,-215 1698.83,-215 1698.83,-215 1698.83,-215 1698.83,-210.2 1698.83,-210.2"/>
<polygon fill="#757575" stroke="#757575" points="1702.33,-210.2 1698.83,-200.2 1695.33,-210.2 1702.33,-210.2"/>
</g>
<!-- src/utils/identifier&#45;utils.ts -->
<g id="node20" class="node">
<title>src/utils/identifier&#45;utils.ts</title>
<path fill="none" stroke="#cfffac" d="M1077.33,-82C1077.33,-82 932.67,-82 932.67,-82 928.83,-82 925,-78.17 925,-74.33 925,-74.33 925,-66.67 925,-66.67 925,-62.83 928.83,-59 932.67,-59 932.67,-59 1077.33,-59 1077.33,-59 1081.17,-59 1085,-62.83 1085,-66.67 1085,-66.67 1085,-74.33 1085,-74.33 1085,-78.17 1081.17,-82 1077.33,-82"/>
<text text-anchor="middle" x="1005" y="-66.8" font-family="Arial" font-size="14.00" fill="#cfffac">src/utils/identifier&#45;utils.ts</text>
</g>
<!-- src/expressions/grouped&#45;expressions.ts&#45;&gt;src/utils/identifier&#45;utils.ts -->
<g id="edge23" class="edge">
<title>src/expressions/grouped&#45;expressions.ts&#45;&gt;src/utils/identifier&#45;utils.ts</title>
<path fill="none" stroke="#757575" d="M561.5,-235.63C561.5,-224.65 561.5,-210 561.5,-210 561.5,-210 973.4,-210 973.4,-210 973.4,-210 973.4,-92.39 973.4,-92.39"/>
<polygon fill="#757575" stroke="#757575" points="976.9,-92.39 973.4,-82.39 969.9,-92.39 976.9,-92.39"/>
</g>
<!-- src/handlers/dereference&#45;assignment.ts&#45;&gt;src/expressions/handlers.ts -->
<g id="edge40" class="edge">
<title>src/handlers/dereference&#45;assignment.ts&#45;&gt;src/expressions/handlers.ts</title>
<path fill="none" stroke="#757575" d="M28.25,-294.92C28.25,-240.28 28.25,-11 28.25,-11 28.25,-11 446.94,-11 446.94,-11"/>
<polygon fill="#757575" stroke="#757575" points="446.94,-14.5 456.94,-11 446.94,-7.5 446.94,-14.5"/>
</g>
<!-- src/handlers/dereference&#45;assignment.ts&#45;&gt;src/handlers/pointer&#45;operations.ts -->
<g id="edge41" class="edge">
<title>src/handlers/dereference&#45;assignment.ts&#45;&gt;src/handlers/pointer&#45;operations.ts</title>
<path fill="none" stroke="#757575" d="M155.25,-294.84C155.25,-294.84 155.25,-269.13 155.25,-269.13"/>
<polygon fill="#757575" stroke="#757575" points="158.75,-269.13 155.25,-259.13 151.75,-269.13 158.75,-269.13"/>
</g>
<!-- src/functions.ts -->
<g id="node25" class="node">
<title>src/functions.ts</title>
<path fill="none" stroke="#c6c5fe" d="M1181.83,-200C1181.83,-200 1090.17,-200 1090.17,-200 1086.33,-200 1082.5,-196.17 1082.5,-192.33 1082.5,-192.33 1082.5,-184.67 1082.5,-184.67 1082.5,-180.83 1086.33,-177 1090.17,-177 1090.17,-177 1181.83,-177 1181.83,-177 1185.67,-177 1189.5,-180.83 1189.5,-184.67 1189.5,-184.67 1189.5,-192.33 1189.5,-192.33 1189.5,-196.17 1185.67,-200 1181.83,-200"/>
<text text-anchor="middle" x="1136" y="-184.8" font-family="Arial" font-size="14.00" fill="#c6c5fe">src/functions.ts</text>
</g>
<!-- src/handlers/lambda&#45;expressions.ts&#45;&gt;src/functions.ts -->
<g id="edge46" class="edge">
<title>src/handlers/lambda&#45;expressions.ts&#45;&gt;src/functions.ts</title>
<path fill="none" stroke="#757575" d="M1176.75,-235.84C1176.75,-235.84 1176.75,-210.13 1176.75,-210.13"/>
<polygon fill="#757575" stroke="#757575" points="1180.25,-210.13 1176.75,-200.13 1173.25,-210.13 1180.25,-210.13"/>
</g>
<!-- src/handlers/anonymous&#45;functions.ts -->
<g id="node26" class="node">
<title>src/handlers/anonymous&#45;functions.ts</title>
<path fill="none" stroke="#c6c5fe" d="M1522.83,-141C1522.83,-141 1301.17,-141 1301.17,-141 1297.33,-141 1293.5,-137.17 1293.5,-133.33 1293.5,-133.33 1293.5,-125.67 1293.5,-125.67 1293.5,-121.83 1297.33,-118 1301.17,-118 1301.17,-118 1522.83,-118 1522.83,-118 1526.67,-118 1530.5,-121.83 1530.5,-125.67 1530.5,-125.67 1530.5,-133.33 1530.5,-133.33 1530.5,-137.17 1526.67,-141 1522.83,-141"/>
<text text-anchor="middle" x="1412" y="-125.8" font-family="Arial" font-size="14.00" fill="#c6c5fe">src/handlers/anonymous&#45;functions.ts</text>
</g>
<!-- src/handlers/lambda&#45;expressions.ts&#45;&gt;src/handlers/anonymous&#45;functions.ts -->
<g id="edge47" class="edge">
<title>src/handlers/lambda&#45;expressions.ts&#45;&gt;src/handlers/anonymous&#45;functions.ts</title>
<path fill="none" stroke="#757575" d="M1360.5,-235.75C1360.5,-235.75 1360.5,-151.2 1360.5,-151.2"/>
<polygon fill="#757575" stroke="#757575" points="1364,-151.2 1360.5,-141.2 1357,-151.2 1364,-151.2"/>
</g>
<!-- src/handlers/pointer&#45;operations.ts&#45;&gt;src/utils/identifier&#45;utils.ts -->
<g id="edge51" class="edge">
<title>src/handlers/pointer&#45;operations.ts&#45;&gt;src/utils/identifier&#45;utils.ts</title>
<path fill="none" stroke="#757575" d="M162.75,-235.95C162.75,-203.18 162.75,-112 162.75,-112 162.75,-112 939.75,-112 939.75,-112 939.75,-112 939.75,-92.28 939.75,-92.28"/>
<polygon fill="#757575" stroke="#757575" points="943.25,-92.28 939.75,-82.28 936.25,-92.28 943.25,-92.28"/>
</g>
<!-- src/loops/for.ts&#45;&gt;src/loops/loop.ts -->
<g id="edge53" class="edge">
<title>src/loops/for.ts&#45;&gt;src/loops/loop.ts</title>
<path fill="none" stroke="#757575" d="M2516.3,-306C2558.19,-306 2610,-306 2610,-306 2610,-306 2610,-269.06 2610,-269.06"/>
<polygon fill="#757575" stroke="#757575" points="2613.5,-269.06 2610,-259.06 2606.5,-269.06 2613.5,-269.06"/>
</g>
<!-- src/loops/helpers.ts -->
<g id="node31" class="node">
<title>src/loops/helpers.ts</title>
<path fill="none" stroke="#cfffac" d="M2526.83,-259C2526.83,-259 2409.17,-259 2409.17,-259 2405.33,-259 2401.5,-255.17 2401.5,-251.33 2401.5,-251.33 2401.5,-243.67 2401.5,-243.67 2401.5,-239.83 2405.33,-236 2409.17,-236 2409.17,-236 2526.83,-236 2526.83,-236 2530.67,-236 2534.5,-239.83 2534.5,-243.67 2534.5,-243.67 2534.5,-251.33 2534.5,-251.33 2534.5,-255.17 2530.67,-259 2526.83,-259"/>
<text text-anchor="middle" x="2468" y="-243.8" font-family="Arial" font-size="14.00" fill="#cfffac">src/loops/helpers.ts</text>
</g>
<!-- src/loops/for.ts&#45;&gt;src/loops/helpers.ts -->
<g id="edge52" class="edge">
<title>src/loops/for.ts&#45;&gt;src/loops/helpers.ts</title>
<path fill="none" stroke="#757575" d="M2464,-294.84C2464,-294.84 2464,-269.13 2464,-269.13"/>
<polygon fill="#757575" stroke="#757575" points="2467.5,-269.13 2464,-259.13 2460.5,-269.13 2467.5,-269.13"/>
</g>
<!-- src/loops/types.ts -->
<g id="node32" class="node">
<title>src/loops/types.ts</title>
<path fill="none" stroke="#c6c5fe" d="M2375.83,-259C2375.83,-259 2270.17,-259 2270.17,-259 2266.33,-259 2262.5,-255.17 2262.5,-251.33 2262.5,-251.33 2262.5,-243.67 2262.5,-243.67 2262.5,-239.83 2266.33,-236 2270.17,-236 2270.17,-236 2375.83,-236 2375.83,-236 2379.67,-236 2383.5,-239.83 2383.5,-243.67 2383.5,-243.67 2383.5,-251.33 2383.5,-251.33 2383.5,-255.17 2379.67,-259 2375.83,-259"/>
<text text-anchor="middle" x="2323" y="-243.8" font-family="Arial" font-size="14.00" fill="#c6c5fe">src/loops/types.ts</text>
</g>
<!-- src/loops/for.ts&#45;&gt;src/loops/types.ts -->
<g id="edge54" class="edge">
<title>src/loops/for.ts&#45;&gt;src/loops/types.ts</title>
<path fill="none" stroke="#757575" d="M2411.66,-302C2401.54,-302 2394,-302 2394,-302 2394,-302 2394,-247 2394,-247 2394,-247 2392.95,-247 2392.95,-247"/>
<polygon fill="#757575" stroke="#757575" points="2393.52,-243.5 2383.52,-247 2393.52,-250.5 2393.52,-243.5"/>
</g>
<!-- src/loops/while.ts&#45;&gt;src/loops/loop.ts -->
<g id="edge57" class="edge">
<title>src/loops/while.ts&#45;&gt;src/loops/loop.ts</title>
<path fill="none" stroke="#757575" d="M2344.83,-294.88C2344.83,-284.52 2344.83,-271 2344.83,-271 2344.83,-271 2581.5,-271 2581.5,-271 2581.5,-271 2581.5,-269.25 2581.5,-269.25"/>
<polygon fill="#757575" stroke="#757575" points="2585,-269.25 2581.5,-259.25 2578,-269.25 2585,-269.25"/>
</g>
<!-- src/loops/while.ts&#45;&gt;src/loops/helpers.ts -->
<g id="edge56" class="edge">
<title>src/loops/while.ts&#45;&gt;src/loops/helpers.ts</title>
<path fill="none" stroke="#757575" d="M2386.63,-310C2398.16,-310 2406.75,-310 2406.75,-310 2406.75,-310 2406.75,-269.26 2406.75,-269.26"/>
<polygon fill="#757575" stroke="#757575" points="2410.25,-269.26 2406.75,-259.26 2403.25,-269.26 2410.25,-269.26"/>
</g>
<!-- src/loops/while.ts&#45;&gt;src/loops/types.ts -->
<g id="edge58" class="edge">
<title>src/loops/while.ts&#45;&gt;src/loops/types.ts</title>
<path fill="none" stroke="#757575" d="M2306.17,-294.84C2306.17,-294.84 2306.17,-269.13 2306.17,-269.13"/>
<polygon fill="#757575" stroke="#757575" points="2309.67,-269.13 2306.17,-259.13 2302.67,-269.13 2309.67,-269.13"/>
</g>
<!-- src/type&#45;utils.ts -->
<g id="node23" class="node">
<title>src/type&#45;utils.ts</title>
<path fill="none" stroke="#cfffac" d="M1778.83,-23C1778.83,-23 1687.17,-23 1687.17,-23 1683.33,-23 1679.5,-19.17 1679.5,-15.33 1679.5,-15.33 1679.5,-7.67 1679.5,-7.67 1679.5,-3.83 1683.33,0 1687.17,0 1687.17,0 1778.83,0 1778.83,0 1782.67,0 1786.5,-3.83 1786.5,-7.67 1786.5,-7.67 1786.5,-15.33 1786.5,-15.33 1786.5,-19.17 1782.67,-23 1778.83,-23"/>
<text text-anchor="middle" x="1733" y="-7.8" font-family="Arial" font-size="14.00" fill="#cfffac">src/type&#45;utils.ts</text>
</g>
<!-- src/parser.ts&#45;&gt;src/type&#45;utils.ts -->
<g id="edge59" class="edge">
<title>src/parser.ts&#45;&gt;src/type&#45;utils.ts</title>
<path fill="none" stroke="#757575" d="M1973,-176.85C1973,-137.36 1973,-11 1973,-11 1973,-11 1796.56,-11 1796.56,-11"/>
<polygon fill="#757575" stroke="#757575" points="1796.56,-7.5 1786.56,-11 1796.56,-14.5 1796.56,-7.5"/>
</g>
<!-- src/scope.ts&#45;&gt;src/expressions/handlers.ts -->
<g id="edge60" class="edge">
<title>src/scope.ts&#45;&gt;src/expressions/handlers.ts</title>
<path fill="none" stroke="#757575" d="M1495.42,-302C1467.58,-302 1437,-302 1437,-302 1437,-302 1437,-230 1437,-230 1437,-230 489.8,-230 489.8,-230 489.8,-230 489.8,-33.25 489.8,-33.25"/>
<polygon fill="#757575" stroke="#757575" points="493.3,-33.25 489.8,-23.25 486.3,-33.25 493.3,-33.25"/>
</g>
<!-- src/scope.ts&#45;&gt;src/handlers/lambda&#45;expressions.ts -->
<g id="edge63" class="edge">
<title>src/scope.ts&#45;&gt;src/handlers/lambda&#45;expressions.ts</title>
<path fill="none" stroke="#757575" d="M1495.5,-306C1441.09,-306 1356.17,-306 1356.17,-306 1356.17,-306 1356.17,-269.06 1356.17,-269.06"/>
<polygon fill="#757575" stroke="#757575" points="1359.67,-269.06 1356.17,-259.06 1352.67,-269.06 1359.67,-269.06"/>
</g>
<!-- src/scope.ts&#45;&gt;src/parser.ts -->
<g id="edge64" class="edge">
<title>src/scope.ts&#45;&gt;src/parser.ts</title>
<path fill="none" stroke="#757575" d="M1554.83,-294.75C1554.83,-288.88 1554.83,-283 1554.83,-283 1554.83,-283 1982,-283 1982,-283 1982,-283 1982,-210.09 1982,-210.09"/>
<polygon fill="#757575" stroke="#757575" points="1985.5,-210.09 1982,-200.09 1978.5,-210.09 1985.5,-210.09"/>
</g>
<!-- src/scope.ts&#45;&gt;src/utils/array.ts -->
<g id="edge65" class="edge">
<title>src/scope.ts&#45;&gt;src/utils/array.ts</title>
<path fill="none" stroke="#757575" d="M1584.66,-306C1635.52,-306 1711.67,-306 1711.67,-306 1711.67,-306 1711.67,-210.2 1711.67,-210.2"/>
<polygon fill="#757575" stroke="#757575" points="1715.17,-210.2 1711.67,-200.2 1708.17,-210.2 1715.17,-210.2"/>
</g>
<!-- src/function&#45;type&#45;handler.ts -->
<g id="node24" class="node">
<title>src/function&#45;type&#45;handler.ts</title>
<path fill="none" stroke="#c6c5fe" d="M1621.83,-259C1621.83,-259 1458.17,-259 1458.17,-259 1454.33,-259 1450.5,-255.17 1450.5,-251.33 1450.5,-251.33 1450.5,-243.67 1450.5,-243.67 1450.5,-239.83 1454.33,-236 1458.17,-236 1458.17,-236 1621.83,-236 1621.83,-236 1625.67,-236 1629.5,-239.83 1629.5,-243.67 1629.5,-243.67 1629.5,-251.33 1629.5,-251.33 1629.5,-255.17 1625.67,-259 1621.83,-259"/>
<text text-anchor="middle" x="1540" y="-243.8" font-family="Arial" font-size="14.00" fill="#c6c5fe">src/function&#45;type&#45;handler.ts</text>
</g>
<!-- src/scope.ts&#45;&gt;src/function&#45;type&#45;handler.ts -->
<g id="edge61" class="edge">
<title>src/scope.ts&#45;&gt;src/function&#45;type&#45;handler.ts</title>
<path fill="none" stroke="#757575" d="M1525.17,-294.84C1525.17,-294.84 1525.17,-269.13 1525.17,-269.13"/>
<polygon fill="#757575" stroke="#757575" points="1528.67,-269.13 1525.17,-259.13 1521.67,-269.13 1528.67,-269.13"/>
</g>
<!-- src/scope.ts&#45;&gt;src/functions.ts -->
<g id="edge62" class="edge">
<title>src/scope.ts&#45;&gt;src/functions.ts</title>
<path fill="none" stroke="#757575" d="M1495.15,-310C1392.44,-310 1149,-310 1149,-310 1149,-310 1149,-210.15 1149,-210.15"/>
<polygon fill="#757575" stroke="#757575" points="1152.5,-210.15 1149,-200.15 1145.5,-210.15 1152.5,-210.15"/>
</g>
<!-- src/utils/function&#45;utils.ts -->
<g id="node29" class="node">
<title>src/utils/function&#45;utils.ts</title>
<path fill="none" stroke="#c6c5fe" d="M1712.33,-82C1712.33,-82 1571.67,-82 1571.67,-82 1567.83,-82 1564,-78.17 1564,-74.33 1564,-74.33 1564,-66.67 1564,-66.67 1564,-62.83 1567.83,-59 1571.67,-59 1571.67,-59 1712.33,-59 1712.33,-59 1716.17,-59 1720,-62.83 1720,-66.67 1720,-66.67 1720,-74.33 1720,-74.33 1720,-78.17 1716.17,-82 1712.33,-82"/>
<text text-anchor="middle" x="1642" y="-66.8" font-family="Arial" font-size="14.00" fill="#c6c5fe">src/utils/function&#45;utils.ts</text>
</g>
<!-- src/scope.ts&#45;&gt;src/utils/function&#45;utils.ts -->
<g id="edge66" class="edge">
<title>src/scope.ts&#45;&gt;src/utils/function&#45;utils.ts</title>
<path fill="none" stroke="#757575" d="M1584.69,-300C1614.53,-300 1648.33,-300 1648.33,-300 1648.33,-300 1648.33,-92.2 1648.33,-92.2"/>
<polygon fill="#757575" stroke="#757575" points="1651.83,-92.2 1648.33,-82.2 1644.83,-92.2 1651.83,-92.2"/>
</g>
<!-- src/utils/scope&#45;helpers.ts -->
<g id="node33" class="node">
<title>src/utils/scope&#45;helpers.ts</title>
<path fill="none" stroke="#c6c5fe" d="M1881.83,-259C1881.83,-259 1732.17,-259 1732.17,-259 1728.33,-259 1724.5,-255.17 1724.5,-251.33 1724.5,-251.33 1724.5,-243.67 1724.5,-243.67 1724.5,-239.83 1728.33,-236 1732.17,-236 1732.17,-236 1881.83,-236 1881.83,-236 1885.67,-236 1889.5,-239.83 1889.5,-243.67 1889.5,-243.67 1889.5,-251.33 1889.5,-251.33 1889.5,-255.17 1885.67,-259 1881.83,-259"/>
<text text-anchor="middle" x="1807" y="-243.8" font-family="Arial" font-size="14.00" fill="#c6c5fe">src/utils/scope&#45;helpers.ts</text>
</g>
<!-- src/scope.ts&#45;&gt;src/utils/scope&#45;helpers.ts -->
<g id="edge67" class="edge">
<title>src/scope.ts&#45;&gt;src/utils/scope&#45;helpers.ts</title>
<path fill="none" stroke="#757575" d="M1584.69,-312C1657.4,-312 1793.25,-312 1793.25,-312 1793.25,-312 1793.25,-269.03 1793.25,-269.03"/>
<polygon fill="#757575" stroke="#757575" points="1796.75,-269.03 1793.25,-259.03 1789.75,-269.03 1796.75,-269.03"/>
</g>
<!-- src/utils/app&#45;handlers.ts&#45;&gt;src/types/structs.ts -->
<g id="edge74" class="edge">
<title>src/utils/app&#45;handlers.ts&#45;&gt;src/types/structs.ts</title>
<path fill="none" stroke="#757575" d="M866,-294.68C866,-265.42 866,-192 866,-192 866,-192 677,-192 677,-192"/>
<polygon fill="#757575" stroke="#757575" points="677,-188.5 667,-192 677,-195.5 677,-188.5"/>
</g>
<!-- src/utils/app&#45;handlers.ts&#45;&gt;src/functions.ts -->
<g id="edge72" class="edge">
<title>src/utils/app&#45;handlers.ts&#45;&gt;src/functions.ts</title>
<path fill="none" stroke="#757575" d="M1000.52,-298C1042.26,-298 1084.83,-298 1084.83,-298 1084.83,-298 1084.83,-210.22 1084.83,-210.22"/>
<polygon fill="#757575" stroke="#757575" points="1088.33,-210.22 1084.83,-200.22 1081.33,-210.22 1088.33,-210.22"/>
</g>
<!-- src/utils/function&#45;call&#45;params.ts -->
<g id="node28" class="node">
<title>src/utils/function&#45;call&#45;params.ts</title>
<path fill="none" stroke="#c6c5fe" d="M737.83,-141C737.83,-141 550.17,-141 550.17,-141 546.33,-141 542.5,-137.17 542.5,-133.33 542.5,-133.33 542.5,-125.67 542.5,-125.67 542.5,-121.83 546.33,-118 550.17,-118 550.17,-118 737.83,-118 737.83,-118 741.67,-118 745.5,-121.83 745.5,-125.67 745.5,-125.67 745.5,-133.33 745.5,-133.33 745.5,-137.17 741.67,-141 737.83,-141"/>
<text text-anchor="middle" x="644" y="-125.8" font-family="Arial" font-size="14.00" fill="#c6c5fe">src/utils/function&#45;call&#45;params.ts</text>
</g>
<!-- src/utils/app&#45;handlers.ts&#45;&gt;src/utils/function&#45;call&#45;params.ts -->
<g id="edge76" class="edge">
<title>src/utils/app&#45;handlers.ts&#45;&gt;src/utils/function&#45;call&#45;params.ts</title>
<path fill="none" stroke="#757575" d="M853.75,-294.86C853.75,-268.2 853.75,-205 853.75,-205 853.75,-205 693.17,-205 693.17,-205 693.17,-205 693.17,-151.3 693.17,-151.3"/>
<polygon fill="#757575" stroke="#757575" points="696.67,-151.3 693.17,-141.3 689.67,-151.3 696.67,-151.3"/>
</g>
<!-- src/handlers/method&#45;call.ts -->
<g id="node30" class="node">
<title>src/handlers/method&#45;call.ts</title>
<path fill="none" stroke="#c6c5fe" d="M1061.83,-259C1061.83,-259 898.17,-259 898.17,-259 894.33,-259 890.5,-255.17 890.5,-251.33 890.5,-251.33 890.5,-243.67 890.5,-243.67 890.5,-239.83 894.33,-236 898.17,-236 898.17,-236 1061.83,-236 1061.83,-236 1065.67,-236 1069.5,-239.83 1069.5,-243.67 1069.5,-243.67 1069.5,-251.33 1069.5,-251.33 1069.5,-255.17 1065.67,-259 1061.83,-259"/>
<text text-anchor="middle" x="980" y="-243.8" font-family="Arial" font-size="14.00" fill="#c6c5fe">src/handlers/method&#45;call.ts</text>
</g>
<!-- src/utils/app&#45;handlers.ts&#45;&gt;src/handlers/method&#45;call.ts -->
<g id="edge73" class="edge">
<title>src/utils/app&#45;handlers.ts&#45;&gt;src/handlers/method&#45;call.ts</title>
<path fill="none" stroke="#757575" d="M945.5,-294.84C945.5,-294.84 945.5,-269.13 945.5,-269.13"/>
<polygon fill="#757575" stroke="#757575" points="949,-269.13 945.5,-259.13 942,-269.13 949,-269.13"/>
</g>
<!-- src/types/type&#45;declarations.ts -->
<g id="node34" class="node">
<title>src/types/type&#45;declarations.ts</title>
<path fill="none" stroke="#c6c5fe" d="M946.83,-141C946.83,-141 771.17,-141 771.17,-141 767.33,-141 763.5,-137.17 763.5,-133.33 763.5,-133.33 763.5,-125.67 763.5,-125.67 763.5,-121.83 767.33,-118 771.17,-118 771.17,-118 946.83,-118 946.83,-118 950.67,-118 954.5,-121.83 954.5,-125.67 954.5,-125.67 954.5,-133.33 954.5,-133.33 954.5,-137.17 950.67,-141 946.83,-141"/>
<text text-anchor="middle" x="859" y="-125.8" font-family="Arial" font-size="14.00" fill="#c6c5fe">src/types/type&#45;declarations.ts</text>
</g>
<!-- src/utils/app&#45;handlers.ts&#45;&gt;src/types/type&#45;declarations.ts -->
<g id="edge75" class="edge">
<title>src/utils/app&#45;handlers.ts&#45;&gt;src/types/type&#45;declarations.ts</title>
<path fill="none" stroke="#757575" d="M878.25,-294.89C878.25,-294.89 878.25,-151.39 878.25,-151.39"/>
<polygon fill="#757575" stroke="#757575" points="881.75,-151.39 878.25,-141.39 874.75,-151.39 881.75,-151.39"/>
</g>
<!-- src/utils/this&#45;keyword.ts&#45;&gt;src/types/structs.ts -->
<g id="edge85" class="edge">
<title>src/utils/this&#45;keyword.ts&#45;&gt;src/types/structs.ts</title>
<path fill="none" stroke="#757575" d="M623.67,-235.84C623.67,-235.84 623.67,-210.13 623.67,-210.13"/>
<polygon fill="#757575" stroke="#757575" points="627.17,-210.13 623.67,-200.13 620.17,-210.13 627.17,-210.13"/>
</g>
<!-- src/utils/this&#45;keyword.ts&#45;&gt;src/functions.ts -->
<g id="edge84" class="edge">
<title>src/utils/this&#45;keyword.ts&#45;&gt;src/functions.ts</title>
<path fill="none" stroke="#757575" d="M753.83,-235.81C753.83,-220.62 753.83,-196 753.83,-196 753.83,-196 1072.46,-196 1072.46,-196"/>
<polygon fill="#757575" stroke="#757575" points="1072.46,-199.5 1082.46,-196 1072.46,-192.5 1072.46,-199.5"/>
</g>
<!-- src/declarations.ts -->
<g id="node16" class="node">
<title>src/declarations.ts</title>
<path fill="none" stroke="#c6c5fe" d="M795.83,-82C795.83,-82 686.17,-82 686.17,-82 682.33,-82 678.5,-78.17 678.5,-74.33 678.5,-74.33 678.5,-66.67 678.5,-66.67 678.5,-62.83 682.33,-59 686.17,-59 686.17,-59 795.83,-59 795.83,-59 799.67,-59 803.5,-62.83 803.5,-66.67 803.5,-66.67 803.5,-74.33 803.5,-74.33 803.5,-78.17 799.67,-82 795.83,-82"/>
<text text-anchor="middle" x="741" y="-66.8" font-family="Arial" font-size="14.00" fill="#c6c5fe">src/declarations.ts</text>
</g>
<!-- src/declarations.ts&#45;&gt;src/expressions/handlers.ts -->
<g id="edge15" class="edge">
<title>src/declarations.ts&#45;&gt;src/expressions/handlers.ts</title>
<path fill="none" stroke="#757575" d="M678.32,-70C649.35,-70 621.25,-70 621.25,-70 621.25,-70 621.25,-33.06 621.25,-33.06"/>
<polygon fill="#757575" stroke="#757575" points="624.75,-33.06 621.25,-23.06 617.75,-33.06 624.75,-33.06"/>
</g>
<!-- src/expressions/operators.ts&#45;&gt;src/parser.ts -->
<g id="edge26" class="edge">
<title>src/expressions/operators.ts&#45;&gt;src/parser.ts</title>
<path fill="none" stroke="#757575" d="M2047.75,-235.74C2047.75,-218.4 2047.75,-188 2047.75,-188 2047.75,-188 2028.21,-188 2028.21,-188"/>
<polygon fill="#757575" stroke="#757575" points="2028.21,-184.5 2018.21,-188 2028.21,-191.5 2028.21,-184.5"/>
</g>
<!-- src/expressions/operators.ts&#45;&gt;src/types/structs.ts -->
<g id="edge28" class="edge">
<title>src/expressions/operators.ts&#45;&gt;src/types/structs.ts</title>
<path fill="none" stroke="#757575" d="M2034.62,-235.99C2034.62,-230.45 2034.62,-225 2034.62,-225 2034.62,-225 645.33,-225 645.33,-225 645.33,-225 645.33,-210.05 645.33,-210.05"/>
<polygon fill="#757575" stroke="#757575" points="648.83,-210.05 645.33,-200.05 641.83,-210.05 648.83,-210.05"/>
</g>
<!-- src/expressions/operators.ts&#45;&gt;src/utils/array.ts -->
<g id="edge29" class="edge">
<title>src/expressions/operators.ts&#45;&gt;src/utils/array.ts</title>
<path fill="none" stroke="#757575" d="M2021.28,-251C1969.44,-251 1915.17,-251 1915.17,-251 1915.17,-251 1915.17,-188 1915.17,-188 1915.17,-188 1806.11,-188 1806.11,-188"/>
<polygon fill="#757575" stroke="#757575" points="1806.11,-184.5 1796.11,-188 1806.11,-191.5 1806.11,-184.5"/>
</g>
<!-- src/expressions/operator&#45;finder.ts -->
<g id="node21" class="node">
<title>src/expressions/operator&#45;finder.ts</title>
<path fill="none" stroke="#c6c5fe" d="M2282.33,-200C2282.33,-200 2081.67,-200 2081.67,-200 2077.83,-200 2074,-196.17 2074,-192.33 2074,-192.33 2074,-184.67 2074,-184.67 2074,-180.83 2077.83,-177 2081.67,-177 2081.67,-177 2282.33,-177 2282.33,-177 2286.17,-177 2290,-180.83 2290,-184.67 2290,-184.67 2290,-192.33 2290,-192.33 2290,-196.17 2286.17,-200 2282.33,-200"/>
<text text-anchor="middle" x="2182" y="-184.8" font-family="Arial" font-size="14.00" fill="#c6c5fe">src/expressions/operator&#45;finder.ts</text>
</g>
<!-- src/expressions/operators.ts&#45;&gt;src/expressions/operator&#45;finder.ts -->
<g id="edge25" class="edge">
<title>src/expressions/operators.ts&#45;&gt;src/expressions/operator&#45;finder.ts</title>
<path fill="none" stroke="#757575" d="M2140.25,-235.84C2140.25,-235.84 2140.25,-210.13 2140.25,-210.13"/>
<polygon fill="#757575" stroke="#757575" points="2143.75,-210.13 2140.25,-200.13 2136.75,-210.13 2143.75,-210.13"/>
</g>
<!-- src/expressions/operators.ts&#45;&gt;src/type&#45;utils.ts -->
<g id="edge27" class="edge">
<title>src/expressions/operators.ts&#45;&gt;src/type&#45;utils.ts</title>
<path fill="none" stroke="#757575" d="M2060.88,-235.8C2060.88,-187.36 2060.88,-5 2060.88,-5 2060.88,-5 1796.77,-5 1796.77,-5"/>
<polygon fill="#757575" stroke="#757575" points="1796.77,-1.5 1786.77,-5 1796.77,-8.5 1796.77,-1.5"/>
</g>
<!-- src/types/structs.ts&#45;&gt;src/expressions/handlers.ts -->
<g id="edge69" class="edge">
<title>src/types/structs.ts&#45;&gt;src/expressions/handlers.ts</title>
<path fill="none" stroke="#757575" d="M538.97,-188C520.97,-188 506.2,-188 506.2,-188 506.2,-188 506.2,-33.08 506.2,-33.08"/>
<polygon fill="#757575" stroke="#757575" points="509.7,-33.08 506.2,-23.08 502.7,-33.08 509.7,-33.08"/>
</g>
<!-- src/types/structs.ts&#45;&gt;src/declarations.ts -->
<g id="edge68" class="edge">
<title>src/types/structs.ts&#45;&gt;src/declarations.ts</title>
<path fill="none" stroke="#757575" d="M667.33,-184C706.74,-184 749.67,-184 749.67,-184 749.67,-184 749.67,-92.22 749.67,-92.22"/>
<polygon fill="#757575" stroke="#757575" points="753.17,-92.22 749.67,-82.22 746.17,-92.22 753.17,-92.22"/>
</g>
<!-- src/expressions/operator&#45;utils.ts -->
<g id="node22" class="node">
<title>src/expressions/operator&#45;utils.ts</title>
<path fill="none" stroke="#cfffac" d="M2277.83,-141C2277.83,-141 2086.17,-141 2086.17,-141 2082.33,-141 2078.5,-137.17 2078.5,-133.33 2078.5,-133.33 2078.5,-125.67 2078.5,-125.67 2078.5,-121.83 2082.33,-118 2086.17,-118 2086.17,-118 2277.83,-118 2277.83,-118 2281.67,-118 2285.5,-121.83 2285.5,-125.67 2285.5,-125.67 2285.5,-133.33 2285.5,-133.33 2285.5,-137.17 2281.67,-141 2277.83,-141"/>
<text text-anchor="middle" x="2182" y="-125.8" font-family="Arial" font-size="14.00" fill="#cfffac">src/expressions/operator&#45;utils.ts</text>
</g>
<!-- src/expressions/operator&#45;finder.ts&#45;&gt;src/expressions/operator&#45;utils.ts -->
<g id="edge24" class="edge">
<title>src/expressions/operator&#45;finder.ts&#45;&gt;src/expressions/operator&#45;utils.ts</title>
<path fill="none" stroke="#757575" d="M2182,-176.84C2182,-176.84 2182,-151.13 2182,-151.13"/>
<polygon fill="#757575" stroke="#757575" points="2185.5,-151.13 2182,-141.13 2178.5,-151.13 2185.5,-151.13"/>
</g>
<!-- src/function&#45;type&#45;handler.ts&#45;&gt;src/type&#45;utils.ts -->
<g id="edge31" class="edge">
<title>src/function&#45;type&#45;handler.ts&#45;&gt;src/type&#45;utils.ts</title>
<path fill="none" stroke="#757575" d="M1547.25,-235.75C1547.25,-188.78 1547.25,-17 1547.25,-17 1547.25,-17 1669.27,-17 1669.27,-17"/>
<polygon fill="#757575" stroke="#757575" points="1669.27,-20.5 1679.27,-17 1669.27,-13.5 1669.27,-20.5"/>
</g>
<!-- src/function&#45;type&#45;handler.ts&#45;&gt;src/functions.ts -->
<g id="edge30" class="edge">
<title>src/function&#45;type&#45;handler.ts&#45;&gt;src/functions.ts</title>
<path fill="none" stroke="#757575" d="M1490.5,-235.89C1490.5,-220.16 1490.5,-194 1490.5,-194 1490.5,-194 1199.84,-194 1199.84,-194"/>
<polygon fill="#757575" stroke="#757575" points="1199.84,-190.5 1189.84,-194 1199.84,-197.5 1199.84,-190.5"/>
</g>
<!-- src/functions.ts&#45;&gt;src/utils/identifier&#45;utils.ts -->
<g id="edge36" class="edge">
<title>src/functions.ts&#45;&gt;src/utils/identifier&#45;utils.ts</title>
<path fill="none" stroke="#757575" d="M1082.43,-180C1056.16,-180 1030.1,-180 1030.1,-180 1030.1,-180 1030.1,-92.22 1030.1,-92.22"/>
<polygon fill="#757575" stroke="#757575" points="1033.6,-92.22 1030.1,-82.22 1026.6,-92.22 1033.6,-92.22"/>
</g>
<!-- src/functions.ts&#45;&gt;src/handlers/anonymous&#45;functions.ts -->
<g id="edge32" class="edge">
<title>src/functions.ts&#45;&gt;src/handlers/anonymous&#45;functions.ts</title>
<path fill="none" stroke="#757575" d="M1189.71,-182C1246.21,-182 1327,-182 1327,-182 1327,-182 1327,-151.15 1327,-151.15"/>
<polygon fill="#757575" stroke="#757575" points="1330.5,-151.15 1327,-141.15 1323.5,-151.15 1330.5,-151.15"/>
</g>
<!-- src/handlers/function&#45;declaration.ts -->
<g id="node27" class="node">
<title>src/handlers/function&#45;declaration.ts</title>
<path fill="none" stroke="#c6c5fe" d="M1267.33,-141C1267.33,-141 1056.67,-141 1056.67,-141 1052.83,-141 1049,-137.17 1049,-133.33 1049,-133.33 1049,-125.67 1049,-125.67 1049,-121.83 1052.83,-118 1056.67,-118 1056.67,-118 1267.33,-118 1267.33,-118 1271.17,-118 1275,-121.83 1275,-125.67 1275,-125.67 1275,-133.33 1275,-133.33 1275,-137.17 1271.17,-141 1267.33,-141"/>
<text text-anchor="middle" x="1162" y="-125.8" font-family="Arial" font-size="14.00" fill="#c6c5fe">src/handlers/function&#45;declaration.ts</text>
</g>
<!-- src/functions.ts&#45;&gt;src/handlers/function&#45;declaration.ts -->
<g id="edge33" class="edge">
<title>src/functions.ts&#45;&gt;src/handlers/function&#45;declaration.ts</title>
<path fill="none" stroke="#757575" d="M1136,-176.84C1136,-176.84 1136,-151.13 1136,-151.13"/>
<polygon fill="#757575" stroke="#757575" points="1139.5,-151.13 1136,-141.13 1132.5,-151.13 1139.5,-151.13"/>
</g>
<!-- src/functions.ts&#45;&gt;src/utils/function&#45;call&#45;params.ts -->
<g id="edge34" class="edge">
<title>src/functions.ts&#45;&gt;src/utils/function&#45;call&#45;params.ts</title>
<path fill="none" stroke="#757575" d="M1082.38,-188C969.85,-188 719.33,-188 719.33,-188 719.33,-188 719.33,-151.06 719.33,-151.06"/>
<polygon fill="#757575" stroke="#757575" points="722.83,-151.06 719.33,-141.06 715.83,-151.06 722.83,-151.06"/>
</g>
<!-- src/functions.ts&#45;&gt;src/utils/function&#45;utils.ts -->
<g id="edge35" class="edge">
<title>src/functions.ts&#45;&gt;src/utils/function&#45;utils.ts</title>
<path fill="none" stroke="#757575" d="M1189.65,-188C1313.27,-188 1607.67,-188 1607.67,-188 1607.67,-188 1607.67,-92.2 1607.67,-92.2"/>
<polygon fill="#757575" stroke="#757575" points="1611.17,-92.2 1607.67,-82.2 1604.17,-92.2 1611.17,-92.2"/>
</g>
<!-- src/handlers/anonymous&#45;functions.ts&#45;&gt;src/utils/identifier&#45;utils.ts -->
<g id="edge39" class="edge">
<title>src/handlers/anonymous&#45;functions.ts&#45;&gt;src/utils/identifier&#45;utils.ts</title>
<path fill="none" stroke="#757575" d="M1412,-117.73C1412,-101.44 1412,-74 1412,-74 1412,-74 1095.41,-74 1095.41,-74"/>
<polygon fill="#757575" stroke="#757575" points="1095.41,-70.5 1085.41,-74 1095.41,-77.5 1095.41,-70.5"/>
</g>
<!-- src/handlers/anonymous&#45;functions.ts&#45;&gt;src/type&#45;utils.ts -->
<g id="edge37" class="edge">
<title>src/handlers/anonymous&#45;functions.ts&#45;&gt;src/type&#45;utils.ts</title>
<path fill="none" stroke="#757575" d="M1530.87,-133C1629.36,-133 1753.25,-133 1753.25,-133 1753.25,-133 1753.25,-33.15 1753.25,-33.15"/>
<polygon fill="#757575" stroke="#757575" points="1756.75,-33.15 1753.25,-23.15 1749.75,-33.15 1756.75,-33.15"/>
</g>
<!-- src/handlers/anonymous&#45;functions.ts&#45;&gt;src/utils/function&#45;utils.ts -->
<g id="edge38" class="edge">
<title>src/handlers/anonymous&#45;functions.ts&#45;&gt;src/utils/function&#45;utils.ts</title>
<path fill="none" stroke="#757575" d="M1530.83,-125C1561.39,-125 1585.83,-125 1585.83,-125 1585.83,-125 1585.83,-92.06 1585.83,-92.06"/>
<polygon fill="#757575" stroke="#757575" points="1589.33,-92.06 1585.83,-82.06 1582.33,-92.06 1589.33,-92.06"/>
</g>
<!-- src/handlers/function&#45;declaration.ts&#45;&gt;src/declarations.ts -->
<g id="edge42" class="edge">
<title>src/handlers/function&#45;declaration.ts&#45;&gt;src/declarations.ts</title>
<path fill="none" stroke="#757575" d="M1061,-117.72C1061,-105.45 1061,-88 1061,-88 1061,-88 790.17,-88 790.17,-88 790.17,-88 790.17,-87.41 790.17,-87.41"/>
<polygon fill="#757575" stroke="#757575" points="793.67,-92.08 790.17,-82.08 786.67,-92.08 793.67,-92.08"/>
</g>
<!-- src/handlers/function&#45;declaration.ts&#45;&gt;src/utils/identifier&#45;utils.ts -->
<g id="edge45" class="edge">
<title>src/handlers/function&#45;declaration.ts&#45;&gt;src/utils/identifier&#45;utils.ts</title>
<path fill="none" stroke="#757575" d="M1073,-117.84C1073,-117.84 1073,-92.13 1073,-92.13"/>
<polygon fill="#757575" stroke="#757575" points="1076.5,-92.13 1073,-82.13 1069.5,-92.13 1076.5,-92.13"/>
</g>
<!-- src/handlers/function&#45;declaration.ts&#45;&gt;src/type&#45;utils.ts -->
<g id="edge43" class="edge">
<title>src/handlers/function&#45;declaration.ts&#45;&gt;src/type&#45;utils.ts</title>
<path fill="none" stroke="#757575" d="M1148.33,-117.7C1148.33,-87.73 1148.33,-11 1148.33,-11 1148.33,-11 1669.3,-11 1669.3,-11"/>
<polygon fill="#757575" stroke="#757575" points="1669.3,-14.5 1679.3,-11 1669.3,-7.5 1669.3,-14.5"/>
</g>
<!-- src/handlers/function&#45;declaration.ts&#45;&gt;src/utils/function&#45;utils.ts -->
<g id="edge44" class="edge">
<title>src/handlers/function&#45;declaration.ts&#45;&gt;src/utils/function&#45;utils.ts</title>
<path fill="none" stroke="#757575" d="M1211.67,-117.85C1211.67,-99.52 1211.67,-66 1211.67,-66 1211.67,-66 1553.57,-66 1553.57,-66"/>
<polygon fill="#757575" stroke="#757575" points="1553.57,-69.5 1563.57,-66 1553.57,-62.5 1553.57,-69.5"/>
</g>
<!-- src/utils/function&#45;call&#45;params.ts&#45;&gt;src/expressions/handlers.ts -->
<g id="edge77" class="edge">
<title>src/utils/function&#45;call&#45;params.ts&#45;&gt;src/expressions/handlers.ts</title>
<path fill="none" stroke="#757575" d="M558.25,-117.75C558.25,-117.75 558.25,-33.2 558.25,-33.2"/>
<polygon fill="#757575" stroke="#757575" points="561.75,-33.2 558.25,-23.2 554.75,-33.2 561.75,-33.2"/>
</g>
<!-- src/utils/function&#45;utils.ts&#45;&gt;src/type&#45;utils.ts -->
<g id="edge78" class="edge">
<title>src/utils/function&#45;utils.ts&#45;&gt;src/type&#45;utils.ts</title>
<path fill="none" stroke="#757575" d="M1699.75,-58.84C1699.75,-58.84 1699.75,-33.13 1699.75,-33.13"/>
<polygon fill="#757575" stroke="#757575" points="1703.25,-33.13 1699.75,-23.13 1696.25,-33.13 1703.25,-33.13"/>
</g>
<!-- src/handlers/method&#45;call.ts&#45;&gt;src/expressions/handlers.ts -->
<g id="edge48" class="edge">
<title>src/handlers/method&#45;call.ts&#45;&gt;src/expressions/handlers.ts</title>
<path fill="none" stroke="#757575" d="M992.3,-235.92C992.3,-202.13 992.3,-106 992.3,-106 992.3,-106 574,-106 574,-106 574,-106 574,-33.09 574,-33.09"/>
<polygon fill="#757575" stroke="#757575" points="577.5,-33.09 574,-23.09 570.5,-33.09 577.5,-33.09"/>
</g>
<!-- src/handlers/method&#45;call.ts&#45;&gt;src/utils/identifier&#45;utils.ts -->
<g id="edge50" class="edge">
<title>src/handlers/method&#45;call.ts&#45;&gt;src/utils/identifier&#45;utils.ts</title>
<path fill="none" stroke="#757575" d="M1011.2,-235.89C1011.2,-235.89 1011.2,-92.39 1011.2,-92.39"/>
<polygon fill="#757575" stroke="#757575" points="1014.7,-92.39 1011.2,-82.39 1007.7,-92.39 1014.7,-92.39"/>
</g>
<!-- src/handlers/method&#45;call.ts&#45;&gt;src/functions.ts -->
<g id="edge49" class="edge">
<title>src/handlers/method&#45;call.ts&#45;&gt;src/functions.ts</title>
<path fill="none" stroke="#757575" d="M1069.69,-243C1078.16,-243 1083.67,-243 1083.67,-243 1083.67,-243 1083.67,-210.06 1083.67,-210.06"/>
<polygon fill="#757575" stroke="#757575" points="1087.17,-210.06 1083.67,-200.06 1080.17,-210.06 1087.17,-210.06"/>
</g>
<!-- src/loops/types.ts&#45;&gt;src/expressions/handlers.ts -->
<g id="edge55" class="edge">
<title>src/loops/types.ts&#45;&gt;src/expressions/handlers.ts</title>
<path fill="none" stroke="#757575" d="M2336.75,-235.96C2336.75,-200.26 2336.75,-94 2336.75,-94 2336.75,-94 605.5,-94 605.5,-94 605.5,-94 605.5,-33.32 605.5,-33.32"/>
<polygon fill="#757575" stroke="#757575" points="609,-33.32 605.5,-23.32 602,-33.32 609,-33.32"/>
</g>
<!-- src/utils/scope&#45;helpers.ts&#45;&gt;src/parser.ts -->
<g id="edge80" class="edge">
<title>src/utils/scope&#45;helpers.ts&#45;&gt;src/parser.ts</title>
<path fill="none" stroke="#757575" d="M1889.64,-243C1927.46,-243 1964,-243 1964,-243 1964,-243 1964,-210.06 1964,-210.06"/>
<polygon fill="#757575" stroke="#757575" points="1967.5,-210.06 1964,-200.06 1960.5,-210.06 1967.5,-210.06"/>
</g>
<!-- src/utils/scope&#45;helpers.ts&#45;&gt;src/utils/array.ts -->
<g id="edge82" class="edge">
<title>src/utils/scope&#45;helpers.ts&#45;&gt;src/utils/array.ts</title>
<path fill="none" stroke="#757575" d="M1760.25,-235.84C1760.25,-235.84 1760.25,-210.13 1760.25,-210.13"/>
<polygon fill="#757575" stroke="#757575" points="1763.75,-210.13 1760.25,-200.13 1756.75,-210.13 1763.75,-210.13"/>
</g>
<!-- src/utils/scope&#45;helpers.ts&#45;&gt;src/type&#45;utils.ts -->
<g id="edge81" class="edge">
<title>src/utils/scope&#45;helpers.ts&#45;&gt;src/type&#45;utils.ts</title>
<path fill="none" stroke="#757575" d="M1842.75,-235.75C1842.75,-188.78 1842.75,-17 1842.75,-17 1842.75,-17 1796.59,-17 1796.59,-17"/>
<polygon fill="#757575" stroke="#757575" points="1796.59,-13.5 1786.59,-17 1796.59,-20.5 1796.59,-13.5"/>
</g>
<!-- src/utils/scope&#45;helpers.ts&#45;&gt;src/utils/function&#45;utils.ts -->
<g id="edge83" class="edge">
<title>src/utils/scope&#45;helpers.ts&#45;&gt;src/utils/function&#45;utils.ts</title>
<path fill="none" stroke="#757575" d="M1724.45,-247C1694.17,-247 1667.17,-247 1667.17,-247 1667.17,-247 1667.17,-92.08 1667.17,-92.08"/>
<polygon fill="#757575" stroke="#757575" points="1670.67,-92.08 1667.17,-82.08 1663.67,-92.08 1670.67,-92.08"/>
</g>
<!-- src/types/type&#45;declarations.ts&#45;&gt;src/declarations.ts -->
<g id="edge70" class="edge">
<title>src/types/type&#45;declarations.ts&#45;&gt;src/declarations.ts</title>
<path fill="none" stroke="#757575" d="M776.83,-117.84C776.83,-117.84 776.83,-92.13 776.83,-92.13"/>
<polygon fill="#757575" stroke="#757575" points="780.33,-92.13 776.83,-82.13 773.33,-92.13 780.33,-92.13"/>
</g>
<!-- src/types/type&#45;declarations.ts&#45;&gt;src/type&#45;utils.ts -->
<g id="edge71" class="edge">
<title>src/types/type&#45;declarations.ts&#45;&gt;src/type&#45;utils.ts</title>
<path fill="none" stroke="#757575" d="M864.25,-117.56C864.25,-86.4 864.25,-5 864.25,-5 864.25,-5 1669.31,-5 1669.31,-5"/>
<polygon fill="#757575" stroke="#757575" points="1669.31,-8.5 1679.31,-5 1669.31,-1.5 1669.31,-8.5"/>
</g>
<!-- src/utils/interpret.ts -->
<g id="node35" class="node">
<title>src/utils/interpret.ts</title>
<path fill="none" stroke="#c6c5fe" d="M1109.33,-436C1109.33,-436 994.67,-436 994.67,-436 990.83,-436 987,-432.17 987,-428.33 987,-428.33 987,-420.67 987,-420.67 987,-416.83 990.83,-413 994.67,-413 994.67,-413 1109.33,-413 1109.33,-413 1113.17,-413 1117,-416.83 1117,-420.67 1117,-420.67 1117,-428.33 1117,-428.33 1117,-432.17 1113.17,-436 1109.33,-436"/>
<text text-anchor="middle" x="1052" y="-420.8" font-family="Arial" font-size="14.00" fill="#c6c5fe">src/utils/interpret.ts</text>
</g>
<!-- src/utils/interpret.ts&#45;&gt;src/app.ts -->
<g id="edge79" class="edge">
<title>src/utils/interpret.ts&#45;&gt;src/app.ts</title>
<path fill="none" stroke="#757575" d="M1052,-412.84C1052,-412.84 1052,-387.13 1052,-387.13"/>
<polygon fill="#757575" stroke="#757575" points="1055.5,-387.13 1052,-377.13 1048.5,-387.13 1055.5,-387.13"/>
</g>
<!-- tests/arithmetic.test.ts -->
<g id="node36" class="node">
<title>tests/arithmetic.test.ts</title>
<path fill="none" stroke="#c6c5fe" d="M779.33,-495C779.33,-495 646.67,-495 646.67,-495 642.83,-495 639,-491.17 639,-487.33 639,-487.33 639,-479.67 639,-479.67 639,-475.83 642.83,-472 646.67,-472 646.67,-472 779.33,-472 779.33,-472 783.17,-472 787,-475.83 787,-479.67 787,-479.67 787,-487.33 787,-487.33 787,-491.17 783.17,-495 779.33,-495"/>
<text text-anchor="middle" x="713" y="-479.8" font-family="Arial" font-size="14.00" fill="#c6c5fe">tests/arithmetic.test.ts</text>
</g>
<!-- tests/arithmetic.test.ts&#45;&gt;src/utils/interpret.ts -->
<g id="edge86" class="edge">
<title>tests/arithmetic.test.ts&#45;&gt;src/utils/interpret.ts</title>
<path fill="none" stroke="#757575" d="M775.25,-471.85C775.25,-453.52 775.25,-420 775.25,-420 775.25,-420 976.76,-420 976.76,-420"/>
<polygon fill="#757575" stroke="#757575" points="976.76,-423.5 986.76,-420 976.76,-416.5 976.76,-423.5"/>
</g>
<!-- tests/control&#45;flow.test.ts -->
<g id="node37" class="node">
<title>tests/control&#45;flow.test.ts</title>
<path fill="none" stroke="#c6c5fe" d="M954.83,-495C954.83,-495 813.17,-495 813.17,-495 809.33,-495 805.5,-491.17 805.5,-487.33 805.5,-487.33 805.5,-479.67 805.5,-479.67 805.5,-475.83 809.33,-472 813.17,-472 813.17,-472 954.83,-472 954.83,-472 958.67,-472 962.5,-475.83 962.5,-479.67 962.5,-479.67 962.5,-487.33 962.5,-487.33 962.5,-491.17 958.67,-495 954.83,-495"/>
<text text-anchor="middle" x="884" y="-479.8" font-family="Arial" font-size="14.00" fill="#c6c5fe">tests/control&#45;flow.test.ts</text>
</g>
<!-- tests/control&#45;flow.test.ts&#45;&gt;src/utils/interpret.ts -->
<g id="edge87" class="edge">
<title>tests/control&#45;flow.test.ts&#45;&gt;src/utils/interpret.ts</title>
<path fill="none" stroke="#757575" d="M902,-471.73C902,-455.44 902,-428 902,-428 902,-428 976.64,-428 976.64,-428"/>
<polygon fill="#757575" stroke="#757575" points="976.64,-431.5 986.64,-428 976.64,-424.5 976.64,-431.5"/>
</g>
<!-- tests/functions.test.ts -->
<g id="node38" class="node">
<title>tests/functions.test.ts</title>
<path fill="none" stroke="#c6c5fe" d="M1115.83,-495C1115.83,-495 988.17,-495 988.17,-495 984.33,-495 980.5,-491.17 980.5,-487.33 980.5,-487.33 980.5,-479.67 980.5,-479.67 980.5,-475.83 984.33,-472 988.17,-472 988.17,-472 1115.83,-472 1115.83,-472 1119.67,-472 1123.5,-475.83 1123.5,-479.67 1123.5,-479.67 1123.5,-487.33 1123.5,-487.33 1123.5,-491.17 1119.67,-495 1115.83,-495"/>
<text text-anchor="middle" x="1052" y="-479.8" font-family="Arial" font-size="14.00" fill="#c6c5fe">tests/functions.test.ts</text>
</g>
<!-- tests/functions.test.ts&#45;&gt;src/utils/interpret.ts -->
<g id="edge88" class="edge">
<title>tests/functions.test.ts&#45;&gt;src/utils/interpret.ts</title>
<path fill="none" stroke="#757575" d="M1052,-471.84C1052,-471.84 1052,-446.13 1052,-446.13"/>
<polygon fill="#757575" stroke="#757575" points="1055.5,-446.13 1052,-436.13 1048.5,-446.13 1055.5,-446.13"/>
</g>
<!-- tests/types.test.ts -->
<g id="node39" class="node">
<title>tests/types.test.ts</title>
<path fill="none" stroke="#c6c5fe" d="M1254.83,-495C1254.83,-495 1149.17,-495 1149.17,-495 1145.33,-495 1141.5,-491.17 1141.5,-487.33 1141.5,-487.33 1141.5,-479.67 1141.5,-479.67 1141.5,-475.83 1145.33,-472 1149.17,-472 1149.17,-472 1254.83,-472 1254.83,-472 1258.67,-472 1262.5,-475.83 1262.5,-479.67 1262.5,-479.67 1262.5,-487.33 1262.5,-487.33 1262.5,-491.17 1258.67,-495 1254.83,-495"/>
<text text-anchor="middle" x="1202" y="-479.8" font-family="Arial" font-size="14.00" fill="#c6c5fe">tests/types.test.ts</text>
</g>
<!-- tests/types.test.ts&#45;&gt;src/utils/interpret.ts -->
<g id="edge89" class="edge">
<title>tests/types.test.ts&#45;&gt;src/utils/interpret.ts</title>
<path fill="none" stroke="#757575" d="M1156.5,-471.73C1156.5,-455.44 1156.5,-428 1156.5,-428 1156.5,-428 1127.29,-428 1127.29,-428"/>
<polygon fill="#757575" stroke="#757575" points="1127.29,-424.5 1117.29,-428 1127.29,-431.5 1127.29,-424.5"/>
</g>
<!-- tests/variables.test.ts -->
<g id="node40" class="node">
<title>tests/variables.test.ts</title>
<path fill="none" stroke="#c6c5fe" d="M1415.83,-495C1415.83,-495 1288.17,-495 1288.17,-495 1284.33,-495 1280.5,-491.17 1280.5,-487.33 1280.5,-487.33 1280.5,-479.67 1280.5,-479.67 1280.5,-475.83 1284.33,-472 1288.17,-472 1288.17,-472 1415.83,-472 1415.83,-472 1419.67,-472 1423.5,-475.83 1423.5,-479.67 1423.5,-479.67 1423.5,-487.33 1423.5,-487.33 1423.5,-491.17 1419.67,-495 1415.83,-495"/>
<text text-anchor="middle" x="1352" y="-479.8" font-family="Arial" font-size="14.00" fill="#c6c5fe">tests/variables.test.ts</text>
</g>
<!-- tests/variables.test.ts&#45;&gt;src/utils/interpret.ts -->
<g id="edge90" class="edge">
<title>tests/variables.test.ts&#45;&gt;src/utils/interpret.ts</title>
<path fill="none" stroke="#757575" d="M1318.33,-471.85C1318.33,-453.52 1318.33,-420 1318.33,-420 1318.33,-420 1127.15,-420 1127.15,-420"/>
<polygon fill="#757575" stroke="#757575" points="1127.15,-416.5 1117.15,-420 1127.15,-423.5 1127.15,-416.5"/>
</g>
</g>
</svg>
