<?xml version="1.0" encoding="UTF-8" standalone="no"?>
<!DOCTYPE svg PUBLIC "-//W3C//DTD SVG 1.1//EN"
 "http://www.w3.org/Graphics/SVG/1.1/DTD/svg11.dtd">
<!-- Generated by graphviz version 2.43.0 (0)
 -->
<!-- Title: G Pages: 1 -->
<svg width="299pt" height="302pt"
 viewBox="0.00 0.00 298.70 302.20" xmlns="http://www.w3.org/2000/svg" xmlns:xlink="http://www.w3.org/1999/xlink">
<g id="graph0" class="graph" transform="scale(1 1) rotate(0) translate(21.6 280.6)">
<title>G</title>
<polygon fill="#111111" stroke="transparent" points="-21.6,21.6 -21.6,-280.6 277.1,-280.6 277.1,21.6 -21.6,21.6"/>
<!-- src/app.ts -->
<g id="node1" class="node">
<title>src/app.ts</title>
<path fill="none" stroke="#c6c5fe" d="M167.83,-200C167.83,-200 108.17,-200 108.17,-200 104.33,-200 100.5,-196.17 100.5,-192.33 100.5,-192.33 100.5,-184.67 100.5,-184.67 100.5,-180.83 104.33,-177 108.17,-177 108.17,-177 167.83,-177 167.83,-177 171.67,-177 175.5,-180.83 175.5,-184.67 175.5,-184.67 175.5,-192.33 175.5,-192.33 175.5,-196.17 171.67,-200 167.83,-200"/>
<text text-anchor="middle" x="138" y="-184.8" font-family="Arial" font-size="14.00" fill="#c6c5fe">src/app.ts</text>
</g>
<!-- src/operators.ts -->
<g id="node2" class="node">
<title>src/operators.ts</title>
<path fill="none" stroke="#c6c5fe" d="M102.33,-141C102.33,-141 7.67,-141 7.67,-141 3.83,-141 0,-137.17 0,-133.33 0,-133.33 0,-125.67 0,-125.67 0,-121.83 3.83,-118 7.67,-118 7.67,-118 102.33,-118 102.33,-118 106.17,-118 110,-121.83 110,-125.67 110,-125.67 110,-133.33 110,-133.33 110,-137.17 106.17,-141 102.33,-141"/>
<text text-anchor="middle" x="55" y="-125.8" font-family="Arial" font-size="14.00" fill="#c6c5fe">src/operators.ts</text>
</g>
<!-- src/app.ts&#45;&gt;src/operators.ts -->
<g id="edge1" class="edge">
<title>src/app.ts&#45;&gt;src/operators.ts</title>
<path fill="none" stroke="#757575" d="M105.25,-176.84C105.25,-176.84 105.25,-151.13 105.25,-151.13"/>
<polygon fill="#757575" stroke="#757575" points="108.75,-151.13 105.25,-141.13 101.75,-151.13 108.75,-151.13"/>
</g>
<!-- src/parser.ts -->
<g id="node3" class="node">
<title>src/parser.ts</title>
<path fill="none" stroke="#c6c5fe" d="M175.33,-82C175.33,-82 100.67,-82 100.67,-82 96.83,-82 93,-78.17 93,-74.33 93,-74.33 93,-66.67 93,-66.67 93,-62.83 96.83,-59 100.67,-59 100.67,-59 175.33,-59 175.33,-59 179.17,-59 183,-62.83 183,-66.67 183,-66.67 183,-74.33 183,-74.33 183,-78.17 179.17,-82 175.33,-82"/>
<text text-anchor="middle" x="138" y="-66.8" font-family="Arial" font-size="14.00" fill="#c6c5fe">src/parser.ts</text>
</g>
<!-- src/app.ts&#45;&gt;src/parser.ts -->
<g id="edge2" class="edge">
<title>src/app.ts&#45;&gt;src/parser.ts</title>
<path fill="none" stroke="#757575" d="M138.25,-176.75C138.25,-176.75 138.25,-92.2 138.25,-92.2"/>
<polygon fill="#757575" stroke="#757575" points="141.75,-92.2 138.25,-82.2 134.75,-92.2 141.75,-92.2"/>
</g>
<!-- src/scope.ts -->
<g id="node4" class="node">
<title>src/scope.ts</title>
<path fill="none" stroke="#c6c5fe" d="M247.83,-141C247.83,-141 174.17,-141 174.17,-141 170.33,-141 166.5,-137.17 166.5,-133.33 166.5,-133.33 166.5,-125.67 166.5,-125.67 166.5,-121.83 170.33,-118 174.17,-118 174.17,-118 247.83,-118 247.83,-118 251.67,-118 255.5,-121.83 255.5,-125.67 255.5,-125.67 255.5,-133.33 255.5,-133.33 255.5,-137.17 251.67,-141 247.83,-141"/>
<text text-anchor="middle" x="211" y="-125.8" font-family="Arial" font-size="14.00" fill="#c6c5fe">src/scope.ts</text>
</g>
<!-- src/app.ts&#45;&gt;src/scope.ts -->
<g id="edge3" class="edge">
<title>src/app.ts&#45;&gt;src/scope.ts</title>
<path fill="none" stroke="#757575" d="M171,-176.84C171,-176.84 171,-151.13 171,-151.13"/>
<polygon fill="#757575" stroke="#757575" points="174.5,-151.13 171,-141.13 167.5,-151.13 174.5,-151.13"/>
</g>
<!-- src/operators.ts&#45;&gt;src/parser.ts -->
<g id="edge4" class="edge">
<title>src/operators.ts&#45;&gt;src/parser.ts</title>
<path fill="none" stroke="#757575" d="M101.5,-117.84C101.5,-117.84 101.5,-92.13 101.5,-92.13"/>
<polygon fill="#757575" stroke="#757575" points="105,-92.13 101.5,-82.13 98,-92.13 105,-92.13"/>
</g>
<!-- src/types.ts -->
<g id="node5" class="node">
<title>src/types.ts</title>
<path fill="none" stroke="#cfffac" d="M172.83,-23C172.83,-23 103.17,-23 103.17,-23 99.33,-23 95.5,-19.17 95.5,-15.33 95.5,-15.33 95.5,-7.67 95.5,-7.67 95.5,-3.83 99.33,0 103.17,0 103.17,0 172.83,0 172.83,0 176.67,0 180.5,-3.83 180.5,-7.67 180.5,-7.67 180.5,-15.33 180.5,-15.33 180.5,-19.17 176.67,-23 172.83,-23"/>
<text text-anchor="middle" x="138" y="-7.8" font-family="Arial" font-size="14.00" fill="#cfffac">src/types.ts</text>
</g>
<!-- src/operators.ts&#45;&gt;src/types.ts -->
<g id="edge5" class="edge">
<title>src/operators.ts&#45;&gt;src/types.ts</title>
<path fill="none" stroke="#757575" d="M46.5,-117.7C46.5,-87.73 46.5,-11 46.5,-11 46.5,-11 85.46,-11 85.46,-11"/>
<polygon fill="#757575" stroke="#757575" points="85.46,-14.5 95.46,-11 85.46,-7.5 85.46,-14.5"/>
</g>
<!-- src/parser.ts&#45;&gt;src/types.ts -->
<g id="edge6" class="edge">
<title>src/parser.ts&#45;&gt;src/types.ts</title>
<path fill="none" stroke="#757575" d="M138,-58.84C138,-58.84 138,-33.13 138,-33.13"/>
<polygon fill="#757575" stroke="#757575" points="141.5,-33.13 138,-23.13 134.5,-33.13 141.5,-33.13"/>
</g>
<!-- src/scope.ts&#45;&gt;src/parser.ts -->
<g id="edge7" class="edge">
<title>src/scope.ts&#45;&gt;src/parser.ts</title>
<path fill="none" stroke="#757575" d="M174.75,-117.84C174.75,-117.84 174.75,-92.13 174.75,-92.13"/>
<polygon fill="#757575" stroke="#757575" points="178.25,-92.13 174.75,-82.13 171.25,-92.13 178.25,-92.13"/>
</g>
<!-- src/scope.ts&#45;&gt;src/types.ts -->
<g id="edge8" class="edge">
<title>src/scope.ts&#45;&gt;src/types.ts</title>
<path fill="none" stroke="#757575" d="M219.25,-117.7C219.25,-87.73 219.25,-11 219.25,-11 219.25,-11 190.53,-11 190.53,-11"/>
<polygon fill="#757575" stroke="#757575" points="190.53,-7.5 180.53,-11 190.53,-14.5 190.53,-7.5"/>
</g>
<!-- tests/app.test.ts -->
<g id="node6" class="node">
<title>tests/app.test.ts</title>
<path fill="none" stroke="#c6c5fe" d="M185.83,-259C185.83,-259 90.17,-259 90.17,-259 86.33,-259 82.5,-255.17 82.5,-251.33 82.5,-251.33 82.5,-243.67 82.5,-243.67 82.5,-239.83 86.33,-236 90.17,-236 90.17,-236 185.83,-236 185.83,-236 189.67,-236 193.5,-239.83 193.5,-243.67 193.5,-243.67 193.5,-251.33 193.5,-251.33 193.5,-255.17 189.67,-259 185.83,-259"/>
<text text-anchor="middle" x="138" y="-243.8" font-family="Arial" font-size="14.00" fill="#c6c5fe">tests/app.test.ts</text>
</g>
<!-- tests/app.test.ts&#45;&gt;src/app.ts -->
<g id="edge9" class="edge">
<title>tests/app.test.ts&#45;&gt;src/app.ts</title>
<path fill="none" stroke="#757575" d="M138,-235.84C138,-235.84 138,-210.13 138,-210.13"/>
<polygon fill="#757575" stroke="#757575" points="141.5,-210.13 138,-200.13 134.5,-210.13 141.5,-210.13"/>
</g>
</g>
</svg>
