<?xml version="1.0" encoding="UTF-8" standalone="no"?>
<!DOCTYPE svg PUBLIC "-//W3C//DTD SVG 1.1//EN"
 "http://www.w3.org/Graphics/SVG/1.1/DTD/svg11.dtd">
<!-- Generated by graphviz version 2.43.0 (0)
 -->
<!-- Title: G Pages: 1 -->
<svg width="2186pt" height="538pt"
 viewBox="0.00 0.00 2186.20 538.20" xmlns="http://www.w3.org/2000/svg" xmlns:xlink="http://www.w3.org/1999/xlink">
<g id="graph0" class="graph" transform="scale(1 1) rotate(0) translate(21.6 516.6)">
<title>G</title>
<polygon fill="#111111" stroke="transparent" points="-21.6,21.6 -21.6,-516.6 2164.6,-516.6 2164.6,21.6 -21.6,21.6"/>
<!-- src/app.ts -->
<g id="node1" class="node">
<title>src/app.ts</title>
<path fill="none" stroke="#c6c5fe" d="M636.83,-377C636.83,-377 577.17,-377 577.17,-377 573.33,-377 569.5,-373.17 569.5,-369.33 569.5,-369.33 569.5,-361.67 569.5,-361.67 569.5,-357.83 573.33,-354 577.17,-354 577.17,-354 636.83,-354 636.83,-354 640.67,-354 644.5,-357.83 644.5,-361.67 644.5,-361.67 644.5,-369.33 644.5,-369.33 644.5,-373.17 640.67,-377 636.83,-377"/>
<text text-anchor="middle" x="607" y="-361.8" font-family="Arial" font-size="14.00" fill="#c6c5fe">src/app.ts</text>
</g>
<!-- src/expressions/binary&#45;operation.ts -->
<g id="node2" class="node">
<title>src/expressions/binary&#45;operation.ts</title>
<path fill="none" stroke="#c6c5fe" d="M2022.33,-259C2022.33,-259 1811.67,-259 1811.67,-259 1807.83,-259 1804,-255.17 1804,-251.33 1804,-251.33 1804,-243.67 1804,-243.67 1804,-239.83 1807.83,-236 1811.67,-236 1811.67,-236 2022.33,-236 2022.33,-236 2026.17,-236 2030,-239.83 2030,-243.67 2030,-243.67 2030,-251.33 2030,-251.33 2030,-255.17 2026.17,-259 2022.33,-259"/>
<text text-anchor="middle" x="1917" y="-243.8" font-family="Arial" font-size="14.00" fill="#c6c5fe">src/expressions/binary&#45;operation.ts</text>
</g>
<!-- src/app.ts&#45;&gt;src/expressions/binary&#45;operation.ts -->
<g id="edge1" class="edge">
<title>src/app.ts&#45;&gt;src/expressions/binary&#45;operation.ts</title>
<path fill="none" stroke="#757575" d="M644.79,-370C859.58,-370 1917,-370 1917,-370 1917,-370 1917,-269.25 1917,-269.25"/>
<polygon fill="#757575" stroke="#757575" points="1920.5,-269.25 1917,-259.25 1913.5,-269.25 1920.5,-269.25"/>
</g>
<!-- src/expressions/grouped&#45;expressions.ts -->
<g id="node3" class="node">
<title>src/expressions/grouped&#45;expressions.ts</title>
<path fill="none" stroke="#c6c5fe" d="M435.33,-200C435.33,-200 196.67,-200 196.67,-200 192.83,-200 189,-196.17 189,-192.33 189,-192.33 189,-184.67 189,-184.67 189,-180.83 192.83,-177 196.67,-177 196.67,-177 435.33,-177 435.33,-177 439.17,-177 443,-180.83 443,-184.67 443,-184.67 443,-192.33 443,-192.33 443,-196.17 439.17,-200 435.33,-200"/>
<text text-anchor="middle" x="316" y="-184.8" font-family="Arial" font-size="14.00" fill="#c6c5fe">src/expressions/grouped&#45;expressions.ts</text>
</g>
<!-- src/app.ts&#45;&gt;src/expressions/grouped&#45;expressions.ts -->
<g id="edge2" class="edge">
<title>src/app.ts&#45;&gt;src/expressions/grouped&#45;expressions.ts</title>
<path fill="none" stroke="#757575" d="M569.47,-360C515.86,-360 423.75,-360 423.75,-360 423.75,-360 423.75,-210.02 423.75,-210.02"/>
<polygon fill="#757575" stroke="#757575" points="427.25,-210.02 423.75,-200.02 420.25,-210.02 427.25,-210.02"/>
</g>
<!-- src/expressions/handlers.ts -->
<g id="node4" class="node">
<title>src/expressions/handlers.ts</title>
<path fill="none" stroke="#cfffac" d="M504.33,-23C504.33,-23 339.67,-23 339.67,-23 335.83,-23 332,-19.17 332,-15.33 332,-15.33 332,-7.67 332,-7.67 332,-3.83 335.83,0 339.67,0 339.67,0 504.33,0 504.33,0 508.17,0 512,-3.83 512,-7.67 512,-7.67 512,-15.33 512,-15.33 512,-19.17 508.17,-23 504.33,-23"/>
<text text-anchor="middle" x="422" y="-7.8" font-family="Arial" font-size="14.00" fill="#cfffac">src/expressions/handlers.ts</text>
</g>
<!-- src/app.ts&#45;&gt;src/expressions/handlers.ts -->
<g id="edge3" class="edge">
<title>src/app.ts&#45;&gt;src/expressions/handlers.ts</title>
<path fill="none" stroke="#757575" d="M569.2,-357C546.7,-357 522.5,-357 522.5,-357 522.5,-357 522.5,-171 522.5,-171 522.5,-171 382.4,-171 382.4,-171 382.4,-171 382.4,-33.23 382.4,-33.23"/>
<polygon fill="#757575" stroke="#757575" points="385.9,-33.23 382.4,-23.23 378.9,-33.23 385.9,-33.23"/>
</g>
<!-- src/handlers/dereference&#45;assignment.ts -->
<g id="node5" class="node">
<title>src/handlers/dereference&#45;assignment.ts</title>
<path fill="none" stroke="#c6c5fe" d="M951.33,-318C951.33,-318 712.67,-318 712.67,-318 708.83,-318 705,-314.17 705,-310.33 705,-310.33 705,-302.67 705,-302.67 705,-298.83 708.83,-295 712.67,-295 712.67,-295 951.33,-295 951.33,-295 955.17,-295 959,-298.83 959,-302.67 959,-302.67 959,-310.33 959,-310.33 959,-314.17 955.17,-318 951.33,-318"/>
<text text-anchor="middle" x="832" y="-302.8" font-family="Arial" font-size="14.00" fill="#c6c5fe">src/handlers/dereference&#45;assignment.ts</text>
</g>
<!-- src/app.ts&#45;&gt;src/handlers/dereference&#45;assignment.ts -->
<g id="edge4" class="edge">
<title>src/app.ts&#45;&gt;src/handlers/dereference&#45;assignment.ts</title>
<path fill="none" stroke="#757575" d="M644.73,-357C690.4,-357 761.25,-357 761.25,-357 761.25,-357 761.25,-328.21 761.25,-328.21"/>
<polygon fill="#757575" stroke="#757575" points="764.75,-328.21 761.25,-318.21 757.75,-328.21 764.75,-328.21"/>
</g>
<!-- src/handlers/lambda&#45;expressions.ts -->
<g id="node6" class="node">
<title>src/handlers/lambda&#45;expressions.ts</title>
<path fill="none" stroke="#c6c5fe" d="M1379.33,-259C1379.33,-259 1164.67,-259 1164.67,-259 1160.83,-259 1157,-255.17 1157,-251.33 1157,-251.33 1157,-243.67 1157,-243.67 1157,-239.83 1160.83,-236 1164.67,-236 1164.67,-236 1379.33,-236 1379.33,-236 1383.17,-236 1387,-239.83 1387,-243.67 1387,-243.67 1387,-251.33 1387,-251.33 1387,-255.17 1383.17,-259 1379.33,-259"/>
<text text-anchor="middle" x="1272" y="-243.8" font-family="Arial" font-size="14.00" fill="#c6c5fe">src/handlers/lambda&#45;expressions.ts</text>
</g>
<!-- src/app.ts&#45;&gt;src/handlers/lambda&#45;expressions.ts -->
<g id="edge5" class="edge">
<title>src/app.ts&#45;&gt;src/handlers/lambda&#45;expressions.ts</title>
<path fill="none" stroke="#757575" d="M644.66,-363C785.34,-363 1272,-363 1272,-363 1272,-363 1272,-269.43 1272,-269.43"/>
<polygon fill="#757575" stroke="#757575" points="1275.5,-269.43 1272,-259.43 1268.5,-269.43 1275.5,-269.43"/>
</g>
<!-- src/handlers/pointer&#45;operations.ts -->
<g id="node7" class="node">
<title>src/handlers/pointer&#45;operations.ts</title>
<path fill="none" stroke="#c6c5fe" d="M1130.83,-259C1130.83,-259 929.17,-259 929.17,-259 925.33,-259 921.5,-255.17 921.5,-251.33 921.5,-251.33 921.5,-243.67 921.5,-243.67 921.5,-239.83 925.33,-236 929.17,-236 929.17,-236 1130.83,-236 1130.83,-236 1134.67,-236 1138.5,-239.83 1138.5,-243.67 1138.5,-243.67 1138.5,-251.33 1138.5,-251.33 1138.5,-255.17 1134.67,-259 1130.83,-259"/>
<text text-anchor="middle" x="1030" y="-243.8" font-family="Arial" font-size="14.00" fill="#c6c5fe">src/handlers/pointer&#45;operations.ts</text>
</g>
<!-- src/app.ts&#45;&gt;src/handlers/pointer&#45;operations.ts -->
<g id="edge6" class="edge">
<title>src/app.ts&#45;&gt;src/handlers/pointer&#45;operations.ts</title>
<path fill="none" stroke="#757575" d="M644.69,-360C737.34,-360 968.75,-360 968.75,-360 968.75,-360 968.75,-269.12 968.75,-269.12"/>
<polygon fill="#757575" stroke="#757575" points="972.25,-269.12 968.75,-259.12 965.25,-269.12 972.25,-269.12"/>
</g>
<!-- src/loops/for.ts -->
<g id="node8" class="node">
<title>src/loops/for.ts</title>
<path fill="none" stroke="#c6c5fe" d="M241.33,-318C241.33,-318 152.67,-318 152.67,-318 148.83,-318 145,-314.17 145,-310.33 145,-310.33 145,-302.67 145,-302.67 145,-298.83 148.83,-295 152.67,-295 152.67,-295 241.33,-295 241.33,-295 245.17,-295 249,-298.83 249,-302.67 249,-302.67 249,-310.33 249,-310.33 249,-314.17 245.17,-318 241.33,-318"/>
<text text-anchor="middle" x="197" y="-302.8" font-family="Arial" font-size="14.00" fill="#c6c5fe">src/loops/for.ts</text>
</g>
<!-- src/app.ts&#45;&gt;src/loops/for.ts -->
<g id="edge7" class="edge">
<title>src/app.ts&#45;&gt;src/loops/for.ts</title>
<path fill="none" stroke="#757575" d="M569.33,-367C472.33,-367 221.5,-367 221.5,-367 221.5,-367 221.5,-328.17 221.5,-328.17"/>
<polygon fill="#757575" stroke="#757575" points="225,-328.16 221.5,-318.17 218,-328.17 225,-328.16"/>
</g>
<!-- src/loops/loop.ts -->
<g id="node9" class="node">
<title>src/loops/loop.ts</title>
<path fill="none" stroke="#cfffac" d="M106.33,-259C106.33,-259 7.67,-259 7.67,-259 3.83,-259 0,-255.17 0,-251.33 0,-251.33 0,-243.67 0,-243.67 0,-239.83 3.83,-236 7.67,-236 7.67,-236 106.33,-236 106.33,-236 110.17,-236 114,-239.83 114,-243.67 114,-243.67 114,-251.33 114,-251.33 114,-255.17 110.17,-259 106.33,-259"/>
<text text-anchor="middle" x="57" y="-243.8" font-family="Arial" font-size="14.00" fill="#cfffac">src/loops/loop.ts</text>
</g>
<!-- src/app.ts&#45;&gt;src/loops/loop.ts -->
<g id="edge8" class="edge">
<title>src/app.ts&#45;&gt;src/loops/loop.ts</title>
<path fill="none" stroke="#757575" d="M569.49,-373C441.3,-373 28.5,-373 28.5,-373 28.5,-373 28.5,-269.08 28.5,-269.08"/>
<polygon fill="#757575" stroke="#757575" points="32,-269.08 28.5,-259.08 25,-269.08 32,-269.08"/>
</g>
<!-- src/loops/while.ts -->
<g id="node10" class="node">
<title>src/loops/while.ts</title>
<path fill="none" stroke="#c6c5fe" d="M385.83,-318C385.83,-318 282.17,-318 282.17,-318 278.33,-318 274.5,-314.17 274.5,-310.33 274.5,-310.33 274.5,-302.67 274.5,-302.67 274.5,-298.83 278.33,-295 282.17,-295 282.17,-295 385.83,-295 385.83,-295 389.67,-295 393.5,-298.83 393.5,-302.67 393.5,-302.67 393.5,-310.33 393.5,-310.33 393.5,-314.17 389.67,-318 385.83,-318"/>
<text text-anchor="middle" x="334" y="-302.8" font-family="Arial" font-size="14.00" fill="#c6c5fe">src/loops/while.ts</text>
</g>
<!-- src/app.ts&#45;&gt;src/loops/while.ts -->
<g id="edge9" class="edge">
<title>src/app.ts&#45;&gt;src/loops/while.ts</title>
<path fill="none" stroke="#757575" d="M569.28,-363C504.03,-363 377,-363 377,-363 377,-363 377,-328.21 377,-328.21"/>
<polygon fill="#757575" stroke="#757575" points="380.5,-328.21 377,-318.21 373.5,-328.21 380.5,-328.21"/>
</g>
<!-- src/match.ts -->
<g id="node11" class="node">
<title>src/match.ts</title>
<path fill="none" stroke="#cfffac" d="M145.33,-141C145.33,-141 70.67,-141 70.67,-141 66.83,-141 63,-137.17 63,-133.33 63,-133.33 63,-125.67 63,-125.67 63,-121.83 66.83,-118 70.67,-118 70.67,-118 145.33,-118 145.33,-118 149.17,-118 153,-121.83 153,-125.67 153,-125.67 153,-133.33 153,-133.33 153,-137.17 149.17,-141 145.33,-141"/>
<text text-anchor="middle" x="108" y="-125.8" font-family="Arial" font-size="14.00" fill="#cfffac">src/match.ts</text>
</g>
<!-- src/app.ts&#45;&gt;src/match.ts -->
<g id="edge10" class="edge">
<title>src/app.ts&#45;&gt;src/match.ts</title>
<path fill="none" stroke="#757575" d="M569.44,-370C455.78,-370 123.25,-370 123.25,-370 123.25,-370 123.25,-151.1 123.25,-151.1"/>
<polygon fill="#757575" stroke="#757575" points="126.75,-151.1 123.25,-141.1 119.75,-151.1 126.75,-151.1"/>
</g>
<!-- src/parser.ts -->
<g id="node12" class="node">
<title>src/parser.ts</title>
<path fill="none" stroke="#c6c5fe" d="M2135.33,-141C2135.33,-141 2060.67,-141 2060.67,-141 2056.83,-141 2053,-137.17 2053,-133.33 2053,-133.33 2053,-125.67 2053,-125.67 2053,-121.83 2056.83,-118 2060.67,-118 2060.67,-118 2135.33,-118 2135.33,-118 2139.17,-118 2143,-121.83 2143,-125.67 2143,-125.67 2143,-133.33 2143,-133.33 2143,-137.17 2139.17,-141 2135.33,-141"/>
<text text-anchor="middle" x="2098" y="-125.8" font-family="Arial" font-size="14.00" fill="#c6c5fe">src/parser.ts</text>
</g>
<!-- src/app.ts&#45;&gt;src/parser.ts -->
<g id="edge11" class="edge">
<title>src/app.ts&#45;&gt;src/parser.ts</title>
<path fill="none" stroke="#757575" d="M644.52,-373C878.28,-373 2125,-373 2125,-373 2125,-373 2125,-151.24 2125,-151.24"/>
<polygon fill="#757575" stroke="#757575" points="2128.5,-151.24 2125,-141.24 2121.5,-151.24 2128.5,-151.24"/>
</g>
<!-- src/scope.ts -->
<g id="node13" class="node">
<title>src/scope.ts</title>
<path fill="none" stroke="#c6c5fe" d="M1548.83,-318C1548.83,-318 1475.17,-318 1475.17,-318 1471.33,-318 1467.5,-314.17 1467.5,-310.33 1467.5,-310.33 1467.5,-302.67 1467.5,-302.67 1467.5,-298.83 1471.33,-295 1475.17,-295 1475.17,-295 1548.83,-295 1548.83,-295 1552.67,-295 1556.5,-298.83 1556.5,-302.67 1556.5,-302.67 1556.5,-310.33 1556.5,-310.33 1556.5,-314.17 1552.67,-318 1548.83,-318"/>
<text text-anchor="middle" x="1512" y="-302.8" font-family="Arial" font-size="14.00" fill="#c6c5fe">src/scope.ts</text>
</g>
<!-- src/app.ts&#45;&gt;src/scope.ts -->
<g id="edge12" class="edge">
<title>src/app.ts&#45;&gt;src/scope.ts</title>
<path fill="none" stroke="#757575" d="M644.73,-367C816.01,-367 1512,-367 1512,-367 1512,-367 1512,-328.17 1512,-328.17"/>
<polygon fill="#757575" stroke="#757575" points="1515.5,-328.16 1512,-318.17 1508.5,-328.17 1515.5,-328.16"/>
</g>
<!-- src/utils/app&#45;handlers.ts -->
<g id="node14" class="node">
<title>src/utils/app&#45;handlers.ts</title>
<path fill="none" stroke="#c6c5fe" d="M678.83,-318C678.83,-318 535.17,-318 535.17,-318 531.33,-318 527.5,-314.17 527.5,-310.33 527.5,-310.33 527.5,-302.67 527.5,-302.67 527.5,-298.83 531.33,-295 535.17,-295 535.17,-295 678.83,-295 678.83,-295 682.67,-295 686.5,-298.83 686.5,-302.67 686.5,-302.67 686.5,-310.33 686.5,-310.33 686.5,-314.17 682.67,-318 678.83,-318"/>
<text text-anchor="middle" x="607" y="-302.8" font-family="Arial" font-size="14.00" fill="#c6c5fe">src/utils/app&#45;handlers.ts</text>
</g>
<!-- src/app.ts&#45;&gt;src/utils/app&#45;handlers.ts -->
<g id="edge13" class="edge">
<title>src/app.ts&#45;&gt;src/utils/app&#45;handlers.ts</title>
<path fill="none" stroke="#757575" d="M607,-353.84C607,-353.84 607,-328.13 607,-328.13"/>
<polygon fill="#757575" stroke="#757575" points="610.5,-328.13 607,-318.13 603.5,-328.13 610.5,-328.13"/>
</g>
<!-- src/expressions/binary&#45;operation.ts&#45;&gt;src/expressions/handlers.ts -->
<g id="edge15" class="edge">
<title>src/expressions/binary&#45;operation.ts&#45;&gt;src/expressions/handlers.ts</title>
<path fill="none" stroke="#757575" d="M1841.5,-235.86C1841.5,-209.2 1841.5,-146 1841.5,-146 1841.5,-146 389.8,-146 389.8,-146 389.8,-146 389.8,-33.44 389.8,-33.44"/>
<polygon fill="#757575" stroke="#757575" points="393.3,-33.44 389.8,-23.44 386.3,-33.44 393.3,-33.44"/>
</g>
<!-- src/expressions/binary&#45;operation.ts&#45;&gt;src/parser.ts -->
<g id="edge17" class="edge">
<title>src/expressions/binary&#45;operation.ts&#45;&gt;src/parser.ts</title>
<path fill="none" stroke="#757575" d="M2030.29,-247C2062.49,-247 2089,-247 2089,-247 2089,-247 2089,-151.2 2089,-151.2"/>
<polygon fill="#757575" stroke="#757575" points="2092.5,-151.2 2089,-141.2 2085.5,-151.2 2092.5,-151.2"/>
</g>
<!-- src/expressions/operators.ts -->
<g id="node16" class="node">
<title>src/expressions/operators.ts</title>
<path fill="none" stroke="#c6c5fe" d="M2027.83,-200C2027.83,-200 1858.17,-200 1858.17,-200 1854.33,-200 1850.5,-196.17 1850.5,-192.33 1850.5,-192.33 1850.5,-184.67 1850.5,-184.67 1850.5,-180.83 1854.33,-177 1858.17,-177 1858.17,-177 2027.83,-177 2027.83,-177 2031.67,-177 2035.5,-180.83 2035.5,-184.67 2035.5,-184.67 2035.5,-192.33 2035.5,-192.33 2035.5,-196.17 2031.67,-200 2027.83,-200"/>
<text text-anchor="middle" x="1943" y="-184.8" font-family="Arial" font-size="14.00" fill="#c6c5fe">src/expressions/operators.ts</text>
</g>
<!-- src/expressions/binary&#45;operation.ts&#45;&gt;src/expressions/operators.ts -->
<g id="edge16" class="edge">
<title>src/expressions/binary&#45;operation.ts&#45;&gt;src/expressions/operators.ts</title>
<path fill="none" stroke="#757575" d="M1940.25,-235.84C1940.25,-235.84 1940.25,-210.13 1940.25,-210.13"/>
<polygon fill="#757575" stroke="#757575" points="1943.75,-210.13 1940.25,-200.13 1936.75,-210.13 1943.75,-210.13"/>
</g>
<!-- src/expressions/grouped&#45;expressions.ts&#45;&gt;src/expressions/handlers.ts -->
<g id="edge18" class="edge">
<title>src/expressions/grouped&#45;expressions.ts&#45;&gt;src/expressions/handlers.ts</title>
<path fill="none" stroke="#757575" d="M378.7,-176.89C378.7,-176.89 378.7,-33.39 378.7,-33.39"/>
<polygon fill="#757575" stroke="#757575" points="382.2,-33.39 378.7,-23.39 375.2,-33.39 382.2,-33.39"/>
</g>
<!-- src/expressions/grouped&#45;expressions.ts&#45;&gt;src/match.ts -->
<g id="edge19" class="edge">
<title>src/expressions/grouped&#45;expressions.ts&#45;&gt;src/match.ts</title>
<path fill="none" stroke="#757575" d="M188.72,-188C162.53,-188 142.75,-188 142.75,-188 142.75,-188 142.75,-151.06 142.75,-151.06"/>
<polygon fill="#757575" stroke="#757575" points="146.25,-151.06 142.75,-141.06 139.25,-151.06 146.25,-151.06"/>
</g>
<!-- src/types/structs.ts -->
<g id="node17" class="node">
<title>src/types/structs.ts</title>
<path fill="none" stroke="#c6c5fe" d="M367.33,-141C367.33,-141 254.67,-141 254.67,-141 250.83,-141 247,-137.17 247,-133.33 247,-133.33 247,-125.67 247,-125.67 247,-121.83 250.83,-118 254.67,-118 254.67,-118 367.33,-118 367.33,-118 371.17,-118 375,-121.83 375,-125.67 375,-125.67 375,-133.33 375,-133.33 375,-137.17 371.17,-141 367.33,-141"/>
<text text-anchor="middle" x="311" y="-125.8" font-family="Arial" font-size="14.00" fill="#c6c5fe">src/types/structs.ts</text>
</g>
<!-- src/expressions/grouped&#45;expressions.ts&#45;&gt;src/types/structs.ts -->
<g id="edge20" class="edge">
<title>src/expressions/grouped&#45;expressions.ts&#45;&gt;src/types/structs.ts</title>
<path fill="none" stroke="#757575" d="M279,-176.84C279,-176.84 279,-151.13 279,-151.13"/>
<polygon fill="#757575" stroke="#757575" points="282.5,-151.13 279,-141.13 275.5,-151.13 282.5,-151.13"/>
</g>
<!-- src/utils/identifier&#45;utils.ts -->
<g id="node18" class="node">
<title>src/utils/identifier&#45;utils.ts</title>
<path fill="none" stroke="#cfffac" d="M1248.33,-82C1248.33,-82 1103.67,-82 1103.67,-82 1099.83,-82 1096,-78.17 1096,-74.33 1096,-74.33 1096,-66.67 1096,-66.67 1096,-62.83 1099.83,-59 1103.67,-59 1103.67,-59 1248.33,-59 1248.33,-59 1252.17,-59 1256,-62.83 1256,-66.67 1256,-66.67 1256,-74.33 1256,-74.33 1256,-78.17 1252.17,-82 1248.33,-82"/>
<text text-anchor="middle" x="1176" y="-66.8" font-family="Arial" font-size="14.00" fill="#cfffac">src/utils/identifier&#45;utils.ts</text>
</g>
<!-- src/expressions/grouped&#45;expressions.ts&#45;&gt;src/utils/identifier&#45;utils.ts -->
<g id="edge21" class="edge">
<title>src/expressions/grouped&#45;expressions.ts&#45;&gt;src/utils/identifier&#45;utils.ts</title>
<path fill="none" stroke="#757575" d="M443.32,-186C672.49,-186 1130.83,-186 1130.83,-186 1130.83,-186 1130.83,-92.43 1130.83,-92.43"/>
<polygon fill="#757575" stroke="#757575" points="1134.33,-92.43 1130.83,-82.43 1127.33,-92.43 1134.33,-92.43"/>
</g>
<!-- src/handlers/dereference&#45;assignment.ts&#45;&gt;src/expressions/handlers.ts -->
<g id="edge37" class="edge">
<title>src/handlers/dereference&#45;assignment.ts&#45;&gt;src/expressions/handlers.ts</title>
<path fill="none" stroke="#757575" d="M882.75,-294.97C882.75,-239.54 882.75,-3 882.75,-3 882.75,-3 522.21,-3 522.21,-3"/>
<polygon fill="#757575" stroke="#757575" points="522.21,0.5 512.21,-3 522.21,-6.5 522.21,0.5"/>
</g>
<!-- src/handlers/dereference&#45;assignment.ts&#45;&gt;src/handlers/pointer&#45;operations.ts -->
<g id="edge38" class="edge">
<title>src/handlers/dereference&#45;assignment.ts&#45;&gt;src/handlers/pointer&#45;operations.ts</title>
<path fill="none" stroke="#757575" d="M940.25,-294.84C940.25,-294.84 940.25,-269.13 940.25,-269.13"/>
<polygon fill="#757575" stroke="#757575" points="943.75,-269.13 940.25,-259.13 936.75,-269.13 943.75,-269.13"/>
</g>
<!-- src/functions.ts -->
<g id="node23" class="node">
<title>src/functions.ts</title>
<path fill="none" stroke="#c6c5fe" d="M1320.83,-200C1320.83,-200 1229.17,-200 1229.17,-200 1225.33,-200 1221.5,-196.17 1221.5,-192.33 1221.5,-192.33 1221.5,-184.67 1221.5,-184.67 1221.5,-180.83 1225.33,-177 1229.17,-177 1229.17,-177 1320.83,-177 1320.83,-177 1324.67,-177 1328.5,-180.83 1328.5,-184.67 1328.5,-184.67 1328.5,-192.33 1328.5,-192.33 1328.5,-196.17 1324.67,-200 1320.83,-200"/>
<text text-anchor="middle" x="1275" y="-184.8" font-family="Arial" font-size="14.00" fill="#c6c5fe">src/functions.ts</text>
</g>
<!-- src/handlers/lambda&#45;expressions.ts&#45;&gt;src/functions.ts -->
<g id="edge43" class="edge">
<title>src/handlers/lambda&#45;expressions.ts&#45;&gt;src/functions.ts</title>
<path fill="none" stroke="#757575" d="M1275,-235.84C1275,-235.84 1275,-210.13 1275,-210.13"/>
<polygon fill="#757575" stroke="#757575" points="1278.5,-210.13 1275,-200.13 1271.5,-210.13 1278.5,-210.13"/>
</g>
<!-- src/handlers/anonymous&#45;functions.ts -->
<g id="node24" class="node">
<title>src/handlers/anonymous&#45;functions.ts</title>
<path fill="none" stroke="#c6c5fe" d="M1488.83,-141C1488.83,-141 1267.17,-141 1267.17,-141 1263.33,-141 1259.5,-137.17 1259.5,-133.33 1259.5,-133.33 1259.5,-125.67 1259.5,-125.67 1259.5,-121.83 1263.33,-118 1267.17,-118 1267.17,-118 1488.83,-118 1488.83,-118 1492.67,-118 1496.5,-121.83 1496.5,-125.67 1496.5,-125.67 1496.5,-133.33 1496.5,-133.33 1496.5,-137.17 1492.67,-141 1488.83,-141"/>
<text text-anchor="middle" x="1378" y="-125.8" font-family="Arial" font-size="14.00" fill="#c6c5fe">src/handlers/anonymous&#45;functions.ts</text>
</g>
<!-- src/handlers/lambda&#45;expressions.ts&#45;&gt;src/handlers/anonymous&#45;functions.ts -->
<g id="edge44" class="edge">
<title>src/handlers/lambda&#45;expressions.ts&#45;&gt;src/handlers/anonymous&#45;functions.ts</title>
<path fill="none" stroke="#757575" d="M1357.75,-235.75C1357.75,-235.75 1357.75,-151.2 1357.75,-151.2"/>
<polygon fill="#757575" stroke="#757575" points="1361.25,-151.2 1357.75,-141.2 1354.25,-151.2 1361.25,-151.2"/>
</g>
<!-- src/handlers/pointer&#45;operations.ts&#45;&gt;src/utils/identifier&#45;utils.ts -->
<g id="edge48" class="edge">
<title>src/handlers/pointer&#45;operations.ts&#45;&gt;src/utils/identifier&#45;utils.ts</title>
<path fill="none" stroke="#757575" d="M1134.67,-235.89C1134.67,-235.89 1134.67,-92.39 1134.67,-92.39"/>
<polygon fill="#757575" stroke="#757575" points="1138.17,-92.39 1134.67,-82.39 1131.17,-92.39 1138.17,-92.39"/>
</g>
<!-- src/loops/for.ts&#45;&gt;src/loops/loop.ts -->
<g id="edge50" class="edge">
<title>src/loops/for.ts&#45;&gt;src/loops/loop.ts</title>
<path fill="none" stroke="#757575" d="M144.87,-306C105.07,-306 57,-306 57,-306 57,-306 57,-269.06 57,-269.06"/>
<polygon fill="#757575" stroke="#757575" points="60.5,-269.06 57,-259.06 53.5,-269.06 60.5,-269.06"/>
</g>
<!-- src/loops/helpers.ts -->
<g id="node29" class="node">
<title>src/loops/helpers.ts</title>
<path fill="none" stroke="#cfffac" d="M396.83,-259C396.83,-259 279.17,-259 279.17,-259 275.33,-259 271.5,-255.17 271.5,-251.33 271.5,-251.33 271.5,-243.67 271.5,-243.67 271.5,-239.83 275.33,-236 279.17,-236 279.17,-236 396.83,-236 396.83,-236 400.67,-236 404.5,-239.83 404.5,-243.67 404.5,-243.67 404.5,-251.33 404.5,-251.33 404.5,-255.17 400.67,-259 396.83,-259"/>
<text text-anchor="middle" x="338" y="-243.8" font-family="Arial" font-size="14.00" fill="#cfffac">src/loops/helpers.ts</text>
</g>
<!-- src/loops/for.ts&#45;&gt;src/loops/helpers.ts -->
<g id="edge49" class="edge">
<title>src/loops/for.ts&#45;&gt;src/loops/helpers.ts</title>
<path fill="none" stroke="#757575" d="M249.27,-302C258.64,-302 265.5,-302 265.5,-302 265.5,-302 265.5,-251 265.5,-251 265.5,-251 266.07,-251 266.07,-251"/>
<polygon fill="#757575" stroke="#757575" points="261.19,-254.5 271.19,-251 261.19,-247.5 261.19,-254.5"/>
</g>
<!-- src/loops/types.ts -->
<g id="node30" class="node">
<title>src/loops/types.ts</title>
<path fill="none" stroke="#c6c5fe" d="M245.83,-259C245.83,-259 140.17,-259 140.17,-259 136.33,-259 132.5,-255.17 132.5,-251.33 132.5,-251.33 132.5,-243.67 132.5,-243.67 132.5,-239.83 136.33,-236 140.17,-236 140.17,-236 245.83,-236 245.83,-236 249.67,-236 253.5,-239.83 253.5,-243.67 253.5,-243.67 253.5,-251.33 253.5,-251.33 253.5,-255.17 249.67,-259 245.83,-259"/>
<text text-anchor="middle" x="193" y="-243.8" font-family="Arial" font-size="14.00" fill="#c6c5fe">src/loops/types.ts</text>
</g>
<!-- src/loops/for.ts&#45;&gt;src/loops/types.ts -->
<g id="edge51" class="edge">
<title>src/loops/for.ts&#45;&gt;src/loops/types.ts</title>
<path fill="none" stroke="#757575" d="M197,-294.84C197,-294.84 197,-269.13 197,-269.13"/>
<polygon fill="#757575" stroke="#757575" points="200.5,-269.13 197,-259.13 193.5,-269.13 200.5,-269.13"/>
</g>
<!-- src/loops/while.ts&#45;&gt;src/loops/loop.ts -->
<g id="edge54" class="edge">
<title>src/loops/while.ts&#45;&gt;src/loops/loop.ts</title>
<path fill="none" stroke="#757575" d="M314.17,-294.84C314.17,-286.6 314.17,-277 314.17,-277 314.17,-277 85.5,-277 85.5,-277 85.5,-277 85.5,-269.16 85.5,-269.16"/>
<polygon fill="#757575" stroke="#757575" points="89,-269.16 85.5,-259.16 82,-269.16 89,-269.16"/>
</g>
<!-- src/loops/while.ts&#45;&gt;src/loops/helpers.ts -->
<g id="edge53" class="edge">
<title>src/loops/while.ts&#45;&gt;src/loops/helpers.ts</title>
<path fill="none" stroke="#757575" d="M353.83,-294.84C353.83,-294.84 353.83,-269.13 353.83,-269.13"/>
<polygon fill="#757575" stroke="#757575" points="357.33,-269.13 353.83,-259.13 350.33,-269.13 357.33,-269.13"/>
</g>
<!-- src/loops/while.ts&#45;&gt;src/loops/types.ts -->
<g id="edge55" class="edge">
<title>src/loops/while.ts&#45;&gt;src/loops/types.ts</title>
<path fill="none" stroke="#757575" d="M274.22,-310C265.56,-310 259.5,-310 259.5,-310 259.5,-310 259.5,-243 259.5,-243 259.5,-243 258.93,-243 258.93,-243"/>
<polygon fill="#757575" stroke="#757575" points="263.83,-239.5 253.83,-243 263.83,-246.5 263.83,-239.5"/>
</g>
<!-- src/type&#45;utils.ts -->
<g id="node21" class="node">
<title>src/type&#45;utils.ts</title>
<path fill="none" stroke="#cfffac" d="M1650.83,-23C1650.83,-23 1559.17,-23 1559.17,-23 1555.33,-23 1551.5,-19.17 1551.5,-15.33 1551.5,-15.33 1551.5,-7.67 1551.5,-7.67 1551.5,-3.83 1555.33,0 1559.17,0 1559.17,0 1650.83,0 1650.83,0 1654.67,0 1658.5,-3.83 1658.5,-7.67 1658.5,-7.67 1658.5,-15.33 1658.5,-15.33 1658.5,-19.17 1654.67,-23 1650.83,-23"/>
<text text-anchor="middle" x="1605" y="-7.8" font-family="Arial" font-size="14.00" fill="#cfffac">src/type&#45;utils.ts</text>
</g>
<!-- src/parser.ts&#45;&gt;src/type&#45;utils.ts -->
<g id="edge56" class="edge">
<title>src/parser.ts&#45;&gt;src/type&#45;utils.ts</title>
<path fill="none" stroke="#757575" d="M2098,-117.75C2098,-87.09 2098,-7 2098,-7 2098,-7 1668.7,-7 1668.7,-7"/>
<polygon fill="#757575" stroke="#757575" points="1668.7,-3.5 1658.7,-7 1668.7,-10.5 1668.7,-3.5"/>
</g>
<!-- src/scope.ts&#45;&gt;src/expressions/handlers.ts -->
<g id="edge57" class="edge">
<title>src/scope.ts&#45;&gt;src/expressions/handlers.ts</title>
<path fill="none" stroke="#757575" d="M1475.9,-294.81C1475.9,-258.65 1475.9,-151 1475.9,-151 1475.9,-151 386.1,-151 386.1,-151 386.1,-151 386.1,-33.39 386.1,-33.39"/>
<polygon fill="#757575" stroke="#757575" points="389.6,-33.39 386.1,-23.39 382.6,-33.39 389.6,-33.39"/>
</g>
<!-- src/scope.ts&#45;&gt;src/handlers/lambda&#45;expressions.ts -->
<g id="edge60" class="edge">
<title>src/scope.ts&#45;&gt;src/handlers/lambda&#45;expressions.ts</title>
<path fill="none" stroke="#757575" d="M1470.3,-294.74C1470.3,-277.4 1470.3,-247 1470.3,-247 1470.3,-247 1397.06,-247 1397.06,-247"/>
<polygon fill="#757575" stroke="#757575" points="1397.06,-243.5 1387.06,-247 1397.06,-250.5 1397.06,-243.5"/>
</g>
<!-- src/scope.ts&#45;&gt;src/parser.ts -->
<g id="edge61" class="edge">
<title>src/scope.ts&#45;&gt;src/parser.ts</title>
<path fill="none" stroke="#757575" d="M1556.72,-310C1695.1,-310 2107,-310 2107,-310 2107,-310 2107,-151.07 2107,-151.07"/>
<polygon fill="#757575" stroke="#757575" points="2110.5,-151.07 2107,-141.07 2103.5,-151.07 2110.5,-151.07"/>
</g>
<!-- src/function&#45;type&#45;handler.ts -->
<g id="node22" class="node">
<title>src/function&#45;type&#45;handler.ts</title>
<path fill="none" stroke="#c6c5fe" d="M1652.83,-259C1652.83,-259 1489.17,-259 1489.17,-259 1485.33,-259 1481.5,-255.17 1481.5,-251.33 1481.5,-251.33 1481.5,-243.67 1481.5,-243.67 1481.5,-239.83 1485.33,-236 1489.17,-236 1489.17,-236 1652.83,-236 1652.83,-236 1656.67,-236 1660.5,-239.83 1660.5,-243.67 1660.5,-243.67 1660.5,-251.33 1660.5,-251.33 1660.5,-255.17 1656.67,-259 1652.83,-259"/>
<text text-anchor="middle" x="1571" y="-243.8" font-family="Arial" font-size="14.00" fill="#c6c5fe">src/function&#45;type&#45;handler.ts</text>
</g>
<!-- src/scope.ts&#45;&gt;src/function&#45;type&#45;handler.ts -->
<g id="edge58" class="edge">
<title>src/scope.ts&#45;&gt;src/function&#45;type&#45;handler.ts</title>
<path fill="none" stroke="#757575" d="M1519,-294.84C1519,-294.84 1519,-269.13 1519,-269.13"/>
<polygon fill="#757575" stroke="#757575" points="1522.5,-269.13 1519,-259.13 1515.5,-269.13 1522.5,-269.13"/>
</g>
<!-- src/scope.ts&#45;&gt;src/functions.ts -->
<g id="edge59" class="edge">
<title>src/scope.ts&#45;&gt;src/functions.ts</title>
<path fill="none" stroke="#757575" d="M1473.1,-294.78C1473.1,-265.78 1473.1,-193 1473.1,-193 1473.1,-193 1338.61,-193 1338.61,-193"/>
<polygon fill="#757575" stroke="#757575" points="1338.61,-189.5 1328.61,-193 1338.61,-196.5 1338.61,-189.5"/>
</g>
<!-- src/utils/function&#45;utils.ts -->
<g id="node27" class="node">
<title>src/utils/function&#45;utils.ts</title>
<path fill="none" stroke="#c6c5fe" d="M1565.33,-82C1565.33,-82 1424.67,-82 1424.67,-82 1420.83,-82 1417,-78.17 1417,-74.33 1417,-74.33 1417,-66.67 1417,-66.67 1417,-62.83 1420.83,-59 1424.67,-59 1424.67,-59 1565.33,-59 1565.33,-59 1569.17,-59 1573,-62.83 1573,-66.67 1573,-66.67 1573,-74.33 1573,-74.33 1573,-78.17 1569.17,-82 1565.33,-82"/>
<text text-anchor="middle" x="1495" y="-66.8" font-family="Arial" font-size="14.00" fill="#c6c5fe">src/utils/function&#45;utils.ts</text>
</g>
<!-- src/scope.ts&#45;&gt;src/utils/function&#45;utils.ts -->
<g id="edge62" class="edge">
<title>src/scope.ts&#45;&gt;src/utils/function&#45;utils.ts</title>
<path fill="none" stroke="#757575" d="M1478.7,-294.95C1478.7,-264.79 1478.7,-186 1478.7,-186 1478.7,-186 1534.75,-186 1534.75,-186 1534.75,-186 1534.75,-92.43 1534.75,-92.43"/>
<polygon fill="#757575" stroke="#757575" points="1538.25,-92.43 1534.75,-82.43 1531.25,-92.43 1538.25,-92.43"/>
</g>
<!-- src/utils/scope&#45;helpers.ts -->
<g id="node31" class="node">
<title>src/utils/scope&#45;helpers.ts</title>
<path fill="none" stroke="#c6c5fe" d="M1824.83,-200C1824.83,-200 1675.17,-200 1675.17,-200 1671.33,-200 1667.5,-196.17 1667.5,-192.33 1667.5,-192.33 1667.5,-184.67 1667.5,-184.67 1667.5,-180.83 1671.33,-177 1675.17,-177 1675.17,-177 1824.83,-177 1824.83,-177 1828.67,-177 1832.5,-180.83 1832.5,-184.67 1832.5,-184.67 1832.5,-192.33 1832.5,-192.33 1832.5,-196.17 1828.67,-200 1824.83,-200"/>
<text text-anchor="middle" x="1750" y="-184.8" font-family="Arial" font-size="14.00" fill="#c6c5fe">src/utils/scope&#45;helpers.ts</text>
</g>
<!-- src/scope.ts&#45;&gt;src/utils/scope&#45;helpers.ts -->
<g id="edge63" class="edge">
<title>src/scope.ts&#45;&gt;src/utils/scope&#45;helpers.ts</title>
<path fill="none" stroke="#757575" d="M1556.74,-302C1622.04,-302 1735.75,-302 1735.75,-302 1735.75,-302 1735.75,-210.22 1735.75,-210.22"/>
<polygon fill="#757575" stroke="#757575" points="1739.25,-210.22 1735.75,-200.22 1732.25,-210.22 1739.25,-210.22"/>
</g>
<!-- src/utils/app&#45;handlers.ts&#45;&gt;src/types/structs.ts -->
<g id="edge70" class="edge">
<title>src/utils/app&#45;handlers.ts&#45;&gt;src/types/structs.ts</title>
<path fill="none" stroke="#757575" d="M546.5,-294.59C546.5,-259.84 546.5,-161 546.5,-161 546.5,-161 311,-161 311,-161 311,-161 311,-151.23 311,-151.23"/>
<polygon fill="#757575" stroke="#757575" points="314.5,-151.23 311,-141.23 307.5,-151.23 314.5,-151.23"/>
</g>
<!-- src/utils/app&#45;handlers.ts&#45;&gt;src/functions.ts -->
<g id="edge68" class="edge">
<title>src/utils/app&#45;handlers.ts&#45;&gt;src/functions.ts</title>
<path fill="none" stroke="#757575" d="M670.83,-294.9C670.83,-265.44 670.83,-190 670.83,-190 670.83,-190 1211.38,-190 1211.38,-190"/>
<polygon fill="#757575" stroke="#757575" points="1211.38,-193.5 1221.38,-190 1211.38,-186.5 1211.38,-193.5"/>
</g>
<!-- src/utils/function&#45;call&#45;params.ts -->
<g id="node26" class="node">
<title>src/utils/function&#45;call&#45;params.ts</title>
<path fill="none" stroke="#c6c5fe" d="M836.83,-141C836.83,-141 649.17,-141 649.17,-141 645.33,-141 641.5,-137.17 641.5,-133.33 641.5,-133.33 641.5,-125.67 641.5,-125.67 641.5,-121.83 645.33,-118 649.17,-118 649.17,-118 836.83,-118 836.83,-118 840.67,-118 844.5,-121.83 844.5,-125.67 844.5,-125.67 844.5,-133.33 844.5,-133.33 844.5,-137.17 840.67,-141 836.83,-141"/>
<text text-anchor="middle" x="743" y="-125.8" font-family="Arial" font-size="14.00" fill="#c6c5fe">src/utils/function&#45;call&#45;params.ts</text>
</g>
<!-- src/utils/app&#45;handlers.ts&#45;&gt;src/utils/function&#45;call&#45;params.ts -->
<g id="edge72" class="edge">
<title>src/utils/app&#45;handlers.ts&#45;&gt;src/utils/function&#45;call&#45;params.ts</title>
<path fill="none" stroke="#757575" d="M656.17,-294.89C656.17,-294.89 656.17,-151.39 656.17,-151.39"/>
<polygon fill="#757575" stroke="#757575" points="659.67,-151.39 656.17,-141.39 652.67,-151.39 659.67,-151.39"/>
</g>
<!-- src/handlers/method&#45;call.ts -->
<g id="node28" class="node">
<title>src/handlers/method&#45;call.ts</title>
<path fill="none" stroke="#c6c5fe" d="M856.83,-259C856.83,-259 693.17,-259 693.17,-259 689.33,-259 685.5,-255.17 685.5,-251.33 685.5,-251.33 685.5,-243.67 685.5,-243.67 685.5,-239.83 689.33,-236 693.17,-236 693.17,-236 856.83,-236 856.83,-236 860.67,-236 864.5,-239.83 864.5,-243.67 864.5,-243.67 864.5,-251.33 864.5,-251.33 864.5,-255.17 860.67,-259 856.83,-259"/>
<text text-anchor="middle" x="775" y="-243.8" font-family="Arial" font-size="14.00" fill="#c6c5fe">src/handlers/method&#45;call.ts</text>
</g>
<!-- src/utils/app&#45;handlers.ts&#45;&gt;src/handlers/method&#45;call.ts -->
<g id="edge69" class="edge">
<title>src/utils/app&#45;handlers.ts&#45;&gt;src/handlers/method&#45;call.ts</title>
<path fill="none" stroke="#757575" d="M686.96,-306C689.83,-306 691.5,-306 691.5,-306 691.5,-306 691.5,-269.06 691.5,-269.06"/>
<polygon fill="#757575" stroke="#757575" points="695,-269.06 691.5,-259.06 688,-269.06 695,-269.06"/>
</g>
<!-- src/types/type&#45;declarations.ts -->
<g id="node32" class="node">
<title>src/types/type&#45;declarations.ts</title>
<path fill="none" stroke="#c6c5fe" d="M576.83,-141C576.83,-141 401.17,-141 401.17,-141 397.33,-141 393.5,-137.17 393.5,-133.33 393.5,-133.33 393.5,-125.67 393.5,-125.67 393.5,-121.83 397.33,-118 401.17,-118 401.17,-118 576.83,-118 576.83,-118 580.67,-118 584.5,-121.83 584.5,-125.67 584.5,-125.67 584.5,-133.33 584.5,-133.33 584.5,-137.17 580.67,-141 576.83,-141"/>
<text text-anchor="middle" x="489" y="-125.8" font-family="Arial" font-size="14.00" fill="#c6c5fe">src/types/type&#45;declarations.ts</text>
</g>
<!-- src/utils/app&#45;handlers.ts&#45;&gt;src/types/type&#45;declarations.ts -->
<g id="edge71" class="edge">
<title>src/utils/app&#45;handlers.ts&#45;&gt;src/types/type&#45;declarations.ts</title>
<path fill="none" stroke="#757575" d="M565.5,-294.89C565.5,-294.89 565.5,-151.39 565.5,-151.39"/>
<polygon fill="#757575" stroke="#757575" points="569,-151.39 565.5,-141.39 562,-151.39 569,-151.39"/>
</g>
<!-- src/declarations.ts -->
<g id="node15" class="node">
<title>src/declarations.ts</title>
<path fill="none" stroke="#c6c5fe" d="M521.83,-82C521.83,-82 412.17,-82 412.17,-82 408.33,-82 404.5,-78.17 404.5,-74.33 404.5,-74.33 404.5,-66.67 404.5,-66.67 404.5,-62.83 408.33,-59 412.17,-59 412.17,-59 521.83,-59 521.83,-59 525.67,-59 529.5,-62.83 529.5,-66.67 529.5,-66.67 529.5,-74.33 529.5,-74.33 529.5,-78.17 525.67,-82 521.83,-82"/>
<text text-anchor="middle" x="467" y="-66.8" font-family="Arial" font-size="14.00" fill="#c6c5fe">src/declarations.ts</text>
</g>
<!-- src/declarations.ts&#45;&gt;src/expressions/handlers.ts -->
<g id="edge14" class="edge">
<title>src/declarations.ts&#45;&gt;src/expressions/handlers.ts</title>
<path fill="none" stroke="#757575" d="M458.25,-58.84C458.25,-58.84 458.25,-33.13 458.25,-33.13"/>
<polygon fill="#757575" stroke="#757575" points="461.75,-33.13 458.25,-23.13 454.75,-33.13 461.75,-33.13"/>
</g>
<!-- src/expressions/operators.ts&#45;&gt;src/parser.ts -->
<g id="edge24" class="edge">
<title>src/expressions/operators.ts&#45;&gt;src/parser.ts</title>
<path fill="none" stroke="#757575" d="M2022.67,-176.74C2022.67,-159.4 2022.67,-129 2022.67,-129 2022.67,-129 2042.87,-129 2042.87,-129"/>
<polygon fill="#757575" stroke="#757575" points="2042.87,-132.5 2052.87,-129 2042.87,-125.5 2042.87,-132.5"/>
</g>
<!-- src/expressions/operators.ts&#45;&gt;src/types/structs.ts -->
<g id="edge26" class="edge">
<title>src/expressions/operators.ts&#45;&gt;src/types/structs.ts</title>
<path fill="none" stroke="#757575" d="M1899.33,-176.77C1899.33,-167.46 1899.33,-156 1899.33,-156 1899.33,-156 343,-156 343,-156 343,-156 343,-151.2 343,-151.2"/>
<polygon fill="#757575" stroke="#757575" points="346.5,-151.2 343,-141.2 339.5,-151.2 346.5,-151.2"/>
</g>
<!-- src/expressions/operator&#45;finder.ts -->
<g id="node19" class="node">
<title>src/expressions/operator&#45;finder.ts</title>
<path fill="none" stroke="#c6c5fe" d="M1989.33,-141C1989.33,-141 1788.67,-141 1788.67,-141 1784.83,-141 1781,-137.17 1781,-133.33 1781,-133.33 1781,-125.67 1781,-125.67 1781,-121.83 1784.83,-118 1788.67,-118 1788.67,-118 1989.33,-118 1989.33,-118 1993.17,-118 1997,-121.83 1997,-125.67 1997,-125.67 1997,-133.33 1997,-133.33 1997,-137.17 1993.17,-141 1989.33,-141"/>
<text text-anchor="middle" x="1889" y="-125.8" font-family="Arial" font-size="14.00" fill="#c6c5fe">src/expressions/operator&#45;finder.ts</text>
</g>
<!-- src/expressions/operators.ts&#45;&gt;src/expressions/operator&#45;finder.ts -->
<g id="edge23" class="edge">
<title>src/expressions/operators.ts&#45;&gt;src/expressions/operator&#45;finder.ts</title>
<path fill="none" stroke="#757575" d="M1948.17,-176.84C1948.17,-176.84 1948.17,-151.13 1948.17,-151.13"/>
<polygon fill="#757575" stroke="#757575" points="1951.67,-151.13 1948.17,-141.13 1944.67,-151.13 1951.67,-151.13"/>
</g>
<!-- src/expressions/operators.ts&#45;&gt;src/type&#45;utils.ts -->
<g id="edge25" class="edge">
<title>src/expressions/operators.ts&#45;&gt;src/type&#45;utils.ts</title>
<path fill="none" stroke="#757575" d="M2009.83,-176.85C2009.83,-137.95 2009.83,-15 2009.83,-15 2009.83,-15 1668.76,-15 1668.76,-15"/>
<polygon fill="#757575" stroke="#757575" points="1668.76,-11.5 1658.76,-15 1668.76,-18.5 1668.76,-11.5"/>
</g>
<!-- src/types/structs.ts&#45;&gt;src/expressions/handlers.ts -->
<g id="edge65" class="edge">
<title>src/types/structs.ts&#45;&gt;src/expressions/handlers.ts</title>
<path fill="none" stroke="#757575" d="M346.33,-117.75C346.33,-117.75 346.33,-33.2 346.33,-33.2"/>
<polygon fill="#757575" stroke="#757575" points="349.83,-33.2 346.33,-23.2 342.83,-33.2 349.83,-33.2"/>
</g>
<!-- src/types/structs.ts&#45;&gt;src/declarations.ts -->
<g id="edge64" class="edge">
<title>src/types/structs.ts&#45;&gt;src/declarations.ts</title>
<path fill="none" stroke="#757575" d="M360.67,-117.74C360.67,-100.4 360.67,-70 360.67,-70 360.67,-70 394.22,-70 394.22,-70"/>
<polygon fill="#757575" stroke="#757575" points="394.22,-73.5 404.22,-70 394.22,-66.5 394.22,-73.5"/>
</g>
<!-- src/expressions/operator&#45;utils.ts -->
<g id="node20" class="node">
<title>src/expressions/operator&#45;utils.ts</title>
<path fill="none" stroke="#cfffac" d="M1984.83,-82C1984.83,-82 1793.17,-82 1793.17,-82 1789.33,-82 1785.5,-78.17 1785.5,-74.33 1785.5,-74.33 1785.5,-66.67 1785.5,-66.67 1785.5,-62.83 1789.33,-59 1793.17,-59 1793.17,-59 1984.83,-59 1984.83,-59 1988.67,-59 1992.5,-62.83 1992.5,-66.67 1992.5,-66.67 1992.5,-74.33 1992.5,-74.33 1992.5,-78.17 1988.67,-82 1984.83,-82"/>
<text text-anchor="middle" x="1889" y="-66.8" font-family="Arial" font-size="14.00" fill="#cfffac">src/expressions/operator&#45;utils.ts</text>
</g>
<!-- src/expressions/operator&#45;finder.ts&#45;&gt;src/expressions/operator&#45;utils.ts -->
<g id="edge22" class="edge">
<title>src/expressions/operator&#45;finder.ts&#45;&gt;src/expressions/operator&#45;utils.ts</title>
<path fill="none" stroke="#757575" d="M1889,-117.84C1889,-117.84 1889,-92.13 1889,-92.13"/>
<polygon fill="#757575" stroke="#757575" points="1892.5,-92.13 1889,-82.13 1885.5,-92.13 1892.5,-92.13"/>
</g>
<!-- src/function&#45;type&#45;handler.ts&#45;&gt;src/type&#45;utils.ts -->
<g id="edge28" class="edge">
<title>src/function&#45;type&#45;handler.ts&#45;&gt;src/type&#45;utils.ts</title>
<path fill="none" stroke="#757575" d="M1615.75,-235.8C1615.75,-235.8 1615.75,-33.27 1615.75,-33.27"/>
<polygon fill="#757575" stroke="#757575" points="1619.25,-33.27 1615.75,-23.27 1612.25,-33.27 1619.25,-33.27"/>
</g>
<!-- src/function&#45;type&#45;handler.ts&#45;&gt;src/functions.ts -->
<g id="edge27" class="edge">
<title>src/function&#45;type&#45;handler.ts&#45;&gt;src/functions.ts</title>
<path fill="none" stroke="#757575" d="M1489,-235.86C1489,-219.06 1489,-190 1489,-190 1489,-190 1338.73,-190 1338.73,-190"/>
<polygon fill="#757575" stroke="#757575" points="1338.73,-186.5 1328.73,-190 1338.72,-193.5 1338.73,-186.5"/>
</g>
<!-- src/functions.ts&#45;&gt;src/utils/identifier&#45;utils.ts -->
<g id="edge33" class="edge">
<title>src/functions.ts&#45;&gt;src/utils/identifier&#45;utils.ts</title>
<path fill="none" stroke="#757575" d="M1238.75,-176.75C1238.75,-176.75 1238.75,-92.2 1238.75,-92.2"/>
<polygon fill="#757575" stroke="#757575" points="1242.25,-92.2 1238.75,-82.2 1235.25,-92.2 1242.25,-92.2"/>
</g>
<!-- src/functions.ts&#45;&gt;src/handlers/anonymous&#45;functions.ts -->
<g id="edge29" class="edge">
<title>src/functions.ts&#45;&gt;src/handlers/anonymous&#45;functions.ts</title>
<path fill="none" stroke="#757575" d="M1294,-176.84C1294,-176.84 1294,-151.13 1294,-151.13"/>
<polygon fill="#757575" stroke="#757575" points="1297.5,-151.13 1294,-141.13 1290.5,-151.13 1297.5,-151.13"/>
</g>
<!-- src/handlers/function&#45;declaration.ts -->
<g id="node25" class="node">
<title>src/handlers/function&#45;declaration.ts</title>
<path fill="none" stroke="#c6c5fe" d="M1119.33,-141C1119.33,-141 908.67,-141 908.67,-141 904.83,-141 901,-137.17 901,-133.33 901,-133.33 901,-125.67 901,-125.67 901,-121.83 904.83,-118 908.67,-118 908.67,-118 1119.33,-118 1119.33,-118 1123.17,-118 1127,-121.83 1127,-125.67 1127,-125.67 1127,-133.33 1127,-133.33 1127,-137.17 1123.17,-141 1119.33,-141"/>
<text text-anchor="middle" x="1014" y="-125.8" font-family="Arial" font-size="14.00" fill="#c6c5fe">src/handlers/function&#45;declaration.ts</text>
</g>
<!-- src/functions.ts&#45;&gt;src/handlers/function&#45;declaration.ts -->
<g id="edge30" class="edge">
<title>src/functions.ts&#45;&gt;src/handlers/function&#45;declaration.ts</title>
<path fill="none" stroke="#757575" d="M1230.12,-176.73C1230.12,-160.44 1230.12,-133 1230.12,-133 1230.12,-133 1137.13,-133 1137.13,-133"/>
<polygon fill="#757575" stroke="#757575" points="1137.13,-129.5 1127.13,-133 1137.13,-136.5 1137.13,-129.5"/>
</g>
<!-- src/functions.ts&#45;&gt;src/utils/function&#45;call&#45;params.ts -->
<g id="edge31" class="edge">
<title>src/functions.ts&#45;&gt;src/utils/function&#45;call&#45;params.ts</title>
<path fill="none" stroke="#757575" d="M1221.38,-181C1090.44,-181 765,-181 765,-181 765,-181 765,-151.19 765,-151.19"/>
<polygon fill="#757575" stroke="#757575" points="768.5,-151.19 765,-141.19 761.5,-151.19 768.5,-151.19"/>
</g>
<!-- src/functions.ts&#45;&gt;src/utils/function&#45;utils.ts -->
<g id="edge32" class="edge">
<title>src/functions.ts&#45;&gt;src/utils/function&#45;utils.ts</title>
<path fill="none" stroke="#757575" d="M1328.7,-183C1399.62,-183 1515.62,-183 1515.62,-183 1515.62,-183 1515.62,-92.12 1515.62,-92.12"/>
<polygon fill="#757575" stroke="#757575" points="1519.13,-92.12 1515.62,-82.12 1512.13,-92.12 1519.13,-92.12"/>
</g>
<!-- src/handlers/anonymous&#45;functions.ts&#45;&gt;src/utils/identifier&#45;utils.ts -->
<g id="edge36" class="edge">
<title>src/handlers/anonymous&#45;functions.ts&#45;&gt;src/utils/identifier&#45;utils.ts</title>
<path fill="none" stroke="#757575" d="M1259.43,-125C1251.97,-125 1247.38,-125 1247.38,-125 1247.38,-125 1247.38,-92.06 1247.38,-92.06"/>
<polygon fill="#757575" stroke="#757575" points="1250.88,-92.06 1247.38,-82.06 1243.88,-92.06 1250.88,-92.06"/>
</g>
<!-- src/handlers/anonymous&#45;functions.ts&#45;&gt;src/type&#45;utils.ts -->
<g id="edge34" class="edge">
<title>src/handlers/anonymous&#45;functions.ts&#45;&gt;src/type&#45;utils.ts</title>
<path fill="none" stroke="#757575" d="M1496.63,-129C1547.03,-129 1594.38,-129 1594.38,-129 1594.38,-129 1594.38,-33.2 1594.38,-33.2"/>
<polygon fill="#757575" stroke="#757575" points="1597.88,-33.2 1594.38,-23.2 1590.88,-33.2 1597.88,-33.2"/>
</g>
<!-- src/handlers/anonymous&#45;functions.ts&#45;&gt;src/utils/function&#45;utils.ts -->
<g id="edge35" class="edge">
<title>src/handlers/anonymous&#45;functions.ts&#45;&gt;src/utils/function&#45;utils.ts</title>
<path fill="none" stroke="#757575" d="M1470,-117.84C1470,-117.84 1470,-92.13 1470,-92.13"/>
<polygon fill="#757575" stroke="#757575" points="1473.5,-92.13 1470,-82.13 1466.5,-92.13 1473.5,-92.13"/>
</g>
<!-- src/handlers/function&#45;declaration.ts&#45;&gt;src/declarations.ts -->
<g id="edge39" class="edge">
<title>src/handlers/function&#45;declaration.ts&#45;&gt;src/declarations.ts</title>
<path fill="none" stroke="#757575" d="M966,-117.85C966,-99.52 966,-66 966,-66 966,-66 539.69,-66 539.69,-66"/>
<polygon fill="#757575" stroke="#757575" points="539.69,-62.5 529.69,-66 539.69,-69.5 539.69,-62.5"/>
</g>
<!-- src/handlers/function&#45;declaration.ts&#45;&gt;src/utils/identifier&#45;utils.ts -->
<g id="edge42" class="edge">
<title>src/handlers/function&#45;declaration.ts&#45;&gt;src/utils/identifier&#45;utils.ts</title>
<path fill="none" stroke="#757575" d="M1106.33,-117.84C1106.33,-117.84 1106.33,-92.13 1106.33,-92.13"/>
<polygon fill="#757575" stroke="#757575" points="1109.83,-92.13 1106.33,-82.13 1102.83,-92.13 1109.83,-92.13"/>
</g>
<!-- src/handlers/function&#45;declaration.ts&#45;&gt;src/type&#45;utils.ts -->
<g id="edge40" class="edge">
<title>src/handlers/function&#45;declaration.ts&#45;&gt;src/type&#45;utils.ts</title>
<path fill="none" stroke="#757575" d="M1031,-117.67C1031,-89.17 1031,-19 1031,-19 1031,-19 1541.26,-19 1541.26,-19"/>
<polygon fill="#757575" stroke="#757575" points="1541.26,-22.5 1551.26,-19 1541.26,-15.5 1541.26,-22.5"/>
</g>
<!-- src/handlers/function&#45;declaration.ts&#45;&gt;src/utils/function&#45;utils.ts -->
<g id="edge41" class="edge">
<title>src/handlers/function&#45;declaration.ts&#45;&gt;src/utils/function&#45;utils.ts</title>
<path fill="none" stroke="#757575" d="M1116.67,-117.84C1116.67,-109.6 1116.67,-100 1116.67,-100 1116.67,-100 1443.5,-100 1443.5,-100 1443.5,-100 1443.5,-92.16 1443.5,-92.16"/>
<polygon fill="#757575" stroke="#757575" points="1447,-92.16 1443.5,-82.16 1440,-92.16 1447,-92.16"/>
</g>
<!-- src/utils/function&#45;call&#45;params.ts&#45;&gt;src/expressions/handlers.ts -->
<g id="edge73" class="edge">
<title>src/utils/function&#45;call&#45;params.ts&#45;&gt;src/expressions/handlers.ts</title>
<path fill="none" stroke="#757575" d="M743,-117.7C743,-87.73 743,-11 743,-11 743,-11 522.27,-11 522.27,-11"/>
<polygon fill="#757575" stroke="#757575" points="522.27,-7.5 512.27,-11 522.27,-14.5 522.27,-7.5"/>
</g>
<!-- src/utils/function&#45;utils.ts&#45;&gt;src/type&#45;utils.ts -->
<g id="edge74" class="edge">
<title>src/utils/function&#45;utils.ts&#45;&gt;src/type&#45;utils.ts</title>
<path fill="none" stroke="#757575" d="M1562.25,-58.84C1562.25,-58.84 1562.25,-33.13 1562.25,-33.13"/>
<polygon fill="#757575" stroke="#757575" points="1565.75,-33.13 1562.25,-23.13 1558.75,-33.13 1565.75,-33.13"/>
</g>
<!-- src/handlers/method&#45;call.ts&#45;&gt;src/expressions/handlers.ts -->
<g id="edge45" class="edge">
<title>src/handlers/method&#45;call.ts&#45;&gt;src/expressions/handlers.ts</title>
<path fill="none" stroke="#757575" d="M849.5,-235.9C849.5,-187.86 849.5,-7 849.5,-7 849.5,-7 522.14,-7 522.14,-7"/>
<polygon fill="#757575" stroke="#757575" points="522.14,-3.5 512.14,-7 522.14,-10.5 522.14,-3.5"/>
</g>
<!-- src/handlers/method&#45;call.ts&#45;&gt;src/utils/identifier&#45;utils.ts -->
<g id="edge47" class="edge">
<title>src/handlers/method&#45;call.ts&#45;&gt;src/utils/identifier&#45;utils.ts</title>
<path fill="none" stroke="#757575" d="M854.5,-235.85C854.5,-196.95 854.5,-74 854.5,-74 854.5,-74 1085.7,-74 1085.7,-74"/>
<polygon fill="#757575" stroke="#757575" points="1085.7,-77.5 1095.7,-74 1085.7,-70.5 1085.7,-77.5"/>
</g>
<!-- src/handlers/method&#45;call.ts&#45;&gt;src/functions.ts -->
<g id="edge46" class="edge">
<title>src/handlers/method&#45;call.ts&#45;&gt;src/functions.ts</title>
<path fill="none" stroke="#757575" d="M859.5,-235.85C859.5,-220.38 859.5,-195 859.5,-195 859.5,-195 1211.11,-195 1211.11,-195"/>
<polygon fill="#757575" stroke="#757575" points="1211.11,-198.5 1221.11,-195 1211.11,-191.5 1211.11,-198.5"/>
</g>
<!-- src/loops/types.ts&#45;&gt;src/expressions/handlers.ts -->
<g id="edge52" class="edge">
<title>src/loops/types.ts&#45;&gt;src/expressions/handlers.ts</title>
<path fill="none" stroke="#757575" d="M171,-235.77C171,-188.05 171,-11 171,-11 171,-11 321.74,-11 321.74,-11"/>
<polygon fill="#757575" stroke="#757575" points="321.74,-14.5 331.74,-11 321.74,-7.5 321.74,-14.5"/>
</g>
<!-- src/utils/scope&#45;helpers.ts&#45;&gt;src/parser.ts -->
<g id="edge76" class="edge">
<title>src/utils/scope&#45;helpers.ts&#45;&gt;src/parser.ts</title>
<path fill="none" stroke="#757575" d="M1806.75,-176.99C1806.75,-171.45 1806.75,-166 1806.75,-166 1806.75,-166 2071,-166 2071,-166 2071,-166 2071,-151.05 2071,-151.05"/>
<polygon fill="#757575" stroke="#757575" points="2074.5,-151.05 2071,-141.05 2067.5,-151.05 2074.5,-151.05"/>
</g>
<!-- src/utils/scope&#45;helpers.ts&#45;&gt;src/type&#45;utils.ts -->
<g id="edge77" class="edge">
<title>src/utils/scope&#45;helpers.ts&#45;&gt;src/type&#45;utils.ts</title>
<path fill="none" stroke="#757575" d="M1667.37,-180C1650.16,-180 1637.12,-180 1637.12,-180 1637.12,-180 1637.12,-33.08 1637.12,-33.08"/>
<polygon fill="#757575" stroke="#757575" points="1640.63,-33.08 1637.12,-23.08 1633.63,-33.08 1640.63,-33.08"/>
</g>
<!-- src/utils/scope&#45;helpers.ts&#45;&gt;src/utils/function&#45;utils.ts -->
<g id="edge78" class="edge">
<title>src/utils/scope&#45;helpers.ts&#45;&gt;src/utils/function&#45;utils.ts</title>
<path fill="none" stroke="#757575" d="M1667.39,-196C1613.79,-196 1553.88,-196 1553.88,-196 1553.88,-196 1553.88,-92.08 1553.88,-92.08"/>
<polygon fill="#757575" stroke="#757575" points="1557.38,-92.08 1553.88,-82.08 1550.38,-92.08 1557.38,-92.08"/>
</g>
<!-- src/types/type&#45;declarations.ts&#45;&gt;src/declarations.ts -->
<g id="edge66" class="edge">
<title>src/types/type&#45;declarations.ts&#45;&gt;src/declarations.ts</title>
<path fill="none" stroke="#757575" d="M467,-117.84C467,-117.84 467,-92.13 467,-92.13"/>
<polygon fill="#757575" stroke="#757575" points="470.5,-92.13 467,-82.13 463.5,-92.13 470.5,-92.13"/>
</g>
<!-- src/types/type&#45;declarations.ts&#45;&gt;src/type&#45;utils.ts -->
<g id="edge67" class="edge">
<title>src/types/type&#45;declarations.ts&#45;&gt;src/type&#45;utils.ts</title>
<path fill="none" stroke="#757575" d="M557,-117.68C557,-88.42 557,-15 557,-15 557,-15 1541.23,-15 1541.23,-15"/>
<polygon fill="#757575" stroke="#757575" points="1541.23,-18.5 1551.23,-15 1541.23,-11.5 1541.23,-18.5"/>
</g>
<!-- src/utils/interpret.ts -->
<g id="node33" class="node">
<title>src/utils/interpret.ts</title>
<path fill="none" stroke="#c6c5fe" d="M664.33,-436C664.33,-436 549.67,-436 549.67,-436 545.83,-436 542,-432.17 542,-428.33 542,-428.33 542,-420.67 542,-420.67 542,-416.83 545.83,-413 549.67,-413 549.67,-413 664.33,-413 664.33,-413 668.17,-413 672,-416.83 672,-420.67 672,-420.67 672,-428.33 672,-428.33 672,-432.17 668.17,-436 664.33,-436"/>
<text text-anchor="middle" x="607" y="-420.8" font-family="Arial" font-size="14.00" fill="#c6c5fe">src/utils/interpret.ts</text>
</g>
<!-- src/utils/interpret.ts&#45;&gt;src/app.ts -->
<g id="edge75" class="edge">
<title>src/utils/interpret.ts&#45;&gt;src/app.ts</title>
<path fill="none" stroke="#757575" d="M607,-412.84C607,-412.84 607,-387.13 607,-387.13"/>
<polygon fill="#757575" stroke="#757575" points="610.5,-387.13 607,-377.13 603.5,-387.13 610.5,-387.13"/>
</g>
<!-- tests/arithmetic.test.ts -->
<g id="node34" class="node">
<title>tests/arithmetic.test.ts</title>
<path fill="none" stroke="#c6c5fe" d="M334.33,-495C334.33,-495 201.67,-495 201.67,-495 197.83,-495 194,-491.17 194,-487.33 194,-487.33 194,-479.67 194,-479.67 194,-475.83 197.83,-472 201.67,-472 201.67,-472 334.33,-472 334.33,-472 338.17,-472 342,-475.83 342,-479.67 342,-479.67 342,-487.33 342,-487.33 342,-491.17 338.17,-495 334.33,-495"/>
<text text-anchor="middle" x="268" y="-479.8" font-family="Arial" font-size="14.00" fill="#c6c5fe">tests/arithmetic.test.ts</text>
</g>
<!-- tests/arithmetic.test.ts&#45;&gt;src/utils/interpret.ts -->
<g id="edge79" class="edge">
<title>tests/arithmetic.test.ts&#45;&gt;src/utils/interpret.ts</title>
<path fill="none" stroke="#757575" d="M308.25,-471.85C308.25,-453.52 308.25,-420 308.25,-420 308.25,-420 531.81,-420 531.81,-420"/>
<polygon fill="#757575" stroke="#757575" points="531.81,-423.5 541.81,-420 531.81,-416.5 531.81,-423.5"/>
</g>
<!-- tests/control&#45;flow.test.ts -->
<g id="node35" class="node">
<title>tests/control&#45;flow.test.ts</title>
<path fill="none" stroke="#c6c5fe" d="M509.83,-495C509.83,-495 368.17,-495 368.17,-495 364.33,-495 360.5,-491.17 360.5,-487.33 360.5,-487.33 360.5,-479.67 360.5,-479.67 360.5,-475.83 364.33,-472 368.17,-472 368.17,-472 509.83,-472 509.83,-472 513.67,-472 517.5,-475.83 517.5,-479.67 517.5,-479.67 517.5,-487.33 517.5,-487.33 517.5,-491.17 513.67,-495 509.83,-495"/>
<text text-anchor="middle" x="439" y="-479.8" font-family="Arial" font-size="14.00" fill="#c6c5fe">tests/control&#45;flow.test.ts</text>
</g>
<!-- tests/control&#45;flow.test.ts&#45;&gt;src/utils/interpret.ts -->
<g id="edge80" class="edge">
<title>tests/control&#45;flow.test.ts&#45;&gt;src/utils/interpret.ts</title>
<path fill="none" stroke="#757575" d="M480.25,-471.73C480.25,-455.44 480.25,-428 480.25,-428 480.25,-428 531.77,-428 531.77,-428"/>
<polygon fill="#757575" stroke="#757575" points="531.77,-431.5 541.77,-428 531.77,-424.5 531.77,-431.5"/>
</g>
<!-- tests/functions.test.ts -->
<g id="node36" class="node">
<title>tests/functions.test.ts</title>
<path fill="none" stroke="#c6c5fe" d="M670.83,-495C670.83,-495 543.17,-495 543.17,-495 539.33,-495 535.5,-491.17 535.5,-487.33 535.5,-487.33 535.5,-479.67 535.5,-479.67 535.5,-475.83 539.33,-472 543.17,-472 543.17,-472 670.83,-472 670.83,-472 674.67,-472 678.5,-475.83 678.5,-479.67 678.5,-479.67 678.5,-487.33 678.5,-487.33 678.5,-491.17 674.67,-495 670.83,-495"/>
<text text-anchor="middle" x="607" y="-479.8" font-family="Arial" font-size="14.00" fill="#c6c5fe">tests/functions.test.ts</text>
</g>
<!-- tests/functions.test.ts&#45;&gt;src/utils/interpret.ts -->
<g id="edge81" class="edge">
<title>tests/functions.test.ts&#45;&gt;src/utils/interpret.ts</title>
<path fill="none" stroke="#757575" d="M607,-471.84C607,-471.84 607,-446.13 607,-446.13"/>
<polygon fill="#757575" stroke="#757575" points="610.5,-446.13 607,-436.13 603.5,-446.13 610.5,-446.13"/>
</g>
<!-- tests/types.test.ts -->
<g id="node37" class="node">
<title>tests/types.test.ts</title>
<path fill="none" stroke="#c6c5fe" d="M809.83,-495C809.83,-495 704.17,-495 704.17,-495 700.33,-495 696.5,-491.17 696.5,-487.33 696.5,-487.33 696.5,-479.67 696.5,-479.67 696.5,-475.83 700.33,-472 704.17,-472 704.17,-472 809.83,-472 809.83,-472 813.67,-472 817.5,-475.83 817.5,-479.67 817.5,-479.67 817.5,-487.33 817.5,-487.33 817.5,-491.17 813.67,-495 809.83,-495"/>
<text text-anchor="middle" x="757" y="-479.8" font-family="Arial" font-size="14.00" fill="#c6c5fe">tests/types.test.ts</text>
</g>
<!-- tests/types.test.ts&#45;&gt;src/utils/interpret.ts -->
<g id="edge82" class="edge">
<title>tests/types.test.ts&#45;&gt;src/utils/interpret.ts</title>
<path fill="none" stroke="#757575" d="M700.75,-471.73C700.75,-455.44 700.75,-428 700.75,-428 700.75,-428 682.11,-428 682.11,-428"/>
<polygon fill="#757575" stroke="#757575" points="682.11,-424.5 672.11,-428 682.11,-431.5 682.11,-424.5"/>
</g>
<!-- tests/variables.test.ts -->
<g id="node38" class="node">
<title>tests/variables.test.ts</title>
<path fill="none" stroke="#c6c5fe" d="M970.83,-495C970.83,-495 843.17,-495 843.17,-495 839.33,-495 835.5,-491.17 835.5,-487.33 835.5,-487.33 835.5,-479.67 835.5,-479.67 835.5,-475.83 839.33,-472 843.17,-472 843.17,-472 970.83,-472 970.83,-472 974.67,-472 978.5,-475.83 978.5,-479.67 978.5,-479.67 978.5,-487.33 978.5,-487.33 978.5,-491.17 974.67,-495 970.83,-495"/>
<text text-anchor="middle" x="907" y="-479.8" font-family="Arial" font-size="14.00" fill="#c6c5fe">tests/variables.test.ts</text>
</g>
<!-- tests/variables.test.ts&#45;&gt;src/utils/interpret.ts -->
<g id="edge83" class="edge">
<title>tests/variables.test.ts&#45;&gt;src/utils/interpret.ts</title>
<path fill="none" stroke="#757575" d="M897.25,-471.85C897.25,-453.52 897.25,-420 897.25,-420 897.25,-420 682.14,-420 682.14,-420"/>
<polygon fill="#757575" stroke="#757575" points="682.14,-416.5 672.14,-420 682.14,-423.5 682.14,-416.5"/>
</g>
</g>
</svg>
