<?xml version="1.0" encoding="UTF-8" standalone="no"?>
<!DOCTYPE svg PUBLIC "-//W3C//DTD SVG 1.1//EN"
 "http://www.w3.org/Graphics/SVG/1.1/DTD/svg11.dtd">
<!-- Generated by graphviz version 2.43.0 (0)
 -->
<!-- Title: G Pages: 1 -->
<svg width="2198pt" height="447pt"
 viewBox="0.00 0.00 2198.20 447.20" xmlns="http://www.w3.org/2000/svg" xmlns:xlink="http://www.w3.org/1999/xlink">
<g id="graph0" class="graph" transform="scale(1 1) rotate(0) translate(21.6 425.6)">
<title>G</title>
<polygon fill="#111111" stroke="transparent" points="-21.6,21.6 -21.6,-425.6 2176.6,-425.6 2176.6,21.6 -21.6,21.6"/>
<!-- app.ts -->
<g id="node1" class="node">
<title>app.ts</title>
<path fill="none" stroke="#c6c5fe" d="M843.17,-404C843.17,-404 801.83,-404 801.83,-404 798.67,-404 795.5,-400.83 795.5,-397.67 795.5,-397.67 795.5,-391.33 795.5,-391.33 795.5,-388.17 798.67,-385 801.83,-385 801.83,-385 843.17,-385 843.17,-385 846.33,-385 849.5,-388.17 849.5,-391.33 849.5,-391.33 849.5,-397.67 849.5,-397.67 849.5,-400.83 846.33,-404 843.17,-404"/>
<text text-anchor="middle" x="822.5" y="-392" font-family="Arial" font-size="10.00" fill="#c6c5fe">app.ts</text>
</g>
<!-- arithmetic&#45;parsing.ts -->
<g id="node2" class="node">
<title>arithmetic&#45;parsing.ts</title>
<path fill="none" stroke="#c6c5fe" d="M1154.67,-239C1154.67,-239 1062.33,-239 1062.33,-239 1059.17,-239 1056,-235.83 1056,-232.67 1056,-232.67 1056,-226.33 1056,-226.33 1056,-223.17 1059.17,-220 1062.33,-220 1062.33,-220 1154.67,-220 1154.67,-220 1157.83,-220 1161,-223.17 1161,-226.33 1161,-226.33 1161,-232.67 1161,-232.67 1161,-235.83 1157.83,-239 1154.67,-239"/>
<text text-anchor="middle" x="1108.5" y="-227" font-family="Arial" font-size="10.00" fill="#c6c5fe">arithmetic&#45;parsing.ts</text>
</g>
<!-- app.ts&#45;&gt;arithmetic&#45;parsing.ts -->
<g id="edge1" class="edge">
<title>app.ts&#45;&gt;arithmetic&#45;parsing.ts</title>
<path fill="none" stroke="#757575" d="M849.88,-397C914.19,-397 1069.5,-397 1069.5,-397 1069.5,-397 1069.5,-249.48 1069.5,-249.48"/>
<polygon fill="#757575" stroke="#757575" points="1073,-249.48 1069.5,-239.48 1066,-249.48 1073,-249.48"/>
</g>
<!-- compilation&#45;strategies.ts -->
<g id="node3" class="node">
<title>compilation&#45;strategies.ts</title>
<path fill="none" stroke="#c6c5fe" d="M1319.67,-349C1319.67,-349 1209.33,-349 1209.33,-349 1206.17,-349 1203,-345.83 1203,-342.67 1203,-342.67 1203,-336.33 1203,-336.33 1203,-333.17 1206.17,-330 1209.33,-330 1209.33,-330 1319.67,-330 1319.67,-330 1322.83,-330 1326,-333.17 1326,-336.33 1326,-336.33 1326,-342.67 1326,-342.67 1326,-345.83 1322.83,-349 1319.67,-349"/>
<text text-anchor="middle" x="1264.5" y="-337" font-family="Arial" font-size="10.00" fill="#c6c5fe">compilation&#45;strategies.ts</text>
</g>
<!-- app.ts&#45;&gt;compilation&#45;strategies.ts -->
<g id="edge2" class="edge">
<title>app.ts&#45;&gt;compilation&#45;strategies.ts</title>
<path fill="none" stroke="#757575" d="M838.33,-384.96C838.33,-370.57 838.33,-345 838.33,-345 838.33,-345 1192.99,-345 1192.99,-345"/>
<polygon fill="#757575" stroke="#757575" points="1192.99,-348.5 1202.99,-345 1192.99,-341.5 1192.99,-348.5"/>
</g>
<!-- debug&#45;dump.ts -->
<g id="node4" class="node">
<title>debug&#45;dump.ts</title>
<path fill="none" stroke="#c6c5fe" d="M2148.67,-294C2148.67,-294 2080.33,-294 2080.33,-294 2077.17,-294 2074,-290.83 2074,-287.67 2074,-287.67 2074,-281.33 2074,-281.33 2074,-278.17 2077.17,-275 2080.33,-275 2080.33,-275 2148.67,-275 2148.67,-275 2151.83,-275 2155,-278.17 2155,-281.33 2155,-281.33 2155,-287.67 2155,-287.67 2155,-290.83 2151.83,-294 2148.67,-294"/>
<text text-anchor="middle" x="2114.5" y="-282" font-family="Arial" font-size="10.00" fill="#c6c5fe">debug&#45;dump.ts</text>
</g>
<!-- app.ts&#45;&gt;debug&#45;dump.ts -->
<g id="edge3" class="edge">
<title>app.ts&#45;&gt;debug&#45;dump.ts</title>
<path fill="none" stroke="#757575" d="M849.78,-400C1036.17,-400 2114.5,-400 2114.5,-400 2114.5,-400 2114.5,-304.35 2114.5,-304.35"/>
<polygon fill="#757575" stroke="#757575" points="2118,-304.35 2114.5,-294.35 2111,-304.35 2118,-304.35"/>
</g>
<!-- let&#45;binding.ts -->
<g id="node5" class="node">
<title>let&#45;binding.ts</title>
<path fill="none" stroke="#c6c5fe" d="M702.17,-184C702.17,-184 642.83,-184 642.83,-184 639.67,-184 636.5,-180.83 636.5,-177.67 636.5,-177.67 636.5,-171.33 636.5,-171.33 636.5,-168.17 639.67,-165 642.83,-165 642.83,-165 702.17,-165 702.17,-165 705.33,-165 708.5,-168.17 708.5,-171.33 708.5,-171.33 708.5,-177.67 708.5,-177.67 708.5,-180.83 705.33,-184 702.17,-184"/>
<text text-anchor="middle" x="672.5" y="-172" font-family="Arial" font-size="10.00" fill="#c6c5fe">let&#45;binding.ts</text>
</g>
<!-- app.ts&#45;&gt;let&#45;binding.ts -->
<g id="edge4" class="edge">
<title>app.ts&#45;&gt;let&#45;binding.ts</title>
<path fill="none" stroke="#757575" d="M803.7,-384.77C803.7,-343 803.7,-181 803.7,-181 803.7,-181 718.7,-181 718.7,-181"/>
<polygon fill="#757575" stroke="#757575" points="718.7,-177.5 708.7,-181 718.7,-184.5 718.7,-177.5"/>
</g>
<!-- let&#45;expression&#45;parsing.ts -->
<g id="node6" class="node">
<title>let&#45;expression&#45;parsing.ts</title>
<path fill="none" stroke="#c6c5fe" d="M116.67,-239C116.67,-239 6.33,-239 6.33,-239 3.17,-239 0,-235.83 0,-232.67 0,-232.67 0,-226.33 0,-226.33 0,-223.17 3.17,-220 6.33,-220 6.33,-220 116.67,-220 116.67,-220 119.83,-220 123,-223.17 123,-226.33 123,-226.33 123,-232.67 123,-232.67 123,-235.83 119.83,-239 116.67,-239"/>
<text text-anchor="middle" x="61.5" y="-227" font-family="Arial" font-size="10.00" fill="#c6c5fe">let&#45;expression&#45;parsing.ts</text>
</g>
<!-- app.ts&#45;&gt;let&#45;expression&#45;parsing.ts -->
<g id="edge5" class="edge">
<title>app.ts&#45;&gt;let&#45;expression&#45;parsing.ts</title>
<path fill="none" stroke="#757575" d="M795.42,-399C659.85,-399 61.5,-399 61.5,-399 61.5,-399 61.5,-249.1 61.5,-249.1"/>
<polygon fill="#757575" stroke="#757575" points="65,-249.1 61.5,-239.1 58,-249.1 65,-249.1"/>
</g>
<!-- parser.ts -->
<g id="node7" class="node">
<title>parser.ts</title>
<path fill="none" stroke="#c6c5fe" d="M1132.67,-74C1132.67,-74 1090.33,-74 1090.33,-74 1087.17,-74 1084,-70.83 1084,-67.67 1084,-67.67 1084,-61.33 1084,-61.33 1084,-58.17 1087.17,-55 1090.33,-55 1090.33,-55 1132.67,-55 1132.67,-55 1135.83,-55 1139,-58.17 1139,-61.33 1139,-61.33 1139,-67.67 1139,-67.67 1139,-70.83 1135.83,-74 1132.67,-74"/>
<text text-anchor="middle" x="1111.5" y="-62" font-family="Arial" font-size="10.00" fill="#c6c5fe">parser.ts</text>
</g>
<!-- app.ts&#45;&gt;parser.ts -->
<g id="edge6" class="edge">
<title>app.ts&#45;&gt;parser.ts</title>
<path fill="none" stroke="#757575" d="M849.54,-394C904.93,-394 1026.12,-394 1026.12,-394 1026.12,-394 1026.12,-71 1026.12,-71 1026.12,-71 1073.55,-71 1073.55,-71"/>
<polygon fill="#757575" stroke="#757575" points="1073.55,-74.5 1083.55,-71 1073.54,-67.5 1073.55,-74.5"/>
</g>
<!-- pointer&#45;validation.ts -->
<g id="node8" class="node">
<title>pointer&#45;validation.ts</title>
<path fill="none" stroke="#c6c5fe" d="M603.67,-239C603.67,-239 515.33,-239 515.33,-239 512.17,-239 509,-235.83 509,-232.67 509,-232.67 509,-226.33 509,-226.33 509,-223.17 512.17,-220 515.33,-220 515.33,-220 603.67,-220 603.67,-220 606.83,-220 610,-223.17 610,-226.33 610,-226.33 610,-232.67 610,-232.67 610,-235.83 606.83,-239 603.67,-239"/>
<text text-anchor="middle" x="559.5" y="-227" font-family="Arial" font-size="10.00" fill="#c6c5fe">pointer&#45;validation.ts</text>
</g>
<!-- app.ts&#45;&gt;pointer&#45;validation.ts -->
<g id="edge7" class="edge">
<title>app.ts&#45;&gt;pointer&#45;validation.ts</title>
<path fill="none" stroke="#757575" d="M795.34,-389C728.15,-389 559.5,-389 559.5,-389 559.5,-389 559.5,-249.48 559.5,-249.48"/>
<polygon fill="#757575" stroke="#757575" points="563,-249.48 559.5,-239.48 556,-249.48 563,-249.48"/>
</g>
<!-- reassignment&#45;validation.ts -->
<g id="node9" class="node">
<title>reassignment&#45;validation.ts</title>
<path fill="none" stroke="#c6c5fe" d="M752.67,-239C752.67,-239 634.33,-239 634.33,-239 631.17,-239 628,-235.83 628,-232.67 628,-232.67 628,-226.33 628,-226.33 628,-223.17 631.17,-220 634.33,-220 634.33,-220 752.67,-220 752.67,-220 755.83,-220 759,-223.17 759,-226.33 759,-226.33 759,-232.67 759,-232.67 759,-235.83 755.83,-239 752.67,-239"/>
<text text-anchor="middle" x="693.5" y="-227" font-family="Arial" font-size="10.00" fill="#c6c5fe">reassignment&#45;validation.ts</text>
</g>
<!-- app.ts&#45;&gt;reassignment&#45;validation.ts -->
<g id="edge8" class="edge">
<title>app.ts&#45;&gt;reassignment&#45;validation.ts</title>
<path fill="none" stroke="#757575" d="M799.6,-384.64C799.6,-349.01 799.6,-229 799.6,-229 799.6,-229 769.19,-229 769.19,-229"/>
<polygon fill="#757575" stroke="#757575" points="769.19,-225.5 759.19,-229 769.19,-232.5 769.19,-225.5"/>
</g>
<!-- types.ts -->
<g id="node10" class="node">
<title>types.ts</title>
<path fill="none" stroke="#c6c5fe" d="M930.17,-184C930.17,-184 888.83,-184 888.83,-184 885.67,-184 882.5,-180.83 882.5,-177.67 882.5,-177.67 882.5,-171.33 882.5,-171.33 882.5,-168.17 885.67,-165 888.83,-165 888.83,-165 930.17,-165 930.17,-165 933.33,-165 936.5,-168.17 936.5,-171.33 936.5,-171.33 936.5,-177.67 936.5,-177.67 936.5,-180.83 933.33,-184 930.17,-184"/>
<text text-anchor="middle" x="909.5" y="-172" font-family="Arial" font-size="10.00" fill="#c6c5fe">types.ts</text>
</g>
<!-- app.ts&#45;&gt;types.ts -->
<g id="edge9" class="edge">
<title>app.ts&#45;&gt;types.ts</title>
<path fill="none" stroke="#757575" d="M849.52,-388C877.1,-388 915.9,-388 915.9,-388 915.9,-388 915.9,-194.23 915.9,-194.23"/>
<polygon fill="#757575" stroke="#757575" points="919.4,-194.23 915.9,-184.23 912.4,-194.23 919.4,-194.23"/>
</g>
<!-- validation.ts -->
<g id="node11" class="node">
<title>validation.ts</title>
<path fill="none" stroke="#c6c5fe" d="M878.67,-239C878.67,-239 822.33,-239 822.33,-239 819.17,-239 816,-235.83 816,-232.67 816,-232.67 816,-226.33 816,-226.33 816,-223.17 819.17,-220 822.33,-220 822.33,-220 878.67,-220 878.67,-220 881.83,-220 885,-223.17 885,-226.33 885,-226.33 885,-232.67 885,-232.67 885,-235.83 881.83,-239 878.67,-239"/>
<text text-anchor="middle" x="850.5" y="-227" font-family="Arial" font-size="10.00" fill="#c6c5fe">validation.ts</text>
</g>
<!-- app.ts&#45;&gt;validation.ts -->
<g id="edge10" class="edge">
<title>app.ts&#45;&gt;validation.ts</title>
<path fill="none" stroke="#757575" d="M827.17,-384.67C827.17,-384.67 827.17,-249.07 827.17,-249.07"/>
<polygon fill="#757575" stroke="#757575" points="830.67,-249.07 827.17,-239.07 823.67,-249.07 830.67,-249.07"/>
</g>
<!-- variable&#45;types.ts -->
<g id="node12" class="node">
<title>variable&#45;types.ts</title>
<path fill="none" stroke="#cfffac" d="M199.67,-74C199.67,-74 123.33,-74 123.33,-74 120.17,-74 117,-70.83 117,-67.67 117,-67.67 117,-61.33 117,-61.33 117,-58.17 120.17,-55 123.33,-55 123.33,-55 199.67,-55 199.67,-55 202.83,-55 206,-58.17 206,-61.33 206,-61.33 206,-67.67 206,-67.67 206,-70.83 202.83,-74 199.67,-74"/>
<text text-anchor="middle" x="161.5" y="-62" font-family="Arial" font-size="10.00" fill="#cfffac">variable&#45;types.ts</text>
</g>
<!-- app.ts&#45;&gt;variable&#45;types.ts -->
<g id="edge11" class="edge">
<title>app.ts&#45;&gt;variable&#45;types.ts</title>
<path fill="none" stroke="#757575" d="M795.31,-394C668.3,-394 139.6,-394 139.6,-394 139.6,-394 139.6,-84.01 139.6,-84.01"/>
<polygon fill="#757575" stroke="#757575" points="143.1,-84.01 139.6,-74.01 136.1,-84.01 143.1,-84.01"/>
</g>
<!-- vm.ts -->
<g id="node13" class="node">
<title>vm.ts</title>
<path fill="none" stroke="#cfffac" d="M1606.17,-19C1606.17,-19 1564.83,-19 1564.83,-19 1561.67,-19 1558.5,-15.83 1558.5,-12.67 1558.5,-12.67 1558.5,-6.33 1558.5,-6.33 1558.5,-3.17 1561.67,0 1564.83,0 1564.83,0 1606.17,0 1606.17,0 1609.33,0 1612.5,-3.17 1612.5,-6.33 1612.5,-6.33 1612.5,-12.67 1612.5,-12.67 1612.5,-15.83 1609.33,-19 1606.17,-19"/>
<text text-anchor="middle" x="1585.5" y="-7" font-family="Arial" font-size="10.00" fill="#cfffac">vm.ts</text>
</g>
<!-- app.ts&#45;&gt;vm.ts -->
<g id="edge12" class="edge">
<title>app.ts&#45;&gt;vm.ts</title>
<path fill="none" stroke="#757575" d="M849.56,-391C891.24,-391 966.38,-391 966.38,-391 966.38,-391 966.38,-8 966.38,-8 966.38,-8 1548.5,-8 1548.5,-8"/>
<polygon fill="#757575" stroke="#757575" points="1548.5,-11.5 1558.5,-8 1548.5,-4.5 1548.5,-11.5"/>
</g>
<!-- arithmetic&#45;parsing.ts&#45;&gt;parser.ts -->
<g id="edge15" class="edge">
<title>arithmetic&#45;parsing.ts&#45;&gt;parser.ts</title>
<path fill="none" stroke="#757575" d="M1102.33,-219.67C1102.33,-219.67 1102.33,-84.07 1102.33,-84.07"/>
<polygon fill="#757575" stroke="#757575" points="1105.83,-84.07 1102.33,-74.07 1098.83,-84.07 1105.83,-84.07"/>
</g>
<!-- arithmetic&#45;parsing.ts&#45;&gt;types.ts -->
<g id="edge16" class="edge">
<title>arithmetic&#45;parsing.ts&#45;&gt;types.ts</title>
<path fill="none" stroke="#757575" d="M1065.33,-219.83C1065.33,-203.93 1065.33,-174 1065.33,-174 1065.33,-174 946.64,-174 946.64,-174"/>
<polygon fill="#757575" stroke="#757575" points="946.64,-170.5 936.64,-174 946.64,-177.5 946.64,-170.5"/>
</g>
<!-- arithmetic&#45;parsing.ts&#45;&gt;vm.ts -->
<g id="edge17" class="edge">
<title>arithmetic&#45;parsing.ts&#45;&gt;vm.ts</title>
<path fill="none" stroke="#757575" d="M1074.67,-219.79C1074.67,-177.31 1074.67,-10 1074.67,-10 1074.67,-10 1548.4,-10 1548.4,-10"/>
<polygon fill="#757575" stroke="#757575" points="1548.4,-13.5 1558.4,-10 1548.4,-6.5 1548.4,-13.5"/>
</g>
<!-- helpers.ts -->
<g id="node14" class="node">
<title>helpers.ts</title>
<path fill="none" stroke="#c6c5fe" d="M1738.67,-129C1738.67,-129 1692.33,-129 1692.33,-129 1689.17,-129 1686,-125.83 1686,-122.67 1686,-122.67 1686,-116.33 1686,-116.33 1686,-113.17 1689.17,-110 1692.33,-110 1692.33,-110 1738.67,-110 1738.67,-110 1741.83,-110 1745,-113.17 1745,-116.33 1745,-116.33 1745,-122.67 1745,-122.67 1745,-125.83 1741.83,-129 1738.67,-129"/>
<text text-anchor="middle" x="1715.5" y="-117" font-family="Arial" font-size="10.00" fill="#c6c5fe">helpers.ts</text>
</g>
<!-- arithmetic&#45;parsing.ts&#45;&gt;helpers.ts -->
<g id="edge13" class="edge">
<title>arithmetic&#45;parsing.ts&#45;&gt;helpers.ts</title>
<path fill="none" stroke="#757575" d="M1161.09,-229C1310.26,-229 1725.33,-229 1725.33,-229 1725.33,-229 1725.33,-139.22 1725.33,-139.22"/>
<polygon fill="#757575" stroke="#757575" points="1728.83,-139.22 1725.33,-129.22 1721.83,-139.22 1728.83,-139.22"/>
</g>
<!-- operator&#45;parsing.ts -->
<g id="node15" class="node">
<title>operator&#45;parsing.ts</title>
<path fill="none" stroke="#c6c5fe" d="M1231.17,-129C1231.17,-129 1145.83,-129 1145.83,-129 1142.67,-129 1139.5,-125.83 1139.5,-122.67 1139.5,-122.67 1139.5,-116.33 1139.5,-116.33 1139.5,-113.17 1142.67,-110 1145.83,-110 1145.83,-110 1231.17,-110 1231.17,-110 1234.33,-110 1237.5,-113.17 1237.5,-116.33 1237.5,-116.33 1237.5,-122.67 1237.5,-122.67 1237.5,-125.83 1234.33,-129 1231.17,-129"/>
<text text-anchor="middle" x="1188.5" y="-117" font-family="Arial" font-size="10.00" fill="#c6c5fe">operator&#45;parsing.ts</text>
</g>
<!-- arithmetic&#45;parsing.ts&#45;&gt;operator&#45;parsing.ts -->
<g id="edge14" class="edge">
<title>arithmetic&#45;parsing.ts&#45;&gt;operator&#45;parsing.ts</title>
<path fill="none" stroke="#757575" d="M1150.25,-219.74C1150.25,-219.74 1150.25,-139.08 1150.25,-139.08"/>
<polygon fill="#757575" stroke="#757575" points="1153.75,-139.08 1150.25,-129.08 1146.75,-139.08 1153.75,-139.08"/>
</g>
<!-- compilation&#45;strategies.ts&#45;&gt;let&#45;binding.ts -->
<g id="edge30" class="edge">
<title>compilation&#45;strategies.ts&#45;&gt;let&#45;binding.ts</title>
<path fill="none" stroke="#757575" d="M1202.91,-333C1078.25,-333 807.8,-333 807.8,-333 807.8,-333 807.8,-178 807.8,-178 807.8,-178 718.76,-178 718.76,-178"/>
<polygon fill="#757575" stroke="#757575" points="718.76,-174.5 708.76,-178 718.76,-181.5 718.76,-174.5"/>
</g>
<!-- compilation&#45;strategies.ts&#45;&gt;parser.ts -->
<g id="edge31" class="edge">
<title>compilation&#45;strategies.ts&#45;&gt;parser.ts</title>
<path fill="none" stroke="#757575" d="M1281.75,-329.91C1281.75,-281.9 1281.75,-70 1281.75,-70 1281.75,-70 1149.23,-70 1149.23,-70"/>
<polygon fill="#757575" stroke="#757575" points="1149.23,-66.5 1139.23,-70 1149.23,-73.5 1149.23,-66.5"/>
</g>
<!-- compilation&#45;strategies.ts&#45;&gt;variable&#45;types.ts -->
<g id="edge34" class="edge">
<title>compilation&#45;strategies.ts&#45;&gt;variable&#45;types.ts</title>
<path fill="none" stroke="#757575" d="M1202.88,-341C968.79,-341 147.9,-341 147.9,-341 147.9,-341 147.9,-84.02 147.9,-84.02"/>
<polygon fill="#757575" stroke="#757575" points="151.4,-84.02 147.9,-74.02 144.4,-84.02 151.4,-84.02"/>
</g>
<!-- compilation&#45;strategies.ts&#45;&gt;vm.ts -->
<g id="edge35" class="edge">
<title>compilation&#45;strategies.ts&#45;&gt;vm.ts</title>
<path fill="none" stroke="#757575" d="M1296.5,-329.79C1296.5,-275.8 1296.5,-15 1296.5,-15 1296.5,-15 1548.31,-15 1548.31,-15"/>
<polygon fill="#757575" stroke="#757575" points="1548.31,-18.5 1558.31,-15 1548.31,-11.5 1548.31,-18.5"/>
</g>
<!-- instruction&#45;primitives.ts -->
<g id="node17" class="node">
<title>instruction&#45;primitives.ts</title>
<path fill="none" stroke="#c6c5fe" d="M1682.17,-74C1682.17,-74 1576.83,-74 1576.83,-74 1573.67,-74 1570.5,-70.83 1570.5,-67.67 1570.5,-67.67 1570.5,-61.33 1570.5,-61.33 1570.5,-58.17 1573.67,-55 1576.83,-55 1576.83,-55 1682.17,-55 1682.17,-55 1685.33,-55 1688.5,-58.17 1688.5,-61.33 1688.5,-61.33 1688.5,-67.67 1688.5,-67.67 1688.5,-70.83 1685.33,-74 1682.17,-74"/>
<text text-anchor="middle" x="1629.5" y="-62" font-family="Arial" font-size="10.00" fill="#c6c5fe">instruction&#45;primitives.ts</text>
</g>
<!-- compilation&#45;strategies.ts&#45;&gt;instruction&#45;primitives.ts -->
<g id="edge29" class="edge">
<title>compilation&#45;strategies.ts&#45;&gt;instruction&#45;primitives.ts</title>
<path fill="none" stroke="#757575" d="M1326.11,-336C1417.98,-336 1580.17,-336 1580.17,-336 1580.17,-336 1580.17,-84.16 1580.17,-84.16"/>
<polygon fill="#757575" stroke="#757575" points="1583.67,-84.16 1580.17,-74.16 1576.67,-84.16 1583.67,-84.16"/>
</g>
<!-- array&#45;parsing.ts -->
<g id="node19" class="node">
<title>array&#45;parsing.ts</title>
<path fill="none" stroke="#cfffac" d="M425.17,-74C425.17,-74 353.83,-74 353.83,-74 350.67,-74 347.5,-70.83 347.5,-67.67 347.5,-67.67 347.5,-61.33 347.5,-61.33 347.5,-58.17 350.67,-55 353.83,-55 353.83,-55 425.17,-55 425.17,-55 428.33,-55 431.5,-58.17 431.5,-61.33 431.5,-61.33 431.5,-67.67 431.5,-67.67 431.5,-70.83 428.33,-74 425.17,-74"/>
<text text-anchor="middle" x="389.5" y="-62" font-family="Arial" font-size="10.00" fill="#cfffac">array&#45;parsing.ts</text>
</g>
<!-- compilation&#45;strategies.ts&#45;&gt;array&#45;parsing.ts -->
<g id="edge27" class="edge">
<title>compilation&#45;strategies.ts&#45;&gt;array&#45;parsing.ts</title>
<path fill="none" stroke="#757575" d="M1202.72,-337C1000.44,-337 370.83,-337 370.83,-337 370.83,-337 370.83,-84.2 370.83,-84.2"/>
<polygon fill="#757575" stroke="#757575" points="374.33,-84.2 370.83,-74.2 367.33,-84.2 374.33,-84.2"/>
</g>
<!-- expression&#45;with&#45;context.ts -->
<g id="node21" class="node">
<title>expression&#45;with&#45;context.ts</title>
<path fill="none" stroke="#c6c5fe" d="M1207.67,-294C1207.67,-294 1089.33,-294 1089.33,-294 1086.17,-294 1083,-290.83 1083,-287.67 1083,-287.67 1083,-281.33 1083,-281.33 1083,-278.17 1086.17,-275 1089.33,-275 1089.33,-275 1207.67,-275 1207.67,-275 1210.83,-275 1214,-278.17 1214,-281.33 1214,-281.33 1214,-287.67 1214,-287.67 1214,-290.83 1210.83,-294 1207.67,-294"/>
<text text-anchor="middle" x="1148.5" y="-282" font-family="Arial" font-size="10.00" fill="#c6c5fe">expression&#45;with&#45;context.ts</text>
</g>
<!-- compilation&#45;strategies.ts&#45;&gt;expression&#45;with&#45;context.ts -->
<g id="edge28" class="edge">
<title>compilation&#45;strategies.ts&#45;&gt;expression&#45;with&#45;context.ts</title>
<path fill="none" stroke="#757575" d="M1208.5,-329.92C1208.5,-329.92 1208.5,-304.34 1208.5,-304.34"/>
<polygon fill="#757575" stroke="#757575" points="1212,-304.34 1208.5,-294.34 1205,-304.34 1212,-304.34"/>
</g>
<!-- reassignment&#45;parsing.ts -->
<g id="node22" class="node">
<title>reassignment&#45;parsing.ts</title>
<path fill="none" stroke="#c6c5fe" d="M1560.67,-129C1560.67,-129 1452.33,-129 1452.33,-129 1449.17,-129 1446,-125.83 1446,-122.67 1446,-122.67 1446,-116.33 1446,-116.33 1446,-113.17 1449.17,-110 1452.33,-110 1452.33,-110 1560.67,-110 1560.67,-110 1563.83,-110 1567,-113.17 1567,-116.33 1567,-116.33 1567,-122.67 1567,-122.67 1567,-125.83 1563.83,-129 1560.67,-129"/>
<text text-anchor="middle" x="1506.5" y="-117" font-family="Arial" font-size="10.00" fill="#c6c5fe">reassignment&#45;parsing.ts</text>
</g>
<!-- compilation&#45;strategies.ts&#45;&gt;reassignment&#45;parsing.ts -->
<g id="edge32" class="edge">
<title>compilation&#45;strategies.ts&#45;&gt;reassignment&#45;parsing.ts</title>
<path fill="none" stroke="#757575" d="M1311.25,-329.74C1311.25,-287.07 1311.25,-119 1311.25,-119 1311.25,-119 1435.79,-119 1435.79,-119"/>
<polygon fill="#757575" stroke="#757575" points="1435.79,-122.5 1445.79,-119 1435.79,-115.5 1435.79,-122.5"/>
</g>
<!-- slice&#45;parsing.ts -->
<g id="node23" class="node">
<title>slice&#45;parsing.ts</title>
<path fill="none" stroke="#c6c5fe" d="M1661.67,-129C1661.67,-129 1591.33,-129 1591.33,-129 1588.17,-129 1585,-125.83 1585,-122.67 1585,-122.67 1585,-116.33 1585,-116.33 1585,-113.17 1588.17,-110 1591.33,-110 1591.33,-110 1661.67,-110 1661.67,-110 1664.83,-110 1668,-113.17 1668,-116.33 1668,-116.33 1668,-122.67 1668,-122.67 1668,-125.83 1664.83,-129 1661.67,-129"/>
<text text-anchor="middle" x="1626.5" y="-117" font-family="Arial" font-size="10.00" fill="#c6c5fe">slice&#45;parsing.ts</text>
</g>
<!-- compilation&#45;strategies.ts&#45;&gt;slice&#45;parsing.ts -->
<g id="edge33" class="edge">
<title>compilation&#45;strategies.ts&#45;&gt;slice&#45;parsing.ts</title>
<path fill="none" stroke="#757575" d="M1326.32,-342C1429.71,-342 1626.5,-342 1626.5,-342 1626.5,-342 1626.5,-139.06 1626.5,-139.06"/>
<polygon fill="#757575" stroke="#757575" points="1630,-139.06 1626.5,-129.06 1623,-139.06 1630,-139.06"/>
</g>
<!-- debug&#45;dump.ts&#45;&gt;vm.ts -->
<g id="edge36" class="edge">
<title>debug&#45;dump.ts&#45;&gt;vm.ts</title>
<path fill="none" stroke="#757575" d="M2114.5,-274.84C2114.5,-225.52 2114.5,-4 2114.5,-4 2114.5,-4 1622.83,-4 1622.83,-4"/>
<polygon fill="#757575" stroke="#757575" points="1622.83,-0.5 1612.83,-4 1622.83,-7.5 1622.83,-0.5"/>
</g>
<!-- let&#45;binding.ts&#45;&gt;parser.ts -->
<g id="edge52" class="edge">
<title>let&#45;binding.ts&#45;&gt;parser.ts</title>
<path fill="none" stroke="#757575" d="M700.25,-164.78C700.25,-137.98 700.25,-65 700.25,-65 700.25,-65 1073.88,-65 1073.88,-65"/>
<polygon fill="#757575" stroke="#757575" points="1073.88,-68.5 1083.88,-65 1073.88,-61.5 1073.88,-68.5"/>
</g>
<!-- let&#45;binding.ts&#45;&gt;variable&#45;types.ts -->
<g id="edge54" class="edge">
<title>let&#45;binding.ts&#45;&gt;variable&#45;types.ts</title>
<path fill="none" stroke="#757575" d="M636.19,-174C523.84,-174 189.4,-174 189.4,-174 189.4,-174 189.4,-84.22 189.4,-84.22"/>
<polygon fill="#757575" stroke="#757575" points="192.9,-84.22 189.4,-74.22 185.9,-84.22 192.9,-84.22"/>
</g>
<!-- let&#45;binding.ts&#45;&gt;vm.ts -->
<g id="edge55" class="edge">
<title>let&#45;binding.ts&#45;&gt;vm.ts</title>
<path fill="none" stroke="#757575" d="M692,-164.9C692,-129.04 692,-5 692,-5 692,-5 1548.27,-5 1548.27,-5"/>
<polygon fill="#757575" stroke="#757575" points="1548.27,-8.5 1558.27,-5 1548.27,-1.5 1548.27,-8.5"/>
</g>
<!-- let&#45;binding.ts&#45;&gt;instruction&#45;primitives.ts -->
<g id="edge51" class="edge">
<title>let&#45;binding.ts&#45;&gt;instruction&#45;primitives.ts</title>
<path fill="none" stroke="#757575" d="M683.75,-164.82C683.75,-160.34 683.75,-156 683.75,-156 683.75,-156 1575.33,-156 1575.33,-156 1575.33,-156 1575.33,-84.29 1575.33,-84.29"/>
<polygon fill="#757575" stroke="#757575" points="1578.83,-84.29 1575.33,-74.29 1571.83,-84.29 1578.83,-84.29"/>
</g>
<!-- array&#45;helpers.ts -->
<g id="node18" class="node">
<title>array&#45;helpers.ts</title>
<path fill="none" stroke="#c6c5fe" d="M495.17,-129C495.17,-129 423.83,-129 423.83,-129 420.67,-129 417.5,-125.83 417.5,-122.67 417.5,-122.67 417.5,-116.33 417.5,-116.33 417.5,-113.17 420.67,-110 423.83,-110 423.83,-110 495.17,-110 495.17,-110 498.33,-110 501.5,-113.17 501.5,-116.33 501.5,-116.33 501.5,-122.67 501.5,-122.67 501.5,-125.83 498.33,-129 495.17,-129"/>
<text text-anchor="middle" x="459.5" y="-117" font-family="Arial" font-size="10.00" fill="#c6c5fe">array&#45;helpers.ts</text>
</g>
<!-- let&#45;binding.ts&#45;&gt;array&#45;helpers.ts -->
<g id="edge49" class="edge">
<title>let&#45;binding.ts&#45;&gt;array&#45;helpers.ts</title>
<path fill="none" stroke="#757575" d="M636.28,-168C572.19,-168 445.5,-168 445.5,-168 445.5,-168 445.5,-139.31 445.5,-139.31"/>
<polygon fill="#757575" stroke="#757575" points="449,-139.31 445.5,-129.31 442,-139.31 449,-139.31"/>
</g>
<!-- let&#45;binding.ts&#45;&gt;array&#45;parsing.ts -->
<g id="edge50" class="edge">
<title>let&#45;binding.ts&#45;&gt;array&#45;parsing.ts</title>
<path fill="none" stroke="#757575" d="M636.4,-171C561.09,-171 394.17,-171 394.17,-171 394.17,-171 394.17,-84.33 394.17,-84.33"/>
<polygon fill="#757575" stroke="#757575" points="397.67,-84.33 394.17,-74.33 390.67,-84.33 397.67,-84.33"/>
</g>
<!-- type&#45;inference&#45;helpers.ts -->
<g id="node25" class="node">
<title>type&#45;inference&#45;helpers.ts</title>
<path fill="none" stroke="#c6c5fe" d="M887.17,-129C887.17,-129 775.83,-129 775.83,-129 772.67,-129 769.5,-125.83 769.5,-122.67 769.5,-122.67 769.5,-116.33 769.5,-116.33 769.5,-113.17 772.67,-110 775.83,-110 775.83,-110 887.17,-110 887.17,-110 890.33,-110 893.5,-113.17 893.5,-116.33 893.5,-116.33 893.5,-122.67 893.5,-122.67 893.5,-125.83 890.33,-129 887.17,-129"/>
<text text-anchor="middle" x="831.5" y="-117" font-family="Arial" font-size="10.00" fill="#c6c5fe">type&#45;inference&#45;helpers.ts</text>
</g>
<!-- let&#45;binding.ts&#45;&gt;type&#45;inference&#45;helpers.ts -->
<g id="edge53" class="edge">
<title>let&#45;binding.ts&#45;&gt;type&#45;inference&#45;helpers.ts</title>
<path fill="none" stroke="#757575" d="M708.52,-167C740.6,-167 782.5,-167 782.5,-167 782.5,-167 782.5,-139.11 782.5,-139.11"/>
<polygon fill="#757575" stroke="#757575" points="786,-139.11 782.5,-129.11 779,-139.11 786,-139.11"/>
</g>
<!-- let&#45;expression&#45;parsing.ts&#45;&gt;let&#45;binding.ts -->
<g id="edge56" class="edge">
<title>let&#45;expression&#45;parsing.ts&#45;&gt;let&#45;binding.ts</title>
<path fill="none" stroke="#757575" d="M78,-219.87C78,-204.71 78,-177 78,-177 78,-177 626.21,-177 626.21,-177"/>
<polygon fill="#757575" stroke="#757575" points="626.21,-180.5 636.21,-177 626.21,-173.5 626.21,-180.5"/>
</g>
<!-- let&#45;expression&#45;parsing.ts&#45;&gt;parser.ts -->
<g id="edge57" class="edge">
<title>let&#45;expression&#45;parsing.ts&#45;&gt;parser.ts</title>
<path fill="none" stroke="#757575" d="M123.2,-234C245.13,-234 505.25,-234 505.25,-234 505.25,-234 505.25,-59 505.25,-59 505.25,-59 1073.88,-59 1073.88,-59"/>
<polygon fill="#757575" stroke="#757575" points="1073.88,-62.5 1083.88,-59 1073.88,-55.5 1073.88,-62.5"/>
</g>
<!-- let&#45;expression&#45;parsing.ts&#45;&gt;variable&#45;types.ts -->
<g id="edge58" class="edge">
<title>let&#45;expression&#45;parsing.ts&#45;&gt;variable&#45;types.ts</title>
<path fill="none" stroke="#757575" d="M123.02,-229C128.08,-229 131.3,-229 131.3,-229 131.3,-229 131.3,-84.3 131.3,-84.3"/>
<polygon fill="#757575" stroke="#757575" points="134.8,-84.3 131.3,-74.3 127.8,-84.3 134.8,-84.3"/>
</g>
<!-- let&#45;expression&#45;parsing.ts&#45;&gt;vm.ts -->
<g id="edge59" class="edge">
<title>let&#45;expression&#45;parsing.ts&#45;&gt;vm.ts</title>
<path fill="none" stroke="#757575" d="M39,-219.97C39,-176.73 39,-1 39,-1 39,-1 1548.33,-1 1548.33,-1"/>
<polygon fill="#757575" stroke="#757575" points="1548.33,-4.5 1558.33,-1 1548.33,2.5 1548.33,-4.5"/>
</g>
<!-- parser.ts&#45;&gt;vm.ts -->
<g id="edge61" class="edge">
<title>parser.ts&#45;&gt;vm.ts</title>
<path fill="none" stroke="#757575" d="M1111.5,-54.87C1111.5,-39.71 1111.5,-12 1111.5,-12 1111.5,-12 1548.31,-12 1548.31,-12"/>
<polygon fill="#757575" stroke="#757575" points="1548.31,-15.5 1558.31,-12 1548.31,-8.5 1548.31,-15.5"/>
</g>
<!-- pointer&#45;validation.ts&#45;&gt;let&#45;binding.ts -->
<g id="edge62" class="edge">
<title>pointer&#45;validation.ts&#45;&gt;let&#45;binding.ts</title>
<path fill="none" stroke="#757575" d="M592.5,-219.96C592.5,-205.57 592.5,-180 592.5,-180 592.5,-180 626.25,-180 626.25,-180"/>
<polygon fill="#757575" stroke="#757575" points="626.25,-183.5 636.25,-180 626.25,-176.5 626.25,-183.5"/>
</g>
<!-- pointer&#45;validation.ts&#45;&gt;parser.ts -->
<g id="edge63" class="edge">
<title>pointer&#45;validation.ts&#45;&gt;parser.ts</title>
<path fill="none" stroke="#757575" d="M533.25,-219.96C533.25,-184.31 533.25,-61 533.25,-61 533.25,-61 1074,-61 1074,-61"/>
<polygon fill="#757575" stroke="#757575" points="1074,-64.5 1084,-61 1074,-57.5 1074,-64.5"/>
</g>
<!-- pointer&#45;validation.ts&#45;&gt;types.ts -->
<g id="edge64" class="edge">
<title>pointer&#45;validation.ts&#45;&gt;types.ts</title>
<path fill="none" stroke="#757575" d="M575,-219.88C575,-210.61 575,-198 575,-198 575,-198 895.3,-198 895.3,-198 895.3,-198 895.3,-194.06 895.3,-194.06"/>
<polygon fill="#757575" stroke="#757575" points="898.8,-194.06 895.3,-184.06 891.8,-194.06 898.8,-194.06"/>
</g>
<!-- pointer&#45;validation.ts&#45;&gt;variable&#45;types.ts -->
<g id="edge65" class="edge">
<title>pointer&#45;validation.ts&#45;&gt;variable&#45;types.ts</title>
<path fill="none" stroke="#757575" d="M508.67,-224C401.99,-224 164.5,-224 164.5,-224 164.5,-224 164.5,-84.48 164.5,-84.48"/>
<polygon fill="#757575" stroke="#757575" points="168,-84.48 164.5,-74.48 161,-84.48 168,-84.48"/>
</g>
<!-- reassignment&#45;validation.ts&#45;&gt;let&#45;binding.ts -->
<g id="edge69" class="edge">
<title>reassignment&#45;validation.ts&#45;&gt;let&#45;binding.ts</title>
<path fill="none" stroke="#757575" d="M672.5,-219.92C672.5,-219.92 672.5,-194.34 672.5,-194.34"/>
<polygon fill="#757575" stroke="#757575" points="676,-194.34 672.5,-184.34 669,-194.34 676,-194.34"/>
</g>
<!-- reassignment&#45;validation.ts&#45;&gt;types.ts -->
<g id="edge71" class="edge">
<title>reassignment&#45;validation.ts&#45;&gt;types.ts</title>
<path fill="none" stroke="#757575" d="M742.17,-219.92C742.17,-203.8 742.17,-173 742.17,-173 742.17,-173 872.24,-173 872.24,-173"/>
<polygon fill="#757575" stroke="#757575" points="872.24,-176.5 882.24,-173 872.24,-169.5 872.24,-176.5"/>
</g>
<!-- reassignment&#45;validation.ts&#45;&gt;variable&#45;types.ts -->
<g id="edge72" class="edge">
<title>reassignment&#45;validation.ts&#45;&gt;variable&#45;types.ts</title>
<path fill="none" stroke="#757575" d="M632.25,-219.93C632.25,-215.85 632.25,-212 632.25,-212 632.25,-212 172.8,-212 172.8,-212 172.8,-212 172.8,-84.18 172.8,-84.18"/>
<polygon fill="#757575" stroke="#757575" points="176.3,-84.18 172.8,-74.18 169.3,-84.18 176.3,-84.18"/>
</g>
<!-- reassignment&#45;validation.ts&#45;&gt;reassignment&#45;parsing.ts -->
<g id="edge70" class="edge">
<title>reassignment&#45;validation.ts&#45;&gt;reassignment&#45;parsing.ts</title>
<path fill="none" stroke="#757575" d="M725.33,-219.71C725.33,-197.86 725.33,-147 725.33,-147 725.33,-147 1483.5,-147 1483.5,-147 1483.5,-147 1483.5,-139.12 1483.5,-139.12"/>
<polygon fill="#757575" stroke="#757575" points="1487,-139.12 1483.5,-129.12 1480,-139.12 1487,-139.12"/>
</g>
<!-- types.ts&#45;&gt;parser.ts -->
<g id="edge79" class="edge">
<title>types.ts&#45;&gt;parser.ts</title>
<path fill="none" stroke="#757575" d="M922.17,-164.96C922.17,-138.65 922.17,-67 922.17,-67 922.17,-67 1073.97,-67 1073.97,-67"/>
<polygon fill="#757575" stroke="#757575" points="1073.97,-70.5 1083.97,-67 1073.97,-63.5 1073.97,-70.5"/>
</g>
<!-- types.ts&#45;&gt;vm.ts -->
<g id="edge80" class="edge">
<title>types.ts&#45;&gt;vm.ts</title>
<path fill="none" stroke="#757575" d="M907.83,-164.96C907.83,-129.31 907.83,-6 907.83,-6 907.83,-6 1548.1,-6 1548.1,-6"/>
<polygon fill="#757575" stroke="#757575" points="1548.1,-9.5 1558.1,-6 1548.1,-2.5 1548.1,-9.5"/>
</g>
<!-- types.ts&#45;&gt;instruction&#45;primitives.ts -->
<g id="edge78" class="edge">
<title>types.ts&#45;&gt;instruction&#45;primitives.ts</title>
<path fill="none" stroke="#757575" d="M936.68,-169C1017.75,-169 1252.25,-169 1252.25,-169 1252.25,-169 1252.25,-58 1252.25,-58 1252.25,-58 1560.14,-58 1560.14,-58"/>
<polygon fill="#757575" stroke="#757575" points="1560.14,-61.5 1570.14,-58 1560.14,-54.5 1560.14,-61.5"/>
</g>
<!-- types.ts&#45;&gt;array&#45;helpers.ts -->
<g id="edge77" class="edge">
<title>types.ts&#45;&gt;array&#45;helpers.ts</title>
<path fill="none" stroke="#757575" d="M888,-164.91C888,-154.1 888,-138 888,-138 888,-138 473.5,-138 473.5,-138 473.5,-138 473.5,-137.12 473.5,-137.12"/>
<polygon fill="#757575" stroke="#757575" points="477,-139.18 473.5,-129.18 470,-139.18 477,-139.18"/>
</g>
<!-- validation.ts&#45;&gt;let&#45;binding.ts -->
<g id="edge81" class="edge">
<title>validation.ts&#45;&gt;let&#45;binding.ts</title>
<path fill="none" stroke="#757575" d="M849.25,-219.94C849.25,-203.12 849.25,-170 849.25,-170 849.25,-170 718.69,-170 718.69,-170"/>
<polygon fill="#757575" stroke="#757575" points="718.69,-166.5 708.69,-170 718.69,-173.5 718.69,-166.5"/>
</g>
<!-- validation.ts&#45;&gt;parser.ts -->
<g id="edge82" class="edge">
<title>validation.ts&#45;&gt;parser.ts</title>
<path fill="none" stroke="#757575" d="M885.04,-232C928.14,-232 996.25,-232 996.25,-232 996.25,-232 996.25,-69 996.25,-69 996.25,-69 1073.89,-69 1073.89,-69"/>
<polygon fill="#757575" stroke="#757575" points="1073.89,-72.5 1083.89,-69 1073.89,-65.5 1073.89,-72.5"/>
</g>
<!-- validation.ts&#45;&gt;types.ts -->
<g id="edge84" class="edge">
<title>validation.ts&#45;&gt;types.ts</title>
<path fill="none" stroke="#757575" d="M885.08,-226C896.15,-226 905.6,-226 905.6,-226 905.6,-226 905.6,-194.43 905.6,-194.43"/>
<polygon fill="#757575" stroke="#757575" points="909.1,-194.43 905.6,-184.43 902.1,-194.43 909.1,-194.43"/>
</g>
<!-- validation.ts&#45;&gt;variable&#45;types.ts -->
<g id="edge85" class="edge">
<title>validation.ts&#45;&gt;variable&#45;types.ts</title>
<path fill="none" stroke="#757575" d="M832.62,-219.82C832.62,-212.97 832.62,-205 832.62,-205 832.62,-205 181.1,-205 181.1,-205 181.1,-205 181.1,-84.16 181.1,-84.16"/>
<polygon fill="#757575" stroke="#757575" points="184.6,-84.16 181.1,-74.16 177.6,-84.16 184.6,-84.16"/>
</g>
<!-- validation.ts&#45;&gt;type&#45;inference&#45;helpers.ts -->
<g id="edge83" class="edge">
<title>validation.ts&#45;&gt;type&#45;inference&#45;helpers.ts</title>
<path fill="none" stroke="#757575" d="M865.88,-219.74C865.88,-219.74 865.88,-139.08 865.88,-139.08"/>
<polygon fill="#757575" stroke="#757575" points="869.38,-139.08 865.88,-129.08 862.38,-139.08 869.38,-139.08"/>
</g>
<!-- helpers.ts&#45;&gt;vm.ts -->
<g id="edge45" class="edge">
<title>helpers.ts&#45;&gt;vm.ts</title>
<path fill="none" stroke="#757575" d="M1716.75,-109.76C1716.75,-83.65 1716.75,-14 1716.75,-14 1716.75,-14 1622.7,-14 1622.7,-14"/>
<polygon fill="#757575" stroke="#757575" points="1622.7,-10.5 1612.7,-14 1622.7,-17.5 1622.7,-10.5"/>
</g>
<!-- helpers.ts&#45;&gt;instruction&#45;primitives.ts -->
<g id="edge44" class="edge">
<title>helpers.ts&#45;&gt;instruction&#45;primitives.ts</title>
<path fill="none" stroke="#757575" d="M1685.93,-119C1680.76,-119 1677,-119 1677,-119 1677,-119 1677,-84.24 1677,-84.24"/>
<polygon fill="#757575" stroke="#757575" points="1680.5,-84.24 1677,-74.24 1673.5,-84.24 1680.5,-84.24"/>
</g>
<!-- operator&#45;parsing.ts&#45;&gt;parser.ts -->
<g id="edge60" class="edge">
<title>operator&#45;parsing.ts&#45;&gt;parser.ts</title>
<path fill="none" stroke="#757575" d="M1139.2,-116C1128.68,-116 1120.67,-116 1120.67,-116 1120.67,-116 1120.67,-84.43 1120.67,-84.43"/>
<polygon fill="#757575" stroke="#757575" points="1124.17,-84.43 1120.67,-74.43 1117.17,-84.43 1124.17,-84.43"/>
</g>
<!-- array&#45;compilation.ts -->
<g id="node16" class="node">
<title>array&#45;compilation.ts</title>
<path fill="none" stroke="#c6c5fe" d="M1897.17,-129C1897.17,-129 1807.83,-129 1807.83,-129 1804.67,-129 1801.5,-125.83 1801.5,-122.67 1801.5,-122.67 1801.5,-116.33 1801.5,-116.33 1801.5,-113.17 1804.67,-110 1807.83,-110 1807.83,-110 1897.17,-110 1897.17,-110 1900.33,-110 1903.5,-113.17 1903.5,-116.33 1903.5,-116.33 1903.5,-122.67 1903.5,-122.67 1903.5,-125.83 1900.33,-129 1897.17,-129"/>
<text text-anchor="middle" x="1852.5" y="-117" font-family="Arial" font-size="10.00" fill="#c6c5fe">array&#45;compilation.ts</text>
</g>
<!-- array&#45;compilation.ts&#45;&gt;vm.ts -->
<g id="edge19" class="edge">
<title>array&#45;compilation.ts&#45;&gt;vm.ts</title>
<path fill="none" stroke="#757575" d="M1869.5,-109.69C1869.5,-82.65 1869.5,-9 1869.5,-9 1869.5,-9 1622.73,-9 1622.73,-9"/>
<polygon fill="#757575" stroke="#757575" points="1622.73,-5.5 1612.73,-9 1622.73,-12.5 1622.73,-5.5"/>
</g>
<!-- array&#45;compilation.ts&#45;&gt;instruction&#45;primitives.ts -->
<g id="edge18" class="edge">
<title>array&#45;compilation.ts&#45;&gt;instruction&#45;primitives.ts</title>
<path fill="none" stroke="#757575" d="M1835.5,-109.83C1835.5,-93.93 1835.5,-64 1835.5,-64 1835.5,-64 1698.53,-64 1698.53,-64"/>
<polygon fill="#757575" stroke="#757575" points="1698.53,-60.5 1688.53,-64 1698.53,-67.5 1698.53,-60.5"/>
</g>
<!-- instruction&#45;primitives.ts&#45;&gt;vm.ts -->
<g id="edge48" class="edge">
<title>instruction&#45;primitives.ts&#45;&gt;vm.ts</title>
<path fill="none" stroke="#757575" d="M1591.5,-54.92C1591.5,-54.92 1591.5,-29.34 1591.5,-29.34"/>
<polygon fill="#757575" stroke="#757575" points="1595,-29.34 1591.5,-19.34 1588,-29.34 1595,-29.34"/>
</g>
<!-- array&#45;helpers.ts&#45;&gt;parser.ts -->
<g id="edge21" class="edge">
<title>array&#45;helpers.ts&#45;&gt;parser.ts</title>
<path fill="none" stroke="#757575" d="M466.5,-109.73C466.5,-92.16 466.5,-57 466.5,-57 466.5,-57 1073.79,-57 1073.79,-57"/>
<polygon fill="#757575" stroke="#757575" points="1073.79,-60.5 1083.79,-57 1073.79,-53.5 1073.79,-60.5"/>
</g>
<!-- array&#45;helpers.ts&#45;&gt;variable&#45;types.ts -->
<g id="edge22" class="edge">
<title>array&#45;helpers.ts&#45;&gt;variable&#45;types.ts</title>
<path fill="none" stroke="#757575" d="M417.44,-119C343.43,-119 197.7,-119 197.7,-119 197.7,-119 197.7,-84.24 197.7,-84.24"/>
<polygon fill="#757575" stroke="#757575" points="201.2,-84.24 197.7,-74.24 194.2,-84.24 201.2,-84.24"/>
</g>
<!-- array&#45;helpers.ts&#45;&gt;array&#45;parsing.ts -->
<g id="edge20" class="edge">
<title>array&#45;helpers.ts&#45;&gt;array&#45;parsing.ts</title>
<path fill="none" stroke="#757575" d="M424.5,-109.92C424.5,-109.92 424.5,-84.34 424.5,-84.34"/>
<polygon fill="#757575" stroke="#757575" points="428,-84.34 424.5,-74.34 421,-84.34 428,-84.34"/>
</g>
<!-- comparison&#45;parsing.ts -->
<g id="node20" class="node">
<title>comparison&#45;parsing.ts</title>
<path fill="none" stroke="#c6c5fe" d="M1514.67,-184C1514.67,-184 1414.33,-184 1414.33,-184 1411.17,-184 1408,-180.83 1408,-177.67 1408,-177.67 1408,-171.33 1408,-171.33 1408,-168.17 1411.17,-165 1414.33,-165 1414.33,-165 1514.67,-165 1514.67,-165 1517.83,-165 1521,-168.17 1521,-171.33 1521,-171.33 1521,-177.67 1521,-177.67 1521,-180.83 1517.83,-184 1514.67,-184"/>
<text text-anchor="middle" x="1464.5" y="-172" font-family="Arial" font-size="10.00" fill="#c6c5fe">comparison&#45;parsing.ts</text>
</g>
<!-- comparison&#45;parsing.ts&#45;&gt;parser.ts -->
<g id="edge25" class="edge">
<title>comparison&#45;parsing.ts&#45;&gt;parser.ts</title>
<path fill="none" stroke="#757575" d="M1420.67,-164.96C1420.67,-138.65 1420.67,-67 1420.67,-67 1420.67,-67 1149.21,-67 1149.21,-67"/>
<polygon fill="#757575" stroke="#757575" points="1149.21,-63.5 1139.21,-67 1149.21,-70.5 1149.21,-63.5"/>
</g>
<!-- comparison&#45;parsing.ts&#45;&gt;vm.ts -->
<g id="edge26" class="edge">
<title>comparison&#45;parsing.ts&#45;&gt;vm.ts</title>
<path fill="none" stroke="#757575" d="M1433.33,-164.65C1433.33,-130.17 1433.33,-17 1433.33,-17 1433.33,-17 1548.3,-17 1548.3,-17"/>
<polygon fill="#757575" stroke="#757575" points="1548.3,-20.5 1558.3,-17 1548.3,-13.5 1548.3,-20.5"/>
</g>
<!-- comparison&#45;parsing.ts&#45;&gt;helpers.ts -->
<g id="edge23" class="edge">
<title>comparison&#45;parsing.ts&#45;&gt;helpers.ts</title>
<path fill="none" stroke="#757575" d="M1521.04,-174C1592.32,-174 1705.67,-174 1705.67,-174 1705.67,-174 1705.67,-139.24 1705.67,-139.24"/>
<polygon fill="#757575" stroke="#757575" points="1709.17,-139.24 1705.67,-129.24 1702.17,-139.24 1709.17,-139.24"/>
</g>
<!-- comparison&#45;parsing.ts&#45;&gt;operator&#45;parsing.ts -->
<g id="edge24" class="edge">
<title>comparison&#45;parsing.ts&#45;&gt;operator&#45;parsing.ts</title>
<path fill="none" stroke="#757575" d="M1407.92,-179C1337.32,-179 1225.75,-179 1225.75,-179 1225.75,-179 1225.75,-139.06 1225.75,-139.06"/>
<polygon fill="#757575" stroke="#757575" points="1229.25,-139.06 1225.75,-129.06 1222.25,-139.06 1229.25,-139.06"/>
</g>
<!-- expression&#45;with&#45;context.ts&#45;&gt;arithmetic&#45;parsing.ts -->
<g id="edge37" class="edge">
<title>expression&#45;with&#45;context.ts&#45;&gt;arithmetic&#45;parsing.ts</title>
<path fill="none" stroke="#757575" d="M1122,-274.92C1122,-274.92 1122,-249.34 1122,-249.34"/>
<polygon fill="#757575" stroke="#757575" points="1125.5,-249.34 1122,-239.34 1118.5,-249.34 1125.5,-249.34"/>
</g>
<!-- expression&#45;with&#45;context.ts&#45;&gt;let&#45;binding.ts -->
<g id="edge38" class="edge">
<title>expression&#45;with&#45;context.ts&#45;&gt;let&#45;binding.ts</title>
<path fill="none" stroke="#757575" d="M1082.8,-284C984.84,-284 811.9,-284 811.9,-284 811.9,-284 811.9,-175 811.9,-175 811.9,-175 718.76,-175 718.76,-175"/>
<polygon fill="#757575" stroke="#757575" points="718.76,-171.5 708.76,-175 718.76,-178.5 718.76,-171.5"/>
</g>
<!-- expression&#45;with&#45;context.ts&#45;&gt;parser.ts -->
<g id="edge40" class="edge">
<title>expression&#45;with&#45;context.ts&#45;&gt;parser.ts</title>
<path fill="none" stroke="#757575" d="M1178.67,-274.85C1178.67,-250.96 1178.67,-191 1178.67,-191 1178.67,-191 1111.5,-191 1111.5,-191 1111.5,-191 1111.5,-84.01 1111.5,-84.01"/>
<polygon fill="#757575" stroke="#757575" points="1115,-84.01 1111.5,-74.01 1108,-84.01 1115,-84.01"/>
</g>
<!-- expression&#45;with&#45;context.ts&#45;&gt;types.ts -->
<g id="edge41" class="edge">
<title>expression&#45;with&#45;context.ts&#45;&gt;types.ts</title>
<path fill="none" stroke="#757575" d="M1082.7,-279C1017.15,-279 926.2,-279 926.2,-279 926.2,-279 926.2,-194.14 926.2,-194.14"/>
<polygon fill="#757575" stroke="#757575" points="929.7,-194.14 926.2,-184.14 922.7,-194.14 929.7,-194.14"/>
</g>
<!-- expression&#45;with&#45;context.ts&#45;&gt;variable&#45;types.ts -->
<g id="edge42" class="edge">
<title>expression&#45;with&#45;context.ts&#45;&gt;variable&#45;types.ts</title>
<path fill="none" stroke="#757575" d="M1082.62,-289C861,-289 156.2,-289 156.2,-289 156.2,-289 156.2,-84.15 156.2,-84.15"/>
<polygon fill="#757575" stroke="#757575" points="159.7,-84.15 156.2,-74.15 152.7,-84.15 159.7,-84.15"/>
</g>
<!-- expression&#45;with&#45;context.ts&#45;&gt;vm.ts -->
<g id="edge43" class="edge">
<title>expression&#45;with&#45;context.ts&#45;&gt;vm.ts</title>
<path fill="none" stroke="#757575" d="M1214.33,-284C1241.61,-284 1267,-284 1267,-284 1267,-284 1267,-13 1267,-13 1267,-13 1548.34,-13 1548.34,-13"/>
<polygon fill="#757575" stroke="#757575" points="1548.34,-16.5 1558.34,-13 1548.34,-9.5 1548.34,-16.5"/>
</g>
<!-- expression&#45;with&#45;context.ts&#45;&gt;operator&#45;parsing.ts -->
<g id="edge39" class="edge">
<title>expression&#45;with&#45;context.ts&#45;&gt;operator&#45;parsing.ts</title>
<path fill="none" stroke="#757575" d="M1196.33,-274.67C1196.33,-274.67 1196.33,-139.07 1196.33,-139.07"/>
<polygon fill="#757575" stroke="#757575" points="1199.83,-139.07 1196.33,-129.07 1192.83,-139.07 1199.83,-139.07"/>
</g>
<!-- reassignment&#45;parsing.ts&#45;&gt;parser.ts -->
<g id="edge67" class="edge">
<title>reassignment&#45;parsing.ts&#45;&gt;parser.ts</title>
<path fill="none" stroke="#757575" d="M1502.25,-109.83C1502.25,-93.93 1502.25,-64 1502.25,-64 1502.25,-64 1149.29,-64 1149.29,-64"/>
<polygon fill="#757575" stroke="#757575" points="1149.29,-60.5 1139.29,-64 1149.29,-67.5 1149.29,-60.5"/>
</g>
<!-- reassignment&#45;parsing.ts&#45;&gt;vm.ts -->
<g id="edge68" class="edge">
<title>reassignment&#45;parsing.ts&#45;&gt;vm.ts</title>
<path fill="none" stroke="#757575" d="M1560.62,-109.74C1560.62,-109.74 1560.62,-29.08 1560.62,-29.08"/>
<polygon fill="#757575" stroke="#757575" points="1564.13,-29.08 1560.62,-19.08 1557.13,-29.08 1564.13,-29.08"/>
</g>
<!-- reassignment&#45;parsing.ts&#45;&gt;instruction&#45;primitives.ts -->
<g id="edge66" class="edge">
<title>reassignment&#45;parsing.ts&#45;&gt;instruction&#45;primitives.ts</title>
<path fill="none" stroke="#757575" d="M1562.75,-109.84C1562.75,-93.22 1562.75,-61 1562.75,-61 1562.75,-61 1563.52,-61 1563.52,-61"/>
<polygon fill="#757575" stroke="#757575" points="1560.41,-64.5 1570.41,-61 1560.41,-57.5 1560.41,-64.5"/>
</g>
<!-- slice&#45;parsing.ts&#45;&gt;parser.ts -->
<g id="edge74" class="edge">
<title>slice&#45;parsing.ts&#45;&gt;parser.ts</title>
<path fill="none" stroke="#757575" d="M1605.75,-109.76C1605.75,-104.07 1605.75,-98 1605.75,-98 1605.75,-98 1129.83,-98 1129.83,-98 1129.83,-98 1129.83,-84.01 1129.83,-84.01"/>
<polygon fill="#757575" stroke="#757575" points="1133.33,-84.01 1129.83,-74.01 1126.33,-84.01 1133.33,-84.01"/>
</g>
<!-- slice&#45;parsing.ts&#45;&gt;vm.ts -->
<g id="edge75" class="edge">
<title>slice&#45;parsing.ts&#45;&gt;vm.ts</title>
<path fill="none" stroke="#757575" d="M1626.5,-109.99C1626.5,-100.09 1626.5,-86 1626.5,-86 1626.5,-86 1564.88,-86 1564.88,-86 1564.88,-86 1564.88,-29.19 1564.88,-29.19"/>
<polygon fill="#757575" stroke="#757575" points="1568.38,-29.19 1564.88,-19.19 1561.38,-29.19 1568.38,-29.19"/>
</g>
<!-- slice&#45;parsing.ts&#45;&gt;instruction&#45;primitives.ts -->
<g id="edge73" class="edge">
<title>slice&#45;parsing.ts&#45;&gt;instruction&#45;primitives.ts</title>
<path fill="none" stroke="#757575" d="M1647.25,-109.92C1647.25,-109.92 1647.25,-84.34 1647.25,-84.34"/>
<polygon fill="#757575" stroke="#757575" points="1650.75,-84.34 1647.25,-74.34 1643.75,-84.34 1650.75,-84.34"/>
</g>
<!-- if&#45;expression&#45;parsing.ts -->
<g id="node24" class="node">
<title>if&#45;expression&#45;parsing.ts</title>
<path fill="none" stroke="#c6c5fe" d="M669.17,-129C669.17,-129 563.83,-129 563.83,-129 560.67,-129 557.5,-125.83 557.5,-122.67 557.5,-122.67 557.5,-116.33 557.5,-116.33 557.5,-113.17 560.67,-110 563.83,-110 563.83,-110 669.17,-110 669.17,-110 672.33,-110 675.5,-113.17 675.5,-116.33 675.5,-116.33 675.5,-122.67 675.5,-122.67 675.5,-125.83 672.33,-129 669.17,-129"/>
<text text-anchor="middle" x="616.5" y="-117" font-family="Arial" font-size="10.00" fill="#c6c5fe">if&#45;expression&#45;parsing.ts</text>
</g>
<!-- if&#45;expression&#45;parsing.ts&#45;&gt;parser.ts -->
<g id="edge46" class="edge">
<title>if&#45;expression&#45;parsing.ts&#45;&gt;parser.ts</title>
<path fill="none" stroke="#757575" d="M636.17,-109.92C636.17,-93.8 636.17,-63 636.17,-63 636.17,-63 1073.89,-63 1073.89,-63"/>
<polygon fill="#757575" stroke="#757575" points="1073.89,-66.5 1083.89,-63 1073.89,-59.5 1073.89,-66.5"/>
</g>
<!-- if&#45;expression&#45;parsing.ts&#45;&gt;vm.ts -->
<g id="edge47" class="edge">
<title>if&#45;expression&#45;parsing.ts&#45;&gt;vm.ts</title>
<path fill="none" stroke="#757575" d="M596.83,-109.97C596.83,-82.14 596.83,-3 596.83,-3 596.83,-3 1548.28,-3 1548.28,-3"/>
<polygon fill="#757575" stroke="#757575" points="1548.28,-6.5 1558.28,-3 1548.28,0.5 1548.28,-6.5"/>
</g>
<!-- type&#45;inference&#45;helpers.ts&#45;&gt;parser.ts -->
<g id="edge76" class="edge">
<title>type&#45;inference&#45;helpers.ts&#45;&gt;parser.ts</title>
<path fill="none" stroke="#757575" d="M893.51,-122C970.89,-122 1093.17,-122 1093.17,-122 1093.17,-122 1093.17,-84.25 1093.17,-84.25"/>
<polygon fill="#757575" stroke="#757575" points="1096.67,-84.25 1093.17,-74.25 1089.67,-84.25 1096.67,-84.25"/>
</g>
</g>
</svg>
