<?xml version="1.0" encoding="UTF-8" standalone="no"?>
<!DOCTYPE svg PUBLIC "-//W3C//DTD SVG 1.1//EN"
 "http://www.w3.org/Graphics/SVG/1.1/DTD/svg11.dtd">
<!-- Generated by graphviz version 2.43.0 (0)
 -->
<!-- Title: G Pages: 1 -->
<svg width="839pt" height="361pt"
 viewBox="0.00 0.00 839.20 361.20" xmlns="http://www.w3.org/2000/svg" xmlns:xlink="http://www.w3.org/1999/xlink">
<g id="graph0" class="graph" transform="scale(1 1) rotate(0) translate(21.6 339.6)">
<title>G</title>
<polygon fill="#111111" stroke="transparent" points="-21.6,21.6 -21.6,-339.6 817.6,-339.6 817.6,21.6 -21.6,21.6"/>
<!-- src/app.ts -->
<g id="node1" class="node">
<title>src/app.ts</title>
<path fill="none" stroke="#c6c5fe" d="M470.83,-259C470.83,-259 411.17,-259 411.17,-259 407.33,-259 403.5,-255.17 403.5,-251.33 403.5,-251.33 403.5,-243.67 403.5,-243.67 403.5,-239.83 407.33,-236 411.17,-236 411.17,-236 470.83,-236 470.83,-236 474.67,-236 478.5,-239.83 478.5,-243.67 478.5,-243.67 478.5,-251.33 478.5,-251.33 478.5,-255.17 474.67,-259 470.83,-259"/>
<text text-anchor="middle" x="441" y="-243.8" font-family="Arial" font-size="14.00" fill="#c6c5fe">src/app.ts</text>
</g>
<!-- src/expressions/binary&#45;operation.ts -->
<g id="node2" class="node">
<title>src/expressions/binary&#45;operation.ts</title>
<path fill="none" stroke="#c6c5fe" d="M546.33,-200C546.33,-200 335.67,-200 335.67,-200 331.83,-200 328,-196.17 328,-192.33 328,-192.33 328,-184.67 328,-184.67 328,-180.83 331.83,-177 335.67,-177 335.67,-177 546.33,-177 546.33,-177 550.17,-177 554,-180.83 554,-184.67 554,-184.67 554,-192.33 554,-192.33 554,-196.17 550.17,-200 546.33,-200"/>
<text text-anchor="middle" x="441" y="-184.8" font-family="Arial" font-size="14.00" fill="#c6c5fe">src/expressions/binary&#45;operation.ts</text>
</g>
<!-- src/app.ts&#45;&gt;src/expressions/binary&#45;operation.ts -->
<g id="edge1" class="edge">
<title>src/app.ts&#45;&gt;src/expressions/binary&#45;operation.ts</title>
<path fill="none" stroke="#757575" d="M441,-235.84C441,-235.84 441,-210.13 441,-210.13"/>
<polygon fill="#757575" stroke="#757575" points="444.5,-210.13 441,-200.13 437.5,-210.13 444.5,-210.13"/>
</g>
<!-- src/expressions/grouped&#45;expressions.ts -->
<g id="node3" class="node">
<title>src/expressions/grouped&#45;expressions.ts</title>
<path fill="none" stroke="#c6c5fe" d="M264.33,-200C264.33,-200 25.67,-200 25.67,-200 21.83,-200 18,-196.17 18,-192.33 18,-192.33 18,-184.67 18,-184.67 18,-180.83 21.83,-177 25.67,-177 25.67,-177 264.33,-177 264.33,-177 268.17,-177 272,-180.83 272,-184.67 272,-184.67 272,-192.33 272,-192.33 272,-196.17 268.17,-200 264.33,-200"/>
<text text-anchor="middle" x="145" y="-184.8" font-family="Arial" font-size="14.00" fill="#c6c5fe">src/expressions/grouped&#45;expressions.ts</text>
</g>
<!-- src/app.ts&#45;&gt;src/expressions/grouped&#45;expressions.ts -->
<g id="edge2" class="edge">
<title>src/app.ts&#45;&gt;src/expressions/grouped&#45;expressions.ts</title>
<path fill="none" stroke="#757575" d="M403.21,-247C323.41,-247 145,-247 145,-247 145,-247 145,-210.06 145,-210.06"/>
<polygon fill="#757575" stroke="#757575" points="148.5,-210.06 145,-200.06 141.5,-210.06 148.5,-210.06"/>
</g>
<!-- src/expressions/handlers.ts -->
<g id="node4" class="node">
<title>src/expressions/handlers.ts</title>
<path fill="none" stroke="#cfffac" d="M380.33,-141C380.33,-141 215.67,-141 215.67,-141 211.83,-141 208,-137.17 208,-133.33 208,-133.33 208,-125.67 208,-125.67 208,-121.83 211.83,-118 215.67,-118 215.67,-118 380.33,-118 380.33,-118 384.17,-118 388,-121.83 388,-125.67 388,-125.67 388,-133.33 388,-133.33 388,-137.17 384.17,-141 380.33,-141"/>
<text text-anchor="middle" x="298" y="-125.8" font-family="Arial" font-size="14.00" fill="#cfffac">src/expressions/handlers.ts</text>
</g>
<!-- src/app.ts&#45;&gt;src/expressions/handlers.ts -->
<g id="edge3" class="edge">
<title>src/app.ts&#45;&gt;src/expressions/handlers.ts</title>
<path fill="none" stroke="#757575" d="M403.21,-241C361.45,-241 300,-241 300,-241 300,-241 300,-151.01 300,-151.01"/>
<polygon fill="#757575" stroke="#757575" points="303.5,-151.01 300,-141.01 296.5,-151.01 303.5,-151.01"/>
</g>
<!-- src/loop.ts -->
<g id="node5" class="node">
<title>src/loop.ts</title>
<path fill="none" stroke="#cfffac" d="M788.33,-200C788.33,-200 725.67,-200 725.67,-200 721.83,-200 718,-196.17 718,-192.33 718,-192.33 718,-184.67 718,-184.67 718,-180.83 721.83,-177 725.67,-177 725.67,-177 788.33,-177 788.33,-177 792.17,-177 796,-180.83 796,-184.67 796,-184.67 796,-192.33 796,-192.33 796,-196.17 792.17,-200 788.33,-200"/>
<text text-anchor="middle" x="757" y="-184.8" font-family="Arial" font-size="14.00" fill="#cfffac">src/loop.ts</text>
</g>
<!-- src/app.ts&#45;&gt;src/loop.ts -->
<g id="edge4" class="edge">
<title>src/app.ts&#45;&gt;src/loop.ts</title>
<path fill="none" stroke="#757575" d="M478.8,-253C562.68,-253 757,-253 757,-253 757,-253 757,-210.03 757,-210.03"/>
<polygon fill="#757575" stroke="#757575" points="760.5,-210.03 757,-200.03 753.5,-210.03 760.5,-210.03"/>
</g>
<!-- src/match.ts -->
<g id="node6" class="node">
<title>src/match.ts</title>
<path fill="none" stroke="#cfffac" d="M105.33,-141C105.33,-141 30.67,-141 30.67,-141 26.83,-141 23,-137.17 23,-133.33 23,-133.33 23,-125.67 23,-125.67 23,-121.83 26.83,-118 30.67,-118 30.67,-118 105.33,-118 105.33,-118 109.17,-118 113,-121.83 113,-125.67 113,-125.67 113,-133.33 113,-133.33 113,-137.17 109.17,-141 105.33,-141"/>
<text text-anchor="middle" x="68" y="-125.8" font-family="Arial" font-size="14.00" fill="#cfffac">src/match.ts</text>
</g>
<!-- src/app.ts&#45;&gt;src/match.ts -->
<g id="edge5" class="edge">
<title>src/app.ts&#45;&gt;src/match.ts</title>
<path fill="none" stroke="#757575" d="M403.4,-253C296.75,-253 0,-253 0,-253 0,-253 0,-129 0,-129 0,-129 12.64,-129 12.64,-129"/>
<polygon fill="#757575" stroke="#757575" points="12.64,-132.5 22.64,-129 12.64,-125.5 12.64,-132.5"/>
</g>
<!-- src/parser.ts -->
<g id="node7" class="node">
<title>src/parser.ts</title>
<path fill="none" stroke="#c6c5fe" d="M600.33,-82C600.33,-82 525.67,-82 525.67,-82 521.83,-82 518,-78.17 518,-74.33 518,-74.33 518,-66.67 518,-66.67 518,-62.83 521.83,-59 525.67,-59 525.67,-59 600.33,-59 600.33,-59 604.17,-59 608,-62.83 608,-66.67 608,-66.67 608,-74.33 608,-74.33 608,-78.17 604.17,-82 600.33,-82"/>
<text text-anchor="middle" x="563" y="-66.8" font-family="Arial" font-size="14.00" fill="#c6c5fe">src/parser.ts</text>
</g>
<!-- src/app.ts&#45;&gt;src/parser.ts -->
<g id="edge6" class="edge">
<title>src/app.ts&#45;&gt;src/parser.ts</title>
<path fill="none" stroke="#757575" d="M478.54,-241C517.25,-241 572,-241 572,-241 572,-241 572,-92.22 572,-92.22"/>
<polygon fill="#757575" stroke="#757575" points="575.5,-92.22 572,-82.22 568.5,-92.22 575.5,-92.22"/>
</g>
<!-- src/scope.ts -->
<g id="node8" class="node">
<title>src/scope.ts</title>
<path fill="none" stroke="#c6c5fe" d="M691.83,-200C691.83,-200 618.17,-200 618.17,-200 614.33,-200 610.5,-196.17 610.5,-192.33 610.5,-192.33 610.5,-184.67 610.5,-184.67 610.5,-180.83 614.33,-177 618.17,-177 618.17,-177 691.83,-177 691.83,-177 695.67,-177 699.5,-180.83 699.5,-184.67 699.5,-184.67 699.5,-192.33 699.5,-192.33 699.5,-196.17 695.67,-200 691.83,-200"/>
<text text-anchor="middle" x="655" y="-184.8" font-family="Arial" font-size="14.00" fill="#c6c5fe">src/scope.ts</text>
</g>
<!-- src/app.ts&#45;&gt;src/scope.ts -->
<g id="edge7" class="edge">
<title>src/app.ts&#45;&gt;src/scope.ts</title>
<path fill="none" stroke="#757575" d="M478.77,-247C540.2,-247 655,-247 655,-247 655,-247 655,-210.06 655,-210.06"/>
<polygon fill="#757575" stroke="#757575" points="658.5,-210.06 655,-200.06 651.5,-210.06 658.5,-210.06"/>
</g>
<!-- src/expressions/binary&#45;operation.ts&#45;&gt;src/expressions/handlers.ts -->
<g id="edge8" class="edge">
<title>src/expressions/binary&#45;operation.ts&#45;&gt;src/expressions/handlers.ts</title>
<path fill="none" stroke="#757575" d="M348,-176.84C348,-176.84 348,-151.13 348,-151.13"/>
<polygon fill="#757575" stroke="#757575" points="351.5,-151.13 348,-141.13 344.5,-151.13 351.5,-151.13"/>
</g>
<!-- src/expressions/binary&#45;operation.ts&#45;&gt;src/parser.ts -->
<g id="edge10" class="edge">
<title>src/expressions/binary&#45;operation.ts&#45;&gt;src/parser.ts</title>
<path fill="none" stroke="#757575" d="M542,-176.75C542,-176.75 542,-92.2 542,-92.2"/>
<polygon fill="#757575" stroke="#757575" points="545.5,-92.2 542,-82.2 538.5,-92.2 545.5,-92.2"/>
</g>
<!-- src/operators.ts -->
<g id="node9" class="node">
<title>src/operators.ts</title>
<path fill="none" stroke="#c6c5fe" d="M508.33,-141C508.33,-141 413.67,-141 413.67,-141 409.83,-141 406,-137.17 406,-133.33 406,-133.33 406,-125.67 406,-125.67 406,-121.83 409.83,-118 413.67,-118 413.67,-118 508.33,-118 508.33,-118 512.17,-118 516,-121.83 516,-125.67 516,-125.67 516,-133.33 516,-133.33 516,-137.17 512.17,-141 508.33,-141"/>
<text text-anchor="middle" x="461" y="-125.8" font-family="Arial" font-size="14.00" fill="#c6c5fe">src/operators.ts</text>
</g>
<!-- src/expressions/binary&#45;operation.ts&#45;&gt;src/operators.ts -->
<g id="edge9" class="edge">
<title>src/expressions/binary&#45;operation.ts&#45;&gt;src/operators.ts</title>
<path fill="none" stroke="#757575" d="M461,-176.84C461,-176.84 461,-151.13 461,-151.13"/>
<polygon fill="#757575" stroke="#757575" points="464.5,-151.13 461,-141.13 457.5,-151.13 464.5,-151.13"/>
</g>
<!-- src/expressions/grouped&#45;expressions.ts&#45;&gt;src/expressions/handlers.ts -->
<g id="edge11" class="edge">
<title>src/expressions/grouped&#45;expressions.ts&#45;&gt;src/expressions/handlers.ts</title>
<path fill="none" stroke="#757575" d="M240,-176.84C240,-176.84 240,-151.13 240,-151.13"/>
<polygon fill="#757575" stroke="#757575" points="243.5,-151.13 240,-141.13 236.5,-151.13 243.5,-151.13"/>
</g>
<!-- src/expressions/grouped&#45;expressions.ts&#45;&gt;src/match.ts -->
<g id="edge12" class="edge">
<title>src/expressions/grouped&#45;expressions.ts&#45;&gt;src/match.ts</title>
<path fill="none" stroke="#757575" d="M68,-176.84C68,-176.84 68,-151.13 68,-151.13"/>
<polygon fill="#757575" stroke="#757575" points="71.5,-151.13 68,-141.13 64.5,-151.13 71.5,-151.13"/>
</g>
<!-- src/types.ts -->
<g id="node10" class="node">
<title>src/types.ts</title>
<path fill="none" stroke="#cfffac" d="M597.83,-23C597.83,-23 528.17,-23 528.17,-23 524.33,-23 520.5,-19.17 520.5,-15.33 520.5,-15.33 520.5,-7.67 520.5,-7.67 520.5,-3.83 524.33,0 528.17,0 528.17,0 597.83,0 597.83,0 601.67,0 605.5,-3.83 605.5,-7.67 605.5,-7.67 605.5,-15.33 605.5,-15.33 605.5,-19.17 601.67,-23 597.83,-23"/>
<text text-anchor="middle" x="563" y="-7.8" font-family="Arial" font-size="14.00" fill="#cfffac">src/types.ts</text>
</g>
<!-- src/parser.ts&#45;&gt;src/types.ts -->
<g id="edge15" class="edge">
<title>src/parser.ts&#45;&gt;src/types.ts</title>
<path fill="none" stroke="#757575" d="M563,-58.84C563,-58.84 563,-33.13 563,-33.13"/>
<polygon fill="#757575" stroke="#757575" points="566.5,-33.13 563,-23.13 559.5,-33.13 566.5,-33.13"/>
</g>
<!-- src/scope.ts&#45;&gt;src/expressions/handlers.ts -->
<g id="edge16" class="edge">
<title>src/scope.ts&#45;&gt;src/expressions/handlers.ts</title>
<path fill="none" stroke="#757575" d="M640.17,-176.84C640.17,-168.6 640.17,-159 640.17,-159 640.17,-159 368,-159 368,-159 368,-159 368,-151.16 368,-151.16"/>
<polygon fill="#757575" stroke="#757575" points="371.5,-151.16 368,-141.16 364.5,-151.16 371.5,-151.16"/>
</g>
<!-- src/scope.ts&#45;&gt;src/parser.ts -->
<g id="edge17" class="edge">
<title>src/scope.ts&#45;&gt;src/parser.ts</title>
<path fill="none" stroke="#757575" d="M610.21,-188C598.95,-188 590,-188 590,-188 590,-188 590,-92.2 590,-92.2"/>
<polygon fill="#757575" stroke="#757575" points="593.5,-92.2 590,-82.2 586.5,-92.2 593.5,-92.2"/>
</g>
<!-- src/scope.ts&#45;&gt;src/types.ts -->
<g id="edge18" class="edge">
<title>src/scope.ts&#45;&gt;src/types.ts</title>
<path fill="none" stroke="#757575" d="M669.83,-176.85C669.83,-137.36 669.83,-11 669.83,-11 669.83,-11 615.53,-11 615.53,-11"/>
<polygon fill="#757575" stroke="#757575" points="615.53,-7.5 605.53,-11 615.53,-14.5 615.53,-7.5"/>
</g>
<!-- src/operators.ts&#45;&gt;src/parser.ts -->
<g id="edge13" class="edge">
<title>src/operators.ts&#45;&gt;src/parser.ts</title>
<path fill="none" stroke="#757575" d="M516.04,-129C524.23,-129 530,-129 530,-129 530,-129 530,-92.06 530,-92.06"/>
<polygon fill="#757575" stroke="#757575" points="533.5,-92.06 530,-82.06 526.5,-92.06 533.5,-92.06"/>
</g>
<!-- src/operators.ts&#45;&gt;src/types.ts -->
<g id="edge14" class="edge">
<title>src/operators.ts&#45;&gt;src/types.ts</title>
<path fill="none" stroke="#757575" d="M461,-117.7C461,-87.73 461,-11 461,-11 461,-11 510.33,-11 510.33,-11"/>
<polygon fill="#757575" stroke="#757575" points="510.33,-14.5 520.33,-11 510.33,-7.5 510.33,-14.5"/>
</g>
<!-- tests/app.test.ts -->
<g id="node11" class="node">
<title>tests/app.test.ts</title>
<path fill="none" stroke="#c6c5fe" d="M488.83,-318C488.83,-318 393.17,-318 393.17,-318 389.33,-318 385.5,-314.17 385.5,-310.33 385.5,-310.33 385.5,-302.67 385.5,-302.67 385.5,-298.83 389.33,-295 393.17,-295 393.17,-295 488.83,-295 488.83,-295 492.67,-295 496.5,-298.83 496.5,-302.67 496.5,-302.67 496.5,-310.33 496.5,-310.33 496.5,-314.17 492.67,-318 488.83,-318"/>
<text text-anchor="middle" x="441" y="-302.8" font-family="Arial" font-size="14.00" fill="#c6c5fe">tests/app.test.ts</text>
</g>
<!-- tests/app.test.ts&#45;&gt;src/app.ts -->
<g id="edge19" class="edge">
<title>tests/app.test.ts&#45;&gt;src/app.ts</title>
<path fill="none" stroke="#757575" d="M441,-294.84C441,-294.84 441,-269.13 441,-269.13"/>
<polygon fill="#757575" stroke="#757575" points="444.5,-269.13 441,-259.13 437.5,-269.13 444.5,-269.13"/>
</g>
</g>
</svg>
