<?xml version="1.0" encoding="UTF-8" standalone="no"?>
<!DOCTYPE svg PUBLIC "-//W3C//DTD SVG 1.1//EN"
 "http://www.w3.org/Graphics/SVG/1.1/DTD/svg11.dtd">
<!-- Generated by graphviz version 2.43.0 (0)
 -->
<!-- Title: G Pages: 1 -->
<svg width="897pt" height="361pt"
 viewBox="0.00 0.00 897.20 361.20" xmlns="http://www.w3.org/2000/svg" xmlns:xlink="http://www.w3.org/1999/xlink">
<g id="graph0" class="graph" transform="scale(1 1) rotate(0) translate(21.6 339.6)">
<title>G</title>
<polygon fill="#111111" stroke="transparent" points="-21.6,21.6 -21.6,-339.6 875.6,-339.6 875.6,21.6 -21.6,21.6"/>
<!-- src/app.ts -->
<g id="node1" class="node">
<title>src/app.ts</title>
<path fill="none" stroke="#c6c5fe" d="M506.83,-259C506.83,-259 447.17,-259 447.17,-259 443.33,-259 439.5,-255.17 439.5,-251.33 439.5,-251.33 439.5,-243.67 439.5,-243.67 439.5,-239.83 443.33,-236 447.17,-236 447.17,-236 506.83,-236 506.83,-236 510.67,-236 514.5,-239.83 514.5,-243.67 514.5,-243.67 514.5,-251.33 514.5,-251.33 514.5,-255.17 510.67,-259 506.83,-259"/>
<text text-anchor="middle" x="477" y="-243.8" font-family="Arial" font-size="14.00" fill="#c6c5fe">src/app.ts</text>
</g>
<!-- src/expressions/binary&#45;operation.ts -->
<g id="node2" class="node">
<title>src/expressions/binary&#45;operation.ts</title>
<path fill="none" stroke="#c6c5fe" d="M218.33,-200C218.33,-200 7.67,-200 7.67,-200 3.83,-200 0,-196.17 0,-192.33 0,-192.33 0,-184.67 0,-184.67 0,-180.83 3.83,-177 7.67,-177 7.67,-177 218.33,-177 218.33,-177 222.17,-177 226,-180.83 226,-184.67 226,-184.67 226,-192.33 226,-192.33 226,-196.17 222.17,-200 218.33,-200"/>
<text text-anchor="middle" x="113" y="-184.8" font-family="Arial" font-size="14.00" fill="#c6c5fe">src/expressions/binary&#45;operation.ts</text>
</g>
<!-- src/app.ts&#45;&gt;src/expressions/binary&#45;operation.ts -->
<g id="edge1" class="edge">
<title>src/app.ts&#45;&gt;src/expressions/binary&#45;operation.ts</title>
<path fill="none" stroke="#757575" d="M439.42,-254C346.42,-254 113,-254 113,-254 113,-254 113,-210.21 113,-210.21"/>
<polygon fill="#757575" stroke="#757575" points="116.5,-210.21 113,-200.21 109.5,-210.21 116.5,-210.21"/>
</g>
<!-- src/expressions/grouped&#45;expressions.ts -->
<g id="node3" class="node">
<title>src/expressions/grouped&#45;expressions.ts</title>
<path fill="none" stroke="#c6c5fe" d="M674.33,-200C674.33,-200 435.67,-200 435.67,-200 431.83,-200 428,-196.17 428,-192.33 428,-192.33 428,-184.67 428,-184.67 428,-180.83 431.83,-177 435.67,-177 435.67,-177 674.33,-177 674.33,-177 678.17,-177 682,-180.83 682,-184.67 682,-184.67 682,-192.33 682,-192.33 682,-196.17 678.17,-200 674.33,-200"/>
<text text-anchor="middle" x="555" y="-184.8" font-family="Arial" font-size="14.00" fill="#c6c5fe">src/expressions/grouped&#45;expressions.ts</text>
</g>
<!-- src/app.ts&#45;&gt;src/expressions/grouped&#45;expressions.ts -->
<g id="edge2" class="edge">
<title>src/app.ts&#45;&gt;src/expressions/grouped&#45;expressions.ts</title>
<path fill="none" stroke="#757575" d="M477,-235.84C477,-235.84 477,-210.13 477,-210.13"/>
<polygon fill="#757575" stroke="#757575" points="480.5,-210.13 477,-200.13 473.5,-210.13 480.5,-210.13"/>
</g>
<!-- src/expressions/handlers.ts -->
<g id="node4" class="node">
<title>src/expressions/handlers.ts</title>
<path fill="none" stroke="#cfffac" d="M530.33,-141C530.33,-141 365.67,-141 365.67,-141 361.83,-141 358,-137.17 358,-133.33 358,-133.33 358,-125.67 358,-125.67 358,-121.83 361.83,-118 365.67,-118 365.67,-118 530.33,-118 530.33,-118 534.17,-118 538,-121.83 538,-125.67 538,-125.67 538,-133.33 538,-133.33 538,-137.17 534.17,-141 530.33,-141"/>
<text text-anchor="middle" x="448" y="-125.8" font-family="Arial" font-size="14.00" fill="#cfffac">src/expressions/handlers.ts</text>
</g>
<!-- src/app.ts&#45;&gt;src/expressions/handlers.ts -->
<g id="edge3" class="edge">
<title>src/app.ts&#45;&gt;src/expressions/handlers.ts</title>
<path fill="none" stroke="#757575" d="M439.11,-240C418.23,-240 396.5,-240 396.5,-240 396.5,-240 396.5,-151.33 396.5,-151.33"/>
<polygon fill="#757575" stroke="#757575" points="400,-151.33 396.5,-141.33 393,-151.33 400,-151.33"/>
</g>
<!-- src/loop.ts -->
<g id="node5" class="node">
<title>src/loop.ts</title>
<path fill="none" stroke="#cfffac" d="M846.33,-141C846.33,-141 783.67,-141 783.67,-141 779.83,-141 776,-137.17 776,-133.33 776,-133.33 776,-125.67 776,-125.67 776,-121.83 779.83,-118 783.67,-118 783.67,-118 846.33,-118 846.33,-118 850.17,-118 854,-121.83 854,-125.67 854,-125.67 854,-133.33 854,-133.33 854,-137.17 850.17,-141 846.33,-141"/>
<text text-anchor="middle" x="815" y="-125.8" font-family="Arial" font-size="14.00" fill="#cfffac">src/loop.ts</text>
</g>
<!-- src/app.ts&#45;&gt;src/loop.ts -->
<g id="edge4" class="edge">
<title>src/app.ts&#45;&gt;src/loop.ts</title>
<path fill="none" stroke="#757575" d="M514.59,-253C606.98,-253 837.75,-253 837.75,-253 837.75,-253 837.75,-151.34 837.75,-151.34"/>
<polygon fill="#757575" stroke="#757575" points="841.25,-151.34 837.75,-141.34 834.25,-151.34 841.25,-151.34"/>
</g>
<!-- src/match.ts -->
<g id="node6" class="node">
<title>src/match.ts</title>
<path fill="none" stroke="#cfffac" d="M712.33,-141C712.33,-141 637.67,-141 637.67,-141 633.83,-141 630,-137.17 630,-133.33 630,-133.33 630,-125.67 630,-125.67 630,-121.83 633.83,-118 637.67,-118 637.67,-118 712.33,-118 712.33,-118 716.17,-118 720,-121.83 720,-125.67 720,-125.67 720,-133.33 720,-133.33 720,-137.17 716.17,-141 712.33,-141"/>
<text text-anchor="middle" x="675" y="-125.8" font-family="Arial" font-size="14.00" fill="#cfffac">src/match.ts</text>
</g>
<!-- src/app.ts&#45;&gt;src/match.ts -->
<g id="edge5" class="edge">
<title>src/app.ts&#45;&gt;src/match.ts</title>
<path fill="none" stroke="#757575" d="M514.75,-241C578.58,-241 701,-241 701,-241 701,-241 701,-151.01 701,-151.01"/>
<polygon fill="#757575" stroke="#757575" points="704.5,-151.01 701,-141.01 697.5,-151.01 704.5,-151.01"/>
</g>
<!-- src/parser.ts -->
<g id="node7" class="node">
<title>src/parser.ts</title>
<path fill="none" stroke="#c6c5fe" d="M272.33,-82C272.33,-82 197.67,-82 197.67,-82 193.83,-82 190,-78.17 190,-74.33 190,-74.33 190,-66.67 190,-66.67 190,-62.83 193.83,-59 197.67,-59 197.67,-59 272.33,-59 272.33,-59 276.17,-59 280,-62.83 280,-66.67 280,-66.67 280,-74.33 280,-74.33 280,-78.17 276.17,-82 272.33,-82"/>
<text text-anchor="middle" x="235" y="-66.8" font-family="Arial" font-size="14.00" fill="#c6c5fe">src/parser.ts</text>
</g>
<!-- src/app.ts&#45;&gt;src/parser.ts -->
<g id="edge6" class="edge">
<title>src/app.ts&#45;&gt;src/parser.ts</title>
<path fill="none" stroke="#757575" d="M439.31,-249C373.36,-249 244,-249 244,-249 244,-249 244,-92.21 244,-92.21"/>
<polygon fill="#757575" stroke="#757575" points="247.5,-92.21 244,-82.21 240.5,-92.21 247.5,-92.21"/>
</g>
<!-- src/scope.ts -->
<g id="node8" class="node">
<title>src/scope.ts</title>
<path fill="none" stroke="#c6c5fe" d="M363.83,-200C363.83,-200 290.17,-200 290.17,-200 286.33,-200 282.5,-196.17 282.5,-192.33 282.5,-192.33 282.5,-184.67 282.5,-184.67 282.5,-180.83 286.33,-177 290.17,-177 290.17,-177 363.83,-177 363.83,-177 367.67,-177 371.5,-180.83 371.5,-184.67 371.5,-184.67 371.5,-192.33 371.5,-192.33 371.5,-196.17 367.67,-200 363.83,-200"/>
<text text-anchor="middle" x="327" y="-184.8" font-family="Arial" font-size="14.00" fill="#c6c5fe">src/scope.ts</text>
</g>
<!-- src/app.ts&#45;&gt;src/scope.ts -->
<g id="edge7" class="edge">
<title>src/app.ts&#45;&gt;src/scope.ts</title>
<path fill="none" stroke="#757575" d="M439.15,-245C394.71,-245 327,-245 327,-245 327,-245 327,-210.21 327,-210.21"/>
<polygon fill="#757575" stroke="#757575" points="330.5,-210.21 327,-200.21 323.5,-210.21 330.5,-210.21"/>
</g>
<!-- src/while.ts -->
<g id="node9" class="node">
<title>src/while.ts</title>
<path fill="none" stroke="#c6c5fe" d="M813.83,-200C813.83,-200 746.17,-200 746.17,-200 742.33,-200 738.5,-196.17 738.5,-192.33 738.5,-192.33 738.5,-184.67 738.5,-184.67 738.5,-180.83 742.33,-177 746.17,-177 746.17,-177 813.83,-177 813.83,-177 817.67,-177 821.5,-180.83 821.5,-184.67 821.5,-184.67 821.5,-192.33 821.5,-192.33 821.5,-196.17 817.67,-200 813.83,-200"/>
<text text-anchor="middle" x="780" y="-184.8" font-family="Arial" font-size="14.00" fill="#c6c5fe">src/while.ts</text>
</g>
<!-- src/app.ts&#45;&gt;src/while.ts -->
<g id="edge8" class="edge">
<title>src/app.ts&#45;&gt;src/while.ts</title>
<path fill="none" stroke="#757575" d="M514.76,-247C595.99,-247 780,-247 780,-247 780,-247 780,-210.06 780,-210.06"/>
<polygon fill="#757575" stroke="#757575" points="783.5,-210.06 780,-200.06 776.5,-210.06 783.5,-210.06"/>
</g>
<!-- src/expressions/binary&#45;operation.ts&#45;&gt;src/expressions/handlers.ts -->
<g id="edge9" class="edge">
<title>src/expressions/binary&#45;operation.ts&#45;&gt;src/expressions/handlers.ts</title>
<path fill="none" stroke="#757575" d="M217,-176.73C217,-160.44 217,-133 217,-133 217,-133 347.7,-133 347.7,-133"/>
<polygon fill="#757575" stroke="#757575" points="347.7,-136.5 357.7,-133 347.7,-129.5 347.7,-136.5"/>
</g>
<!-- src/expressions/binary&#45;operation.ts&#45;&gt;src/parser.ts -->
<g id="edge11" class="edge">
<title>src/expressions/binary&#45;operation.ts&#45;&gt;src/parser.ts</title>
<path fill="none" stroke="#757575" d="M208,-176.75C208,-176.75 208,-92.2 208,-92.2"/>
<polygon fill="#757575" stroke="#757575" points="211.5,-92.2 208,-82.2 204.5,-92.2 211.5,-92.2"/>
</g>
<!-- src/operators.ts -->
<g id="node10" class="node">
<title>src/operators.ts</title>
<path fill="none" stroke="#c6c5fe" d="M180.33,-141C180.33,-141 85.67,-141 85.67,-141 81.83,-141 78,-137.17 78,-133.33 78,-133.33 78,-125.67 78,-125.67 78,-121.83 81.83,-118 85.67,-118 85.67,-118 180.33,-118 180.33,-118 184.17,-118 188,-121.83 188,-125.67 188,-125.67 188,-133.33 188,-133.33 188,-137.17 184.17,-141 180.33,-141"/>
<text text-anchor="middle" x="133" y="-125.8" font-family="Arial" font-size="14.00" fill="#c6c5fe">src/operators.ts</text>
</g>
<!-- src/expressions/binary&#45;operation.ts&#45;&gt;src/operators.ts -->
<g id="edge10" class="edge">
<title>src/expressions/binary&#45;operation.ts&#45;&gt;src/operators.ts</title>
<path fill="none" stroke="#757575" d="M133,-176.84C133,-176.84 133,-151.13 133,-151.13"/>
<polygon fill="#757575" stroke="#757575" points="136.5,-151.13 133,-141.13 129.5,-151.13 136.5,-151.13"/>
</g>
<!-- src/expressions/grouped&#45;expressions.ts&#45;&gt;src/expressions/handlers.ts -->
<g id="edge12" class="edge">
<title>src/expressions/grouped&#45;expressions.ts&#45;&gt;src/expressions/handlers.ts</title>
<path fill="none" stroke="#757575" d="M464.67,-176.84C464.67,-176.84 464.67,-151.13 464.67,-151.13"/>
<polygon fill="#757575" stroke="#757575" points="468.17,-151.13 464.67,-141.13 461.17,-151.13 468.17,-151.13"/>
</g>
<!-- src/expressions/grouped&#45;expressions.ts&#45;&gt;src/match.ts -->
<g id="edge13" class="edge">
<title>src/expressions/grouped&#45;expressions.ts&#45;&gt;src/match.ts</title>
<path fill="none" stroke="#757575" d="M656,-176.84C656,-176.84 656,-151.13 656,-151.13"/>
<polygon fill="#757575" stroke="#757575" points="659.5,-151.13 656,-141.13 652.5,-151.13 659.5,-151.13"/>
</g>
<!-- src/types.ts -->
<g id="node11" class="node">
<title>src/types.ts</title>
<path fill="none" stroke="#cfffac" d="M269.83,-23C269.83,-23 200.17,-23 200.17,-23 196.33,-23 192.5,-19.17 192.5,-15.33 192.5,-15.33 192.5,-7.67 192.5,-7.67 192.5,-3.83 196.33,0 200.17,0 200.17,0 269.83,0 269.83,0 273.67,0 277.5,-3.83 277.5,-7.67 277.5,-7.67 277.5,-15.33 277.5,-15.33 277.5,-19.17 273.67,-23 269.83,-23"/>
<text text-anchor="middle" x="235" y="-7.8" font-family="Arial" font-size="14.00" fill="#cfffac">src/types.ts</text>
</g>
<!-- src/parser.ts&#45;&gt;src/types.ts -->
<g id="edge16" class="edge">
<title>src/parser.ts&#45;&gt;src/types.ts</title>
<path fill="none" stroke="#757575" d="M235,-58.84C235,-58.84 235,-33.13 235,-33.13"/>
<polygon fill="#757575" stroke="#757575" points="238.5,-33.13 235,-23.13 231.5,-33.13 238.5,-33.13"/>
</g>
<!-- src/scope.ts&#45;&gt;src/expressions/handlers.ts -->
<g id="edge17" class="edge">
<title>src/scope.ts&#45;&gt;src/expressions/handlers.ts</title>
<path fill="none" stroke="#757575" d="M364.75,-176.84C364.75,-176.84 364.75,-151.13 364.75,-151.13"/>
<polygon fill="#757575" stroke="#757575" points="368.25,-151.13 364.75,-141.13 361.25,-151.13 368.25,-151.13"/>
</g>
<!-- src/scope.ts&#45;&gt;src/parser.ts -->
<g id="edge18" class="edge">
<title>src/scope.ts&#45;&gt;src/parser.ts</title>
<path fill="none" stroke="#757575" d="M282.21,-188C270.95,-188 262,-188 262,-188 262,-188 262,-92.2 262,-92.2"/>
<polygon fill="#757575" stroke="#757575" points="265.5,-92.2 262,-82.2 258.5,-92.2 265.5,-92.2"/>
</g>
<!-- src/scope.ts&#45;&gt;src/types.ts -->
<g id="edge19" class="edge">
<title>src/scope.ts&#45;&gt;src/types.ts</title>
<path fill="none" stroke="#757575" d="M320.25,-176.85C320.25,-137.36 320.25,-11 320.25,-11 320.25,-11 287.62,-11 287.62,-11"/>
<polygon fill="#757575" stroke="#757575" points="287.63,-7.5 277.62,-11 287.62,-14.5 287.63,-7.5"/>
</g>
<!-- src/while.ts&#45;&gt;src/expressions/handlers.ts -->
<g id="edge20" class="edge">
<title>src/while.ts&#45;&gt;src/expressions/handlers.ts</title>
<path fill="none" stroke="#757575" d="M757.25,-176.84C757.25,-168.6 757.25,-159 757.25,-159 757.25,-159 501.33,-159 501.33,-159 501.33,-159 501.33,-151.16 501.33,-151.16"/>
<polygon fill="#757575" stroke="#757575" points="504.83,-151.16 501.33,-141.16 497.83,-151.16 504.83,-151.16"/>
</g>
<!-- src/while.ts&#45;&gt;src/loop.ts -->
<g id="edge21" class="edge">
<title>src/while.ts&#45;&gt;src/loop.ts</title>
<path fill="none" stroke="#757575" d="M798.75,-176.84C798.75,-176.84 798.75,-151.13 798.75,-151.13"/>
<polygon fill="#757575" stroke="#757575" points="802.25,-151.13 798.75,-141.13 795.25,-151.13 802.25,-151.13"/>
</g>
<!-- src/operators.ts&#45;&gt;src/parser.ts -->
<g id="edge14" class="edge">
<title>src/operators.ts&#45;&gt;src/parser.ts</title>
<path fill="none" stroke="#757575" d="M188.1,-125C194.61,-125 199,-125 199,-125 199,-125 199,-92.06 199,-92.06"/>
<polygon fill="#757575" stroke="#757575" points="202.5,-92.06 199,-82.06 195.5,-92.06 202.5,-92.06"/>
</g>
<!-- src/operators.ts&#45;&gt;src/types.ts -->
<g id="edge15" class="edge">
<title>src/operators.ts&#45;&gt;src/types.ts</title>
<path fill="none" stroke="#757575" d="M133,-117.7C133,-87.73 133,-11 133,-11 133,-11 182.33,-11 182.33,-11"/>
<polygon fill="#757575" stroke="#757575" points="182.33,-14.5 192.33,-11 182.33,-7.5 182.33,-14.5"/>
</g>
<!-- tests/app.test.ts -->
<g id="node12" class="node">
<title>tests/app.test.ts</title>
<path fill="none" stroke="#c6c5fe" d="M524.83,-318C524.83,-318 429.17,-318 429.17,-318 425.33,-318 421.5,-314.17 421.5,-310.33 421.5,-310.33 421.5,-302.67 421.5,-302.67 421.5,-298.83 425.33,-295 429.17,-295 429.17,-295 524.83,-295 524.83,-295 528.67,-295 532.5,-298.83 532.5,-302.67 532.5,-302.67 532.5,-310.33 532.5,-310.33 532.5,-314.17 528.67,-318 524.83,-318"/>
<text text-anchor="middle" x="477" y="-302.8" font-family="Arial" font-size="14.00" fill="#c6c5fe">tests/app.test.ts</text>
</g>
<!-- tests/app.test.ts&#45;&gt;src/app.ts -->
<g id="edge22" class="edge">
<title>tests/app.test.ts&#45;&gt;src/app.ts</title>
<path fill="none" stroke="#757575" d="M477,-294.84C477,-294.84 477,-269.13 477,-269.13"/>
<polygon fill="#757575" stroke="#757575" points="480.5,-269.13 477,-259.13 473.5,-269.13 480.5,-269.13"/>
</g>
</g>
</svg>
