<?xml version="1.0" encoding="UTF-8" standalone="no"?>
<!DOCTYPE svg PUBLIC "-//W3C//DTD SVG 1.1//EN"
 "http://www.w3.org/Graphics/SVG/1.1/DTD/svg11.dtd">
<!-- Generated by graphviz version 2.43.0 (0)
 -->
<!-- Title: G Pages: 1 -->
<svg width="3670pt" height="833pt"
 viewBox="0.00 0.00 3670.20 833.20" xmlns="http://www.w3.org/2000/svg" xmlns:xlink="http://www.w3.org/1999/xlink">
<g id="graph0" class="graph" transform="scale(1 1) rotate(0) translate(21.6 811.6)">
<title>G</title>
<polygon fill="#111111" stroke="transparent" points="-21.6,21.6 -21.6,-811.6 3648.6,-811.6 3648.6,21.6 -21.6,21.6"/>
<!-- src/app.ts -->
<g id="node1" class="node">
<title>src/app.ts</title>
<path fill="none" stroke="#c6c5fe" d="M1234.33,-672C1234.33,-672 1174.67,-672 1174.67,-672 1170.83,-672 1167,-668.17 1167,-664.33 1167,-664.33 1167,-656.67 1167,-656.67 1167,-652.83 1170.83,-649 1174.67,-649 1174.67,-649 1234.33,-649 1234.33,-649 1238.17,-649 1242,-652.83 1242,-656.67 1242,-656.67 1242,-664.33 1242,-664.33 1242,-668.17 1238.17,-672 1234.33,-672"/>
<text text-anchor="middle" x="1204.5" y="-656.8" font-family="Arial" font-size="14.00" fill="#c6c5fe">src/app.ts</text>
</g>
<!-- src/expressions/grouped&#45;expressions.ts -->
<g id="node2" class="node">
<title>src/expressions/grouped&#45;expressions.ts</title>
<path fill="none" stroke="#c6c5fe" d="M1426.83,-554C1426.83,-554 1188.17,-554 1188.17,-554 1184.33,-554 1180.5,-550.17 1180.5,-546.33 1180.5,-546.33 1180.5,-538.67 1180.5,-538.67 1180.5,-534.83 1184.33,-531 1188.17,-531 1188.17,-531 1426.83,-531 1426.83,-531 1430.67,-531 1434.5,-534.83 1434.5,-538.67 1434.5,-538.67 1434.5,-546.33 1434.5,-546.33 1434.5,-550.17 1430.67,-554 1426.83,-554"/>
<text text-anchor="middle" x="1307.5" y="-538.8" font-family="Arial" font-size="14.00" fill="#c6c5fe">src/expressions/grouped&#45;expressions.ts</text>
</g>
<!-- src/app.ts&#45;&gt;src/expressions/grouped&#45;expressions.ts -->
<g id="edge1" class="edge">
<title>src/app.ts&#45;&gt;src/expressions/grouped&#45;expressions.ts</title>
<path fill="none" stroke="#757575" d="M1201,-648.75C1201,-648.75 1201,-564.2 1201,-564.2"/>
<polygon fill="#757575" stroke="#757575" points="1204.5,-564.2 1201,-554.2 1197.5,-564.2 1204.5,-564.2"/>
</g>
<!-- src/expressions/handlers.ts -->
<g id="node3" class="node">
<title>src/expressions/handlers.ts</title>
<path fill="none" stroke="#c6c5fe" d="M1598.83,-259C1598.83,-259 1434.17,-259 1434.17,-259 1430.33,-259 1426.5,-255.17 1426.5,-251.33 1426.5,-251.33 1426.5,-243.67 1426.5,-243.67 1426.5,-239.83 1430.33,-236 1434.17,-236 1434.17,-236 1598.83,-236 1598.83,-236 1602.67,-236 1606.5,-239.83 1606.5,-243.67 1606.5,-243.67 1606.5,-251.33 1606.5,-251.33 1606.5,-255.17 1602.67,-259 1598.83,-259"/>
<text text-anchor="middle" x="1516.5" y="-243.8" font-family="Arial" font-size="14.00" fill="#c6c5fe">src/expressions/handlers.ts</text>
</g>
<!-- src/app.ts&#45;&gt;src/expressions/handlers.ts -->
<g id="edge2" class="edge">
<title>src/app.ts&#45;&gt;src/expressions/handlers.ts</title>
<path fill="none" stroke="#757575" d="M1242.15,-655C1326.74,-655 1524.5,-655 1524.5,-655 1524.5,-655 1524.5,-269.26 1524.5,-269.26"/>
<polygon fill="#757575" stroke="#757575" points="1528,-269.26 1524.5,-259.26 1521,-269.26 1528,-269.26"/>
</g>
<!-- src/expressions/operators/binary&#45;operation.ts -->
<g id="node4" class="node">
<title>src/expressions/operators/binary&#45;operation.ts</title>
<path fill="none" stroke="#c6c5fe" d="M557.33,-554C557.33,-554 285.67,-554 285.67,-554 281.83,-554 278,-550.17 278,-546.33 278,-546.33 278,-538.67 278,-538.67 278,-534.83 281.83,-531 285.67,-531 285.67,-531 557.33,-531 557.33,-531 561.17,-531 565,-534.83 565,-538.67 565,-538.67 565,-546.33 565,-546.33 565,-550.17 561.17,-554 557.33,-554"/>
<text text-anchor="middle" x="421.5" y="-538.8" font-family="Arial" font-size="14.00" fill="#c6c5fe">src/expressions/operators/binary&#45;operation.ts</text>
</g>
<!-- src/app.ts&#45;&gt;src/expressions/operators/binary&#45;operation.ts -->
<g id="edge3" class="edge">
<title>src/app.ts&#45;&gt;src/expressions/operators/binary&#45;operation.ts</title>
<path fill="none" stroke="#757575" d="M1166.99,-669C1016.36,-669 463.5,-669 463.5,-669 463.5,-669 463.5,-564.17 463.5,-564.17"/>
<polygon fill="#757575" stroke="#757575" points="467,-564.17 463.5,-554.17 460,-564.17 467,-564.17"/>
</g>
<!-- src/handlers/access/module&#45;access.ts -->
<g id="node5" class="node">
<title>src/handlers/access/module&#45;access.ts</title>
<path fill="none" stroke="#c6c5fe" d="M1815.33,-495C1815.33,-495 1585.67,-495 1585.67,-495 1581.83,-495 1578,-491.17 1578,-487.33 1578,-487.33 1578,-479.67 1578,-479.67 1578,-475.83 1581.83,-472 1585.67,-472 1585.67,-472 1815.33,-472 1815.33,-472 1819.17,-472 1823,-475.83 1823,-479.67 1823,-479.67 1823,-487.33 1823,-487.33 1823,-491.17 1819.17,-495 1815.33,-495"/>
<text text-anchor="middle" x="1700.5" y="-479.8" font-family="Arial" font-size="14.00" fill="#c6c5fe">src/handlers/access/module&#45;access.ts</text>
</g>
<!-- src/app.ts&#45;&gt;src/handlers/access/module&#45;access.ts -->
<g id="edge4" class="edge">
<title>src/app.ts&#45;&gt;src/handlers/access/module&#45;access.ts</title>
<path fill="none" stroke="#757575" d="M1242.26,-658C1344.97,-658 1621.75,-658 1621.75,-658 1621.75,-658 1621.75,-505.22 1621.75,-505.22"/>
<polygon fill="#757575" stroke="#757575" points="1625.25,-505.22 1621.75,-495.22 1618.25,-505.22 1625.25,-505.22"/>
</g>
<!-- src/handlers/access/pointer&#45;operations.ts -->
<g id="node6" class="node">
<title>src/handlers/access/pointer&#45;operations.ts</title>
<path fill="none" stroke="#c6c5fe" d="M1431.33,-436C1431.33,-436 1183.67,-436 1183.67,-436 1179.83,-436 1176,-432.17 1176,-428.33 1176,-428.33 1176,-420.67 1176,-420.67 1176,-416.83 1179.83,-413 1183.67,-413 1183.67,-413 1431.33,-413 1431.33,-413 1435.17,-413 1439,-416.83 1439,-420.67 1439,-420.67 1439,-428.33 1439,-428.33 1439,-432.17 1435.17,-436 1431.33,-436"/>
<text text-anchor="middle" x="1307.5" y="-420.8" font-family="Arial" font-size="14.00" fill="#c6c5fe">src/handlers/access/pointer&#45;operations.ts</text>
</g>
<!-- src/app.ts&#45;&gt;src/handlers/access/pointer&#45;operations.ts -->
<g id="edge5" class="edge">
<title>src/app.ts&#45;&gt;src/handlers/access/pointer&#45;operations.ts</title>
<path fill="none" stroke="#757575" d="M1173.75,-648.99C1173.75,-612.85 1173.75,-504 1173.75,-504 1173.75,-504 1200.5,-504 1200.5,-504 1200.5,-504 1200.5,-446.23 1200.5,-446.23"/>
<polygon fill="#757575" stroke="#757575" points="1204,-446.23 1200.5,-436.23 1197,-446.23 1204,-446.23"/>
</g>
<!-- src/handlers/functions/lambda&#45;expressions.ts -->
<g id="node7" class="node">
<title>src/handlers/functions/lambda&#45;expressions.ts</title>
<path fill="none" stroke="#c6c5fe" d="M2995.33,-495C2995.33,-495 2723.67,-495 2723.67,-495 2719.83,-495 2716,-491.17 2716,-487.33 2716,-487.33 2716,-479.67 2716,-479.67 2716,-475.83 2719.83,-472 2723.67,-472 2723.67,-472 2995.33,-472 2995.33,-472 2999.17,-472 3003,-475.83 3003,-479.67 3003,-479.67 3003,-487.33 3003,-487.33 3003,-491.17 2999.17,-495 2995.33,-495"/>
<text text-anchor="middle" x="2859.5" y="-479.8" font-family="Arial" font-size="14.00" fill="#c6c5fe">src/handlers/functions/lambda&#45;expressions.ts</text>
</g>
<!-- src/app.ts&#45;&gt;src/handlers/functions/lambda&#45;expressions.ts -->
<g id="edge6" class="edge">
<title>src/app.ts&#45;&gt;src/handlers/functions/lambda&#45;expressions.ts</title>
<path fill="none" stroke="#757575" d="M1242.18,-668C1488.52,-668 2859.5,-668 2859.5,-668 2859.5,-668 2859.5,-505.04 2859.5,-505.04"/>
<polygon fill="#757575" stroke="#757575" points="2863,-505.04 2859.5,-495.04 2856,-505.04 2863,-505.04"/>
</g>
<!-- src/handlers/variables/dereference&#45;assignment.ts -->
<g id="node8" class="node">
<title>src/handlers/variables/dereference&#45;assignment.ts</title>
<path fill="none" stroke="#c6c5fe" d="M1513.83,-495C1513.83,-495 1217.17,-495 1217.17,-495 1213.33,-495 1209.5,-491.17 1209.5,-487.33 1209.5,-487.33 1209.5,-479.67 1209.5,-479.67 1209.5,-475.83 1213.33,-472 1217.17,-472 1217.17,-472 1513.83,-472 1513.83,-472 1517.67,-472 1521.5,-475.83 1521.5,-479.67 1521.5,-479.67 1521.5,-487.33 1521.5,-487.33 1521.5,-491.17 1517.67,-495 1513.83,-495"/>
<text text-anchor="middle" x="1365.5" y="-479.8" font-family="Arial" font-size="14.00" fill="#c6c5fe">src/handlers/variables/dereference&#45;assignment.ts</text>
</g>
<!-- src/app.ts&#45;&gt;src/handlers/variables/dereference&#45;assignment.ts -->
<g id="edge7" class="edge">
<title>src/app.ts&#45;&gt;src/handlers/variables/dereference&#45;assignment.ts</title>
<path fill="none" stroke="#757575" d="M1242.25,-652C1309.43,-652 1442.75,-652 1442.75,-652 1442.75,-652 1442.75,-505.08 1442.75,-505.08"/>
<polygon fill="#757575" stroke="#757575" points="1446.25,-505.08 1442.75,-495.08 1439.25,-505.08 1446.25,-505.08"/>
</g>
<!-- src/loops/for.ts -->
<g id="node9" class="node">
<title>src/loops/for.ts</title>
<path fill="none" stroke="#c6c5fe" d="M998.83,-613C998.83,-613 910.17,-613 910.17,-613 906.33,-613 902.5,-609.17 902.5,-605.33 902.5,-605.33 902.5,-597.67 902.5,-597.67 902.5,-593.83 906.33,-590 910.17,-590 910.17,-590 998.83,-590 998.83,-590 1002.67,-590 1006.5,-593.83 1006.5,-597.67 1006.5,-597.67 1006.5,-605.33 1006.5,-605.33 1006.5,-609.17 1002.67,-613 998.83,-613"/>
<text text-anchor="middle" x="954.5" y="-597.8" font-family="Arial" font-size="14.00" fill="#c6c5fe">src/loops/for.ts</text>
</g>
<!-- src/app.ts&#45;&gt;src/loops/for.ts -->
<g id="edge8" class="edge">
<title>src/app.ts&#45;&gt;src/loops/for.ts</title>
<path fill="none" stroke="#757575" d="M1166.56,-654C1106.19,-654 995,-654 995,-654 995,-654 995,-623.15 995,-623.15"/>
<polygon fill="#757575" stroke="#757575" points="998.5,-623.15 995,-613.15 991.5,-623.15 998.5,-623.15"/>
</g>
<!-- src/loops/loop.ts -->
<g id="node10" class="node">
<title>src/loops/loop.ts</title>
<path fill="none" stroke="#cfffac" d="M863.83,-554C863.83,-554 765.17,-554 765.17,-554 761.33,-554 757.5,-550.17 757.5,-546.33 757.5,-546.33 757.5,-538.67 757.5,-538.67 757.5,-534.83 761.33,-531 765.17,-531 765.17,-531 863.83,-531 863.83,-531 867.67,-531 871.5,-534.83 871.5,-538.67 871.5,-538.67 871.5,-546.33 871.5,-546.33 871.5,-550.17 867.67,-554 863.83,-554"/>
<text text-anchor="middle" x="814.5" y="-538.8" font-family="Arial" font-size="14.00" fill="#cfffac">src/loops/loop.ts</text>
</g>
<!-- src/app.ts&#45;&gt;src/loops/loop.ts -->
<g id="edge9" class="edge">
<title>src/app.ts&#45;&gt;src/loops/loop.ts</title>
<path fill="none" stroke="#757575" d="M1166.99,-666C1064.27,-666 786,-666 786,-666 786,-666 786,-564.34 786,-564.34"/>
<polygon fill="#757575" stroke="#757575" points="789.5,-564.34 786,-554.34 782.5,-564.34 789.5,-564.34"/>
</g>
<!-- src/loops/while.ts -->
<g id="node11" class="node">
<title>src/loops/while.ts</title>
<path fill="none" stroke="#c6c5fe" d="M1143.33,-613C1143.33,-613 1039.67,-613 1039.67,-613 1035.83,-613 1032,-609.17 1032,-605.33 1032,-605.33 1032,-597.67 1032,-597.67 1032,-593.83 1035.83,-590 1039.67,-590 1039.67,-590 1143.33,-590 1143.33,-590 1147.17,-590 1151,-593.83 1151,-597.67 1151,-597.67 1151,-605.33 1151,-605.33 1151,-609.17 1147.17,-613 1143.33,-613"/>
<text text-anchor="middle" x="1091.5" y="-597.8" font-family="Arial" font-size="14.00" fill="#c6c5fe">src/loops/while.ts</text>
</g>
<!-- src/app.ts&#45;&gt;src/loops/while.ts -->
<g id="edge10" class="edge">
<title>src/app.ts&#45;&gt;src/loops/while.ts</title>
<path fill="none" stroke="#757575" d="M1166.98,-651C1155.22,-651 1145.25,-651 1145.25,-651 1145.25,-651 1145.25,-623.23 1145.25,-623.23"/>
<polygon fill="#757575" stroke="#757575" points="1148.75,-623.23 1145.25,-613.23 1141.75,-623.23 1148.75,-623.23"/>
</g>
<!-- src/match.ts -->
<g id="node12" class="node">
<title>src/match.ts</title>
<path fill="none" stroke="#cfffac" d="M839.83,-495C839.83,-495 765.17,-495 765.17,-495 761.33,-495 757.5,-491.17 757.5,-487.33 757.5,-487.33 757.5,-479.67 757.5,-479.67 757.5,-475.83 761.33,-472 765.17,-472 765.17,-472 839.83,-472 839.83,-472 843.67,-472 847.5,-475.83 847.5,-479.67 847.5,-479.67 847.5,-487.33 847.5,-487.33 847.5,-491.17 843.67,-495 839.83,-495"/>
<text text-anchor="middle" x="802.5" y="-479.8" font-family="Arial" font-size="14.00" fill="#cfffac">src/match.ts</text>
</g>
<!-- src/app.ts&#45;&gt;src/match.ts -->
<g id="edge11" class="edge">
<title>src/app.ts&#45;&gt;src/match.ts</title>
<path fill="none" stroke="#757575" d="M1166.93,-663C1080.34,-663 874.14,-663 874.14,-663 874.14,-663 874.14,-487 874.14,-487 874.14,-487 857.87,-487 857.87,-487"/>
<polygon fill="#757575" stroke="#757575" points="857.87,-483.5 847.87,-487 857.87,-490.5 857.87,-483.5"/>
</g>
<!-- src/parser.ts -->
<g id="node13" class="node">
<title>src/parser.ts</title>
<path fill="none" stroke="#c6c5fe" d="M687.83,-141C687.83,-141 613.17,-141 613.17,-141 609.33,-141 605.5,-137.17 605.5,-133.33 605.5,-133.33 605.5,-125.67 605.5,-125.67 605.5,-121.83 609.33,-118 613.17,-118 613.17,-118 687.83,-118 687.83,-118 691.67,-118 695.5,-121.83 695.5,-125.67 695.5,-125.67 695.5,-133.33 695.5,-133.33 695.5,-137.17 691.67,-141 687.83,-141"/>
<text text-anchor="middle" x="650.5" y="-125.8" font-family="Arial" font-size="14.00" fill="#c6c5fe">src/parser.ts</text>
</g>
<!-- src/app.ts&#45;&gt;src/parser.ts -->
<g id="edge12" class="edge">
<title>src/app.ts&#45;&gt;src/parser.ts</title>
<path fill="none" stroke="#757575" d="M1166.91,-660C1080.83,-660 876.79,-660 876.79,-660 876.79,-660 876.79,-129 876.79,-129 876.79,-129 705.75,-129 705.75,-129"/>
<polygon fill="#757575" stroke="#757575" points="705.75,-125.5 695.75,-129 705.75,-132.5 705.75,-125.5"/>
</g>
<!-- src/scope.ts -->
<g id="node14" class="node">
<title>src/scope.ts</title>
<path fill="none" stroke="#c6c5fe" d="M2665.33,-613C2665.33,-613 2591.67,-613 2591.67,-613 2587.83,-613 2584,-609.17 2584,-605.33 2584,-605.33 2584,-597.67 2584,-597.67 2584,-593.83 2587.83,-590 2591.67,-590 2591.67,-590 2665.33,-590 2665.33,-590 2669.17,-590 2673,-593.83 2673,-597.67 2673,-597.67 2673,-605.33 2673,-605.33 2673,-609.17 2669.17,-613 2665.33,-613"/>
<text text-anchor="middle" x="2628.5" y="-597.8" font-family="Arial" font-size="14.00" fill="#c6c5fe">src/scope.ts</text>
</g>
<!-- src/app.ts&#45;&gt;src/scope.ts -->
<g id="edge13" class="edge">
<title>src/app.ts&#45;&gt;src/scope.ts</title>
<path fill="none" stroke="#757575" d="M1242.22,-665C1467.79,-665 2628.5,-665 2628.5,-665 2628.5,-665 2628.5,-623.15 2628.5,-623.15"/>
<polygon fill="#757575" stroke="#757575" points="2632,-623.15 2628.5,-613.15 2625,-623.15 2632,-623.15"/>
</g>
<!-- src/utils/app&#45;handlers.ts -->
<g id="node15" class="node">
<title>src/utils/app&#45;handlers.ts</title>
<path fill="none" stroke="#c6c5fe" d="M2094.33,-613C2094.33,-613 1950.67,-613 1950.67,-613 1946.83,-613 1943,-609.17 1943,-605.33 1943,-605.33 1943,-597.67 1943,-597.67 1943,-593.83 1946.83,-590 1950.67,-590 1950.67,-590 2094.33,-590 2094.33,-590 2098.17,-590 2102,-593.83 2102,-597.67 2102,-597.67 2102,-605.33 2102,-605.33 2102,-609.17 2098.17,-613 2094.33,-613"/>
<text text-anchor="middle" x="2022.5" y="-597.8" font-family="Arial" font-size="14.00" fill="#c6c5fe">src/utils/app&#45;handlers.ts</text>
</g>
<!-- src/app.ts&#45;&gt;src/utils/app&#45;handlers.ts -->
<g id="edge14" class="edge">
<title>src/app.ts&#45;&gt;src/utils/app&#45;handlers.ts</title>
<path fill="none" stroke="#757575" d="M1221.5,-648.89C1221.5,-633.16 1221.5,-607 1221.5,-607 1221.5,-607 1932.77,-607 1932.77,-607"/>
<polygon fill="#757575" stroke="#757575" points="1932.77,-610.5 1942.77,-607 1932.77,-603.5 1932.77,-610.5"/>
</g>
<!-- src/utils/array.ts -->
<g id="node16" class="node">
<title>src/utils/array.ts</title>
<path fill="none" stroke="#c6c5fe" d="M884.83,-82C884.83,-82 790.17,-82 790.17,-82 786.33,-82 782.5,-78.17 782.5,-74.33 782.5,-74.33 782.5,-66.67 782.5,-66.67 782.5,-62.83 786.33,-59 790.17,-59 790.17,-59 884.83,-59 884.83,-59 888.67,-59 892.5,-62.83 892.5,-66.67 892.5,-66.67 892.5,-74.33 892.5,-74.33 892.5,-78.17 888.67,-82 884.83,-82"/>
<text text-anchor="middle" x="837.5" y="-66.8" font-family="Arial" font-size="14.00" fill="#c6c5fe">src/utils/array.ts</text>
</g>
<!-- src/app.ts&#45;&gt;src/utils/array.ts -->
<g id="edge15" class="edge">
<title>src/app.ts&#45;&gt;src/utils/array.ts</title>
<path fill="none" stroke="#757575" d="M1166.89,-657C1081.32,-657 879.43,-657 879.43,-657 879.43,-657 879.43,-92.22 879.43,-92.22"/>
<polygon fill="#757575" stroke="#757575" points="882.93,-92.22 879.43,-82.22 875.93,-92.22 882.93,-92.22"/>
</g>
<!-- src/utils/this&#45;keyword.ts -->
<g id="node17" class="node">
<title>src/utils/this&#45;keyword.ts</title>
<path fill="none" stroke="#c6c5fe" d="M2475.83,-495C2475.83,-495 2335.17,-495 2335.17,-495 2331.33,-495 2327.5,-491.17 2327.5,-487.33 2327.5,-487.33 2327.5,-479.67 2327.5,-479.67 2327.5,-475.83 2331.33,-472 2335.17,-472 2335.17,-472 2475.83,-472 2475.83,-472 2479.67,-472 2483.5,-475.83 2483.5,-479.67 2483.5,-479.67 2483.5,-487.33 2483.5,-487.33 2483.5,-491.17 2479.67,-495 2475.83,-495"/>
<text text-anchor="middle" x="2405.5" y="-479.8" font-family="Arial" font-size="14.00" fill="#c6c5fe">src/utils/this&#45;keyword.ts</text>
</g>
<!-- src/app.ts&#45;&gt;src/utils/this&#45;keyword.ts -->
<g id="edge16" class="edge">
<title>src/app.ts&#45;&gt;src/utils/this&#45;keyword.ts</title>
<path fill="none" stroke="#757575" d="M1242.09,-662C1444.41,-662 2394.75,-662 2394.75,-662 2394.75,-662 2394.75,-505.21 2394.75,-505.21"/>
<polygon fill="#757575" stroke="#757575" points="2398.25,-505.21 2394.75,-495.21 2391.25,-505.21 2398.25,-505.21"/>
</g>
<!-- src/expressions/grouped&#45;expressions.ts&#45;&gt;src/expressions/handlers.ts -->
<g id="edge23" class="edge">
<title>src/expressions/grouped&#45;expressions.ts&#45;&gt;src/expressions/handlers.ts</title>
<path fill="none" stroke="#757575" d="M1434.73,-542C1481.38,-542 1523,-542 1523,-542 1523,-542 1523,-269.04 1523,-269.04"/>
<polygon fill="#757575" stroke="#757575" points="1526.5,-269.04 1523,-259.04 1519.5,-269.04 1526.5,-269.04"/>
</g>
<!-- src/expressions/grouped&#45;expressions.ts&#45;&gt;src/match.ts -->
<g id="edge24" class="edge">
<title>src/expressions/grouped&#45;expressions.ts&#45;&gt;src/match.ts</title>
<path fill="none" stroke="#757575" d="M1183.25,-530.81C1183.25,-526.21 1183.25,-522 1183.25,-522 1183.25,-522 802.5,-522 802.5,-522 802.5,-522 802.5,-505.26 802.5,-505.26"/>
<polygon fill="#757575" stroke="#757575" points="806,-505.26 802.5,-495.26 799,-505.26 806,-505.26"/>
</g>
<!-- src/expressions/grouped&#45;expressions.ts&#45;&gt;src/utils/array.ts -->
<g id="edge26" class="edge">
<title>src/expressions/grouped&#45;expressions.ts&#45;&gt;src/utils/array.ts</title>
<path fill="none" stroke="#757575" d="M1186,-530.84C1186,-522.6 1186,-513 1186,-513 1186,-513 882.07,-513 882.07,-513 882.07,-513 882.07,-92.34 882.07,-92.34"/>
<polygon fill="#757575" stroke="#757575" points="885.57,-92.34 882.07,-82.34 878.57,-92.34 885.57,-92.34"/>
</g>
<!-- src/expressions/drop&#45;handlers.ts -->
<g id="node19" class="node">
<title>src/expressions/drop&#45;handlers.ts</title>
<path fill="none" stroke="#c6c5fe" d="M1183.83,-495C1183.83,-495 987.17,-495 987.17,-495 983.33,-495 979.5,-491.17 979.5,-487.33 979.5,-487.33 979.5,-479.67 979.5,-479.67 979.5,-475.83 983.33,-472 987.17,-472 987.17,-472 1183.83,-472 1183.83,-472 1187.67,-472 1191.5,-475.83 1191.5,-479.67 1191.5,-479.67 1191.5,-487.33 1191.5,-487.33 1191.5,-491.17 1187.67,-495 1183.83,-495"/>
<text text-anchor="middle" x="1085.5" y="-479.8" font-family="Arial" font-size="14.00" fill="#c6c5fe">src/expressions/drop&#45;handlers.ts</text>
</g>
<!-- src/expressions/grouped&#45;expressions.ts&#45;&gt;src/expressions/drop&#45;handlers.ts -->
<g id="edge22" class="edge">
<title>src/expressions/grouped&#45;expressions.ts&#45;&gt;src/expressions/drop&#45;handlers.ts</title>
<path fill="none" stroke="#757575" d="M1188.75,-530.84C1188.75,-530.84 1188.75,-505.13 1188.75,-505.13"/>
<polygon fill="#757575" stroke="#757575" points="1192.25,-505.13 1188.75,-495.13 1185.25,-505.13 1192.25,-505.13"/>
</g>
<!-- src/types/structs.ts -->
<g id="node21" class="node">
<title>src/types/structs.ts</title>
<path fill="none" stroke="#c6c5fe" d="M1955.83,-377C1955.83,-377 1843.17,-377 1843.17,-377 1839.33,-377 1835.5,-373.17 1835.5,-369.33 1835.5,-369.33 1835.5,-361.67 1835.5,-361.67 1835.5,-357.83 1839.33,-354 1843.17,-354 1843.17,-354 1955.83,-354 1955.83,-354 1959.67,-354 1963.5,-357.83 1963.5,-361.67 1963.5,-361.67 1963.5,-369.33 1963.5,-369.33 1963.5,-373.17 1959.67,-377 1955.83,-377"/>
<text text-anchor="middle" x="1899.5" y="-361.8" font-family="Arial" font-size="14.00" fill="#c6c5fe">src/types/structs.ts</text>
</g>
<!-- src/expressions/grouped&#45;expressions.ts&#45;&gt;src/types/structs.ts -->
<g id="edge25" class="edge">
<title>src/expressions/grouped&#45;expressions.ts&#45;&gt;src/types/structs.ts</title>
<path fill="none" stroke="#757575" d="M1434.85,-550C1601.72,-550 1873.38,-550 1873.38,-550 1873.38,-550 1873.38,-387.04 1873.38,-387.04"/>
<polygon fill="#757575" stroke="#757575" points="1876.88,-387.04 1873.38,-377.04 1869.88,-387.04 1876.88,-387.04"/>
</g>
<!-- src/utils/identifier&#45;utils.ts -->
<g id="node22" class="node">
<title>src/utils/identifier&#45;utils.ts</title>
<path fill="none" stroke="#cfffac" d="M1734.83,-318C1734.83,-318 1590.17,-318 1590.17,-318 1586.33,-318 1582.5,-314.17 1582.5,-310.33 1582.5,-310.33 1582.5,-302.67 1582.5,-302.67 1582.5,-298.83 1586.33,-295 1590.17,-295 1590.17,-295 1734.83,-295 1734.83,-295 1738.67,-295 1742.5,-298.83 1742.5,-302.67 1742.5,-302.67 1742.5,-310.33 1742.5,-310.33 1742.5,-314.17 1738.67,-318 1734.83,-318"/>
<text text-anchor="middle" x="1662.5" y="-302.8" font-family="Arial" font-size="14.00" fill="#cfffac">src/utils/identifier&#45;utils.ts</text>
</g>
<!-- src/expressions/grouped&#45;expressions.ts&#45;&gt;src/utils/identifier&#45;utils.ts -->
<g id="edge27" class="edge">
<title>src/expressions/grouped&#45;expressions.ts&#45;&gt;src/utils/identifier&#45;utils.ts</title>
<path fill="none" stroke="#757575" d="M1434.52,-546C1483.3,-546 1527.5,-546 1527.5,-546 1527.5,-546 1527.5,-277 1527.5,-277 1527.5,-277 1594.5,-277 1594.5,-277 1594.5,-277 1594.5,-284.84 1594.5,-284.84"/>
<polygon fill="#757575" stroke="#757575" points="1591,-284.84 1594.5,-294.84 1598,-284.84 1591,-284.84"/>
</g>
<!-- src/handlers/variables/assignment.ts -->
<g id="node23" class="node">
<title>src/handlers/variables/assignment.ts</title>
<path fill="none" stroke="#c6c5fe" d="M1626.83,-200C1626.83,-200 1406.17,-200 1406.17,-200 1402.33,-200 1398.5,-196.17 1398.5,-192.33 1398.5,-192.33 1398.5,-184.67 1398.5,-184.67 1398.5,-180.83 1402.33,-177 1406.17,-177 1406.17,-177 1626.83,-177 1626.83,-177 1630.67,-177 1634.5,-180.83 1634.5,-184.67 1634.5,-184.67 1634.5,-192.33 1634.5,-192.33 1634.5,-196.17 1630.67,-200 1626.83,-200"/>
<text text-anchor="middle" x="1516.5" y="-184.8" font-family="Arial" font-size="14.00" fill="#c6c5fe">src/handlers/variables/assignment.ts</text>
</g>
<!-- src/expressions/handlers.ts&#45;&gt;src/handlers/variables/assignment.ts -->
<g id="edge28" class="edge">
<title>src/expressions/handlers.ts&#45;&gt;src/handlers/variables/assignment.ts</title>
<path fill="none" stroke="#757575" d="M1516.5,-235.84C1516.5,-235.84 1516.5,-210.13 1516.5,-210.13"/>
<polygon fill="#757575" stroke="#757575" points="1520,-210.13 1516.5,-200.13 1513,-210.13 1520,-210.13"/>
</g>
<!-- src/types/interpreter.ts -->
<g id="node24" class="node">
<title>src/types/interpreter.ts</title>
<path fill="none" stroke="#cfffac" d="M1448.33,-141C1448.33,-141 1314.67,-141 1314.67,-141 1310.83,-141 1307,-137.17 1307,-133.33 1307,-133.33 1307,-125.67 1307,-125.67 1307,-121.83 1310.83,-118 1314.67,-118 1314.67,-118 1448.33,-118 1448.33,-118 1452.17,-118 1456,-121.83 1456,-125.67 1456,-125.67 1456,-133.33 1456,-133.33 1456,-137.17 1452.17,-141 1448.33,-141"/>
<text text-anchor="middle" x="1381.5" y="-125.8" font-family="Arial" font-size="14.00" fill="#cfffac">src/types/interpreter.ts</text>
</g>
<!-- src/expressions/handlers.ts&#45;&gt;src/types/interpreter.ts -->
<g id="edge29" class="edge">
<title>src/expressions/handlers.ts&#45;&gt;src/types/interpreter.ts</title>
<path fill="none" stroke="#757575" d="M1426.48,-240C1388.43,-240 1352.75,-240 1352.75,-240 1352.75,-240 1352.75,-151.33 1352.75,-151.33"/>
<polygon fill="#757575" stroke="#757575" points="1356.25,-151.33 1352.75,-141.33 1349.25,-151.33 1356.25,-151.33"/>
</g>
<!-- src/utils/scope&#45;helpers.ts -->
<g id="node25" class="node">
<title>src/utils/scope&#45;helpers.ts</title>
<path fill="none" stroke="#c6c5fe" d="M2858.33,-200C2858.33,-200 2708.67,-200 2708.67,-200 2704.83,-200 2701,-196.17 2701,-192.33 2701,-192.33 2701,-184.67 2701,-184.67 2701,-180.83 2704.83,-177 2708.67,-177 2708.67,-177 2858.33,-177 2858.33,-177 2862.17,-177 2866,-180.83 2866,-184.67 2866,-184.67 2866,-192.33 2866,-192.33 2866,-196.17 2862.17,-200 2858.33,-200"/>
<text text-anchor="middle" x="2783.5" y="-184.8" font-family="Arial" font-size="14.00" fill="#c6c5fe">src/utils/scope&#45;helpers.ts</text>
</g>
<!-- src/expressions/handlers.ts&#45;&gt;src/utils/scope&#45;helpers.ts -->
<g id="edge30" class="edge">
<title>src/expressions/handlers.ts&#45;&gt;src/utils/scope&#45;helpers.ts</title>
<path fill="none" stroke="#757575" d="M1606.64,-238C1891.87,-238 2756,-238 2756,-238 2756,-238 2756,-210.23 2756,-210.23"/>
<polygon fill="#757575" stroke="#757575" points="2759.5,-210.23 2756,-200.23 2752.5,-210.23 2759.5,-210.23"/>
</g>
<!-- src/expressions/operators/binary&#45;operation.ts&#45;&gt;src/expressions/handlers.ts -->
<g id="edge31" class="edge">
<title>src/expressions/operators/binary&#45;operation.ts&#45;&gt;src/expressions/handlers.ts</title>
<path fill="none" stroke="#757575" d="M565.15,-546C653.14,-546 749,-546 749,-546 749,-546 749,-245 749,-245 749,-245 1416.2,-245 1416.2,-245"/>
<polygon fill="#757575" stroke="#757575" points="1416.2,-248.5 1426.2,-245 1416.2,-241.5 1416.2,-248.5"/>
</g>
<!-- src/expressions/operators/binary&#45;operation.ts&#45;&gt;src/parser.ts -->
<g id="edge33" class="edge">
<title>src/expressions/operators/binary&#45;operation.ts&#45;&gt;src/parser.ts</title>
<path fill="none" stroke="#757575" d="M565.05,-538C651.32,-538 744.5,-538 744.5,-538 744.5,-538 744.5,-135 744.5,-135 744.5,-135 705.57,-135 705.57,-135"/>
<polygon fill="#757575" stroke="#757575" points="705.57,-131.5 695.57,-135 705.57,-138.5 705.57,-131.5"/>
</g>
<!-- src/expressions/operators/operators.ts -->
<g id="node26" class="node">
<title>src/expressions/operators/operators.ts</title>
<path fill="none" stroke="#c6c5fe" d="M487.83,-495C487.83,-495 257.17,-495 257.17,-495 253.33,-495 249.5,-491.17 249.5,-487.33 249.5,-487.33 249.5,-479.67 249.5,-479.67 249.5,-475.83 253.33,-472 257.17,-472 257.17,-472 487.83,-472 487.83,-472 491.67,-472 495.5,-475.83 495.5,-479.67 495.5,-479.67 495.5,-487.33 495.5,-487.33 495.5,-491.17 491.67,-495 487.83,-495"/>
<text text-anchor="middle" x="372.5" y="-479.8" font-family="Arial" font-size="14.00" fill="#c6c5fe">src/expressions/operators/operators.ts</text>
</g>
<!-- src/expressions/operators/binary&#45;operation.ts&#45;&gt;src/expressions/operators/operators.ts -->
<g id="edge32" class="edge">
<title>src/expressions/operators/binary&#45;operation.ts&#45;&gt;src/expressions/operators/operators.ts</title>
<path fill="none" stroke="#757575" d="M386.75,-530.84C386.75,-530.84 386.75,-505.13 386.75,-505.13"/>
<polygon fill="#757575" stroke="#757575" points="390.25,-505.13 386.75,-495.13 383.25,-505.13 390.25,-505.13"/>
</g>
<!-- src/handlers/access/module&#45;access.ts&#45;&gt;src/expressions/handlers.ts -->
<g id="edge57" class="edge">
<title>src/handlers/access/module&#45;access.ts&#45;&gt;src/expressions/handlers.ts</title>
<path fill="none" stroke="#757575" d="M1577.69,-487C1550.2,-487 1529,-487 1529,-487 1529,-487 1529,-269.05 1529,-269.05"/>
<polygon fill="#757575" stroke="#757575" points="1532.5,-269.05 1529,-259.05 1525.5,-269.05 1532.5,-269.05"/>
</g>
<!-- src/handlers/access/module&#45;access.ts&#45;&gt;src/utils/identifier&#45;utils.ts -->
<g id="edge60" class="edge">
<title>src/handlers/access/module&#45;access.ts&#45;&gt;src/utils/identifier&#45;utils.ts</title>
<path fill="none" stroke="#757575" d="M1577.6,-479C1551.69,-479 1532,-479 1532,-479 1532,-479 1532,-310 1532,-310 1532,-310 1572.45,-310 1572.45,-310"/>
<polygon fill="#757575" stroke="#757575" points="1572.45,-313.5 1582.45,-310 1572.45,-306.5 1572.45,-313.5"/>
</g>
<!-- src/types/modules.ts -->
<g id="node38" class="node">
<title>src/types/modules.ts</title>
<path fill="none" stroke="#c6c5fe" d="M1815.83,-436C1815.83,-436 1691.17,-436 1691.17,-436 1687.33,-436 1683.5,-432.17 1683.5,-428.33 1683.5,-428.33 1683.5,-420.67 1683.5,-420.67 1683.5,-416.83 1687.33,-413 1691.17,-413 1691.17,-413 1815.83,-413 1815.83,-413 1819.67,-413 1823.5,-416.83 1823.5,-420.67 1823.5,-420.67 1823.5,-428.33 1823.5,-428.33 1823.5,-432.17 1819.67,-436 1815.83,-436"/>
<text text-anchor="middle" x="1753.5" y="-420.8" font-family="Arial" font-size="14.00" fill="#c6c5fe">src/types/modules.ts</text>
</g>
<!-- src/handlers/access/module&#45;access.ts&#45;&gt;src/types/modules.ts -->
<g id="edge58" class="edge">
<title>src/handlers/access/module&#45;access.ts&#45;&gt;src/types/modules.ts</title>
<path fill="none" stroke="#757575" d="M1753.25,-471.84C1753.25,-471.84 1753.25,-446.13 1753.25,-446.13"/>
<polygon fill="#757575" stroke="#757575" points="1756.75,-446.13 1753.25,-436.13 1749.75,-446.13 1756.75,-446.13"/>
</g>
<!-- src/types/objects.ts -->
<g id="node39" class="node">
<title>src/types/objects.ts</title>
<path fill="none" stroke="#c6c5fe" d="M1657.33,-436C1657.33,-436 1541.67,-436 1541.67,-436 1537.83,-436 1534,-432.17 1534,-428.33 1534,-428.33 1534,-420.67 1534,-420.67 1534,-416.83 1537.83,-413 1541.67,-413 1541.67,-413 1657.33,-413 1657.33,-413 1661.17,-413 1665,-416.83 1665,-420.67 1665,-420.67 1665,-428.33 1665,-428.33 1665,-432.17 1661.17,-436 1657.33,-436"/>
<text text-anchor="middle" x="1599.5" y="-420.8" font-family="Arial" font-size="14.00" fill="#c6c5fe">src/types/objects.ts</text>
</g>
<!-- src/handlers/access/module&#45;access.ts&#45;&gt;src/types/objects.ts -->
<g id="edge59" class="edge">
<title>src/handlers/access/module&#45;access.ts&#45;&gt;src/types/objects.ts</title>
<path fill="none" stroke="#757575" d="M1621.5,-471.84C1621.5,-471.84 1621.5,-446.13 1621.5,-446.13"/>
<polygon fill="#757575" stroke="#757575" points="1625,-446.13 1621.5,-436.13 1618,-446.13 1625,-446.13"/>
</g>
<!-- src/handlers/access/pointer&#45;operations.ts&#45;&gt;src/utils/identifier&#45;utils.ts -->
<g id="edge61" class="edge">
<title>src/handlers/access/pointer&#45;operations.ts&#45;&gt;src/utils/identifier&#45;utils.ts</title>
<path fill="none" stroke="#757575" d="M1432.75,-412.75C1432.75,-382.09 1432.75,-302 1432.75,-302 1432.75,-302 1572.47,-302 1572.47,-302"/>
<polygon fill="#757575" stroke="#757575" points="1572.47,-305.5 1582.47,-302 1572.47,-298.5 1572.47,-305.5"/>
</g>
<!-- src/functions.ts -->
<g id="node20" class="node">
<title>src/functions.ts</title>
<path fill="none" stroke="#c6c5fe" d="M2829.33,-436C2829.33,-436 2737.67,-436 2737.67,-436 2733.83,-436 2730,-432.17 2730,-428.33 2730,-428.33 2730,-420.67 2730,-420.67 2730,-416.83 2733.83,-413 2737.67,-413 2737.67,-413 2829.33,-413 2829.33,-413 2833.17,-413 2837,-416.83 2837,-420.67 2837,-420.67 2837,-428.33 2837,-428.33 2837,-432.17 2833.17,-436 2829.33,-436"/>
<text text-anchor="middle" x="2783.5" y="-420.8" font-family="Arial" font-size="14.00" fill="#c6c5fe">src/functions.ts</text>
</g>
<!-- src/handlers/functions/lambda&#45;expressions.ts&#45;&gt;src/functions.ts -->
<g id="edge70" class="edge">
<title>src/handlers/functions/lambda&#45;expressions.ts&#45;&gt;src/functions.ts</title>
<path fill="none" stroke="#757575" d="M2801.33,-471.84C2801.33,-471.84 2801.33,-446.13 2801.33,-446.13"/>
<polygon fill="#757575" stroke="#757575" points="2804.83,-446.13 2801.33,-436.13 2797.83,-446.13 2804.83,-446.13"/>
</g>
<!-- src/handlers/functions/anonymous&#45;functions.ts -->
<g id="node33" class="node">
<title>src/handlers/functions/anonymous&#45;functions.ts</title>
<path fill="none" stroke="#c6c5fe" d="M3307.33,-377C3307.33,-377 3027.67,-377 3027.67,-377 3023.83,-377 3020,-373.17 3020,-369.33 3020,-369.33 3020,-361.67 3020,-361.67 3020,-357.83 3023.83,-354 3027.67,-354 3027.67,-354 3307.33,-354 3307.33,-354 3311.17,-354 3315,-357.83 3315,-361.67 3315,-361.67 3315,-369.33 3315,-369.33 3315,-373.17 3311.17,-377 3307.33,-377"/>
<text text-anchor="middle" x="3167.5" y="-361.8" font-family="Arial" font-size="14.00" fill="#c6c5fe">src/handlers/functions/anonymous&#45;functions.ts</text>
</g>
<!-- src/handlers/functions/lambda&#45;expressions.ts&#45;&gt;src/handlers/functions/anonymous&#45;functions.ts -->
<g id="edge71" class="edge">
<title>src/handlers/functions/lambda&#45;expressions.ts&#45;&gt;src/handlers/functions/anonymous&#45;functions.ts</title>
<path fill="none" stroke="#757575" d="M2977.17,-471.7C2977.17,-441.73 2977.17,-365 2977.17,-365 2977.17,-365 3009.88,-365 3009.88,-365"/>
<polygon fill="#757575" stroke="#757575" points="3009.88,-368.5 3019.88,-365 3009.88,-361.5 3009.88,-368.5"/>
</g>
<!-- src/handlers/variables/dereference&#45;assignment.ts&#45;&gt;src/expressions/handlers.ts -->
<g id="edge82" class="edge">
<title>src/handlers/variables/dereference&#45;assignment.ts&#45;&gt;src/expressions/handlers.ts</title>
<path fill="none" stroke="#757575" d="M1480.25,-471.8C1480.25,-471.8 1480.25,-269.27 1480.25,-269.27"/>
<polygon fill="#757575" stroke="#757575" points="1483.75,-269.27 1480.25,-259.27 1476.75,-269.27 1483.75,-269.27"/>
</g>
<!-- src/handlers/variables/dereference&#45;assignment.ts&#45;&gt;src/handlers/access/pointer&#45;operations.ts -->
<g id="edge83" class="edge">
<title>src/handlers/variables/dereference&#45;assignment.ts&#45;&gt;src/handlers/access/pointer&#45;operations.ts</title>
<path fill="none" stroke="#757575" d="M1324.25,-471.84C1324.25,-471.84 1324.25,-446.13 1324.25,-446.13"/>
<polygon fill="#757575" stroke="#757575" points="1327.75,-446.13 1324.25,-436.13 1320.75,-446.13 1327.75,-446.13"/>
</g>
<!-- src/loops/for.ts&#45;&gt;src/loops/loop.ts -->
<g id="edge87" class="edge">
<title>src/loops/for.ts&#45;&gt;src/loops/loop.ts</title>
<path fill="none" stroke="#757575" d="M902.37,-601C862.57,-601 814.5,-601 814.5,-601 814.5,-601 814.5,-564.06 814.5,-564.06"/>
<polygon fill="#757575" stroke="#757575" points="818,-564.06 814.5,-554.06 811,-564.06 818,-564.06"/>
</g>
<!-- src/loops/helpers.ts -->
<g id="node42" class="node">
<title>src/loops/helpers.ts</title>
<path fill="none" stroke="#cfffac" d="M1154.33,-554C1154.33,-554 1036.67,-554 1036.67,-554 1032.83,-554 1029,-550.17 1029,-546.33 1029,-546.33 1029,-538.67 1029,-538.67 1029,-534.83 1032.83,-531 1036.67,-531 1036.67,-531 1154.33,-531 1154.33,-531 1158.17,-531 1162,-534.83 1162,-538.67 1162,-538.67 1162,-546.33 1162,-546.33 1162,-550.17 1158.17,-554 1154.33,-554"/>
<text text-anchor="middle" x="1095.5" y="-538.8" font-family="Arial" font-size="14.00" fill="#cfffac">src/loops/helpers.ts</text>
</g>
<!-- src/loops/for.ts&#45;&gt;src/loops/helpers.ts -->
<g id="edge86" class="edge">
<title>src/loops/for.ts&#45;&gt;src/loops/helpers.ts</title>
<path fill="none" stroke="#757575" d="M1006.77,-597C1016.14,-597 1023,-597 1023,-597 1023,-597 1023,-546 1023,-546 1023,-546 1023.57,-546 1023.57,-546"/>
<polygon fill="#757575" stroke="#757575" points="1018.69,-549.5 1028.69,-546 1018.69,-542.5 1018.69,-549.5"/>
</g>
<!-- src/loops/types.ts -->
<g id="node43" class="node">
<title>src/loops/types.ts</title>
<path fill="none" stroke="#c6c5fe" d="M1003.33,-554C1003.33,-554 897.67,-554 897.67,-554 893.83,-554 890,-550.17 890,-546.33 890,-546.33 890,-538.67 890,-538.67 890,-534.83 893.83,-531 897.67,-531 897.67,-531 1003.33,-531 1003.33,-531 1007.17,-531 1011,-534.83 1011,-538.67 1011,-538.67 1011,-546.33 1011,-546.33 1011,-550.17 1007.17,-554 1003.33,-554"/>
<text text-anchor="middle" x="950.5" y="-538.8" font-family="Arial" font-size="14.00" fill="#c6c5fe">src/loops/types.ts</text>
</g>
<!-- src/loops/for.ts&#45;&gt;src/loops/types.ts -->
<g id="edge88" class="edge">
<title>src/loops/for.ts&#45;&gt;src/loops/types.ts</title>
<path fill="none" stroke="#757575" d="M954.5,-589.84C954.5,-589.84 954.5,-564.13 954.5,-564.13"/>
<polygon fill="#757575" stroke="#757575" points="958,-564.13 954.5,-554.13 951,-564.13 958,-564.13"/>
</g>
<!-- src/loops/while.ts&#45;&gt;src/loops/loop.ts -->
<g id="edge91" class="edge">
<title>src/loops/while.ts&#45;&gt;src/loops/loop.ts</title>
<path fill="none" stroke="#757575" d="M1071.67,-589.84C1071.67,-581.6 1071.67,-572 1071.67,-572 1071.67,-572 843,-572 843,-572 843,-572 843,-564.16 843,-564.16"/>
<polygon fill="#757575" stroke="#757575" points="846.5,-564.16 843,-554.16 839.5,-564.16 846.5,-564.16"/>
</g>
<!-- src/loops/while.ts&#45;&gt;src/loops/helpers.ts -->
<g id="edge90" class="edge">
<title>src/loops/while.ts&#45;&gt;src/loops/helpers.ts</title>
<path fill="none" stroke="#757575" d="M1111.33,-589.84C1111.33,-589.84 1111.33,-564.13 1111.33,-564.13"/>
<polygon fill="#757575" stroke="#757575" points="1114.83,-564.13 1111.33,-554.13 1107.83,-564.13 1114.83,-564.13"/>
</g>
<!-- src/loops/while.ts&#45;&gt;src/loops/types.ts -->
<g id="edge92" class="edge">
<title>src/loops/while.ts&#45;&gt;src/loops/types.ts</title>
<path fill="none" stroke="#757575" d="M1031.72,-605C1023.06,-605 1017,-605 1017,-605 1017,-605 1017,-538 1017,-538 1017,-538 1016.43,-538 1016.43,-538"/>
<polygon fill="#757575" stroke="#757575" points="1021.33,-534.5 1011.33,-538 1021.33,-541.5 1021.33,-534.5"/>
</g>
<!-- src/parser.ts&#45;&gt;src/utils/array.ts -->
<g id="edge94" class="edge">
<title>src/parser.ts&#45;&gt;src/utils/array.ts</title>
<path fill="none" stroke="#757575" d="M695.89,-123C744.58,-123 815,-123 815,-123 815,-123 815,-92.15 815,-92.15"/>
<polygon fill="#757575" stroke="#757575" points="818.5,-92.15 815,-82.15 811.5,-92.15 818.5,-92.15"/>
</g>
<!-- src/type&#45;utils.ts -->
<g id="node30" class="node">
<title>src/type&#45;utils.ts</title>
<path fill="none" stroke="#cfffac" d="M2829.33,-23C2829.33,-23 2737.67,-23 2737.67,-23 2733.83,-23 2730,-19.17 2730,-15.33 2730,-15.33 2730,-7.67 2730,-7.67 2730,-3.83 2733.83,0 2737.67,0 2737.67,0 2829.33,0 2829.33,0 2833.17,0 2837,-3.83 2837,-7.67 2837,-7.67 2837,-15.33 2837,-15.33 2837,-19.17 2833.17,-23 2829.33,-23"/>
<text text-anchor="middle" x="2783.5" y="-7.8" font-family="Arial" font-size="14.00" fill="#cfffac">src/type&#45;utils.ts</text>
</g>
<!-- src/parser.ts&#45;&gt;src/type&#45;utils.ts -->
<g id="edge93" class="edge">
<title>src/parser.ts&#45;&gt;src/type&#45;utils.ts</title>
<path fill="none" stroke="#757575" d="M650.5,-117.56C650.5,-86.4 650.5,-5 650.5,-5 650.5,-5 2719.97,-5 2719.97,-5"/>
<polygon fill="#757575" stroke="#757575" points="2719.97,-8.5 2729.97,-5 2719.97,-1.5 2719.97,-8.5"/>
</g>
<!-- src/scope.ts&#45;&gt;src/expressions/handlers.ts -->
<g id="edge95" class="edge">
<title>src/scope.ts&#45;&gt;src/expressions/handlers.ts</title>
<path fill="none" stroke="#757575" d="M2607,-589.95C2607,-528.41 2607,-242 2607,-242 2607,-242 1616.67,-242 1616.67,-242"/>
<polygon fill="#757575" stroke="#757575" points="1616.67,-238.5 1606.67,-242 1616.67,-245.5 1616.67,-238.5"/>
</g>
<!-- src/scope.ts&#45;&gt;src/utils/scope&#45;helpers.ts -->
<g id="edge98" class="edge">
<title>src/scope.ts&#45;&gt;src/utils/scope&#45;helpers.ts</title>
<path fill="none" stroke="#757575" d="M2618.5,-589.57C2618.5,-521.77 2618.5,-188 2618.5,-188 2618.5,-188 2690.52,-188 2690.52,-188"/>
<polygon fill="#757575" stroke="#757575" points="2690.52,-191.5 2700.52,-188 2690.52,-184.5 2690.52,-191.5"/>
</g>
<!-- src/handlers/variables/declaration&#45;helpers.ts -->
<g id="node40" class="node">
<title>src/handlers/variables/declaration&#45;helpers.ts</title>
<path fill="none" stroke="#c6c5fe" d="M3566.33,-554C3566.33,-554 3300.67,-554 3300.67,-554 3296.83,-554 3293,-550.17 3293,-546.33 3293,-546.33 3293,-538.67 3293,-538.67 3293,-534.83 3296.83,-531 3300.67,-531 3300.67,-531 3566.33,-531 3566.33,-531 3570.17,-531 3574,-534.83 3574,-538.67 3574,-538.67 3574,-546.33 3574,-546.33 3574,-550.17 3570.17,-554 3566.33,-554"/>
<text text-anchor="middle" x="3433.5" y="-538.8" font-family="Arial" font-size="14.00" fill="#c6c5fe">src/handlers/variables/declaration&#45;helpers.ts</text>
</g>
<!-- src/scope.ts&#45;&gt;src/handlers/variables/declaration&#45;helpers.ts -->
<g id="edge96" class="edge">
<title>src/scope.ts&#45;&gt;src/handlers/variables/declaration&#45;helpers.ts</title>
<path fill="none" stroke="#757575" d="M2657.25,-589.73C2657.25,-573.44 2657.25,-546 2657.25,-546 2657.25,-546 3282.93,-546 3282.93,-546"/>
<polygon fill="#757575" stroke="#757575" points="3282.93,-549.5 3292.93,-546 3282.93,-542.5 3282.93,-549.5"/>
</g>
<!-- src/handlers/variables/destructuring.ts -->
<g id="node41" class="node">
<title>src/handlers/variables/destructuring.ts</title>
<path fill="none" stroke="#c6c5fe" d="M2554.83,-436C2554.83,-436 2326.17,-436 2326.17,-436 2322.33,-436 2318.5,-432.17 2318.5,-428.33 2318.5,-428.33 2318.5,-420.67 2318.5,-420.67 2318.5,-416.83 2322.33,-413 2326.17,-413 2326.17,-413 2554.83,-413 2554.83,-413 2558.67,-413 2562.5,-416.83 2562.5,-420.67 2562.5,-420.67 2562.5,-428.33 2562.5,-428.33 2562.5,-432.17 2558.67,-436 2554.83,-436"/>
<text text-anchor="middle" x="2440.5" y="-420.8" font-family="Arial" font-size="14.00" fill="#c6c5fe">src/handlers/variables/destructuring.ts</text>
</g>
<!-- src/scope.ts&#45;&gt;src/handlers/variables/destructuring.ts -->
<g id="edge97" class="edge">
<title>src/scope.ts&#45;&gt;src/handlers/variables/destructuring.ts</title>
<path fill="none" stroke="#757575" d="M2595.5,-589.85C2595.5,-551.55 2595.5,-432 2595.5,-432 2595.5,-432 2572.63,-432 2572.63,-432"/>
<polygon fill="#757575" stroke="#757575" points="2572.63,-428.5 2562.63,-432 2572.63,-435.5 2572.63,-428.5"/>
</g>
<!-- src/utils/app&#45;handlers.ts&#45;&gt;src/expressions/handlers.ts -->
<g id="edge110" class="edge">
<title>src/utils/app&#45;handlers.ts&#45;&gt;src/expressions/handlers.ts</title>
<path fill="none" stroke="#757575" d="M1942.73,-601C1802.38,-601 1526,-601 1526,-601 1526,-601 1526,-269.26 1526,-269.26"/>
<polygon fill="#757575" stroke="#757575" points="1529.5,-269.26 1526,-259.26 1522.5,-269.26 1529.5,-269.26"/>
</g>
<!-- src/utils/app&#45;handlers.ts&#45;&gt;src/functions.ts -->
<g id="edge112" class="edge">
<title>src/utils/app&#45;handlers.ts&#45;&gt;src/functions.ts</title>
<path fill="none" stroke="#757575" d="M2102.04,-601C2255.99,-601 2579.7,-601 2579.7,-601 2579.7,-601 2579.7,-428 2579.7,-428 2579.7,-428 2719.95,-428 2719.95,-428"/>
<polygon fill="#757575" stroke="#757575" points="2719.95,-431.5 2729.95,-428 2719.95,-424.5 2719.95,-431.5"/>
</g>
<!-- src/utils/app&#45;handlers.ts&#45;&gt;src/types/structs.ts -->
<g id="edge116" class="edge">
<title>src/utils/app&#45;handlers.ts&#45;&gt;src/types/structs.ts</title>
<path fill="none" stroke="#757575" d="M1949.83,-589.8C1949.83,-589.8 1949.83,-387.27 1949.83,-387.27"/>
<polygon fill="#757575" stroke="#757575" points="1953.33,-387.27 1949.83,-377.27 1946.33,-387.27 1953.33,-387.27"/>
</g>
<!-- src/expressions/operators/unary&#45;operation.ts -->
<g id="node31" class="node">
<title>src/expressions/operators/unary&#45;operation.ts</title>
<path fill="none" stroke="#c6c5fe" d="M2036.83,-318C2036.83,-318 1768.17,-318 1768.17,-318 1764.33,-318 1760.5,-314.17 1760.5,-310.33 1760.5,-310.33 1760.5,-302.67 1760.5,-302.67 1760.5,-298.83 1764.33,-295 1768.17,-295 1768.17,-295 2036.83,-295 2036.83,-295 2040.67,-295 2044.5,-298.83 2044.5,-302.67 2044.5,-302.67 2044.5,-310.33 2044.5,-310.33 2044.5,-314.17 2040.67,-318 2036.83,-318"/>
<text text-anchor="middle" x="1902.5" y="-302.8" font-family="Arial" font-size="14.00" fill="#c6c5fe">src/expressions/operators/unary&#45;operation.ts</text>
</g>
<!-- src/utils/app&#45;handlers.ts&#45;&gt;src/expressions/operators/unary&#45;operation.ts -->
<g id="edge111" class="edge">
<title>src/utils/app&#45;handlers.ts&#45;&gt;src/expressions/operators/unary&#45;operation.ts</title>
<path fill="none" stroke="#757575" d="M1991.75,-589.94C1991.75,-589.94 1991.75,-328.3 1991.75,-328.3"/>
<polygon fill="#757575" stroke="#757575" points="1995.25,-328.3 1991.75,-318.3 1988.25,-328.31 1995.25,-328.3"/>
</g>
<!-- src/utils/function&#45;call&#45;params.ts -->
<g id="node35" class="node">
<title>src/utils/function&#45;call&#45;params.ts</title>
<path fill="none" stroke="#c6c5fe" d="M2215.33,-377C2215.33,-377 2027.67,-377 2027.67,-377 2023.83,-377 2020,-373.17 2020,-369.33 2020,-369.33 2020,-361.67 2020,-361.67 2020,-357.83 2023.83,-354 2027.67,-354 2027.67,-354 2215.33,-354 2215.33,-354 2219.17,-354 2223,-357.83 2223,-361.67 2223,-361.67 2223,-369.33 2223,-369.33 2223,-373.17 2219.17,-377 2215.33,-377"/>
<text text-anchor="middle" x="2121.5" y="-361.8" font-family="Arial" font-size="14.00" fill="#c6c5fe">src/utils/function&#45;call&#45;params.ts</text>
</g>
<!-- src/utils/app&#45;handlers.ts&#45;&gt;src/utils/function&#45;call&#45;params.ts -->
<g id="edge118" class="edge">
<title>src/utils/app&#45;handlers.ts&#45;&gt;src/utils/function&#45;call&#45;params.ts</title>
<path fill="none" stroke="#757575" d="M2040.5,-589.8C2040.5,-589.8 2040.5,-387.27 2040.5,-387.27"/>
<polygon fill="#757575" stroke="#757575" points="2044,-387.27 2040.5,-377.27 2037,-387.27 2044,-387.27"/>
</g>
<!-- src/handlers/access/method&#45;call.ts -->
<g id="node37" class="node">
<title>src/handlers/access/method&#45;call.ts</title>
<path fill="none" stroke="#c6c5fe" d="M2323.83,-554C2323.83,-554 2115.17,-554 2115.17,-554 2111.33,-554 2107.5,-550.17 2107.5,-546.33 2107.5,-546.33 2107.5,-538.67 2107.5,-538.67 2107.5,-534.83 2111.33,-531 2115.17,-531 2115.17,-531 2323.83,-531 2323.83,-531 2327.67,-531 2331.5,-534.83 2331.5,-538.67 2331.5,-538.67 2331.5,-546.33 2331.5,-546.33 2331.5,-550.17 2327.67,-554 2323.83,-554"/>
<text text-anchor="middle" x="2219.5" y="-538.8" font-family="Arial" font-size="14.00" fill="#c6c5fe">src/handlers/access/method&#45;call.ts</text>
</g>
<!-- src/utils/app&#45;handlers.ts&#45;&gt;src/handlers/access/method&#45;call.ts -->
<g id="edge113" class="edge">
<title>src/utils/app&#45;handlers.ts&#45;&gt;src/handlers/access/method&#45;call.ts</title>
<path fill="none" stroke="#757575" d="M2081.5,-589.85C2081.5,-571.52 2081.5,-538 2081.5,-538 2081.5,-538 2097.46,-538 2097.46,-538"/>
<polygon fill="#757575" stroke="#757575" points="2097.46,-541.5 2107.46,-538 2097.46,-534.5 2097.46,-541.5"/>
</g>
<!-- src/utils/app&#45;handlers.ts&#45;&gt;src/types/modules.ts -->
<g id="edge114" class="edge">
<title>src/utils/app&#45;handlers.ts&#45;&gt;src/types/modules.ts</title>
<path fill="none" stroke="#757575" d="M1946.42,-589.85C1946.42,-550.95 1946.42,-428 1946.42,-428 1946.42,-428 1833.69,-428 1833.69,-428"/>
<polygon fill="#757575" stroke="#757575" points="1833.69,-424.5 1823.69,-428 1833.69,-431.5 1833.69,-424.5"/>
</g>
<!-- src/utils/app&#45;handlers.ts&#45;&gt;src/types/objects.ts -->
<g id="edge115" class="edge">
<title>src/utils/app&#45;handlers.ts&#45;&gt;src/types/objects.ts</title>
<path fill="none" stroke="#757575" d="M1942.84,-595C1809.6,-595 1556,-595 1556,-595 1556,-595 1556,-446.22 1556,-446.22"/>
<polygon fill="#757575" stroke="#757575" points="1559.5,-446.22 1556,-436.22 1552.5,-446.22 1559.5,-446.22"/>
</g>
<!-- src/types/type&#45;declarations.ts -->
<g id="node45" class="node">
<title>src/types/type&#45;declarations.ts</title>
<path fill="none" stroke="#c6c5fe" d="M2501.33,-377C2501.33,-377 2325.67,-377 2325.67,-377 2321.83,-377 2318,-373.17 2318,-369.33 2318,-369.33 2318,-361.67 2318,-361.67 2318,-357.83 2321.83,-354 2325.67,-354 2325.67,-354 2501.33,-354 2501.33,-354 2505.17,-354 2509,-357.83 2509,-361.67 2509,-361.67 2509,-369.33 2509,-369.33 2509,-373.17 2505.17,-377 2501.33,-377"/>
<text text-anchor="middle" x="2413.5" y="-361.8" font-family="Arial" font-size="14.00" fill="#c6c5fe">src/types/type&#45;declarations.ts</text>
</g>
<!-- src/utils/app&#45;handlers.ts&#45;&gt;src/types/type&#45;declarations.ts -->
<g id="edge117" class="edge">
<title>src/utils/app&#45;handlers.ts&#45;&gt;src/types/type&#45;declarations.ts</title>
<path fill="none" stroke="#757575" d="M2061,-589.97C2061,-545.41 2061,-387 2061,-387 2061,-387 2413.75,-387 2413.75,-387 2413.75,-387 2413.75,-386 2413.75,-386"/>
<polygon fill="#757575" stroke="#757575" points="2417.25,-387.01 2413.75,-377.01 2410.25,-387.01 2417.25,-387.01"/>
</g>
<!-- src/utils/array.ts&#45;&gt;src/type&#45;utils.ts -->
<g id="edge119" class="edge">
<title>src/utils/array.ts&#45;&gt;src/type&#45;utils.ts</title>
<path fill="none" stroke="#757575" d="M892.61,-64C1206.71,-64 2756.75,-64 2756.75,-64 2756.75,-64 2756.75,-33.15 2756.75,-33.15"/>
<polygon fill="#757575" stroke="#757575" points="2760.25,-33.15 2756.75,-23.15 2753.25,-33.15 2760.25,-33.15"/>
</g>
<!-- src/utils/this&#45;keyword.ts&#45;&gt;src/functions.ts -->
<g id="edge127" class="edge">
<title>src/utils/this&#45;keyword.ts&#45;&gt;src/functions.ts</title>
<path fill="none" stroke="#757575" d="M2483.94,-487C2526.74,-487 2571.1,-487 2571.1,-487 2571.1,-487 2571.1,-420 2571.1,-420 2571.1,-420 2719.9,-420 2719.9,-420"/>
<polygon fill="#757575" stroke="#757575" points="2719.9,-423.5 2729.9,-420 2719.9,-416.5 2719.9,-423.5"/>
</g>
<!-- src/utils/this&#45;keyword.ts&#45;&gt;src/types/structs.ts -->
<g id="edge128" class="edge">
<title>src/utils/this&#45;keyword.ts&#45;&gt;src/types/structs.ts</title>
<path fill="none" stroke="#757575" d="M2327.32,-487C2198.73,-487 1956.67,-487 1956.67,-487 1956.67,-487 1956.67,-387.15 1956.67,-387.15"/>
<polygon fill="#757575" stroke="#757575" points="1960.17,-387.15 1956.67,-377.15 1953.17,-387.15 1960.17,-387.15"/>
</g>
<!-- src/utils/this&#45;keyword.ts&#45;&gt;src/utils/scope&#45;helpers.ts -->
<g id="edge129" class="edge">
<title>src/utils/this&#45;keyword.ts&#45;&gt;src/utils/scope&#45;helpers.ts</title>
<path fill="none" stroke="#757575" d="M2483.79,-479C2524.88,-479 2566.8,-479 2566.8,-479 2566.8,-479 2566.8,-182 2566.8,-182 2566.8,-182 2690.96,-182 2690.96,-182"/>
<polygon fill="#757575" stroke="#757575" points="2690.96,-185.5 2700.96,-182 2690.96,-178.5 2690.96,-185.5"/>
</g>
<!-- src/declarations.ts -->
<g id="node18" class="node">
<title>src/declarations.ts</title>
<path fill="none" stroke="#c6c5fe" d="M2435.33,-318C2435.33,-318 2325.67,-318 2325.67,-318 2321.83,-318 2318,-314.17 2318,-310.33 2318,-310.33 2318,-302.67 2318,-302.67 2318,-298.83 2321.83,-295 2325.67,-295 2325.67,-295 2435.33,-295 2435.33,-295 2439.17,-295 2443,-298.83 2443,-302.67 2443,-302.67 2443,-310.33 2443,-310.33 2443,-314.17 2439.17,-318 2435.33,-318"/>
<text text-anchor="middle" x="2380.5" y="-302.8" font-family="Arial" font-size="14.00" fill="#c6c5fe">src/declarations.ts</text>
</g>
<!-- src/declarations.ts&#45;&gt;src/expressions/handlers.ts -->
<g id="edge17" class="edge">
<title>src/declarations.ts&#45;&gt;src/expressions/handlers.ts</title>
<path fill="none" stroke="#757575" d="M2380.5,-294.83C2380.5,-277.25 2380.5,-246 2380.5,-246 2380.5,-246 1616.52,-246 1616.52,-246"/>
<polygon fill="#757575" stroke="#757575" points="1616.52,-242.5 1606.52,-246 1616.52,-249.5 1616.52,-242.5"/>
</g>
<!-- src/expressions/drop&#45;handlers.ts&#45;&gt;src/expressions/handlers.ts -->
<g id="edge18" class="edge">
<title>src/expressions/drop&#45;handlers.ts&#45;&gt;src/expressions/handlers.ts</title>
<path fill="none" stroke="#757575" d="M1077.75,-471.8C1077.75,-425.04 1077.75,-254 1077.75,-254 1077.75,-254 1416.39,-254 1416.39,-254"/>
<polygon fill="#757575" stroke="#757575" points="1416.39,-257.5 1426.39,-254 1416.39,-250.5 1416.39,-257.5"/>
</g>
<!-- src/expressions/drop&#45;handlers.ts&#45;&gt;src/utils/array.ts -->
<g id="edge21" class="edge">
<title>src/expressions/drop&#45;handlers.ts&#45;&gt;src/utils/array.ts</title>
<path fill="none" stroke="#757575" d="M979.23,-479C931.07,-479 884.71,-479 884.71,-479 884.71,-479 884.71,-92.29 884.71,-92.29"/>
<polygon fill="#757575" stroke="#757575" points="888.21,-92.29 884.71,-82.29 881.21,-92.29 888.21,-92.29"/>
</g>
<!-- src/expressions/drop&#45;handlers.ts&#45;&gt;src/functions.ts -->
<g id="edge19" class="edge">
<title>src/expressions/drop&#45;handlers.ts&#45;&gt;src/functions.ts</title>
<path fill="none" stroke="#757575" d="M1187.62,-471.81C1187.62,-467.21 1187.62,-463 1187.62,-463 1187.62,-463 2765.67,-463 2765.67,-463 2765.67,-463 2765.67,-446.26 2765.67,-446.26"/>
<polygon fill="#757575" stroke="#757575" points="2769.17,-446.26 2765.67,-436.26 2762.17,-446.26 2769.17,-446.26"/>
</g>
<!-- src/expressions/drop&#45;handlers.ts&#45;&gt;src/types/structs.ts -->
<g id="edge20" class="edge">
<title>src/expressions/drop&#45;handlers.ts&#45;&gt;src/types/structs.ts</title>
<path fill="none" stroke="#757575" d="M1183.75,-471.84C1183.75,-463.6 1183.75,-454 1183.75,-454 1183.75,-454 1860.75,-454 1860.75,-454 1860.75,-454 1860.75,-387.07 1860.75,-387.07"/>
<polygon fill="#757575" stroke="#757575" points="1864.25,-387.07 1860.75,-377.07 1857.25,-387.07 1864.25,-387.07"/>
</g>
<!-- src/functions.ts&#45;&gt;src/utils/identifier&#45;utils.ts -->
<g id="edge50" class="edge">
<title>src/functions.ts&#45;&gt;src/utils/identifier&#45;utils.ts</title>
<path fill="none" stroke="#757575" d="M2756.75,-413C2756.75,-405.46 2756.75,-397 2756.75,-397 2756.75,-397 1747,-397 1747,-397 1747,-397 1747,-306 1747,-306 1747,-306 1746.59,-306 1746.59,-306"/>
<polygon fill="#757575" stroke="#757575" points="1752.92,-302.5 1742.92,-306 1752.92,-309.5 1752.92,-302.5"/>
</g>
<!-- src/functions.ts&#45;&gt;src/utils/scope&#45;helpers.ts -->
<g id="edge51" class="edge">
<title>src/functions.ts&#45;&gt;src/utils/scope&#45;helpers.ts</title>
<path fill="none" stroke="#757575" d="M2729.81,-416C2685.55,-416 2630,-416 2630,-416 2630,-416 2630,-194 2630,-194 2630,-194 2690.91,-194 2690.91,-194"/>
<polygon fill="#757575" stroke="#757575" points="2690.91,-197.5 2700.91,-194 2690.91,-190.5 2690.91,-197.5"/>
</g>
<!-- src/functions.ts&#45;&gt;src/handlers/functions/anonymous&#45;functions.ts -->
<g id="edge46" class="edge">
<title>src/functions.ts&#45;&gt;src/handlers/functions/anonymous&#45;functions.ts</title>
<path fill="none" stroke="#757575" d="M2837.34,-422C2940.63,-422 3156.5,-422 3156.5,-422 3156.5,-422 3156.5,-387.21 3156.5,-387.21"/>
<polygon fill="#757575" stroke="#757575" points="3160,-387.21 3156.5,-377.21 3153,-387.21 3160,-387.21"/>
</g>
<!-- src/handlers/functions/function&#45;declaration.ts -->
<g id="node34" class="node">
<title>src/handlers/functions/function&#45;declaration.ts</title>
<path fill="none" stroke="#c6c5fe" d="M2917.83,-377C2917.83,-377 2649.17,-377 2649.17,-377 2645.33,-377 2641.5,-373.17 2641.5,-369.33 2641.5,-369.33 2641.5,-361.67 2641.5,-361.67 2641.5,-357.83 2645.33,-354 2649.17,-354 2649.17,-354 2917.83,-354 2917.83,-354 2921.67,-354 2925.5,-357.83 2925.5,-361.67 2925.5,-361.67 2925.5,-369.33 2925.5,-369.33 2925.5,-373.17 2921.67,-377 2917.83,-377"/>
<text text-anchor="middle" x="2783.5" y="-361.8" font-family="Arial" font-size="14.00" fill="#c6c5fe">src/handlers/functions/function&#45;declaration.ts</text>
</g>
<!-- src/functions.ts&#45;&gt;src/handlers/functions/function&#45;declaration.ts -->
<g id="edge47" class="edge">
<title>src/functions.ts&#45;&gt;src/handlers/functions/function&#45;declaration.ts</title>
<path fill="none" stroke="#757575" d="M2810.25,-412.84C2810.25,-412.84 2810.25,-387.13 2810.25,-387.13"/>
<polygon fill="#757575" stroke="#757575" points="2813.75,-387.13 2810.25,-377.13 2806.75,-387.13 2813.75,-387.13"/>
</g>
<!-- src/functions.ts&#45;&gt;src/utils/function&#45;call&#45;params.ts -->
<g id="edge48" class="edge">
<title>src/functions.ts&#45;&gt;src/utils/function&#45;call&#45;params.ts</title>
<path fill="none" stroke="#757575" d="M2783.5,-412.77C2783.5,-403.46 2783.5,-392 2783.5,-392 2783.5,-392 2165.25,-392 2165.25,-392 2165.25,-392 2165.25,-387.2 2165.25,-387.2"/>
<polygon fill="#757575" stroke="#757575" points="2168.75,-387.2 2165.25,-377.2 2161.75,-387.2 2168.75,-387.2"/>
</g>
<!-- src/utils/function&#45;utils.ts -->
<g id="node36" class="node">
<title>src/utils/function&#45;utils.ts</title>
<path fill="none" stroke="#c6c5fe" d="M3209.83,-141C3209.83,-141 3069.17,-141 3069.17,-141 3065.33,-141 3061.5,-137.17 3061.5,-133.33 3061.5,-133.33 3061.5,-125.67 3061.5,-125.67 3061.5,-121.83 3065.33,-118 3069.17,-118 3069.17,-118 3209.83,-118 3209.83,-118 3213.67,-118 3217.5,-121.83 3217.5,-125.67 3217.5,-125.67 3217.5,-133.33 3217.5,-133.33 3217.5,-137.17 3213.67,-141 3209.83,-141"/>
<text text-anchor="middle" x="3139.5" y="-125.8" font-family="Arial" font-size="14.00" fill="#c6c5fe">src/utils/function&#45;utils.ts</text>
</g>
<!-- src/functions.ts&#45;&gt;src/utils/function&#45;utils.ts -->
<g id="edge49" class="edge">
<title>src/functions.ts&#45;&gt;src/utils/function&#45;utils.ts</title>
<path fill="none" stroke="#757575" d="M2837.06,-417C2886.18,-417 2951.33,-417 2951.33,-417 2951.33,-417 2951.33,-136 2951.33,-136 2951.33,-136 3051.34,-136 3051.34,-136"/>
<polygon fill="#757575" stroke="#757575" points="3051.34,-139.5 3061.34,-136 3051.34,-132.5 3051.34,-139.5"/>
</g>
<!-- src/types/structs.ts&#45;&gt;src/expressions/handlers.ts -->
<g id="edge107" class="edge">
<title>src/types/structs.ts&#45;&gt;src/expressions/handlers.ts</title>
<path fill="none" stroke="#757575" d="M1835.3,-365C1797.1,-365 1756,-365 1756,-365 1756,-365 1756,-254 1756,-254 1756,-254 1616.7,-254 1616.7,-254"/>
<polygon fill="#757575" stroke="#757575" points="1616.7,-250.5 1606.7,-254 1616.7,-257.5 1616.7,-250.5"/>
</g>
<!-- src/types/structs.ts&#45;&gt;src/declarations.ts -->
<g id="edge106" class="edge">
<title>src/types/structs.ts&#45;&gt;src/declarations.ts</title>
<path fill="none" stroke="#757575" d="M1899.5,-353.88C1899.5,-343.52 1899.5,-330 1899.5,-330 1899.5,-330 2380.5,-330 2380.5,-330 2380.5,-330 2380.5,-328.25 2380.5,-328.25"/>
<polygon fill="#757575" stroke="#757575" points="2384,-328.25 2380.5,-318.25 2377,-328.25 2384,-328.25"/>
</g>
<!-- src/handlers/variables/assignment.ts&#45;&gt;src/utils/array.ts -->
<g id="edge73" class="edge">
<title>src/handlers/variables/assignment.ts&#45;&gt;src/utils/array.ts</title>
<path fill="none" stroke="#757575" d="M1398.16,-188C1215.92,-188 887.36,-188 887.36,-188 887.36,-188 887.36,-92.2 887.36,-92.2"/>
<polygon fill="#757575" stroke="#757575" points="890.86,-92.2 887.36,-82.2 883.86,-92.2 890.86,-92.2"/>
</g>
<!-- src/handlers/variables/assignment.ts&#45;&gt;src/types/interpreter.ts -->
<g id="edge72" class="edge">
<title>src/handlers/variables/assignment.ts&#45;&gt;src/types/interpreter.ts</title>
<path fill="none" stroke="#757575" d="M1427.25,-176.84C1427.25,-176.84 1427.25,-151.13 1427.25,-151.13"/>
<polygon fill="#757575" stroke="#757575" points="1430.75,-151.13 1427.25,-141.13 1423.75,-151.13 1430.75,-151.13"/>
</g>
<!-- src/utils/scope&#45;helpers.ts&#45;&gt;src/parser.ts -->
<g id="edge123" class="edge">
<title>src/utils/scope&#45;helpers.ts&#45;&gt;src/parser.ts</title>
<path fill="none" stroke="#757575" d="M2710.67,-176.84C2710.67,-168.6 2710.67,-159 2710.67,-159 2710.67,-159 673,-159 673,-159 673,-159 673,-151.16 673,-151.16"/>
<polygon fill="#757575" stroke="#757575" points="676.5,-151.16 673,-141.16 669.5,-151.16 676.5,-151.16"/>
</g>
<!-- src/utils/scope&#45;helpers.ts&#45;&gt;src/utils/array.ts -->
<g id="edge125" class="edge">
<title>src/utils/scope&#45;helpers.ts&#45;&gt;src/utils/array.ts</title>
<path fill="none" stroke="#757575" d="M2720.33,-176.88C2720.33,-148.14 2720.33,-76 2720.33,-76 2720.33,-76 902.58,-76 902.58,-76"/>
<polygon fill="#757575" stroke="#757575" points="902.58,-72.5 892.58,-76 902.58,-79.5 902.58,-72.5"/>
</g>
<!-- src/utils/scope&#45;helpers.ts&#45;&gt;src/type&#45;utils.ts -->
<g id="edge124" class="edge">
<title>src/utils/scope&#45;helpers.ts&#45;&gt;src/type&#45;utils.ts</title>
<path fill="none" stroke="#757575" d="M2783.5,-176.89C2783.5,-176.89 2783.5,-33.39 2783.5,-33.39"/>
<polygon fill="#757575" stroke="#757575" points="2787,-33.39 2783.5,-23.39 2780,-33.39 2787,-33.39"/>
</g>
<!-- src/utils/scope&#45;helpers.ts&#45;&gt;src/utils/function&#45;utils.ts -->
<g id="edge126" class="edge">
<title>src/utils/scope&#45;helpers.ts&#45;&gt;src/utils/function&#45;utils.ts</title>
<path fill="none" stroke="#757575" d="M2851.5,-176.93C2851.5,-159.12 2851.5,-127 2851.5,-127 2851.5,-127 3051.18,-127 3051.18,-127"/>
<polygon fill="#757575" stroke="#757575" points="3051.18,-130.5 3061.18,-127 3051.18,-123.5 3051.18,-130.5"/>
</g>
<!-- src/expressions/operators/operators.ts&#45;&gt;src/handlers/access/pointer&#45;operations.ts -->
<g id="edge40" class="edge">
<title>src/expressions/operators/operators.ts&#45;&gt;src/handlers/access/pointer&#45;operations.ts</title>
<path fill="none" stroke="#757575" d="M490.33,-471.74C490.33,-460.42 490.33,-445 490.33,-445 490.33,-445 1179.88,-445 1179.88,-445 1179.88,-445 1179.88,-444.12 1179.88,-444.12"/>
<polygon fill="#757575" stroke="#757575" points="1183.38,-446.19 1179.88,-436.19 1176.38,-446.19 1183.38,-446.19"/>
</g>
<!-- src/expressions/operators/operators.ts&#45;&gt;src/parser.ts -->
<g id="edge41" class="edge">
<title>src/expressions/operators/operators.ts&#45;&gt;src/parser.ts</title>
<path fill="none" stroke="#757575" d="M471,-471.86C471,-445.2 471,-382 471,-382 471,-382 628,-382 628,-382 628,-382 628,-151.01 628,-151.01"/>
<polygon fill="#757575" stroke="#757575" points="631.5,-151.01 628,-141.01 624.5,-151.01 631.5,-151.01"/>
</g>
<!-- src/expressions/operators/op&#45;helpers.ts -->
<g id="node27" class="node">
<title>src/expressions/operators/op&#45;helpers.ts</title>
<path fill="none" stroke="#c6c5fe" d="M725.33,-436C725.33,-436 487.67,-436 487.67,-436 483.83,-436 480,-432.17 480,-428.33 480,-428.33 480,-420.67 480,-420.67 480,-416.83 483.83,-413 487.67,-413 487.67,-413 725.33,-413 725.33,-413 729.17,-413 733,-416.83 733,-420.67 733,-420.67 733,-428.33 733,-428.33 733,-432.17 729.17,-436 725.33,-436"/>
<text text-anchor="middle" x="606.5" y="-420.8" font-family="Arial" font-size="14.00" fill="#c6c5fe">src/expressions/operators/op&#45;helpers.ts</text>
</g>
<!-- src/expressions/operators/operators.ts&#45;&gt;src/expressions/operators/op&#45;helpers.ts -->
<g id="edge38" class="edge">
<title>src/expressions/operators/operators.ts&#45;&gt;src/expressions/operators/op&#45;helpers.ts</title>
<path fill="none" stroke="#757575" d="M485.17,-471.84C485.17,-471.84 485.17,-446.13 485.17,-446.13"/>
<polygon fill="#757575" stroke="#757575" points="488.67,-446.13 485.17,-436.13 481.67,-446.13 488.67,-446.13"/>
</g>
<!-- src/expressions/operators/operator&#45;finder.ts -->
<g id="node29" class="node">
<title>src/expressions/operators/operator&#45;finder.ts</title>
<path fill="none" stroke="#c6c5fe" d="M454.33,-436C454.33,-436 192.67,-436 192.67,-436 188.83,-436 185,-432.17 185,-428.33 185,-428.33 185,-420.67 185,-420.67 185,-416.83 188.83,-413 192.67,-413 192.67,-413 454.33,-413 454.33,-413 458.17,-413 462,-416.83 462,-420.67 462,-420.67 462,-428.33 462,-428.33 462,-432.17 458.17,-436 454.33,-436"/>
<text text-anchor="middle" x="323.5" y="-420.8" font-family="Arial" font-size="14.00" fill="#c6c5fe">src/expressions/operators/operator&#45;finder.ts</text>
</g>
<!-- src/expressions/operators/operators.ts&#45;&gt;src/expressions/operators/operator&#45;finder.ts -->
<g id="edge39" class="edge">
<title>src/expressions/operators/operators.ts&#45;&gt;src/expressions/operators/operator&#45;finder.ts</title>
<path fill="none" stroke="#757575" d="M355.75,-471.84C355.75,-471.84 355.75,-446.13 355.75,-446.13"/>
<polygon fill="#757575" stroke="#757575" points="359.25,-446.13 355.75,-436.13 352.25,-446.13 359.25,-446.13"/>
</g>
<!-- src/expressions/operators/operators.ts&#45;&gt;src/type&#45;utils.ts -->
<g id="edge42" class="edge">
<title>src/expressions/operators/operators.ts&#45;&gt;src/type&#45;utils.ts</title>
<path fill="none" stroke="#757575" d="M495.64,-483C602.44,-483 740,-483 740,-483 740,-483 740,-11 740,-11 740,-11 2719.89,-11 2719.89,-11"/>
<polygon fill="#757575" stroke="#757575" points="2719.89,-14.5 2729.89,-11 2719.89,-7.5 2719.89,-14.5"/>
</g>
<!-- src/expressions/operators/op&#45;helpers.ts&#45;&gt;src/utils/array.ts -->
<g id="edge36" class="edge">
<title>src/expressions/operators/op&#45;helpers.ts&#45;&gt;src/utils/array.ts</title>
<path fill="none" stroke="#757575" d="M720.5,-412.71C720.5,-351.19 720.5,-70 720.5,-70 720.5,-70 772.43,-70 772.43,-70"/>
<polygon fill="#757575" stroke="#757575" points="772.43,-73.5 782.43,-70 772.43,-66.5 772.43,-73.5"/>
</g>
<!-- src/expressions/operators/op&#45;helpers.ts&#45;&gt;src/types/structs.ts -->
<g id="edge35" class="edge">
<title>src/expressions/operators/op&#45;helpers.ts&#45;&gt;src/types/structs.ts</title>
<path fill="none" stroke="#757575" d="M708,-412.99C708,-407.45 708,-402 708,-402 708,-402 1848.12,-402 1848.12,-402 1848.12,-402 1848.12,-387.05 1848.12,-387.05"/>
<polygon fill="#757575" stroke="#757575" points="1851.63,-387.05 1848.12,-377.05 1844.63,-387.05 1851.63,-387.05"/>
</g>
<!-- src/expressions/operators/operator&#45;utils.ts -->
<g id="node28" class="node">
<title>src/expressions/operators/operator&#45;utils.ts</title>
<path fill="none" stroke="#cfffac" d="M568.83,-377C568.83,-377 316.17,-377 316.17,-377 312.33,-377 308.5,-373.17 308.5,-369.33 308.5,-369.33 308.5,-361.67 308.5,-361.67 308.5,-357.83 312.33,-354 316.17,-354 316.17,-354 568.83,-354 568.83,-354 572.67,-354 576.5,-357.83 576.5,-361.67 576.5,-361.67 576.5,-369.33 576.5,-369.33 576.5,-373.17 572.67,-377 568.83,-377"/>
<text text-anchor="middle" x="442.5" y="-361.8" font-family="Arial" font-size="14.00" fill="#cfffac">src/expressions/operators/operator&#45;utils.ts</text>
</g>
<!-- src/expressions/operators/op&#45;helpers.ts&#45;&gt;src/expressions/operators/operator&#45;utils.ts -->
<g id="edge34" class="edge">
<title>src/expressions/operators/op&#45;helpers.ts&#45;&gt;src/expressions/operators/operator&#45;utils.ts</title>
<path fill="none" stroke="#757575" d="M528.25,-412.84C528.25,-412.84 528.25,-387.13 528.25,-387.13"/>
<polygon fill="#757575" stroke="#757575" points="531.75,-387.13 528.25,-377.13 524.75,-387.13 531.75,-387.13"/>
</g>
<!-- src/expressions/operators/operator&#45;finder.ts&#45;&gt;src/expressions/operators/operator&#45;utils.ts -->
<g id="edge37" class="edge">
<title>src/expressions/operators/operator&#45;finder.ts&#45;&gt;src/expressions/operators/operator&#45;utils.ts</title>
<path fill="none" stroke="#757575" d="M385.25,-412.84C385.25,-412.84 385.25,-387.13 385.25,-387.13"/>
<polygon fill="#757575" stroke="#757575" points="388.75,-387.13 385.25,-377.13 381.75,-387.13 388.75,-387.13"/>
</g>
<!-- src/expressions/operators/unary&#45;operation.ts&#45;&gt;src/expressions/handlers.ts -->
<g id="edge43" class="edge">
<title>src/expressions/operators/unary&#45;operation.ts&#45;&gt;src/expressions/handlers.ts</title>
<path fill="none" stroke="#757575" d="M1902.5,-294.94C1902.5,-278.94 1902.5,-252 1902.5,-252 1902.5,-252 1616.51,-252 1616.51,-252"/>
<polygon fill="#757575" stroke="#757575" points="1616.51,-248.5 1606.51,-252 1616.51,-255.5 1616.51,-248.5"/>
</g>
<!-- src/function&#45;type&#45;handler.ts -->
<g id="node32" class="node">
<title>src/function&#45;type&#45;handler.ts</title>
<path fill="none" stroke="#c6c5fe" d="M3619.33,-495C3619.33,-495 3455.67,-495 3455.67,-495 3451.83,-495 3448,-491.17 3448,-487.33 3448,-487.33 3448,-479.67 3448,-479.67 3448,-475.83 3451.83,-472 3455.67,-472 3455.67,-472 3619.33,-472 3619.33,-472 3623.17,-472 3627,-475.83 3627,-479.67 3627,-479.67 3627,-487.33 3627,-487.33 3627,-491.17 3623.17,-495 3619.33,-495"/>
<text text-anchor="middle" x="3537.5" y="-479.8" font-family="Arial" font-size="14.00" fill="#c6c5fe">src/function&#45;type&#45;handler.ts</text>
</g>
<!-- src/function&#45;type&#45;handler.ts&#45;&gt;src/functions.ts -->
<g id="edge44" class="edge">
<title>src/function&#45;type&#45;handler.ts&#45;&gt;src/functions.ts</title>
<path fill="none" stroke="#757575" d="M3507.67,-471.86C3507.67,-455.06 3507.67,-426 3507.67,-426 3507.67,-426 2847.04,-426 2847.04,-426"/>
<polygon fill="#757575" stroke="#757575" points="2847.04,-422.5 2837.04,-426 2847.04,-429.5 2847.04,-422.5"/>
</g>
<!-- src/function&#45;type&#45;handler.ts&#45;&gt;src/type&#45;utils.ts -->
<g id="edge45" class="edge">
<title>src/function&#45;type&#45;handler.ts&#45;&gt;src/type&#45;utils.ts</title>
<path fill="none" stroke="#757575" d="M3567.33,-471.67C3567.33,-397.99 3567.33,-5 3567.33,-5 3567.33,-5 2847.07,-5 2847.07,-5"/>
<polygon fill="#757575" stroke="#757575" points="2847.07,-1.5 2837.07,-5 2847.07,-8.5 2847.07,-1.5"/>
</g>
<!-- src/handlers/functions/anonymous&#45;functions.ts&#45;&gt;src/utils/identifier&#45;utils.ts -->
<g id="edge64" class="edge">
<title>src/handlers/functions/anonymous&#45;functions.ts&#45;&gt;src/utils/identifier&#45;utils.ts</title>
<path fill="none" stroke="#757575" d="M3033.83,-353.84C3033.83,-345.6 3033.83,-336 3033.83,-336 3033.83,-336 1715,-336 1715,-336 1715,-336 1715,-328.16 1715,-328.16"/>
<polygon fill="#757575" stroke="#757575" points="1718.5,-328.16 1715,-318.16 1711.5,-328.16 1718.5,-328.16"/>
</g>
<!-- src/handlers/functions/anonymous&#45;functions.ts&#45;&gt;src/type&#45;utils.ts -->
<g id="edge62" class="edge">
<title>src/handlers/functions/anonymous&#45;functions.ts&#45;&gt;src/type&#45;utils.ts</title>
<path fill="none" stroke="#757575" d="M3047.67,-353.71C3047.67,-292.19 3047.67,-11 3047.67,-11 3047.67,-11 2847.28,-11 2847.28,-11"/>
<polygon fill="#757575" stroke="#757575" points="2847.28,-7.5 2837.28,-11 2847.28,-14.5 2847.28,-7.5"/>
</g>
<!-- src/handlers/functions/anonymous&#45;functions.ts&#45;&gt;src/utils/function&#45;utils.ts -->
<g id="edge63" class="edge">
<title>src/handlers/functions/anonymous&#45;functions.ts&#45;&gt;src/utils/function&#45;utils.ts</title>
<path fill="none" stroke="#757575" d="M3139.5,-353.8C3139.5,-353.8 3139.5,-151.27 3139.5,-151.27"/>
<polygon fill="#757575" stroke="#757575" points="3143,-151.27 3139.5,-141.27 3136,-151.27 3143,-151.27"/>
</g>
<!-- src/handlers/functions/function&#45;declaration.ts&#45;&gt;src/declarations.ts -->
<g id="edge65" class="edge">
<title>src/handlers/functions/function&#45;declaration.ts&#45;&gt;src/declarations.ts</title>
<path fill="none" stroke="#757575" d="M2681.17,-353.74C2681.17,-336.4 2681.17,-306 2681.17,-306 2681.17,-306 2453.16,-306 2453.16,-306"/>
<polygon fill="#757575" stroke="#757575" points="2453.16,-302.5 2443.16,-306 2453.16,-309.5 2453.16,-302.5"/>
</g>
<!-- src/handlers/functions/function&#45;declaration.ts&#45;&gt;src/utils/identifier&#45;utils.ts -->
<g id="edge68" class="edge">
<title>src/handlers/functions/function&#45;declaration.ts&#45;&gt;src/utils/identifier&#45;utils.ts</title>
<path fill="none" stroke="#757575" d="M2661.33,-353.75C2661.33,-347.88 2661.33,-342 2661.33,-342 2661.33,-342 1688.5,-342 1688.5,-342 1688.5,-342 1688.5,-328.12 1688.5,-328.12"/>
<polygon fill="#757575" stroke="#757575" points="1692,-328.12 1688.5,-318.12 1685,-328.12 1692,-328.12"/>
</g>
<!-- src/handlers/functions/function&#45;declaration.ts&#45;&gt;src/utils/scope&#45;helpers.ts -->
<g id="edge69" class="edge">
<title>src/handlers/functions/function&#45;declaration.ts&#45;&gt;src/utils/scope&#45;helpers.ts</title>
<path fill="none" stroke="#757575" d="M2811,-353.89C2811,-353.89 2811,-210.39 2811,-210.39"/>
<polygon fill="#757575" stroke="#757575" points="2814.5,-210.39 2811,-200.39 2807.5,-210.39 2814.5,-210.39"/>
</g>
<!-- src/handlers/functions/function&#45;declaration.ts&#45;&gt;src/type&#45;utils.ts -->
<g id="edge66" class="edge">
<title>src/handlers/functions/function&#45;declaration.ts&#45;&gt;src/type&#45;utils.ts</title>
<path fill="none" stroke="#757575" d="M2885.83,-353.9C2885.83,-293.43 2885.83,-17 2885.83,-17 2885.83,-17 2847.06,-17 2847.06,-17"/>
<polygon fill="#757575" stroke="#757575" points="2847.06,-13.5 2837.06,-17 2847.06,-20.5 2847.06,-13.5"/>
</g>
<!-- src/handlers/functions/function&#45;declaration.ts&#45;&gt;src/utils/function&#45;utils.ts -->
<g id="edge67" class="edge">
<title>src/handlers/functions/function&#45;declaration.ts&#45;&gt;src/utils/function&#45;utils.ts</title>
<path fill="none" stroke="#757575" d="M2905.67,-353.87C2905.67,-306.55 2905.67,-131 2905.67,-131 2905.67,-131 3051.31,-131 3051.31,-131"/>
<polygon fill="#757575" stroke="#757575" points="3051.31,-134.5 3061.31,-131 3051.31,-127.5 3051.31,-134.5"/>
</g>
<!-- src/utils/function&#45;call&#45;params.ts&#45;&gt;src/expressions/handlers.ts -->
<g id="edge120" class="edge">
<title>src/utils/function&#45;call&#45;params.ts&#45;&gt;src/expressions/handlers.ts</title>
<path fill="none" stroke="#757575" d="M2133.75,-353.57C2133.75,-324.06 2133.75,-250 2133.75,-250 2133.75,-250 1616.58,-250 1616.58,-250"/>
<polygon fill="#757575" stroke="#757575" points="1616.58,-246.5 1606.58,-250 1616.58,-253.5 1616.58,-246.5"/>
</g>
<!-- src/utils/function&#45;utils.ts&#45;&gt;src/type&#45;utils.ts -->
<g id="edge121" class="edge">
<title>src/utils/function&#45;utils.ts&#45;&gt;src/type&#45;utils.ts</title>
<path fill="none" stroke="#757575" d="M3061.47,-122C2964.11,-122 2810.25,-122 2810.25,-122 2810.25,-122 2810.25,-33.33 2810.25,-33.33"/>
<polygon fill="#757575" stroke="#757575" points="2813.75,-33.33 2810.25,-23.33 2806.75,-33.33 2813.75,-33.33"/>
</g>
<!-- src/handlers/access/method&#45;call.ts&#45;&gt;src/expressions/handlers.ts -->
<g id="edge52" class="edge">
<title>src/handlers/access/method&#45;call.ts&#45;&gt;src/expressions/handlers.ts</title>
<path fill="none" stroke="#757575" d="M2286.33,-530.96C2286.33,-476.51 2286.33,-248 2286.33,-248 2286.33,-248 1616.69,-248 1616.69,-248"/>
<polygon fill="#757575" stroke="#757575" points="1616.69,-244.5 1606.69,-248 1616.69,-251.5 1616.69,-244.5"/>
</g>
<!-- src/handlers/access/method&#45;call.ts&#45;&gt;src/utils/this&#45;keyword.ts -->
<g id="edge56" class="edge">
<title>src/handlers/access/method&#45;call.ts&#45;&gt;src/utils/this&#45;keyword.ts</title>
<path fill="none" stroke="#757575" d="M2323,-530.85C2323,-512.52 2323,-479 2323,-479 2323,-479 2323.44,-479 2323.44,-479"/>
<polygon fill="#757575" stroke="#757575" points="2317.44,-482.5 2327.44,-479 2317.44,-475.5 2317.44,-482.5"/>
</g>
<!-- src/handlers/access/method&#45;call.ts&#45;&gt;src/functions.ts -->
<g id="edge53" class="edge">
<title>src/handlers/access/method&#45;call.ts&#45;&gt;src/functions.ts</title>
<path fill="none" stroke="#757575" d="M2331.62,-538C2435.94,-538 2575.4,-538 2575.4,-538 2575.4,-538 2575.4,-424 2575.4,-424 2575.4,-424 2719.91,-424 2719.91,-424"/>
<polygon fill="#757575" stroke="#757575" points="2719.91,-427.5 2729.91,-424 2719.91,-420.5 2719.91,-427.5"/>
</g>
<!-- src/handlers/access/method&#45;call.ts&#45;&gt;src/types/structs.ts -->
<g id="edge54" class="edge">
<title>src/handlers/access/method&#45;call.ts&#45;&gt;src/types/structs.ts</title>
<path fill="none" stroke="#757575" d="M2107.36,-534C2034.59,-534 1953.25,-534 1953.25,-534 1953.25,-534 1953.25,-387.08 1953.25,-387.08"/>
<polygon fill="#757575" stroke="#757575" points="1956.75,-387.08 1953.25,-377.08 1949.75,-387.08 1956.75,-387.08"/>
</g>
<!-- src/handlers/access/method&#45;call.ts&#45;&gt;src/utils/identifier&#45;utils.ts -->
<g id="edge55" class="edge">
<title>src/handlers/access/method&#45;call.ts&#45;&gt;src/utils/identifier&#45;utils.ts</title>
<path fill="none" stroke="#757575" d="M2254.67,-530.92C2254.67,-489.04 2254.67,-348 2254.67,-348 2254.67,-348 1662,-348 1662,-348 1662,-348 1662,-328.28 1662,-328.28"/>
<polygon fill="#757575" stroke="#757575" points="1665.5,-328.28 1662,-318.28 1658.5,-328.28 1665.5,-328.28"/>
</g>
<!-- src/types/modules.ts&#45;&gt;src/expressions/handlers.ts -->
<g id="edge99" class="edge">
<title>src/types/modules.ts&#45;&gt;src/expressions/handlers.ts</title>
<path fill="none" stroke="#757575" d="M1751.5,-412.92C1751.5,-374.85 1751.5,-256 1751.5,-256 1751.5,-256 1616.69,-256 1616.69,-256"/>
<polygon fill="#757575" stroke="#757575" points="1616.69,-252.5 1606.69,-256 1616.69,-259.5 1616.69,-252.5"/>
</g>
<!-- src/types/namespace&#45;handler.ts -->
<g id="node44" class="node">
<title>src/types/namespace&#45;handler.ts</title>
<path fill="none" stroke="#c6c5fe" d="M1733.83,-377C1733.83,-377 1541.17,-377 1541.17,-377 1537.33,-377 1533.5,-373.17 1533.5,-369.33 1533.5,-369.33 1533.5,-361.67 1533.5,-361.67 1533.5,-357.83 1537.33,-354 1541.17,-354 1541.17,-354 1733.83,-354 1733.83,-354 1737.67,-354 1741.5,-357.83 1741.5,-361.67 1741.5,-361.67 1741.5,-369.33 1741.5,-369.33 1741.5,-373.17 1737.67,-377 1733.83,-377"/>
<text text-anchor="middle" x="1637.5" y="-361.8" font-family="Arial" font-size="14.00" fill="#c6c5fe">src/types/namespace&#45;handler.ts</text>
</g>
<!-- src/types/modules.ts&#45;&gt;src/types/namespace&#45;handler.ts -->
<g id="edge100" class="edge">
<title>src/types/modules.ts&#45;&gt;src/types/namespace&#45;handler.ts</title>
<path fill="none" stroke="#757575" d="M1712.5,-412.84C1712.5,-412.84 1712.5,-387.13 1712.5,-387.13"/>
<polygon fill="#757575" stroke="#757575" points="1716,-387.13 1712.5,-377.13 1709,-387.13 1716,-387.13"/>
</g>
<!-- src/types/objects.ts&#45;&gt;src/expressions/handlers.ts -->
<g id="edge104" class="edge">
<title>src/types/objects.ts&#45;&gt;src/expressions/handlers.ts</title>
<path fill="none" stroke="#757575" d="M1533.83,-424C1531.72,-424 1530.5,-424 1530.5,-424 1530.5,-424 1530.5,-269.08 1530.5,-269.08"/>
<polygon fill="#757575" stroke="#757575" points="1534,-269.08 1530.5,-259.08 1527,-269.08 1534,-269.08"/>
</g>
<!-- src/types/objects.ts&#45;&gt;src/types/namespace&#45;handler.ts -->
<g id="edge105" class="edge">
<title>src/types/objects.ts&#45;&gt;src/types/namespace&#45;handler.ts</title>
<path fill="none" stroke="#757575" d="M1599.5,-412.84C1599.5,-412.84 1599.5,-387.13 1599.5,-387.13"/>
<polygon fill="#757575" stroke="#757575" points="1603,-387.13 1599.5,-377.13 1596,-387.13 1603,-387.13"/>
</g>
<!-- src/handlers/variables/declaration&#45;helpers.ts&#45;&gt;src/expressions/handlers.ts -->
<g id="edge74" class="edge">
<title>src/handlers/variables/declaration&#45;helpers.ts&#45;&gt;src/expressions/handlers.ts</title>
<path fill="none" stroke="#757575" d="M3341.6,-530.64C3341.6,-474.71 3341.6,-240 3341.6,-240 3341.6,-240 1616.7,-240 1616.7,-240"/>
<polygon fill="#757575" stroke="#757575" points="1616.7,-236.5 1606.7,-240 1616.7,-243.5 1616.7,-236.5"/>
</g>
<!-- src/handlers/variables/declaration&#45;helpers.ts&#45;&gt;src/handlers/functions/lambda&#45;expressions.ts -->
<g id="edge77" class="edge">
<title>src/handlers/variables/declaration&#45;helpers.ts&#45;&gt;src/handlers/functions/lambda&#45;expressions.ts</title>
<path fill="none" stroke="#757575" d="M3298.5,-530.74C3298.5,-513.4 3298.5,-483 3298.5,-483 3298.5,-483 3013.25,-483 3013.25,-483"/>
<polygon fill="#757575" stroke="#757575" points="3013.25,-479.5 3003.25,-483 3013.24,-486.5 3013.25,-479.5"/>
</g>
<!-- src/handlers/variables/declaration&#45;helpers.ts&#45;&gt;src/parser.ts -->
<g id="edge78" class="edge">
<title>src/handlers/variables/declaration&#45;helpers.ts&#45;&gt;src/parser.ts</title>
<path fill="none" stroke="#757575" d="M3309.5,-530.95C3309.5,-498.18 3309.5,-407 3309.5,-407 3309.5,-407 650.5,-407 650.5,-407 650.5,-407 650.5,-151.07 650.5,-151.07"/>
<polygon fill="#757575" stroke="#757575" points="654,-151.07 650.5,-141.07 647,-151.07 654,-151.07"/>
</g>
<!-- src/handlers/variables/declaration&#45;helpers.ts&#45;&gt;src/utils/array.ts -->
<g id="edge79" class="edge">
<title>src/handlers/variables/declaration&#45;helpers.ts&#45;&gt;src/utils/array.ts</title>
<path fill="none" stroke="#757575" d="M3421.4,-530.82C3421.4,-458.06 3421.4,-70 3421.4,-70 3421.4,-70 902.66,-70 902.66,-70"/>
<polygon fill="#757575" stroke="#757575" points="902.66,-66.5 892.66,-70 902.66,-73.5 902.66,-66.5"/>
</g>
<!-- src/handlers/variables/declaration&#45;helpers.ts&#45;&gt;src/functions.ts -->
<g id="edge76" class="edge">
<title>src/handlers/variables/declaration&#45;helpers.ts&#45;&gt;src/functions.ts</title>
<path fill="none" stroke="#757575" d="M3304,-530.99C3304,-502.5 3304,-431 3304,-431 3304,-431 2847.24,-431 2847.24,-431"/>
<polygon fill="#757575" stroke="#757575" points="2847.24,-427.5 2837.24,-431 2847.24,-434.5 2847.24,-427.5"/>
</g>
<!-- src/handlers/variables/declaration&#45;helpers.ts&#45;&gt;src/utils/scope&#45;helpers.ts -->
<g id="edge81" class="edge">
<title>src/handlers/variables/declaration&#45;helpers.ts&#45;&gt;src/utils/scope&#45;helpers.ts</title>
<path fill="none" stroke="#757575" d="M3368.2,-530.71C3368.2,-469.19 3368.2,-188 3368.2,-188 3368.2,-188 2876.03,-188 2876.03,-188"/>
<polygon fill="#757575" stroke="#757575" points="2876.03,-184.5 2866.03,-188 2876.03,-191.5 2876.03,-184.5"/>
</g>
<!-- src/handlers/variables/declaration&#45;helpers.ts&#45;&gt;src/function&#45;type&#45;handler.ts -->
<g id="edge75" class="edge">
<title>src/handlers/variables/declaration&#45;helpers.ts&#45;&gt;src/function&#45;type&#45;handler.ts</title>
<path fill="none" stroke="#757575" d="M3511,-530.84C3511,-530.84 3511,-505.13 3511,-505.13"/>
<polygon fill="#757575" stroke="#757575" points="3514.5,-505.13 3511,-495.13 3507.5,-505.13 3514.5,-505.13"/>
</g>
<!-- src/handlers/variables/declaration&#45;helpers.ts&#45;&gt;src/utils/function&#45;utils.ts -->
<g id="edge80" class="edge">
<title>src/handlers/variables/declaration&#45;helpers.ts&#45;&gt;src/utils/function&#45;utils.ts</title>
<path fill="none" stroke="#757575" d="M3394.8,-530.57C3394.8,-462.77 3394.8,-129 3394.8,-129 3394.8,-129 3227.83,-129 3227.83,-129"/>
<polygon fill="#757575" stroke="#757575" points="3227.83,-125.5 3217.83,-129 3227.83,-132.5 3227.83,-125.5"/>
</g>
<!-- src/handlers/variables/destructuring.ts&#45;&gt;src/expressions/handlers.ts -->
<g id="edge84" class="edge">
<title>src/handlers/variables/destructuring.ts&#45;&gt;src/expressions/handlers.ts</title>
<path fill="none" stroke="#757575" d="M2535.75,-412.93C2535.75,-373.1 2535.75,-244 2535.75,-244 2535.75,-244 1616.5,-244 1616.5,-244"/>
<polygon fill="#757575" stroke="#757575" points="1616.5,-240.5 1606.5,-244 1616.5,-247.5 1616.5,-240.5"/>
</g>
<!-- src/handlers/variables/destructuring.ts&#45;&gt;src/types/structs.ts -->
<g id="edge85" class="edge">
<title>src/handlers/variables/destructuring.ts&#45;&gt;src/types/structs.ts</title>
<path fill="none" stroke="#757575" d="M2318.34,-420C2176.01,-420 1960.08,-420 1960.08,-420 1960.08,-420 1960.08,-387.06 1960.08,-387.06"/>
<polygon fill="#757575" stroke="#757575" points="1963.58,-387.06 1960.08,-377.06 1956.58,-387.06 1963.58,-387.06"/>
</g>
<!-- src/loops/types.ts&#45;&gt;src/expressions/handlers.ts -->
<g id="edge89" class="edge">
<title>src/loops/types.ts&#45;&gt;src/expressions/handlers.ts</title>
<path fill="none" stroke="#757575" d="M936,-530.99C936,-476.73 936,-249 936,-249 936,-249 1416.43,-249 1416.43,-249"/>
<polygon fill="#757575" stroke="#757575" points="1416.43,-252.5 1426.43,-249 1416.43,-245.5 1416.43,-252.5"/>
</g>
<!-- src/types/namespace&#45;handler.ts&#45;&gt;src/expressions/handlers.ts -->
<g id="edge102" class="edge">
<title>src/types/namespace&#45;handler.ts&#45;&gt;src/expressions/handlers.ts</title>
<path fill="none" stroke="#757575" d="M1558,-353.75C1558,-353.75 1558,-269.2 1558,-269.2"/>
<polygon fill="#757575" stroke="#757575" points="1561.5,-269.2 1558,-259.2 1554.5,-269.2 1561.5,-269.2"/>
</g>
<!-- src/types/namespace&#45;handler.ts&#45;&gt;src/declarations.ts -->
<g id="edge101" class="edge">
<title>src/types/namespace&#45;handler.ts&#45;&gt;src/declarations.ts</title>
<path fill="none" stroke="#757575" d="M1635.5,-353.72C1635.5,-341.45 1635.5,-324 1635.5,-324 1635.5,-324 2349.25,-324 2349.25,-324 2349.25,-324 2349.25,-323.41 2349.25,-323.41"/>
<polygon fill="#757575" stroke="#757575" points="2352.75,-328.08 2349.25,-318.08 2345.75,-328.08 2352.75,-328.08"/>
</g>
<!-- src/types/namespace&#45;handler.ts&#45;&gt;src/utils/identifier&#45;utils.ts -->
<g id="edge103" class="edge">
<title>src/types/namespace&#45;handler.ts&#45;&gt;src/utils/identifier&#45;utils.ts</title>
<path fill="none" stroke="#757575" d="M1609,-353.84C1609,-353.84 1609,-328.13 1609,-328.13"/>
<polygon fill="#757575" stroke="#757575" points="1612.5,-328.13 1609,-318.13 1605.5,-328.13 1612.5,-328.13"/>
</g>
<!-- src/types/type&#45;declarations.ts&#45;&gt;src/declarations.ts -->
<g id="edge108" class="edge">
<title>src/types/type&#45;declarations.ts&#45;&gt;src/declarations.ts</title>
<path fill="none" stroke="#757575" d="M2411.75,-353.84C2411.75,-353.84 2411.75,-328.13 2411.75,-328.13"/>
<polygon fill="#757575" stroke="#757575" points="2415.25,-328.13 2411.75,-318.13 2408.25,-328.13 2415.25,-328.13"/>
</g>
<!-- src/types/type&#45;declarations.ts&#45;&gt;src/type&#45;utils.ts -->
<g id="edge109" class="edge">
<title>src/types/type&#45;declarations.ts&#45;&gt;src/type&#45;utils.ts</title>
<path fill="none" stroke="#757575" d="M2476,-353.9C2476,-293.43 2476,-17 2476,-17 2476,-17 2719.94,-17 2719.94,-17"/>
<polygon fill="#757575" stroke="#757575" points="2719.94,-20.5 2729.94,-17 2719.94,-13.5 2719.94,-20.5"/>
</g>
<!-- src/utils/interpret.ts -->
<g id="node46" class="node">
<title>src/utils/interpret.ts</title>
<path fill="none" stroke="#c6c5fe" d="M1261.83,-731C1261.83,-731 1147.17,-731 1147.17,-731 1143.33,-731 1139.5,-727.17 1139.5,-723.33 1139.5,-723.33 1139.5,-715.67 1139.5,-715.67 1139.5,-711.83 1143.33,-708 1147.17,-708 1147.17,-708 1261.83,-708 1261.83,-708 1265.67,-708 1269.5,-711.83 1269.5,-715.67 1269.5,-715.67 1269.5,-723.33 1269.5,-723.33 1269.5,-727.17 1265.67,-731 1261.83,-731"/>
<text text-anchor="middle" x="1204.5" y="-715.8" font-family="Arial" font-size="14.00" fill="#c6c5fe">src/utils/interpret.ts</text>
</g>
<!-- src/utils/interpret.ts&#45;&gt;src/app.ts -->
<g id="edge122" class="edge">
<title>src/utils/interpret.ts&#45;&gt;src/app.ts</title>
<path fill="none" stroke="#757575" d="M1204.5,-707.84C1204.5,-707.84 1204.5,-682.13 1204.5,-682.13"/>
<polygon fill="#757575" stroke="#757575" points="1208,-682.13 1204.5,-672.13 1201,-682.13 1208,-682.13"/>
</g>
<!-- tests/control/control&#45;flow.test.ts -->
<g id="node47" class="node">
<title>tests/control/control&#45;flow.test.ts</title>
<path fill="none" stroke="#c6c5fe" d="M193.33,-790C193.33,-790 7.67,-790 7.67,-790 3.83,-790 0,-786.17 0,-782.33 0,-782.33 0,-774.67 0,-774.67 0,-770.83 3.83,-767 7.67,-767 7.67,-767 193.33,-767 193.33,-767 197.17,-767 201,-770.83 201,-774.67 201,-774.67 201,-782.33 201,-782.33 201,-786.17 197.17,-790 193.33,-790"/>
<text text-anchor="middle" x="100.5" y="-774.8" font-family="Arial" font-size="14.00" fill="#c6c5fe">tests/control/control&#45;flow.test.ts</text>
</g>
<!-- tests/control/control&#45;flow.test.ts&#45;&gt;src/utils/interpret.ts -->
<g id="edge130" class="edge">
<title>tests/control/control&#45;flow.test.ts&#45;&gt;src/utils/interpret.ts</title>
<path fill="none" stroke="#757575" d="M193,-766.74C193,-747.4 193,-711 193,-711 193,-711 1129.3,-711 1129.3,-711"/>
<polygon fill="#757575" stroke="#757575" points="1129.3,-714.5 1139.3,-711 1129.3,-707.5 1129.3,-714.5"/>
</g>
<!-- tests/core/arithmetic.test.ts -->
<g id="node48" class="node">
<title>tests/core/arithmetic.test.ts</title>
<path fill="none" stroke="#c6c5fe" d="M389.83,-790C389.83,-790 227.17,-790 227.17,-790 223.33,-790 219.5,-786.17 219.5,-782.33 219.5,-782.33 219.5,-774.67 219.5,-774.67 219.5,-770.83 223.33,-767 227.17,-767 227.17,-767 389.83,-767 389.83,-767 393.67,-767 397.5,-770.83 397.5,-774.67 397.5,-774.67 397.5,-782.33 397.5,-782.33 397.5,-786.17 393.67,-790 389.83,-790"/>
<text text-anchor="middle" x="308.5" y="-774.8" font-family="Arial" font-size="14.00" fill="#c6c5fe">tests/core/arithmetic.test.ts</text>
</g>
<!-- tests/core/arithmetic.test.ts&#45;&gt;src/utils/interpret.ts -->
<g id="edge131" class="edge">
<title>tests/core/arithmetic.test.ts&#45;&gt;src/utils/interpret.ts</title>
<path fill="none" stroke="#757575" d="M337.75,-766.85C337.75,-748.52 337.75,-715 337.75,-715 337.75,-715 1129.35,-715 1129.35,-715"/>
<polygon fill="#757575" stroke="#757575" points="1129.35,-718.5 1139.35,-715 1129.35,-711.5 1129.35,-718.5"/>
</g>
<!-- tests/core/char.test.ts -->
<g id="node49" class="node">
<title>tests/core/char.test.ts</title>
<path fill="none" stroke="#c6c5fe" d="M551.83,-790C551.83,-790 423.17,-790 423.17,-790 419.33,-790 415.5,-786.17 415.5,-782.33 415.5,-782.33 415.5,-774.67 415.5,-774.67 415.5,-770.83 419.33,-767 423.17,-767 423.17,-767 551.83,-767 551.83,-767 555.67,-767 559.5,-770.83 559.5,-774.67 559.5,-774.67 559.5,-782.33 559.5,-782.33 559.5,-786.17 555.67,-790 551.83,-790"/>
<text text-anchor="middle" x="487.5" y="-774.8" font-family="Arial" font-size="14.00" fill="#c6c5fe">tests/core/char.test.ts</text>
</g>
<!-- tests/core/char.test.ts&#45;&gt;src/utils/interpret.ts -->
<g id="edge132" class="edge">
<title>tests/core/char.test.ts&#45;&gt;src/utils/interpret.ts</title>
<path fill="none" stroke="#757575" d="M511.5,-766.74C511.5,-749.4 511.5,-719 511.5,-719 511.5,-719 1129.3,-719 1129.3,-719"/>
<polygon fill="#757575" stroke="#757575" points="1129.3,-722.5 1139.3,-719 1129.3,-715.5 1129.3,-722.5"/>
</g>
<!-- tests/core/strings.test.ts -->
<g id="node50" class="node">
<title>tests/core/strings.test.ts</title>
<path fill="none" stroke="#c6c5fe" d="M727.83,-790C727.83,-790 585.17,-790 585.17,-790 581.33,-790 577.5,-786.17 577.5,-782.33 577.5,-782.33 577.5,-774.67 577.5,-774.67 577.5,-770.83 581.33,-767 585.17,-767 585.17,-767 727.83,-767 727.83,-767 731.67,-767 735.5,-770.83 735.5,-774.67 735.5,-774.67 735.5,-782.33 735.5,-782.33 735.5,-786.17 731.67,-790 727.83,-790"/>
<text text-anchor="middle" x="656.5" y="-774.8" font-family="Arial" font-size="14.00" fill="#c6c5fe">tests/core/strings.test.ts</text>
</g>
<!-- tests/core/strings.test.ts&#45;&gt;src/utils/interpret.ts -->
<g id="edge133" class="edge">
<title>tests/core/strings.test.ts&#45;&gt;src/utils/interpret.ts</title>
<path fill="none" stroke="#757575" d="M655.25,-766.73C655.25,-750.44 655.25,-723 655.25,-723 655.25,-723 1129.34,-723 1129.34,-723"/>
<polygon fill="#757575" stroke="#757575" points="1129.34,-726.5 1139.34,-723 1129.34,-719.5 1129.34,-726.5"/>
</g>
<!-- tests/functions/constructor.test.ts -->
<g id="node51" class="node">
<title>tests/functions/constructor.test.ts</title>
<path fill="none" stroke="#c6c5fe" d="M957.83,-790C957.83,-790 761.17,-790 761.17,-790 757.33,-790 753.5,-786.17 753.5,-782.33 753.5,-782.33 753.5,-774.67 753.5,-774.67 753.5,-770.83 757.33,-767 761.17,-767 761.17,-767 957.83,-767 957.83,-767 961.67,-767 965.5,-770.83 965.5,-774.67 965.5,-774.67 965.5,-782.33 965.5,-782.33 965.5,-786.17 961.67,-790 957.83,-790"/>
<text text-anchor="middle" x="859.5" y="-774.8" font-family="Arial" font-size="14.00" fill="#c6c5fe">tests/functions/constructor.test.ts</text>
</g>
<!-- tests/functions/constructor.test.ts&#45;&gt;src/utils/interpret.ts -->
<g id="edge134" class="edge">
<title>tests/functions/constructor.test.ts&#45;&gt;src/utils/interpret.ts</title>
<path fill="none" stroke="#757575" d="M934,-766.81C934,-751.62 934,-727 934,-727 934,-727 1129.36,-727 1129.36,-727"/>
<polygon fill="#757575" stroke="#757575" points="1129.36,-730.5 1139.36,-727 1129.36,-723.5 1129.36,-730.5"/>
</g>
<!-- tests/functions/functions.test.ts -->
<g id="node52" class="node">
<title>tests/functions/functions.test.ts</title>
<path fill="none" stroke="#c6c5fe" d="M1175.83,-790C1175.83,-790 991.17,-790 991.17,-790 987.33,-790 983.5,-786.17 983.5,-782.33 983.5,-782.33 983.5,-774.67 983.5,-774.67 983.5,-770.83 987.33,-767 991.17,-767 991.17,-767 1175.83,-767 1175.83,-767 1179.67,-767 1183.5,-770.83 1183.5,-774.67 1183.5,-774.67 1183.5,-782.33 1183.5,-782.33 1183.5,-786.17 1179.67,-790 1175.83,-790"/>
<text text-anchor="middle" x="1083.5" y="-774.8" font-family="Arial" font-size="14.00" fill="#c6c5fe">tests/functions/functions.test.ts</text>
</g>
<!-- tests/functions/functions.test.ts&#45;&gt;src/utils/interpret.ts -->
<g id="edge135" class="edge">
<title>tests/functions/functions.test.ts&#45;&gt;src/utils/interpret.ts</title>
<path fill="none" stroke="#757575" d="M1161.5,-766.84C1161.5,-766.84 1161.5,-741.13 1161.5,-741.13"/>
<polygon fill="#757575" stroke="#757575" points="1165,-741.13 1161.5,-731.13 1158,-741.13 1165,-741.13"/>
</g>
<!-- tests/functions/generic&#45;functions.test.ts -->
<g id="node53" class="node">
<title>tests/functions/generic&#45;functions.test.ts</title>
<path fill="none" stroke="#c6c5fe" d="M1443.33,-790C1443.33,-790 1209.67,-790 1209.67,-790 1205.83,-790 1202,-786.17 1202,-782.33 1202,-782.33 1202,-774.67 1202,-774.67 1202,-770.83 1205.83,-767 1209.67,-767 1209.67,-767 1443.33,-767 1443.33,-767 1447.17,-767 1451,-770.83 1451,-774.67 1451,-774.67 1451,-782.33 1451,-782.33 1451,-786.17 1447.17,-790 1443.33,-790"/>
<text text-anchor="middle" x="1326.5" y="-774.8" font-family="Arial" font-size="14.00" fill="#c6c5fe">tests/functions/generic&#45;functions.test.ts</text>
</g>
<!-- tests/functions/generic&#45;functions.test.ts&#45;&gt;src/utils/interpret.ts -->
<g id="edge136" class="edge">
<title>tests/functions/generic&#45;functions.test.ts&#45;&gt;src/utils/interpret.ts</title>
<path fill="none" stroke="#757575" d="M1235.75,-766.84C1235.75,-766.84 1235.75,-741.13 1235.75,-741.13"/>
<polygon fill="#757575" stroke="#757575" points="1239.25,-741.13 1235.75,-731.13 1232.25,-741.13 1239.25,-741.13"/>
</g>
<!-- tests/modules/modules.test.ts -->
<g id="node54" class="node">
<title>tests/modules/modules.test.ts</title>
<path fill="none" stroke="#c6c5fe" d="M1657.83,-790C1657.83,-790 1477.17,-790 1477.17,-790 1473.33,-790 1469.5,-786.17 1469.5,-782.33 1469.5,-782.33 1469.5,-774.67 1469.5,-774.67 1469.5,-770.83 1473.33,-767 1477.17,-767 1477.17,-767 1657.83,-767 1657.83,-767 1661.67,-767 1665.5,-770.83 1665.5,-774.67 1665.5,-774.67 1665.5,-782.33 1665.5,-782.33 1665.5,-786.17 1661.67,-790 1657.83,-790"/>
<text text-anchor="middle" x="1567.5" y="-774.8" font-family="Arial" font-size="14.00" fill="#c6c5fe">tests/modules/modules.test.ts</text>
</g>
<!-- tests/modules/modules.test.ts&#45;&gt;src/utils/interpret.ts -->
<g id="edge137" class="edge">
<title>tests/modules/modules.test.ts&#45;&gt;src/utils/interpret.ts</title>
<path fill="none" stroke="#757575" d="M1495.5,-766.81C1495.5,-751.62 1495.5,-727 1495.5,-727 1495.5,-727 1279.81,-727 1279.81,-727"/>
<polygon fill="#757575" stroke="#757575" points="1279.81,-723.5 1269.81,-727 1279.81,-730.5 1279.81,-723.5"/>
</g>
<!-- tests/types/destructuring.test.ts -->
<g id="node55" class="node">
<title>tests/types/destructuring.test.ts</title>
<path fill="none" stroke="#c6c5fe" d="M1878.33,-790C1878.33,-790 1690.67,-790 1690.67,-790 1686.83,-790 1683,-786.17 1683,-782.33 1683,-782.33 1683,-774.67 1683,-774.67 1683,-770.83 1686.83,-767 1690.67,-767 1690.67,-767 1878.33,-767 1878.33,-767 1882.17,-767 1886,-770.83 1886,-774.67 1886,-774.67 1886,-782.33 1886,-782.33 1886,-786.17 1882.17,-790 1878.33,-790"/>
<text text-anchor="middle" x="1784.5" y="-774.8" font-family="Arial" font-size="14.00" fill="#c6c5fe">tests/types/destructuring.test.ts</text>
</g>
<!-- tests/types/destructuring.test.ts&#45;&gt;src/utils/interpret.ts -->
<g id="edge138" class="edge">
<title>tests/types/destructuring.test.ts&#45;&gt;src/utils/interpret.ts</title>
<path fill="none" stroke="#757575" d="M1753,-766.73C1753,-750.44 1753,-723 1753,-723 1753,-723 1279.57,-723 1279.57,-723"/>
<polygon fill="#757575" stroke="#757575" points="1279.57,-719.5 1269.57,-723 1279.57,-726.5 1279.57,-719.5"/>
</g>
<!-- tests/types/generics.test.ts -->
<g id="node56" class="node">
<title>tests/types/generics.test.ts</title>
<path fill="none" stroke="#c6c5fe" d="M2071.83,-790C2071.83,-790 1911.17,-790 1911.17,-790 1907.33,-790 1903.5,-786.17 1903.5,-782.33 1903.5,-782.33 1903.5,-774.67 1903.5,-774.67 1903.5,-770.83 1907.33,-767 1911.17,-767 1911.17,-767 2071.83,-767 2071.83,-767 2075.67,-767 2079.5,-770.83 2079.5,-774.67 2079.5,-774.67 2079.5,-782.33 2079.5,-782.33 2079.5,-786.17 2075.67,-790 2071.83,-790"/>
<text text-anchor="middle" x="1991.5" y="-774.8" font-family="Arial" font-size="14.00" fill="#c6c5fe">tests/types/generics.test.ts</text>
</g>
<!-- tests/types/generics.test.ts&#45;&gt;src/utils/interpret.ts -->
<g id="edge139" class="edge">
<title>tests/types/generics.test.ts&#45;&gt;src/utils/interpret.ts</title>
<path fill="none" stroke="#757575" d="M1923.25,-766.74C1923.25,-749.4 1923.25,-719 1923.25,-719 1923.25,-719 1279.55,-719 1279.55,-719"/>
<polygon fill="#757575" stroke="#757575" points="1279.55,-715.5 1269.55,-719 1279.55,-722.5 1279.55,-715.5"/>
</g>
<!-- tests/types/types.test.ts -->
<g id="node57" class="node">
<title>tests/types/types.test.ts</title>
<path fill="none" stroke="#c6c5fe" d="M2247.33,-790C2247.33,-790 2105.67,-790 2105.67,-790 2101.83,-790 2098,-786.17 2098,-782.33 2098,-782.33 2098,-774.67 2098,-774.67 2098,-770.83 2101.83,-767 2105.67,-767 2105.67,-767 2247.33,-767 2247.33,-767 2251.17,-767 2255,-770.83 2255,-774.67 2255,-774.67 2255,-782.33 2255,-782.33 2255,-786.17 2251.17,-790 2247.33,-790"/>
<text text-anchor="middle" x="2176.5" y="-774.8" font-family="Arial" font-size="14.00" fill="#c6c5fe">tests/types/types.test.ts</text>
</g>
<!-- tests/types/types.test.ts&#45;&gt;src/utils/interpret.ts -->
<g id="edge140" class="edge">
<title>tests/types/types.test.ts&#45;&gt;src/utils/interpret.ts</title>
<path fill="none" stroke="#757575" d="M2181.25,-766.85C2181.25,-748.52 2181.25,-715 2181.25,-715 2181.25,-715 1279.72,-715 1279.72,-715"/>
<polygon fill="#757575" stroke="#757575" points="1279.72,-711.5 1269.72,-715 1279.72,-718.5 1279.72,-711.5"/>
</g>
<!-- tests/values/variables.test.ts -->
<g id="node58" class="node">
<title>tests/values/variables.test.ts</title>
<path fill="none" stroke="#c6c5fe" d="M2450.33,-790C2450.33,-790 2280.67,-790 2280.67,-790 2276.83,-790 2273,-786.17 2273,-782.33 2273,-782.33 2273,-774.67 2273,-774.67 2273,-770.83 2276.83,-767 2280.67,-767 2280.67,-767 2450.33,-767 2450.33,-767 2454.17,-767 2458,-770.83 2458,-774.67 2458,-774.67 2458,-782.33 2458,-782.33 2458,-786.17 2454.17,-790 2450.33,-790"/>
<text text-anchor="middle" x="2365.5" y="-774.8" font-family="Arial" font-size="14.00" fill="#c6c5fe">tests/values/variables.test.ts</text>
</g>
<!-- tests/values/variables.test.ts&#45;&gt;src/utils/interpret.ts -->
<g id="edge141" class="edge">
<title>tests/values/variables.test.ts&#45;&gt;src/utils/interpret.ts</title>
<path fill="none" stroke="#757575" d="M2302.25,-766.74C2302.25,-747.4 2302.25,-711 2302.25,-711 2302.25,-711 1279.88,-711 1279.88,-711"/>
<polygon fill="#757575" stroke="#757575" points="1279.88,-707.5 1269.88,-711 1279.88,-714.5 1279.88,-707.5"/>
</g>
</g>
</svg>
