<?xml version="1.0" encoding="UTF-8" standalone="no"?>
<!DOCTYPE svg PUBLIC "-//W3C//DTD SVG 1.1//EN"
 "http://www.w3.org/Graphics/SVG/1.1/DTD/svg11.dtd">
<!-- Generated by graphviz version 2.43.0 (0)
 -->
<!-- Title: G Pages: 1 -->
<svg width="1953pt" height="420pt"
 viewBox="0.00 0.00 1952.70 420.20" xmlns="http://www.w3.org/2000/svg" xmlns:xlink="http://www.w3.org/1999/xlink">
<g id="graph0" class="graph" transform="scale(1 1) rotate(0) translate(21.6 398.6)">
<title>G</title>
<polygon fill="#111111" stroke="transparent" points="-21.6,21.6 -21.6,-398.6 1931.1,-398.6 1931.1,21.6 -21.6,21.6"/>
<!-- core/arithmetic.ts -->
<g id="node1" class="node">
<title>core/arithmetic.ts</title>
<path fill="none" stroke="#c6c5fe" d="M286.33,-141C286.33,-141 181.67,-141 181.67,-141 177.83,-141 174,-137.17 174,-133.33 174,-133.33 174,-125.67 174,-125.67 174,-121.83 177.83,-118 181.67,-118 181.67,-118 286.33,-118 286.33,-118 290.17,-118 294,-121.83 294,-125.67 294,-125.67 294,-133.33 294,-133.33 294,-137.17 290.17,-141 286.33,-141"/>
<text text-anchor="middle" x="234" y="-125.8" font-family="Arial" font-size="14.00" fill="#c6c5fe">core/arithmetic.ts</text>
</g>
<!-- core/error.ts -->
<g id="node2" class="node">
<title>core/error.ts</title>
<path fill="none" stroke="#cfffac" d="M275.83,-23C275.83,-23 202.17,-23 202.17,-23 198.33,-23 194.5,-19.17 194.5,-15.33 194.5,-15.33 194.5,-7.67 194.5,-7.67 194.5,-3.83 198.33,0 202.17,0 202.17,0 275.83,0 275.83,0 279.67,0 283.5,-3.83 283.5,-7.67 283.5,-7.67 283.5,-15.33 283.5,-15.33 283.5,-19.17 279.67,-23 275.83,-23"/>
<text text-anchor="middle" x="239" y="-7.8" font-family="Arial" font-size="14.00" fill="#cfffac">core/error.ts</text>
</g>
<!-- core/arithmetic.ts&#45;&gt;core/error.ts -->
<g id="edge1" class="edge">
<title>core/arithmetic.ts&#45;&gt;core/error.ts</title>
<path fill="none" stroke="#757575" d="M210.68,-117.75C210.68,-117.75 210.68,-33.2 210.68,-33.2"/>
<polygon fill="#757575" stroke="#757575" points="214.18,-33.2 210.68,-23.2 207.18,-33.2 214.18,-33.2"/>
</g>
<!-- core/result.ts -->
<g id="node3" class="node">
<title>core/result.ts</title>
<path fill="none" stroke="#cfffac" d="M1075.33,-23C1075.33,-23 996.67,-23 996.67,-23 992.83,-23 989,-19.17 989,-15.33 989,-15.33 989,-7.67 989,-7.67 989,-3.83 992.83,0 996.67,0 996.67,0 1075.33,0 1075.33,0 1079.17,0 1083,-3.83 1083,-7.67 1083,-7.67 1083,-15.33 1083,-15.33 1083,-19.17 1079.17,-23 1075.33,-23"/>
<text text-anchor="middle" x="1036" y="-7.8" font-family="Arial" font-size="14.00" fill="#cfffac">core/result.ts</text>
</g>
<!-- core/arithmetic.ts&#45;&gt;core/result.ts -->
<g id="edge2" class="edge">
<title>core/arithmetic.ts&#45;&gt;core/result.ts</title>
<path fill="none" stroke="#757575" d="M294.07,-133C322.11,-133 349.4,-133 349.4,-133 349.4,-133 349.4,-14 349.4,-14 349.4,-14 978.81,-14 978.81,-14"/>
<polygon fill="#757575" stroke="#757575" points="978.81,-17.5 988.81,-14 978.81,-10.5 978.81,-17.5"/>
</g>
<!-- utils/validation.ts -->
<g id="node4" class="node">
<title>utils/validation.ts</title>
<path fill="none" stroke="#c6c5fe" d="M108.33,-82C108.33,-82 7.67,-82 7.67,-82 3.83,-82 0,-78.17 0,-74.33 0,-74.33 0,-66.67 0,-66.67 0,-62.83 3.83,-59 7.67,-59 7.67,-59 108.33,-59 108.33,-59 112.17,-59 116,-62.83 116,-66.67 116,-66.67 116,-74.33 116,-74.33 116,-78.17 112.17,-82 108.33,-82"/>
<text text-anchor="middle" x="58" y="-66.8" font-family="Arial" font-size="14.00" fill="#c6c5fe">utils/validation.ts</text>
</g>
<!-- core/arithmetic.ts&#45;&gt;utils/validation.ts -->
<g id="edge3" class="edge">
<title>core/arithmetic.ts&#45;&gt;utils/validation.ts</title>
<path fill="none" stroke="#757575" d="M184.25,-117.81C184.25,-102.62 184.25,-78 184.25,-78 184.25,-78 126.32,-78 126.32,-78"/>
<polygon fill="#757575" stroke="#757575" points="126.32,-74.5 116.32,-78 126.32,-81.5 126.32,-74.5"/>
</g>
<!-- utils/validation.ts&#45;&gt;core/error.ts -->
<g id="edge93" class="edge">
<title>utils/validation.ts&#45;&gt;core/error.ts</title>
<path fill="none" stroke="#757575" d="M116.39,-62C156.52,-62 202.59,-62 202.59,-62 202.59,-62 202.59,-33.21 202.59,-33.21"/>
<polygon fill="#757575" stroke="#757575" points="206.09,-33.21 202.59,-23.21 199.09,-33.21 206.09,-33.21"/>
</g>
<!-- utils/validation.ts&#45;&gt;core/result.ts -->
<g id="edge94" class="edge">
<title>utils/validation.ts&#45;&gt;core/result.ts</title>
<path fill="none" stroke="#757575" d="M116.3,-68C195.73,-68 328.2,-68 328.2,-68 328.2,-68 328.2,-12 328.2,-12 328.2,-12 978.74,-12 978.74,-12"/>
<polygon fill="#757575" stroke="#757575" points="978.74,-15.5 988.74,-12 978.74,-8.5 978.74,-15.5"/>
</g>
<!-- eval/for&#45;helpers.ts -->
<g id="node5" class="node">
<title>eval/for&#45;helpers.ts</title>
<path fill="none" stroke="#c6c5fe" d="M1103.33,-318C1103.33,-318 994.67,-318 994.67,-318 990.83,-318 987,-314.17 987,-310.33 987,-310.33 987,-302.67 987,-302.67 987,-298.83 990.83,-295 994.67,-295 994.67,-295 1103.33,-295 1103.33,-295 1107.17,-295 1111,-298.83 1111,-302.67 1111,-302.67 1111,-310.33 1111,-310.33 1111,-314.17 1107.17,-318 1103.33,-318"/>
<text text-anchor="middle" x="1049" y="-302.8" font-family="Arial" font-size="14.00" fill="#c6c5fe">eval/for&#45;helpers.ts</text>
</g>
<!-- eval/for&#45;helpers.ts&#45;&gt;core/error.ts -->
<g id="edge4" class="edge">
<title>eval/for&#45;helpers.ts&#45;&gt;core/error.ts</title>
<path fill="none" stroke="#757575" d="M1026.25,-294.75C1026.25,-252.95 1026.25,-114 1026.25,-114 1026.25,-114 218.77,-114 218.77,-114 218.77,-114 218.77,-33.26 218.77,-33.26"/>
<polygon fill="#757575" stroke="#757575" points="222.27,-33.26 218.77,-23.26 215.27,-33.26 222.27,-33.26"/>
</g>
<!-- eval/for&#45;helpers.ts&#45;&gt;core/result.ts -->
<g id="edge5" class="edge">
<title>eval/for&#45;helpers.ts&#45;&gt;core/result.ts</title>
<path fill="none" stroke="#757575" d="M1071.25,-294.94C1071.25,-294.94 1071.25,-33.3 1071.25,-33.3"/>
<polygon fill="#757575" stroke="#757575" points="1074.75,-33.3 1071.25,-23.3 1067.75,-33.31 1074.75,-33.3"/>
</g>
<!-- eval/loop/for.ts -->
<g id="node6" class="node">
<title>eval/loop/for.ts</title>
<path fill="none" stroke="#c6c5fe" d="M1173.33,-259C1173.33,-259 1084.67,-259 1084.67,-259 1080.83,-259 1077,-255.17 1077,-251.33 1077,-251.33 1077,-243.67 1077,-243.67 1077,-239.83 1080.83,-236 1084.67,-236 1084.67,-236 1173.33,-236 1173.33,-236 1177.17,-236 1181,-239.83 1181,-243.67 1181,-243.67 1181,-251.33 1181,-251.33 1181,-255.17 1177.17,-259 1173.33,-259"/>
<text text-anchor="middle" x="1129" y="-243.8" font-family="Arial" font-size="14.00" fill="#c6c5fe">eval/loop/for.ts</text>
</g>
<!-- eval/for&#45;helpers.ts&#45;&gt;eval/loop/for.ts -->
<g id="edge6" class="edge">
<title>eval/for&#45;helpers.ts&#45;&gt;eval/loop/for.ts</title>
<path fill="none" stroke="#757575" d="M1094,-294.84C1094,-294.84 1094,-269.13 1094,-269.13"/>
<polygon fill="#757575" stroke="#757575" points="1097.5,-269.13 1094,-259.13 1090.5,-269.13 1097.5,-269.13"/>
</g>
<!-- eval/variables&#45;types.ts -->
<g id="node7" class="node">
<title>eval/variables&#45;types.ts</title>
<path fill="none" stroke="#cfffac" d="M1831.33,-23C1831.33,-23 1696.67,-23 1696.67,-23 1692.83,-23 1689,-19.17 1689,-15.33 1689,-15.33 1689,-7.67 1689,-7.67 1689,-3.83 1692.83,0 1696.67,0 1696.67,0 1831.33,0 1831.33,0 1835.17,0 1839,-3.83 1839,-7.67 1839,-7.67 1839,-15.33 1839,-15.33 1839,-19.17 1835.17,-23 1831.33,-23"/>
<text text-anchor="middle" x="1764" y="-7.8" font-family="Arial" font-size="14.00" fill="#cfffac">eval/variables&#45;types.ts</text>
</g>
<!-- eval/for&#45;helpers.ts&#45;&gt;eval/variables&#45;types.ts -->
<g id="edge7" class="edge">
<title>eval/for&#45;helpers.ts&#45;&gt;eval/variables&#45;types.ts</title>
<path fill="none" stroke="#757575" d="M1111.23,-306C1192.56,-306 1324.75,-306 1324.75,-306 1324.75,-306 1324.75,-8 1324.75,-8 1324.75,-8 1678.99,-8 1678.99,-8"/>
<polygon fill="#757575" stroke="#757575" points="1678.99,-11.5 1688.99,-8 1678.99,-4.5 1678.99,-11.5"/>
</g>
<!-- eval/loop/for.ts&#45;&gt;core/error.ts -->
<g id="edge40" class="edge">
<title>eval/loop/for.ts&#45;&gt;core/error.ts</title>
<path fill="none" stroke="#757575" d="M1131.75,-235.78C1131.75,-202.53 1131.75,-110 1131.75,-110 1131.75,-110 226.86,-110 226.86,-110 226.86,-110 226.86,-33.19 226.86,-33.19"/>
<polygon fill="#757575" stroke="#757575" points="230.36,-33.19 226.86,-23.19 223.36,-33.19 230.36,-33.19"/>
</g>
<!-- eval/loop/for.ts&#45;&gt;core/result.ts -->
<g id="edge41" class="edge">
<title>eval/loop/for.ts&#45;&gt;core/result.ts</title>
<path fill="none" stroke="#757575" d="M1076.74,-243C1074.2,-243 1072.69,-243 1072.69,-243 1072.69,-243 1072.69,-33.3 1072.69,-33.3"/>
<polygon fill="#757575" stroke="#757575" points="1076.19,-33.3 1072.69,-23.3 1069.19,-33.3 1076.19,-33.3"/>
</g>
<!-- eval/loop/for.ts&#45;&gt;eval/variables&#45;types.ts -->
<g id="edge44" class="edge">
<title>eval/loop/for.ts&#45;&gt;eval/variables&#45;types.ts</title>
<path fill="none" stroke="#757575" d="M1148,-235.71C1148,-186.87 1148,-3 1148,-3 1148,-3 1678.77,-3 1678.77,-3"/>
<polygon fill="#757575" stroke="#757575" points="1678.77,-6.5 1688.77,-3 1678.77,0.5 1678.77,-6.5"/>
</g>
<!-- parse/parser.ts -->
<g id="node10" class="node">
<title>parse/parser.ts</title>
<path fill="none" stroke="#c6c5fe" d="M405.33,-200C405.33,-200 314.67,-200 314.67,-200 310.83,-200 307,-196.17 307,-192.33 307,-192.33 307,-184.67 307,-184.67 307,-180.83 310.83,-177 314.67,-177 314.67,-177 405.33,-177 405.33,-177 409.17,-177 413,-180.83 413,-184.67 413,-184.67 413,-192.33 413,-192.33 413,-196.17 409.17,-200 405.33,-200"/>
<text text-anchor="middle" x="360" y="-184.8" font-family="Arial" font-size="14.00" fill="#c6c5fe">parse/parser.ts</text>
</g>
<!-- eval/loop/for.ts&#45;&gt;parse/parser.ts -->
<g id="edge45" class="edge">
<title>eval/loop/for.ts&#45;&gt;parse/parser.ts</title>
<path fill="none" stroke="#757575" d="M1115.5,-235.74C1115.5,-217.64 1115.5,-185 1115.5,-185 1115.5,-185 423.13,-185 423.13,-185"/>
<polygon fill="#757575" stroke="#757575" points="423.13,-181.5 413.13,-185 423.13,-188.5 423.13,-181.5"/>
</g>
<!-- eval/loop/loop&#45;common.ts -->
<g id="node19" class="node">
<title>eval/loop/loop&#45;common.ts</title>
<path fill="none" stroke="#c6c5fe" d="M1514.33,-82C1514.33,-82 1357.67,-82 1357.67,-82 1353.83,-82 1350,-78.17 1350,-74.33 1350,-74.33 1350,-66.67 1350,-66.67 1350,-62.83 1353.83,-59 1357.67,-59 1357.67,-59 1514.33,-59 1514.33,-59 1518.17,-59 1522,-62.83 1522,-66.67 1522,-66.67 1522,-74.33 1522,-74.33 1522,-78.17 1518.17,-82 1514.33,-82"/>
<text text-anchor="middle" x="1436" y="-66.8" font-family="Arial" font-size="14.00" fill="#c6c5fe">eval/loop/loop&#45;common.ts</text>
</g>
<!-- eval/loop/for.ts&#45;&gt;eval/loop/loop&#45;common.ts -->
<g id="edge42" class="edge">
<title>eval/loop/for.ts&#45;&gt;eval/loop/loop&#45;common.ts</title>
<path fill="none" stroke="#757575" d="M1164.25,-235.85C1164.25,-196.95 1164.25,-74 1164.25,-74 1164.25,-74 1339.64,-74 1339.64,-74"/>
<polygon fill="#757575" stroke="#757575" points="1339.64,-77.5 1349.64,-74 1339.64,-70.5 1339.64,-77.5"/>
</g>
<!-- eval/loop/loop&#45;utils.ts -->
<g id="node20" class="node">
<title>eval/loop/loop&#45;utils.ts</title>
<path fill="none" stroke="#c6c5fe" d="M1827.83,-82C1827.83,-82 1700.17,-82 1700.17,-82 1696.33,-82 1692.5,-78.17 1692.5,-74.33 1692.5,-74.33 1692.5,-66.67 1692.5,-66.67 1692.5,-62.83 1696.33,-59 1700.17,-59 1700.17,-59 1827.83,-59 1827.83,-59 1831.67,-59 1835.5,-62.83 1835.5,-66.67 1835.5,-66.67 1835.5,-74.33 1835.5,-74.33 1835.5,-78.17 1831.67,-82 1827.83,-82"/>
<text text-anchor="middle" x="1764" y="-66.8" font-family="Arial" font-size="14.00" fill="#c6c5fe">eval/loop/loop&#45;utils.ts</text>
</g>
<!-- eval/loop/for.ts&#45;&gt;eval/loop/loop&#45;utils.ts -->
<g id="edge43" class="edge">
<title>eval/loop/for.ts&#45;&gt;eval/loop/loop&#45;utils.ts</title>
<path fill="none" stroke="#757575" d="M1181.08,-243C1308.28,-243 1624.43,-243 1624.43,-243 1624.43,-243 1624.43,-77 1624.43,-77 1624.43,-77 1682.17,-77 1682.17,-77"/>
<polygon fill="#757575" stroke="#757575" points="1682.17,-80.5 1692.17,-77 1682.17,-73.5 1682.17,-80.5"/>
</g>
<!-- eval/ifelse/ifelse&#45;branch.ts -->
<g id="node8" class="node">
<title>eval/ifelse/ifelse&#45;branch.ts</title>
<path fill="none" stroke="#c6c5fe" d="M937.33,-259C937.33,-259 780.67,-259 780.67,-259 776.83,-259 773,-255.17 773,-251.33 773,-251.33 773,-243.67 773,-243.67 773,-239.83 776.83,-236 780.67,-236 780.67,-236 937.33,-236 937.33,-236 941.17,-236 945,-239.83 945,-243.67 945,-243.67 945,-251.33 945,-251.33 945,-255.17 941.17,-259 937.33,-259"/>
<text text-anchor="middle" x="859" y="-243.8" font-family="Arial" font-size="14.00" fill="#c6c5fe">eval/ifelse/ifelse&#45;branch.ts</text>
</g>
<!-- eval/ifelse/ifelse&#45;branch.ts&#45;&gt;core/error.ts -->
<g id="edge8" class="edge">
<title>eval/ifelse/ifelse&#45;branch.ts&#45;&gt;core/error.ts</title>
<path fill="none" stroke="#757575" d="M834.25,-235.71C834.25,-186.87 834.25,-3 834.25,-3 834.25,-3 293.74,-3 293.74,-3"/>
<polygon fill="#757575" stroke="#757575" points="293.74,0.5 283.74,-3 293.74,-6.5 293.74,0.5"/>
</g>
<!-- eval/ifelse/ifelse&#45;branch.ts&#45;&gt;core/result.ts -->
<g id="edge9" class="edge">
<title>eval/ifelse/ifelse&#45;branch.ts&#45;&gt;core/result.ts</title>
<path fill="none" stroke="#757575" d="M945.08,-251C1002.28,-251 1066.94,-251 1066.94,-251 1066.94,-251 1066.94,-33.05 1066.94,-33.05"/>
<polygon fill="#757575" stroke="#757575" points="1070.44,-33.05 1066.94,-23.05 1063.44,-33.05 1070.44,-33.05"/>
</g>
<!-- eval/ifelse/ifelse&#45;branch.ts&#45;&gt;eval/variables&#45;types.ts -->
<g id="edge11" class="edge">
<title>eval/ifelse/ifelse&#45;branch.ts&#45;&gt;eval/variables&#45;types.ts</title>
<path fill="none" stroke="#757575" d="M871.75,-235.85C871.75,-193.06 871.75,-47 871.75,-47 871.75,-47 1764,-47 1764,-47 1764,-47 1764,-33.12 1764,-33.12"/>
<polygon fill="#757575" stroke="#757575" points="1767.5,-33.12 1764,-23.12 1760.5,-33.12 1767.5,-33.12"/>
</g>
<!-- eval/ifelse/ifelse&#45;helpers.ts -->
<g id="node9" class="node">
<title>eval/ifelse/ifelse&#45;helpers.ts</title>
<path fill="none" stroke="#c6c5fe" d="M1057.83,-82C1057.83,-82 898.17,-82 898.17,-82 894.33,-82 890.5,-78.17 890.5,-74.33 890.5,-74.33 890.5,-66.67 890.5,-66.67 890.5,-62.83 894.33,-59 898.17,-59 898.17,-59 1057.83,-59 1057.83,-59 1061.67,-59 1065.5,-62.83 1065.5,-66.67 1065.5,-66.67 1065.5,-74.33 1065.5,-74.33 1065.5,-78.17 1061.67,-82 1057.83,-82"/>
<text text-anchor="middle" x="978" y="-66.8" font-family="Arial" font-size="14.00" fill="#c6c5fe">eval/ifelse/ifelse&#45;helpers.ts</text>
</g>
<!-- eval/ifelse/ifelse&#45;branch.ts&#45;&gt;eval/ifelse/ifelse&#45;helpers.ts -->
<g id="edge10" class="edge">
<title>eval/ifelse/ifelse&#45;branch.ts&#45;&gt;eval/ifelse/ifelse&#45;helpers.ts</title>
<path fill="none" stroke="#757575" d="M917.75,-235.89C917.75,-235.89 917.75,-92.39 917.75,-92.39"/>
<polygon fill="#757575" stroke="#757575" points="921.25,-92.39 917.75,-82.39 914.25,-92.39 921.25,-92.39"/>
</g>
<!-- eval/ifelse/ifelse&#45;branch.ts&#45;&gt;parse/parser.ts -->
<g id="edge12" class="edge">
<title>eval/ifelse/ifelse&#45;branch.ts&#45;&gt;parse/parser.ts</title>
<path fill="none" stroke="#757575" d="M796.75,-235.74C796.75,-218.4 796.75,-188 796.75,-188 796.75,-188 423.12,-188 423.12,-188"/>
<polygon fill="#757575" stroke="#757575" points="423.12,-184.5 413.12,-188 423.12,-191.5 423.12,-184.5"/>
</g>
<!-- utils/types.ts -->
<g id="node11" class="node">
<title>utils/types.ts</title>
<path fill="none" stroke="#c6c5fe" d="M597.83,-82C597.83,-82 522.17,-82 522.17,-82 518.33,-82 514.5,-78.17 514.5,-74.33 514.5,-74.33 514.5,-66.67 514.5,-66.67 514.5,-62.83 518.33,-59 522.17,-59 522.17,-59 597.83,-59 597.83,-59 601.67,-59 605.5,-62.83 605.5,-66.67 605.5,-66.67 605.5,-74.33 605.5,-74.33 605.5,-78.17 601.67,-82 597.83,-82"/>
<text text-anchor="middle" x="560" y="-66.8" font-family="Arial" font-size="14.00" fill="#c6c5fe">utils/types.ts</text>
</g>
<!-- eval/ifelse/ifelse&#45;branch.ts&#45;&gt;utils/types.ts -->
<g id="edge13" class="edge">
<title>eval/ifelse/ifelse&#45;branch.ts&#45;&gt;utils/types.ts</title>
<path fill="none" stroke="#757575" d="M815.5,-235.85C815.5,-196.36 815.5,-70 815.5,-70 815.5,-70 615.68,-70 615.68,-70"/>
<polygon fill="#757575" stroke="#757575" points="615.68,-66.5 605.68,-70 615.68,-73.5 615.68,-66.5"/>
</g>
<!-- eval/ifelse/ifelse&#45;helpers.ts&#45;&gt;core/error.ts -->
<g id="edge14" class="edge">
<title>eval/ifelse/ifelse&#45;helpers.ts&#45;&gt;core/error.ts</title>
<path fill="none" stroke="#757575" d="M939.75,-58.71C939.75,-38.88 939.75,-1 939.75,-1 939.75,-1 293.63,-1 293.63,-1"/>
<polygon fill="#757575" stroke="#757575" points="293.63,2.5 283.63,-1 293.63,-4.5 293.63,2.5"/>
</g>
<!-- eval/ifelse/ifelse&#45;helpers.ts&#45;&gt;core/result.ts -->
<g id="edge15" class="edge">
<title>eval/ifelse/ifelse&#45;helpers.ts&#45;&gt;core/result.ts</title>
<path fill="none" stroke="#757575" d="M1027.25,-58.84C1027.25,-58.84 1027.25,-33.13 1027.25,-33.13"/>
<polygon fill="#757575" stroke="#757575" points="1030.75,-33.13 1027.25,-23.13 1023.75,-33.13 1030.75,-33.13"/>
</g>
<!-- eval/ifelse/ifelse&#45;helpers.ts&#45;&gt;eval/variables&#45;types.ts -->
<g id="edge16" class="edge">
<title>eval/ifelse/ifelse&#45;helpers.ts&#45;&gt;eval/variables&#45;types.ts</title>
<path fill="none" stroke="#757575" d="M1065.79,-66C1164.78,-66 1312.12,-66 1312.12,-66 1312.12,-66 1312.12,-7 1312.12,-7 1312.12,-7 1678.87,-7 1678.87,-7"/>
<polygon fill="#757575" stroke="#757575" points="1678.87,-10.5 1688.87,-7 1678.87,-3.5 1678.87,-10.5"/>
</g>
<!-- parse/parser.ts&#45;&gt;core/arithmetic.ts -->
<g id="edge87" class="edge">
<title>parse/parser.ts&#45;&gt;core/arithmetic.ts</title>
<path fill="none" stroke="#757575" d="M306.99,-184C276.93,-184 245.25,-184 245.25,-184 245.25,-184 245.25,-151.06 245.25,-151.06"/>
<polygon fill="#757575" stroke="#757575" points="248.75,-151.06 245.25,-141.06 241.75,-151.06 248.75,-151.06"/>
</g>
<!-- parse/parser.ts&#45;&gt;core/error.ts -->
<g id="edge88" class="edge">
<title>parse/parser.ts&#45;&gt;core/error.ts</title>
<path fill="none" stroke="#757575" d="M370.6,-176.85C370.6,-137.36 370.6,-11 370.6,-11 370.6,-11 293.55,-11 293.55,-11"/>
<polygon fill="#757575" stroke="#757575" points="293.55,-7.5 283.55,-11 293.55,-14.5 293.55,-7.5"/>
</g>
<!-- parse/parser.ts&#45;&gt;core/result.ts -->
<g id="edge89" class="edge">
<title>parse/parser.ts&#45;&gt;core/result.ts</title>
<path fill="none" stroke="#757575" d="M391.8,-176.85C391.8,-137.95 391.8,-15 391.8,-15 391.8,-15 978.89,-15 978.89,-15"/>
<polygon fill="#757575" stroke="#757575" points="978.89,-18.5 988.89,-15 978.89,-11.5 978.89,-18.5"/>
</g>
<!-- parse/parser.ts&#45;&gt;utils/types.ts -->
<g id="edge90" class="edge">
<title>parse/parser.ts&#45;&gt;utils/types.ts</title>
<path fill="none" stroke="#757575" d="M413.27,-179C467.66,-179 544.17,-179 544.17,-179 544.17,-179 544.17,-92.11 544.17,-92.11"/>
<polygon fill="#757575" stroke="#757575" points="547.67,-92.11 544.17,-82.11 540.67,-92.11 547.67,-92.11"/>
</g>
<!-- utils/types.ts&#45;&gt;core/error.ts -->
<g id="edge91" class="edge">
<title>utils/types.ts&#45;&gt;core/error.ts</title>
<path fill="none" stroke="#757575" d="M514.28,-65C433.83,-65 275.41,-65 275.41,-65 275.41,-65 275.41,-33.11 275.41,-33.11"/>
<polygon fill="#757575" stroke="#757575" points="278.91,-33.11 275.41,-23.11 271.91,-33.11 278.91,-33.11"/>
</g>
<!-- utils/types.ts&#45;&gt;core/result.ts -->
<g id="edge92" class="edge">
<title>utils/types.ts&#45;&gt;core/result.ts</title>
<path fill="none" stroke="#757575" d="M560,-58.81C560,-43.62 560,-19 560,-19 560,-19 978.62,-19 978.62,-19"/>
<polygon fill="#757575" stroke="#757575" points="978.62,-22.5 988.62,-19 978.62,-15.5 978.62,-22.5"/>
</g>
<!-- eval/ifelse/index.ts -->
<g id="node12" class="node">
<title>eval/ifelse/index.ts</title>
<path fill="none" stroke="#c6c5fe" d="M887.83,-318C887.83,-318 776.17,-318 776.17,-318 772.33,-318 768.5,-314.17 768.5,-310.33 768.5,-310.33 768.5,-302.67 768.5,-302.67 768.5,-298.83 772.33,-295 776.17,-295 776.17,-295 887.83,-295 887.83,-295 891.67,-295 895.5,-298.83 895.5,-302.67 895.5,-302.67 895.5,-310.33 895.5,-310.33 895.5,-314.17 891.67,-318 887.83,-318"/>
<text text-anchor="middle" x="832" y="-302.8" font-family="Arial" font-size="14.00" fill="#c6c5fe">eval/ifelse/index.ts</text>
</g>
<!-- eval/ifelse/index.ts&#45;&gt;core/error.ts -->
<g id="edge17" class="edge">
<title>eval/ifelse/index.ts&#45;&gt;core/error.ts</title>
<path fill="none" stroke="#757575" d="M803.62,-294.81C803.62,-290.21 803.62,-286 803.62,-286 803.62,-286 499,-286 499,-286 499,-286 499,-7 499,-7 499,-7 293.7,-7 293.7,-7"/>
<polygon fill="#757575" stroke="#757575" points="293.7,-3.5 283.7,-7 293.7,-10.5 293.7,-3.5"/>
</g>
<!-- eval/ifelse/index.ts&#45;&gt;core/result.ts -->
<g id="edge18" class="edge">
<title>eval/ifelse/index.ts&#45;&gt;core/result.ts</title>
<path fill="none" stroke="#757575" d="M864.88,-294.84C864.88,-286.6 864.88,-277 864.88,-277 864.88,-277 1069.81,-277 1069.81,-277 1069.81,-277 1069.81,-33.25 1069.81,-33.25"/>
<polygon fill="#757575" stroke="#757575" points="1073.31,-33.25 1069.81,-23.25 1066.31,-33.25 1073.31,-33.25"/>
</g>
<!-- eval/ifelse/index.ts&#45;&gt;eval/ifelse/ifelse&#45;branch.ts -->
<g id="edge19" class="edge">
<title>eval/ifelse/index.ts&#45;&gt;eval/ifelse/ifelse&#45;branch.ts</title>
<path fill="none" stroke="#757575" d="M834.25,-294.84C834.25,-294.84 834.25,-269.13 834.25,-269.13"/>
<polygon fill="#757575" stroke="#757575" points="837.75,-269.13 834.25,-259.13 830.75,-269.13 837.75,-269.13"/>
</g>
<!-- eval/ifelse/index.ts&#45;&gt;eval/ifelse/ifelse&#45;helpers.ts -->
<g id="edge20" class="edge">
<title>eval/ifelse/index.ts&#45;&gt;eval/ifelse/ifelse&#45;helpers.ts</title>
<path fill="none" stroke="#757575" d="M895.86,-306C930.37,-306 966,-306 966,-306 966,-306 966,-92.18 966,-92.18"/>
<polygon fill="#757575" stroke="#757575" points="969.5,-92.18 966,-82.18 962.5,-92.18 969.5,-92.18"/>
</g>
<!-- eval/variables.ts -->
<g id="node13" class="node">
<title>eval/variables.ts</title>
<path fill="none" stroke="#c6c5fe" d="M708.83,-259C708.83,-259 611.17,-259 611.17,-259 607.33,-259 603.5,-255.17 603.5,-251.33 603.5,-251.33 603.5,-243.67 603.5,-243.67 603.5,-239.83 607.33,-236 611.17,-236 611.17,-236 708.83,-236 708.83,-236 712.67,-236 716.5,-239.83 716.5,-243.67 716.5,-243.67 716.5,-251.33 716.5,-251.33 716.5,-255.17 712.67,-259 708.83,-259"/>
<text text-anchor="middle" x="660" y="-243.8" font-family="Arial" font-size="14.00" fill="#c6c5fe">eval/variables.ts</text>
</g>
<!-- eval/ifelse/index.ts&#45;&gt;eval/variables.ts -->
<g id="edge21" class="edge">
<title>eval/ifelse/index.ts&#45;&gt;eval/variables.ts</title>
<path fill="none" stroke="#757575" d="M768.36,-306C737.75,-306 707.62,-306 707.62,-306 707.62,-306 707.62,-269.06 707.62,-269.06"/>
<polygon fill="#757575" stroke="#757575" points="711.13,-269.06 707.62,-259.06 704.13,-269.06 711.13,-269.06"/>
</g>
<!-- eval/variables.ts&#45;&gt;core/error.ts -->
<g id="edge76" class="edge">
<title>eval/variables.ts&#45;&gt;core/error.ts</title>
<path fill="none" stroke="#757575" d="M609.7,-235.85C609.7,-187.61 609.7,-6 609.7,-6 609.7,-6 293.72,-6 293.72,-6"/>
<polygon fill="#757575" stroke="#757575" points="293.72,-2.5 283.72,-6 293.72,-9.5 293.72,-2.5"/>
</g>
<!-- eval/variables.ts&#45;&gt;core/result.ts -->
<g id="edge77" class="edge">
<title>eval/variables.ts&#45;&gt;core/result.ts</title>
<path fill="none" stroke="#757575" d="M611.8,-235.91C611.8,-189.55 611.8,-20 611.8,-20 611.8,-20 978.98,-20 978.98,-20"/>
<polygon fill="#757575" stroke="#757575" points="978.98,-23.5 988.98,-20 978.98,-16.5 978.98,-23.5"/>
</g>
<!-- eval/variables.ts&#45;&gt;utils/validation.ts -->
<g id="edge81" class="edge">
<title>eval/variables.ts&#45;&gt;utils/validation.ts</title>
<path fill="none" stroke="#757575" d="M603.47,-243C549.31,-243 475.75,-243 475.75,-243 475.75,-243 475.75,-72 475.75,-72 475.75,-72 126.09,-72 126.09,-72"/>
<polygon fill="#757575" stroke="#757575" points="126.09,-68.5 116.09,-72 126.09,-75.5 126.09,-68.5"/>
</g>
<!-- eval/variables.ts&#45;&gt;eval/variables&#45;types.ts -->
<g id="edge79" class="edge">
<title>eval/variables.ts&#45;&gt;eval/variables&#45;types.ts</title>
<path fill="none" stroke="#757575" d="M613.9,-235.77C613.9,-191.22 613.9,-35 613.9,-35 613.9,-35 1728.25,-35 1728.25,-35 1728.25,-35 1728.25,-33.25 1728.25,-33.25"/>
<polygon fill="#757575" stroke="#757575" points="1731.75,-33.25 1728.25,-23.25 1724.75,-33.25 1731.75,-33.25"/>
</g>
<!-- eval/variables.ts&#45;&gt;parse/parser.ts -->
<g id="edge80" class="edge">
<title>eval/variables.ts&#45;&gt;parse/parser.ts</title>
<path fill="none" stroke="#757575" d="M607.6,-235.79C607.6,-219.24 607.6,-191 607.6,-191 607.6,-191 423.12,-191 423.12,-191"/>
<polygon fill="#757575" stroke="#757575" points="423.12,-187.5 413.12,-191 423.12,-194.5 423.12,-187.5"/>
</g>
<!-- eval/variables&#45;helpers.ts -->
<g id="node25" class="node">
<title>eval/variables&#45;helpers.ts</title>
<path fill="none" stroke="#c6c5fe" d="M770.33,-141C770.33,-141 623.67,-141 623.67,-141 619.83,-141 616,-137.17 616,-133.33 616,-133.33 616,-125.67 616,-125.67 616,-121.83 619.83,-118 623.67,-118 623.67,-118 770.33,-118 770.33,-118 774.17,-118 778,-121.83 778,-125.67 778,-125.67 778,-133.33 778,-133.33 778,-137.17 774.17,-141 770.33,-141"/>
<text text-anchor="middle" x="697" y="-125.8" font-family="Arial" font-size="14.00" fill="#c6c5fe">eval/variables&#45;helpers.ts</text>
</g>
<!-- eval/variables.ts&#45;&gt;eval/variables&#45;helpers.ts -->
<g id="edge78" class="edge">
<title>eval/variables.ts&#45;&gt;eval/variables&#45;helpers.ts</title>
<path fill="none" stroke="#757575" d="M666.25,-235.75C666.25,-235.75 666.25,-151.2 666.25,-151.2"/>
<polygon fill="#757575" stroke="#757575" points="669.75,-151.2 666.25,-141.2 662.75,-151.2 669.75,-151.2"/>
</g>
<!-- eval/intepret&#45;helpers.ts -->
<g id="node14" class="node">
<title>eval/intepret&#45;helpers.ts</title>
<path fill="none" stroke="#c6c5fe" d="M597.83,-318C597.83,-318 460.17,-318 460.17,-318 456.33,-318 452.5,-314.17 452.5,-310.33 452.5,-310.33 452.5,-302.67 452.5,-302.67 452.5,-298.83 456.33,-295 460.17,-295 460.17,-295 597.83,-295 597.83,-295 601.67,-295 605.5,-298.83 605.5,-302.67 605.5,-302.67 605.5,-310.33 605.5,-310.33 605.5,-314.17 601.67,-318 597.83,-318"/>
<text text-anchor="middle" x="529" y="-302.8" font-family="Arial" font-size="14.00" fill="#c6c5fe">eval/intepret&#45;helpers.ts</text>
</g>
<!-- eval/intepret&#45;helpers.ts&#45;&gt;core/error.ts -->
<g id="edge22" class="edge">
<title>eval/intepret&#45;helpers.ts&#45;&gt;core/error.ts</title>
<path fill="none" stroke="#757575" d="M491.25,-294.8C491.25,-239.61 491.25,-8 491.25,-8 491.25,-8 293.52,-8 293.52,-8"/>
<polygon fill="#757575" stroke="#757575" points="293.52,-4.5 283.52,-8 293.52,-11.5 293.52,-4.5"/>
</g>
<!-- eval/intepret&#45;helpers.ts&#45;&gt;core/result.ts -->
<g id="edge23" class="edge">
<title>eval/intepret&#45;helpers.ts&#45;&gt;core/result.ts</title>
<path fill="none" stroke="#757575" d="M506.75,-294.79C506.75,-240.63 506.75,-17 506.75,-17 506.75,-17 978.57,-17 978.57,-17"/>
<polygon fill="#757575" stroke="#757575" points="978.57,-20.5 988.57,-17 978.57,-13.5 978.57,-20.5"/>
</g>
<!-- eval/intepret&#45;helpers.ts&#45;&gt;utils/validation.ts -->
<g id="edge26" class="edge">
<title>eval/intepret&#45;helpers.ts&#45;&gt;utils/validation.ts</title>
<path fill="none" stroke="#757575" d="M468,-294.7C468,-247.53 468,-75 468,-75 468,-75 126.31,-75 126.31,-75"/>
<polygon fill="#757575" stroke="#757575" points="126.31,-71.5 116.31,-75 126.31,-78.5 126.31,-71.5"/>
</g>
<!-- eval/intepret&#45;helpers.ts&#45;&gt;parse/parser.ts -->
<g id="edge25" class="edge">
<title>eval/intepret&#45;helpers.ts&#45;&gt;parse/parser.ts</title>
<path fill="none" stroke="#757575" d="M460.25,-294.88C460.25,-266.14 460.25,-194 460.25,-194 460.25,-194 423.06,-194 423.06,-194"/>
<polygon fill="#757575" stroke="#757575" points="423.06,-190.5 413.06,-194 423.06,-197.5 423.06,-190.5"/>
</g>
<!-- eval/intepret&#45;helpers.ts&#45;&gt;eval/variables.ts -->
<g id="edge24" class="edge">
<title>eval/intepret&#45;helpers.ts&#45;&gt;eval/variables.ts</title>
<path fill="none" stroke="#757575" d="M605.52,-300C626.34,-300 643.25,-300 643.25,-300 643.25,-300 643.25,-269.15 643.25,-269.15"/>
<polygon fill="#757575" stroke="#757575" points="646.75,-269.15 643.25,-259.15 639.75,-269.15 646.75,-269.15"/>
</g>
<!-- eval/intepret.ts -->
<g id="node15" class="node">
<title>eval/intepret.ts</title>
<path fill="none" stroke="#c6c5fe" d="M777.33,-377C777.33,-377 688.67,-377 688.67,-377 684.83,-377 681,-373.17 681,-369.33 681,-369.33 681,-361.67 681,-361.67 681,-357.83 684.83,-354 688.67,-354 688.67,-354 777.33,-354 777.33,-354 781.17,-354 785,-357.83 785,-361.67 785,-361.67 785,-369.33 785,-369.33 785,-373.17 781.17,-377 777.33,-377"/>
<text text-anchor="middle" x="733" y="-361.8" font-family="Arial" font-size="14.00" fill="#c6c5fe">eval/intepret.ts</text>
</g>
<!-- eval/intepret.ts&#45;&gt;core/error.ts -->
<g id="edge27" class="edge">
<title>eval/intepret.ts&#45;&gt;core/error.ts</title>
<path fill="none" stroke="#757575" d="M680.7,-359C594.68,-359 432.75,-359 432.75,-359 432.75,-359 432.75,-10 432.75,-10 432.75,-10 293.94,-10 293.94,-10"/>
<polygon fill="#757575" stroke="#757575" points="293.94,-6.5 283.94,-10 293.94,-13.5 293.94,-6.5"/>
</g>
<!-- eval/intepret.ts&#45;&gt;core/result.ts -->
<g id="edge28" class="edge">
<title>eval/intepret.ts&#45;&gt;core/result.ts</title>
<path fill="none" stroke="#757575" d="M751.17,-353.93C751.17,-328.11 751.17,-268 751.17,-268 751.17,-268 1068.38,-268 1068.38,-268 1068.38,-268 1068.38,-33.19 1068.38,-33.19"/>
<polygon fill="#757575" stroke="#757575" points="1071.88,-33.19 1068.38,-23.19 1064.88,-33.19 1071.88,-33.19"/>
</g>
<!-- eval/intepret.ts&#45;&gt;utils/validation.ts -->
<g id="edge36" class="edge">
<title>eval/intepret.ts&#45;&gt;utils/validation.ts</title>
<path fill="none" stroke="#757575" d="M680.99,-371C517.03,-371 21.75,-371 21.75,-371 21.75,-371 21.75,-92.28 21.75,-92.28"/>
<polygon fill="#757575" stroke="#757575" points="25.25,-92.28 21.75,-82.28 18.25,-92.28 25.25,-92.28"/>
</g>
<!-- eval/intepret.ts&#45;&gt;eval/for&#45;helpers.ts -->
<g id="edge29" class="edge">
<title>eval/intepret.ts&#45;&gt;eval/for&#45;helpers.ts</title>
<path fill="none" stroke="#757575" d="M785.18,-361C874.93,-361 1049,-361 1049,-361 1049,-361 1049,-328.06 1049,-328.06"/>
<polygon fill="#757575" stroke="#757575" points="1052.5,-328.06 1049,-318.06 1045.5,-328.06 1052.5,-328.06"/>
</g>
<!-- eval/intepret.ts&#45;&gt;parse/parser.ts -->
<g id="edge35" class="edge">
<title>eval/intepret.ts&#45;&gt;parse/parser.ts</title>
<path fill="none" stroke="#757575" d="M680.74,-365C578.09,-365 360,-365 360,-365 360,-365 360,-210.08 360,-210.08"/>
<polygon fill="#757575" stroke="#757575" points="363.5,-210.08 360,-200.08 356.5,-210.08 363.5,-210.08"/>
</g>
<!-- eval/intepret.ts&#45;&gt;eval/ifelse/index.ts -->
<g id="edge30" class="edge">
<title>eval/intepret.ts&#45;&gt;eval/ifelse/index.ts</title>
<path fill="none" stroke="#757575" d="M776.75,-353.84C776.75,-353.84 776.75,-328.13 776.75,-328.13"/>
<polygon fill="#757575" stroke="#757575" points="780.25,-328.13 776.75,-318.13 773.25,-328.13 780.25,-328.13"/>
</g>
<!-- eval/intepret.ts&#45;&gt;eval/variables.ts -->
<g id="edge33" class="edge">
<title>eval/intepret.ts&#45;&gt;eval/variables.ts</title>
<path fill="none" stroke="#757575" d="M698.75,-353.75C698.75,-353.75 698.75,-269.2 698.75,-269.2"/>
<polygon fill="#757575" stroke="#757575" points="702.25,-269.2 698.75,-259.2 695.25,-269.2 702.25,-269.2"/>
</g>
<!-- eval/intepret.ts&#45;&gt;eval/intepret&#45;helpers.ts -->
<g id="edge31" class="edge">
<title>eval/intepret.ts&#45;&gt;eval/intepret&#45;helpers.ts</title>
<path fill="none" stroke="#757575" d="M689.88,-353.89C689.88,-338.16 689.88,-312 689.88,-312 689.88,-312 615.67,-312 615.67,-312"/>
<polygon fill="#757575" stroke="#757575" points="615.67,-308.5 605.67,-312 615.67,-315.5 615.67,-308.5"/>
</g>
<!-- eval/loop/index.ts -->
<g id="node16" class="node">
<title>eval/loop/index.ts</title>
<path fill="none" stroke="#c6c5fe" d="M1901.83,-259C1901.83,-259 1796.17,-259 1796.17,-259 1792.33,-259 1788.5,-255.17 1788.5,-251.33 1788.5,-251.33 1788.5,-243.67 1788.5,-243.67 1788.5,-239.83 1792.33,-236 1796.17,-236 1796.17,-236 1901.83,-236 1901.83,-236 1905.67,-236 1909.5,-239.83 1909.5,-243.67 1909.5,-243.67 1909.5,-251.33 1909.5,-251.33 1909.5,-255.17 1905.67,-259 1901.83,-259"/>
<text text-anchor="middle" x="1849" y="-243.8" font-family="Arial" font-size="14.00" fill="#c6c5fe">eval/loop/index.ts</text>
</g>
<!-- eval/intepret.ts&#45;&gt;eval/loop/index.ts -->
<g id="edge32" class="edge">
<title>eval/intepret.ts&#45;&gt;eval/loop/index.ts</title>
<path fill="none" stroke="#757575" d="M785.33,-369C1005.97,-369 1849,-369 1849,-369 1849,-369 1849,-269.15 1849,-269.15"/>
<polygon fill="#757575" stroke="#757575" points="1852.5,-269.15 1849,-259.15 1845.5,-269.15 1852.5,-269.15"/>
</g>
<!-- eval/while&#45;helpers.ts -->
<g id="node17" class="node">
<title>eval/while&#45;helpers.ts</title>
<path fill="none" stroke="#c6c5fe" d="M1487.83,-200C1487.83,-200 1364.17,-200 1364.17,-200 1360.33,-200 1356.5,-196.17 1356.5,-192.33 1356.5,-192.33 1356.5,-184.67 1356.5,-184.67 1356.5,-180.83 1360.33,-177 1364.17,-177 1364.17,-177 1487.83,-177 1487.83,-177 1491.67,-177 1495.5,-180.83 1495.5,-184.67 1495.5,-184.67 1495.5,-192.33 1495.5,-192.33 1495.5,-196.17 1491.67,-200 1487.83,-200"/>
<text text-anchor="middle" x="1426" y="-184.8" font-family="Arial" font-size="14.00" fill="#c6c5fe">eval/while&#45;helpers.ts</text>
</g>
<!-- eval/intepret.ts&#45;&gt;eval/while&#45;helpers.ts -->
<g id="edge34" class="edge">
<title>eval/intepret.ts&#45;&gt;eval/while&#45;helpers.ts</title>
<path fill="none" stroke="#757575" d="M733.83,-353.92C733.83,-315.85 733.83,-197 733.83,-197 733.83,-197 1346.46,-197 1346.46,-197"/>
<polygon fill="#757575" stroke="#757575" points="1346.46,-200.5 1356.46,-197 1346.46,-193.5 1346.46,-200.5"/>
</g>
<!-- eval/loop/index.ts&#45;&gt;core/error.ts -->
<g id="edge46" class="edge">
<title>eval/loop/index.ts&#45;&gt;core/error.ts</title>
<path fill="none" stroke="#757575" d="M1812.17,-235.96C1812.17,-200.26 1812.17,-94 1812.17,-94 1812.17,-94 259.23,-94 259.23,-94 259.23,-94 259.23,-33.32 259.23,-33.32"/>
<polygon fill="#757575" stroke="#757575" points="262.73,-33.32 259.23,-23.32 255.73,-33.32 262.73,-33.32"/>
</g>
<!-- eval/loop/index.ts&#45;&gt;core/result.ts -->
<g id="edge47" class="edge">
<title>eval/loop/index.ts&#45;&gt;core/result.ts</title>
<path fill="none" stroke="#757575" d="M1788.3,-251C1652.78,-251 1337.38,-251 1337.38,-251 1337.38,-251 1337.38,-21 1337.38,-21 1337.38,-21 1093.09,-21 1093.09,-21"/>
<polygon fill="#757575" stroke="#757575" points="1093.09,-17.5 1083.09,-21 1093.09,-24.5 1093.09,-17.5"/>
</g>
<!-- eval/loop/index.ts&#45;&gt;eval/variables&#45;types.ts -->
<g id="edge50" class="edge">
<title>eval/loop/index.ts&#45;&gt;eval/variables&#45;types.ts</title>
<path fill="none" stroke="#757575" d="M1886,-235.9C1886,-187.86 1886,-7 1886,-7 1886,-7 1849.18,-7 1849.18,-7"/>
<polygon fill="#757575" stroke="#757575" points="1849.18,-3.5 1839.18,-7 1849.18,-10.5 1849.18,-3.5"/>
</g>
<!-- eval/loop/index.ts&#45;&gt;eval/loop/loop&#45;utils.ts -->
<g id="edge49" class="edge">
<title>eval/loop/index.ts&#45;&gt;eval/loop/loop&#45;utils.ts</title>
<path fill="none" stroke="#757575" d="M1823.83,-235.89C1823.83,-235.89 1823.83,-92.39 1823.83,-92.39"/>
<polygon fill="#757575" stroke="#757575" points="1827.33,-92.39 1823.83,-82.39 1820.33,-92.39 1827.33,-92.39"/>
</g>
<!-- eval/loop/loop&#45;helpers.ts -->
<g id="node21" class="node">
<title>eval/loop/loop&#45;helpers.ts</title>
<path fill="none" stroke="#c6c5fe" d="M1792.83,-200C1792.83,-200 1645.17,-200 1645.17,-200 1641.33,-200 1637.5,-196.17 1637.5,-192.33 1637.5,-192.33 1637.5,-184.67 1637.5,-184.67 1637.5,-180.83 1641.33,-177 1645.17,-177 1645.17,-177 1792.83,-177 1792.83,-177 1796.67,-177 1800.5,-180.83 1800.5,-184.67 1800.5,-184.67 1800.5,-192.33 1800.5,-192.33 1800.5,-196.17 1796.67,-200 1792.83,-200"/>
<text text-anchor="middle" x="1719" y="-184.8" font-family="Arial" font-size="14.00" fill="#c6c5fe">eval/loop/loop&#45;helpers.ts</text>
</g>
<!-- eval/loop/index.ts&#45;&gt;eval/loop/loop&#45;helpers.ts -->
<g id="edge48" class="edge">
<title>eval/loop/index.ts&#45;&gt;eval/loop/loop&#45;helpers.ts</title>
<path fill="none" stroke="#757575" d="M1794.5,-235.84C1794.5,-235.84 1794.5,-210.13 1794.5,-210.13"/>
<polygon fill="#757575" stroke="#757575" points="1798,-210.13 1794.5,-200.13 1791,-210.13 1798,-210.13"/>
</g>
<!-- eval/while&#45;helpers.ts&#45;&gt;core/error.ts -->
<g id="edge82" class="edge">
<title>eval/while&#45;helpers.ts&#45;&gt;core/error.ts</title>
<path fill="none" stroke="#757575" d="M1386.5,-176.68C1386.5,-153.87 1386.5,-106 1386.5,-106 1386.5,-106 234.95,-106 234.95,-106 234.95,-106 234.95,-33.09 234.95,-33.09"/>
<polygon fill="#757575" stroke="#757575" points="238.45,-33.09 234.95,-23.09 231.45,-33.09 238.45,-33.09"/>
</g>
<!-- eval/while&#45;helpers.ts&#45;&gt;core/result.ts -->
<g id="edge83" class="edge">
<title>eval/while&#45;helpers.ts&#45;&gt;core/result.ts</title>
<path fill="none" stroke="#757575" d="M1356.48,-182C1253.93,-182 1074.12,-182 1074.12,-182 1074.12,-182 1074.12,-33.22 1074.12,-33.22"/>
<polygon fill="#757575" stroke="#757575" points="1077.63,-33.22 1074.12,-23.22 1070.63,-33.22 1077.63,-33.22"/>
</g>
<!-- eval/while&#45;helpers.ts&#45;&gt;eval/variables&#45;types.ts -->
<g id="edge86" class="edge">
<title>eval/while&#45;helpers.ts&#45;&gt;eval/variables&#45;types.ts</title>
<path fill="none" stroke="#757575" d="M1495.58,-190C1543.39,-190 1598.29,-190 1598.29,-190 1598.29,-190 1598.29,-14 1598.29,-14 1598.29,-14 1678.9,-14 1678.9,-14"/>
<polygon fill="#757575" stroke="#757575" points="1678.9,-17.5 1688.9,-14 1678.9,-10.5 1678.9,-17.5"/>
</g>
<!-- eval/while&#45;helpers.ts&#45;&gt;eval/loop/loop&#45;utils.ts -->
<g id="edge84" class="edge">
<title>eval/while&#45;helpers.ts&#45;&gt;eval/loop/loop&#45;utils.ts</title>
<path fill="none" stroke="#757575" d="M1495.55,-193C1548.14,-193 1611.36,-193 1611.36,-193 1611.36,-193 1611.36,-72 1611.36,-72 1611.36,-72 1682.15,-72 1682.15,-72"/>
<polygon fill="#757575" stroke="#757575" points="1682.15,-75.5 1692.15,-72 1682.15,-68.5 1682.15,-75.5"/>
</g>
<!-- eval/loop/while.ts -->
<g id="node24" class="node">
<title>eval/loop/while.ts</title>
<path fill="none" stroke="#c6c5fe" d="M1291.83,-141C1291.83,-141 1188.17,-141 1188.17,-141 1184.33,-141 1180.5,-137.17 1180.5,-133.33 1180.5,-133.33 1180.5,-125.67 1180.5,-125.67 1180.5,-121.83 1184.33,-118 1188.17,-118 1188.17,-118 1291.83,-118 1291.83,-118 1295.67,-118 1299.5,-121.83 1299.5,-125.67 1299.5,-125.67 1299.5,-133.33 1299.5,-133.33 1299.5,-137.17 1295.67,-141 1291.83,-141"/>
<text text-anchor="middle" x="1240" y="-125.8" font-family="Arial" font-size="14.00" fill="#c6c5fe">eval/loop/while.ts</text>
</g>
<!-- eval/while&#45;helpers.ts&#45;&gt;eval/loop/while.ts -->
<g id="edge85" class="edge">
<title>eval/while&#45;helpers.ts&#45;&gt;eval/loop/while.ts</title>
<path fill="none" stroke="#757575" d="M1379,-176.73C1379,-160.44 1379,-133 1379,-133 1379,-133 1309.76,-133 1309.76,-133"/>
<polygon fill="#757575" stroke="#757575" points="1309.76,-129.5 1299.76,-133 1309.76,-136.5 1309.76,-129.5"/>
</g>
<!-- eval/loop/for&#45;helpers.ts -->
<g id="node18" class="node">
<title>eval/loop/for&#45;helpers.ts</title>
<path fill="none" stroke="#c6c5fe" d="M188.83,-259C188.83,-259 51.17,-259 51.17,-259 47.33,-259 43.5,-255.17 43.5,-251.33 43.5,-251.33 43.5,-243.67 43.5,-243.67 43.5,-239.83 47.33,-236 51.17,-236 51.17,-236 188.83,-236 188.83,-236 192.67,-236 196.5,-239.83 196.5,-243.67 196.5,-243.67 196.5,-251.33 196.5,-251.33 196.5,-255.17 192.67,-259 188.83,-259"/>
<text text-anchor="middle" x="120" y="-243.8" font-family="Arial" font-size="14.00" fill="#c6c5fe">eval/loop/for&#45;helpers.ts</text>
</g>
<!-- eval/loop/for&#45;helpers.ts&#45;&gt;core/error.ts -->
<g id="edge37" class="edge">
<title>eval/loop/for&#45;helpers.ts&#45;&gt;core/error.ts</title>
<path fill="none" stroke="#757575" d="M145,-235.77C145,-188.05 145,-11 145,-11 145,-11 184.48,-11 184.48,-11"/>
<polygon fill="#757575" stroke="#757575" points="184.48,-14.5 194.48,-11 184.48,-7.5 184.48,-14.5"/>
</g>
<!-- eval/loop/for&#45;helpers.ts&#45;&gt;core/result.ts -->
<g id="edge38" class="edge">
<title>eval/loop/for&#45;helpers.ts&#45;&gt;core/result.ts</title>
<path fill="none" stroke="#757575" d="M196.64,-251C303.29,-251 483.5,-251 483.5,-251 483.5,-251 483.5,-16 483.5,-16 483.5,-16 978.89,-16 978.89,-16"/>
<polygon fill="#757575" stroke="#757575" points="978.89,-19.5 988.89,-16 978.89,-12.5 978.89,-19.5"/>
</g>
<!-- eval/loop/for&#45;helpers.ts&#45;&gt;parse/parser.ts -->
<g id="edge39" class="edge">
<title>eval/loop/for&#45;helpers.ts&#45;&gt;parse/parser.ts</title>
<path fill="none" stroke="#757575" d="M185.25,-235.73C185.25,-219.44 185.25,-192 185.25,-192 185.25,-192 296.62,-192 296.62,-192"/>
<polygon fill="#757575" stroke="#757575" points="296.62,-195.5 306.62,-192 296.62,-188.5 296.62,-195.5"/>
</g>
<!-- eval/loop/loop&#45;common.ts&#45;&gt;core/error.ts -->
<g id="edge55" class="edge">
<title>eval/loop/loop&#45;common.ts&#45;&gt;core/error.ts</title>
<path fill="none" stroke="#757575" d="M1371.5,-82.09C1371.5,-84.33 1371.5,-86 1371.5,-86 1371.5,-86 267.32,-86 267.32,-86 267.32,-86 267.32,-33.14 267.32,-33.14"/>
<polygon fill="#757575" stroke="#757575" points="270.82,-33.14 267.32,-23.14 263.82,-33.14 270.82,-33.14"/>
</g>
<!-- eval/loop/loop&#45;common.ts&#45;&gt;core/result.ts -->
<g id="edge56" class="edge">
<title>eval/loop/loop&#45;common.ts&#45;&gt;core/result.ts</title>
<path fill="none" stroke="#757575" d="M1407.33,-58.81C1407.33,-43.62 1407.33,-19 1407.33,-19 1407.33,-19 1093.03,-19 1093.03,-19"/>
<polygon fill="#757575" stroke="#757575" points="1093.03,-15.5 1083.03,-19 1093.03,-22.5 1093.03,-15.5"/>
</g>
<!-- eval/loop/loop&#45;common.ts&#45;&gt;eval/variables&#45;types.ts -->
<g id="edge57" class="edge">
<title>eval/loop/loop&#45;common.ts&#45;&gt;eval/variables&#45;types.ts</title>
<path fill="none" stroke="#757575" d="M1464.67,-58.83C1464.67,-41.25 1464.67,-10 1464.67,-10 1464.67,-10 1678.85,-10 1678.85,-10"/>
<polygon fill="#757575" stroke="#757575" points="1678.85,-13.5 1688.85,-10 1678.85,-6.5 1678.85,-13.5"/>
</g>
<!-- eval/loop/loop&#45;utils.ts&#45;&gt;eval/variables&#45;types.ts -->
<g id="edge66" class="edge">
<title>eval/loop/loop&#45;utils.ts&#45;&gt;eval/variables&#45;types.ts</title>
<path fill="none" stroke="#757575" d="M1799.75,-58.84C1799.75,-58.84 1799.75,-33.13 1799.75,-33.13"/>
<polygon fill="#757575" stroke="#757575" points="1803.25,-33.13 1799.75,-23.13 1796.25,-33.13 1803.25,-33.13"/>
</g>
<!-- eval/loop/loop&#45;helpers.ts&#45;&gt;core/error.ts -->
<g id="edge58" class="edge">
<title>eval/loop/loop&#45;helpers.ts&#45;&gt;core/error.ts</title>
<path fill="none" stroke="#757575" d="M1637.16,-196C1597.81,-196 1559.07,-196 1559.07,-196 1559.07,-196 1559.07,-98 1559.07,-98 1559.07,-98 251.14,-98 251.14,-98 251.14,-98 251.14,-33.17 251.14,-33.17"/>
<polygon fill="#757575" stroke="#757575" points="254.64,-33.17 251.14,-23.17 247.64,-33.17 254.64,-33.17"/>
</g>
<!-- eval/loop/loop&#45;helpers.ts&#45;&gt;core/result.ts -->
<g id="edge59" class="edge">
<title>eval/loop/loop&#45;helpers.ts&#45;&gt;core/result.ts</title>
<path fill="none" stroke="#757575" d="M1637.32,-183C1609.47,-183 1585.21,-183 1585.21,-183 1585.21,-183 1585.21,-15 1585.21,-15 1585.21,-15 1093.3,-15 1093.3,-15"/>
<polygon fill="#757575" stroke="#757575" points="1093.3,-11.5 1083.3,-15 1093.3,-18.5 1093.3,-11.5"/>
</g>
<!-- eval/loop/loop&#45;helpers.ts&#45;&gt;eval/variables&#45;types.ts -->
<g id="edge63" class="edge">
<title>eval/loop/loop&#45;helpers.ts&#45;&gt;eval/variables&#45;types.ts</title>
<path fill="none" stroke="#757575" d="M1800.81,-188C1833.04,-188 1862.5,-188 1862.5,-188 1862.5,-188 1862.5,-15 1862.5,-15 1862.5,-15 1849.16,-15 1849.16,-15"/>
<polygon fill="#757575" stroke="#757575" points="1849.16,-11.5 1839.16,-15 1849.16,-18.5 1849.16,-11.5"/>
</g>
<!-- eval/loop/loop&#45;helpers.ts&#45;&gt;eval/loop/loop&#45;common.ts -->
<g id="edge61" class="edge">
<title>eval/loop/loop&#45;helpers.ts&#45;&gt;eval/loop/loop&#45;common.ts</title>
<path fill="none" stroke="#757575" d="M1637.41,-186C1603.61,-186 1572.14,-186 1572.14,-186 1572.14,-186 1572.14,-68 1572.14,-68 1572.14,-68 1532.22,-68 1532.22,-68"/>
<polygon fill="#757575" stroke="#757575" points="1532.22,-64.5 1522.22,-68 1532.22,-71.5 1532.22,-64.5"/>
</g>
<!-- eval/loop/loop&#45;break.ts -->
<g id="node22" class="node">
<title>eval/loop/loop&#45;break.ts</title>
<path fill="none" stroke="#c6c5fe" d="M1538.33,-141C1538.33,-141 1401.67,-141 1401.67,-141 1397.83,-141 1394,-137.17 1394,-133.33 1394,-133.33 1394,-125.67 1394,-125.67 1394,-121.83 1397.83,-118 1401.67,-118 1401.67,-118 1538.33,-118 1538.33,-118 1542.17,-118 1546,-121.83 1546,-125.67 1546,-125.67 1546,-133.33 1546,-133.33 1546,-137.17 1542.17,-141 1538.33,-141"/>
<text text-anchor="middle" x="1470" y="-125.8" font-family="Arial" font-size="14.00" fill="#c6c5fe">eval/loop/loop&#45;break.ts</text>
</g>
<!-- eval/loop/loop&#45;helpers.ts&#45;&gt;eval/loop/loop&#45;break.ts -->
<g id="edge60" class="edge">
<title>eval/loop/loop&#45;helpers.ts&#45;&gt;eval/loop/loop&#45;break.ts</title>
<path fill="none" stroke="#757575" d="M1637.22,-180C1582.61,-180 1520.75,-180 1520.75,-180 1520.75,-180 1520.75,-151.21 1520.75,-151.21"/>
<polygon fill="#757575" stroke="#757575" points="1524.25,-151.21 1520.75,-141.21 1517.25,-151.21 1524.25,-151.21"/>
</g>
<!-- eval/loop/loop&#45;ifbreak.ts -->
<g id="node23" class="node">
<title>eval/loop/loop&#45;ifbreak.ts</title>
<path fill="none" stroke="#c6c5fe" d="M1790.83,-141C1790.83,-141 1647.17,-141 1647.17,-141 1643.33,-141 1639.5,-137.17 1639.5,-133.33 1639.5,-133.33 1639.5,-125.67 1639.5,-125.67 1639.5,-121.83 1643.33,-118 1647.17,-118 1647.17,-118 1790.83,-118 1790.83,-118 1794.67,-118 1798.5,-121.83 1798.5,-125.67 1798.5,-125.67 1798.5,-133.33 1798.5,-133.33 1798.5,-137.17 1794.67,-141 1790.83,-141"/>
<text text-anchor="middle" x="1719" y="-125.8" font-family="Arial" font-size="14.00" fill="#c6c5fe">eval/loop/loop&#45;ifbreak.ts</text>
</g>
<!-- eval/loop/loop&#45;helpers.ts&#45;&gt;eval/loop/loop&#45;ifbreak.ts -->
<g id="edge62" class="edge">
<title>eval/loop/loop&#45;helpers.ts&#45;&gt;eval/loop/loop&#45;ifbreak.ts</title>
<path fill="none" stroke="#757575" d="M1719,-176.84C1719,-176.84 1719,-151.13 1719,-151.13"/>
<polygon fill="#757575" stroke="#757575" points="1722.5,-151.13 1719,-141.13 1715.5,-151.13 1722.5,-151.13"/>
</g>
<!-- eval/loop/loop&#45;break.ts&#45;&gt;core/error.ts -->
<g id="edge51" class="edge">
<title>eval/loop/loop&#45;break.ts&#45;&gt;core/error.ts</title>
<path fill="none" stroke="#757575" d="M1436.67,-118C1436.67,-110.46 1436.67,-102 1436.67,-102 1436.67,-102 243.05,-102 243.05,-102 243.05,-102 243.05,-33.33 243.05,-33.33"/>
<polygon fill="#757575" stroke="#757575" points="246.55,-33.33 243.05,-23.33 239.55,-33.33 246.55,-33.33"/>
</g>
<!-- eval/loop/loop&#45;break.ts&#45;&gt;core/result.ts -->
<g id="edge52" class="edge">
<title>eval/loop/loop&#45;break.ts&#45;&gt;core/result.ts</title>
<path fill="none" stroke="#757575" d="M1530,-117.88C1530,-89.14 1530,-17 1530,-17 1530,-17 1093.37,-17 1093.37,-17"/>
<polygon fill="#757575" stroke="#757575" points="1093.37,-13.5 1083.37,-17 1093.37,-20.5 1093.37,-13.5"/>
</g>
<!-- eval/loop/loop&#45;break.ts&#45;&gt;eval/variables&#45;types.ts -->
<g id="edge54" class="edge">
<title>eval/loop/loop&#45;break.ts&#45;&gt;eval/variables&#45;types.ts</title>
<path fill="none" stroke="#757575" d="M1538,-117.8C1538,-88.08 1538,-12 1538,-12 1538,-12 1678.75,-12 1678.75,-12"/>
<polygon fill="#757575" stroke="#757575" points="1678.75,-15.5 1688.75,-12 1678.75,-8.5 1678.75,-15.5"/>
</g>
<!-- eval/loop/loop&#45;break.ts&#45;&gt;eval/loop/loop&#45;common.ts -->
<g id="edge53" class="edge">
<title>eval/loop/loop&#45;break.ts&#45;&gt;eval/loop/loop&#45;common.ts</title>
<path fill="none" stroke="#757575" d="M1479.33,-117.84C1479.33,-117.84 1479.33,-92.13 1479.33,-92.13"/>
<polygon fill="#757575" stroke="#757575" points="1482.83,-92.13 1479.33,-82.13 1475.83,-92.13 1482.83,-92.13"/>
</g>
<!-- eval/loop/loop&#45;ifbreak.ts&#45;&gt;eval/loop/loop&#45;common.ts -->
<g id="edge64" class="edge">
<title>eval/loop/loop&#45;ifbreak.ts&#45;&gt;eval/loop/loop&#45;common.ts</title>
<path fill="none" stroke="#757575" d="M1664.25,-117.92C1664.25,-98.86 1664.25,-63 1664.25,-63 1664.25,-63 1532.29,-63 1532.29,-63"/>
<polygon fill="#757575" stroke="#757575" points="1532.29,-59.5 1522.29,-63 1532.29,-66.5 1532.29,-59.5"/>
</g>
<!-- eval/loop/loop&#45;ifbreak.ts&#45;&gt;eval/loop/loop&#45;utils.ts -->
<g id="edge65" class="edge">
<title>eval/loop/loop&#45;ifbreak.ts&#45;&gt;eval/loop/loop&#45;utils.ts</title>
<path fill="none" stroke="#757575" d="M1763.17,-117.84C1763.17,-117.84 1763.17,-92.13 1763.17,-92.13"/>
<polygon fill="#757575" stroke="#757575" points="1766.67,-92.13 1763.17,-82.13 1759.67,-92.13 1766.67,-92.13"/>
</g>
<!-- eval/loop/while.ts&#45;&gt;core/error.ts -->
<g id="edge67" class="edge">
<title>eval/loop/while.ts&#45;&gt;core/error.ts</title>
<path fill="none" stroke="#757575" d="M1180.38,-129C1071.82,-129 853,-129 853,-129 853,-129 853,-2 853,-2 853,-2 293.65,-2 293.65,-2"/>
<polygon fill="#757575" stroke="#757575" points="293.65,1.5 283.65,-2 293.65,-5.5 293.65,1.5"/>
</g>
<!-- eval/loop/while.ts&#45;&gt;core/result.ts -->
<g id="edge68" class="edge">
<title>eval/loop/while.ts&#45;&gt;core/result.ts</title>
<path fill="none" stroke="#757575" d="M1180.17,-123C1133.15,-123 1075.56,-123 1075.56,-123 1075.56,-123 1075.56,-33.01 1075.56,-33.01"/>
<polygon fill="#757575" stroke="#757575" points="1079.06,-33.01 1075.56,-23.01 1072.06,-33.01 1079.06,-33.01"/>
</g>
<!-- eval/loop/while.ts&#45;&gt;eval/variables&#45;types.ts -->
<g id="edge71" class="edge">
<title>eval/loop/while.ts&#45;&gt;eval/variables&#45;types.ts</title>
<path fill="none" stroke="#757575" d="M1220.17,-117.56C1220.17,-86.4 1220.17,-5 1220.17,-5 1220.17,-5 1678.95,-5 1678.95,-5"/>
<polygon fill="#757575" stroke="#757575" points="1678.95,-8.5 1688.95,-5 1678.95,-1.5 1678.95,-8.5"/>
</g>
<!-- eval/loop/while.ts&#45;&gt;eval/loop/loop&#45;common.ts -->
<g id="edge69" class="edge">
<title>eval/loop/while.ts&#45;&gt;eval/loop/loop&#45;common.ts</title>
<path fill="none" stroke="#757575" d="M1299.82,-125C1331.53,-125 1364,-125 1364,-125 1364,-125 1364,-92.06 1364,-92.06"/>
<polygon fill="#757575" stroke="#757575" points="1367.5,-92.06 1364,-82.06 1360.5,-92.06 1367.5,-92.06"/>
</g>
<!-- eval/loop/while.ts&#45;&gt;eval/loop/loop&#45;utils.ts -->
<g id="edge70" class="edge">
<title>eval/loop/while.ts&#45;&gt;eval/loop/loop&#45;utils.ts</title>
<path fill="none" stroke="#757575" d="M1259.83,-117.86C1259.83,-106.21 1259.83,-90 1259.83,-90 1259.83,-90 1727.83,-90 1727.83,-90 1727.83,-90 1727.83,-89.21 1727.83,-89.21"/>
<polygon fill="#757575" stroke="#757575" points="1731.33,-92.07 1727.83,-82.07 1724.33,-92.07 1731.33,-92.07"/>
</g>
<!-- eval/variables&#45;helpers.ts&#45;&gt;core/error.ts -->
<g id="edge72" class="edge">
<title>eval/variables&#45;helpers.ts&#45;&gt;core/error.ts</title>
<path fill="none" stroke="#757575" d="M670,-117.56C670,-86.4 670,-5 670,-5 670,-5 293.5,-5 293.5,-5"/>
<polygon fill="#757575" stroke="#757575" points="293.5,-1.5 283.5,-5 293.5,-8.5 293.5,-1.5"/>
</g>
<!-- eval/variables&#45;helpers.ts&#45;&gt;core/result.ts -->
<g id="edge73" class="edge">
<title>eval/variables&#45;helpers.ts&#45;&gt;core/result.ts</title>
<path fill="none" stroke="#757575" d="M724,-117.89C724,-89.9 724,-21 724,-21 724,-21 978.95,-21 978.95,-21"/>
<polygon fill="#757575" stroke="#757575" points="978.95,-24.5 988.95,-21 978.95,-17.5 978.95,-24.5"/>
</g>
<!-- eval/variables&#45;helpers.ts&#45;&gt;eval/variables&#45;types.ts -->
<g id="edge74" class="edge">
<title>eval/variables&#45;helpers.ts&#45;&gt;eval/variables&#45;types.ts</title>
<path fill="none" stroke="#757575" d="M778.4,-135C895.94,-135 1099.25,-135 1099.25,-135 1099.25,-135 1099.25,-1 1099.25,-1 1099.25,-1 1678.71,-1 1678.71,-1"/>
<polygon fill="#757575" stroke="#757575" points="1678.71,-4.5 1688.71,-1 1678.71,2.5 1678.71,-4.5"/>
</g>
<!-- eval/variables&#45;helpers.ts&#45;&gt;utils/types.ts -->
<g id="edge75" class="edge">
<title>eval/variables&#45;helpers.ts&#45;&gt;utils/types.ts</title>
<path fill="none" stroke="#757575" d="M615.88,-125C592.82,-125 573.83,-125 573.83,-125 573.83,-125 573.83,-92.06 573.83,-92.06"/>
<polygon fill="#757575" stroke="#757575" points="577.33,-92.06 573.83,-82.06 570.33,-92.06 577.33,-92.06"/>
</g>
</g>
</svg>
