<?xml version="1.0" encoding="UTF-8" standalone="no"?>
<!DOCTYPE svg PUBLIC "-//W3C//DTD SVG 1.1//EN"
 "http://www.w3.org/Graphics/SVG/1.1/DTD/svg11.dtd">
<!-- Generated by graphviz version 15.1.0 (20260618.0150)
 -->
<!-- Title: tuff Pages: 1 -->
<svg width="1654pt" height="1000pt"
 viewBox="0.00 0.00 1654.00 1000.00" xmlns="http://www.w3.org/2000/svg" xmlns:xlink="http://www.w3.org/1999/xlink">
<g id="graph0" class="graph" transform="scale(1 1) rotate(0) translate(4 996.25)">
<title>tuff</title>
<polygon fill="white" stroke="none" points="-4,4 -4,-996.25 1650,-996.25 1650,4 -4,4"/>
<g id="clust1" class="cluster">
<title>cluster_dir_src</title>
<path fill="none" stroke="#64748b" d="M20,-8C20,-8 1626,-8 1626,-8 1632,-8 1638,-14 1638,-20 1638,-20 1638,-972.25 1638,-972.25 1638,-978.25 1632,-984.25 1626,-984.25 1626,-984.25 20,-984.25 20,-984.25 14,-984.25 8,-978.25 8,-972.25 8,-972.25 8,-20 8,-20 8,-14 14,-8 20,-8"/>
<text xml:space="preserve" text-anchor="middle" x="823" y="-967.9" font-family="Consolas" font-size="13.00">src</text>
</g>
<g id="clust2" class="cluster">
<title>cluster_src_errors_ts</title>
<path fill="none" stroke="#94a3b8" d="M1243,-312.75C1243,-312.75 1296,-312.75 1296,-312.75 1302,-312.75 1308,-318.75 1308,-324.75 1308,-324.75 1308,-373.5 1308,-373.5 1308,-379.5 1302,-385.5 1296,-385.5 1296,-385.5 1243,-385.5 1243,-385.5 1237,-385.5 1231,-379.5 1231,-373.5 1231,-373.5 1231,-324.75 1231,-324.75 1231,-318.75 1237,-312.75 1243,-312.75"/>
<text xml:space="preserve" text-anchor="middle" x="1269.5" y="-370.1" font-family="Consolas" font-size="12.00">errors.ts</text>
</g>
<g id="clust3" class="cluster">
<title>cluster_src_evaluate_ts</title>
<path fill="none" stroke="#94a3b8" d="M1068,-882C1068,-882 1136,-882 1136,-882 1142,-882 1148,-888 1148,-894 1148,-894 1148,-942.75 1148,-942.75 1148,-948.75 1142,-954.75 1136,-954.75 1136,-954.75 1068,-954.75 1068,-954.75 1062,-954.75 1056,-948.75 1056,-942.75 1056,-942.75 1056,-894 1056,-894 1056,-888 1062,-882 1068,-882"/>
<text xml:space="preserve" text-anchor="middle" x="1102" y="-939.35" font-family="Consolas" font-size="12.00">evaluate.ts</text>
</g>
<g id="clust4" class="cluster">
<title>cluster_src_interpreter_ts</title>
<path fill="none" stroke="#94a3b8" d="M28,-546.25C28,-546.25 160,-546.25 160,-546.25 166,-546.25 172,-552.25 172,-558.25 172,-558.25 172,-832.5 172,-832.5 172,-838.5 166,-844.5 160,-844.5 160,-844.5 28,-844.5 28,-844.5 22,-844.5 16,-838.5 16,-832.5 16,-832.5 16,-558.25 16,-558.25 16,-552.25 22,-546.25 28,-546.25"/>
<text xml:space="preserve" text-anchor="middle" x="94" y="-829.1" font-family="Consolas" font-size="12.00">interpreter.ts</text>
</g>
<g id="clust5" class="cluster">
<title>cluster_src_lexer_ts</title>
<path fill="none" stroke="#94a3b8" d="M1311,-771.75C1311,-771.75 1379,-771.75 1379,-771.75 1385,-771.75 1391,-777.75 1391,-783.75 1391,-783.75 1391,-832.5 1391,-832.5 1391,-838.5 1385,-844.5 1379,-844.5 1379,-844.5 1311,-844.5 1311,-844.5 1305,-844.5 1299,-838.5 1299,-832.5 1299,-832.5 1299,-783.75 1299,-783.75 1299,-777.75 1305,-771.75 1311,-771.75"/>
<text xml:space="preserve" text-anchor="middle" x="1345" y="-829.1" font-family="Consolas" font-size="12.00">lexer.ts</text>
</g>
<g id="clust6" class="cluster">
<title>cluster_src_typecheck_ts</title>
<path fill="none" stroke="#94a3b8" d="M1412,-312.75C1412,-312.75 1618,-312.75 1618,-312.75 1624,-312.75 1630,-318.75 1630,-324.75 1630,-324.75 1630,-607 1630,-607 1630,-613 1624,-619 1618,-619 1618,-619 1412,-619 1412,-619 1406,-619 1400,-613 1400,-607 1400,-607 1400,-324.75 1400,-324.75 1400,-318.75 1406,-312.75 1412,-312.75"/>
<text xml:space="preserve" text-anchor="middle" x="1515" y="-603.6" font-family="Consolas" font-size="12.00">typecheck.ts</text>
</g>
<g id="clust7" class="cluster">
<title>cluster_dir_src_parser</title>
<path fill="none" stroke="#64748b" d="M192,-16C192,-16 1186,-16 1186,-16 1192,-16 1198,-22 1198,-28 1198,-28 1198,-862 1198,-862 1198,-868 1192,-874 1186,-874 1186,-874 192,-874 192,-874 186,-874 180,-868 180,-862 180,-862 180,-28 180,-28 180,-22 186,-16 192,-16"/>
<text xml:space="preserve" text-anchor="middle" x="689" y="-857.65" font-family="Consolas" font-size="13.00">parser</text>
</g>
<g id="clust8" class="cluster">
<title>cluster_src_parser_expressions_ts</title>
<path fill="none" stroke="#94a3b8" d="M898,-24C898,-24 1068,-24 1068,-24 1074,-24 1080,-30 1080,-36 1080,-36 1080,-526.25 1080,-526.25 1080,-532.25 1074,-538.25 1068,-538.25 1068,-538.25 898,-538.25 898,-538.25 892,-538.25 886,-532.25 886,-526.25 886,-526.25 886,-36 886,-36 886,-30 892,-24 898,-24"/>
<text xml:space="preserve" text-anchor="middle" x="983" y="-522.85" font-family="Consolas" font-size="12.00">expressions.ts</text>
</g>
<g id="clust9" class="cluster">
<title>cluster_src_parser_index_ts</title>
<path fill="none" stroke="#94a3b8" d="M800,-771.75C800,-771.75 920,-771.75 920,-771.75 926,-771.75 932,-777.75 932,-783.75 932,-783.75 932,-832.5 932,-832.5 932,-838.5 926,-844.5 920,-844.5 920,-844.5 800,-844.5 800,-844.5 794,-844.5 788,-838.5 788,-832.5 788,-832.5 788,-783.75 788,-783.75 788,-777.75 794,-771.75 800,-771.75"/>
<text xml:space="preserve" text-anchor="middle" x="860" y="-829.1" font-family="Consolas" font-size="12.00">index.ts</text>
</g>
<g id="clust10" class="cluster">
<title>cluster_src_parser_statements_ts</title>
<path fill="none" stroke="#94a3b8" d="M280,-393.5C280,-393.5 866,-393.5 866,-393.5 872,-393.5 878,-399.5 878,-405.5 878,-405.5 878,-751.75 878,-751.75 878,-757.75 872,-763.75 866,-763.75 866,-763.75 280,-763.75 280,-763.75 274,-763.75 268,-757.75 268,-751.75 268,-751.75 268,-405.5 268,-405.5 268,-399.5 274,-393.5 280,-393.5"/>
<text xml:space="preserve" text-anchor="middle" x="573" y="-748.35" font-family="Consolas" font-size="12.00">statements.ts</text>
</g>
<g id="clust11" class="cluster">
<title>cluster_src_parser_types_ts</title>
<path fill="none" stroke="#94a3b8" d="M635,-24C635,-24 767,-24 767,-24 773,-24 779,-30 779,-36 779,-36 779,-84.75 779,-84.75 779,-90.75 773,-96.75 767,-96.75 767,-96.75 635,-96.75 635,-96.75 629,-96.75 623,-90.75 623,-84.75 623,-84.75 623,-36 623,-36 623,-30 629,-24 635,-24"/>
<text xml:space="preserve" text-anchor="middle" x="701" y="-81.35" font-family="Consolas" font-size="12.00">types.ts</text>
</g>
<!-- src\\errors.ts::fail -->
<g id="node1" class="node">
<title>src\\errors.ts::fail</title>
<path fill="#eef2ff" stroke="black" d="M1284,-356.75C1284,-356.75 1254,-356.75 1254,-356.75 1248,-356.75 1242,-350.75 1242,-344.75 1242,-344.75 1242,-332.75 1242,-332.75 1242,-326.75 1248,-320.75 1254,-320.75 1254,-320.75 1284,-320.75 1284,-320.75 1290,-320.75 1296,-326.75 1296,-332.75 1296,-332.75 1296,-344.75 1296,-344.75 1296,-350.75 1290,-356.75 1284,-356.75"/>
<text xml:space="preserve" text-anchor="middle" x="1269" y="-332.57" font-family="Consolas" font-size="14.00">fail</text>
</g>
<!-- src\\evaluate.ts::evaluate -->
<g id="node2" class="node">
<title>src\\evaluate.ts::evaluate</title>
<path fill="#eef2ff" stroke="black" d="M1128,-926C1128,-926 1076,-926 1076,-926 1070,-926 1064,-920 1064,-914 1064,-914 1064,-902 1064,-902 1064,-896 1070,-890 1076,-890 1076,-890 1128,-890 1128,-890 1134,-890 1140,-896 1140,-902 1140,-902 1140,-914 1140,-914 1140,-920 1134,-926 1128,-926"/>
<text xml:space="preserve" text-anchor="middle" x="1102" y="-901.83" font-family="Consolas" font-size="14.00">evaluate</text>
</g>
<!-- src\\interpreter.ts::interpret -->
<g id="node6" class="node">
<title>src\\interpreter.ts::interpret</title>
<path fill="#eef2ff" stroke="black" d="M133.75,-815.75C133.75,-815.75 74.25,-815.75 74.25,-815.75 68.25,-815.75 62.25,-809.75 62.25,-803.75 62.25,-803.75 62.25,-791.75 62.25,-791.75 62.25,-785.75 68.25,-779.75 74.25,-779.75 74.25,-779.75 133.75,-779.75 133.75,-779.75 139.75,-779.75 145.75,-785.75 145.75,-791.75 145.75,-791.75 145.75,-803.75 145.75,-803.75 145.75,-809.75 139.75,-815.75 133.75,-815.75"/>
<text xml:space="preserve" text-anchor="middle" x="104" y="-791.58" font-family="Consolas" font-size="14.00">interpret</text>
</g>
<!-- src\\evaluate.ts::evaluate&#45;&gt;src\\interpreter.ts::interpret -->
<g id="edge4" class="edge">
<title>src\\evaluate.ts::evaluate&#45;&gt;src\\interpreter.ts::interpret</title>
<path fill="none" stroke="#64748b" d="M1063.79,-908C880.94,-908 104,-908 104,-908 104,-908 104,-827.47 104,-827.47"/>
<polygon fill="#64748b" stroke="#64748b" points="107.5,-827.47 104,-817.47 100.5,-827.47 107.5,-827.47"/>
</g>
<!-- src\\lexer.ts::tokenize -->
<g id="node7" class="node">
<title>src\\lexer.ts::tokenize</title>
<path fill="#eef2ff" stroke="black" d="M1371,-815.75C1371,-815.75 1319,-815.75 1319,-815.75 1313,-815.75 1307,-809.75 1307,-803.75 1307,-803.75 1307,-791.75 1307,-791.75 1307,-785.75 1313,-779.75 1319,-779.75 1319,-779.75 1371,-779.75 1371,-779.75 1377,-779.75 1383,-785.75 1383,-791.75 1383,-791.75 1383,-803.75 1383,-803.75 1383,-809.75 1377,-815.75 1371,-815.75"/>
<text xml:space="preserve" text-anchor="middle" x="1345" y="-791.58" font-family="Consolas" font-size="14.00">tokenize</text>
</g>
<!-- src\\evaluate.ts::evaluate&#45;&gt;src\\lexer.ts::tokenize -->
<g id="edge1" class="edge">
<title>src\\evaluate.ts::evaluate&#45;&gt;src\\lexer.ts::tokenize</title>
<path fill="none" stroke="#64748b" d="M1121,-889.94C1121,-860.89 1121,-807 1121,-807 1121,-807 1295.23,-807 1295.23,-807"/>
<polygon fill="#64748b" stroke="#64748b" points="1295.23,-810.5 1305.23,-807 1295.23,-803.5 1295.23,-810.5"/>
</g>
<!-- src\\typecheck.ts::typecheck -->
<g id="node12" class="node">
<title>src\\typecheck.ts::typecheck</title>
<path fill="#eef2ff" stroke="black" d="M1490.75,-590.25C1490.75,-590.25 1431.25,-590.25 1431.25,-590.25 1425.25,-590.25 1419.25,-584.25 1419.25,-578.25 1419.25,-578.25 1419.25,-566.25 1419.25,-566.25 1419.25,-560.25 1425.25,-554.25 1431.25,-554.25 1431.25,-554.25 1490.75,-554.25 1490.75,-554.25 1496.75,-554.25 1502.75,-560.25 1502.75,-566.25 1502.75,-566.25 1502.75,-578.25 1502.75,-578.25 1502.75,-584.25 1496.75,-590.25 1490.75,-590.25"/>
<text xml:space="preserve" text-anchor="middle" x="1461" y="-566.08" font-family="Consolas" font-size="14.00">typecheck</text>
</g>
<!-- src\\evaluate.ts::evaluate&#45;&gt;src\\typecheck.ts::typecheck -->
<g id="edge3" class="edge">
<title>src\\evaluate.ts::evaluate&#45;&gt;src\\typecheck.ts::typecheck</title>
<path fill="none" stroke="#64748b" d="M1102,-889.95C1102,-821.4 1102,-581 1102,-581 1102,-581 1407.25,-581 1407.25,-581"/>
<polygon fill="#64748b" stroke="#64748b" points="1407.25,-584.5 1417.25,-581 1407.25,-577.5 1407.25,-584.5"/>
</g>
<!-- src\\parser\\index.ts::groupStatements -->
<g id="node20" class="node">
<title>src\\parser\\index.ts::groupStatements</title>
<path fill="#eef2ff" stroke="black" d="M912.25,-815.75C912.25,-815.75 807.75,-815.75 807.75,-815.75 801.75,-815.75 795.75,-809.75 795.75,-803.75 795.75,-803.75 795.75,-791.75 795.75,-791.75 795.75,-785.75 801.75,-779.75 807.75,-779.75 807.75,-779.75 912.25,-779.75 912.25,-779.75 918.25,-779.75 924.25,-785.75 924.25,-791.75 924.25,-791.75 924.25,-803.75 924.25,-803.75 924.25,-809.75 918.25,-815.75 912.25,-815.75"/>
<text xml:space="preserve" text-anchor="middle" x="860" y="-791.58" font-family="Consolas" font-size="14.00">groupStatements</text>
</g>
<!-- src\\evaluate.ts::evaluate&#45;&gt;src\\parser\\index.ts::groupStatements -->
<g id="edge2" class="edge">
<title>src\\evaluate.ts::evaluate&#45;&gt;src\\parser\\index.ts::groupStatements</title>
<path fill="none" stroke="#64748b" d="M1083,-889.67C1083,-856.29 1083,-789 1083,-789 1083,-789 936.01,-789 936.01,-789"/>
<polygon fill="#64748b" stroke="#64748b" points="936.01,-785.5 926.01,-789 936.01,-792.5 936.01,-785.5"/>
</g>
<!-- src\\interpreter.ts::evalExpr -->
<g id="node3" class="node">
<title>src\\interpreter.ts::evalExpr</title>
<path fill="#eef2ff" stroke="black" d="M109,-590.25C109,-590.25 57,-590.25 57,-590.25 51,-590.25 45,-584.25 45,-578.25 45,-578.25 45,-566.25 45,-566.25 45,-560.25 51,-554.25 57,-554.25 57,-554.25 109,-554.25 109,-554.25 115,-554.25 121,-560.25 121,-566.25 121,-566.25 121,-578.25 121,-578.25 121,-584.25 115,-590.25 109,-590.25"/>
<text xml:space="preserve" text-anchor="middle" x="83" y="-566.08" font-family="Consolas" font-size="14.00">evalExpr</text>
</g>
<!-- src\\interpreter.ts::evalExpr&#45;&gt;src\\interpreter.ts::evalExpr -->
<g id="edge5" class="edge">
<title>src\\interpreter.ts::evalExpr&#45;&gt;src\\interpreter.ts::evalExpr</title>
<path fill="none" stroke="#64748b" d="M71.83,-590.69C71.83,-594.82 71.83,-598 71.83,-598 71.83,-598 39.88,-598 39.88,-598 39.88,-598 39.88,-515 39.88,-515 39.88,-515 83,-515 83,-515 83,-515 83,-542.31 83,-542.31"/>
<polygon fill="#64748b" stroke="#64748b" points="79.5,-542.31 83,-552.31 86.5,-542.31 79.5,-542.31"/>
</g>
<!-- src\\interpreter.ts::execStatement -->
<g id="node4" class="node">
<title>src\\interpreter.ts::execStatement</title>
<path fill="#eef2ff" stroke="black" d="M148.75,-663C148.75,-663 59.25,-663 59.25,-663 53.25,-663 47.25,-657 47.25,-651 47.25,-651 47.25,-639 47.25,-639 47.25,-633 53.25,-627 59.25,-627 59.25,-627 148.75,-627 148.75,-627 154.75,-627 160.75,-633 160.75,-639 160.75,-639 160.75,-651 160.75,-651 160.75,-657 154.75,-663 148.75,-663"/>
<text xml:space="preserve" text-anchor="middle" x="104" y="-638.83" font-family="Consolas" font-size="14.00">execStatement</text>
</g>
<!-- src\\interpreter.ts::execStatement&#45;&gt;src\\interpreter.ts::evalExpr -->
<g id="edge6" class="edge">
<title>src\\interpreter.ts::execStatement&#45;&gt;src\\interpreter.ts::evalExpr</title>
<path fill="none" stroke="#64748b" d="M96.42,-626.64C96.42,-626.64 96.42,-602.12 96.42,-602.12"/>
<polygon fill="#64748b" stroke="#64748b" points="99.92,-602.12 96.42,-592.12 92.92,-602.12 99.92,-602.12"/>
</g>
<!-- src\\interpreter.ts::execStatements -->
<g id="node5" class="node">
<title>src\\interpreter.ts::execStatements</title>
<path fill="#eef2ff" stroke="black" d="M133.5,-735C133.5,-735 36.5,-735 36.5,-735 30.5,-735 24.5,-729 24.5,-723 24.5,-723 24.5,-711 24.5,-711 24.5,-705 30.5,-699 36.5,-699 36.5,-699 133.5,-699 133.5,-699 139.5,-699 145.5,-705 145.5,-711 145.5,-711 145.5,-723 145.5,-723 145.5,-729 139.5,-735 133.5,-735"/>
<text xml:space="preserve" text-anchor="middle" x="85" y="-710.83" font-family="Consolas" font-size="14.00">execStatements</text>
</g>
<!-- src\\interpreter.ts::execStatements&#45;&gt;src\\interpreter.ts::evalExpr -->
<g id="edge8" class="edge">
<title>src\\interpreter.ts::execStatements&#45;&gt;src\\interpreter.ts::evalExpr</title>
<path fill="none" stroke="#64748b" d="M29.62,-698.64C29.62,-659.62 29.62,-572 29.62,-572 29.62,-572 33.26,-572 33.26,-572"/>
<polygon fill="#64748b" stroke="#64748b" points="33.26,-575.5 43.26,-572 33.26,-568.5 33.26,-575.5"/>
</g>
<!-- src\\interpreter.ts::execStatements&#45;&gt;src\\interpreter.ts::execStatement -->
<g id="edge9" class="edge">
<title>src\\interpreter.ts::execStatements&#45;&gt;src\\interpreter.ts::execStatement</title>
<path fill="none" stroke="#64748b" d="M96.38,-698.83C96.38,-698.83 96.38,-674.93 96.38,-674.93"/>
<polygon fill="#64748b" stroke="#64748b" points="99.88,-674.93 96.38,-664.93 92.88,-674.93 99.88,-674.93"/>
</g>
<!-- src\\interpreter.ts::execStatements&#45;&gt;src\\interpreter.ts::execStatements -->
<g id="edge7" class="edge">
<title>src\\interpreter.ts::execStatements&#45;&gt;src\\interpreter.ts::execStatements</title>
<path fill="none" stroke="#64748b" d="M43.38,-735.42C43.38,-748.96 43.38,-765 43.38,-765 43.38,-765 6.5,-765 6.5,-765 6.5,-765 6.5,-687 6.5,-687 6.5,-687 34.75,-687 34.75,-687 34.75,-687 34.75,-688.15 34.75,-688.15"/>
<polygon fill="#64748b" stroke="#64748b" points="31.25,-687 34.75,-697 38.25,-687 31.25,-687"/>
</g>
<!-- src\\interpreter.ts::interpret&#45;&gt;src\\interpreter.ts::execStatements -->
<g id="edge10" class="edge">
<title>src\\interpreter.ts::interpret&#45;&gt;src\\interpreter.ts::execStatements</title>
<path fill="none" stroke="#64748b" d="M103.88,-779.43C103.88,-779.43 103.88,-746.76 103.88,-746.76"/>
<polygon fill="#64748b" stroke="#64748b" points="107.38,-746.76 103.88,-736.76 100.38,-746.76 107.38,-746.76"/>
</g>
<!-- src\\lexer.ts::tokenize&#45;&gt;src\\errors.ts::fail -->
<g id="edge11" class="edge">
<title>src\\lexer.ts::tokenize&#45;&gt;src\\errors.ts::fail</title>
<path fill="none" stroke="#64748b" d="M1306.79,-798C1295.07,-798 1285.2,-798 1285.2,-798 1285.2,-798 1285.2,-368.55 1285.2,-368.55"/>
<polygon fill="#64748b" stroke="#64748b" points="1288.7,-368.55 1285.2,-358.55 1281.7,-368.55 1288.7,-368.55"/>
</g>
<!-- src\\typecheck.ts::literalType -->
<g id="node8" class="node">
<title>src\\typecheck.ts::literalType</title>
<path fill="#eef2ff" stroke="black" d="M1603.25,-356.75C1603.25,-356.75 1528.75,-356.75 1528.75,-356.75 1522.75,-356.75 1516.75,-350.75 1516.75,-344.75 1516.75,-344.75 1516.75,-332.75 1516.75,-332.75 1516.75,-326.75 1522.75,-320.75 1528.75,-320.75 1528.75,-320.75 1603.25,-320.75 1603.25,-320.75 1609.25,-320.75 1615.25,-326.75 1615.25,-332.75 1615.25,-332.75 1615.25,-344.75 1615.25,-344.75 1615.25,-350.75 1609.25,-356.75 1603.25,-356.75"/>
<text xml:space="preserve" text-anchor="middle" x="1566" y="-332.57" font-family="Consolas" font-size="14.00">literalType</text>
</g>
<!-- src\\typecheck.ts::checkExpr -->
<g id="node9" class="node">
<title>src\\typecheck.ts::checkExpr</title>
<path fill="#eef2ff" stroke="black" d="M1479.75,-437.5C1479.75,-437.5 1420.25,-437.5 1420.25,-437.5 1414.25,-437.5 1408.25,-431.5 1408.25,-425.5 1408.25,-425.5 1408.25,-413.5 1408.25,-413.5 1408.25,-407.5 1414.25,-401.5 1420.25,-401.5 1420.25,-401.5 1479.75,-401.5 1479.75,-401.5 1485.75,-401.5 1491.75,-407.5 1491.75,-413.5 1491.75,-413.5 1491.75,-425.5 1491.75,-425.5 1491.75,-431.5 1485.75,-437.5 1479.75,-437.5"/>
<text xml:space="preserve" text-anchor="middle" x="1450" y="-413.32" font-family="Consolas" font-size="14.00">checkExpr</text>
</g>
<!-- src\\typecheck.ts::checkExpr&#45;&gt;src\\errors.ts::fail -->
<g id="edge92" class="edge">
<title>src\\typecheck.ts::checkExpr&#45;&gt;src\\errors.ts::fail</title>
<path fill="none" stroke="#64748b" d="M1407.77,-420C1361.08,-420 1292.4,-420 1292.4,-420 1292.4,-420 1292.4,-368.7 1292.4,-368.7"/>
<polygon fill="#64748b" stroke="#64748b" points="1295.9,-368.7 1292.4,-358.7 1288.9,-368.7 1295.9,-368.7"/>
</g>
<!-- src\\typecheck.ts::checkExpr&#45;&gt;src\\typecheck.ts::checkExpr -->
<g id="edge91" class="edge">
<title>src\\typecheck.ts::checkExpr&#45;&gt;src\\typecheck.ts::checkExpr</title>
<path fill="none" stroke="#64748b" d="M1470.88,-437.64C1470.88,-439.66 1470.88,-441 1470.88,-441 1470.88,-441 1504.25,-441 1504.25,-441 1504.25,-441 1504.25,-367 1504.25,-367 1504.25,-367 1450,-367 1450,-367 1450,-367 1450,-389.62 1450,-389.62"/>
<polygon fill="#64748b" stroke="#64748b" points="1446.5,-389.62 1450,-399.62 1453.5,-389.62 1446.5,-389.62"/>
</g>
<!-- src\\typecheck.ts::exprType -->
<g id="node10" class="node">
<title>src\\typecheck.ts::exprType</title>
<path fill="#eef2ff" stroke="black" d="M1592,-437.5C1592,-437.5 1540,-437.5 1540,-437.5 1534,-437.5 1528,-431.5 1528,-425.5 1528,-425.5 1528,-413.5 1528,-413.5 1528,-407.5 1534,-401.5 1540,-401.5 1540,-401.5 1592,-401.5 1592,-401.5 1598,-401.5 1604,-407.5 1604,-413.5 1604,-413.5 1604,-425.5 1604,-425.5 1604,-431.5 1598,-437.5 1592,-437.5"/>
<text xml:space="preserve" text-anchor="middle" x="1566" y="-413.32" font-family="Consolas" font-size="14.00">exprType</text>
</g>
<!-- src\\typecheck.ts::exprType&#45;&gt;src\\typecheck.ts::literalType -->
<g id="edge93" class="edge">
<title>src\\typecheck.ts::exprType&#45;&gt;src\\typecheck.ts::literalType</title>
<path fill="none" stroke="#64748b" d="M1578.67,-401.18C1578.67,-401.18 1578.67,-368.51 1578.67,-368.51"/>
<polygon fill="#64748b" stroke="#64748b" points="1582.17,-368.51 1578.67,-358.51 1575.17,-368.51 1582.17,-368.51"/>
</g>
<!-- src\\typecheck.ts::exprType&#45;&gt;src\\typecheck.ts::exprType -->
<g id="edge94" class="edge">
<title>src\\typecheck.ts::exprType&#45;&gt;src\\typecheck.ts::exprType</title>
<path fill="none" stroke="#64748b" d="M1530.75,-438C1530.75,-442.97 1530.75,-447 1530.75,-447 1530.75,-447 1522.38,-447 1522.38,-447 1522.38,-447 1522.38,-362 1522.38,-362 1522.38,-362 1553.33,-362 1553.33,-362 1553.33,-362 1553.33,-389.79 1553.33,-389.79"/>
<polygon fill="#64748b" stroke="#64748b" points="1549.83,-389.79 1553.33,-399.79 1556.83,-389.79 1549.83,-389.79"/>
</g>
<!-- src\\typecheck.ts::checkStatements -->
<g id="node11" class="node">
<title>src\\typecheck.ts::checkStatements</title>
<path fill="#eef2ff" stroke="black" d="M1524.25,-509.5C1524.25,-509.5 1419.75,-509.5 1419.75,-509.5 1413.75,-509.5 1407.75,-503.5 1407.75,-497.5 1407.75,-497.5 1407.75,-485.5 1407.75,-485.5 1407.75,-479.5 1413.75,-473.5 1419.75,-473.5 1419.75,-473.5 1524.25,-473.5 1524.25,-473.5 1530.25,-473.5 1536.25,-479.5 1536.25,-485.5 1536.25,-485.5 1536.25,-497.5 1536.25,-497.5 1536.25,-503.5 1530.25,-509.5 1524.25,-509.5"/>
<text xml:space="preserve" text-anchor="middle" x="1472" y="-485.32" font-family="Consolas" font-size="14.00">checkStatements</text>
</g>
<!-- src\\typecheck.ts::checkStatements&#45;&gt;src\\errors.ts::fail -->
<g id="edge97" class="edge">
<title>src\\typecheck.ts::checkStatements&#45;&gt;src\\errors.ts::fail</title>
<path fill="none" stroke="#64748b" d="M1407.41,-492C1354.67,-492 1288.8,-492 1288.8,-492 1288.8,-492 1288.8,-368.75 1288.8,-368.75"/>
<polygon fill="#64748b" stroke="#64748b" points="1292.3,-368.75 1288.8,-358.75 1285.3,-368.75 1292.3,-368.75"/>
</g>
<!-- src\\typecheck.ts::checkStatements&#45;&gt;src\\typecheck.ts::checkExpr -->
<g id="edge95" class="edge">
<title>src\\typecheck.ts::checkStatements&#45;&gt;src\\typecheck.ts::checkExpr</title>
<path fill="none" stroke="#64748b" d="M1450,-473.33C1450,-473.33 1450,-449.43 1450,-449.43"/>
<polygon fill="#64748b" stroke="#64748b" points="1453.5,-449.43 1450,-439.43 1446.5,-449.43 1453.5,-449.43"/>
</g>
<!-- src\\typecheck.ts::checkStatements&#45;&gt;src\\typecheck.ts::exprType -->
<g id="edge96" class="edge">
<title>src\\typecheck.ts::checkStatements&#45;&gt;src\\typecheck.ts::exprType</title>
<path fill="none" stroke="#64748b" d="M1533.5,-473.33C1533.5,-473.33 1533.5,-449.43 1533.5,-449.43"/>
<polygon fill="#64748b" stroke="#64748b" points="1537,-449.43 1533.5,-439.43 1530,-449.43 1537,-449.43"/>
</g>
<!-- src\\typecheck.ts::checkStatements&#45;&gt;src\\typecheck.ts::checkStatements -->
<g id="edge98" class="edge">
<title>src\\typecheck.ts::checkStatements&#45;&gt;src\\typecheck.ts::checkStatements</title>
<path fill="none" stroke="#64748b" d="M1413.5,-509.81C1413.5,-511.15 1413.5,-512 1413.5,-512 1413.5,-512 1395.38,-512 1395.38,-512 1395.38,-512 1395.38,-444 1395.38,-444 1395.38,-444 1429.12,-444 1429.12,-444 1429.12,-444 1429.12,-461.76 1429.12,-461.76"/>
<polygon fill="#64748b" stroke="#64748b" points="1425.63,-461.76 1429.13,-471.76 1432.63,-461.76 1425.63,-461.76"/>
</g>
<!-- src\\typecheck.ts::typecheck&#45;&gt;src\\typecheck.ts::checkStatements -->
<g id="edge99" class="edge">
<title>src\\typecheck.ts::typecheck&#45;&gt;src\\typecheck.ts::checkStatements</title>
<path fill="none" stroke="#64748b" d="M1461,-553.93C1461,-553.93 1461,-521.26 1461,-521.26"/>
<polygon fill="#64748b" stroke="#64748b" points="1464.5,-521.26 1461,-511.26 1457.5,-521.26 1464.5,-521.26"/>
</g>
<!-- src\\parser\\expressions.ts::parseExpr -->
<g id="node13" class="node">
<title>src\\parser\\expressions.ts::parseExpr</title>
<path fill="#eef2ff" stroke="black" d="M965.75,-509.5C965.75,-509.5 906.25,-509.5 906.25,-509.5 900.25,-509.5 894.25,-503.5 894.25,-497.5 894.25,-497.5 894.25,-485.5 894.25,-485.5 894.25,-479.5 900.25,-473.5 906.25,-473.5 906.25,-473.5 965.75,-473.5 965.75,-473.5 971.75,-473.5 977.75,-479.5 977.75,-485.5 977.75,-485.5 977.75,-497.5 977.75,-497.5 977.75,-503.5 971.75,-509.5 965.75,-509.5"/>
<text xml:space="preserve" text-anchor="middle" x="936" y="-485.32" font-family="Consolas" font-size="14.00">parseExpr</text>
</g>
<!-- src\\parser\\expressions.ts::parseOr -->
<g id="node14" class="node">
<title>src\\parser\\expressions.ts::parseOr</title>
<path fill="#eef2ff" stroke="black" d="M956.25,-437.5C956.25,-437.5 911.75,-437.5 911.75,-437.5 905.75,-437.5 899.75,-431.5 899.75,-425.5 899.75,-425.5 899.75,-413.5 899.75,-413.5 899.75,-407.5 905.75,-401.5 911.75,-401.5 911.75,-401.5 956.25,-401.5 956.25,-401.5 962.25,-401.5 968.25,-407.5 968.25,-413.5 968.25,-413.5 968.25,-425.5 968.25,-425.5 968.25,-431.5 962.25,-437.5 956.25,-437.5"/>
<text xml:space="preserve" text-anchor="middle" x="934" y="-413.32" font-family="Consolas" font-size="14.00">parseOr</text>
</g>
<!-- src\\parser\\expressions.ts::parseExpr&#45;&gt;src\\parser\\expressions.ts::parseOr -->
<g id="edge12" class="edge">
<title>src\\parser\\expressions.ts::parseExpr&#45;&gt;src\\parser\\expressions.ts::parseOr</title>
<path fill="none" stroke="#64748b" d="M945.42,-473.33C945.42,-473.33 945.42,-449.43 945.42,-449.43"/>
<polygon fill="#64748b" stroke="#64748b" points="948.92,-449.43 945.42,-439.43 941.92,-449.43 948.92,-449.43"/>
</g>
<!-- src\\parser\\expressions.ts::parseAnd -->
<g id="node15" class="node">
<title>src\\parser\\expressions.ts::parseAnd</title>
<path fill="#eef2ff" stroke="black" d="M959,-356.75C959,-356.75 907,-356.75 907,-356.75 901,-356.75 895,-350.75 895,-344.75 895,-344.75 895,-332.75 895,-332.75 895,-326.75 901,-320.75 907,-320.75 907,-320.75 959,-320.75 959,-320.75 965,-320.75 971,-326.75 971,-332.75 971,-332.75 971,-344.75 971,-344.75 971,-350.75 965,-356.75 959,-356.75"/>
<text xml:space="preserve" text-anchor="middle" x="933" y="-332.57" font-family="Consolas" font-size="14.00">parseAnd</text>
</g>
<!-- src\\parser\\expressions.ts::parseOr&#45;&gt;src\\parser\\expressions.ts::parseAnd -->
<g id="edge13" class="edge">
<title>src\\parser\\expressions.ts::parseOr&#45;&gt;src\\parser\\expressions.ts::parseAnd</title>
<path fill="none" stroke="#64748b" d="M945.42,-401.18C945.42,-401.18 945.42,-368.51 945.42,-368.51"/>
<polygon fill="#64748b" stroke="#64748b" points="948.92,-368.51 945.42,-358.51 941.92,-368.51 948.92,-368.51"/>
</g>
<!-- src\\parser\\types.ts::peek -->
<g id="node35" class="node">
<title>src\\parser\\types.ts::peek</title>
<path fill="#eef2ff" stroke="black" d="M759,-68C759,-68 729,-68 729,-68 723,-68 717,-62 717,-56 717,-56 717,-44 717,-44 717,-38 723,-32 729,-32 729,-32 759,-32 759,-32 765,-32 771,-38 771,-44 771,-44 771,-56 771,-56 771,-62 765,-68 759,-68"/>
<text xml:space="preserve" text-anchor="middle" x="744" y="-43.83" font-family="Consolas" font-size="14.00">peek</text>
</g>
<!-- src\\parser\\expressions.ts::parseOr&#45;&gt;src\\parser\\types.ts::peek -->
<g id="edge14" class="edge">
<title>src\\parser\\expressions.ts::parseOr&#45;&gt;src\\parser\\types.ts::peek</title>
<path fill="none" stroke="#64748b" d="M899.61,-420C846.64,-420 751.14,-420 751.14,-420 751.14,-420 751.14,-79.86 751.14,-79.86"/>
<polygon fill="#64748b" stroke="#64748b" points="754.64,-79.86 751.14,-69.86 747.64,-79.86 754.64,-79.86"/>
</g>
<!-- src\\parser\\types.ts::advance -->
<g id="node36" class="node">
<title>src\\parser\\types.ts::advance</title>
<path fill="#eef2ff" stroke="black" d="M687.25,-68C687.25,-68 642.75,-68 642.75,-68 636.75,-68 630.75,-62 630.75,-56 630.75,-56 630.75,-44 630.75,-44 630.75,-38 636.75,-32 642.75,-32 642.75,-32 687.25,-32 687.25,-32 693.25,-32 699.25,-38 699.25,-44 699.25,-44 699.25,-56 699.25,-56 699.25,-62 693.25,-68 687.25,-68"/>
<text xml:space="preserve" text-anchor="middle" x="665" y="-43.83" font-family="Consolas" font-size="14.00">advance</text>
</g>
<!-- src\\parser\\expressions.ts::parseOr&#45;&gt;src\\parser\\types.ts::advance -->
<g id="edge15" class="edge">
<title>src\\parser\\expressions.ts::parseOr&#45;&gt;src\\parser\\types.ts::advance</title>
<path fill="none" stroke="#64748b" d="M922.58,-401.27C922.58,-387.88 922.58,-372 922.58,-372 922.58,-372 658.15,-372 658.15,-372 658.15,-372 658.15,-79.75 658.15,-79.75"/>
<polygon fill="#64748b" stroke="#64748b" points="661.65,-79.75 658.15,-69.75 654.65,-79.75 661.65,-79.75"/>
</g>
<!-- src\\parser\\expressions.ts::parseComparison -->
<g id="node16" class="node">
<title>src\\parser\\expressions.ts::parseComparison</title>
<path fill="#eef2ff" stroke="black" d="M1010.25,-284.75C1010.25,-284.75 905.75,-284.75 905.75,-284.75 899.75,-284.75 893.75,-278.75 893.75,-272.75 893.75,-272.75 893.75,-260.75 893.75,-260.75 893.75,-254.75 899.75,-248.75 905.75,-248.75 905.75,-248.75 1010.25,-248.75 1010.25,-248.75 1016.25,-248.75 1022.25,-254.75 1022.25,-260.75 1022.25,-260.75 1022.25,-272.75 1022.25,-272.75 1022.25,-278.75 1016.25,-284.75 1010.25,-284.75"/>
<text xml:space="preserve" text-anchor="middle" x="958" y="-260.57" font-family="Consolas" font-size="14.00">parseComparison</text>
</g>
<!-- src\\parser\\expressions.ts::parseAnd&#45;&gt;src\\parser\\expressions.ts::parseComparison -->
<g id="edge16" class="edge">
<title>src\\parser\\expressions.ts::parseAnd&#45;&gt;src\\parser\\expressions.ts::parseComparison</title>
<path fill="none" stroke="#64748b" d="M933,-320.58C933,-320.58 933,-296.68 933,-296.68"/>
<polygon fill="#64748b" stroke="#64748b" points="936.5,-296.68 933,-286.68 929.5,-296.68 936.5,-296.68"/>
</g>
<!-- src\\parser\\expressions.ts::parseAnd&#45;&gt;src\\parser\\types.ts::peek -->
<g id="edge17" class="edge">
<title>src\\parser\\expressions.ts::parseAnd&#45;&gt;src\\parser\\types.ts::peek</title>
<path fill="none" stroke="#64748b" d="M894.62,-328C842.59,-328 756.11,-328 756.11,-328 756.11,-328 756.11,-79.75 756.11,-79.75"/>
<polygon fill="#64748b" stroke="#64748b" points="759.61,-79.75 756.11,-69.75 752.61,-79.75 759.61,-79.75"/>
</g>
<!-- src\\parser\\expressions.ts::parseAnd&#45;&gt;src\\parser\\types.ts::advance -->
<g id="edge18" class="edge">
<title>src\\parser\\expressions.ts::parseAnd&#45;&gt;src\\parser\\types.ts::advance</title>
<path fill="none" stroke="#64748b" d="M894.6,-335C820.5,-335 665,-335 665,-335 665,-335 665,-79.78 665,-79.78"/>
<polygon fill="#64748b" stroke="#64748b" points="668.5,-79.78 665,-69.78 661.5,-79.78 668.5,-79.78"/>
</g>
<!-- src\\parser\\expressions.ts::parseAddition -->
<g id="node17" class="node">
<title>src\\parser\\expressions.ts::parseAddition</title>
<path fill="#eef2ff" stroke="black" d="M999.75,-212.75C999.75,-212.75 910.25,-212.75 910.25,-212.75 904.25,-212.75 898.25,-206.75 898.25,-200.75 898.25,-200.75 898.25,-188.75 898.25,-188.75 898.25,-182.75 904.25,-176.75 910.25,-176.75 910.25,-176.75 999.75,-176.75 999.75,-176.75 1005.75,-176.75 1011.75,-182.75 1011.75,-188.75 1011.75,-188.75 1011.75,-200.75 1011.75,-200.75 1011.75,-206.75 1005.75,-212.75 999.75,-212.75"/>
<text xml:space="preserve" text-anchor="middle" x="955" y="-188.57" font-family="Consolas" font-size="14.00">parseAddition</text>
</g>
<!-- src\\parser\\expressions.ts::parseComparison&#45;&gt;src\\parser\\expressions.ts::parseAddition -->
<g id="edge19" class="edge">
<title>src\\parser\\expressions.ts::parseComparison&#45;&gt;src\\parser\\expressions.ts::parseAddition</title>
<path fill="none" stroke="#64748b" d="M955,-248.58C955,-248.58 955,-224.68 955,-224.68"/>
<polygon fill="#64748b" stroke="#64748b" points="958.5,-224.68 955,-214.68 951.5,-224.68 958.5,-224.68"/>
</g>
<!-- src\\parser\\expressions.ts::parseComparison&#45;&gt;src\\parser\\types.ts::peek -->
<g id="edge20" class="edge">
<title>src\\parser\\expressions.ts::parseComparison&#45;&gt;src\\parser\\types.ts::peek</title>
<path fill="none" stroke="#64748b" d="M893.52,-261C836.09,-261 761.07,-261 761.07,-261 761.07,-261 761.07,-79.87 761.07,-79.87"/>
<polygon fill="#64748b" stroke="#64748b" points="764.57,-79.87 761.07,-69.87 757.57,-79.87 764.57,-79.87"/>
</g>
<!-- src\\parser\\expressions.ts::parseComparison&#45;&gt;src\\parser\\types.ts::advance -->
<g id="edge21" class="edge">
<title>src\\parser\\expressions.ts::parseComparison&#45;&gt;src\\parser\\types.ts::advance</title>
<path fill="none" stroke="#64748b" d="M893.43,-273C809.03,-273 671.85,-273 671.85,-273 671.85,-273 671.85,-79.76 671.85,-79.76"/>
<polygon fill="#64748b" stroke="#64748b" points="675.35,-79.76 671.85,-69.76 668.35,-79.76 675.35,-79.76"/>
</g>
<!-- src\\parser\\expressions.ts::parseMultiplication -->
<g id="node18" class="node">
<title>src\\parser\\expressions.ts::parseMultiplication</title>
<path fill="#eef2ff" stroke="black" d="M1040.25,-140.75C1040.25,-140.75 905.75,-140.75 905.75,-140.75 899.75,-140.75 893.75,-134.75 893.75,-128.75 893.75,-128.75 893.75,-116.75 893.75,-116.75 893.75,-110.75 899.75,-104.75 905.75,-104.75 905.75,-104.75 1040.25,-104.75 1040.25,-104.75 1046.25,-104.75 1052.25,-110.75 1052.25,-116.75 1052.25,-116.75 1052.25,-128.75 1052.25,-128.75 1052.25,-134.75 1046.25,-140.75 1040.25,-140.75"/>
<text xml:space="preserve" text-anchor="middle" x="973" y="-116.58" font-family="Consolas" font-size="14.00">parseMultiplication</text>
</g>
<!-- src\\parser\\expressions.ts::parseAddition&#45;&gt;src\\parser\\expressions.ts::parseMultiplication -->
<g id="edge22" class="edge">
<title>src\\parser\\expressions.ts::parseAddition&#45;&gt;src\\parser\\expressions.ts::parseMultiplication</title>
<path fill="none" stroke="#64748b" d="M955,-176.58C955,-176.58 955,-152.68 955,-152.68"/>
<polygon fill="#64748b" stroke="#64748b" points="958.5,-152.68 955,-142.68 951.5,-152.68 958.5,-152.68"/>
</g>
<!-- src\\parser\\expressions.ts::parseAddition&#45;&gt;src\\parser\\types.ts::peek -->
<g id="edge23" class="edge">
<title>src\\parser\\expressions.ts::parseAddition&#45;&gt;src\\parser\\types.ts::peek</title>
<path fill="none" stroke="#64748b" d="M897.79,-189C842.17,-189 766.04,-189 766.04,-189 766.04,-189 766.04,-79.97 766.04,-79.97"/>
<polygon fill="#64748b" stroke="#64748b" points="769.54,-79.97 766.04,-69.97 762.54,-79.97 769.54,-79.97"/>
</g>
<!-- src\\parser\\expressions.ts::parseAddition&#45;&gt;src\\parser\\types.ts::advance -->
<g id="edge24" class="edge">
<title>src\\parser\\expressions.ts::parseAddition&#45;&gt;src\\parser\\types.ts::advance</title>
<path fill="none" stroke="#64748b" d="M897.75,-201C816.82,-201 678.7,-201 678.7,-201 678.7,-201 678.7,-79.73 678.7,-79.73"/>
<polygon fill="#64748b" stroke="#64748b" points="682.2,-79.73 678.7,-69.73 675.2,-79.73 682.2,-79.73"/>
</g>
<!-- src\\parser\\expressions.ts::parseOperand -->
<g id="node19" class="node">
<title>src\\parser\\expressions.ts::parseOperand</title>
<path fill="#eef2ff" stroke="black" d="M1014,-68C1014,-68 932,-68 932,-68 926,-68 920,-62 920,-56 920,-56 920,-44 920,-44 920,-38 926,-32 932,-32 932,-32 1014,-32 1014,-32 1020,-32 1026,-38 1026,-44 1026,-44 1026,-56 1026,-56 1026,-62 1020,-68 1014,-68"/>
<text xml:space="preserve" text-anchor="middle" x="973" y="-43.83" font-family="Consolas" font-size="14.00">parseOperand</text>
</g>
<!-- src\\parser\\expressions.ts::parseMultiplication&#45;&gt;src\\parser\\expressions.ts::parseOperand -->
<g id="edge25" class="edge">
<title>src\\parser\\expressions.ts::parseMultiplication&#45;&gt;src\\parser\\expressions.ts::parseOperand</title>
<path fill="none" stroke="#64748b" d="M990.67,-104.39C990.67,-104.39 990.67,-79.87 990.67,-79.87"/>
<polygon fill="#64748b" stroke="#64748b" points="994.17,-79.87 990.67,-69.87 987.17,-79.87 994.17,-79.87"/>
</g>
<!-- src\\parser\\expressions.ts::parseMultiplication&#45;&gt;src\\parser\\types.ts::peek -->
<g id="edge26" class="edge">
<title>src\\parser\\expressions.ts::parseMultiplication&#45;&gt;src\\parser\\types.ts::peek</title>
<path fill="none" stroke="#64748b" d="M906.88,-104.61C906.88,-80.52 906.88,-41 906.88,-41 906.88,-41 782.78,-41 782.78,-41"/>
<polygon fill="#64748b" stroke="#64748b" points="782.78,-37.5 772.78,-41 782.78,-44.5 782.78,-37.5"/>
</g>
<!-- src\\parser\\expressions.ts::parseMultiplication&#45;&gt;src\\parser\\types.ts::advance -->
<g id="edge27" class="edge">
<title>src\\parser\\expressions.ts::parseMultiplication&#45;&gt;src\\parser\\types.ts::advance</title>
<path fill="none" stroke="#64748b" d="M893.31,-123C808.24,-123 685.55,-123 685.55,-123 685.55,-123 685.55,-79.93 685.55,-79.93"/>
<polygon fill="#64748b" stroke="#64748b" points="689.05,-79.93 685.55,-69.93 682.05,-79.93 689.05,-79.93"/>
</g>
<!-- src\\parser\\expressions.ts::parseOperand&#45;&gt;src\\errors.ts::fail -->
<g id="edge29" class="edge">
<title>src\\parser\\expressions.ts::parseOperand&#45;&gt;src\\errors.ts::fail</title>
<path fill="none" stroke="#64748b" d="M1026.26,-50C1111.48,-50 1269,-50 1269,-50 1269,-50 1269,-309.17 1269,-309.17"/>
<polygon fill="#64748b" stroke="#64748b" points="1265.5,-309.17 1269,-319.17 1272.5,-309.17 1265.5,-309.17"/>
</g>
<!-- src\\parser\\expressions.ts::parseOperand&#45;&gt;src\\parser\\expressions.ts::parseExpr -->
<g id="edge31" class="edge">
<title>src\\parser\\expressions.ts::parseOperand&#45;&gt;src\\parser\\expressions.ts::parseExpr</title>
<path fill="none" stroke="#64748b" d="M919.77,-46C903.09,-46 888.95,-46 888.95,-46 888.95,-46 888.95,-492 888.95,-492 888.95,-492 889.45,-492 889.45,-492"/>
<polygon fill="#64748b" stroke="#64748b" points="882.47,-495.5 892.47,-492 882.47,-488.5 882.47,-495.5"/>
</g>
<!-- src\\parser\\expressions.ts::parseOperand&#45;&gt;src\\parser\\types.ts::peek -->
<g id="edge28" class="edge">
<title>src\\parser\\expressions.ts::parseOperand&#45;&gt;src\\parser\\types.ts::peek</title>
<path fill="none" stroke="#64748b" d="M919.6,-37C919.6,-37 782.92,-37 782.92,-37"/>
<polygon fill="#64748b" stroke="#64748b" points="782.92,-33.5 772.92,-37 782.92,-40.5 782.92,-33.5"/>
</g>
<!-- src\\parser\\expressions.ts::parseOperand&#45;&gt;src\\parser\\types.ts::advance -->
<g id="edge30" class="edge">
<title>src\\parser\\expressions.ts::parseOperand&#45;&gt;src\\parser\\types.ts::advance</title>
<path fill="none" stroke="#64748b" d="M955.33,-68.42C955.33,-77.28 955.33,-86 955.33,-86 955.33,-86 692.4,-86 692.4,-86 692.4,-86 692.4,-79.94 692.4,-79.94"/>
<polygon fill="#64748b" stroke="#64748b" points="695.9,-79.94 692.4,-69.94 688.9,-79.94 695.9,-79.94"/>
</g>
<!-- src\\parser\\statements.ts::parseStatements -->
<g id="node21" class="node">
<title>src\\parser\\statements.ts::parseStatements</title>
<path fill="#eef2ff" stroke="black" d="M654.25,-735C654.25,-735 549.75,-735 549.75,-735 543.75,-735 537.75,-729 537.75,-723 537.75,-723 537.75,-711 537.75,-711 537.75,-705 543.75,-699 549.75,-699 549.75,-699 654.25,-699 654.25,-699 660.25,-699 666.25,-705 666.25,-711 666.25,-711 666.25,-723 666.25,-723 666.25,-729 660.25,-735 654.25,-735"/>
<text xml:space="preserve" text-anchor="middle" x="602" y="-710.83" font-family="Consolas" font-size="14.00">parseStatements</text>
</g>
<!-- src\\parser\\index.ts::groupStatements&#45;&gt;src\\parser\\statements.ts::parseStatements -->
<g id="edge32" class="edge">
<title>src\\parser\\index.ts::groupStatements&#45;&gt;src\\parser\\statements.ts::parseStatements</title>
<path fill="none" stroke="#64748b" d="M829,-779.27C829,-757.14 829,-723 829,-723 829,-723 678.26,-723 678.26,-723"/>
<polygon fill="#64748b" stroke="#64748b" points="678.26,-719.5 668.26,-723 678.26,-726.5 678.26,-719.5"/>
</g>
<!-- src\\parser\\statements.ts::parseStatements&#45;&gt;src\\errors.ts::fail -->
<g id="edge35" class="edge">
<title>src\\parser\\statements.ts::parseStatements&#45;&gt;src\\errors.ts::fail</title>
<path fill="none" stroke="#64748b" d="M666.55,-711C836.19,-711 1281.6,-711 1281.6,-711 1281.6,-711 1281.6,-368.72 1281.6,-368.72"/>
<polygon fill="#64748b" stroke="#64748b" points="1285.1,-368.72 1281.6,-358.72 1278.1,-368.72 1285.1,-368.72"/>
</g>
<!-- src\\parser\\statements.ts::parseStatements&#45;&gt;src\\parser\\statements.ts::parseStatements -->
<g id="edge34" class="edge">
<title>src\\parser\\statements.ts::parseStatements&#45;&gt;src\\parser\\statements.ts::parseStatements</title>
<path fill="none" stroke="#64748b" d="M602,-735.43C602,-742.99 602,-750 602,-750 602,-750 531.5,-750 531.5,-750 531.5,-750 531.5,-675 531.5,-675 531.5,-675 557.62,-675 557.62,-675 557.62,-675 557.62,-687.43 557.62,-687.43"/>
<polygon fill="#64748b" stroke="#64748b" points="554.13,-687.43 557.63,-697.43 561.13,-687.43 554.13,-687.43"/>
</g>
<!-- src\\parser\\statements.ts::parsePlainStatement -->
<g id="node24" class="node">
<title>src\\parser\\statements.ts::parsePlainStatement</title>
<path fill="#eef2ff" stroke="black" d="M850.25,-663C850.25,-663 715.75,-663 715.75,-663 709.75,-663 703.75,-657 703.75,-651 703.75,-651 703.75,-639 703.75,-639 703.75,-633 709.75,-627 715.75,-627 715.75,-627 850.25,-627 850.25,-627 856.25,-627 862.25,-633 862.25,-639 862.25,-639 862.25,-651 862.25,-651 862.25,-657 856.25,-663 850.25,-663"/>
<text xml:space="preserve" text-anchor="middle" x="783" y="-638.83" font-family="Consolas" font-size="14.00">parsePlainStatement</text>
</g>
<!-- src\\parser\\statements.ts::parseStatements&#45;&gt;src\\parser\\statements.ts::parsePlainStatement -->
<g id="edge40" class="edge">
<title>src\\parser\\statements.ts::parseStatements&#45;&gt;src\\parser\\statements.ts::parsePlainStatement</title>
<path fill="none" stroke="#64748b" d="M644.83,-698.7C644.83,-680.73 644.83,-656 644.83,-656 644.83,-656 691.91,-656 691.91,-656"/>
<polygon fill="#64748b" stroke="#64748b" points="691.91,-659.5 701.91,-656 691.91,-652.5 691.91,-659.5"/>
</g>
<!-- src\\parser\\statements.ts::parseIf -->
<g id="node30" class="node">
<title>src\\parser\\statements.ts::parseIf</title>
<path fill="#eef2ff" stroke="black" d="M513.25,-663C513.25,-663 468.75,-663 468.75,-663 462.75,-663 456.75,-657 456.75,-651 456.75,-651 456.75,-639 456.75,-639 456.75,-633 462.75,-627 468.75,-627 468.75,-627 513.25,-627 513.25,-627 519.25,-627 525.25,-633 525.25,-639 525.25,-639 525.25,-651 525.25,-651 525.25,-657 519.25,-663 513.25,-663"/>
<text xml:space="preserve" text-anchor="middle" x="491" y="-638.83" font-family="Consolas" font-size="14.00">parseIf</text>
</g>
<!-- src\\parser\\statements.ts::parseStatements&#45;&gt;src\\parser\\statements.ts::parseIf -->
<g id="edge36" class="edge">
<title>src\\parser\\statements.ts::parseStatements&#45;&gt;src\\parser\\statements.ts::parseIf</title>
<path fill="none" stroke="#64748b" d="M551,-698.6C551,-676.11 551,-641 551,-641 551,-641 537.07,-641 537.07,-641"/>
<polygon fill="#64748b" stroke="#64748b" points="537.07,-637.5 527.07,-641 537.07,-644.5 537.07,-637.5"/>
</g>
<!-- src\\parser\\statements.ts::parseWhile -->
<g id="node31" class="node">
<title>src\\parser\\statements.ts::parseWhile</title>
<path fill="#eef2ff" stroke="black" d="M426.5,-663C426.5,-663 359.5,-663 359.5,-663 353.5,-663 347.5,-657 347.5,-651 347.5,-651 347.5,-639 347.5,-639 347.5,-633 353.5,-627 359.5,-627 359.5,-627 426.5,-627 426.5,-627 432.5,-627 438.5,-633 438.5,-639 438.5,-639 438.5,-651 438.5,-651 438.5,-657 432.5,-663 426.5,-663"/>
<text xml:space="preserve" text-anchor="middle" x="393" y="-638.83" font-family="Consolas" font-size="14.00">parseWhile</text>
</g>
<!-- src\\parser\\statements.ts::parseStatements&#45;&gt;src\\parser\\statements.ts::parseWhile -->
<g id="edge37" class="edge">
<title>src\\parser\\statements.ts::parseStatements&#45;&gt;src\\parser\\statements.ts::parseWhile</title>
<path fill="none" stroke="#64748b" d="M537.3,-708C475.92,-708 393,-708 393,-708 393,-708 393,-674.74 393,-674.74"/>
<polygon fill="#64748b" stroke="#64748b" points="396.5,-674.74 393,-664.74 389.5,-674.74 396.5,-674.74"/>
</g>
<!-- src\\parser\\statements.ts::parseFor -->
<g id="node32" class="node">
<title>src\\parser\\statements.ts::parseFor</title>
<path fill="#eef2ff" stroke="black" d="M666,-590.25C666,-590.25 614,-590.25 614,-590.25 608,-590.25 602,-584.25 602,-578.25 602,-578.25 602,-566.25 602,-566.25 602,-560.25 608,-554.25 614,-554.25 614,-554.25 666,-554.25 666,-554.25 672,-554.25 678,-560.25 678,-566.25 678,-566.25 678,-578.25 678,-578.25 678,-584.25 672,-590.25 666,-590.25"/>
<text xml:space="preserve" text-anchor="middle" x="640" y="-566.08" font-family="Consolas" font-size="14.00">parseFor</text>
</g>
<!-- src\\parser\\statements.ts::parseStatements&#45;&gt;src\\parser\\statements.ts::parseFor -->
<g id="edge38" class="edge">
<title>src\\parser\\statements.ts::parseStatements&#45;&gt;src\\parser\\statements.ts::parseFor</title>
<path fill="none" stroke="#64748b" d="M623.42,-698.67C623.42,-698.67 623.42,-601.95 623.42,-601.95"/>
<polygon fill="#64748b" stroke="#64748b" points="626.92,-601.95 623.42,-591.95 619.92,-601.95 626.92,-601.95"/>
</g>
<!-- src\\parser\\statements.ts::parseMatch -->
<g id="node34" class="node">
<title>src\\parser\\statements.ts::parseMatch</title>
<path fill="#eef2ff" stroke="black" d="M375.5,-590.25C375.5,-590.25 308.5,-590.25 308.5,-590.25 302.5,-590.25 296.5,-584.25 296.5,-578.25 296.5,-578.25 296.5,-566.25 296.5,-566.25 296.5,-560.25 302.5,-554.25 308.5,-554.25 308.5,-554.25 375.5,-554.25 375.5,-554.25 381.5,-554.25 387.5,-560.25 387.5,-566.25 387.5,-566.25 387.5,-578.25 387.5,-578.25 387.5,-584.25 381.5,-590.25 375.5,-590.25"/>
<text xml:space="preserve" text-anchor="middle" x="342" y="-566.08" font-family="Consolas" font-size="14.00">parseMatch</text>
</g>
<!-- src\\parser\\statements.ts::parseStatements&#45;&gt;src\\parser\\statements.ts::parseMatch -->
<g id="edge39" class="edge">
<title>src\\parser\\statements.ts::parseStatements&#45;&gt;src\\parser\\statements.ts::parseMatch</title>
<path fill="none" stroke="#64748b" d="M537.41,-717C454.72,-717 322,-717 322,-717 322,-717 322,-602.1 322,-602.1"/>
<polygon fill="#64748b" stroke="#64748b" points="325.5,-602.1 322,-592.1 318.5,-602.1 325.5,-602.1"/>
</g>
<!-- src\\parser\\statements.ts::parseStatements&#45;&gt;src\\parser\\types.ts::advance -->
<g id="edge33" class="edge">
<title>src\\parser\\statements.ts::parseStatements&#45;&gt;src\\parser\\types.ts::advance</title>
<path fill="none" stroke="#64748b" d="M537.46,-726C422.61,-726 194.69,-726 194.69,-726 194.69,-726 194.69,-36 194.69,-36 194.69,-36 618.9,-36 618.9,-36"/>
<polygon fill="#64748b" stroke="#64748b" points="618.9,-39.5 628.9,-36 618.9,-32.5 618.9,-39.5"/>
</g>
<!-- src\\parser\\statements.ts::parseExprAndSemicolon -->
<g id="node22" class="node">
<title>src\\parser\\statements.ts::parseExprAndSemicolon</title>
<path fill="#eef2ff" stroke="black" d="M857.75,-590.25C857.75,-590.25 708.25,-590.25 708.25,-590.25 702.25,-590.25 696.25,-584.25 696.25,-578.25 696.25,-578.25 696.25,-566.25 696.25,-566.25 696.25,-560.25 702.25,-554.25 708.25,-554.25 708.25,-554.25 857.75,-554.25 857.75,-554.25 863.75,-554.25 869.75,-560.25 869.75,-566.25 869.75,-566.25 869.75,-578.25 869.75,-578.25 869.75,-584.25 863.75,-590.25 857.75,-590.25"/>
<text xml:space="preserve" text-anchor="middle" x="783" y="-566.08" font-family="Consolas" font-size="14.00">parseExprAndSemicolon</text>
</g>
<!-- src\\parser\\statements.ts::parseExprAndSemicolon&#45;&gt;src\\errors.ts::fail -->
<g id="edge43" class="edge">
<title>src\\parser\\statements.ts::parseExprAndSemicolon&#45;&gt;src\\errors.ts::fail</title>
<path fill="none" stroke="#64748b" d="M870.21,-572C1010.52,-572 1270.8,-572 1270.8,-572 1270.8,-572 1270.8,-368.57 1270.8,-368.57"/>
<polygon fill="#64748b" stroke="#64748b" points="1274.3,-368.57 1270.8,-358.57 1267.3,-368.57 1274.3,-368.57"/>
</g>
<!-- src\\parser\\statements.ts::parseExprAndSemicolon&#45;&gt;src\\parser\\expressions.ts::parseExpr -->
<g id="edge41" class="edge">
<title>src\\parser\\statements.ts::parseExprAndSemicolon&#45;&gt;src\\parser\\expressions.ts::parseExpr</title>
<path fill="none" stroke="#64748b" d="M870.18,-563C894.42,-563 914.25,-563 914.25,-563 914.25,-563 914.25,-521.43 914.25,-521.43"/>
<polygon fill="#64748b" stroke="#64748b" points="917.75,-521.43 914.25,-511.43 910.75,-521.43 917.75,-521.43"/>
</g>
<!-- src\\parser\\statements.ts::parseExprAndSemicolon&#45;&gt;src\\parser\\types.ts::peek -->
<g id="edge42" class="edge">
<title>src\\parser\\statements.ts::parseExprAndSemicolon&#45;&gt;src\\parser\\types.ts::peek</title>
<path fill="none" stroke="#64748b" d="M859.69,-553.98C859.69,-462.55 859.69,-59 859.69,-59 859.69,-59 782.93,-59 782.93,-59"/>
<polygon fill="#64748b" stroke="#64748b" points="782.93,-55.5 772.93,-59 782.93,-62.5 782.93,-55.5"/>
</g>
<!-- src\\parser\\statements.ts::parseExprAndSemicolon&#45;&gt;src\\parser\\types.ts::advance -->
<g id="edge44" class="edge">
<title>src\\parser\\statements.ts::parseExprAndSemicolon&#45;&gt;src\\parser\\types.ts::advance</title>
<path fill="none" stroke="#64748b" d="M839.56,-554.01C839.56,-506.39 839.56,-382 839.56,-382 839.56,-382 644.45,-382 644.45,-382 644.45,-382 644.45,-79.84 644.45,-79.84"/>
<polygon fill="#64748b" stroke="#64748b" points="647.95,-79.84 644.45,-69.84 640.95,-79.84 647.95,-79.84"/>
</g>
<!-- src\\parser\\statements.ts::expectOpenBrace -->
<g id="node23" class="node">
<title>src\\parser\\statements.ts::expectOpenBrace</title>
<path fill="#eef2ff" stroke="black" d="M424.25,-437.5C424.25,-437.5 319.75,-437.5 319.75,-437.5 313.75,-437.5 307.75,-431.5 307.75,-425.5 307.75,-425.5 307.75,-413.5 307.75,-413.5 307.75,-407.5 313.75,-401.5 319.75,-401.5 319.75,-401.5 424.25,-401.5 424.25,-401.5 430.25,-401.5 436.25,-407.5 436.25,-413.5 436.25,-413.5 436.25,-425.5 436.25,-425.5 436.25,-431.5 430.25,-437.5 424.25,-437.5"/>
<text xml:space="preserve" text-anchor="middle" x="372" y="-413.32" font-family="Consolas" font-size="14.00">expectOpenBrace</text>
</g>
<!-- src\\parser\\statements.ts::expectOpenBrace&#45;&gt;src\\errors.ts::fail -->
<g id="edge46" class="edge">
<title>src\\parser\\statements.ts::expectOpenBrace&#45;&gt;src\\errors.ts::fail</title>
<path fill="none" stroke="#64748b" d="M339.88,-401.35C339.88,-393.91 339.88,-387 339.88,-387 339.88,-387 1245.6,-387 1245.6,-387 1245.6,-387 1245.6,-368.5 1245.6,-368.5"/>
<polygon fill="#64748b" stroke="#64748b" points="1249.1,-368.5 1245.6,-358.5 1242.1,-368.5 1249.1,-368.5"/>
</g>
<!-- src\\parser\\statements.ts::expectOpenBrace&#45;&gt;src\\parser\\types.ts::peek -->
<g id="edge45" class="edge">
<title>src\\parser\\statements.ts::expectOpenBrace&#45;&gt;src\\parser\\types.ts::peek</title>
<path fill="none" stroke="#64748b" d="M404.12,-401.13C404.12,-378.22 404.12,-342 404.12,-342 404.12,-342 724.7,-342 724.7,-342 724.7,-342 724.7,-79.78 724.7,-79.78"/>
<polygon fill="#64748b" stroke="#64748b" points="728.2,-79.78 724.7,-69.78 721.2,-79.78 728.2,-79.78"/>
</g>
<!-- src\\parser\\statements.ts::expectOpenBrace&#45;&gt;src\\parser\\types.ts::advance -->
<g id="edge47" class="edge">
<title>src\\parser\\statements.ts::expectOpenBrace&#45;&gt;src\\parser\\types.ts::advance</title>
<path fill="none" stroke="#64748b" d="M372,-401.47C372,-328.13 372,-56 372,-56 372,-56 619.01,-56 619.01,-56"/>
<polygon fill="#64748b" stroke="#64748b" points="619.01,-59.5 629.01,-56 619.01,-52.5 619.01,-59.5"/>
</g>
<!-- src\\parser\\statements.ts::parsePlainStatement&#45;&gt;src\\errors.ts::fail -->
<g id="edge49" class="edge">
<title>src\\parser\\statements.ts::parsePlainStatement&#45;&gt;src\\errors.ts::fail</title>
<path fill="none" stroke="#64748b" d="M862.53,-654C1002.46,-654 1278,-654 1278,-654 1278,-654 1278,-368.58 1278,-368.58"/>
<polygon fill="#64748b" stroke="#64748b" points="1281.5,-368.58 1278,-358.58 1274.5,-368.58 1281.5,-368.58"/>
</g>
<!-- src\\parser\\statements.ts::parsePlainStatement&#45;&gt;src\\parser\\statements.ts::parseExprAndSemicolon -->
<g id="edge51" class="edge">
<title>src\\parser\\statements.ts::parsePlainStatement&#45;&gt;src\\parser\\statements.ts::parseExprAndSemicolon</title>
<path fill="none" stroke="#64748b" d="M783,-626.64C783,-626.64 783,-602.12 783,-602.12"/>
<polygon fill="#64748b" stroke="#64748b" points="786.5,-602.12 783,-592.12 779.5,-602.12 786.5,-602.12"/>
</g>
<!-- src\\parser\\statements.ts::parsePlainStatement&#45;&gt;src\\parser\\types.ts::peek -->
<g id="edge48" class="edge">
<title>src\\parser\\statements.ts::parsePlainStatement&#45;&gt;src\\parser\\types.ts::peek</title>
<path fill="none" stroke="#64748b" d="M862.7,-645C875.24,-645 884.15,-645 884.15,-645 884.15,-645 884.15,-50 884.15,-50 884.15,-50 782.87,-50 782.87,-50"/>
<polygon fill="#64748b" stroke="#64748b" points="782.87,-46.5 772.87,-50 782.87,-53.5 782.87,-46.5"/>
</g>
<!-- src\\parser\\statements.ts::parsePlainStatement&#45;&gt;src\\parser\\types.ts::advance -->
<g id="edge50" class="edge">
<title>src\\parser\\statements.ts::parsePlainStatement&#45;&gt;src\\parser\\types.ts::advance</title>
<path fill="none" stroke="#64748b" d="M862.57,-636C872.55,-636 879.35,-636 879.35,-636 879.35,-636 879.35,-377 879.35,-377 879.35,-377 651.3,-377 651.3,-377 651.3,-377 651.3,-79.56 651.3,-79.56"/>
<polygon fill="#64748b" stroke="#64748b" points="654.8,-79.56 651.3,-69.56 647.8,-79.56 654.8,-79.56"/>
</g>
<!-- src\\parser\\statements.ts::expectOpenParen -->
<g id="node25" class="node">
<title>src\\parser\\statements.ts::expectOpenParen</title>
<path fill="#eef2ff" stroke="black" d="M724.25,-437.5C724.25,-437.5 619.75,-437.5 619.75,-437.5 613.75,-437.5 607.75,-431.5 607.75,-425.5 607.75,-425.5 607.75,-413.5 607.75,-413.5 607.75,-407.5 613.75,-401.5 619.75,-401.5 619.75,-401.5 724.25,-401.5 724.25,-401.5 730.25,-401.5 736.25,-407.5 736.25,-413.5 736.25,-413.5 736.25,-425.5 736.25,-425.5 736.25,-431.5 730.25,-437.5 724.25,-437.5"/>
<text xml:space="preserve" text-anchor="middle" x="672" y="-413.32" font-family="Consolas" font-size="14.00">expectOpenParen</text>
</g>
<!-- src\\parser\\statements.ts::expectOpenParen&#45;&gt;src\\errors.ts::fail -->
<g id="edge53" class="edge">
<title>src\\parser\\statements.ts::expectOpenParen&#45;&gt;src\\errors.ts::fail</title>
<path fill="none" stroke="#64748b" d="M720.85,-401.34C720.85,-398.78 720.85,-397 720.85,-397 720.85,-397 1252.8,-397 1252.8,-397 1252.8,-397 1252.8,-368.69 1252.8,-368.69"/>
<polygon fill="#64748b" stroke="#64748b" points="1256.3,-368.69 1252.8,-358.69 1249.3,-368.69 1256.3,-368.69"/>
</g>
<!-- src\\parser\\statements.ts::expectOpenParen&#45;&gt;src\\parser\\types.ts::peek -->
<g id="edge52" class="edge">
<title>src\\parser\\statements.ts::expectOpenParen&#45;&gt;src\\parser\\types.ts::peek</title>
<path fill="none" stroke="#64748b" d="M732.4,-401.18C732.4,-401.18 732.4,-79.95 732.4,-79.95"/>
<polygon fill="#64748b" stroke="#64748b" points="735.9,-79.95 732.4,-69.95 728.9,-79.95 735.9,-79.95"/>
</g>
<!-- src\\parser\\statements.ts::expectOpenParen&#45;&gt;src\\parser\\types.ts::advance -->
<g id="edge54" class="edge">
<title>src\\parser\\statements.ts::expectOpenParen&#45;&gt;src\\parser\\types.ts::advance</title>
<path fill="none" stroke="#64748b" d="M637.6,-401.18C637.6,-401.18 637.6,-79.95 637.6,-79.95"/>
<polygon fill="#64748b" stroke="#64748b" points="641.1,-79.95 637.6,-69.95 634.1,-79.95 641.1,-79.95"/>
</g>
<!-- src\\parser\\statements.ts::expectCloseParen -->
<g id="node26" class="node">
<title>src\\parser\\statements.ts::expectCloseParen</title>
<path fill="#eef2ff" stroke="black" d="M578,-437.5C578,-437.5 466,-437.5 466,-437.5 460,-437.5 454,-431.5 454,-425.5 454,-425.5 454,-413.5 454,-413.5 454,-407.5 460,-401.5 466,-401.5 466,-401.5 578,-401.5 578,-401.5 584,-401.5 590,-407.5 590,-413.5 590,-413.5 590,-425.5 590,-425.5 590,-431.5 584,-437.5 578,-437.5"/>
<text xml:space="preserve" text-anchor="middle" x="522" y="-413.32" font-family="Consolas" font-size="14.00">expectCloseParen</text>
</g>
<!-- src\\parser\\statements.ts::expectCloseParen&#45;&gt;src\\errors.ts::fail -->
<g id="edge56" class="edge">
<title>src\\parser\\statements.ts::expectCloseParen&#45;&gt;src\\errors.ts::fail</title>
<path fill="none" stroke="#64748b" d="M488,-401C488,-396.03 488,-392 488,-392 488,-392 1249.2,-392 1249.2,-392 1249.2,-392 1249.2,-368.59 1249.2,-368.59"/>
<polygon fill="#64748b" stroke="#64748b" points="1252.7,-368.59 1249.2,-358.59 1245.7,-368.59 1252.7,-368.59"/>
</g>
<!-- src\\parser\\statements.ts::expectCloseParen&#45;&gt;src\\parser\\types.ts::peek -->
<g id="edge55" class="edge">
<title>src\\parser\\statements.ts::expectCloseParen&#45;&gt;src\\parser\\types.ts::peek</title>
<path fill="none" stroke="#64748b" d="M556,-401.24C556,-380.65 556,-350 556,-350 556,-350 728.55,-350 728.55,-350 728.55,-350 728.55,-79.83 728.55,-79.83"/>
<polygon fill="#64748b" stroke="#64748b" points="732.05,-79.83 728.55,-69.83 725.05,-79.83 732.05,-79.83"/>
</g>
<!-- src\\parser\\statements.ts::expectCloseParen&#45;&gt;src\\parser\\types.ts::advance -->
<g id="edge57" class="edge">
<title>src\\parser\\statements.ts::expectCloseParen&#45;&gt;src\\parser\\types.ts::advance</title>
<path fill="none" stroke="#64748b" d="M522,-401.18C522,-327.92 522,-60 522,-60 522,-60 618.87,-60 618.87,-60"/>
<polygon fill="#64748b" stroke="#64748b" points="618.87,-63.5 628.87,-60 618.87,-56.5 618.87,-63.5"/>
</g>
<!-- src\\parser\\statements.ts::parseParenthesizedExpr -->
<g id="node27" class="node">
<title>src\\parser\\statements.ts::parseParenthesizedExpr</title>
<path fill="#eef2ff" stroke="black" d="M517.5,-509.5C517.5,-509.5 360.5,-509.5 360.5,-509.5 354.5,-509.5 348.5,-503.5 348.5,-497.5 348.5,-497.5 348.5,-485.5 348.5,-485.5 348.5,-479.5 354.5,-473.5 360.5,-473.5 360.5,-473.5 517.5,-473.5 517.5,-473.5 523.5,-473.5 529.5,-479.5 529.5,-485.5 529.5,-485.5 529.5,-497.5 529.5,-497.5 529.5,-503.5 523.5,-509.5 517.5,-509.5"/>
<text xml:space="preserve" text-anchor="middle" x="439" y="-485.32" font-family="Consolas" font-size="14.00">parseParenthesizedExpr</text>
</g>
<!-- src\\parser\\statements.ts::parseParenthesizedExpr&#45;&gt;src\\parser\\expressions.ts::parseExpr -->
<g id="edge59" class="edge">
<title>src\\parser\\statements.ts::parseParenthesizedExpr&#45;&gt;src\\parser\\expressions.ts::parseExpr</title>
<path fill="none" stroke="#64748b" d="M510.62,-473C510.62,-468.03 510.62,-464 510.62,-464 510.62,-464 922.58,-464 922.58,-464 922.58,-464 922.58,-464.9 922.58,-464.9"/>
<polygon fill="#64748b" stroke="#64748b" points="919.08,-461.49 922.58,-471.49 926.08,-461.49 919.08,-461.49"/>
</g>
<!-- src\\parser\\statements.ts::parseParenthesizedExpr&#45;&gt;src\\parser\\statements.ts::expectOpenParen -->
<g id="edge58" class="edge">
<title>src\\parser\\statements.ts::parseParenthesizedExpr&#45;&gt;src\\parser\\statements.ts::expectOpenParen</title>
<path fill="none" stroke="#64748b" d="M491.75,-473.15C491.75,-462.43 491.75,-451 491.75,-451 491.75,-451 628.5,-451 628.5,-451 628.5,-451 628.5,-449.34 628.5,-449.34"/>
<polygon fill="#64748b" stroke="#64748b" points="632,-449.34 628.5,-439.34 625,-449.34 632,-449.34"/>
</g>
<!-- src\\parser\\statements.ts::parseParenthesizedExpr&#45;&gt;src\\parser\\statements.ts::expectCloseParen -->
<g id="edge60" class="edge">
<title>src\\parser\\statements.ts::parseParenthesizedExpr&#45;&gt;src\\parser\\statements.ts::expectCloseParen</title>
<path fill="none" stroke="#64748b" d="M472.88,-473.33C472.88,-473.33 472.88,-449.43 472.88,-449.43"/>
<polygon fill="#64748b" stroke="#64748b" points="476.38,-449.43 472.88,-439.43 469.38,-449.43 476.38,-449.43"/>
</g>
<!-- src\\parser\\statements.ts::parseBlockBody -->
<g id="node28" class="node">
<title>src\\parser\\statements.ts::parseBlockBody</title>
<path fill="#eef2ff" stroke="black" d="M817.5,-509.5C817.5,-509.5 720.5,-509.5 720.5,-509.5 714.5,-509.5 708.5,-503.5 708.5,-497.5 708.5,-497.5 708.5,-485.5 708.5,-485.5 708.5,-479.5 714.5,-473.5 720.5,-473.5 720.5,-473.5 817.5,-473.5 817.5,-473.5 823.5,-473.5 829.5,-479.5 829.5,-485.5 829.5,-485.5 829.5,-497.5 829.5,-497.5 829.5,-503.5 823.5,-509.5 817.5,-509.5"/>
<text xml:space="preserve" text-anchor="middle" x="769" y="-485.32" font-family="Consolas" font-size="14.00">parseBlockBody</text>
</g>
<!-- src\\parser\\statements.ts::parseBlockBody&#45;&gt;src\\errors.ts::fail -->
<g id="edge63" class="edge">
<title>src\\parser\\statements.ts::parseBlockBody&#45;&gt;src\\errors.ts::fail</title>
<path fill="none" stroke="#64748b" d="M800.25,-473.36C800.25,-471.34 800.25,-470 800.25,-470 800.25,-470 1260,-470 1260,-470 1260,-470 1260,-368.51 1260,-368.51"/>
<polygon fill="#64748b" stroke="#64748b" points="1263.5,-368.51 1260,-358.51 1256.5,-368.51 1263.5,-368.51"/>
</g>
<!-- src\\parser\\statements.ts::parseBlockBody&#45;&gt;src\\parser\\statements.ts::parseStatements -->
<g id="edge62" class="edge">
<title>src\\parser\\statements.ts::parseBlockBody&#45;&gt;src\\parser\\statements.ts::parseStatements</title>
<path fill="none" stroke="#64748b" d="M781.1,-509.81C781.1,-519.33 781.1,-529 781.1,-529 781.1,-529 589.42,-529 589.42,-529 589.42,-529 589.42,-687.12 589.42,-687.12"/>
<polygon fill="#64748b" stroke="#64748b" points="585.92,-687.12 589.42,-697.12 592.92,-687.12 585.92,-687.12"/>
</g>
<!-- src\\parser\\statements.ts::parseBlockBody&#45;&gt;src\\parser\\statements.ts::expectOpenBrace -->
<g id="edge61" class="edge">
<title>src\\parser\\statements.ts::parseBlockBody&#45;&gt;src\\parser\\statements.ts::expectOpenBrace</title>
<path fill="none" stroke="#64748b" d="M722.38,-473.19C722.38,-463.67 722.38,-454 722.38,-454 722.38,-454 392.38,-454 392.38,-454 392.38,-454 392.38,-449.48 392.38,-449.48"/>
<polygon fill="#64748b" stroke="#64748b" points="395.88,-449.48 392.38,-439.48 388.88,-449.48 395.88,-449.48"/>
</g>
<!-- src\\parser\\statements.ts::parseConditionBlock -->
<g id="node29" class="node">
<title>src\\parser\\statements.ts::parseConditionBlock</title>
<path fill="#eef2ff" stroke="black" d="M552.25,-590.25C552.25,-590.25 417.75,-590.25 417.75,-590.25 411.75,-590.25 405.75,-584.25 405.75,-578.25 405.75,-578.25 405.75,-566.25 405.75,-566.25 405.75,-560.25 411.75,-554.25 417.75,-554.25 417.75,-554.25 552.25,-554.25 552.25,-554.25 558.25,-554.25 564.25,-560.25 564.25,-566.25 564.25,-566.25 564.25,-578.25 564.25,-578.25 564.25,-584.25 558.25,-590.25 552.25,-590.25"/>
<text xml:space="preserve" text-anchor="middle" x="485" y="-566.08" font-family="Consolas" font-size="14.00">parseConditionBlock</text>
</g>
<!-- src\\parser\\statements.ts::parseConditionBlock&#45;&gt;src\\parser\\statements.ts::parseParenthesizedExpr -->
<g id="edge64" class="edge">
<title>src\\parser\\statements.ts::parseConditionBlock&#45;&gt;src\\parser\\statements.ts::parseParenthesizedExpr</title>
<path fill="none" stroke="#64748b" d="M467.62,-553.93C467.62,-553.93 467.62,-521.26 467.62,-521.26"/>
<polygon fill="#64748b" stroke="#64748b" points="471.13,-521.26 467.63,-511.26 464.13,-521.26 471.13,-521.26"/>
</g>
<!-- src\\parser\\statements.ts::parseConditionBlock&#45;&gt;src\\parser\\statements.ts::parseBlockBody -->
<g id="edge65" class="edge">
<title>src\\parser\\statements.ts::parseConditionBlock&#45;&gt;src\\parser\\statements.ts::parseBlockBody</title>
<path fill="none" stroke="#64748b" d="M558.58,-553.97C558.58,-541.04 558.58,-526 558.58,-526 558.58,-526 756.9,-526 756.9,-526 756.9,-526 756.9,-521.48 756.9,-521.48"/>
<polygon fill="#64748b" stroke="#64748b" points="760.4,-521.48 756.9,-511.48 753.4,-521.48 760.4,-521.48"/>
</g>
<!-- src\\parser\\statements.ts::parseIf&#45;&gt;src\\errors.ts::fail -->
<g id="edge71" class="edge">
<title>src\\parser\\statements.ts::parseIf&#45;&gt;src\\errors.ts::fail</title>
<path fill="none" stroke="#64748b" d="M511.55,-626.57C511.55,-622.82 511.55,-620 511.55,-620 511.55,-620 1274.4,-620 1274.4,-620 1274.4,-620 1274.4,-368.72 1274.4,-368.72"/>
<polygon fill="#64748b" stroke="#64748b" points="1277.9,-368.72 1274.4,-358.72 1270.9,-368.72 1277.9,-368.72"/>
</g>
<!-- src\\parser\\statements.ts::parseIf&#45;&gt;src\\parser\\statements.ts::parseStatements -->
<g id="edge70" class="edge">
<title>src\\parser\\statements.ts::parseIf&#45;&gt;src\\parser\\statements.ts::parseStatements</title>
<path fill="none" stroke="#64748b" d="M525.71,-649C535.9,-649 544.38,-649 544.38,-649 544.38,-649 544.38,-687.26 544.38,-687.26"/>
<polygon fill="#64748b" stroke="#64748b" points="540.88,-687.26 544.38,-697.26 547.88,-687.26 540.88,-687.26"/>
</g>
<!-- src\\parser\\statements.ts::parseIf&#45;&gt;src\\parser\\statements.ts::expectOpenBrace -->
<g id="edge69" class="edge">
<title>src\\parser\\statements.ts::parseIf&#45;&gt;src\\parser\\statements.ts::expectOpenBrace</title>
<path fill="none" stroke="#64748b" d="M525.42,-634C549.3,-634 576.83,-634 576.83,-634 576.83,-634 576.83,-537 576.83,-537 576.83,-537 338.31,-537 338.31,-537 338.31,-537 338.31,-449.37 338.31,-449.37"/>
<polygon fill="#64748b" stroke="#64748b" points="341.81,-449.37 338.31,-439.37 334.81,-449.37 341.81,-449.37"/>
</g>
<!-- src\\parser\\statements.ts::parseIf&#45;&gt;src\\parser\\statements.ts::parseConditionBlock -->
<g id="edge67" class="edge">
<title>src\\parser\\statements.ts::parseIf&#45;&gt;src\\parser\\statements.ts::parseConditionBlock</title>
<path fill="none" stroke="#64748b" d="M484.15,-626.64C484.15,-626.64 484.15,-602.12 484.15,-602.12"/>
<polygon fill="#64748b" stroke="#64748b" points="487.65,-602.12 484.15,-592.12 480.65,-602.12 487.65,-602.12"/>
</g>
<!-- src\\parser\\statements.ts::parseIf&#45;&gt;src\\parser\\types.ts::peek -->
<g id="edge68" class="edge">
<title>src\\parser\\statements.ts::parseIf&#45;&gt;src\\parser\\types.ts::peek</title>
<path fill="none" stroke="#64748b" d="M497.85,-626.57C497.85,-619.01 497.85,-612 497.85,-612 497.85,-612 874.55,-612 874.55,-612 874.55,-612 874.55,-55 874.55,-55 874.55,-55 782.88,-55 782.88,-55"/>
<polygon fill="#64748b" stroke="#64748b" points="782.88,-51.5 772.88,-55 782.88,-58.5 782.88,-51.5"/>
</g>
<!-- src\\parser\\statements.ts::parseIf&#45;&gt;src\\parser\\types.ts::advance -->
<g id="edge66" class="edge">
<title>src\\parser\\statements.ts::parseIf&#45;&gt;src\\parser\\types.ts::advance</title>
<path fill="none" stroke="#64748b" d="M470.45,-626.87C470.45,-616.29 470.45,-605 470.45,-605 470.45,-605 262.56,-605 262.56,-605 262.56,-605 262.56,-44 262.56,-44 262.56,-44 618.83,-44 618.83,-44"/>
<polygon fill="#64748b" stroke="#64748b" points="618.83,-47.5 628.83,-44 618.83,-40.5 618.83,-47.5"/>
</g>
<!-- src\\parser\\statements.ts::parseWhile&#45;&gt;src\\parser\\statements.ts::parseConditionBlock -->
<g id="edge73" class="edge">
<title>src\\parser\\statements.ts::parseWhile&#45;&gt;src\\parser\\statements.ts::parseConditionBlock</title>
<path fill="none" stroke="#64748b" d="M422.12,-626.64C422.12,-626.64 422.12,-602.12 422.12,-602.12"/>
<polygon fill="#64748b" stroke="#64748b" points="425.63,-602.12 422.13,-592.12 418.63,-602.12 425.63,-602.12"/>
</g>
<!-- src\\parser\\statements.ts::parseWhile&#45;&gt;src\\parser\\types.ts::advance -->
<g id="edge72" class="edge">
<title>src\\parser\\statements.ts::parseWhile&#45;&gt;src\\parser\\types.ts::advance</title>
<path fill="none" stroke="#64748b" d="M347.21,-645C298.58,-645 228.62,-645 228.62,-645 228.62,-645 228.62,-40 228.62,-40 228.62,-40 618.88,-40 618.88,-40"/>
<polygon fill="#64748b" stroke="#64748b" points="618.88,-43.5 628.88,-40 618.88,-36.5 618.88,-43.5"/>
</g>
<!-- src\\parser\\statements.ts::parseFor&#45;&gt;src\\errors.ts::fail -->
<g id="edge77" class="edge">
<title>src\\parser\\statements.ts::parseFor&#45;&gt;src\\errors.ts::fail</title>
<path fill="none" stroke="#64748b" d="M668.5,-553.95C668.5,-552.17 668.5,-551 668.5,-551 668.5,-551 1267.2,-551 1267.2,-551 1267.2,-551 1267.2,-368.73 1267.2,-368.73"/>
<polygon fill="#64748b" stroke="#64748b" points="1270.7,-368.73 1267.2,-358.73 1263.7,-368.73 1270.7,-368.73"/>
</g>
<!-- src\\parser\\statements.ts::parseFor&#45;&gt;src\\parser\\expressions.ts::parseExpr -->
<g id="edge78" class="edge">
<title>src\\parser\\statements.ts::parseFor&#45;&gt;src\\parser\\expressions.ts::parseExpr</title>
<path fill="none" stroke="#64748b" d="M659,-553.89C659,-548.01 659,-543 659,-543 659,-543 904.25,-543 904.25,-543 904.25,-543 904.25,-521.32 904.25,-521.32"/>
<polygon fill="#64748b" stroke="#64748b" points="907.75,-521.32 904.25,-511.32 900.75,-521.32 907.75,-521.32"/>
</g>
<!-- src\\parser\\statements.ts::parseFor&#45;&gt;src\\parser\\statements.ts::expectOpenParen -->
<g id="edge75" class="edge">
<title>src\\parser\\statements.ts::parseFor&#45;&gt;src\\parser\\statements.ts::expectOpenParen</title>
<path fill="none" stroke="#64748b" d="M630.5,-553.88C630.5,-538.15 630.5,-518 630.5,-518 630.5,-518 702.38,-518 702.38,-518 702.38,-518 702.38,-449.08 702.38,-449.08"/>
<polygon fill="#64748b" stroke="#64748b" points="705.88,-449.08 702.38,-439.08 698.88,-449.08 705.88,-449.08"/>
</g>
<!-- src\\parser\\statements.ts::parseFor&#45;&gt;src\\parser\\statements.ts::expectCloseParen -->
<g id="edge79" class="edge">
<title>src\\parser\\statements.ts::parseFor&#45;&gt;src\\parser\\statements.ts::expectCloseParen</title>
<path fill="none" stroke="#64748b" d="M621,-554.06C621,-544.61 621,-535 621,-535 621,-535 538.38,-535 538.38,-535 538.38,-535 538.38,-449.31 538.38,-449.31"/>
<polygon fill="#64748b" stroke="#64748b" points="541.88,-449.31 538.38,-439.31 534.88,-449.31 541.88,-449.31"/>
</g>
<!-- src\\parser\\statements.ts::parseFor&#45;&gt;src\\parser\\statements.ts::parseBlockBody -->
<g id="edge80" class="edge">
<title>src\\parser\\statements.ts::parseFor&#45;&gt;src\\parser\\statements.ts::parseBlockBody</title>
<path fill="none" stroke="#64748b" d="M640,-554.01C640,-543.36 640,-532 640,-532 640,-532 805.3,-532 805.3,-532 805.3,-532 805.3,-521.37 805.3,-521.37"/>
<polygon fill="#64748b" stroke="#64748b" points="808.8,-521.37 805.3,-511.37 801.8,-521.37 808.8,-521.37"/>
</g>
<!-- src\\parser\\statements.ts::parseFor&#45;&gt;src\\parser\\types.ts::peek -->
<g id="edge76" class="edge">
<title>src\\parser\\statements.ts::parseFor&#45;&gt;src\\parser\\types.ts::peek</title>
<path fill="none" stroke="#64748b" d="M649.5,-553.86C649.5,-546.62 649.5,-540 649.5,-540 649.5,-540 849.62,-540 849.62,-540 849.62,-540 849.62,-64 849.62,-64 849.62,-64 782.99,-64 782.99,-64"/>
<polygon fill="#64748b" stroke="#64748b" points="782.99,-60.5 772.99,-64 782.99,-67.5 782.99,-60.5"/>
</g>
<!-- src\\parser\\statements.ts::parseFor&#45;&gt;src\\parser\\types.ts::advance -->
<g id="edge74" class="edge">
<title>src\\parser\\statements.ts::parseFor&#45;&gt;src\\parser\\types.ts::advance</title>
<path fill="none" stroke="#64748b" d="M611.5,-554.02C611.5,-549.54 611.5,-546 611.5,-546 611.5,-546 304,-546 304,-546 304,-546 304,-52 304,-52 304,-52 618.87,-52 618.87,-52"/>
<polygon fill="#64748b" stroke="#64748b" points="618.87,-55.5 628.87,-52 618.87,-48.5 618.87,-55.5"/>
</g>
<!-- src\\parser\\statements.ts::parseMatchPattern -->
<g id="node33" class="node">
<title>src\\parser\\statements.ts::parseMatchPattern</title>
<path fill="#eef2ff" stroke="black" d="M678.75,-509.5C678.75,-509.5 559.25,-509.5 559.25,-509.5 553.25,-509.5 547.25,-503.5 547.25,-497.5 547.25,-497.5 547.25,-485.5 547.25,-485.5 547.25,-479.5 553.25,-473.5 559.25,-473.5 559.25,-473.5 678.75,-473.5 678.75,-473.5 684.75,-473.5 690.75,-479.5 690.75,-485.5 690.75,-485.5 690.75,-497.5 690.75,-497.5 690.75,-503.5 684.75,-509.5 678.75,-509.5"/>
<text xml:space="preserve" text-anchor="middle" x="619" y="-485.32" font-family="Consolas" font-size="14.00">parseMatchPattern</text>
</g>
<!-- src\\parser\\statements.ts::parseMatchPattern&#45;&gt;src\\errors.ts::fail -->
<g id="edge82" class="edge">
<title>src\\parser\\statements.ts::parseMatchPattern&#45;&gt;src\\errors.ts::fail</title>
<path fill="none" stroke="#64748b" d="M670,-473.18C670,-469.64 670,-467 670,-467 670,-467 1256.4,-467 1256.4,-467 1256.4,-467 1256.4,-368.64 1256.4,-368.64"/>
<polygon fill="#64748b" stroke="#64748b" points="1259.9,-368.64 1256.4,-358.64 1252.9,-368.64 1259.9,-368.64"/>
</g>
<!-- src\\parser\\statements.ts::parseMatchPattern&#45;&gt;src\\parser\\types.ts::peek -->
<g id="edge81" class="edge">
<title>src\\parser\\statements.ts::parseMatchPattern&#45;&gt;src\\parser\\types.ts::peek</title>
<path fill="none" stroke="#64748b" d="M649.25,-473.18C649.25,-466.25 649.25,-460 649.25,-460 649.25,-460 746.18,-460 746.18,-460 746.18,-460 746.18,-79.93 746.18,-79.93"/>
<polygon fill="#64748b" stroke="#64748b" points="749.68,-79.93 746.18,-69.93 742.68,-79.93 749.68,-79.93"/>
</g>
<!-- src\\parser\\statements.ts::parseMatchPattern&#45;&gt;src\\parser\\types.ts::advance -->
<g id="edge83" class="edge">
<title>src\\parser\\statements.ts::parseMatchPattern&#45;&gt;src\\parser\\types.ts::advance</title>
<path fill="none" stroke="#64748b" d="M598.88,-473.13C598.88,-391.3 598.88,-64 598.88,-64 598.88,-64 618.87,-64 618.87,-64"/>
<polygon fill="#64748b" stroke="#64748b" points="618.87,-67.5 628.87,-64 618.87,-60.5 618.87,-67.5"/>
</g>
<!-- src\\parser\\statements.ts::parseMatch&#45;&gt;src\\errors.ts::fail -->
<g id="edge88" class="edge">
<title>src\\parser\\statements.ts::parseMatch&#45;&gt;src\\errors.ts::fail</title>
<path fill="none" stroke="#64748b" d="M379.7,-553.93C379.7,-551.05 379.7,-549 379.7,-549 379.7,-549 1263.6,-549 1263.6,-549 1263.6,-549 1263.6,-368.55 1263.6,-368.55"/>
<polygon fill="#64748b" stroke="#64748b" points="1267.1,-368.55 1263.6,-358.55 1260.1,-368.55 1267.1,-368.55"/>
</g>
<!-- src\\parser\\statements.ts::parseMatch&#45;&gt;src\\parser\\statements.ts::expectOpenBrace -->
<g id="edge86" class="edge">
<title>src\\parser\\statements.ts::parseMatch&#45;&gt;src\\parser\\statements.ts::expectOpenBrace</title>
<path fill="none" stroke="#64748b" d="M317.94,-553.82C317.94,-553.82 317.94,-449.5 317.94,-449.5"/>
<polygon fill="#64748b" stroke="#64748b" points="321.44,-449.5 317.94,-439.5 314.44,-449.5 321.44,-449.5"/>
</g>
<!-- src\\parser\\statements.ts::parseMatch&#45;&gt;src\\parser\\statements.ts::parseParenthesizedExpr -->
<g id="edge85" class="edge">
<title>src\\parser\\statements.ts::parseMatch&#45;&gt;src\\parser\\statements.ts::parseParenthesizedExpr</title>
<path fill="none" stroke="#64748b" d="M356.3,-553.93C356.3,-553.93 356.3,-521.26 356.3,-521.26"/>
<polygon fill="#64748b" stroke="#64748b" points="359.8,-521.26 356.3,-511.26 352.8,-521.26 359.8,-521.26"/>
</g>
<!-- src\\parser\\statements.ts::parseMatch&#45;&gt;src\\parser\\statements.ts::parseBlockBody -->
<g id="edge90" class="edge">
<title>src\\parser\\statements.ts::parseMatch&#45;&gt;src\\parser\\statements.ts::parseBlockBody</title>
<path fill="none" stroke="#64748b" d="M371.9,-553.91C371.9,-539.91 371.9,-523 371.9,-523 371.9,-523 732.7,-523 732.7,-523 732.7,-523 732.7,-521.34 732.7,-521.34"/>
<polygon fill="#64748b" stroke="#64748b" points="736.2,-521.34 732.7,-511.34 729.2,-521.34 736.2,-521.34"/>
</g>
<!-- src\\parser\\statements.ts::parseMatch&#45;&gt;src\\parser\\statements.ts::parseMatchPattern -->
<g id="edge89" class="edge">
<title>src\\parser\\statements.ts::parseMatch&#45;&gt;src\\parser\\statements.ts::parseMatchPattern</title>
<path fill="none" stroke="#64748b" d="M364.1,-554.04C364.1,-539.31 364.1,-521 364.1,-521 364.1,-521 552.92,-521 552.92,-521 552.92,-521 552.92,-519.87 552.92,-519.87"/>
<polygon fill="#64748b" stroke="#64748b" points="556.42,-521.19 552.92,-511.19 549.42,-521.19 556.42,-521.19"/>
</g>
<!-- src\\parser\\statements.ts::parseMatch&#45;&gt;src\\parser\\types.ts::peek -->
<g id="edge87" class="edge">
<title>src\\parser\\statements.ts::parseMatch&#45;&gt;src\\parser\\types.ts::peek</title>
<path fill="none" stroke="#64748b" d="M328.12,-553.99C328.12,-521.49 328.12,-457 328.12,-457 328.12,-457 741.21,-457 741.21,-457 741.21,-457 741.21,-79.79 741.21,-79.79"/>
<polygon fill="#64748b" stroke="#64748b" points="744.71,-79.79 741.21,-69.79 737.71,-79.79 744.71,-79.79"/>
</g>
<!-- src\\parser\\statements.ts::parseMatch&#45;&gt;src\\parser\\types.ts::advance -->
<g id="edge84" class="edge">
<title>src\\parser\\statements.ts::parseMatch&#45;&gt;src\\parser\\types.ts::advance</title>
<path fill="none" stroke="#64748b" d="M300.25,-553.9C300.25,-461.11 300.25,-48 300.25,-48 300.25,-48 618.84,-48 618.84,-48"/>
<polygon fill="#64748b" stroke="#64748b" points="618.84,-51.5 628.84,-48 618.84,-44.5 618.84,-51.5"/>
</g>
</g>
</svg>
