<?xml version="1.0" encoding="UTF-8" standalone="no"?>
<!DOCTYPE svg PUBLIC "-//W3C//DTD SVG 1.1//EN"
 "http://www.w3.org/Graphics/SVG/1.1/DTD/svg11.dtd">
<!-- Generated by graphviz version 15.1.0 (20260618.0150)
 -->
<!-- Title: G Pages: 1 -->
<svg width="592pt" height="285pt"
 viewBox="0.00 0.00 592.00 285.00" xmlns="http://www.w3.org/2000/svg" xmlns:xlink="http://www.w3.org/1999/xlink">
<g id="graph0" class="graph" transform="scale(1 1) rotate(0) translate(21.6 262.98)">
<title>G</title>
<polygon fill="#111111" stroke="none" points="-21.6,21.6 -21.6,-262.98 570.35,-262.98 570.35,21.6 -21.6,21.6"/>
<!-- ast.ts -->
<g id="node1" class="node">
<title>ast.ts</title>
<path fill="none" stroke="#c6c5fe" d="M416.71,-81.38C416.71,-81.38 378.54,-81.38 378.54,-81.38 374.58,-81.38 370.62,-77.42 370.62,-73.46 370.62,-73.46 370.62,-65.55 370.62,-65.55 370.62,-61.59 374.58,-57.63 378.54,-57.63 378.54,-57.63 416.71,-57.63 416.71,-57.63 420.67,-57.63 424.62,-61.59 424.62,-65.55 424.62,-65.55 424.62,-73.46 424.62,-73.46 424.62,-77.42 420.67,-81.38 416.71,-81.38"/>
<text xml:space="preserve" text-anchor="middle" x="397.62" y="-64.08" font-family="Arial" font-size="14.00" fill="#c6c5fe">ast.ts</text>
</g>
<!-- types.ts -->
<g id="node2" class="node">
<title>types.ts</title>
<path fill="none" stroke="#cfffac" d="M540.83,-101.38C540.83,-101.38 494.17,-101.38 494.17,-101.38 490.21,-101.38 486.25,-97.42 486.25,-93.46 486.25,-93.46 486.25,-85.55 486.25,-85.55 486.25,-81.59 490.21,-77.63 494.17,-77.63 494.17,-77.63 540.83,-77.63 540.83,-77.63 544.79,-77.63 548.75,-81.59 548.75,-85.55 548.75,-85.55 548.75,-93.46 548.75,-93.46 548.75,-97.42 544.79,-101.38 540.83,-101.38"/>
<text xml:space="preserve" text-anchor="middle" x="517.5" y="-84.08" font-family="Arial" font-size="14.00" fill="#cfffac">types.ts</text>
</g>
<!-- ast.ts&#45;&gt;types.ts -->
<g id="edge1" class="edge">
<title>ast.ts&#45;&gt;types.ts</title>
<path fill="none" stroke="#757575" d="M425.08,-73.99C439.75,-76.48 458.32,-79.64 474.89,-82.45"/>
<polygon fill="#757575" stroke="#757575" points="474.03,-85.85 484.48,-84.07 475.2,-78.95 474.03,-85.85"/>
</g>
<!-- control&#45;flow.ts -->
<g id="node3" class="node">
<title>control&#45;flow.ts</title>
<path fill="none" stroke="#cfffac" d="M438.96,-199.38C438.96,-199.38 356.29,-199.38 356.29,-199.38 352.33,-199.38 348.38,-195.42 348.38,-191.46 348.38,-191.46 348.38,-183.55 348.38,-183.55 348.38,-179.59 352.33,-175.63 356.29,-175.63 356.29,-175.63 438.96,-175.63 438.96,-175.63 442.92,-175.63 446.88,-179.59 446.88,-183.55 446.88,-183.55 446.88,-191.46 446.88,-191.46 446.88,-195.42 442.92,-199.38 438.96,-199.38"/>
<text xml:space="preserve" text-anchor="middle" x="397.62" y="-182.08" font-family="Arial" font-size="14.00" fill="#cfffac">control&#45;flow.ts</text>
</g>
<!-- environment.ts -->
<g id="node4" class="node">
<title>environment.ts</title>
<path fill="none" stroke="#c6c5fe" d="M442.33,-241.38C442.33,-241.38 352.92,-241.38 352.92,-241.38 348.96,-241.38 345,-237.42 345,-233.46 345,-233.46 345,-225.55 345,-225.55 345,-221.59 348.96,-217.63 352.92,-217.63 352.92,-217.63 442.33,-217.63 442.33,-217.63 446.29,-217.63 450.25,-221.59 450.25,-225.55 450.25,-225.55 450.25,-233.46 450.25,-233.46 450.25,-237.42 446.29,-241.38 442.33,-241.38"/>
<text xml:space="preserve" text-anchor="middle" x="397.62" y="-224.08" font-family="Arial" font-size="14.00" fill="#c6c5fe">environment.ts</text>
</g>
<!-- environment.ts&#45;&gt;types.ts -->
<g id="edge2" class="edge">
<title>environment.ts&#45;&gt;types.ts</title>
<path fill="none" stroke="#757575" d="M437.28,-217.25C441.95,-214.8 446.41,-211.9 450.25,-208.51 480.04,-182.14 499.28,-139.03 508.98,-112.58"/>
<polygon fill="#757575" stroke="#757575" points="512.28,-113.74 512.27,-103.14 505.67,-111.43 512.28,-113.74"/>
</g>
<!-- evaluator.ts -->
<g id="node5" class="node">
<title>evaluator.ts</title>
<path fill="none" stroke="#c6c5fe" d="M290.21,-163.38C290.21,-163.38 221.04,-163.38 221.04,-163.38 217.08,-163.38 213.12,-159.42 213.12,-155.46 213.12,-155.46 213.12,-147.55 213.12,-147.55 213.12,-143.59 217.08,-139.63 221.04,-139.63 221.04,-139.63 290.21,-139.63 290.21,-139.63 294.17,-139.63 298.12,-143.59 298.12,-147.55 298.12,-147.55 298.12,-155.46 298.12,-155.46 298.12,-159.42 294.17,-163.38 290.21,-163.38"/>
<text xml:space="preserve" text-anchor="middle" x="255.62" y="-146.08" font-family="Arial" font-size="14.00" fill="#c6c5fe">evaluator.ts</text>
</g>
<!-- evaluator.ts&#45;&gt;ast.ts -->
<g id="edge3" class="edge">
<title>evaluator.ts&#45;&gt;ast.ts</title>
<path fill="none" stroke="#757575" d="M290.67,-139.16C296.88,-136.55 303.22,-133.62 309,-130.51 331.71,-118.25 355.64,-101.29 372.74,-88.36"/>
<polygon fill="#757575" stroke="#757575" points="374.48,-91.43 380.28,-82.57 370.22,-85.88 374.48,-91.43"/>
</g>
<!-- evaluator.ts&#45;&gt;types.ts -->
<g id="edge6" class="edge">
<title>evaluator.ts&#45;&gt;types.ts</title>
<path fill="none" stroke="#757575" d="M298.55,-144.75C338.03,-137.99 398.64,-126.59 450.25,-112.51 458.33,-110.3 466.84,-107.62 474.98,-104.88"/>
<polygon fill="#757575" stroke="#757575" points="476.03,-108.22 484.33,-101.64 473.74,-101.61 476.03,-108.22"/>
</g>
<!-- evaluator.ts&#45;&gt;control&#45;flow.ts -->
<g id="edge4" class="edge">
<title>evaluator.ts&#45;&gt;control&#45;flow.ts</title>
<path fill="none" stroke="#757575" d="M298.25,-162.21C310.59,-165.38 324.35,-168.92 337.58,-172.32"/>
<polygon fill="#757575" stroke="#757575" points="336.49,-175.66 347.05,-174.76 338.24,-168.88 336.49,-175.66"/>
</g>
<!-- evaluator.ts&#45;&gt;environment.ts -->
<g id="edge5" class="edge">
<title>evaluator.ts&#45;&gt;environment.ts</title>
<path fill="none" stroke="#757575" d="M273.65,-163.85C291.04,-176.13 319.08,-195.03 345,-208.51 347.68,-209.9 350.48,-211.27 353.33,-212.6"/>
<polygon fill="#757575" stroke="#757575" points="351.77,-215.73 362.33,-216.58 354.6,-209.33 351.77,-215.73"/>
</g>
<!-- index.ts -->
<g id="node6" class="node">
<title>index.ts</title>
<path fill="none" stroke="#c6c5fe" d="M54.58,-121.38C54.58,-121.38 7.92,-121.38 7.92,-121.38 3.96,-121.38 0,-117.42 0,-113.46 0,-113.46 0,-105.55 0,-105.55 0,-101.59 3.96,-97.63 7.92,-97.63 7.92,-97.63 54.58,-97.63 54.58,-97.63 58.54,-97.63 62.5,-101.59 62.5,-105.55 62.5,-105.55 62.5,-113.46 62.5,-113.46 62.5,-117.42 58.54,-121.38 54.58,-121.38"/>
<text xml:space="preserve" text-anchor="middle" x="31.25" y="-104.08" font-family="Arial" font-size="14.00" fill="#c6c5fe">index.ts</text>
</g>
<!-- index.ts&#45;&gt;environment.ts -->
<g id="edge7" class="edge">
<title>index.ts&#45;&gt;environment.ts</title>
<path fill="none" stroke="#757575" d="M53.54,-121.77C66.3,-128.77 83,-137.36 98.5,-143.51 177.58,-174.86 272.54,-200.26 333.7,-215.12"/>
<polygon fill="#757575" stroke="#757575" points="332.7,-218.48 343.24,-217.41 334.34,-211.67 332.7,-218.48"/>
</g>
<!-- index.ts&#45;&gt;evaluator.ts -->
<g id="edge8" class="edge">
<title>index.ts&#45;&gt;evaluator.ts</title>
<path fill="none" stroke="#757575" d="M62.88,-116.19C74.08,-118.57 86.85,-121.23 98.5,-123.51 132.77,-130.2 171.39,-137.13 201.65,-142.42"/>
<polygon fill="#757575" stroke="#757575" points="200.87,-145.84 211.32,-144.11 202.07,-138.94 200.87,-145.84"/>
</g>
<!-- parser.ts -->
<g id="node7" class="node">
<title>parser.ts</title>
<path fill="none" stroke="#c6c5fe" d="M158.33,-81.38C158.33,-81.38 106.42,-81.38 106.42,-81.38 102.46,-81.38 98.5,-77.42 98.5,-73.46 98.5,-73.46 98.5,-65.55 98.5,-65.55 98.5,-61.59 102.46,-57.63 106.42,-57.63 106.42,-57.63 158.33,-57.63 158.33,-57.63 162.29,-57.63 166.25,-61.59 166.25,-65.55 166.25,-65.55 166.25,-73.46 166.25,-73.46 166.25,-77.42 162.29,-81.38 158.33,-81.38"/>
<text xml:space="preserve" text-anchor="middle" x="132.38" y="-64.08" font-family="Arial" font-size="14.00" fill="#c6c5fe">parser.ts</text>
</g>
<!-- index.ts&#45;&gt;parser.ts -->
<g id="edge9" class="edge">
<title>index.ts&#45;&gt;parser.ts</title>
<path fill="none" stroke="#757575" d="M62.8,-97.18C71.47,-93.68 81.05,-89.81 90.23,-86.11"/>
<polygon fill="#757575" stroke="#757575" points="91.39,-89.42 99.35,-82.43 88.77,-82.92 91.39,-89.42"/>
</g>
<!-- tokenizer.ts -->
<g id="node8" class="node">
<title>tokenizer.ts</title>
<path fill="none" stroke="#c6c5fe" d="M289.83,-41.38C289.83,-41.38 221.42,-41.38 221.42,-41.38 217.46,-41.38 213.5,-37.42 213.5,-33.46 213.5,-33.46 213.5,-25.55 213.5,-25.55 213.5,-21.59 217.46,-17.63 221.42,-17.63 221.42,-17.63 289.83,-17.63 289.83,-17.63 293.79,-17.63 297.75,-21.59 297.75,-25.55 297.75,-25.55 297.75,-33.46 297.75,-33.46 297.75,-37.42 293.79,-41.38 289.83,-41.38"/>
<text xml:space="preserve" text-anchor="middle" x="255.62" y="-24.08" font-family="Arial" font-size="14.00" fill="#c6c5fe">tokenizer.ts</text>
</g>
<!-- index.ts&#45;&gt;tokenizer.ts -->
<g id="edge10" class="edge">
<title>index.ts&#45;&gt;tokenizer.ts</title>
<path fill="none" stroke="#757575" d="M41.49,-97.25C53.07,-82.89 74.37,-59.65 98.5,-48.51 130.84,-33.57 170.77,-28.92 202.16,-27.96"/>
<polygon fill="#757575" stroke="#757575" points="201.85,-31.46 211.79,-27.78 201.73,-24.46 201.85,-31.46"/>
</g>
<!-- type&#45;checker.ts -->
<g id="node9" class="node">
<title>type&#45;checker.ts</title>
<path fill="none" stroke="#c6c5fe" d="M301.08,-121.38C301.08,-121.38 210.17,-121.38 210.17,-121.38 206.21,-121.38 202.25,-117.42 202.25,-113.46 202.25,-113.46 202.25,-105.55 202.25,-105.55 202.25,-101.59 206.21,-97.63 210.17,-97.63 210.17,-97.63 301.08,-97.63 301.08,-97.63 305.04,-97.63 309,-101.59 309,-105.55 309,-105.55 309,-113.46 309,-113.46 309,-117.42 305.04,-121.38 301.08,-121.38"/>
<text xml:space="preserve" text-anchor="middle" x="255.62" y="-104.08" font-family="Arial" font-size="14.00" fill="#c6c5fe">type&#45;checker.ts</text>
</g>
<!-- index.ts&#45;&gt;type&#45;checker.ts -->
<g id="edge11" class="edge">
<title>index.ts&#45;&gt;type&#45;checker.ts</title>
<path fill="none" stroke="#757575" d="M62.7,-109.51C95.5,-109.51 148.63,-109.51 190.69,-109.51"/>
<polygon fill="#757575" stroke="#757575" points="190.43,-113.01 200.43,-109.51 190.43,-106.01 190.43,-113.01"/>
</g>
<!-- parser.ts&#45;&gt;ast.ts -->
<g id="edge12" class="edge">
<title>parser.ts&#45;&gt;ast.ts</title>
<path fill="none" stroke="#757575" d="M166.72,-69.51C215.88,-69.51 307.53,-69.51 359.02,-69.51"/>
<polygon fill="#757575" stroke="#757575" points="358.77,-73.01 368.77,-69.51 358.77,-66.01 358.77,-73.01"/>
</g>
<!-- parser.ts&#45;&gt;types.ts -->
<g id="edge14" class="edge">
<title>parser.ts&#45;&gt;types.ts</title>
<path fill="none" stroke="#757575" d="M142.46,-57.26C154.3,-42.43 176.56,-18.25 202.25,-8.51 246.61,8.31 261.64,-5.67 309,-8.51 372.12,-12.29 393.15,1.65 450.25,-25.51 470.63,-35.2 488.67,-53.65 500.76,-68.26"/>
<polygon fill="#757575" stroke="#757575" points="497.92,-70.31 506.87,-75.98 503.41,-65.97 497.92,-70.31"/>
</g>
<!-- parser.ts&#45;&gt;tokenizer.ts -->
<g id="edge13" class="edge">
<title>parser.ts&#45;&gt;tokenizer.ts</title>
<path fill="none" stroke="#757575" d="M166.51,-58.58C178.9,-54.49 193.24,-49.76 206.7,-45.32"/>
<polygon fill="#757575" stroke="#757575" points="207.42,-48.76 215.82,-42.31 205.23,-42.12 207.42,-48.76"/>
</g>
<!-- tokenizer.ts&#45;&gt;ast.ts -->
<g id="edge15" class="edge">
<title>tokenizer.ts&#45;&gt;ast.ts</title>
<path fill="none" stroke="#757575" d="M297.87,-41.29C317.33,-46.85 340.38,-53.44 359.32,-58.85"/>
<polygon fill="#757575" stroke="#757575" points="358.19,-62.16 368.76,-61.55 360.11,-55.43 358.19,-62.16"/>
</g>
<!-- tokenizer.ts&#45;&gt;types.ts -->
<g id="edge16" class="edge">
<title>tokenizer.ts&#45;&gt;types.ts</title>
<path fill="none" stroke="#757575" d="M298.18,-28.21C338.18,-28.2 399.85,-31.47 450.25,-48.51 465.07,-53.51 480.01,-62.36 491.95,-70.56"/>
<polygon fill="#757575" stroke="#757575" points="489.81,-73.33 499.97,-76.31 493.88,-67.64 489.81,-73.33"/>
</g>
<!-- type&#45;checker.ts&#45;&gt;ast.ts -->
<g id="edge17" class="edge">
<title>type&#45;checker.ts&#45;&gt;ast.ts</title>
<path fill="none" stroke="#757575" d="M299.77,-97.18C318.93,-91.7 341.26,-85.32 359.64,-80.07"/>
<polygon fill="#757575" stroke="#757575" points="360.41,-83.49 369.06,-77.38 358.49,-76.76 360.41,-83.49"/>
</g>
<!-- type&#45;checker.ts&#45;&gt;types.ts -->
<g id="edge18" class="edge">
<title>type&#45;checker.ts&#45;&gt;types.ts</title>
<path fill="none" stroke="#757575" d="M309.21,-105.46C357.96,-101.71 429.52,-96.2 474.54,-92.74"/>
<polygon fill="#757575" stroke="#757575" points="474.72,-96.23 484.42,-91.97 474.18,-89.25 474.72,-96.23"/>
</g>
</g>
</svg>
