<?xml version="1.0" encoding="UTF-8" standalone="no"?>
<!DOCTYPE svg PUBLIC "-//W3C//DTD SVG 1.1//EN"
 "http://www.w3.org/Graphics/SVG/1.1/DTD/svg11.dtd">
<!-- Generated by graphviz version 15.1.0 (20260618.0150)
 -->
<!-- Title: G Pages: 1 -->
<svg width="634pt" height="343pt"
 viewBox="0.00 0.00 634.00 343.00" xmlns="http://www.w3.org/2000/svg" xmlns:xlink="http://www.w3.org/1999/xlink">
<g id="graph0" class="graph" transform="scale(1 1) rotate(0) translate(21.6 321.6)">
<title>G</title>
<polygon fill="#111111" stroke="none" points="-21.6,21.6 -21.6,-321.6 612.23,-321.6 612.23,21.6 -21.6,21.6"/>
<!-- main/generated&#45;ts/lib.ts -->
<g id="node1" class="node">
<title>main/generated&#45;ts/lib.ts</title>
<path fill="none" stroke="#cfffac" d="M168.33,-300C168.33,-300 63.67,-300 63.67,-300 60.33,-300 57,-296.67 57,-293.33 57,-293.33 57,-286.67 57,-286.67 57,-283.33 60.33,-280 63.67,-280 63.67,-280 168.33,-280 168.33,-280 171.67,-280 175,-283.33 175,-286.67 175,-286.67 175,-293.33 175,-293.33 175,-296.67 171.67,-300 168.33,-300"/>
<text xml:space="preserve" text-anchor="middle" x="116" y="-286.5" font-family="Arial" font-size="10.00" fill="#cfffac">main/generated&#45;ts/lib.ts</text>
</g>
<!-- main/ts/compile.ts -->
<g id="node2" class="node">
<title>main/ts/compile.ts</title>
<path fill="none" stroke="#c6c5fe" d="M335.46,-244C335.46,-244 252.54,-244 252.54,-244 249.21,-244 245.88,-240.67 245.88,-237.33 245.88,-237.33 245.88,-230.67 245.88,-230.67 245.88,-227.33 249.21,-224 252.54,-224 252.54,-224 335.46,-224 335.46,-224 338.79,-224 342.12,-227.33 342.12,-230.67 342.12,-230.67 342.12,-237.33 342.12,-237.33 342.12,-240.67 338.79,-244 335.46,-244"/>
<text xml:space="preserve" text-anchor="middle" x="294" y="-230.5" font-family="Arial" font-size="10.00" fill="#c6c5fe">main/ts/compile.ts</text>
</g>
<!-- main/ts/generate.ts -->
<g id="node3" class="node">
<title>main/ts/generate.ts</title>
<path fill="none" stroke="#c6c5fe" d="M93.33,-76C93.33,-76 6.67,-76 6.67,-76 3.33,-76 0,-72.67 0,-69.33 0,-69.33 0,-62.67 0,-62.67 0,-59.33 3.33,-56 6.67,-56 6.67,-56 93.33,-56 93.33,-56 96.67,-56 100,-59.33 100,-62.67 100,-62.67 100,-69.33 100,-69.33 100,-72.67 96.67,-76 93.33,-76"/>
<text xml:space="preserve" text-anchor="middle" x="50" y="-62.5" font-family="Arial" font-size="10.00" fill="#c6c5fe">main/ts/generate.ts</text>
</g>
<!-- main/ts/compile.ts&#45;&gt;main/ts/generate.ts -->
<g id="edge1" class="edge">
<title>main/ts/compile.ts&#45;&gt;main/ts/generate.ts</title>
<path fill="none" stroke="#757575" d="M245.61,-234C169.03,-234 28.5,-234 28.5,-234 28.5,-234 28.5,-87.77 28.5,-87.77"/>
<polygon fill="#757575" stroke="#757575" points="32,-87.77 28.5,-77.77 25,-87.77 32,-87.77"/>
</g>
<!-- main/ts/parse&#45;expressions.ts -->
<g id="node4" class="node">
<title>main/ts/parse&#45;expressions.ts</title>
<path fill="none" stroke="#c6c5fe" d="M192.33,-132C192.33,-132 63.67,-132 63.67,-132 60.33,-132 57,-128.67 57,-125.33 57,-125.33 57,-118.67 57,-118.67 57,-115.33 60.33,-112 63.67,-112 63.67,-112 192.33,-112 192.33,-112 195.67,-112 199,-115.33 199,-118.67 199,-118.67 199,-125.33 199,-125.33 199,-128.67 195.67,-132 192.33,-132"/>
<text xml:space="preserve" text-anchor="middle" x="128" y="-118.5" font-family="Arial" font-size="10.00" fill="#c6c5fe">main/ts/parse&#45;expressions.ts</text>
</g>
<!-- main/ts/compile.ts&#45;&gt;main/ts/parse&#45;expressions.ts -->
<g id="edge2" class="edge">
<title>main/ts/compile.ts&#45;&gt;main/ts/parse&#45;expressions.ts</title>
<path fill="none" stroke="#757575" d="M305.96,-223.74C305.96,-196.96 305.96,-127 305.96,-127 305.96,-127 210.87,-127 210.87,-127"/>
<polygon fill="#757575" stroke="#757575" points="210.87,-123.5 200.87,-127 210.87,-130.5 210.87,-123.5"/>
</g>
<!-- main/ts/parse&#45;statements.ts -->
<g id="node5" class="node">
<title>main/ts/parse&#45;statements.ts</title>
<path fill="none" stroke="#c6c5fe" d="M287.46,-188C287.46,-188 162.54,-188 162.54,-188 159.21,-188 155.88,-184.67 155.88,-181.33 155.88,-181.33 155.88,-174.67 155.88,-174.67 155.88,-171.33 159.21,-168 162.54,-168 162.54,-168 287.46,-168 287.46,-168 290.79,-168 294.12,-171.33 294.12,-174.67 294.12,-174.67 294.12,-181.33 294.12,-181.33 294.12,-184.67 290.79,-188 287.46,-188"/>
<text xml:space="preserve" text-anchor="middle" x="225" y="-174.5" font-family="Arial" font-size="10.00" fill="#c6c5fe">main/ts/parse&#45;statements.ts</text>
</g>
<!-- main/ts/compile.ts&#45;&gt;main/ts/parse&#45;statements.ts -->
<g id="edge3" class="edge">
<title>main/ts/compile.ts&#45;&gt;main/ts/parse&#45;statements.ts</title>
<path fill="none" stroke="#757575" d="M270,-223.73C270,-223.73 270,-199.72 270,-199.72"/>
<polygon fill="#757575" stroke="#757575" points="273.5,-199.72 270,-189.72 266.5,-199.72 273.5,-199.72"/>
</g>
<!-- main/ts/semantic.ts -->
<g id="node6" class="node">
<title>main/ts/semantic.ts</title>
<path fill="none" stroke="#c6c5fe" d="M407.46,-188C407.46,-188 318.54,-188 318.54,-188 315.21,-188 311.88,-184.67 311.88,-181.33 311.88,-181.33 311.88,-174.67 311.88,-174.67 311.88,-171.33 315.21,-168 318.54,-168 318.54,-168 407.46,-168 407.46,-168 410.79,-168 414.12,-171.33 414.12,-174.67 414.12,-174.67 414.12,-181.33 414.12,-181.33 414.12,-184.67 410.79,-188 407.46,-188"/>
<text xml:space="preserve" text-anchor="middle" x="363" y="-174.5" font-family="Arial" font-size="10.00" fill="#c6c5fe">main/ts/semantic.ts</text>
</g>
<!-- main/ts/compile.ts&#45;&gt;main/ts/semantic.ts -->
<g id="edge4" class="edge">
<title>main/ts/compile.ts&#45;&gt;main/ts/semantic.ts</title>
<path fill="none" stroke="#757575" d="M327,-223.73C327,-223.73 327,-199.72 327,-199.72"/>
<polygon fill="#757575" stroke="#757575" points="330.5,-199.72 327,-189.72 323.5,-199.72 330.5,-199.72"/>
</g>
<!-- main/ts/tokenize.ts -->
<g id="node7" class="node">
<title>main/ts/tokenize.ts</title>
<path fill="none" stroke="#c6c5fe" d="M583.96,-132C583.96,-132 498.04,-132 498.04,-132 494.71,-132 491.38,-128.67 491.38,-125.33 491.38,-125.33 491.38,-118.67 491.38,-118.67 491.38,-115.33 494.71,-112 498.04,-112 498.04,-112 583.96,-112 583.96,-112 587.29,-112 590.62,-115.33 590.62,-118.67 590.62,-118.67 590.62,-125.33 590.62,-125.33 590.62,-128.67 587.29,-132 583.96,-132"/>
<text xml:space="preserve" text-anchor="middle" x="541" y="-118.5" font-family="Arial" font-size="10.00" fill="#c6c5fe">main/ts/tokenize.ts</text>
</g>
<!-- main/ts/compile.ts&#45;&gt;main/ts/tokenize.ts -->
<g id="edge5" class="edge">
<title>main/ts/compile.ts&#45;&gt;main/ts/tokenize.ts</title>
<path fill="none" stroke="#757575" d="M342.5,-234C414.44,-234 541,-234 541,-234 541,-234 541,-143.85 541,-143.85"/>
<polygon fill="#757575" stroke="#757575" points="544.5,-143.85 541,-133.85 537.5,-143.85 544.5,-143.85"/>
</g>
<!-- main/ts/types.ts -->
<g id="node8" class="node">
<title>main/ts/types.ts</title>
<path fill="none" stroke="#cfffac" d="M347.58,-20C347.58,-20 274.42,-20 274.42,-20 271.08,-20 267.75,-16.67 267.75,-13.33 267.75,-13.33 267.75,-6.67 267.75,-6.67 267.75,-3.33 271.08,0 274.42,0 274.42,0 347.58,0 347.58,0 350.92,0 354.25,-3.33 354.25,-6.67 354.25,-6.67 354.25,-13.33 354.25,-13.33 354.25,-16.67 350.92,-20 347.58,-20"/>
<text xml:space="preserve" text-anchor="middle" x="311" y="-6.5" font-family="Arial" font-size="10.00" fill="#cfffac">main/ts/types.ts</text>
</g>
<!-- main/ts/compile.ts&#45;&gt;main/ts/types.ts -->
<g id="edge6" class="edge">
<title>main/ts/compile.ts&#45;&gt;main/ts/types.ts</title>
<path fill="none" stroke="#757575" d="M300.04,-223.8C300.04,-202.66 300.04,-156 300.04,-156 300.04,-156 282.18,-156 282.18,-156 282.18,-156 282.18,-32.01 282.18,-32.01"/>
<polygon fill="#757575" stroke="#757575" points="285.68,-32.01 282.18,-22.01 278.68,-32.01 285.68,-32.01"/>
</g>
<!-- main/ts/generate.ts&#45;&gt;main/ts/types.ts -->
<g id="edge7" class="edge">
<title>main/ts/generate.ts&#45;&gt;main/ts/types.ts</title>
<path fill="none" stroke="#757575" d="M100.23,-66C165.54,-66 271.36,-66 271.36,-66 271.36,-66 271.36,-31.78 271.36,-31.78"/>
<polygon fill="#757575" stroke="#757575" points="274.86,-31.78 271.36,-21.78 267.86,-31.78 274.86,-31.78"/>
</g>
<!-- main/ts/parse&#45;expressions.ts&#45;&gt;main/ts/types.ts -->
<g id="edge9" class="edge">
<title>main/ts/parse&#45;expressions.ts&#45;&gt;main/ts/types.ts</title>
<path fill="none" stroke="#757575" d="M199.33,-122C236.77,-122 274.96,-122 274.96,-122 274.96,-122 274.96,-31.85 274.96,-31.85"/>
<polygon fill="#757575" stroke="#757575" points="278.46,-31.85 274.96,-21.85 271.46,-31.85 278.46,-31.85"/>
</g>
<!-- main/ts/parse&#45;statements.ts&#45;&gt;main/ts/parse&#45;expressions.ts -->
<g id="edge10" class="edge">
<title>main/ts/parse&#45;statements.ts&#45;&gt;main/ts/parse&#45;expressions.ts</title>
<path fill="none" stroke="#757575" d="M177.44,-167.73C177.44,-167.73 177.44,-143.72 177.44,-143.72"/>
<polygon fill="#757575" stroke="#757575" points="180.94,-143.72 177.44,-133.72 173.94,-143.72 180.94,-143.72"/>
</g>
<!-- main/ts/parse&#45;statements.ts&#45;&gt;main/ts/types.ts -->
<g id="edge11" class="edge">
<title>main/ts/parse&#45;statements.ts&#45;&gt;main/ts/types.ts</title>
<path fill="none" stroke="#757575" d="M278.57,-167.74C278.57,-167.74 278.57,-31.64 278.57,-31.64"/>
<polygon fill="#757575" stroke="#757575" points="282.07,-31.64 278.57,-21.64 275.07,-31.64 282.07,-31.64"/>
</g>
<!-- main/ts/semantic.ts&#45;&gt;main/ts/types.ts -->
<g id="edge17" class="edge">
<title>main/ts/semantic.ts&#45;&gt;main/ts/types.ts</title>
<path fill="none" stroke="#757575" d="M318.25,-167.61C318.25,-157.62 318.25,-144 318.25,-144 318.25,-144 285.79,-144 285.79,-144 285.79,-144 285.79,-31.59 285.79,-31.59"/>
<polygon fill="#757575" stroke="#757575" points="289.29,-31.59 285.79,-21.59 282.29,-31.59 289.29,-31.59"/>
</g>
<!-- main/ts/semantic&#45;errors.ts -->
<g id="node10" class="node">
<title>main/ts/semantic&#45;errors.ts</title>
<path fill="none" stroke="#c6c5fe" d="M416.33,-76C416.33,-76 299.67,-76 299.67,-76 296.33,-76 293,-72.67 293,-69.33 293,-69.33 293,-62.67 293,-62.67 293,-59.33 296.33,-56 299.67,-56 299.67,-56 416.33,-56 416.33,-56 419.67,-56 423,-59.33 423,-62.67 423,-62.67 423,-69.33 423,-69.33 423,-72.67 419.67,-76 416.33,-76"/>
<text xml:space="preserve" text-anchor="middle" x="358" y="-62.5" font-family="Arial" font-size="10.00" fill="#c6c5fe">main/ts/semantic&#45;errors.ts</text>
</g>
<!-- main/ts/semantic.ts&#45;&gt;main/ts/semantic&#45;errors.ts -->
<g id="edge15" class="edge">
<title>main/ts/semantic.ts&#45;&gt;main/ts/semantic&#45;errors.ts</title>
<path fill="none" stroke="#757575" d="M324.62,-167.66C324.62,-167.66 324.62,-87.82 324.62,-87.82"/>
<polygon fill="#757575" stroke="#757575" points="328.13,-87.82 324.63,-77.82 321.13,-87.82 328.13,-87.82"/>
</g>
<!-- main/ts/semantic&#45;generics.ts -->
<g id="node11" class="node">
<title>main/ts/semantic&#45;generics.ts</title>
<path fill="none" stroke="#c6c5fe" d="M466.33,-132C466.33,-132 337.67,-132 337.67,-132 334.33,-132 331,-128.67 331,-125.33 331,-125.33 331,-118.67 331,-118.67 331,-115.33 334.33,-112 337.67,-112 337.67,-112 466.33,-112 466.33,-112 469.67,-112 473,-115.33 473,-118.67 473,-118.67 473,-125.33 473,-125.33 473,-128.67 469.67,-132 466.33,-132"/>
<text xml:space="preserve" text-anchor="middle" x="402" y="-118.5" font-family="Arial" font-size="10.00" fill="#c6c5fe">main/ts/semantic&#45;generics.ts</text>
</g>
<!-- main/ts/semantic.ts&#45;&gt;main/ts/semantic&#45;generics.ts -->
<g id="edge16" class="edge">
<title>main/ts/semantic.ts&#45;&gt;main/ts/semantic&#45;generics.ts</title>
<path fill="none" stroke="#757575" d="M372.56,-167.73C372.56,-167.73 372.56,-143.72 372.56,-143.72"/>
<polygon fill="#757575" stroke="#757575" points="376.06,-143.72 372.56,-133.72 369.06,-143.72 376.06,-143.72"/>
</g>
<!-- main/ts/tokenize.ts&#45;&gt;main/ts/types.ts -->
<g id="edge18" class="edge">
<title>main/ts/tokenize.ts&#45;&gt;main/ts/types.ts</title>
<path fill="none" stroke="#757575" d="M541,-111.66C541,-83.94 541,-10 541,-10 541,-10 366.05,-10 366.05,-10"/>
<polygon fill="#757575" stroke="#757575" points="366.05,-6.5 356.05,-10 366.05,-13.5 366.05,-6.5"/>
</g>
<!-- main/ts/index.ts -->
<g id="node9" class="node">
<title>main/ts/index.ts</title>
<path fill="none" stroke="#c6c5fe" d="M272.21,-300C272.21,-300 199.79,-300 199.79,-300 196.46,-300 193.12,-296.67 193.12,-293.33 193.12,-293.33 193.12,-286.67 193.12,-286.67 193.12,-283.33 196.46,-280 199.79,-280 199.79,-280 272.21,-280 272.21,-280 275.54,-280 278.88,-283.33 278.88,-286.67 278.88,-286.67 278.88,-293.33 278.88,-293.33 278.88,-296.67 275.54,-300 272.21,-300"/>
<text xml:space="preserve" text-anchor="middle" x="236" y="-286.5" font-family="Arial" font-size="10.00" fill="#c6c5fe">main/ts/index.ts</text>
</g>
<!-- main/ts/index.ts&#45;&gt;main/ts/compile.ts -->
<g id="edge8" class="edge">
<title>main/ts/index.ts&#45;&gt;main/ts/compile.ts</title>
<path fill="none" stroke="#757575" d="M262.38,-279.73C262.38,-279.73 262.38,-255.72 262.38,-255.72"/>
<polygon fill="#757575" stroke="#757575" points="265.88,-255.72 262.38,-245.72 258.88,-255.72 265.88,-255.72"/>
</g>
<!-- main/ts/semantic&#45;errors.ts&#45;&gt;main/ts/types.ts -->
<g id="edge12" class="edge">
<title>main/ts/semantic&#45;errors.ts&#45;&gt;main/ts/types.ts</title>
<path fill="none" stroke="#757575" d="M323.62,-55.73C323.62,-55.73 323.62,-31.72 323.62,-31.72"/>
<polygon fill="#757575" stroke="#757575" points="327.13,-31.72 323.63,-21.72 320.13,-31.72 327.13,-31.72"/>
</g>
<!-- main/ts/semantic&#45;generics.ts&#45;&gt;main/ts/types.ts -->
<g id="edge14" class="edge">
<title>main/ts/semantic&#45;generics.ts&#45;&gt;main/ts/types.ts</title>
<path fill="none" stroke="#757575" d="M330.68,-117C308.34,-117 289.39,-117 289.39,-117 289.39,-117 289.39,-31.77 289.39,-31.77"/>
<polygon fill="#757575" stroke="#757575" points="292.89,-31.77 289.39,-21.77 285.89,-31.77 292.89,-31.77"/>
</g>
<!-- main/ts/semantic&#45;generics.ts&#45;&gt;main/ts/semantic&#45;errors.ts -->
<g id="edge13" class="edge">
<title>main/ts/semantic&#45;generics.ts&#45;&gt;main/ts/semantic&#45;errors.ts</title>
<path fill="none" stroke="#757575" d="M377,-111.73C377,-111.73 377,-87.72 377,-87.72"/>
<polygon fill="#757575" stroke="#757575" points="380.5,-87.72 377,-77.72 373.5,-87.72 380.5,-87.72"/>
</g>
<!-- test/ts/compile.test.ts -->
<g id="node12" class="node">
<title>test/ts/compile.test.ts</title>
<path fill="none" stroke="#c6c5fe" d="M401.96,-300C401.96,-300 304.04,-300 304.04,-300 300.71,-300 297.38,-296.67 297.38,-293.33 297.38,-293.33 297.38,-286.67 297.38,-286.67 297.38,-283.33 300.71,-280 304.04,-280 304.04,-280 401.96,-280 401.96,-280 405.29,-280 408.62,-283.33 408.62,-286.67 408.62,-286.67 408.62,-293.33 408.62,-293.33 408.62,-296.67 405.29,-300 401.96,-300"/>
<text xml:space="preserve" text-anchor="middle" x="353" y="-286.5" font-family="Arial" font-size="10.00" fill="#c6c5fe">test/ts/compile.test.ts</text>
</g>
<!-- test/ts/compile.test.ts&#45;&gt;main/ts/compile.ts -->
<g id="edge19" class="edge">
<title>test/ts/compile.test.ts&#45;&gt;main/ts/compile.ts</title>
<path fill="none" stroke="#757575" d="M319.75,-279.73C319.75,-279.73 319.75,-255.72 319.75,-255.72"/>
<polygon fill="#757575" stroke="#757575" points="323.25,-255.72 319.75,-245.72 316.25,-255.72 323.25,-255.72"/>
</g>
</g>
</svg>
